<?xml version="1.0" encoding="UTF-8" standalone="no"?>
<!DOCTYPE svg PUBLIC "-//W3C//DTD SVG 1.1//EN"
 "http://www.w3.org/Graphics/SVG/1.1/DTD/svg11.dtd">
<!-- Generated by graphviz version 8.0.1 (20230327.1645)
 -->
<!-- Title: safe_open_mod::safe_open Pages: 1 -->
<svg width="760pt" height="188pt"
 viewBox="0.00 0.00 760.00 187.50" xmlns="http://www.w3.org/2000/svg" xmlns:xlink="http://www.w3.org/1999/xlink">
<g id="graph0" class="graph" transform="scale(1 1) rotate(0) translate(4 183.5)">
<title>safe_open_mod::safe_open</title>
<!-- Node1 -->
<g id="node1" class="node">
<title>Node1</title>
<g id="a_node1"><a xlink:title=" ">
<polygon fill="#999999" stroke="#666666" points="752,-123.5 617,-123.5 617,-104.5 752,-104.5 752,-123.5"/>
<text text-anchor="middle" x="684.5" y="-111.5" font-family="Helvetica,sans-Serif" font-size="10.00">safe_open_mod::safe_open</text>
</a>
</g>
</g>
<!-- Node2 -->
<g id="node2" class="node">
<title>Node2</title>
<g id="a_node2"><a xlink:href="../../de/d25/mercier_8f90.html#a6635929818286c4cff963bd148261208" target="_top" xlink:title="Evaluate the Mercier stability criterion.">
<polygon fill="white" stroke="#666666" points="547,-179.5 498,-179.5 498,-160.5 547,-160.5 547,-179.5"/>
<text text-anchor="middle" x="522.5" y="-167.5" font-family="Helvetica,sans-Serif" font-size="10.00">mercier</text>
</a>
</g>
</g>
<!-- Node1&#45;&gt;Node2 -->
<g id="edge1" class="edge">
<title>Node1&#45;&gt;Node2</title>
<path fill="none" stroke="#63b8ff" d="M647.9,-127.71C628.26,-135.15 603.38,-144.35 581,-152 570.01,-155.75 557.74,-159.64 547.37,-162.83"/>
<polygon fill="#63b8ff" stroke="#63b8ff" points="648.83,-130.72 656.94,-123.9 646.34,-124.18 648.83,-130.72"/>
</g>
<!-- Node8 -->
<g id="node8" class="node">
<title>Node8</title>
<g id="a_node8"><a xlink:href="../../d2/dc3/open__output__files_8f90.html#a8e2e97aad77c7099fa003f98f48d4dfc" target="_top" xlink:title="Open output files.">
<polygon fill="white" stroke="#666666" points="568.5,-142.5 476.5,-142.5 476.5,-123.5 568.5,-123.5 568.5,-142.5"/>
<text text-anchor="middle" x="522.5" y="-130.5" font-family="Helvetica,sans-Serif" font-size="10.00">open_output_files</text>
</a>
</g>
</g>
<!-- Node1&#45;&gt;Node8 -->
<g id="edge7" class="edge">
<title>Node1&#45;&gt;Node8</title>
<path fill="none" stroke="#63b8ff" d="M605.93,-123.21C593.21,-124.72 580.4,-126.24 568.8,-127.62"/>
<polygon fill="#63b8ff" stroke="#63b8ff" points="606.06,-126.6 615.57,-121.95 605.23,-119.65 606.06,-126.6"/>
</g>
<!-- Node11 -->
<g id="node11" class="node">
<title>Node11</title>
<g id="a_node11"><a xlink:href="../../d4/dc8/read__indata_8f90.html#a93b4b27202925d5f2783e8a4da81a8d7" target="_top" xlink:title="Read the INDATA namelist from a given input file.">
<polygon fill="white" stroke="#666666" points="405.5,-105.5 338.5,-105.5 338.5,-86.5 405.5,-86.5 405.5,-105.5"/>
<text text-anchor="middle" x="372" y="-93.5" font-family="Helvetica,sans-Serif" font-size="10.00">read_indata</text>
</a>
</g>
</g>
<!-- Node1&#45;&gt;Node11 -->
<g id="edge11" class="edge">
<title>Node1&#45;&gt;Node11</title>
<path fill="none" stroke="#63b8ff" d="M605.57,-109.48C541.07,-105.74 452.67,-100.62 405.6,-97.89"/>
<polygon fill="#63b8ff" stroke="#63b8ff" points="605.32,-113.03 615.51,-110.12 605.73,-106.04 605.32,-113.03"/>
</g>
<!-- Node12 -->
<g id="node12" class="node">
<title>Node12</title>
<g id="a_node12"><a xlink:href="../../d1/d41/namespacemgrid__mod.html#a202373a45f0c5b1f81076da92a1123d0" target="_top" xlink:title=" ">
<polygon fill="white" stroke="#666666" points="581,-66.5 464,-66.5 464,-47.5 581,-47.5 581,-66.5"/>
<text text-anchor="middle" x="522.5" y="-54.5" font-family="Helvetica,sans-Serif" font-size="10.00">mgrid_mod::read_mgrid</text>
</a>
</g>
</g>
<!-- Node1&#45;&gt;Node12 -->
<g id="edge13" class="edge">
<title>Node1&#45;&gt;Node12</title>
<path fill="none" stroke="#63b8ff" d="M645.47,-100.45C616.54,-90.14 577.38,-76.19 551.32,-66.91"/>
<polygon fill="#63b8ff" stroke="#63b8ff" points="644.04,-104.01 654.63,-104.07 646.38,-97.42 644.04,-104.01"/>
</g>
<!-- Node3 -->
<g id="node3" class="node">
<title>Node3</title>
<g id="a_node3"><a xlink:href="../../d6/d53/jxbforce_8f90.html#aef04f343b688724d6ec0ee8f2a9db7c1" target="_top" xlink:title="Program for computing local &#160;force balance.">
<polygon fill="white" stroke="#666666" points="397,-179.5 347,-179.5 347,-160.5 397,-160.5 397,-179.5"/>
<text text-anchor="middle" x="372" y="-167.5" font-family="Helvetica,sans-Serif" font-size="10.00">jxbforce</text>
</a>
</g>
</g>
<!-- Node2&#45;&gt;Node3 -->
<g id="edge2" class="edge">
<title>Node2&#45;&gt;Node3</title>
<path fill="none" stroke="#63b8ff" d="M486.92,-170C459.43,-170 421.67,-170 397.29,-170"/>
<polygon fill="#63b8ff" stroke="#63b8ff" points="486.64,-173.5 496.64,-170 486.64,-166.5 486.64,-173.5"/>
</g>
<!-- Node4 -->
<g id="node4" class="node">
<title>Node4</title>
<g id="a_node4"><a xlink:href="../../d0/d22/eqfor_8f90.html#a4579124c405a906bf05b3d3a0da2d105" target="_top" xlink:title="Basis physics analysis and evaluaton of force balance. This is where most of the contents of the thre...">
<polygon fill="white" stroke="#666666" points="277,-176.5 239,-176.5 239,-157.5 277,-157.5 277,-176.5"/>
<text text-anchor="middle" x="258" y="-164.5" font-family="Helvetica,sans-Serif" font-size="10.00">eqfor</text>
</a>
</g>
</g>
<!-- Node3&#45;&gt;Node4 -->
<g id="edge3" class="edge">
<title>Node3&#45;&gt;Node4</title>
<path fill="none" stroke="#63b8ff" d="M335.82,-169.06C316.43,-168.54 293.17,-167.92 277.36,-167.49"/>
<polygon fill="#63b8ff" stroke="#63b8ff" points="335.61,-172.58 345.7,-169.35 335.8,-165.58 335.61,-172.58"/>
</g>
<!-- Node5 -->
<g id="node5" class="node">
<title>Node5</title>
<g id="a_node5"><a xlink:href="../../d0/d71/fileout_8f90.html#a7228e984aaf2c38bd772e3d846fab7af" target="_top" xlink:title="Write the output files.">
<polygon fill="white" stroke="#666666" points="200,-172.5 158,-172.5 158,-153.5 200,-153.5 200,-172.5"/>
<text text-anchor="middle" x="179" y="-160.5" font-family="Helvetica,sans-Serif" font-size="10.00">fileout</text>
</a>
</g>
</g>
<!-- Node4&#45;&gt;Node5 -->
<g id="edge4" class="edge">
<title>Node4&#45;&gt;Node5</title>
<path fill="none" stroke="#63b8ff" d="M228.03,-165.49C218.79,-165.01 208.77,-164.49 200.28,-164.05"/>
<polygon fill="#63b8ff" stroke="#63b8ff" points="227.58,-169.03 237.75,-166.05 227.95,-162.04 227.58,-169.03"/>
</g>
<!-- Node6 -->
<g id="node6" class="node">
<title>Node6</title>
<g id="a_node6"><a xlink:href="../../db/d61/vmec_8f90.html#a6d38ab7be2f9d818da4541e1d352ea23" target="_top" xlink:title="Main driver for VMEC.">
<polygon fill="white" stroke="#666666" points="122,-144.5 81,-144.5 81,-125.5 122,-125.5 122,-144.5"/>
<text text-anchor="middle" x="101.5" y="-132.5" font-family="Helvetica,sans-Serif" font-size="10.00">vmec</text>
</a>
</g>
</g>
<!-- Node5&#45;&gt;Node6 -->
<g id="edge5" class="edge">
<title>Node5&#45;&gt;Node6</title>
<path fill="none" stroke="#63b8ff" d="M147.71,-151.77C139.14,-148.59 130.04,-145.21 122.27,-142.33"/>
<polygon fill="#63b8ff" stroke="#63b8ff" points="146.17,-155.3 156.77,-155.5 148.61,-148.74 146.17,-155.3"/>
</g>
<!-- Node7 -->
<g id="node7" class="node">
<title>Node7</title>
<g id="a_node7"><a xlink:href="../../db/d61/vmec_8f90.html#ace5bdf043bb85c8f0a9fc582bdb55725" target="_top" xlink:title="Main program of VMEC.">
<polygon fill="white" stroke="#666666" points="45,-144.5 0,-144.5 0,-125.5 45,-125.5 45,-144.5"/>
<text text-anchor="middle" x="22.5" y="-132.5" font-family="Helvetica,sans-Serif" font-size="10.00">xvmec</text>
</a>
</g>
</g>
<!-- Node6&#45;&gt;Node7 -->
<g id="edge6" class="edge">
<title>Node6&#45;&gt;Node7</title>
<path fill="none" stroke="#63b8ff" d="M69.67,-135C61.56,-135 52.97,-135 45.43,-135"/>
<polygon fill="#63b8ff" stroke="#63b8ff" points="69.67,-138.5 79.67,-135 69.67,-131.5 69.67,-138.5"/>
</g>
<!-- Node9 -->
<g id="node9" class="node">
<title>Node9</title>
<g id="a_node9"><a xlink:href="../../d0/d4c/heading_8f90.html#aacf288f9cc770199b74d2e6fcc374450" target="_top" xlink:title="Open output files and print banner message at the top.">
<polygon fill="white" stroke="#666666" points="397,-142.5 347,-142.5 347,-123.5 397,-123.5 397,-142.5"/>
<text text-anchor="middle" x="372" y="-130.5" font-family="Helvetica,sans-Serif" font-size="10.00">heading</text>
</a>
</g>
</g>
<!-- Node8&#45;&gt;Node9 -->
<g id="edge8" class="edge">
<title>Node8&#45;&gt;Node9</title>
<path fill="none" stroke="#63b8ff" d="M465.23,-133C441.79,-133 415.8,-133 397.4,-133"/>
<polygon fill="#63b8ff" stroke="#63b8ff" points="465.14,-136.5 475.14,-133 465.14,-129.5 465.14,-136.5"/>
</g>
<!-- Node10 -->
<g id="node10" class="node">
<title>Node10</title>
<g id="a_node10"><a xlink:href="../../d8/da3/readin_8f90.html#a60f2bfd8fc6f7c3e027a8f91ef0c7b25" target="_top" xlink:title="Read the input file.">
<polygon fill="white" stroke="#666666" points="279.5,-107.5 236.5,-107.5 236.5,-88.5 279.5,-88.5 279.5,-107.5"/>
<text text-anchor="middle" x="258" y="-95.5" font-family="Helvetica,sans-Serif" font-size="10.00">readin</text>
</a>
</g>
</g>
<!-- Node9&#45;&gt;Node10 -->
<g id="edge9" class="edge">
<title>Node9&#45;&gt;Node10</title>
<path fill="none" stroke="#63b8ff" d="M336.31,-122.16C317.83,-116.38 295.7,-109.47 279.87,-104.52"/>
<polygon fill="#63b8ff" stroke="#63b8ff" points="335.11,-125.76 345.7,-125.41 337.2,-119.08 335.11,-125.76"/>
</g>
<!-- Node10&#45;&gt;Node6 -->
<g id="edge10" class="edge">
<title>Node10&#45;&gt;Node6</title>
<path fill="none" stroke="#63b8ff" d="M225.5,-105.54C194.48,-112.97 148.07,-124.09 122.03,-130.32"/>
<polygon fill="#63b8ff" stroke="#63b8ff" points="226.25,-108.72 235.16,-102.99 224.62,-101.92 226.25,-108.72"/>
</g>
<!-- Node11&#45;&gt;Node10 -->
<g id="edge12" class="edge">
<title>Node11&#45;&gt;Node10</title>
<path fill="none" stroke="#63b8ff" d="M327.03,-96.79C310.75,-97.08 293.05,-97.39 279.79,-97.63"/>
<polygon fill="#63b8ff" stroke="#63b8ff" points="327.07,-100.27 337,-96.59 326.94,-93.27 327.07,-100.27"/>
</g>
<!-- Node12&#45;&gt;Node10 -->
<g id="edge16" class="edge">
<title>Node12&#45;&gt;Node10</title>
<path fill="none" stroke="#63b8ff" d="M453.01,-59.95C412.74,-62.69 361.05,-67.94 316,-78 303.72,-80.74 290.43,-85.31 279.77,-89.39"/>
<polygon fill="#63b8ff" stroke="#63b8ff" points="453.03,-63.4 462.78,-59.26 452.58,-56.41 453.03,-63.4"/>
</g>
<!-- Node13 -->
<g id="node13" class="node">
<title>Node13</title>
<g id="a_node13"><a xlink:href="../../db/dc0/namespacenestor__io.html#a84f85fce5232fbd8ee9eca2f2b5adb0c" target="_top" xlink:title=" ">
<polygon fill="white" stroke="#666666" points="428,-30 316,-30 316,0 428,0 428,-30"/>
<text text-anchor="start" x="324" y="-18" font-family="Helvetica,sans-Serif" font-size="10.00">nestor_io::read_nestor</text>
<text text-anchor="middle" x="372" y="-7" font-family="Helvetica,sans-Serif" font-size="10.00">_inputs</text>
</a>
</g>
</g>
<!-- Node12&#45;&gt;Node13 -->
<g id="edge14" class="edge">
<title>Node12&#45;&gt;Node13</title>
<path fill="none" stroke="#63b8ff" d="M476.08,-44.15C460.8,-39.83 443.6,-34.97 427.68,-30.47"/>
<polygon fill="#63b8ff" stroke="#63b8ff" points="474.73,-47.69 485.31,-47.05 476.64,-40.96 474.73,-47.69"/>
</g>
<!-- Node14 -->
<g id="node14" class="node">
<title>Node14</title>
<g id="a_node14"><a xlink:href="../../d4/d69/nestor__main_8f90.html#a1b0fd336e80285a96925333daa2ee8f0" target="_top" xlink:title="Main program of stand&#45;alone version of NESTOR.">
<polygon fill="white" stroke="#666666" points="280,-24.5 236,-24.5 236,-5.5 280,-5.5 280,-24.5"/>
<text text-anchor="middle" x="258" y="-12.5" font-family="Helvetica,sans-Serif" font-size="10.00">nestor</text>
</a>
</g>
</g>
<!-- Node13&#45;&gt;Node14 -->
<g id="edge15" class="edge">
<title>Node13&#45;&gt;Node14</title>
<path fill="none" stroke="#63b8ff" d="M304.81,-15C296.01,-15 287.56,-15 280.36,-15"/>
<polygon fill="#63b8ff" stroke="#63b8ff" points="304.66,-18.5 314.66,-15 304.66,-11.5 304.66,-18.5"/>
</g>
</g>
</svg>
