<?xml version="1.0" encoding="UTF-8" standalone="no"?>
<!DOCTYPE svg PUBLIC "-//W3C//DTD SVG 1.1//EN"
 "http://www.w3.org/Graphics/SVG/1.1/DTD/svg11.dtd">
<!-- Generated by graphviz version 12.0.0 (20240704.0754)
 -->
<!-- Title: safe_open_mod::safe_open Pages: 1 -->
<!--zoomable 188 -->

<svg id="main" version="1.1" xmlns="http://www.w3.org/2000/svg" xmlns:xlink="http://www.w3.org/1999/xlink" xml:space="preserve" onload="init(evt)">

<style type="text/css"><![CDATA[
.node, .edge {opacity: 0.7;}
.node.selected, .edge.selected {opacity: 1;}
.edge:hover path { stroke: red; }
.edge:hover polygon { stroke: red; fill: red; }
]]></style>

<defs>
  <circle id="rim" cx="0" cy="0" r="7"/>
  <circle id="rim2" cx="0" cy="0" r="3.5"/>
  <g id="zoomPlus">
    <use xlink:href="#rim" fill="#404040"><set attributeName="fill" to="#808080" begin="zoomplus.mouseover" end="zoomplus.mouseout"/></use>
    <path d="M-4,0h8M0,-4v8" fill="none" stroke="white" stroke-width="1.5" pointer-events="none"/>
  </g>
  <g id="zoomMin">
    <use xlink:href="#rim" fill="#404040"><set attributeName="fill" to="#808080" begin="zoomminus.mouseover" end="zoomminus.mouseout"/></use>
    <path d="M-4,0h8" fill="none" stroke="white" stroke-width="1.5" pointer-events="none"/>
  </g>
  <g id="arrowUp" transform="translate(30 24)">
    <use xlink:href="#rim"/>
    <path pointer-events="none" fill="none" stroke="white" stroke-width="1.5" d="M0,-3.0v7 M-2.5,-0.5L0,-3.0L2.5,-0.5"/>
  </g>
  <g id="arrowRight" transform="rotate(90) translate(36 -43)">
    <use xlink:href="#rim"/>
    <path pointer-events="none" fill="none" stroke="white" stroke-width="1.5" d="M0,-3.0v7 M-2.5,-0.5L0,-3.0L2.5,-0.5"/>
  </g>
  <g id="arrowDown" transform="rotate(180) translate(-30 -48)">
    <use xlink:href="#rim"/>
    <path pointer-events="none" fill="none" stroke="white" stroke-width="1.5" d="M0,-3.0v7 M-2.5,-0.5L0,-3.0L2.5,-0.5"/>
  </g>
  <g id="arrowLeft" transform="rotate(270) translate(-36 17)">
    <use xlink:href="#rim"/>
    <path pointer-events="none" fill="none" stroke="white" stroke-width="1.5" d="M0,-3.0v7 M-2.5,-0.5L0,-3.0L2.5,-0.5"/>
  </g>
  <g id="resetDef">
    <use xlink:href="#rim2" fill="#404040"><set attributeName="fill" to="#808080" begin="reset.mouseover" end="reset.mouseout"/></use>
  </g>
</defs>
<script type="application/ecmascript">
var viewWidth = 755;
var viewHeight = 188;
var sectionId = 'dynsection-0';
</script>
<script type="application/ecmascript" xlink:href="../../svg.min.js"/>
<svg id="graph" class="graph">
<g id="viewport">
<title>safe_open_mod::safe_open</title>
<!-- Node1 -->
<g id="Node000001" class="node">
<title>Node1</title>
<g id="a_Node000001"><a xlink:title=" ">
<polygon fill="#999999" stroke="#666666" points="747.25,-123.88 612.75,-123.88 612.75,-104.62 747.25,-104.62 747.25,-123.88"/>
<text text-anchor="middle" x="680" y="-110.38" font-family="Helvetica,sans-Serif" font-size="10.00">safe_open_mod::safe_open</text>
</a>
</g>
</g>
<!-- Node2 -->
<g id="Node000002" class="node">
<title>Node2</title>
<g id="a_Node000002"><a xlink:href="../../de/d25/mercier_8f90.html#a6635929818286c4cff963bd148261208" target="_top" xlink:title="Evaluate the Mercier stability criterion.">
<polygon fill="white" stroke="#666666" points="542.62,-179.88 494.38,-179.88 494.38,-160.62 542.62,-160.62 542.62,-179.88"/>
<text text-anchor="middle" x="518.5" y="-166.38" font-family="Helvetica,sans-Serif" font-size="10.00">mercier</text>
</a>
</g>
</g>
<!-- Node1&#45;&gt;Node2 -->
<g id="edge1_Node000001_Node000002" class="edge">
<title>Node1&#45;&gt;Node2</title>
<g id="a_edge1_Node000001_Node000002"><a xlink:title=" ">
<path fill="none" stroke="#63b8ff" d="M642.54,-128.32C623.1,-135.69 598.72,-144.72 576.75,-152.25 565.71,-156.03 553.37,-159.95 542.99,-163.16"/>
<polygon fill="#63b8ff" stroke="#63b8ff" points="643.56,-131.67 651.66,-124.84 641.07,-125.13 643.56,-131.67"/>
</a>
</g>
</g>
<!-- Node8 -->
<g id="Node000008" class="node">
<title>Node8</title>
<g id="a_Node000008"><a xlink:href="../../d2/dc3/open__output__files_8f90.html#a8e2e97aad77c7099fa003f98f48d4dfc" target="_top" xlink:title="Open output files.">
<polygon fill="white" stroke="#666666" points="564.38,-142.88 472.62,-142.88 472.62,-123.62 564.38,-123.62 564.38,-142.88"/>
<text text-anchor="middle" x="518.5" y="-129.38" font-family="Helvetica,sans-Serif" font-size="10.00">open_output_files</text>
</a>
</g>
</g>
<!-- Node1&#45;&gt;Node8 -->
<g id="edge7_Node000001_Node000008" class="edge">
<title>Node1&#45;&gt;Node8</title>
<g id="a_edge7_Node000001_Node000008"><a xlink:title=" ">
<path fill="none" stroke="#63b8ff" d="M600.91,-123.55C588.48,-125.03 575.99,-126.52 564.66,-127.87"/>
<polygon fill="#63b8ff" stroke="#63b8ff" points="601.26,-127.04 610.78,-122.38 600.44,-120.08 601.26,-127.04"/>
</a>
</g>
</g>
<!-- Node11 -->
<g id="Node000011" class="node">
<title>Node11</title>
<g id="a_Node000011"><a xlink:href="../../d4/dc8/read__indata_8f90.html#a93b4b27202925d5f2783e8a4da81a8d7" target="_top" xlink:title="Read the INDATA namelist from a given input file.">
<polygon fill="white" stroke="#666666" points="401.75,-105.88 335.5,-105.88 335.5,-86.62 401.75,-86.62 401.75,-105.88"/>
<text text-anchor="middle" x="368.62" y="-92.38" font-family="Helvetica,sans-Serif" font-size="10.00">read_indata</text>
</a>
</g>
</g>
<!-- Node1&#45;&gt;Node11 -->
<g id="edge11_Node000001_Node000011" class="edge">
<title>Node1&#45;&gt;Node11</title>
<g id="a_edge11_Node000001_Node000011"><a xlink:title=" ">
<path fill="none" stroke="#63b8ff" d="M600.95,-109.71C536.72,-105.97 448.91,-100.86 402.11,-98.14"/>
<polygon fill="#63b8ff" stroke="#63b8ff" points="600.55,-113.19 610.74,-110.28 600.96,-106.2 600.55,-113.19"/>
</a>
</g>
</g>
<!-- Node12 -->
<g id="Node000012" class="node">
<title>Node12</title>
<g id="a_Node000012"><a xlink:href="../../d1/d41/namespacemgrid__mod.html#a202373a45f0c5b1f81076da92a1123d0" target="_top" xlink:title=" ">
<polygon fill="white" stroke="#666666" points="576.75,-66.88 460.25,-66.88 460.25,-47.62 576.75,-47.62 576.75,-66.88"/>
<text text-anchor="middle" x="518.5" y="-53.38" font-family="Helvetica,sans-Serif" font-size="10.00">mgrid_mod::read_mgrid</text>
</a>
</g>
</g>
<!-- Node1&#45;&gt;Node12 -->
<g id="edge13_Node000001_Node000012" class="edge">
<title>Node1&#45;&gt;Node12</title>
<g id="a_edge13_Node000001_Node000012"><a xlink:title=" ">
<path fill="none" stroke="#63b8ff" d="M640.02,-100.32C611.44,-90.11 573.29,-76.47 547.63,-67.3"/>
<polygon fill="#63b8ff" stroke="#63b8ff" points="638.83,-103.61 649.43,-103.68 641.19,-97.02 638.83,-103.61"/>
</a>
</g>
</g>
<!-- Node3 -->
<g id="Node000003" class="node">
<title>Node3</title>
<g id="a_Node000003"><a xlink:href="../../d6/d53/jxbforce_8f90.html#aef04f343b688724d6ec0ee8f2a9db7c1" target="_top" xlink:title="Program for computing local &#160;force balance.">
<polygon fill="white" stroke="#666666" points="393.5,-179.88 343.75,-179.88 343.75,-160.62 393.5,-160.62 393.5,-179.88"/>
<text text-anchor="middle" x="368.62" y="-166.38" font-family="Helvetica,sans-Serif" font-size="10.00">jxbforce</text>
</a>
</g>
</g>
<!-- Node2&#45;&gt;Node3 -->
<g id="edge2_Node000002_Node000003" class="edge">
<title>Node2&#45;&gt;Node3</title>
<g id="a_edge2_Node000002_Node000003"><a xlink:title=" ">
<path fill="none" stroke="#63b8ff" d="M482.68,-170.25C455.38,-170.25 418.09,-170.25 393.93,-170.25"/>
<polygon fill="#63b8ff" stroke="#63b8ff" points="482.56,-173.75 492.56,-170.25 482.56,-166.75 482.56,-173.75"/>
</a>
</g>
</g>
<!-- Node4 -->
<g id="Node000004" class="node">
<title>Node4</title>
<g id="a_Node000004"><a xlink:href="../../d0/d22/eqfor_8f90.html#a4579124c405a906bf05b3d3a0da2d105" target="_top" xlink:title="Basis physics analysis and evaluaton of force balance. This is where most of the contents of the thre...">
<polygon fill="white" stroke="#666666" points="274.38,-176.88 236.62,-176.88 236.62,-157.62 274.38,-157.62 274.38,-176.88"/>
<text text-anchor="middle" x="255.5" y="-163.38" font-family="Helvetica,sans-Serif" font-size="10.00">eqfor</text>
</a>
</g>
</g>
<!-- Node3&#45;&gt;Node4 -->
<g id="edge3_Node000003_Node000004" class="edge">
<title>Node3&#45;&gt;Node4</title>
<g id="a_edge3_Node000003_Node000004"><a xlink:title=" ">
<path fill="none" stroke="#63b8ff" d="M332.18,-169.29C313.05,-168.78 290.25,-168.16 274.71,-167.74"/>
<polygon fill="#63b8ff" stroke="#63b8ff" points="331.91,-172.79 342,-169.56 332.1,-165.79 331.91,-172.79"/>
</a>
</g>
</g>
<!-- Node5 -->
<g id="Node000005" class="node">
<title>Node5</title>
<g id="a_Node000005"><a xlink:href="../../d0/d71/fileout_8f90.html#a7228e984aaf2c38bd772e3d846fab7af" target="_top" xlink:title="Write the output files.">
<polygon fill="white" stroke="#666666" points="198,-174.88 156.5,-174.88 156.5,-155.62 198,-155.62 198,-174.88"/>
<text text-anchor="middle" x="177.25" y="-161.38" font-family="Helvetica,sans-Serif" font-size="10.00">fileout</text>
</a>
</g>
</g>
<!-- Node4&#45;&gt;Node5 -->
<g id="edge4_Node000004_Node000005" class="edge">
<title>Node4&#45;&gt;Node5</title>
<g id="a_edge4_Node000004_Node000005"><a xlink:title=" ">
<path fill="none" stroke="#63b8ff" d="M225.2,-166.48C216.23,-166.25 206.55,-165.99 198.34,-165.78"/>
<polygon fill="#63b8ff" stroke="#63b8ff" points="224.83,-169.97 234.92,-166.74 225.01,-162.98 224.83,-169.97"/>
</a>
</g>
</g>
<!-- Node6 -->
<g id="Node000006" class="node">
<title>Node6</title>
<g id="a_Node000006"><a xlink:href="../../db/d61/vmec_8f90.html#a6d38ab7be2f9d818da4541e1d352ea23" target="_top" xlink:title="Main driver for VMEC.">
<polygon fill="white" stroke="#666666" points="120.5,-146.88 80.5,-146.88 80.5,-127.62 120.5,-127.62 120.5,-146.88"/>
<text text-anchor="middle" x="100.5" y="-133.38" font-family="Helvetica,sans-Serif" font-size="10.00">vmec</text>
</a>
</g>
</g>
<!-- Node5&#45;&gt;Node6 -->
<g id="edge5_Node000005_Node000006" class="edge">
<title>Node5&#45;&gt;Node6</title>
<g id="a_edge5_Node000005_Node000006"><a xlink:title=" ">
<path fill="none" stroke="#63b8ff" d="M145.61,-153.77C137.22,-150.63 128.37,-147.31 120.81,-144.48"/>
<polygon fill="#63b8ff" stroke="#63b8ff" points="144.21,-156.99 154.8,-157.22 146.66,-150.43 144.21,-156.99"/>
</a>
</g>
</g>
<!-- Node7 -->
<g id="Node000007" class="node">
<title>Node7</title>
<g id="a_Node000007"><a xlink:href="../../db/d61/vmec_8f90.html#ace5bdf043bb85c8f0a9fc582bdb55725" target="_top" xlink:title="Main program of VMEC.">
<polygon fill="white" stroke="#666666" points="44.5,-146.88 0,-146.88 0,-127.62 44.5,-127.62 44.5,-146.88"/>
<text text-anchor="middle" x="22.25" y="-133.38" font-family="Helvetica,sans-Serif" font-size="10.00">xvmec</text>
</a>
</g>
</g>
<!-- Node6&#45;&gt;Node7 -->
<g id="edge6_Node000006_Node000007" class="edge">
<title>Node6&#45;&gt;Node7</title>
<g id="a_edge6_Node000006_Node000007"><a xlink:title=" ">
<path fill="none" stroke="#63b8ff" d="M68.97,-137.25C60.92,-137.25 52.39,-137.25 44.91,-137.25"/>
<polygon fill="#63b8ff" stroke="#63b8ff" points="68.75,-140.75 78.75,-137.25 68.75,-133.75 68.75,-140.75"/>
</a>
</g>
</g>
<!-- Node9 -->
<g id="Node000009" class="node">
<title>Node9</title>
<g id="a_Node000009"><a xlink:href="../../d0/d4c/heading_8f90.html#aacf288f9cc770199b74d2e6fcc374450" target="_top" xlink:title="Open output files and print banner message at the top.">
<polygon fill="white" stroke="#666666" points="393.5,-142.88 343.75,-142.88 343.75,-123.62 393.5,-123.62 393.5,-142.88"/>
<text text-anchor="middle" x="368.62" y="-129.38" font-family="Helvetica,sans-Serif" font-size="10.00">heading</text>
</a>
</g>
</g>
<!-- Node8&#45;&gt;Node9 -->
<g id="edge8_Node000008_Node000009" class="edge">
<title>Node8&#45;&gt;Node9</title>
<g id="a_edge8_Node000008_Node000009"><a xlink:title=" ">
<path fill="none" stroke="#63b8ff" d="M460.83,-133.25C437.65,-133.25 412.08,-133.25 393.92,-133.25"/>
<polygon fill="#63b8ff" stroke="#63b8ff" points="460.82,-136.75 470.82,-133.25 460.82,-129.75 460.82,-136.75"/>
</a>
</g>
</g>
<!-- Node10 -->
<g id="Node000010" class="node">
<title>Node10</title>
<g id="a_Node000010"><a xlink:href="../../d8/da3/readin_8f90.html#a60f2bfd8fc6f7c3e027a8f91ef0c7b25" target="_top" xlink:title="Read the input file.">
<polygon fill="white" stroke="#666666" points="276.62,-109.88 234.38,-109.88 234.38,-90.62 276.62,-90.62 276.62,-109.88"/>
<text text-anchor="middle" x="255.5" y="-96.38" font-family="Helvetica,sans-Serif" font-size="10.00">readin</text>
</a>
</g>
</g>
<!-- Node9&#45;&gt;Node10 -->
<g id="edge9_Node000009_Node000010" class="edge">
<title>Node9&#45;&gt;Node10</title>
<g id="a_edge9_Node000009_Node000010"><a xlink:title=" ">
<path fill="none" stroke="#63b8ff" d="M332.62,-122.85C314.26,-117.4 292.41,-110.91 276.84,-106.29"/>
<polygon fill="#63b8ff" stroke="#63b8ff" points="331.48,-126.17 342.06,-125.66 333.47,-119.46 331.48,-126.17"/>
</a>
</g>
</g>
<!-- Node10&#45;&gt;Node6 -->
<g id="edge10_Node000010_Node000006" class="edge">
<title>Node10&#45;&gt;Node6</title>
<g id="a_edge10_Node000010_Node000006"><a xlink:title=" ">
<path fill="none" stroke="#63b8ff" d="M223.24,-107.81C192.56,-115.23 146.72,-126.31 120.93,-132.55"/>
<polygon fill="#63b8ff" stroke="#63b8ff" points="223.81,-111.27 232.71,-105.52 222.17,-104.47 223.81,-111.27"/>
</a>
</g>
</g>
<!-- Node11&#45;&gt;Node10 -->
<g id="edge12_Node000011_Node000010" class="edge">
<title>Node11&#45;&gt;Node10</title>
<g id="a_edge12_Node000011_Node000010"><a xlink:title=" ">
<path fill="none" stroke="#63b8ff" d="M323.74,-97.83C307.57,-98.41 290.02,-99.04 276.9,-99.52"/>
<polygon fill="#63b8ff" stroke="#63b8ff" points="323.8,-101.33 333.67,-97.47 323.55,-94.33 323.8,-101.33"/>
</a>
</g>
</g>
<!-- Node12&#45;&gt;Node10 -->
<g id="edge16_Node000012_Node000010" class="edge">
<title>Node12&#45;&gt;Node10</title>
<g id="a_edge16_Node000012_Node000010"><a xlink:title=" ">
<path fill="none" stroke="#63b8ff" d="M448.64,-59.03C408.58,-61.29 357.38,-66.29 313,-77.25 300.66,-80.3 287.48,-85.54 276.95,-90.25"/>
<polygon fill="#63b8ff" stroke="#63b8ff" points="448.58,-62.54 458.38,-58.53 448.22,-55.55 448.58,-62.54"/>
</a>
</g>
</g>
<!-- Node13 -->
<g id="Node000013" class="node">
<title>Node13</title>
<g id="a_Node000013"><a xlink:href="../../db/dc0/namespacenestor__io.html#a84f85fce5232fbd8ee9eca2f2b5adb0c" target="_top" xlink:title=" ">
<polygon fill="white" stroke="#666666" points="424.25,-30.5 313,-30.5 313,0 424.25,0 424.25,-30.5"/>
<text text-anchor="start" x="321" y="-17" font-family="Helvetica,sans-Serif" font-size="10.00">nestor_io::read_nestor</text>
<text text-anchor="middle" x="368.62" y="-5.75" font-family="Helvetica,sans-Serif" font-size="10.00">_inputs</text>
</a>
</g>
</g>
<!-- Node12&#45;&gt;Node13 -->
<g id="edge14_Node000012_Node000013" class="edge">
<title>Node12&#45;&gt;Node13</title>
<g id="a_edge14_Node000012_Node000013"><a xlink:title=" ">
<path fill="none" stroke="#63b8ff" d="M471.19,-44.1C456.44,-39.91 439.98,-35.23 424.68,-30.89"/>
<polygon fill="#63b8ff" stroke="#63b8ff" points="470.05,-47.41 480.62,-46.78 471.96,-40.68 470.05,-47.41"/>
</a>
</g>
</g>
<!-- Node14 -->
<g id="Node000014" class="node">
<title>Node14</title>
<g id="a_Node000014"><a xlink:href="../../d4/d69/nestor__main_8f90.html#a1b0fd336e80285a96925333daa2ee8f0" target="_top" xlink:title="Main program of stand&#45;alone version of NESTOR.">
<polygon fill="white" stroke="#666666" points="277,-24.88 234,-24.88 234,-5.63 277,-5.63 277,-24.88"/>
<text text-anchor="middle" x="255.5" y="-11.38" font-family="Helvetica,sans-Serif" font-size="10.00">nestor</text>
</a>
</g>
</g>
<!-- Node13&#45;&gt;Node14 -->
<g id="edge15_Node000013_Node000014" class="edge">
<title>Node13&#45;&gt;Node14</title>
<g id="a_edge15_Node000013_Node000014"><a xlink:title=" ">
<path fill="none" stroke="#63b8ff" d="M301.28,-15.25C292.68,-15.25 284.44,-15.25 277.43,-15.25"/>
<polygon fill="#63b8ff" stroke="#63b8ff" points="301.2,-18.75 311.2,-15.25 301.2,-11.75 301.2,-18.75"/>
</a>
</g>
</g>
</g>
</svg>

<g id="navigator" transform="translate(0 0)" fill="#404254">
  <rect fill="#f2f5e9" fill-opacity="0.5" stroke="#606060" stroke-width=".5" x="0" y="0" width="60" height="60"/>
  <use id="zoomplus" xlink:href="#zoomPlus" x="17" y="9" onmousedown="handleZoom(evt,'in')"/>
  <use id="zoomminus" xlink:href="#zoomMin" x="42" y="9" onmousedown="handleZoom(evt,'out')"/>
  <use id="reset" xlink:href="#resetDef" x="30" y="36" onmousedown="handleReset()"/>
   <use id="arrowup" xlink:href="#arrowUp" x="0" y="0" onmousedown="handlePan(0,-1)"/>
  <use id="arrowright" xlink:href="#arrowRight" x="0" y="0" onmousedown="handlePan(1,0)"/>
  <use id="arrowdown" xlink:href="#arrowDown" x="0" y="0" onmousedown="handlePan(0,1)"/>
  <use id="arrowleft" xlink:href="#arrowLeft" x="0" y="0" onmousedown="handlePan(-1,0)"/>
</g>
<svg viewBox="0 0 15 15" width="100%" height="30px" preserveAspectRatio="xMaxYMin meet">
 <g id="arrow_out" transform="scale(0.3 0.3)">
  <a xlink:href="namespacesafe__open__mod_aab207f9769415b0cccd91260a8382eeb_icgraph_org.svg" target="_base">
   <rect id="button" ry="5" rx="5" y="6" x="6" height="38" width="38"
        fill="#f2f5e9" fill-opacity="0.5" stroke="#606060" stroke-width="1.0"/>
   <path id="arrow"
     d="M 11.500037,31.436501 C 11.940474,20.09759 22.043105,11.32322 32.158766,21.979434 L 37.068811,17.246167 C 37.068811,17.246167 37.088388,32 37.088388,32 L 22.160133,31.978069 C 22.160133,31.978069 26.997745,27.140456 26.997745,27.140456 C 18.528582,18.264221 13.291696,25.230495 11.500037,31.436501 z"
     style="fill:#404040;"/>
  </a>
 </g>
</svg>

<style type='text/css'>
<![CDATA[
[data-mouse-over-selected='false'] { opacity: 0.7; }
[data-mouse-over-selected='true']  { opacity: 1.0; }
]]>
</style>
<script type="application/ecmascript"><![CDATA[
document.addEventListener('DOMContentLoaded', (event) => {
  highlightEdges();
  highlightAdjacentNodes();
});
]]></script>
</svg>
