<?xml version="1.0" encoding="UTF-8" standalone="no"?>
<!DOCTYPE svg PUBLIC "-//W3C//DTD SVG 1.1//EN"
 "http://www.w3.org/Graphics/SVG/1.1/DTD/svg11.dtd">
<!-- Generated by graphviz version 2.47.1 (20210421.1823)
 -->
<!-- Title: safe_open_mod::safe_open Pages: 1 -->
<!--zoomable 104 -->
<svg id="main" version="1.1" xmlns="http://www.w3.org/2000/svg" xmlns:xlink="http://www.w3.org/1999/xlink" xml:space="preserve" onload="init(evt)">
<style type="text/css"><![CDATA[
.edge:hover path { stroke: red; }
.edge:hover polygon { stroke: red; fill: red; }
]]></style>
<script type="text/javascript"><![CDATA[
var edges = document.getElementsByTagName('g');
if (edges && edges.length) {
  for (var i=0;i<edges.length;i++) {
    if (edges[i].id.substr(0,4)=='edge') {
      edges[i].setAttribute('class','edge');
    }
  }
}
]]></script>
        <defs>
                <circle id="rim" cx="0" cy="0" r="7"/>
                <circle id="rim2" cx="0" cy="0" r="3.5"/>
                <g id="zoomPlus">
                        <use xlink:href="#rim" fill="#404040">
                                <set attributeName="fill" to="#808080" begin="zoomplus.mouseover" end="zoomplus.mouseout"/>
                        </use>
                        <path d="M-4,0h8M0,-4v8" fill="none" stroke="white" stroke-width="1.5" pointer-events="none"/>
                </g>
                <g id="zoomMin">
                        <use xlink:href="#rim" fill="#404040">
                                <set attributeName="fill" to="#808080" begin="zoomminus.mouseover" end="zoomminus.mouseout"/>
                        </use>
                        <path d="M-4,0h8" fill="none" stroke="white" stroke-width="1.5" pointer-events="none"/>
                </g>
                <g id="dirArrow">
                        <path fill="none" stroke="white" stroke-width="1.5" d="M0,-3.0v7 M-2.5,-0.5L0,-3.0L2.5,-0.5"/>
                </g>
               <g id="resetDef">
                       <use xlink:href="#rim2" fill="#404040">
                               <set attributeName="fill" to="#808080" begin="reset.mouseover" end="reset.mouseout"/>
                       </use>
               </g>
        </defs>

<script type="text/javascript">
var viewWidth = 608;
var viewHeight = 104;
var sectionId = 'dynsection-0';
</script>
<script xlink:href="../../svgpan.js"/>
<svg id="graph" class="graph">
<g id="viewport">
<title>safe_open_mod::safe_open</title>
<polygon fill="white" stroke="transparent" points="-4,4 -4,-100 604,-100 604,4 -4,4"/>
<!-- Node1 -->
<g id="node1" class="node">
<title>Node1</title>
<g id="a_node1"><a xlink:title=" ">
<polygon fill="#bfbfbf" stroke="black" points="465,-38.5 465,-57.5 600,-57.5 600,-38.5 465,-38.5"/>
<text text-anchor="middle" x="532.5" y="-45.5" font-family="Helvetica,sans-Serif" font-size="10.00">safe_open_mod::safe_open</text>
</a>
</g>
</g>
<!-- Node2 -->
<g id="node2" class="node">
<title>Node2</title>
<g id="a_node2"><a xlink:href="../../de/d25/mercier_8f90.html#a6635929818286c4cff963bd148261208" target="_top" xlink:title="Evaluate the Mercier stability criterion.">
<polygon fill="white" stroke="black" points="358.5,-76.5 358.5,-95.5 407.5,-95.5 407.5,-76.5 358.5,-76.5"/>
<text text-anchor="middle" x="383" y="-83.5" font-family="Helvetica,sans-Serif" font-size="10.00">mercier</text>
</a>
</g>
</g>
<!-- Node1&#45;&gt;Node2 -->
<g id="edge1" class="edge">
<title>Node1&#45;&gt;Node2</title>
<path fill="none" stroke="midnightblue" d="M484.41,-60.13C458.88,-66.71 428.43,-74.55 407.81,-79.87"/>
<polygon fill="midnightblue" stroke="midnightblue" points="485.47,-63.47 494.28,-57.59 483.72,-56.69 485.47,-63.47"/>
</g>
<!-- Node7 -->
<g id="node7" class="node">
<title>Node7</title>
<g id="a_node7"><a xlink:href="../../d2/dc3/open__output__files_8f90.html#a8e2e97aad77c7099fa003f98f48d4dfc" target="_top" xlink:title="Open output files.">
<polygon fill="white" stroke="black" points="337,-38.5 337,-57.5 429,-57.5 429,-38.5 337,-38.5"/>
<text text-anchor="middle" x="383" y="-45.5" font-family="Helvetica,sans-Serif" font-size="10.00">open_output_files</text>
</a>
</g>
</g>
<!-- Node1&#45;&gt;Node7 -->
<g id="edge6" class="edge">
<title>Node1&#45;&gt;Node7</title>
<path fill="none" stroke="midnightblue" d="M454.46,-48C445.78,-48 437.16,-48 429.08,-48"/>
<polygon fill="midnightblue" stroke="midnightblue" points="454.66,-51.5 464.66,-48 454.66,-44.5 454.66,-51.5"/>
</g>
<!-- Node10 -->
<g id="node10" class="node">
<title>Node10</title>
<g id="a_node10"><a xlink:href="../../d4/dc8/read__indata_8f90.html#a93b4b27202925d5f2783e8a4da81a8d7" target="_top" xlink:title="Read the INDATA namelist from a given input file.">
<polygon fill="white" stroke="black" points="234,-0.5 234,-19.5 301,-19.5 301,-0.5 234,-0.5"/>
<text text-anchor="middle" x="267.5" y="-7.5" font-family="Helvetica,sans-Serif" font-size="10.00">read_indata</text>
</a>
</g>
</g>
<!-- Node1&#45;&gt;Node10 -->
<g id="edge10" class="edge">
<title>Node1&#45;&gt;Node10</title>
<path fill="none" stroke="midnightblue" d="M473.74,-36.61C459.17,-33.93 443.54,-31.21 429,-29 384.89,-22.31 333.66,-16.6 301.17,-13.23"/>
<polygon fill="midnightblue" stroke="midnightblue" points="473.16,-40.06 483.64,-38.46 474.45,-33.18 473.16,-40.06"/>
</g>
<!-- Node3 -->
<g id="node3" class="node">
<title>Node3</title>
<g id="a_node3"><a xlink:href="../../d6/d53/jxbforce_8f90.html#aef04f343b688724d6ec0ee8f2a9db7c1" target="_top" xlink:title="Program for computing local &#160;force balance.">
<polygon fill="white" stroke="black" points="242.5,-76.5 242.5,-95.5 292.5,-95.5 292.5,-76.5 242.5,-76.5"/>
<text text-anchor="middle" x="267.5" y="-83.5" font-family="Helvetica,sans-Serif" font-size="10.00">jxbforce</text>
</a>
</g>
</g>
<!-- Node2&#45;&gt;Node3 -->
<g id="edge2" class="edge">
<title>Node2&#45;&gt;Node3</title>
<path fill="none" stroke="midnightblue" d="M348.46,-86C330.59,-86 309.01,-86 292.77,-86"/>
<polygon fill="midnightblue" stroke="midnightblue" points="348.48,-89.5 358.48,-86 348.48,-82.5 348.48,-89.5"/>
</g>
<!-- Node4 -->
<g id="node4" class="node">
<title>Node4</title>
<g id="a_node4"><a xlink:href="../../d0/d22/eqfor_8f90.html#a4579124c405a906bf05b3d3a0da2d105" target="_top" xlink:title="Basis physics analysis and evaluaton of force balance. This is where most of the contents of the thre...">
<polygon fill="white" stroke="black" points="157.5,-76.5 157.5,-95.5 195.5,-95.5 195.5,-76.5 157.5,-76.5"/>
<text text-anchor="middle" x="176.5" y="-83.5" font-family="Helvetica,sans-Serif" font-size="10.00">eqfor</text>
</a>
</g>
</g>
<!-- Node3&#45;&gt;Node4 -->
<g id="edge3" class="edge">
<title>Node3&#45;&gt;Node4</title>
<path fill="none" stroke="midnightblue" d="M232.08,-86C219.63,-86 206.07,-86 195.58,-86"/>
<polygon fill="midnightblue" stroke="midnightblue" points="232.18,-89.5 242.18,-86 232.18,-82.5 232.18,-89.5"/>
</g>
<!-- Node5 -->
<g id="node5" class="node">
<title>Node5</title>
<g id="a_node5"><a xlink:href="../../d0/d71/fileout_8f90.html#a7228e984aaf2c38bd772e3d846fab7af" target="_top" xlink:title="Write the output files.">
<polygon fill="white" stroke="black" points="77,-76.5 77,-95.5 119,-95.5 119,-76.5 77,-76.5"/>
<text text-anchor="middle" x="98" y="-83.5" font-family="Helvetica,sans-Serif" font-size="10.00">fileout</text>
</a>
</g>
</g>
<!-- Node4&#45;&gt;Node5 -->
<g id="edge4" class="edge">
<title>Node4&#45;&gt;Node5</title>
<path fill="none" stroke="midnightblue" d="M147.32,-86C137.97,-86 127.77,-86 119.15,-86"/>
<polygon fill="midnightblue" stroke="midnightblue" points="147.37,-89.5 157.37,-86 147.37,-82.5 147.37,-89.5"/>
</g>
<!-- Node6 -->
<g id="node6" class="node">
<title>Node6</title>
<g id="a_node6"><a xlink:href="../../db/d61/vmec_8f90.html#a6d38ab7be2f9d818da4541e1d352ea23" target="_top" xlink:title="Main driver for VMEC.">
<polygon fill="white" stroke="black" points="0,-57.5 0,-76.5 41,-76.5 41,-57.5 0,-57.5"/>
<text text-anchor="middle" x="20.5" y="-64.5" font-family="Helvetica,sans-Serif" font-size="10.00">vmec</text>
</a>
</g>
</g>
<!-- Node5&#45;&gt;Node6 -->
<g id="edge5" class="edge">
<title>Node5&#45;&gt;Node6</title>
<path fill="none" stroke="midnightblue" d="M66.91,-78.43C58.19,-76.23 48.9,-73.89 41.01,-71.91"/>
<polygon fill="midnightblue" stroke="midnightblue" points="66.22,-81.86 76.77,-80.91 67.92,-75.07 66.22,-81.86"/>
</g>
<!-- Node8 -->
<g id="node8" class="node">
<title>Node8</title>
<g id="a_node8"><a xlink:href="../../d0/d4c/heading_8f90.html#aacf288f9cc770199b74d2e6fcc374450" target="_top" xlink:title="Open output files and print banner message at the top.">
<polygon fill="white" stroke="black" points="242.5,-38.5 242.5,-57.5 292.5,-57.5 292.5,-38.5 242.5,-38.5"/>
<text text-anchor="middle" x="267.5" y="-45.5" font-family="Helvetica,sans-Serif" font-size="10.00">heading</text>
</a>
</g>
</g>
<!-- Node7&#45;&gt;Node8 -->
<g id="edge7" class="edge">
<title>Node7&#45;&gt;Node8</title>
<path fill="none" stroke="midnightblue" d="M326.8,-48C314.8,-48 302.7,-48 292.66,-48"/>
<polygon fill="midnightblue" stroke="midnightblue" points="326.82,-51.5 336.82,-48 326.82,-44.5 326.82,-51.5"/>
</g>
<!-- Node9 -->
<g id="node9" class="node">
<title>Node9</title>
<g id="a_node9"><a xlink:href="../../d8/da3/readin_8f90.html#a60f2bfd8fc6f7c3e027a8f91ef0c7b25" target="_top" xlink:title="Read the input file.">
<polygon fill="white" stroke="black" points="155,-38.5 155,-57.5 198,-57.5 198,-38.5 155,-38.5"/>
<text text-anchor="middle" x="176.5" y="-45.5" font-family="Helvetica,sans-Serif" font-size="10.00">readin</text>
</a>
</g>
</g>
<!-- Node8&#45;&gt;Node9 -->
<g id="edge8" class="edge">
<title>Node8&#45;&gt;Node9</title>
<path fill="none" stroke="midnightblue" d="M232.03,-48C220.6,-48 208.23,-48 198.17,-48"/>
<polygon fill="midnightblue" stroke="midnightblue" points="232.18,-51.5 242.18,-48 232.18,-44.5 232.18,-51.5"/>
</g>
<!-- Node9&#45;&gt;Node6 -->
<g id="edge9" class="edge">
<title>Node9&#45;&gt;Node6</title>
<path fill="none" stroke="midnightblue" d="M144.57,-51.82C113.84,-55.61 67.63,-61.31 41.45,-64.54"/>
<polygon fill="midnightblue" stroke="midnightblue" points="145.23,-55.26 154.73,-50.56 144.38,-48.31 145.23,-55.26"/>
</g>
<!-- Node10&#45;&gt;Node9 -->
<g id="edge11" class="edge">
<title>Node10&#45;&gt;Node9</title>
<path fill="none" stroke="midnightblue" d="M234.66,-23.59C222.5,-28.79 208.97,-34.56 198.12,-39.2"/>
<polygon fill="midnightblue" stroke="midnightblue" points="236.22,-26.73 244.04,-19.59 233.47,-20.3 236.22,-26.73"/>
</g>
</g>
</svg>
        <g id="navigator" transform="translate(0 0)" fill="#404254">
                <rect fill="#f2f5e9" fill-opacity="0.5" stroke="#606060" stroke-width=".5" x="0" y="0" width="60" height="60"/>
                <use id="zoomplus" xlink:href="#zoomPlus" x="17" y="9" onmousedown="handleZoom(evt,'in')"/>
                <use id="zoomminus" xlink:href="#zoomMin" x="42" y="9" onmousedown="handleZoom(evt,'out')"/>
                <use id="reset" xlink:href="#resetDef" x="30" y="36" onmousedown="handleReset()"/>
                <g id="arrowUp" xlink:href="#dirArrow" transform="translate(30 24)" onmousedown="handlePan(0,-1)">
                  <use xlink:href="#rim" fill="#404040">
                        <set attributeName="fill" to="#808080" begin="arrowUp.mouseover" end="arrowUp.mouseout"/>
                  </use>
                  <path fill="none" stroke="white" stroke-width="1.5" d="M0,-3.0v7 M-2.5,-0.5L0,-3.0L2.5,-0.5"/>
                </g>
                <g id="arrowRight" xlink:href="#dirArrow" transform="rotate(90) translate(36 -43)" onmousedown="handlePan(1,0)">
                  <use xlink:href="#rim" fill="#404040">
                        <set attributeName="fill" to="#808080" begin="arrowRight.mouseover" end="arrowRight.mouseout"/>
                  </use>
                  <path fill="none" stroke="white" stroke-width="1.5" d="M0,-3.0v7 M-2.5,-0.5L0,-3.0L2.5,-0.5"/>
                </g>
                <g id="arrowDown" xlink:href="#dirArrow" transform="rotate(180) translate(-30 -48)" onmousedown="handlePan(0,1)">
                  <use xlink:href="#rim" fill="#404040">
                        <set attributeName="fill" to="#808080" begin="arrowDown.mouseover" end="arrowDown.mouseout"/>
                  </use>
                  <path fill="none" stroke="white" stroke-width="1.5" d="M0,-3.0v7 M-2.5,-0.5L0,-3.0L2.5,-0.5"/>
                </g>
                <g id="arrowLeft" xlink:href="#dirArrow" transform="rotate(270) translate(-36 17)" onmousedown="handlePan(-1,0)">
                  <use xlink:href="#rim" fill="#404040">
                        <set attributeName="fill" to="#808080" begin="arrowLeft.mouseover" end="arrowLeft.mouseout"/>
                  </use>
                  <path fill="none" stroke="white" stroke-width="1.5" d="M0,-3.0v7 M-2.5,-0.5L0,-3.0L2.5,-0.5"/>
                </g>
        </g>
        <svg viewBox="0 0 15 15" width="100%" height="30px" preserveAspectRatio="xMaxYMin meet">
         <g id="arrow_out" transform="scale(0.3 0.3)">
          <a xlink:href="namespacesafe__open__mod_aab207f9769415b0cccd91260a8382eeb_icgraph_org.svg" target="_base">
           <rect id="button" ry="5" rx="5" y="6" x="6" height="38" width="38"
                fill="#f2f5e9" fill-opacity="0.5" stroke="#606060" stroke-width="1.0"/>
           <path id="arrow"
             d="M 11.500037,31.436501 C 11.940474,20.09759 22.043105,11.32322 32.158766,21.979434 L 37.068811,17.246167 C 37.068811,17.246167 37.088388,32 37.088388,32 L 22.160133,31.978069 C 22.160133,31.978069 26.997745,27.140456 26.997745,27.140456 C 18.528582,18.264221 13.291696,25.230495 11.500037,31.436501 z"
             style="fill:#404040;"/>
          </a>
         </g>
        </svg>
</svg>
