<?xml version="1.0" encoding="UTF-8" standalone="no"?>
<!DOCTYPE svg PUBLIC "-//W3C//DTD SVG 1.1//EN"
 "http://www.w3.org/Graphics/SVG/1.1/DTD/svg11.dtd">
<!-- Generated by graphviz version 7.1.0 (20230121.1956)
 -->
<!-- Title: safe_open_mod::safe_open Pages: 1 -->
<svg width="760pt" height="188pt"
 viewBox="0.00 0.00 760.00 187.50" xmlns="http://www.w3.org/2000/svg" xmlns:xlink="http://www.w3.org/1999/xlink">
<g id="graph0" class="graph" transform="scale(1 1) rotate(0) translate(4 183.5)">
<title>safe_open_mod::safe_open</title>
<!-- Node1 -->
<g id="node1" class="node">
<title>Node1</title>
<g id="a_node1"><a xlink:title=" ">
<polygon fill="#999999" stroke="#666666" points="752,-123.5 617,-123.5 617,-104.5 752,-104.5 752,-123.5"/>
<text text-anchor="middle" x="684.5" y="-111.5" font-family="Helvetica,sans-Serif" font-size="10.00">safe_open_mod::safe_open</text>
</a>
</g>
</g>
<!-- Node2 -->
<g id="node2" class="node">
<title>Node2</title>
<g id="a_node2"><a xlink:href="../../de/d25/mercier_8f90.html#a6635929818286c4cff963bd148261208" target="_top" xlink:title="Evaluate the Mercier stability criterion.">
<polygon fill="white" stroke="#666666" points="547,-179.5 498,-179.5 498,-160.5 547,-160.5 547,-179.5"/>
<text text-anchor="middle" x="522.5" y="-167.5" font-family="Helvetica,sans-Serif" font-size="10.00">mercier</text>
</a>
</g>
</g>
<!-- Node1&#45;&gt;Node2 -->
<g id="edge1" class="edge">
<title>Node1&#45;&gt;Node2</title>
<path fill="none" stroke="#63b8ff" d="M647.35,-127.92C627.8,-135.32 603.17,-144.43 581,-152 570.01,-155.75 557.74,-159.64 547.37,-162.83"/>
<polygon fill="#63b8ff" stroke="#63b8ff" points="648.42,-131.26 656.52,-124.43 645.93,-124.72 648.42,-131.26"/>
</g>
<!-- Node8 -->
<g id="node8" class="node">
<title>Node8</title>
<g id="a_node8"><a xlink:href="../../d2/dc3/open__output__files_8f90.html#a8e2e97aad77c7099fa003f98f48d4dfc" target="_top" xlink:title="Open output files.">
<polygon fill="white" stroke="#666666" points="568.5,-142.5 476.5,-142.5 476.5,-123.5 568.5,-123.5 568.5,-142.5"/>
<text text-anchor="middle" x="522.5" y="-130.5" font-family="Helvetica,sans-Serif" font-size="10.00">open_output_files</text>
</a>
</g>
</g>
<!-- Node1&#45;&gt;Node8 -->
<g id="edge7" class="edge">
<title>Node1&#45;&gt;Node8</title>
<path fill="none" stroke="#63b8ff" d="M605.17,-123.3C592.7,-124.78 580.17,-126.27 568.8,-127.62"/>
<polygon fill="#63b8ff" stroke="#63b8ff" points="605.55,-126.78 615.07,-122.13 604.73,-119.83 605.55,-126.78"/>
</g>
<!-- Node11 -->
<g id="node11" class="node">
<title>Node11</title>
<g id="a_node11"><a xlink:href="../../d4/dc8/read__indata_8f90.html#a93b4b27202925d5f2783e8a4da81a8d7" target="_top" xlink:title="Read the INDATA namelist from a given input file.">
<polygon fill="white" stroke="#666666" points="405.5,-105.5 338.5,-105.5 338.5,-86.5 405.5,-86.5 405.5,-105.5"/>
<text text-anchor="middle" x="372" y="-93.5" font-family="Helvetica,sans-Serif" font-size="10.00">read_indata</text>
</a>
</g>
</g>
<!-- Node1&#45;&gt;Node11 -->
<g id="edge11" class="edge">
<title>Node1&#45;&gt;Node11</title>
<path fill="none" stroke="#63b8ff" d="M605.17,-109.46C540.7,-105.72 452.57,-100.61 405.6,-97.89"/>
<polygon fill="#63b8ff" stroke="#63b8ff" points="604.81,-112.94 615,-110.03 605.22,-105.96 604.81,-112.94"/>
</g>
<!-- Node12 -->
<g id="node12" class="node">
<title>Node12</title>
<g id="a_node12"><a xlink:href="../../d1/d41/namespacemgrid__mod.html#a202373a45f0c5b1f81076da92a1123d0" target="_top" xlink:title=" ">
<polygon fill="white" stroke="#666666" points="581,-66.5 464,-66.5 464,-47.5 581,-47.5 581,-66.5"/>
<text text-anchor="middle" x="522.5" y="-54.5" font-family="Helvetica,sans-Serif" font-size="10.00">mgrid_mod::read_mgrid</text>
</a>
</g>
</g>
<!-- Node1&#45;&gt;Node12 -->
<g id="edge13" class="edge">
<title>Node1&#45;&gt;Node12</title>
<path fill="none" stroke="#63b8ff" d="M645.09,-100.32C616.19,-90.02 577.26,-76.15 551.32,-66.91"/>
<polygon fill="#63b8ff" stroke="#63b8ff" points="643.61,-103.5 654.2,-103.56 645.96,-96.91 643.61,-103.5"/>
</g>
<!-- Node3 -->
<g id="node3" class="node">
<title>Node3</title>
<g id="a_node3"><a xlink:href="../../d6/d53/jxbforce_8f90.html#aef04f343b688724d6ec0ee8f2a9db7c1" target="_top" xlink:title="Program for computing local &#160;force balance.">
<polygon fill="white" stroke="#666666" points="397,-179.5 347,-179.5 347,-160.5 397,-160.5 397,-179.5"/>
<text text-anchor="middle" x="372" y="-167.5" font-family="Helvetica,sans-Serif" font-size="10.00">jxbforce</text>
</a>
</g>
</g>
<!-- Node2&#45;&gt;Node3 -->
<g id="edge2" class="edge">
<title>Node2&#45;&gt;Node3</title>
<path fill="none" stroke="#63b8ff" d="M486.19,-170C458.76,-170 421.45,-170 397.29,-170"/>
<polygon fill="#63b8ff" stroke="#63b8ff" points="486.13,-173.5 496.13,-170 486.13,-166.5 486.13,-173.5"/>
</g>
<!-- Node4 -->
<g id="node4" class="node">
<title>Node4</title>
<g id="a_node4"><a xlink:href="../../d0/d22/eqfor_8f90.html#a4579124c405a906bf05b3d3a0da2d105" target="_top" xlink:title="Basis physics analysis and evaluaton of force balance. This is where most of the contents of the thre...">
<polygon fill="white" stroke="#666666" points="277,-176.5 239,-176.5 239,-157.5 277,-157.5 277,-176.5"/>
<text text-anchor="middle" x="258" y="-164.5" font-family="Helvetica,sans-Serif" font-size="10.00">eqfor</text>
</a>
</g>
</g>
<!-- Node3&#45;&gt;Node4 -->
<g id="edge3" class="edge">
<title>Node3&#45;&gt;Node4</title>
<path fill="none" stroke="#63b8ff" d="M335.27,-169.04C316,-168.53 293.02,-167.91 277.36,-167.49"/>
<polygon fill="#63b8ff" stroke="#63b8ff" points="335.09,-172.54 345.18,-169.31 335.28,-165.54 335.09,-172.54"/>
</g>
<!-- Node5 -->
<g id="node5" class="node">
<title>Node5</title>
<g id="a_node5"><a xlink:href="../../d0/d71/fileout_8f90.html#a7228e984aaf2c38bd772e3d846fab7af" target="_top" xlink:title="Write the output files.">
<polygon fill="white" stroke="#666666" points="200,-172.5 158,-172.5 158,-153.5 200,-153.5 200,-172.5"/>
<text text-anchor="middle" x="179" y="-160.5" font-family="Helvetica,sans-Serif" font-size="10.00">fileout</text>
</a>
</g>
</g>
<!-- Node4&#45;&gt;Node5 -->
<g id="edge4" class="edge">
<title>Node4&#45;&gt;Node5</title>
<path fill="none" stroke="#63b8ff" d="M227.42,-165.46C218.35,-164.99 208.58,-164.48 200.28,-164.05"/>
<polygon fill="#63b8ff" stroke="#63b8ff" points="227.07,-168.95 237.24,-165.97 227.44,-161.96 227.07,-168.95"/>
</g>
<!-- Node6 -->
<g id="node6" class="node">
<title>Node6</title>
<g id="a_node6"><a xlink:href="../../db/d61/vmec_8f90.html#a6d38ab7be2f9d818da4541e1d352ea23" target="_top" xlink:title="Main driver for VMEC.">
<polygon fill="white" stroke="#666666" points="122,-144.5 81,-144.5 81,-125.5 122,-125.5 122,-144.5"/>
<text text-anchor="middle" x="101.5" y="-132.5" font-family="Helvetica,sans-Serif" font-size="10.00">vmec</text>
</a>
</g>
</g>
<!-- Node5&#45;&gt;Node6 -->
<g id="edge5" class="edge">
<title>Node5&#45;&gt;Node6</title>
<path fill="none" stroke="#63b8ff" d="M147.14,-151.56C138.74,-148.44 129.87,-145.15 122.27,-142.33"/>
<polygon fill="#63b8ff" stroke="#63b8ff" points="145.76,-154.77 156.35,-154.97 148.19,-148.21 145.76,-154.77"/>
</g>
<!-- Node7 -->
<g id="node7" class="node">
<title>Node7</title>
<g id="a_node7"><a xlink:href="../../db/d61/vmec_8f90.html#ace5bdf043bb85c8f0a9fc582bdb55725" target="_top" xlink:title="Main program of VMEC.">
<polygon fill="white" stroke="#666666" points="45,-144.5 0,-144.5 0,-125.5 45,-125.5 45,-144.5"/>
<text text-anchor="middle" x="22.5" y="-132.5" font-family="Helvetica,sans-Serif" font-size="10.00">xvmec</text>
</a>
</g>
</g>
<!-- Node6&#45;&gt;Node7 -->
<g id="edge6" class="edge">
<title>Node6&#45;&gt;Node7</title>
<path fill="none" stroke="#63b8ff" d="M69.39,-135C61.36,-135 52.89,-135 45.43,-135"/>
<polygon fill="#63b8ff" stroke="#63b8ff" points="69.16,-138.5 79.16,-135 69.16,-131.5 69.16,-138.5"/>
</g>
<!-- Node9 -->
<g id="node9" class="node">
<title>Node9</title>
<g id="a_node9"><a xlink:href="../../d0/d4c/heading_8f90.html#aacf288f9cc770199b74d2e6fcc374450" target="_top" xlink:title="Open output files and print banner message at the top.">
<polygon fill="white" stroke="#666666" points="397,-142.5 347,-142.5 347,-123.5 397,-123.5 397,-142.5"/>
<text text-anchor="middle" x="372" y="-130.5" font-family="Helvetica,sans-Serif" font-size="10.00">heading</text>
</a>
</g>
</g>
<!-- Node8&#45;&gt;Node9 -->
<g id="edge8" class="edge">
<title>Node8&#45;&gt;Node9</title>
<path fill="none" stroke="#63b8ff" d="M464.91,-133C441.55,-133 415.71,-133 397.4,-133"/>
<polygon fill="#63b8ff" stroke="#63b8ff" points="464.62,-136.5 474.62,-133 464.62,-129.5 464.62,-136.5"/>
</g>
<!-- Node10 -->
<g id="node10" class="node">
<title>Node10</title>
<g id="a_node10"><a xlink:href="../../d8/da3/readin_8f90.html#a60f2bfd8fc6f7c3e027a8f91ef0c7b25" target="_top" xlink:title="Read the input file.">
<polygon fill="white" stroke="#666666" points="279.5,-107.5 236.5,-107.5 236.5,-88.5 279.5,-88.5 279.5,-107.5"/>
<text text-anchor="middle" x="258" y="-95.5" font-family="Helvetica,sans-Serif" font-size="10.00">readin</text>
</a>
</g>
</g>
<!-- Node9&#45;&gt;Node10 -->
<g id="edge9" class="edge">
<title>Node9&#45;&gt;Node10</title>
<path fill="none" stroke="#63b8ff" d="M335.79,-122C317.41,-116.25 295.56,-109.42 279.87,-104.52"/>
<polygon fill="#63b8ff" stroke="#63b8ff" points="334.66,-125.31 345.25,-124.95 336.75,-118.63 334.66,-125.31"/>
</g>
<!-- Node10&#45;&gt;Node6 -->
<g id="edge10" class="edge">
<title>Node10&#45;&gt;Node6</title>
<path fill="none" stroke="#63b8ff" d="M225.09,-105.64C194.07,-113.07 147.96,-124.11 122.03,-130.32"/>
<polygon fill="#63b8ff" stroke="#63b8ff" points="225.78,-109.08 234.69,-103.34 224.15,-102.27 225.78,-109.08"/>
</g>
<!-- Node11&#45;&gt;Node10 -->
<g id="edge12" class="edge">
<title>Node11&#45;&gt;Node10</title>
<path fill="none" stroke="#63b8ff" d="M326.56,-96.79C310.41,-97.08 292.93,-97.39 279.79,-97.63"/>
<polygon fill="#63b8ff" stroke="#63b8ff" points="326.55,-100.29 336.49,-96.62 326.43,-93.3 326.55,-100.29"/>
</g>
<!-- Node12&#45;&gt;Node10 -->
<g id="edge16" class="edge">
<title>Node12&#45;&gt;Node10</title>
<path fill="none" stroke="#63b8ff" d="M452.49,-59.99C412.3,-62.74 360.85,-67.99 316,-78 303.72,-80.74 290.43,-85.31 279.77,-89.39"/>
<polygon fill="#63b8ff" stroke="#63b8ff" points="452.52,-63.49 462.27,-59.36 452.07,-56.51 452.52,-63.49"/>
</g>
<!-- Node13 -->
<g id="node13" class="node">
<title>Node13</title>
<g id="a_node13"><a xlink:href="../../db/dc0/namespacenestor__io.html#a84f85fce5232fbd8ee9eca2f2b5adb0c" target="_top" xlink:title=" ">
<polygon fill="white" stroke="#666666" points="428,-30 316,-30 316,0 428,0 428,-30"/>
<text text-anchor="start" x="324" y="-18" font-family="Helvetica,sans-Serif" font-size="10.00">nestor_io::read_nestor</text>
<text text-anchor="middle" x="372" y="-7" font-family="Helvetica,sans-Serif" font-size="10.00">_inputs</text>
</a>
</g>
</g>
<!-- Node12&#45;&gt;Node13 -->
<g id="edge14" class="edge">
<title>Node12&#45;&gt;Node13</title>
<path fill="none" stroke="#63b8ff" d="M475.64,-44.03C460.47,-39.74 443.44,-34.92 427.68,-30.47"/>
<polygon fill="#63b8ff" stroke="#63b8ff" points="474.28,-47.28 484.85,-46.63 476.18,-40.55 474.28,-47.28"/>
</g>
<!-- Node14 -->
<g id="node14" class="node">
<title>Node14</title>
<g id="a_node14"><a xlink:href="../../d4/d69/nestor__main_8f90.html#a1b0fd336e80285a96925333daa2ee8f0" target="_top" xlink:title="Main program of stand&#45;alone version of NESTOR.">
<polygon fill="white" stroke="#666666" points="280,-24.5 236,-24.5 236,-5.5 280,-5.5 280,-24.5"/>
<text text-anchor="middle" x="258" y="-12.5" font-family="Helvetica,sans-Serif" font-size="10.00">nestor</text>
</a>
</g>
</g>
<!-- Node13&#45;&gt;Node14 -->
<g id="edge15" class="edge">
<title>Node13&#45;&gt;Node14</title>
<path fill="none" stroke="#63b8ff" d="M304.23,-15C295.64,-15 287.4,-15 280.36,-15"/>
<polygon fill="#63b8ff" stroke="#63b8ff" points="304.14,-18.5 314.14,-15 304.14,-11.5 304.14,-18.5"/>
</g>
</g>
</svg>
