<?xml version="1.0" encoding="UTF-8" standalone="no"?>
<!DOCTYPE svg PUBLIC "-//W3C//DTD SVG 1.1//EN"
 "http://www.w3.org/Graphics/SVG/1.1/DTD/svg11.dtd">
<!-- Generated by graphviz version 12.2.1 (20241206.2353)
 -->
<!-- Title: read_wout_mod::compute_currents Pages: 1 -->
<svg width="543pt" height="76pt"
 viewBox="0.00 0.00 542.50 75.88" xmlns="http://www.w3.org/2000/svg" xmlns:xlink="http://www.w3.org/1999/xlink">
<g id="page0,1_graph0" class="graph" transform="scale(1 1) rotate(0) translate(4 71.88)">
<title>read_wout_mod::compute_currents</title>
<!-- Node1 -->
<g id="Node000001" class="node">
<title>Node1</title>
<g id="a_Node000001"><a xlink:title=" ">
<polygon fill="#999999" stroke="#666666" points="534.5,-45.88 407.5,-45.88 407.5,-15.37 534.5,-15.37 534.5,-45.88"/>
<text text-anchor="start" x="415.5" y="-32.38" font-family="Helvetica,sans-Serif" font-size="10.00">read_wout_mod::compute</text>
<text text-anchor="middle" x="471" y="-21.12" font-family="Helvetica,sans-Serif" font-size="10.00">_currents</text>
</a>
</g>
</g>
<!-- Node2 -->
<g id="Node000002" class="node">
<title>Node2</title>
<g id="a_Node000002"><a xlink:href="../../d7/d93/interfaceread__wout__mod_1_1read__wout__file.html#a3bd75e8e4d1250d3bbb61e266bbd4a62" target="_top" xlink:title=" ">
<polygon fill="white" stroke="#666666" points="371.5,-67.88 234,-67.88 234,-37.38 371.5,-37.38 371.5,-67.88"/>
<text text-anchor="start" x="242" y="-54.38" font-family="Helvetica,sans-Serif" font-size="10.00">read_wout_mod::read</text>
<text text-anchor="middle" x="302.75" y="-43.12" font-family="Helvetica,sans-Serif" font-size="10.00">_wout_file::readw_and_open</text>
</a>
</g>
</g>
<!-- Node1&#45;&gt;Node2 -->
<g id="edge1_Node000001_Node000002" class="edge">
<title>Node1&#45;&gt;Node2</title>
<g id="a_edge1_Node000001_Node000002"><a xlink:title=" ">
<path fill="none" stroke="#63b8ff" d="M395.96,-40.42C387.98,-41.48 379.88,-42.55 371.97,-43.6"/>
<polygon fill="#63b8ff" stroke="#63b8ff" points="396.19,-43.92 405.65,-39.14 395.27,-36.98 396.19,-43.92"/>
</a>
</g>
</g>
<!-- Node3 -->
<g id="Node000003" class="node">
<title>Node3</title>
<g id="a_Node000003"><a xlink:href="../../de/d3f/wrout_8f90.html#acfcf1bded82176b6a4a4a4ca430d75a9" target="_top" xlink:title="Write the output files of VMEC.">
<polygon fill="white" stroke="#666666" points="322.75,-19.25 282.75,-19.25 282.75,0 322.75,0 322.75,-19.25"/>
<text text-anchor="middle" x="302.75" y="-5.75" font-family="Helvetica,sans-Serif" font-size="10.00">wrout</text>
</a>
</g>
</g>
<!-- Node1&#45;&gt;Node3 -->
<g id="edge2_Node000001_Node000003" class="edge">
<title>Node1&#45;&gt;Node3</title>
<g id="a_edge2_Node000001_Node000003"><a xlink:title=" ">
<path fill="none" stroke="#63b8ff" d="M395.76,-21.25C368.95,-17.86 340.88,-14.32 322.9,-12.04"/>
<polygon fill="#63b8ff" stroke="#63b8ff" points="395.29,-24.72 405.65,-22.5 396.16,-17.77 395.29,-24.72"/>
</a>
</g>
</g>
<!-- Node4 -->
<g id="Node000004" class="node">
<title>Node4</title>
<g id="a_Node000004"><a xlink:href="../../d0/d71/fileout_8f90.html#a7228e984aaf2c38bd772e3d846fab7af" target="_top" xlink:title="Write the output files.">
<polygon fill="white" stroke="#666666" points="198,-19.25 156.5,-19.25 156.5,0 198,0 198,-19.25"/>
<text text-anchor="middle" x="177.25" y="-5.75" font-family="Helvetica,sans-Serif" font-size="10.00">fileout</text>
</a>
</g>
</g>
<!-- Node3&#45;&gt;Node4 -->
<g id="edge3_Node000003_Node000004" class="edge">
<title>Node3&#45;&gt;Node4</title>
<g id="a_edge3_Node000003_Node000004"><a xlink:title=" ">
<path fill="none" stroke="#63b8ff" d="M271.03,-9.62C248.27,-9.62 217.92,-9.62 198.23,-9.62"/>
<polygon fill="#63b8ff" stroke="#63b8ff" points="270.94,-13.13 280.94,-9.63 270.94,-6.13 270.94,-13.13"/>
</a>
</g>
</g>
<!-- Node5 -->
<g id="Node000005" class="node">
<title>Node5</title>
<g id="a_Node000005"><a xlink:href="../../db/d61/vmec_8f90.html#a6d38ab7be2f9d818da4541e1d352ea23" target="_top" xlink:title="Main driver for VMEC.">
<polygon fill="white" stroke="#666666" points="120.5,-19.25 80.5,-19.25 80.5,0 120.5,0 120.5,-19.25"/>
<text text-anchor="middle" x="100.5" y="-5.75" font-family="Helvetica,sans-Serif" font-size="10.00">vmec</text>
</a>
</g>
</g>
<!-- Node4&#45;&gt;Node5 -->
<g id="edge4_Node000004_Node000005" class="edge">
<title>Node4&#45;&gt;Node5</title>
<g id="a_edge4_Node000004_Node000005"><a xlink:title=" ">
<path fill="none" stroke="#63b8ff" d="M144.76,-9.62C136.63,-9.62 128.11,-9.62 120.81,-9.62"/>
<polygon fill="#63b8ff" stroke="#63b8ff" points="144.7,-13.13 154.7,-9.63 144.7,-6.13 144.7,-13.13"/>
</a>
</g>
</g>
<!-- Node6 -->
<g id="Node000006" class="node">
<title>Node6</title>
<g id="a_Node000006"><a xlink:href="../../db/d61/vmec_8f90.html#ace5bdf043bb85c8f0a9fc582bdb55725" target="_top" xlink:title="Main program of VMEC.">
<polygon fill="white" stroke="#666666" points="44.5,-19.25 0,-19.25 0,0 44.5,0 44.5,-19.25"/>
<text text-anchor="middle" x="22.25" y="-5.75" font-family="Helvetica,sans-Serif" font-size="10.00">xvmec</text>
</a>
</g>
</g>
<!-- Node5&#45;&gt;Node6 -->
<g id="edge5_Node000005_Node000006" class="edge">
<title>Node5&#45;&gt;Node6</title>
<g id="a_edge5_Node000005_Node000006"><a xlink:title=" ">
<path fill="none" stroke="#63b8ff" d="M68.97,-9.62C60.92,-9.62 52.39,-9.62 44.91,-9.62"/>
<polygon fill="#63b8ff" stroke="#63b8ff" points="68.75,-13.13 78.75,-9.63 68.75,-6.13 68.75,-13.13"/>
</a>
</g>
</g>
</g>
</svg>
