<?xml version="1.0" encoding="UTF-8" standalone="no"?>
<!DOCTYPE svg PUBLIC "-//W3C//DTD SVG 1.1//EN"
 "http://www.w3.org/Graphics/SVG/1.1/DTD/svg11.dtd">
<!-- Generated by graphviz version 12.2.1 (20241206.2353)
 -->
<!-- Title: mercier Pages: 1 -->
<svg width="227pt" height="82pt"
 viewBox="0.00 0.00 226.75 82.25" xmlns="http://www.w3.org/2000/svg" xmlns:xlink="http://www.w3.org/1999/xlink">
<g id="graph0" class="graph" transform="scale(1 1) rotate(0) translate(4 78.25)">
<title>mercier</title>
<!-- Node1 -->
<g id="Node000001" class="node">
<title>Node1</title>
<g id="a_Node000001"><a xlink:title="Evaluate the Mercier stability criterion.">
<polygon fill="#999999" stroke="#666666" points="48.25,-37.25 0,-37.25 0,-18 48.25,-18 48.25,-37.25"/>
<text text-anchor="middle" x="24.12" y="-23.75" font-family="Helvetica,sans-Serif" font-size="10.00">mercier</text>
</a>
</g>
</g>
<!-- Node2 -->
<g id="Node000002" class="node">
<title>Node2</title>
<g id="a_Node000002"><a xlink:href="../../d8/dfd/namespacedbgout.html#acdd1612a38e44b6469dc03d9d1c6ceed" target="_top" xlink:title="check if any output is desired for the current iteration check if the given context should be openend...">
<polygon fill="white" stroke="#666666" points="215.75,-56.25 87.25,-56.25 87.25,-37 215.75,-37 215.75,-56.25"/>
<text text-anchor="middle" x="151.5" y="-42.75" font-family="Helvetica,sans-Serif" font-size="10.00">dbgout::open_dbg_context</text>
</a>
</g>
</g>
<!-- Node1&#45;&gt;Node2 -->
<g id="edge1_Node000001_Node000002" class="edge">
<title>Node1&#45;&gt;Node2</title>
<g id="a_edge1_Node000001_Node000002"><a xlink:title=" ">
<path fill="none" stroke="#63b8ff" d="M48.71,-31.2C56.64,-32.4 65.97,-33.82 75.71,-35.29"/>
<polygon fill="#63b8ff" stroke="#63b8ff" points="74.91,-38.71 85.32,-36.75 75.96,-31.79 74.91,-38.71"/>
</a>
</g>
</g>
<!-- Node3 -->
<g id="Node000003" class="node">
<title>Node3</title>
<g id="a_Node000003"><a xlink:href="../../d0/d29/namespacesafe__open__mod.html#aab207f9769415b0cccd91260a8382eeb" target="_top" xlink:title=" ">
<polygon fill="white" stroke="#666666" points="218.75,-19.25 84.25,-19.25 84.25,0 218.75,0 218.75,-19.25"/>
<text text-anchor="middle" x="151.5" y="-5.75" font-family="Helvetica,sans-Serif" font-size="10.00">safe_open_mod::safe_open</text>
</a>
</g>
</g>
<!-- Node1&#45;&gt;Node3 -->
<g id="edge3_Node000001_Node000003" class="edge">
<title>Node1&#45;&gt;Node3</title>
<g id="a_edge3_Node000001_Node000003"><a xlink:title=" ">
<path fill="none" stroke="#63b8ff" d="M48.71,-24.24C55.84,-23.22 64.1,-22.03 72.76,-20.79"/>
<polygon fill="#63b8ff" stroke="#63b8ff" points="73,-24.29 82.4,-19.4 72.01,-17.36 73,-24.29"/>
</a>
</g>
</g>
<!-- Node2&#45;&gt;Node2 -->
<g id="edge2_Node000002_Node000002" class="edge">
<title>Node2&#45;&gt;Node2</title>
<g id="a_edge2_Node000002_Node000002"><a xlink:title=" ">
<path fill="none" stroke="#63b8ff" d="M131.56,-56.54C122.46,-65.15 129.11,-74.25 151.5,-74.25 163.74,-74.25 171.28,-71.53 174.11,-67.65"/>
<polygon fill="#63b8ff" stroke="#63b8ff" points="177.53,-66.92 171.79,-58.01 170.73,-68.55 177.53,-66.92"/>
</a>
</g>
</g>
</g>
</svg>
