<?xml version="1.0" encoding="UTF-8" standalone="no"?>
<!DOCTYPE svg PUBLIC "-//W3C//DTD SVG 1.1//EN"
 "http://www.w3.org/Graphics/SVG/1.1/DTD/svg11.dtd">
<!-- Generated by graphviz version 2.49.3 (20211027.1501)
 -->
<!-- Title: funct3d Pages: 1 -->
<!--zoomable 807 -->
<svg id="main" version="1.1" xmlns="http://www.w3.org/2000/svg" xmlns:xlink="http://www.w3.org/1999/xlink" xml:space="preserve" onload="init(evt)">
<style type="text/css"><![CDATA[
.edge:hover path { stroke: red; }
.edge:hover polygon { stroke: red; fill: red; }
]]></style>
<script type="text/javascript"><![CDATA[
var edges = document.getElementsByTagName('g');
if (edges && edges.length) {
  for (var i=0;i<edges.length;i++) {
    if (edges[i].id.substr(0,4)=='edge') {
      edges[i].setAttribute('class','edge');
    }
  }
}
]]></script>
        <defs>
                <circle id="rim" cx="0" cy="0" r="7"/>
                <circle id="rim2" cx="0" cy="0" r="3.5"/>
                <g id="zoomPlus">
                        <use xlink:href="#rim" fill="#404040">
                                <set attributeName="fill" to="#808080" begin="zoomplus.mouseover" end="zoomplus.mouseout"/>
                        </use>
                        <path d="M-4,0h8M0,-4v8" fill="none" stroke="white" stroke-width="1.5" pointer-events="none"/>
                </g>
                <g id="zoomMin">
                        <use xlink:href="#rim" fill="#404040">
                                <set attributeName="fill" to="#808080" begin="zoomminus.mouseover" end="zoomminus.mouseout"/>
                        </use>
                        <path d="M-4,0h8" fill="none" stroke="white" stroke-width="1.5" pointer-events="none"/>
                </g>
                <g id="dirArrow">
                        <path fill="none" stroke="white" stroke-width="1.5" d="M0,-3.0v7 M-2.5,-0.5L0,-3.0L2.5,-0.5"/>
                </g>
               <g id="resetDef">
                       <use xlink:href="#rim2" fill="#404040">
                               <set attributeName="fill" to="#808080" begin="reset.mouseover" end="reset.mouseout"/>
                       </use>
               </g>
        </defs>

<script type="text/javascript">
var viewWidth = 499;
var viewHeight = 807;
var sectionId = 'dynsection-0';
</script>
<script xlink:href="../../svgpan.js"/>
<svg id="graph" class="graph">
<g id="viewport">
<title>funct3d</title>
<polygon fill="white" stroke="transparent" points="-4,4 -4,-803 495,-803 495,4 -4,4"/>
<!-- Node1 -->
<g id="node1" class="node">
<title>Node1</title>
<g id="a_node1"><a xlink:title="Evaluate the three&#45;dimensional MHD energy functional. Think of this as the &quot;forward model&quot; that tells...">
<polygon fill="#bfbfbf" stroke="black" points="0,-399.5 0,-418.5 49,-418.5 49,-399.5 0,-399.5"/>
<text text-anchor="middle" x="24.5" y="-406.5" font-family="Helvetica,sans-Serif" font-size="10.00">funct3d</text>
</a>
</g>
</g>
<!-- Node2 -->
<g id="node2" class="node">
<title>Node2</title>
<g id="a_node2"><a xlink:href="../../d5/de7/alias_8f90.html#a971bf2e3997d8e5ed08c060b651c88c4" target="_top" xlink:title="Fourier&#45;space bandpass filter on constraint force for spectral condensation.">
<polygon fill="white" stroke="black" points="123.5,-760.5 123.5,-779.5 160.5,-779.5 160.5,-760.5 123.5,-760.5"/>
<text text-anchor="middle" x="142" y="-767.5" font-family="Helvetica,sans-Serif" font-size="10.00">alias</text>
</a>
</g>
</g>
<!-- Node1&#45;&gt;Node2 -->
<g id="edge1" class="edge">
<title>Node1&#45;&gt;Node2</title>
<path fill="none" stroke="midnightblue" d="M25.88,-418.51C28.03,-468.3 40.32,-698.81 85,-751 92.16,-759.36 103.15,-764.06 113.5,-766.68"/>
<polygon fill="midnightblue" stroke="midnightblue" points="112.99,-770.15 123.48,-768.68 114.36,-763.29 112.99,-770.15"/>
</g>
<!-- Node3 -->
<g id="node3" class="node">
<title>Node3</title>
<g id="a_node3"><a xlink:href="../../d7/d61/bcovar_8f90.html#a1e1624195f0c0c7daa9f49d83bae5ce8" target="_top" xlink:title="Compute the covariant components of the magnetic field , .">
<polygon fill="white" stroke="black" points="119,-722.5 119,-741.5 165,-741.5 165,-722.5 119,-722.5"/>
<text text-anchor="middle" x="142" y="-729.5" font-family="Helvetica,sans-Serif" font-size="10.00">bcovar</text>
</a>
</g>
</g>
<!-- Node1&#45;&gt;Node3 -->
<g id="edge2" class="edge">
<title>Node1&#45;&gt;Node3</title>
<path fill="none" stroke="midnightblue" d="M26.11,-418.66C29.25,-465.35 45,-667.25 85,-713 91.19,-720.08 100.11,-724.52 109.02,-727.31"/>
<polygon fill="midnightblue" stroke="midnightblue" points="108.38,-730.76 118.93,-729.81 110.09,-723.97 108.38,-730.76"/>
</g>
<!-- Node8 -->
<g id="node8" class="node">
<title>Node8</title>
<g id="a_node8"><a xlink:href="../../db/d74/convert_8f90.html#ae6d3862ea21a8d39210a79c6955b5b75" target="_top" xlink:title="Convert internal mode representation to standard form for output (coefficients of cos(mu&#45;nv),...">
<polygon fill="white" stroke="black" points="117.5,-684.5 117.5,-703.5 166.5,-703.5 166.5,-684.5 117.5,-684.5"/>
<text text-anchor="middle" x="142" y="-691.5" font-family="Helvetica,sans-Serif" font-size="10.00">convert</text>
</a>
</g>
</g>
<!-- Node1&#45;&gt;Node8 -->
<g id="edge7" class="edge">
<title>Node1&#45;&gt;Node8</title>
<path fill="none" stroke="midnightblue" d="M26.4,-418.58C30.59,-461.49 49.58,-635.57 85,-675 90.92,-681.59 99.2,-685.89 107.59,-688.71"/>
<polygon fill="midnightblue" stroke="midnightblue" points="106.78,-692.11 117.35,-691.37 108.62,-685.36 106.78,-692.11"/>
</g>
<!-- Node9 -->
<g id="node9" class="node">
<title>Node9</title>
<g id="a_node9"><a xlink:href="../../de/d0c/forces_8f90.html#a7b4708aaec3cc94526474c16bc3a16f0" target="_top" xlink:title="Compute the real&#45;space MHD forces.">
<polygon fill="white" stroke="black" points="120,-646.5 120,-665.5 164,-665.5 164,-646.5 120,-646.5"/>
<text text-anchor="middle" x="142" y="-653.5" font-family="Helvetica,sans-Serif" font-size="10.00">forces</text>
</a>
</g>
</g>
<!-- Node1&#45;&gt;Node9 -->
<g id="edge8" class="edge">
<title>Node1&#45;&gt;Node9</title>
<path fill="none" stroke="midnightblue" d="M25.01,-418.74C23.82,-453.38 24.52,-572.01 85,-637 91.63,-644.12 101.02,-648.57 110.22,-651.36"/>
<polygon fill="midnightblue" stroke="midnightblue" points="109.44,-654.77 119.99,-653.77 111.12,-647.97 109.44,-654.77"/>
</g>
<!-- Node10 -->
<g id="node10" class="node">
<title>Node10</title>
<g id="a_node10"><a xlink:href="../../d8/dc3/jacobian_8f90.html#af346f65d2aa225d9ede6e0f23add6142" target="_top" xlink:title="Evaulate the Jacobian of the transform from flux&#45; to cylindrical coordinates.">
<polygon fill="white" stroke="black" points="115.5,-608.5 115.5,-627.5 168.5,-627.5 168.5,-608.5 115.5,-608.5"/>
<text text-anchor="middle" x="142" y="-615.5" font-family="Helvetica,sans-Serif" font-size="10.00">jacobian</text>
</a>
</g>
</g>
<!-- Node1&#45;&gt;Node10 -->
<g id="edge9" class="edge">
<title>Node1&#45;&gt;Node10</title>
<path fill="none" stroke="midnightblue" d="M25.62,-418.82C26.53,-449.77 33.56,-546.33 85,-599 90.65,-604.78 98.12,-608.81 105.76,-611.61"/>
<polygon fill="midnightblue" stroke="midnightblue" points="104.82,-614.98 115.4,-614.54 106.85,-608.28 104.82,-614.98"/>
</g>
<!-- Node11 -->
<g id="node11" class="node">
<title>Node11</title>
<g id="a_node11"><a xlink:href="../../db/da1/nestor__io_8f90.html#a67b1cb19f12a5860a25a89dbd3dfd9c9" target="_top" xlink:title=" ">
<polygon fill="white" stroke="black" points="89.5,-570.5 89.5,-589.5 194.5,-589.5 194.5,-570.5 89.5,-570.5"/>
<text text-anchor="middle" x="142" y="-577.5" font-family="Helvetica,sans-Serif" font-size="10.00">read_nestor_outputs</text>
</a>
</g>
</g>
<!-- Node1&#45;&gt;Node11 -->
<g id="edge10" class="edge">
<title>Node1&#45;&gt;Node11</title>
<path fill="none" stroke="midnightblue" d="M26.5,-418.73C29.74,-445.39 42.37,-520.29 85,-561 86.66,-562.58 88.45,-564.04 90.35,-565.37"/>
<polygon fill="midnightblue" stroke="midnightblue" points="88.78,-568.5 99.2,-570.47 92.28,-562.44 88.78,-568.5"/>
</g>
<!-- Node12 -->
<g id="node12" class="node">
<title>Node12</title>
<g id="a_node12"><a xlink:href="../../db/d5a/residue_8f90.html#a2d42fddb02336c3ce8846116ab5bf089" target="_top" xlink:title="Compute invariant residuals.">
<polygon fill="white" stroke="black" points="118,-532.5 118,-551.5 166,-551.5 166,-532.5 118,-532.5"/>
<text text-anchor="middle" x="142" y="-539.5" font-family="Helvetica,sans-Serif" font-size="10.00">residue</text>
</a>
</g>
</g>
<!-- Node1&#45;&gt;Node12 -->
<g id="edge11" class="edge">
<title>Node1&#45;&gt;Node12</title>
<path fill="none" stroke="midnightblue" d="M27.93,-418.81C33.85,-440.71 51.09,-493.95 85,-523 91.54,-528.6 99.81,-532.58 107.97,-535.38"/>
<polygon fill="midnightblue" stroke="midnightblue" points="107.16,-538.79 117.75,-538.26 109.14,-532.08 107.16,-538.79"/>
</g>
<!-- Node18 -->
<g id="node18" class="node">
<title>Node18</title>
<g id="a_node18"><a xlink:href="../../d3/d96/residue__con_8f90.html#a412d6d3c67bc4020bcfc3bcf83718b98" target="_top" xlink:title="Compute invariant residuals.">
<polygon fill="white" stroke="black" points="107.5,-494.5 107.5,-513.5 176.5,-513.5 176.5,-494.5 107.5,-494.5"/>
<text text-anchor="middle" x="142" y="-501.5" font-family="Helvetica,sans-Serif" font-size="10.00">residue_con</text>
</a>
</g>
</g>
<!-- Node1&#45;&gt;Node18 -->
<g id="edge17" class="edge">
<title>Node1&#45;&gt;Node18</title>
<path fill="none" stroke="midnightblue" d="M30.57,-418.64C39.47,-434.68 59.44,-466.87 85,-485 88.98,-487.82 93.41,-490.25 97.98,-492.33"/>
<polygon fill="midnightblue" stroke="midnightblue" points="96.9,-495.67 107.49,-496.14 99.51,-489.17 96.9,-495.67"/>
</g>
<!-- Node19 -->
<g id="node19" class="node">
<title>Node19</title>
<g id="a_node19"><a xlink:href="../../d5/d6e/restart__iter_8f90.html#ace7df67e039f0ebf69200f91d3cb16cc" target="_top" xlink:title="Save current or restore previous good state vector and reduce time step.">
<polygon fill="white" stroke="black" points="110.5,-456.5 110.5,-475.5 173.5,-475.5 173.5,-456.5 110.5,-456.5"/>
<text text-anchor="middle" x="142" y="-463.5" font-family="Helvetica,sans-Serif" font-size="10.00">restart_iter</text>
</a>
</g>
</g>
<!-- Node1&#45;&gt;Node19 -->
<g id="edge22" class="edge">
<title>Node1&#45;&gt;Node19</title>
<path fill="none" stroke="midnightblue" d="M38.67,-418.73C50.38,-427.05 68.21,-438.93 85,-447 89.97,-449.39 95.33,-451.61 100.68,-453.63"/>
<polygon fill="midnightblue" stroke="midnightblue" points="99.65,-456.98 110.24,-457.05 102,-450.39 99.65,-456.98"/>
</g>
<!-- Node20 -->
<g id="node20" class="node">
<title>Node20</title>
<g id="a_node20"><a xlink:href="../../d4/df3/symforce_8f90.html#a169610bcc5544fc8e16ad1e10ac85dcb" target="_top" xlink:title="Symmetrize forces on restricted &#160;interval &#160;so cos, sin integrals can be performed.">
<polygon fill="white" stroke="black" points="114,-418.5 114,-437.5 170,-437.5 170,-418.5 114,-418.5"/>
<text text-anchor="middle" x="142" y="-425.5" font-family="Helvetica,sans-Serif" font-size="10.00">symforce</text>
</a>
</g>
</g>
<!-- Node1&#45;&gt;Node20 -->
<g id="edge23" class="edge">
<title>Node1&#45;&gt;Node20</title>
<path fill="none" stroke="midnightblue" d="M49.15,-412.89C64.89,-415.48 85.9,-418.94 103.85,-421.89"/>
<polygon fill="midnightblue" stroke="midnightblue" points="103.3,-425.34 113.73,-423.51 104.43,-418.44 103.3,-425.34"/>
</g>
<!-- Node21 -->
<g id="node21" class="node">
<title>Node21</title>
<g id="a_node21"><a xlink:href="../../da/d11/symrzl_8f90.html#ac5df1aefe2e993d4416c52c8a727b817" target="_top" xlink:title="Symmetrize , &#160;and .">
<polygon fill="white" stroke="black" points="120,-380.5 120,-399.5 164,-399.5 164,-380.5 120,-380.5"/>
<text text-anchor="middle" x="142" y="-387.5" font-family="Helvetica,sans-Serif" font-size="10.00">symrzl</text>
</a>
</g>
</g>
<!-- Node1&#45;&gt;Node21 -->
<g id="edge24" class="edge">
<title>Node1&#45;&gt;Node21</title>
<path fill="none" stroke="midnightblue" d="M49.15,-405.11C66.64,-402.23 90.62,-398.29 109.69,-395.15"/>
<polygon fill="midnightblue" stroke="midnightblue" points="110.41,-398.58 119.71,-393.5 109.28,-391.67 110.41,-398.58"/>
</g>
<!-- Node22 -->
<g id="node22" class="node">
<title>Node22</title>
<g id="a_node22"><a xlink:href="../../d0/d6f/tomnsp_8f90.html#a6c7345c0aa0f13f311650d9633e6ecf8" target="_top" xlink:title="Fourier&#45;transform anti&#45;symmetric forces from real space to Fourier space.">
<polygon fill="white" stroke="black" points="115,-342.5 115,-361.5 169,-361.5 169,-342.5 115,-342.5"/>
<text text-anchor="middle" x="142" y="-349.5" font-family="Helvetica,sans-Serif" font-size="10.00">tomnspa</text>
</a>
</g>
</g>
<!-- Node1&#45;&gt;Node22 -->
<g id="edge25" class="edge">
<title>Node1&#45;&gt;Node22</title>
<path fill="none" stroke="midnightblue" d="M38.67,-399.27C50.38,-390.95 68.21,-379.07 85,-371 91.34,-367.95 98.3,-365.18 105.09,-362.74"/>
<polygon fill="midnightblue" stroke="midnightblue" points="106.49,-365.97 114.83,-359.43 104.24,-359.34 106.49,-365.97"/>
</g>
<!-- Node23 -->
<g id="node23" class="node">
<title>Node23</title>
<g id="a_node23"><a xlink:href="../../d8/db9/tomnsp__con_8f90.html#aa011f73310c28780ca2f65cf6d1e41a6" target="_top" xlink:title="Fourier&#45;transform anti&#45;symmetric forces from real space to Fourier space.">
<polygon fill="white" stroke="black" points="104.5,-304.5 104.5,-323.5 179.5,-323.5 179.5,-304.5 104.5,-304.5"/>
<text text-anchor="middle" x="142" y="-311.5" font-family="Helvetica,sans-Serif" font-size="10.00">tomnspa_con</text>
</a>
</g>
</g>
<!-- Node1&#45;&gt;Node23 -->
<g id="edge26" class="edge">
<title>Node1&#45;&gt;Node23</title>
<path fill="none" stroke="midnightblue" d="M30.57,-399.36C39.47,-383.32 59.44,-351.13 85,-333 88.07,-330.82 91.41,-328.88 94.88,-327.15"/>
<polygon fill="midnightblue" stroke="midnightblue" points="96.5,-330.26 104.26,-323.04 93.7,-323.84 96.5,-330.26"/>
</g>
<!-- Node24 -->
<g id="node24" class="node">
<title>Node24</title>
<g id="a_node24"><a xlink:href="../../d0/d6f/tomnsp_8f90.html#aec4b11e4f55e18c6bfc0348c263e31db" target="_top" xlink:title="Fourier&#45;transform symmetric forces from real space to Fourier space.">
<polygon fill="white" stroke="black" points="115,-266.5 115,-285.5 169,-285.5 169,-266.5 115,-266.5"/>
<text text-anchor="middle" x="142" y="-273.5" font-family="Helvetica,sans-Serif" font-size="10.00">tomnsps</text>
</a>
</g>
</g>
<!-- Node1&#45;&gt;Node24 -->
<g id="edge27" class="edge">
<title>Node1&#45;&gt;Node24</title>
<path fill="none" stroke="midnightblue" d="M27.93,-399.19C33.85,-377.29 51.09,-324.05 85,-295 90.79,-290.04 97.93,-286.36 105.15,-283.63"/>
<polygon fill="midnightblue" stroke="midnightblue" points="106.49,-286.88 114.93,-280.47 104.34,-280.22 106.49,-286.88"/>
</g>
<!-- Node25 -->
<g id="node25" class="node">
<title>Node25</title>
<g id="a_node25"><a xlink:href="../../d8/db9/tomnsp__con_8f90.html#a8754ec603096f40e309ea74e612dc071" target="_top" xlink:title="Fourier&#45;transform symmetric forces from real space to Fourier space.">
<polygon fill="white" stroke="black" points="104.5,-228.5 104.5,-247.5 179.5,-247.5 179.5,-228.5 104.5,-228.5"/>
<text text-anchor="middle" x="142" y="-235.5" font-family="Helvetica,sans-Serif" font-size="10.00">tomnsps_con</text>
</a>
</g>
</g>
<!-- Node1&#45;&gt;Node25 -->
<g id="edge28" class="edge">
<title>Node1&#45;&gt;Node25</title>
<path fill="none" stroke="midnightblue" d="M26.5,-399.27C29.74,-372.61 42.37,-297.71 85,-257 87.96,-254.17 91.37,-251.76 95,-249.71"/>
<polygon fill="midnightblue" stroke="midnightblue" points="96.8,-252.73 104.37,-245.31 93.83,-246.39 96.8,-252.73"/>
</g>
<!-- Node26 -->
<g id="node26" class="node">
<title>Node26</title>
<g id="a_node26"><a xlink:href="../../dc/d49/totzsp_8f90.html#a8c3f89c23a3be79d0f993c5031f7eab5" target="_top" xlink:title="Inverse&#45;Fourier&#45;transform anti&#45;symmetric part of geometry from Fourier space to real space.">
<polygon fill="white" stroke="black" points="118,-190.5 118,-209.5 166,-209.5 166,-190.5 118,-190.5"/>
<text text-anchor="middle" x="142" y="-197.5" font-family="Helvetica,sans-Serif" font-size="10.00">totzspa</text>
</a>
</g>
</g>
<!-- Node1&#45;&gt;Node26 -->
<g id="edge29" class="edge">
<title>Node1&#45;&gt;Node26</title>
<path fill="none" stroke="midnightblue" d="M25.62,-399.18C26.53,-368.23 33.56,-271.67 85,-219 91.24,-212.61 99.7,-208.37 108.16,-205.56"/>
<polygon fill="midnightblue" stroke="midnightblue" points="109.23,-208.89 117.95,-202.86 107.38,-202.14 109.23,-208.89"/>
</g>
<!-- Node28 -->
<g id="node28" class="node">
<title>Node28</title>
<g id="a_node28"><a xlink:href="../../dc/d49/totzsp_8f90.html#ac4756c0f66a5a01d9c08334a98a61b21" target="_top" xlink:title="Inverse&#45;Fourier&#45;transform symmetric part of geometry from Fourier space to real space.">
<polygon fill="white" stroke="black" points="118,-152.5 118,-171.5 166,-171.5 166,-152.5 118,-152.5"/>
<text text-anchor="middle" x="142" y="-159.5" font-family="Helvetica,sans-Serif" font-size="10.00">totzsps</text>
</a>
</g>
</g>
<!-- Node1&#45;&gt;Node28 -->
<g id="edge31" class="edge">
<title>Node1&#45;&gt;Node28</title>
<path fill="none" stroke="midnightblue" d="M25.01,-399.26C23.82,-364.62 24.52,-245.99 85,-181 91.08,-174.46 99.5,-170.18 107.95,-167.36"/>
<polygon fill="midnightblue" stroke="midnightblue" points="109.04,-170.7 117.77,-164.69 107.2,-163.94 109.04,-170.7"/>
</g>
<!-- Node30 -->
<g id="node30" class="node">
<title>Node30</title>
<g id="a_node30"><a xlink:href="../../dd/d6d/vacuum_8f90.html#a0acbc18d2ab7664835d797b42ce49a35" target="_top" xlink:title="Compute the vacuum contribution to the free&#45;boundary energy functional.">
<polygon fill="white" stroke="black" points="116.5,-114.5 116.5,-133.5 167.5,-133.5 167.5,-114.5 116.5,-114.5"/>
<text text-anchor="middle" x="142" y="-121.5" font-family="Helvetica,sans-Serif" font-size="10.00">vacuum</text>
</a>
</g>
</g>
<!-- Node1&#45;&gt;Node30 -->
<g id="edge33" class="edge">
<title>Node1&#45;&gt;Node30</title>
<path fill="none" stroke="midnightblue" d="M26.4,-399.42C30.59,-356.51 49.58,-182.43 85,-143 90.71,-136.65 98.62,-132.42 106.7,-129.6"/>
<polygon fill="midnightblue" stroke="midnightblue" points="107.83,-132.92 116.5,-126.82 105.92,-126.18 107.83,-132.92"/>
</g>
<!-- Node44 -->
<g id="node44" class="node">
<title>Node44</title>
<g id="a_node44"><a xlink:href="../../db/da1/nestor__io_8f90.html#a771059753d70a579e9443aa7ca5a991e" target="_top" xlink:title=" ">
<polygon fill="white" stroke="black" points="91.5,-76.5 91.5,-95.5 192.5,-95.5 192.5,-76.5 91.5,-76.5"/>
<text text-anchor="middle" x="142" y="-83.5" font-family="Helvetica,sans-Serif" font-size="10.00">write_nestor_inputs</text>
</a>
</g>
</g>
<!-- Node1&#45;&gt;Node44 -->
<g id="edge47" class="edge">
<title>Node1&#45;&gt;Node44</title>
<path fill="none" stroke="midnightblue" d="M26.11,-399.34C29.25,-352.65 45,-150.75 85,-105 86.16,-103.67 87.42,-102.44 88.76,-101.29"/>
<polygon fill="midnightblue" stroke="midnightblue" points="90.83,-104.11 97.14,-95.6 86.9,-98.32 90.83,-104.11"/>
</g>
<!-- Node45 -->
<g id="node45" class="node">
<title>Node45</title>
<g id="a_node45"><a xlink:href="../../db/dc0/namespacenestor__io.html#a288cc8f23cbfe1484ec6815381cc25c8" target="_top" xlink:title=" ">
<polygon fill="white" stroke="black" points="85,-27 85,-57 199,-57 199,-27 85,-27"/>
<text text-anchor="start" x="93" y="-45" font-family="Helvetica,sans-Serif" font-size="10.00">nestor_io::write_nestor</text>
<text text-anchor="middle" x="142" y="-34" font-family="Helvetica,sans-Serif" font-size="10.00">_outputs</text>
</a>
</g>
</g>
<!-- Node1&#45;&gt;Node45 -->
<g id="edge48" class="edge">
<title>Node1&#45;&gt;Node45</title>
<path fill="none" stroke="midnightblue" d="M25.98,-399.24C28.63,-349.13 42.88,-121.09 85,-67 85.94,-65.79 86.95,-64.64 88.02,-63.54"/>
<polygon fill="midnightblue" stroke="midnightblue" points="90.38,-66.14 95.85,-57.07 85.91,-60.75 90.38,-66.14"/>
</g>
<!-- Node4 -->
<g id="node4" class="node">
<title>Node4</title>
<g id="a_node4"><a xlink:href="../../d8/d7d/add__fluxes_8f90.html#a988e7013ef02301b9cfbde5b8068d5af" target="_top" xlink:title="Add the magnetic fluxes to the tangential derivatives of &#160;to arrive at the contravariant magnetic fie...">
<polygon fill="white" stroke="black" points="242.5,-741.5 242.5,-760.5 304.5,-760.5 304.5,-741.5 242.5,-741.5"/>
<text text-anchor="middle" x="273.5" y="-748.5" font-family="Helvetica,sans-Serif" font-size="10.00">add_fluxes</text>
</a>
</g>
</g>
<!-- Node3&#45;&gt;Node4 -->
<g id="edge3" class="edge">
<title>Node3&#45;&gt;Node4</title>
<path fill="none" stroke="midnightblue" d="M165.26,-735.27C183.62,-737.96 210.13,-741.85 232.19,-745.09"/>
<polygon fill="midnightblue" stroke="midnightblue" points="231.89,-748.58 242.3,-746.57 232.91,-741.65 231.89,-748.58"/>
</g>
<!-- Node5 -->
<g id="node5" class="node">
<title>Node5</title>
<g id="a_node5"><a xlink:href="../../d9/dff/calc__fbal_8f90.html#a6cdc3d21c48f66aeaff8ab5e639641b6" target="_top" xlink:title="Compute flux&#45;surface averaged radial force balance .">
<polygon fill="white" stroke="black" points="245.5,-703.5 245.5,-722.5 301.5,-722.5 301.5,-703.5 245.5,-703.5"/>
<text text-anchor="middle" x="273.5" y="-710.5" font-family="Helvetica,sans-Serif" font-size="10.00">calc_fbal</text>
</a>
</g>
</g>
<!-- Node3&#45;&gt;Node5 -->
<g id="edge4" class="edge">
<title>Node3&#45;&gt;Node5</title>
<path fill="none" stroke="midnightblue" d="M165.26,-728.73C184.45,-725.92 212.56,-721.79 235.18,-718.48"/>
<polygon fill="midnightblue" stroke="midnightblue" points="235.75,-721.93 245.14,-717.01 234.73,-715 235.75,-721.93"/>
</g>
<!-- Node6 -->
<g id="node6" class="node">
<title>Node6</title>
<g id="a_node6"><a xlink:href="../../d4/d51/lamcal_8f90.html#aae66bdcec0bbb969704413d933148096" target="_top" xlink:title="Normalization parameters for .">
<polygon fill="white" stroke="black" points="251,-665.5 251,-684.5 296,-684.5 296,-665.5 251,-665.5"/>
<text text-anchor="middle" x="273.5" y="-672.5" font-family="Helvetica,sans-Serif" font-size="10.00">lamcal</text>
</a>
</g>
</g>
<!-- Node3&#45;&gt;Node6 -->
<g id="edge5" class="edge">
<title>Node3&#45;&gt;Node6</title>
<path fill="none" stroke="midnightblue" d="M165.11,-725.39C175.54,-722.05 188.06,-717.71 199,-713 215.62,-705.85 218.93,-702.31 235,-694 237.98,-692.46 241.1,-690.86 244.22,-689.27"/>
<polygon fill="midnightblue" stroke="midnightblue" points="246.06,-692.26 253.39,-684.6 242.89,-686.01 246.06,-692.26"/>
</g>
<!-- Node7 -->
<g id="node7" class="node">
<title>Node7</title>
<g id="a_node7"><a xlink:href="../../d4/da9/precondn_8f90.html#a4c530a7978360300894520e9c5f7663c" target="_top" xlink:title="Compute preconditioning matrix elements for , &#160;force.">
<polygon fill="white" stroke="black" points="245.5,-779.5 245.5,-798.5 301.5,-798.5 301.5,-779.5 245.5,-779.5"/>
<text text-anchor="middle" x="273.5" y="-786.5" font-family="Helvetica,sans-Serif" font-size="10.00">precondn</text>
</a>
</g>
</g>
<!-- Node3&#45;&gt;Node7 -->
<g id="edge6" class="edge">
<title>Node3&#45;&gt;Node7</title>
<path fill="none" stroke="midnightblue" d="M165.11,-738.61C175.54,-741.95 188.06,-746.29 199,-751 215.62,-758.15 218.93,-761.69 235,-770 237.98,-771.54 241.1,-773.14 244.22,-774.73"/>
<polygon fill="midnightblue" stroke="midnightblue" points="242.89,-777.99 253.39,-779.4 246.06,-771.74 242.89,-777.99"/>
</g>
<!-- Node13 -->
<g id="node13" class="node">
<title>Node13</title>
<g id="a_node13"><a xlink:href="../../db/d5a/residue_8f90.html#a6b8a6225e22b043a0c73e6be6c99176c" target="_top" xlink:title="Compute internal gr , gz required for &#160;constraint.">
<polygon fill="white" stroke="black" points="236,-456.5 236,-475.5 311,-475.5 311,-456.5 236,-456.5"/>
<text text-anchor="middle" x="273.5" y="-463.5" font-family="Helvetica,sans-Serif" font-size="10.00">constrain_m1</text>
</a>
</g>
</g>
<!-- Node12&#45;&gt;Node13 -->
<g id="edge12" class="edge">
<title>Node12&#45;&gt;Node13</title>
<path fill="none" stroke="midnightblue" d="M166.2,-536.85C176.75,-533.85 189.06,-529.37 199,-523 218.59,-510.45 216.35,-498.91 235,-485 237.05,-483.47 239.24,-482.01 241.49,-480.62"/>
<polygon fill="midnightblue" stroke="midnightblue" points="243.33,-483.6 250.33,-475.64 239.9,-477.49 243.33,-483.6"/>
</g>
<!-- Node14 -->
<g id="node14" class="node">
<title>Node14</title>
<g id="a_node14"><a xlink:href="../../d3/d3a/getfsq_8f90.html#a7b636db95ff23aaea849bd65fba7aa2e" target="_top" xlink:title="Compute total force residual on flux surfaces.">
<polygon fill="white" stroke="black" points="251.5,-570.5 251.5,-589.5 295.5,-589.5 295.5,-570.5 251.5,-570.5"/>
<text text-anchor="middle" x="273.5" y="-577.5" font-family="Helvetica,sans-Serif" font-size="10.00">getfsq</text>
</a>
</g>
</g>
<!-- Node12&#45;&gt;Node14 -->
<g id="edge13" class="edge">
<title>Node12&#45;&gt;Node14</title>
<path fill="none" stroke="midnightblue" d="M166.15,-548.79C187.19,-554.97 218.39,-564.12 241.57,-570.92"/>
<polygon fill="midnightblue" stroke="midnightblue" points="240.68,-574.31 251.27,-573.77 242.66,-567.59 240.68,-574.31"/>
</g>
<!-- Node15 -->
<g id="node15" class="node">
<title>Node15</title>
<g id="a_node15"><a xlink:href="../../db/d5a/residue_8f90.html#aaf8d684a58b8bf9dfdecfdb925960780" target="_top" xlink:title="Compute internal gr , gz required for &#160;constraint.">
<polygon fill="white" stroke="black" points="244,-532.5 244,-551.5 303,-551.5 303,-532.5 244,-532.5"/>
<text text-anchor="middle" x="273.5" y="-539.5" font-family="Helvetica,sans-Serif" font-size="10.00">scale_m1</text>
</a>
</g>
</g>
<!-- Node12&#45;&gt;Node15 -->
<g id="edge14" class="edge">
<title>Node12&#45;&gt;Node15</title>
<path fill="none" stroke="midnightblue" d="M166.15,-542C184.87,-542 211.62,-542 233.62,-542"/>
<polygon fill="midnightblue" stroke="midnightblue" points="233.66,-545.5 243.66,-542 233.66,-538.5 233.66,-545.5"/>
</g>
<!-- Node16 -->
<g id="node16" class="node">
<title>Node16</title>
<g id="a_node16"><a xlink:href="../../d8/d86/scalfor_8f90.html#a20fb7039b82d05e64d01a2e50431ba5e" target="_top" xlink:title="Build forces from different contributions.">
<polygon fill="white" stroke="black" points="250.5,-494.5 250.5,-513.5 296.5,-513.5 296.5,-494.5 250.5,-494.5"/>
<text text-anchor="middle" x="273.5" y="-501.5" font-family="Helvetica,sans-Serif" font-size="10.00">scalfor</text>
</a>
</g>
</g>
<!-- Node12&#45;&gt;Node16 -->
<g id="edge15" class="edge">
<title>Node12&#45;&gt;Node16</title>
<path fill="none" stroke="midnightblue" d="M166.15,-535.21C186.94,-529.11 217.64,-520.1 240.72,-513.32"/>
<polygon fill="midnightblue" stroke="midnightblue" points="241.8,-516.66 250.41,-510.48 239.83,-509.94 241.8,-516.66"/>
</g>
<!-- Node17 -->
<g id="node17" class="node">
<title>Node17</title>
<g id="a_node17"><a xlink:href="../../db/d40/tridslv_8f90.html#abf5399c0154abe7424c54d7fa9eb69db" target="_top" xlink:title="Solve a tridiagonal system of equations.">
<polygon fill="white" stroke="black" points="348.5,-494.5 348.5,-513.5 391.5,-513.5 391.5,-494.5 348.5,-494.5"/>
<text text-anchor="middle" x="370" y="-501.5" font-family="Helvetica,sans-Serif" font-size="10.00">tridslv</text>
</a>
</g>
</g>
<!-- Node16&#45;&gt;Node17 -->
<g id="edge16" class="edge">
<title>Node16&#45;&gt;Node17</title>
<path fill="none" stroke="midnightblue" d="M296.9,-504C309.21,-504 324.68,-504 338.13,-504"/>
<polygon fill="midnightblue" stroke="midnightblue" points="338.38,-507.5 348.38,-504 338.38,-500.5 338.38,-507.5"/>
</g>
<!-- Node18&#45;&gt;Node13 -->
<g id="edge18" class="edge">
<title>Node18&#45;&gt;Node13</title>
<path fill="none" stroke="midnightblue" d="M175.68,-494.41C192.09,-489.6 212.18,-483.7 229.79,-478.53"/>
<polygon fill="midnightblue" stroke="midnightblue" points="231.22,-481.76 239.83,-475.59 229.25,-475.04 231.22,-481.76"/>
</g>
<!-- Node18&#45;&gt;Node14 -->
<g id="edge19" class="edge">
<title>Node18&#45;&gt;Node14</title>
<path fill="none" stroke="midnightblue" d="M176.79,-512.52C184.42,-515.23 192.26,-518.68 199,-523 218.59,-535.55 216.35,-547.09 235,-561 237.3,-562.72 239.79,-564.36 242.34,-565.9"/>
<polygon fill="midnightblue" stroke="midnightblue" points="240.67,-568.98 251.12,-570.76 244.06,-562.85 240.67,-568.98"/>
</g>
<!-- Node18&#45;&gt;Node15 -->
<g id="edge20" class="edge">
<title>Node18&#45;&gt;Node15</title>
<path fill="none" stroke="midnightblue" d="M175.68,-513.59C193.46,-518.81 215.56,-525.29 234.16,-530.75"/>
<polygon fill="midnightblue" stroke="midnightblue" points="233.22,-534.12 243.8,-533.58 235.19,-527.4 233.22,-534.12"/>
</g>
<!-- Node18&#45;&gt;Node16 -->
<g id="edge21" class="edge">
<title>Node18&#45;&gt;Node16</title>
<path fill="none" stroke="midnightblue" d="M176.69,-504C196.29,-504 220.87,-504 240.22,-504"/>
<polygon fill="midnightblue" stroke="midnightblue" points="240.37,-507.5 250.37,-504 240.37,-500.5 240.37,-507.5"/>
</g>
<!-- Node27 -->
<g id="node27" class="node">
<title>Node27</title>
<g id="a_node27"><a xlink:href="../../dc/d49/totzsp_8f90.html#aff13f873fb632d486fdffc6ee97857c6" target="_top" xlink:title="Convert from internal representation to &quot;physical&quot; rmnsc, zmncc Fourier form.">
<polygon fill="white" stroke="black" points="235,-228.5 235,-247.5 312,-247.5 312,-228.5 235,-228.5"/>
<text text-anchor="middle" x="273.5" y="-235.5" font-family="Helvetica,sans-Serif" font-size="10.00">convert_asym</text>
</a>
</g>
</g>
<!-- Node26&#45;&gt;Node27 -->
<g id="edge30" class="edge">
<title>Node26&#45;&gt;Node27</title>
<path fill="none" stroke="midnightblue" d="M166.15,-206.79C183.86,-211.99 208.77,-219.3 230.04,-225.54"/>
<polygon fill="midnightblue" stroke="midnightblue" points="229.24,-228.95 239.82,-228.41 231.21,-222.24 229.24,-228.95"/>
</g>
<!-- Node29 -->
<g id="node29" class="node">
<title>Node29</title>
<g id="a_node29"><a xlink:href="../../dc/d49/totzsp_8f90.html#a3264ce8fefaa7ede632c4147049aadc5" target="_top" xlink:title="Convert from internal representation to &quot;physical&quot; rmnss, zmncs Fourier form.">
<polygon fill="white" stroke="black" points="237.5,-190.5 237.5,-209.5 309.5,-209.5 309.5,-190.5 237.5,-190.5"/>
<text text-anchor="middle" x="273.5" y="-197.5" font-family="Helvetica,sans-Serif" font-size="10.00">convert_sym</text>
</a>
</g>
</g>
<!-- Node28&#45;&gt;Node29 -->
<g id="edge32" class="edge">
<title>Node28&#45;&gt;Node29</title>
<path fill="none" stroke="midnightblue" d="M166.15,-168.79C183.86,-173.99 208.77,-181.3 230.04,-187.54"/>
<polygon fill="midnightblue" stroke="midnightblue" points="229.24,-190.95 239.82,-190.41 231.21,-184.24 229.24,-190.95"/>
</g>
<!-- Node31 -->
<g id="node31" class="node">
<title>Node31</title>
<g id="a_node31"><a xlink:href="../../db/d3d/bextern_8f90.html#a90228cc5f358147ae7f59953d6f9cced" target="_top" xlink:title="Compute the total magnetic field due to external coils and the net toroidal plasma current.">
<polygon fill="white" stroke="black" points="249.5,-152.5 249.5,-171.5 297.5,-171.5 297.5,-152.5 249.5,-152.5"/>
<text text-anchor="middle" x="273.5" y="-159.5" font-family="Helvetica,sans-Serif" font-size="10.00">bextern</text>
</a>
</g>
</g>
<!-- Node30&#45;&gt;Node31 -->
<g id="edge34" class="edge">
<title>Node30&#45;&gt;Node31</title>
<path fill="none" stroke="midnightblue" d="M167.66,-131.24C188.03,-137.21 217.11,-145.75 239.48,-152.31"/>
<polygon fill="midnightblue" stroke="midnightblue" points="238.65,-155.72 249.24,-155.17 240.63,-149 238.65,-155.72"/>
</g>
<!-- Node34 -->
<g id="node34" class="node">
<title>Node34</title>
<g id="a_node34"><a xlink:href="../../dd/d98/precal_8f90.html#a0dae73e848a4757092d7e9786d073d3d" target="_top" xlink:title="Pre&#45;compute constant terms required for NESTOR.">
<polygon fill="white" stroke="black" points="252,-114.5 252,-133.5 295,-133.5 295,-114.5 252,-114.5"/>
<text text-anchor="middle" x="273.5" y="-121.5" font-family="Helvetica,sans-Serif" font-size="10.00">precal</text>
</a>
</g>
</g>
<!-- Node30&#45;&gt;Node34 -->
<g id="edge37" class="edge">
<title>Node30&#45;&gt;Node34</title>
<path fill="none" stroke="midnightblue" d="M167.66,-124C188.7,-124 219.03,-124 241.67,-124"/>
<polygon fill="midnightblue" stroke="midnightblue" points="241.77,-127.5 251.77,-124 241.77,-120.5 241.77,-127.5"/>
</g>
<!-- Node35 -->
<g id="node35" class="node">
<title>Node35</title>
<g id="a_node35"><a xlink:href="../../d0/d19/scalpot_8f90.html#afb9e58849c5a27e486bdf4106f8bb84e" target="_top" xlink:title="Compute all required terms for solving for the scalar magnetic potential.">
<polygon fill="white" stroke="black" points="249.5,-76.5 249.5,-95.5 297.5,-95.5 297.5,-76.5 249.5,-76.5"/>
<text text-anchor="middle" x="273.5" y="-83.5" font-family="Helvetica,sans-Serif" font-size="10.00">scalpot</text>
</a>
</g>
</g>
<!-- Node30&#45;&gt;Node35 -->
<g id="edge38" class="edge">
<title>Node30&#45;&gt;Node35</title>
<path fill="none" stroke="midnightblue" d="M167.66,-116.76C188.03,-110.79 217.11,-102.25 239.48,-95.69"/>
<polygon fill="midnightblue" stroke="midnightblue" points="240.63,-99 249.24,-92.83 238.65,-92.28 240.63,-99"/>
</g>
<!-- Node42 -->
<g id="node42" class="node">
<title>Node42</title>
<g id="a_node42"><a xlink:href="../../d7/d39/solver_8f90.html#a1e815013ed24a9dddc80410103f4a220" target="_top" xlink:title="Solve a linear system of equations using dgesv.">
<polygon fill="white" stroke="black" points="252,-38.5 252,-57.5 295,-57.5 295,-38.5 252,-38.5"/>
<text text-anchor="middle" x="273.5" y="-45.5" font-family="Helvetica,sans-Serif" font-size="10.00">solver</text>
</a>
</g>
</g>
<!-- Node30&#45;&gt;Node42 -->
<g id="edge45" class="edge">
<title>Node30&#45;&gt;Node42</title>
<path fill="none" stroke="midnightblue" d="M167.59,-118.45C177.81,-115.46 189.49,-111.09 199,-105 218.59,-92.45 216.35,-80.91 235,-67 237.49,-65.14 240.2,-63.37 242.97,-61.72"/>
<polygon fill="midnightblue" stroke="midnightblue" points="244.8,-64.71 251.9,-56.85 241.44,-58.57 244.8,-64.71"/>
</g>
<!-- Node43 -->
<g id="node43" class="node">
<title>Node43</title>
<g id="a_node43"><a xlink:href="../../d6/d03/surface_8f90.html#ad7b6446e720a806f41f10dd1eb0b6f88" target="_top" xlink:title="Evaluate the geometry of the LCFS and tangential derivatives.">
<polygon fill="white" stroke="black" points="249,-0.5 249,-19.5 298,-19.5 298,-0.5 249,-0.5"/>
<text text-anchor="middle" x="273.5" y="-7.5" font-family="Helvetica,sans-Serif" font-size="10.00">surface</text>
</a>
</g>
</g>
<!-- Node30&#45;&gt;Node43 -->
<g id="edge46" class="edge">
<title>Node30&#45;&gt;Node43</title>
<path fill="none" stroke="midnightblue" d="M167.51,-120.13C178.2,-117.4 190.26,-112.79 199,-105 226.91,-80.14 208.93,-55.78 235,-29 236.57,-27.39 238.31,-25.88 240.15,-24.49"/>
<polygon fill="midnightblue" stroke="midnightblue" points="242.12,-27.39 248.69,-19.08 238.37,-21.48 242.12,-27.39"/>
</g>
<!-- Node32 -->
<g id="node32" class="node">
<title>Node32</title>
<g id="a_node32"><a xlink:href="../../d6/dc7/becoil_8f90.html#a449b054fb88bdb4cdf73ef8939654bfb" target="_top" xlink:title="Compute the cylindrical components of the magnetic field due to external coils. by bi&#45;linear interpol...">
<polygon fill="white" stroke="black" points="349,-152.5 349,-171.5 391,-171.5 391,-152.5 349,-152.5"/>
<text text-anchor="middle" x="370" y="-159.5" font-family="Helvetica,sans-Serif" font-size="10.00">becoil</text>
</a>
</g>
</g>
<!-- Node31&#45;&gt;Node32 -->
<g id="edge35" class="edge">
<title>Node31&#45;&gt;Node32</title>
<path fill="none" stroke="midnightblue" d="M297.86,-162C310.19,-162 325.48,-162 338.71,-162"/>
<polygon fill="midnightblue" stroke="midnightblue" points="338.79,-165.5 348.79,-162 338.79,-158.5 338.79,-165.5"/>
</g>
<!-- Node33 -->
<g id="node33" class="node">
<title>Node33</title>
<g id="a_node33"><a xlink:href="../../d9/dda/belicu_8f90.html#a53e6f162ca96069b8d93e131069ddf5d" target="_top" xlink:title="Magnetic field due to net toroidal current modeled by a filament along the magnetic axis.">
<polygon fill="white" stroke="black" points="349,-190.5 349,-209.5 391,-209.5 391,-190.5 349,-190.5"/>
<text text-anchor="middle" x="370" y="-197.5" font-family="Helvetica,sans-Serif" font-size="10.00">belicu</text>
</a>
</g>
</g>
<!-- Node31&#45;&gt;Node33 -->
<g id="edge36" class="edge">
<title>Node31&#45;&gt;Node33</title>
<path fill="none" stroke="midnightblue" d="M297.86,-171.39C310.44,-176.45 326.08,-182.74 339.49,-188.14"/>
<polygon fill="midnightblue" stroke="midnightblue" points="338.21,-191.39 348.79,-191.87 340.82,-184.9 338.21,-191.39"/>
</g>
<!-- Node36 -->
<g id="node36" class="node">
<title>Node36</title>
<g id="a_node36"><a xlink:href="../../da/d73/analyt_8f90.html#a60edcf4884aa60f6d96c258a97255756" target="_top" xlink:title="Compute the analytical&#45;and&#45;numerical 4D Fourier integrals over the equivalently&#45;singular functions.">
<polygon fill="white" stroke="black" points="349,-76.5 349,-95.5 391,-95.5 391,-76.5 349,-76.5"/>
<text text-anchor="middle" x="370" y="-83.5" font-family="Helvetica,sans-Serif" font-size="10.00">analyt</text>
</a>
</g>
</g>
<!-- Node35&#45;&gt;Node36 -->
<g id="edge39" class="edge">
<title>Node35&#45;&gt;Node36</title>
<path fill="none" stroke="midnightblue" d="M297.86,-86C310.19,-86 325.48,-86 338.71,-86"/>
<polygon fill="midnightblue" stroke="midnightblue" points="338.79,-89.5 348.79,-86 338.79,-82.5 338.79,-89.5"/>
</g>
<!-- Node39 -->
<g id="node39" class="node">
<title>Node39</title>
<g id="a_node39"><a xlink:href="../../d6/d77/fouri_8f90.html#a0f902f8d584a395f9db7175079d273c7" target="_top" xlink:title="Compute Fourier integrals and build amatrix.">
<polygon fill="white" stroke="black" points="352.5,-38.5 352.5,-57.5 387.5,-57.5 387.5,-38.5 352.5,-38.5"/>
<text text-anchor="middle" x="370" y="-45.5" font-family="Helvetica,sans-Serif" font-size="10.00">fouri</text>
</a>
</g>
</g>
<!-- Node35&#45;&gt;Node39 -->
<g id="edge42" class="edge">
<title>Node35&#45;&gt;Node39</title>
<path fill="none" stroke="midnightblue" d="M297.86,-76.61C311.49,-71.12 328.73,-64.19 342.82,-58.53"/>
<polygon fill="midnightblue" stroke="midnightblue" points="344.46,-61.64 352.43,-54.66 341.85,-55.15 344.46,-61.64"/>
</g>
<!-- Node40 -->
<g id="node40" class="node">
<title>Node40</title>
<g id="a_node40"><a xlink:href="../../d0/d1c/fourp_8f90.html#add725dd420251115fd60182dc992503c" target="_top" xlink:title="Perform Fourier integrals of Green&#39;s function kernel.">
<polygon fill="white" stroke="black" points="351,-0.5 351,-19.5 389,-19.5 389,-0.5 351,-0.5"/>
<text text-anchor="middle" x="370" y="-7.5" font-family="Helvetica,sans-Serif" font-size="10.00">fourp</text>
</a>
</g>
</g>
<!-- Node35&#45;&gt;Node40 -->
<g id="edge43" class="edge">
<title>Node35&#45;&gt;Node40</title>
<path fill="none" stroke="midnightblue" d="M296.67,-76.36C301.9,-73.65 307.32,-70.49 312,-67 330.65,-53.09 331.36,-45.26 348,-29 348.91,-28.11 349.85,-27.21 350.81,-26.3"/>
<polygon fill="midnightblue" stroke="midnightblue" points="353.19,-28.86 358.17,-19.51 348.45,-23.72 353.19,-28.86"/>
</g>
<!-- Node41 -->
<g id="node41" class="node">
<title>Node41</title>
<g id="a_node41"><a xlink:href="../../df/d2d/greenf_8f90.html#acd9d25905cc799c9fcd4d08a3cbb1e65" target="_top" xlink:title="Compute the regularized evaluation of the Green&#39;s function and the source term.">
<polygon fill="white" stroke="black" points="348,-114.5 348,-133.5 392,-133.5 392,-114.5 348,-114.5"/>
<text text-anchor="middle" x="370" y="-121.5" font-family="Helvetica,sans-Serif" font-size="10.00">greenf</text>
</a>
</g>
</g>
<!-- Node35&#45;&gt;Node41 -->
<g id="edge44" class="edge">
<title>Node35&#45;&gt;Node41</title>
<path fill="none" stroke="midnightblue" d="M297.86,-95.39C310.05,-100.3 325.13,-106.36 338.26,-111.64"/>
<polygon fill="midnightblue" stroke="midnightblue" points="337.26,-115.01 347.84,-115.49 339.87,-108.51 337.26,-115.01"/>
</g>
<!-- Node37 -->
<g id="node37" class="node">
<title>Node37</title>
<g id="a_node37"><a xlink:href="../../df/df3/analysum_8f90.html#aa51b1a5786e7b5719fe2ca679efc66b0" target="_top" xlink:title="Compute the (m=0 or n=0) part of the DFT of the analytical Fourier transforms of the equivalently&#45;sin...">
<polygon fill="white" stroke="black" points="430.5,-95.5 430.5,-114.5 488.5,-114.5 488.5,-95.5 430.5,-95.5"/>
<text text-anchor="middle" x="459.5" y="-102.5" font-family="Helvetica,sans-Serif" font-size="10.00">analysum</text>
</a>
</g>
</g>
<!-- Node36&#45;&gt;Node37 -->
<g id="edge40" class="edge">
<title>Node36&#45;&gt;Node37</title>
<path fill="none" stroke="midnightblue" d="M391.29,-90.41C400,-92.3 410.47,-94.57 420.53,-96.75"/>
<polygon fill="midnightblue" stroke="midnightblue" points="419.85,-100.19 430.36,-98.89 421.33,-93.35 419.85,-100.19"/>
</g>
<!-- Node38 -->
<g id="node38" class="node">
<title>Node38</title>
<g id="a_node38"><a xlink:href="../../d1/d90/analysum2_8f90.html#a47a0d185131a197c6fc62ee5d68d62fb" target="_top" xlink:title="Compute the (m&gt;0 and n&gt;0) part of the DFT of the analytical Fourier transforms of the equivalently&#45;si...">
<polygon fill="white" stroke="black" points="428,-57.5 428,-76.5 491,-76.5 491,-57.5 428,-57.5"/>
<text text-anchor="middle" x="459.5" y="-64.5" font-family="Helvetica,sans-Serif" font-size="10.00">analysum2</text>
</a>
</g>
</g>
<!-- Node36&#45;&gt;Node38 -->
<g id="edge41" class="edge">
<title>Node36&#45;&gt;Node38</title>
<path fill="none" stroke="midnightblue" d="M391.29,-81.59C399.23,-79.87 408.62,-77.83 417.84,-75.83"/>
<polygon fill="midnightblue" stroke="midnightblue" points="418.65,-79.23 427.68,-73.69 417.17,-72.39 418.65,-79.23"/>
</g>
</g>
</svg>
        <g id="navigator" transform="translate(0 0)" fill="#404254">
                <rect fill="#f2f5e9" fill-opacity="0.5" stroke="#606060" stroke-width=".5" x="0" y="0" width="60" height="60"/>
                <use id="zoomplus" xlink:href="#zoomPlus" x="17" y="9" onmousedown="handleZoom(evt,'in')"/>
                <use id="zoomminus" xlink:href="#zoomMin" x="42" y="9" onmousedown="handleZoom(evt,'out')"/>
                <use id="reset" xlink:href="#resetDef" x="30" y="36" onmousedown="handleReset()"/>
                <g id="arrowUp" xlink:href="#dirArrow" transform="translate(30 24)" onmousedown="handlePan(0,-1)">
                  <use xlink:href="#rim" fill="#404040">
                        <set attributeName="fill" to="#808080" begin="arrowUp.mouseover" end="arrowUp.mouseout"/>
                  </use>
                  <path fill="none" stroke="white" stroke-width="1.5" d="M0,-3.0v7 M-2.5,-0.5L0,-3.0L2.5,-0.5"/>
                </g>
                <g id="arrowRight" xlink:href="#dirArrow" transform="rotate(90) translate(36 -43)" onmousedown="handlePan(1,0)">
                  <use xlink:href="#rim" fill="#404040">
                        <set attributeName="fill" to="#808080" begin="arrowRight.mouseover" end="arrowRight.mouseout"/>
                  </use>
                  <path fill="none" stroke="white" stroke-width="1.5" d="M0,-3.0v7 M-2.5,-0.5L0,-3.0L2.5,-0.5"/>
                </g>
                <g id="arrowDown" xlink:href="#dirArrow" transform="rotate(180) translate(-30 -48)" onmousedown="handlePan(0,1)">
                  <use xlink:href="#rim" fill="#404040">
                        <set attributeName="fill" to="#808080" begin="arrowDown.mouseover" end="arrowDown.mouseout"/>
                  </use>
                  <path fill="none" stroke="white" stroke-width="1.5" d="M0,-3.0v7 M-2.5,-0.5L0,-3.0L2.5,-0.5"/>
                </g>
                <g id="arrowLeft" xlink:href="#dirArrow" transform="rotate(270) translate(-36 17)" onmousedown="handlePan(-1,0)">
                  <use xlink:href="#rim" fill="#404040">
                        <set attributeName="fill" to="#808080" begin="arrowLeft.mouseover" end="arrowLeft.mouseout"/>
                  </use>
                  <path fill="none" stroke="white" stroke-width="1.5" d="M0,-3.0v7 M-2.5,-0.5L0,-3.0L2.5,-0.5"/>
                </g>
        </g>
        <svg viewBox="0 0 15 15" width="100%" height="30px" preserveAspectRatio="xMaxYMin meet">
         <g id="arrow_out" transform="scale(0.3 0.3)">
          <a xlink:href="funct3d_8f90_a800bacc22176e16323899df87b55c547_cgraph_org.svg" target="_base">
           <rect id="button" ry="5" rx="5" y="6" x="6" height="38" width="38"
                fill="#f2f5e9" fill-opacity="0.5" stroke="#606060" stroke-width="1.0"/>
           <path id="arrow"
             d="M 11.500037,31.436501 C 11.940474,20.09759 22.043105,11.32322 32.158766,21.979434 L 37.068811,17.246167 C 37.068811,17.246167 37.088388,32 37.088388,32 L 22.160133,31.978069 C 22.160133,31.978069 26.997745,27.140456 26.997745,27.140456 C 18.528582,18.264221 13.291696,25.230495 11.500037,31.436501 z"
             style="fill:#404040;"/>
          </a>
         </g>
        </svg>
</svg>
