<?xml version="1.0" encoding="UTF-8" standalone="no"?>
<!DOCTYPE svg PUBLIC "-//W3C//DTD SVG 1.1//EN"
 "http://www.w3.org/Graphics/SVG/1.1/DTD/svg11.dtd">
<!-- Generated by graphviz version 2.49.3 (20211027.1501)
 -->
<!-- Title: funct3d Pages: 1 -->
<svg width="499pt" height="845pt"
 viewBox="0.00 0.00 499.00 845.00" xmlns="http://www.w3.org/2000/svg" xmlns:xlink="http://www.w3.org/1999/xlink">
<g id="graph0" class="graph" transform="scale(1 1) rotate(0) translate(4 841)">
<title>funct3d</title>
<polygon fill="white" stroke="transparent" points="-4,4 -4,-841 495,-841 495,4 -4,4"/>
<!-- Node1 -->
<g id="node1" class="node">
<title>Node1</title>
<g id="a_node1"><a xlink:title="Evaluate the three&#45;dimensional MHD energy functional. Think of this as the &quot;forward model&quot; that tells...">
<polygon fill="#bfbfbf" stroke="black" points="0,-418.5 0,-437.5 49,-437.5 49,-418.5 0,-418.5"/>
<text text-anchor="middle" x="24.5" y="-425.5" font-family="Helvetica,sans-Serif" font-size="10.00">funct3d</text>
</a>
</g>
</g>
<!-- Node2 -->
<g id="node2" class="node">
<title>Node2</title>
<g id="a_node2"><a xlink:href="../../d5/de7/alias_8f90.html#a971bf2e3997d8e5ed08c060b651c88c4" target="_top" xlink:title="Fourier&#45;space bandpass filter on constraint force for spectral condensation.">
<polygon fill="white" stroke="black" points="123.5,-798.5 123.5,-817.5 160.5,-817.5 160.5,-798.5 123.5,-798.5"/>
<text text-anchor="middle" x="142" y="-805.5" font-family="Helvetica,sans-Serif" font-size="10.00">alias</text>
</a>
</g>
</g>
<!-- Node1&#45;&gt;Node2 -->
<g id="edge1" class="edge">
<title>Node1&#45;&gt;Node2</title>
<path fill="none" stroke="midnightblue" d="M25.79,-437.69C27.51,-489.5 38.05,-733.66 85,-789 92.12,-797.4 103.11,-802.09 113.47,-804.71"/>
<polygon fill="midnightblue" stroke="midnightblue" points="112.96,-808.18 123.45,-806.71 114.33,-801.32 112.96,-808.18"/>
</g>
<!-- Node3 -->
<g id="node3" class="node">
<title>Node3</title>
<g id="a_node3"><a xlink:href="../../d7/d61/bcovar_8f90.html#a1e1624195f0c0c7daa9f49d83bae5ce8" target="_top" xlink:title="Compute the covariant components of the magnetic field , .">
<polygon fill="white" stroke="black" points="119,-760.5 119,-779.5 165,-779.5 165,-760.5 119,-760.5"/>
<text text-anchor="middle" x="142" y="-767.5" font-family="Helvetica,sans-Serif" font-size="10.00">bcovar</text>
</a>
</g>
</g>
<!-- Node1&#45;&gt;Node3 -->
<g id="edge2" class="edge">
<title>Node1&#45;&gt;Node3</title>
<path fill="none" stroke="midnightblue" d="M25.99,-437.61C28.63,-485.94 42.67,-702.04 85,-751 91.15,-758.11 100.06,-762.56 108.97,-765.35"/>
<polygon fill="midnightblue" stroke="midnightblue" points="108.34,-768.8 118.89,-767.85 110.05,-762.01 108.34,-768.8"/>
</g>
<!-- Node8 -->
<g id="node8" class="node">
<title>Node8</title>
<g id="a_node8"><a xlink:href="../../db/d74/convert_8f90.html#ae6d3862ea21a8d39210a79c6955b5b75" target="_top" xlink:title="Convert internal mode representation to standard form for output (coefficients of cos(mu&#45;nv),...">
<polygon fill="white" stroke="black" points="117.5,-722.5 117.5,-741.5 166.5,-741.5 166.5,-722.5 117.5,-722.5"/>
<text text-anchor="middle" x="142" y="-729.5" font-family="Helvetica,sans-Serif" font-size="10.00">convert</text>
</a>
</g>
</g>
<!-- Node1&#45;&gt;Node8 -->
<g id="edge7" class="edge">
<title>Node1&#45;&gt;Node8</title>
<path fill="none" stroke="midnightblue" d="M26.25,-437.65C29.91,-482.53 47.3,-670.43 85,-713 90.87,-719.63 99.14,-723.95 107.53,-726.76"/>
<polygon fill="midnightblue" stroke="midnightblue" points="106.73,-730.17 117.29,-729.42 108.56,-723.42 106.73,-730.17"/>
</g>
<!-- Node9 -->
<g id="node9" class="node">
<title>Node9</title>
<g id="a_node9"><a xlink:href="../../de/d0c/forces_8f90.html#a7b4708aaec3cc94526474c16bc3a16f0" target="_top" xlink:title="Compute the real&#45;space MHD forces.">
<polygon fill="white" stroke="black" points="120,-684.5 120,-703.5 164,-703.5 164,-684.5 120,-684.5"/>
<text text-anchor="middle" x="142" y="-691.5" font-family="Helvetica,sans-Serif" font-size="10.00">forces</text>
</a>
</g>
</g>
<!-- Node1&#45;&gt;Node9 -->
<g id="edge8" class="edge">
<title>Node1&#45;&gt;Node9</title>
<path fill="none" stroke="midnightblue" d="M26.59,-437.72C31.39,-478.93 51.91,-638.76 85,-675 91.56,-682.18 100.93,-686.65 110.14,-689.43"/>
<polygon fill="midnightblue" stroke="midnightblue" points="109.38,-692.85 119.92,-691.83 111.04,-686.05 109.38,-692.85"/>
</g>
<!-- Node10 -->
<g id="node10" class="node">
<title>Node10</title>
<g id="a_node10"><a xlink:href="../../d8/dc3/jacobian_8f90.html#af346f65d2aa225d9ede6e0f23add6142" target="_top" xlink:title="Evaulate the Jacobian of the transform from flux&#45; to cylindrical coordinates.">
<polygon fill="white" stroke="black" points="115.5,-646.5 115.5,-665.5 168.5,-665.5 168.5,-646.5 115.5,-646.5"/>
<text text-anchor="middle" x="142" y="-653.5" font-family="Helvetica,sans-Serif" font-size="10.00">jacobian</text>
</a>
</g>
</g>
<!-- Node1&#45;&gt;Node10 -->
<g id="edge9" class="edge">
<title>Node1&#45;&gt;Node10</title>
<path fill="none" stroke="midnightblue" d="M25.29,-437.84C25.12,-470.76 29.09,-578.24 85,-637 90.57,-642.86 98.02,-646.91 105.65,-649.71"/>
<polygon fill="midnightblue" stroke="midnightblue" points="104.72,-653.08 115.3,-652.64 106.75,-646.39 104.72,-653.08"/>
</g>
<!-- Node11 -->
<g id="node11" class="node">
<title>Node11</title>
<g id="a_node11"><a xlink:href="../../db/da1/nestor__io_8f90.html#a67b1cb19f12a5860a25a89dbd3dfd9c9" target="_top" xlink:title=" ">
<polygon fill="white" stroke="black" points="89.5,-608.5 89.5,-627.5 194.5,-627.5 194.5,-608.5 89.5,-608.5"/>
<text text-anchor="middle" x="142" y="-615.5" font-family="Helvetica,sans-Serif" font-size="10.00">read_nestor_outputs</text>
</a>
</g>
</g>
<!-- Node1&#45;&gt;Node11 -->
<g id="edge10" class="edge">
<title>Node1&#45;&gt;Node11</title>
<path fill="none" stroke="midnightblue" d="M26,-437.66C28.03,-466.41 37.92,-552.28 85,-599 86.6,-600.59 88.33,-602.04 90.17,-603.37"/>
<polygon fill="midnightblue" stroke="midnightblue" points="88.39,-606.38 98.77,-608.47 91.96,-600.36 88.39,-606.38"/>
</g>
<!-- Node12 -->
<g id="node12" class="node">
<title>Node12</title>
<g id="a_node12"><a xlink:href="../../db/d5a/residue_8f90.html#a2390b3cf93196383bbe960acb85b3e32" target="_top" xlink:title="Compute invariant residuals.">
<polygon fill="white" stroke="black" points="118,-570.5 118,-589.5 166,-589.5 166,-570.5 118,-570.5"/>
<text text-anchor="middle" x="142" y="-577.5" font-family="Helvetica,sans-Serif" font-size="10.00">residue</text>
</a>
</g>
</g>
<!-- Node1&#45;&gt;Node12 -->
<g id="edge11" class="edge">
<title>Node1&#45;&gt;Node12</title>
<path fill="none" stroke="midnightblue" d="M27.08,-437.58C31.57,-461.8 46.66,-526.09 85,-561 91.42,-566.85 99.72,-570.91 107.94,-573.72"/>
<polygon fill="midnightblue" stroke="midnightblue" points="107.23,-577.16 117.81,-576.57 109.18,-570.43 107.23,-577.16"/>
</g>
<!-- Node18 -->
<g id="node18" class="node">
<title>Node18</title>
<g id="a_node18"><a xlink:href="../../d3/d96/residue__con_8f90.html#a412d6d3c67bc4020bcfc3bcf83718b98" target="_top" xlink:title="Compute invariant residuals.">
<polygon fill="white" stroke="black" points="107.5,-532.5 107.5,-551.5 176.5,-551.5 176.5,-532.5 107.5,-532.5"/>
<text text-anchor="middle" x="142" y="-539.5" font-family="Helvetica,sans-Serif" font-size="10.00">residue_con</text>
</a>
</g>
</g>
<!-- Node1&#45;&gt;Node18 -->
<g id="edge17" class="edge">
<title>Node1&#45;&gt;Node18</title>
<path fill="none" stroke="midnightblue" d="M28.95,-437.6C36.29,-456.66 55.24,-499.46 85,-523 88.87,-526.06 93.27,-528.65 97.85,-530.82"/>
<polygon fill="midnightblue" stroke="midnightblue" points="96.83,-534.19 107.42,-534.73 99.49,-527.71 96.83,-534.19"/>
</g>
<!-- Node19 -->
<g id="node19" class="node">
<title>Node19</title>
<g id="a_node19"><a xlink:href="../../d5/d62/residue__mhd_8f90.html#a3ed729a2f8c8d70e4d2fef05c9dfc4c8" target="_top" xlink:title="Compute invariant residuals.">
<polygon fill="white" stroke="black" points="106,-494.5 106,-513.5 178,-513.5 178,-494.5 106,-494.5"/>
<text text-anchor="middle" x="142" y="-501.5" font-family="Helvetica,sans-Serif" font-size="10.00">residue_mhd</text>
</a>
</g>
</g>
<!-- Node1&#45;&gt;Node19 -->
<g id="edge22" class="edge">
<title>Node1&#45;&gt;Node19</title>
<path fill="none" stroke="midnightblue" d="M33.35,-437.82C43.88,-450.39 63.72,-472.09 85,-485 88.6,-487.19 92.49,-489.16 96.48,-490.94"/>
<polygon fill="midnightblue" stroke="midnightblue" points="95.3,-494.23 105.89,-494.72 97.91,-487.74 95.3,-494.23"/>
</g>
<!-- Node20 -->
<g id="node20" class="node">
<title>Node20</title>
<g id="a_node20"><a xlink:href="../../d5/d6e/restart__iter_8f90.html#ace7df67e039f0ebf69200f91d3cb16cc" target="_top" xlink:title="Save current or restore previous good state vector and reduce time step.">
<polygon fill="white" stroke="black" points="110.5,-456.5 110.5,-475.5 173.5,-475.5 173.5,-456.5 110.5,-456.5"/>
<text text-anchor="middle" x="142" y="-463.5" font-family="Helvetica,sans-Serif" font-size="10.00">restart_iter</text>
</a>
</g>
</g>
<!-- Node1&#45;&gt;Node20 -->
<g id="edge27" class="edge">
<title>Node1&#45;&gt;Node20</title>
<path fill="none" stroke="midnightblue" d="M49.15,-435.78C64.38,-440.79 84.53,-447.42 102.08,-453.2"/>
<polygon fill="midnightblue" stroke="midnightblue" points="101.46,-456.68 112.06,-456.48 103.65,-450.03 101.46,-456.68"/>
</g>
<!-- Node21 -->
<g id="node21" class="node">
<title>Node21</title>
<g id="a_node21"><a xlink:href="../../d4/df3/symforce_8f90.html#a169610bcc5544fc8e16ad1e10ac85dcb" target="_top" xlink:title="Symmetrize forces on restricted &#160;interval &#160;so cos, sin integrals can be performed.">
<polygon fill="white" stroke="black" points="114,-418.5 114,-437.5 170,-437.5 170,-418.5 114,-418.5"/>
<text text-anchor="middle" x="142" y="-425.5" font-family="Helvetica,sans-Serif" font-size="10.00">symforce</text>
</a>
</g>
</g>
<!-- Node1&#45;&gt;Node21 -->
<g id="edge28" class="edge">
<title>Node1&#45;&gt;Node21</title>
<path fill="none" stroke="midnightblue" d="M49.15,-428C64.82,-428 85.71,-428 103.6,-428"/>
<polygon fill="midnightblue" stroke="midnightblue" points="103.73,-431.5 113.73,-428 103.73,-424.5 103.73,-431.5"/>
</g>
<!-- Node22 -->
<g id="node22" class="node">
<title>Node22</title>
<g id="a_node22"><a xlink:href="../../da/d11/symrzl_8f90.html#ac5df1aefe2e993d4416c52c8a727b817" target="_top" xlink:title="Symmetrize , &#160;and .">
<polygon fill="white" stroke="black" points="120,-380.5 120,-399.5 164,-399.5 164,-380.5 120,-380.5"/>
<text text-anchor="middle" x="142" y="-387.5" font-family="Helvetica,sans-Serif" font-size="10.00">symrzl</text>
</a>
</g>
</g>
<!-- Node1&#45;&gt;Node22 -->
<g id="edge29" class="edge">
<title>Node1&#45;&gt;Node22</title>
<path fill="none" stroke="midnightblue" d="M49.15,-420.22C66.72,-414.44 90.84,-406.5 109.96,-400.21"/>
<polygon fill="midnightblue" stroke="midnightblue" points="111.31,-403.45 119.71,-397 109.12,-396.8 111.31,-403.45"/>
</g>
<!-- Node23 -->
<g id="node23" class="node">
<title>Node23</title>
<g id="a_node23"><a xlink:href="../../d0/d6f/tomnsp_8f90.html#a6c7345c0aa0f13f311650d9633e6ecf8" target="_top" xlink:title="Fourier&#45;transform anti&#45;symmetric forces from real space to Fourier space.">
<polygon fill="white" stroke="black" points="115,-342.5 115,-361.5 169,-361.5 169,-342.5 115,-342.5"/>
<text text-anchor="middle" x="142" y="-349.5" font-family="Helvetica,sans-Serif" font-size="10.00">tomnspa</text>
</a>
</g>
</g>
<!-- Node1&#45;&gt;Node23 -->
<g id="edge30" class="edge">
<title>Node1&#45;&gt;Node23</title>
<path fill="none" stroke="midnightblue" d="M33.35,-418.18C43.88,-405.61 63.72,-383.91 85,-371 91.13,-367.28 98.09,-364.17 104.96,-361.62"/>
<polygon fill="midnightblue" stroke="midnightblue" points="106.51,-364.79 114.87,-358.28 104.28,-358.16 106.51,-364.79"/>
</g>
<!-- Node24 -->
<g id="node24" class="node">
<title>Node24</title>
<g id="a_node24"><a xlink:href="../../d8/db9/tomnsp__con_8f90.html#a2e8c98805decf1c832d812e19d9577dd" target="_top" xlink:title="Fourier&#45;transform anti&#45;symmetric forces from real space to Fourier space.">
<polygon fill="white" stroke="black" points="104.5,-304.5 104.5,-323.5 179.5,-323.5 179.5,-304.5 104.5,-304.5"/>
<text text-anchor="middle" x="142" y="-311.5" font-family="Helvetica,sans-Serif" font-size="10.00">tomnspa_con</text>
</a>
</g>
</g>
<!-- Node1&#45;&gt;Node24 -->
<g id="edge31" class="edge">
<title>Node1&#45;&gt;Node24</title>
<path fill="none" stroke="midnightblue" d="M28.95,-418.4C36.29,-399.34 55.24,-356.54 85,-333 88.13,-330.53 91.59,-328.37 95.22,-326.48"/>
<polygon fill="midnightblue" stroke="midnightblue" points="96.79,-329.62 104.49,-322.34 93.93,-323.23 96.79,-329.62"/>
</g>
<!-- Node25 -->
<g id="node25" class="node">
<title>Node25</title>
<g id="a_node25"><a xlink:href="../../d0/d6f/tomnsp_8f90.html#aec4b11e4f55e18c6bfc0348c263e31db" target="_top" xlink:title="Fourier&#45;transform symmetric forces from real space to Fourier space.">
<polygon fill="white" stroke="black" points="115,-266.5 115,-285.5 169,-285.5 169,-266.5 115,-266.5"/>
<text text-anchor="middle" x="142" y="-273.5" font-family="Helvetica,sans-Serif" font-size="10.00">tomnsps</text>
</a>
</g>
</g>
<!-- Node1&#45;&gt;Node25 -->
<g id="edge32" class="edge">
<title>Node1&#45;&gt;Node25</title>
<path fill="none" stroke="midnightblue" d="M27.08,-418.42C31.57,-394.2 46.66,-329.91 85,-295 90.69,-289.82 97.85,-286.04 105.12,-283.3"/>
<polygon fill="midnightblue" stroke="midnightblue" points="106.53,-286.52 115,-280.15 104.41,-279.85 106.53,-286.52"/>
</g>
<!-- Node26 -->
<g id="node26" class="node">
<title>Node26</title>
<g id="a_node26"><a xlink:href="../../d8/db9/tomnsp__con_8f90.html#ac9e62cd03062ffcb2abc0d0ff59503e3" target="_top" xlink:title="Fourier&#45;transform symmetric forces from real space to Fourier space.">
<polygon fill="white" stroke="black" points="104.5,-228.5 104.5,-247.5 179.5,-247.5 179.5,-228.5 104.5,-228.5"/>
<text text-anchor="middle" x="142" y="-235.5" font-family="Helvetica,sans-Serif" font-size="10.00">tomnsps_con</text>
</a>
</g>
</g>
<!-- Node1&#45;&gt;Node26 -->
<g id="edge33" class="edge">
<title>Node1&#45;&gt;Node26</title>
<path fill="none" stroke="midnightblue" d="M26,-418.34C28.03,-389.59 37.92,-303.72 85,-257 87.91,-254.11 91.27,-251.66 94.88,-249.59"/>
<polygon fill="midnightblue" stroke="midnightblue" points="96.69,-252.6 104.22,-245.15 93.68,-246.28 96.69,-252.6"/>
</g>
<!-- Node27 -->
<g id="node27" class="node">
<title>Node27</title>
<g id="a_node27"><a xlink:href="../../dc/d49/totzsp_8f90.html#a8c3f89c23a3be79d0f993c5031f7eab5" target="_top" xlink:title="Inverse&#45;Fourier&#45;transform anti&#45;symmetric part of geometry from Fourier space to real space.">
<polygon fill="white" stroke="black" points="118,-190.5 118,-209.5 166,-209.5 166,-190.5 118,-190.5"/>
<text text-anchor="middle" x="142" y="-197.5" font-family="Helvetica,sans-Serif" font-size="10.00">totzspa</text>
</a>
</g>
</g>
<!-- Node1&#45;&gt;Node27 -->
<g id="edge34" class="edge">
<title>Node1&#45;&gt;Node27</title>
<path fill="none" stroke="midnightblue" d="M25.29,-418.16C25.12,-385.24 29.09,-277.76 85,-219 91.15,-212.53 99.59,-208.27 108.05,-205.45"/>
<polygon fill="midnightblue" stroke="midnightblue" points="109.13,-208.78 117.85,-202.77 107.28,-202.03 109.13,-208.78"/>
</g>
<!-- Node29 -->
<g id="node29" class="node">
<title>Node29</title>
<g id="a_node29"><a xlink:href="../../dc/d49/totzsp_8f90.html#ac4756c0f66a5a01d9c08334a98a61b21" target="_top" xlink:title="Inverse&#45;Fourier&#45;transform symmetric part of geometry from Fourier space to real space.">
<polygon fill="white" stroke="black" points="118,-152.5 118,-171.5 166,-171.5 166,-152.5 118,-152.5"/>
<text text-anchor="middle" x="142" y="-159.5" font-family="Helvetica,sans-Serif" font-size="10.00">totzsps</text>
</a>
</g>
</g>
<!-- Node1&#45;&gt;Node29 -->
<g id="edge36" class="edge">
<title>Node1&#45;&gt;Node29</title>
<path fill="none" stroke="midnightblue" d="M26.59,-418.28C31.39,-377.07 51.91,-217.24 85,-181 91.07,-174.35 99.55,-170.03 108.08,-167.22"/>
<polygon fill="midnightblue" stroke="midnightblue" points="109.22,-170.54 117.97,-164.57 107.41,-163.78 109.22,-170.54"/>
</g>
<!-- Node31 -->
<g id="node31" class="node">
<title>Node31</title>
<g id="a_node31"><a xlink:href="../../dd/d6d/vacuum_8f90.html#a0acbc18d2ab7664835d797b42ce49a35" target="_top" xlink:title="Compute the vacuum contribution to the free&#45;boundary energy functional.">
<polygon fill="white" stroke="black" points="116.5,-114.5 116.5,-133.5 167.5,-133.5 167.5,-114.5 116.5,-114.5"/>
<text text-anchor="middle" x="142" y="-121.5" font-family="Helvetica,sans-Serif" font-size="10.00">vacuum</text>
</a>
</g>
</g>
<!-- Node1&#45;&gt;Node31 -->
<g id="edge38" class="edge">
<title>Node1&#45;&gt;Node31</title>
<path fill="none" stroke="midnightblue" d="M26.25,-418.35C29.91,-373.47 47.3,-185.57 85,-143 90.66,-136.61 98.56,-132.36 106.63,-129.54"/>
<polygon fill="midnightblue" stroke="midnightblue" points="107.77,-132.86 116.44,-126.77 105.87,-126.12 107.77,-132.86"/>
</g>
<!-- Node45 -->
<g id="node45" class="node">
<title>Node45</title>
<g id="a_node45"><a xlink:href="../../db/da1/nestor__io_8f90.html#a771059753d70a579e9443aa7ca5a991e" target="_top" xlink:title=" ">
<polygon fill="white" stroke="black" points="91.5,-76.5 91.5,-95.5 192.5,-95.5 192.5,-76.5 91.5,-76.5"/>
<text text-anchor="middle" x="142" y="-83.5" font-family="Helvetica,sans-Serif" font-size="10.00">write_nestor_inputs</text>
</a>
</g>
</g>
<!-- Node1&#45;&gt;Node45 -->
<g id="edge52" class="edge">
<title>Node1&#45;&gt;Node45</title>
<path fill="none" stroke="midnightblue" d="M25.99,-418.39C28.63,-370.06 42.67,-153.96 85,-105 86.15,-103.67 87.41,-102.42 88.74,-101.27"/>
<polygon fill="midnightblue" stroke="midnightblue" points="90.81,-104.09 97.1,-95.57 86.86,-98.31 90.81,-104.09"/>
</g>
<!-- Node46 -->
<g id="node46" class="node">
<title>Node46</title>
<g id="a_node46"><a xlink:href="../../db/dc0/namespacenestor__io.html#a288cc8f23cbfe1484ec6815381cc25c8" target="_top" xlink:title=" ">
<polygon fill="white" stroke="black" points="85,-27 85,-57 199,-57 199,-27 85,-27"/>
<text text-anchor="start" x="93" y="-45" font-family="Helvetica,sans-Serif" font-size="10.00">nestor_io::write_nestor</text>
<text text-anchor="middle" x="142" y="-34" font-family="Helvetica,sans-Serif" font-size="10.00">_outputs</text>
</a>
</g>
</g>
<!-- Node1&#45;&gt;Node46 -->
<g id="edge53" class="edge">
<title>Node1&#45;&gt;Node46</title>
<path fill="none" stroke="midnightblue" d="M25.88,-418.39C28.07,-366.95 40.67,-124.46 85,-67 85.93,-65.79 86.94,-64.63 88.01,-63.53"/>
<polygon fill="midnightblue" stroke="midnightblue" points="90.36,-66.13 95.81,-57.04 85.89,-60.75 90.36,-66.13"/>
</g>
<!-- Node4 -->
<g id="node4" class="node">
<title>Node4</title>
<g id="a_node4"><a xlink:href="../../d8/d7d/add__fluxes_8f90.html#a988e7013ef02301b9cfbde5b8068d5af" target="_top" xlink:title="Add the magnetic fluxes to the tangential derivatives of &#160;to arrive at the contravariant magnetic fie...">
<polygon fill="white" stroke="black" points="242.5,-779.5 242.5,-798.5 304.5,-798.5 304.5,-779.5 242.5,-779.5"/>
<text text-anchor="middle" x="273.5" y="-786.5" font-family="Helvetica,sans-Serif" font-size="10.00">add_fluxes</text>
</a>
</g>
</g>
<!-- Node3&#45;&gt;Node4 -->
<g id="edge3" class="edge">
<title>Node3&#45;&gt;Node4</title>
<path fill="none" stroke="midnightblue" d="M165.26,-773.27C183.62,-775.96 210.13,-779.85 232.19,-783.09"/>
<polygon fill="midnightblue" stroke="midnightblue" points="231.89,-786.58 242.3,-784.57 232.91,-779.65 231.89,-786.58"/>
</g>
<!-- Node5 -->
<g id="node5" class="node">
<title>Node5</title>
<g id="a_node5"><a xlink:href="../../d9/dff/calc__fbal_8f90.html#a6cdc3d21c48f66aeaff8ab5e639641b6" target="_top" xlink:title="Compute flux&#45;surface averaged radial force balance .">
<polygon fill="white" stroke="black" points="245.5,-741.5 245.5,-760.5 301.5,-760.5 301.5,-741.5 245.5,-741.5"/>
<text text-anchor="middle" x="273.5" y="-748.5" font-family="Helvetica,sans-Serif" font-size="10.00">calc_fbal</text>
</a>
</g>
</g>
<!-- Node3&#45;&gt;Node5 -->
<g id="edge4" class="edge">
<title>Node3&#45;&gt;Node5</title>
<path fill="none" stroke="midnightblue" d="M165.26,-766.73C184.45,-763.92 212.56,-759.79 235.18,-756.48"/>
<polygon fill="midnightblue" stroke="midnightblue" points="235.75,-759.93 245.14,-755.01 234.73,-753 235.75,-759.93"/>
</g>
<!-- Node6 -->
<g id="node6" class="node">
<title>Node6</title>
<g id="a_node6"><a xlink:href="../../d4/d51/lamcal_8f90.html#aae66bdcec0bbb969704413d933148096" target="_top" xlink:title="Normalization parameters for .">
<polygon fill="white" stroke="black" points="251,-703.5 251,-722.5 296,-722.5 296,-703.5 251,-703.5"/>
<text text-anchor="middle" x="273.5" y="-710.5" font-family="Helvetica,sans-Serif" font-size="10.00">lamcal</text>
</a>
</g>
</g>
<!-- Node3&#45;&gt;Node6 -->
<g id="edge5" class="edge">
<title>Node3&#45;&gt;Node6</title>
<path fill="none" stroke="midnightblue" d="M165.11,-763.39C175.54,-760.05 188.06,-755.71 199,-751 215.62,-743.85 218.93,-740.31 235,-732 237.98,-730.46 241.1,-728.86 244.22,-727.27"/>
<polygon fill="midnightblue" stroke="midnightblue" points="246.06,-730.26 253.39,-722.6 242.89,-724.01 246.06,-730.26"/>
</g>
<!-- Node7 -->
<g id="node7" class="node">
<title>Node7</title>
<g id="a_node7"><a xlink:href="../../d4/da9/precondn_8f90.html#a4c530a7978360300894520e9c5f7663c" target="_top" xlink:title="Compute preconditioning matrix elements for , &#160;force.">
<polygon fill="white" stroke="black" points="245.5,-817.5 245.5,-836.5 301.5,-836.5 301.5,-817.5 245.5,-817.5"/>
<text text-anchor="middle" x="273.5" y="-824.5" font-family="Helvetica,sans-Serif" font-size="10.00">precondn</text>
</a>
</g>
</g>
<!-- Node3&#45;&gt;Node7 -->
<g id="edge6" class="edge">
<title>Node3&#45;&gt;Node7</title>
<path fill="none" stroke="midnightblue" d="M165.11,-776.61C175.54,-779.95 188.06,-784.29 199,-789 215.62,-796.15 218.93,-799.69 235,-808 237.98,-809.54 241.1,-811.14 244.22,-812.73"/>
<polygon fill="midnightblue" stroke="midnightblue" points="242.89,-815.99 253.39,-817.4 246.06,-809.74 242.89,-815.99"/>
</g>
<!-- Node13 -->
<g id="node13" class="node">
<title>Node13</title>
<g id="a_node13"><a xlink:href="../../db/d5a/residue_8f90.html#a29cc4a06a22a55dc9b1bf7252ebcc9ed" target="_top" xlink:title="Compute internal gr , gz required for &#160;constraint.">
<polygon fill="white" stroke="black" points="236,-475.5 236,-494.5 311,-494.5 311,-475.5 236,-475.5"/>
<text text-anchor="middle" x="273.5" y="-482.5" font-family="Helvetica,sans-Serif" font-size="10.00">constrain_m1</text>
</a>
</g>
</g>
<!-- Node12&#45;&gt;Node13 -->
<g id="edge12" class="edge">
<title>Node12&#45;&gt;Node13</title>
<path fill="none" stroke="midnightblue" d="M166.26,-575.85C177.06,-573.04 189.56,-568.43 199,-561 222.54,-542.46 212.84,-524.16 235,-504 236.5,-502.64 238.11,-501.35 239.8,-500.13"/>
<polygon fill="midnightblue" stroke="midnightblue" points="241.99,-502.89 248.65,-494.64 238.3,-496.94 241.99,-502.89"/>
</g>
<!-- Node14 -->
<g id="node14" class="node">
<title>Node14</title>
<g id="a_node14"><a xlink:href="../../d3/d3a/getfsq_8f90.html#a7b636db95ff23aaea849bd65fba7aa2e" target="_top" xlink:title="Compute total force residual on flux surfaces.">
<polygon fill="white" stroke="black" points="251.5,-589.5 251.5,-608.5 295.5,-608.5 295.5,-589.5 251.5,-589.5"/>
<text text-anchor="middle" x="273.5" y="-596.5" font-family="Helvetica,sans-Serif" font-size="10.00">getfsq</text>
</a>
</g>
</g>
<!-- Node12&#45;&gt;Node14 -->
<g id="edge13" class="edge">
<title>Node12&#45;&gt;Node14</title>
<path fill="none" stroke="midnightblue" d="M166.15,-583.4C187.1,-586.47 218.11,-591.02 241.25,-594.42"/>
<polygon fill="midnightblue" stroke="midnightblue" points="240.86,-597.9 251.27,-595.88 241.88,-590.97 240.86,-597.9"/>
</g>
<!-- Node15 -->
<g id="node15" class="node">
<title>Node15</title>
<g id="a_node15"><a xlink:href="../../db/d5a/residue_8f90.html#aaf8d684a58b8bf9dfdecfdb925960780" target="_top" xlink:title="Compute internal gr , gz required for &#160;constraint.">
<polygon fill="white" stroke="black" points="244,-551.5 244,-570.5 303,-570.5 303,-551.5 244,-551.5"/>
<text text-anchor="middle" x="273.5" y="-558.5" font-family="Helvetica,sans-Serif" font-size="10.00">scale_m1</text>
</a>
</g>
</g>
<!-- Node12&#45;&gt;Node15 -->
<g id="edge14" class="edge">
<title>Node12&#45;&gt;Node15</title>
<path fill="none" stroke="midnightblue" d="M166.15,-576.6C184.87,-573.86 211.62,-569.93 233.62,-566.7"/>
<polygon fill="midnightblue" stroke="midnightblue" points="234.27,-570.15 243.66,-565.23 233.25,-563.22 234.27,-570.15"/>
</g>
<!-- Node16 -->
<g id="node16" class="node">
<title>Node16</title>
<g id="a_node16"><a xlink:href="../../d8/d86/scalfor_8f90.html#a20fb7039b82d05e64d01a2e50431ba5e" target="_top" xlink:title="Build forces from different contributions.">
<polygon fill="white" stroke="black" points="250.5,-513.5 250.5,-532.5 296.5,-532.5 296.5,-513.5 250.5,-513.5"/>
<text text-anchor="middle" x="273.5" y="-520.5" font-family="Helvetica,sans-Serif" font-size="10.00">scalfor</text>
</a>
</g>
</g>
<!-- Node12&#45;&gt;Node16 -->
<g id="edge15" class="edge">
<title>Node12&#45;&gt;Node16</title>
<path fill="none" stroke="midnightblue" d="M166.2,-573.04C176.4,-569.75 188.44,-565.55 199,-561 215.62,-553.85 218.93,-550.31 235,-542 237.98,-540.46 241.1,-538.86 244.22,-537.27"/>
<polygon fill="midnightblue" stroke="midnightblue" points="246.06,-540.26 253.39,-532.6 242.89,-534.01 246.06,-540.26"/>
</g>
<!-- Node17 -->
<g id="node17" class="node">
<title>Node17</title>
<g id="a_node17"><a xlink:href="../../db/d40/tridslv_8f90.html#abf5399c0154abe7424c54d7fa9eb69db" target="_top" xlink:title="Solve a tridiagonal system of equations.">
<polygon fill="white" stroke="black" points="348.5,-513.5 348.5,-532.5 391.5,-532.5 391.5,-513.5 348.5,-513.5"/>
<text text-anchor="middle" x="370" y="-520.5" font-family="Helvetica,sans-Serif" font-size="10.00">tridslv</text>
</a>
</g>
</g>
<!-- Node16&#45;&gt;Node17 -->
<g id="edge16" class="edge">
<title>Node16&#45;&gt;Node17</title>
<path fill="none" stroke="midnightblue" d="M296.9,-523C309.21,-523 324.68,-523 338.13,-523"/>
<polygon fill="midnightblue" stroke="midnightblue" points="338.38,-526.5 348.38,-523 338.38,-519.5 338.38,-526.5"/>
</g>
<!-- Node18&#45;&gt;Node13 -->
<g id="edge18" class="edge">
<title>Node18&#45;&gt;Node13</title>
<path fill="none" stroke="midnightblue" d="M174.14,-532.41C182.33,-529.63 191.08,-526.41 199,-523 215.62,-515.85 218.93,-512.31 235,-504 237.98,-502.46 241.1,-500.86 244.22,-499.27"/>
<polygon fill="midnightblue" stroke="midnightblue" points="246.06,-502.26 253.39,-494.6 242.89,-496.01 246.06,-502.26"/>
</g>
<!-- Node18&#45;&gt;Node14 -->
<g id="edge19" class="edge">
<title>Node18&#45;&gt;Node14</title>
<path fill="none" stroke="midnightblue" d="M174.14,-551.59C182.33,-554.37 191.08,-557.59 199,-561 215.62,-568.15 218.93,-571.69 235,-580 237.98,-581.54 241.1,-583.14 244.22,-584.73"/>
<polygon fill="midnightblue" stroke="midnightblue" points="242.89,-587.99 253.39,-589.4 246.06,-581.74 242.89,-587.99"/>
</g>
<!-- Node18&#45;&gt;Node15 -->
<g id="edge20" class="edge">
<title>Node18&#45;&gt;Node15</title>
<path fill="none" stroke="midnightblue" d="M176.69,-546.94C194.18,-549.51 215.65,-552.66 233.82,-555.33"/>
<polygon fill="midnightblue" stroke="midnightblue" points="233.41,-558.8 243.81,-556.79 234.42,-551.88 233.41,-558.8"/>
</g>
<!-- Node18&#45;&gt;Node16 -->
<g id="edge21" class="edge">
<title>Node18&#45;&gt;Node16</title>
<path fill="none" stroke="midnightblue" d="M176.69,-537.06C196.29,-534.18 220.87,-530.58 240.22,-527.74"/>
<polygon fill="midnightblue" stroke="midnightblue" points="240.99,-531.16 250.37,-526.25 239.97,-524.23 240.99,-531.16"/>
</g>
<!-- Node19&#45;&gt;Node13 -->
<g id="edge23" class="edge">
<title>Node19&#45;&gt;Node13</title>
<path fill="none" stroke="midnightblue" d="M178.04,-498.86C192.67,-496.71 209.87,-494.19 225.57,-491.89"/>
<polygon fill="midnightblue" stroke="midnightblue" points="226.23,-495.33 235.62,-490.41 225.21,-488.4 226.23,-495.33"/>
</g>
<!-- Node19&#45;&gt;Node14 -->
<g id="edge24" class="edge">
<title>Node19&#45;&gt;Node14</title>
<path fill="none" stroke="midnightblue" d="M178.03,-511.81C185.45,-514.54 192.87,-518.17 199,-523 222.54,-541.54 212.84,-559.84 235,-580 237.3,-582.09 239.88,-584.02 242.57,-585.77"/>
<polygon fill="midnightblue" stroke="midnightblue" points="240.96,-588.88 251.38,-590.78 244.42,-582.79 240.96,-588.88"/>
</g>
<!-- Node19&#45;&gt;Node15 -->
<g id="edge25" class="edge">
<title>Node19&#45;&gt;Node15</title>
<path fill="none" stroke="midnightblue" d="M174.14,-513.59C182.33,-516.37 191.08,-519.59 199,-523 215.62,-530.15 218.93,-533.69 235,-542 237.98,-543.54 241.1,-545.14 244.22,-546.73"/>
<polygon fill="midnightblue" stroke="midnightblue" points="242.89,-549.99 253.39,-551.4 246.06,-543.74 242.89,-549.99"/>
</g>
<!-- Node19&#45;&gt;Node16 -->
<g id="edge26" class="edge">
<title>Node19&#45;&gt;Node16</title>
<path fill="none" stroke="midnightblue" d="M178.04,-509.14C197.51,-512 221.55,-515.52 240.51,-518.31"/>
<polygon fill="midnightblue" stroke="midnightblue" points="240.05,-521.78 250.45,-519.77 241.07,-514.85 240.05,-521.78"/>
</g>
<!-- Node28 -->
<g id="node28" class="node">
<title>Node28</title>
<g id="a_node28"><a xlink:href="../../dc/d49/totzsp_8f90.html#aff13f873fb632d486fdffc6ee97857c6" target="_top" xlink:title="Convert from internal representation to &quot;physical&quot; rmnsc, zmncc Fourier form.">
<polygon fill="white" stroke="black" points="235,-228.5 235,-247.5 312,-247.5 312,-228.5 235,-228.5"/>
<text text-anchor="middle" x="273.5" y="-235.5" font-family="Helvetica,sans-Serif" font-size="10.00">convert_asym</text>
</a>
</g>
</g>
<!-- Node27&#45;&gt;Node28 -->
<g id="edge35" class="edge">
<title>Node27&#45;&gt;Node28</title>
<path fill="none" stroke="midnightblue" d="M166.15,-206.79C183.86,-211.99 208.77,-219.3 230.04,-225.54"/>
<polygon fill="midnightblue" stroke="midnightblue" points="229.24,-228.95 239.82,-228.41 231.21,-222.24 229.24,-228.95"/>
</g>
<!-- Node30 -->
<g id="node30" class="node">
<title>Node30</title>
<g id="a_node30"><a xlink:href="../../dc/d49/totzsp_8f90.html#a3264ce8fefaa7ede632c4147049aadc5" target="_top" xlink:title="Convert from internal representation to &quot;physical&quot; rmnss, zmncs Fourier form.">
<polygon fill="white" stroke="black" points="237.5,-190.5 237.5,-209.5 309.5,-209.5 309.5,-190.5 237.5,-190.5"/>
<text text-anchor="middle" x="273.5" y="-197.5" font-family="Helvetica,sans-Serif" font-size="10.00">convert_sym</text>
</a>
</g>
</g>
<!-- Node29&#45;&gt;Node30 -->
<g id="edge37" class="edge">
<title>Node29&#45;&gt;Node30</title>
<path fill="none" stroke="midnightblue" d="M166.15,-168.79C183.86,-173.99 208.77,-181.3 230.04,-187.54"/>
<polygon fill="midnightblue" stroke="midnightblue" points="229.24,-190.95 239.82,-190.41 231.21,-184.24 229.24,-190.95"/>
</g>
<!-- Node32 -->
<g id="node32" class="node">
<title>Node32</title>
<g id="a_node32"><a xlink:href="../../db/d3d/bextern_8f90.html#a90228cc5f358147ae7f59953d6f9cced" target="_top" xlink:title="Compute the total magnetic field due to external coils and the net toroidal plasma current.">
<polygon fill="white" stroke="black" points="249.5,-152.5 249.5,-171.5 297.5,-171.5 297.5,-152.5 249.5,-152.5"/>
<text text-anchor="middle" x="273.5" y="-159.5" font-family="Helvetica,sans-Serif" font-size="10.00">bextern</text>
</a>
</g>
</g>
<!-- Node31&#45;&gt;Node32 -->
<g id="edge39" class="edge">
<title>Node31&#45;&gt;Node32</title>
<path fill="none" stroke="midnightblue" d="M167.66,-131.24C188.03,-137.21 217.11,-145.75 239.48,-152.31"/>
<polygon fill="midnightblue" stroke="midnightblue" points="238.65,-155.72 249.24,-155.17 240.63,-149 238.65,-155.72"/>
</g>
<!-- Node35 -->
<g id="node35" class="node">
<title>Node35</title>
<g id="a_node35"><a xlink:href="../../dd/d98/precal_8f90.html#a0dae73e848a4757092d7e9786d073d3d" target="_top" xlink:title="Pre&#45;compute constant terms required for NESTOR.">
<polygon fill="white" stroke="black" points="252,-114.5 252,-133.5 295,-133.5 295,-114.5 252,-114.5"/>
<text text-anchor="middle" x="273.5" y="-121.5" font-family="Helvetica,sans-Serif" font-size="10.00">precal</text>
</a>
</g>
</g>
<!-- Node31&#45;&gt;Node35 -->
<g id="edge42" class="edge">
<title>Node31&#45;&gt;Node35</title>
<path fill="none" stroke="midnightblue" d="M167.66,-124C188.7,-124 219.03,-124 241.67,-124"/>
<polygon fill="midnightblue" stroke="midnightblue" points="241.77,-127.5 251.77,-124 241.77,-120.5 241.77,-127.5"/>
</g>
<!-- Node36 -->
<g id="node36" class="node">
<title>Node36</title>
<g id="a_node36"><a xlink:href="../../d0/d19/scalpot_8f90.html#afb9e58849c5a27e486bdf4106f8bb84e" target="_top" xlink:title="Compute all required terms for solving for the scalar magnetic potential.">
<polygon fill="white" stroke="black" points="249.5,-76.5 249.5,-95.5 297.5,-95.5 297.5,-76.5 249.5,-76.5"/>
<text text-anchor="middle" x="273.5" y="-83.5" font-family="Helvetica,sans-Serif" font-size="10.00">scalpot</text>
</a>
</g>
</g>
<!-- Node31&#45;&gt;Node36 -->
<g id="edge43" class="edge">
<title>Node31&#45;&gt;Node36</title>
<path fill="none" stroke="midnightblue" d="M167.66,-116.76C188.03,-110.79 217.11,-102.25 239.48,-95.69"/>
<polygon fill="midnightblue" stroke="midnightblue" points="240.63,-99 249.24,-92.83 238.65,-92.28 240.63,-99"/>
</g>
<!-- Node43 -->
<g id="node43" class="node">
<title>Node43</title>
<g id="a_node43"><a xlink:href="../../d7/d39/solver_8f90.html#a1e815013ed24a9dddc80410103f4a220" target="_top" xlink:title="Solve a linear system of equations using dgesv.">
<polygon fill="white" stroke="black" points="252,-38.5 252,-57.5 295,-57.5 295,-38.5 252,-38.5"/>
<text text-anchor="middle" x="273.5" y="-45.5" font-family="Helvetica,sans-Serif" font-size="10.00">solver</text>
</a>
</g>
</g>
<!-- Node31&#45;&gt;Node43 -->
<g id="edge50" class="edge">
<title>Node31&#45;&gt;Node43</title>
<path fill="none" stroke="midnightblue" d="M167.59,-118.45C177.81,-115.46 189.49,-111.09 199,-105 218.59,-92.45 216.35,-80.91 235,-67 237.49,-65.14 240.2,-63.37 242.97,-61.72"/>
<polygon fill="midnightblue" stroke="midnightblue" points="244.8,-64.71 251.9,-56.85 241.44,-58.57 244.8,-64.71"/>
</g>
<!-- Node44 -->
<g id="node44" class="node">
<title>Node44</title>
<g id="a_node44"><a xlink:href="../../d6/d03/surface_8f90.html#ad7b6446e720a806f41f10dd1eb0b6f88" target="_top" xlink:title="Evaluate the geometry of the LCFS and tangential derivatives.">
<polygon fill="white" stroke="black" points="249,-0.5 249,-19.5 298,-19.5 298,-0.5 249,-0.5"/>
<text text-anchor="middle" x="273.5" y="-7.5" font-family="Helvetica,sans-Serif" font-size="10.00">surface</text>
</a>
</g>
</g>
<!-- Node31&#45;&gt;Node44 -->
<g id="edge51" class="edge">
<title>Node31&#45;&gt;Node44</title>
<path fill="none" stroke="midnightblue" d="M167.51,-120.13C178.2,-117.4 190.26,-112.79 199,-105 226.91,-80.14 208.93,-55.78 235,-29 236.57,-27.39 238.31,-25.88 240.15,-24.49"/>
<polygon fill="midnightblue" stroke="midnightblue" points="242.12,-27.39 248.69,-19.08 238.37,-21.48 242.12,-27.39"/>
</g>
<!-- Node33 -->
<g id="node33" class="node">
<title>Node33</title>
<g id="a_node33"><a xlink:href="../../d6/dc7/becoil_8f90.html#a449b054fb88bdb4cdf73ef8939654bfb" target="_top" xlink:title="Compute the cylindrical components of the magnetic field due to external coils. by bi&#45;linear interpol...">
<polygon fill="white" stroke="black" points="349,-152.5 349,-171.5 391,-171.5 391,-152.5 349,-152.5"/>
<text text-anchor="middle" x="370" y="-159.5" font-family="Helvetica,sans-Serif" font-size="10.00">becoil</text>
</a>
</g>
</g>
<!-- Node32&#45;&gt;Node33 -->
<g id="edge40" class="edge">
<title>Node32&#45;&gt;Node33</title>
<path fill="none" stroke="midnightblue" d="M297.86,-162C310.19,-162 325.48,-162 338.71,-162"/>
<polygon fill="midnightblue" stroke="midnightblue" points="338.79,-165.5 348.79,-162 338.79,-158.5 338.79,-165.5"/>
</g>
<!-- Node34 -->
<g id="node34" class="node">
<title>Node34</title>
<g id="a_node34"><a xlink:href="../../d9/dda/belicu_8f90.html#a53e6f162ca96069b8d93e131069ddf5d" target="_top" xlink:title="Magnetic field due to net toroidal current modeled by a filament along the magnetic axis.">
<polygon fill="white" stroke="black" points="349,-190.5 349,-209.5 391,-209.5 391,-190.5 349,-190.5"/>
<text text-anchor="middle" x="370" y="-197.5" font-family="Helvetica,sans-Serif" font-size="10.00">belicu</text>
</a>
</g>
</g>
<!-- Node32&#45;&gt;Node34 -->
<g id="edge41" class="edge">
<title>Node32&#45;&gt;Node34</title>
<path fill="none" stroke="midnightblue" d="M297.86,-171.39C310.44,-176.45 326.08,-182.74 339.49,-188.14"/>
<polygon fill="midnightblue" stroke="midnightblue" points="338.21,-191.39 348.79,-191.87 340.82,-184.9 338.21,-191.39"/>
</g>
<!-- Node37 -->
<g id="node37" class="node">
<title>Node37</title>
<g id="a_node37"><a xlink:href="../../da/d73/analyt_8f90.html#a60edcf4884aa60f6d96c258a97255756" target="_top" xlink:title="Compute the analytical&#45;and&#45;numerical 4D Fourier integrals over the equivalently&#45;singular functions.">
<polygon fill="white" stroke="black" points="349,-76.5 349,-95.5 391,-95.5 391,-76.5 349,-76.5"/>
<text text-anchor="middle" x="370" y="-83.5" font-family="Helvetica,sans-Serif" font-size="10.00">analyt</text>
</a>
</g>
</g>
<!-- Node36&#45;&gt;Node37 -->
<g id="edge44" class="edge">
<title>Node36&#45;&gt;Node37</title>
<path fill="none" stroke="midnightblue" d="M297.86,-86C310.19,-86 325.48,-86 338.71,-86"/>
<polygon fill="midnightblue" stroke="midnightblue" points="338.79,-89.5 348.79,-86 338.79,-82.5 338.79,-89.5"/>
</g>
<!-- Node40 -->
<g id="node40" class="node">
<title>Node40</title>
<g id="a_node40"><a xlink:href="../../d6/d77/fouri_8f90.html#a0f902f8d584a395f9db7175079d273c7" target="_top" xlink:title="Compute Fourier integrals and build amatrix.">
<polygon fill="white" stroke="black" points="352.5,-38.5 352.5,-57.5 387.5,-57.5 387.5,-38.5 352.5,-38.5"/>
<text text-anchor="middle" x="370" y="-45.5" font-family="Helvetica,sans-Serif" font-size="10.00">fouri</text>
</a>
</g>
</g>
<!-- Node36&#45;&gt;Node40 -->
<g id="edge47" class="edge">
<title>Node36&#45;&gt;Node40</title>
<path fill="none" stroke="midnightblue" d="M297.86,-76.61C311.49,-71.12 328.73,-64.19 342.82,-58.53"/>
<polygon fill="midnightblue" stroke="midnightblue" points="344.46,-61.64 352.43,-54.66 341.85,-55.15 344.46,-61.64"/>
</g>
<!-- Node41 -->
<g id="node41" class="node">
<title>Node41</title>
<g id="a_node41"><a xlink:href="../../d0/d1c/fourp_8f90.html#add725dd420251115fd60182dc992503c" target="_top" xlink:title="Perform Fourier integrals of Green&#39;s function kernel.">
<polygon fill="white" stroke="black" points="351,-0.5 351,-19.5 389,-19.5 389,-0.5 351,-0.5"/>
<text text-anchor="middle" x="370" y="-7.5" font-family="Helvetica,sans-Serif" font-size="10.00">fourp</text>
</a>
</g>
</g>
<!-- Node36&#45;&gt;Node41 -->
<g id="edge48" class="edge">
<title>Node36&#45;&gt;Node41</title>
<path fill="none" stroke="midnightblue" d="M296.67,-76.36C301.9,-73.65 307.32,-70.49 312,-67 330.65,-53.09 331.36,-45.26 348,-29 348.91,-28.11 349.85,-27.21 350.81,-26.3"/>
<polygon fill="midnightblue" stroke="midnightblue" points="353.19,-28.86 358.17,-19.51 348.45,-23.72 353.19,-28.86"/>
</g>
<!-- Node42 -->
<g id="node42" class="node">
<title>Node42</title>
<g id="a_node42"><a xlink:href="../../df/d2d/greenf_8f90.html#acd9d25905cc799c9fcd4d08a3cbb1e65" target="_top" xlink:title="Compute the regularized evaluation of the Green&#39;s function and the source term.">
<polygon fill="white" stroke="black" points="348,-114.5 348,-133.5 392,-133.5 392,-114.5 348,-114.5"/>
<text text-anchor="middle" x="370" y="-121.5" font-family="Helvetica,sans-Serif" font-size="10.00">greenf</text>
</a>
</g>
</g>
<!-- Node36&#45;&gt;Node42 -->
<g id="edge49" class="edge">
<title>Node36&#45;&gt;Node42</title>
<path fill="none" stroke="midnightblue" d="M297.86,-95.39C310.05,-100.3 325.13,-106.36 338.26,-111.64"/>
<polygon fill="midnightblue" stroke="midnightblue" points="337.26,-115.01 347.84,-115.49 339.87,-108.51 337.26,-115.01"/>
</g>
<!-- Node38 -->
<g id="node38" class="node">
<title>Node38</title>
<g id="a_node38"><a xlink:href="../../df/df3/analysum_8f90.html#aa51b1a5786e7b5719fe2ca679efc66b0" target="_top" xlink:title="Compute the (m=0 or n=0) part of the DFT of the analytical Fourier transforms of the equivalently&#45;sin...">
<polygon fill="white" stroke="black" points="430.5,-95.5 430.5,-114.5 488.5,-114.5 488.5,-95.5 430.5,-95.5"/>
<text text-anchor="middle" x="459.5" y="-102.5" font-family="Helvetica,sans-Serif" font-size="10.00">analysum</text>
</a>
</g>
</g>
<!-- Node37&#45;&gt;Node38 -->
<g id="edge45" class="edge">
<title>Node37&#45;&gt;Node38</title>
<path fill="none" stroke="midnightblue" d="M391.29,-90.41C400,-92.3 410.47,-94.57 420.53,-96.75"/>
<polygon fill="midnightblue" stroke="midnightblue" points="419.85,-100.19 430.36,-98.89 421.33,-93.35 419.85,-100.19"/>
</g>
<!-- Node39 -->
<g id="node39" class="node">
<title>Node39</title>
<g id="a_node39"><a xlink:href="../../d1/d90/analysum2_8f90.html#a47a0d185131a197c6fc62ee5d68d62fb" target="_top" xlink:title="Compute the (m&gt;0 and n&gt;0) part of the DFT of the analytical Fourier transforms of the equivalently&#45;si...">
<polygon fill="white" stroke="black" points="428,-57.5 428,-76.5 491,-76.5 491,-57.5 428,-57.5"/>
<text text-anchor="middle" x="459.5" y="-64.5" font-family="Helvetica,sans-Serif" font-size="10.00">analysum2</text>
</a>
</g>
</g>
<!-- Node37&#45;&gt;Node39 -->
<g id="edge46" class="edge">
<title>Node37&#45;&gt;Node39</title>
<path fill="none" stroke="midnightblue" d="M391.29,-81.59C399.23,-79.87 408.62,-77.83 417.84,-75.83"/>
<polygon fill="midnightblue" stroke="midnightblue" points="418.65,-79.23 427.68,-73.69 417.17,-72.39 418.65,-79.23"/>
</g>
</g>
</svg>
