<?xml version="1.0" encoding="UTF-8" standalone="no"?>
<!DOCTYPE svg PUBLIC "-//W3C//DTD SVG 1.1//EN"
 "http://www.w3.org/Graphics/SVG/1.1/DTD/svg11.dtd">
<!-- Generated by graphviz version 2.47.1 (20210421.1823)
 -->
<!-- Title: funct3d Pages: 1 -->
<svg width="141pt" height="66pt"
 viewBox="0.00 0.00 141.00 66.00" xmlns="http://www.w3.org/2000/svg" xmlns:xlink="http://www.w3.org/1999/xlink">
<g id="graph0" class="graph" transform="scale(1 1) rotate(0) translate(4 62)">
<title>funct3d</title>
<polygon fill="white" stroke="transparent" points="-4,4 -4,-62 137,-62 137,4 -4,4"/>
<!-- Node1 -->
<g id="node1" class="node">
<title>Node1</title>
<g id="a_node1"><a xlink:title=" ">
<polygon fill="#bfbfbf" stroke="black" points="0,-19.5 0,-38.5 49,-38.5 49,-19.5 0,-19.5"/>
<text text-anchor="middle" x="24.5" y="-26.5" font-family="Helvetica,sans-Serif" font-size="10.00">funct3d</text>
</a>
</g>
</g>
<!-- Node2 -->
<g id="node2" class="node">
<title>Node2</title>
<g id="a_node2"><a xlink:href="../../d7/d61/bcovar_8f90.html#a1e1624195f0c0c7daa9f49d83bae5ce8" target="_top" xlink:title=" ">
<polygon fill="white" stroke="black" points="86,-38.5 86,-57.5 132,-57.5 132,-38.5 86,-38.5"/>
<text text-anchor="middle" x="109" y="-45.5" font-family="Helvetica,sans-Serif" font-size="10.00">bcovar</text>
</a>
</g>
</g>
<!-- Node1&#45;&gt;Node2 -->
<g id="edge1" class="edge">
<title>Node1&#45;&gt;Node2</title>
<path fill="none" stroke="midnightblue" d="M49.36,-34.5C57.64,-36.4 67.06,-38.57 75.89,-40.61"/>
<polygon fill="midnightblue" stroke="midnightblue" points="75.36,-44.07 85.89,-42.91 76.93,-37.25 75.36,-44.07"/>
</g>
<!-- Node3 -->
<g id="node3" class="node">
<title>Node3</title>
<g id="a_node3"><a xlink:href="../../dc/d49/totzsp_8f90.html#ac4756c0f66a5a01d9c08334a98a61b21" target="_top" xlink:title=" ">
<polygon fill="white" stroke="black" points="85,-0.5 85,-19.5 133,-19.5 133,-0.5 85,-0.5"/>
<text text-anchor="middle" x="109" y="-7.5" font-family="Helvetica,sans-Serif" font-size="10.00">totzsps</text>
</a>
</g>
</g>
<!-- Node1&#45;&gt;Node3 -->
<g id="edge2" class="edge">
<title>Node1&#45;&gt;Node3</title>
<path fill="none" stroke="midnightblue" d="M49.36,-23.5C57.37,-21.66 66.44,-19.57 75.01,-17.6"/>
<polygon fill="midnightblue" stroke="midnightblue" points="75.8,-21.01 84.76,-15.35 74.23,-14.19 75.8,-21.01"/>
</g>
</g>
</svg>
