<?xml version="1.0" encoding="UTF-8" standalone="no"?>
<!DOCTYPE svg PUBLIC "-//W3C//DTD SVG 1.1//EN"
 "http://www.w3.org/Graphics/SVG/1.1/DTD/svg11.dtd">
<!-- Generated by graphviz version 7.1.0 (20230121.1956)
 -->
<!-- Title: vacmod::free_mem_nestor Pages: 1 -->
<svg width="611pt" height="83pt"
 viewBox="0.00 0.00 611.00 83.00" xmlns="http://www.w3.org/2000/svg" xmlns:xlink="http://www.w3.org/1999/xlink">
<g id="graph0" class="graph" transform="scale(1 1) rotate(0) translate(4 79)">
<title>vacmod::free_mem_nestor</title>
<!-- Node1 -->
<g id="node1" class="node">
<title>Node1</title>
<g id="a_node1"><a xlink:title=" ">
<polygon fill="#999999" stroke="#666666" points="603,-37 472,-37 472,-18 603,-18 603,-37"/>
<text text-anchor="middle" x="537.5" y="-25" font-family="Helvetica,sans-Serif" font-size="10.00">vacmod::free_mem_nestor</text>
</a>
</g>
</g>
<!-- Node2 -->
<g id="node2" class="node">
<title>Node2</title>
<g id="a_node2"><a xlink:href="../../de/dd6/free__mem__nunv_8f90.html#af9db130c860b00078874db28a8805226" target="_top" xlink:title="Free arrays depending on the number of Fourier coefficients nunv.">
<polygon fill="white" stroke="#666666" points="436,-56 350,-56 350,-37 436,-37 436,-56"/>
<text text-anchor="middle" x="393" y="-44" font-family="Helvetica,sans-Serif" font-size="10.00">free_mem_nunv</text>
</a>
</g>
</g>
<!-- Node1&#45;&gt;Node2 -->
<g id="edge1" class="edge">
<title>Node1&#45;&gt;Node2</title>
<path fill="none" stroke="#63b8ff" d="M460.33,-37.66C452.14,-38.75 444.04,-39.83 436.47,-40.84"/>
<polygon fill="#63b8ff" stroke="#63b8ff" points="460.56,-41.16 470,-36.37 459.63,-34.22 460.56,-41.16"/>
</g>
<!-- Node7 -->
<g id="node7" class="node">
<title>Node7</title>
<g id="a_node7"><a xlink:href="../../d4/d69/nestor__main_8f90.html#a1b0fd336e80285a96925333daa2ee8f0" target="_top" xlink:title="Main program of stand&#45;alone version of NESTOR.">
<polygon fill="white" stroke="#666666" points="415,-19 371,-19 371,0 415,0 415,-19"/>
<text text-anchor="middle" x="393" y="-7" font-family="Helvetica,sans-Serif" font-size="10.00">nestor</text>
</a>
</g>
</g>
<!-- Node1&#45;&gt;Node7 -->
<g id="edge7" class="edge">
<title>Node1&#45;&gt;Node7</title>
<path fill="none" stroke="#63b8ff" d="M460.56,-17.91C443.91,-15.8 427.61,-13.75 415.31,-12.19"/>
<polygon fill="#63b8ff" stroke="#63b8ff" points="459.64,-21.32 470,-19.1 460.52,-14.37 459.64,-21.32"/>
</g>
<!-- Node3 -->
<g id="node3" class="node">
<title>Node3</title>
<g id="a_node3"><a xlink:href="../../d7/d8c/allocate__nunv_8f90.html#a1fb4098498daa9bd7a8487120397c1a7" target="_top" xlink:title="allocate arrays depending on the number of Fourier coefficients nunv">
<polygon fill="white" stroke="#666666" points="314,-75 237,-75 237,-56 314,-56 314,-75"/>
<text text-anchor="middle" x="275.5" y="-63" font-family="Helvetica,sans-Serif" font-size="10.00">allocate_nunv</text>
</a>
</g>
</g>
<!-- Node2&#45;&gt;Node3 -->
<g id="edge2" class="edge">
<title>Node2&#45;&gt;Node3</title>
<path fill="none" stroke="#63b8ff" d="M338.3,-55.33C330.18,-56.67 321.95,-58.02 314.26,-59.29"/>
<polygon fill="#63b8ff" stroke="#63b8ff" points="338.86,-58.79 348.15,-53.71 337.72,-51.88 338.86,-58.79"/>
</g>
<!-- Node5 -->
<g id="node5" class="node">
<title>Node5</title>
<g id="a_node5"><a xlink:href="../../db/d61/vmec_8f90.html#a6d38ab7be2f9d818da4541e1d352ea23" target="_top" xlink:title="Main driver for VMEC.">
<polygon fill="white" stroke="#666666" points="122,-56 81,-56 81,-37 122,-37 122,-56"/>
<text text-anchor="middle" x="101.5" y="-44" font-family="Helvetica,sans-Serif" font-size="10.00">vmec</text>
</a>
</g>
</g>
<!-- Node2&#45;&gt;Node5 -->
<g id="edge6" class="edge">
<title>Node2&#45;&gt;Node5</title>
<path fill="none" stroke="#63b8ff" d="M338.32,-46.5C273.1,-46.5 166.34,-46.5 122.38,-46.5"/>
<polygon fill="#63b8ff" stroke="#63b8ff" points="338.08,-50 348.08,-46.5 338.08,-43 338.08,-50"/>
</g>
<!-- Node4 -->
<g id="node4" class="node">
<title>Node4</title>
<g id="a_node4"><a xlink:href="../../d8/da3/readin_8f90.html#a60f2bfd8fc6f7c3e027a8f91ef0c7b25" target="_top" xlink:title="Read the input file.">
<polygon fill="white" stroke="#666666" points="201,-75 158,-75 158,-56 201,-56 201,-75"/>
<text text-anchor="middle" x="179.5" y="-63" font-family="Helvetica,sans-Serif" font-size="10.00">readin</text>
</a>
</g>
</g>
<!-- Node3&#45;&gt;Node4 -->
<g id="edge3" class="edge">
<title>Node3&#45;&gt;Node4</title>
<path fill="none" stroke="#63b8ff" d="M225.12,-65.5C216.73,-65.5 208.43,-65.5 201.31,-65.5"/>
<polygon fill="#63b8ff" stroke="#63b8ff" points="225.02,-69 235.02,-65.5 225.02,-62 225.02,-69"/>
</g>
<!-- Node4&#45;&gt;Node5 -->
<g id="edge4" class="edge">
<title>Node4&#45;&gt;Node5</title>
<path fill="none" stroke="#63b8ff" d="M146.59,-57.52C138.41,-55.48 129.84,-53.33 122.46,-51.49"/>
<polygon fill="#63b8ff" stroke="#63b8ff" points="145.71,-60.91 156.26,-59.94 147.41,-54.12 145.71,-60.91"/>
</g>
<!-- Node6 -->
<g id="node6" class="node">
<title>Node6</title>
<g id="a_node6"><a xlink:href="../../db/d61/vmec_8f90.html#ace5bdf043bb85c8f0a9fc582bdb55725" target="_top" xlink:title="Main program of VMEC.">
<polygon fill="white" stroke="#666666" points="45,-56 0,-56 0,-37 45,-37 45,-56"/>
<text text-anchor="middle" x="22.5" y="-44" font-family="Helvetica,sans-Serif" font-size="10.00">xvmec</text>
</a>
</g>
</g>
<!-- Node5&#45;&gt;Node6 -->
<g id="edge5" class="edge">
<title>Node5&#45;&gt;Node6</title>
<path fill="none" stroke="#63b8ff" d="M69.39,-46.5C61.36,-46.5 52.89,-46.5 45.43,-46.5"/>
<polygon fill="#63b8ff" stroke="#63b8ff" points="69.16,-50 79.16,-46.5 69.16,-43 69.16,-50"/>
</g>
</g>
</svg>
