<?xml version="1.0" encoding="UTF-8" standalone="no"?>
<!DOCTYPE svg PUBLIC "-//W3C//DTD SVG 1.1//EN"
 "http://www.w3.org/Graphics/SVG/1.1/DTD/svg11.dtd">
<!-- Generated by graphviz version 2.47.1 (20210421.1823)
 -->
<!-- Title: vacmod::free_mem_nestor Pages: 1 -->
<svg width="530pt" height="85pt"
 viewBox="0.00 0.00 530.00 85.00" xmlns="http://www.w3.org/2000/svg" xmlns:xlink="http://www.w3.org/1999/xlink">
<g id="graph0" class="graph" transform="scale(1 1) rotate(0) translate(4 81)">
<title>vacmod::free_mem_nestor</title>
<polygon fill="white" stroke="transparent" points="-4,4 -4,-81 526,-81 526,4 -4,4"/>
<!-- Node1 -->
<g id="node1" class="node">
<title>Node1</title>
<g id="a_node1"><a xlink:title=" ">
<polygon fill="#bfbfbf" stroke="black" points="391,-19.5 391,-38.5 522,-38.5 522,-19.5 391,-19.5"/>
<text text-anchor="middle" x="456.5" y="-26.5" font-family="Helvetica,sans-Serif" font-size="10.00">vacmod::free_mem_nestor</text>
</a>
</g>
</g>
<!-- Node2 -->
<g id="node2" class="node">
<title>Node2</title>
<g id="a_node2"><a xlink:href="../../de/dd6/free__mem__nunv_8f90.html#af9db130c860b00078874db28a8805226" target="_top" xlink:title="Free arrays depending on the number of Fourier coefficients nunv.">
<polygon fill="white" stroke="black" points="269,-38.5 269,-57.5 355,-57.5 355,-38.5 269,-38.5"/>
<text text-anchor="middle" x="312" y="-45.5" font-family="Helvetica,sans-Serif" font-size="10.00">free_mem_nunv</text>
</a>
</g>
</g>
<!-- Node1&#45;&gt;Node2 -->
<g id="edge1" class="edge">
<title>Node1&#45;&gt;Node2</title>
<path fill="none" stroke="midnightblue" d="M380.98,-38.94C372.18,-40.11 363.45,-41.27 355.32,-42.36"/>
<polygon fill="midnightblue" stroke="midnightblue" points="381.47,-42.4 390.92,-37.61 380.55,-35.46 381.47,-42.4"/>
</g>
<!-- Node6 -->
<g id="node6" class="node">
<title>Node6</title>
<g id="a_node6"><a xlink:href="../../d4/d69/nestor__main_8f90.html#a1b0fd336e80285a96925333daa2ee8f0" target="_top" xlink:title="Main program of stand&#45;alone version of NESTOR.">
<polygon fill="white" stroke="black" points="290,-0.5 290,-19.5 334,-19.5 334,-0.5 290,-0.5"/>
<text text-anchor="middle" x="312" y="-7.5" font-family="Helvetica,sans-Serif" font-size="10.00">nestor</text>
</a>
</g>
</g>
<!-- Node1&#45;&gt;Node6 -->
<g id="edge6" class="edge">
<title>Node1&#45;&gt;Node6</title>
<path fill="none" stroke="midnightblue" d="M380.82,-19.04C363.65,-16.75 346.76,-14.5 334.12,-12.82"/>
<polygon fill="midnightblue" stroke="midnightblue" points="380.55,-22.54 390.92,-20.39 381.47,-15.6 380.55,-22.54"/>
</g>
<!-- Node3 -->
<g id="node3" class="node">
<title>Node3</title>
<g id="a_node3"><a xlink:href="../../d7/d8c/allocate__nunv_8f90.html#a1fb4098498daa9bd7a8487120397c1a7" target="_top" xlink:title="allocate arrays depending on the number of Fourier coefficients nunv">
<polygon fill="white" stroke="black" points="156,-57.5 156,-76.5 233,-76.5 233,-57.5 156,-57.5"/>
<text text-anchor="middle" x="194.5" y="-64.5" font-family="Helvetica,sans-Serif" font-size="10.00">allocate_nunv</text>
</a>
</g>
</g>
<!-- Node2&#45;&gt;Node3 -->
<g id="edge2" class="edge">
<title>Node2&#45;&gt;Node3</title>
<path fill="none" stroke="midnightblue" d="M258.9,-56.57C250.2,-58 241.33,-59.46 233.09,-60.82"/>
<polygon fill="midnightblue" stroke="midnightblue" points="259.68,-59.99 268.98,-54.91 258.54,-53.08 259.68,-59.99"/>
</g>
<!-- Node5 -->
<g id="node5" class="node">
<title>Node5</title>
<g id="a_node5"><a xlink:href="../../db/d61/vmec_8f90.html#a6d38ab7be2f9d818da4541e1d352ea23" target="_top" xlink:title="Main driver for VMEC.">
<polygon fill="white" stroke="black" points="0,-38.5 0,-57.5 41,-57.5 41,-38.5 0,-38.5"/>
<text text-anchor="middle" x="20.5" y="-45.5" font-family="Helvetica,sans-Serif" font-size="10.00">vmec</text>
</a>
</g>
</g>
<!-- Node2&#45;&gt;Node5 -->
<g id="edge5" class="edge">
<title>Node2&#45;&gt;Node5</title>
<path fill="none" stroke="midnightblue" d="M258.82,-48C193.61,-48 85.2,-48 41.08,-48"/>
<polygon fill="midnightblue" stroke="midnightblue" points="258.9,-51.5 268.9,-48 258.9,-44.5 258.9,-51.5"/>
</g>
<!-- Node4 -->
<g id="node4" class="node">
<title>Node4</title>
<g id="a_node4"><a xlink:href="../../d8/da3/readin_8f90.html#a60f2bfd8fc6f7c3e027a8f91ef0c7b25" target="_top" xlink:title="Read the input file.">
<polygon fill="white" stroke="black" points="77,-57.5 77,-76.5 120,-76.5 120,-57.5 77,-57.5"/>
<text text-anchor="middle" x="98.5" y="-64.5" font-family="Helvetica,sans-Serif" font-size="10.00">readin</text>
</a>
</g>
</g>
<!-- Node3&#45;&gt;Node4 -->
<g id="edge3" class="edge">
<title>Node3&#45;&gt;Node4</title>
<path fill="none" stroke="midnightblue" d="M145.71,-67C136.72,-67 127.77,-67 120.17,-67"/>
<polygon fill="midnightblue" stroke="midnightblue" points="145.81,-70.5 155.81,-67 145.81,-63.5 145.81,-70.5"/>
</g>
<!-- Node4&#45;&gt;Node5 -->
<g id="edge4" class="edge">
<title>Node4&#45;&gt;Node5</title>
<path fill="none" stroke="midnightblue" d="M66.91,-59.35C58.24,-57.19 49.04,-54.88 41.2,-52.92"/>
<polygon fill="midnightblue" stroke="midnightblue" points="66.18,-62.78 76.73,-61.81 67.88,-55.99 66.18,-62.78"/>
</g>
</g>
</svg>
