<?xml version="1.0" encoding="UTF-8" standalone="no"?>
<!DOCTYPE svg PUBLIC "-//W3C//DTD SVG 1.1//EN"
 "http://www.w3.org/Graphics/SVG/1.1/DTD/svg11.dtd">
<!-- Generated by graphviz version 2.49.3 (20211215.1918)
 -->
<!-- Title: vacmod::free_mem_nestor Pages: 1 -->
<svg width="611pt" height="85pt"
 viewBox="0.00 0.00 611.00 85.00" xmlns="http://www.w3.org/2000/svg" xmlns:xlink="http://www.w3.org/1999/xlink">
<g id="graph0" class="graph" transform="scale(1 1) rotate(0) translate(4 81)">
<title>vacmod::free_mem_nestor</title>
<polygon fill="white" stroke="transparent" points="-4,4 -4,-81 607,-81 607,4 -4,4"/>
<!-- Node1 -->
<g id="node1" class="node">
<title>Node1</title>
<g id="a_node1"><a xlink:title=" ">
<polygon fill="#bfbfbf" stroke="black" points="472,-19.5 472,-38.5 603,-38.5 603,-19.5 472,-19.5"/>
<text text-anchor="middle" x="537.5" y="-26.5" font-family="Helvetica,sans-Serif" font-size="10.00">vacmod::free_mem_nestor</text>
</a>
</g>
</g>
<!-- Node2 -->
<g id="node2" class="node">
<title>Node2</title>
<g id="a_node2"><a xlink:href="../../de/dd6/free__mem__nunv_8f90.html#af9db130c860b00078874db28a8805226" target="_top" xlink:title="Free arrays depending on the number of Fourier coefficients nunv.">
<polygon fill="white" stroke="black" points="350,-38.5 350,-57.5 436,-57.5 436,-38.5 350,-38.5"/>
<text text-anchor="middle" x="393" y="-45.5" font-family="Helvetica,sans-Serif" font-size="10.00">free_mem_nunv</text>
</a>
</g>
</g>
<!-- Node1&#45;&gt;Node2 -->
<g id="edge1" class="edge">
<title>Node1&#45;&gt;Node2</title>
<path fill="none" stroke="midnightblue" d="M461.98,-38.94C453.18,-40.11 444.45,-41.27 436.32,-42.36"/>
<polygon fill="midnightblue" stroke="midnightblue" points="462.47,-42.4 471.92,-37.61 461.55,-35.46 462.47,-42.4"/>
</g>
<!-- Node7 -->
<g id="node7" class="node">
<title>Node7</title>
<g id="a_node7"><a xlink:href="../../d4/d69/nestor__main_8f90.html#a1b0fd336e80285a96925333daa2ee8f0" target="_top" xlink:title="Main program of stand&#45;alone version of NESTOR.">
<polygon fill="white" stroke="black" points="371,-0.5 371,-19.5 415,-19.5 415,-0.5 371,-0.5"/>
<text text-anchor="middle" x="393" y="-7.5" font-family="Helvetica,sans-Serif" font-size="10.00">nestor</text>
</a>
</g>
</g>
<!-- Node1&#45;&gt;Node7 -->
<g id="edge7" class="edge">
<title>Node1&#45;&gt;Node7</title>
<path fill="none" stroke="midnightblue" d="M461.82,-19.04C444.65,-16.75 427.76,-14.5 415.12,-12.82"/>
<polygon fill="midnightblue" stroke="midnightblue" points="461.55,-22.54 471.92,-20.39 462.47,-15.6 461.55,-22.54"/>
</g>
<!-- Node3 -->
<g id="node3" class="node">
<title>Node3</title>
<g id="a_node3"><a xlink:href="../../d7/d8c/allocate__nunv_8f90.html#a1fb4098498daa9bd7a8487120397c1a7" target="_top" xlink:title="allocate arrays depending on the number of Fourier coefficients nunv">
<polygon fill="white" stroke="black" points="237,-57.5 237,-76.5 314,-76.5 314,-57.5 237,-57.5"/>
<text text-anchor="middle" x="275.5" y="-64.5" font-family="Helvetica,sans-Serif" font-size="10.00">allocate_nunv</text>
</a>
</g>
</g>
<!-- Node2&#45;&gt;Node3 -->
<g id="edge2" class="edge">
<title>Node2&#45;&gt;Node3</title>
<path fill="none" stroke="midnightblue" d="M339.9,-56.57C331.2,-58 322.33,-59.46 314.09,-60.82"/>
<polygon fill="midnightblue" stroke="midnightblue" points="340.68,-59.99 349.98,-54.91 339.54,-53.08 340.68,-59.99"/>
</g>
<!-- Node5 -->
<g id="node5" class="node">
<title>Node5</title>
<g id="a_node5"><a xlink:href="../../db/d61/vmec_8f90.html#a6d38ab7be2f9d818da4541e1d352ea23" target="_top" xlink:title="Main driver for VMEC.">
<polygon fill="white" stroke="black" points="81,-38.5 81,-57.5 122,-57.5 122,-38.5 81,-38.5"/>
<text text-anchor="middle" x="101.5" y="-45.5" font-family="Helvetica,sans-Serif" font-size="10.00">vmec</text>
</a>
</g>
</g>
<!-- Node2&#45;&gt;Node5 -->
<g id="edge6" class="edge">
<title>Node2&#45;&gt;Node5</title>
<path fill="none" stroke="midnightblue" d="M339.82,-48C274.61,-48 166.2,-48 122.08,-48"/>
<polygon fill="midnightblue" stroke="midnightblue" points="339.9,-51.5 349.9,-48 339.9,-44.5 339.9,-51.5"/>
</g>
<!-- Node4 -->
<g id="node4" class="node">
<title>Node4</title>
<g id="a_node4"><a xlink:href="../../d8/da3/readin_8f90.html#a60f2bfd8fc6f7c3e027a8f91ef0c7b25" target="_top" xlink:title="Read the input file.">
<polygon fill="white" stroke="black" points="158,-57.5 158,-76.5 201,-76.5 201,-57.5 158,-57.5"/>
<text text-anchor="middle" x="179.5" y="-64.5" font-family="Helvetica,sans-Serif" font-size="10.00">readin</text>
</a>
</g>
</g>
<!-- Node3&#45;&gt;Node4 -->
<g id="edge3" class="edge">
<title>Node3&#45;&gt;Node4</title>
<path fill="none" stroke="midnightblue" d="M226.71,-67C217.72,-67 208.77,-67 201.17,-67"/>
<polygon fill="midnightblue" stroke="midnightblue" points="226.81,-70.5 236.81,-67 226.81,-63.5 226.81,-70.5"/>
</g>
<!-- Node4&#45;&gt;Node5 -->
<g id="edge4" class="edge">
<title>Node4&#45;&gt;Node5</title>
<path fill="none" stroke="midnightblue" d="M147.91,-59.35C139.24,-57.19 130.04,-54.88 122.2,-52.92"/>
<polygon fill="midnightblue" stroke="midnightblue" points="147.18,-62.78 157.73,-61.81 148.88,-55.99 147.18,-62.78"/>
</g>
<!-- Node6 -->
<g id="node6" class="node">
<title>Node6</title>
<g id="a_node6"><a xlink:href="../../db/d61/vmec_8f90.html#ace5bdf043bb85c8f0a9fc582bdb55725" target="_top" xlink:title="Main program of VMEC.">
<polygon fill="white" stroke="black" points="0,-38.5 0,-57.5 45,-57.5 45,-38.5 0,-38.5"/>
<text text-anchor="middle" x="22.5" y="-45.5" font-family="Helvetica,sans-Serif" font-size="10.00">xvmec</text>
</a>
</g>
</g>
<!-- Node5&#45;&gt;Node6 -->
<g id="edge5" class="edge">
<title>Node5&#45;&gt;Node6</title>
<path fill="none" stroke="midnightblue" d="M70.42,-48C61.99,-48 52.99,-48 45.16,-48"/>
<polygon fill="midnightblue" stroke="midnightblue" points="70.67,-51.5 80.67,-48 70.67,-44.5 70.67,-51.5"/>
</g>
</g>
</svg>
