<?xml version="1.0" encoding="UTF-8" standalone="no"?>
<!DOCTYPE svg PUBLIC "-//W3C//DTD SVG 1.1//EN"
 "http://www.w3.org/Graphics/SVG/1.1/DTD/svg11.dtd">
<!-- Generated by graphviz version 2.47.1 (20210421.1823)
 -->
<!-- Title: vacmod::allocate_nestor Pages: 1 -->
<svg width="399pt" height="66pt"
 viewBox="0.00 0.00 399.00 66.00" xmlns="http://www.w3.org/2000/svg" xmlns:xlink="http://www.w3.org/1999/xlink">
<g id="graph0" class="graph" transform="scale(1 1) rotate(0) translate(4 62)">
<title>vacmod::allocate_nestor</title>
<polygon fill="white" stroke="transparent" points="-4,4 -4,-62 395,-62 395,4 -4,4"/>
<!-- Node1 -->
<g id="node1" class="node">
<title>Node1</title>
<g id="a_node1"><a xlink:title=" ">
<polygon fill="#bfbfbf" stroke="black" points="269,-19.5 269,-38.5 391,-38.5 391,-19.5 269,-19.5"/>
<text text-anchor="middle" x="330" y="-26.5" font-family="Helvetica,sans-Serif" font-size="10.00">vacmod::allocate_nestor</text>
</a>
</g>
</g>
<!-- Node2 -->
<g id="node2" class="node">
<title>Node2</title>
<g id="a_node2"><a xlink:href="../../d7/d8c/allocate__nunv_8f90.html#a1fb4098498daa9bd7a8487120397c1a7" target="_top" xlink:title="allocate arrays depending on the number of Fourier coefficients nunv">
<polygon fill="white" stroke="black" points="156,-38.5 156,-57.5 233,-57.5 233,-38.5 156,-38.5"/>
<text text-anchor="middle" x="194.5" y="-45.5" font-family="Helvetica,sans-Serif" font-size="10.00">allocate_nunv</text>
</a>
</g>
</g>
<!-- Node1&#45;&gt;Node2 -->
<g id="edge1" class="edge">
<title>Node1&#45;&gt;Node2</title>
<path fill="none" stroke="midnightblue" d="M258.86,-38.98C249.99,-40.25 241.19,-41.5 233.1,-42.65"/>
<polygon fill="midnightblue" stroke="midnightblue" points="259.48,-42.43 268.89,-37.56 258.5,-35.5 259.48,-42.43"/>
</g>
<!-- Node5 -->
<g id="node5" class="node">
<title>Node5</title>
<g id="a_node5"><a xlink:href="../../d4/d69/nestor__main_8f90.html#a1b0fd336e80285a96925333daa2ee8f0" target="_top" xlink:title="Main program of stand&#45;alone version of NESTOR.">
<polygon fill="white" stroke="black" points="172.5,-0.5 172.5,-19.5 216.5,-19.5 216.5,-0.5 172.5,-0.5"/>
<text text-anchor="middle" x="194.5" y="-7.5" font-family="Helvetica,sans-Serif" font-size="10.00">nestor</text>
</a>
</g>
</g>
<!-- Node1&#45;&gt;Node5 -->
<g id="edge4" class="edge">
<title>Node1&#45;&gt;Node5</title>
<path fill="none" stroke="midnightblue" d="M258.78,-19.01C243.4,-16.82 228.27,-14.66 216.66,-13.01"/>
<polygon fill="midnightblue" stroke="midnightblue" points="258.5,-22.5 268.89,-20.44 259.48,-15.57 258.5,-22.5"/>
</g>
<!-- Node3 -->
<g id="node3" class="node">
<title>Node3</title>
<g id="a_node3"><a xlink:href="../../d8/da3/readin_8f90.html#a60f2bfd8fc6f7c3e027a8f91ef0c7b25" target="_top" xlink:title="Read the input file.">
<polygon fill="white" stroke="black" points="77,-38.5 77,-57.5 120,-57.5 120,-38.5 77,-38.5"/>
<text text-anchor="middle" x="98.5" y="-45.5" font-family="Helvetica,sans-Serif" font-size="10.00">readin</text>
</a>
</g>
</g>
<!-- Node2&#45;&gt;Node3 -->
<g id="edge2" class="edge">
<title>Node2&#45;&gt;Node3</title>
<path fill="none" stroke="midnightblue" d="M145.71,-48C136.72,-48 127.77,-48 120.17,-48"/>
<polygon fill="midnightblue" stroke="midnightblue" points="145.81,-51.5 155.81,-48 145.81,-44.5 145.81,-51.5"/>
</g>
<!-- Node4 -->
<g id="node4" class="node">
<title>Node4</title>
<g id="a_node4"><a xlink:href="../../db/d61/vmec_8f90.html#a6d38ab7be2f9d818da4541e1d352ea23" target="_top" xlink:title="Main driver for VMEC.">
<polygon fill="white" stroke="black" points="0,-38.5 0,-57.5 41,-57.5 41,-38.5 0,-38.5"/>
<text text-anchor="middle" x="20.5" y="-45.5" font-family="Helvetica,sans-Serif" font-size="10.00">vmec</text>
</a>
</g>
</g>
<!-- Node3&#45;&gt;Node4 -->
<g id="edge3" class="edge">
<title>Node3&#45;&gt;Node4</title>
<path fill="none" stroke="midnightblue" d="M66.63,-48C58.04,-48 48.95,-48 41.2,-48"/>
<polygon fill="midnightblue" stroke="midnightblue" points="66.73,-51.5 76.73,-48 66.73,-44.5 66.73,-51.5"/>
</g>
</g>
</svg>
