<?xml version="1.0" encoding="UTF-8" standalone="no"?>
<!DOCTYPE svg PUBLIC "-//W3C//DTD SVG 1.1//EN"
 "http://www.w3.org/Graphics/SVG/1.1/DTD/svg11.dtd">
<!-- Generated by graphviz version 12.0.0 (20240704.0754)
 -->
<!-- Title: vacmod::free_mem_nestor Pages: 1 -->
<svg width="607pt" height="83pt"
 viewBox="0.00 0.00 607.25 83.25" xmlns="http://www.w3.org/2000/svg" xmlns:xlink="http://www.w3.org/1999/xlink">
<g id="graph0" class="graph" transform="scale(1 1) rotate(0) translate(4 79.25)">
<title>vacmod::free_mem_nestor</title>
<!-- Node1 -->
<g id="Node000001" class="node">
<title>Node1</title>
<g id="a_Node000001"><a xlink:title=" ">
<polygon fill="#999999" stroke="#666666" points="599.25,-37.25 468.5,-37.25 468.5,-18 599.25,-18 599.25,-37.25"/>
<text text-anchor="middle" x="533.88" y="-23.75" font-family="Helvetica,sans-Serif" font-size="10.00">vacmod::free_mem_nestor</text>
</a>
</g>
</g>
<!-- Node2 -->
<g id="Node000002" class="node">
<title>Node2</title>
<g id="a_Node000002"><a xlink:href="../../de/dd6/free__mem__nunv_8f90.html#af9db130c860b00078874db28a8805226" target="_top" xlink:title="Free arrays depending on the number of Fourier coefficients nunv.">
<polygon fill="white" stroke="#666666" points="432.5,-56.25 346.75,-56.25 346.75,-37 432.5,-37 432.5,-56.25"/>
<text text-anchor="middle" x="389.62" y="-42.75" font-family="Helvetica,sans-Serif" font-size="10.00">free_mem_nunv</text>
</a>
</g>
</g>
<!-- Node1&#45;&gt;Node2 -->
<g id="edge1_Node000001_Node000002" class="edge">
<title>Node1&#45;&gt;Node2</title>
<g id="a_edge1_Node000001_Node000002"><a xlink:title=" ">
<path fill="none" stroke="#63b8ff" d="M457.07,-37.75C448.77,-38.86 440.55,-39.96 432.87,-40.98"/>
<polygon fill="#63b8ff" stroke="#63b8ff" points="457.46,-41.23 466.91,-36.44 456.53,-34.29 457.46,-41.23"/>
</a>
</g>
</g>
<!-- Node7 -->
<g id="Node000007" class="node">
<title>Node7</title>
<g id="a_Node000007"><a xlink:href="../../d4/d69/nestor__main_8f90.html#a1b0fd336e80285a96925333daa2ee8f0" target="_top" xlink:title="Main program of stand&#45;alone version of NESTOR.">
<polygon fill="white" stroke="#666666" points="411.12,-19.25 368.12,-19.25 368.12,0 411.12,0 411.12,-19.25"/>
<text text-anchor="middle" x="389.62" y="-5.75" font-family="Helvetica,sans-Serif" font-size="10.00">nestor</text>
</a>
</g>
</g>
<!-- Node1&#45;&gt;Node7 -->
<g id="edge7_Node000001_Node000007" class="edge">
<title>Node1&#45;&gt;Node7</title>
<g id="a_edge7_Node000001_Node000007"><a xlink:title=" ">
<path fill="none" stroke="#63b8ff" d="M457.28,-18.06C440.36,-15.92 423.78,-13.82 411.39,-12.25"/>
<polygon fill="#63b8ff" stroke="#63b8ff" points="456.55,-21.49 466.91,-19.28 457.43,-14.55 456.55,-21.49"/>
</a>
</g>
</g>
<!-- Node3 -->
<g id="Node000003" class="node">
<title>Node3</title>
<g id="a_Node000003"><a xlink:href="../../d7/d8c/allocate__nunv_8f90.html#a1fb4098498daa9bd7a8487120397c1a7" target="_top" xlink:title="allocate arrays depending on the number of Fourier coefficients nunv">
<polygon fill="white" stroke="#666666" points="310.75,-75.25 234.75,-75.25 234.75,-56 310.75,-56 310.75,-75.25"/>
<text text-anchor="middle" x="272.75" y="-61.75" font-family="Helvetica,sans-Serif" font-size="10.00">allocate_nunv</text>
</a>
</g>
</g>
<!-- Node2&#45;&gt;Node3 -->
<g id="edge2_Node000002_Node000003" class="edge">
<title>Node2&#45;&gt;Node3</title>
<g id="a_edge2_Node000002_Node000003"><a xlink:title=" ">
<path fill="none" stroke="#63b8ff" d="M335.38,-55.43C327.12,-56.8 318.74,-58.18 310.94,-59.47"/>
<polygon fill="#63b8ff" stroke="#63b8ff" points="335.71,-58.92 345.01,-53.84 334.57,-52.02 335.71,-58.92"/>
</a>
</g>
</g>
<!-- Node5 -->
<g id="Node000005" class="node">
<title>Node5</title>
<g id="a_Node000005"><a xlink:href="../../db/d61/vmec_8f90.html#a6d38ab7be2f9d818da4541e1d352ea23" target="_top" xlink:title="Main driver for VMEC.">
<polygon fill="white" stroke="#666666" points="120.5,-56.25 80.5,-56.25 80.5,-37 120.5,-37 120.5,-56.25"/>
<text text-anchor="middle" x="100.5" y="-42.75" font-family="Helvetica,sans-Serif" font-size="10.00">vmec</text>
</a>
</g>
</g>
<!-- Node2&#45;&gt;Node5 -->
<g id="edge6_Node000002_Node000005" class="edge">
<title>Node2&#45;&gt;Node5</title>
<g id="a_edge6_Node000002_Node000005"><a xlink:title=" ">
<path fill="none" stroke="#63b8ff" d="M335.03,-46.62C270.12,-46.62 164.11,-46.62 120.82,-46.62"/>
<polygon fill="#63b8ff" stroke="#63b8ff" points="334.75,-50.13 344.75,-46.63 334.75,-43.13 334.75,-50.13"/>
</a>
</g>
</g>
<!-- Node4 -->
<g id="Node000004" class="node">
<title>Node4</title>
<g id="a_Node000004"><a xlink:href="../../d8/da3/readin_8f90.html#a60f2bfd8fc6f7c3e027a8f91ef0c7b25" target="_top" xlink:title="Read the input file.">
<polygon fill="white" stroke="#666666" points="198.75,-75.25 156.5,-75.25 156.5,-56 198.75,-56 198.75,-75.25"/>
<text text-anchor="middle" x="177.62" y="-61.75" font-family="Helvetica,sans-Serif" font-size="10.00">readin</text>
</a>
</g>
</g>
<!-- Node3&#45;&gt;Node4 -->
<g id="edge3_Node000003_Node000004" class="edge">
<title>Node3&#45;&gt;Node4</title>
<g id="a_edge3_Node000003_Node000004"><a xlink:title=" ">
<path fill="none" stroke="#63b8ff" d="M222.97,-65.62C214.55,-65.62 206.23,-65.62 199.11,-65.62"/>
<polygon fill="#63b8ff" stroke="#63b8ff" points="222.9,-69.13 232.9,-65.63 222.9,-62.13 222.9,-69.13"/>
</a>
</g>
</g>
<!-- Node4&#45;&gt;Node5 -->
<g id="edge4_Node000004_Node000005" class="edge">
<title>Node4&#45;&gt;Node5</title>
<g id="a_edge4_Node000004_Node000005"><a xlink:title=" ">
<path fill="none" stroke="#63b8ff" d="M144.99,-57.62C136.83,-55.56 128.3,-53.4 120.97,-51.55"/>
<polygon fill="#63b8ff" stroke="#63b8ff" points="144.08,-61 154.63,-60.06 145.79,-54.22 144.08,-61"/>
</a>
</g>
</g>
<!-- Node6 -->
<g id="Node000006" class="node">
<title>Node6</title>
<g id="a_Node000006"><a xlink:href="../../db/d61/vmec_8f90.html#ace5bdf043bb85c8f0a9fc582bdb55725" target="_top" xlink:title="Main program of VMEC.">
<polygon fill="white" stroke="#666666" points="44.5,-56.25 0,-56.25 0,-37 44.5,-37 44.5,-56.25"/>
<text text-anchor="middle" x="22.25" y="-42.75" font-family="Helvetica,sans-Serif" font-size="10.00">xvmec</text>
</a>
</g>
</g>
<!-- Node5&#45;&gt;Node6 -->
<g id="edge5_Node000005_Node000006" class="edge">
<title>Node5&#45;&gt;Node6</title>
<g id="a_edge5_Node000005_Node000006"><a xlink:title=" ">
<path fill="none" stroke="#63b8ff" d="M68.97,-46.62C60.92,-46.62 52.39,-46.62 44.91,-46.62"/>
<polygon fill="#63b8ff" stroke="#63b8ff" points="68.75,-50.13 78.75,-46.63 68.75,-43.13 68.75,-50.13"/>
</a>
</g>
</g>
</g>
</svg>
