<?xml version="1.0" encoding="UTF-8" standalone="no"?>
<!DOCTYPE svg PUBLIC "-//W3C//DTD SVG 1.1//EN"
 "http://www.w3.org/Graphics/SVG/1.1/DTD/svg11.dtd">
<!-- Generated by graphviz version 8.0.5 (20230430.1635)
 -->
<!-- Title: spline_cubic_int Pages: 1 -->
<svg width="168pt" height="45pt"
 viewBox="0.00 0.00 167.50 45.25" xmlns="http://www.w3.org/2000/svg" xmlns:xlink="http://www.w3.org/1999/xlink">
<g id="graph0" class="graph" transform="scale(1 1) rotate(0) translate(4 41.25)">
<title>spline_cubic_int</title>
<!-- Node1 -->
<g id="Node000001" class="node">
<title>Node1</title>
<g id="a_Node000001"><a xlink:title=" ">
<polygon fill="#999999" stroke="#666666" points="159.5,-19.25 73.75,-19.25 73.75,0 159.5,0 159.5,-19.25"/>
<text text-anchor="middle" x="116.62" y="-5.75" font-family="Helvetica,sans-Serif" font-size="10.00">spline_cubic_int</text>
</a>
</g>
</g>
<!-- Node2 -->
<g id="Node000002" class="node">
<title>Node2</title>
<g id="a_Node000002"><a xlink:href="../../da/dc8/profile__functions_8f.html#a5bfa30ed89583073252fb965b7cf69e0" target="_top" xlink:title=" ">
<polygon fill="white" stroke="#666666" points="37.75,-19.25 0,-19.25 0,0 37.75,0 37.75,-19.25"/>
<text text-anchor="middle" x="18.88" y="-5.75" font-family="Helvetica,sans-Serif" font-size="10.00">pcurr</text>
</a>
</g>
</g>
<!-- Node1&#45;&gt;Node2 -->
<g id="edge1_Node000001_Node000002" class="edge">
<title>Node1&#45;&gt;Node2</title>
<g id="a_edge1_Node000001_Node000002"><a xlink:title=" ">
<path fill="none" stroke="#63b8ff" d="M62.53,-9.62C53.69,-9.62 45.09,-9.62 37.96,-9.62"/>
<polygon fill="#63b8ff" stroke="#63b8ff" points="62.35,-13.13 72.35,-9.62 62.35,-6.13 62.35,-13.13"/>
</a>
</g>
</g>
<!-- Node2&#45;&gt;Node2 -->
<g id="edge2_Node000002_Node000002" class="edge">
<title>Node2&#45;&gt;Node2</title>
<g id="a_edge2_Node000002_Node000002"><a xlink:title=" ">
<path fill="none" stroke="#63b8ff" d="M36.56,-29.98C34.7,-34.21 28.81,-37.25 18.88,-37.25 1.69,-37.25 -3.41,-28.15 3.57,-19.54"/>
<polygon fill="#63b8ff" stroke="#63b8ff" points="39.82,-29.51 34.18,-20.54 32.99,-31.07 39.82,-29.51"/>
</a>
</g>
</g>
</g>
</svg>
