<?xml version="1.0" encoding="UTF-8" standalone="no"?>
<!DOCTYPE svg PUBLIC "-//W3C//DTD SVG 1.1//EN"
 "http://www.w3.org/Graphics/SVG/1.1/DTD/svg11.dtd">
<!-- Generated by graphviz version 7.1.0 (20230121.1956)
 -->
<!-- Title: spline_int Pages: 1 -->
<svg width="262pt" height="45pt"
 viewBox="0.00 0.00 262.00 45.00" xmlns="http://www.w3.org/2000/svg" xmlns:xlink="http://www.w3.org/1999/xlink">
<g id="graph0" class="graph" transform="scale(1 1) rotate(0) translate(4 41)">
<title>spline_int</title>
<!-- Node1 -->
<g id="node1" class="node">
<title>Node1</title>
<g id="a_node1"><a xlink:title=" ">
<polygon fill="#999999" stroke="#666666" points="254,-19 196,-19 196,0 254,0 254,-19"/>
<text text-anchor="middle" x="225" y="-7" font-family="Helvetica,sans-Serif" font-size="10.00">spline_int</text>
</a>
</g>
</g>
<!-- Node2 -->
<g id="node2" class="node">
<title>Node2</title>
<g id="a_node2"><a xlink:href="../../de/d64/spline__cubic__int_8f.html#ad67b8e5169554dbccb5cf79f069dc055" target="_top" xlink:title=" ">
<polygon fill="white" stroke="#666666" points="160,-19 74,-19 74,0 160,0 160,-19"/>
<text text-anchor="middle" x="117" y="-7" font-family="Helvetica,sans-Serif" font-size="10.00">spline_cubic_int</text>
</a>
</g>
</g>
<!-- Node1&#45;&gt;Node2 -->
<g id="edge1" class="edge">
<title>Node1&#45;&gt;Node2</title>
<path fill="none" stroke="#63b8ff" d="M184.22,-9.5C176.46,-9.5 168.29,-9.5 160.45,-9.5"/>
<polygon fill="#63b8ff" stroke="#63b8ff" points="184.08,-13 194.08,-9.5 184.08,-6 184.08,-13"/>
</g>
<!-- Node3 -->
<g id="node3" class="node">
<title>Node3</title>
<g id="a_node3"><a xlink:href="../../da/dc8/profile__functions_8f.html#a5bfa30ed89583073252fb965b7cf69e0" target="_top" xlink:title=" ">
<polygon fill="white" stroke="#666666" points="38,-19 0,-19 0,0 38,0 38,-19"/>
<text text-anchor="middle" x="19" y="-7" font-family="Helvetica,sans-Serif" font-size="10.00">pcurr</text>
</a>
</g>
</g>
<!-- Node2&#45;&gt;Node3 -->
<g id="edge2" class="edge">
<title>Node2&#45;&gt;Node3</title>
<path fill="none" stroke="#63b8ff" d="M62.18,-9.5C53.52,-9.5 45.12,-9.5 38.13,-9.5"/>
<polygon fill="#63b8ff" stroke="#63b8ff" points="62.1,-13 72.1,-9.5 62.1,-6 62.1,-13"/>
</g>
<!-- Node3&#45;&gt;Node3 -->
<g id="edge3" class="edge">
<title>Node3&#45;&gt;Node3</title>
<path fill="none" stroke="#63b8ff" d="M36.39,-30.43C34.22,-34.29 28.42,-37 19,-37 1.77,-37 -3.34,-27.94 3.66,-19.37"/>
<polygon fill="#63b8ff" stroke="#63b8ff" points="39.88,-30.05 34.62,-20.86 33,-31.33 39.88,-30.05"/>
</g>
</g>
</svg>
