<?xml version="1.0" encoding="UTF-8" standalone="no"?>
<!DOCTYPE svg PUBLIC "-//W3C//DTD SVG 1.1//EN"
 "http://www.w3.org/Graphics/SVG/1.1/DTD/svg11.dtd">
<!-- Generated by graphviz version 9.0.0 (20230911.1827)
 -->
<!-- Title: spline_int Pages: 1 -->
<svg width="261pt" height="45pt"
 viewBox="0.00 0.00 260.75 45.25" xmlns="http://www.w3.org/2000/svg" xmlns:xlink="http://www.w3.org/1999/xlink">
<g id="graph0" class="graph" transform="scale(1 1) rotate(0) translate(4 41.25)">
<title>spline_int</title>
<!-- Node1 -->
<g id="Node000001" class="node">
<title>Node1</title>
<g id="a_Node000001"><a xlink:title=" ">
<polygon fill="#999999" stroke="#666666" points="252.75,-19.25 195.5,-19.25 195.5,0 252.75,0 252.75,-19.25"/>
<text text-anchor="middle" x="224.12" y="-5.75" font-family="Helvetica,sans-Serif" font-size="10.00">spline_int</text>
</a>
</g>
</g>
<!-- Node2 -->
<g id="Node000002" class="node">
<title>Node2</title>
<g id="a_Node000002"><a xlink:href="../../de/d64/spline__cubic__int_8f.html#ad67b8e5169554dbccb5cf79f069dc055" target="_top" xlink:title=" ">
<polygon fill="white" stroke="#666666" points="159.5,-19.25 73.75,-19.25 73.75,0 159.5,0 159.5,-19.25"/>
<text text-anchor="middle" x="116.62" y="-5.75" font-family="Helvetica,sans-Serif" font-size="10.00">spline_cubic_int</text>
</a>
</g>
</g>
<!-- Node1&#45;&gt;Node2 -->
<g id="edge1_Node000001_Node000002" class="edge">
<title>Node1&#45;&gt;Node2</title>
<g id="a_edge1_Node000001_Node000002"><a xlink:title=" ">
<path fill="none" stroke="#63b8ff" d="M183.66,-9.62C175.83,-9.62 167.58,-9.62 159.67,-9.62"/>
<polygon fill="#63b8ff" stroke="#63b8ff" points="183.62,-13.13 193.62,-9.63 183.62,-6.13 183.62,-13.13"/>
</a>
</g>
</g>
<!-- Node3 -->
<g id="Node000003" class="node">
<title>Node3</title>
<g id="a_Node000003"><a xlink:href="../../da/dc8/profile__functions_8f.html#a5bfa30ed89583073252fb965b7cf69e0" target="_top" xlink:title=" ">
<polygon fill="white" stroke="#666666" points="37.75,-19.25 0,-19.25 0,0 37.75,0 37.75,-19.25"/>
<text text-anchor="middle" x="18.88" y="-5.75" font-family="Helvetica,sans-Serif" font-size="10.00">pcurr</text>
</a>
</g>
</g>
<!-- Node2&#45;&gt;Node3 -->
<g id="edge2_Node000002_Node000003" class="edge">
<title>Node2&#45;&gt;Node3</title>
<g id="a_edge2_Node000002_Node000003"><a xlink:title=" ">
<path fill="none" stroke="#63b8ff" d="M61.95,-9.62C53.31,-9.62 44.93,-9.62 37.96,-9.62"/>
<polygon fill="#63b8ff" stroke="#63b8ff" points="61.84,-13.13 71.84,-9.63 61.84,-6.13 61.84,-13.13"/>
</a>
</g>
</g>
<!-- Node3&#45;&gt;Node3 -->
<g id="edge3_Node000003_Node000003" class="edge">
<title>Node3&#45;&gt;Node3</title>
<g id="a_edge3_Node000003_Node000003"><a xlink:title=" ">
<path fill="none" stroke="#63b8ff" d="M36.23,-30.65C34.06,-34.53 28.27,-37.25 18.88,-37.25 1.69,-37.25 -3.41,-28.15 3.57,-19.54"/>
<polygon fill="#63b8ff" stroke="#63b8ff" points="39.71,-30.23 34.45,-21.03 32.82,-31.5 39.71,-30.23"/>
</a>
</g>
</g>
</g>
</svg>
