<?xml version="1.0" encoding="UTF-8" standalone="no"?>
<!DOCTYPE svg PUBLIC "-//W3C//DTD SVG 1.1//EN"
 "http://www.w3.org/Graphics/SVG/1.1/DTD/svg11.dtd">
<!-- Generated by graphviz version 8.0.1 (20230327.1645)
 -->
<!-- Title: allocate_ns Pages: 1 -->
<svg width="332pt" height="64pt"
 viewBox="0.00 0.00 332.00 64.00" xmlns="http://www.w3.org/2000/svg" xmlns:xlink="http://www.w3.org/1999/xlink">
<g id="graph0" class="graph" transform="scale(1 1) rotate(0) translate(4 60)">
<title>allocate_ns</title>
<!-- Node1 -->
<g id="node1" class="node">
<title>Node1</title>
<g id="a_node1"><a xlink:title="allocate arrays depending on the number of flux surfaces ns">
<polygon fill="#999999" stroke="#666666" points="66,-37 0,-37 0,-18 66,-18 66,-37"/>
<text text-anchor="middle" x="33" y="-25" font-family="Helvetica,sans-Serif" font-size="10.00">allocate_ns</text>
</a>
</g>
</g>
<!-- Node2 -->
<g id="node2" class="node">
<title>Node2</title>
<g id="a_node2"><a xlink:href="../../d2/d6a/allocate__funct3d_8f90.html#aa28af836c4a986153f038a50689c152a" target="_top" xlink:title="allocate arrays required in funct3d()">
<polygon fill="white" stroke="#666666" points="190,-56 102,-56 102,-37 190,-37 190,-56"/>
<text text-anchor="middle" x="146" y="-44" font-family="Helvetica,sans-Serif" font-size="10.00">allocate_funct3d</text>
</a>
</g>
</g>
<!-- Node1&#45;&gt;Node2 -->
<g id="edge1" class="edge">
<title>Node1&#45;&gt;Node2</title>
<path fill="none" stroke="#63b8ff" d="M66.4,-33.05C74.14,-34.37 82.61,-35.82 91.03,-37.26"/>
<polygon fill="#63b8ff" stroke="#63b8ff" points="90.17,-40.84 100.62,-39.07 91.35,-33.94 90.17,-40.84"/>
</g>
<!-- Node4 -->
<g id="node4" class="node">
<title>Node4</title>
<g id="a_node4"><a xlink:href="../../d9/d30/free__mem__ns_8f90.html#a467551106b66f531d5dd780bd24a2d37" target="_top" xlink:title="Free memory depending on the number of flux surfaces ns.">
<polygon fill="white" stroke="#666666" points="184,-19 108,-19 108,0 184,0 184,-19"/>
<text text-anchor="middle" x="146" y="-7" font-family="Helvetica,sans-Serif" font-size="10.00">free_mem_ns</text>
</a>
</g>
</g>
<!-- Node1&#45;&gt;Node4 -->
<g id="edge3" class="edge">
<title>Node1&#45;&gt;Node4</title>
<path fill="none" stroke="#63b8ff" d="M66.4,-22.25C76,-20.69 86.71,-18.95 97.07,-17.27"/>
<polygon fill="#63b8ff" stroke="#63b8ff" points="97.36,-20.61 106.67,-15.55 96.24,-13.7 97.36,-20.61"/>
</g>
<!-- Node3 -->
<g id="node3" class="node">
<title>Node3</title>
<g id="a_node3"><a xlink:href="../../da/dc7/free__mem__funct3d_8f90.html#ad59355935b77a3f3674383e74d424289" target="_top" xlink:title="Free memory required by funct3d()">
<polygon fill="white" stroke="#666666" points="324,-56 226,-56 226,-37 324,-37 324,-56"/>
<text text-anchor="middle" x="275" y="-44" font-family="Helvetica,sans-Serif" font-size="10.00">free_mem_funct3d</text>
</a>
</g>
</g>
<!-- Node2&#45;&gt;Node3 -->
<g id="edge2" class="edge">
<title>Node2&#45;&gt;Node3</title>
<path fill="none" stroke="#63b8ff" d="M190.35,-46.5C198.25,-46.5 206.6,-46.5 214.86,-46.5"/>
<polygon fill="#63b8ff" stroke="#63b8ff" points="214.61,-50 224.61,-46.5 214.61,-43 214.61,-50"/>
</g>
</g>
</svg>
