<?xml version="1.0" encoding="UTF-8" standalone="no"?>
<!DOCTYPE svg PUBLIC "-//W3C//DTD SVG 1.1//EN"
 "http://www.w3.org/Graphics/SVG/1.1/DTD/svg11.dtd">
<!-- Generated by graphviz version 8.0.1 (20230327.1645)
 -->
<!-- Title: scalpot Pages: 1 -->
<svg width="301pt" height="208pt"
 viewBox="0.00 0.00 301.00 208.00" xmlns="http://www.w3.org/2000/svg" xmlns:xlink="http://www.w3.org/1999/xlink">
<g id="graph0" class="graph" transform="scale(1 1) rotate(0) translate(4 204)">
<title>scalpot</title>
<!-- Node1 -->
<g id="node1" class="node">
<title>Node1</title>
<g id="a_node1"><a xlink:title="Compute all required terms for solving for the scalar magnetic potential.">
<polygon fill="#999999" stroke="#666666" points="48,-93 0,-93 0,-74 48,-74 48,-93"/>
<text text-anchor="middle" x="24" y="-81" font-family="Helvetica,sans-Serif" font-size="10.00">scalpot</text>
</a>
</g>
</g>
<!-- Node2 -->
<g id="node2" class="node">
<title>Node2</title>
<g id="a_node2"><a xlink:href="../../da/d73/analyt_8f90.html#a60edcf4884aa60f6d96c258a97255756" target="_top" xlink:title="Compute the analytical&#45;and&#45;numerical 4D Fourier integrals over the equivalently&#45;singular functions.">
<polygon fill="white" stroke="#666666" points="127,-169 85,-169 85,-150 127,-150 127,-169"/>
<text text-anchor="middle" x="106" y="-157" font-family="Helvetica,sans-Serif" font-size="10.00">analyt</text>
</a>
</g>
</g>
<!-- Node1&#45;&gt;Node2 -->
<g id="edge1" class="edge">
<title>Node1&#45;&gt;Node2</title>
<path fill="none" stroke="#63b8ff" d="M35.46,-93.44C48.51,-105.84 71.06,-127.26 86.93,-142.33"/>
<polygon fill="#63b8ff" stroke="#63b8ff" points="83.88,-144.21 93.54,-148.56 88.7,-139.14 83.88,-144.21"/>
</g>
<!-- Node5 -->
<g id="node5" class="node">
<title>Node5</title>
<g id="a_node5"><a xlink:href="../../d8/dfd/namespacedbgout.html#acdd1612a38e44b6469dc03d9d1c6ceed" target="_top" xlink:title="check if any output is desired for the current iteration check if the given context should be openend...">
<polygon fill="white" stroke="#666666" points="293,-103 164,-103 164,-84 293,-84 293,-103"/>
<text text-anchor="middle" x="228.5" y="-91" font-family="Helvetica,sans-Serif" font-size="10.00">dbgout::open_dbg_context</text>
</a>
</g>
</g>
<!-- Node1&#45;&gt;Node5 -->
<g id="edge11" class="edge">
<title>Node1&#45;&gt;Node5</title>
<path fill="none" stroke="#63b8ff" d="M48.42,-92.9C59.08,-96.69 71.99,-100.61 84,-102.5 106.25,-105.99 130.65,-105.91 152.91,-104.33"/>
<polygon fill="#63b8ff" stroke="#63b8ff" points="152.97,-107.75 162.64,-103.44 152.39,-100.78 152.97,-107.75"/>
</g>
<!-- Node6 -->
<g id="node6" class="node">
<title>Node6</title>
<g id="a_node6"><a xlink:href="../../d6/d77/fouri_8f90.html#a0f902f8d584a395f9db7175079d273c7" target="_top" xlink:title="Compute Fourier integrals and build amatrix.">
<polygon fill="white" stroke="#666666" points="123.5,-93 88.5,-93 88.5,-74 123.5,-74 123.5,-93"/>
<text text-anchor="middle" x="106" y="-81" font-family="Helvetica,sans-Serif" font-size="10.00">fouri</text>
</a>
</g>
</g>
<!-- Node1&#45;&gt;Node6 -->
<g id="edge6" class="edge">
<title>Node1&#45;&gt;Node6</title>
<path fill="none" stroke="#63b8ff" d="M48.14,-83.5C57.19,-83.5 67.66,-83.5 77.13,-83.5"/>
<polygon fill="#63b8ff" stroke="#63b8ff" points="77.01,-87 87.01,-83.5 77.01,-80 77.01,-87"/>
</g>
<!-- Node7 -->
<g id="node7" class="node">
<title>Node7</title>
<g id="a_node7"><a xlink:href="../../d0/d1c/fourp_8f90.html#add725dd420251115fd60182dc992503c" target="_top" xlink:title="Perform Fourier integrals of Green&#39;s function kernel.">
<polygon fill="white" stroke="#666666" points="125,-56 87,-56 87,-37 125,-37 125,-56"/>
<text text-anchor="middle" x="106" y="-44" font-family="Helvetica,sans-Serif" font-size="10.00">fourp</text>
</a>
</g>
</g>
<!-- Node1&#45;&gt;Node7 -->
<g id="edge8" class="edge">
<title>Node1&#45;&gt;Node7</title>
<path fill="none" stroke="#63b8ff" d="M46.44,-73.58C55.78,-69.26 66.86,-64.14 76.86,-59.52"/>
<polygon fill="#63b8ff" stroke="#63b8ff" points="78.15,-62.31 85.76,-54.94 75.21,-55.96 78.15,-62.31"/>
</g>
<!-- Node8 -->
<g id="node8" class="node">
<title>Node8</title>
<g id="a_node8"><a xlink:href="../../df/d2d/greenf_8f90.html#acd9d25905cc799c9fcd4d08a3cbb1e65" target="_top" xlink:title="Compute the regularized evaluation of the Green&#39;s function and the source term.">
<polygon fill="white" stroke="#666666" points="128,-19 84,-19 84,0 128,0 128,-19"/>
<text text-anchor="middle" x="106" y="-7" font-family="Helvetica,sans-Serif" font-size="10.00">greenf</text>
</a>
</g>
</g>
<!-- Node1&#45;&gt;Node8 -->
<g id="edge10" class="edge">
<title>Node1&#45;&gt;Node8</title>
<path fill="none" stroke="#63b8ff" d="M34.88,-73.83C46.48,-62.54 66.38,-43.39 84,-27.5 84.37,-27.16 84.75,-26.82 85.14,-26.48"/>
<polygon fill="#63b8ff" stroke="#63b8ff" points="87.13,-28.51 92.36,-19.3 82.52,-23.24 87.13,-28.51"/>
</g>
<!-- Node3 -->
<g id="node3" class="node">
<title>Node3</title>
<g id="a_node3"><a xlink:href="../../df/df3/analysum_8f90.html#aa51b1a5786e7b5719fe2ca679efc66b0" target="_top" xlink:title="Compute the (m=0 or n=0) part of the DFT of the analytical Fourier transforms of the equivalently&#45;sin...">
<polygon fill="white" stroke="#666666" points="257.5,-200 199.5,-200 199.5,-181 257.5,-181 257.5,-200"/>
<text text-anchor="middle" x="228.5" y="-188" font-family="Helvetica,sans-Serif" font-size="10.00">analysum</text>
</a>
</g>
</g>
<!-- Node2&#45;&gt;Node3 -->
<g id="edge2" class="edge">
<title>Node2&#45;&gt;Node3</title>
<path fill="none" stroke="#63b8ff" d="M127.44,-164.76C144.17,-169.06 168.32,-175.28 188.71,-180.52"/>
<polygon fill="#63b8ff" stroke="#63b8ff" points="187.71,-184.13 198.26,-183.24 189.45,-177.35 187.71,-184.13"/>
</g>
<!-- Node4 -->
<g id="node4" class="node">
<title>Node4</title>
<g id="a_node4"><a xlink:href="../../d1/d90/analysum2_8f90.html#a47a0d185131a197c6fc62ee5d68d62fb" target="_top" xlink:title="Compute the (m&gt;0 and n&gt;0) part of the DFT of the analytical Fourier transforms of the equivalently&#45;si...">
<polygon fill="white" stroke="#666666" points="260,-163 197,-163 197,-144 260,-144 260,-163"/>
<text text-anchor="middle" x="228.5" y="-151" font-family="Helvetica,sans-Serif" font-size="10.00">analysum2</text>
</a>
</g>
</g>
<!-- Node2&#45;&gt;Node4 -->
<g id="edge3" class="edge">
<title>Node2&#45;&gt;Node4</title>
<path fill="none" stroke="#63b8ff" d="M127.44,-158.48C143.34,-157.69 165.94,-156.57 185.64,-155.58"/>
<polygon fill="#63b8ff" stroke="#63b8ff" points="185.72,-159.04 195.53,-155.04 185.37,-152.04 185.72,-159.04"/>
</g>
<!-- Node2&#45;&gt;Node5 -->
<g id="edge4" class="edge">
<title>Node2&#45;&gt;Node5</title>
<path fill="none" stroke="#63b8ff" d="M125.04,-149.62C144.83,-138.78 176.82,-121.26 199.8,-108.67"/>
<polygon fill="#63b8ff" stroke="#63b8ff" points="201.25,-111.32 208.34,-103.45 197.88,-105.18 201.25,-111.32"/>
</g>
<!-- Node5&#45;&gt;Node5 -->
<g id="edge5" class="edge">
<title>Node5&#45;&gt;Node5</title>
<path fill="none" stroke="#63b8ff" d="M209.32,-103.37C200.57,-111.94 206.97,-121 228.5,-121 240.95,-121 248.34,-117.97 250.67,-113.76"/>
<polygon fill="#63b8ff" stroke="#63b8ff" points="253.8,-113.01 247.68,-104.37 247.08,-114.95 253.8,-113.01"/>
</g>
<!-- Node6&#45;&gt;Node5 -->
<g id="edge7" class="edge">
<title>Node6&#45;&gt;Node5</title>
<path fill="none" stroke="#63b8ff" d="M123.76,-84.89C131.71,-85.55 141.83,-86.39 152.61,-87.29"/>
<polygon fill="#63b8ff" stroke="#63b8ff" points="152.31,-90.86 162.57,-88.19 152.89,-83.88 152.31,-90.86"/>
</g>
<!-- Node7&#45;&gt;Node5 -->
<g id="edge9" class="edge">
<title>Node7&#45;&gt;Node5</title>
<path fill="none" stroke="#63b8ff" d="M125.3,-53.64C143.03,-60.56 170.39,-71.23 192.34,-79.79"/>
<polygon fill="#63b8ff" stroke="#63b8ff" points="190.72,-83.3 201.3,-83.67 193.26,-76.78 190.72,-83.3"/>
</g>
</g>
</svg>
