<?xml version="1.0" encoding="UTF-8" standalone="no"?>
<!DOCTYPE svg PUBLIC "-//W3C//DTD SVG 1.1//EN"
 "http://www.w3.org/Graphics/SVG/1.1/DTD/svg11.dtd">
<!-- Generated by graphviz version 9.0.0 (20230911.1827)
 -->
<!-- Title: scalpot Pages: 1 -->
<svg width="299pt" height="208pt"
 viewBox="0.00 0.00 299.00 208.25" xmlns="http://www.w3.org/2000/svg" xmlns:xlink="http://www.w3.org/1999/xlink">

<svg id="main" version="1.1" xmlns="http://www.w3.org/2000/svg" xmlns:xlink="http://www.w3.org/1999/xlink" xml:space="preserve" onload="init(evt)">
<style type="text/css"><![CDATA[
.node, .edge {opacity: 0.7;}
.node.selected, .edge.selected {opacity: 1;}
.edge:hover path { stroke: red; }
.edge:hover polygon { stroke: red; fill: red; }
]]></style>
<script type="application/ecmascript" xlink:href="../../svg.min.js"/>
<svg id="graph" class="graph">
<g id="graph0" class="graph" transform="scale(1 1) rotate(0) translate(4 204.25)">
<title>scalpot</title>
<!-- Node1 -->
<g id="Node000001" class="node">
<title>Node1</title>
<g id="a_Node000001"><a xlink:title="Compute all required terms for solving for the scalar magnetic potential.">
<polygon fill="#999999" stroke="#666666" points="47.5,-93.25 0,-93.25 0,-74 47.5,-74 47.5,-93.25"/>
<text text-anchor="middle" x="23.75" y="-79.75" font-family="Helvetica,sans-Serif" font-size="10.00">scalpot</text>
</a>
</g>
</g>
<!-- Node2 -->
<g id="Node000002" class="node">
<title>Node2</title>
<g id="a_Node000002"><a xlink:href="../../da/d73/analyt_8f90.html#a60edcf4884aa60f6d96c258a97255756" target="_top" xlink:title="Compute the analytical&#45;and&#45;numerical 4D Fourier integrals over the equivalently&#45;singular functions.">
<polygon fill="white" stroke="#666666" points="125.75,-169.25 84.25,-169.25 84.25,-150 125.75,-150 125.75,-169.25"/>
<text text-anchor="middle" x="105" y="-155.75" font-family="Helvetica,sans-Serif" font-size="10.00">analyt</text>
</a>
</g>
</g>
<!-- Node1&#45;&gt;Node2 -->
<g id="edge1_Node000001_Node000002" class="edge">
<title>Node1&#45;&gt;Node2</title>
<g id="a_edge1_Node000001_Node000002"><a xlink:title=" ">
<path fill="none" stroke="#63b8ff" d="M35.11,-93.56C47.93,-105.85 69.97,-126.99 85.67,-142.04"/>
<polygon fill="#63b8ff" stroke="#63b8ff" points="82.9,-144.24 92.54,-148.64 87.75,-139.19 82.9,-144.24"/>
</a>
</g>
</g>
<!-- Node5 -->
<g id="Node000005" class="node">
<title>Node5</title>
<g id="a_Node000005"><a xlink:href="../../d8/dfd/namespacedbgout.html#acdd1612a38e44b6469dc03d9d1c6ceed" target="_top" xlink:title="check if any output is desired for the current iteration check if the given context should be openend...">
<polygon fill="white" stroke="#666666" points="291,-103.25 162.5,-103.25 162.5,-84 291,-84 291,-103.25"/>
<text text-anchor="middle" x="226.75" y="-89.75" font-family="Helvetica,sans-Serif" font-size="10.00">dbgout::open_dbg_context</text>
</a>
</g>
</g>
<!-- Node1&#45;&gt;Node5 -->
<g id="edge11_Node000001_Node000005" class="edge">
<title>Node1&#45;&gt;Node5</title>
<g id="a_edge11_Node000001_Node000005"><a xlink:title=" ">
<path fill="none" stroke="#63b8ff" d="M47.78,-92.92C58.46,-96.75 71.43,-100.72 83.5,-102.62 105.25,-106.05 129.07,-106.01 150.89,-104.5"/>
<polygon fill="#63b8ff" stroke="#63b8ff" points="150.91,-108.01 160.59,-103.71 150.34,-101.03 150.91,-108.01"/>
</a>
</g>
</g>
<!-- Node6 -->
<g id="Node000006" class="node">
<title>Node6</title>
<g id="a_Node000006"><a xlink:href="../../d6/d77/fouri_8f90.html#a0f902f8d584a395f9db7175079d273c7" target="_top" xlink:title="Compute Fourier integrals and build amatrix.">
<polygon fill="white" stroke="#666666" points="122.38,-93.25 87.62,-93.25 87.62,-74 122.38,-74 122.38,-93.25"/>
<text text-anchor="middle" x="105" y="-79.75" font-family="Helvetica,sans-Serif" font-size="10.00">fouri</text>
</a>
</g>
</g>
<!-- Node1&#45;&gt;Node6 -->
<g id="edge6_Node000001_Node000006" class="edge">
<title>Node1&#45;&gt;Node6</title>
<g id="a_edge6_Node000001_Node000006"><a xlink:title=" ">
<path fill="none" stroke="#63b8ff" d="M47.67,-83.62C56.45,-83.62 66.55,-83.62 75.77,-83.62"/>
<polygon fill="#63b8ff" stroke="#63b8ff" points="75.66,-87.13 85.66,-83.63 75.66,-80.13 75.66,-87.13"/>
</a>
</g>
</g>
<!-- Node7 -->
<g id="Node000007" class="node">
<title>Node7</title>
<g id="a_Node000007"><a xlink:href="../../d0/d1c/fourp_8f90.html#add725dd420251115fd60182dc992503c" target="_top" xlink:title="Perform Fourier integrals of Green&#39;s function kernel.">
<polygon fill="white" stroke="#666666" points="123.88,-56.25 86.12,-56.25 86.12,-37 123.88,-37 123.88,-56.25"/>
<text text-anchor="middle" x="105" y="-42.75" font-family="Helvetica,sans-Serif" font-size="10.00">fourp</text>
</a>
</g>
</g>
<!-- Node1&#45;&gt;Node7 -->
<g id="edge8_Node000001_Node000007" class="edge">
<title>Node1&#45;&gt;Node7</title>
<g id="a_edge8_Node000001_Node000007"><a xlink:title=" ">
<path fill="none" stroke="#63b8ff" d="M46.41,-73.51C55.4,-69.32 65.95,-64.39 75.55,-59.91"/>
<polygon fill="#63b8ff" stroke="#63b8ff" points="76.9,-63.14 84.48,-55.74 73.94,-56.8 76.9,-63.14"/>
</a>
</g>
</g>
<!-- Node8 -->
<g id="Node000008" class="node">
<title>Node8</title>
<g id="a_Node000008"><a xlink:href="../../df/d2d/greenf_8f90.html#acd9d25905cc799c9fcd4d08a3cbb1e65" target="_top" xlink:title="Compute the regularized evaluation of the Green&#39;s function and the source term.">
<polygon fill="white" stroke="#666666" points="126.5,-19.25 83.5,-19.25 83.5,0 126.5,0 126.5,-19.25"/>
<text text-anchor="middle" x="105" y="-5.75" font-family="Helvetica,sans-Serif" font-size="10.00">greenf</text>
</a>
</g>
</g>
<!-- Node1&#45;&gt;Node8 -->
<g id="edge10_Node000001_Node000008" class="edge">
<title>Node1&#45;&gt;Node8</title>
<g id="a_edge10_Node000001_Node000008"><a xlink:title=" ">
<path fill="none" stroke="#63b8ff" d="M35.03,-73.58C46.66,-62.27 66.24,-43.41 83.5,-27.62 83.78,-27.37 84.05,-27.12 84.33,-26.87"/>
<polygon fill="#63b8ff" stroke="#63b8ff" points="86.39,-29.72 91.52,-20.45 81.73,-24.5 86.39,-29.72"/>
</a>
</g>
</g>
<!-- Node3 -->
<g id="Node000003" class="node">
<title>Node3</title>
<g id="a_Node000003"><a xlink:href="../../df/df3/analysum_8f90.html#aa51b1a5786e7b5719fe2ca679efc66b0" target="_top" xlink:title="Compute the (m=0 or n=0) part of the DFT of the analytical Fourier transforms of the equivalently&#45;sin...">
<polygon fill="white" stroke="#666666" points="255.38,-200.25 198.12,-200.25 198.12,-181 255.38,-181 255.38,-200.25"/>
<text text-anchor="middle" x="226.75" y="-186.75" font-family="Helvetica,sans-Serif" font-size="10.00">analysum</text>
</a>
</g>
</g>
<!-- Node2&#45;&gt;Node3 -->
<g id="edge2_Node000002_Node000003" class="edge">
<title>Node2&#45;&gt;Node3</title>
<g id="a_edge2_Node000002_Node000003"><a xlink:title=" ">
<path fill="none" stroke="#63b8ff" d="M126.04,-164.81C142.6,-169.1 166.58,-175.31 186.88,-180.56"/>
<polygon fill="#63b8ff" stroke="#63b8ff" points="185.99,-183.95 196.54,-183.06 187.74,-177.17 185.99,-183.95"/>
</a>
</g>
</g>
<!-- Node4 -->
<g id="Node000004" class="node">
<title>Node4</title>
<g id="a_Node000004"><a xlink:href="../../d1/d90/analysum2_8f90.html#a47a0d185131a197c6fc62ee5d68d62fb" target="_top" xlink:title="Compute the (m&gt;0 and n&gt;0) part of the DFT of the analytical Fourier transforms of the equivalently&#45;si...">
<polygon fill="white" stroke="#666666" points="258,-163.25 195.5,-163.25 195.5,-144 258,-144 258,-163.25"/>
<text text-anchor="middle" x="226.75" y="-149.75" font-family="Helvetica,sans-Serif" font-size="10.00">analysum2</text>
</a>
</g>
</g>
<!-- Node2&#45;&gt;Node4 -->
<g id="edge3_Node000002_Node000004" class="edge">
<title>Node2&#45;&gt;Node4</title>
<g id="a_edge3_Node000002_Node000004"><a xlink:title=" ">
<path fill="none" stroke="#63b8ff" d="M126.04,-158.62C141.78,-157.83 164.22,-156.71 183.84,-155.72"/>
<polygon fill="#63b8ff" stroke="#63b8ff" points="183.97,-159.22 193.78,-155.23 183.62,-152.23 183.97,-159.22"/>
</a>
</g>
</g>
<!-- Node2&#45;&gt;Node5 -->
<g id="edge4_Node000002_Node000005" class="edge">
<title>Node2&#45;&gt;Node5</title>
<g id="a_edge4_Node000002_Node000005"><a xlink:title=" ">
<path fill="none" stroke="#63b8ff" d="M124.19,-149.6C143.62,-138.89 174.68,-121.77 197.34,-109.29"/>
<polygon fill="#63b8ff" stroke="#63b8ff" points="199,-112.37 206.07,-104.47 195.62,-106.24 199,-112.37"/>
</a>
</g>
</g>
<!-- Node5&#45;&gt;Node5 -->
<g id="edge5_Node000005_Node000005" class="edge">
<title>Node5&#45;&gt;Node5</title>
<g id="a_edge5_Node000005_Node000005"><a xlink:title=" ">
<path fill="none" stroke="#63b8ff" d="M207.69,-103.54C199,-112.15 205.35,-121.25 226.75,-121.25 238.45,-121.25 245.66,-118.53 248.36,-114.65"/>
<polygon fill="#63b8ff" stroke="#63b8ff" points="251.8,-113.98 246.15,-105.01 244.97,-115.54 251.8,-113.98"/>
</a>
</g>
</g>
<!-- Node6&#45;&gt;Node5 -->
<g id="edge7_Node000006_Node000005" class="edge">
<title>Node6&#45;&gt;Node5</title>
<g id="a_edge7_Node000006_Node000005"><a xlink:title=" ">
<path fill="none" stroke="#63b8ff" d="M122.65,-85.02C130.47,-85.67 140.4,-86.5 151,-87.38"/>
<polygon fill="#63b8ff" stroke="#63b8ff" points="150.45,-90.85 160.71,-88.19 151.03,-83.87 150.45,-90.85"/>
</a>
</g>
</g>
<!-- Node7&#45;&gt;Node5 -->
<g id="edge9_Node000007_Node000005" class="edge">
<title>Node7&#45;&gt;Node5</title>
<g id="a_edge9_Node000007_Node000005"><a xlink:title=" ">
<path fill="none" stroke="#63b8ff" d="M124.19,-53.76C141.54,-60.57 168.16,-71.02 189.8,-79.51"/>
<polygon fill="#63b8ff" stroke="#63b8ff" points="188.27,-82.68 198.86,-83.07 190.83,-76.16 188.27,-82.68"/>
</a>
</g>
</g>
</g>
</svg>
</svg>

<style type='text/css'>
<![CDATA[
[data-mouse-over-selected='false'] { opacity: 0.7; }
[data-mouse-over-selected='true']  { opacity: 1.0; }
]]>
</style>
<script type="application/ecmascript"><![CDATA[
document.addEventListener('DOMContentLoaded', (event) => {
  highlightEdges();
  highlightAdjacentNodes();
});
]]></script>
</svg>
