<?xml version="1.0" encoding="UTF-8" standalone="no"?>
<!DOCTYPE svg PUBLIC "-//W3C//DTD SVG 1.1//EN"
 "http://www.w3.org/Graphics/SVG/1.1/DTD/svg11.dtd">
<!-- Generated by graphviz version 2.49.3 (20211027.1501)
 -->
<!-- Title: scalpot Pages: 1 -->
<svg width="301pt" height="231pt"
 viewBox="0.00 0.00 301.00 231.00" xmlns="http://www.w3.org/2000/svg" xmlns:xlink="http://www.w3.org/1999/xlink">
<g id="graph0" class="graph" transform="scale(1 1) rotate(0) translate(4 227)">
<title>scalpot</title>
<polygon fill="white" stroke="transparent" points="-4,4 -4,-227 297,-227 297,4 -4,4"/>
<!-- Node1 -->
<g id="node1" class="node">
<title>Node1</title>
<g id="a_node1"><a xlink:title="Compute all required terms for solving for the scalar magnetic potential.">
<polygon fill="#bfbfbf" stroke="black" points="0,-76.5 0,-95.5 48,-95.5 48,-76.5 0,-76.5"/>
<text text-anchor="middle" x="24" y="-83.5" font-family="Helvetica,sans-Serif" font-size="10.00">scalpot</text>
</a>
</g>
</g>
<!-- Node2 -->
<g id="node2" class="node">
<title>Node2</title>
<g id="a_node2"><a xlink:href="../../da/d73/analyt_8f90.html#a60edcf4884aa60f6d96c258a97255756" target="_top" xlink:title="Compute the analytical&#45;and&#45;numerical 4D Fourier integrals over the equivalently&#45;singular functions.">
<polygon fill="white" stroke="black" points="85,-156.5 85,-175.5 127,-175.5 127,-156.5 85,-156.5"/>
<text text-anchor="middle" x="106" y="-163.5" font-family="Helvetica,sans-Serif" font-size="10.00">analyt</text>
</a>
</g>
</g>
<!-- Node1&#45;&gt;Node2 -->
<g id="edge1" class="edge">
<title>Node1&#45;&gt;Node2</title>
<path fill="none" stroke="midnightblue" d="M34.81,-95.81C48,-109 71.68,-132.68 87.85,-148.85"/>
<polygon fill="midnightblue" stroke="midnightblue" points="85.56,-151.51 95.11,-156.11 90.51,-146.56 85.56,-151.51"/>
</g>
<!-- Node5 -->
<g id="node5" class="node">
<title>Node5</title>
<g id="a_node5"><a xlink:href="../../d8/dfd/namespacedbgout.html#acdd1612a38e44b6469dc03d9d1c6ceed" target="_top" xlink:title="check if any output is desired for the current iteration check if the given context should be openend...">
<polygon fill="white" stroke="black" points="164,-109.5 164,-128.5 293,-128.5 293,-109.5 164,-109.5"/>
<text text-anchor="middle" x="228.5" y="-116.5" font-family="Helvetica,sans-Serif" font-size="10.00">dbgout::open_dbg_context</text>
</a>
</g>
</g>
<!-- Node1&#45;&gt;Node5 -->
<g id="edge9" class="edge">
<title>Node1&#45;&gt;Node5</title>
<path fill="none" stroke="midnightblue" d="M48.23,-94.75C58.97,-98.47 71.99,-102.51 84,-105 106.42,-109.65 131.15,-112.76 153.66,-114.85"/>
<polygon fill="midnightblue" stroke="midnightblue" points="153.57,-118.35 163.84,-115.73 154.18,-111.38 153.57,-118.35"/>
</g>
<!-- Node6 -->
<g id="node6" class="node">
<title>Node6</title>
<g id="a_node6"><a xlink:href="../../d6/d77/fouri_8f90.html#a0f902f8d584a395f9db7175079d273c7" target="_top" xlink:title="Compute Fourier integrals and build amatrix.">
<polygon fill="white" stroke="black" points="88.5,-76.5 88.5,-95.5 123.5,-95.5 123.5,-76.5 88.5,-76.5"/>
<text text-anchor="middle" x="106" y="-83.5" font-family="Helvetica,sans-Serif" font-size="10.00">fouri</text>
</a>
</g>
</g>
<!-- Node1&#45;&gt;Node6 -->
<g id="edge6" class="edge">
<title>Node1&#45;&gt;Node6</title>
<path fill="none" stroke="midnightblue" d="M48.14,-86C57.46,-86 68.28,-86 77.96,-86"/>
<polygon fill="midnightblue" stroke="midnightblue" points="78.26,-89.5 88.26,-86 78.26,-82.5 78.26,-89.5"/>
</g>
<!-- Node7 -->
<g id="node7" class="node">
<title>Node7</title>
<g id="a_node7"><a xlink:href="../../d0/d1c/fourp_8f90.html#add725dd420251115fd60182dc992503c" target="_top" xlink:title="Perform Fourier integrals of Green&#39;s function kernel.">
<polygon fill="white" stroke="black" points="87,-38.5 87,-57.5 125,-57.5 125,-38.5 87,-38.5"/>
<text text-anchor="middle" x="106" y="-45.5" font-family="Helvetica,sans-Serif" font-size="10.00">fourp</text>
</a>
</g>
</g>
<!-- Node1&#45;&gt;Node7 -->
<g id="edge7" class="edge">
<title>Node1&#45;&gt;Node7</title>
<path fill="none" stroke="midnightblue" d="M45.19,-76.41C54.97,-71.76 66.86,-66.11 77.46,-61.08"/>
<polygon fill="midnightblue" stroke="midnightblue" points="79.2,-64.13 86.73,-56.68 76.2,-57.81 79.2,-64.13"/>
</g>
<!-- Node8 -->
<g id="node8" class="node">
<title>Node8</title>
<g id="a_node8"><a xlink:href="../../df/d2d/greenf_8f90.html#acd9d25905cc799c9fcd4d08a3cbb1e65" target="_top" xlink:title="Compute the regularized evaluation of the Green&#39;s function and the source term.">
<polygon fill="white" stroke="black" points="84,-0.5 84,-19.5 128,-19.5 128,-0.5 84,-0.5"/>
<text text-anchor="middle" x="106" y="-7.5" font-family="Helvetica,sans-Serif" font-size="10.00">greenf</text>
</a>
</g>
</g>
<!-- Node1&#45;&gt;Node8 -->
<g id="edge8" class="edge">
<title>Node1&#45;&gt;Node8</title>
<path fill="none" stroke="midnightblue" d="M34.93,-76.22C46.57,-64.78 66.52,-45.34 84,-29 84.93,-28.13 85.89,-27.24 86.85,-26.35"/>
<polygon fill="midnightblue" stroke="midnightblue" points="89.23,-28.92 94.26,-19.6 84.51,-23.75 89.23,-28.92"/>
</g>
<!-- Node3 -->
<g id="node3" class="node">
<title>Node3</title>
<g id="a_node3"><a xlink:href="../../df/df3/analysum_8f90.html#aa51b1a5786e7b5719fe2ca679efc66b0" target="_top" xlink:title="Compute the (m=0 or n=0) part of the DFT of the analytical Fourier transforms of the equivalently&#45;sin...">
<polygon fill="white" stroke="black" points="199.5,-203.5 199.5,-222.5 257.5,-222.5 257.5,-203.5 199.5,-203.5"/>
<text text-anchor="middle" x="228.5" y="-210.5" font-family="Helvetica,sans-Serif" font-size="10.00">analysum</text>
</a>
</g>
</g>
<!-- Node2&#45;&gt;Node3 -->
<g id="edge2" class="edge">
<title>Node2&#45;&gt;Node3</title>
<path fill="none" stroke="midnightblue" d="M124.63,-175.6C135.72,-181.41 150.45,-188.69 164,-194 172.16,-197.2 181.09,-200.18 189.61,-202.78"/>
<polygon fill="midnightblue" stroke="midnightblue" points="188.76,-206.18 199.34,-205.66 190.74,-199.47 188.76,-206.18"/>
</g>
<!-- Node4 -->
<g id="node4" class="node">
<title>Node4</title>
<g id="a_node4"><a xlink:href="../../d1/d90/analysum2_8f90.html#a47a0d185131a197c6fc62ee5d68d62fb" target="_top" xlink:title="Compute the (m&gt;0 and n&gt;0) part of the DFT of the analytical Fourier transforms of the equivalently&#45;si...">
<polygon fill="white" stroke="black" points="197,-165.5 197,-184.5 260,-184.5 260,-165.5 197,-165.5"/>
<text text-anchor="middle" x="228.5" y="-172.5" font-family="Helvetica,sans-Serif" font-size="10.00">analysum2</text>
</a>
</g>
</g>
<!-- Node2&#45;&gt;Node4 -->
<g id="edge3" class="edge">
<title>Node2&#45;&gt;Node4</title>
<path fill="none" stroke="midnightblue" d="M127.17,-167.51C143.37,-168.72 166.65,-170.46 186.71,-171.95"/>
<polygon fill="midnightblue" stroke="midnightblue" points="186.62,-175.46 196.85,-172.71 187.14,-168.48 186.62,-175.46"/>
</g>
<!-- Node2&#45;&gt;Node5 -->
<g id="edge4" class="edge">
<title>Node2&#45;&gt;Node5</title>
<path fill="none" stroke="midnightblue" d="M127.17,-158.13C145.3,-151.06 172.28,-140.54 193.7,-132.18"/>
<polygon fill="midnightblue" stroke="midnightblue" points="195.06,-135.41 203.1,-128.52 192.51,-128.89 195.06,-135.41"/>
</g>
<!-- Node5&#45;&gt;Node5 -->
<g id="edge5" class="edge">
<title>Node5&#45;&gt;Node5</title>
<path fill="none" stroke="midnightblue" d="M209.7,-128.76C200.55,-137.57 206.82,-147 228.5,-147 242.39,-147 249.96,-143.13 251.19,-138.03"/>
<polygon fill="midnightblue" stroke="midnightblue" points="254.4,-136.62 247.3,-128.76 247.94,-139.33 254.4,-136.62"/>
</g>
</g>
</svg>
