<?xml version="1.0" encoding="UTF-8" standalone="no"?>
<!DOCTYPE svg PUBLIC "-//W3C//DTD SVG 1.1//EN"
 "http://www.w3.org/Graphics/SVG/1.1/DTD/svg11.dtd">
<!-- Generated by graphviz version 2.49.3 (20211215.1918)
 -->
<!-- Title: scalpot Pages: 1 -->
<svg width="301pt" height="213pt"
 viewBox="0.00 0.00 301.00 213.00" xmlns="http://www.w3.org/2000/svg" xmlns:xlink="http://www.w3.org/1999/xlink">
<g id="graph0" class="graph" transform="scale(1 1) rotate(0) translate(4 209)">
<title>scalpot</title>
<polygon fill="white" stroke="transparent" points="-4,4 -4,-209 297,-209 297,4 -4,4"/>
<!-- Node1 -->
<g id="node1" class="node">
<title>Node1</title>
<g id="a_node1"><a xlink:title="Compute all required terms for solving for the scalar magnetic potential.">
<polygon fill="#bfbfbf" stroke="black" points="0,-76.5 0,-95.5 48,-95.5 48,-76.5 0,-76.5"/>
<text text-anchor="middle" x="24" y="-83.5" font-family="Helvetica,sans-Serif" font-size="10.00">scalpot</text>
</a>
</g>
</g>
<!-- Node2 -->
<g id="node2" class="node">
<title>Node2</title>
<g id="a_node2"><a xlink:href="../../da/d73/analyt_8f90.html#a60edcf4884aa60f6d96c258a97255756" target="_top" xlink:title="Compute the analytical&#45;and&#45;numerical 4D Fourier integrals over the equivalently&#45;singular functions.">
<polygon fill="white" stroke="black" points="85,-152.5 85,-171.5 127,-171.5 127,-152.5 85,-152.5"/>
<text text-anchor="middle" x="106" y="-159.5" font-family="Helvetica,sans-Serif" font-size="10.00">analyt</text>
</a>
</g>
</g>
<!-- Node1&#45;&gt;Node2 -->
<g id="edge1" class="edge">
<title>Node1&#45;&gt;Node2</title>
<path fill="none" stroke="midnightblue" d="M35.13,-95.63C48.24,-108.07 71.28,-129.96 87.3,-145.19"/>
<polygon fill="midnightblue" stroke="midnightblue" points="85.29,-148.1 94.95,-152.45 90.11,-143.03 85.29,-148.1"/>
</g>
<!-- Node5 -->
<g id="node5" class="node">
<title>Node5</title>
<g id="a_node5"><a xlink:href="../../d8/dfd/namespacedbgout.html#acdd1612a38e44b6469dc03d9d1c6ceed" target="_top" xlink:title="check if any output is desired for the current iteration check if the given context should be openend...">
<polygon fill="white" stroke="black" points="164,-86.5 164,-105.5 293,-105.5 293,-86.5 164,-86.5"/>
<text text-anchor="middle" x="228.5" y="-93.5" font-family="Helvetica,sans-Serif" font-size="10.00">dbgout::open_dbg_context</text>
</a>
</g>
</g>
<!-- Node1&#45;&gt;Node5 -->
<g id="edge11" class="edge">
<title>Node1&#45;&gt;Node5</title>
<path fill="none" stroke="midnightblue" d="M48.13,-95.3C58.86,-99.12 71.88,-103.1 84,-105 107.84,-108.74 134.15,-108.38 157.65,-106.47"/>
<polygon fill="midnightblue" stroke="midnightblue" points="158.25,-109.93 167.88,-105.53 157.61,-102.96 158.25,-109.93"/>
</g>
<!-- Node6 -->
<g id="node6" class="node">
<title>Node6</title>
<g id="a_node6"><a xlink:href="../../d6/d77/fouri_8f90.html#a0f902f8d584a395f9db7175079d273c7" target="_top" xlink:title="Compute Fourier integrals and build amatrix.">
<polygon fill="white" stroke="black" points="88.5,-76.5 88.5,-95.5 123.5,-95.5 123.5,-76.5 88.5,-76.5"/>
<text text-anchor="middle" x="106" y="-83.5" font-family="Helvetica,sans-Serif" font-size="10.00">fouri</text>
</a>
</g>
</g>
<!-- Node1&#45;&gt;Node6 -->
<g id="edge6" class="edge">
<title>Node1&#45;&gt;Node6</title>
<path fill="none" stroke="midnightblue" d="M48.14,-86C57.46,-86 68.28,-86 77.96,-86"/>
<polygon fill="midnightblue" stroke="midnightblue" points="78.26,-89.5 88.26,-86 78.26,-82.5 78.26,-89.5"/>
</g>
<!-- Node7 -->
<g id="node7" class="node">
<title>Node7</title>
<g id="a_node7"><a xlink:href="../../d0/d1c/fourp_8f90.html#add725dd420251115fd60182dc992503c" target="_top" xlink:title="Perform Fourier integrals of Green&#39;s function kernel.">
<polygon fill="white" stroke="black" points="87,-38.5 87,-57.5 125,-57.5 125,-38.5 87,-38.5"/>
<text text-anchor="middle" x="106" y="-45.5" font-family="Helvetica,sans-Serif" font-size="10.00">fourp</text>
</a>
</g>
</g>
<!-- Node1&#45;&gt;Node7 -->
<g id="edge8" class="edge">
<title>Node1&#45;&gt;Node7</title>
<path fill="none" stroke="midnightblue" d="M45.19,-76.41C54.97,-71.76 66.86,-66.11 77.46,-61.08"/>
<polygon fill="midnightblue" stroke="midnightblue" points="79.2,-64.13 86.73,-56.68 76.2,-57.81 79.2,-64.13"/>
</g>
<!-- Node8 -->
<g id="node8" class="node">
<title>Node8</title>
<g id="a_node8"><a xlink:href="../../df/d2d/greenf_8f90.html#acd9d25905cc799c9fcd4d08a3cbb1e65" target="_top" xlink:title="Compute the regularized evaluation of the Green&#39;s function and the source term.">
<polygon fill="white" stroke="black" points="84,-0.5 84,-19.5 128,-19.5 128,-0.5 84,-0.5"/>
<text text-anchor="middle" x="106" y="-7.5" font-family="Helvetica,sans-Serif" font-size="10.00">greenf</text>
</a>
</g>
</g>
<!-- Node1&#45;&gt;Node8 -->
<g id="edge10" class="edge">
<title>Node1&#45;&gt;Node8</title>
<path fill="none" stroke="midnightblue" d="M34.93,-76.22C46.57,-64.78 66.52,-45.34 84,-29 84.93,-28.13 85.89,-27.24 86.85,-26.35"/>
<polygon fill="midnightblue" stroke="midnightblue" points="89.23,-28.92 94.26,-19.6 84.51,-23.75 89.23,-28.92"/>
</g>
<!-- Node3 -->
<g id="node3" class="node">
<title>Node3</title>
<g id="a_node3"><a xlink:href="../../df/df3/analysum_8f90.html#aa51b1a5786e7b5719fe2ca679efc66b0" target="_top" xlink:title="Compute the (m=0 or n=0) part of the DFT of the analytical Fourier transforms of the equivalently&#45;sin...">
<polygon fill="white" stroke="black" points="199.5,-185.5 199.5,-204.5 257.5,-204.5 257.5,-185.5 199.5,-185.5"/>
<text text-anchor="middle" x="228.5" y="-192.5" font-family="Helvetica,sans-Serif" font-size="10.00">analysum</text>
</a>
</g>
</g>
<!-- Node2&#45;&gt;Node3 -->
<g id="edge2" class="edge">
<title>Node2&#45;&gt;Node3</title>
<path fill="none" stroke="midnightblue" d="M127.17,-167.52C144.1,-172.16 168.75,-178.91 189.38,-184.56"/>
<polygon fill="midnightblue" stroke="midnightblue" points="188.57,-187.97 199.14,-187.23 190.41,-181.21 188.57,-187.97"/>
</g>
<!-- Node4 -->
<g id="node4" class="node">
<title>Node4</title>
<g id="a_node4"><a xlink:href="../../d1/d90/analysum2_8f90.html#a47a0d185131a197c6fc62ee5d68d62fb" target="_top" xlink:title="Compute the (m&gt;0 and n&gt;0) part of the DFT of the analytical Fourier transforms of the equivalently&#45;si...">
<polygon fill="white" stroke="black" points="197,-147.5 197,-166.5 260,-166.5 260,-147.5 197,-147.5"/>
<text text-anchor="middle" x="228.5" y="-154.5" font-family="Helvetica,sans-Serif" font-size="10.00">analysum2</text>
</a>
</g>
</g>
<!-- Node2&#45;&gt;Node4 -->
<g id="edge3" class="edge">
<title>Node2&#45;&gt;Node4</title>
<path fill="none" stroke="midnightblue" d="M127.17,-161.16C143.37,-160.49 166.65,-159.52 186.71,-158.69"/>
<polygon fill="midnightblue" stroke="midnightblue" points="187.01,-162.18 196.85,-158.27 186.72,-155.19 187.01,-162.18"/>
</g>
<!-- Node2&#45;&gt;Node5 -->
<g id="edge4" class="edge">
<title>Node2&#45;&gt;Node5</title>
<path fill="none" stroke="midnightblue" d="M124.52,-152.4C144.6,-141.41 177.73,-123.26 200.97,-110.53"/>
<polygon fill="midnightblue" stroke="midnightblue" points="202.87,-113.48 209.96,-105.61 199.51,-107.34 202.87,-113.48"/>
</g>
<!-- Node5&#45;&gt;Node5 -->
<g id="edge5" class="edge">
<title>Node5&#45;&gt;Node5</title>
<path fill="none" stroke="midnightblue" d="M209.7,-105.76C200.55,-114.57 206.82,-124 228.5,-124 242.39,-124 249.96,-120.13 251.19,-115.03"/>
<polygon fill="midnightblue" stroke="midnightblue" points="254.4,-113.62 247.3,-105.76 247.94,-116.33 254.4,-113.62"/>
</g>
<!-- Node6&#45;&gt;Node5 -->
<g id="edge7" class="edge">
<title>Node6&#45;&gt;Node5</title>
<path fill="none" stroke="midnightblue" d="M123.76,-87.39C132.01,-88.08 142.59,-88.95 153.83,-89.89"/>
<polygon fill="midnightblue" stroke="midnightblue" points="153.58,-93.38 163.84,-90.72 154.16,-86.4 153.58,-93.38"/>
</g>
<!-- Node7&#45;&gt;Node5 -->
<g id="edge9" class="edge">
<title>Node7&#45;&gt;Node5</title>
<path fill="none" stroke="midnightblue" d="M125.04,-55.19C143.23,-62.43 171.73,-73.78 194.06,-82.68"/>
<polygon fill="midnightblue" stroke="midnightblue" points="192.92,-85.99 203.51,-86.44 195.51,-79.49 192.92,-85.99"/>
</g>
</g>
</svg>
