<?xml version="1.0" encoding="UTF-8" standalone="no"?>
<!DOCTYPE svg PUBLIC "-//W3C//DTD SVG 1.1//EN"
 "http://www.w3.org/Graphics/SVG/1.1/DTD/svg11.dtd">
<!-- Generated by graphviz version 12.0.0 (20240704.0754)
 -->
<!-- Title: precal Pages: 1 -->
<svg width="215pt" height="45pt"
 viewBox="0.00 0.00 214.75 45.25" xmlns="http://www.w3.org/2000/svg" xmlns:xlink="http://www.w3.org/1999/xlink">
<g id="graph0" class="graph" transform="scale(1 1) rotate(0) translate(4 41.25)">
<title>precal</title>
<!-- Node1 -->
<g id="Node000001" class="node">
<title>Node1</title>
<g id="a_Node000001"><a xlink:title="Pre&#45;compute constant terms required for NESTOR.">
<polygon fill="#999999" stroke="#666666" points="42.25,-19.25 0,-19.25 0,0 42.25,0 42.25,-19.25"/>
<text text-anchor="middle" x="21.12" y="-5.75" font-family="Helvetica,sans-Serif" font-size="10.00">precal</text>
</a>
</g>
</g>
<!-- Node2 -->
<g id="Node000002" class="node">
<title>Node2</title>
<g id="a_Node000002"><a xlink:href="../../d8/dfd/namespacedbgout.html#acdd1612a38e44b6469dc03d9d1c6ceed" target="_top" xlink:title="check if any output is desired for the current iteration check if the given context should be openend...">
<polygon fill="white" stroke="#666666" points="206.75,-19.25 78.25,-19.25 78.25,0 206.75,0 206.75,-19.25"/>
<text text-anchor="middle" x="142.5" y="-5.75" font-family="Helvetica,sans-Serif" font-size="10.00">dbgout::open_dbg_context</text>
</a>
</g>
</g>
<!-- Node1&#45;&gt;Node2 -->
<g id="edge1_Node000001_Node000002" class="edge">
<title>Node1&#45;&gt;Node2</title>
<g id="a_edge1_Node000001_Node000002"><a xlink:title=" ">
<path fill="none" stroke="#63b8ff" d="M42.65,-9.62C49.63,-9.62 57.89,-9.62 66.62,-9.62"/>
<polygon fill="#63b8ff" stroke="#63b8ff" points="66.35,-13.13 76.35,-9.63 66.35,-6.13 66.35,-13.13"/>
</a>
</g>
</g>
<!-- Node2&#45;&gt;Node2 -->
<g id="edge2_Node000002_Node000002" class="edge">
<title>Node2&#45;&gt;Node2</title>
<g id="a_edge2_Node000002_Node000002"><a xlink:title=" ">
<path fill="none" stroke="#63b8ff" d="M123.5,-19.54C114.83,-28.15 121.16,-37.25 142.5,-37.25 154.17,-37.25 161.35,-34.53 164.04,-30.65"/>
<polygon fill="#63b8ff" stroke="#63b8ff" points="167.48,-29.98 161.84,-21.01 160.66,-31.54 167.48,-29.98"/>
</a>
</g>
</g>
</g>
</svg>
