<?xml version="1.0" encoding="UTF-8" standalone="no"?>
<!DOCTYPE svg PUBLIC "-//W3C//DTD SVG 1.1//EN"
 "http://www.w3.org/Graphics/SVG/1.1/DTD/svg11.dtd">
<!-- Generated by graphviz version 7.1.0 (20230121.1956)
 -->
<!-- Title: precal Pages: 1 -->
<svg width="216pt" height="45pt"
 viewBox="0.00 0.00 216.00 45.00" xmlns="http://www.w3.org/2000/svg" xmlns:xlink="http://www.w3.org/1999/xlink">
<g id="graph0" class="graph" transform="scale(1 1) rotate(0) translate(4 41)">
<title>precal</title>
<!-- Node1 -->
<g id="node1" class="node">
<title>Node1</title>
<g id="a_node1"><a xlink:title="Pre&#45;compute constant terms required for NESTOR.">
<polygon fill="#999999" stroke="#666666" points="43,-19 0,-19 0,0 43,0 43,-19"/>
<text text-anchor="middle" x="21.5" y="-7" font-family="Helvetica,sans-Serif" font-size="10.00">precal</text>
</a>
</g>
</g>
<!-- Node2 -->
<g id="node2" class="node">
<title>Node2</title>
<g id="a_node2"><a xlink:href="../../d8/dfd/namespacedbgout.html#acdd1612a38e44b6469dc03d9d1c6ceed" target="_top" xlink:title="check if any output is desired for the current iteration check if the given context should be openend...">
<polygon fill="white" stroke="#666666" points="208,-19 79,-19 79,0 208,0 208,-19"/>
<text text-anchor="middle" x="143.5" y="-7" font-family="Helvetica,sans-Serif" font-size="10.00">dbgout::open_dbg_context</text>
</a>
</g>
</g>
<!-- Node1&#45;&gt;Node2 -->
<g id="edge1" class="edge">
<title>Node1&#45;&gt;Node2</title>
<path fill="none" stroke="#63b8ff" d="M43.4,-9.5C50.31,-9.5 58.45,-9.5 67.04,-9.5"/>
<polygon fill="#63b8ff" stroke="#63b8ff" points="67.01,-13 77.01,-9.5 67.01,-6 67.01,-13"/>
</g>
<!-- Node2&#45;&gt;Node2 -->
<g id="edge2" class="edge">
<title>Node2&#45;&gt;Node2</title>
<path fill="none" stroke="#63b8ff" d="M124.4,-19.37C115.69,-27.94 122.05,-37 143.5,-37 155.23,-37 162.45,-34.29 165.15,-30.43"/>
<polygon fill="#63b8ff" stroke="#63b8ff" points="168.6,-29.8 162.94,-20.84 161.78,-31.37 168.6,-29.8"/>
</g>
</g>
</svg>
