<?xml version="1.0" encoding="UTF-8" standalone="no"?>
<!DOCTYPE svg PUBLIC "-//W3C//DTD SVG 1.1//EN"
 "http://www.w3.org/Graphics/SVG/1.1/DTD/svg11.dtd">
<!-- Generated by graphviz version 2.49.3 (20211215.1918)
 -->
<!-- Title: dbgout::open_dbg_context Pages: 1 -->
<!--zoomable 1062 -->
<svg id="main" version="1.1" xmlns="http://www.w3.org/2000/svg" xmlns:xlink="http://www.w3.org/1999/xlink" xml:space="preserve" onload="init(evt)">
<style type="text/css"><![CDATA[
.edge:hover path { stroke: red; }
.edge:hover polygon { stroke: red; fill: red; }
]]></style>
<script type="text/javascript"><![CDATA[
var edges = document.getElementsByTagName('g');
if (edges && edges.length) {
  for (var i=0;i<edges.length;i++) {
    if (edges[i].id.substr(0,4)=='edge') {
      edges[i].setAttribute('class','edge');
    }
  }
}
]]></script>
        <defs>
                <circle id="rim" cx="0" cy="0" r="7"/>
                <circle id="rim2" cx="0" cy="0" r="3.5"/>
                <g id="zoomPlus">
                        <use xlink:href="#rim" fill="#404040">
                                <set attributeName="fill" to="#808080" begin="zoomplus.mouseover" end="zoomplus.mouseout"/>
                        </use>
                        <path d="M-4,0h8M0,-4v8" fill="none" stroke="white" stroke-width="1.5" pointer-events="none"/>
                </g>
                <g id="zoomMin">
                        <use xlink:href="#rim" fill="#404040">
                                <set attributeName="fill" to="#808080" begin="zoomminus.mouseover" end="zoomminus.mouseout"/>
                        </use>
                        <path d="M-4,0h8" fill="none" stroke="white" stroke-width="1.5" pointer-events="none"/>
                </g>
                <g id="dirArrow">
                        <path fill="none" stroke="white" stroke-width="1.5" d="M0,-3.0v7 M-2.5,-0.5L0,-3.0L2.5,-0.5"/>
                </g>
               <g id="resetDef">
                       <use xlink:href="#rim2" fill="#404040">
                               <set attributeName="fill" to="#808080" begin="reset.mouseover" end="reset.mouseout"/>
                       </use>
               </g>
        </defs>

<script type="text/javascript">
var viewWidth = 889;
var viewHeight = 1062;
var sectionId = 'dynsection-1';
</script>
<script xlink:href="../../svgpan.js"/>
<svg id="graph" class="graph">
<g id="viewport">
<title>dbgout::open_dbg_context</title>
<polygon fill="white" stroke="transparent" points="-4,4 -4,-1057.69 885,-1057.69 885,4 -4,4"/>
<!-- Node1 -->
<g id="node1" class="node">
<title>Node1</title>
<g id="a_node1"><a xlink:title="check if any output is desired for the current iteration check if the given context should be openend...">
<polygon fill="#bfbfbf" stroke="black" points="752,-531.19 752,-550.19 881,-550.19 881,-531.19 752,-531.19"/>
<text text-anchor="middle" x="816.5" y="-538.19" font-family="Helvetica,sans-Serif" font-size="10.00">dbgout::open_dbg_context</text>
</a>
</g>
</g>
<!-- Node1&#45;&gt;Node1 -->
<g id="edge41" class="edge">
<title>Node1&#45;&gt;Node1</title>
<path fill="none" stroke="midnightblue" d="M840.68,-559.72C839.36,-564.82 831.3,-568.69 816.5,-568.69 793.39,-568.69 786.72,-559.25 796.46,-550.45"/>
<polygon fill="midnightblue" stroke="midnightblue" points="843.81,-558.15 836.54,-550.45 837.42,-561 843.81,-558.15"/>
</g>
<!-- Node2 -->
<g id="node2" class="node">
<title>Node2</title>
<g id="a_node2"><a xlink:href="../../d8/d7d/add__fluxes_8f90.html#a988e7013ef02301b9cfbde5b8068d5af" target="_top" xlink:title="Add the magnetic fluxes to the tangential derivatives of &#160;to arrive at the contravariant magnetic fie...">
<polygon fill="white" stroke="black" points="654,-892.19 654,-911.19 716,-911.19 716,-892.19 654,-892.19"/>
<text text-anchor="middle" x="685" y="-899.19" font-family="Helvetica,sans-Serif" font-size="10.00">add_fluxes</text>
</a>
</g>
</g>
<!-- Node1&#45;&gt;Node2 -->
<g id="edge1" class="edge">
<title>Node1&#45;&gt;Node2</title>
<path fill="none" stroke="midnightblue" d="M814.53,-560.49C810.86,-616.61 793.71,-779.33 716,-882.69 713.26,-886.33 709.6,-889.46 705.77,-892.06"/>
<polygon fill="midnightblue" stroke="midnightblue" points="818.04,-560.38 815.13,-550.19 811.05,-559.97 818.04,-560.38"/>
</g>
<!-- Node3 -->
<g id="node3" class="node">
<title>Node3</title>
<g id="a_node3"><a xlink:href="../../d7/d61/bcovar_8f90.html#a1e1624195f0c0c7daa9f49d83bae5ce8" target="_top" xlink:title="Compute the covariant components of the magnetic field , .">
<polygon fill="white" stroke="black" points="555,-854.19 555,-873.19 601,-873.19 601,-854.19 555,-854.19"/>
<text text-anchor="middle" x="578" y="-861.19" font-family="Helvetica,sans-Serif" font-size="10.00">bcovar</text>
</a>
</g>
</g>
<!-- Node1&#45;&gt;Node3 -->
<g id="edge15" class="edge">
<title>Node1&#45;&gt;Node3</title>
<path fill="none" stroke="midnightblue" d="M813.45,-560.47C805.58,-631.99 774.8,-875.3 716,-920.69 674.19,-952.96 611.49,-896.99 588.17,-873.42"/>
<polygon fill="midnightblue" stroke="midnightblue" points="816.93,-560.84 814.51,-550.52 809.97,-560.09 816.93,-560.84"/>
</g>
<!-- Node4 -->
<g id="node4" class="node">
<title>Node4</title>
<g id="a_node4"><a xlink:href="../../d3/d4f/funct3d_8f90.html#a800bacc22176e16323899df87b55c547" target="_top" xlink:title="Evaluate the three&#45;dimensional MHD energy functional. Think of this as the &quot;forward model&quot; that tells...">
<polygon fill="white" stroke="black" points="345,-436.19 345,-455.19 394,-455.19 394,-436.19 345,-436.19"/>
<text text-anchor="middle" x="369.5" y="-443.19" font-family="Helvetica,sans-Serif" font-size="10.00">funct3d</text>
</a>
</g>
</g>
<!-- Node1&#45;&gt;Node4 -->
<g id="edge31" class="edge">
<title>Node1&#45;&gt;Node4</title>
<path fill="none" stroke="midnightblue" d="M813.7,-560.43C806.53,-634.03 777.41,-890.74 716,-938.69 694.28,-955.65 680.86,-944.83 654,-938.69 505.97,-904.83 484.84,-822.29 430,-680.69 413.21,-637.32 381.07,-493.7 372.59,-455.23"/>
<polygon fill="midnightblue" stroke="midnightblue" points="817.2,-560.53 814.66,-550.24 810.23,-559.87 817.2,-560.53"/>
</g>
<!-- Node5 -->
<g id="node5" class="node">
<title>Node5</title>
<g id="a_node5"><a xlink:href="../../de/da9/evolve_8f90.html#a8103e838be03904e03551e04f6b396e4" target="_top" xlink:title="Take a single time step in Fourier space to evolve the Fourier coefficients describing the equilibriu...">
<polygon fill="white" stroke="black" points="254,-455.19 254,-474.19 299,-474.19 299,-455.19 254,-455.19"/>
<text text-anchor="middle" x="276.5" y="-462.19" font-family="Helvetica,sans-Serif" font-size="10.00">evolve</text>
</a>
</g>
</g>
<!-- Node1&#45;&gt;Node5 -->
<g id="edge22" class="edge">
<title>Node1&#45;&gt;Node5</title>
<path fill="none" stroke="midnightblue" d="M813.12,-560.55C803.88,-634.75 768.3,-894.53 716,-956.69 673.32,-1007.42 645.3,-1015.69 579,-1015.69 579,-1015.69 579,-1015.69 465,-1015.69 345.76,-1015.69 287.02,-547.42 278.57,-474.25"/>
<polygon fill="midnightblue" stroke="midnightblue" points="816.63,-560.65 814.38,-550.3 809.69,-559.8 816.63,-560.65"/>
</g>
<!-- Node7 -->
<g id="node7" class="node">
<title>Node7</title>
<g id="a_node7"><a xlink:href="../../db/d61/vmec_8f90.html#a6d38ab7be2f9d818da4541e1d352ea23" target="_top" xlink:title="Main driver for VMEC.">
<polygon fill="white" stroke="black" points="81,-189.19 81,-208.19 122,-208.19 122,-189.19 81,-189.19"/>
<text text-anchor="middle" x="101.5" y="-196.19" font-family="Helvetica,sans-Serif" font-size="10.00">vmec</text>
</a>
</g>
</g>
<!-- Node1&#45;&gt;Node7 -->
<g id="edge69" class="edge">
<title>Node1&#45;&gt;Node7</title>
<path fill="none" stroke="midnightblue" d="M813.57,-560.34C805.57,-638.46 772.66,-926.03 716,-994.69 673.8,-1045.82 645.3,-1053.69 579,-1053.69 579,-1053.69 579,-1053.69 275.5,-1053.69 93.77,-1053.69 100.73,-302.22 102.31,-208.29"/>
<polygon fill="midnightblue" stroke="midnightblue" points="817.06,-560.69 814.57,-550.39 810.09,-559.99 817.06,-560.69"/>
</g>
<!-- Node10 -->
<g id="node10" class="node">
<title>Node10</title>
<g id="a_node10"><a xlink:href="../../da/d73/analyt_8f90.html#a60edcf4884aa60f6d96c258a97255756" target="_top" xlink:title="Compute the analytical&#45;and&#45;numerical 4D Fourier integrals over the equivalently&#45;singular functions.">
<polygon fill="white" stroke="black" points="664,-702.19 664,-721.19 706,-721.19 706,-702.19 664,-702.19"/>
<text text-anchor="middle" x="685" y="-709.19" font-family="Helvetica,sans-Serif" font-size="10.00">analyt</text>
</a>
</g>
</g>
<!-- Node1&#45;&gt;Node10 -->
<g id="edge10" class="edge">
<title>Node1&#45;&gt;Node10</title>
<path fill="none" stroke="midnightblue" d="M806.62,-559.34C791.37,-589.95 757.79,-651.52 716,-692.69 712.49,-696.15 708.24,-699.3 704.06,-702"/>
<polygon fill="midnightblue" stroke="midnightblue" points="809.83,-560.75 811.07,-550.23 803.54,-557.68 809.83,-560.75"/>
</g>
<!-- Node11 -->
<g id="node11" class="node">
<title>Node11</title>
<g id="a_node11"><a xlink:href="../../d0/d19/scalpot_8f90.html#afb9e58849c5a27e486bdf4106f8bb84e" target="_top" xlink:title="Compute all required terms for solving for the scalar magnetic potential.">
<polygon fill="white" stroke="black" points="554,-664.19 554,-683.19 602,-683.19 602,-664.19 554,-664.19"/>
<text text-anchor="middle" x="578" y="-671.19" font-family="Helvetica,sans-Serif" font-size="10.00">scalpot</text>
</a>
</g>
</g>
<!-- Node1&#45;&gt;Node11 -->
<g id="edge59" class="edge">
<title>Node1&#45;&gt;Node11</title>
<path fill="none" stroke="midnightblue" d="M812.02,-560.55C803.73,-601.11 778.61,-692.8 716,-730.69 692.42,-744.95 680.11,-739.49 654,-730.69 626.1,-721.29 600.36,-696.93 587.53,-683.29"/>
<polygon fill="midnightblue" stroke="midnightblue" points="815.49,-561.04 813.93,-550.56 808.62,-559.72 815.49,-561.04"/>
</g>
<!-- Node12 -->
<g id="node12" class="node">
<title>Node12</title>
<g id="a_node12"><a xlink:href="../../dd/d6d/vacuum_8f90.html#a0acbc18d2ab7664835d797b42ce49a35" target="_top" xlink:title="Compute the vacuum contribution to the free&#45;boundary energy functional.">
<polygon fill="white" stroke="black" points="440.5,-569.19 440.5,-588.19 491.5,-588.19 491.5,-569.19 440.5,-569.19"/>
<text text-anchor="middle" x="466" y="-576.19" font-family="Helvetica,sans-Serif" font-size="10.00">vacuum</text>
</a>
</g>
</g>
<!-- Node1&#45;&gt;Node12 -->
<g id="edge68" class="edge">
<title>Node1&#45;&gt;Node12</title>
<path fill="none" stroke="midnightblue" d="M812.94,-560.58C806.18,-603.88 783.46,-706.18 716,-748.69 645.84,-792.9 599.7,-748.1 538,-692.69 503.31,-661.53 479.49,-609.48 470.73,-588.19"/>
<polygon fill="midnightblue" stroke="midnightblue" points="816.44,-560.87 814.39,-550.47 809.51,-559.88 816.44,-560.87"/>
</g>
<!-- Node14 -->
<g id="node14" class="node">
<title>Node14</title>
<g id="a_node14"><a xlink:href="../../db/d3d/bextern_8f90.html#a90228cc5f358147ae7f59953d6f9cced" target="_top" xlink:title="Compute the total magnetic field due to external coils and the net toroidal plasma current.">
<polygon fill="white" stroke="black" points="554,-588.19 554,-607.19 602,-607.19 602,-588.19 554,-588.19"/>
<text text-anchor="middle" x="578" y="-595.19" font-family="Helvetica,sans-Serif" font-size="10.00">bextern</text>
</a>
</g>
</g>
<!-- Node1&#45;&gt;Node14 -->
<g id="edge16" class="edge">
<title>Node1&#45;&gt;Node14</title>
<path fill="none" stroke="midnightblue" d="M765.66,-552.71C749.78,-556.54 732.15,-560.79 716,-564.69 676.04,-574.32 629.53,-585.52 602.27,-592.08"/>
<polygon fill="midnightblue" stroke="midnightblue" points="766.9,-556.01 775.8,-550.27 765.26,-549.21 766.9,-556.01"/>
</g>
<!-- Node15 -->
<g id="node15" class="node">
<title>Node15</title>
<g id="a_node15"><a xlink:href="../../d9/dff/calc__fbal_8f90.html#a6cdc3d21c48f66aeaff8ab5e639641b6" target="_top" xlink:title="Compute flux&#45;surface averaged radial force balance .">
<polygon fill="white" stroke="black" points="657,-816.19 657,-835.19 713,-835.19 713,-816.19 657,-816.19"/>
<text text-anchor="middle" x="685" y="-823.19" font-family="Helvetica,sans-Serif" font-size="10.00">calc_fbal</text>
</a>
</g>
</g>
<!-- Node1&#45;&gt;Node15 -->
<g id="edge18" class="edge">
<title>Node1&#45;&gt;Node15</title>
<path fill="none" stroke="midnightblue" d="M811.71,-560.48C802.13,-606.5 773.55,-722.78 716,-801.69 711.99,-807.18 706.41,-812.11 701.16,-816.05"/>
<polygon fill="midnightblue" stroke="midnightblue" points="815.15,-561.08 813.69,-550.59 808.29,-559.7 815.15,-561.08"/>
</g>
<!-- Node17 -->
<g id="node17" class="node">
<title>Node17</title>
<g id="a_node17"><a xlink:href="../../d4/dd1/fixaray_8f90.html#aca9a4c886a9423b95e8a9336071de2e3" target="_top" xlink:title="allocate and fill some fixed&#45;size arrays (only depending on Fourier resolution).">
<polygon fill="white" stroke="black" points="161,-151.19 161,-170.19 205,-170.19 205,-151.19 161,-151.19"/>
<text text-anchor="middle" x="183" y="-158.19" font-family="Helvetica,sans-Serif" font-size="10.00">fixaray</text>
</a>
</g>
</g>
<!-- Node1&#45;&gt;Node17 -->
<g id="edge23" class="edge">
<title>Node1&#45;&gt;Node17</title>
<path fill="none" stroke="midnightblue" d="M813.18,-520.73C804.47,-449.57 771.42,-209.91 716,-160.69 670.04,-119.87 640.47,-141.69 579,-141.69 579,-141.69 579,-141.69 368.5,-141.69 309.09,-141.69 239.48,-151.56 205.23,-157.07"/>
<polygon fill="midnightblue" stroke="midnightblue" points="809.74,-521.47 814.4,-530.99 816.69,-520.64 809.74,-521.47"/>
</g>
<!-- Node18 -->
<g id="node18" class="node">
<title>Node18</title>
<g id="a_node18"><a xlink:href="../../de/d0c/forces_8f90.html#a7b4708aaec3cc94526474c16bc3a16f0" target="_top" xlink:title="Compute the real&#45;space MHD forces.">
<polygon fill="white" stroke="black" points="444,-512.19 444,-531.19 488,-531.19 488,-512.19 444,-512.19"/>
<text text-anchor="middle" x="466" y="-519.19" font-family="Helvetica,sans-Serif" font-size="10.00">forces</text>
</a>
</g>
</g>
<!-- Node1&#45;&gt;Node18 -->
<g id="edge25" class="edge">
<title>Node1&#45;&gt;Node18</title>
<path fill="none" stroke="midnightblue" d="M774.83,-528.28C720.77,-513.36 622.24,-491.61 538,-502.69 520.92,-504.93 502.11,-510.09 488.14,-514.47"/>
<polygon fill="midnightblue" stroke="midnightblue" points="774.14,-531.73 784.72,-531.07 776.04,-524.99 774.14,-531.73"/>
</g>
<!-- Node19 -->
<g id="node19" class="node">
<title>Node19</title>
<g id="a_node19"><a xlink:href="../../d6/d77/fouri_8f90.html#a0f902f8d584a395f9db7175079d273c7" target="_top" xlink:title="Compute Fourier integrals and build amatrix.">
<polygon fill="white" stroke="black" points="667.5,-664.19 667.5,-683.19 702.5,-683.19 702.5,-664.19 667.5,-664.19"/>
<text text-anchor="middle" x="685" y="-671.19" font-family="Helvetica,sans-Serif" font-size="10.00">fouri</text>
</a>
</g>
</g>
<!-- Node1&#45;&gt;Node19 -->
<g id="edge27" class="edge">
<title>Node1&#45;&gt;Node19</title>
<path fill="none" stroke="midnightblue" d="M802.57,-558.48C784.8,-582.2 751.01,-624.66 716,-654.69 711.98,-658.14 707.27,-661.42 702.79,-664.25"/>
<polygon fill="midnightblue" stroke="midnightblue" points="805.44,-560.5 808.57,-550.38 799.81,-556.33 805.44,-560.5"/>
</g>
<!-- Node20 -->
<g id="node20" class="node">
<title>Node20</title>
<g id="a_node20"><a xlink:href="../../d0/d1c/fourp_8f90.html#add725dd420251115fd60182dc992503c" target="_top" xlink:title="Perform Fourier integrals of Green&#39;s function kernel.">
<polygon fill="white" stroke="black" points="666,-626.19 666,-645.19 704,-645.19 704,-626.19 666,-626.19"/>
<text text-anchor="middle" x="685" y="-633.19" font-family="Helvetica,sans-Serif" font-size="10.00">fourp</text>
</a>
</g>
</g>
<!-- Node1&#45;&gt;Node20 -->
<g id="edge29" class="edge">
<title>Node1&#45;&gt;Node20</title>
<path fill="none" stroke="midnightblue" d="M794.06,-556.41C767.04,-576.24 721.43,-609.7 699.11,-626.07"/>
<polygon fill="midnightblue" stroke="midnightblue" points="796.14,-559.23 802.13,-550.5 792,-553.59 796.14,-559.23"/>
</g>
<!-- Node21 -->
<g id="node21" class="node">
<title>Node21</title>
<g id="a_node21"><a xlink:href="../../d5/dfd/guess__axis_8f90.html#a375e34fe4656d4c51d5013939bf5617e" target="_top" xlink:title="Computes guess for magnetic axis if user guess leads to initial sign change of Jacobian.">
<polygon fill="white" stroke="black" points="244,-208.19 244,-227.19 309,-227.19 309,-208.19 244,-208.19"/>
<text text-anchor="middle" x="276.5" y="-215.19" font-family="Helvetica,sans-Serif" font-size="10.00">guess_axis</text>
</a>
</g>
</g>
<!-- Node1&#45;&gt;Node21 -->
<g id="edge32" class="edge">
<title>Node1&#45;&gt;Node21</title>
<path fill="none" stroke="midnightblue" d="M814.09,-520.93C809.46,-470.9 790.42,-337.96 716,-264.69 670.13,-219.52 643.37,-217.69 579,-217.69 579,-217.69 579,-217.69 465,-217.69 410.15,-217.69 346.27,-217.69 309.02,-217.69"/>
<polygon fill="midnightblue" stroke="midnightblue" points="810.61,-521.37 814.93,-531.05 817.59,-520.8 810.61,-521.37"/>
</g>
<!-- Node22 -->
<g id="node22" class="node">
<title>Node22</title>
<g id="a_node22"><a xlink:href="../../dc/df5/interp_8f90.html#a5bac7725cb89730c4bd187e158dc36ee" target="_top" xlink:title="Interpolate , &#160;and &#160;on full grid.">
<polygon fill="white" stroke="black" points="664.5,-94.19 664.5,-113.19 705.5,-113.19 705.5,-94.19 664.5,-94.19"/>
<text text-anchor="middle" x="685" y="-101.19" font-family="Helvetica,sans-Serif" font-size="10.00">interp</text>
</a>
</g>
</g>
<!-- Node1&#45;&gt;Node22 -->
<g id="edge34" class="edge">
<title>Node1&#45;&gt;Node22</title>
<path fill="none" stroke="midnightblue" d="M815.16,-521.07C813.22,-458.56 800.36,-260.41 716,-127.69 712.42,-122.06 707.06,-117.17 701.86,-113.29"/>
<polygon fill="midnightblue" stroke="midnightblue" points="811.66,-521.21 815.41,-531.12 818.66,-521.03 811.66,-521.21"/>
</g>
<!-- Node24 -->
<g id="node24" class="node">
<title>Node24</title>
<g id="a_node24"><a xlink:href="../../d8/dc3/jacobian_8f90.html#af346f65d2aa225d9ede6e0f23add6142" target="_top" xlink:title="Evaulate the Jacobian of the transform from flux&#45; to cylindrical coordinates.">
<polygon fill="white" stroke="black" points="439.5,-474.19 439.5,-493.19 492.5,-493.19 492.5,-474.19 439.5,-474.19"/>
<text text-anchor="middle" x="466" y="-481.19" font-family="Helvetica,sans-Serif" font-size="10.00">jacobian</text>
</a>
</g>
</g>
<!-- Node1&#45;&gt;Node24 -->
<g id="edge37" class="edge">
<title>Node1&#45;&gt;Node24</title>
<path fill="none" stroke="midnightblue" d="M788.19,-526.58C768.63,-517.2 741.38,-505.56 716,-499.69 636.24,-481.22 538.53,-481.3 492.85,-482.61"/>
<polygon fill="midnightblue" stroke="midnightblue" points="786.87,-529.84 797.39,-531.11 789.96,-523.56 786.87,-529.84"/>
</g>
<!-- Node25 -->
<g id="node25" class="node">
<title>Node25</title>
<g id="a_node25"><a xlink:href="../../d4/d51/lamcal_8f90.html#aae66bdcec0bbb969704413d933148096" target="_top" xlink:title="Normalization parameters for .">
<polygon fill="white" stroke="black" points="662.5,-854.19 662.5,-873.19 707.5,-873.19 707.5,-854.19 662.5,-854.19"/>
<text text-anchor="middle" x="685" y="-861.19" font-family="Helvetica,sans-Serif" font-size="10.00">lamcal</text>
</a>
</g>
</g>
<!-- Node1&#45;&gt;Node25 -->
<g id="edge39" class="edge">
<title>Node1&#45;&gt;Node25</title>
<path fill="none" stroke="midnightblue" d="M813.67,-560.32C807.95,-612.04 786.39,-754.23 716,-844.69 713.2,-848.29 709.51,-851.4 705.68,-853.99"/>
<polygon fill="midnightblue" stroke="midnightblue" points="817.17,-560.51 814.71,-550.2 810.2,-559.79 817.17,-560.51"/>
</g>
<!-- Node26 -->
<g id="node26" class="node">
<title>Node26</title>
<g id="a_node26"><a xlink:href="../../dd/d98/precal_8f90.html#a0dae73e848a4757092d7e9786d073d3d" target="_top" xlink:title="Pre&#45;compute constant terms required for NESTOR.">
<polygon fill="white" stroke="black" points="556.5,-550.19 556.5,-569.19 599.5,-569.19 599.5,-550.19 556.5,-550.19"/>
<text text-anchor="middle" x="578" y="-557.19" font-family="Helvetica,sans-Serif" font-size="10.00">precal</text>
</a>
</g>
</g>
<!-- Node1&#45;&gt;Node26 -->
<g id="edge42" class="edge">
<title>Node1&#45;&gt;Node26</title>
<path fill="none" stroke="midnightblue" d="M741.8,-546.61C692.44,-550.57 630.96,-555.51 599.55,-558.04"/>
<polygon fill="midnightblue" stroke="midnightblue" points="742.12,-550.09 751.81,-545.8 741.56,-543.12 742.12,-550.09"/>
</g>
<!-- Node27 -->
<g id="node27" class="node">
<title>Node27</title>
<g id="a_node27"><a xlink:href="../../d7/d61/profil1d_8f90.html#a2bc38da2d3b36d16295159df2f8573e2" target="_top" xlink:title="Compute phip and iota profiles on full grid.">
<polygon fill="white" stroke="black" points="661.5,-56.19 661.5,-75.19 708.5,-75.19 708.5,-56.19 661.5,-56.19"/>
<text text-anchor="middle" x="685" y="-63.19" font-family="Helvetica,sans-Serif" font-size="10.00">profil1d</text>
</a>
</g>
</g>
<!-- Node1&#45;&gt;Node27 -->
<g id="edge44" class="edge">
<title>Node1&#45;&gt;Node27</title>
<path fill="none" stroke="midnightblue" d="M813.21,-520.71C803.92,-442.5 767.15,-157.78 716,-84.69 713.46,-81.05 709.97,-77.96 706.27,-75.39"/>
<polygon fill="midnightblue" stroke="midnightblue" points="809.78,-521.54 814.42,-531.07 816.73,-520.73 809.78,-521.54"/>
</g>
<!-- Node28 -->
<g id="node28" class="node">
<title>Node28</title>
<g id="a_node28"><a xlink:href="../../dd/d75/profil3d_8f90.html#a67d2774ceac255f1e1f75e54f4679e9c" target="_top" xlink:title="Compute three&#45;dimensional profiles of flux&#45;surface geometry etc.">
<polygon fill="white" stroke="black" points="661.5,-170.19 661.5,-189.19 708.5,-189.19 708.5,-170.19 661.5,-170.19"/>
<text text-anchor="middle" x="685" y="-177.19" font-family="Helvetica,sans-Serif" font-size="10.00">profil3d</text>
</a>
</g>
</g>
<!-- Node1&#45;&gt;Node28 -->
<g id="edge46" class="edge">
<title>Node1&#45;&gt;Node28</title>
<path fill="none" stroke="midnightblue" d="M813.8,-520.85C808.26,-465.95 786.83,-309.11 716,-203.69 712.28,-198.15 706.89,-193.28 701.7,-189.4"/>
<polygon fill="midnightblue" stroke="midnightblue" points="810.33,-521.33 814.75,-530.96 817.3,-520.68 810.33,-521.33"/>
</g>
<!-- Node29 -->
<g id="node29" class="node">
<title>Node29</title>
<g id="a_node29"><a xlink:href="../../d8/da3/readin_8f90.html#a60f2bfd8fc6f7c3e027a8f91ef0c7b25" target="_top" xlink:title="Read the input file.">
<polygon fill="white" stroke="black" points="348,-28.19 348,-47.19 391,-47.19 391,-28.19 348,-28.19"/>
<text text-anchor="middle" x="369.5" y="-35.19" font-family="Helvetica,sans-Serif" font-size="10.00">readin</text>
</a>
</g>
</g>
<!-- Node1&#45;&gt;Node29 -->
<g id="edge49" class="edge">
<title>Node1&#45;&gt;Node29</title>
<path fill="none" stroke="midnightblue" d="M814.68,-521.04C810.71,-437.02 790.59,-109.39 716,-46.69 619.78,34.2 449.66,-11.27 391.03,-30.46"/>
<polygon fill="midnightblue" stroke="midnightblue" points="811.18,-521.2 815.12,-531.03 818.17,-520.88 811.18,-521.2"/>
</g>
<!-- Node30 -->
<g id="node30" class="node">
<title>Node30</title>
<g id="a_node30"><a xlink:href="../../db/d5a/residue_8f90.html#a2390b3cf93196383bbe960acb85b3e32" target="_top" xlink:title="Compute invariant residuals.">
<polygon fill="white" stroke="black" points="442,-436.19 442,-455.19 490,-455.19 490,-436.19 442,-436.19"/>
<text text-anchor="middle" x="466" y="-443.19" font-family="Helvetica,sans-Serif" font-size="10.00">residue</text>
</a>
</g>
</g>
<!-- Node1&#45;&gt;Node30 -->
<g id="edge51" class="edge">
<title>Node1&#45;&gt;Node30</title>
<path fill="none" stroke="midnightblue" d="M793.65,-525.35C774.18,-512.44 744.45,-494.56 716,-484.69 636.22,-457 535.21,-448.9 490.32,-446.58"/>
<polygon fill="midnightblue" stroke="midnightblue" points="791.84,-528.34 802.08,-531.05 795.76,-522.55 791.84,-528.34"/>
</g>
<!-- Node31 -->
<g id="node31" class="node">
<title>Node31</title>
<g id="a_node31"><a xlink:href="../../d8/d86/scalfor_8f90.html#a2ef9c34d20ddf30cb7b15fe35066b8ca" target="_top" xlink:title="Build forces from different contributions.">
<polygon fill="white" stroke="black" points="555,-360.19 555,-379.19 601,-379.19 601,-360.19 555,-360.19"/>
<text text-anchor="middle" x="578" y="-367.19" font-family="Helvetica,sans-Serif" font-size="10.00">scalfor</text>
</a>
</g>
</g>
<!-- Node1&#45;&gt;Node31 -->
<g id="edge53" class="edge">
<title>Node1&#45;&gt;Node31</title>
<path fill="none" stroke="midnightblue" d="M808.42,-521.63C795.42,-489.54 764.57,-425.14 716,-393.69 680.73,-370.85 630.12,-367.97 601.31,-368.47"/>
<polygon fill="midnightblue" stroke="midnightblue" points="805.25,-523.14 812.14,-531.18 811.77,-520.59 805.25,-523.14"/>
</g>
<!-- Node34 -->
<g id="node34" class="node">
<title>Node34</title>
<g id="a_node34"><a xlink:href="../../d6/d03/surface_8f90.html#ad7b6446e720a806f41f10dd1eb0b6f88" target="_top" xlink:title="Evaluate the geometry of the LCFS and tangential derivatives.">
<polygon fill="white" stroke="black" points="553.5,-512.19 553.5,-531.19 602.5,-531.19 602.5,-512.19 553.5,-512.19"/>
<text text-anchor="middle" x="578" y="-519.19" font-family="Helvetica,sans-Serif" font-size="10.00">surface</text>
</a>
</g>
</g>
<!-- Node1&#45;&gt;Node34 -->
<g id="edge60" class="edge">
<title>Node1&#45;&gt;Node34</title>
<path fill="none" stroke="midnightblue" d="M741.8,-534.77C694.01,-530.93 634.84,-526.17 602.63,-523.59"/>
<polygon fill="midnightblue" stroke="midnightblue" points="741.56,-538.26 751.81,-535.57 742.12,-531.28 741.56,-538.26"/>
</g>
<!-- Node35 -->
<g id="node35" class="node">
<title>Node35</title>
<g id="a_node35"><a xlink:href="../../d4/df3/symforce_8f90.html#a169610bcc5544fc8e16ad1e10ac85dcb" target="_top" xlink:title="Symmetrize forces on restricted &#160;interval &#160;so cos, sin integrals can be performed.">
<polygon fill="white" stroke="black" points="550,-322.19 550,-341.19 606,-341.19 606,-322.19 550,-322.19"/>
<text text-anchor="middle" x="578" y="-329.19" font-family="Helvetica,sans-Serif" font-size="10.00">symforce</text>
</a>
</g>
</g>
<!-- Node1&#45;&gt;Node35 -->
<g id="edge62" class="edge">
<title>Node1&#45;&gt;Node35</title>
<path fill="none" stroke="midnightblue" d="M809.88,-521.3C798.43,-485.31 768.88,-408.13 716,-367.69 683.67,-342.96 635.88,-335.16 606.14,-332.73"/>
<polygon fill="midnightblue" stroke="midnightblue" points="806.6,-522.53 812.86,-531.07 813.29,-520.48 806.6,-522.53"/>
</g>
<!-- Node36 -->
<g id="node36" class="node">
<title>Node36</title>
<g id="a_node36"><a xlink:href="../../d0/d6f/tomnsp_8f90.html#a6c7345c0aa0f13f311650d9633e6ecf8" target="_top" xlink:title="Fourier&#45;transform anti&#45;symmetric forces from real space to Fourier space.">
<polygon fill="white" stroke="black" points="439,-284.19 439,-303.19 493,-303.19 493,-284.19 439,-284.19"/>
<text text-anchor="middle" x="466" y="-291.19" font-family="Helvetica,sans-Serif" font-size="10.00">tomnspa</text>
</a>
</g>
</g>
<!-- Node1&#45;&gt;Node36 -->
<g id="edge64" class="edge">
<title>Node1&#45;&gt;Node36</title>
<path fill="none" stroke="midnightblue" d="M811.7,-520.9C802.76,-479.9 776.41,-385.4 716,-336.69 650.26,-283.68 542.59,-286.08 493.23,-290.53"/>
<polygon fill="midnightblue" stroke="midnightblue" points="808.29,-521.67 813.74,-530.76 815.14,-520.26 808.29,-521.67"/>
</g>
<!-- Node37 -->
<g id="node37" class="node">
<title>Node37</title>
<g id="a_node37"><a xlink:href="../../d0/d6f/tomnsp_8f90.html#aec4b11e4f55e18c6bfc0348c263e31db" target="_top" xlink:title="Fourier&#45;transform symmetric forces from real space to Fourier space.">
<polygon fill="white" stroke="black" points="439,-246.19 439,-265.19 493,-265.19 493,-246.19 439,-246.19"/>
<text text-anchor="middle" x="466" y="-253.19" font-family="Helvetica,sans-Serif" font-size="10.00">tomnsps</text>
</a>
</g>
</g>
<!-- Node1&#45;&gt;Node37 -->
<g id="edge66" class="edge">
<title>Node1&#45;&gt;Node37</title>
<path fill="none" stroke="midnightblue" d="M813.58,-521.01C807.95,-474.6 787.06,-357.95 716,-300.69 650.15,-247.63 542.54,-248.92 493.21,-252.83"/>
<polygon fill="midnightblue" stroke="midnightblue" points="810.11,-521.43 814.69,-530.98 817.07,-520.66 810.11,-521.43"/>
</g>
<!-- Node2&#45;&gt;Node3 -->
<g id="edge2" class="edge">
<title>Node2&#45;&gt;Node3</title>
<path fill="none" stroke="midnightblue" d="M647.71,-888.55C632.25,-882.96 614.72,-876.61 601.23,-871.73"/>
<polygon fill="midnightblue" stroke="midnightblue" points="646.91,-891.99 657.5,-892.1 649.29,-885.4 646.91,-891.99"/>
</g>
<!-- Node3&#45;&gt;Node4 -->
<g id="edge3" class="edge">
<title>Node3&#45;&gt;Node4</title>
<path fill="none" stroke="midnightblue" d="M565.22,-845.75C557.29,-833.48 546.72,-816.78 538,-801.69 486.65,-712.87 472.77,-690.94 430,-597.69 405.9,-545.14 382.43,-479.82 373.88,-455.45"/>
<polygon fill="midnightblue" stroke="midnightblue" points="562.3,-847.69 570.69,-854.16 568.17,-843.87 562.3,-847.69"/>
</g>
<!-- Node4&#45;&gt;Node5 -->
<g id="edge4" class="edge">
<title>Node4&#45;&gt;Node5</title>
<path fill="none" stroke="midnightblue" d="M334.53,-452.78C322.66,-455.26 309.66,-457.97 299.07,-460.18"/>
<polygon fill="midnightblue" stroke="midnightblue" points="335.52,-456.15 344.59,-450.68 334.09,-449.3 335.52,-456.15"/>
</g>
<!-- Node9 -->
<g id="node9" class="node">
<title>Node9</title>
<g id="a_node9"><a xlink:href="../../d0/d71/fileout_8f90.html#a7228e984aaf2c38bd772e3d846fab7af" target="_top" xlink:title="Write the output files.">
<polygon fill="white" stroke="black" points="255.5,-417.19 255.5,-436.19 297.5,-436.19 297.5,-417.19 255.5,-417.19"/>
<text text-anchor="middle" x="276.5" y="-424.19" font-family="Helvetica,sans-Serif" font-size="10.00">fileout</text>
</a>
</g>
</g>
<!-- Node4&#45;&gt;Node9 -->
<g id="edge8" class="edge">
<title>Node4&#45;&gt;Node9</title>
<path fill="none" stroke="midnightblue" d="M334.52,-438.59C322.07,-435.99 308.4,-433.14 297.56,-430.88"/>
<polygon fill="midnightblue" stroke="midnightblue" points="334.09,-442.08 344.59,-440.7 335.52,-435.23 334.09,-442.08"/>
</g>
<!-- Node6 -->
<g id="node6" class="node">
<title>Node6</title>
<g id="a_node6"><a xlink:href="../../d7/d46/eqsolve_8f90.html#ab740b09d1b651e2ab8a60c5d552df0c2" target="_top" xlink:title="Iteratively evolve the Fourier coefficients that specify the equilibrium.">
<polygon fill="white" stroke="black" points="158,-199.19 158,-218.19 208,-218.19 208,-199.19 158,-199.19"/>
<text text-anchor="middle" x="183" y="-206.19" font-family="Helvetica,sans-Serif" font-size="10.00">eqsolve</text>
</a>
</g>
</g>
<!-- Node5&#45;&gt;Node6 -->
<g id="edge5" class="edge">
<title>Node5&#45;&gt;Node6</title>
<path fill="none" stroke="midnightblue" d="M246.52,-448.67C245.62,-447.72 244.77,-446.73 244,-445.69 189.14,-371.7 184.17,-252.86 183.93,-218.36"/>
<polygon fill="midnightblue" stroke="midnightblue" points="244.37,-451.43 254.32,-455.08 248.81,-446.02 244.37,-451.43"/>
</g>
<!-- Node6&#45;&gt;Node7 -->
<g id="edge6" class="edge">
<title>Node6&#45;&gt;Node7</title>
<path fill="none" stroke="midnightblue" d="M147.71,-204.37C138.96,-203.27 129.84,-202.13 122.11,-201.15"/>
<polygon fill="midnightblue" stroke="midnightblue" points="147.36,-207.86 157.72,-205.63 148.23,-200.91 147.36,-207.86"/>
</g>
<!-- Node8 -->
<g id="node8" class="node">
<title>Node8</title>
<g id="a_node8"><a xlink:href="../../db/d61/vmec_8f90.html#ace5bdf043bb85c8f0a9fc582bdb55725" target="_top" xlink:title="Main program of VMEC.">
<polygon fill="white" stroke="black" points="0,-189.19 0,-208.19 45,-208.19 45,-189.19 0,-189.19"/>
<text text-anchor="middle" x="22.5" y="-196.19" font-family="Helvetica,sans-Serif" font-size="10.00">xvmec</text>
</a>
</g>
</g>
<!-- Node7&#45;&gt;Node8 -->
<g id="edge7" class="edge">
<title>Node7&#45;&gt;Node8</title>
<path fill="none" stroke="midnightblue" d="M70.42,-198.69C61.99,-198.69 52.99,-198.69 45.16,-198.69"/>
<polygon fill="midnightblue" stroke="midnightblue" points="70.67,-202.19 80.67,-198.69 70.67,-195.19 70.67,-202.19"/>
</g>
<!-- Node9&#45;&gt;Node7 -->
<g id="edge9" class="edge">
<title>Node9&#45;&gt;Node7</title>
<path fill="none" stroke="midnightblue" d="M262.18,-409.13C227.66,-363.64 136.17,-243.07 109.74,-208.24"/>
<polygon fill="midnightblue" stroke="midnightblue" points="259.45,-411.33 268.29,-417.18 265.03,-407.1 259.45,-411.33"/>
</g>
<!-- Node10&#45;&gt;Node11 -->
<g id="edge11" class="edge">
<title>Node10&#45;&gt;Node11</title>
<path fill="none" stroke="midnightblue" d="M654.03,-700.84C637.54,-694.87 617.38,-687.58 602.11,-682.05"/>
<polygon fill="midnightblue" stroke="midnightblue" points="653.16,-704.25 663.75,-704.36 655.54,-697.67 653.16,-704.25"/>
</g>
<!-- Node11&#45;&gt;Node12 -->
<g id="edge12" class="edge">
<title>Node11&#45;&gt;Node12</title>
<path fill="none" stroke="midnightblue" d="M557.89,-657.18C534.83,-637.27 496.85,-604.47 478.13,-588.3"/>
<polygon fill="midnightblue" stroke="midnightblue" points="555.79,-659.99 565.64,-663.88 560.36,-654.69 555.79,-659.99"/>
</g>
<!-- Node12&#45;&gt;Node4 -->
<g id="edge13" class="edge">
<title>Node12&#45;&gt;Node4</title>
<path fill="none" stroke="midnightblue" d="M448.13,-561.73C442.14,-555.36 435.51,-547.91 430,-540.69 407.45,-511.14 385.43,-472.8 375.7,-455.24"/>
<polygon fill="midnightblue" stroke="midnightblue" points="445.8,-564.36 455.26,-569.13 450.84,-559.5 445.8,-564.36"/>
</g>
<!-- Node13 -->
<g id="node13" class="node">
<title>Node13</title>
<g id="a_node13"><a xlink:href="../../d4/d69/nestor__main_8f90.html#a1b0fd336e80285a96925333daa2ee8f0" target="_top" xlink:title="Main program of stand&#45;alone version of NESTOR.">
<polygon fill="white" stroke="black" points="347.5,-569.19 347.5,-588.19 391.5,-588.19 391.5,-569.19 347.5,-569.19"/>
<text text-anchor="middle" x="369.5" y="-576.19" font-family="Helvetica,sans-Serif" font-size="10.00">nestor</text>
</a>
</g>
</g>
<!-- Node12&#45;&gt;Node13 -->
<g id="edge14" class="edge">
<title>Node12&#45;&gt;Node13</title>
<path fill="none" stroke="midnightblue" d="M430.17,-578.69C417.24,-578.69 402.98,-578.69 391.64,-578.69"/>
<polygon fill="midnightblue" stroke="midnightblue" points="430.17,-582.19 440.17,-578.69 430.17,-575.19 430.17,-582.19"/>
</g>
<!-- Node14&#45;&gt;Node12 -->
<g id="edge17" class="edge">
<title>Node14&#45;&gt;Node12</title>
<path fill="none" stroke="midnightblue" d="M543.95,-591.98C527.12,-589.07 507,-585.6 491.56,-582.93"/>
<polygon fill="midnightblue" stroke="midnightblue" points="543.49,-595.45 553.94,-593.71 544.68,-588.55 543.49,-595.45"/>
</g>
<!-- Node15&#45;&gt;Node3 -->
<g id="edge19" class="edge">
<title>Node15&#45;&gt;Node3</title>
<path fill="none" stroke="midnightblue" d="M647.71,-838.82C632.25,-844.42 614.72,-850.76 601.23,-855.64"/>
<polygon fill="midnightblue" stroke="midnightblue" points="649.29,-841.97 657.5,-835.28 646.91,-835.39 649.29,-841.97"/>
</g>
<!-- Node16 -->
<g id="node16" class="node">
<title>Node16</title>
<g id="a_node16"><a xlink:href="../../d0/d22/eqfor_8f90.html#a4579124c405a906bf05b3d3a0da2d105" target="_top" xlink:title="Basis physics analysis and evaluaton of force balance. This is where most of the contents of the thre...">
<polygon fill="white" stroke="black" points="350.5,-712.19 350.5,-731.19 388.5,-731.19 388.5,-712.19 350.5,-712.19"/>
<text text-anchor="middle" x="369.5" y="-719.19" font-family="Helvetica,sans-Serif" font-size="10.00">eqfor</text>
</a>
</g>
</g>
<!-- Node15&#45;&gt;Node16 -->
<g id="edge20" class="edge">
<title>Node15&#45;&gt;Node16</title>
<path fill="none" stroke="midnightblue" d="M647.21,-813.48C579.73,-791.1 438.5,-744.25 388.51,-727.66"/>
<polygon fill="midnightblue" stroke="midnightblue" points="646.41,-816.9 657,-816.73 648.61,-810.26 646.41,-816.9"/>
</g>
<!-- Node16&#45;&gt;Node9 -->
<g id="edge21" class="edge">
<title>Node16&#45;&gt;Node9</title>
<path fill="none" stroke="midnightblue" d="M364.71,-702.04C352.82,-640.72 316.59,-456.32 309,-445.69 306.1,-441.63 302.05,-438.29 297.81,-435.59"/>
<polygon fill="midnightblue" stroke="midnightblue" points="361.3,-702.83 366.63,-711.99 368.17,-701.5 361.3,-702.83"/>
</g>
<!-- Node17&#45;&gt;Node7 -->
<g id="edge24" class="edge">
<title>Node17&#45;&gt;Node7</title>
<path fill="none" stroke="midnightblue" d="M152.87,-174.61C142.6,-179.52 131.29,-184.92 122.01,-189.36"/>
<polygon fill="midnightblue" stroke="midnightblue" points="154.43,-177.75 161.94,-170.28 151.41,-171.43 154.43,-177.75"/>
</g>
<!-- Node18&#45;&gt;Node4 -->
<g id="edge26" class="edge">
<title>Node18&#45;&gt;Node4</title>
<path fill="none" stroke="midnightblue" d="M436.47,-507.05C434.24,-505.65 432.05,-504.19 430,-502.69 410.13,-488.18 390.1,-467.44 379.1,-455.39"/>
<polygon fill="midnightblue" stroke="midnightblue" points="434.78,-510.11 445.18,-512.12 438.3,-504.06 434.78,-510.11"/>
</g>
<!-- Node19&#45;&gt;Node11 -->
<g id="edge28" class="edge">
<title>Node19&#45;&gt;Node11</title>
<path fill="none" stroke="midnightblue" d="M656.75,-673.69C639.79,-673.69 618.21,-673.69 602.09,-673.69"/>
<polygon fill="midnightblue" stroke="midnightblue" points="657.13,-677.19 667.13,-673.69 657.13,-670.19 657.13,-677.19"/>
</g>
<!-- Node20&#45;&gt;Node11 -->
<g id="edge30" class="edge">
<title>Node20&#45;&gt;Node11</title>
<path fill="none" stroke="midnightblue" d="M655.9,-645.86C639.12,-651.93 618.06,-659.55 602.22,-665.28"/>
<polygon fill="midnightblue" stroke="midnightblue" points="657.5,-649 665.71,-642.31 655.12,-642.42 657.5,-649"/>
</g>
<!-- Node21&#45;&gt;Node6 -->
<g id="edge33" class="edge">
<title>Node21&#45;&gt;Node6</title>
<path fill="none" stroke="midnightblue" d="M233.67,-213.57C224.94,-212.71 216.02,-211.84 208.19,-211.07"/>
<polygon fill="midnightblue" stroke="midnightblue" points="233.46,-217.07 243.75,-214.57 234.15,-210.1 233.46,-217.07"/>
</g>
<!-- Node23 -->
<g id="node23" class="node">
<title>Node23</title>
<g id="a_node23"><a xlink:href="../../d9/da6/initialize__radial_8f90.html#a187faea543d3a42bc748511f04b5b7d5" target="_top" xlink:title="Allocates memory for radial arrays and initializes radial profiles.">
<polygon fill="white" stroke="black" points="538,-94.19 538,-113.19 618,-113.19 618,-94.19 538,-94.19"/>
<text text-anchor="middle" x="578" y="-101.19" font-family="Helvetica,sans-Serif" font-size="10.00">initialize_radial</text>
</a>
</g>
</g>
<!-- Node22&#45;&gt;Node23 -->
<g id="edge35" class="edge">
<title>Node22&#45;&gt;Node23</title>
<path fill="none" stroke="midnightblue" d="M654.15,-103.69C642.98,-103.69 630.12,-103.69 618.24,-103.69"/>
<polygon fill="midnightblue" stroke="midnightblue" points="654.25,-107.19 664.25,-103.69 654.25,-100.19 654.25,-107.19"/>
</g>
<!-- Node23&#45;&gt;Node7 -->
<g id="edge36" class="edge">
<title>Node23&#45;&gt;Node7</title>
<path fill="none" stroke="midnightblue" d="M527.6,-103.69C485.77,-103.69 424.21,-103.69 370.5,-103.69 370.5,-103.69 370.5,-103.69 275.5,-103.69 220.61,-103.69 204.63,-112.73 158,-141.69 137.58,-154.37 119.28,-176.14 109.65,-188.79"/>
<polygon fill="midnightblue" stroke="midnightblue" points="527.8,-107.19 537.8,-103.69 527.8,-100.19 527.8,-107.19"/>
</g>
<!-- Node24&#45;&gt;Node4 -->
<g id="edge38" class="edge">
<title>Node24&#45;&gt;Node4</title>
<path fill="none" stroke="midnightblue" d="M431.57,-470.25C419.16,-465.26 405.35,-459.7 394.01,-455.14"/>
<polygon fill="midnightblue" stroke="midnightblue" points="430.57,-473.62 441.15,-474.1 433.18,-467.12 430.57,-473.62"/>
</g>
<!-- Node25&#45;&gt;Node3 -->
<g id="edge40" class="edge">
<title>Node25&#45;&gt;Node3</title>
<path fill="none" stroke="midnightblue" d="M652.22,-863.69C635.74,-863.69 616.02,-863.69 601.2,-863.69"/>
<polygon fill="midnightblue" stroke="midnightblue" points="652.5,-867.19 662.5,-863.69 652.5,-860.19 652.5,-867.19"/>
</g>
<!-- Node26&#45;&gt;Node12 -->
<g id="edge43" class="edge">
<title>Node26&#45;&gt;Node12</title>
<path fill="none" stroke="midnightblue" d="M546.21,-565.01C529.04,-567.97 507.94,-571.62 491.83,-574.4"/>
<polygon fill="midnightblue" stroke="midnightblue" points="547.05,-568.41 556.31,-563.26 545.86,-561.52 547.05,-568.41"/>
</g>
<!-- Node27&#45;&gt;Node23 -->
<g id="edge45" class="edge">
<title>Node27&#45;&gt;Node23</title>
<path fill="none" stroke="midnightblue" d="M651.71,-77.37C636.92,-82.73 619.6,-89 605.57,-94.07"/>
<polygon fill="midnightblue" stroke="midnightblue" points="653.26,-80.53 661.47,-73.84 650.88,-73.95 653.26,-80.53"/>
</g>
<!-- Node28&#45;&gt;Node6 -->
<g id="edge47" class="edge">
<title>Node28&#45;&gt;Node6</title>
<path fill="none" stroke="midnightblue" d="M651.14,-179.69C608.64,-179.69 532.29,-179.69 467,-179.69 467,-179.69 467,-179.69 368.5,-179.69 310.46,-179.69 243.38,-193.87 208.28,-202.4"/>
<polygon fill="midnightblue" stroke="midnightblue" points="651.19,-183.19 661.19,-179.69 651.19,-176.19 651.19,-183.19"/>
</g>
<!-- Node28&#45;&gt;Node23 -->
<g id="edge48" class="edge">
<title>Node28&#45;&gt;Node23</title>
<path fill="none" stroke="midnightblue" d="M662.36,-164.02C641.24,-148.74 609.81,-125.99 592.19,-113.24"/>
<polygon fill="midnightblue" stroke="midnightblue" points="660.55,-167.03 670.7,-170.06 664.65,-161.36 660.55,-167.03"/>
</g>
<!-- Node29&#45;&gt;Node7 -->
<g id="edge50" class="edge">
<title>Node29&#45;&gt;Node7</title>
<path fill="none" stroke="midnightblue" d="M337.66,-37.58C293.29,-39 210.98,-47.63 158,-89.69 124.74,-116.1 109.57,-167.77 104.53,-189.11"/>
<polygon fill="midnightblue" stroke="midnightblue" points="337.9,-41.08 347.82,-37.37 337.75,-34.08 337.9,-41.08"/>
</g>
<!-- Node30&#45;&gt;Node4 -->
<g id="edge52" class="edge">
<title>Node30&#45;&gt;Node4</title>
<path fill="none" stroke="midnightblue" d="M431.3,-445.69C419.05,-445.69 405.46,-445.69 394.25,-445.69"/>
<polygon fill="midnightblue" stroke="midnightblue" points="431.64,-449.19 441.64,-445.69 431.64,-442.19 431.64,-449.19"/>
</g>
<!-- Node31&#45;&gt;Node30 -->
<g id="edge54" class="edge">
<title>Node31&#45;&gt;Node30</title>
<path fill="none" stroke="midnightblue" d="M550.97,-384.75C546.55,-387.58 542.07,-390.62 538,-393.69 520.68,-406.77 519.67,-414.08 502,-426.69 497.27,-430.06 491.88,-433.27 486.77,-436.05"/>
<polygon fill="midnightblue" stroke="midnightblue" points="553.16,-387.51 559.84,-379.29 549.49,-381.55 553.16,-387.51"/>
</g>
<!-- Node32 -->
<g id="node32" class="node">
<title>Node32</title>
<g id="a_node32"><a xlink:href="../../d3/d96/residue__con_8f90.html#a8b2d4eb1bd167c336b39b899858e7bfb" target="_top" xlink:title="Compute invariant residuals.">
<polygon fill="white" stroke="black" points="431.5,-360.19 431.5,-379.19 500.5,-379.19 500.5,-360.19 431.5,-360.19"/>
<text text-anchor="middle" x="466" y="-367.19" font-family="Helvetica,sans-Serif" font-size="10.00">residue_con</text>
</a>
</g>
</g>
<!-- Node31&#45;&gt;Node32 -->
<g id="edge55" class="edge">
<title>Node31&#45;&gt;Node32</title>
<path fill="none" stroke="midnightblue" d="M544.65,-369.69C530.75,-369.69 514.53,-369.69 500.51,-369.69"/>
<polygon fill="midnightblue" stroke="midnightblue" points="544.74,-373.19 554.74,-369.69 544.74,-366.19 544.74,-373.19"/>
</g>
<!-- Node33 -->
<g id="node33" class="node">
<title>Node33</title>
<g id="a_node33"><a xlink:href="../../d5/d62/residue__mhd_8f90.html#a3ed729a2f8c8d70e4d2fef05c9dfc4c8" target="_top" xlink:title="Compute invariant residuals.">
<polygon fill="white" stroke="black" points="430,-398.19 430,-417.19 502,-417.19 502,-398.19 430,-398.19"/>
<text text-anchor="middle" x="466" y="-405.19" font-family="Helvetica,sans-Serif" font-size="10.00">residue_mhd</text>
</a>
</g>
</g>
<!-- Node31&#45;&gt;Node33 -->
<g id="edge57" class="edge">
<title>Node31&#45;&gt;Node33</title>
<path fill="none" stroke="midnightblue" d="M545.26,-380.65C529.28,-386.17 510.08,-392.81 494.7,-398.12"/>
<polygon fill="midnightblue" stroke="midnightblue" points="546.43,-383.95 554.74,-377.38 544.15,-377.34 546.43,-383.95"/>
</g>
<!-- Node32&#45;&gt;Node4 -->
<g id="edge56" class="edge">
<title>Node32&#45;&gt;Node4</title>
<path fill="none" stroke="midnightblue" d="M436.47,-384.33C434.24,-385.73 432.05,-387.19 430,-388.69 410.13,-403.2 390.1,-423.94 379.1,-435.99"/>
<polygon fill="midnightblue" stroke="midnightblue" points="438.3,-387.31 445.18,-379.26 434.78,-381.26 438.3,-387.31"/>
</g>
<!-- Node33&#45;&gt;Node4 -->
<g id="edge58" class="edge">
<title>Node33&#45;&gt;Node4</title>
<path fill="none" stroke="midnightblue" d="M431.57,-421.13C419.16,-426.12 405.35,-431.67 394.01,-436.23"/>
<polygon fill="midnightblue" stroke="midnightblue" points="433.18,-424.26 441.15,-417.28 430.57,-417.76 433.18,-424.26"/>
</g>
<!-- Node34&#45;&gt;Node12 -->
<g id="edge61" class="edge">
<title>Node34&#45;&gt;Node12</title>
<path fill="none" stroke="midnightblue" d="M547.86,-535.74C544.52,-537.39 541.18,-539.06 538,-540.69 519.57,-550.1 498.72,-561.33 484.41,-569.13"/>
<polygon fill="midnightblue" stroke="midnightblue" points="549.65,-538.75 557.09,-531.21 546.57,-532.47 549.65,-538.75"/>
</g>
<!-- Node35&#45;&gt;Node4 -->
<g id="edge63" class="edge">
<title>Node35&#45;&gt;Node4</title>
<path fill="none" stroke="midnightblue" d="M539.57,-328.07C507.94,-326.88 462.7,-329.73 430,-350.69 397.72,-371.37 379.89,-416.48 373.38,-436.17"/>
<polygon fill="midnightblue" stroke="midnightblue" points="539.56,-331.58 549.73,-328.61 539.93,-324.59 539.56,-331.58"/>
</g>
<!-- Node36&#45;&gt;Node4 -->
<g id="edge65" class="edge">
<title>Node36&#45;&gt;Node4</title>
<path fill="none" stroke="midnightblue" d="M438.94,-309.16C435.69,-311.76 432.6,-314.61 430,-317.69 398.02,-355.47 379.46,-413.32 373.06,-436.05"/>
<polygon fill="midnightblue" stroke="midnightblue" points="441.05,-311.96 447.15,-303.3 436.98,-306.26 441.05,-311.96"/>
</g>
<!-- Node37&#45;&gt;Node4 -->
<g id="edge67" class="edge">
<title>Node37&#45;&gt;Node4</title>
<path fill="none" stroke="midnightblue" d="M433.18,-271.4C432.05,-272.44 430.98,-273.54 430,-274.69 387.27,-325 374.6,-407.84 371.43,-435.98"/>
<polygon fill="midnightblue" stroke="midnightblue" points="435.41,-274.11 441.38,-265.36 431.25,-268.47 435.41,-274.11"/>
</g>
</g>
</svg>
        <g id="navigator" transform="translate(0 0)" fill="#404254">
                <rect fill="#f2f5e9" fill-opacity="0.5" stroke="#606060" stroke-width=".5" x="0" y="0" width="60" height="60"/>
                <use id="zoomplus" xlink:href="#zoomPlus" x="17" y="9" onmousedown="handleZoom(evt,'in')"/>
                <use id="zoomminus" xlink:href="#zoomMin" x="42" y="9" onmousedown="handleZoom(evt,'out')"/>
                <use id="reset" xlink:href="#resetDef" x="30" y="36" onmousedown="handleReset()"/>
                <g id="arrowUp" xlink:href="#dirArrow" transform="translate(30 24)" onmousedown="handlePan(0,-1)">
                  <use xlink:href="#rim" fill="#404040">
                        <set attributeName="fill" to="#808080" begin="arrowUp.mouseover" end="arrowUp.mouseout"/>
                  </use>
                  <path fill="none" stroke="white" stroke-width="1.5" d="M0,-3.0v7 M-2.5,-0.5L0,-3.0L2.5,-0.5"/>
                </g>
                <g id="arrowRight" xlink:href="#dirArrow" transform="rotate(90) translate(36 -43)" onmousedown="handlePan(1,0)">
                  <use xlink:href="#rim" fill="#404040">
                        <set attributeName="fill" to="#808080" begin="arrowRight.mouseover" end="arrowRight.mouseout"/>
                  </use>
                  <path fill="none" stroke="white" stroke-width="1.5" d="M0,-3.0v7 M-2.5,-0.5L0,-3.0L2.5,-0.5"/>
                </g>
                <g id="arrowDown" xlink:href="#dirArrow" transform="rotate(180) translate(-30 -48)" onmousedown="handlePan(0,1)">
                  <use xlink:href="#rim" fill="#404040">
                        <set attributeName="fill" to="#808080" begin="arrowDown.mouseover" end="arrowDown.mouseout"/>
                  </use>
                  <path fill="none" stroke="white" stroke-width="1.5" d="M0,-3.0v7 M-2.5,-0.5L0,-3.0L2.5,-0.5"/>
                </g>
                <g id="arrowLeft" xlink:href="#dirArrow" transform="rotate(270) translate(-36 17)" onmousedown="handlePan(-1,0)">
                  <use xlink:href="#rim" fill="#404040">
                        <set attributeName="fill" to="#808080" begin="arrowLeft.mouseover" end="arrowLeft.mouseout"/>
                  </use>
                  <path fill="none" stroke="white" stroke-width="1.5" d="M0,-3.0v7 M-2.5,-0.5L0,-3.0L2.5,-0.5"/>
                </g>
        </g>
        <svg viewBox="0 0 15 15" width="100%" height="30px" preserveAspectRatio="xMaxYMin meet">
         <g id="arrow_out" transform="scale(0.3 0.3)">
          <a xlink:href="namespacedbgout_acdd1612a38e44b6469dc03d9d1c6ceed_icgraph_org.svg" target="_base">
           <rect id="button" ry="5" rx="5" y="6" x="6" height="38" width="38"
                fill="#f2f5e9" fill-opacity="0.5" stroke="#606060" stroke-width="1.0"/>
           <path id="arrow"
             d="M 11.500037,31.436501 C 11.940474,20.09759 22.043105,11.32322 32.158766,21.979434 L 37.068811,17.246167 C 37.068811,17.246167 37.088388,32 37.088388,32 L 22.160133,31.978069 C 22.160133,31.978069 26.997745,27.140456 26.997745,27.140456 C 18.528582,18.264221 13.291696,25.230495 11.500037,31.436501 z"
             style="fill:#404040;"/>
          </a>
         </g>
        </svg>
</svg>
