<?xml version="1.0" encoding="UTF-8" standalone="no"?>
<!DOCTYPE svg PUBLIC "-//W3C//DTD SVG 1.1//EN"
 "http://www.w3.org/Graphics/SVG/1.1/DTD/svg11.dtd">
<!-- Generated by graphviz version 7.1.0 (20230121.1956)
 -->
<!-- Title: dbgout::open_dbg_context Pages: 1 -->
<svg width="889pt" height="1231pt"
 viewBox="0.00 0.00 889.00 1230.50" xmlns="http://www.w3.org/2000/svg" xmlns:xlink="http://www.w3.org/1999/xlink">
<g id="graph0" class="graph" transform="scale(1 1) rotate(0) translate(4 1226.5)">
<title>dbgout::open_dbg_context</title>
<!-- Node1 -->
<g id="node1" class="node">
<title>Node1</title>
<g id="a_node1"><a xlink:title="check if any output is desired for the current iteration check if the given context should be openend...">
<polygon fill="#999999" stroke="#666666" points="881,-625 752,-625 752,-606 881,-606 881,-625"/>
<text text-anchor="middle" x="816.5" y="-613" font-family="Helvetica,sans-Serif" font-size="10.00">dbgout::open_dbg_context</text>
</a>
</g>
</g>
<!-- Node1&#45;&gt;Node1 -->
<g id="edge49" class="edge">
<title>Node1&#45;&gt;Node1</title>
<path fill="none" stroke="#63b8ff" d="M839.84,-636.43C836.92,-640.29 829.14,-643 816.5,-643 793.38,-643 786.52,-633.94 795.91,-625.37"/>
<polygon fill="#63b8ff" stroke="#63b8ff" points="843.26,-635.7 837.45,-626.84 836.47,-637.39 843.26,-635.7"/>
</g>
<!-- Node2 -->
<g id="node2" class="node">
<title>Node2</title>
<g id="a_node2"><a xlink:href="../../d8/d7d/add__fluxes_8f90.html#a988e7013ef02301b9cfbde5b8068d5af" target="_top" xlink:title="Add the magnetic fluxes to the tangential derivatives of &#160;to arrive at the contravariant magnetic fie...">
<polygon fill="white" stroke="#666666" points="716,-549 654,-549 654,-530 716,-530 716,-549"/>
<text text-anchor="middle" x="685" y="-537" font-family="Helvetica,sans-Serif" font-size="10.00">add_fluxes</text>
</a>
</g>
</g>
<!-- Node1&#45;&gt;Node2 -->
<g id="edge1" class="edge">
<title>Node1&#45;&gt;Node2</title>
<path fill="none" stroke="#63b8ff" d="M788.7,-599.77C762.92,-584.64 724.75,-562.24 702.93,-549.44"/>
<polygon fill="#63b8ff" stroke="#63b8ff" points="786.87,-602.76 797.26,-604.8 790.41,-596.72 786.87,-602.76"/>
</g>
<!-- Node3 -->
<g id="node3" class="node">
<title>Node3</title>
<g id="a_node3"><a xlink:href="../../d7/d61/bcovar_8f90.html#a1e1624195f0c0c7daa9f49d83bae5ce8" target="_top" xlink:title="Compute the covariant components of the magnetic field , .">
<polygon fill="white" stroke="#666666" points="601,-549 555,-549 555,-530 601,-530 601,-549"/>
<text text-anchor="middle" x="578" y="-537" font-family="Helvetica,sans-Serif" font-size="10.00">bcovar</text>
</a>
</g>
</g>
<!-- Node1&#45;&gt;Node3 -->
<g id="edge15" class="edge">
<title>Node1&#45;&gt;Node3</title>
<path fill="none" stroke="#63b8ff" d="M773.77,-602.09C723.52,-585.94 640.96,-559.41 601.44,-546.71"/>
<polygon fill="#63b8ff" stroke="#63b8ff" points="772.55,-605.37 783.14,-605.1 774.69,-598.71 772.55,-605.37"/>
</g>
<!-- Node4 -->
<g id="node4" class="node">
<title>Node4</title>
<g id="a_node4"><a xlink:href="../../d3/d4f/funct3d_8f90.html#a800bacc22176e16323899df87b55c547" target="_top" xlink:title="Evaluate the three&#45;dimensional MHD energy functional. Think of this as the &quot;forward model&quot; that tells...">
<polygon fill="white" stroke="#666666" points="394,-647 345,-647 345,-628 394,-628 394,-647"/>
<text text-anchor="middle" x="369.5" y="-635" font-family="Helvetica,sans-Serif" font-size="10.00">funct3d</text>
</a>
</g>
</g>
<!-- Node1&#45;&gt;Node4 -->
<g id="edge35" class="edge">
<title>Node1&#45;&gt;Node4</title>
<path fill="none" stroke="#63b8ff" d="M761.15,-603.32C685.38,-588.62 544.43,-569.58 430,-601.5 411.86,-606.56 393.73,-618.82 382.34,-627.63"/>
<polygon fill="#63b8ff" stroke="#63b8ff" points="760.31,-606.72 770.81,-605.25 761.68,-599.86 760.31,-606.72"/>
</g>
<!-- Node5 -->
<g id="node5" class="node">
<title>Node5</title>
<g id="a_node5"><a xlink:href="../../de/da9/evolve_8f90.html#a8103e838be03904e03551e04f6b396e4" target="_top" xlink:title="Take a single time step in Fourier space to evolve the Fourier coefficients describing the equilibriu...">
<polygon fill="white" stroke="#666666" points="299,-647 254,-647 254,-628 299,-628 299,-647"/>
<text text-anchor="middle" x="276.5" y="-635" font-family="Helvetica,sans-Serif" font-size="10.00">evolve</text>
</a>
</g>
</g>
<!-- Node1&#45;&gt;Node5 -->
<g id="edge25" class="edge">
<title>Node1&#45;&gt;Node5</title>
<path fill="none" stroke="#63b8ff" d="M810.56,-636.09C800.1,-675.19 771.93,-760.32 716,-805.5 666.85,-845.21 642.19,-843.5 579,-843.5 579,-843.5 579,-843.5 465,-843.5 357.64,-843.5 295.48,-688.59 280.86,-647.44"/>
<polygon fill="#63b8ff" stroke="#63b8ff" points="813.91,-637.14 812.98,-626.59 807.12,-635.42 813.91,-637.14"/>
</g>
<!-- Node7 -->
<g id="node7" class="node">
<title>Node7</title>
<g id="a_node7"><a xlink:href="../../db/d61/vmec_8f90.html#a6d38ab7be2f9d818da4541e1d352ea23" target="_top" xlink:title="Main driver for VMEC.">
<polygon fill="white" stroke="#666666" points="122,-284 81,-284 81,-265 122,-265 122,-284"/>
<text text-anchor="middle" x="101.5" y="-272" font-family="Helvetica,sans-Serif" font-size="10.00">vmec</text>
</a>
</g>
</g>
<!-- Node1&#45;&gt;Node7 -->
<g id="edge77" class="edge">
<title>Node1&#45;&gt;Node7</title>
<path fill="none" stroke="#63b8ff" d="M814.41,-636.47C809.29,-727.1 784.96,-1084.37 716,-1168.5 674.51,-1219.11 644.45,-1222.5 579,-1222.5 579,-1222.5 579,-1222.5 275.5,-1222.5 174.81,-1222.5 110.5,-384.08 103.2,-284.19"/>
<polygon fill="#63b8ff" stroke="#63b8ff" points="817.89,-636.78 814.94,-626.61 810.9,-636.4 817.89,-636.78"/>
</g>
<!-- Node10 -->
<g id="node10" class="node">
<title>Node10</title>
<g id="a_node10"><a xlink:href="../../da/d73/analyt_8f90.html#a60edcf4884aa60f6d96c258a97255756" target="_top" xlink:title="Compute the analytical&#45;and&#45;numerical 4D Fourier integrals over the equivalently&#45;singular functions.">
<polygon fill="white" stroke="#666666" points="706,-928 664,-928 664,-909 706,-909 706,-928"/>
<text text-anchor="middle" x="685" y="-916" font-family="Helvetica,sans-Serif" font-size="10.00">analyt</text>
</a>
</g>
</g>
<!-- Node1&#45;&gt;Node10 -->
<g id="edge10" class="edge">
<title>Node1&#45;&gt;Node10</title>
<path fill="none" stroke="#63b8ff" d="M813.09,-636.6C806.34,-687.33 783.1,-818.05 716,-900.5 713.32,-903.8 709.86,-906.64 706.25,-909.02"/>
<polygon fill="#63b8ff" stroke="#63b8ff" points="816.55,-637.11 814.31,-626.75 809.61,-636.25 816.55,-637.11"/>
</g>
<!-- Node11 -->
<g id="node11" class="node">
<title>Node11</title>
<g id="a_node11"><a xlink:href="../../d0/d19/scalpot_8f90.html#afb9e58849c5a27e486bdf4106f8bb84e" target="_top" xlink:title="Compute all required terms for solving for the scalar magnetic potential.">
<polygon fill="white" stroke="#666666" points="602,-966 554,-966 554,-947 602,-947 602,-966"/>
<text text-anchor="middle" x="578" y="-954" font-family="Helvetica,sans-Serif" font-size="10.00">scalpot</text>
</a>
</g>
</g>
<!-- Node1&#45;&gt;Node11 -->
<g id="edge67" class="edge">
<title>Node1&#45;&gt;Node11</title>
<path fill="none" stroke="#63b8ff" d="M816.1,-636.69C816.48,-694.98 808.84,-858.59 716,-937.5 684.16,-964.56 632.31,-963.61 602.36,-960.23"/>
<polygon fill="#63b8ff" stroke="#63b8ff" points="819.6,-636.81 815.93,-626.87 812.6,-636.93 819.6,-636.81"/>
</g>
<!-- Node12 -->
<g id="node12" class="node">
<title>Node12</title>
<g id="a_node12"><a xlink:href="../../dd/d6d/vacuum_8f90.html#a0acbc18d2ab7664835d797b42ce49a35" target="_top" xlink:title="Compute the vacuum contribution to the free&#45;boundary energy functional.">
<polygon fill="white" stroke="#666666" points="491.5,-1061 440.5,-1061 440.5,-1042 491.5,-1042 491.5,-1061"/>
<text text-anchor="middle" x="466" y="-1049" font-family="Helvetica,sans-Serif" font-size="10.00">vacuum</text>
</a>
</g>
</g>
<!-- Node1&#45;&gt;Node12 -->
<g id="edge76" class="edge">
<title>Node1&#45;&gt;Node12</title>
<path fill="none" stroke="#63b8ff" d="M813.3,-636.34C805.03,-710.7 773.25,-961.37 716,-1013.5 683.42,-1043.16 547.86,-1049.67 491.62,-1051.1"/>
<polygon fill="#63b8ff" stroke="#63b8ff" points="816.74,-637.1 814.34,-626.78 809.78,-636.34 816.74,-637.1"/>
</g>
<!-- Node14 -->
<g id="node14" class="node">
<title>Node14</title>
<g id="a_node14"><a xlink:href="../../db/d3d/bextern_8f90.html#a90228cc5f358147ae7f59953d6f9cced" target="_top" xlink:title="Compute the total magnetic field due to external coils and the net toroidal plasma current.">
<polygon fill="white" stroke="#666666" points="602,-1156 554,-1156 554,-1137 602,-1137 602,-1156"/>
<text text-anchor="middle" x="578" y="-1144" font-family="Helvetica,sans-Serif" font-size="10.00">bextern</text>
</a>
</g>
</g>
<!-- Node1&#45;&gt;Node14 -->
<g id="edge16" class="edge">
<title>Node1&#45;&gt;Node14</title>
<path fill="none" stroke="#63b8ff" d="M813.97,-636.37C807.44,-720.1 779.28,-1030.46 716,-1101.5 686.78,-1134.31 633.23,-1143.28 602.45,-1145.68"/>
<polygon fill="#63b8ff" stroke="#63b8ff" points="817.44,-636.89 814.71,-626.65 810.46,-636.36 817.44,-636.89"/>
</g>
<!-- Node15 -->
<g id="node15" class="node">
<title>Node15</title>
<g id="a_node15"><a xlink:href="../../d7/d77/bss_8f90.html#acdfd6dccfb28d75e1de40c6822f5736b" target="_top" xlink:title="Computes br, bphi, bz, bsubs on half&#45;radial mesh.">
<polygon fill="white" stroke="#666666" points="594,-360 562,-360 562,-341 594,-341 594,-360"/>
<text text-anchor="middle" x="578" y="-348" font-family="Helvetica,sans-Serif" font-size="10.00">bss</text>
</a>
</g>
</g>
<!-- Node1&#45;&gt;Node15 -->
<g id="edge18" class="edge">
<title>Node1&#45;&gt;Node15</title>
<path fill="none" stroke="#63b8ff" d="M813.85,-594.55C808.82,-546.2 789.21,-426.57 716,-369.5 680.02,-341.45 621.98,-344.57 594.45,-348.04"/>
<polygon fill="#63b8ff" stroke="#63b8ff" points="810.33,-594.57 814.73,-604.21 817.3,-593.93 810.33,-594.57"/>
</g>
<!-- Node16 -->
<g id="node16" class="node">
<title>Node16</title>
<g id="a_node16"><a xlink:href="../../d0/d22/eqfor_8f90.html#a4579124c405a906bf05b3d3a0da2d105" target="_top" xlink:title="Basis physics analysis and evaluaton of force balance. This is where most of the contents of the thre...">
<polygon fill="white" stroke="#666666" points="485,-341 447,-341 447,-322 485,-322 485,-341"/>
<text text-anchor="middle" x="466" y="-329" font-family="Helvetica,sans-Serif" font-size="10.00">eqfor</text>
</a>
</g>
</g>
<!-- Node1&#45;&gt;Node16 -->
<g id="edge24" class="edge">
<title>Node1&#45;&gt;Node16</title>
<path fill="none" stroke="#63b8ff" d="M813.56,-594.36C806.16,-518.95 777.03,-265.15 716,-217.5 633.56,-153.13 508.92,-283.59 475.5,-321.55"/>
<polygon fill="#63b8ff" stroke="#63b8ff" points="810.05,-594.45 814.48,-604.07 817.02,-593.78 810.05,-594.45"/>
</g>
<!-- Node17 -->
<g id="node17" class="node">
<title>Node17</title>
<g id="a_node17"><a xlink:href="../../d9/dff/calc__fbal_8f90.html#a6cdc3d21c48f66aeaff8ab5e639641b6" target="_top" xlink:title="Compute flux&#45;surface averaged radial force balance .">
<polygon fill="white" stroke="#666666" points="713,-398 657,-398 657,-379 713,-379 713,-398"/>
<text text-anchor="middle" x="685" y="-386" font-family="Helvetica,sans-Serif" font-size="10.00">calc_fbal</text>
</a>
</g>
</g>
<!-- Node1&#45;&gt;Node17 -->
<g id="edge21" class="edge">
<title>Node1&#45;&gt;Node17</title>
<path fill="none" stroke="#63b8ff" d="M808.83,-594.92C795.61,-556.26 763.19,-471.35 716,-412.5 711.74,-407.19 706.12,-402.3 700.89,-398.34"/>
<polygon fill="#63b8ff" stroke="#63b8ff" points="805.49,-595.95 811.97,-604.33 812.13,-593.73 805.49,-595.95"/>
</g>
<!-- Node18 -->
<g id="node18" class="node">
<title>Node18</title>
<g id="a_node18"><a xlink:href="../../d4/dd1/fixaray_8f90.html#aca9a4c886a9423b95e8a9336071de2e3" target="_top" xlink:title="allocate and fill some fixed&#45;size arrays (only depending on Fourier resolution).">
<polygon fill="white" stroke="#666666" points="205,-208 161,-208 161,-189 205,-189 205,-208"/>
<text text-anchor="middle" x="183" y="-196" font-family="Helvetica,sans-Serif" font-size="10.00">fixaray</text>
</a>
</g>
</g>
<!-- Node1&#45;&gt;Node18 -->
<g id="edge26" class="edge">
<title>Node1&#45;&gt;Node18</title>
<path fill="none" stroke="#63b8ff" d="M813.33,-594.29C805.02,-517.4 772.91,-254.78 716,-196.5 672.02,-151.46 641.96,-160.5 579,-160.5 579,-160.5 579,-160.5 368.5,-160.5 308.33,-160.5 239.34,-180.13 205.29,-191.17"/>
<polygon fill="#63b8ff" stroke="#63b8ff" points="809.84,-594.61 814.37,-604.19 816.8,-593.87 809.84,-594.61"/>
</g>
<!-- Node19 -->
<g id="node19" class="node">
<title>Node19</title>
<g id="a_node19"><a xlink:href="../../de/d0c/forces_8f90.html#a7b4708aaec3cc94526474c16bc3a16f0" target="_top" xlink:title="Compute the real&#45;space MHD forces.">
<polygon fill="white" stroke="#666666" points="488,-448 444,-448 444,-429 488,-429 488,-448"/>
<text text-anchor="middle" x="466" y="-436" font-family="Helvetica,sans-Serif" font-size="10.00">forces</text>
</a>
</g>
</g>
<!-- Node1&#45;&gt;Node19 -->
<g id="edge28" class="edge">
<title>Node1&#45;&gt;Node19</title>
<path fill="none" stroke="#63b8ff" d="M808.36,-595C795.59,-561.71 765.45,-496.62 716,-466.5 642.43,-421.7 533.71,-429.45 488.22,-435.26"/>
<polygon fill="#63b8ff" stroke="#63b8ff" points="805.04,-596.09 811.76,-604.28 811.61,-593.68 805.04,-596.09"/>
</g>
<!-- Node20 -->
<g id="node20" class="node">
<title>Node20</title>
<g id="a_node20"><a xlink:href="../../d6/d77/fouri_8f90.html#a0f902f8d584a395f9db7175079d273c7" target="_top" xlink:title="Compute Fourier integrals and build amatrix.">
<polygon fill="white" stroke="#666666" points="702.5,-891 667.5,-891 667.5,-872 702.5,-872 702.5,-891"/>
<text text-anchor="middle" x="685" y="-879" font-family="Helvetica,sans-Serif" font-size="10.00">fouri</text>
</a>
</g>
</g>
<!-- Node1&#45;&gt;Node20 -->
<g id="edge30" class="edge">
<title>Node1&#45;&gt;Node20</title>
<path fill="none" stroke="#63b8ff" d="M810.79,-636.1C799.94,-680.2 769.92,-785.55 716,-857.5 712,-862.84 706.55,-867.67 701.39,-871.57"/>
<polygon fill="#63b8ff" stroke="#63b8ff" points="814.13,-637.16 813.04,-626.62 807.32,-635.54 814.13,-637.16"/>
</g>
<!-- Node21 -->
<g id="node21" class="node">
<title>Node21</title>
<g id="a_node21"><a xlink:href="../../d0/d1c/fourp_8f90.html#add725dd420251115fd60182dc992503c" target="_top" xlink:title="Perform Fourier integrals of Green&#39;s function kernel.">
<polygon fill="white" stroke="#666666" points="704,-1004 666,-1004 666,-985 704,-985 704,-1004"/>
<text text-anchor="middle" x="685" y="-992" font-family="Helvetica,sans-Serif" font-size="10.00">fourp</text>
</a>
</g>
</g>
<!-- Node1&#45;&gt;Node21 -->
<g id="edge32" class="edge">
<title>Node1&#45;&gt;Node21</title>
<path fill="none" stroke="#63b8ff" d="M814.05,-636.73C809.2,-694.85 789.4,-859.59 716,-970.5 712.39,-975.95 707.15,-980.75 702.05,-984.59"/>
<polygon fill="#63b8ff" stroke="#63b8ff" points="817.53,-637.19 814.8,-626.95 810.55,-636.66 817.53,-637.19"/>
</g>
<!-- Node22 -->
<g id="node22" class="node">
<title>Node22</title>
<g id="a_node22"><a xlink:href="../../d1/d87/freeb__data_8f90.html#a71de251d01e145a30e3f710ac705f217" target="_top" xlink:title="Write out edge values of fields.">
<polygon fill="white" stroke="#666666" points="716,-19 654,-19 654,0 716,0 716,-19"/>
<text text-anchor="middle" x="685" y="-7" font-family="Helvetica,sans-Serif" font-size="10.00">freeb_data</text>
</a>
</g>
</g>
<!-- Node1&#45;&gt;Node22 -->
<g id="edge34" class="edge">
<title>Node1&#45;&gt;Node22</title>
<path fill="none" stroke="#63b8ff" d="M813.89,-594.21C806.54,-501.37 774.11,-132.07 716,-33.5 712.75,-27.98 707.72,-23.23 702.7,-19.44"/>
<polygon fill="#63b8ff" stroke="#63b8ff" points="810.39,-594.42 814.65,-604.12 817.37,-593.88 810.39,-594.42"/>
</g>
<!-- Node23 -->
<g id="node23" class="node">
<title>Node23</title>
<g id="a_node23"><a xlink:href="../../d5/dfd/guess__axis_8f90.html#a375e34fe4656d4c51d5013939bf5617e" target="_top" xlink:title="Computes guess for magnetic axis if user guess leads to initial sign change of Jacobian.">
<polygon fill="white" stroke="#666666" points="309,-930 244,-930 244,-911 309,-911 309,-930"/>
<text text-anchor="middle" x="276.5" y="-918" font-family="Helvetica,sans-Serif" font-size="10.00">guess_axis</text>
</a>
</g>
</g>
<!-- Node1&#45;&gt;Node23 -->
<g id="edge36" class="edge">
<title>Node1&#45;&gt;Node23</title>
<path fill="none" stroke="#63b8ff" d="M814.13,-636.77C808.08,-724.21 781.18,-1054.97 716,-1132.5 674.09,-1182.35 644.13,-1184.5 579,-1184.5 579,-1184.5 579,-1184.5 465,-1184.5 337.67,-1184.5 288.88,-977.84 279.32,-930.21"/>
<polygon fill="#63b8ff" stroke="#63b8ff" points="817.62,-637.02 814.79,-626.81 810.63,-636.55 817.62,-637.02"/>
</g>
<!-- Node24 -->
<g id="node24" class="node">
<title>Node24</title>
<g id="a_node24"><a xlink:href="../../dc/df5/interp_8f90.html#a5bac7725cb89730c4bd187e158dc36ee" target="_top" xlink:title="Interpolate , &#160;and &#160;on full grid.">
<polygon fill="white" stroke="#666666" points="705.5,-95 664.5,-95 664.5,-76 705.5,-76 705.5,-95"/>
<text text-anchor="middle" x="685" y="-83" font-family="Helvetica,sans-Serif" font-size="10.00">interp</text>
</a>
</g>
</g>
<!-- Node1&#45;&gt;Node24 -->
<g id="edge38" class="edge">
<title>Node1&#45;&gt;Node24</title>
<path fill="none" stroke="#63b8ff" d="M813.66,-594.17C805.9,-507.91 773.45,-185.5 716,-103.5 713.35,-99.72 709.63,-96.6 705.71,-94.08"/>
<polygon fill="#63b8ff" stroke="#63b8ff" points="810.17,-594.37 814.53,-604.02 817.14,-593.75 810.17,-594.37"/>
</g>
<!-- Node26 -->
<g id="node26" class="node">
<title>Node26</title>
<g id="a_node26"><a xlink:href="../../d8/dc3/jacobian_8f90.html#af346f65d2aa225d9ede6e0f23add6142" target="_top" xlink:title="Evaulate the Jacobian of the transform from flux&#45; to cylindrical coordinates.">
<polygon fill="white" stroke="#666666" points="604.5,-815 551.5,-815 551.5,-796 604.5,-796 604.5,-815"/>
<text text-anchor="middle" x="578" y="-803" font-family="Helvetica,sans-Serif" font-size="10.00">jacobian</text>
</a>
</g>
</g>
<!-- Node1&#45;&gt;Node26 -->
<g id="edge41" class="edge">
<title>Node1&#45;&gt;Node26</title>
<path fill="none" stroke="#63b8ff" d="M809.48,-635.94C797.8,-671.75 768.49,-745.42 716,-781.5 682.67,-804.41 634.3,-807.61 604.85,-807.09"/>
<polygon fill="#63b8ff" stroke="#63b8ff" points="812.7,-637.4 812.32,-626.81 806.01,-635.32 812.7,-637.4"/>
</g>
<!-- Node27 -->
<g id="node27" class="node">
<title>Node27</title>
<g id="a_node27"><a xlink:href="../../d6/d53/jxbforce_8f90.html#aef04f343b688724d6ec0ee8f2a9db7c1" target="_top" xlink:title="Program for computing local &#160;force balance.">
<polygon fill="white" stroke="#666666" points="603,-322 553,-322 553,-303 603,-303 603,-322"/>
<text text-anchor="middle" x="578" y="-310" font-family="Helvetica,sans-Serif" font-size="10.00">jxbforce</text>
</a>
</g>
</g>
<!-- Node1&#45;&gt;Node27 -->
<g id="edge43" class="edge">
<title>Node1&#45;&gt;Node27</title>
<path fill="none" stroke="#63b8ff" d="M812.24,-594.26C801.67,-528.49 766.1,-330.46 716,-293.5 680.44,-267.27 625.23,-288.56 596.98,-302.61"/>
<polygon fill="#63b8ff" stroke="#63b8ff" points="808.77,-594.73 813.78,-604.06 815.68,-593.64 808.77,-594.73"/>
</g>
<!-- Node28 -->
<g id="node28" class="node">
<title>Node28</title>
<g id="a_node28"><a xlink:href="../../d4/d51/lamcal_8f90.html#aae66bdcec0bbb969704413d933148096" target="_top" xlink:title="Normalization parameters for .">
<polygon fill="white" stroke="#666666" points="707.5,-512 662.5,-512 662.5,-493 707.5,-493 707.5,-512"/>
<text text-anchor="middle" x="685" y="-500" font-family="Helvetica,sans-Serif" font-size="10.00">lamcal</text>
</a>
</g>
</g>
<!-- Node1&#45;&gt;Node28 -->
<g id="edge45" class="edge">
<title>Node1&#45;&gt;Node28</title>
<path fill="none" stroke="#63b8ff" d="M798.37,-597.35C779.25,-577.57 746.91,-545.53 716,-521.5 711.91,-518.32 707.28,-515.18 702.89,-512.4"/>
<polygon fill="#63b8ff" stroke="#63b8ff" points="795.69,-599.61 805.13,-604.41 800.75,-594.77 795.69,-599.61"/>
</g>
<!-- Node29 -->
<g id="node29" class="node">
<title>Node29</title>
<g id="a_node29"><a xlink:href="../../de/d25/mercier_8f90.html#a6635929818286c4cff963bd148261208" target="_top" xlink:title="Evaluate the Mercier stability criterion.">
<polygon fill="white" stroke="#666666" points="709.5,-322 660.5,-322 660.5,-303 709.5,-303 709.5,-322"/>
<text text-anchor="middle" x="685" y="-310" font-family="Helvetica,sans-Serif" font-size="10.00">mercier</text>
</a>
</g>
</g>
<!-- Node1&#45;&gt;Node29 -->
<g id="edge47" class="edge">
<title>Node1&#45;&gt;Node29</title>
<path fill="none" stroke="#63b8ff" d="M812.07,-594.42C803.25,-545.27 776.15,-420.88 716,-336.5 712.13,-331.07 706.7,-326.22 701.53,-322.32"/>
<polygon fill="#63b8ff" stroke="#63b8ff" points="808.61,-594.95 813.75,-604.22 815.51,-593.77 808.61,-594.95"/>
</g>
<!-- Node30 -->
<g id="node30" class="node">
<title>Node30</title>
<g id="a_node30"><a xlink:href="../../dd/d98/precal_8f90.html#a0dae73e848a4757092d7e9786d073d3d" target="_top" xlink:title="Pre&#45;compute constant terms required for NESTOR.">
<polygon fill="white" stroke="#666666" points="599.5,-1118 556.5,-1118 556.5,-1099 599.5,-1099 599.5,-1118"/>
<text text-anchor="middle" x="578" y="-1106" font-family="Helvetica,sans-Serif" font-size="10.00">precal</text>
</a>
</g>
</g>
<!-- Node1&#45;&gt;Node30 -->
<g id="edge50" class="edge">
<title>Node1&#45;&gt;Node30</title>
<path fill="none" stroke="#63b8ff" d="M813.77,-636.78C806.74,-718.13 777.66,-1008.15 716,-1072.5 685.37,-1104.46 630.08,-1109.27 599.96,-1109.32"/>
<polygon fill="#63b8ff" stroke="#63b8ff" points="817.25,-637.16 814.6,-626.9 810.28,-636.57 817.25,-637.16"/>
</g>
<!-- Node31 -->
<g id="node31" class="node">
<title>Node31</title>
<g id="a_node31"><a xlink:href="../../d7/d61/profil1d_8f90.html#a2bc38da2d3b36d16295159df2f8573e2" target="_top" xlink:title="Compute phip and iota profiles on full grid.">
<polygon fill="white" stroke="#666666" points="708.5,-132 661.5,-132 661.5,-113 708.5,-113 708.5,-132"/>
<text text-anchor="middle" x="685" y="-120" font-family="Helvetica,sans-Serif" font-size="10.00">profil1d</text>
</a>
</g>
</g>
<!-- Node1&#45;&gt;Node31 -->
<g id="edge52" class="edge">
<title>Node1&#45;&gt;Node31</title>
<path fill="none" stroke="#63b8ff" d="M815.89,-594.21C816.22,-524.4 809.58,-298.26 716,-146.5 712.57,-140.94 707.37,-136.12 702.26,-132.28"/>
<polygon fill="#63b8ff" stroke="#63b8ff" points="812.39,-594.14 815.78,-604.18 819.39,-594.22 812.39,-594.14"/>
</g>
<!-- Node32 -->
<g id="node32" class="node">
<title>Node32</title>
<g id="a_node32"><a xlink:href="../../dd/d75/profil3d_8f90.html#a67d2774ceac255f1e1f75e54f4679e9c" target="_top" xlink:title="Compute three&#45;dimensional profiles of flux&#45;surface geometry etc.">
<polygon fill="white" stroke="#666666" points="708.5,-246 661.5,-246 661.5,-227 708.5,-227 708.5,-246"/>
<text text-anchor="middle" x="685" y="-234" font-family="Helvetica,sans-Serif" font-size="10.00">profil3d</text>
</a>
</g>
</g>
<!-- Node1&#45;&gt;Node32 -->
<g id="edge54" class="edge">
<title>Node1&#45;&gt;Node32</title>
<path fill="none" stroke="#63b8ff" d="M814.05,-594.27C809.2,-536.15 789.4,-371.41 716,-260.5 712.39,-255.05 707.15,-250.25 702.05,-246.41"/>
<polygon fill="#63b8ff" stroke="#63b8ff" points="810.55,-594.34 814.8,-604.05 817.53,-593.81 810.55,-594.34"/>
</g>
<!-- Node33 -->
<g id="node33" class="node">
<title>Node33</title>
<g id="a_node33"><a xlink:href="../../d8/da3/readin_8f90.html#a60f2bfd8fc6f7c3e027a8f91ef0c7b25" target="_top" xlink:title="Read the input file.">
<polygon fill="white" stroke="#666666" points="391,-75 348,-75 348,-56 391,-56 391,-75"/>
<text text-anchor="middle" x="369.5" y="-63" font-family="Helvetica,sans-Serif" font-size="10.00">readin</text>
</a>
</g>
</g>
<!-- Node1&#45;&gt;Node33 -->
<g id="edge57" class="edge">
<title>Node1&#45;&gt;Node33</title>
<path fill="none" stroke="#63b8ff" d="M815.1,-594.26C812.88,-501.81 798.9,-135.93 716,-66.5 619.89,13.99 450.43,-36.28 391.44,-57.45"/>
<polygon fill="#63b8ff" stroke="#63b8ff" points="811.6,-594.21 815.31,-604.13 818.6,-594.06 811.6,-594.21"/>
</g>
<!-- Node34 -->
<g id="node34" class="node">
<title>Node34</title>
<g id="a_node34"><a xlink:href="../../db/d5a/residue_8f90.html#a2390b3cf93196383bbe960acb85b3e32" target="_top" xlink:title="Compute invariant residuals.">
<polygon fill="white" stroke="#666666" points="490,-777 442,-777 442,-758 490,-758 490,-777"/>
<text text-anchor="middle" x="466" y="-765" font-family="Helvetica,sans-Serif" font-size="10.00">residue</text>
</a>
</g>
</g>
<!-- Node1&#45;&gt;Node34 -->
<g id="edge59" class="edge">
<title>Node1&#45;&gt;Node34</title>
<path fill="none" stroke="#63b8ff" d="M804.05,-635.01C787.86,-660.74 755.78,-705.45 716,-728.5 642.36,-771.16 536.88,-771.51 490.46,-769.22"/>
<polygon fill="#63b8ff" stroke="#63b8ff" points="806.99,-636.91 809.2,-626.55 801.01,-633.27 806.99,-636.91"/>
</g>
<!-- Node35 -->
<g id="node35" class="node">
<title>Node35</title>
<g id="a_node35"><a xlink:href="../../d8/d86/scalfor_8f90.html#a2ef9c34d20ddf30cb7b15fe35066b8ca" target="_top" xlink:title="Build forces from different contributions.">
<polygon fill="white" stroke="#666666" points="601,-739 555,-739 555,-720 601,-720 601,-739"/>
<text text-anchor="middle" x="578" y="-727" font-family="Helvetica,sans-Serif" font-size="10.00">scalfor</text>
</a>
</g>
</g>
<!-- Node1&#45;&gt;Node35 -->
<g id="edge61" class="edge">
<title>Node1&#45;&gt;Node35</title>
<path fill="none" stroke="#63b8ff" d="M800.85,-633.92C783.11,-654.84 751.21,-688.3 716,-705.5 678.46,-723.83 629.1,-728.35 601.03,-729.35"/>
<polygon fill="#63b8ff" stroke="#63b8ff" points="803.34,-636.4 807,-626.46 797.94,-631.95 803.34,-636.4"/>
</g>
<!-- Node38 -->
<g id="node38" class="node">
<title>Node38</title>
<g id="a_node38"><a xlink:href="../../d6/d03/surface_8f90.html#ad7b6446e720a806f41f10dd1eb0b6f88" target="_top" xlink:title="Evaluate the geometry of the LCFS and tangential derivatives.">
<polygon fill="white" stroke="#666666" points="602.5,-1080 553.5,-1080 553.5,-1061 602.5,-1061 602.5,-1080"/>
<text text-anchor="middle" x="578" y="-1068" font-family="Helvetica,sans-Serif" font-size="10.00">surface</text>
</a>
</g>
</g>
<!-- Node1&#45;&gt;Node38 -->
<g id="edge68" class="edge">
<title>Node1&#45;&gt;Node38</title>
<path fill="none" stroke="#63b8ff" d="M813.67,-636.48C806.41,-714.82 776.98,-988.7 716,-1046.5 685.51,-1075.4 633.17,-1076.1 602.78,-1073.59"/>
<polygon fill="#63b8ff" stroke="#63b8ff" points="817.13,-637.06 814.54,-626.79 810.16,-636.44 817.13,-637.06"/>
</g>
<!-- Node39 -->
<g id="node39" class="node">
<title>Node39</title>
<g id="a_node39"><a xlink:href="../../d4/df3/symforce_8f90.html#a169610bcc5544fc8e16ad1e10ac85dcb" target="_top" xlink:title="Symmetrize forces on restricted &#160;interval &#160;so cos, sin integrals can be performed.">
<polygon fill="white" stroke="#666666" points="494,-666 438,-666 438,-647 494,-647 494,-666"/>
<text text-anchor="middle" x="466" y="-654" font-family="Helvetica,sans-Serif" font-size="10.00">symforce</text>
</a>
</g>
</g>
<!-- Node1&#45;&gt;Node39 -->
<g id="edge70" class="edge">
<title>Node1&#45;&gt;Node39</title>
<path fill="none" stroke="#63b8ff" d="M775.74,-628.88C757.71,-634.37 735.99,-640.21 716,-643.5 636.34,-656.62 540.59,-657.52 494.48,-657.05"/>
<polygon fill="#63b8ff" stroke="#63b8ff" points="776.77,-632.22 785.27,-625.89 774.68,-625.54 776.77,-632.22"/>
</g>
<!-- Node40 -->
<g id="node40" class="node">
<title>Node40</title>
<g id="a_node40"><a xlink:href="../../d0/d6f/tomnsp_8f90.html#a6c7345c0aa0f13f311650d9633e6ecf8" target="_top" xlink:title="Fourier&#45;transform anti&#45;symmetric forces from real space to Fourier space.">
<polygon fill="white" stroke="#666666" points="493,-629 439,-629 439,-610 493,-610 493,-629"/>
<text text-anchor="middle" x="466" y="-617" font-family="Helvetica,sans-Serif" font-size="10.00">tomnspa</text>
</a>
</g>
</g>
<!-- Node1&#45;&gt;Node40 -->
<g id="edge72" class="edge">
<title>Node1&#45;&gt;Node40</title>
<path fill="none" stroke="#63b8ff" d="M742.95,-626.91C733.9,-627.98 724.75,-628.89 716,-629.5 634.86,-635.18 538.61,-627.12 493.2,-622.44"/>
<polygon fill="#63b8ff" stroke="#63b8ff" points="743.35,-630.38 752.84,-625.67 742.48,-623.44 743.35,-630.38"/>
</g>
<!-- Node41 -->
<g id="node41" class="node">
<title>Node41</title>
<g id="a_node41"><a xlink:href="../../d0/d6f/tomnsp_8f90.html#aec4b11e4f55e18c6bfc0348c263e31db" target="_top" xlink:title="Fourier&#45;transform symmetric forces from real space to Fourier space.">
<polygon fill="white" stroke="#666666" points="605,-489 551,-489 551,-470 605,-470 605,-489"/>
<text text-anchor="middle" x="578" y="-477" font-family="Helvetica,sans-Serif" font-size="10.00">tomnsps</text>
</a>
</g>
</g>
<!-- Node1&#45;&gt;Node41 -->
<g id="edge74" class="edge">
<title>Node1&#45;&gt;Node41</title>
<path fill="none" stroke="#63b8ff" d="M807.35,-595.58C793.64,-565.05 762.79,-507.69 716,-483.5 681.12,-465.47 634.29,-469.02 605.4,-473.82"/>
<polygon fill="#63b8ff" stroke="#63b8ff" points="804,-596.65 811.16,-604.45 810.43,-593.88 804,-596.65"/>
</g>
<!-- Node2&#45;&gt;Node3 -->
<g id="edge2" class="edge">
<title>Node2&#45;&gt;Node3</title>
<path fill="none" stroke="#63b8ff" d="M642.23,-539.5C628.24,-539.5 613.2,-539.5 601.3,-539.5"/>
<polygon fill="#63b8ff" stroke="#63b8ff" points="642.12,-543 652.12,-539.5 642.12,-536 642.12,-543"/>
</g>
<!-- Node3&#45;&gt;Node4 -->
<g id="edge3" class="edge">
<title>Node3&#45;&gt;Node4</title>
<path fill="none" stroke="#63b8ff" d="M543.57,-539.63C512.25,-541.13 465.14,-547.04 430,-567.5 404.64,-582.27 385,-611.97 375.95,-627.51"/>
<polygon fill="#63b8ff" stroke="#63b8ff" points="543.35,-543.14 553.23,-539.3 543.11,-536.14 543.35,-543.14"/>
</g>
<!-- Node4&#45;&gt;Node5 -->
<g id="edge4" class="edge">
<title>Node4&#45;&gt;Node5</title>
<path fill="none" stroke="#63b8ff" d="M333.18,-637.5C321.79,-637.5 309.5,-637.5 299.38,-637.5"/>
<polygon fill="#63b8ff" stroke="#63b8ff" points="333.08,-641 343.08,-637.5 333.08,-634 333.08,-641"/>
</g>
<!-- Node9 -->
<g id="node9" class="node">
<title>Node9</title>
<g id="a_node9"><a xlink:href="../../d0/d71/fileout_8f90.html#a7228e984aaf2c38bd772e3d846fab7af" target="_top" xlink:title="Write the output files.">
<polygon fill="white" stroke="#666666" points="297.5,-341 255.5,-341 255.5,-322 297.5,-322 297.5,-341"/>
<text text-anchor="middle" x="276.5" y="-329" font-family="Helvetica,sans-Serif" font-size="10.00">fileout</text>
</a>
</g>
</g>
<!-- Node4&#45;&gt;Node9 -->
<g id="edge8" class="edge">
<title>Node4&#45;&gt;Node9</title>
<path fill="none" stroke="#63b8ff" d="M362.4,-617C344.63,-557.25 293.34,-384.75 280.46,-341.45"/>
<polygon fill="#63b8ff" stroke="#63b8ff" points="358.94,-617.63 365.14,-626.21 365.65,-615.63 358.94,-617.63"/>
</g>
<!-- Node6 -->
<g id="node6" class="node">
<title>Node6</title>
<g id="a_node6"><a xlink:href="../../d7/d46/eqsolve_8f90.html#ab740b09d1b651e2ab8a60c5d552df0c2" target="_top" xlink:title="Iteratively evolve the Fourier coefficients that specify the equilibrium.">
<polygon fill="white" stroke="#666666" points="208,-513 158,-513 158,-494 208,-494 208,-513"/>
<text text-anchor="middle" x="183" y="-501" font-family="Helvetica,sans-Serif" font-size="10.00">eqsolve</text>
</a>
</g>
</g>
<!-- Node5&#45;&gt;Node6 -->
<g id="edge5" class="edge">
<title>Node5&#45;&gt;Node6</title>
<path fill="none" stroke="#63b8ff" d="M262.49,-618.45C242.75,-589.53 205.91,-535.59 190.77,-513.41"/>
<polygon fill="#63b8ff" stroke="#63b8ff" points="259.54,-620.33 268.07,-626.61 265.32,-616.38 259.54,-620.33"/>
</g>
<!-- Node6&#45;&gt;Node7 -->
<g id="edge6" class="edge">
<title>Node6&#45;&gt;Node7</title>
<path fill="none" stroke="#63b8ff" d="M174.84,-482.87C158.29,-435.2 117.89,-318.82 105.9,-284.3"/>
<polygon fill="#63b8ff" stroke="#63b8ff" points="171.5,-483.93 178.09,-492.23 178.11,-481.64 171.5,-483.93"/>
</g>
<!-- Node8 -->
<g id="node8" class="node">
<title>Node8</title>
<g id="a_node8"><a xlink:href="../../db/d61/vmec_8f90.html#ace5bdf043bb85c8f0a9fc582bdb55725" target="_top" xlink:title="Main program of VMEC.">
<polygon fill="white" stroke="#666666" points="45,-284 0,-284 0,-265 45,-265 45,-284"/>
<text text-anchor="middle" x="22.5" y="-272" font-family="Helvetica,sans-Serif" font-size="10.00">xvmec</text>
</a>
</g>
</g>
<!-- Node7&#45;&gt;Node8 -->
<g id="edge7" class="edge">
<title>Node7&#45;&gt;Node8</title>
<path fill="none" stroke="#63b8ff" d="M69.39,-274.5C61.36,-274.5 52.89,-274.5 45.43,-274.5"/>
<polygon fill="#63b8ff" stroke="#63b8ff" points="69.16,-278 79.16,-274.5 69.16,-271 69.16,-278"/>
</g>
<!-- Node9&#45;&gt;Node7 -->
<g id="edge9" class="edge">
<title>Node9&#45;&gt;Node7</title>
<path fill="none" stroke="#63b8ff" d="M244.64,-321.33C209.23,-309.67 152.21,-290.88 122.29,-281.02"/>
<polygon fill="#63b8ff" stroke="#63b8ff" points="243.29,-324.57 253.88,-324.38 245.48,-317.92 243.29,-324.57"/>
</g>
<!-- Node10&#45;&gt;Node11 -->
<g id="edge11" class="edge">
<title>Node10&#45;&gt;Node11</title>
<path fill="none" stroke="#63b8ff" d="M652.92,-929.75C636.73,-935.61 617.26,-942.65 602.37,-948.04"/>
<polygon fill="#63b8ff" stroke="#63b8ff" points="653.87,-933.13 662.08,-926.43 651.49,-926.54 653.87,-933.13"/>
</g>
<!-- Node11&#45;&gt;Node12 -->
<g id="edge12" class="edge">
<title>Node11&#45;&gt;Node12</title>
<path fill="none" stroke="#63b8ff" d="M557.02,-973.76C534.03,-993.61 497.05,-1025.54 478.46,-1041.6"/>
<polygon fill="#63b8ff" stroke="#63b8ff" points="559.22,-976.48 564.5,-967.3 554.64,-971.19 559.22,-976.48"/>
</g>
<!-- Node12&#45;&gt;Node4 -->
<g id="edge13" class="edge">
<title>Node12&#45;&gt;Node4</title>
<path fill="none" stroke="#63b8ff" d="M460.2,-1030.49C443.03,-955.25 384.97,-700.89 372.76,-647.42"/>
<polygon fill="#63b8ff" stroke="#63b8ff" points="456.78,-1031.23 462.42,-1040.2 463.61,-1029.67 456.78,-1031.23"/>
</g>
<!-- Node13 -->
<g id="node13" class="node">
<title>Node13</title>
<g id="a_node13"><a xlink:href="../../d4/d69/nestor__main_8f90.html#a1b0fd336e80285a96925333daa2ee8f0" target="_top" xlink:title="Main program of stand&#45;alone version of NESTOR.">
<polygon fill="white" stroke="#666666" points="391.5,-1061 347.5,-1061 347.5,-1042 391.5,-1042 391.5,-1061"/>
<text text-anchor="middle" x="369.5" y="-1049" font-family="Helvetica,sans-Serif" font-size="10.00">nestor</text>
</a>
</g>
</g>
<!-- Node12&#45;&gt;Node13 -->
<g id="edge14" class="edge">
<title>Node12&#45;&gt;Node13</title>
<path fill="none" stroke="#63b8ff" d="M428.72,-1051.5C416.3,-1051.5 402.82,-1051.5 391.95,-1051.5"/>
<polygon fill="#63b8ff" stroke="#63b8ff" points="428.66,-1055 438.66,-1051.5 428.66,-1048 428.66,-1055"/>
</g>
<!-- Node14&#45;&gt;Node12 -->
<g id="edge17" class="edge">
<title>Node14&#45;&gt;Node12</title>
<path fill="none" stroke="#63b8ff" d="M543.58,-1131.27C541.65,-1130.07 539.77,-1128.81 538,-1127.5 511.28,-1107.76 486.29,-1077.13 474.35,-1061.47"/>
<polygon fill="#63b8ff" stroke="#63b8ff" points="541.74,-1134.25 552.18,-1136.05 545.14,-1128.13 541.74,-1134.25"/>
</g>
<!-- Node15&#45;&gt;Node16 -->
<g id="edge19" class="edge">
<title>Node15&#45;&gt;Node16</title>
<path fill="none" stroke="#63b8ff" d="M550.52,-345.93C530.41,-342.45 503.27,-337.77 485.47,-334.69"/>
<polygon fill="#63b8ff" stroke="#63b8ff" points="549.76,-349.35 560.21,-347.6 550.96,-342.45 549.76,-349.35"/>
</g>
<!-- Node16&#45;&gt;Node9 -->
<g id="edge20" class="edge">
<title>Node16&#45;&gt;Node9</title>
<path fill="none" stroke="#63b8ff" d="M435.25,-331.5C396.85,-331.5 331.04,-331.5 297.87,-331.5"/>
<polygon fill="#63b8ff" stroke="#63b8ff" points="435.17,-335 445.17,-331.5 435.17,-328 435.17,-335"/>
</g>
<!-- Node17&#45;&gt;Node3 -->
<g id="edge22" class="edge">
<title>Node17&#45;&gt;Node3</title>
<path fill="none" stroke="#63b8ff" d="M673.64,-408.24C661.51,-430.69 640.23,-468.04 618,-497.5 609.13,-509.26 597.48,-521.46 589.23,-529.66"/>
<polygon fill="#63b8ff" stroke="#63b8ff" points="676.64,-410.06 678.26,-399.59 670.47,-406.77 676.64,-410.06"/>
</g>
<!-- Node17&#45;&gt;Node16 -->
<g id="edge23" class="edge">
<title>Node17&#45;&gt;Node16</title>
<path fill="none" stroke="#63b8ff" d="M645.53,-386.84C615.62,-384.69 573.4,-379.77 538,-368.5 517.6,-362.01 496.05,-349.94 482.12,-341.35"/>
<polygon fill="#63b8ff" stroke="#63b8ff" points="645.03,-390.31 655.24,-387.46 645.48,-383.33 645.03,-390.31"/>
</g>
<!-- Node18&#45;&gt;Node7 -->
<g id="edge27" class="edge">
<title>Node18&#45;&gt;Node7</title>
<path fill="none" stroke="#63b8ff" d="M163.61,-216.08C147.86,-231.13 125.75,-252.27 112.9,-264.56"/>
<polygon fill="#63b8ff" stroke="#63b8ff" points="165.7,-218.92 170.51,-209.48 160.87,-213.86 165.7,-218.92"/>
</g>
<!-- Node19&#45;&gt;Node4 -->
<g id="edge29" class="edge">
<title>Node19&#45;&gt;Node4</title>
<path fill="none" stroke="#63b8ff" d="M447.66,-456.6C441.51,-463.67 434.91,-472.09 430,-480.5 399.72,-532.35 379.65,-602.42 372.96,-627.81"/>
<polygon fill="#63b8ff" stroke="#63b8ff" points="449.89,-459.35 454.02,-449.59 444.71,-454.64 449.89,-459.35"/>
</g>
<!-- Node20&#45;&gt;Node11 -->
<g id="edge31" class="edge">
<title>Node20&#45;&gt;Node11</title>
<path fill="none" stroke="#63b8ff" d="M658.74,-897.3C657.13,-898.37 655.54,-899.44 654,-900.5 631.51,-915.98 606.24,-935.26 591.52,-946.69"/>
<polygon fill="#63b8ff" stroke="#63b8ff" points="660.2,-900.52 666.7,-892.15 656.4,-894.64 660.2,-900.52"/>
</g>
<!-- Node21&#45;&gt;Node11 -->
<g id="edge33" class="edge">
<title>Node21&#45;&gt;Node11</title>
<path fill="none" stroke="#63b8ff" d="M654.94,-983.98C638.32,-977.97 617.76,-970.53 602.22,-964.9"/>
<polygon fill="#63b8ff" stroke="#63b8ff" points="653.69,-987.25 664.29,-987.37 656.08,-980.67 653.69,-987.25"/>
</g>
<!-- Node23&#45;&gt;Node6 -->
<g id="edge37" class="edge">
<title>Node23&#45;&gt;Node6</title>
<path fill="none" stroke="#63b8ff" d="M270.96,-899.8C254.46,-824.61 198.04,-567.46 186.19,-513.49"/>
<polygon fill="#63b8ff" stroke="#63b8ff" points="267.44,-900.11 273,-909.13 274.28,-898.61 267.44,-900.11"/>
</g>
<!-- Node25 -->
<g id="node25" class="node">
<title>Node25</title>
<g id="a_node25"><a xlink:href="../../d9/da6/initialize__radial_8f90.html#a187faea543d3a42bc748511f04b5b7d5" target="_top" xlink:title="Allocates memory for radial arrays and initializes radial profiles.">
<polygon fill="white" stroke="#666666" points="618,-132 538,-132 538,-113 618,-113 618,-132"/>
<text text-anchor="middle" x="578" y="-120" font-family="Helvetica,sans-Serif" font-size="10.00">initialize_radial</text>
</a>
</g>
</g>
<!-- Node24&#45;&gt;Node25 -->
<g id="edge39" class="edge">
<title>Node24&#45;&gt;Node25</title>
<path fill="none" stroke="#63b8ff" d="M653.65,-96.19C638.93,-101.38 621.37,-107.57 606.98,-112.64"/>
<polygon fill="#63b8ff" stroke="#63b8ff" points="654.55,-99.59 662.82,-92.96 652.23,-92.98 654.55,-99.59"/>
</g>
<!-- Node25&#45;&gt;Node7 -->
<g id="edge40" class="edge">
<title>Node25&#45;&gt;Node7</title>
<path fill="none" stroke="#63b8ff" d="M526.54,-122.5C484.73,-122.5 423.75,-122.5 370.5,-122.5 370.5,-122.5 370.5,-122.5 275.5,-122.5 217.46,-122.5 200.59,-140.07 158,-179.5 130.95,-204.54 113.14,-245.82 106.01,-264.62"/>
<polygon fill="#63b8ff" stroke="#63b8ff" points="526.28,-126 536.28,-122.5 526.28,-119 526.28,-126"/>
</g>
<!-- Node26&#45;&gt;Node4 -->
<g id="edge42" class="edge">
<title>Node26&#45;&gt;Node4</title>
<path fill="none" stroke="#63b8ff" d="M539.99,-810.46C507.66,-812.71 461.15,-810.66 430,-786.5 384,-750.82 373.45,-674.09 371.13,-647.11"/>
<polygon fill="#63b8ff" stroke="#63b8ff" points="540.04,-813.97 549.69,-809.6 539.43,-806.99 540.04,-813.97"/>
</g>
<!-- Node27&#45;&gt;Node16 -->
<g id="edge44" class="edge">
<title>Node27&#45;&gt;Node16</title>
<path fill="none" stroke="#63b8ff" d="M541.44,-318.64C522.68,-321.88 500.44,-325.72 485.19,-328.36"/>
<polygon fill="#63b8ff" stroke="#63b8ff" points="541.84,-322.13 551.1,-316.97 540.65,-315.23 541.84,-322.13"/>
</g>
<!-- Node28&#45;&gt;Node3 -->
<g id="edge46" class="edge">
<title>Node28&#45;&gt;Node3</title>
<path fill="none" stroke="#63b8ff" d="M651.57,-513.93C635.32,-519.65 616.05,-526.44 601.45,-531.59"/>
<polygon fill="#63b8ff" stroke="#63b8ff" points="652.55,-517.29 660.82,-510.67 650.22,-510.69 652.55,-517.29"/>
</g>
<!-- Node29&#45;&gt;Node27 -->
<g id="edge48" class="edge">
<title>Node29&#45;&gt;Node27</title>
<path fill="none" stroke="#63b8ff" d="M648.79,-312.5C633.91,-312.5 616.94,-312.5 603.46,-312.5"/>
<polygon fill="#63b8ff" stroke="#63b8ff" points="648.66,-316 658.66,-312.5 648.66,-309 648.66,-316"/>
</g>
<!-- Node30&#45;&gt;Node12 -->
<g id="edge51" class="edge">
<title>Node30&#45;&gt;Node12</title>
<path fill="none" stroke="#63b8ff" d="M545.97,-1093.52C543.27,-1092.17 540.58,-1090.82 538,-1089.5 519.82,-1080.21 499.29,-1069.16 484.99,-1061.37"/>
<polygon fill="#63b8ff" stroke="#63b8ff" points="544.41,-1096.65 554.92,-1097.92 547.5,-1090.37 544.41,-1096.65"/>
</g>
<!-- Node31&#45;&gt;Node25 -->
<g id="edge53" class="edge">
<title>Node31&#45;&gt;Node25</title>
<path fill="none" stroke="#63b8ff" d="M649.94,-122.5C639.83,-122.5 628.68,-122.5 618.27,-122.5"/>
<polygon fill="#63b8ff" stroke="#63b8ff" points="649.7,-126 659.7,-122.5 649.7,-119 649.7,-126"/>
</g>
<!-- Node32&#45;&gt;Node6 -->
<g id="edge55" class="edge">
<title>Node32&#45;&gt;Node6</title>
<path fill="none" stroke="#63b8ff" d="M649.86,-241.35C607.18,-246.98 531.85,-255.5 467,-255.5 467,-255.5 467,-255.5 368.5,-255.5 307.64,-255.5 284.26,-266.86 244,-312.5 195.02,-368.02 186.01,-463.37 184.36,-493.84"/>
<polygon fill="#63b8ff" stroke="#63b8ff" points="650.31,-244.82 659.75,-240.01 649.37,-237.88 650.31,-244.82"/>
</g>
<!-- Node32&#45;&gt;Node25 -->
<g id="edge56" class="edge">
<title>Node32&#45;&gt;Node25</title>
<path fill="none" stroke="#63b8ff" d="M667.32,-218.39C644.81,-193.95 605.5,-151.27 587.93,-132.19"/>
<polygon fill="#63b8ff" stroke="#63b8ff" points="664.67,-220.68 674.02,-225.67 669.82,-215.94 664.67,-220.68"/>
</g>
<!-- Node33&#45;&gt;Node7 -->
<g id="edge58" class="edge">
<title>Node33&#45;&gt;Node7</title>
<path fill="none" stroke="#63b8ff" d="M336.39,-62.82C290.99,-60.85 207.98,-64.23 158,-108.5 110,-151.01 103.42,-236.21 102.59,-264.86"/>
<polygon fill="#63b8ff" stroke="#63b8ff" points="335.92,-66.3 346.1,-63.36 336.32,-59.31 335.92,-66.3"/>
</g>
<!-- Node34&#45;&gt;Node4 -->
<g id="edge60" class="edge">
<title>Node34&#45;&gt;Node4</title>
<path fill="none" stroke="#63b8ff" d="M432.34,-751.63C431.53,-750.95 430.74,-750.23 430,-749.5 398.97,-718.88 380.35,-668.63 373.5,-647.43"/>
<polygon fill="#63b8ff" stroke="#63b8ff" points="430.33,-754.51 440.56,-757.27 434.29,-748.73 430.33,-754.51"/>
</g>
<!-- Node35&#45;&gt;Node34 -->
<g id="edge62" class="edge">
<title>Node35&#45;&gt;Node34</title>
<path fill="none" stroke="#63b8ff" d="M543.98,-740.91C526.7,-746.88 505.96,-754.04 490.37,-759.43"/>
<polygon fill="#63b8ff" stroke="#63b8ff" points="545,-744.26 553.31,-737.68 542.71,-737.64 545,-744.26"/>
</g>
<!-- Node36 -->
<g id="node36" class="node">
<title>Node36</title>
<g id="a_node36"><a xlink:href="../../d3/d96/residue__con_8f90.html#a8b2d4eb1bd167c336b39b899858e7bfb" target="_top" xlink:title="Compute invariant residuals.">
<polygon fill="white" stroke="#666666" points="500.5,-740 431.5,-740 431.5,-721 500.5,-721 500.5,-740"/>
<text text-anchor="middle" x="466" y="-728" font-family="Helvetica,sans-Serif" font-size="10.00">residue_con</text>
</a>
</g>
</g>
<!-- Node35&#45;&gt;Node36 -->
<g id="edge63" class="edge">
<title>Node35&#45;&gt;Node36</title>
<path fill="none" stroke="#63b8ff" d="M543.51,-729.8C530.02,-729.93 514.47,-730.07 500.93,-730.19"/>
<polygon fill="#63b8ff" stroke="#63b8ff" points="543.26,-733.31 553.23,-729.72 543.19,-726.31 543.26,-733.31"/>
</g>
<!-- Node37 -->
<g id="node37" class="node">
<title>Node37</title>
<g id="a_node37"><a xlink:href="../../d5/d62/residue__mhd_8f90.html#a3ed729a2f8c8d70e4d2fef05c9dfc4c8" target="_top" xlink:title="Compute invariant residuals.">
<polygon fill="white" stroke="#666666" points="502,-703 430,-703 430,-684 502,-684 502,-703"/>
<text text-anchor="middle" x="466" y="-691" font-family="Helvetica,sans-Serif" font-size="10.00">residue_mhd</text>
</a>
</g>
</g>
<!-- Node35&#45;&gt;Node37 -->
<g id="edge65" class="edge">
<title>Node35&#45;&gt;Node37</title>
<path fill="none" stroke="#63b8ff" d="M543.96,-718.69C529.09,-713.82 511.66,-708.12 497.15,-703.37"/>
<polygon fill="#63b8ff" stroke="#63b8ff" points="542.71,-721.96 553.3,-721.74 544.89,-715.31 542.71,-721.96"/>
</g>
<!-- Node36&#45;&gt;Node4 -->
<g id="edge64" class="edge">
<title>Node36&#45;&gt;Node4</title>
<path fill="none" stroke="#63b8ff" d="M432.87,-714.72C431.89,-714 430.92,-713.26 430,-712.5 406.37,-693.09 385.97,-662.84 376.36,-647.35"/>
<polygon fill="#63b8ff" stroke="#63b8ff" points="430.66,-717.46 440.99,-719.8 434.38,-711.53 430.66,-717.46"/>
</g>
<!-- Node37&#45;&gt;Node4 -->
<g id="edge66" class="edge">
<title>Node37&#45;&gt;Node4</title>
<path fill="none" stroke="#63b8ff" d="M435.02,-678.32C433.31,-677.38 431.63,-676.44 430,-675.5 414.27,-666.46 396.84,-655.17 384.94,-647.26"/>
<polygon fill="#63b8ff" stroke="#63b8ff" points="433.03,-681.22 443.5,-682.83 436.31,-675.04 433.03,-681.22"/>
</g>
<!-- Node38&#45;&gt;Node12 -->
<g id="edge69" class="edge">
<title>Node38&#45;&gt;Node12</title>
<path fill="none" stroke="#63b8ff" d="M541.88,-1064.43C525.63,-1061.63 506.72,-1058.36 491.97,-1055.81"/>
<polygon fill="#63b8ff" stroke="#63b8ff" points="541.19,-1067.87 551.64,-1066.12 542.38,-1060.97 541.19,-1067.87"/>
</g>
<!-- Node39&#45;&gt;Node4 -->
<g id="edge71" class="edge">
<title>Node39&#45;&gt;Node4</title>
<path fill="none" stroke="#63b8ff" d="M426.6,-648.78C415.65,-646.58 404.04,-644.24 394.24,-642.27"/>
<polygon fill="#63b8ff" stroke="#63b8ff" points="425.69,-652.17 436.18,-650.71 427.07,-645.3 425.69,-652.17"/>
</g>
<!-- Node40&#45;&gt;Node4 -->
<g id="edge73" class="edge">
<title>Node40&#45;&gt;Node4</title>
<path fill="none" stroke="#63b8ff" d="M427.46,-626.65C416.32,-628.77 404.44,-631.04 394.42,-632.94"/>
<polygon fill="#63b8ff" stroke="#63b8ff" points="428.02,-630.11 437.19,-624.8 426.71,-623.23 428.02,-630.11"/>
</g>
<!-- Node41&#45;&gt;Node4 -->
<g id="edge75" class="edge">
<title>Node41&#45;&gt;Node4</title>
<path fill="none" stroke="#63b8ff" d="M539.62,-487.72C507.63,-496.28 461.84,-512.33 430,-539.5 400.47,-564.69 381.41,-608.37 374,-627.75"/>
<polygon fill="#63b8ff" stroke="#63b8ff" points="540.43,-491.13 549.26,-485.27 538.7,-484.34 540.43,-491.13"/>
</g>
</g>
</svg>
