<?xml version="1.0" encoding="UTF-8" standalone="no"?>
<!DOCTYPE svg PUBLIC "-//W3C//DTD SVG 1.1//EN"
 "http://www.w3.org/Graphics/SVG/1.1/DTD/svg11.dtd">
<!-- Generated by graphviz version 2.49.3 (20211027.1501)
 -->
<!-- Title: dbgout::open_dbg_context Pages: 1 -->
<!--zoomable 895 -->
<svg id="main" version="1.1" xmlns="http://www.w3.org/2000/svg" xmlns:xlink="http://www.w3.org/1999/xlink" xml:space="preserve" onload="init(evt)">
<style type="text/css"><![CDATA[
.edge:hover path { stroke: red; }
.edge:hover polygon { stroke: red; fill: red; }
]]></style>
<script type="text/javascript"><![CDATA[
var edges = document.getElementsByTagName('g');
if (edges && edges.length) {
  for (var i=0;i<edges.length;i++) {
    if (edges[i].id.substr(0,4)=='edge') {
      edges[i].setAttribute('class','edge');
    }
  }
}
]]></script>
        <defs>
                <circle id="rim" cx="0" cy="0" r="7"/>
                <circle id="rim2" cx="0" cy="0" r="3.5"/>
                <g id="zoomPlus">
                        <use xlink:href="#rim" fill="#404040">
                                <set attributeName="fill" to="#808080" begin="zoomplus.mouseover" end="zoomplus.mouseout"/>
                        </use>
                        <path d="M-4,0h8M0,-4v8" fill="none" stroke="white" stroke-width="1.5" pointer-events="none"/>
                </g>
                <g id="zoomMin">
                        <use xlink:href="#rim" fill="#404040">
                                <set attributeName="fill" to="#808080" begin="zoomminus.mouseover" end="zoomminus.mouseout"/>
                        </use>
                        <path d="M-4,0h8" fill="none" stroke="white" stroke-width="1.5" pointer-events="none"/>
                </g>
                <g id="dirArrow">
                        <path fill="none" stroke="white" stroke-width="1.5" d="M0,-3.0v7 M-2.5,-0.5L0,-3.0L2.5,-0.5"/>
                </g>
               <g id="resetDef">
                       <use xlink:href="#rim2" fill="#404040">
                               <set attributeName="fill" to="#808080" begin="reset.mouseover" end="reset.mouseout"/>
                       </use>
               </g>
        </defs>

<script type="text/javascript">
var viewWidth = 781;
var viewHeight = 895;
var sectionId = 'dynsection-1';
</script>
<script xlink:href="../../svgpan.js"/>
<svg id="graph" class="graph">
<g id="viewport">
<title>dbgout::open_dbg_context</title>
<polygon fill="white" stroke="transparent" points="-4,4 -4,-891.48 777,-891.48 777,4 -4,4"/>
<!-- Node1 -->
<g id="node1" class="node">
<title>Node1</title>
<g id="a_node1"><a xlink:title="check if any output is desired for the current iteration check if the given context should be openend...">
<polygon fill="#bfbfbf" stroke="black" points="644,-440.98 644,-459.98 773,-459.98 773,-440.98 644,-440.98"/>
<text text-anchor="middle" x="708.5" y="-447.98" font-family="Helvetica,sans-Serif" font-size="10.00">dbgout::open_dbg_context</text>
</a>
</g>
</g>
<!-- Node1&#45;&gt;Node1 -->
<g id="edge34" class="edge">
<title>Node1&#45;&gt;Node1</title>
<path fill="none" stroke="midnightblue" d="M732.68,-469.51C731.36,-474.61 723.3,-478.48 708.5,-478.48 685.39,-478.48 678.72,-469.04 688.46,-460.24"/>
<polygon fill="midnightblue" stroke="midnightblue" points="735.81,-467.94 728.54,-460.24 729.42,-470.79 735.81,-467.94"/>
</g>
<!-- Node2 -->
<g id="node2" class="node">
<title>Node2</title>
<g id="a_node2"><a xlink:href="../../d8/d7d/add__fluxes_8f90.html#a988e7013ef02301b9cfbde5b8068d5af" target="_top" xlink:title="Add the magnetic fluxes to the tangential derivatives of &#160;to arrive at the contravariant magnetic fie...">
<polygon fill="white" stroke="black" points="546,-725.98 546,-744.98 608,-744.98 608,-725.98 546,-725.98"/>
<text text-anchor="middle" x="577" y="-732.98" font-family="Helvetica,sans-Serif" font-size="10.00">add_fluxes</text>
</a>
</g>
</g>
<!-- Node1&#45;&gt;Node2 -->
<g id="edge1" class="edge">
<title>Node1&#45;&gt;Node2</title>
<path fill="none" stroke="midnightblue" d="M704.56,-470.12C696.64,-517.31 671.03,-638.87 608,-716.48 605.05,-720.12 601.2,-723.27 597.26,-725.9"/>
<polygon fill="midnightblue" stroke="midnightblue" points="708.05,-470.46 706.17,-460.04 701.14,-469.36 708.05,-470.46"/>
</g>
<!-- Node3 -->
<g id="node3" class="node">
<title>Node3</title>
<g id="a_node3"><a xlink:href="../../d7/d61/bcovar_8f90.html#a1e1624195f0c0c7daa9f49d83bae5ce8" target="_top" xlink:title="Compute the covariant components of the magnetic field , .">
<polygon fill="white" stroke="black" points="447,-687.98 447,-706.98 493,-706.98 493,-687.98 447,-687.98"/>
<text text-anchor="middle" x="470" y="-694.98" font-family="Helvetica,sans-Serif" font-size="10.00">bcovar</text>
</a>
</g>
</g>
<!-- Node1&#45;&gt;Node3 -->
<g id="edge10" class="edge">
<title>Node1&#45;&gt;Node3</title>
<path fill="none" stroke="midnightblue" d="M708.17,-470.47C708.83,-526.65 702.03,-686.32 608,-754.48 565.24,-785.47 503.11,-730.28 480.05,-707.05"/>
<polygon fill="midnightblue" stroke="midnightblue" points="711.66,-470.04 707.95,-460.12 704.66,-470.19 711.66,-470.04"/>
</g>
<!-- Node4 -->
<g id="node4" class="node">
<title>Node4</title>
<g id="a_node4"><a xlink:href="../../d3/d4f/funct3d_8f90.html#a800bacc22176e16323899df87b55c547" target="_top" xlink:title="Evaluate the three&#45;dimensional MHD energy functional. Think of this as the &quot;forward model&quot; that tells...">
<polygon fill="white" stroke="black" points="345,-421.98 345,-440.98 394,-440.98 394,-421.98 345,-421.98"/>
<text text-anchor="middle" x="369.5" y="-428.98" font-family="Helvetica,sans-Serif" font-size="10.00">funct3d</text>
</a>
</g>
</g>
<!-- Node1&#45;&gt;Node4 -->
<g id="edge24" class="edge">
<title>Node1&#45;&gt;Node4</title>
<path fill="none" stroke="midnightblue" d="M704.5,-470.08C694.27,-534.12 658.53,-735.21 608,-772.48 585.82,-788.84 572.86,-778.62 546,-772.48 490.19,-759.71 464.83,-761.91 430,-716.48 377.7,-648.27 412.33,-610.45 394,-526.48 387.15,-495.11 377.61,-458.28 373.08,-441.15"/>
<polygon fill="midnightblue" stroke="midnightblue" points="707.98,-470.51 706.07,-460.09 701.06,-469.43 707.98,-470.51"/>
</g>
<!-- Node5 -->
<g id="node5" class="node">
<title>Node5</title>
<g id="a_node5"><a xlink:href="../../de/da9/evolve_8f90.html#a8103e838be03904e03551e04f6b396e4" target="_top" xlink:title="Take a single time step in Fourier space to evolve the Fourier coefficients describing the equilibriu...">
<polygon fill="white" stroke="black" points="254,-440.98 254,-459.98 299,-459.98 299,-440.98 254,-440.98"/>
<text text-anchor="middle" x="276.5" y="-447.98" font-family="Helvetica,sans-Serif" font-size="10.00">evolve</text>
</a>
</g>
</g>
<!-- Node1&#45;&gt;Node5 -->
<g id="edge19" class="edge">
<title>Node1&#45;&gt;Node5</title>
<path fill="none" stroke="midnightblue" d="M704.8,-470.3C695.3,-536.91 661.04,-750.73 608,-790.48 566.71,-821.42 435.82,-758.92 430,-754.48 325.06,-674.45 287.12,-502.45 279.18,-460.06"/>
<polygon fill="midnightblue" stroke="midnightblue" points="708.29,-470.67 706.2,-460.28 701.35,-469.7 708.29,-470.67"/>
</g>
<!-- Node7 -->
<g id="node7" class="node">
<title>Node7</title>
<g id="a_node7"><a xlink:href="../../db/d61/vmec_8f90.html#a6d38ab7be2f9d818da4541e1d352ea23" target="_top" xlink:title="Main driver for VMEC.">
<polygon fill="white" stroke="black" points="81,-174.98 81,-193.98 122,-193.98 122,-174.98 81,-174.98"/>
<text text-anchor="middle" x="101.5" y="-181.98" font-family="Helvetica,sans-Serif" font-size="10.00">vmec</text>
</a>
</g>
</g>
<!-- Node1&#45;&gt;Node7 -->
<g id="edge61" class="edge">
<title>Node1&#45;&gt;Node7</title>
<path fill="none" stroke="midnightblue" d="M706.33,-470.12C700.13,-555.17 663.58,-887.48 471,-887.48 471,-887.48 471,-887.48 275.5,-887.48 125.77,-887.48 104.9,-278.59 102.72,-194.15"/>
<polygon fill="midnightblue" stroke="midnightblue" points="709.83,-470.22 707.01,-460.01 702.85,-469.76 709.83,-470.22"/>
</g>
<!-- Node10 -->
<g id="node10" class="node">
<title>Node10</title>
<g id="a_node10"><a xlink:href="../../db/d3d/bextern_8f90.html#a90228cc5f358147ae7f59953d6f9cced" target="_top" xlink:title="Compute the total magnetic field due to external coils and the net toroidal plasma current.">
<polygon fill="white" stroke="black" points="553,-573.98 553,-592.98 601,-592.98 601,-573.98 553,-573.98"/>
<text text-anchor="middle" x="577" y="-580.98" font-family="Helvetica,sans-Serif" font-size="10.00">bextern</text>
</a>
</g>
</g>
<!-- Node1&#45;&gt;Node10 -->
<g id="edge11" class="edge">
<title>Node1&#45;&gt;Node10</title>
<path fill="none" stroke="midnightblue" d="M694.57,-468.27C676.8,-491.99 643.01,-534.45 608,-564.48 604.07,-567.85 599.49,-571.05 595.11,-573.84"/>
<polygon fill="midnightblue" stroke="midnightblue" points="697.44,-470.29 700.57,-460.17 691.81,-466.13 697.44,-470.29"/>
</g>
<!-- Node11 -->
<g id="node11" class="node">
<title>Node11</title>
<g id="a_node11"><a xlink:href="../../dd/d6d/vacuum_8f90.html#a0acbc18d2ab7664835d797b42ce49a35" target="_top" xlink:title="Compute the vacuum contribution to the free&#45;boundary energy functional.">
<polygon fill="white" stroke="black" points="444.5,-535.98 444.5,-554.98 495.5,-554.98 495.5,-535.98 444.5,-535.98"/>
<text text-anchor="middle" x="470" y="-542.98" font-family="Helvetica,sans-Serif" font-size="10.00">vacuum</text>
</a>
</g>
</g>
<!-- Node1&#45;&gt;Node11 -->
<g id="edge60" class="edge">
<title>Node1&#45;&gt;Node11</title>
<path fill="none" stroke="midnightblue" d="M701.65,-469.68C690.11,-503.77 660.83,-573.92 608,-602.48 583.76,-615.58 572.11,-611.28 546,-602.48 518.1,-593.08 492.36,-568.72 479.53,-555.08"/>
<polygon fill="midnightblue" stroke="midnightblue" points="705.04,-470.58 704.78,-459.98 698.38,-468.42 705.04,-470.58"/>
</g>
<!-- Node13 -->
<g id="node13" class="node">
<title>Node13</title>
<g id="a_node13"><a xlink:href="../../d9/dff/calc__fbal_8f90.html#a6cdc3d21c48f66aeaff8ab5e639641b6" target="_top" xlink:title="Compute flux&#45;surface averaged radial force balance .">
<polygon fill="white" stroke="black" points="549,-649.98 549,-668.98 605,-668.98 605,-649.98 549,-649.98"/>
<text text-anchor="middle" x="577" y="-656.98" font-family="Helvetica,sans-Serif" font-size="10.00">calc_fbal</text>
</a>
</g>
</g>
<!-- Node1&#45;&gt;Node13 -->
<g id="edge15" class="edge">
<title>Node1&#45;&gt;Node13</title>
<path fill="none" stroke="midnightblue" d="M700.19,-469.73C686.11,-505.15 652.64,-581.91 608,-635.48 603.56,-640.81 597.78,-645.77 592.47,-649.78"/>
<polygon fill="midnightblue" stroke="midnightblue" points="703.55,-470.73 703.92,-460.14 697.03,-468.19 703.55,-470.73"/>
</g>
<!-- Node15 -->
<g id="node15" class="node">
<title>Node15</title>
<g id="a_node15"><a xlink:href="../../d4/dd1/fixaray_8f90.html#aca9a4c886a9423b95e8a9336071de2e3" target="_top" xlink:title="allocate and fill some fixed&#45;size arrays (only depending on Fourier resolution).">
<polygon fill="white" stroke="black" points="161,-136.98 161,-155.98 205,-155.98 205,-136.98 161,-136.98"/>
<text text-anchor="middle" x="183" y="-143.98" font-family="Helvetica,sans-Serif" font-size="10.00">fixaray</text>
</a>
</g>
</g>
<!-- Node1&#45;&gt;Node15 -->
<g id="edge20" class="edge">
<title>Node1&#45;&gt;Node15</title>
<path fill="none" stroke="midnightblue" d="M707.67,-430.76C706.99,-375.92 696.91,-220.78 608,-146.48 560.83,-107.06 532.47,-127.48 471,-127.48 471,-127.48 471,-127.48 368.5,-127.48 309.09,-127.48 239.48,-137.35 205.23,-142.86"/>
<polygon fill="midnightblue" stroke="midnightblue" points="704.17,-430.88 707.7,-440.87 711.17,-430.86 704.17,-430.88"/>
</g>
<!-- Node16 -->
<g id="node16" class="node">
<title>Node16</title>
<g id="a_node16"><a xlink:href="../../de/d0c/forces_8f90.html#a7b4708aaec3cc94526474c16bc3a16f0" target="_top" xlink:title="Compute the real&#45;space MHD forces.">
<polygon fill="white" stroke="black" points="555,-459.98 555,-478.98 599,-478.98 599,-459.98 555,-459.98"/>
<text text-anchor="middle" x="577" y="-466.98" font-family="Helvetica,sans-Serif" font-size="10.00">forces</text>
</a>
</g>
</g>
<!-- Node1&#45;&gt;Node16 -->
<g id="edge22" class="edge">
<title>Node1&#45;&gt;Node16</title>
<path fill="none" stroke="midnightblue" d="M633.71,-461.3C621.1,-463.15 608.96,-464.94 599.25,-466.36"/>
<polygon fill="midnightblue" stroke="midnightblue" points="634.5,-464.73 643.89,-459.81 633.49,-457.8 634.5,-464.73"/>
</g>
<!-- Node17 -->
<g id="node17" class="node">
<title>Node17</title>
<g id="a_node17"><a xlink:href="../../d5/dfd/guess__axis_8f90.html#a375e34fe4656d4c51d5013939bf5617e" target="_top" xlink:title="Computes guess for magnetic axis if user guess leads to initial sign change of Jacobian.">
<polygon fill="white" stroke="black" points="244,-193.98 244,-212.98 309,-212.98 309,-193.98 244,-193.98"/>
<text text-anchor="middle" x="276.5" y="-200.98" font-family="Helvetica,sans-Serif" font-size="10.00">guess_axis</text>
</a>
</g>
</g>
<!-- Node1&#45;&gt;Node17 -->
<g id="edge25" class="edge">
<title>Node1&#45;&gt;Node17</title>
<path fill="none" stroke="midnightblue" d="M703.37,-431C693.87,-390.99 666.6,-299.21 608,-250.48 520.66,-177.85 373.33,-188.88 309.06,-198.04"/>
<polygon fill="midnightblue" stroke="midnightblue" points="699.98,-431.85 705.59,-440.83 706.8,-430.31 699.98,-431.85"/>
</g>
<!-- Node18 -->
<g id="node18" class="node">
<title>Node18</title>
<g id="a_node18"><a xlink:href="../../dc/df5/interp_8f90.html#a5bac7725cb89730c4bd187e158dc36ee" target="_top" xlink:title="Interpolate , &#160;and &#160;on full grid.">
<polygon fill="white" stroke="black" points="556.5,-79.98 556.5,-98.98 597.5,-98.98 597.5,-79.98 556.5,-79.98"/>
<text text-anchor="middle" x="577" y="-86.98" font-family="Helvetica,sans-Serif" font-size="10.00">interp</text>
</a>
</g>
</g>
<!-- Node1&#45;&gt;Node18 -->
<g id="edge27" class="edge">
<title>Node1&#45;&gt;Node18</title>
<path fill="none" stroke="midnightblue" d="M705.8,-430.64C700.26,-375.74 678.83,-218.9 608,-113.48 604.28,-107.94 598.89,-103.07 593.7,-99.19"/>
<polygon fill="midnightblue" stroke="midnightblue" points="702.33,-431.12 706.75,-440.75 709.3,-430.47 702.33,-431.12"/>
</g>
<!-- Node20 -->
<g id="node20" class="node">
<title>Node20</title>
<g id="a_node20"><a xlink:href="../../d8/dc3/jacobian_8f90.html#af346f65d2aa225d9ede6e0f23add6142" target="_top" xlink:title="Evaulate the Jacobian of the transform from flux&#45; to cylindrical coordinates.">
<polygon fill="white" stroke="black" points="443.5,-459.98 443.5,-478.98 496.5,-478.98 496.5,-459.98 443.5,-459.98"/>
<text text-anchor="middle" x="470" y="-466.98" font-family="Helvetica,sans-Serif" font-size="10.00">jacobian</text>
</a>
</g>
</g>
<!-- Node1&#45;&gt;Node20 -->
<g id="edge30" class="edge">
<title>Node1&#45;&gt;Node20</title>
<path fill="none" stroke="midnightblue" d="M634,-446.65C606.32,-446.21 574.62,-446.91 546,-450.48 529.34,-452.56 511.07,-457.13 496.73,-461.28"/>
<polygon fill="midnightblue" stroke="midnightblue" points="633.93,-450.15 644,-446.86 634.07,-443.15 633.93,-450.15"/>
</g>
<!-- Node21 -->
<g id="node21" class="node">
<title>Node21</title>
<g id="a_node21"><a xlink:href="../../d4/d51/lamcal_8f90.html#aae66bdcec0bbb969704413d933148096" target="_top" xlink:title="Normalization parameters for .">
<polygon fill="white" stroke="black" points="554.5,-687.98 554.5,-706.98 599.5,-706.98 599.5,-687.98 554.5,-687.98"/>
<text text-anchor="middle" x="577" y="-694.98" font-family="Helvetica,sans-Serif" font-size="10.00">lamcal</text>
</a>
</g>
</g>
<!-- Node1&#45;&gt;Node21 -->
<g id="edge32" class="edge">
<title>Node1&#45;&gt;Node21</title>
<path fill="none" stroke="midnightblue" d="M703.11,-470.11C692.83,-512.39 663.75,-613.47 608,-678.48 604.95,-682.04 601.07,-685.15 597.11,-687.78"/>
<polygon fill="midnightblue" stroke="midnightblue" points="706.54,-470.79 705.42,-460.25 699.73,-469.19 706.54,-470.79"/>
</g>
<!-- Node22 -->
<g id="node22" class="node">
<title>Node22</title>
<g id="a_node22"><a xlink:href="../../dd/d98/precal_8f90.html#a0dae73e848a4757092d7e9786d073d3d" target="_top" xlink:title="Pre&#45;compute constant terms required for NESTOR.">
<polygon fill="white" stroke="black" points="555.5,-535.98 555.5,-554.98 598.5,-554.98 598.5,-535.98 555.5,-535.98"/>
<text text-anchor="middle" x="577" y="-542.98" font-family="Helvetica,sans-Serif" font-size="10.00">precal</text>
</a>
</g>
</g>
<!-- Node1&#45;&gt;Node22 -->
<g id="edge35" class="edge">
<title>Node1&#45;&gt;Node22</title>
<path fill="none" stroke="midnightblue" d="M687.51,-466.57C667.69,-482.33 636.28,-506.78 608,-526.48 603.45,-529.65 598.39,-532.94 593.74,-535.87"/>
<polygon fill="midnightblue" stroke="midnightblue" points="689.87,-469.17 695.5,-460.19 685.5,-463.7 689.87,-469.17"/>
</g>
<!-- Node23 -->
<g id="node23" class="node">
<title>Node23</title>
<g id="a_node23"><a xlink:href="../../d7/d61/profil1d_8f90.html#a2bc38da2d3b36d16295159df2f8573e2" target="_top" xlink:title="Compute phip and iota profiles on full grid.">
<polygon fill="white" stroke="black" points="553.5,-41.98 553.5,-60.98 600.5,-60.98 600.5,-41.98 553.5,-41.98"/>
<text text-anchor="middle" x="577" y="-48.98" font-family="Helvetica,sans-Serif" font-size="10.00">profil1d</text>
</a>
</g>
</g>
<!-- Node1&#45;&gt;Node23 -->
<g id="edge37" class="edge">
<title>Node1&#45;&gt;Node23</title>
<path fill="none" stroke="midnightblue" d="M707.24,-430.5C705.49,-370.17 693.07,-186.87 608,-70.48 605.31,-66.8 601.67,-63.65 597.85,-61.05"/>
<polygon fill="midnightblue" stroke="midnightblue" points="703.75,-430.95 707.46,-440.87 710.75,-430.8 703.75,-430.95"/>
</g>
<!-- Node24 -->
<g id="node24" class="node">
<title>Node24</title>
<g id="a_node24"><a xlink:href="../../dd/d75/profil3d_8f90.html#a67d2774ceac255f1e1f75e54f4679e9c" target="_top" xlink:title="Compute three&#45;dimensional profiles of flux&#45;surface geometry etc.">
<polygon fill="white" stroke="black" points="553.5,-155.98 553.5,-174.98 600.5,-174.98 600.5,-155.98 553.5,-155.98"/>
<text text-anchor="middle" x="577" y="-162.98" font-family="Helvetica,sans-Serif" font-size="10.00">profil3d</text>
</a>
</g>
</g>
<!-- Node1&#45;&gt;Node24 -->
<g id="edge39" class="edge">
<title>Node1&#45;&gt;Node24</title>
<path fill="none" stroke="midnightblue" d="M703.71,-430.69C694.13,-384.67 665.55,-268.39 608,-189.48 603.99,-183.98 598.41,-179.06 593.16,-175.12"/>
<polygon fill="midnightblue" stroke="midnightblue" points="700.29,-431.46 705.69,-440.58 707.15,-430.09 700.29,-431.46"/>
</g>
<!-- Node25 -->
<g id="node25" class="node">
<title>Node25</title>
<g id="a_node25"><a xlink:href="../../d8/da3/readin_8f90.html#a60f2bfd8fc6f7c3e027a8f91ef0c7b25" target="_top" xlink:title="Read the input file.">
<polygon fill="white" stroke="black" points="348,-13.98 348,-32.98 391,-32.98 391,-13.98 348,-13.98"/>
<text text-anchor="middle" x="369.5" y="-20.98" font-family="Helvetica,sans-Serif" font-size="10.00">readin</text>
</a>
</g>
</g>
<!-- Node1&#45;&gt;Node25 -->
<g id="edge42" class="edge">
<title>Node1&#45;&gt;Node25</title>
<path fill="none" stroke="midnightblue" d="M705.89,-430.81C699.25,-355.14 671.34,-84.49 608,-32.48 544.54,19.63 436.23,-3.84 391.14,-16.87"/>
<polygon fill="midnightblue" stroke="midnightblue" points="702.41,-431.2 706.74,-440.86 709.38,-430.6 702.41,-431.2"/>
</g>
<!-- Node26 -->
<g id="node26" class="node">
<title>Node26</title>
<g id="a_node26"><a xlink:href="../../db/d5a/residue_8f90.html#a2390b3cf93196383bbe960acb85b3e32" target="_top" xlink:title="Compute invariant residuals.">
<polygon fill="white" stroke="black" points="446,-421.98 446,-440.98 494,-440.98 494,-421.98 446,-421.98"/>
<text text-anchor="middle" x="470" y="-428.98" font-family="Helvetica,sans-Serif" font-size="10.00">residue</text>
</a>
</g>
</g>
<!-- Node1&#45;&gt;Node26 -->
<g id="edge44" class="edge">
<title>Node1&#45;&gt;Node26</title>
<path fill="none" stroke="midnightblue" d="M633.69,-444.54C625.03,-443.85 616.32,-443.15 608,-442.48 568.04,-439.27 521.53,-435.53 494.27,-433.35"/>
<polygon fill="midnightblue" stroke="midnightblue" points="633.56,-448.04 643.8,-445.36 634.12,-441.07 633.56,-448.04"/>
</g>
<!-- Node27 -->
<g id="node27" class="node">
<title>Node27</title>
<g id="a_node27"><a xlink:href="../../d8/d86/scalfor_8f90.html#a2ef9c34d20ddf30cb7b15fe35066b8ca" target="_top" xlink:title="Build forces from different contributions.">
<polygon fill="white" stroke="black" points="554,-345.98 554,-364.98 600,-364.98 600,-345.98 554,-345.98"/>
<text text-anchor="middle" x="577" y="-352.98" font-family="Helvetica,sans-Serif" font-size="10.00">scalfor</text>
</a>
</g>
</g>
<!-- Node1&#45;&gt;Node27 -->
<g id="edge46" class="edge">
<title>Node1&#45;&gt;Node27</title>
<path fill="none" stroke="midnightblue" d="M686.06,-434.75C659.04,-414.93 613.43,-381.47 591.11,-365.09"/>
<polygon fill="midnightblue" stroke="midnightblue" points="684,-437.58 694.13,-440.67 688.14,-431.93 684,-437.58"/>
</g>
<!-- Node30 -->
<g id="node30" class="node">
<title>Node30</title>
<g id="a_node30"><a xlink:href="../../d6/d03/surface_8f90.html#ad7b6446e720a806f41f10dd1eb0b6f88" target="_top" xlink:title="Evaluate the geometry of the LCFS and tangential derivatives.">
<polygon fill="white" stroke="black" points="552.5,-497.98 552.5,-516.98 601.5,-516.98 601.5,-497.98 552.5,-497.98"/>
<text text-anchor="middle" x="577" y="-504.98" font-family="Helvetica,sans-Serif" font-size="10.00">surface</text>
</a>
</g>
</g>
<!-- Node1&#45;&gt;Node30 -->
<g id="edge52" class="edge">
<title>Node1&#45;&gt;Node30</title>
<path fill="none" stroke="midnightblue" d="M676.56,-464.1C652.87,-474.52 620.78,-488.65 599.75,-497.91"/>
<polygon fill="midnightblue" stroke="midnightblue" points="678.08,-467.25 685.82,-460.02 675.26,-460.84 678.08,-467.25"/>
</g>
<!-- Node31 -->
<g id="node31" class="node">
<title>Node31</title>
<g id="a_node31"><a xlink:href="../../d4/df3/symforce_8f90.html#a169610bcc5544fc8e16ad1e10ac85dcb" target="_top" xlink:title="Symmetrize forces on restricted &#160;interval &#160;so cos, sin integrals can be performed.">
<polygon fill="white" stroke="black" points="442,-307.98 442,-326.98 498,-326.98 498,-307.98 442,-307.98"/>
<text text-anchor="middle" x="470" y="-314.98" font-family="Helvetica,sans-Serif" font-size="10.00">symforce</text>
</a>
</g>
</g>
<!-- Node1&#45;&gt;Node31 -->
<g id="edge54" class="edge">
<title>Node1&#45;&gt;Node31</title>
<path fill="none" stroke="midnightblue" d="M697.17,-431.86C681.57,-405.73 649.39,-358.85 608,-336.48 573.46,-317.81 527.16,-315.24 498.21,-315.82"/>
<polygon fill="midnightblue" stroke="midnightblue" points="694.28,-433.86 702.32,-440.77 700.34,-430.36 694.28,-433.86"/>
</g>
<!-- Node32 -->
<g id="node32" class="node">
<title>Node32</title>
<g id="a_node32"><a xlink:href="../../d0/d6f/tomnsp_8f90.html#a6c7345c0aa0f13f311650d9633e6ecf8" target="_top" xlink:title="Fourier&#45;transform anti&#45;symmetric forces from real space to Fourier space.">
<polygon fill="white" stroke="black" points="443,-269.98 443,-288.98 497,-288.98 497,-269.98 443,-269.98"/>
<text text-anchor="middle" x="470" y="-276.98" font-family="Helvetica,sans-Serif" font-size="10.00">tomnspa</text>
</a>
</g>
</g>
<!-- Node1&#45;&gt;Node32 -->
<g id="edge56" class="edge">
<title>Node1&#45;&gt;Node32</title>
<path fill="none" stroke="midnightblue" d="M699.02,-431.37C684.73,-401.43 652.92,-343.75 608,-313.48 574.16,-290.68 526.39,-283.15 497.12,-280.68"/>
<polygon fill="midnightblue" stroke="midnightblue" points="695.97,-433.11 703.34,-440.71 702.32,-430.17 695.97,-433.11"/>
</g>
<!-- Node33 -->
<g id="node33" class="node">
<title>Node33</title>
<g id="a_node33"><a xlink:href="../../d0/d6f/tomnsp_8f90.html#aec4b11e4f55e18c6bfc0348c263e31db" target="_top" xlink:title="Fourier&#45;transform symmetric forces from real space to Fourier space.">
<polygon fill="white" stroke="black" points="443,-231.98 443,-250.98 497,-250.98 497,-231.98 443,-231.98"/>
<text text-anchor="middle" x="470" y="-238.98" font-family="Helvetica,sans-Serif" font-size="10.00">tomnsps</text>
</a>
</g>
</g>
<!-- Node1&#45;&gt;Node33 -->
<g id="edge58" class="edge">
<title>Node1&#45;&gt;Node33</title>
<path fill="none" stroke="midnightblue" d="M701.14,-431.16C688.79,-396.59 658.24,-324.08 608,-284.48 575.21,-258.63 526.68,-248.2 497.04,-244.08"/>
<polygon fill="midnightblue" stroke="midnightblue" points="697.95,-432.65 704.52,-440.96 704.57,-430.37 697.95,-432.65"/>
</g>
<!-- Node2&#45;&gt;Node3 -->
<g id="edge2" class="edge">
<title>Node2&#45;&gt;Node3</title>
<path fill="none" stroke="midnightblue" d="M539.71,-722.34C524.25,-716.75 506.72,-710.4 493.23,-705.52"/>
<polygon fill="midnightblue" stroke="midnightblue" points="538.91,-725.78 549.5,-725.89 541.29,-719.2 538.91,-725.78"/>
</g>
<!-- Node3&#45;&gt;Node4 -->
<g id="edge3" class="edge">
<title>Node3&#45;&gt;Node4</title>
<path fill="none" stroke="midnightblue" d="M461.85,-678.16C442.29,-625.34 388.4,-479.83 374.05,-441.07"/>
<polygon fill="midnightblue" stroke="midnightblue" points="458.62,-679.53 465.38,-687.7 465.19,-677.1 458.62,-679.53"/>
</g>
<!-- Node4&#45;&gt;Node5 -->
<g id="edge4" class="edge">
<title>Node4&#45;&gt;Node5</title>
<path fill="none" stroke="midnightblue" d="M334.53,-438.57C322.66,-441.05 309.66,-443.76 299.07,-445.97"/>
<polygon fill="midnightblue" stroke="midnightblue" points="335.52,-441.94 344.59,-436.47 334.09,-435.09 335.52,-441.94"/>
</g>
<!-- Node9 -->
<g id="node9" class="node">
<title>Node9</title>
<g id="a_node9"><a xlink:href="../../d0/d71/fileout_8f90.html#a7228e984aaf2c38bd772e3d846fab7af" target="_top" xlink:title="Write the output files.">
<polygon fill="white" stroke="black" points="255.5,-402.98 255.5,-421.98 297.5,-421.98 297.5,-402.98 255.5,-402.98"/>
<text text-anchor="middle" x="276.5" y="-409.98" font-family="Helvetica,sans-Serif" font-size="10.00">fileout</text>
</a>
</g>
</g>
<!-- Node4&#45;&gt;Node9 -->
<g id="edge8" class="edge">
<title>Node4&#45;&gt;Node9</title>
<path fill="none" stroke="midnightblue" d="M334.52,-424.38C322.07,-421.78 308.4,-418.93 297.56,-416.67"/>
<polygon fill="midnightblue" stroke="midnightblue" points="334.09,-427.87 344.59,-426.49 335.52,-421.02 334.09,-427.87"/>
</g>
<!-- Node6 -->
<g id="node6" class="node">
<title>Node6</title>
<g id="a_node6"><a xlink:href="../../d7/d46/eqsolve_8f90.html#ab740b09d1b651e2ab8a60c5d552df0c2" target="_top" xlink:title="Iteratively evolve the Fourier coefficients that specify the equilibrium.">
<polygon fill="white" stroke="black" points="158,-184.98 158,-203.98 208,-203.98 208,-184.98 158,-184.98"/>
<text text-anchor="middle" x="183" y="-191.98" font-family="Helvetica,sans-Serif" font-size="10.00">eqsolve</text>
</a>
</g>
</g>
<!-- Node5&#45;&gt;Node6 -->
<g id="edge5" class="edge">
<title>Node5&#45;&gt;Node6</title>
<path fill="none" stroke="midnightblue" d="M246.52,-434.46C245.62,-433.51 244.77,-432.52 244,-431.48 189.14,-357.49 184.17,-238.65 183.93,-204.15"/>
<polygon fill="midnightblue" stroke="midnightblue" points="244.37,-437.22 254.32,-440.87 248.81,-431.81 244.37,-437.22"/>
</g>
<!-- Node6&#45;&gt;Node7 -->
<g id="edge6" class="edge">
<title>Node6&#45;&gt;Node7</title>
<path fill="none" stroke="midnightblue" d="M147.71,-190.17C138.96,-189.06 129.84,-187.92 122.11,-186.95"/>
<polygon fill="midnightblue" stroke="midnightblue" points="147.36,-193.65 157.72,-191.42 148.23,-186.7 147.36,-193.65"/>
</g>
<!-- Node8 -->
<g id="node8" class="node">
<title>Node8</title>
<g id="a_node8"><a xlink:href="../../db/d61/vmec_8f90.html#ace5bdf043bb85c8f0a9fc582bdb55725" target="_top" xlink:title="Main program of VMEC.">
<polygon fill="white" stroke="black" points="0,-174.98 0,-193.98 45,-193.98 45,-174.98 0,-174.98"/>
<text text-anchor="middle" x="22.5" y="-181.98" font-family="Helvetica,sans-Serif" font-size="10.00">xvmec</text>
</a>
</g>
</g>
<!-- Node7&#45;&gt;Node8 -->
<g id="edge7" class="edge">
<title>Node7&#45;&gt;Node8</title>
<path fill="none" stroke="midnightblue" d="M70.42,-184.48C61.99,-184.48 52.99,-184.48 45.16,-184.48"/>
<polygon fill="midnightblue" stroke="midnightblue" points="70.67,-187.98 80.67,-184.48 70.67,-180.98 70.67,-187.98"/>
</g>
<!-- Node9&#45;&gt;Node7 -->
<g id="edge9" class="edge">
<title>Node9&#45;&gt;Node7</title>
<path fill="none" stroke="midnightblue" d="M262.18,-394.92C227.66,-349.43 136.17,-228.86 109.74,-194.03"/>
<polygon fill="midnightblue" stroke="midnightblue" points="259.45,-397.12 268.29,-402.97 265.03,-392.89 259.45,-397.12"/>
</g>
<!-- Node10&#45;&gt;Node11 -->
<g id="edge12" class="edge">
<title>Node10&#45;&gt;Node11</title>
<path fill="none" stroke="midnightblue" d="M543.33,-571.65C528,-566.11 510.02,-559.6 495.82,-554.46"/>
<polygon fill="midnightblue" stroke="midnightblue" points="542.36,-575.03 552.96,-575.14 544.75,-568.44 542.36,-575.03"/>
</g>
<!-- Node11&#45;&gt;Node4 -->
<g id="edge13" class="edge">
<title>Node11&#45;&gt;Node4</title>
<path fill="none" stroke="midnightblue" d="M441.01,-530.35C437.1,-527.65 433.3,-524.68 430,-521.48 404.29,-496.6 383.83,-458.74 375.09,-441.13"/>
<polygon fill="midnightblue" stroke="midnightblue" points="439.25,-533.37 449.57,-535.76 442.99,-527.46 439.25,-533.37"/>
</g>
<!-- Node12 -->
<g id="node12" class="node">
<title>Node12</title>
<g id="a_node12"><a xlink:href="../../d4/d69/nestor__main_8f90.html#a1b0fd336e80285a96925333daa2ee8f0" target="_top" xlink:title="Main program of stand&#45;alone version of NESTOR.">
<polygon fill="white" stroke="black" points="347.5,-535.98 347.5,-554.98 391.5,-554.98 391.5,-535.98 347.5,-535.98"/>
<text text-anchor="middle" x="369.5" y="-542.98" font-family="Helvetica,sans-Serif" font-size="10.00">nestor</text>
</a>
</g>
</g>
<!-- Node11&#45;&gt;Node12 -->
<g id="edge14" class="edge">
<title>Node11&#45;&gt;Node12</title>
<path fill="none" stroke="midnightblue" d="M434.03,-545.48C419.92,-545.48 404.11,-545.48 391.78,-545.48"/>
<polygon fill="midnightblue" stroke="midnightblue" points="434.4,-548.98 444.4,-545.48 434.4,-541.98 434.4,-548.98"/>
</g>
<!-- Node13&#45;&gt;Node3 -->
<g id="edge16" class="edge">
<title>Node13&#45;&gt;Node3</title>
<path fill="none" stroke="midnightblue" d="M539.71,-672.61C524.25,-678.21 506.72,-684.55 493.23,-689.43"/>
<polygon fill="midnightblue" stroke="midnightblue" points="541.29,-675.76 549.5,-669.07 538.91,-669.18 541.29,-675.76"/>
</g>
<!-- Node14 -->
<g id="node14" class="node">
<title>Node14</title>
<g id="a_node14"><a xlink:href="../../d0/d22/eqfor_8f90.html#a4579124c405a906bf05b3d3a0da2d105" target="_top" xlink:title="Basis physics analysis and evaluaton of force balance. This is where most of the contents of the thre...">
<polygon fill="white" stroke="black" points="350.5,-592.98 350.5,-611.98 388.5,-611.98 388.5,-592.98 350.5,-592.98"/>
<text text-anchor="middle" x="369.5" y="-599.98" font-family="Helvetica,sans-Serif" font-size="10.00">eqfor</text>
</a>
</g>
</g>
<!-- Node13&#45;&gt;Node14 -->
<g id="edge17" class="edge">
<title>Node13&#45;&gt;Node14</title>
<path fill="none" stroke="midnightblue" d="M538.88,-649.18C494.49,-636.87 421.99,-616.76 388.5,-607.47"/>
<polygon fill="midnightblue" stroke="midnightblue" points="538.14,-652.61 548.71,-651.91 540.01,-645.86 538.14,-652.61"/>
</g>
<!-- Node14&#45;&gt;Node9 -->
<g id="edge18" class="edge">
<title>Node14&#45;&gt;Node9</title>
<path fill="none" stroke="midnightblue" d="M355.72,-584.22C351.88,-578.14 347.92,-571.2 345,-564.48 320.64,-508.29 345.87,-480.37 309,-431.48 306,-427.5 301.9,-424.18 297.66,-421.49"/>
<polygon fill="midnightblue" stroke="midnightblue" points="353.05,-586.51 361.49,-592.91 358.88,-582.64 353.05,-586.51"/>
</g>
<!-- Node15&#45;&gt;Node7 -->
<g id="edge21" class="edge">
<title>Node15&#45;&gt;Node7</title>
<path fill="none" stroke="midnightblue" d="M152.87,-160.4C142.6,-165.31 131.29,-170.72 122.01,-175.16"/>
<polygon fill="midnightblue" stroke="midnightblue" points="154.43,-163.54 161.94,-156.07 151.41,-157.22 154.43,-163.54"/>
</g>
<!-- Node16&#45;&gt;Node4 -->
<g id="edge23" class="edge">
<title>Node16&#45;&gt;Node4</title>
<path fill="none" stroke="midnightblue" d="M545.26,-482.11C514.91,-492.63 467.72,-503.63 430,-488.48 406.11,-478.88 386.4,-454.6 376.8,-441.03"/>
<polygon fill="midnightblue" stroke="midnightblue" points="546.67,-485.33 554.86,-478.61 544.27,-478.75 546.67,-485.33"/>
</g>
<!-- Node17&#45;&gt;Node6 -->
<g id="edge26" class="edge">
<title>Node17&#45;&gt;Node6</title>
<path fill="none" stroke="midnightblue" d="M233.67,-199.36C224.94,-198.51 216.02,-197.63 208.19,-196.86"/>
<polygon fill="midnightblue" stroke="midnightblue" points="233.46,-202.86 243.75,-200.36 234.15,-195.89 233.46,-202.86"/>
</g>
<!-- Node19 -->
<g id="node19" class="node">
<title>Node19</title>
<g id="a_node19"><a xlink:href="../../d9/da6/initialize__radial_8f90.html#a187faea543d3a42bc748511f04b5b7d5" target="_top" xlink:title="Allocates memory for radial arrays and initializes radial profiles.">
<polygon fill="white" stroke="black" points="430,-79.98 430,-98.98 510,-98.98 510,-79.98 430,-79.98"/>
<text text-anchor="middle" x="470" y="-86.98" font-family="Helvetica,sans-Serif" font-size="10.00">initialize_radial</text>
</a>
</g>
</g>
<!-- Node18&#45;&gt;Node19 -->
<g id="edge28" class="edge">
<title>Node18&#45;&gt;Node19</title>
<path fill="none" stroke="midnightblue" d="M546.15,-89.48C534.98,-89.48 522.12,-89.48 510.24,-89.48"/>
<polygon fill="midnightblue" stroke="midnightblue" points="546.25,-92.98 556.25,-89.48 546.25,-85.98 546.25,-92.98"/>
</g>
<!-- Node19&#45;&gt;Node7 -->
<g id="edge29" class="edge">
<title>Node19&#45;&gt;Node7</title>
<path fill="none" stroke="midnightblue" d="M419.62,-85.23C355.53,-81.92 241.98,-83.75 158,-127.48 136.44,-138.7 118.29,-161.44 109.06,-174.55"/>
<polygon fill="midnightblue" stroke="midnightblue" points="419.67,-88.73 429.85,-85.82 420.07,-81.75 419.67,-88.73"/>
</g>
<!-- Node20&#45;&gt;Node4 -->
<g id="edge31" class="edge">
<title>Node20&#45;&gt;Node4</title>
<path fill="none" stroke="midnightblue" d="M434.78,-456.28C421.44,-451.13 406.46,-445.35 394.33,-440.67"/>
<polygon fill="midnightblue" stroke="midnightblue" points="433.55,-459.56 444.14,-459.89 436.07,-453.02 433.55,-459.56"/>
</g>
<!-- Node21&#45;&gt;Node3 -->
<g id="edge33" class="edge">
<title>Node21&#45;&gt;Node3</title>
<path fill="none" stroke="midnightblue" d="M544.22,-697.48C527.74,-697.48 508.02,-697.48 493.2,-697.48"/>
<polygon fill="midnightblue" stroke="midnightblue" points="544.5,-700.98 554.5,-697.48 544.5,-693.98 544.5,-700.98"/>
</g>
<!-- Node22&#45;&gt;Node11 -->
<g id="edge36" class="edge">
<title>Node22&#45;&gt;Node11</title>
<path fill="none" stroke="midnightblue" d="M544.97,-545.48C529.27,-545.48 510.48,-545.48 495.77,-545.48"/>
<polygon fill="midnightblue" stroke="midnightblue" points="545.26,-548.98 555.26,-545.48 545.26,-541.98 545.26,-548.98"/>
</g>
<!-- Node23&#45;&gt;Node19 -->
<g id="edge38" class="edge">
<title>Node23&#45;&gt;Node19</title>
<path fill="none" stroke="midnightblue" d="M543.71,-63.16C528.92,-68.52 511.6,-74.79 497.57,-79.86"/>
<polygon fill="midnightblue" stroke="midnightblue" points="545.26,-66.32 553.47,-59.63 542.88,-59.74 545.26,-66.32"/>
</g>
<!-- Node24&#45;&gt;Node6 -->
<g id="edge40" class="edge">
<title>Node24&#45;&gt;Node6</title>
<path fill="none" stroke="midnightblue" d="M543.07,-166.19C483.32,-167.73 353.11,-172.3 244,-184.48 232.14,-185.8 219.06,-187.91 208.15,-189.84"/>
<polygon fill="midnightblue" stroke="midnightblue" points="543.48,-169.68 553.39,-165.93 543.3,-162.68 543.48,-169.68"/>
</g>
<!-- Node24&#45;&gt;Node19 -->
<g id="edge41" class="edge">
<title>Node24&#45;&gt;Node19</title>
<path fill="none" stroke="midnightblue" d="M554.36,-149.81C533.24,-134.53 501.81,-111.78 484.19,-99.03"/>
<polygon fill="midnightblue" stroke="midnightblue" points="552.55,-152.82 562.7,-155.85 556.65,-147.15 552.55,-152.82"/>
</g>
<!-- Node25&#45;&gt;Node7 -->
<g id="edge43" class="edge">
<title>Node25&#45;&gt;Node7</title>
<path fill="none" stroke="midnightblue" d="M337.66,-23.37C293.29,-24.79 210.98,-33.42 158,-75.48 124.74,-101.89 109.57,-153.56 104.53,-174.9"/>
<polygon fill="midnightblue" stroke="midnightblue" points="337.9,-26.87 347.82,-23.16 337.75,-19.87 337.9,-26.87"/>
</g>
<!-- Node26&#45;&gt;Node4 -->
<g id="edge45" class="edge">
<title>Node26&#45;&gt;Node4</title>
<path fill="none" stroke="midnightblue" d="M435.88,-431.48C422.2,-431.48 406.64,-431.48 394.13,-431.48"/>
<polygon fill="midnightblue" stroke="midnightblue" points="435.91,-434.98 445.91,-431.48 435.91,-427.98 435.91,-434.98"/>
</g>
<!-- Node27&#45;&gt;Node26 -->
<g id="edge47" class="edge">
<title>Node27&#45;&gt;Node26</title>
<path fill="none" stroke="midnightblue" d="M555.72,-371.4C552.44,-374.06 549.1,-376.82 546,-379.48 529.52,-393.6 527.94,-400.27 510,-412.48 504.89,-415.95 499.06,-419.15 493.48,-421.89"/>
<polygon fill="midnightblue" stroke="midnightblue" points="557.96,-374.08 563.59,-365.1 553.59,-368.62 557.96,-374.08"/>
</g>
<!-- Node28 -->
<g id="node28" class="node">
<title>Node28</title>
<g id="a_node28"><a xlink:href="../../d3/d96/residue__con_8f90.html#a8b2d4eb1bd167c336b39b899858e7bfb" target="_top" xlink:title="Compute invariant residuals.">
<polygon fill="white" stroke="black" points="435.5,-345.98 435.5,-364.98 504.5,-364.98 504.5,-345.98 435.5,-345.98"/>
<text text-anchor="middle" x="470" y="-352.98" font-family="Helvetica,sans-Serif" font-size="10.00">residue_con</text>
</a>
</g>
</g>
<!-- Node27&#45;&gt;Node28 -->
<g id="edge48" class="edge">
<title>Node27&#45;&gt;Node28</title>
<path fill="none" stroke="midnightblue" d="M543.63,-355.48C531.24,-355.48 517.07,-355.48 504.57,-355.48"/>
<polygon fill="midnightblue" stroke="midnightblue" points="543.99,-358.98 553.99,-355.48 543.99,-351.98 543.99,-358.98"/>
</g>
<!-- Node29 -->
<g id="node29" class="node">
<title>Node29</title>
<g id="a_node29"><a xlink:href="../../d5/d62/residue__mhd_8f90.html#a3ed729a2f8c8d70e4d2fef05c9dfc4c8" target="_top" xlink:title="Compute invariant residuals.">
<polygon fill="white" stroke="black" points="434,-383.98 434,-402.98 506,-402.98 506,-383.98 434,-383.98"/>
<text text-anchor="middle" x="470" y="-390.98" font-family="Helvetica,sans-Serif" font-size="10.00">residue_mhd</text>
</a>
</g>
</g>
<!-- Node27&#45;&gt;Node29 -->
<g id="edge50" class="edge">
<title>Node27&#45;&gt;Node29</title>
<path fill="none" stroke="midnightblue" d="M544.58,-366.85C529.55,-372.29 511.77,-378.73 497.44,-383.91"/>
<polygon fill="midnightblue" stroke="midnightblue" points="545.78,-370.14 553.99,-363.44 543.39,-363.56 545.78,-370.14"/>
</g>
<!-- Node28&#45;&gt;Node4 -->
<g id="edge49" class="edge">
<title>Node28&#45;&gt;Node4</title>
<path fill="none" stroke="midnightblue" d="M437.52,-369.74C434.92,-371.24 432.38,-372.82 430,-374.48 409.81,-388.55 389.89,-409.44 378.99,-421.64"/>
<polygon fill="midnightblue" stroke="midnightblue" points="439.27,-372.77 446.46,-364.99 435.99,-366.59 439.27,-372.77"/>
</g>
<!-- Node29&#45;&gt;Node4 -->
<g id="edge51" class="edge">
<title>Node29&#45;&gt;Node4</title>
<path fill="none" stroke="midnightblue" d="M434.78,-406.68C421.44,-411.83 406.46,-417.6 394.33,-422.29"/>
<polygon fill="midnightblue" stroke="midnightblue" points="436.07,-409.93 444.14,-403.07 433.55,-403.4 436.07,-409.93"/>
</g>
<!-- Node30&#45;&gt;Node11 -->
<g id="edge53" class="edge">
<title>Node30&#45;&gt;Node11</title>
<path fill="none" stroke="midnightblue" d="M542.81,-519.49C527.5,-525.03 509.66,-531.49 495.58,-536.58"/>
<polygon fill="midnightblue" stroke="midnightblue" points="544.22,-522.7 552.44,-516.01 541.84,-516.12 544.22,-522.7"/>
</g>
<!-- Node31&#45;&gt;Node4 -->
<g id="edge55" class="edge">
<title>Node31&#45;&gt;Node4</title>
<path fill="none" stroke="midnightblue" d="M435.42,-332.22C433.51,-333.54 431.68,-334.96 430,-336.48 401.92,-361.72 382.23,-403.26 374.34,-421.9"/>
<polygon fill="midnightblue" stroke="midnightblue" points="437.39,-335.12 444.18,-326.98 433.8,-329.11 437.39,-335.12"/>
</g>
<!-- Node32&#45;&gt;Node4 -->
<g id="edge57" class="edge">
<title>Node32&#45;&gt;Node4</title>
<path fill="none" stroke="midnightblue" d="M434.47,-294.49C432.88,-295.73 431.37,-297.06 430,-298.48 394.11,-335.56 377.64,-398 372.43,-421.83"/>
<polygon fill="midnightblue" stroke="midnightblue" points="436.46,-297.36 442.96,-288.99 432.66,-291.49 436.46,-297.36"/>
</g>
<!-- Node33&#45;&gt;Node4 -->
<g id="edge59" class="edge">
<title>Node33&#45;&gt;Node4</title>
<path fill="none" stroke="midnightblue" d="M434.32,-256.35C432.77,-257.63 431.31,-259 430,-260.48 386.17,-309.84 374.21,-393.28 371.33,-421.68"/>
<polygon fill="midnightblue" stroke="midnightblue" points="436.33,-259.22 442.7,-250.75 432.44,-253.4 436.33,-259.22"/>
</g>
</g>
</svg>
        <g id="navigator" transform="translate(0 0)" fill="#404254">
                <rect fill="#f2f5e9" fill-opacity="0.5" stroke="#606060" stroke-width=".5" x="0" y="0" width="60" height="60"/>
                <use id="zoomplus" xlink:href="#zoomPlus" x="17" y="9" onmousedown="handleZoom(evt,'in')"/>
                <use id="zoomminus" xlink:href="#zoomMin" x="42" y="9" onmousedown="handleZoom(evt,'out')"/>
                <use id="reset" xlink:href="#resetDef" x="30" y="36" onmousedown="handleReset()"/>
                <g id="arrowUp" xlink:href="#dirArrow" transform="translate(30 24)" onmousedown="handlePan(0,-1)">
                  <use xlink:href="#rim" fill="#404040">
                        <set attributeName="fill" to="#808080" begin="arrowUp.mouseover" end="arrowUp.mouseout"/>
                  </use>
                  <path fill="none" stroke="white" stroke-width="1.5" d="M0,-3.0v7 M-2.5,-0.5L0,-3.0L2.5,-0.5"/>
                </g>
                <g id="arrowRight" xlink:href="#dirArrow" transform="rotate(90) translate(36 -43)" onmousedown="handlePan(1,0)">
                  <use xlink:href="#rim" fill="#404040">
                        <set attributeName="fill" to="#808080" begin="arrowRight.mouseover" end="arrowRight.mouseout"/>
                  </use>
                  <path fill="none" stroke="white" stroke-width="1.5" d="M0,-3.0v7 M-2.5,-0.5L0,-3.0L2.5,-0.5"/>
                </g>
                <g id="arrowDown" xlink:href="#dirArrow" transform="rotate(180) translate(-30 -48)" onmousedown="handlePan(0,1)">
                  <use xlink:href="#rim" fill="#404040">
                        <set attributeName="fill" to="#808080" begin="arrowDown.mouseover" end="arrowDown.mouseout"/>
                  </use>
                  <path fill="none" stroke="white" stroke-width="1.5" d="M0,-3.0v7 M-2.5,-0.5L0,-3.0L2.5,-0.5"/>
                </g>
                <g id="arrowLeft" xlink:href="#dirArrow" transform="rotate(270) translate(-36 17)" onmousedown="handlePan(-1,0)">
                  <use xlink:href="#rim" fill="#404040">
                        <set attributeName="fill" to="#808080" begin="arrowLeft.mouseover" end="arrowLeft.mouseout"/>
                  </use>
                  <path fill="none" stroke="white" stroke-width="1.5" d="M0,-3.0v7 M-2.5,-0.5L0,-3.0L2.5,-0.5"/>
                </g>
        </g>
        <svg viewBox="0 0 15 15" width="100%" height="30px" preserveAspectRatio="xMaxYMin meet">
         <g id="arrow_out" transform="scale(0.3 0.3)">
          <a xlink:href="namespacedbgout_acdd1612a38e44b6469dc03d9d1c6ceed_icgraph_org.svg" target="_base">
           <rect id="button" ry="5" rx="5" y="6" x="6" height="38" width="38"
                fill="#f2f5e9" fill-opacity="0.5" stroke="#606060" stroke-width="1.0"/>
           <path id="arrow"
             d="M 11.500037,31.436501 C 11.940474,20.09759 22.043105,11.32322 32.158766,21.979434 L 37.068811,17.246167 C 37.068811,17.246167 37.088388,32 37.088388,32 L 22.160133,31.978069 C 22.160133,31.978069 26.997745,27.140456 26.997745,27.140456 C 18.528582,18.264221 13.291696,25.230495 11.500037,31.436501 z"
             style="fill:#404040;"/>
          </a>
         </g>
        </svg>
</svg>
