<?xml version="1.0" encoding="UTF-8" standalone="no"?>
<!DOCTYPE svg PUBLIC "-//W3C//DTD SVG 1.1//EN"
 "http://www.w3.org/Graphics/SVG/1.1/DTD/svg11.dtd">
<!-- Generated by graphviz version 2.50.0 (20220203.2022)
 -->
<!-- Title: dbgout::open_dbg_context Pages: 1 -->
<svg width="889pt" height="1234pt"
 viewBox="0.00 0.00 889.00 1234.00" xmlns="http://www.w3.org/2000/svg" xmlns:xlink="http://www.w3.org/1999/xlink">
<g id="graph0" class="graph" transform="scale(1 1) rotate(0) translate(4 1230)">
<title>dbgout::open_dbg_context</title>
<polygon fill="white" stroke="transparent" points="-4,4 -4,-1230 885,-1230 885,4 -4,4"/>
<!-- Node1 -->
<g id="node1" class="node">
<title>Node1</title>
<g id="a_node1"><a xlink:title="check if any output is desired for the current iteration check if the given context should be openend...">
<polygon fill="#bfbfbf" stroke="black" points="752,-608.5 752,-627.5 881,-627.5 881,-608.5 752,-608.5"/>
<text text-anchor="middle" x="816.5" y="-615.5" font-family="Helvetica,sans-Serif" font-size="10.00">dbgout::open_dbg_context</text>
</a>
</g>
</g>
<!-- Node1&#45;&gt;Node1 -->
<g id="edge49" class="edge">
<title>Node1&#45;&gt;Node1</title>
<path fill="none" stroke="midnightblue" d="M840.68,-637.03C839.36,-642.13 831.3,-646 816.5,-646 793.39,-646 786.72,-636.57 796.46,-627.76"/>
<polygon fill="midnightblue" stroke="midnightblue" points="843.81,-635.46 836.54,-627.76 837.42,-638.31 843.81,-635.46"/>
</g>
<!-- Node2 -->
<g id="node2" class="node">
<title>Node2</title>
<g id="a_node2"><a xlink:href="../../d8/d7d/add__fluxes_8f90.html#a988e7013ef02301b9cfbde5b8068d5af" target="_top" xlink:title="Add the magnetic fluxes to the tangential derivatives of &#160;to arrive at the contravariant magnetic fie...">
<polygon fill="white" stroke="black" points="654,-532.5 654,-551.5 716,-551.5 716,-532.5 654,-532.5"/>
<text text-anchor="middle" x="685" y="-539.5" font-family="Helvetica,sans-Serif" font-size="10.00">add_fluxes</text>
</a>
</g>
</g>
<!-- Node1&#45;&gt;Node2 -->
<g id="edge1" class="edge">
<title>Node1&#45;&gt;Node2</title>
<path fill="none" stroke="midnightblue" d="M790.19,-603.14C764.15,-587.87 724.38,-564.53 702.27,-551.55"/>
<polygon fill="midnightblue" stroke="midnightblue" points="788.7,-606.33 799.1,-608.37 792.25,-600.29 788.7,-606.33"/>
</g>
<!-- Node3 -->
<g id="node3" class="node">
<title>Node3</title>
<g id="a_node3"><a xlink:href="../../d7/d61/bcovar_8f90.html#a1e1624195f0c0c7daa9f49d83bae5ce8" target="_top" xlink:title="Compute the covariant components of the magnetic field , .">
<polygon fill="white" stroke="black" points="555,-532.5 555,-551.5 601,-551.5 601,-532.5 555,-532.5"/>
<text text-anchor="middle" x="578" y="-539.5" font-family="Helvetica,sans-Serif" font-size="10.00">bcovar</text>
</a>
</g>
</g>
<!-- Node1&#45;&gt;Node3 -->
<g id="edge15" class="edge">
<title>Node1&#45;&gt;Node3</title>
<path fill="none" stroke="midnightblue" d="M776.02,-605.31C725.97,-589.23 641.38,-562.05 601.32,-549.17"/>
<polygon fill="midnightblue" stroke="midnightblue" points="774.96,-608.65 785.55,-608.37 777.1,-601.98 774.96,-608.65"/>
</g>
<!-- Node4 -->
<g id="node4" class="node">
<title>Node4</title>
<g id="a_node4"><a xlink:href="../../d3/d4f/funct3d_8f90.html#a800bacc22176e16323899df87b55c547" target="_top" xlink:title="Evaluate the three&#45;dimensional MHD energy functional. Think of this as the &quot;forward model&quot; that tells...">
<polygon fill="white" stroke="black" points="345,-627.5 345,-646.5 394,-646.5 394,-627.5 345,-627.5"/>
<text text-anchor="middle" x="369.5" y="-634.5" font-family="Helvetica,sans-Serif" font-size="10.00">funct3d</text>
</a>
</g>
</g>
<!-- Node1&#45;&gt;Node4 -->
<g id="edge35" class="edge">
<title>Node1&#45;&gt;Node4</title>
<path fill="none" stroke="midnightblue" d="M741.63,-608.63C646.42,-597.54 486.4,-582.53 430,-599 411.18,-604.5 392.64,-617.97 381.38,-627.3"/>
<polygon fill="midnightblue" stroke="midnightblue" points="741.43,-612.13 751.77,-609.82 742.25,-605.18 741.43,-612.13"/>
</g>
<!-- Node5 -->
<g id="node5" class="node">
<title>Node5</title>
<g id="a_node5"><a xlink:href="../../de/da9/evolve_8f90.html#a8103e838be03904e03551e04f6b396e4" target="_top" xlink:title="Take a single time step in Fourier space to evolve the Fourier coefficients describing the equilibriu...">
<polygon fill="white" stroke="black" points="254,-627.5 254,-646.5 299,-646.5 299,-627.5 254,-627.5"/>
<text text-anchor="middle" x="276.5" y="-634.5" font-family="Helvetica,sans-Serif" font-size="10.00">evolve</text>
</a>
</g>
</g>
<!-- Node1&#45;&gt;Node5 -->
<g id="edge25" class="edge">
<title>Node1&#45;&gt;Node5</title>
<path fill="none" stroke="midnightblue" d="M810.83,-637.59C800.58,-676.22 772.42,-762.43 716,-808 666.85,-847.71 642.19,-846 579,-846 579,-846 579,-846 465,-846 356.3,-846 294.7,-687.41 280.62,-646.52"/>
<polygon fill="midnightblue" stroke="midnightblue" points="814.29,-638.17 813.35,-627.62 807.5,-636.46 814.29,-638.17"/>
</g>
<!-- Node7 -->
<g id="node7" class="node">
<title>Node7</title>
<g id="a_node7"><a xlink:href="../../db/d61/vmec_8f90.html#a6d38ab7be2f9d818da4541e1d352ea23" target="_top" xlink:title="Main driver for VMEC.">
<polygon fill="white" stroke="black" points="81,-223.5 81,-242.5 122,-242.5 122,-223.5 81,-223.5"/>
<text text-anchor="middle" x="101.5" y="-230.5" font-family="Helvetica,sans-Serif" font-size="10.00">vmec</text>
</a>
</g>
</g>
<!-- Node1&#45;&gt;Node7 -->
<g id="edge77" class="edge">
<title>Node1&#45;&gt;Node7</title>
<path fill="none" stroke="midnightblue" d="M814.49,-637.63C809.56,-726.12 785.43,-1087.28 716,-1172 674.52,-1222.62 644.45,-1226 579,-1226 579,-1226 579,-1226 275.5,-1226 169.96,-1226 109.7,-344.13 103.11,-242.51"/>
<polygon fill="midnightblue" stroke="midnightblue" points="817.98,-637.79 815.03,-627.61 810.99,-637.41 817.98,-637.79"/>
</g>
<!-- Node10 -->
<g id="node10" class="node">
<title>Node10</title>
<g id="a_node10"><a xlink:href="../../da/d73/analyt_8f90.html#a60edcf4884aa60f6d96c258a97255756" target="_top" xlink:title="Compute the analytical&#45;and&#45;numerical 4D Fourier integrals over the equivalently&#45;singular functions.">
<polygon fill="white" stroke="black" points="664,-912.5 664,-931.5 706,-931.5 706,-912.5 664,-912.5"/>
<text text-anchor="middle" x="685" y="-919.5" font-family="Helvetica,sans-Serif" font-size="10.00">analyt</text>
</a>
</g>
</g>
<!-- Node1&#45;&gt;Node10 -->
<g id="edge10" class="edge">
<title>Node1&#45;&gt;Node10</title>
<path fill="none" stroke="midnightblue" d="M813.14,-637.72C806.32,-687.28 782.66,-819.04 716,-903 713.09,-906.67 709.26,-909.83 705.32,-912.47"/>
<polygon fill="midnightblue" stroke="midnightblue" points="816.62,-638.07 814.44,-627.7 809.68,-637.17 816.62,-638.07"/>
</g>
<!-- Node11 -->
<g id="node11" class="node">
<title>Node11</title>
<g id="a_node11"><a xlink:href="../../d0/d19/scalpot_8f90.html#afb9e58849c5a27e486bdf4106f8bb84e" target="_top" xlink:title="Compute all required terms for solving for the scalar magnetic potential.">
<polygon fill="white" stroke="black" points="554,-950.5 554,-969.5 602,-969.5 602,-950.5 554,-950.5"/>
<text text-anchor="middle" x="578" y="-957.5" font-family="Helvetica,sans-Serif" font-size="10.00">scalpot</text>
</a>
</g>
</g>
<!-- Node1&#45;&gt;Node11 -->
<g id="edge67" class="edge">
<title>Node1&#45;&gt;Node11</title>
<path fill="none" stroke="midnightblue" d="M816.11,-637.78C816.69,-694.91 809.87,-861.15 716,-941 684.08,-968.15 632.02,-967.12 602.11,-963.7"/>
<polygon fill="midnightblue" stroke="midnightblue" points="819.6,-637.52 815.91,-627.59 812.6,-637.66 819.6,-637.52"/>
</g>
<!-- Node12 -->
<g id="node12" class="node">
<title>Node12</title>
<g id="a_node12"><a xlink:href="../../dd/d6d/vacuum_8f90.html#a0acbc18d2ab7664835d797b42ce49a35" target="_top" xlink:title="Compute the vacuum contribution to the free&#45;boundary energy functional.">
<polygon fill="white" stroke="black" points="440.5,-1045.5 440.5,-1064.5 491.5,-1064.5 491.5,-1045.5 440.5,-1045.5"/>
<text text-anchor="middle" x="466" y="-1052.5" font-family="Helvetica,sans-Serif" font-size="10.00">vacuum</text>
</a>
</g>
</g>
<!-- Node1&#45;&gt;Node12 -->
<g id="edge76" class="edge">
<title>Node1&#45;&gt;Node12</title>
<path fill="none" stroke="midnightblue" d="M813.41,-637.98C805.32,-711.36 773.61,-964.51 716,-1017 683.43,-1046.67 547.87,-1053.18 491.62,-1054.6"/>
<polygon fill="midnightblue" stroke="midnightblue" points="816.92,-638.12 814.51,-627.8 809.96,-637.37 816.92,-638.12"/>
</g>
<!-- Node14 -->
<g id="node14" class="node">
<title>Node14</title>
<g id="a_node14"><a xlink:href="../../db/d3d/bextern_8f90.html#a90228cc5f358147ae7f59953d6f9cced" target="_top" xlink:title="Compute the total magnetic field due to external coils and the net toroidal plasma current.">
<polygon fill="white" stroke="black" points="554,-1140.5 554,-1159.5 602,-1159.5 602,-1140.5 554,-1140.5"/>
<text text-anchor="middle" x="578" y="-1147.5" font-family="Helvetica,sans-Serif" font-size="10.00">bextern</text>
</a>
</g>
</g>
<!-- Node1&#45;&gt;Node14 -->
<g id="edge16" class="edge">
<title>Node1&#45;&gt;Node14</title>
<path fill="none" stroke="midnightblue" d="M814.08,-637.64C807.76,-719.61 779.71,-1033.44 716,-1105 686.7,-1137.91 632.93,-1146.84 602.19,-1149.2"/>
<polygon fill="midnightblue" stroke="midnightblue" points="817.57,-637.9 814.83,-627.66 810.59,-637.37 817.57,-637.9"/>
</g>
<!-- Node15 -->
<g id="node15" class="node">
<title>Node15</title>
<g id="a_node15"><a xlink:href="../../d7/d77/bss_8f90.html#acdfd6dccfb28d75e1de40c6822f5736b" target="_top" xlink:title="Computes br, bphi, bz, bsubs on half&#45;radial mesh.">
<polygon fill="white" stroke="black" points="562,-342.5 562,-361.5 594,-361.5 594,-342.5 562,-342.5"/>
<text text-anchor="middle" x="578" y="-349.5" font-family="Helvetica,sans-Serif" font-size="10.00">bss</text>
</a>
</g>
</g>
<!-- Node1&#45;&gt;Node15 -->
<g id="edge18" class="edge">
<title>Node1&#45;&gt;Node15</title>
<path fill="none" stroke="midnightblue" d="M814,-598.22C809.24,-550.52 790.06,-428.82 716,-371 679.85,-342.78 621.38,-346.09 594.02,-349.59"/>
<polygon fill="midnightblue" stroke="midnightblue" points="810.54,-598.78 814.91,-608.43 817.51,-598.16 810.54,-598.78"/>
</g>
<!-- Node16 -->
<g id="node16" class="node">
<title>Node16</title>
<g id="a_node16"><a xlink:href="../../d0/d22/eqfor_8f90.html#a4579124c405a906bf05b3d3a0da2d105" target="_top" xlink:title="Basis physics analysis and evaluaton of force balance. This is where most of the contents of the thre...">
<polygon fill="white" stroke="black" points="447,-314.5 447,-333.5 485,-333.5 485,-314.5 447,-314.5"/>
<text text-anchor="middle" x="466" y="-321.5" font-family="Helvetica,sans-Serif" font-size="10.00">eqfor</text>
</a>
</g>
</g>
<!-- Node1&#45;&gt;Node16 -->
<g id="edge24" class="edge">
<title>Node1&#45;&gt;Node16</title>
<path fill="none" stroke="midnightblue" d="M813.71,-598.21C806.57,-524.43 777.55,-267.08 716,-219 634.85,-155.6 509.8,-278.11 475.79,-314.34"/>
<polygon fill="midnightblue" stroke="midnightblue" points="810.24,-598.79 814.66,-608.42 817.21,-598.14 810.24,-598.79"/>
</g>
<!-- Node17 -->
<g id="node17" class="node">
<title>Node17</title>
<g id="a_node17"><a xlink:href="../../d9/dff/calc__fbal_8f90.html#a6cdc3d21c48f66aeaff8ab5e639641b6" target="_top" xlink:title="Compute flux&#45;surface averaged radial force balance .">
<polygon fill="white" stroke="black" points="657,-380.5 657,-399.5 713,-399.5 713,-380.5 657,-380.5"/>
<text text-anchor="middle" x="685" y="-387.5" font-family="Helvetica,sans-Serif" font-size="10.00">calc_fbal</text>
</a>
</g>
</g>
<!-- Node1&#45;&gt;Node17 -->
<g id="edge21" class="edge">
<title>Node1&#45;&gt;Node17</title>
<path fill="none" stroke="midnightblue" d="M809.2,-598.32C796.23,-559.94 763.73,-473.64 716,-414 711.67,-408.58 705.9,-403.61 700.59,-399.61"/>
<polygon fill="midnightblue" stroke="midnightblue" points="806,-599.81 812.46,-608.21 812.65,-597.62 806,-599.81"/>
</g>
<!-- Node18 -->
<g id="node18" class="node">
<title>Node18</title>
<g id="a_node18"><a xlink:href="../../d4/dd1/fixaray_8f90.html#aca9a4c886a9423b95e8a9336071de2e3" target="_top" xlink:title="allocate and fill some fixed&#45;size arrays (only depending on Fourier resolution).">
<polygon fill="white" stroke="black" points="161,-176.5 161,-195.5 205,-195.5 205,-176.5 161,-176.5"/>
<text text-anchor="middle" x="183" y="-183.5" font-family="Helvetica,sans-Serif" font-size="10.00">fixaray</text>
</a>
</g>
</g>
<!-- Node1&#45;&gt;Node18 -->
<g id="edge26" class="edge">
<title>Node1&#45;&gt;Node18</title>
<path fill="none" stroke="midnightblue" d="M813.5,-598.09C805.55,-522.66 773.69,-255.74 716,-197 671.96,-152.16 641.84,-162 579,-162 579,-162 579,-162 368.5,-162 308.9,-162 239.38,-174.47 205.19,-181.43"/>
<polygon fill="midnightblue" stroke="midnightblue" points="810.03,-598.55 814.54,-608.14 817,-597.83 810.03,-598.55"/>
</g>
<!-- Node19 -->
<g id="node19" class="node">
<title>Node19</title>
<g id="a_node19"><a xlink:href="../../de/d0c/forces_8f90.html#a7b4708aaec3cc94526474c16bc3a16f0" target="_top" xlink:title="Compute the real&#45;space MHD forces.">
<polygon fill="white" stroke="black" points="444,-428.5 444,-447.5 488,-447.5 488,-428.5 444,-428.5"/>
<text text-anchor="middle" x="466" y="-435.5" font-family="Helvetica,sans-Serif" font-size="10.00">forces</text>
</a>
</g>
</g>
<!-- Node1&#45;&gt;Node19 -->
<g id="edge28" class="edge">
<title>Node1&#45;&gt;Node19</title>
<path fill="none" stroke="midnightblue" d="M809.1,-599.04C796.84,-565.94 766.65,-498.2 716,-467 642.63,-421.81 533.8,-429.17 488.25,-434.83"/>
<polygon fill="midnightblue" stroke="midnightblue" points="805.81,-600.23 812.45,-608.47 812.4,-597.88 805.81,-600.23"/>
</g>
<!-- Node20 -->
<g id="node20" class="node">
<title>Node20</title>
<g id="a_node20"><a xlink:href="../../d6/d77/fouri_8f90.html#a0f902f8d584a395f9db7175079d273c7" target="_top" xlink:title="Compute Fourier integrals and build amatrix.">
<polygon fill="white" stroke="black" points="667.5,-874.5 667.5,-893.5 702.5,-893.5 702.5,-874.5 667.5,-874.5"/>
<text text-anchor="middle" x="685" y="-881.5" font-family="Helvetica,sans-Serif" font-size="10.00">fouri</text>
</a>
</g>
</g>
<!-- Node1&#45;&gt;Node20 -->
<g id="edge30" class="edge">
<title>Node1&#45;&gt;Node20</title>
<path fill="none" stroke="midnightblue" d="M811.06,-637.48C800.45,-680.89 770.38,-787.43 716,-860 711.92,-865.44 706.33,-870.36 701.08,-874.3"/>
<polygon fill="midnightblue" stroke="midnightblue" points="814.49,-638.18 813.39,-627.65 807.68,-636.57 814.49,-638.18"/>
</g>
<!-- Node21 -->
<g id="node21" class="node">
<title>Node21</title>
<g id="a_node21"><a xlink:href="../../d0/d1c/fourp_8f90.html#add725dd420251115fd60182dc992503c" target="_top" xlink:title="Perform Fourier integrals of Green&#39;s function kernel.">
<polygon fill="white" stroke="black" points="666,-988.5 666,-1007.5 704,-1007.5 704,-988.5 666,-988.5"/>
<text text-anchor="middle" x="685" y="-995.5" font-family="Helvetica,sans-Serif" font-size="10.00">fourp</text>
</a>
</g>
</g>
<!-- Node1&#45;&gt;Node21 -->
<g id="edge32" class="edge">
<title>Node1&#45;&gt;Node21</title>
<path fill="none" stroke="midnightblue" d="M814.19,-637.82C809.59,-694.74 790.18,-861.83 716,-974 712.32,-979.56 706.94,-984.44 701.74,-988.32"/>
<polygon fill="midnightblue" stroke="midnightblue" points="817.69,-637.91 814.94,-627.68 810.71,-637.39 817.69,-637.91"/>
</g>
<!-- Node22 -->
<g id="node22" class="node">
<title>Node22</title>
<g id="a_node22"><a xlink:href="../../d1/d87/freeb__data_8f90.html#a71de251d01e145a30e3f710ac705f217" target="_top" xlink:title="Write out edge values of fields.">
<polygon fill="white" stroke="black" points="654,-0.5 654,-19.5 716,-19.5 716,-0.5 654,-0.5"/>
<text text-anchor="middle" x="685" y="-7.5" font-family="Helvetica,sans-Serif" font-size="10.00">freeb_data</text>
</a>
</g>
</g>
<!-- Node1&#45;&gt;Node22 -->
<g id="edge34" class="edge">
<title>Node1&#45;&gt;Node22</title>
<path fill="none" stroke="midnightblue" d="M814,-598.05C806.91,-507.28 774.58,-133.43 716,-34 712.68,-28.37 707.51,-23.53 702.39,-19.71"/>
<polygon fill="midnightblue" stroke="midnightblue" points="810.52,-598.4 814.78,-608.1 817.5,-597.86 810.52,-598.4"/>
</g>
<!-- Node23 -->
<g id="node23" class="node">
<title>Node23</title>
<g id="a_node23"><a xlink:href="../../d5/dfd/guess__axis_8f90.html#a375e34fe4656d4c51d5013939bf5617e" target="_top" xlink:title="Computes guess for magnetic axis if user guess leads to initial sign change of Jacobian.">
<polygon fill="white" stroke="black" points="244,-922.5 244,-941.5 309,-941.5 309,-922.5 244,-922.5"/>
<text text-anchor="middle" x="276.5" y="-929.5" font-family="Helvetica,sans-Serif" font-size="10.00">guess_axis</text>
</a>
</g>
</g>
<!-- Node1&#45;&gt;Node23 -->
<g id="edge36" class="edge">
<title>Node1&#45;&gt;Node23</title>
<path fill="none" stroke="midnightblue" d="M814.22,-637.98C808.38,-723.51 781.62,-1057.92 716,-1136 674.1,-1185.86 644.13,-1188 579,-1188 579,-1188 579,-1188 465,-1188 340.5,-1188 289.69,-988.48 279.49,-941.72"/>
<polygon fill="midnightblue" stroke="midnightblue" points="817.73,-638.02 814.9,-627.81 810.74,-637.56 817.73,-638.02"/>
</g>
<!-- Node24 -->
<g id="node24" class="node">
<title>Node24</title>
<g id="a_node24"><a xlink:href="../../dc/df5/interp_8f90.html#a5bac7725cb89730c4bd187e158dc36ee" target="_top" xlink:title="Interpolate , &#160;and &#160;on full grid.">
<polygon fill="white" stroke="black" points="664.5,-76.5 664.5,-95.5 705.5,-95.5 705.5,-76.5 664.5,-76.5"/>
<text text-anchor="middle" x="685" y="-83.5" font-family="Helvetica,sans-Serif" font-size="10.00">interp</text>
</a>
</g>
</g>
<!-- Node1&#45;&gt;Node24 -->
<g id="edge38" class="edge">
<title>Node1&#45;&gt;Node24</title>
<path fill="none" stroke="midnightblue" d="M813.76,-598.27C806.06,-514.44 772.91,-188.37 716,-105 713.36,-101.13 709.64,-97.88 705.72,-95.23"/>
<polygon fill="midnightblue" stroke="midnightblue" points="810.29,-598.79 814.68,-608.44 817.27,-598.16 810.29,-598.79"/>
</g>
<!-- Node26 -->
<g id="node26" class="node">
<title>Node26</title>
<g id="a_node26"><a xlink:href="../../d8/dc3/jacobian_8f90.html#af346f65d2aa225d9ede6e0f23add6142" target="_top" xlink:title="Evaulate the Jacobian of the transform from flux&#45; to cylindrical coordinates.">
<polygon fill="white" stroke="black" points="551.5,-798.5 551.5,-817.5 604.5,-817.5 604.5,-798.5 551.5,-798.5"/>
<text text-anchor="middle" x="578" y="-805.5" font-family="Helvetica,sans-Serif" font-size="10.00">jacobian</text>
</a>
</g>
</g>
<!-- Node1&#45;&gt;Node26 -->
<g id="edge41" class="edge">
<title>Node1&#45;&gt;Node26</title>
<path fill="none" stroke="midnightblue" d="M809.78,-637.52C798.31,-672.97 768.95,-747.61 716,-784 682.57,-806.98 634.01,-810.13 604.58,-809.59"/>
<polygon fill="midnightblue" stroke="midnightblue" points="813.16,-638.45 812.77,-627.86 806.47,-636.38 813.16,-638.45"/>
</g>
<!-- Node27 -->
<g id="node27" class="node">
<title>Node27</title>
<g id="a_node27"><a xlink:href="../../d6/d53/jxbforce_8f90.html#aef04f343b688724d6ec0ee8f2a9db7c1" target="_top" xlink:title="Program for computing local &#160;force balance.">
<polygon fill="white" stroke="black" points="553,-304.5 553,-323.5 603,-323.5 603,-304.5 553,-304.5"/>
<text text-anchor="middle" x="578" y="-311.5" font-family="Helvetica,sans-Serif" font-size="10.00">jxbforce</text>
</a>
</g>
</g>
<!-- Node1&#45;&gt;Node27 -->
<g id="edge43" class="edge">
<title>Node1&#45;&gt;Node27</title>
<path fill="none" stroke="midnightblue" d="M812.51,-598.34C802.31,-534.1 766.65,-332.4 716,-295 680.26,-268.61 624.63,-290.29 596.52,-304.34"/>
<polygon fill="midnightblue" stroke="midnightblue" points="809.07,-599.01 814.07,-608.36 815.99,-597.94 809.07,-599.01"/>
</g>
<!-- Node28 -->
<g id="node28" class="node">
<title>Node28</title>
<g id="a_node28"><a xlink:href="../../d4/d51/lamcal_8f90.html#aae66bdcec0bbb969704413d933148096" target="_top" xlink:title="Normalization parameters for .">
<polygon fill="white" stroke="black" points="662.5,-494.5 662.5,-513.5 707.5,-513.5 707.5,-494.5 662.5,-494.5"/>
<text text-anchor="middle" x="685" y="-501.5" font-family="Helvetica,sans-Serif" font-size="10.00">lamcal</text>
</a>
</g>
</g>
<!-- Node1&#45;&gt;Node28 -->
<g id="edge45" class="edge">
<title>Node1&#45;&gt;Node28</title>
<path fill="none" stroke="midnightblue" d="M799.77,-601.07C780.88,-581.2 747.75,-547.82 716,-523 711.82,-519.74 707.07,-516.52 702.59,-513.69"/>
<polygon fill="midnightblue" stroke="midnightblue" points="797.32,-603.57 806.73,-608.45 802.42,-598.77 797.32,-603.57"/>
</g>
<!-- Node29 -->
<g id="node29" class="node">
<title>Node29</title>
<g id="a_node29"><a xlink:href="../../de/d25/mercier_8f90.html#a6635929818286c4cff963bd148261208" target="_top" xlink:title="Evaluate the Mercier stability criterion.">
<polygon fill="white" stroke="black" points="660.5,-304.5 660.5,-323.5 709.5,-323.5 709.5,-304.5 660.5,-304.5"/>
<text text-anchor="middle" x="685" y="-311.5" font-family="Helvetica,sans-Serif" font-size="10.00">mercier</text>
</a>
</g>
</g>
<!-- Node1&#45;&gt;Node29 -->
<g id="edge47" class="edge">
<title>Node1&#45;&gt;Node29</title>
<path fill="none" stroke="midnightblue" d="M812.37,-598.41C803.89,-550.22 776.94,-423.59 716,-338 712.05,-332.46 706.49,-327.52 701.22,-323.59"/>
<polygon fill="midnightblue" stroke="midnightblue" points="808.94,-599.15 814.06,-608.43 815.84,-597.99 808.94,-599.15"/>
</g>
<!-- Node30 -->
<g id="node30" class="node">
<title>Node30</title>
<g id="a_node30"><a xlink:href="../../dd/d98/precal_8f90.html#a0dae73e848a4757092d7e9786d073d3d" target="_top" xlink:title="Pre&#45;compute constant terms required for NESTOR.">
<polygon fill="white" stroke="black" points="556.5,-1102.5 556.5,-1121.5 599.5,-1121.5 599.5,-1102.5 556.5,-1102.5"/>
<text text-anchor="middle" x="578" y="-1109.5" font-family="Helvetica,sans-Serif" font-size="10.00">precal</text>
</a>
</g>
</g>
<!-- Node1&#45;&gt;Node30 -->
<g id="edge50" class="edge">
<title>Node1&#45;&gt;Node30</title>
<path fill="none" stroke="midnightblue" d="M813.93,-637.57C807.19,-716.59 778.23,-1011.03 716,-1076 685.38,-1107.97 630.09,-1112.78 599.96,-1112.82"/>
<polygon fill="midnightblue" stroke="midnightblue" points="817.42,-637.78 814.76,-627.52 810.45,-637.2 817.42,-637.78"/>
</g>
<!-- Node31 -->
<g id="node31" class="node">
<title>Node31</title>
<g id="a_node31"><a xlink:href="../../d7/d61/profil1d_8f90.html#a2bc38da2d3b36d16295159df2f8573e2" target="_top" xlink:title="Compute phip and iota profiles on full grid.">
<polygon fill="white" stroke="black" points="661.5,-114.5 661.5,-133.5 708.5,-133.5 708.5,-114.5 661.5,-114.5"/>
<text text-anchor="middle" x="685" y="-121.5" font-family="Helvetica,sans-Serif" font-size="10.00">profil1d</text>
</a>
</g>
</g>
<!-- Node1&#45;&gt;Node31 -->
<g id="edge52" class="edge">
<title>Node1&#45;&gt;Node31</title>
<path fill="none" stroke="midnightblue" d="M815.9,-597.95C816.35,-529.53 810.32,-301.03 716,-148 712.5,-142.32 707.16,-137.42 701.94,-133.55"/>
<polygon fill="midnightblue" stroke="midnightblue" points="812.4,-598.13 815.77,-608.17 819.39,-598.22 812.4,-598.13"/>
</g>
<!-- Node32 -->
<g id="node32" class="node">
<title>Node32</title>
<g id="a_node32"><a xlink:href="../../dd/d75/profil3d_8f90.html#a67d2774ceac255f1e1f75e54f4679e9c" target="_top" xlink:title="Compute three&#45;dimensional profiles of flux&#45;surface geometry etc.">
<polygon fill="white" stroke="black" points="661.5,-228.5 661.5,-247.5 708.5,-247.5 708.5,-228.5 661.5,-228.5"/>
<text text-anchor="middle" x="685" y="-235.5" font-family="Helvetica,sans-Serif" font-size="10.00">profil3d</text>
</a>
</g>
</g>
<!-- Node1&#45;&gt;Node32 -->
<g id="edge54" class="edge">
<title>Node1&#45;&gt;Node32</title>
<path fill="none" stroke="midnightblue" d="M814.19,-598.18C809.59,-541.26 790.18,-374.17 716,-262 712.32,-256.44 706.94,-251.56 701.74,-247.68"/>
<polygon fill="midnightblue" stroke="midnightblue" points="810.71,-598.61 814.94,-608.32 817.69,-598.09 810.71,-598.61"/>
</g>
<!-- Node33 -->
<g id="node33" class="node">
<title>Node33</title>
<g id="a_node33"><a xlink:href="../../d8/da3/readin_8f90.html#a60f2bfd8fc6f7c3e027a8f91ef0c7b25" target="_top" xlink:title="Read the input file.">
<polygon fill="white" stroke="black" points="348,-48.5 348,-67.5 391,-67.5 391,-48.5 348,-48.5"/>
<text text-anchor="middle" x="369.5" y="-55.5" font-family="Helvetica,sans-Serif" font-size="10.00">readin</text>
</a>
</g>
</g>
<!-- Node1&#45;&gt;Node33 -->
<g id="edge57" class="edge">
<title>Node1&#45;&gt;Node33</title>
<path fill="none" stroke="midnightblue" d="M815.1,-597.86C812.86,-507.15 798.69,-137.95 716,-67 620.59,14.85 449.96,-31.24 391.11,-50.68"/>
<polygon fill="midnightblue" stroke="midnightblue" points="811.61,-598.21 815.33,-608.13 818.61,-598.06 811.61,-598.21"/>
</g>
<!-- Node34 -->
<g id="node34" class="node">
<title>Node34</title>
<g id="a_node34"><a xlink:href="../../db/d5a/residue_8f90.html#a2390b3cf93196383bbe960acb85b3e32" target="_top" xlink:title="Compute invariant residuals.">
<polygon fill="white" stroke="black" points="442,-760.5 442,-779.5 490,-779.5 490,-760.5 442,-760.5"/>
<text text-anchor="middle" x="466" y="-767.5" font-family="Helvetica,sans-Serif" font-size="10.00">residue</text>
</a>
</g>
</g>
<!-- Node1&#45;&gt;Node34 -->
<g id="edge59" class="edge">
<title>Node1&#45;&gt;Node34</title>
<path fill="none" stroke="midnightblue" d="M804.69,-636.48C788.72,-662.04 756.31,-707.65 716,-731 642.17,-773.77 536.34,-774.01 490.1,-771.7"/>
<polygon fill="midnightblue" stroke="midnightblue" points="807.79,-638.12 809.99,-627.76 801.81,-634.49 807.79,-638.12"/>
</g>
<!-- Node35 -->
<g id="node35" class="node">
<title>Node35</title>
<g id="a_node35"><a xlink:href="../../d8/d86/scalfor_8f90.html#a2ef9c34d20ddf30cb7b15fe35066b8ca" target="_top" xlink:title="Build forces from different contributions.">
<polygon fill="white" stroke="black" points="555,-722.5 555,-741.5 601,-741.5 601,-722.5 555,-722.5"/>
<text text-anchor="middle" x="578" y="-729.5" font-family="Helvetica,sans-Serif" font-size="10.00">scalfor</text>
</a>
</g>
</g>
<!-- Node1&#45;&gt;Node35 -->
<g id="edge61" class="edge">
<title>Node1&#45;&gt;Node35</title>
<path fill="none" stroke="midnightblue" d="M801.56,-635.58C783.97,-656.43 751.69,-690.57 716,-708 678.46,-726.33 629.1,-730.85 601.03,-731.85"/>
<polygon fill="midnightblue" stroke="midnightblue" points="804.32,-637.74 807.96,-627.79 798.91,-633.29 804.32,-637.74"/>
</g>
<!-- Node38 -->
<g id="node38" class="node">
<title>Node38</title>
<g id="a_node38"><a xlink:href="../../d6/d03/surface_8f90.html#ad7b6446e720a806f41f10dd1eb0b6f88" target="_top" xlink:title="Evaluate the geometry of the LCFS and tangential derivatives.">
<polygon fill="white" stroke="black" points="553.5,-1064.5 553.5,-1083.5 602.5,-1083.5 602.5,-1064.5 553.5,-1064.5"/>
<text text-anchor="middle" x="578" y="-1071.5" font-family="Helvetica,sans-Serif" font-size="10.00">surface</text>
</a>
</g>
</g>
<!-- Node1&#45;&gt;Node38 -->
<g id="edge68" class="edge">
<title>Node1&#45;&gt;Node38</title>
<path fill="none" stroke="midnightblue" d="M813.77,-638.06C806.69,-715.28 777.35,-991.82 716,-1050 685.43,-1079 632.88,-1079.61 602.52,-1077.07"/>
<polygon fill="midnightblue" stroke="midnightblue" points="817.28,-638.08 814.68,-627.8 810.31,-637.45 817.28,-638.08"/>
</g>
<!-- Node39 -->
<g id="node39" class="node">
<title>Node39</title>
<g id="a_node39"><a xlink:href="../../d4/df3/symforce_8f90.html#a169610bcc5544fc8e16ad1e10ac85dcb" target="_top" xlink:title="Symmetrize forces on restricted &#160;interval &#160;so cos, sin integrals can be performed.">
<polygon fill="white" stroke="black" points="438,-646.5 438,-665.5 494,-665.5 494,-646.5 438,-646.5"/>
<text text-anchor="middle" x="466" y="-653.5" font-family="Helvetica,sans-Serif" font-size="10.00">symforce</text>
</a>
</g>
</g>
<!-- Node1&#45;&gt;Node39 -->
<g id="edge70" class="edge">
<title>Node1&#45;&gt;Node39</title>
<path fill="none" stroke="midnightblue" d="M778.48,-630.65C759.95,-636.41 737.03,-642.67 716,-646 636.09,-658.67 540.06,-658.16 494.1,-656.97"/>
<polygon fill="midnightblue" stroke="midnightblue" points="779.54,-633.98 788.01,-627.61 777.42,-627.31 779.54,-633.98"/>
</g>
<!-- Node40 -->
<g id="node40" class="node">
<title>Node40</title>
<g id="a_node40"><a xlink:href="../../d0/d6f/tomnsp_8f90.html#a6c7345c0aa0f13f311650d9633e6ecf8" target="_top" xlink:title="Fourier&#45;transform anti&#45;symmetric forces from real space to Fourier space.">
<polygon fill="white" stroke="black" points="439,-608.5 439,-627.5 493,-627.5 493,-608.5 439,-608.5"/>
<text text-anchor="middle" x="466" y="-615.5" font-family="Helvetica,sans-Serif" font-size="10.00">tomnspa</text>
</a>
</g>
</g>
<!-- Node1&#45;&gt;Node40 -->
<g id="edge72" class="edge">
<title>Node1&#45;&gt;Node40</title>
<path fill="none" stroke="midnightblue" d="M747.72,-628.83C737.13,-630.15 726.29,-631.28 716,-632 634.8,-637.68 538.57,-627.47 493.18,-621.64"/>
<polygon fill="midnightblue" stroke="midnightblue" points="748.31,-632.28 757.77,-627.51 747.4,-625.34 748.31,-632.28"/>
</g>
<!-- Node41 -->
<g id="node41" class="node">
<title>Node41</title>
<g id="a_node41"><a xlink:href="../../d0/d6f/tomnsp_8f90.html#aec4b11e4f55e18c6bfc0348c263e31db" target="_top" xlink:title="Fourier&#45;transform symmetric forces from real space to Fourier space.">
<polygon fill="white" stroke="black" points="551,-471.5 551,-490.5 605,-490.5 605,-471.5 551,-471.5"/>
<text text-anchor="middle" x="578" y="-478.5" font-family="Helvetica,sans-Serif" font-size="10.00">tomnsps</text>
</a>
</g>
</g>
<!-- Node1&#45;&gt;Node41 -->
<g id="edge74" class="edge">
<title>Node1&#45;&gt;Node41</title>
<path fill="none" stroke="midnightblue" d="M807.75,-598.74C794.28,-568.2 763.39,-509.6 716,-485 681.05,-466.86 634.03,-470.5 605.15,-475.34"/>
<polygon fill="midnightblue" stroke="midnightblue" points="804.66,-600.43 811.78,-608.27 811.11,-597.7 804.66,-600.43"/>
</g>
<!-- Node2&#45;&gt;Node3 -->
<g id="edge2" class="edge">
<title>Node2&#45;&gt;Node3</title>
<path fill="none" stroke="midnightblue" d="M643.67,-542C629.2,-542 613.43,-542 601.08,-542"/>
<polygon fill="midnightblue" stroke="midnightblue" points="643.91,-545.5 653.91,-542 643.91,-538.5 643.91,-545.5"/>
</g>
<!-- Node3&#45;&gt;Node4 -->
<g id="edge3" class="edge">
<title>Node3&#45;&gt;Node4</title>
<path fill="none" stroke="midnightblue" d="M544.41,-540.97C513.11,-541.39 465.48,-545.8 430,-566 404,-580.8 384.37,-611.57 375.58,-627.3"/>
<polygon fill="midnightblue" stroke="midnightblue" points="544.75,-544.47 554.75,-540.97 544.75,-537.47 544.75,-544.47"/>
</g>
<!-- Node4&#45;&gt;Node5 -->
<g id="edge4" class="edge">
<title>Node4&#45;&gt;Node5</title>
<path fill="none" stroke="midnightblue" d="M334.53,-637C322.66,-637 309.66,-637 299.07,-637"/>
<polygon fill="midnightblue" stroke="midnightblue" points="334.59,-640.5 344.59,-637 334.59,-633.5 334.59,-640.5"/>
</g>
<!-- Node9 -->
<g id="node9" class="node">
<title>Node9</title>
<g id="a_node9"><a xlink:href="../../d0/d71/fileout_8f90.html#a7228e984aaf2c38bd772e3d846fab7af" target="_top" xlink:title="Write the output files.">
<polygon fill="white" stroke="black" points="255.5,-314.5 255.5,-333.5 297.5,-333.5 297.5,-314.5 255.5,-314.5"/>
<text text-anchor="middle" x="276.5" y="-321.5" font-family="Helvetica,sans-Serif" font-size="10.00">fileout</text>
</a>
</g>
</g>
<!-- Node4&#45;&gt;Node9 -->
<g id="edge8" class="edge">
<title>Node4&#45;&gt;Node9</title>
<path fill="none" stroke="midnightblue" d="M362.85,-617.57C345.43,-557.66 292.99,-377.27 280.29,-333.6"/>
<polygon fill="midnightblue" stroke="midnightblue" points="359.52,-618.66 365.68,-627.29 366.25,-616.71 359.52,-618.66"/>
</g>
<!-- Node6 -->
<g id="node6" class="node">
<title>Node6</title>
<g id="a_node6"><a xlink:href="../../d7/d46/eqsolve_8f90.html#ab740b09d1b651e2ab8a60c5d552df0c2" target="_top" xlink:title="Iteratively evolve the Fourier coefficients that specify the equilibrium.">
<polygon fill="white" stroke="black" points="158,-447.5 158,-466.5 208,-466.5 208,-447.5 158,-447.5"/>
<text text-anchor="middle" x="183" y="-454.5" font-family="Helvetica,sans-Serif" font-size="10.00">eqsolve</text>
</a>
</g>
</g>
<!-- Node5&#45;&gt;Node6 -->
<g id="edge5" class="edge">
<title>Node5&#45;&gt;Node6</title>
<path fill="none" stroke="midnightblue" d="M266.02,-618.36C246.75,-580.44 203.56,-495.48 188.94,-466.73"/>
<polygon fill="midnightblue" stroke="midnightblue" points="262.93,-619.99 270.58,-627.32 269.17,-616.82 262.93,-619.99"/>
</g>
<!-- Node6&#45;&gt;Node7 -->
<g id="edge6" class="edge">
<title>Node6&#45;&gt;Node7</title>
<path fill="none" stroke="midnightblue" d="M175.15,-437.7C158.8,-391.64 117.96,-276.57 105.9,-242.59"/>
<polygon fill="midnightblue" stroke="midnightblue" points="171.94,-439.12 178.58,-447.38 178.54,-436.78 171.94,-439.12"/>
</g>
<!-- Node8 -->
<g id="node8" class="node">
<title>Node8</title>
<g id="a_node8"><a xlink:href="../../db/d61/vmec_8f90.html#ace5bdf043bb85c8f0a9fc582bdb55725" target="_top" xlink:title="Main program of VMEC.">
<polygon fill="white" stroke="black" points="0,-223.5 0,-242.5 45,-242.5 45,-223.5 0,-223.5"/>
<text text-anchor="middle" x="22.5" y="-230.5" font-family="Helvetica,sans-Serif" font-size="10.00">xvmec</text>
</a>
</g>
</g>
<!-- Node7&#45;&gt;Node8 -->
<g id="edge7" class="edge">
<title>Node7&#45;&gt;Node8</title>
<path fill="none" stroke="midnightblue" d="M70.42,-233C61.99,-233 52.99,-233 45.16,-233"/>
<polygon fill="midnightblue" stroke="midnightblue" points="70.67,-236.5 80.67,-233 70.67,-229.5 70.67,-236.5"/>
</g>
<!-- Node9&#45;&gt;Node7 -->
<g id="edge9" class="edge">
<title>Node9&#45;&gt;Node7</title>
<path fill="none" stroke="midnightblue" d="M248.43,-309.76C212.83,-291.03 151.21,-258.62 120.7,-242.57"/>
<polygon fill="midnightblue" stroke="midnightblue" points="246.83,-312.88 257.31,-314.43 250.09,-306.68 246.83,-312.88"/>
</g>
<!-- Node10&#45;&gt;Node11 -->
<g id="edge11" class="edge">
<title>Node10&#45;&gt;Node11</title>
<path fill="none" stroke="midnightblue" d="M654.03,-932.85C637.54,-938.82 617.38,-946.11 602.11,-951.64"/>
<polygon fill="midnightblue" stroke="midnightblue" points="655.54,-936.02 663.75,-929.33 653.16,-929.44 655.54,-936.02"/>
</g>
<!-- Node11&#45;&gt;Node12 -->
<g id="edge12" class="edge">
<title>Node11&#45;&gt;Node12</title>
<path fill="none" stroke="midnightblue" d="M557.89,-976.51C534.83,-996.42 496.85,-1029.22 478.13,-1045.39"/>
<polygon fill="midnightblue" stroke="midnightblue" points="560.36,-978.99 565.64,-969.81 555.79,-973.7 560.36,-978.99"/>
</g>
<!-- Node12&#45;&gt;Node4 -->
<g id="edge13" class="edge">
<title>Node12&#45;&gt;Node4</title>
<path fill="none" stroke="midnightblue" d="M460.63,-1035.68C443.99,-962.05 384.83,-700.41 372.69,-646.68"/>
<polygon fill="midnightblue" stroke="midnightblue" points="457.23,-1036.5 462.85,-1045.48 464.06,-1034.96 457.23,-1036.5"/>
</g>
<!-- Node13 -->
<g id="node13" class="node">
<title>Node13</title>
<g id="a_node13"><a xlink:href="../../d4/d69/nestor__main_8f90.html#a1b0fd336e80285a96925333daa2ee8f0" target="_top" xlink:title="Main program of stand&#45;alone version of NESTOR.">
<polygon fill="white" stroke="black" points="347.5,-1045.5 347.5,-1064.5 391.5,-1064.5 391.5,-1045.5 347.5,-1045.5"/>
<text text-anchor="middle" x="369.5" y="-1052.5" font-family="Helvetica,sans-Serif" font-size="10.00">nestor</text>
</a>
</g>
</g>
<!-- Node12&#45;&gt;Node13 -->
<g id="edge14" class="edge">
<title>Node12&#45;&gt;Node13</title>
<path fill="none" stroke="midnightblue" d="M430.17,-1055C417.24,-1055 402.98,-1055 391.64,-1055"/>
<polygon fill="midnightblue" stroke="midnightblue" points="430.17,-1058.5 440.17,-1055 430.17,-1051.5 430.17,-1058.5"/>
</g>
<!-- Node14&#45;&gt;Node12 -->
<g id="edge17" class="edge">
<title>Node14&#45;&gt;Node12</title>
<path fill="none" stroke="midnightblue" d="M544.98,-1135.62C542.55,-1134.17 540.2,-1132.62 538,-1131 511.28,-1111.26 486.29,-1080.63 474.35,-1064.97"/>
<polygon fill="midnightblue" stroke="midnightblue" points="543.46,-1138.78 553.92,-1140.48 546.8,-1132.63 543.46,-1138.78"/>
</g>
<!-- Node15&#45;&gt;Node16 -->
<g id="edge19" class="edge">
<title>Node15&#45;&gt;Node16</title>
<path fill="none" stroke="midnightblue" d="M551.86,-345.6C531.49,-340.42 503.28,-333.24 485.09,-328.6"/>
<polygon fill="midnightblue" stroke="midnightblue" points="551.15,-349.03 561.7,-348.11 552.88,-342.25 551.15,-349.03"/>
</g>
<!-- Node16&#45;&gt;Node9 -->
<g id="edge20" class="edge">
<title>Node16&#45;&gt;Node9</title>
<path fill="none" stroke="midnightblue" d="M436.21,-324C397.85,-324 330.94,-324 297.59,-324"/>
<polygon fill="midnightblue" stroke="midnightblue" points="436.68,-327.5 446.68,-324 436.68,-320.5 436.68,-327.5"/>
</g>
<!-- Node17&#45;&gt;Node3 -->
<g id="edge22" class="edge">
<title>Node17&#45;&gt;Node3</title>
<path fill="none" stroke="midnightblue" d="M674.35,-408.67C662.38,-431.17 640.74,-469.74 618,-500 609.03,-511.93 597.19,-524.3 588.91,-532.5"/>
<polygon fill="midnightblue" stroke="midnightblue" points="677.59,-410.02 679.14,-399.54 671.4,-406.77 677.59,-410.02"/>
</g>
<!-- Node17&#45;&gt;Node16 -->
<g id="edge23" class="edge">
<title>Node17&#45;&gt;Node16</title>
<path fill="none" stroke="midnightblue" d="M646.65,-389.76C616.47,-388.48 573.35,-384.19 538,-371 514.73,-362.32 491.43,-344.79 478.15,-333.77"/>
<polygon fill="midnightblue" stroke="midnightblue" points="646.64,-393.26 656.75,-390.09 646.87,-386.26 646.64,-393.26"/>
</g>
<!-- Node18&#45;&gt;Node7 -->
<g id="edge27" class="edge">
<title>Node18&#45;&gt;Node7</title>
<path fill="none" stroke="midnightblue" d="M157.3,-200.61C144.78,-208.01 129.92,-216.79 118.84,-223.34"/>
<polygon fill="midnightblue" stroke="midnightblue" points="159.08,-203.61 165.91,-195.51 155.52,-197.59 159.08,-203.61"/>
</g>
<!-- Node19&#45;&gt;Node4 -->
<g id="edge29" class="edge">
<title>Node19&#45;&gt;Node4</title>
<path fill="none" stroke="midnightblue" d="M448.61,-455.51C442.22,-462.97 435.19,-472.01 430,-481 400.13,-532.71 379.81,-602.21 373,-627.39"/>
<polygon fill="midnightblue" stroke="midnightblue" points="451.64,-457.37 455.68,-447.58 446.41,-452.72 451.64,-457.37"/>
</g>
<!-- Node20&#45;&gt;Node11 -->
<g id="edge31" class="edge">
<title>Node20&#45;&gt;Node11</title>
<path fill="none" stroke="midnightblue" d="M659.74,-899.11C657.79,-900.41 655.85,-901.71 654,-903 631.17,-918.86 605.59,-938.79 590.98,-950.39"/>
<polygon fill="midnightblue" stroke="midnightblue" points="661.76,-901.98 668.26,-893.61 657.96,-896.09 661.76,-901.98"/>
</g>
<!-- Node21&#45;&gt;Node11 -->
<g id="edge33" class="edge">
<title>Node21&#45;&gt;Node11</title>
<path fill="none" stroke="midnightblue" d="M655.9,-987.83C639.12,-981.76 618.06,-974.13 602.22,-968.4"/>
<polygon fill="midnightblue" stroke="midnightblue" points="655.12,-991.27 665.71,-991.38 657.5,-984.69 655.12,-991.27"/>
</g>
<!-- Node23&#45;&gt;Node6 -->
<g id="edge37" class="edge">
<title>Node23&#45;&gt;Node6</title>
<path fill="none" stroke="midnightblue" d="M271.68,-912.16C256.04,-831 197.24,-525.75 185.9,-466.87"/>
<polygon fill="midnightblue" stroke="midnightblue" points="268.26,-912.92 273.59,-922.08 275.13,-911.6 268.26,-912.92"/>
</g>
<!-- Node25 -->
<g id="node25" class="node">
<title>Node25</title>
<g id="a_node25"><a xlink:href="../../d9/da6/initialize__radial_8f90.html#a187faea543d3a42bc748511f04b5b7d5" target="_top" xlink:title="Allocates memory for radial arrays and initializes radial profiles.">
<polygon fill="white" stroke="black" points="538,-114.5 538,-133.5 618,-133.5 618,-114.5 538,-114.5"/>
<text text-anchor="middle" x="578" y="-121.5" font-family="Helvetica,sans-Serif" font-size="10.00">initialize_radial</text>
</a>
</g>
</g>
<!-- Node24&#45;&gt;Node25 -->
<g id="edge39" class="edge">
<title>Node24&#45;&gt;Node25</title>
<path fill="none" stroke="midnightblue" d="M654.65,-96.62C639.2,-102.21 620.4,-109.02 605.4,-114.44"/>
<polygon fill="midnightblue" stroke="midnightblue" points="656.04,-99.84 664.25,-93.15 653.66,-93.26 656.04,-99.84"/>
</g>
<!-- Node25&#45;&gt;Node7 -->
<g id="edge40" class="edge">
<title>Node25&#45;&gt;Node7</title>
<path fill="none" stroke="midnightblue" d="M527.6,-124C485.77,-124 424.21,-124 370.5,-124 370.5,-124 370.5,-124 275.5,-124 219.89,-124 203.54,-135.09 158,-167 135.93,-182.46 117.46,-208.81 108.43,-223.09"/>
<polygon fill="midnightblue" stroke="midnightblue" points="527.8,-127.5 537.8,-124 527.8,-120.5 527.8,-127.5"/>
</g>
<!-- Node26&#45;&gt;Node4 -->
<g id="edge42" class="edge">
<title>Node26&#45;&gt;Node4</title>
<path fill="none" stroke="midnightblue" d="M541.08,-812.93C508.68,-815.34 461.43,-813.55 430,-789 383.32,-752.54 373.2,-674.3 371.06,-646.8"/>
<polygon fill="midnightblue" stroke="midnightblue" points="541.81,-816.37 551.45,-811.98 541.17,-809.4 541.81,-816.37"/>
</g>
<!-- Node27&#45;&gt;Node16 -->
<g id="edge44" class="edge">
<title>Node27&#45;&gt;Node16</title>
<path fill="none" stroke="midnightblue" d="M542.77,-317.11C523.77,-318.84 500.9,-320.92 485.28,-322.34"/>
<polygon fill="midnightblue" stroke="midnightblue" points="543.22,-320.59 552.86,-316.19 542.58,-313.61 543.22,-320.59"/>
</g>
<!-- Node28&#45;&gt;Node3 -->
<g id="edge46" class="edge">
<title>Node28&#45;&gt;Node3</title>
<path fill="none" stroke="midnightblue" d="M652.69,-515.33C636.12,-521.33 616.16,-528.55 601.2,-533.97"/>
<polygon fill="midnightblue" stroke="midnightblue" points="654.29,-518.48 662.5,-511.78 651.9,-511.89 654.29,-518.48"/>
</g>
<!-- Node29&#45;&gt;Node27 -->
<g id="edge48" class="edge">
<title>Node29&#45;&gt;Node27</title>
<path fill="none" stroke="midnightblue" d="M650.3,-314C634.97,-314 617.19,-314 603.21,-314"/>
<polygon fill="midnightblue" stroke="midnightblue" points="650.44,-317.5 660.44,-314 650.44,-310.5 650.44,-317.5"/>
</g>
<!-- Node30&#45;&gt;Node12 -->
<g id="edge51" class="edge">
<title>Node30&#45;&gt;Node12</title>
<path fill="none" stroke="midnightblue" d="M547.86,-1097.95C544.52,-1096.3 541.18,-1094.63 538,-1093 519.57,-1083.59 498.72,-1072.36 484.41,-1064.56"/>
<polygon fill="midnightblue" stroke="midnightblue" points="546.57,-1101.22 557.09,-1102.48 549.65,-1094.93 546.57,-1101.22"/>
</g>
<!-- Node31&#45;&gt;Node25 -->
<g id="edge53" class="edge">
<title>Node31&#45;&gt;Node25</title>
<path fill="none" stroke="midnightblue" d="M651.41,-124C640.84,-124 629.01,-124 618.02,-124"/>
<polygon fill="midnightblue" stroke="midnightblue" points="651.47,-127.5 661.47,-124 651.47,-120.5 651.47,-127.5"/>
</g>
<!-- Node32&#45;&gt;Node6 -->
<g id="edge55" class="edge">
<title>Node32&#45;&gt;Node6</title>
<path fill="none" stroke="midnightblue" d="M651.32,-245.12C609.01,-253.71 532.87,-267 467,-267 467,-267 467,-267 368.5,-267 310.65,-267 286.51,-265.75 244,-305 200.64,-345.03 188.13,-420.36 184.96,-447.19"/>
<polygon fill="midnightblue" stroke="midnightblue" points="652.24,-248.51 661.33,-243.05 650.82,-241.65 652.24,-248.51"/>
</g>
<!-- Node32&#45;&gt;Node25 -->
<g id="edge56" class="edge">
<title>Node32&#45;&gt;Node25</title>
<path fill="none" stroke="midnightblue" d="M668.21,-220.85C645.85,-196.58 605.73,-153.02 587.93,-133.69"/>
<polygon fill="midnightblue" stroke="midnightblue" points="665.7,-223.3 675.05,-228.28 670.85,-218.55 665.7,-223.3"/>
</g>
<!-- Node33&#45;&gt;Node7 -->
<g id="edge58" class="edge">
<title>Node33&#45;&gt;Node7</title>
<path fill="none" stroke="midnightblue" d="M337.73,-57.56C293.11,-58.53 210.1,-66.6 158,-110 121.46,-140.44 107.97,-199.95 103.95,-223.28"/>
<polygon fill="midnightblue" stroke="midnightblue" points="337.99,-61.06 347.95,-57.45 337.91,-54.06 337.99,-61.06"/>
</g>
<!-- Node34&#45;&gt;Node4 -->
<g id="edge60" class="edge">
<title>Node34&#45;&gt;Node4</title>
<path fill="none" stroke="midnightblue" d="M433.97,-754.58C432.57,-753.45 431.23,-752.25 430,-751 398.84,-719.33 380.17,-668.01 373.4,-646.73"/>
<polygon fill="midnightblue" stroke="midnightblue" points="432.28,-757.66 442.52,-760.38 436.21,-751.87 432.28,-757.66"/>
</g>
<!-- Node35&#45;&gt;Node34 -->
<g id="edge62" class="edge">
<title>Node35&#45;&gt;Node34</title>
<path fill="none" stroke="midnightblue" d="M544.96,-743.07C527.49,-749.1 506.26,-756.44 490.37,-761.93"/>
<polygon fill="midnightblue" stroke="midnightblue" points="546.43,-746.26 554.74,-739.69 544.15,-739.65 546.43,-746.26"/>
</g>
<!-- Node36 -->
<g id="node36" class="node">
<title>Node36</title>
<g id="a_node36"><a xlink:href="../../d3/d96/residue__con_8f90.html#a8b2d4eb1bd167c336b39b899858e7bfb" target="_top" xlink:title="Compute invariant residuals.">
<polygon fill="white" stroke="black" points="431.5,-722.5 431.5,-741.5 500.5,-741.5 500.5,-722.5 431.5,-722.5"/>
<text text-anchor="middle" x="466" y="-729.5" font-family="Helvetica,sans-Serif" font-size="10.00">residue_con</text>
</a>
</g>
</g>
<!-- Node35&#45;&gt;Node36 -->
<g id="edge63" class="edge">
<title>Node35&#45;&gt;Node36</title>
<path fill="none" stroke="midnightblue" d="M544.65,-732C530.75,-732 514.53,-732 500.51,-732"/>
<polygon fill="midnightblue" stroke="midnightblue" points="544.74,-735.5 554.74,-732 544.74,-728.5 544.74,-735.5"/>
</g>
<!-- Node37 -->
<g id="node37" class="node">
<title>Node37</title>
<g id="a_node37"><a xlink:href="../../d5/d62/residue__mhd_8f90.html#a3ed729a2f8c8d70e4d2fef05c9dfc4c8" target="_top" xlink:title="Compute invariant residuals.">
<polygon fill="white" stroke="black" points="430,-684.5 430,-703.5 502,-703.5 502,-684.5 430,-684.5"/>
<text text-anchor="middle" x="466" y="-691.5" font-family="Helvetica,sans-Serif" font-size="10.00">residue_mhd</text>
</a>
</g>
</g>
<!-- Node35&#45;&gt;Node37 -->
<g id="edge65" class="edge">
<title>Node35&#45;&gt;Node37</title>
<path fill="none" stroke="midnightblue" d="M545.26,-721.04C529.28,-715.51 510.08,-708.88 494.7,-703.57"/>
<polygon fill="midnightblue" stroke="midnightblue" points="544.15,-724.35 554.74,-724.31 546.43,-717.74 544.15,-724.35"/>
</g>
<!-- Node36&#45;&gt;Node4 -->
<g id="edge64" class="edge">
<title>Node36&#45;&gt;Node4</title>
<path fill="none" stroke="midnightblue" d="M435.47,-717.16C433.56,-715.84 431.72,-714.45 430,-713 406.46,-693.09 386.02,-662.54 376.39,-646.93"/>
<polygon fill="midnightblue" stroke="midnightblue" points="433.76,-720.21 444.11,-722.47 437.42,-714.25 433.76,-720.21"/>
</g>
<!-- Node37&#45;&gt;Node4 -->
<g id="edge66" class="edge">
<title>Node37&#45;&gt;Node4</title>
<path fill="none" stroke="midnightblue" d="M437.8,-679.48C435.15,-677.99 432.51,-676.48 430,-675 414.37,-665.79 396.93,-654.52 384.99,-646.66"/>
<polygon fill="midnightblue" stroke="midnightblue" points="436.25,-682.62 446.7,-684.38 439.63,-676.49 436.25,-682.62"/>
</g>
<!-- Node38&#45;&gt;Node12 -->
<g id="edge69" class="edge">
<title>Node38&#45;&gt;Node12</title>
<path fill="none" stroke="midnightblue" d="M543.49,-1068.21C526.8,-1065.33 506.98,-1061.91 491.7,-1059.27"/>
<polygon fill="midnightblue" stroke="midnightblue" points="542.95,-1071.67 553.4,-1069.92 544.14,-1064.77 542.95,-1071.67"/>
</g>
<!-- Node39&#45;&gt;Node4 -->
<g id="edge71" class="edge">
<title>Node39&#45;&gt;Node4</title>
<path fill="none" stroke="midnightblue" d="M427.79,-648.52C416.42,-646.23 404.25,-643.78 394.05,-641.74"/>
<polygon fill="midnightblue" stroke="midnightblue" points="427.43,-652.02 437.92,-650.56 428.81,-645.15 427.43,-652.02"/>
</g>
<!-- Node40&#45;&gt;Node4 -->
<g id="edge73" class="edge">
<title>Node40&#45;&gt;Node4</title>
<path fill="none" stroke="midnightblue" d="M429.02,-625.23C417.37,-627.58 404.75,-630.11 394.22,-632.23"/>
<polygon fill="midnightblue" stroke="midnightblue" points="429.81,-628.64 438.93,-623.24 428.43,-621.78 429.81,-628.64"/>
</g>
<!-- Node41&#45;&gt;Node4 -->
<g id="edge75" class="edge">
<title>Node41&#45;&gt;Node4</title>
<path fill="none" stroke="midnightblue" d="M540.9,-488.65C508.89,-496.91 462.33,-512.71 430,-540 400.56,-564.85 381.45,-608.12 374.01,-627.34"/>
<polygon fill="midnightblue" stroke="midnightblue" points="541.88,-492.01 550.75,-486.23 540.2,-485.22 541.88,-492.01"/>
</g>
</g>
</svg>
