<?xml version="1.0" encoding="UTF-8" standalone="no"?>
<!DOCTYPE svg PUBLIC "-//W3C//DTD SVG 1.1//EN"
 "http://www.w3.org/Graphics/SVG/1.1/DTD/svg11.dtd">
<!-- Generated by graphviz version 2.49.3 (20211027.1501)
 -->
<!-- Title: dbgout::open_dbg_context Pages: 1 -->
<svg width="777pt" height="871pt"
 viewBox="0.00 0.00 777.00 871.02" xmlns="http://www.w3.org/2000/svg" xmlns:xlink="http://www.w3.org/1999/xlink">
<g id="graph0" class="graph" transform="scale(1 1) rotate(0) translate(4 867.02)">
<title>dbgout::open_dbg_context</title>
<polygon fill="white" stroke="transparent" points="-4,4 -4,-867.02 773,-867.02 773,4 -4,4"/>
<!-- Node1 -->
<g id="node1" class="node">
<title>Node1</title>
<g id="a_node1"><a xlink:title="check if any output is desired for the current iteration check if the given context should be openend...">
<polygon fill="#bfbfbf" stroke="black" points="640,-433.86 640,-452.86 769,-452.86 769,-433.86 640,-433.86"/>
<text text-anchor="middle" x="704.5" y="-440.86" font-family="Helvetica,sans-Serif" font-size="10.00">dbgout::open_dbg_context</text>
</a>
</g>
</g>
<!-- Node1&#45;&gt;Node1 -->
<g id="edge30" class="edge">
<title>Node1&#45;&gt;Node1</title>
<path fill="none" stroke="midnightblue" d="M728.68,-462.39C727.36,-467.48 719.3,-471.36 704.5,-471.36 681.39,-471.36 674.72,-461.92 684.46,-453.11"/>
<polygon fill="midnightblue" stroke="midnightblue" points="731.81,-460.82 724.54,-453.11 725.42,-463.67 731.81,-460.82"/>
</g>
<!-- Node2 -->
<g id="node2" class="node">
<title>Node2</title>
<g id="a_node2"><a xlink:href="../../d8/d7d/add__fluxes_8f90.html#a988e7013ef02301b9cfbde5b8068d5af" target="_top" xlink:title="Add the magnetic fluxes to the tangential derivatives of &#160;to arrive at the contravariant magnetic fie...">
<polygon fill="white" stroke="black" points="542,-433.86 542,-452.86 604,-452.86 604,-433.86 542,-433.86"/>
<text text-anchor="middle" x="573" y="-440.86" font-family="Helvetica,sans-Serif" font-size="10.00">add_fluxes</text>
</a>
</g>
</g>
<!-- Node1&#45;&gt;Node2 -->
<g id="edge1" class="edge">
<title>Node1&#45;&gt;Node2</title>
<path fill="none" stroke="midnightblue" d="M629.73,-443.36C620.79,-443.36 612.09,-443.36 604.32,-443.36"/>
<polygon fill="midnightblue" stroke="midnightblue" points="629.89,-446.86 639.89,-443.36 629.89,-439.86 629.89,-446.86"/>
</g>
<!-- Node3 -->
<g id="node3" class="node">
<title>Node3</title>
<g id="a_node3"><a xlink:href="../../d7/d61/bcovar_8f90.html#a1e1624195f0c0c7daa9f49d83bae5ce8" target="_top" xlink:title="Compute the covariant components of the magnetic field , .">
<polygon fill="white" stroke="black" points="443,-433.86 443,-452.86 489,-452.86 489,-433.86 443,-433.86"/>
<text text-anchor="middle" x="466" y="-440.86" font-family="Helvetica,sans-Serif" font-size="10.00">bcovar</text>
</a>
</g>
</g>
<!-- Node1&#45;&gt;Node3 -->
<g id="edge10" class="edge">
<title>Node1&#45;&gt;Node3</title>
<path fill="none" stroke="midnightblue" d="M655.92,-455C623.75,-461.39 580.3,-467.13 542,-462.36 523.87,-460.1 503.84,-454.88 489.04,-450.48"/>
<polygon fill="midnightblue" stroke="midnightblue" points="656.88,-458.38 665.95,-452.92 655.45,-451.52 656.88,-458.38"/>
</g>
<!-- Node4 -->
<g id="node4" class="node">
<title>Node4</title>
<g id="a_node4"><a xlink:href="../../d3/d4f/funct3d_8f90.html#a800bacc22176e16323899df87b55c547" target="_top" xlink:title="Evaluate the three&#45;dimensional MHD energy functional. Think of this as the &quot;forward model&quot; that tells...">
<polygon fill="white" stroke="black" points="333,-585.86 333,-604.86 382,-604.86 382,-585.86 333,-585.86"/>
<text text-anchor="middle" x="357.5" y="-592.86" font-family="Helvetica,sans-Serif" font-size="10.00">funct3d</text>
</a>
</g>
</g>
<!-- Node1&#45;&gt;Node4 -->
<g id="edge20" class="edge">
<title>Node1&#45;&gt;Node4</title>
<path fill="none" stroke="midnightblue" d="M691.51,-461.28C674.97,-484.21 642.75,-522.83 604,-538.36 530.57,-567.78 500.3,-511.18 426,-538.36 400.07,-547.84 377.23,-572.17 365.96,-585.78"/>
<polygon fill="midnightblue" stroke="midnightblue" points="694.39,-463.27 697.25,-453.07 688.66,-459.26 694.39,-463.27"/>
</g>
<!-- Node5 -->
<g id="node5" class="node">
<title>Node5</title>
<g id="a_node5"><a xlink:href="../../de/da9/evolve_8f90.html#a8103e838be03904e03551e04f6b396e4" target="_top" xlink:title="Take a single time step in Fourier space to evolve the Fourier coefficients describing the equilibriu...">
<polygon fill="white" stroke="black" points="244,-243.86 244,-262.86 289,-262.86 289,-243.86 244,-243.86"/>
<text text-anchor="middle" x="266.5" y="-250.86" font-family="Helvetica,sans-Serif" font-size="10.00">evolve</text>
</a>
</g>
</g>
<!-- Node1&#45;&gt;Node5 -->
<g id="edge15" class="edge">
<title>Node1&#45;&gt;Node5</title>
<path fill="none" stroke="midnightblue" d="M698.66,-423.7C688.38,-386.63 660.52,-307.02 604,-272.36 551.13,-239.93 355.06,-248.18 289.22,-251.97"/>
<polygon fill="midnightblue" stroke="midnightblue" points="695.37,-424.96 701.3,-433.74 702.14,-423.18 695.37,-424.96"/>
</g>
<!-- Node7 -->
<g id="node7" class="node">
<title>Node7</title>
<g id="a_node7"><a xlink:href="../../db/d61/vmec_8f90.html#a6d38ab7be2f9d818da4541e1d352ea23" target="_top" xlink:title="Main driver for VMEC.">
<polygon fill="white" stroke="black" points="81,-148.86 81,-167.86 122,-167.86 122,-148.86 81,-148.86"/>
<text text-anchor="middle" x="101.5" y="-155.86" font-family="Helvetica,sans-Serif" font-size="10.00">vmec</text>
</a>
</g>
</g>
<!-- Node1&#45;&gt;Node7 -->
<g id="edge59" class="edge">
<title>Node1&#45;&gt;Node7</title>
<path fill="none" stroke="midnightblue" d="M701.06,-463.45C691.98,-535.13 657.8,-776.78 604,-829.36 559.28,-873.06 529.53,-861.36 467,-861.36 467,-861.36 467,-861.36 265.5,-861.36 116.25,-861.36 103.62,-252.46 102.59,-168.03"/>
<polygon fill="midnightblue" stroke="midnightblue" points="704.59,-463.48 702.35,-453.12 697.64,-462.62 704.59,-463.48"/>
</g>
<!-- Node10 -->
<g id="node10" class="node">
<title>Node10</title>
<g id="a_node10"><a xlink:href="../../d9/dff/calc__fbal_8f90.html#a6cdc3d21c48f66aeaff8ab5e639641b6" target="_top" xlink:title="Compute flux&#45;surface averaged radial force balance .">
<polygon fill="white" stroke="black" points="545,-509.86 545,-528.86 601,-528.86 601,-509.86 545,-509.86"/>
<text text-anchor="middle" x="573" y="-516.86" font-family="Helvetica,sans-Serif" font-size="10.00">calc_fbal</text>
</a>
</g>
</g>
<!-- Node1&#45;&gt;Node10 -->
<g id="edge11" class="edge">
<title>Node1&#45;&gt;Node10</title>
<path fill="none" stroke="midnightblue" d="M678.19,-458.21C652.15,-473.49 612.38,-496.83 590.27,-509.81"/>
<polygon fill="midnightblue" stroke="midnightblue" points="680.25,-461.06 687.1,-452.98 676.7,-455.03 680.25,-461.06"/>
</g>
<!-- Node12 -->
<g id="node12" class="node">
<title>Node12</title>
<g id="a_node12"><a xlink:href="../../d4/dd1/fixaray_8f90.html#aca9a4c886a9423b95e8a9336071de2e3" target="_top" xlink:title="allocate and fill some fixed&#45;size arrays (only depending on Fourier resolution).">
<polygon fill="white" stroke="black" points="161,-129.86 161,-148.86 205,-148.86 205,-129.86 161,-129.86"/>
<text text-anchor="middle" x="183" y="-136.86" font-family="Helvetica,sans-Serif" font-size="10.00">fixaray</text>
</a>
</g>
</g>
<!-- Node1&#45;&gt;Node12 -->
<g id="edge16" class="edge">
<title>Node1&#45;&gt;Node12</title>
<path fill="none" stroke="midnightblue" d="M703.18,-423.48C701.16,-370.81 687.86,-227.06 604,-158.36 556.45,-119.4 528.47,-139.36 467,-139.36 467,-139.36 467,-139.36 356.5,-139.36 301.99,-139.36 237.8,-139.36 205.25,-139.36"/>
<polygon fill="midnightblue" stroke="midnightblue" points="699.69,-423.89 703.47,-433.79 706.69,-423.7 699.69,-423.89"/>
</g>
<!-- Node13 -->
<g id="node13" class="node">
<title>Node13</title>
<g id="a_node13"><a xlink:href="../../de/d0c/forces_8f90.html#a7b4708aaec3cc94526474c16bc3a16f0" target="_top" xlink:title="Compute the real&#45;space MHD forces.">
<polygon fill="white" stroke="black" points="551,-775.86 551,-794.86 595,-794.86 595,-775.86 551,-775.86"/>
<text text-anchor="middle" x="573" y="-782.86" font-family="Helvetica,sans-Serif" font-size="10.00">forces</text>
</a>
</g>
</g>
<!-- Node1&#45;&gt;Node13 -->
<g id="edge18" class="edge">
<title>Node1&#45;&gt;Node13</title>
<path fill="none" stroke="midnightblue" d="M701.37,-463.12C694.89,-515.85 671.52,-662.59 604,-761.36 600.16,-766.97 594.62,-771.92 589.34,-775.85"/>
<polygon fill="midnightblue" stroke="midnightblue" points="704.86,-463.42 702.54,-453.08 697.91,-462.61 704.86,-463.42"/>
</g>
<!-- Node14 -->
<g id="node14" class="node">
<title>Node14</title>
<g id="a_node14"><a xlink:href="../../d5/dfd/guess__axis_8f90.html#a375e34fe4656d4c51d5013939bf5617e" target="_top" xlink:title="Computes guess for magnetic axis if user guess leads to initial sign change of Jacobian.">
<polygon fill="white" stroke="black" points="325,-205.86 325,-224.86 390,-224.86 390,-205.86 325,-205.86"/>
<text text-anchor="middle" x="357.5" y="-212.86" font-family="Helvetica,sans-Serif" font-size="10.00">guess_axis</text>
</a>
</g>
</g>
<!-- Node1&#45;&gt;Node14 -->
<g id="edge21" class="edge">
<title>Node1&#45;&gt;Node14</title>
<path fill="none" stroke="midnightblue" d="M700.34,-423.45C692.52,-381.42 668.03,-283.84 604,-239.36 539.11,-194.27 440.24,-201.71 390.07,-209.38"/>
<polygon fill="midnightblue" stroke="midnightblue" points="696.93,-424.27 702.09,-433.53 703.83,-423.08 696.93,-424.27"/>
</g>
<!-- Node15 -->
<g id="node15" class="node">
<title>Node15</title>
<g id="a_node15"><a xlink:href="../../dc/df5/interp_8f90.html#a5bac7725cb89730c4bd187e158dc36ee" target="_top" xlink:title="Interpolate , &#160;and &#160;on full grid.">
<polygon fill="white" stroke="black" points="552.5,-53.86 552.5,-72.86 593.5,-72.86 593.5,-53.86 552.5,-53.86"/>
<text text-anchor="middle" x="573" y="-60.86" font-family="Helvetica,sans-Serif" font-size="10.00">interp</text>
</a>
</g>
</g>
<!-- Node1&#45;&gt;Node15 -->
<g id="edge23" class="edge">
<title>Node1&#45;&gt;Node15</title>
<path fill="none" stroke="midnightblue" d="M702.91,-423.59C700.23,-365.47 685.45,-192.3 604,-82.36 601.21,-78.59 597.43,-75.39 593.5,-72.74"/>
<polygon fill="midnightblue" stroke="midnightblue" points="699.41,-423.78 703.3,-433.63 706.41,-423.5 699.41,-423.78"/>
</g>
<!-- Node17 -->
<g id="node17" class="node">
<title>Node17</title>
<g id="a_node17"><a xlink:href="../../d8/dc3/jacobian_8f90.html#af346f65d2aa225d9ede6e0f23add6142" target="_top" xlink:title="Evaulate the Jacobian of the transform from flux&#45; to cylindrical coordinates.">
<polygon fill="white" stroke="black" points="439.5,-737.86 439.5,-756.86 492.5,-756.86 492.5,-737.86 439.5,-737.86"/>
<text text-anchor="middle" x="466" y="-744.86" font-family="Helvetica,sans-Serif" font-size="10.00">jacobian</text>
</a>
</g>
</g>
<!-- Node1&#45;&gt;Node17 -->
<g id="edge26" class="edge">
<title>Node1&#45;&gt;Node17</title>
<path fill="none" stroke="midnightblue" d="M702.42,-463.28C698.56,-513.67 681.18,-647.01 604,-715.36 573.01,-742.8 523,-747.93 492.74,-748.27"/>
<polygon fill="midnightblue" stroke="midnightblue" points="705.92,-463.3 703.09,-453.09 698.94,-462.83 705.92,-463.3"/>
</g>
<!-- Node18 -->
<g id="node18" class="node">
<title>Node18</title>
<g id="a_node18"><a xlink:href="../../d4/d51/lamcal_8f90.html#aae66bdcec0bbb969704413d933148096" target="_top" xlink:title="Normalization parameters for .">
<polygon fill="white" stroke="black" points="550.5,-395.86 550.5,-414.86 595.5,-414.86 595.5,-395.86 550.5,-395.86"/>
<text text-anchor="middle" x="573" y="-402.86" font-family="Helvetica,sans-Serif" font-size="10.00">lamcal</text>
</a>
</g>
</g>
<!-- Node1&#45;&gt;Node18 -->
<g id="edge28" class="edge">
<title>Node1&#45;&gt;Node18</title>
<path fill="none" stroke="midnightblue" d="M661.09,-430.91C639.22,-424.5 613.48,-416.94 595.68,-411.72"/>
<polygon fill="midnightblue" stroke="midnightblue" points="660.24,-434.31 670.82,-433.77 662.21,-427.59 660.24,-434.31"/>
</g>
<!-- Node19 -->
<g id="node19" class="node">
<title>Node19</title>
<g id="a_node19"><a xlink:href="../../dd/d98/precal_8f90.html#a0dae73e848a4757092d7e9786d073d3d" target="_top" xlink:title="Pre&#45;compute constant terms required for NESTOR.">
<polygon fill="white" stroke="black" points="551.5,-319.86 551.5,-338.86 594.5,-338.86 594.5,-319.86 551.5,-319.86"/>
<text text-anchor="middle" x="573" y="-326.86" font-family="Helvetica,sans-Serif" font-size="10.00">precal</text>
</a>
</g>
</g>
<!-- Node1&#45;&gt;Node19 -->
<g id="edge31" class="edge">
<title>Node1&#45;&gt;Node19</title>
<path fill="none" stroke="midnightblue" d="M685.9,-426.84C666.24,-408.54 633.31,-378.3 604,-353.36 598.31,-348.52 591.86,-343.32 586.4,-339"/>
<polygon fill="midnightblue" stroke="midnightblue" points="683.53,-429.42 693.23,-433.69 688.31,-424.3 683.53,-429.42"/>
</g>
<!-- Node20 -->
<g id="node20" class="node">
<title>Node20</title>
<g id="a_node20"><a xlink:href="../../dd/d6d/vacuum_8f90.html#a0acbc18d2ab7664835d797b42ce49a35" target="_top" xlink:title="Compute the vacuum contribution to the free&#45;boundary energy functional.">
<polygon fill="white" stroke="black" points="440.5,-338.86 440.5,-357.86 491.5,-357.86 491.5,-338.86 440.5,-338.86"/>
<text text-anchor="middle" x="466" y="-345.86" font-family="Helvetica,sans-Serif" font-size="10.00">vacuum</text>
</a>
</g>
</g>
<!-- Node1&#45;&gt;Node20 -->
<g id="edge58" class="edge">
<title>Node1&#45;&gt;Node20</title>
<path fill="none" stroke="midnightblue" d="M680.71,-428.1C661.06,-415.5 631.6,-397.88 604,-386.36 566.07,-370.53 519.53,-359.21 491.62,-353.24"/>
<polygon fill="midnightblue" stroke="midnightblue" points="678.96,-431.14 689.25,-433.67 682.78,-425.28 678.96,-431.14"/>
</g>
<!-- Node22 -->
<g id="node22" class="node">
<title>Node22</title>
<g id="a_node22"><a xlink:href="../../d7/d61/profil1d_8f90.html#a2bc38da2d3b36d16295159df2f8573e2" target="_top" xlink:title="Compute phip and iota profiles on full grid.">
<polygon fill="white" stroke="black" points="549.5,-91.86 549.5,-110.86 596.5,-110.86 596.5,-91.86 549.5,-91.86"/>
<text text-anchor="middle" x="573" y="-98.86" font-family="Helvetica,sans-Serif" font-size="10.00">profil1d</text>
</a>
</g>
</g>
<!-- Node1&#45;&gt;Node22 -->
<g id="edge35" class="edge">
<title>Node1&#45;&gt;Node22</title>
<path fill="none" stroke="midnightblue" d="M701.37,-423.6C694.89,-370.87 671.52,-224.13 604,-125.36 600.16,-119.74 594.62,-114.79 589.34,-110.87"/>
<polygon fill="midnightblue" stroke="midnightblue" points="697.91,-424.1 702.54,-433.63 704.86,-423.29 697.91,-424.1"/>
</g>
<!-- Node23 -->
<g id="node23" class="node">
<title>Node23</title>
<g id="a_node23"><a xlink:href="../../dd/d75/profil3d_8f90.html#a67d2774ceac255f1e1f75e54f4679e9c" target="_top" xlink:title="Compute three&#45;dimensional profiles of flux&#45;surface geometry etc.">
<polygon fill="white" stroke="black" points="549.5,-167.86 549.5,-186.86 596.5,-186.86 596.5,-167.86 549.5,-167.86"/>
<text text-anchor="middle" x="573" y="-174.86" font-family="Helvetica,sans-Serif" font-size="10.00">profil3d</text>
</a>
</g>
</g>
<!-- Node1&#45;&gt;Node23 -->
<g id="edge37" class="edge">
<title>Node1&#45;&gt;Node23</title>
<path fill="none" stroke="midnightblue" d="M699.06,-423.88C688.45,-380.47 658.38,-273.93 604,-201.36 599.92,-195.91 594.33,-191 589.08,-187.05"/>
<polygon fill="midnightblue" stroke="midnightblue" points="695.68,-424.79 701.39,-433.71 702.49,-423.17 695.68,-424.79"/>
</g>
<!-- Node24 -->
<g id="node24" class="node">
<title>Node24</title>
<g id="a_node24"><a xlink:href="../../d8/da3/readin_8f90.html#a60f2bfd8fc6f7c3e027a8f91ef0c7b25" target="_top" xlink:title="Read the input file.">
<polygon fill="white" stroke="black" points="245,-25.86 245,-44.86 288,-44.86 288,-25.86 245,-25.86"/>
<text text-anchor="middle" x="266.5" y="-32.86" font-family="Helvetica,sans-Serif" font-size="10.00">readin</text>
</a>
</g>
</g>
<!-- Node1&#45;&gt;Node24 -->
<g id="edge40" class="edge">
<title>Node1&#45;&gt;Node24</title>
<path fill="none" stroke="midnightblue" d="M701.66,-423.62C694.38,-350.02 664.9,-93.26 604,-44.36 508.99,31.94 345.53,-10.08 288.14,-28.29"/>
<polygon fill="midnightblue" stroke="midnightblue" points="698.2,-424.18 702.64,-433.8 705.17,-423.51 698.2,-424.18"/>
</g>
<!-- Node25 -->
<g id="node25" class="node">
<title>Node25</title>
<g id="a_node25"><a xlink:href="../../db/d5a/residue_8f90.html#a2390b3cf93196383bbe960acb85b3e32" target="_top" xlink:title="Compute invariant residuals.">
<polygon fill="white" stroke="black" points="442,-699.86 442,-718.86 490,-718.86 490,-699.86 442,-699.86"/>
<text text-anchor="middle" x="466" y="-706.86" font-family="Helvetica,sans-Serif" font-size="10.00">residue</text>
</a>
</g>
</g>
<!-- Node1&#45;&gt;Node25 -->
<g id="edge42" class="edge">
<title>Node1&#45;&gt;Node25</title>
<path fill="none" stroke="midnightblue" d="M702,-463.14C697.24,-510.84 678.06,-632.54 604,-690.36 571.07,-716.07 519.61,-715.61 490.03,-712.67"/>
<polygon fill="midnightblue" stroke="midnightblue" points="705.51,-463.19 702.91,-452.92 698.54,-462.58 705.51,-463.19"/>
</g>
<!-- Node26 -->
<g id="node26" class="node">
<title>Node26</title>
<g id="a_node26"><a xlink:href="../../d8/d86/scalfor_8f90.html#a2ef9c34d20ddf30cb7b15fe35066b8ca" target="_top" xlink:title="Build forces from different contributions.">
<polygon fill="white" stroke="black" points="550,-661.86 550,-680.86 596,-680.86 596,-661.86 550,-661.86"/>
<text text-anchor="middle" x="573" y="-668.86" font-family="Helvetica,sans-Serif" font-size="10.00">scalfor</text>
</a>
</g>
</g>
<!-- Node1&#45;&gt;Node26 -->
<g id="edge44" class="edge">
<title>Node1&#45;&gt;Node26</title>
<path fill="none" stroke="midnightblue" d="M697.2,-463.04C684.23,-501.42 651.73,-587.71 604,-647.36 599.67,-652.77 593.9,-657.75 588.59,-661.75"/>
<polygon fill="midnightblue" stroke="midnightblue" points="700.65,-463.74 700.46,-453.14 694,-461.54 700.65,-463.74"/>
</g>
<!-- Node29 -->
<g id="node29" class="node">
<title>Node29</title>
<g id="a_node29"><a xlink:href="../../d6/d03/surface_8f90.html#ad7b6446e720a806f41f10dd1eb0b6f88" target="_top" xlink:title="Evaluate the geometry of the LCFS and tangential derivatives.">
<polygon fill="white" stroke="black" points="548.5,-281.86 548.5,-300.86 597.5,-300.86 597.5,-281.86 548.5,-281.86"/>
<text text-anchor="middle" x="573" y="-288.86" font-family="Helvetica,sans-Serif" font-size="10.00">surface</text>
</a>
</g>
</g>
<!-- Node1&#45;&gt;Node29 -->
<g id="edge50" class="edge">
<title>Node1&#45;&gt;Node29</title>
<path fill="none" stroke="midnightblue" d="M692.69,-424.83C676.11,-397.5 642.27,-345.76 604,-310.36 600.29,-306.92 595.88,-303.74 591.59,-301"/>
<polygon fill="midnightblue" stroke="midnightblue" points="689.87,-426.93 698,-433.73 695.88,-423.35 689.87,-426.93"/>
</g>
<!-- Node30 -->
<g id="node30" class="node">
<title>Node30</title>
<g id="a_node30"><a xlink:href="../../d4/df3/symforce_8f90.html#a169610bcc5544fc8e16ad1e10ac85dcb" target="_top" xlink:title="Symmetrize forces on restricted &#160;interval &#160;so cos, sin integrals can be performed.">
<polygon fill="white" stroke="black" points="438,-585.86 438,-604.86 494,-604.86 494,-585.86 438,-585.86"/>
<text text-anchor="middle" x="466" y="-592.86" font-family="Helvetica,sans-Serif" font-size="10.00">symforce</text>
</a>
</g>
</g>
<!-- Node1&#45;&gt;Node30 -->
<g id="edge52" class="edge">
<title>Node1&#45;&gt;Node30</title>
<path fill="none" stroke="midnightblue" d="M696.79,-462.97C684.35,-495.87 654.32,-561.33 604,-589.36 569.89,-608.36 523.26,-605.47 494.15,-600.95"/>
<polygon fill="midnightblue" stroke="midnightblue" points="700.22,-463.75 700.33,-453.16 693.64,-461.37 700.22,-463.75"/>
</g>
<!-- Node31 -->
<g id="node31" class="node">
<title>Node31</title>
<g id="a_node31"><a xlink:href="../../d0/d6f/tomnsp_8f90.html#a6c7345c0aa0f13f311650d9633e6ecf8" target="_top" xlink:title="Fourier&#45;transform anti&#45;symmetric forces from real space to Fourier space.">
<polygon fill="white" stroke="black" points="439,-547.86 439,-566.86 493,-566.86 493,-547.86 439,-547.86"/>
<text text-anchor="middle" x="466" y="-554.86" font-family="Helvetica,sans-Serif" font-size="10.00">tomnspa</text>
</a>
</g>
</g>
<!-- Node1&#45;&gt;Node31 -->
<g id="edge54" class="edge">
<title>Node1&#45;&gt;Node31</title>
<path fill="none" stroke="midnightblue" d="M695.42,-462.5C681.66,-492.26 650.59,-548.56 604,-571.36 567.28,-589.32 518.49,-577.04 490.14,-566.9"/>
<polygon fill="midnightblue" stroke="midnightblue" points="698.7,-463.74 699.56,-453.18 692.3,-460.9 698.7,-463.74"/>
</g>
<!-- Node32 -->
<g id="node32" class="node">
<title>Node32</title>
<g id="a_node32"><a xlink:href="../../d0/d6f/tomnsp_8f90.html#aec4b11e4f55e18c6bfc0348c263e31db" target="_top" xlink:title="Fourier&#45;transform symmetric forces from real space to Fourier space.">
<polygon fill="white" stroke="black" points="439,-813.86 439,-832.86 493,-832.86 493,-813.86 439,-813.86"/>
<text text-anchor="middle" x="466" y="-820.86" font-family="Helvetica,sans-Serif" font-size="10.00">tomnsps</text>
</a>
</g>
</g>
<!-- Node1&#45;&gt;Node32 -->
<g id="edge56" class="edge">
<title>Node1&#45;&gt;Node32</title>
<path fill="none" stroke="midnightblue" d="M700.9,-463.2C691.49,-531.9 656.91,-757.97 604,-804.36 573.49,-831.11 523.55,-830.82 493.14,-827.53"/>
<polygon fill="midnightblue" stroke="midnightblue" points="704.42,-463.3 702.28,-452.92 697.48,-462.36 704.42,-463.3"/>
</g>
<!-- Node2&#45;&gt;Node3 -->
<g id="edge2" class="edge">
<title>Node2&#45;&gt;Node3</title>
<path fill="none" stroke="midnightblue" d="M531.67,-443.36C517.2,-443.36 501.43,-443.36 489.08,-443.36"/>
<polygon fill="midnightblue" stroke="midnightblue" points="531.91,-446.86 541.91,-443.36 531.91,-439.86 531.91,-446.86"/>
</g>
<!-- Node3&#45;&gt;Node4 -->
<g id="edge3" class="edge">
<title>Node3&#45;&gt;Node4</title>
<path fill="none" stroke="midnightblue" d="M452.37,-461.39C429.63,-493.84 382.56,-561.01 365.16,-585.85"/>
<polygon fill="midnightblue" stroke="midnightblue" points="455.47,-463.06 458.34,-452.87 449.73,-459.05 455.47,-463.06"/>
</g>
<!-- Node4&#45;&gt;Node5 -->
<g id="edge4" class="edge">
<title>Node4&#45;&gt;Node5</title>
<path fill="none" stroke="midnightblue" d="M349.55,-576.13C342.79,-557.05 332.47,-526.91 325,-500.36 299.23,-408.81 276.01,-295.91 269.39,-262.86"/>
<polygon fill="midnightblue" stroke="midnightblue" points="346.32,-577.5 352.99,-585.74 352.91,-575.14 346.32,-577.5"/>
</g>
<!-- Node9 -->
<g id="node9" class="node">
<title>Node9</title>
<g id="a_node9"><a xlink:href="../../d0/d71/fileout_8f90.html#a7228e984aaf2c38bd772e3d846fab7af" target="_top" xlink:title="Write the output files.">
<polygon fill="white" stroke="black" points="245.5,-471.86 245.5,-490.86 287.5,-490.86 287.5,-471.86 245.5,-471.86"/>
<text text-anchor="middle" x="266.5" y="-478.86" font-family="Helvetica,sans-Serif" font-size="10.00">fileout</text>
</a>
</g>
</g>
<!-- Node4&#45;&gt;Node9 -->
<g id="edge8" class="edge">
<title>Node4&#45;&gt;Node9</title>
<path fill="none" stroke="midnightblue" d="M342.62,-577.57C323.58,-553.19 290.03,-510.21 275.07,-491.05"/>
<polygon fill="midnightblue" stroke="midnightblue" points="340,-579.91 348.91,-585.64 345.52,-575.6 340,-579.91"/>
</g>
<!-- Node6 -->
<g id="node6" class="node">
<title>Node6</title>
<g id="a_node6"><a xlink:href="../../d7/d46/eqsolve_8f90.html#ab740b09d1b651e2ab8a60c5d552df0c2" target="_top" xlink:title="Iteratively evolve the Fourier coefficients that specify the equilibrium.">
<polygon fill="white" stroke="black" points="158,-186.86 158,-205.86 208,-205.86 208,-186.86 158,-186.86"/>
<text text-anchor="middle" x="183" y="-193.86" font-family="Helvetica,sans-Serif" font-size="10.00">eqsolve</text>
</a>
</g>
</g>
<!-- Node5&#45;&gt;Node6 -->
<g id="edge5" class="edge">
<title>Node5&#45;&gt;Node6</title>
<path fill="none" stroke="midnightblue" d="M243.2,-237.76C228.62,-227.56 210.04,-214.57 197.62,-205.88"/>
<polygon fill="midnightblue" stroke="midnightblue" points="241.47,-240.82 251.67,-243.69 245.49,-235.09 241.47,-240.82"/>
</g>
<!-- Node6&#45;&gt;Node7 -->
<g id="edge6" class="edge">
<title>Node6&#45;&gt;Node7</title>
<path fill="none" stroke="midnightblue" d="M152.87,-182.44C142.6,-177.52 131.29,-172.12 122.01,-167.68"/>
<polygon fill="midnightblue" stroke="midnightblue" points="151.41,-185.61 161.94,-186.77 154.43,-179.3 151.41,-185.61"/>
</g>
<!-- Node8 -->
<g id="node8" class="node">
<title>Node8</title>
<g id="a_node8"><a xlink:href="../../db/d61/vmec_8f90.html#ace5bdf043bb85c8f0a9fc582bdb55725" target="_top" xlink:title="Main program of VMEC.">
<polygon fill="white" stroke="black" points="0,-148.86 0,-167.86 45,-167.86 45,-148.86 0,-148.86"/>
<text text-anchor="middle" x="22.5" y="-155.86" font-family="Helvetica,sans-Serif" font-size="10.00">xvmec</text>
</a>
</g>
</g>
<!-- Node7&#45;&gt;Node8 -->
<g id="edge7" class="edge">
<title>Node7&#45;&gt;Node8</title>
<path fill="none" stroke="midnightblue" d="M70.42,-158.36C61.99,-158.36 52.99,-158.36 45.16,-158.36"/>
<polygon fill="midnightblue" stroke="midnightblue" points="70.67,-161.86 80.67,-158.36 70.67,-154.86 70.67,-161.86"/>
</g>
<!-- Node9&#45;&gt;Node7 -->
<g id="edge9" class="edge">
<title>Node9&#45;&gt;Node7</title>
<path fill="none" stroke="midnightblue" d="M255.98,-462.5C225.35,-401.8 130,-212.86 107.36,-167.99"/>
<polygon fill="midnightblue" stroke="midnightblue" points="252.99,-464.34 260.62,-471.69 259.24,-461.19 252.99,-464.34"/>
</g>
<!-- Node10&#45;&gt;Node3 -->
<g id="edge12" class="edge">
<title>Node10&#45;&gt;Node3</title>
<path fill="none" stroke="midnightblue" d="M551.93,-503.35C534.28,-489.31 510.68,-470.62 506,-467.36 498.83,-462.35 490.62,-457.22 483.59,-452.99"/>
<polygon fill="midnightblue" stroke="midnightblue" points="550.01,-506.3 560.01,-509.79 554.37,-500.82 550.01,-506.3"/>
</g>
<!-- Node11 -->
<g id="node11" class="node">
<title>Node11</title>
<g id="a_node11"><a xlink:href="../../d0/d22/eqfor_8f90.html#a4579124c405a906bf05b3d3a0da2d105" target="_top" xlink:title="Basis physics analysis and evaluaton of force balance. This is where most of the contents of the thre...">
<polygon fill="white" stroke="black" points="338.5,-471.86 338.5,-490.86 376.5,-490.86 376.5,-471.86 338.5,-471.86"/>
<text text-anchor="middle" x="357.5" y="-478.86" font-family="Helvetica,sans-Serif" font-size="10.00">eqfor</text>
</a>
</g>
</g>
<!-- Node10&#45;&gt;Node11 -->
<g id="edge13" class="edge">
<title>Node10&#45;&gt;Node11</title>
<path fill="none" stroke="midnightblue" d="M534.89,-511.16C525.49,-509.17 515.38,-507.11 506,-505.36 459.59,-496.66 404.62,-488.2 376.71,-484.03"/>
<polygon fill="midnightblue" stroke="midnightblue" points="534.25,-514.6 544.76,-513.27 535.72,-507.76 534.25,-514.6"/>
</g>
<!-- Node11&#45;&gt;Node9 -->
<g id="edge14" class="edge">
<title>Node11&#45;&gt;Node9</title>
<path fill="none" stroke="midnightblue" d="M328.46,-481.36C315.22,-481.36 299.72,-481.36 287.66,-481.36"/>
<polygon fill="midnightblue" stroke="midnightblue" points="328.49,-484.86 338.49,-481.36 328.49,-477.86 328.49,-484.86"/>
</g>
<!-- Node12&#45;&gt;Node7 -->
<g id="edge17" class="edge">
<title>Node12&#45;&gt;Node7</title>
<path fill="none" stroke="midnightblue" d="M150.67,-146.84C141.08,-149.14 130.81,-151.59 122.23,-153.64"/>
<polygon fill="midnightblue" stroke="midnightblue" points="151.78,-150.18 160.7,-144.45 150.16,-143.37 151.78,-150.18"/>
</g>
<!-- Node13&#45;&gt;Node4 -->
<g id="edge19" class="edge">
<title>Node13&#45;&gt;Node4</title>
<path fill="none" stroke="midnightblue" d="M540.71,-789.84C508.55,-792.66 458.69,-791.84 426,-766.36 372.63,-724.76 361.36,-634.79 359.07,-605.09"/>
<polygon fill="midnightblue" stroke="midnightblue" points="541.31,-793.3 550.89,-788.78 540.58,-786.34 541.31,-793.3"/>
</g>
<!-- Node14&#45;&gt;Node6 -->
<g id="edge22" class="edge">
<title>Node14&#45;&gt;Node6</title>
<path fill="none" stroke="midnightblue" d="M314.5,-210.73C281.16,-207.06 235.73,-202.05 208.21,-199.02"/>
<polygon fill="midnightblue" stroke="midnightblue" points="314.54,-214.26 324.86,-211.87 315.3,-207.3 314.54,-214.26"/>
</g>
<!-- Node16 -->
<g id="node16" class="node">
<title>Node16</title>
<g id="a_node16"><a xlink:href="../../d9/da6/initialize__radial_8f90.html#a187faea543d3a42bc748511f04b5b7d5" target="_top" xlink:title="Allocates memory for radial arrays and initializes radial profiles.">
<polygon fill="white" stroke="black" points="426,-91.86 426,-110.86 506,-110.86 506,-91.86 426,-91.86"/>
<text text-anchor="middle" x="466" y="-98.86" font-family="Helvetica,sans-Serif" font-size="10.00">initialize_radial</text>
</a>
</g>
</g>
<!-- Node15&#45;&gt;Node16 -->
<g id="edge24" class="edge">
<title>Node15&#45;&gt;Node16</title>
<path fill="none" stroke="midnightblue" d="M542.65,-73.98C527.2,-79.57 508.4,-86.38 493.4,-91.8"/>
<polygon fill="midnightblue" stroke="midnightblue" points="544.04,-77.2 552.25,-70.5 541.66,-70.62 544.04,-77.2"/>
</g>
<!-- Node16&#45;&gt;Node7 -->
<g id="edge25" class="edge">
<title>Node16&#45;&gt;Node7</title>
<path fill="none" stroke="midnightblue" d="M415.64,-96.51C353.65,-92.19 244.88,-90.49 158,-120.36 140.55,-126.35 123.5,-139.42 113,-148.55"/>
<polygon fill="midnightblue" stroke="midnightblue" points="415.68,-100.02 425.91,-97.28 416.2,-93.04 415.68,-100.02"/>
</g>
<!-- Node17&#45;&gt;Node4 -->
<g id="edge27" class="edge">
<title>Node17&#45;&gt;Node4</title>
<path fill="none" stroke="midnightblue" d="M430.55,-732.27C428.94,-731.05 427.41,-729.74 426,-728.36 388.34,-691.31 367.84,-628.85 361.06,-605"/>
<polygon fill="midnightblue" stroke="midnightblue" points="428.79,-735.29 439.11,-737.7 432.54,-729.38 428.79,-735.29"/>
</g>
<!-- Node18&#45;&gt;Node3 -->
<g id="edge29" class="edge">
<title>Node18&#45;&gt;Node3</title>
<path fill="none" stroke="midnightblue" d="M540.69,-416.69C524.12,-422.69 504.16,-429.91 489.2,-435.32"/>
<polygon fill="midnightblue" stroke="midnightblue" points="542.29,-419.83 550.5,-413.14 539.9,-413.25 542.29,-419.83"/>
</g>
<!-- Node19&#45;&gt;Node20 -->
<g id="edge32" class="edge">
<title>Node19&#45;&gt;Node20</title>
<path fill="none" stroke="midnightblue" d="M540.97,-334.97C525.27,-337.81 506.48,-341.21 491.77,-343.88"/>
<polygon fill="midnightblue" stroke="midnightblue" points="542.04,-338.34 551.26,-333.11 540.79,-331.45 542.04,-338.34"/>
</g>
<!-- Node20&#45;&gt;Node4 -->
<g id="edge33" class="edge">
<title>Node20&#45;&gt;Node4</title>
<path fill="none" stroke="midnightblue" d="M454.81,-366.95C446.62,-382.19 435.03,-404.41 426,-424.36 398.76,-484.55 371.44,-559.2 361.98,-585.58"/>
<polygon fill="midnightblue" stroke="midnightblue" points="457.95,-368.5 459.64,-358.04 451.8,-365.17 457.95,-368.5"/>
</g>
<!-- Node21 -->
<g id="node21" class="node">
<title>Node21</title>
<g id="a_node21"><a xlink:href="../../d4/d69/nestor__main_8f90.html#a1b0fd336e80285a96925333daa2ee8f0" target="_top" xlink:title="Main program of stand&#45;alone version of NESTOR.">
<polygon fill="white" stroke="black" points="335.5,-338.86 335.5,-357.86 379.5,-357.86 379.5,-338.86 335.5,-338.86"/>
<text text-anchor="middle" x="357.5" y="-345.86" font-family="Helvetica,sans-Serif" font-size="10.00">nestor</text>
</a>
</g>
</g>
<!-- Node20&#45;&gt;Node21 -->
<g id="edge34" class="edge">
<title>Node20&#45;&gt;Node21</title>
<path fill="none" stroke="midnightblue" d="M429.89,-348.36C413.34,-348.36 394.15,-348.36 379.83,-348.36"/>
<polygon fill="midnightblue" stroke="midnightblue" points="430.3,-351.86 440.3,-348.36 430.3,-344.86 430.3,-351.86"/>
</g>
<!-- Node22&#45;&gt;Node16 -->
<g id="edge36" class="edge">
<title>Node22&#45;&gt;Node16</title>
<path fill="none" stroke="midnightblue" d="M539.41,-101.36C528.84,-101.36 517.01,-101.36 506.02,-101.36"/>
<polygon fill="midnightblue" stroke="midnightblue" points="539.47,-104.86 549.47,-101.36 539.47,-97.86 539.47,-104.86"/>
</g>
<!-- Node23&#45;&gt;Node6 -->
<g id="edge38" class="edge">
<title>Node23&#45;&gt;Node6</title>
<path fill="none" stroke="midnightblue" d="M539.02,-178.97C462.61,-182.71 274.88,-191.91 208.08,-195.18"/>
<polygon fill="midnightblue" stroke="midnightblue" points="539.65,-182.45 549.46,-178.46 539.3,-175.45 539.65,-182.45"/>
</g>
<!-- Node23&#45;&gt;Node16 -->
<g id="edge39" class="edge">
<title>Node23&#45;&gt;Node16</title>
<path fill="none" stroke="midnightblue" d="M550.36,-161.69C529.24,-146.41 497.81,-123.66 480.19,-110.9"/>
<polygon fill="midnightblue" stroke="midnightblue" points="548.55,-164.7 558.7,-167.73 552.65,-159.03 548.55,-164.7"/>
</g>
<!-- Node24&#45;&gt;Node7 -->
<g id="edge41" class="edge">
<title>Node24&#45;&gt;Node7</title>
<path fill="none" stroke="midnightblue" d="M235.4,-45.63C212.6,-54.38 181.33,-68.53 158,-87.36 135.84,-105.24 117.14,-133.58 108.18,-148.47"/>
<polygon fill="midnightblue" stroke="midnightblue" points="236.75,-48.86 244.91,-42.11 234.32,-42.3 236.75,-48.86"/>
</g>
<!-- Node25&#45;&gt;Node4 -->
<g id="edge43" class="edge">
<title>Node25&#45;&gt;Node4</title>
<path fill="none" stroke="midnightblue" d="M433.16,-695.57C430.63,-693.97 428.21,-692.23 426,-690.36 396.06,-664.98 372.73,-623.51 363.19,-604.91"/>
<polygon fill="midnightblue" stroke="midnightblue" points="431.53,-698.67 441.97,-700.49 434.95,-692.56 431.53,-698.67"/>
</g>
<!-- Node26&#45;&gt;Node25 -->
<g id="edge45" class="edge">
<title>Node26&#45;&gt;Node25</title>
<path fill="none" stroke="midnightblue" d="M540.39,-682.8C524.2,-688.66 504.84,-695.66 490.07,-701.01"/>
<polygon fill="midnightblue" stroke="midnightblue" points="541.78,-686.02 549.99,-679.32 539.39,-679.44 541.78,-686.02"/>
</g>
<!-- Node27 -->
<g id="node27" class="node">
<title>Node27</title>
<g id="a_node27"><a xlink:href="../../d3/d96/residue__con_8f90.html#a8b2d4eb1bd167c336b39b899858e7bfb" target="_top" xlink:title="Compute invariant residuals.">
<polygon fill="white" stroke="black" points="431.5,-623.86 431.5,-642.86 500.5,-642.86 500.5,-623.86 431.5,-623.86"/>
<text text-anchor="middle" x="466" y="-630.86" font-family="Helvetica,sans-Serif" font-size="10.00">residue_con</text>
</a>
</g>
</g>
<!-- Node26&#45;&gt;Node27 -->
<g id="edge46" class="edge">
<title>Node26&#45;&gt;Node27</title>
<path fill="none" stroke="midnightblue" d="M540.58,-659.99C525.55,-654.55 507.77,-648.11 493.44,-642.93"/>
<polygon fill="midnightblue" stroke="midnightblue" points="539.39,-663.28 549.99,-663.39 541.78,-656.7 539.39,-663.28"/>
</g>
<!-- Node28 -->
<g id="node28" class="node">
<title>Node28</title>
<g id="a_node28"><a xlink:href="../../d5/d62/residue__mhd_8f90.html#a3ed729a2f8c8d70e4d2fef05c9dfc4c8" target="_top" xlink:title="Compute invariant residuals.">
<polygon fill="white" stroke="black" points="430,-661.86 430,-680.86 502,-680.86 502,-661.86 430,-661.86"/>
<text text-anchor="middle" x="466" y="-668.86" font-family="Helvetica,sans-Serif" font-size="10.00">residue_mhd</text>
</a>
</g>
</g>
<!-- Node26&#45;&gt;Node28 -->
<g id="edge48" class="edge">
<title>Node26&#45;&gt;Node28</title>
<path fill="none" stroke="midnightblue" d="M539.64,-671.36C527.78,-671.36 514.3,-671.36 502.21,-671.36"/>
<polygon fill="midnightblue" stroke="midnightblue" points="539.99,-674.86 549.99,-671.36 539.99,-667.86 539.99,-674.86"/>
</g>
<!-- Node27&#45;&gt;Node4 -->
<g id="edge47" class="edge">
<title>Node27&#45;&gt;Node4</title>
<path fill="none" stroke="midnightblue" d="M428.41,-620.3C413.08,-614.83 395.7,-608.63 382.1,-603.78"/>
<polygon fill="midnightblue" stroke="midnightblue" points="427.53,-623.7 438.13,-623.77 429.88,-617.11 427.53,-623.7"/>
</g>
<!-- Node28&#45;&gt;Node4 -->
<g id="edge49" class="edge">
<title>Node28&#45;&gt;Node4</title>
<path fill="none" stroke="midnightblue" d="M434.09,-657.19C431.3,-655.65 428.57,-654.03 426,-652.36 403.89,-637.96 381.02,-617.18 368.39,-605.09"/>
<polygon fill="midnightblue" stroke="midnightblue" points="432.53,-660.33 443.02,-661.83 435.76,-654.11 432.53,-660.33"/>
</g>
<!-- Node29&#45;&gt;Node20 -->
<g id="edge51" class="edge">
<title>Node29&#45;&gt;Node20</title>
<path fill="none" stroke="midnightblue" d="M545.38,-305.81C526.3,-316.16 501.15,-329.82 484.55,-338.83"/>
<polygon fill="midnightblue" stroke="midnightblue" points="547.07,-308.87 554.19,-301.03 543.73,-302.72 547.07,-308.87"/>
</g>
<!-- Node30&#45;&gt;Node4 -->
<g id="edge53" class="edge">
<title>Node30&#45;&gt;Node4</title>
<path fill="none" stroke="midnightblue" d="M427.78,-595.36C412.69,-595.36 395.71,-595.36 382.34,-595.36"/>
<polygon fill="midnightblue" stroke="midnightblue" points="427.85,-598.86 437.85,-595.36 427.85,-591.86 427.85,-598.86"/>
</g>
<!-- Node31&#45;&gt;Node4 -->
<g id="edge55" class="edge">
<title>Node31&#45;&gt;Node4</title>
<path fill="none" stroke="midnightblue" d="M429.14,-570.15C413.63,-575.69 395.92,-582.01 382.1,-586.94"/>
<polygon fill="midnightblue" stroke="midnightblue" points="430.7,-573.31 438.95,-566.65 428.35,-566.72 430.7,-573.31"/>
</g>
<!-- Node32&#45;&gt;Node4 -->
<g id="edge57" class="edge">
<title>Node32&#45;&gt;Node4</title>
<path fill="none" stroke="midnightblue" d="M434.95,-808.01C431.63,-805.45 428.54,-802.56 426,-799.36 376.47,-736.75 362.58,-636.26 359.35,-604.97"/>
<polygon fill="midnightblue" stroke="midnightblue" points="433.23,-811.07 443.48,-813.73 437.12,-805.26 433.23,-811.07"/>
</g>
</g>
</svg>
