<?xml version="1.0" encoding="UTF-8" standalone="no"?>
<!DOCTYPE svg PUBLIC "-//W3C//DTD SVG 1.1//EN"
 "http://www.w3.org/Graphics/SVG/1.1/DTD/svg11.dtd">
<!-- Generated by graphviz version 2.49.3 (20211027.1501)
 -->
<!-- Title: dbgout::should_write Pages: 1 -->
<svg width="753pt" height="812pt"
 viewBox="0.00 0.00 753.00 812.27" xmlns="http://www.w3.org/2000/svg" xmlns:xlink="http://www.w3.org/1999/xlink">
<g id="graph0" class="graph" transform="scale(1 1) rotate(0) translate(4 808.27)">
<title>dbgout::should_write</title>
<polygon fill="white" stroke="transparent" points="-4,4 -4,-808.27 749,-808.27 749,4 -4,4"/>
<!-- Node1 -->
<g id="node1" class="node">
<title>Node1</title>
<g id="a_node1"><a xlink:title=" ">
<polygon fill="#bfbfbf" stroke="black" points="640,-414.77 640,-433.77 745,-433.77 745,-414.77 640,-414.77"/>
<text text-anchor="middle" x="692.5" y="-421.77" font-family="Helvetica,sans-Serif" font-size="10.00">dbgout::should_write</text>
</a>
</g>
</g>
<!-- Node1&#45;&gt;Node1 -->
<g id="edge45" class="edge">
<title>Node1&#45;&gt;Node1</title>
<path fill="none" stroke="midnightblue" d="M714.45,-443.3C713.25,-448.4 705.94,-452.27 692.5,-452.27 671.53,-452.27 665.46,-442.83 674.31,-434.03"/>
<polygon fill="midnightblue" stroke="midnightblue" points="717.69,-441.98 710.69,-434.03 711.2,-444.61 717.69,-441.98"/>
</g>
<!-- Node2 -->
<g id="node2" class="node">
<title>Node2</title>
<g id="a_node2"><a xlink:href="../../d8/d7d/add__fluxes_8f90.html#a988e7013ef02301b9cfbde5b8068d5af" target="_top" xlink:title="Add the magnetic fluxes to the tangential derivatives of &#160;to arrive at the contravariant magnetic fie...">
<polygon fill="white" stroke="black" points="542,-642.77 542,-661.77 604,-661.77 604,-642.77 542,-642.77"/>
<text text-anchor="middle" x="573" y="-649.77" font-family="Helvetica,sans-Serif" font-size="10.00">add_fluxes</text>
</a>
</g>
</g>
<!-- Node1&#45;&gt;Node2 -->
<g id="edge1" class="edge">
<title>Node1&#45;&gt;Node2</title>
<path fill="none" stroke="midnightblue" d="M687.42,-444.11C678.41,-483.9 653.54,-574.61 604,-633.27 600.98,-636.85 597.1,-639.98 593.15,-642.61"/>
<polygon fill="midnightblue" stroke="midnightblue" points="690.89,-444.62 689.59,-434.11 684.05,-443.14 690.89,-444.62"/>
</g>
<!-- Node3 -->
<g id="node3" class="node">
<title>Node3</title>
<g id="a_node3"><a xlink:href="../../d7/d61/bcovar_8f90.html#a1e1624195f0c0c7daa9f49d83bae5ce8" target="_top" xlink:title="Compute the covariant components of the magnetic field , .">
<polygon fill="white" stroke="black" points="443,-642.77 443,-661.77 489,-661.77 489,-642.77 443,-642.77"/>
<text text-anchor="middle" x="466" y="-649.77" font-family="Helvetica,sans-Serif" font-size="10.00">bcovar</text>
</a>
</g>
</g>
<!-- Node1&#45;&gt;Node3 -->
<g id="edge10" class="edge">
<title>Node1&#45;&gt;Node3</title>
<path fill="none" stroke="midnightblue" d="M691.52,-443.98C690.37,-492.5 679.84,-617.67 604,-671.27 567.92,-696.77 512.93,-675.8 484.85,-661.98"/>
<polygon fill="midnightblue" stroke="midnightblue" points="695.02,-443.9 691.64,-433.86 688.02,-443.82 695.02,-443.9"/>
</g>
<!-- Node4 -->
<g id="node4" class="node">
<title>Node4</title>
<g id="a_node4"><a xlink:href="../../d3/d4f/funct3d_8f90.html#a800bacc22176e16323899df87b55c547" target="_top" xlink:title="Evaluate the three&#45;dimensional MHD energy functional. Think of this as the &quot;forward model&quot; that tells...">
<polygon fill="white" stroke="black" points="333,-452.77 333,-471.77 382,-471.77 382,-452.77 333,-452.77"/>
<text text-anchor="middle" x="357.5" y="-459.77" font-family="Helvetica,sans-Serif" font-size="10.00">funct3d</text>
</a>
</g>
</g>
<!-- Node1&#45;&gt;Node4 -->
<g id="edge20" class="edge">
<title>Node1&#45;&gt;Node4</title>
<path fill="none" stroke="midnightblue" d="M692.07,-444.08C692.34,-495.19 685.1,-631.57 604,-690.27 572.7,-712.92 440.58,-684.43 426,-671.27 380.55,-630.23 409.76,-596.23 390,-538.27 381.7,-513.94 369.5,-486.25 362.99,-471.95"/>
<polygon fill="midnightblue" stroke="midnightblue" points="695.57,-443.96 691.91,-434.02 688.57,-444.07 695.57,-443.96"/>
</g>
<!-- Node5 -->
<g id="node5" class="node">
<title>Node5</title>
<g id="a_node5"><a xlink:href="../../de/da9/evolve_8f90.html#a8103e838be03904e03551e04f6b396e4" target="_top" xlink:title="Take a single time step in Fourier space to evolve the Fourier coefficients describing the equilibriu...">
<polygon fill="white" stroke="black" points="244,-471.77 244,-490.77 289,-490.77 289,-471.77 244,-471.77"/>
<text text-anchor="middle" x="266.5" y="-478.77" font-family="Helvetica,sans-Serif" font-size="10.00">evolve</text>
</a>
</g>
</g>
<!-- Node1&#45;&gt;Node5 -->
<g id="edge15" class="edge">
<title>Node1&#45;&gt;Node5</title>
<path fill="none" stroke="midnightblue" d="M688.45,-444.17C678.96,-503.31 647.87,-675.88 604,-708.27 580.35,-725.73 452.43,-710.27 426,-696.27 336.67,-648.95 284.54,-526.31 271.04,-490.95"/>
<polygon fill="midnightblue" stroke="midnightblue" points="691.97,-444.35 690.06,-433.93 685.05,-443.27 691.97,-444.35"/>
</g>
<!-- Node7 -->
<g id="node7" class="node">
<title>Node7</title>
<g id="a_node7"><a xlink:href="../../db/d61/vmec_8f90.html#a6d38ab7be2f9d818da4541e1d352ea23" target="_top" xlink:title="Main driver for VMEC.">
<polygon fill="white" stroke="black" points="81,-148.77 81,-167.77 122,-167.77 122,-148.77 81,-148.77"/>
<text text-anchor="middle" x="101.5" y="-155.77" font-family="Helvetica,sans-Serif" font-size="10.00">vmec</text>
</a>
</g>
</g>
<!-- Node1&#45;&gt;Node7 -->
<g id="edge55" class="edge">
<title>Node1&#45;&gt;Node7</title>
<path fill="none" stroke="midnightblue" d="M690.71,-444.19C687.68,-496.01 673.18,-637.1 604,-725.27 560.61,-780.56 537.29,-804.27 467,-804.27 467,-804.27 467,-804.27 265.5,-804.27 128.14,-804.27 105.36,-248.26 102.78,-167.9"/>
<polygon fill="midnightblue" stroke="midnightblue" points="694.21,-444.19 691.22,-434.03 687.22,-443.84 694.21,-444.19"/>
</g>
<!-- Node10 -->
<g id="node10" class="node">
<title>Node10</title>
<g id="a_node10"><a xlink:href="../../d9/dff/calc__fbal_8f90.html#a6cdc3d21c48f66aeaff8ab5e639641b6" target="_top" xlink:title="Compute flux&#45;surface averaged radial force balance .">
<polygon fill="white" stroke="black" points="545,-566.77 545,-585.77 601,-585.77 601,-566.77 545,-566.77"/>
<text text-anchor="middle" x="573" y="-573.77" font-family="Helvetica,sans-Serif" font-size="10.00">calc_fbal</text>
</a>
</g>
</g>
<!-- Node1&#45;&gt;Node10 -->
<g id="edge11" class="edge">
<title>Node1&#45;&gt;Node10</title>
<path fill="none" stroke="midnightblue" d="M682.33,-443.25C668.33,-470.81 639.48,-522.39 604,-557.27 600.48,-560.73 596.23,-563.88 592.05,-566.58"/>
<polygon fill="midnightblue" stroke="midnightblue" points="685.63,-444.47 686.95,-433.95 679.36,-441.35 685.63,-444.47"/>
</g>
<!-- Node12 -->
<g id="node12" class="node">
<title>Node12</title>
<g id="a_node12"><a xlink:href="../../d4/dd1/fixaray_8f90.html#aca9a4c886a9423b95e8a9336071de2e3" target="_top" xlink:title="allocate and fill some fixed&#45;size arrays (only depending on Fourier resolution).">
<polygon fill="white" stroke="black" points="335.5,-110.77 335.5,-129.77 379.5,-129.77 379.5,-110.77 335.5,-110.77"/>
<text text-anchor="middle" x="357.5" y="-117.77" font-family="Helvetica,sans-Serif" font-size="10.00">fixaray</text>
</a>
</g>
</g>
<!-- Node1&#45;&gt;Node12 -->
<g id="edge16" class="edge">
<title>Node1&#45;&gt;Node12</title>
<path fill="none" stroke="midnightblue" d="M692.3,-404.52C693.24,-351.65 687.76,-206.32 604,-139.27 537.59,-86.1 426.08,-104.11 379.72,-114.77"/>
<polygon fill="midnightblue" stroke="midnightblue" points="688.8,-404.51 692.02,-414.6 695.8,-404.7 688.8,-404.51"/>
</g>
<!-- Node13 -->
<g id="node13" class="node">
<title>Node13</title>
<g id="a_node13"><a xlink:href="../../de/d0c/forces_8f90.html#a7b4708aaec3cc94526474c16bc3a16f0" target="_top" xlink:title="Compute the real&#45;space MHD forces.">
<polygon fill="white" stroke="black" points="551,-528.77 551,-547.77 595,-547.77 595,-528.77 551,-528.77"/>
<text text-anchor="middle" x="573" y="-535.77" font-family="Helvetica,sans-Serif" font-size="10.00">forces</text>
</a>
</g>
</g>
<!-- Node1&#45;&gt;Node13 -->
<g id="edge18" class="edge">
<title>Node1&#45;&gt;Node13</title>
<path fill="none" stroke="midnightblue" d="M676.17,-441.26C659.15,-459.83 630.56,-490.15 604,-514.27 598.57,-519.2 592.26,-524.32 586.84,-528.57"/>
<polygon fill="midnightblue" stroke="midnightblue" points="678.78,-443.6 682.92,-433.85 673.6,-438.88 678.78,-443.6"/>
</g>
<!-- Node14 -->
<g id="node14" class="node">
<title>Node14</title>
<g id="a_node14"><a xlink:href="../../d5/dfd/guess__axis_8f90.html#a375e34fe4656d4c51d5013939bf5617e" target="_top" xlink:title="Computes guess for magnetic axis if user guess leads to initial sign change of Jacobian.">
<polygon fill="white" stroke="black" points="325,-186.77 325,-205.77 390,-205.77 390,-186.77 325,-186.77"/>
<text text-anchor="middle" x="357.5" y="-193.77" font-family="Helvetica,sans-Serif" font-size="10.00">guess_axis</text>
</a>
</g>
</g>
<!-- Node1&#45;&gt;Node14 -->
<g id="edge21" class="edge">
<title>Node1&#45;&gt;Node14</title>
<path fill="none" stroke="midnightblue" d="M687.19,-404.54C678.28,-368.6 654.28,-292.53 604,-253.27 540.37,-203.58 440.94,-195.91 390.36,-195.5"/>
<polygon fill="midnightblue" stroke="midnightblue" points="683.88,-405.77 689.57,-414.71 690.7,-404.17 683.88,-405.77"/>
</g>
<!-- Node15 -->
<g id="node15" class="node">
<title>Node15</title>
<g id="a_node15"><a xlink:href="../../dc/df5/interp_8f90.html#a5bac7725cb89730c4bd187e158dc36ee" target="_top" xlink:title="Interpolate , &#160;and &#160;on full grid.">
<polygon fill="white" stroke="black" points="552.5,-72.77 552.5,-91.77 593.5,-91.77 593.5,-72.77 552.5,-72.77"/>
<text text-anchor="middle" x="573" y="-79.77" font-family="Helvetica,sans-Serif" font-size="10.00">interp</text>
</a>
</g>
</g>
<!-- Node1&#45;&gt;Node15 -->
<g id="edge23" class="edge">
<title>Node1&#45;&gt;Node15</title>
<path fill="none" stroke="midnightblue" d="M690.26,-404.52C686.13,-351.83 669.13,-205.18 604,-106.27 600.33,-100.7 594.95,-95.82 589.76,-91.94"/>
<polygon fill="midnightblue" stroke="midnightblue" points="686.78,-404.82 690.98,-414.55 693.76,-404.33 686.78,-404.82"/>
</g>
<!-- Node17 -->
<g id="node17" class="node">
<title>Node17</title>
<g id="a_node17"><a xlink:href="../../d8/dc3/jacobian_8f90.html#af346f65d2aa225d9ede6e0f23add6142" target="_top" xlink:title="Evaulate the Jacobian of the transform from flux&#45; to cylindrical coordinates.">
<polygon fill="white" stroke="black" points="439.5,-528.77 439.5,-547.77 492.5,-547.77 492.5,-528.77 439.5,-528.77"/>
<text text-anchor="middle" x="466" y="-535.77" font-family="Helvetica,sans-Serif" font-size="10.00">jacobian</text>
</a>
</g>
</g>
<!-- Node1&#45;&gt;Node17 -->
<g id="edge26" class="edge">
<title>Node1&#45;&gt;Node17</title>
<path fill="none" stroke="midnightblue" d="M668.95,-439.4C651.58,-450.76 626.75,-466.34 604,-478.27 565.71,-498.34 519.27,-517.68 491.49,-528.76"/>
<polygon fill="midnightblue" stroke="midnightblue" points="670.89,-442.31 677.31,-433.89 667.03,-436.47 670.89,-442.31"/>
</g>
<!-- Node18 -->
<g id="node18" class="node">
<title>Node18</title>
<g id="a_node18"><a xlink:href="../../d4/d51/lamcal_8f90.html#aae66bdcec0bbb969704413d933148096" target="_top" xlink:title="Normalization parameters for .">
<polygon fill="white" stroke="black" points="550.5,-604.77 550.5,-623.77 595.5,-623.77 595.5,-604.77 550.5,-604.77"/>
<text text-anchor="middle" x="573" y="-611.77" font-family="Helvetica,sans-Serif" font-size="10.00">lamcal</text>
</a>
</g>
</g>
<!-- Node1&#45;&gt;Node18 -->
<g id="edge28" class="edge">
<title>Node1&#45;&gt;Node18</title>
<path fill="none" stroke="midnightblue" d="M685.48,-443.44C674.07,-477.32 646.59,-548.59 604,-595.27 600.76,-598.82 596.71,-601.97 592.64,-604.64"/>
<polygon fill="midnightblue" stroke="midnightblue" points="688.84,-444.43 688.61,-433.84 682.18,-442.26 688.84,-444.43"/>
</g>
<!-- Node19 -->
<g id="node19" class="node">
<title>Node19</title>
<g id="a_node19"><a xlink:href="../../d7/d61/profil1d_8f90.html#a2bc38da2d3b36d16295159df2f8573e2" target="_top" xlink:title="Compute phip and iota profiles on full grid.">
<polygon fill="white" stroke="black" points="549.5,-34.77 549.5,-53.77 596.5,-53.77 596.5,-34.77 549.5,-34.77"/>
<text text-anchor="middle" x="573" y="-41.77" font-family="Helvetica,sans-Serif" font-size="10.00">profil1d</text>
</a>
</g>
</g>
<!-- Node1&#45;&gt;Node19 -->
<g id="edge30" class="edge">
<title>Node1&#45;&gt;Node19</title>
<path fill="none" stroke="midnightblue" d="M691.69,-404.54C691.27,-346.51 683.08,-173.58 604,-63.27 601.34,-59.56 597.71,-56.41 593.9,-53.8"/>
<polygon fill="midnightblue" stroke="midnightblue" points="688.19,-404.56 691.68,-414.56 695.19,-404.56 688.19,-404.56"/>
</g>
<!-- Node20 -->
<g id="node20" class="node">
<title>Node20</title>
<g id="a_node20"><a xlink:href="../../dd/d75/profil3d_8f90.html#a67d2774ceac255f1e1f75e54f4679e9c" target="_top" xlink:title="Compute three&#45;dimensional profiles of flux&#45;surface geometry etc.">
<polygon fill="white" stroke="black" points="549.5,-148.77 549.5,-167.77 596.5,-167.77 596.5,-148.77 549.5,-148.77"/>
<text text-anchor="middle" x="573" y="-155.77" font-family="Helvetica,sans-Serif" font-size="10.00">profil3d</text>
</a>
</g>
</g>
<!-- Node1&#45;&gt;Node20 -->
<g id="edge32" class="edge">
<title>Node1&#45;&gt;Node20</title>
<path fill="none" stroke="midnightblue" d="M688.14,-404.5C679.97,-360.9 655.82,-254.62 604,-182.27 600.04,-176.74 594.47,-171.8 589.21,-167.87"/>
<polygon fill="midnightblue" stroke="midnightblue" points="684.75,-405.39 689.96,-414.62 691.64,-404.16 684.75,-405.39"/>
</g>
<!-- Node21 -->
<g id="node21" class="node">
<title>Node21</title>
<g id="a_node21"><a xlink:href="../../d8/da3/readin_8f90.html#a60f2bfd8fc6f7c3e027a8f91ef0c7b25" target="_top" xlink:title="Read the input file.">
<polygon fill="white" stroke="black" points="161.5,-15.77 161.5,-34.77 204.5,-34.77 204.5,-15.77 161.5,-15.77"/>
<text text-anchor="middle" x="183" y="-22.77" font-family="Helvetica,sans-Serif" font-size="10.00">readin</text>
</a>
</g>
</g>
<!-- Node1&#45;&gt;Node21 -->
<g id="edge35" class="edge">
<title>Node1&#45;&gt;Node21</title>
<path fill="none" stroke="midnightblue" d="M690.06,-404.3C684.37,-330.93 660.83,-77.83 604,-25.27 558.87,16.47 528.47,-6.27 467,-6.27 467,-6.27 467,-6.27 356.5,-6.27 301.36,-6.27 236.91,-15.98 204.63,-21.51"/>
<polygon fill="midnightblue" stroke="midnightblue" points="686.59,-404.76 690.83,-414.47 693.57,-404.24 686.59,-404.76"/>
</g>
<!-- Node22 -->
<g id="node22" class="node">
<title>Node22</title>
<g id="a_node22"><a xlink:href="../../db/d5a/residue_8f90.html#a2390b3cf93196383bbe960acb85b3e32" target="_top" xlink:title="Compute invariant residuals.">
<polygon fill="white" stroke="black" points="442,-490.77 442,-509.77 490,-509.77 490,-490.77 442,-490.77"/>
<text text-anchor="middle" x="466" y="-497.77" font-family="Helvetica,sans-Serif" font-size="10.00">residue</text>
</a>
</g>
</g>
<!-- Node1&#45;&gt;Node22 -->
<g id="edge37" class="edge">
<title>Node1&#45;&gt;Node22</title>
<path fill="none" stroke="midnightblue" d="M653.59,-437.1C606.81,-452.94 528.74,-479.37 490.11,-492.45"/>
<polygon fill="midnightblue" stroke="midnightblue" points="654.72,-440.42 663.07,-433.89 652.47,-433.79 654.72,-440.42"/>
</g>
<!-- Node23 -->
<g id="node23" class="node">
<title>Node23</title>
<g id="a_node23"><a xlink:href="../../d8/d86/scalfor_8f90.html#a20fb7039b82d05e64d01a2e50431ba5e" target="_top" xlink:title="Build forces from different contributions.">
<polygon fill="white" stroke="black" points="550,-414.77 550,-433.77 596,-433.77 596,-414.77 550,-414.77"/>
<text text-anchor="middle" x="573" y="-421.77" font-family="Helvetica,sans-Serif" font-size="10.00">scalfor</text>
</a>
</g>
</g>
<!-- Node1&#45;&gt;Node23 -->
<g id="edge39" class="edge">
<title>Node1&#45;&gt;Node23</title>
<path fill="none" stroke="midnightblue" d="M629.8,-424.27C617.68,-424.27 605.74,-424.27 596.03,-424.27"/>
<polygon fill="midnightblue" stroke="midnightblue" points="629.96,-427.77 639.96,-424.27 629.96,-420.77 629.96,-427.77"/>
</g>
<!-- Node26 -->
<g id="node26" class="node">
<title>Node26</title>
<g id="a_node26"><a xlink:href="../../d4/df3/symforce_8f90.html#a169610bcc5544fc8e16ad1e10ac85dcb" target="_top" xlink:title="Symmetrize forces on restricted &#160;interval &#160;so cos, sin integrals can be performed.">
<polygon fill="white" stroke="black" points="438,-376.77 438,-395.77 494,-395.77 494,-376.77 438,-376.77"/>
<text text-anchor="middle" x="466" y="-383.77" font-family="Helvetica,sans-Serif" font-size="10.00">symforce</text>
</a>
</g>
</g>
<!-- Node1&#45;&gt;Node26 -->
<g id="edge46" class="edge">
<title>Node1&#45;&gt;Node26</title>
<path fill="none" stroke="midnightblue" d="M640.79,-412.57C628.77,-409.99 615.96,-407.39 604,-405.27 566.05,-398.53 521.84,-392.77 494.13,-389.41"/>
<polygon fill="midnightblue" stroke="midnightblue" points="640.16,-416.02 650.67,-414.73 641.65,-409.18 640.16,-416.02"/>
</g>
<!-- Node27 -->
<g id="node27" class="node">
<title>Node27</title>
<g id="a_node27"><a xlink:href="../../d0/d6f/tomnsp_8f90.html#a6c7345c0aa0f13f311650d9633e6ecf8" target="_top" xlink:title="Fourier&#45;transform anti&#45;symmetric forces from real space to Fourier space.">
<polygon fill="white" stroke="black" points="439,-338.77 439,-357.77 493,-357.77 493,-338.77 439,-338.77"/>
<text text-anchor="middle" x="466" y="-345.77" font-family="Helvetica,sans-Serif" font-size="10.00">tomnspa</text>
</a>
</g>
</g>
<!-- Node1&#45;&gt;Node27 -->
<g id="edge48" class="edge">
<title>Node1&#45;&gt;Node27</title>
<path fill="none" stroke="midnightblue" d="M657.56,-410.96C641.42,-404.76 621.79,-397.41 604,-391.27 565.71,-378.05 520.83,-364.29 493.15,-356"/>
<polygon fill="midnightblue" stroke="midnightblue" points="656.53,-414.31 667.12,-414.65 659.05,-407.78 656.53,-414.31"/>
</g>
<!-- Node28 -->
<g id="node28" class="node">
<title>Node28</title>
<g id="a_node28"><a xlink:href="../../d0/d6f/tomnsp_8f90.html#aec4b11e4f55e18c6bfc0348c263e31db" target="_top" xlink:title="Fourier&#45;transform symmetric forces from real space to Fourier space.">
<polygon fill="white" stroke="black" points="439,-300.77 439,-319.77 493,-319.77 493,-300.77 439,-300.77"/>
<text text-anchor="middle" x="466" y="-307.77" font-family="Helvetica,sans-Serif" font-size="10.00">tomnsps</text>
</a>
</g>
</g>
<!-- Node1&#45;&gt;Node28 -->
<g id="edge50" class="edge">
<title>Node1&#45;&gt;Node28</title>
<path fill="none" stroke="midnightblue" d="M670.05,-408.7C652.74,-396.54 627.48,-379.67 604,-367.27 566.75,-347.6 521.2,-329.81 493.15,-319.51"/>
<polygon fill="midnightblue" stroke="midnightblue" points="668.15,-411.65 678.33,-414.59 672.2,-405.94 668.15,-411.65"/>
</g>
<!-- Node29 -->
<g id="node29" class="node">
<title>Node29</title>
<g id="a_node29"><a xlink:href="../../dd/d6d/vacuum_8f90.html#a0acbc18d2ab7664835d797b42ce49a35" target="_top" xlink:title="Compute the vacuum contribution to the free&#45;boundary energy functional.">
<polygon fill="white" stroke="black" points="547.5,-262.77 547.5,-281.77 598.5,-281.77 598.5,-262.77 547.5,-262.77"/>
<text text-anchor="middle" x="573" y="-269.77" font-family="Helvetica,sans-Serif" font-size="10.00">vacuum</text>
</a>
</g>
</g>
<!-- Node1&#45;&gt;Node29 -->
<g id="edge52" class="edge">
<title>Node1&#45;&gt;Node29</title>
<path fill="none" stroke="midnightblue" d="M681.21,-405.75C666.24,-379.68 636.63,-331.44 604,-296.27 599.19,-291.08 593.22,-286.08 587.88,-281.99"/>
<polygon fill="midnightblue" stroke="midnightblue" points="678.24,-407.6 686.21,-414.58 684.33,-404.15 678.24,-407.6"/>
</g>
<!-- Node2&#45;&gt;Node3 -->
<g id="edge2" class="edge">
<title>Node2&#45;&gt;Node3</title>
<path fill="none" stroke="midnightblue" d="M531.67,-652.27C517.2,-652.27 501.43,-652.27 489.08,-652.27"/>
<polygon fill="midnightblue" stroke="midnightblue" points="531.91,-655.77 541.91,-652.27 531.91,-648.77 531.91,-655.77"/>
</g>
<!-- Node3&#45;&gt;Node4 -->
<g id="edge3" class="edge">
<title>Node3&#45;&gt;Node4</title>
<path fill="none" stroke="midnightblue" d="M453.21,-634.33C445.27,-622.07 434.71,-605.36 426,-590.27 401.01,-546.97 374.08,-493.64 363.33,-472.04"/>
<polygon fill="midnightblue" stroke="midnightblue" points="450.3,-636.27 458.69,-642.74 456.16,-632.45 450.3,-636.27"/>
</g>
<!-- Node4&#45;&gt;Node5 -->
<g id="edge4" class="edge">
<title>Node4&#45;&gt;Node5</title>
<path fill="none" stroke="midnightblue" d="M322.72,-469.48C311.51,-471.87 299.34,-474.47 289.28,-476.62"/>
<polygon fill="midnightblue" stroke="midnightblue" points="323.6,-472.87 332.65,-467.36 322.14,-466.03 323.6,-472.87"/>
</g>
<!-- Node9 -->
<g id="node9" class="node">
<title>Node9</title>
<g id="a_node9"><a xlink:href="../../d0/d71/fileout_8f90.html#a7228e984aaf2c38bd772e3d846fab7af" target="_top" xlink:title="Write the output files.">
<polygon fill="white" stroke="black" points="245.5,-433.77 245.5,-452.77 287.5,-452.77 287.5,-433.77 245.5,-433.77"/>
<text text-anchor="middle" x="266.5" y="-440.77" font-family="Helvetica,sans-Serif" font-size="10.00">fileout</text>
</a>
</g>
</g>
<!-- Node4&#45;&gt;Node9 -->
<g id="edge8" class="edge">
<title>Node4&#45;&gt;Node9</title>
<path fill="none" stroke="midnightblue" d="M322.68,-455.05C310.92,-452.54 298.11,-449.8 287.79,-447.6"/>
<polygon fill="midnightblue" stroke="midnightblue" points="322.14,-458.51 332.65,-457.18 323.6,-451.67 322.14,-458.51"/>
</g>
<!-- Node6 -->
<g id="node6" class="node">
<title>Node6</title>
<g id="a_node6"><a xlink:href="../../d7/d46/eqsolve_8f90.html#ab740b09d1b651e2ab8a60c5d552df0c2" target="_top" xlink:title="Iteratively evolve the Fourier coefficients that specify the equilibrium.">
<polygon fill="white" stroke="black" points="158,-167.77 158,-186.77 208,-186.77 208,-167.77 158,-167.77"/>
<text text-anchor="middle" x="183" y="-174.77" font-family="Helvetica,sans-Serif" font-size="10.00">eqsolve</text>
</a>
</g>
</g>
<!-- Node5&#45;&gt;Node6 -->
<g id="edge5" class="edge">
<title>Node5&#45;&gt;Node6</title>
<path fill="none" stroke="midnightblue" d="M245,-463.86C244.65,-463.34 244.31,-462.81 244,-462.27 188.03,-366.14 183.95,-224.75 183.91,-186.89"/>
<polygon fill="midnightblue" stroke="midnightblue" points="242.57,-466.4 251.83,-471.56 247.81,-461.76 242.57,-466.4"/>
</g>
<!-- Node6&#45;&gt;Node7 -->
<g id="edge6" class="edge">
<title>Node6&#45;&gt;Node7</title>
<path fill="none" stroke="midnightblue" d="M147.71,-169.07C138.96,-166.98 129.84,-164.8 122.11,-162.96"/>
<polygon fill="midnightblue" stroke="midnightblue" points="147.18,-172.54 157.72,-171.46 148.8,-165.74 147.18,-172.54"/>
</g>
<!-- Node8 -->
<g id="node8" class="node">
<title>Node8</title>
<g id="a_node8"><a xlink:href="../../db/d61/vmec_8f90.html#ace5bdf043bb85c8f0a9fc582bdb55725" target="_top" xlink:title="Main program of VMEC.">
<polygon fill="white" stroke="black" points="0,-148.77 0,-167.77 45,-167.77 45,-148.77 0,-148.77"/>
<text text-anchor="middle" x="22.5" y="-155.77" font-family="Helvetica,sans-Serif" font-size="10.00">xvmec</text>
</a>
</g>
</g>
<!-- Node7&#45;&gt;Node8 -->
<g id="edge7" class="edge">
<title>Node7&#45;&gt;Node8</title>
<path fill="none" stroke="midnightblue" d="M70.42,-158.27C61.99,-158.27 52.99,-158.27 45.16,-158.27"/>
<polygon fill="midnightblue" stroke="midnightblue" points="70.67,-161.77 80.67,-158.27 70.67,-154.77 70.67,-161.77"/>
</g>
<!-- Node9&#45;&gt;Node7 -->
<g id="edge9" class="edge">
<title>Node9&#45;&gt;Node7</title>
<path fill="none" stroke="midnightblue" d="M254.92,-424.77C223.54,-369.9 131.7,-209.32 108.09,-168.04"/>
<polygon fill="midnightblue" stroke="midnightblue" points="251.89,-426.52 259.89,-433.46 257.96,-423.04 251.89,-426.52"/>
</g>
<!-- Node10&#45;&gt;Node3 -->
<g id="edge12" class="edge">
<title>Node10&#45;&gt;Node3</title>
<path fill="none" stroke="midnightblue" d="M547.04,-591.59C545.31,-592.8 543.62,-594.03 542,-595.27 524.76,-608.46 523.32,-615.19 506,-628.27 499.15,-633.44 491.14,-638.52 484.16,-642.67"/>
<polygon fill="midnightblue" stroke="midnightblue" points="549.36,-594.25 555.76,-585.82 545.49,-588.42 549.36,-594.25"/>
</g>
<!-- Node11 -->
<g id="node11" class="node">
<title>Node11</title>
<g id="a_node11"><a xlink:href="../../d0/d22/eqfor_8f90.html#a4579124c405a906bf05b3d3a0da2d105" target="_top" xlink:title="Basis physics analysis and evaluaton of force balance. This is where most of the contents of the thre...">
<polygon fill="white" stroke="black" points="338.5,-547.77 338.5,-566.77 376.5,-566.77 376.5,-547.77 338.5,-547.77"/>
<text text-anchor="middle" x="357.5" y="-554.77" font-family="Helvetica,sans-Serif" font-size="10.00">eqfor</text>
</a>
</g>
</g>
<!-- Node10&#45;&gt;Node11 -->
<g id="edge13" class="edge">
<title>Node10&#45;&gt;Node11</title>
<path fill="none" stroke="midnightblue" d="M534.79,-586.35C505.02,-592.86 462.39,-598.69 426,-590.27 406.56,-585.77 386.24,-574.86 373.05,-566.81"/>
<polygon fill="midnightblue" stroke="midnightblue" points="535.8,-589.71 544.75,-584.04 534.22,-582.89 535.8,-589.71"/>
</g>
<!-- Node11&#45;&gt;Node9 -->
<g id="edge14" class="edge">
<title>Node11&#45;&gt;Node9</title>
<path fill="none" stroke="midnightblue" d="M345.24,-538.89C332.69,-519.04 311.21,-486.96 289,-462.27 286.07,-459.01 282.61,-455.75 279.34,-452.87"/>
<polygon fill="midnightblue" stroke="midnightblue" points="342.39,-540.93 350.65,-547.56 348.33,-537.23 342.39,-540.93"/>
</g>
<!-- Node12&#45;&gt;Node7 -->
<g id="edge17" class="edge">
<title>Node12&#45;&gt;Node7</title>
<path fill="none" stroke="midnightblue" d="M325.09,-124.97C271.96,-132.92 165.85,-148.79 122.08,-155.34"/>
<polygon fill="midnightblue" stroke="midnightblue" points="325.91,-128.38 335.28,-123.44 324.87,-121.46 325.91,-128.38"/>
</g>
<!-- Node13&#45;&gt;Node4 -->
<g id="edge19" class="edge">
<title>Node13&#45;&gt;Node4</title>
<path fill="none" stroke="midnightblue" d="M542.53,-551.66C511.74,-563.54 462.89,-576.31 426,-557.27 390.4,-538.89 369.49,-492.11 361.84,-471.86"/>
<polygon fill="midnightblue" stroke="midnightblue" points="543.9,-554.88 551.85,-547.88 541.26,-548.4 543.9,-554.88"/>
</g>
<!-- Node14&#45;&gt;Node6 -->
<g id="edge22" class="edge">
<title>Node14&#45;&gt;Node6</title>
<path fill="none" stroke="midnightblue" d="M314.5,-191.64C281.16,-187.97 235.73,-182.97 208.21,-179.93"/>
<polygon fill="midnightblue" stroke="midnightblue" points="314.54,-195.17 324.86,-192.78 315.3,-188.21 314.54,-195.17"/>
</g>
<!-- Node16 -->
<g id="node16" class="node">
<title>Node16</title>
<g id="a_node16"><a xlink:href="../../d9/da6/initialize__radial_8f90.html#a187faea543d3a42bc748511f04b5b7d5" target="_top" xlink:title="Allocates memory for radial arrays and initializes radial profiles.">
<polygon fill="white" stroke="black" points="426,-72.77 426,-91.77 506,-91.77 506,-72.77 426,-72.77"/>
<text text-anchor="middle" x="466" y="-79.77" font-family="Helvetica,sans-Serif" font-size="10.00">initialize_radial</text>
</a>
</g>
</g>
<!-- Node15&#45;&gt;Node16 -->
<g id="edge24" class="edge">
<title>Node15&#45;&gt;Node16</title>
<path fill="none" stroke="midnightblue" d="M542.15,-82.27C530.98,-82.27 518.12,-82.27 506.24,-82.27"/>
<polygon fill="midnightblue" stroke="midnightblue" points="542.25,-85.77 552.25,-82.27 542.25,-78.77 542.25,-85.77"/>
</g>
<!-- Node16&#45;&gt;Node7 -->
<g id="edge25" class="edge">
<title>Node16&#45;&gt;Node7</title>
<path fill="none" stroke="midnightblue" d="M415.98,-87.91C389.04,-91.26 355.08,-95.9 325,-101.27 250.16,-114.61 231.02,-117.12 158,-138.27 145.9,-141.77 132.61,-146.53 122.08,-150.52"/>
<polygon fill="midnightblue" stroke="midnightblue" points="416.44,-91.38 425.94,-86.69 415.59,-84.43 416.44,-91.38"/>
</g>
<!-- Node17&#45;&gt;Node4 -->
<g id="edge27" class="edge">
<title>Node17&#45;&gt;Node4</title>
<path fill="none" stroke="midnightblue" d="M434.09,-524.1C431.3,-522.56 428.57,-520.94 426,-519.27 403.89,-504.87 381.02,-484.09 368.39,-472"/>
<polygon fill="midnightblue" stroke="midnightblue" points="432.53,-527.24 443.02,-528.74 435.76,-521.03 432.53,-527.24"/>
</g>
<!-- Node18&#45;&gt;Node3 -->
<g id="edge29" class="edge">
<title>Node18&#45;&gt;Node3</title>
<path fill="none" stroke="midnightblue" d="M540.69,-625.6C524.12,-631.6 504.16,-638.82 489.2,-644.24"/>
<polygon fill="midnightblue" stroke="midnightblue" points="542.29,-628.74 550.5,-622.05 539.9,-622.16 542.29,-628.74"/>
</g>
<!-- Node19&#45;&gt;Node16 -->
<g id="edge31" class="edge">
<title>Node19&#45;&gt;Node16</title>
<path fill="none" stroke="midnightblue" d="M539.71,-55.95C524.92,-61.31 507.6,-67.58 493.57,-72.65"/>
<polygon fill="midnightblue" stroke="midnightblue" points="541.26,-59.11 549.47,-52.42 538.88,-52.53 541.26,-59.11"/>
</g>
<!-- Node20&#45;&gt;Node6 -->
<g id="edge33" class="edge">
<title>Node20&#45;&gt;Node6</title>
<path fill="none" stroke="midnightblue" d="M539.02,-159.88C462.61,-163.62 274.88,-172.82 208.08,-176.09"/>
<polygon fill="midnightblue" stroke="midnightblue" points="539.65,-163.36 549.46,-159.37 539.3,-156.37 539.65,-163.36"/>
</g>
<!-- Node20&#45;&gt;Node16 -->
<g id="edge34" class="edge">
<title>Node20&#45;&gt;Node16</title>
<path fill="none" stroke="midnightblue" d="M550.36,-142.6C529.24,-127.32 497.81,-104.57 480.19,-91.82"/>
<polygon fill="midnightblue" stroke="midnightblue" points="548.55,-145.61 558.7,-148.64 552.65,-139.94 548.55,-145.61"/>
</g>
<!-- Node21&#45;&gt;Node7 -->
<g id="edge36" class="edge">
<title>Node21&#45;&gt;Node7</title>
<path fill="none" stroke="midnightblue" d="M171.14,-43.43C154.1,-71.94 121.65,-126.23 108.38,-148.43"/>
<polygon fill="midnightblue" stroke="midnightblue" points="174.16,-45.21 176.28,-34.83 168.15,-41.62 174.16,-45.21"/>
</g>
<!-- Node22&#45;&gt;Node4 -->
<g id="edge38" class="edge">
<title>Node22&#45;&gt;Node4</title>
<path fill="none" stroke="midnightblue" d="M432.29,-488.6C416.15,-482.84 397.03,-476.02 382.3,-470.76"/>
<polygon fill="midnightblue" stroke="midnightblue" points="431.3,-491.96 441.89,-492.02 433.65,-485.37 431.3,-491.96"/>
</g>
<!-- Node23&#45;&gt;Node22 -->
<g id="edge40" class="edge">
<title>Node23&#45;&gt;Node22</title>
<path fill="none" stroke="midnightblue" d="M551.72,-440.19C548.44,-442.85 545.1,-445.61 542,-448.27 525.52,-462.39 523.94,-469.06 506,-481.27 500.89,-484.74 495.06,-487.94 489.48,-490.68"/>
<polygon fill="midnightblue" stroke="midnightblue" points="553.96,-442.87 559.59,-433.89 549.59,-437.41 553.96,-442.87"/>
</g>
<!-- Node24 -->
<g id="node24" class="node">
<title>Node24</title>
<g id="a_node24"><a xlink:href="../../d3/d96/residue__con_8f90.html#a412d6d3c67bc4020bcfc3bcf83718b98" target="_top" xlink:title="Compute invariant residuals.">
<polygon fill="white" stroke="black" points="431.5,-414.77 431.5,-433.77 500.5,-433.77 500.5,-414.77 431.5,-414.77"/>
<text text-anchor="middle" x="466" y="-421.77" font-family="Helvetica,sans-Serif" font-size="10.00">residue_con</text>
</a>
</g>
</g>
<!-- Node23&#45;&gt;Node24 -->
<g id="edge41" class="edge">
<title>Node23&#45;&gt;Node24</title>
<path fill="none" stroke="midnightblue" d="M539.63,-424.27C527.24,-424.27 513.07,-424.27 500.57,-424.27"/>
<polygon fill="midnightblue" stroke="midnightblue" points="539.99,-427.77 549.99,-424.27 539.99,-420.77 539.99,-427.77"/>
</g>
<!-- Node25 -->
<g id="node25" class="node">
<title>Node25</title>
<g id="a_node25"><a xlink:href="../../d5/d62/residue__mhd_8f90.html#a3ed729a2f8c8d70e4d2fef05c9dfc4c8" target="_top" xlink:title="Compute invariant residuals.">
<polygon fill="white" stroke="black" points="430,-452.77 430,-471.77 502,-471.77 502,-452.77 430,-452.77"/>
<text text-anchor="middle" x="466" y="-459.77" font-family="Helvetica,sans-Serif" font-size="10.00">residue_mhd</text>
</a>
</g>
</g>
<!-- Node23&#45;&gt;Node25 -->
<g id="edge43" class="edge">
<title>Node23&#45;&gt;Node25</title>
<path fill="none" stroke="midnightblue" d="M540.58,-435.64C525.55,-441.08 507.77,-447.52 493.44,-452.7"/>
<polygon fill="midnightblue" stroke="midnightblue" points="541.78,-438.93 549.99,-432.23 539.39,-432.35 541.78,-438.93"/>
</g>
<!-- Node24&#45;&gt;Node4 -->
<g id="edge42" class="edge">
<title>Node24&#45;&gt;Node4</title>
<path fill="none" stroke="midnightblue" d="M428.41,-437.32C413.08,-442.8 395.7,-449 382.1,-453.85"/>
<polygon fill="midnightblue" stroke="midnightblue" points="429.88,-440.51 438.13,-433.86 427.53,-433.92 429.88,-440.51"/>
</g>
<!-- Node25&#45;&gt;Node4 -->
<g id="edge44" class="edge">
<title>Node25&#45;&gt;Node4</title>
<path fill="none" stroke="midnightblue" d="M419.69,-462.27C406.79,-462.27 393.26,-462.27 382.21,-462.27"/>
<polygon fill="midnightblue" stroke="midnightblue" points="419.83,-465.77 429.83,-462.27 419.83,-458.77 419.83,-465.77"/>
</g>
<!-- Node26&#45;&gt;Node4 -->
<g id="edge47" class="edge">
<title>Node26&#45;&gt;Node4</title>
<path fill="none" stroke="midnightblue" d="M434.09,-400.43C431.3,-401.98 428.57,-403.6 426,-405.27 403.89,-419.67 381.02,-440.45 368.39,-452.54"/>
<polygon fill="midnightblue" stroke="midnightblue" points="435.76,-403.51 443.02,-395.8 432.53,-397.3 435.76,-403.51"/>
</g>
<!-- Node27&#45;&gt;Node4 -->
<g id="edge49" class="edge">
<title>Node27&#45;&gt;Node4</title>
<path fill="none" stroke="midnightblue" d="M431.52,-363.12C429.59,-364.42 427.73,-365.8 426,-367.27 396.06,-392.65 372.73,-434.12 363.19,-452.72"/>
<polygon fill="midnightblue" stroke="midnightblue" points="433.48,-366.03 440.34,-357.96 429.94,-359.99 433.48,-366.03"/>
</g>
<!-- Node28&#45;&gt;Node4 -->
<g id="edge51" class="edge">
<title>Node28&#45;&gt;Node4</title>
<path fill="none" stroke="midnightblue" d="M430.55,-325.36C428.94,-326.58 427.41,-327.88 426,-329.27 388.34,-366.31 367.84,-428.77 361.06,-452.62"/>
<polygon fill="midnightblue" stroke="midnightblue" points="432.54,-328.24 439.11,-319.93 428.79,-322.33 432.54,-328.24"/>
</g>
<!-- Node29&#45;&gt;Node4 -->
<g id="edge53" class="edge">
<title>Node29&#45;&gt;Node4</title>
<path fill="none" stroke="midnightblue" d="M545.24,-258.49C513.66,-244.36 461.02,-227.78 426,-253.27 359.1,-301.96 357.12,-418.28 358.06,-452.58"/>
<polygon fill="midnightblue" stroke="midnightblue" points="543.78,-261.67 554.32,-262.74 546.75,-255.33 543.78,-261.67"/>
</g>
<!-- Node30 -->
<g id="node30" class="node">
<title>Node30</title>
<g id="a_node30"><a xlink:href="../../d4/d69/nestor__main_8f90.html#a1b0fd336e80285a96925333daa2ee8f0" target="_top" xlink:title="Main program of stand&#45;alone version of NESTOR.">
<polygon fill="white" stroke="black" points="444,-262.77 444,-281.77 488,-281.77 488,-262.77 444,-262.77"/>
<text text-anchor="middle" x="466" y="-269.77" font-family="Helvetica,sans-Serif" font-size="10.00">nestor</text>
</a>
</g>
</g>
<!-- Node29&#45;&gt;Node30 -->
<g id="edge54" class="edge">
<title>Node29&#45;&gt;Node30</title>
<path fill="none" stroke="midnightblue" d="M537.19,-272.27C521.02,-272.27 502.3,-272.27 488.27,-272.27"/>
<polygon fill="midnightblue" stroke="midnightblue" points="537.38,-275.77 547.38,-272.27 537.38,-268.77 537.38,-275.77"/>
</g>
</g>
</svg>
