<?xml version="1.0" encoding="UTF-8" standalone="no"?>
<!DOCTYPE svg PUBLIC "-//W3C//DTD SVG 1.1//EN"
 "http://www.w3.org/Graphics/SVG/1.1/DTD/svg11.dtd">
<!-- Generated by graphviz version 2.49.3 (20211215.1918)
 -->
<!-- Title: dbgout::open_dbg_context Pages: 1 -->
<svg width="889pt" height="986pt"
 viewBox="0.00 0.00 889.00 985.96" xmlns="http://www.w3.org/2000/svg" xmlns:xlink="http://www.w3.org/1999/xlink">
<g id="graph0" class="graph" transform="scale(1 1) rotate(0) translate(4 981.96)">
<title>dbgout::open_dbg_context</title>
<polygon fill="white" stroke="transparent" points="-4,4 -4,-981.96 885,-981.96 885,4 -4,4"/>
<!-- Node1 -->
<g id="node1" class="node">
<title>Node1</title>
<g id="a_node1"><a xlink:title="check if any output is desired for the current iteration check if the given context should be openend...">
<polygon fill="#bfbfbf" stroke="black" points="752,-492.76 752,-511.76 881,-511.76 881,-492.76 752,-492.76"/>
<text text-anchor="middle" x="816.5" y="-499.76" font-family="Helvetica,sans-Serif" font-size="10.00">dbgout::open_dbg_context</text>
</a>
</g>
</g>
<!-- Node1&#45;&gt;Node1 -->
<g id="edge37" class="edge">
<title>Node1&#45;&gt;Node1</title>
<path fill="none" stroke="midnightblue" d="M840.68,-521.29C839.36,-526.38 831.3,-530.26 816.5,-530.26 793.39,-530.26 786.72,-520.82 796.46,-512.01"/>
<polygon fill="midnightblue" stroke="midnightblue" points="843.81,-519.71 836.54,-512.01 837.42,-522.57 843.81,-519.71"/>
</g>
<!-- Node2 -->
<g id="node2" class="node">
<title>Node2</title>
<g id="a_node2"><a xlink:href="../../d8/d7d/add__fluxes_8f90.html#a988e7013ef02301b9cfbde5b8068d5af" target="_top" xlink:title="Add the magnetic fluxes to the tangential derivatives of &#160;to arrive at the contravariant magnetic fie...">
<polygon fill="white" stroke="black" points="654,-587.76 654,-606.76 716,-606.76 716,-587.76 654,-587.76"/>
<text text-anchor="middle" x="685" y="-594.76" font-family="Helvetica,sans-Serif" font-size="10.00">add_fluxes</text>
</a>
</g>
</g>
<!-- Node1&#45;&gt;Node2 -->
<g id="edge1" class="edge">
<title>Node1&#45;&gt;Node2</title>
<path fill="none" stroke="midnightblue" d="M794.06,-517.98C767.04,-537.81 721.43,-571.26 699.11,-587.64"/>
<polygon fill="midnightblue" stroke="midnightblue" points="796.14,-520.8 802.13,-512.06 792,-515.16 796.14,-520.8"/>
</g>
<!-- Node3 -->
<g id="node3" class="node">
<title>Node3</title>
<g id="a_node3"><a xlink:href="../../d7/d61/bcovar_8f90.html#a1e1624195f0c0c7daa9f49d83bae5ce8" target="_top" xlink:title="Compute the covariant components of the magnetic field , .">
<polygon fill="white" stroke="black" points="555,-625.76 555,-644.76 601,-644.76 601,-625.76 555,-625.76"/>
<text text-anchor="middle" x="578" y="-632.76" font-family="Helvetica,sans-Serif" font-size="10.00">bcovar</text>
</a>
</g>
</g>
<!-- Node1&#45;&gt;Node3 -->
<g id="edge15" class="edge">
<title>Node1&#45;&gt;Node3</title>
<path fill="none" stroke="midnightblue" d="M805.17,-520.87C789.57,-547.01 757.39,-593.88 716,-616.26 679.45,-636.01 629.74,-637.74 601.34,-636.79"/>
<polygon fill="midnightblue" stroke="midnightblue" points="808.34,-522.37 810.32,-511.97 802.28,-518.87 808.34,-522.37"/>
</g>
<!-- Node4 -->
<g id="node4" class="node">
<title>Node4</title>
<g id="a_node4"><a xlink:href="../../d3/d4f/funct3d_8f90.html#a800bacc22176e16323899df87b55c547" target="_top" xlink:title="Evaluate the three&#45;dimensional MHD energy functional. Think of this as the &quot;forward model&quot; that tells...">
<polygon fill="white" stroke="black" points="345,-454.76 345,-473.76 394,-473.76 394,-454.76 345,-454.76"/>
<text text-anchor="middle" x="369.5" y="-461.76" font-family="Helvetica,sans-Serif" font-size="10.00">funct3d</text>
</a>
</g>
</g>
<!-- Node1&#45;&gt;Node4 -->
<g id="edge27" class="edge">
<title>Node1&#45;&gt;Node4</title>
<path fill="none" stroke="midnightblue" d="M741.47,-501.94C663.54,-500.66 537.48,-495.86 430,-479.26 418,-477.4 404.89,-474.22 394.03,-471.27"/>
<polygon fill="midnightblue" stroke="midnightblue" points="741.62,-505.45 751.67,-502.1 741.73,-498.45 741.62,-505.45"/>
</g>
<!-- Node5 -->
<g id="node5" class="node">
<title>Node5</title>
<g id="a_node5"><a xlink:href="../../de/da9/evolve_8f90.html#a8103e838be03904e03551e04f6b396e4" target="_top" xlink:title="Take a single time step in Fourier space to evolve the Fourier coefficients describing the equilibriu...">
<polygon fill="white" stroke="black" points="254,-245.76 254,-264.76 299,-264.76 299,-245.76 254,-245.76"/>
<text text-anchor="middle" x="276.5" y="-252.76" font-family="Helvetica,sans-Serif" font-size="10.00">evolve</text>
</a>
</g>
</g>
<!-- Node1&#45;&gt;Node5 -->
<g id="edge22" class="edge">
<title>Node1&#45;&gt;Node5</title>
<path fill="none" stroke="midnightblue" d="M812.03,-482.35C803.59,-440.18 777.99,-341.53 716,-290.26 667.57,-250.2 641.84,-255.26 579,-255.26 579,-255.26 579,-255.26 465,-255.26 404.94,-255.26 334.06,-255.26 299.15,-255.26"/>
<polygon fill="midnightblue" stroke="midnightblue" points="808.64,-483.27 813.93,-492.45 815.52,-481.97 808.64,-483.27"/>
</g>
<!-- Node7 -->
<g id="node7" class="node">
<title>Node7</title>
<g id="a_node7"><a xlink:href="../../db/d61/vmec_8f90.html#a6d38ab7be2f9d818da4541e1d352ea23" target="_top" xlink:title="Main driver for VMEC.">
<polygon fill="white" stroke="black" points="81,-188.76 81,-207.76 122,-207.76 122,-188.76 81,-188.76"/>
<text text-anchor="middle" x="101.5" y="-195.76" font-family="Helvetica,sans-Serif" font-size="10.00">vmec</text>
</a>
</g>
</g>
<!-- Node1&#45;&gt;Node7 -->
<g id="edge65" class="edge">
<title>Node1&#45;&gt;Node7</title>
<path fill="none" stroke="midnightblue" d="M813.65,-522.43C806.12,-600.09 775.34,-878.47 716,-940.26 672.31,-985.75 642.07,-977.26 579,-977.26 579,-977.26 579,-977.26 275.5,-977.26 109.77,-977.26 102.71,-296.86 102.5,-207.82"/>
<polygon fill="midnightblue" stroke="midnightblue" points="817.17,-522.4 814.62,-512.11 810.2,-521.74 817.17,-522.4"/>
</g>
<!-- Node10 -->
<g id="node10" class="node">
<title>Node10</title>
<g id="a_node10"><a xlink:href="../../da/d73/analyt_8f90.html#a60edcf4884aa60f6d96c258a97255756" target="_top" xlink:title="Compute the analytical&#45;and&#45;numerical 4D Fourier integrals over the equivalently&#45;singular functions.">
<polygon fill="white" stroke="black" points="664,-891.76 664,-910.76 706,-910.76 706,-891.76 664,-891.76"/>
<text text-anchor="middle" x="685" y="-898.76" font-family="Helvetica,sans-Serif" font-size="10.00">analyt</text>
</a>
</g>
</g>
<!-- Node1&#45;&gt;Node10 -->
<g id="edge10" class="edge">
<title>Node1&#45;&gt;Node10</title>
<path fill="none" stroke="midnightblue" d="M814.55,-521.96C810.87,-580.75 793.59,-758.23 716,-877.26 712.36,-882.84 706.98,-887.73 701.79,-891.61"/>
<polygon fill="midnightblue" stroke="midnightblue" points="818.05,-522.02 815.12,-511.84 811.06,-521.62 818.05,-522.02"/>
</g>
<!-- Node11 -->
<g id="node11" class="node">
<title>Node11</title>
<g id="a_node11"><a xlink:href="../../d0/d19/scalpot_8f90.html#afb9e58849c5a27e486bdf4106f8bb84e" target="_top" xlink:title="Compute all required terms for solving for the scalar magnetic potential.">
<polygon fill="white" stroke="black" points="554,-891.76 554,-910.76 602,-910.76 602,-891.76 554,-891.76"/>
<text text-anchor="middle" x="578" y="-898.76" font-family="Helvetica,sans-Serif" font-size="10.00">scalpot</text>
</a>
</g>
</g>
<!-- Node1&#45;&gt;Node11 -->
<g id="edge55" class="edge">
<title>Node1&#45;&gt;Node11</title>
<path fill="none" stroke="midnightblue" d="M813.95,-522C807.52,-597.94 780.31,-869.46 716,-920.26 680.95,-947.94 624.51,-925.37 596.27,-910.95"/>
<polygon fill="midnightblue" stroke="midnightblue" points="817.44,-522.16 814.77,-511.91 810.47,-521.59 817.44,-522.16"/>
</g>
<!-- Node12 -->
<g id="node12" class="node">
<title>Node12</title>
<g id="a_node12"><a xlink:href="../../dd/d6d/vacuum_8f90.html#a0acbc18d2ab7664835d797b42ce49a35" target="_top" xlink:title="Compute the vacuum contribution to the free&#45;boundary energy functional.">
<polygon fill="white" stroke="black" points="440.5,-796.76 440.5,-815.76 491.5,-815.76 491.5,-796.76 440.5,-796.76"/>
<text text-anchor="middle" x="466" y="-803.76" font-family="Helvetica,sans-Serif" font-size="10.00">vacuum</text>
</a>
</g>
</g>
<!-- Node1&#45;&gt;Node12 -->
<g id="edge64" class="edge">
<title>Node1&#45;&gt;Node12</title>
<path fill="none" stroke="midnightblue" d="M812.96,-522.01C806.12,-566.6 783.08,-675.47 716,-730.26 653.34,-781.42 613.97,-740.45 538,-768.26 517.65,-775.7 495.91,-788.06 481.93,-796.66"/>
<polygon fill="midnightblue" stroke="midnightblue" points="816.45,-522.29 814.39,-511.9 809.52,-521.31 816.45,-522.29"/>
</g>
<!-- Node14 -->
<g id="node14" class="node">
<title>Node14</title>
<g id="a_node14"><a xlink:href="../../db/d3d/bextern_8f90.html#a90228cc5f358147ae7f59953d6f9cced" target="_top" xlink:title="Compute the total magnetic field due to external coils and the net toroidal plasma current.">
<polygon fill="white" stroke="black" points="554,-853.76 554,-872.76 602,-872.76 602,-853.76 554,-853.76"/>
<text text-anchor="middle" x="578" y="-860.76" font-family="Helvetica,sans-Serif" font-size="10.00">bextern</text>
</a>
</g>
</g>
<!-- Node1&#45;&gt;Node14 -->
<g id="edge16" class="edge">
<title>Node1&#45;&gt;Node14</title>
<path fill="none" stroke="midnightblue" d="M812.61,-521.93C802.47,-588.06 766.42,-800.68 716,-844.26 684.3,-871.66 632.16,-870.53 602.18,-867.04"/>
<polygon fill="midnightblue" stroke="midnightblue" points="816.08,-522.39 814.1,-511.98 809.15,-521.35 816.08,-522.39"/>
</g>
<!-- Node15 -->
<g id="node15" class="node">
<title>Node15</title>
<g id="a_node15"><a xlink:href="../../d9/dff/calc__fbal_8f90.html#a6cdc3d21c48f66aeaff8ab5e639641b6" target="_top" xlink:title="Compute flux&#45;surface averaged radial force balance .">
<polygon fill="white" stroke="black" points="657,-701.76 657,-720.76 713,-720.76 713,-701.76 657,-701.76"/>
<text text-anchor="middle" x="685" y="-708.76" font-family="Helvetica,sans-Serif" font-size="10.00">calc_fbal</text>
</a>
</g>
</g>
<!-- Node1&#45;&gt;Node15 -->
<g id="edge18" class="edge">
<title>Node1&#45;&gt;Node15</title>
<path fill="none" stroke="midnightblue" d="M809.22,-521.54C796.5,-558.29 764.67,-639.41 716,-692.26 712.74,-695.79 708.68,-698.94 704.62,-701.6"/>
<polygon fill="midnightblue" stroke="midnightblue" points="812.55,-522.61 812.43,-512.02 805.92,-520.38 812.55,-522.61"/>
</g>
<!-- Node17 -->
<g id="node17" class="node">
<title>Node17</title>
<g id="a_node17"><a xlink:href="../../d4/dd1/fixaray_8f90.html#aca9a4c886a9423b95e8a9336071de2e3" target="_top" xlink:title="allocate and fill some fixed&#45;size arrays (only depending on Fourier resolution).">
<polygon fill="white" stroke="black" points="161,-150.76 161,-169.76 205,-169.76 205,-150.76 161,-150.76"/>
<text text-anchor="middle" x="183" y="-157.76" font-family="Helvetica,sans-Serif" font-size="10.00">fixaray</text>
</a>
</g>
</g>
<!-- Node1&#45;&gt;Node17 -->
<g id="edge23" class="edge">
<title>Node1&#45;&gt;Node17</title>
<path fill="none" stroke="midnightblue" d="M812.61,-482.59C802.47,-416.45 766.42,-203.83 716,-160.26 669.49,-120.06 640.47,-141.26 579,-141.26 579,-141.26 579,-141.26 368.5,-141.26 309.09,-141.26 239.48,-151.12 205.23,-156.64"/>
<polygon fill="midnightblue" stroke="midnightblue" points="809.15,-483.16 814.1,-492.53 816.08,-482.12 809.15,-483.16"/>
</g>
<!-- Node18 -->
<g id="node18" class="node">
<title>Node18</title>
<g id="a_node18"><a xlink:href="../../de/d0c/forces_8f90.html#a7b4708aaec3cc94526474c16bc3a16f0" target="_top" xlink:title="Compute the real&#45;space MHD forces.">
<polygon fill="white" stroke="black" points="444,-435.76 444,-454.76 488,-454.76 488,-435.76 444,-435.76"/>
<text text-anchor="middle" x="466" y="-442.76" font-family="Helvetica,sans-Serif" font-size="10.00">forces</text>
</a>
</g>
</g>
<!-- Node1&#45;&gt;Node18 -->
<g id="edge25" class="edge">
<title>Node1&#45;&gt;Node18</title>
<path fill="none" stroke="midnightblue" d="M790.13,-487.67C770.41,-476.79 742.1,-462.15 716,-452.26 673.87,-436.28 662.68,-432.08 618,-426.26 582.74,-421.66 573.25,-421.62 538,-426.26 520.92,-428.5 502.11,-433.66 488.14,-438.04"/>
<polygon fill="midnightblue" stroke="midnightblue" points="788.64,-490.85 799.08,-492.68 792.06,-484.74 788.64,-490.85"/>
</g>
<!-- Node19 -->
<g id="node19" class="node">
<title>Node19</title>
<g id="a_node19"><a xlink:href="../../d5/dfd/guess__axis_8f90.html#a375e34fe4656d4c51d5013939bf5617e" target="_top" xlink:title="Computes guess for magnetic axis if user guess leads to initial sign change of Jacobian.">
<polygon fill="white" stroke="black" points="244,-207.76 244,-226.76 309,-226.76 309,-207.76 244,-207.76"/>
<text text-anchor="middle" x="276.5" y="-214.76" font-family="Helvetica,sans-Serif" font-size="10.00">guess_axis</text>
</a>
</g>
</g>
<!-- Node1&#45;&gt;Node19 -->
<g id="edge28" class="edge">
<title>Node1&#45;&gt;Node19</title>
<path fill="none" stroke="midnightblue" d="M813.56,-482.55C807.84,-435.48 786.73,-315.77 716,-253.26 668.83,-211.56 641.96,-217.26 579,-217.26 579,-217.26 579,-217.26 465,-217.26 410.15,-217.26 346.27,-217.26 309.02,-217.26"/>
<polygon fill="midnightblue" stroke="midnightblue" points="810.1,-483.09 814.68,-492.64 817.05,-482.32 810.1,-483.09"/>
</g>
<!-- Node20 -->
<g id="node20" class="node">
<title>Node20</title>
<g id="a_node20"><a xlink:href="../../dc/df5/interp_8f90.html#a5bac7725cb89730c4bd187e158dc36ee" target="_top" xlink:title="Interpolate , &#160;and &#160;on full grid.">
<polygon fill="white" stroke="black" points="664.5,-93.76 664.5,-112.76 705.5,-112.76 705.5,-93.76 664.5,-93.76"/>
<text text-anchor="middle" x="685" y="-100.76" font-family="Helvetica,sans-Serif" font-size="10.00">interp</text>
</a>
</g>
</g>
<!-- Node1&#45;&gt;Node20 -->
<g id="edge30" class="edge">
<title>Node1&#45;&gt;Node20</title>
<path fill="none" stroke="midnightblue" d="M814.55,-482.55C810.87,-423.76 793.59,-246.28 716,-127.26 712.36,-121.67 706.98,-116.78 701.79,-112.91"/>
<polygon fill="midnightblue" stroke="midnightblue" points="811.06,-482.89 815.12,-492.68 818.05,-482.5 811.06,-482.89"/>
</g>
<!-- Node22 -->
<g id="node22" class="node">
<title>Node22</title>
<g id="a_node22"><a xlink:href="../../d8/dc3/jacobian_8f90.html#af346f65d2aa225d9ede6e0f23add6142" target="_top" xlink:title="Evaulate the Jacobian of the transform from flux&#45; to cylindrical coordinates.">
<polygon fill="white" stroke="black" points="551.5,-283.76 551.5,-302.76 604.5,-302.76 604.5,-283.76 551.5,-283.76"/>
<text text-anchor="middle" x="578" y="-290.76" font-family="Helvetica,sans-Serif" font-size="10.00">jacobian</text>
</a>
</g>
</g>
<!-- Node1&#45;&gt;Node22 -->
<g id="edge33" class="edge">
<title>Node1&#45;&gt;Node22</title>
<path fill="none" stroke="midnightblue" d="M811.03,-482.71C801.14,-444.24 773.59,-358.84 716,-317.26 683.01,-293.44 634.1,-290.58 604.51,-291.4"/>
<polygon fill="midnightblue" stroke="midnightblue" points="807.68,-483.75 813.45,-492.64 814.48,-482.1 807.68,-483.75"/>
</g>
<!-- Node23 -->
<g id="node23" class="node">
<title>Node23</title>
<g id="a_node23"><a xlink:href="../../d4/d51/lamcal_8f90.html#aae66bdcec0bbb969704413d933148096" target="_top" xlink:title="Normalization parameters for .">
<polygon fill="white" stroke="black" points="662.5,-663.76 662.5,-682.76 707.5,-682.76 707.5,-663.76 662.5,-663.76"/>
<text text-anchor="middle" x="685" y="-670.76" font-family="Helvetica,sans-Serif" font-size="10.00">lamcal</text>
</a>
</g>
</g>
<!-- Node1&#45;&gt;Node23 -->
<g id="edge35" class="edge">
<title>Node1&#45;&gt;Node23</title>
<path fill="none" stroke="midnightblue" d="M805.28,-521.01C788.81,-550.27 754.34,-607.74 716,-649.26 711.2,-654.45 705.24,-659.46 699.89,-663.54"/>
<polygon fill="midnightblue" stroke="midnightblue" points="808.54,-522.35 810.33,-511.91 802.42,-518.95 808.54,-522.35"/>
</g>
<!-- Node24 -->
<g id="node24" class="node">
<title>Node24</title>
<g id="a_node24"><a xlink:href="../../dd/d98/precal_8f90.html#a0dae73e848a4757092d7e9786d073d3d" target="_top" xlink:title="Pre&#45;compute constant terms required for NESTOR.">
<polygon fill="white" stroke="black" points="663.5,-815.76 663.5,-834.76 706.5,-834.76 706.5,-815.76 663.5,-815.76"/>
<text text-anchor="middle" x="685" y="-822.76" font-family="Helvetica,sans-Serif" font-size="10.00">precal</text>
</a>
</g>
</g>
<!-- Node1&#45;&gt;Node24 -->
<g id="edge38" class="edge">
<title>Node1&#45;&gt;Node24</title>
<path fill="none" stroke="midnightblue" d="M812.86,-522.15C805.36,-572.82 780.13,-709.23 716,-801.26 712.11,-806.84 706.56,-811.78 701.28,-815.71"/>
<polygon fill="midnightblue" stroke="midnightblue" points="816.37,-522.32 814.31,-511.93 809.44,-521.35 816.37,-522.32"/>
</g>
<!-- Node25 -->
<g id="node25" class="node">
<title>Node25</title>
<g id="a_node25"><a xlink:href="../../d7/d61/profil1d_8f90.html#a2bc38da2d3b36d16295159df2f8573e2" target="_top" xlink:title="Compute phip and iota profiles on full grid.">
<polygon fill="white" stroke="black" points="661.5,-55.76 661.5,-74.76 708.5,-74.76 708.5,-55.76 661.5,-55.76"/>
<text text-anchor="middle" x="685" y="-62.76" font-family="Helvetica,sans-Serif" font-size="10.00">profil1d</text>
</a>
</g>
</g>
<!-- Node1&#45;&gt;Node25 -->
<g id="edge40" class="edge">
<title>Node1&#45;&gt;Node25</title>
<path fill="none" stroke="midnightblue" d="M815.83,-482.42C815.94,-418.41 808.62,-214 716,-84.26 713.35,-80.54 709.72,-77.39 705.91,-74.78"/>
<polygon fill="midnightblue" stroke="midnightblue" points="812.33,-482.66 815.75,-492.68 819.33,-482.72 812.33,-482.66"/>
</g>
<!-- Node26 -->
<g id="node26" class="node">
<title>Node26</title>
<g id="a_node26"><a xlink:href="../../dd/d75/profil3d_8f90.html#a67d2774ceac255f1e1f75e54f4679e9c" target="_top" xlink:title="Compute three&#45;dimensional profiles of flux&#45;surface geometry etc.">
<polygon fill="white" stroke="black" points="661.5,-169.76 661.5,-188.76 708.5,-188.76 708.5,-169.76 661.5,-169.76"/>
<text text-anchor="middle" x="685" y="-176.76" font-family="Helvetica,sans-Serif" font-size="10.00">profil3d</text>
</a>
</g>
</g>
<!-- Node1&#45;&gt;Node26 -->
<g id="edge42" class="edge">
<title>Node1&#45;&gt;Node26</title>
<path fill="none" stroke="midnightblue" d="M812.86,-482.36C805.36,-431.69 780.13,-295.28 716,-203.26 712.11,-197.67 706.56,-192.73 701.28,-188.8"/>
<polygon fill="midnightblue" stroke="midnightblue" points="809.44,-483.17 814.31,-492.58 816.37,-482.19 809.44,-483.17"/>
</g>
<!-- Node27 -->
<g id="node27" class="node">
<title>Node27</title>
<g id="a_node27"><a xlink:href="../../d8/da3/readin_8f90.html#a60f2bfd8fc6f7c3e027a8f91ef0c7b25" target="_top" xlink:title="Read the input file.">
<polygon fill="white" stroke="black" points="348,-27.76 348,-46.76 391,-46.76 391,-27.76 348,-27.76"/>
<text text-anchor="middle" x="369.5" y="-34.76" font-family="Helvetica,sans-Serif" font-size="10.00">readin</text>
</a>
</g>
</g>
<!-- Node1&#45;&gt;Node27 -->
<g id="edge45" class="edge">
<title>Node1&#45;&gt;Node27</title>
<path fill="none" stroke="midnightblue" d="M814.31,-482.35C809.05,-402.03 785.04,-103.35 716,-46.26 619.36,33.67 450.23,-10.91 391.39,-29.97"/>
<polygon fill="midnightblue" stroke="midnightblue" points="810.83,-482.8 814.95,-492.56 817.81,-482.36 810.83,-482.8"/>
</g>
<!-- Node28 -->
<g id="node28" class="node">
<title>Node28</title>
<g id="a_node28"><a xlink:href="../../db/d5a/residue_8f90.html#a2390b3cf93196383bbe960acb85b3e32" target="_top" xlink:title="Compute invariant residuals.">
<polygon fill="white" stroke="black" points="442,-321.76 442,-340.76 490,-340.76 490,-321.76 442,-321.76"/>
<text text-anchor="middle" x="466" y="-328.76" font-family="Helvetica,sans-Serif" font-size="10.00">residue</text>
</a>
</g>
</g>
<!-- Node1&#45;&gt;Node28 -->
<g id="edge47" class="edge">
<title>Node1&#45;&gt;Node28</title>
<path fill="none" stroke="midnightblue" d="M807.05,-483.43C792.78,-453.99 761.02,-397.48 716,-369.26 643.57,-323.84 536.55,-325.63 490.01,-329.01"/>
<polygon fill="midnightblue" stroke="midnightblue" points="803.94,-485.06 811.36,-492.63 810.28,-482.09 803.94,-485.06"/>
</g>
<!-- Node29 -->
<g id="node29" class="node">
<title>Node29</title>
<g id="a_node29"><a xlink:href="../../d8/d86/scalfor_8f90.html#a2ef9c34d20ddf30cb7b15fe35066b8ca" target="_top" xlink:title="Build forces from different contributions.">
<polygon fill="white" stroke="black" points="555,-359.76 555,-378.76 601,-378.76 601,-359.76 555,-359.76"/>
<text text-anchor="middle" x="578" y="-366.76" font-family="Helvetica,sans-Serif" font-size="10.00">scalfor</text>
</a>
</g>
</g>
<!-- Node1&#45;&gt;Node29 -->
<g id="edge49" class="edge">
<title>Node1&#45;&gt;Node29</title>
<path fill="none" stroke="midnightblue" d="M804.37,-483.9C788.23,-459.01 755.83,-415.13 716,-393.26 679.38,-373.15 629.69,-369.26 601.32,-368.85"/>
<polygon fill="midnightblue" stroke="midnightblue" points="801.45,-485.84 809.75,-492.43 807.38,-482.11 801.45,-485.84"/>
</g>
<!-- Node32 -->
<g id="node32" class="node">
<title>Node32</title>
<g id="a_node32"><a xlink:href="../../d6/d03/surface_8f90.html#ad7b6446e720a806f41f10dd1eb0b6f88" target="_top" xlink:title="Evaluate the geometry of the LCFS and tangential derivatives.">
<polygon fill="white" stroke="black" points="553.5,-777.76 553.5,-796.76 602.5,-796.76 602.5,-777.76 553.5,-777.76"/>
<text text-anchor="middle" x="578" y="-784.76" font-family="Helvetica,sans-Serif" font-size="10.00">surface</text>
</a>
</g>
</g>
<!-- Node1&#45;&gt;Node32 -->
<g id="edge56" class="edge">
<title>Node1&#45;&gt;Node32</title>
<path fill="none" stroke="midnightblue" d="M814.33,-521.98C810.28,-571.22 792.51,-700.11 716,-763.26 683.78,-789.85 632.54,-791.46 602.71,-789.71"/>
<polygon fill="midnightblue" stroke="midnightblue" points="817.82,-522.22 815.05,-511.99 810.84,-521.72 817.82,-522.22"/>
</g>
<!-- Node33 -->
<g id="node33" class="node">
<title>Node33</title>
<g id="a_node33"><a xlink:href="../../d4/df3/symforce_8f90.html#a169610bcc5544fc8e16ad1e10ac85dcb" target="_top" xlink:title="Symmetrize forces on restricted &#160;interval &#160;so cos, sin integrals can be performed.">
<polygon fill="white" stroke="black" points="438,-587.76 438,-606.76 494,-606.76 494,-587.76 438,-587.76"/>
<text text-anchor="middle" x="466" y="-594.76" font-family="Helvetica,sans-Serif" font-size="10.00">symforce</text>
</a>
</g>
</g>
<!-- Node1&#45;&gt;Node33 -->
<g id="edge58" class="edge">
<title>Node1&#45;&gt;Node33</title>
<path fill="none" stroke="midnightblue" d="M779.02,-515.09C760.29,-521.5 737.04,-529.16 716,-535.26 635.99,-558.45 540.01,-580.84 494.08,-591.23"/>
<polygon fill="midnightblue" stroke="midnightblue" points="780.33,-518.35 788.65,-511.78 778.05,-511.73 780.33,-518.35"/>
</g>
<!-- Node34 -->
<g id="node34" class="node">
<title>Node34</title>
<g id="a_node34"><a xlink:href="../../d0/d6f/tomnsp_8f90.html#a6c7345c0aa0f13f311650d9633e6ecf8" target="_top" xlink:title="Fourier&#45;transform anti&#45;symmetric forces from real space to Fourier space.">
<polygon fill="white" stroke="black" points="439,-549.76 439,-568.76 493,-568.76 493,-549.76 439,-549.76"/>
<text text-anchor="middle" x="466" y="-556.76" font-family="Helvetica,sans-Serif" font-size="10.00">tomnspa</text>
</a>
</g>
</g>
<!-- Node1&#45;&gt;Node34 -->
<g id="edge60" class="edge">
<title>Node1&#45;&gt;Node34</title>
<path fill="none" stroke="midnightblue" d="M741.55,-512.87C685.56,-521.12 606.82,-533.14 538,-545.26 523.15,-547.87 506.62,-551.11 493.25,-553.81"/>
<polygon fill="midnightblue" stroke="midnightblue" points="742.34,-516.29 751.73,-511.38 741.33,-509.37 742.34,-516.29"/>
</g>
<!-- Node35 -->
<g id="node35" class="node">
<title>Node35</title>
<g id="a_node35"><a xlink:href="../../d0/d6f/tomnsp_8f90.html#aec4b11e4f55e18c6bfc0348c263e31db" target="_top" xlink:title="Fourier&#45;transform symmetric forces from real space to Fourier space.">
<polygon fill="white" stroke="black" points="551,-435.76 551,-454.76 605,-454.76 605,-435.76 551,-435.76"/>
<text text-anchor="middle" x="578" y="-442.76" font-family="Helvetica,sans-Serif" font-size="10.00">tomnsps</text>
</a>
</g>
</g>
<!-- Node1&#45;&gt;Node35 -->
<g id="edge62" class="edge">
<title>Node1&#45;&gt;Node35</title>
<path fill="none" stroke="midnightblue" d="M780.37,-489.2C761.49,-482.55 737.69,-474.72 716,-469.26 677.95,-459.67 633,-452.58 605.25,-448.69"/>
<polygon fill="midnightblue" stroke="midnightblue" points="779.44,-492.59 790.04,-492.66 781.8,-486 779.44,-492.59"/>
</g>
<!-- Node2&#45;&gt;Node3 -->
<g id="edge2" class="edge">
<title>Node2&#45;&gt;Node3</title>
<path fill="none" stroke="midnightblue" d="M647.71,-610.39C632.25,-615.98 614.72,-622.33 601.23,-627.21"/>
<polygon fill="midnightblue" stroke="midnightblue" points="649.29,-613.54 657.5,-606.84 646.91,-606.96 649.29,-613.54"/>
</g>
<!-- Node3&#45;&gt;Node4 -->
<g id="edge3" class="edge">
<title>Node3&#45;&gt;Node4</title>
<path fill="none" stroke="midnightblue" d="M544.67,-639.89C512.26,-642.7 462.61,-641.73 430,-616.26 383.32,-579.8 373.2,-501.56 371.06,-474.06"/>
<polygon fill="midnightblue" stroke="midnightblue" points="545.37,-643.34 554.96,-638.83 544.65,-636.38 545.37,-643.34"/>
</g>
<!-- Node4&#45;&gt;Node5 -->
<g id="edge4" class="edge">
<title>Node4&#45;&gt;Node5</title>
<path fill="none" stroke="midnightblue" d="M360.28,-445.37C341.44,-402.1 295.71,-297.08 281.67,-264.84"/>
<polygon fill="midnightblue" stroke="midnightblue" points="357.15,-446.96 364.35,-454.73 363.57,-444.17 357.15,-446.96"/>
</g>
<!-- Node9 -->
<g id="node9" class="node">
<title>Node9</title>
<g id="a_node9"><a xlink:href="../../d0/d71/fileout_8f90.html#a7228e984aaf2c38bd772e3d846fab7af" target="_top" xlink:title="Write the output files.">
<polygon fill="white" stroke="black" points="255.5,-454.76 255.5,-473.76 297.5,-473.76 297.5,-454.76 255.5,-454.76"/>
<text text-anchor="middle" x="276.5" y="-461.76" font-family="Helvetica,sans-Serif" font-size="10.00">fileout</text>
</a>
</g>
</g>
<!-- Node4&#45;&gt;Node9 -->
<g id="edge8" class="edge">
<title>Node4&#45;&gt;Node9</title>
<path fill="none" stroke="midnightblue" d="M334.52,-464.26C322.07,-464.26 308.4,-464.26 297.56,-464.26"/>
<polygon fill="midnightblue" stroke="midnightblue" points="334.59,-467.76 344.59,-464.26 334.59,-460.76 334.59,-467.76"/>
</g>
<!-- Node6 -->
<g id="node6" class="node">
<title>Node6</title>
<g id="a_node6"><a xlink:href="../../d7/d46/eqsolve_8f90.html#ab740b09d1b651e2ab8a60c5d552df0c2" target="_top" xlink:title="Iteratively evolve the Fourier coefficients that specify the equilibrium.">
<polygon fill="white" stroke="black" points="158,-198.76 158,-217.76 208,-217.76 208,-198.76 158,-198.76"/>
<text text-anchor="middle" x="183" y="-205.76" font-family="Helvetica,sans-Serif" font-size="10.00">eqsolve</text>
</a>
</g>
</g>
<!-- Node5&#45;&gt;Node6 -->
<g id="edge5" class="edge">
<title>Node5&#45;&gt;Node6</title>
<path fill="none" stroke="midnightblue" d="M247.9,-241.08C233.32,-233.59 215.81,-224.59 202.8,-217.91"/>
<polygon fill="midnightblue" stroke="midnightblue" points="246.49,-244.29 256.98,-245.74 249.69,-238.06 246.49,-244.29"/>
</g>
<!-- Node6&#45;&gt;Node7 -->
<g id="edge6" class="edge">
<title>Node6&#45;&gt;Node7</title>
<path fill="none" stroke="midnightblue" d="M147.71,-203.94C138.96,-202.84 129.84,-201.7 122.11,-200.72"/>
<polygon fill="midnightblue" stroke="midnightblue" points="147.36,-207.43 157.72,-205.2 148.23,-200.48 147.36,-207.43"/>
</g>
<!-- Node8 -->
<g id="node8" class="node">
<title>Node8</title>
<g id="a_node8"><a xlink:href="../../db/d61/vmec_8f90.html#ace5bdf043bb85c8f0a9fc582bdb55725" target="_top" xlink:title="Main program of VMEC.">
<polygon fill="white" stroke="black" points="0,-188.76 0,-207.76 45,-207.76 45,-188.76 0,-188.76"/>
<text text-anchor="middle" x="22.5" y="-195.76" font-family="Helvetica,sans-Serif" font-size="10.00">xvmec</text>
</a>
</g>
</g>
<!-- Node7&#45;&gt;Node8 -->
<g id="edge7" class="edge">
<title>Node7&#45;&gt;Node8</title>
<path fill="none" stroke="midnightblue" d="M70.42,-198.26C61.99,-198.26 52.99,-198.26 45.16,-198.26"/>
<polygon fill="midnightblue" stroke="midnightblue" points="70.67,-201.76 80.67,-198.26 70.67,-194.76 70.67,-201.76"/>
</g>
<!-- Node9&#45;&gt;Node7 -->
<g id="edge9" class="edge">
<title>Node9&#45;&gt;Node7</title>
<path fill="none" stroke="midnightblue" d="M263.58,-445.92C229.77,-393.94 134.1,-246.85 108.74,-207.85"/>
<polygon fill="midnightblue" stroke="midnightblue" points="260.75,-448 269.14,-454.47 266.62,-444.18 260.75,-448"/>
</g>
<!-- Node10&#45;&gt;Node11 -->
<g id="edge11" class="edge">
<title>Node10&#45;&gt;Node11</title>
<path fill="none" stroke="midnightblue" d="M653.57,-901.26C637.16,-901.26 617.23,-901.26 602.11,-901.26"/>
<polygon fill="midnightblue" stroke="midnightblue" points="653.75,-904.76 663.75,-901.26 653.75,-897.76 653.75,-904.76"/>
</g>
<!-- Node11&#45;&gt;Node12 -->
<g id="edge12" class="edge">
<title>Node11&#45;&gt;Node12</title>
<path fill="none" stroke="midnightblue" d="M544.98,-886.88C542.55,-885.42 540.2,-883.88 538,-882.26 511.28,-862.51 486.29,-831.89 474.35,-816.22"/>
<polygon fill="midnightblue" stroke="midnightblue" points="543.46,-890.04 553.92,-891.74 546.8,-883.89 543.46,-890.04"/>
</g>
<!-- Node12&#45;&gt;Node4 -->
<g id="edge13" class="edge">
<title>Node12&#45;&gt;Node4</title>
<path fill="none" stroke="midnightblue" d="M459.62,-786.79C441.94,-722.8 386.03,-520.44 373.16,-473.88"/>
<polygon fill="midnightblue" stroke="midnightblue" points="456.34,-788.05 462.37,-796.75 463.08,-786.18 456.34,-788.05"/>
</g>
<!-- Node13 -->
<g id="node13" class="node">
<title>Node13</title>
<g id="a_node13"><a xlink:href="../../d4/d69/nestor__main_8f90.html#a1b0fd336e80285a96925333daa2ee8f0" target="_top" xlink:title="Main program of stand&#45;alone version of NESTOR.">
<polygon fill="white" stroke="black" points="347.5,-796.76 347.5,-815.76 391.5,-815.76 391.5,-796.76 347.5,-796.76"/>
<text text-anchor="middle" x="369.5" y="-803.76" font-family="Helvetica,sans-Serif" font-size="10.00">nestor</text>
</a>
</g>
</g>
<!-- Node12&#45;&gt;Node13 -->
<g id="edge14" class="edge">
<title>Node12&#45;&gt;Node13</title>
<path fill="none" stroke="midnightblue" d="M430.17,-806.26C417.24,-806.26 402.98,-806.26 391.64,-806.26"/>
<polygon fill="midnightblue" stroke="midnightblue" points="430.17,-809.76 440.17,-806.26 430.17,-802.76 430.17,-809.76"/>
</g>
<!-- Node14&#45;&gt;Node12 -->
<g id="edge17" class="edge">
<title>Node14&#45;&gt;Node12</title>
<path fill="none" stroke="midnightblue" d="M549.38,-848.94C529.37,-838.57 502.86,-824.84 485.38,-815.78"/>
<polygon fill="midnightblue" stroke="midnightblue" points="547.85,-852.09 558.34,-853.59 551.07,-845.88 547.85,-852.09"/>
</g>
<!-- Node15&#45;&gt;Node3 -->
<g id="edge19" class="edge">
<title>Node15&#45;&gt;Node3</title>
<path fill="none" stroke="midnightblue" d="M659.74,-696.14C657.79,-694.85 655.85,-693.54 654,-692.26 631.17,-676.39 605.59,-656.46 590.98,-644.86"/>
<polygon fill="midnightblue" stroke="midnightblue" points="657.96,-699.16 668.26,-701.64 661.76,-693.28 657.96,-699.16"/>
</g>
<!-- Node16 -->
<g id="node16" class="node">
<title>Node16</title>
<g id="a_node16"><a xlink:href="../../d0/d22/eqfor_8f90.html#a4579124c405a906bf05b3d3a0da2d105" target="_top" xlink:title="Basis physics analysis and evaluaton of force balance. This is where most of the contents of the thre...">
<polygon fill="white" stroke="black" points="350.5,-578.76 350.5,-597.76 388.5,-597.76 388.5,-578.76 350.5,-578.76"/>
<text text-anchor="middle" x="369.5" y="-585.76" font-family="Helvetica,sans-Serif" font-size="10.00">eqfor</text>
</a>
</g>
</g>
<!-- Node15&#45;&gt;Node16 -->
<g id="edge20" class="edge">
<title>Node15&#45;&gt;Node16</title>
<path fill="none" stroke="midnightblue" d="M646.93,-706.46C595.62,-698.66 501.23,-680.01 430,-641.26 409.1,-629.88 389.42,-609.87 378.76,-597.96"/>
<polygon fill="midnightblue" stroke="midnightblue" points="646.5,-709.94 656.9,-707.93 647.51,-703.01 646.5,-709.94"/>
</g>
<!-- Node16&#45;&gt;Node9 -->
<g id="edge21" class="edge">
<title>Node16&#45;&gt;Node9</title>
<path fill="none" stroke="midnightblue" d="M355.43,-570.45C335.93,-543.87 299.86,-494.73 284.61,-473.94"/>
<polygon fill="midnightblue" stroke="midnightblue" points="352.62,-572.53 361.36,-578.53 358.26,-568.39 352.62,-572.53"/>
</g>
<!-- Node17&#45;&gt;Node7 -->
<g id="edge24" class="edge">
<title>Node17&#45;&gt;Node7</title>
<path fill="none" stroke="midnightblue" d="M152.87,-174.18C142.6,-179.09 131.29,-184.49 122.01,-188.93"/>
<polygon fill="midnightblue" stroke="midnightblue" points="154.43,-177.32 161.94,-169.84 151.41,-171 154.43,-177.32"/>
</g>
<!-- Node18&#45;&gt;Node4 -->
<g id="edge26" class="edge">
<title>Node18&#45;&gt;Node4</title>
<path fill="none" stroke="midnightblue" d="M433.7,-451.55C420.82,-454.14 406.14,-457.09 394.18,-459.49"/>
<polygon fill="midnightblue" stroke="midnightblue" points="434.44,-454.97 443.56,-449.57 433.06,-448.11 434.44,-454.97"/>
</g>
<!-- Node19&#45;&gt;Node6 -->
<g id="edge29" class="edge">
<title>Node19&#45;&gt;Node6</title>
<path fill="none" stroke="midnightblue" d="M233.67,-213.14C224.94,-212.28 216.02,-211.41 208.19,-210.63"/>
<polygon fill="midnightblue" stroke="midnightblue" points="233.46,-216.64 243.75,-214.13 234.15,-209.67 233.46,-216.64"/>
</g>
<!-- Node21 -->
<g id="node21" class="node">
<title>Node21</title>
<g id="a_node21"><a xlink:href="../../d9/da6/initialize__radial_8f90.html#a187faea543d3a42bc748511f04b5b7d5" target="_top" xlink:title="Allocates memory for radial arrays and initializes radial profiles.">
<polygon fill="white" stroke="black" points="538,-93.76 538,-112.76 618,-112.76 618,-93.76 538,-93.76"/>
<text text-anchor="middle" x="578" y="-100.76" font-family="Helvetica,sans-Serif" font-size="10.00">initialize_radial</text>
</a>
</g>
</g>
<!-- Node20&#45;&gt;Node21 -->
<g id="edge31" class="edge">
<title>Node20&#45;&gt;Node21</title>
<path fill="none" stroke="midnightblue" d="M654.15,-103.26C642.98,-103.26 630.12,-103.26 618.24,-103.26"/>
<polygon fill="midnightblue" stroke="midnightblue" points="654.25,-106.76 664.25,-103.26 654.25,-99.76 654.25,-106.76"/>
</g>
<!-- Node21&#45;&gt;Node7 -->
<g id="edge32" class="edge">
<title>Node21&#45;&gt;Node7</title>
<path fill="none" stroke="midnightblue" d="M527.6,-103.26C485.77,-103.26 424.21,-103.26 370.5,-103.26 370.5,-103.26 370.5,-103.26 275.5,-103.26 220.61,-103.26 204.63,-112.3 158,-141.26 137.58,-153.94 119.28,-175.71 109.65,-188.36"/>
<polygon fill="midnightblue" stroke="midnightblue" points="527.8,-106.76 537.8,-103.26 527.8,-99.76 527.8,-106.76"/>
</g>
<!-- Node22&#45;&gt;Node4 -->
<g id="edge34" class="edge">
<title>Node22&#45;&gt;Node4</title>
<path fill="none" stroke="midnightblue" d="M541.08,-288.33C508.68,-285.92 461.43,-287.71 430,-312.26 383.32,-348.71 373.2,-426.95 371.06,-454.45"/>
<polygon fill="midnightblue" stroke="midnightblue" points="541.17,-291.85 551.45,-289.28 541.81,-284.88 541.17,-291.85"/>
</g>
<!-- Node23&#45;&gt;Node3 -->
<g id="edge36" class="edge">
<title>Node23&#45;&gt;Node3</title>
<path fill="none" stroke="midnightblue" d="M652.69,-661.93C636.12,-655.93 616.16,-648.7 601.2,-643.29"/>
<polygon fill="midnightblue" stroke="midnightblue" points="651.9,-665.36 662.5,-665.47 654.29,-658.78 651.9,-665.36"/>
</g>
<!-- Node24&#45;&gt;Node12 -->
<g id="edge39" class="edge">
<title>Node24&#45;&gt;Node12</title>
<path fill="none" stroke="midnightblue" d="M653.21,-822.56C609.82,-818.76 531.52,-811.91 491.7,-808.42"/>
<polygon fill="midnightblue" stroke="midnightblue" points="652.93,-826.05 663.19,-823.43 653.54,-819.08 652.93,-826.05"/>
</g>
<!-- Node25&#45;&gt;Node21 -->
<g id="edge41" class="edge">
<title>Node25&#45;&gt;Node21</title>
<path fill="none" stroke="midnightblue" d="M651.71,-76.94C636.92,-82.3 619.6,-88.56 605.57,-93.64"/>
<polygon fill="midnightblue" stroke="midnightblue" points="653.26,-80.1 661.47,-73.41 650.88,-73.52 653.26,-80.1"/>
</g>
<!-- Node26&#45;&gt;Node6 -->
<g id="edge43" class="edge">
<title>Node26&#45;&gt;Node6</title>
<path fill="none" stroke="midnightblue" d="M651.14,-179.26C608.64,-179.26 532.29,-179.26 467,-179.26 467,-179.26 467,-179.26 368.5,-179.26 310.46,-179.26 243.38,-193.43 208.28,-201.96"/>
<polygon fill="midnightblue" stroke="midnightblue" points="651.19,-182.76 661.19,-179.26 651.19,-175.76 651.19,-182.76"/>
</g>
<!-- Node26&#45;&gt;Node21 -->
<g id="edge44" class="edge">
<title>Node26&#45;&gt;Node21</title>
<path fill="none" stroke="midnightblue" d="M662.36,-163.59C641.24,-148.31 609.81,-125.55 592.19,-112.8"/>
<polygon fill="midnightblue" stroke="midnightblue" points="660.55,-166.6 670.7,-169.63 664.65,-160.93 660.55,-166.6"/>
</g>
<!-- Node27&#45;&gt;Node7 -->
<g id="edge46" class="edge">
<title>Node27&#45;&gt;Node7</title>
<path fill="none" stroke="midnightblue" d="M337.66,-37.15C293.29,-38.56 210.98,-47.2 158,-89.26 124.74,-115.66 109.57,-167.34 104.53,-188.68"/>
<polygon fill="midnightblue" stroke="midnightblue" points="337.9,-40.65 347.82,-36.94 337.75,-33.65 337.9,-40.65"/>
</g>
<!-- Node28&#45;&gt;Node4 -->
<g id="edge48" class="edge">
<title>Node28&#45;&gt;Node4</title>
<path fill="none" stroke="midnightblue" d="M433.97,-346.68C432.57,-347.81 431.23,-349 430,-350.26 398.84,-381.93 380.17,-433.24 373.4,-454.53"/>
<polygon fill="midnightblue" stroke="midnightblue" points="436.21,-349.39 442.52,-340.88 432.28,-343.6 436.21,-349.39"/>
</g>
<!-- Node29&#45;&gt;Node28 -->
<g id="edge50" class="edge">
<title>Node29&#45;&gt;Node28</title>
<path fill="none" stroke="midnightblue" d="M544.96,-358.19C527.49,-352.15 506.26,-344.82 490.37,-339.33"/>
<polygon fill="midnightblue" stroke="midnightblue" points="544.15,-361.61 554.74,-361.57 546.43,-354.99 544.15,-361.61"/>
</g>
<!-- Node30 -->
<g id="node30" class="node">
<title>Node30</title>
<g id="a_node30"><a xlink:href="../../d3/d96/residue__con_8f90.html#a8b2d4eb1bd167c336b39b899858e7bfb" target="_top" xlink:title="Compute invariant residuals.">
<polygon fill="white" stroke="black" points="431.5,-359.76 431.5,-378.76 500.5,-378.76 500.5,-359.76 431.5,-359.76"/>
<text text-anchor="middle" x="466" y="-366.76" font-family="Helvetica,sans-Serif" font-size="10.00">residue_con</text>
</a>
</g>
</g>
<!-- Node29&#45;&gt;Node30 -->
<g id="edge51" class="edge">
<title>Node29&#45;&gt;Node30</title>
<path fill="none" stroke="midnightblue" d="M544.65,-369.26C530.75,-369.26 514.53,-369.26 500.51,-369.26"/>
<polygon fill="midnightblue" stroke="midnightblue" points="544.74,-372.76 554.74,-369.26 544.74,-365.76 544.74,-372.76"/>
</g>
<!-- Node31 -->
<g id="node31" class="node">
<title>Node31</title>
<g id="a_node31"><a xlink:href="../../d5/d62/residue__mhd_8f90.html#a3ed729a2f8c8d70e4d2fef05c9dfc4c8" target="_top" xlink:title="Compute invariant residuals.">
<polygon fill="white" stroke="black" points="430,-397.76 430,-416.76 502,-416.76 502,-397.76 430,-397.76"/>
<text text-anchor="middle" x="466" y="-404.76" font-family="Helvetica,sans-Serif" font-size="10.00">residue_mhd</text>
</a>
</g>
</g>
<!-- Node29&#45;&gt;Node31 -->
<g id="edge53" class="edge">
<title>Node29&#45;&gt;Node31</title>
<path fill="none" stroke="midnightblue" d="M545.26,-380.22C529.28,-385.74 510.08,-392.37 494.7,-397.69"/>
<polygon fill="midnightblue" stroke="midnightblue" points="546.43,-383.52 554.74,-376.95 544.15,-376.9 546.43,-383.52"/>
</g>
<!-- Node30&#45;&gt;Node4 -->
<g id="edge52" class="edge">
<title>Node30&#45;&gt;Node4</title>
<path fill="none" stroke="midnightblue" d="M435.47,-384.1C433.56,-385.42 431.72,-386.8 430,-388.26 406.46,-408.17 386.02,-438.72 376.39,-454.33"/>
<polygon fill="midnightblue" stroke="midnightblue" points="437.42,-387.01 444.11,-378.78 433.76,-381.04 437.42,-387.01"/>
</g>
<!-- Node31&#45;&gt;Node4 -->
<g id="edge54" class="edge">
<title>Node31&#45;&gt;Node4</title>
<path fill="none" stroke="midnightblue" d="M437.8,-421.78C435.15,-423.26 432.51,-424.77 430,-426.26 414.37,-435.47 396.93,-446.73 384.99,-454.59"/>
<polygon fill="midnightblue" stroke="midnightblue" points="439.63,-424.76 446.7,-416.87 436.25,-418.63 439.63,-424.76"/>
</g>
<!-- Node32&#45;&gt;Node12 -->
<g id="edge57" class="edge">
<title>Node32&#45;&gt;Node12</title>
<path fill="none" stroke="midnightblue" d="M543.49,-793.04C526.8,-795.93 506.98,-799.35 491.7,-801.99"/>
<polygon fill="midnightblue" stroke="midnightblue" points="544.14,-796.48 553.4,-791.33 542.95,-789.59 544.14,-796.48"/>
</g>
<!-- Node33&#45;&gt;Node4 -->
<g id="edge59" class="edge">
<title>Node33&#45;&gt;Node4</title>
<path fill="none" stroke="midnightblue" d="M433.97,-581.83C432.57,-580.7 431.23,-579.51 430,-578.26 398.84,-546.59 380.17,-495.27 373.4,-473.98"/>
<polygon fill="midnightblue" stroke="midnightblue" points="432.28,-584.92 442.52,-587.63 436.21,-579.12 432.28,-584.92"/>
</g>
<!-- Node34&#45;&gt;Node4 -->
<g id="edge61" class="edge">
<title>Node34&#45;&gt;Node4</title>
<path fill="none" stroke="midnightblue" d="M440.55,-543.77C436.89,-541.09 433.25,-538.21 430,-535.26 408.57,-515.8 387.86,-488.6 377.45,-474.17"/>
<polygon fill="midnightblue" stroke="midnightblue" points="438.77,-546.79 448.99,-549.6 442.75,-541.03 438.77,-546.79"/>
</g>
<!-- Node35&#45;&gt;Node4 -->
<g id="edge63" class="edge">
<title>Node35&#45;&gt;Node4</title>
<path fill="none" stroke="midnightblue" d="M541.06,-456.29C528.79,-459.53 514.91,-462.65 502,-464.26 464.62,-468.92 420.8,-467.57 394.37,-466.02"/>
<polygon fill="midnightblue" stroke="midnightblue" points="542.22,-459.6 550.93,-453.56 540.35,-452.85 542.22,-459.6"/>
</g>
</g>
</svg>
