<?xml version="1.0" encoding="UTF-8" standalone="no"?>
<!DOCTYPE svg PUBLIC "-//W3C//DTD SVG 1.1//EN"
 "http://www.w3.org/Graphics/SVG/1.1/DTD/svg11.dtd">
<!-- Generated by graphviz version 2.50.0 (20220203.2022)
 -->
<!-- Title: dbgout::open_dbg_context Pages: 1 -->
<svg width="889pt" height="1253pt"
 viewBox="0.00 0.00 889.00 1252.77" xmlns="http://www.w3.org/2000/svg" xmlns:xlink="http://www.w3.org/1999/xlink">
<g id="graph0" class="graph" transform="scale(1 1) rotate(0) translate(4 1248.77)">
<title>dbgout::open_dbg_context</title>
<polygon fill="white" stroke="transparent" points="-4,4 -4,-1248.77 885,-1248.77 885,4 -4,4"/>
<!-- Node1 -->
<g id="node1" class="node">
<title>Node1</title>
<g id="a_node1"><a xlink:title="check if any output is desired for the current iteration check if the given context should be openend...">
<polygon fill="#bfbfbf" stroke="black" points="752,-627.01 752,-646.01 881,-646.01 881,-627.01 752,-627.01"/>
<text text-anchor="middle" x="816.5" y="-634.01" font-family="Helvetica,sans-Serif" font-size="10.00">dbgout::open_dbg_context</text>
</a>
</g>
</g>
<!-- Node1&#45;&gt;Node1 -->
<g id="edge51" class="edge">
<title>Node1&#45;&gt;Node1</title>
<path fill="none" stroke="midnightblue" d="M840.68,-655.54C839.36,-660.64 831.3,-664.51 816.5,-664.51 793.39,-664.51 786.72,-655.07 796.46,-646.27"/>
<polygon fill="midnightblue" stroke="midnightblue" points="843.81,-653.97 836.54,-646.27 837.42,-656.82 843.81,-653.97"/>
</g>
<!-- Node2 -->
<g id="node2" class="node">
<title>Node2</title>
<g id="a_node2"><a xlink:href="../../d8/d7d/add__fluxes_8f90.html#a988e7013ef02301b9cfbde5b8068d5af" target="_top" xlink:title="Add the magnetic fluxes to the tangential derivatives of &#160;to arrive at the contravariant magnetic fie...">
<polygon fill="white" stroke="black" points="654,-551.01 654,-570.01 716,-570.01 716,-551.01 654,-551.01"/>
<text text-anchor="middle" x="685" y="-558.01" font-family="Helvetica,sans-Serif" font-size="10.00">add_fluxes</text>
</a>
</g>
</g>
<!-- Node1&#45;&gt;Node2 -->
<g id="edge1" class="edge">
<title>Node1&#45;&gt;Node2</title>
<path fill="none" stroke="midnightblue" d="M790.19,-621.65C764.15,-606.38 724.38,-583.04 702.27,-570.06"/>
<polygon fill="midnightblue" stroke="midnightblue" points="788.7,-624.84 799.1,-626.88 792.25,-618.8 788.7,-624.84"/>
</g>
<!-- Node3 -->
<g id="node3" class="node">
<title>Node3</title>
<g id="a_node3"><a xlink:href="../../d7/d61/bcovar_8f90.html#a1e1624195f0c0c7daa9f49d83bae5ce8" target="_top" xlink:title="Compute the covariant components of the magnetic field , .">
<polygon fill="white" stroke="black" points="555,-513.01 555,-532.01 601,-532.01 601,-513.01 555,-513.01"/>
<text text-anchor="middle" x="578" y="-520.01" font-family="Helvetica,sans-Serif" font-size="10.00">bcovar</text>
</a>
</g>
</g>
<!-- Node1&#45;&gt;Node3 -->
<g id="edge15" class="edge">
<title>Node1&#45;&gt;Node3</title>
<path fill="none" stroke="midnightblue" d="M807.83,-617.09C794.48,-586.32 763.74,-527.42 716,-503.51 677.78,-484.37 626.48,-501.03 598.76,-512.96"/>
<polygon fill="midnightblue" stroke="midnightblue" points="804.75,-618.81 811.83,-626.69 811.22,-616.12 804.75,-618.81"/>
</g>
<!-- Node4 -->
<g id="node4" class="node">
<title>Node4</title>
<g id="a_node4"><a xlink:href="../../d3/d4f/funct3d_8f90.html#a800bacc22176e16323899df87b55c547" target="_top" xlink:title="Evaluate the three&#45;dimensional MHD energy functional. Think of this as the &quot;forward model&quot; that tells...">
<polygon fill="white" stroke="black" points="345,-646.01 345,-665.01 394,-665.01 394,-646.01 345,-646.01"/>
<text text-anchor="middle" x="369.5" y="-653.01" font-family="Helvetica,sans-Serif" font-size="10.00">funct3d</text>
</a>
</g>
</g>
<!-- Node1&#45;&gt;Node4 -->
<g id="edge37" class="edge">
<title>Node1&#45;&gt;Node4</title>
<path fill="none" stroke="midnightblue" d="M773.31,-624.24C686.28,-599.91 489.97,-550.3 430,-579.51 401.38,-593.45 382.47,-628.56 374.62,-645.74"/>
<polygon fill="midnightblue" stroke="midnightblue" points="772.54,-627.66 783.12,-627.01 774.44,-620.93 772.54,-627.66"/>
</g>
<!-- Node5 -->
<g id="node5" class="node">
<title>Node5</title>
<g id="a_node5"><a xlink:href="../../de/da9/evolve_8f90.html#a8103e838be03904e03551e04f6b396e4" target="_top" xlink:title="Take a single time step in Fourier space to evolve the Fourier coefficients describing the equilibriu...">
<polygon fill="white" stroke="black" points="254,-646.01 254,-665.01 299,-665.01 299,-646.01 254,-646.01"/>
<text text-anchor="middle" x="276.5" y="-653.01" font-family="Helvetica,sans-Serif" font-size="10.00">evolve</text>
</a>
</g>
</g>
<!-- Node1&#45;&gt;Node5 -->
<g id="edge25" class="edge">
<title>Node1&#45;&gt;Node5</title>
<path fill="none" stroke="midnightblue" d="M807.27,-655.24C781.9,-709.76 699.29,-864.51 579,-864.51 579,-864.51 579,-864.51 465,-864.51 356.3,-864.51 294.7,-705.92 280.62,-665.03"/>
<polygon fill="midnightblue" stroke="midnightblue" points="810.51,-656.57 811.45,-646.02 804.13,-653.68 810.51,-656.57"/>
</g>
<!-- Node7 -->
<g id="node7" class="node">
<title>Node7</title>
<g id="a_node7"><a xlink:href="../../db/d61/vmec_8f90.html#a6d38ab7be2f9d818da4541e1d352ea23" target="_top" xlink:title="Main driver for VMEC.">
<polygon fill="white" stroke="black" points="81,-332.01 81,-351.01 122,-351.01 122,-332.01 81,-332.01"/>
<text text-anchor="middle" x="101.5" y="-339.01" font-family="Helvetica,sans-Serif" font-size="10.00">vmec</text>
</a>
</g>
</g>
<!-- Node1&#45;&gt;Node7 -->
<g id="edge79" class="edge">
<title>Node1&#45;&gt;Node7</title>
<path fill="none" stroke="midnightblue" d="M814.67,-656.6C810.51,-747.15 789.26,-1116.53 716,-1200.51 673.96,-1248.7 642.95,-1244.51 579,-1244.51 579,-1244.51 579,-1244.51 275.5,-1244.51 179.53,-1244.51 111.19,-447.55 103.27,-351.04"/>
<polygon fill="midnightblue" stroke="midnightblue" points="818.17,-656.49 815.12,-646.35 811.18,-656.18 818.17,-656.49"/>
</g>
<!-- Node10 -->
<g id="node10" class="node">
<title>Node10</title>
<g id="a_node10"><a xlink:href="../../da/d73/analyt_8f90.html#a60edcf4884aa60f6d96c258a97255756" target="_top" xlink:title="Compute the analytical&#45;and&#45;numerical 4D Fourier integrals over the equivalently&#45;singular functions.">
<polygon fill="white" stroke="black" points="664,-1121.01 664,-1140.01 706,-1140.01 706,-1121.01 664,-1121.01"/>
<text text-anchor="middle" x="685" y="-1128.01" font-family="Helvetica,sans-Serif" font-size="10.00">analyt</text>
</a>
</g>
</g>
<!-- Node1&#45;&gt;Node10 -->
<g id="edge10" class="edge">
<title>Node1&#45;&gt;Node10</title>
<path fill="none" stroke="midnightblue" d="M813.42,-656.29C804.7,-736.26 769.09,-1034.96 716,-1111.51 713.47,-1115.16 709.99,-1118.26 706.3,-1120.83"/>
<polygon fill="midnightblue" stroke="midnightblue" points="816.92,-656.45 814.51,-646.13 809.96,-655.7 816.92,-656.45"/>
</g>
<!-- Node11 -->
<g id="node11" class="node">
<title>Node11</title>
<g id="a_node11"><a xlink:href="../../d0/d19/scalpot_8f90.html#afb9e58849c5a27e486bdf4106f8bb84e" target="_top" xlink:title="Compute all required terms for solving for the scalar magnetic potential.">
<polygon fill="white" stroke="black" points="554,-1083.01 554,-1102.01 602,-1102.01 602,-1083.01 554,-1083.01"/>
<text text-anchor="middle" x="578" y="-1090.01" font-family="Helvetica,sans-Serif" font-size="10.00">scalpot</text>
</a>
</g>
</g>
<!-- Node1&#45;&gt;Node11 -->
<g id="edge69" class="edge">
<title>Node1&#45;&gt;Node11</title>
<path fill="none" stroke="midnightblue" d="M814.88,-656.13C811.69,-742.22 794.2,-1085.02 716,-1149.51 675.06,-1183.27 611.3,-1125.79 587.95,-1102.05"/>
<polygon fill="midnightblue" stroke="midnightblue" points="818.37,-656.26 815.22,-646.14 811.38,-656.01 818.37,-656.26"/>
</g>
<!-- Node12 -->
<g id="node12" class="node">
<title>Node12</title>
<g id="a_node12"><a xlink:href="../../dd/d6d/vacuum_8f90.html#a0acbc18d2ab7664835d797b42ce49a35" target="_top" xlink:title="Compute the vacuum contribution to the free&#45;boundary energy functional.">
<polygon fill="white" stroke="black" points="440.5,-950.01 440.5,-969.01 491.5,-969.01 491.5,-950.01 440.5,-950.01"/>
<text text-anchor="middle" x="466" y="-957.01" font-family="Helvetica,sans-Serif" font-size="10.00">vacuum</text>
</a>
</g>
</g>
<!-- Node1&#45;&gt;Node12 -->
<g id="edge78" class="edge">
<title>Node1&#45;&gt;Node12</title>
<path fill="none" stroke="midnightblue" d="M813.37,-656.37C807.31,-702.76 785.62,-818.81 716,-878.51 654.22,-931.49 614.05,-892.52 538,-921.51 517.88,-929.18 496.28,-941.37 482.25,-949.87"/>
<polygon fill="midnightblue" stroke="midnightblue" points="816.88,-656.5 814.6,-646.16 809.93,-655.67 816.88,-656.5"/>
</g>
<!-- Node14 -->
<g id="node14" class="node">
<title>Node14</title>
<g id="a_node14"><a xlink:href="../../db/d3d/bextern_8f90.html#a90228cc5f358147ae7f59953d6f9cced" target="_top" xlink:title="Compute the total magnetic field due to external coils and the net toroidal plasma current.">
<polygon fill="white" stroke="black" points="554,-1007.01 554,-1026.01 602,-1026.01 602,-1007.01 554,-1007.01"/>
<text text-anchor="middle" x="578" y="-1014.01" font-family="Helvetica,sans-Serif" font-size="10.00">bextern</text>
</a>
</g>
</g>
<!-- Node1&#45;&gt;Node14 -->
<g id="edge16" class="edge">
<title>Node1&#45;&gt;Node14</title>
<path fill="none" stroke="midnightblue" d="M815.56,-656.49C814.64,-713.61 804.1,-879.32 716,-970.51 685.4,-1002.18 632.37,-1012.04 602.04,-1015.12"/>
<polygon fill="midnightblue" stroke="midnightblue" points="819.06,-656.32 815.64,-646.29 812.06,-656.27 819.06,-656.32"/>
</g>
<!-- Node15 -->
<g id="node15" class="node">
<title>Node15</title>
<g id="a_node15"><a xlink:href="../../d7/d77/bss_8f90.html#acdfd6dccfb28d75e1de40c6822f5736b" target="_top" xlink:title="Computes br, bphi, bz, bsubs on half&#45;radial mesh.">
<polygon fill="white" stroke="black" points="562,-323.01 562,-342.01 594,-342.01 594,-323.01 562,-323.01"/>
<text text-anchor="middle" x="578" y="-330.01" font-family="Helvetica,sans-Serif" font-size="10.00">bss</text>
</a>
</g>
</g>
<!-- Node1&#45;&gt;Node15 -->
<g id="edge18" class="edge">
<title>Node1&#45;&gt;Node15</title>
<path fill="none" stroke="midnightblue" d="M815.18,-616.63C813.16,-563.97 799.86,-420.21 716,-351.51 680.52,-322.44 621.72,-326.17 594.15,-329.94"/>
<polygon fill="midnightblue" stroke="midnightblue" points="811.69,-617.04 815.47,-626.94 818.69,-616.85 811.69,-617.04"/>
</g>
<!-- Node16 -->
<g id="node16" class="node">
<title>Node16</title>
<g id="a_node16"><a xlink:href="../../d0/d22/eqfor_8f90.html#a4579124c405a906bf05b3d3a0da2d105" target="_top" xlink:title="Basis physics analysis and evaluaton of force balance. This is where most of the contents of the thre...">
<polygon fill="white" stroke="black" points="447,-247.01 447,-266.01 485,-266.01 485,-247.01 447,-247.01"/>
<text text-anchor="middle" x="466" y="-254.01" font-family="Helvetica,sans-Serif" font-size="10.00">eqfor</text>
</a>
</g>
</g>
<!-- Node1&#45;&gt;Node16 -->
<g id="edge24" class="edge">
<title>Node1&#45;&gt;Node16</title>
<path fill="none" stroke="midnightblue" d="M814.14,-616.39C808.35,-537.77 782.96,-252.94 716,-199.51 642.51,-140.87 519.98,-218.44 480.03,-246.84"/>
<polygon fill="midnightblue" stroke="midnightblue" points="810.68,-617.08 814.87,-626.81 817.66,-616.59 810.68,-617.08"/>
</g>
<!-- Node17 -->
<g id="node17" class="node">
<title>Node17</title>
<g id="a_node17"><a xlink:href="../../d9/dff/calc__fbal_8f90.html#a6cdc3d21c48f66aeaff8ab5e639641b6" target="_top" xlink:title="Compute flux&#45;surface averaged radial force balance .">
<polygon fill="white" stroke="black" points="657,-361.01 657,-380.01 713,-380.01 713,-361.01 657,-361.01"/>
<text text-anchor="middle" x="685" y="-368.01" font-family="Helvetica,sans-Serif" font-size="10.00">calc_fbal</text>
</a>
</g>
</g>
<!-- Node1&#45;&gt;Node17 -->
<g id="edge21" class="edge">
<title>Node1&#45;&gt;Node17</title>
<path fill="none" stroke="midnightblue" d="M811.93,-617.07C802.89,-572.42 775.47,-460.89 716,-389.51 713,-385.91 709.14,-382.77 705.19,-380.14"/>
<polygon fill="midnightblue" stroke="midnightblue" points="808.5,-617.77 813.84,-626.92 815.37,-616.43 808.5,-617.77"/>
</g>
<!-- Node18 -->
<g id="node18" class="node">
<title>Node18</title>
<g id="a_node18"><a xlink:href="../../d4/dd1/fixaray_8f90.html#aca9a4c886a9423b95e8a9336071de2e3" target="_top" xlink:title="allocate and fill some fixed&#45;size arrays (only depending on Fourier resolution).">
<polygon fill="white" stroke="black" points="161,-199.01 161,-218.01 205,-218.01 205,-199.01 161,-199.01"/>
<text text-anchor="middle" x="183" y="-206.01" font-family="Helvetica,sans-Serif" font-size="10.00">fixaray</text>
</a>
</g>
</g>
<!-- Node1&#45;&gt;Node18 -->
<g id="edge26" class="edge">
<title>Node1&#45;&gt;Node18</title>
<path fill="none" stroke="midnightblue" d="M814.02,-616.67C807.65,-536.56 779.93,-238.13 716,-173.51 672.1,-129.13 641.43,-142.51 579,-142.51 579,-142.51 579,-142.51 368.5,-142.51 302.5,-142.51 230.58,-180.41 199.61,-198.77"/>
<polygon fill="midnightblue" stroke="midnightblue" points="810.55,-617.15 814.81,-626.85 817.53,-616.61 810.55,-617.15"/>
</g>
<!-- Node19 -->
<g id="node19" class="node">
<title>Node19</title>
<g id="a_node19"><a xlink:href="../../de/d0c/forces_8f90.html#a7b4708aaec3cc94526474c16bc3a16f0" target="_top" xlink:title="Compute the real&#45;space MHD forces.">
<polygon fill="white" stroke="black" points="444,-817.01 444,-836.01 488,-836.01 488,-817.01 444,-817.01"/>
<text text-anchor="middle" x="466" y="-824.01" font-family="Helvetica,sans-Serif" font-size="10.00">forces</text>
</a>
</g>
</g>
<!-- Node1&#45;&gt;Node19 -->
<g id="edge28" class="edge">
<title>Node1&#45;&gt;Node19</title>
<path fill="none" stroke="midnightblue" d="M805.41,-654.87C789.73,-681.72 757.03,-731.53 716,-759.51 642.77,-809.45 533.86,-822.22 488.28,-825.44"/>
<polygon fill="midnightblue" stroke="midnightblue" points="808.49,-656.53 810.39,-646.1 802.41,-653.07 808.49,-656.53"/>
</g>
<!-- Node20 -->
<g id="node20" class="node">
<title>Node20</title>
<g id="a_node20"><a xlink:href="../../d6/d77/fouri_8f90.html#a0f902f8d584a395f9db7175079d273c7" target="_top" xlink:title="Compute Fourier integrals and build amatrix.">
<polygon fill="white" stroke="black" points="667.5,-1083.01 667.5,-1102.01 702.5,-1102.01 702.5,-1083.01 667.5,-1083.01"/>
<text text-anchor="middle" x="685" y="-1090.01" font-family="Helvetica,sans-Serif" font-size="10.00">fouri</text>
</a>
</g>
</g>
<!-- Node1&#45;&gt;Node20 -->
<g id="edge30" class="edge">
<title>Node1&#45;&gt;Node20</title>
<path fill="none" stroke="midnightblue" d="M816.09,-656.39C817.08,-722.28 812.35,-937.12 716,-1073.51 712.59,-1078.34 707.51,-1082.22 702.51,-1085.19"/>
<polygon fill="midnightblue" stroke="midnightblue" points="819.59,-656.1 815.87,-646.18 812.59,-656.25 819.59,-656.1"/>
</g>
<!-- Node21 -->
<g id="node21" class="node">
<title>Node21</title>
<g id="a_node21"><a xlink:href="../../d0/d1c/fourp_8f90.html#add725dd420251115fd60182dc992503c" target="_top" xlink:title="Perform Fourier integrals of Green&#39;s function kernel.">
<polygon fill="white" stroke="black" points="666,-1045.01 666,-1064.01 704,-1064.01 704,-1045.01 666,-1045.01"/>
<text text-anchor="middle" x="685" y="-1052.01" font-family="Helvetica,sans-Serif" font-size="10.00">fourp</text>
</a>
</g>
</g>
<!-- Node1&#45;&gt;Node21 -->
<g id="edge32" class="edge">
<title>Node1&#45;&gt;Node21</title>
<path fill="none" stroke="midnightblue" d="M814.86,-656.41C812.03,-717.34 796.87,-904.82 716,-1030.51 712.39,-1036.12 707.02,-1041.01 701.82,-1044.88"/>
<polygon fill="midnightblue" stroke="midnightblue" points="818.36,-656.39 815.27,-646.26 811.37,-656.11 818.36,-656.39"/>
</g>
<!-- Node22 -->
<g id="node22" class="node">
<title>Node22</title>
<g id="a_node22"><a xlink:href="../../d1/d87/freeb__data_8f90.html#a71de251d01e145a30e3f710ac705f217" target="_top" xlink:title="Write out edge values of fields.">
<polygon fill="white" stroke="black" points="654,-399.01 654,-418.01 716,-418.01 716,-399.01 654,-399.01"/>
<text text-anchor="middle" x="685" y="-406.01" font-family="Helvetica,sans-Serif" font-size="10.00">freeb_data</text>
</a>
</g>
</g>
<!-- Node1&#45;&gt;Node22 -->
<g id="edge34" class="edge">
<title>Node1&#45;&gt;Node22</title>
<path fill="none" stroke="midnightblue" d="M809.2,-616.83C796.23,-578.45 763.73,-492.15 716,-432.51 711.67,-427.09 705.9,-422.12 700.59,-418.12"/>
<polygon fill="midnightblue" stroke="midnightblue" points="806,-618.32 812.46,-626.72 812.65,-616.13 806,-618.32"/>
</g>
<!-- Node24 -->
<g id="node24" class="node">
<title>Node24</title>
<g id="a_node24"><a xlink:href="../../d5/dfd/guess__axis_8f90.html#a375e34fe4656d4c51d5013939bf5617e" target="_top" xlink:title="Computes guess for magnetic axis if user guess leads to initial sign change of Jacobian.">
<polygon fill="white" stroke="black" points="244,-931.01 244,-950.01 309,-950.01 309,-931.01 244,-931.01"/>
<text text-anchor="middle" x="276.5" y="-938.01" font-family="Helvetica,sans-Serif" font-size="10.00">guess_axis</text>
</a>
</g>
</g>
<!-- Node1&#45;&gt;Node24 -->
<g id="edge38" class="edge">
<title>Node1&#45;&gt;Node24</title>
<path fill="none" stroke="midnightblue" d="M814.53,-656.35C809.86,-743.47 786.99,-1091.16 716,-1168.51 673.27,-1215.06 642.19,-1206.51 579,-1206.51 579,-1206.51 579,-1206.51 465,-1206.51 337.03,-1206.51 288.73,-998.28 279.3,-950.29"/>
<polygon fill="midnightblue" stroke="midnightblue" points="818.03,-656.41 815.05,-646.24 811.04,-656.05 818.03,-656.41"/>
</g>
<!-- Node25 -->
<g id="node25" class="node">
<title>Node25</title>
<g id="a_node25"><a xlink:href="../../dc/df5/interp_8f90.html#a5bac7725cb89730c4bd187e158dc36ee" target="_top" xlink:title="Interpolate , &#160;and &#160;on full grid.">
<polygon fill="white" stroke="black" points="664.5,-57.01 664.5,-76.01 705.5,-76.01 705.5,-57.01 664.5,-57.01"/>
<text text-anchor="middle" x="685" y="-64.01" font-family="Helvetica,sans-Serif" font-size="10.00">interp</text>
</a>
</g>
</g>
<!-- Node1&#45;&gt;Node25 -->
<g id="edge40" class="edge">
<title>Node1&#45;&gt;Node25</title>
<path fill="none" stroke="midnightblue" d="M814.03,-616.44C807.23,-528.26 776.65,-175.61 716,-85.51 713.38,-81.62 709.68,-78.37 705.76,-75.72"/>
<polygon fill="midnightblue" stroke="midnightblue" points="810.56,-616.96 814.8,-626.67 817.54,-616.44 810.56,-616.96"/>
</g>
<!-- Node27 -->
<g id="node27" class="node">
<title>Node27</title>
<g id="a_node27"><a xlink:href="../../d8/dc3/jacobian_8f90.html#af346f65d2aa225d9ede6e0f23add6142" target="_top" xlink:title="Evaulate the Jacobian of the transform from flux&#45; to cylindrical coordinates.">
<polygon fill="white" stroke="black" points="439.5,-779.01 439.5,-798.01 492.5,-798.01 492.5,-779.01 439.5,-779.01"/>
<text text-anchor="middle" x="466" y="-786.01" font-family="Helvetica,sans-Serif" font-size="10.00">jacobian</text>
</a>
</g>
</g>
<!-- Node1&#45;&gt;Node27 -->
<g id="edge43" class="edge">
<title>Node1&#45;&gt;Node27</title>
<path fill="none" stroke="midnightblue" d="M802.19,-654.38C784.83,-676.4 752.34,-713.35 716,-733.51 642.06,-774.52 539.84,-784.95 492.7,-787.61"/>
<polygon fill="midnightblue" stroke="midnightblue" points="805.15,-656.28 808.48,-646.22 799.61,-652.01 805.15,-656.28"/>
</g>
<!-- Node28 -->
<g id="node28" class="node">
<title>Node28</title>
<g id="a_node28"><a xlink:href="../../d6/d53/jxbforce_8f90.html#aef04f343b688724d6ec0ee8f2a9db7c1" target="_top" xlink:title="Program for computing local &#160;force balance.">
<polygon fill="white" stroke="black" points="553,-247.01 553,-266.01 603,-266.01 603,-247.01 553,-247.01"/>
<text text-anchor="middle" x="578" y="-254.01" font-family="Helvetica,sans-Serif" font-size="10.00">jxbforce</text>
</a>
</g>
</g>
<!-- Node1&#45;&gt;Node28 -->
<g id="edge45" class="edge">
<title>Node1&#45;&gt;Node28</title>
<path fill="none" stroke="midnightblue" d="M814.4,-616.63C810.45,-563.1 792.77,-413.93 716,-324.51 685.99,-289.55 633.73,-270.75 603.16,-262.25"/>
<polygon fill="midnightblue" stroke="midnightblue" points="810.92,-617.06 815.07,-626.81 817.91,-616.6 810.92,-617.06"/>
</g>
<!-- Node29 -->
<g id="node29" class="node">
<title>Node29</title>
<g id="a_node29"><a xlink:href="../../d4/d51/lamcal_8f90.html#aae66bdcec0bbb969704413d933148096" target="_top" xlink:title="Normalization parameters for .">
<polygon fill="white" stroke="black" points="662.5,-513.01 662.5,-532.01 707.5,-532.01 707.5,-513.01 662.5,-513.01"/>
<text text-anchor="middle" x="685" y="-520.01" font-family="Helvetica,sans-Serif" font-size="10.00">lamcal</text>
</a>
</g>
</g>
<!-- Node1&#45;&gt;Node29 -->
<g id="edge47" class="edge">
<title>Node1&#45;&gt;Node29</title>
<path fill="none" stroke="midnightblue" d="M799.77,-619.58C780.88,-599.71 747.75,-566.33 716,-541.51 711.82,-538.24 707.07,-535.03 702.59,-532.2"/>
<polygon fill="midnightblue" stroke="midnightblue" points="797.32,-622.08 806.73,-626.96 802.42,-617.28 797.32,-622.08"/>
</g>
<!-- Node30 -->
<g id="node30" class="node">
<title>Node30</title>
<g id="a_node30"><a xlink:href="../../de/d25/mercier_8f90.html#a6635929818286c4cff963bd148261208" target="_top" xlink:title="Evaluate the Mercier stability criterion.">
<polygon fill="white" stroke="black" points="660.5,-209.01 660.5,-228.01 709.5,-228.01 709.5,-209.01 660.5,-209.01"/>
<text text-anchor="middle" x="685" y="-216.01" font-family="Helvetica,sans-Serif" font-size="10.00">mercier</text>
</a>
</g>
</g>
<!-- Node1&#45;&gt;Node30 -->
<g id="edge49" class="edge">
<title>Node1&#45;&gt;Node30</title>
<path fill="none" stroke="midnightblue" d="M815.55,-616.74C814.76,-554.7 804.91,-360.66 716,-237.51 713.33,-233.81 709.7,-230.66 705.88,-228.06"/>
<polygon fill="midnightblue" stroke="midnightblue" points="812.05,-616.77 815.61,-626.75 819.05,-616.72 812.05,-616.77"/>
</g>
<!-- Node31 -->
<g id="node31" class="node">
<title>Node31</title>
<g id="a_node31"><a xlink:href="../../dd/d98/precal_8f90.html#a0dae73e848a4757092d7e9786d073d3d" target="_top" xlink:title="Pre&#45;compute constant terms required for NESTOR.">
<polygon fill="white" stroke="black" points="556.5,-969.01 556.5,-988.01 599.5,-988.01 599.5,-969.01 556.5,-969.01"/>
<text text-anchor="middle" x="578" y="-976.01" font-family="Helvetica,sans-Serif" font-size="10.00">precal</text>
</a>
</g>
</g>
<!-- Node1&#45;&gt;Node31 -->
<g id="edge52" class="edge">
<title>Node1&#45;&gt;Node31</title>
<path fill="none" stroke="midnightblue" d="M815.22,-656.53C813.34,-710.95 800.39,-862.83 716,-942.51 683.81,-972.9 629.16,-978.35 599.54,-978.91"/>
<polygon fill="midnightblue" stroke="midnightblue" points="818.73,-656.27 815.48,-646.19 811.73,-656.1 818.73,-656.27"/>
</g>
<!-- Node32 -->
<g id="node32" class="node">
<title>Node32</title>
<g id="a_node32"><a xlink:href="../../d7/d61/profil1d_8f90.html#a2bc38da2d3b36d16295159df2f8573e2" target="_top" xlink:title="Compute phip and iota profiles on full grid.">
<polygon fill="white" stroke="black" points="661.5,-95.01 661.5,-114.01 708.5,-114.01 708.5,-95.01 661.5,-95.01"/>
<text text-anchor="middle" x="685" y="-102.01" font-family="Helvetica,sans-Serif" font-size="10.00">profil1d</text>
</a>
</g>
</g>
<!-- Node1&#45;&gt;Node32 -->
<g id="edge54" class="edge">
<title>Node1&#45;&gt;Node32</title>
<path fill="none" stroke="midnightblue" d="M813.44,-616.59C804.57,-533.36 767.71,-213.85 716,-128.51 712.54,-122.81 707.21,-117.9 701.99,-114.03"/>
<polygon fill="midnightblue" stroke="midnightblue" points="809.98,-617.13 814.51,-626.71 816.94,-616.4 809.98,-617.13"/>
</g>
<!-- Node33 -->
<g id="node33" class="node">
<title>Node33</title>
<g id="a_node33"><a xlink:href="../../dd/d75/profil3d_8f90.html#a67d2774ceac255f1e1f75e54f4679e9c" target="_top" xlink:title="Compute three&#45;dimensional profiles of flux&#45;surface geometry etc.">
<polygon fill="white" stroke="black" points="661.5,-247.01 661.5,-266.01 708.5,-266.01 708.5,-247.01 661.5,-247.01"/>
<text text-anchor="middle" x="685" y="-254.01" font-family="Helvetica,sans-Serif" font-size="10.00">profil3d</text>
</a>
</g>
</g>
<!-- Node1&#45;&gt;Node33 -->
<g id="edge56" class="edge">
<title>Node1&#45;&gt;Node33</title>
<path fill="none" stroke="midnightblue" d="M814.19,-616.69C809.59,-559.77 790.18,-392.68 716,-280.51 712.32,-274.95 706.94,-270.07 701.74,-266.19"/>
<polygon fill="midnightblue" stroke="midnightblue" points="810.71,-617.12 814.94,-626.83 817.69,-616.6 810.71,-617.12"/>
</g>
<!-- Node34 -->
<g id="node34" class="node">
<title>Node34</title>
<g id="a_node34"><a xlink:href="../../d8/da3/readin_8f90.html#a60f2bfd8fc6f7c3e027a8f91ef0c7b25" target="_top" xlink:title="Read the input file.">
<polygon fill="white" stroke="black" points="348,-29.01 348,-48.01 391,-48.01 391,-29.01 348,-29.01"/>
<text text-anchor="middle" x="369.5" y="-36.01" font-family="Helvetica,sans-Serif" font-size="10.00">readin</text>
</a>
</g>
</g>
<!-- Node1&#45;&gt;Node34 -->
<g id="edge59" class="edge">
<title>Node1&#45;&gt;Node34</title>
<path fill="none" stroke="midnightblue" d="M815.36,-616.8C814.25,-523.11 804.35,-124.18 716,-47.51 621.06,34.88 450.12,-11.55 391.16,-31.14"/>
<polygon fill="midnightblue" stroke="midnightblue" points="811.86,-616.92 815.46,-626.88 818.86,-616.85 811.86,-616.92"/>
</g>
<!-- Node35 -->
<g id="node35" class="node">
<title>Node35</title>
<g id="a_node35"><a xlink:href="../../db/d5a/residue_8f90.html#a2390b3cf93196383bbe960acb85b3e32" target="_top" xlink:title="Compute invariant residuals.">
<polygon fill="white" stroke="black" points="442,-741.01 442,-760.01 490,-760.01 490,-741.01 442,-741.01"/>
<text text-anchor="middle" x="466" y="-748.01" font-family="Helvetica,sans-Serif" font-size="10.00">residue</text>
</a>
</g>
</g>
<!-- Node1&#45;&gt;Node35 -->
<g id="edge61" class="edge">
<title>Node1&#45;&gt;Node35</title>
<path fill="none" stroke="midnightblue" d="M797.89,-652.99C779.06,-669.72 747.6,-695.14 716,-709.51 638.63,-744.7 535.53,-750.1 490.13,-750.65"/>
<polygon fill="midnightblue" stroke="midnightblue" points="800.33,-655.51 805.39,-646.2 795.63,-650.32 800.33,-655.51"/>
</g>
<!-- Node36 -->
<g id="node36" class="node">
<title>Node36</title>
<g id="a_node36"><a xlink:href="../../d8/d86/scalfor_8f90.html#a2ef9c34d20ddf30cb7b15fe35066b8ca" target="_top" xlink:title="Build forces from different contributions.">
<polygon fill="white" stroke="black" points="555,-703.01 555,-722.01 601,-722.01 601,-703.01 555,-703.01"/>
<text text-anchor="middle" x="578" y="-710.01" font-family="Helvetica,sans-Serif" font-size="10.00">scalfor</text>
</a>
</g>
</g>
<!-- Node1&#45;&gt;Node36 -->
<g id="edge63" class="edge">
<title>Node1&#45;&gt;Node36</title>
<path fill="none" stroke="midnightblue" d="M792.09,-651.4C772.49,-663.2 743.4,-679.2 716,-688.51 676.9,-701.79 628.91,-708.04 601.35,-710.72"/>
<polygon fill="midnightblue" stroke="midnightblue" points="793.95,-654.36 800.64,-646.15 790.29,-648.39 793.95,-654.36"/>
</g>
<!-- Node39 -->
<g id="node39" class="node">
<title>Node39</title>
<g id="a_node39"><a xlink:href="../../d6/d03/surface_8f90.html#ad7b6446e720a806f41f10dd1eb0b6f88" target="_top" xlink:title="Evaluate the geometry of the LCFS and tangential derivatives.">
<polygon fill="white" stroke="black" points="553.5,-931.01 553.5,-950.01 602.5,-950.01 602.5,-931.01 553.5,-931.01"/>
<text text-anchor="middle" x="578" y="-938.01" font-family="Helvetica,sans-Serif" font-size="10.00">surface</text>
</a>
</g>
</g>
<!-- Node1&#45;&gt;Node39 -->
<g id="edge70" class="edge">
<title>Node1&#45;&gt;Node39</title>
<path fill="none" stroke="midnightblue" d="M814.9,-656.24C812.2,-707.89 797.34,-847.8 716,-916.51 683.99,-943.54 632.44,-944.96 602.54,-943.06"/>
<polygon fill="midnightblue" stroke="midnightblue" points="818.41,-656.24 815.33,-646.1 811.41,-655.95 818.41,-656.24"/>
</g>
<!-- Node40 -->
<g id="node40" class="node">
<title>Node40</title>
<g id="a_node40"><a xlink:href="../../d4/df3/symforce_8f90.html#a169610bcc5544fc8e16ad1e10ac85dcb" target="_top" xlink:title="Symmetrize forces on restricted &#160;interval &#160;so cos, sin integrals can be performed.">
<polygon fill="white" stroke="black" points="438,-627.01 438,-646.01 494,-646.01 494,-627.01 438,-627.01"/>
<text text-anchor="middle" x="466" y="-634.01" font-family="Helvetica,sans-Serif" font-size="10.00">symforce</text>
</a>
</g>
</g>
<!-- Node1&#45;&gt;Node40 -->
<g id="edge72" class="edge">
<title>Node1&#45;&gt;Node40</title>
<path fill="none" stroke="midnightblue" d="M747.72,-647.34C737.13,-648.66 726.29,-649.79 716,-650.51 637.08,-656.03 616.74,-658.2 538,-650.51 523.37,-649.08 507.28,-646.03 494.13,-643.15"/>
<polygon fill="midnightblue" stroke="midnightblue" points="748.31,-650.79 757.77,-646.02 747.4,-643.85 748.31,-650.79"/>
</g>
<!-- Node41 -->
<g id="node41" class="node">
<title>Node41</title>
<g id="a_node41"><a xlink:href="../../d0/d6f/tomnsp_8f90.html#a6c7345c0aa0f13f311650d9633e6ecf8" target="_top" xlink:title="Fourier&#45;transform anti&#45;symmetric forces from real space to Fourier space.">
<polygon fill="white" stroke="black" points="439,-589.01 439,-608.01 493,-608.01 493,-589.01 439,-589.01"/>
<text text-anchor="middle" x="466" y="-596.01" font-family="Helvetica,sans-Serif" font-size="10.00">tomnspa</text>
</a>
</g>
</g>
<!-- Node1&#45;&gt;Node41 -->
<g id="edge74" class="edge">
<title>Node1&#45;&gt;Node41</title>
<path fill="none" stroke="midnightblue" d="M741.75,-628.47C663.85,-619.97 545.23,-607.04 493.11,-601.36"/>
<polygon fill="midnightblue" stroke="midnightblue" points="741.66,-631.98 751.98,-629.58 742.42,-625.02 741.66,-631.98"/>
</g>
<!-- Node42 -->
<g id="node42" class="node">
<title>Node42</title>
<g id="a_node42"><a xlink:href="../../d0/d6f/tomnsp_8f90.html#aec4b11e4f55e18c6bfc0348c263e31db" target="_top" xlink:title="Fourier&#45;transform symmetric forces from real space to Fourier space.">
<polygon fill="white" stroke="black" points="551,-456.01 551,-475.01 605,-475.01 605,-456.01 551,-456.01"/>
<text text-anchor="middle" x="578" y="-463.01" font-family="Helvetica,sans-Serif" font-size="10.00">tomnsps</text>
</a>
</g>
</g>
<!-- Node1&#45;&gt;Node42 -->
<g id="edge76" class="edge">
<title>Node1&#45;&gt;Node42</title>
<path fill="none" stroke="midnightblue" d="M808.17,-617.16C794.97,-585.18 764.06,-521.76 716,-490.51 682.25,-468.57 634.45,-464.59 605.15,-464.49"/>
<polygon fill="midnightblue" stroke="midnightblue" points="805.01,-618.7 811.96,-626.7 811.52,-616.12 805.01,-618.7"/>
</g>
<!-- Node2&#45;&gt;Node3 -->
<g id="edge2" class="edge">
<title>Node2&#45;&gt;Node3</title>
<path fill="none" stroke="midnightblue" d="M647.71,-547.38C632.25,-541.78 614.72,-535.44 601.23,-530.55"/>
<polygon fill="midnightblue" stroke="midnightblue" points="646.91,-550.81 657.5,-550.92 649.29,-544.23 646.91,-550.81"/>
</g>
<!-- Node3&#45;&gt;Node4 -->
<g id="edge3" class="edge">
<title>Node3&#45;&gt;Node4</title>
<path fill="none" stroke="midnightblue" d="M544.68,-520.01C512.69,-519.2 463.74,-522.6 430,-546.51 394.82,-571.44 378.29,-623.94 372.75,-645.72"/>
<polygon fill="midnightblue" stroke="midnightblue" points="544.7,-523.51 554.84,-520.42 544.99,-516.52 544.7,-523.51"/>
</g>
<!-- Node4&#45;&gt;Node5 -->
<g id="edge4" class="edge">
<title>Node4&#45;&gt;Node5</title>
<path fill="none" stroke="midnightblue" d="M334.53,-655.51C322.66,-655.51 309.66,-655.51 299.07,-655.51"/>
<polygon fill="midnightblue" stroke="midnightblue" points="334.59,-659.01 344.59,-655.51 334.59,-652.01 334.59,-659.01"/>
</g>
<!-- Node9 -->
<g id="node9" class="node">
<title>Node9</title>
<g id="a_node9"><a xlink:href="../../d0/d71/fileout_8f90.html#a7228e984aaf2c38bd772e3d846fab7af" target="_top" xlink:title="Write the output files.">
<polygon fill="white" stroke="black" points="255.5,-358.01 255.5,-377.01 297.5,-377.01 297.5,-358.01 255.5,-358.01"/>
<text text-anchor="middle" x="276.5" y="-365.01" font-family="Helvetica,sans-Serif" font-size="10.00">fileout</text>
</a>
</g>
</g>
<!-- Node4&#45;&gt;Node9 -->
<g id="edge8" class="edge">
<title>Node4&#45;&gt;Node9</title>
<path fill="none" stroke="midnightblue" d="M362.39,-636.17C344.64,-580.01 293.54,-418.28 280.54,-377.13"/>
<polygon fill="midnightblue" stroke="midnightblue" points="359.12,-637.45 365.47,-645.93 365.8,-635.34 359.12,-637.45"/>
</g>
<!-- Node6 -->
<g id="node6" class="node">
<title>Node6</title>
<g id="a_node6"><a xlink:href="../../d7/d46/eqsolve_8f90.html#ab740b09d1b651e2ab8a60c5d552df0c2" target="_top" xlink:title="Iteratively evolve the Fourier coefficients that specify the equilibrium.">
<polygon fill="white" stroke="black" points="158,-551.01 158,-570.01 208,-570.01 208,-551.01 158,-551.01"/>
<text text-anchor="middle" x="183" y="-558.01" font-family="Helvetica,sans-Serif" font-size="10.00">eqsolve</text>
</a>
</g>
</g>
<!-- Node5&#45;&gt;Node6 -->
<g id="edge5" class="edge">
<title>Node5&#45;&gt;Node6</title>
<path fill="none" stroke="midnightblue" d="M259.09,-638.48C239.87,-618.52 208.69,-586.15 193.26,-570.12"/>
<polygon fill="midnightblue" stroke="midnightblue" points="256.59,-640.93 266.05,-645.7 261.64,-636.07 256.59,-640.93"/>
</g>
<!-- Node6&#45;&gt;Node7 -->
<g id="edge6" class="edge">
<title>Node6&#45;&gt;Node7</title>
<path fill="none" stroke="midnightblue" d="M175.03,-541.31C158.64,-496.15 118.1,-384.48 105.98,-351.09"/>
<polygon fill="midnightblue" stroke="midnightblue" points="171.78,-542.61 178.48,-550.82 178.36,-540.22 171.78,-542.61"/>
</g>
<!-- Node8 -->
<g id="node8" class="node">
<title>Node8</title>
<g id="a_node8"><a xlink:href="../../db/d61/vmec_8f90.html#ace5bdf043bb85c8f0a9fc582bdb55725" target="_top" xlink:title="Main program of VMEC.">
<polygon fill="white" stroke="black" points="0,-332.01 0,-351.01 45,-351.01 45,-332.01 0,-332.01"/>
<text text-anchor="middle" x="22.5" y="-339.01" font-family="Helvetica,sans-Serif" font-size="10.00">xvmec</text>
</a>
</g>
</g>
<!-- Node7&#45;&gt;Node8 -->
<g id="edge7" class="edge">
<title>Node7&#45;&gt;Node8</title>
<path fill="none" stroke="midnightblue" d="M70.42,-341.51C61.99,-341.51 52.99,-341.51 45.16,-341.51"/>
<polygon fill="midnightblue" stroke="midnightblue" points="70.67,-345.01 80.67,-341.51 70.67,-338.01 70.67,-345.01"/>
</g>
<!-- Node9&#45;&gt;Node7 -->
<g id="edge9" class="edge">
<title>Node9&#45;&gt;Node7</title>
<path fill="none" stroke="midnightblue" d="M245.07,-362.94C209.59,-357.6 152,-348.95 122.02,-344.44"/>
<polygon fill="midnightblue" stroke="midnightblue" points="244.91,-366.45 255.32,-364.48 245.95,-359.53 244.91,-366.45"/>
</g>
<!-- Node10&#45;&gt;Node11 -->
<g id="edge11" class="edge">
<title>Node10&#45;&gt;Node11</title>
<path fill="none" stroke="midnightblue" d="M654.03,-1119.66C637.54,-1113.69 617.38,-1106.4 602.11,-1100.87"/>
<polygon fill="midnightblue" stroke="midnightblue" points="653.16,-1123.07 663.75,-1123.18 655.54,-1116.49 653.16,-1123.07"/>
</g>
<!-- Node11&#45;&gt;Node12 -->
<g id="edge12" class="edge">
<title>Node11&#45;&gt;Node12</title>
<path fill="none" stroke="midnightblue" d="M562.59,-1075.09C539.18,-1046.79 493.66,-991.74 475.14,-969.35"/>
<polygon fill="midnightblue" stroke="midnightblue" points="560.02,-1077.47 569.09,-1082.94 565.41,-1073.01 560.02,-1077.47"/>
</g>
<!-- Node12&#45;&gt;Node4 -->
<g id="edge13" class="edge">
<title>Node12&#45;&gt;Node4</title>
<path fill="none" stroke="midnightblue" d="M458.89,-939.86C440.6,-881.03 386.75,-707.77 373.48,-665.09"/>
<polygon fill="midnightblue" stroke="midnightblue" points="455.65,-941.23 461.96,-949.74 462.34,-939.15 455.65,-941.23"/>
</g>
<!-- Node13 -->
<g id="node13" class="node">
<title>Node13</title>
<g id="a_node13"><a xlink:href="../../d4/d69/nestor__main_8f90.html#a1b0fd336e80285a96925333daa2ee8f0" target="_top" xlink:title="Main program of stand&#45;alone version of NESTOR.">
<polygon fill="white" stroke="black" points="347.5,-950.01 347.5,-969.01 391.5,-969.01 391.5,-950.01 347.5,-950.01"/>
<text text-anchor="middle" x="369.5" y="-957.01" font-family="Helvetica,sans-Serif" font-size="10.00">nestor</text>
</a>
</g>
</g>
<!-- Node12&#45;&gt;Node13 -->
<g id="edge14" class="edge">
<title>Node12&#45;&gt;Node13</title>
<path fill="none" stroke="midnightblue" d="M430.17,-959.51C417.24,-959.51 402.98,-959.51 391.64,-959.51"/>
<polygon fill="midnightblue" stroke="midnightblue" points="430.17,-963.01 440.17,-959.51 430.17,-956.01 430.17,-963.01"/>
</g>
<!-- Node14&#45;&gt;Node12 -->
<g id="edge17" class="edge">
<title>Node14&#45;&gt;Node12</title>
<path fill="none" stroke="midnightblue" d="M547.86,-1002.46C544.52,-1000.81 541.18,-999.14 538,-997.51 519.57,-988.09 498.72,-976.87 484.41,-969.07"/>
<polygon fill="midnightblue" stroke="midnightblue" points="546.57,-1005.73 557.09,-1006.99 549.65,-999.44 546.57,-1005.73"/>
</g>
<!-- Node15&#45;&gt;Node16 -->
<g id="edge19" class="edge">
<title>Node15&#45;&gt;Node16</title>
<path fill="none" stroke="midnightblue" d="M554.62,-317.05C532.5,-301.76 499.36,-278.86 480.82,-266.06"/>
<polygon fill="midnightblue" stroke="midnightblue" points="552.85,-320.08 563.07,-322.88 556.83,-314.32 552.85,-320.08"/>
</g>
<!-- Node16&#45;&gt;Node9 -->
<g id="edge20" class="edge">
<title>Node16&#45;&gt;Node9</title>
<path fill="none" stroke="midnightblue" d="M440.01,-271.3C400.92,-294.44 326.41,-338.56 293.64,-357.95"/>
<polygon fill="midnightblue" stroke="midnightblue" points="441.87,-274.27 448.69,-266.17 438.3,-268.25 441.87,-274.27"/>
</g>
<!-- Node17&#45;&gt;Node3 -->
<g id="edge22" class="edge">
<title>Node17&#45;&gt;Node3</title>
<path fill="none" stroke="midnightblue" d="M656.69,-386.56C655.74,-387.51 654.83,-388.49 654,-389.51 625.46,-424.5 642.76,-446.75 618,-484.51 610.74,-495.58 599.76,-505.9 591.3,-512.99"/>
<polygon fill="midnightblue" stroke="midnightblue" points="659.14,-389.08 664.75,-380.1 654.76,-383.62 659.14,-389.08"/>
</g>
<!-- Node17&#45;&gt;Node16 -->
<g id="edge23" class="edge">
<title>Node17&#45;&gt;Node16</title>
<path fill="none" stroke="midnightblue" d="M646.96,-373.38C615.82,-374.08 571.2,-370.93 538,-351.51 502.99,-331.03 479.82,-285.81 471,-266.06"/>
<polygon fill="midnightblue" stroke="midnightblue" points="647.1,-376.88 656.97,-373.02 646.85,-369.89 647.1,-376.88"/>
</g>
<!-- Node18&#45;&gt;Node7 -->
<g id="edge27" class="edge">
<title>Node18&#45;&gt;Node7</title>
<path fill="none" stroke="midnightblue" d="M171.14,-226.67C154.1,-255.18 121.65,-309.47 108.38,-331.67"/>
<polygon fill="midnightblue" stroke="midnightblue" points="174.16,-228.45 176.28,-218.07 168.15,-224.86 174.16,-228.45"/>
</g>
<!-- Node19&#45;&gt;Node4 -->
<g id="edge29" class="edge">
<title>Node19&#45;&gt;Node4</title>
<path fill="none" stroke="midnightblue" d="M435.08,-812.31C433.24,-810.84 431.52,-809.24 430,-807.51 391.18,-763.54 376.23,-691.29 371.94,-665.25"/>
<polygon fill="midnightblue" stroke="midnightblue" points="433.4,-815.4 443.67,-818 437.27,-809.56 433.4,-815.4"/>
</g>
<!-- Node20&#45;&gt;Node11 -->
<g id="edge31" class="edge">
<title>Node20&#45;&gt;Node11</title>
<path fill="none" stroke="midnightblue" d="M656.75,-1092.51C639.79,-1092.51 618.21,-1092.51 602.09,-1092.51"/>
<polygon fill="midnightblue" stroke="midnightblue" points="657.13,-1096.01 667.13,-1092.51 657.13,-1089.01 657.13,-1096.01"/>
</g>
<!-- Node21&#45;&gt;Node11 -->
<g id="edge33" class="edge">
<title>Node21&#45;&gt;Node11</title>
<path fill="none" stroke="midnightblue" d="M655.9,-1064.68C639.12,-1070.75 618.06,-1078.37 602.22,-1084.11"/>
<polygon fill="midnightblue" stroke="midnightblue" points="657.5,-1067.82 665.71,-1061.13 655.12,-1061.24 657.5,-1067.82"/>
</g>
<!-- Node23 -->
<g id="node23" class="node">
<title>Node23</title>
<g id="a_node23"><a xlink:href="../../de/d3f/wrout_8f90.html#acfcf1bded82176b6a4a4a4ca430d75a9" target="_top" xlink:title="Write the output files of VMEC.">
<polygon fill="white" stroke="black" points="349,-391.01 349,-410.01 390,-410.01 390,-391.01 349,-391.01"/>
<text text-anchor="middle" x="369.5" y="-398.01" font-family="Helvetica,sans-Serif" font-size="10.00">wrout</text>
</a>
</g>
</g>
<!-- Node22&#45;&gt;Node23 -->
<g id="edge35" class="edge">
<title>Node22&#45;&gt;Node23</title>
<path fill="none" stroke="midnightblue" d="M643.63,-407.48C575.68,-405.75 440.92,-402.31 390.32,-401.02"/>
<polygon fill="midnightblue" stroke="midnightblue" points="643.85,-410.99 653.94,-407.74 644.03,-403.99 643.85,-410.99"/>
</g>
<!-- Node23&#45;&gt;Node9 -->
<g id="edge36" class="edge">
<title>Node23&#45;&gt;Node9</title>
<path fill="none" stroke="midnightblue" d="M339.31,-389.92C325.67,-384.98 309.77,-379.21 297.52,-374.77"/>
<polygon fill="midnightblue" stroke="midnightblue" points="338.16,-393.23 348.75,-393.35 340.55,-386.65 338.16,-393.23"/>
</g>
<!-- Node24&#45;&gt;Node6 -->
<g id="edge39" class="edge">
<title>Node24&#45;&gt;Node6</title>
<path fill="none" stroke="midnightblue" d="M270.73,-920.7C254.01,-851.27 198.44,-620.47 186.34,-570.22"/>
<polygon fill="midnightblue" stroke="midnightblue" points="267.4,-921.83 273.15,-930.73 274.21,-920.19 267.4,-921.83"/>
</g>
<!-- Node26 -->
<g id="node26" class="node">
<title>Node26</title>
<g id="a_node26"><a xlink:href="../../d9/da6/initialize__radial_8f90.html#a187faea543d3a42bc748511f04b5b7d5" target="_top" xlink:title="Allocates memory for radial arrays and initializes radial profiles.">
<polygon fill="white" stroke="black" points="538,-95.01 538,-114.01 618,-114.01 618,-95.01 538,-95.01"/>
<text text-anchor="middle" x="578" y="-102.01" font-family="Helvetica,sans-Serif" font-size="10.00">initialize_radial</text>
</a>
</g>
</g>
<!-- Node25&#45;&gt;Node26 -->
<g id="edge41" class="edge">
<title>Node25&#45;&gt;Node26</title>
<path fill="none" stroke="midnightblue" d="M654.65,-77.13C639.2,-82.72 620.4,-89.53 605.4,-94.95"/>
<polygon fill="midnightblue" stroke="midnightblue" points="656.04,-80.35 664.25,-73.66 653.66,-73.77 656.04,-80.35"/>
</g>
<!-- Node26&#45;&gt;Node7 -->
<g id="edge42" class="edge">
<title>Node26&#45;&gt;Node7</title>
<path fill="none" stroke="midnightblue" d="M527.6,-104.51C485.77,-104.51 424.21,-104.51 370.5,-104.51 370.5,-104.51 370.5,-104.51 275.5,-104.51 160.88,-104.51 114.1,-287.59 104.45,-331.93"/>
<polygon fill="midnightblue" stroke="midnightblue" points="527.8,-108.01 537.8,-104.51 527.8,-101.01 527.8,-108.01"/>
</g>
<!-- Node27&#45;&gt;Node4 -->
<g id="edge44" class="edge">
<title>Node27&#45;&gt;Node4</title>
<path fill="none" stroke="midnightblue" d="M433.97,-773.09C432.57,-771.96 431.23,-770.76 430,-769.51 398.84,-737.84 380.17,-686.52 373.4,-665.24"/>
<polygon fill="midnightblue" stroke="midnightblue" points="432.28,-776.17 442.52,-778.88 436.21,-770.38 432.28,-776.17"/>
</g>
<!-- Node28&#45;&gt;Node16 -->
<g id="edge46" class="edge">
<title>Node28&#45;&gt;Node16</title>
<path fill="none" stroke="midnightblue" d="M542.77,-256.51C523.77,-256.51 500.9,-256.51 485.28,-256.51"/>
<polygon fill="midnightblue" stroke="midnightblue" points="542.86,-260.01 552.86,-256.51 542.86,-253.01 542.86,-260.01"/>
</g>
<!-- Node29&#45;&gt;Node3 -->
<g id="edge48" class="edge">
<title>Node29&#45;&gt;Node3</title>
<path fill="none" stroke="midnightblue" d="M652.22,-522.51C635.74,-522.51 616.02,-522.51 601.2,-522.51"/>
<polygon fill="midnightblue" stroke="midnightblue" points="652.5,-526.01 662.5,-522.51 652.5,-519.01 652.5,-526.01"/>
</g>
<!-- Node30&#45;&gt;Node28 -->
<g id="edge50" class="edge">
<title>Node30&#45;&gt;Node28</title>
<path fill="none" stroke="midnightblue" d="M650.74,-230.55C635.32,-236.13 617.32,-242.64 603.21,-247.75"/>
<polygon fill="midnightblue" stroke="midnightblue" points="652.22,-233.73 660.44,-227.04 649.84,-227.15 652.22,-233.73"/>
</g>
<!-- Node31&#45;&gt;Node12 -->
<g id="edge53" class="edge">
<title>Node31&#45;&gt;Node12</title>
<path fill="none" stroke="midnightblue" d="M546.21,-973.19C529.04,-970.23 507.94,-966.58 491.83,-963.8"/>
<polygon fill="midnightblue" stroke="midnightblue" points="545.86,-976.68 556.31,-974.94 547.05,-969.78 545.86,-976.68"/>
</g>
<!-- Node32&#45;&gt;Node26 -->
<g id="edge55" class="edge">
<title>Node32&#45;&gt;Node26</title>
<path fill="none" stroke="midnightblue" d="M651.41,-104.51C640.84,-104.51 629.01,-104.51 618.02,-104.51"/>
<polygon fill="midnightblue" stroke="midnightblue" points="651.47,-108.01 661.47,-104.51 651.47,-101.01 651.47,-108.01"/>
</g>
<!-- Node33&#45;&gt;Node6 -->
<g id="edge57" class="edge">
<title>Node33&#45;&gt;Node6</title>
<path fill="none" stroke="midnightblue" d="M651.59,-266.92C640.98,-270.04 629.06,-273.24 618,-275.51 551.75,-289.13 534.64,-294.51 467,-294.51 467,-294.51 467,-294.51 368.5,-294.51 308.19,-294.51 283.71,-303.11 244,-348.51 189.85,-410.41 184.34,-517.87 183.96,-550.7"/>
<polygon fill="midnightblue" stroke="midnightblue" points="652.75,-270.23 661.31,-263.99 650.72,-263.53 652.75,-270.23"/>
</g>
<!-- Node33&#45;&gt;Node26 -->
<g id="edge58" class="edge">
<title>Node33&#45;&gt;Node26</title>
<path fill="none" stroke="midnightblue" d="M657.4,-240.75C656.2,-239.71 655.06,-238.63 654,-237.51 616.93,-198.5 591.49,-137.73 582.55,-114.23"/>
<polygon fill="midnightblue" stroke="midnightblue" points="655.66,-243.82 665.78,-246.99 659.84,-238.21 655.66,-243.82"/>
</g>
<!-- Node34&#45;&gt;Node7 -->
<g id="edge60" class="edge">
<title>Node34&#45;&gt;Node7</title>
<path fill="none" stroke="midnightblue" d="M337.48,-36.73C291.54,-35.91 205.7,-41.62 158,-90.51 123.25,-126.13 106.93,-290.15 103.3,-331.85"/>
<polygon fill="midnightblue" stroke="midnightblue" points="337.62,-40.24 347.72,-37.04 337.83,-33.24 337.62,-40.24"/>
</g>
<!-- Node35&#45;&gt;Node4 -->
<g id="edge62" class="edge">
<title>Node35&#45;&gt;Node4</title>
<path fill="none" stroke="midnightblue" d="M435.47,-735.67C433.56,-734.35 431.72,-732.96 430,-731.51 406.46,-711.6 386.02,-681.05 376.39,-665.44"/>
<polygon fill="midnightblue" stroke="midnightblue" points="433.76,-738.72 444.11,-740.98 437.42,-732.76 433.76,-738.72"/>
</g>
<!-- Node36&#45;&gt;Node35 -->
<g id="edge64" class="edge">
<title>Node36&#45;&gt;Node35</title>
<path fill="none" stroke="midnightblue" d="M544.96,-723.58C527.49,-729.61 506.26,-736.95 490.37,-742.44"/>
<polygon fill="midnightblue" stroke="midnightblue" points="546.43,-726.77 554.74,-720.2 544.15,-720.16 546.43,-726.77"/>
</g>
<!-- Node37 -->
<g id="node37" class="node">
<title>Node37</title>
<g id="a_node37"><a xlink:href="../../d3/d96/residue__con_8f90.html#a8b2d4eb1bd167c336b39b899858e7bfb" target="_top" xlink:title="Compute invariant residuals.">
<polygon fill="white" stroke="black" points="431.5,-703.01 431.5,-722.01 500.5,-722.01 500.5,-703.01 431.5,-703.01"/>
<text text-anchor="middle" x="466" y="-710.01" font-family="Helvetica,sans-Serif" font-size="10.00">residue_con</text>
</a>
</g>
</g>
<!-- Node36&#45;&gt;Node37 -->
<g id="edge65" class="edge">
<title>Node36&#45;&gt;Node37</title>
<path fill="none" stroke="midnightblue" d="M544.65,-712.51C530.75,-712.51 514.53,-712.51 500.51,-712.51"/>
<polygon fill="midnightblue" stroke="midnightblue" points="544.74,-716.01 554.74,-712.51 544.74,-709.01 544.74,-716.01"/>
</g>
<!-- Node38 -->
<g id="node38" class="node">
<title>Node38</title>
<g id="a_node38"><a xlink:href="../../d5/d62/residue__mhd_8f90.html#a3ed729a2f8c8d70e4d2fef05c9dfc4c8" target="_top" xlink:title="Compute invariant residuals.">
<polygon fill="white" stroke="black" points="430,-665.01 430,-684.01 502,-684.01 502,-665.01 430,-665.01"/>
<text text-anchor="middle" x="466" y="-672.01" font-family="Helvetica,sans-Serif" font-size="10.00">residue_mhd</text>
</a>
</g>
</g>
<!-- Node36&#45;&gt;Node38 -->
<g id="edge67" class="edge">
<title>Node36&#45;&gt;Node38</title>
<path fill="none" stroke="midnightblue" d="M545.26,-701.55C529.28,-696.02 510.08,-689.39 494.7,-684.08"/>
<polygon fill="midnightblue" stroke="midnightblue" points="544.15,-704.86 554.74,-704.82 546.43,-698.25 544.15,-704.86"/>
</g>
<!-- Node37&#45;&gt;Node4 -->
<g id="edge66" class="edge">
<title>Node37&#45;&gt;Node4</title>
<path fill="none" stroke="midnightblue" d="M437.8,-697.99C435.15,-696.5 432.51,-694.99 430,-693.51 414.37,-684.29 396.93,-673.03 384.99,-665.17"/>
<polygon fill="midnightblue" stroke="midnightblue" points="436.25,-701.13 446.7,-702.89 439.63,-695 436.25,-701.13"/>
</g>
<!-- Node38&#45;&gt;Node4 -->
<g id="edge68" class="edge">
<title>Node38&#45;&gt;Node4</title>
<path fill="none" stroke="midnightblue" d="M419.91,-665.44C411.04,-663.66 402.06,-661.86 394.24,-660.28"/>
<polygon fill="midnightblue" stroke="midnightblue" points="419.32,-668.89 429.81,-667.43 420.7,-662.03 419.32,-668.89"/>
</g>
<!-- Node39&#45;&gt;Node12 -->
<g id="edge71" class="edge">
<title>Node39&#45;&gt;Node12</title>
<path fill="none" stroke="midnightblue" d="M543.49,-946.3C526.8,-949.18 506.98,-952.6 491.7,-955.24"/>
<polygon fill="midnightblue" stroke="midnightblue" points="544.14,-949.74 553.4,-944.59 542.95,-942.84 544.14,-949.74"/>
</g>
<!-- Node40&#45;&gt;Node4 -->
<g id="edge73" class="edge">
<title>Node40&#45;&gt;Node4</title>
<path fill="none" stroke="midnightblue" d="M427.79,-643.99C416.42,-646.28 404.25,-648.72 394.05,-650.77"/>
<polygon fill="midnightblue" stroke="midnightblue" points="428.81,-647.36 437.92,-641.95 427.43,-640.49 428.81,-647.36"/>
</g>
<!-- Node41&#45;&gt;Node4 -->
<g id="edge75" class="edge">
<title>Node41&#45;&gt;Node4</title>
<path fill="none" stroke="midnightblue" d="M437.8,-613.03C435.15,-614.52 432.51,-616.03 430,-617.51 414.37,-626.72 396.93,-637.99 384.99,-645.85"/>
<polygon fill="midnightblue" stroke="midnightblue" points="439.63,-616.02 446.7,-608.13 436.25,-609.89 439.63,-616.02"/>
</g>
<!-- Node42&#45;&gt;Node4 -->
<g id="edge77" class="edge">
<title>Node42&#45;&gt;Node4</title>
<path fill="none" stroke="midnightblue" d="M540.85,-470C508.2,-475.8 460.69,-488.81 430,-517.51 390.74,-554.22 376.14,-621.21 371.93,-645.97"/>
<polygon fill="midnightblue" stroke="midnightblue" points="541.59,-473.43 550.89,-468.36 540.46,-466.52 541.59,-473.43"/>
</g>
</g>
</svg>
