<?xml version="1.0" encoding="UTF-8" standalone="no"?>
<!DOCTYPE svg PUBLIC "-//W3C//DTD SVG 1.1//EN"
 "http://www.w3.org/Graphics/SVG/1.1/DTD/svg11.dtd">
<!-- Generated by graphviz version 2.49.3 (20211027.1501)
 -->
<!-- Title: dbgout::open_dbg_context Pages: 1 -->
<!--zoomable 812 -->
<svg id="main" version="1.1" xmlns="http://www.w3.org/2000/svg" xmlns:xlink="http://www.w3.org/1999/xlink" xml:space="preserve" onload="init(evt)">
<style type="text/css"><![CDATA[
.edge:hover path { stroke: red; }
.edge:hover polygon { stroke: red; fill: red; }
]]></style>
<script type="text/javascript"><![CDATA[
var edges = document.getElementsByTagName('g');
if (edges && edges.length) {
  for (var i=0;i<edges.length;i++) {
    if (edges[i].id.substr(0,4)=='edge') {
      edges[i].setAttribute('class','edge');
    }
  }
}
]]></script>
        <defs>
                <circle id="rim" cx="0" cy="0" r="7"/>
                <circle id="rim2" cx="0" cy="0" r="3.5"/>
                <g id="zoomPlus">
                        <use xlink:href="#rim" fill="#404040">
                                <set attributeName="fill" to="#808080" begin="zoomplus.mouseover" end="zoomplus.mouseout"/>
                        </use>
                        <path d="M-4,0h8M0,-4v8" fill="none" stroke="white" stroke-width="1.5" pointer-events="none"/>
                </g>
                <g id="zoomMin">
                        <use xlink:href="#rim" fill="#404040">
                                <set attributeName="fill" to="#808080" begin="zoomminus.mouseover" end="zoomminus.mouseout"/>
                        </use>
                        <path d="M-4,0h8" fill="none" stroke="white" stroke-width="1.5" pointer-events="none"/>
                </g>
                <g id="dirArrow">
                        <path fill="none" stroke="white" stroke-width="1.5" d="M0,-3.0v7 M-2.5,-0.5L0,-3.0L2.5,-0.5"/>
                </g>
               <g id="resetDef">
                       <use xlink:href="#rim2" fill="#404040">
                               <set attributeName="fill" to="#808080" begin="reset.mouseover" end="reset.mouseout"/>
                       </use>
               </g>
        </defs>

<script type="text/javascript">
var viewWidth = 777;
var viewHeight = 812;
var sectionId = 'dynsection-1';
</script>
<script xlink:href="../../svgpan.js"/>
<svg id="graph" class="graph">
<g id="viewport">
<title>dbgout::open_dbg_context</title>
<polygon fill="white" stroke="transparent" points="-4,4 -4,-808.01 773,-808.01 773,4 -4,4"/>
<!-- Node1 -->
<g id="node1" class="node">
<title>Node1</title>
<g id="a_node1"><a xlink:title=" ">
<polygon fill="#bfbfbf" stroke="black" points="640,-414.51 640,-433.51 769,-433.51 769,-414.51 640,-414.51"/>
<text text-anchor="middle" x="704.5" y="-421.51" font-family="Helvetica,sans-Serif" font-size="10.00">dbgout::open_dbg_context</text>
</a>
</g>
</g>
<!-- Node1&#45;&gt;Node1 -->
<g id="edge30" class="edge">
<title>Node1&#45;&gt;Node1</title>
<path fill="none" stroke="midnightblue" d="M728.68,-443.03C727.36,-448.13 719.3,-452.01 704.5,-452.01 681.39,-452.01 674.72,-442.57 684.46,-433.76"/>
<polygon fill="midnightblue" stroke="midnightblue" points="731.81,-441.46 724.54,-433.76 725.42,-444.32 731.81,-441.46"/>
</g>
<!-- Node2 -->
<g id="node2" class="node">
<title>Node2</title>
<g id="a_node2"><a xlink:href="../../d8/d7d/add__fluxes_8f90.html#a988e7013ef02301b9cfbde5b8068d5af" target="_top" xlink:title="Add the magnetic fluxes to the tangential derivatives of &#160;to arrive at the contravariant magnetic fie...">
<polygon fill="white" stroke="black" points="542,-642.51 542,-661.51 604,-661.51 604,-642.51 542,-642.51"/>
<text text-anchor="middle" x="573" y="-649.51" font-family="Helvetica,sans-Serif" font-size="10.00">add_fluxes</text>
</a>
</g>
</g>
<!-- Node1&#45;&gt;Node2 -->
<g id="edge1" class="edge">
<title>Node1&#45;&gt;Node2</title>
<path fill="none" stroke="midnightblue" d="M698.21,-443.59C686.69,-483.23 656.14,-574.18 604,-633.01 600.81,-636.6 596.78,-639.77 592.72,-642.44"/>
<polygon fill="midnightblue" stroke="midnightblue" points="701.61,-444.41 700.95,-433.84 694.87,-442.52 701.61,-444.41"/>
</g>
<!-- Node3 -->
<g id="node3" class="node">
<title>Node3</title>
<g id="a_node3"><a xlink:href="../../d7/d61/bcovar_8f90.html#a1e1624195f0c0c7daa9f49d83bae5ce8" target="_top" xlink:title="Compute the covariant components of the magnetic field , .">
<polygon fill="white" stroke="black" points="443,-642.51 443,-661.51 489,-661.51 489,-642.51 443,-642.51"/>
<text text-anchor="middle" x="466" y="-649.51" font-family="Helvetica,sans-Serif" font-size="10.00">bcovar</text>
</a>
</g>
</g>
<!-- Node1&#45;&gt;Node3 -->
<g id="edge10" class="edge">
<title>Node1&#45;&gt;Node3</title>
<path fill="none" stroke="midnightblue" d="M702.53,-443.81C698.96,-492.55 682.21,-618.19 604,-671.01 567.38,-695.73 512.63,-675.1 484.73,-661.54"/>
<polygon fill="midnightblue" stroke="midnightblue" points="706.04,-443.84 703.16,-433.65 699.05,-443.41 706.04,-443.84"/>
</g>
<!-- Node4 -->
<g id="node4" class="node">
<title>Node4</title>
<g id="a_node4"><a xlink:href="../../d3/d4f/funct3d_8f90.html#a800bacc22176e16323899df87b55c547" target="_top" xlink:title="Evaluate the three&#45;dimensional MHD energy functional. Think of this as the &quot;forward model&quot; that tells...">
<polygon fill="white" stroke="black" points="333,-452.51 333,-471.51 382,-471.51 382,-452.51 333,-452.51"/>
<text text-anchor="middle" x="357.5" y="-459.51" font-family="Helvetica,sans-Serif" font-size="10.00">funct3d</text>
</a>
</g>
</g>
<!-- Node1&#45;&gt;Node4 -->
<g id="edge20" class="edge">
<title>Node1&#45;&gt;Node4</title>
<path fill="none" stroke="midnightblue" d="M703.16,-443.57C701.08,-494.63 687.62,-632.01 604,-690.01 572.11,-712.12 439.45,-683.15 426,-671.01 380.55,-629.97 409.76,-595.97 390,-538.01 381.7,-513.67 369.5,-485.98 362.99,-471.69"/>
<polygon fill="midnightblue" stroke="midnightblue" points="706.66,-443.63 703.46,-433.53 699.66,-443.42 706.66,-443.63"/>
</g>
<!-- Node5 -->
<g id="node5" class="node">
<title>Node5</title>
<g id="a_node5"><a xlink:href="../../de/da9/evolve_8f90.html#a8103e838be03904e03551e04f6b396e4" target="_top" xlink:title="Take a single time step in Fourier space to evolve the Fourier coefficients describing the equilibriu...">
<polygon fill="white" stroke="black" points="244,-471.51 244,-490.51 289,-490.51 289,-471.51 244,-471.51"/>
<text text-anchor="middle" x="266.5" y="-478.51" font-family="Helvetica,sans-Serif" font-size="10.00">evolve</text>
</a>
</g>
</g>
<!-- Node1&#45;&gt;Node5 -->
<g id="edge15" class="edge">
<title>Node1&#45;&gt;Node5</title>
<path fill="none" stroke="midnightblue" d="M703.66,-443.77C702.9,-497.29 692.53,-645.21 604,-708.01 579.04,-725.71 450.27,-707.93 426,-695.01 337.04,-647.63 284.65,-525.76 271.06,-490.62"/>
<polygon fill="midnightblue" stroke="midnightblue" points="707.16,-443.6 703.7,-433.59 700.16,-443.57 707.16,-443.6"/>
</g>
<!-- Node7 -->
<g id="node7" class="node">
<title>Node7</title>
<g id="a_node7"><a xlink:href="../../db/d61/vmec_8f90.html#a6d38ab7be2f9d818da4541e1d352ea23" target="_top" xlink:title="Main driver for VMEC.">
<polygon fill="white" stroke="black" points="81,-148.51 81,-167.51 122,-167.51 122,-148.51 81,-148.51"/>
<text text-anchor="middle" x="101.5" y="-155.51" font-family="Helvetica,sans-Serif" font-size="10.00">vmec</text>
</a>
</g>
</g>
<!-- Node1&#45;&gt;Node7 -->
<g id="edge55" class="edge">
<title>Node1&#45;&gt;Node7</title>
<path fill="none" stroke="midnightblue" d="M701.82,-443.61C696.48,-495.22 675.73,-636.93 604,-725.01 559.61,-779.5 537.29,-804.01 467,-804.01 467,-804.01 467,-804.01 265.5,-804.01 128.14,-804.01 105.36,-248 102.78,-167.64"/>
<polygon fill="midnightblue" stroke="midnightblue" points="705.32,-443.8 702.78,-433.51 698.35,-443.13 705.32,-443.8"/>
</g>
<!-- Node10 -->
<g id="node10" class="node">
<title>Node10</title>
<g id="a_node10"><a xlink:href="../../d9/dff/calc__fbal_8f90.html#a6cdc3d21c48f66aeaff8ab5e639641b6" target="_top" xlink:title="Compute flux&#45;surface averaged radial force balance .">
<polygon fill="white" stroke="black" points="545,-566.51 545,-585.51 601,-585.51 601,-566.51 545,-566.51"/>
<text text-anchor="middle" x="573" y="-573.51" font-family="Helvetica,sans-Serif" font-size="10.00">calc_fbal</text>
</a>
</g>
</g>
<!-- Node1&#45;&gt;Node10 -->
<g id="edge11" class="edge">
<title>Node1&#45;&gt;Node10</title>
<path fill="none" stroke="midnightblue" d="M692.69,-442.53C676.11,-469.87 642.27,-521.6 604,-557.01 600.29,-560.44 595.88,-563.62 591.59,-566.36"/>
<polygon fill="midnightblue" stroke="midnightblue" points="695.88,-444.02 698,-433.64 689.87,-440.43 695.88,-444.02"/>
</g>
<!-- Node12 -->
<g id="node12" class="node">
<title>Node12</title>
<g id="a_node12"><a xlink:href="../../d4/dd1/fixaray_8f90.html#aca9a4c886a9423b95e8a9336071de2e3" target="_top" xlink:title="allocate and fill some fixed&#45;size arrays (only depending on Fourier resolution).">
<polygon fill="white" stroke="black" points="335.5,-110.51 335.5,-129.51 379.5,-129.51 379.5,-110.51 335.5,-110.51"/>
<text text-anchor="middle" x="357.5" y="-117.51" font-family="Helvetica,sans-Serif" font-size="10.00">fixaray</text>
</a>
</g>
</g>
<!-- Node1&#45;&gt;Node12 -->
<g id="edge16" class="edge">
<title>Node1&#45;&gt;Node12</title>
<path fill="none" stroke="midnightblue" d="M703.41,-404.18C702,-351.09 690.08,-205.27 604,-139.01 536.59,-87.11 425.64,-104.42 379.57,-114.69"/>
<polygon fill="midnightblue" stroke="midnightblue" points="699.92,-404.35 703.58,-414.3 706.92,-404.24 699.92,-404.35"/>
</g>
<!-- Node13 -->
<g id="node13" class="node">
<title>Node13</title>
<g id="a_node13"><a xlink:href="../../de/d0c/forces_8f90.html#a7b4708aaec3cc94526474c16bc3a16f0" target="_top" xlink:title="Compute the real&#45;space MHD forces.">
<polygon fill="white" stroke="black" points="551,-528.51 551,-547.51 595,-547.51 595,-528.51 551,-528.51"/>
<text text-anchor="middle" x="573" y="-535.51" font-family="Helvetica,sans-Serif" font-size="10.00">forces</text>
</a>
</g>
</g>
<!-- Node1&#45;&gt;Node13 -->
<g id="edge18" class="edge">
<title>Node1&#45;&gt;Node13</title>
<path fill="none" stroke="midnightblue" d="M685.9,-440.52C666.24,-458.82 633.31,-489.06 604,-514.01 598.31,-518.85 591.86,-524.05 586.4,-528.36"/>
<polygon fill="midnightblue" stroke="midnightblue" points="688.31,-443.06 693.23,-433.68 683.53,-437.94 688.31,-443.06"/>
</g>
<!-- Node14 -->
<g id="node14" class="node">
<title>Node14</title>
<g id="a_node14"><a xlink:href="../../d5/dfd/guess__axis_8f90.html#a375e34fe4656d4c51d5013939bf5617e" target="_top" xlink:title="Computes guess for magnetic axis if user guess leads to initial sign change of Jacobian.">
<polygon fill="white" stroke="black" points="325,-186.51 325,-205.51 390,-205.51 390,-186.51 325,-186.51"/>
<text text-anchor="middle" x="357.5" y="-193.51" font-family="Helvetica,sans-Serif" font-size="10.00">guess_axis</text>
</a>
</g>
</g>
<!-- Node1&#45;&gt;Node14 -->
<g id="edge21" class="edge">
<title>Node1&#45;&gt;Node14</title>
<path fill="none" stroke="midnightblue" d="M697.92,-404.7C686.53,-368.88 657.09,-292.2 604,-253.01 539.05,-205.06 440.21,-196.61 390.06,-195.64"/>
<polygon fill="midnightblue" stroke="midnightblue" points="694.62,-405.87 700.88,-414.42 701.32,-403.83 694.62,-405.87"/>
</g>
<!-- Node15 -->
<g id="node15" class="node">
<title>Node15</title>
<g id="a_node15"><a xlink:href="../../dc/df5/interp_8f90.html#a5bac7725cb89730c4bd187e158dc36ee" target="_top" xlink:title="Interpolate , &#160;and &#160;on full grid.">
<polygon fill="white" stroke="black" points="552.5,-72.51 552.5,-91.51 593.5,-91.51 593.5,-72.51 552.5,-72.51"/>
<text text-anchor="middle" x="573" y="-79.51" font-family="Helvetica,sans-Serif" font-size="10.00">interp</text>
</a>
</g>
</g>
<!-- Node1&#45;&gt;Node15 -->
<g id="edge23" class="edge">
<title>Node1&#45;&gt;Node15</title>
<path fill="none" stroke="midnightblue" d="M701.37,-404.24C694.89,-351.51 671.52,-204.77 604,-106.01 600.16,-100.39 594.62,-95.44 589.34,-91.51"/>
<polygon fill="midnightblue" stroke="midnightblue" points="697.91,-404.75 702.54,-414.28 704.86,-403.94 697.91,-404.75"/>
</g>
<!-- Node17 -->
<g id="node17" class="node">
<title>Node17</title>
<g id="a_node17"><a xlink:href="../../d8/dc3/jacobian_8f90.html#af346f65d2aa225d9ede6e0f23add6142" target="_top" xlink:title="Evaulate the Jacobian of the transform from flux&#45; to cylindrical coordinates.">
<polygon fill="white" stroke="black" points="439.5,-528.51 439.5,-547.51 492.5,-547.51 492.5,-528.51 439.5,-528.51"/>
<text text-anchor="middle" x="466" y="-535.51" font-family="Helvetica,sans-Serif" font-size="10.00">jacobian</text>
</a>
</g>
</g>
<!-- Node1&#45;&gt;Node17 -->
<g id="edge26" class="edge">
<title>Node1&#45;&gt;Node17</title>
<path fill="none" stroke="midnightblue" d="M678.87,-438.89C658.98,-450.66 630.11,-467.18 604,-480.01 565.63,-498.85 519.61,-517.57 491.87,-528.45"/>
<polygon fill="midnightblue" stroke="midnightblue" points="680.8,-441.81 687.6,-433.69 677.22,-435.8 680.8,-441.81"/>
</g>
<!-- Node18 -->
<g id="node18" class="node">
<title>Node18</title>
<g id="a_node18"><a xlink:href="../../d4/d51/lamcal_8f90.html#aae66bdcec0bbb969704413d933148096" target="_top" xlink:title="Normalization parameters for .">
<polygon fill="white" stroke="black" points="550.5,-604.51 550.5,-623.51 595.5,-623.51 595.5,-604.51 550.5,-604.51"/>
<text text-anchor="middle" x="573" y="-611.51" font-family="Helvetica,sans-Serif" font-size="10.00">lamcal</text>
</a>
</g>
</g>
<!-- Node1&#45;&gt;Node18 -->
<g id="edge28" class="edge">
<title>Node1&#45;&gt;Node18</title>
<path fill="none" stroke="midnightblue" d="M695.98,-443.14C681.98,-476.96 649.15,-548.13 604,-595.01 600.58,-598.56 596.37,-601.75 592.19,-604.45"/>
<polygon fill="midnightblue" stroke="midnightblue" points="699.36,-444.14 699.86,-433.55 692.87,-441.51 699.36,-444.14"/>
</g>
<!-- Node19 -->
<g id="node19" class="node">
<title>Node19</title>
<g id="a_node19"><a xlink:href="../../d7/d61/profil1d_8f90.html#a2bc38da2d3b36d16295159df2f8573e2" target="_top" xlink:title="Compute phip and iota profiles on full grid.">
<polygon fill="white" stroke="black" points="549.5,-34.51 549.5,-53.51 596.5,-53.51 596.5,-34.51 549.5,-34.51"/>
<text text-anchor="middle" x="573" y="-41.51" font-family="Helvetica,sans-Serif" font-size="10.00">profil1d</text>
</a>
</g>
</g>
<!-- Node1&#45;&gt;Node19 -->
<g id="edge31" class="edge">
<title>Node1&#45;&gt;Node19</title>
<path fill="none" stroke="midnightblue" d="M702.91,-404.24C700.23,-346.12 685.45,-172.95 604,-63.01 601.28,-59.34 597.63,-56.21 593.81,-53.6"/>
<polygon fill="midnightblue" stroke="midnightblue" points="699.41,-404.42 703.3,-414.28 706.41,-404.15 699.41,-404.42"/>
</g>
<!-- Node20 -->
<g id="node20" class="node">
<title>Node20</title>
<g id="a_node20"><a xlink:href="../../dd/d75/profil3d_8f90.html#a67d2774ceac255f1e1f75e54f4679e9c" target="_top" xlink:title="Compute three&#45;dimensional profiles of flux&#45;surface geometry etc.">
<polygon fill="white" stroke="black" points="549.5,-148.51 549.5,-167.51 596.5,-167.51 596.5,-148.51 549.5,-148.51"/>
<text text-anchor="middle" x="573" y="-155.51" font-family="Helvetica,sans-Serif" font-size="10.00">profil3d</text>
</a>
</g>
</g>
<!-- Node1&#45;&gt;Node20 -->
<g id="edge33" class="edge">
<title>Node1&#45;&gt;Node20</title>
<path fill="none" stroke="midnightblue" d="M699.06,-404.52C688.45,-361.12 658.38,-254.57 604,-182.01 599.92,-176.56 594.33,-171.64 589.08,-167.7"/>
<polygon fill="midnightblue" stroke="midnightblue" points="695.68,-405.44 701.39,-414.36 702.49,-403.82 695.68,-405.44"/>
</g>
<!-- Node21 -->
<g id="node21" class="node">
<title>Node21</title>
<g id="a_node21"><a xlink:href="../../d8/da3/readin_8f90.html#a60f2bfd8fc6f7c3e027a8f91ef0c7b25" target="_top" xlink:title="Read the input file.">
<polygon fill="white" stroke="black" points="161.5,-15.51 161.5,-34.51 204.5,-34.51 204.5,-15.51 161.5,-15.51"/>
<text text-anchor="middle" x="183" y="-22.51" font-family="Helvetica,sans-Serif" font-size="10.00">readin</text>
</a>
</g>
</g>
<!-- Node1&#45;&gt;Node21 -->
<g id="edge36" class="edge">
<title>Node1&#45;&gt;Node21</title>
<path fill="none" stroke="midnightblue" d="M701.43,-404C693.43,-330.53 661.96,-77.1 604,-25.01 558.28,16.08 528.47,-6.01 467,-6.01 467,-6.01 467,-6.01 356.5,-6.01 301.36,-6.01 236.91,-15.71 204.63,-21.25"/>
<polygon fill="midnightblue" stroke="midnightblue" points="697.98,-404.62 702.52,-414.19 704.94,-403.88 697.98,-404.62"/>
</g>
<!-- Node22 -->
<g id="node22" class="node">
<title>Node22</title>
<g id="a_node22"><a xlink:href="../../db/d5a/residue_8f90.html#a2390b3cf93196383bbe960acb85b3e32" target="_top" xlink:title="Compute invariant residuals.">
<polygon fill="white" stroke="black" points="442,-490.51 442,-509.51 490,-509.51 490,-490.51 442,-490.51"/>
<text text-anchor="middle" x="466" y="-497.51" font-family="Helvetica,sans-Serif" font-size="10.00">residue</text>
</a>
</g>
</g>
<!-- Node1&#45;&gt;Node22 -->
<g id="edge38" class="edge">
<title>Node1&#45;&gt;Node22</title>
<path fill="none" stroke="midnightblue" d="M663.79,-436.77C614.12,-452.73 530.72,-479.53 490.32,-492.51"/>
<polygon fill="midnightblue" stroke="midnightblue" points="665.1,-440.02 673.55,-433.63 662.96,-433.36 665.1,-440.02"/>
</g>
<!-- Node23 -->
<g id="node23" class="node">
<title>Node23</title>
<g id="a_node23"><a xlink:href="../../d8/d86/scalfor_8f90.html#a2ef9c34d20ddf30cb7b15fe35066b8ca" target="_top" xlink:title="Build forces from different contributions.">
<polygon fill="white" stroke="black" points="550,-414.51 550,-433.51 596,-433.51 596,-414.51 550,-414.51"/>
<text text-anchor="middle" x="573" y="-421.51" font-family="Helvetica,sans-Serif" font-size="10.00">scalfor</text>
</a>
</g>
</g>
<!-- Node1&#45;&gt;Node23 -->
<g id="edge40" class="edge">
<title>Node1&#45;&gt;Node23</title>
<path fill="none" stroke="midnightblue" d="M629.59,-424.01C617.4,-424.01 605.66,-424.01 596.13,-424.01"/>
<polygon fill="midnightblue" stroke="midnightblue" points="629.89,-427.51 639.89,-424.01 629.89,-420.51 629.89,-427.51"/>
</g>
<!-- Node26 -->
<g id="node26" class="node">
<title>Node26</title>
<g id="a_node26"><a xlink:href="../../d4/df3/symforce_8f90.html#a169610bcc5544fc8e16ad1e10ac85dcb" target="_top" xlink:title="Symmetrize forces on restricted &#160;interval &#160;so cos, sin integrals can be performed.">
<polygon fill="white" stroke="black" points="438,-376.51 438,-395.51 494,-395.51 494,-376.51 438,-376.51"/>
<text text-anchor="middle" x="466" y="-383.51" font-family="Helvetica,sans-Serif" font-size="10.00">symforce</text>
</a>
</g>
</g>
<!-- Node1&#45;&gt;Node26 -->
<g id="edge46" class="edge">
<title>Node1&#45;&gt;Node26</title>
<path fill="none" stroke="midnightblue" d="M646.38,-412.58C632.53,-409.95 617.75,-407.27 604,-405.01 565.97,-398.74 521.78,-392.86 494.1,-389.35"/>
<polygon fill="midnightblue" stroke="midnightblue" points="645.78,-416.03 656.26,-414.48 647.1,-409.16 645.78,-416.03"/>
</g>
<!-- Node27 -->
<g id="node27" class="node">
<title>Node27</title>
<g id="a_node27"><a xlink:href="../../d0/d6f/tomnsp_8f90.html#a6c7345c0aa0f13f311650d9633e6ecf8" target="_top" xlink:title="Fourier&#45;transform anti&#45;symmetric forces from real space to Fourier space.">
<polygon fill="white" stroke="black" points="439,-338.51 439,-357.51 493,-357.51 493,-338.51 439,-338.51"/>
<text text-anchor="middle" x="466" y="-345.51" font-family="Helvetica,sans-Serif" font-size="10.00">tomnspa</text>
</a>
</g>
</g>
<!-- Node1&#45;&gt;Node27 -->
<g id="edge48" class="edge">
<title>Node1&#45;&gt;Node27</title>
<path fill="none" stroke="midnightblue" d="M665.67,-411.3C647.11,-405.11 624.41,-397.59 604,-391.01 565.45,-378.56 520.64,-364.59 493.05,-356.04"/>
<polygon fill="midnightblue" stroke="midnightblue" points="664.64,-414.65 675.23,-414.5 666.86,-408.01 664.64,-414.65"/>
</g>
<!-- Node28 -->
<g id="node28" class="node">
<title>Node28</title>
<g id="a_node28"><a xlink:href="../../d0/d6f/tomnsp_8f90.html#aec4b11e4f55e18c6bfc0348c263e31db" target="_top" xlink:title="Fourier&#45;transform symmetric forces from real space to Fourier space.">
<polygon fill="white" stroke="black" points="439,-300.51 439,-319.51 493,-319.51 493,-300.51 439,-300.51"/>
<text text-anchor="middle" x="466" y="-307.51" font-family="Helvetica,sans-Serif" font-size="10.00">tomnsps</text>
</a>
</g>
</g>
<!-- Node1&#45;&gt;Node28 -->
<g id="edge50" class="edge">
<title>Node1&#45;&gt;Node28</title>
<path fill="none" stroke="midnightblue" d="M679.63,-409.19C659.75,-397.14 630.52,-380.06 604,-367.01 566.09,-348.35 520.53,-330.21 492.68,-319.57"/>
<polygon fill="midnightblue" stroke="midnightblue" points="677.96,-412.28 688.32,-414.5 681.61,-406.3 677.96,-412.28"/>
</g>
<!-- Node29 -->
<g id="node29" class="node">
<title>Node29</title>
<g id="a_node29"><a xlink:href="../../dd/d6d/vacuum_8f90.html#a0acbc18d2ab7664835d797b42ce49a35" target="_top" xlink:title="Compute the vacuum contribution to the free&#45;boundary energy functional.">
<polygon fill="white" stroke="black" points="547.5,-262.51 547.5,-281.51 598.5,-281.51 598.5,-262.51 547.5,-262.51"/>
<text text-anchor="middle" x="573" y="-269.51" font-family="Helvetica,sans-Serif" font-size="10.00">vacuum</text>
</a>
</g>
</g>
<!-- Node1&#45;&gt;Node29 -->
<g id="edge52" class="edge">
<title>Node1&#45;&gt;Node29</title>
<path fill="none" stroke="midnightblue" d="M691.52,-405.97C673.93,-380.17 639.38,-331.88 604,-296.01 598.94,-290.88 592.81,-285.8 587.42,-281.65"/>
<polygon fill="midnightblue" stroke="midnightblue" points="688.7,-408.06 697.2,-414.4 694.51,-404.15 688.7,-408.06"/>
</g>
<!-- Node2&#45;&gt;Node3 -->
<g id="edge2" class="edge">
<title>Node2&#45;&gt;Node3</title>
<path fill="none" stroke="midnightblue" d="M531.67,-652.01C517.2,-652.01 501.43,-652.01 489.08,-652.01"/>
<polygon fill="midnightblue" stroke="midnightblue" points="531.91,-655.51 541.91,-652.01 531.91,-648.51 531.91,-655.51"/>
</g>
<!-- Node3&#45;&gt;Node4 -->
<g id="edge3" class="edge">
<title>Node3&#45;&gt;Node4</title>
<path fill="none" stroke="midnightblue" d="M453.21,-634.07C445.27,-621.81 434.71,-605.1 426,-590.01 401.01,-546.7 374.08,-493.38 363.33,-471.78"/>
<polygon fill="midnightblue" stroke="midnightblue" points="450.3,-636.01 458.69,-642.48 456.16,-632.19 450.3,-636.01"/>
</g>
<!-- Node4&#45;&gt;Node5 -->
<g id="edge4" class="edge">
<title>Node4&#45;&gt;Node5</title>
<path fill="none" stroke="midnightblue" d="M322.72,-469.22C311.51,-471.61 299.34,-474.21 289.28,-476.36"/>
<polygon fill="midnightblue" stroke="midnightblue" points="323.6,-472.61 332.65,-467.1 322.14,-465.76 323.6,-472.61"/>
</g>
<!-- Node9 -->
<g id="node9" class="node">
<title>Node9</title>
<g id="a_node9"><a xlink:href="../../d0/d71/fileout_8f90.html#a7228e984aaf2c38bd772e3d846fab7af" target="_top" xlink:title="Write the output files.">
<polygon fill="white" stroke="black" points="245.5,-433.51 245.5,-452.51 287.5,-452.51 287.5,-433.51 245.5,-433.51"/>
<text text-anchor="middle" x="266.5" y="-440.51" font-family="Helvetica,sans-Serif" font-size="10.00">fileout</text>
</a>
</g>
</g>
<!-- Node4&#45;&gt;Node9 -->
<g id="edge8" class="edge">
<title>Node4&#45;&gt;Node9</title>
<path fill="none" stroke="midnightblue" d="M322.68,-454.79C310.92,-452.28 298.11,-449.54 287.79,-447.34"/>
<polygon fill="midnightblue" stroke="midnightblue" points="322.14,-458.25 332.65,-456.91 323.6,-451.4 322.14,-458.25"/>
</g>
<!-- Node6 -->
<g id="node6" class="node">
<title>Node6</title>
<g id="a_node6"><a xlink:href="../../d7/d46/eqsolve_8f90.html#ab740b09d1b651e2ab8a60c5d552df0c2" target="_top" xlink:title="Iteratively evolve the Fourier coefficients that specify the equilibrium.">
<polygon fill="white" stroke="black" points="158,-167.51 158,-186.51 208,-186.51 208,-167.51 158,-167.51"/>
<text text-anchor="middle" x="183" y="-174.51" font-family="Helvetica,sans-Serif" font-size="10.00">eqsolve</text>
</a>
</g>
</g>
<!-- Node5&#45;&gt;Node6 -->
<g id="edge5" class="edge">
<title>Node5&#45;&gt;Node6</title>
<path fill="none" stroke="midnightblue" d="M245,-463.6C244.65,-463.07 244.31,-462.54 244,-462.01 188.03,-365.87 183.95,-224.49 183.91,-186.63"/>
<polygon fill="midnightblue" stroke="midnightblue" points="242.57,-466.14 251.83,-471.3 247.81,-461.49 242.57,-466.14"/>
</g>
<!-- Node6&#45;&gt;Node7 -->
<g id="edge6" class="edge">
<title>Node6&#45;&gt;Node7</title>
<path fill="none" stroke="midnightblue" d="M147.71,-168.81C138.96,-166.72 129.84,-164.54 122.11,-162.69"/>
<polygon fill="midnightblue" stroke="midnightblue" points="147.18,-172.28 157.72,-171.2 148.8,-165.47 147.18,-172.28"/>
</g>
<!-- Node8 -->
<g id="node8" class="node">
<title>Node8</title>
<g id="a_node8"><a xlink:href="../../db/d61/vmec_8f90.html#ace5bdf043bb85c8f0a9fc582bdb55725" target="_top" xlink:title="Main program of VMEC.">
<polygon fill="white" stroke="black" points="0,-148.51 0,-167.51 45,-167.51 45,-148.51 0,-148.51"/>
<text text-anchor="middle" x="22.5" y="-155.51" font-family="Helvetica,sans-Serif" font-size="10.00">xvmec</text>
</a>
</g>
</g>
<!-- Node7&#45;&gt;Node8 -->
<g id="edge7" class="edge">
<title>Node7&#45;&gt;Node8</title>
<path fill="none" stroke="midnightblue" d="M70.42,-158.01C61.99,-158.01 52.99,-158.01 45.16,-158.01"/>
<polygon fill="midnightblue" stroke="midnightblue" points="70.67,-161.51 80.67,-158.01 70.67,-154.51 70.67,-161.51"/>
</g>
<!-- Node9&#45;&gt;Node7 -->
<g id="edge9" class="edge">
<title>Node9&#45;&gt;Node7</title>
<path fill="none" stroke="midnightblue" d="M254.92,-424.5C223.54,-369.63 131.7,-209.06 108.09,-167.77"/>
<polygon fill="midnightblue" stroke="midnightblue" points="251.89,-426.25 259.89,-433.19 257.96,-422.78 251.89,-426.25"/>
</g>
<!-- Node10&#45;&gt;Node3 -->
<g id="edge12" class="edge">
<title>Node10&#45;&gt;Node3</title>
<path fill="none" stroke="midnightblue" d="M547.04,-591.32C545.31,-592.54 543.62,-593.77 542,-595.01 524.76,-608.2 523.32,-614.93 506,-628.01 499.15,-633.18 491.14,-638.26 484.16,-642.4"/>
<polygon fill="midnightblue" stroke="midnightblue" points="549.36,-593.99 555.76,-585.55 545.49,-588.15 549.36,-593.99"/>
</g>
<!-- Node11 -->
<g id="node11" class="node">
<title>Node11</title>
<g id="a_node11"><a xlink:href="../../d0/d22/eqfor_8f90.html#a4579124c405a906bf05b3d3a0da2d105" target="_top" xlink:title="Basis physics analysis and evaluaton of force balance. This is where most of the contents of the thre...">
<polygon fill="white" stroke="black" points="338.5,-547.51 338.5,-566.51 376.5,-566.51 376.5,-547.51 338.5,-547.51"/>
<text text-anchor="middle" x="357.5" y="-554.51" font-family="Helvetica,sans-Serif" font-size="10.00">eqfor</text>
</a>
</g>
</g>
<!-- Node10&#45;&gt;Node11 -->
<g id="edge13" class="edge">
<title>Node10&#45;&gt;Node11</title>
<path fill="none" stroke="midnightblue" d="M534.79,-586.09C505.02,-592.6 462.39,-598.43 426,-590.01 406.56,-585.51 386.24,-574.6 373.05,-566.55"/>
<polygon fill="midnightblue" stroke="midnightblue" points="535.8,-589.45 544.75,-583.78 534.22,-582.63 535.8,-589.45"/>
</g>
<!-- Node11&#45;&gt;Node9 -->
<g id="edge14" class="edge">
<title>Node11&#45;&gt;Node9</title>
<path fill="none" stroke="midnightblue" d="M345.24,-538.63C332.69,-518.78 311.21,-486.7 289,-462.01 286.07,-458.75 282.61,-455.48 279.34,-452.6"/>
<polygon fill="midnightblue" stroke="midnightblue" points="342.39,-540.67 350.65,-547.3 348.33,-536.96 342.39,-540.67"/>
</g>
<!-- Node12&#45;&gt;Node7 -->
<g id="edge17" class="edge">
<title>Node12&#45;&gt;Node7</title>
<path fill="none" stroke="midnightblue" d="M325.09,-124.7C271.96,-132.65 165.85,-148.53 122.08,-155.08"/>
<polygon fill="midnightblue" stroke="midnightblue" points="325.91,-128.12 335.28,-123.18 324.87,-121.2 325.91,-128.12"/>
</g>
<!-- Node13&#45;&gt;Node4 -->
<g id="edge19" class="edge">
<title>Node13&#45;&gt;Node4</title>
<path fill="none" stroke="midnightblue" d="M542.53,-551.4C511.74,-563.28 462.89,-576.05 426,-557.01 390.4,-538.63 369.49,-491.85 361.84,-471.6"/>
<polygon fill="midnightblue" stroke="midnightblue" points="543.9,-554.62 551.85,-547.61 541.26,-548.13 543.9,-554.62"/>
</g>
<!-- Node14&#45;&gt;Node6 -->
<g id="edge22" class="edge">
<title>Node14&#45;&gt;Node6</title>
<path fill="none" stroke="midnightblue" d="M314.5,-191.38C281.16,-187.71 235.73,-182.7 208.21,-179.67"/>
<polygon fill="midnightblue" stroke="midnightblue" points="314.54,-194.9 324.86,-192.52 315.3,-187.95 314.54,-194.9"/>
</g>
<!-- Node16 -->
<g id="node16" class="node">
<title>Node16</title>
<g id="a_node16"><a xlink:href="../../d9/da6/initialize__radial_8f90.html#a187faea543d3a42bc748511f04b5b7d5" target="_top" xlink:title="Allocates memory for radial arrays and initializes radial profiles.">
<polygon fill="white" stroke="black" points="426,-72.51 426,-91.51 506,-91.51 506,-72.51 426,-72.51"/>
<text text-anchor="middle" x="466" y="-79.51" font-family="Helvetica,sans-Serif" font-size="10.00">initialize_radial</text>
</a>
</g>
</g>
<!-- Node15&#45;&gt;Node16 -->
<g id="edge24" class="edge">
<title>Node15&#45;&gt;Node16</title>
<path fill="none" stroke="midnightblue" d="M542.15,-82.01C530.98,-82.01 518.12,-82.01 506.24,-82.01"/>
<polygon fill="midnightblue" stroke="midnightblue" points="542.25,-85.51 552.25,-82.01 542.25,-78.51 542.25,-85.51"/>
</g>
<!-- Node16&#45;&gt;Node7 -->
<g id="edge25" class="edge">
<title>Node16&#45;&gt;Node7</title>
<path fill="none" stroke="midnightblue" d="M415.98,-87.64C389.04,-91 355.08,-95.64 325,-101.01 250.16,-114.35 231.02,-116.85 158,-138.01 145.9,-141.51 132.61,-146.26 122.08,-150.26"/>
<polygon fill="midnightblue" stroke="midnightblue" points="416.44,-91.11 425.94,-86.42 415.59,-84.17 416.44,-91.11"/>
</g>
<!-- Node17&#45;&gt;Node4 -->
<g id="edge27" class="edge">
<title>Node17&#45;&gt;Node4</title>
<path fill="none" stroke="midnightblue" d="M434.09,-523.84C431.3,-522.3 428.57,-520.68 426,-519.01 403.89,-504.61 381.02,-483.83 368.39,-471.74"/>
<polygon fill="midnightblue" stroke="midnightblue" points="432.53,-526.98 443.02,-528.48 435.76,-520.76 432.53,-526.98"/>
</g>
<!-- Node18&#45;&gt;Node3 -->
<g id="edge29" class="edge">
<title>Node18&#45;&gt;Node3</title>
<path fill="none" stroke="midnightblue" d="M540.69,-625.34C524.12,-631.33 504.16,-638.56 489.2,-643.97"/>
<polygon fill="midnightblue" stroke="midnightblue" points="542.29,-628.48 550.5,-621.79 539.9,-621.9 542.29,-628.48"/>
</g>
<!-- Node19&#45;&gt;Node16 -->
<g id="edge32" class="edge">
<title>Node19&#45;&gt;Node16</title>
<path fill="none" stroke="midnightblue" d="M539.71,-55.69C524.92,-61.05 507.6,-67.31 493.57,-72.39"/>
<polygon fill="midnightblue" stroke="midnightblue" points="541.26,-58.85 549.47,-52.16 538.88,-52.27 541.26,-58.85"/>
</g>
<!-- Node20&#45;&gt;Node6 -->
<g id="edge34" class="edge">
<title>Node20&#45;&gt;Node6</title>
<path fill="none" stroke="midnightblue" d="M539.02,-159.62C462.61,-163.36 274.88,-172.56 208.08,-175.83"/>
<polygon fill="midnightblue" stroke="midnightblue" points="539.65,-163.09 549.46,-159.11 539.3,-156.1 539.65,-163.09"/>
</g>
<!-- Node20&#45;&gt;Node16 -->
<g id="edge35" class="edge">
<title>Node20&#45;&gt;Node16</title>
<path fill="none" stroke="midnightblue" d="M550.36,-142.34C529.24,-127.06 497.81,-104.3 480.19,-91.55"/>
<polygon fill="midnightblue" stroke="midnightblue" points="548.55,-145.35 558.7,-148.38 552.65,-139.68 548.55,-145.35"/>
</g>
<!-- Node21&#45;&gt;Node7 -->
<g id="edge37" class="edge">
<title>Node21&#45;&gt;Node7</title>
<path fill="none" stroke="midnightblue" d="M171.14,-43.17C154.1,-71.67 121.65,-125.96 108.38,-148.17"/>
<polygon fill="midnightblue" stroke="midnightblue" points="174.16,-44.95 176.28,-34.57 168.15,-41.36 174.16,-44.95"/>
</g>
<!-- Node22&#45;&gt;Node4 -->
<g id="edge39" class="edge">
<title>Node22&#45;&gt;Node4</title>
<path fill="none" stroke="midnightblue" d="M432.29,-488.33C416.15,-482.57 397.03,-475.75 382.3,-470.5"/>
<polygon fill="midnightblue" stroke="midnightblue" points="431.3,-491.7 441.89,-491.76 433.65,-485.1 431.3,-491.7"/>
</g>
<!-- Node23&#45;&gt;Node22 -->
<g id="edge41" class="edge">
<title>Node23&#45;&gt;Node22</title>
<path fill="none" stroke="midnightblue" d="M551.72,-439.93C548.44,-442.59 545.1,-445.35 542,-448.01 525.52,-462.13 523.94,-468.79 506,-481.01 500.89,-484.48 495.06,-487.68 489.48,-490.42"/>
<polygon fill="midnightblue" stroke="midnightblue" points="553.96,-442.61 559.59,-433.63 549.59,-437.14 553.96,-442.61"/>
</g>
<!-- Node24 -->
<g id="node24" class="node">
<title>Node24</title>
<g id="a_node24"><a xlink:href="../../d3/d96/residue__con_8f90.html#a8b2d4eb1bd167c336b39b899858e7bfb" target="_top" xlink:title="Compute invariant residuals.">
<polygon fill="white" stroke="black" points="431.5,-414.51 431.5,-433.51 500.5,-433.51 500.5,-414.51 431.5,-414.51"/>
<text text-anchor="middle" x="466" y="-421.51" font-family="Helvetica,sans-Serif" font-size="10.00">residue_con</text>
</a>
</g>
</g>
<!-- Node23&#45;&gt;Node24 -->
<g id="edge42" class="edge">
<title>Node23&#45;&gt;Node24</title>
<path fill="none" stroke="midnightblue" d="M539.63,-424.01C527.24,-424.01 513.07,-424.01 500.57,-424.01"/>
<polygon fill="midnightblue" stroke="midnightblue" points="539.99,-427.51 549.99,-424.01 539.99,-420.51 539.99,-427.51"/>
</g>
<!-- Node25 -->
<g id="node25" class="node">
<title>Node25</title>
<g id="a_node25"><a xlink:href="../../d5/d62/residue__mhd_8f90.html#a3ed729a2f8c8d70e4d2fef05c9dfc4c8" target="_top" xlink:title="Compute invariant residuals.">
<polygon fill="white" stroke="black" points="430,-452.51 430,-471.51 502,-471.51 502,-452.51 430,-452.51"/>
<text text-anchor="middle" x="466" y="-459.51" font-family="Helvetica,sans-Serif" font-size="10.00">residue_mhd</text>
</a>
</g>
</g>
<!-- Node23&#45;&gt;Node25 -->
<g id="edge44" class="edge">
<title>Node23&#45;&gt;Node25</title>
<path fill="none" stroke="midnightblue" d="M540.58,-435.38C525.55,-440.81 507.77,-447.25 493.44,-452.44"/>
<polygon fill="midnightblue" stroke="midnightblue" points="541.78,-438.67 549.99,-431.97 539.39,-432.08 541.78,-438.67"/>
</g>
<!-- Node24&#45;&gt;Node4 -->
<g id="edge43" class="edge">
<title>Node24&#45;&gt;Node4</title>
<path fill="none" stroke="midnightblue" d="M428.41,-437.06C413.08,-442.53 395.7,-448.73 382.1,-453.58"/>
<polygon fill="midnightblue" stroke="midnightblue" points="429.88,-440.25 438.13,-433.59 427.53,-433.66 429.88,-440.25"/>
</g>
<!-- Node25&#45;&gt;Node4 -->
<g id="edge45" class="edge">
<title>Node25&#45;&gt;Node4</title>
<path fill="none" stroke="midnightblue" d="M419.69,-462.01C406.79,-462.01 393.26,-462.01 382.21,-462.01"/>
<polygon fill="midnightblue" stroke="midnightblue" points="419.83,-465.51 429.83,-462.01 419.83,-458.51 419.83,-465.51"/>
</g>
<!-- Node26&#45;&gt;Node4 -->
<g id="edge47" class="edge">
<title>Node26&#45;&gt;Node4</title>
<path fill="none" stroke="midnightblue" d="M434.09,-400.17C431.3,-401.71 428.57,-403.33 426,-405.01 403.89,-419.4 381.02,-440.18 368.39,-452.27"/>
<polygon fill="midnightblue" stroke="midnightblue" points="435.76,-403.25 443.02,-395.53 432.53,-397.03 435.76,-403.25"/>
</g>
<!-- Node27&#45;&gt;Node4 -->
<g id="edge49" class="edge">
<title>Node27&#45;&gt;Node4</title>
<path fill="none" stroke="midnightblue" d="M431.52,-362.86C429.59,-364.16 427.73,-365.54 426,-367.01 396.06,-392.39 372.73,-433.86 363.19,-452.45"/>
<polygon fill="midnightblue" stroke="midnightblue" points="433.48,-365.77 440.34,-357.7 429.94,-359.73 433.48,-365.77"/>
</g>
<!-- Node28&#45;&gt;Node4 -->
<g id="edge51" class="edge">
<title>Node28&#45;&gt;Node4</title>
<path fill="none" stroke="midnightblue" d="M430.55,-325.1C428.94,-326.32 427.41,-327.62 426,-329.01 388.34,-366.05 367.84,-428.51 361.06,-452.36"/>
<polygon fill="midnightblue" stroke="midnightblue" points="432.54,-327.98 439.11,-319.66 428.79,-322.07 432.54,-327.98"/>
</g>
<!-- Node29&#45;&gt;Node4 -->
<g id="edge53" class="edge">
<title>Node29&#45;&gt;Node4</title>
<path fill="none" stroke="midnightblue" d="M545.24,-258.22C513.66,-244.1 461.02,-227.51 426,-253.01 359.1,-301.7 357.12,-418.01 358.06,-452.32"/>
<polygon fill="midnightblue" stroke="midnightblue" points="543.78,-261.4 554.32,-262.48 546.75,-255.07 543.78,-261.4"/>
</g>
<!-- Node30 -->
<g id="node30" class="node">
<title>Node30</title>
<g id="a_node30"><a xlink:href="../../d4/d69/nestor__main_8f90.html#a1b0fd336e80285a96925333daa2ee8f0" target="_top" xlink:title="Main program of stand&#45;alone version of NESTOR.">
<polygon fill="white" stroke="black" points="444,-262.51 444,-281.51 488,-281.51 488,-262.51 444,-262.51"/>
<text text-anchor="middle" x="466" y="-269.51" font-family="Helvetica,sans-Serif" font-size="10.00">nestor</text>
</a>
</g>
</g>
<!-- Node29&#45;&gt;Node30 -->
<g id="edge54" class="edge">
<title>Node29&#45;&gt;Node30</title>
<path fill="none" stroke="midnightblue" d="M537.19,-272.01C521.02,-272.01 502.3,-272.01 488.27,-272.01"/>
<polygon fill="midnightblue" stroke="midnightblue" points="537.38,-275.51 547.38,-272.01 537.38,-268.51 537.38,-275.51"/>
</g>
</g>
</svg>
        <g id="navigator" transform="translate(0 0)" fill="#404254">
                <rect fill="#f2f5e9" fill-opacity="0.5" stroke="#606060" stroke-width=".5" x="0" y="0" width="60" height="60"/>
                <use id="zoomplus" xlink:href="#zoomPlus" x="17" y="9" onmousedown="handleZoom(evt,'in')"/>
                <use id="zoomminus" xlink:href="#zoomMin" x="42" y="9" onmousedown="handleZoom(evt,'out')"/>
                <use id="reset" xlink:href="#resetDef" x="30" y="36" onmousedown="handleReset()"/>
                <g id="arrowUp" xlink:href="#dirArrow" transform="translate(30 24)" onmousedown="handlePan(0,-1)">
                  <use xlink:href="#rim" fill="#404040">
                        <set attributeName="fill" to="#808080" begin="arrowUp.mouseover" end="arrowUp.mouseout"/>
                  </use>
                  <path fill="none" stroke="white" stroke-width="1.5" d="M0,-3.0v7 M-2.5,-0.5L0,-3.0L2.5,-0.5"/>
                </g>
                <g id="arrowRight" xlink:href="#dirArrow" transform="rotate(90) translate(36 -43)" onmousedown="handlePan(1,0)">
                  <use xlink:href="#rim" fill="#404040">
                        <set attributeName="fill" to="#808080" begin="arrowRight.mouseover" end="arrowRight.mouseout"/>
                  </use>
                  <path fill="none" stroke="white" stroke-width="1.5" d="M0,-3.0v7 M-2.5,-0.5L0,-3.0L2.5,-0.5"/>
                </g>
                <g id="arrowDown" xlink:href="#dirArrow" transform="rotate(180) translate(-30 -48)" onmousedown="handlePan(0,1)">
                  <use xlink:href="#rim" fill="#404040">
                        <set attributeName="fill" to="#808080" begin="arrowDown.mouseover" end="arrowDown.mouseout"/>
                  </use>
                  <path fill="none" stroke="white" stroke-width="1.5" d="M0,-3.0v7 M-2.5,-0.5L0,-3.0L2.5,-0.5"/>
                </g>
                <g id="arrowLeft" xlink:href="#dirArrow" transform="rotate(270) translate(-36 17)" onmousedown="handlePan(-1,0)">
                  <use xlink:href="#rim" fill="#404040">
                        <set attributeName="fill" to="#808080" begin="arrowLeft.mouseover" end="arrowLeft.mouseout"/>
                  </use>
                  <path fill="none" stroke="white" stroke-width="1.5" d="M0,-3.0v7 M-2.5,-0.5L0,-3.0L2.5,-0.5"/>
                </g>
        </g>
        <svg viewBox="0 0 15 15" width="100%" height="30px" preserveAspectRatio="xMaxYMin meet">
         <g id="arrow_out" transform="scale(0.3 0.3)">
          <a xlink:href="namespacedbgout_af9a9deb4fdfe84878a6e319b15221492_icgraph_org.svg" target="_base">
           <rect id="button" ry="5" rx="5" y="6" x="6" height="38" width="38"
                fill="#f2f5e9" fill-opacity="0.5" stroke="#606060" stroke-width="1.0"/>
           <path id="arrow"
             d="M 11.500037,31.436501 C 11.940474,20.09759 22.043105,11.32322 32.158766,21.979434 L 37.068811,17.246167 C 37.068811,17.246167 37.088388,32 37.088388,32 L 22.160133,31.978069 C 22.160133,31.978069 26.997745,27.140456 26.997745,27.140456 C 18.528582,18.264221 13.291696,25.230495 11.500037,31.436501 z"
             style="fill:#404040;"/>
          </a>
         </g>
        </svg>
</svg>
