<?xml version="1.0" encoding="UTF-8" standalone="no"?>
<!DOCTYPE svg PUBLIC "-//W3C//DTD SVG 1.1//EN"
 "http://www.w3.org/Graphics/SVG/1.1/DTD/svg11.dtd">
<!-- Generated by graphviz version 2.50.0 (20220203.2022)
 -->
<!-- Title: mgrid_mod::read_mgrid Pages: 1 -->
<svg width="296pt" height="66pt"
 viewBox="0.00 0.00 296.00 66.00" xmlns="http://www.w3.org/2000/svg" xmlns:xlink="http://www.w3.org/1999/xlink">
<g id="graph0" class="graph" transform="scale(1 1) rotate(0) translate(4 62)">
<title>mgrid_mod::read_mgrid</title>
<polygon fill="white" stroke="transparent" points="-4,4 -4,-62 292,-62 292,4 -4,4"/>
<!-- Node1 -->
<g id="node1" class="node">
<title>Node1</title>
<g id="a_node1"><a xlink:title=" ">
<polygon fill="#bfbfbf" stroke="black" points="0,-19.5 0,-38.5 117,-38.5 117,-19.5 0,-19.5"/>
<text text-anchor="middle" x="58.5" y="-26.5" font-family="Helvetica,sans-Serif" font-size="10.00">mgrid_mod::read_mgrid</text>
</a>
</g>
</g>
<!-- Node2 -->
<g id="node2" class="node">
<title>Node2</title>
<g id="a_node2"><a xlink:href="../../d0/d29/namespacesafe__open__mod.html#aab207f9769415b0cccd91260a8382eeb" target="_top" xlink:title=" ">
<polygon fill="white" stroke="black" points="153,-38.5 153,-57.5 288,-57.5 288,-38.5 153,-38.5"/>
<text text-anchor="middle" x="220.5" y="-45.5" font-family="Helvetica,sans-Serif" font-size="10.00">safe_open_mod::safe_open</text>
</a>
</g>
</g>
<!-- Node1&#45;&gt;Node2 -->
<g id="edge1" class="edge">
<title>Node1&#45;&gt;Node2</title>
<path fill="none" stroke="midnightblue" d="M117.26,-35.86C125.56,-36.84 134.21,-37.87 142.8,-38.89"/>
<polygon fill="midnightblue" stroke="midnightblue" points="142.5,-42.38 152.85,-40.09 143.33,-35.43 142.5,-42.38"/>
</g>
<!-- Node3 -->
<g id="node3" class="node">
<title>Node3</title>
<g id="a_node3"><a xlink:href="../../d1/d41/namespacemgrid__mod.html#aa4818ade7a169c68f8b7c3a225fd287e" target="_top" xlink:title=" ">
<polygon fill="white" stroke="black" points="162.5,-0.5 162.5,-19.5 278.5,-19.5 278.5,-0.5 162.5,-0.5"/>
<text text-anchor="middle" x="220.5" y="-7.5" font-family="Helvetica,sans-Serif" font-size="10.00">mgrid_mod::sum_bfield</text>
</a>
</g>
</g>
<!-- Node1&#45;&gt;Node3 -->
<g id="edge2" class="edge">
<title>Node1&#45;&gt;Node3</title>
<path fill="none" stroke="midnightblue" d="M117.26,-22.14C128.62,-20.79 140.62,-19.37 152.25,-17.99"/>
<polygon fill="midnightblue" stroke="midnightblue" points="152.84,-21.44 162.36,-16.79 152.01,-14.49 152.84,-21.44"/>
</g>
</g>
</svg>
