<?xml version="1.0" encoding="UTF-8" standalone="no"?>
<!DOCTYPE svg PUBLIC "-//W3C//DTD SVG 1.1//EN"
 "http://www.w3.org/Graphics/SVG/1.1/DTD/svg11.dtd">
<!-- Generated by graphviz version 2.47.1 (20210421.1823)
 -->
<!-- Title: mgrid_mod::read_mgrid Pages: 1 -->
<svg width="353pt" height="78pt"
 viewBox="0.00 0.00 353.00 77.50" xmlns="http://www.w3.org/2000/svg" xmlns:xlink="http://www.w3.org/1999/xlink">
<g id="graph0" class="graph" transform="scale(1 1) rotate(0) translate(4 73.5)">
<title>mgrid_mod::read_mgrid</title>
<polygon fill="white" stroke="transparent" points="-4,4 -4,-73.5 349,-73.5 349,4 -4,4"/>
<!-- Node1 -->
<g id="node1" class="node">
<title>Node1</title>
<g id="a_node1"><a xlink:title=" ">
<polygon fill="#bfbfbf" stroke="black" points="228,-22.5 228,-41.5 345,-41.5 345,-22.5 228,-22.5"/>
<text text-anchor="middle" x="286.5" y="-29.5" font-family="Helvetica,sans-Serif" font-size="10.00">mgrid_mod::read_mgrid</text>
</a>
</g>
</g>
<!-- Node2 -->
<g id="node2" class="node">
<title>Node2</title>
<g id="a_node2"><a xlink:href="../../db/dc0/namespacenestor__io.html#a84f85fce5232fbd8ee9eca2f2b5adb0c" target="_top" xlink:title=" ">
<polygon fill="white" stroke="black" points="80,-39 80,-69 192,-69 192,-39 80,-39"/>
<text text-anchor="start" x="88" y="-57" font-family="Helvetica,sans-Serif" font-size="10.00">nestor_io::read_nestor</text>
<text text-anchor="middle" x="136" y="-46" font-family="Helvetica,sans-Serif" font-size="10.00">_inputs</text>
</a>
</g>
</g>
<!-- Node1&#45;&gt;Node2 -->
<g id="edge1" class="edge">
<title>Node1&#45;&gt;Node2</title>
<path fill="none" stroke="midnightblue" d="M217.66,-42.05C209.07,-43.32 200.36,-44.61 192.01,-45.85"/>
<polygon fill="midnightblue" stroke="midnightblue" points="218.28,-45.5 227.66,-40.57 217.26,-38.57 218.28,-45.5"/>
</g>
<!-- Node4 -->
<g id="node4" class="node">
<title>Node4</title>
<g id="a_node4"><a xlink:href="../../d8/da3/readin_8f90.html#a60f2bfd8fc6f7c3e027a8f91ef0c7b25" target="_top" xlink:title="Read the input file.">
<polygon fill="white" stroke="black" points="114.5,-0.5 114.5,-19.5 157.5,-19.5 157.5,-0.5 114.5,-0.5"/>
<text text-anchor="middle" x="136" y="-7.5" font-family="Helvetica,sans-Serif" font-size="10.00">readin</text>
</a>
</g>
</g>
<!-- Node1&#45;&gt;Node4 -->
<g id="edge3" class="edge">
<title>Node1&#45;&gt;Node4</title>
<path fill="none" stroke="midnightblue" d="M217.75,-21.96C196.02,-18.74 173.54,-15.41 157.83,-13.09"/>
<polygon fill="midnightblue" stroke="midnightblue" points="217.26,-25.43 227.66,-23.43 218.28,-18.5 217.26,-25.43"/>
</g>
<!-- Node3 -->
<g id="node3" class="node">
<title>Node3</title>
<g id="a_node3"><a xlink:href="../../d4/d69/nestor__main_8f90.html#a1b0fd336e80285a96925333daa2ee8f0" target="_top" xlink:title="Main program of stand&#45;alone version of NESTOR.">
<polygon fill="white" stroke="black" points="0,-44.5 0,-63.5 44,-63.5 44,-44.5 0,-44.5"/>
<text text-anchor="middle" x="22" y="-51.5" font-family="Helvetica,sans-Serif" font-size="10.00">nestor</text>
</a>
</g>
</g>
<!-- Node2&#45;&gt;Node3 -->
<g id="edge2" class="edge">
<title>Node2&#45;&gt;Node3</title>
<path fill="none" stroke="midnightblue" d="M69.88,-54C60.65,-54 51.75,-54 44.24,-54"/>
<polygon fill="midnightblue" stroke="midnightblue" points="69.98,-57.5 79.98,-54 69.98,-50.5 69.98,-57.5"/>
</g>
<!-- Node5 -->
<g id="node5" class="node">
<title>Node5</title>
<g id="a_node5"><a xlink:href="../../db/d61/vmec_8f90.html#a6d38ab7be2f9d818da4541e1d352ea23" target="_top" xlink:title="Main driver for VMEC.">
<polygon fill="white" stroke="black" points="1.5,-0.5 1.5,-19.5 42.5,-19.5 42.5,-0.5 1.5,-0.5"/>
<text text-anchor="middle" x="22" y="-7.5" font-family="Helvetica,sans-Serif" font-size="10.00">vmec</text>
</a>
</g>
</g>
<!-- Node4&#45;&gt;Node5 -->
<g id="edge4" class="edge">
<title>Node4&#45;&gt;Node5</title>
<path fill="none" stroke="midnightblue" d="M104.44,-10C84.75,-10 59.74,-10 42.66,-10"/>
<polygon fill="midnightblue" stroke="midnightblue" points="104.46,-13.5 114.46,-10 104.46,-6.5 104.46,-13.5"/>
</g>
</g>
</svg>
