<?xml version="1.0" encoding="UTF-8" standalone="no"?>
<!DOCTYPE svg PUBLIC "-//W3C//DTD SVG 1.1//EN"
 "http://www.w3.org/Graphics/SVG/1.1/DTD/svg11.dtd">
<!-- Generated by graphviz version 2.49.3 (20211027.1501)
 -->
<!-- Title: jacobian Pages: 1 -->
<svg width="226pt" height="84pt"
 viewBox="0.00 0.00 226.00 84.00" xmlns="http://www.w3.org/2000/svg" xmlns:xlink="http://www.w3.org/1999/xlink">
<g id="graph0" class="graph" transform="scale(1 1) rotate(0) translate(4 80)">
<title>jacobian</title>
<polygon fill="white" stroke="transparent" points="-4,4 -4,-80 222,-80 222,4 -4,4"/>
<!-- Node1 -->
<g id="node1" class="node">
<title>Node1</title>
<g id="a_node1"><a xlink:title="Evaulate the Jacobian of the transform from flux&#45; to cylindrical coordinates.">
<polygon fill="#bfbfbf" stroke="black" points="0,-28.5 0,-47.5 53,-47.5 53,-28.5 0,-28.5"/>
<text text-anchor="middle" x="26.5" y="-35.5" font-family="Helvetica,sans-Serif" font-size="10.00">jacobian</text>
</a>
</g>
</g>
<!-- Node2 -->
<g id="node2" class="node">
<title>Node2</title>
<g id="a_node2"><a xlink:href="../../d8/dfd/namespacedbgout.html#a0752528f123b592bc57f687438b75d9b" target="_top" xlink:title=" ">
<polygon fill="white" stroke="black" points="89,-56.5 89,-75.5 218,-75.5 218,-56.5 89,-56.5"/>
<text text-anchor="middle" x="153.5" y="-63.5" font-family="Helvetica,sans-Serif" font-size="10.00">dbgout::open_dbg_context</text>
</a>
</g>
</g>
<!-- Node1&#45;&gt;Node2 -->
<g id="edge1" class="edge">
<title>Node1&#45;&gt;Node2</title>
<path fill="none" stroke="midnightblue" d="M53.1,-43.73C66.58,-46.75 83.64,-50.58 99.8,-54.2"/>
<polygon fill="midnightblue" stroke="midnightblue" points="99.19,-57.64 109.71,-56.41 100.72,-50.81 99.19,-57.64"/>
</g>
<!-- Node3 -->
<g id="node3" class="node">
<title>Node3</title>
<g id="a_node3"><a xlink:href="../../d8/dfd/namespacedbgout.html#a0537172e9da0db08b9d29ab8880f0559" target="_top" xlink:title=" ">
<polygon fill="white" stroke="black" points="101,-0.5 101,-19.5 206,-19.5 206,-0.5 101,-0.5"/>
<text text-anchor="middle" x="153.5" y="-7.5" font-family="Helvetica,sans-Serif" font-size="10.00">dbgout::should_write</text>
</a>
</g>
</g>
<!-- Node1&#45;&gt;Node3 -->
<g id="edge2" class="edge">
<title>Node1&#45;&gt;Node3</title>
<path fill="none" stroke="midnightblue" d="M53.1,-32.27C66.58,-29.25 83.64,-25.42 99.8,-21.8"/>
<polygon fill="midnightblue" stroke="midnightblue" points="100.72,-25.19 109.71,-19.59 99.19,-18.36 100.72,-25.19"/>
</g>
<!-- Node3&#45;&gt;Node3 -->
<g id="edge3" class="edge">
<title>Node3&#45;&gt;Node3</title>
<path fill="none" stroke="midnightblue" d="M134.08,-19.76C124.63,-28.57 131.11,-38 153.5,-38 167.85,-38 175.66,-34.13 176.94,-29.03"/>
<polygon fill="midnightblue" stroke="midnightblue" points="180.11,-27.54 172.92,-19.76 173.68,-30.32 180.11,-27.54"/>
</g>
</g>
</svg>
