<?xml version="1.0" encoding="UTF-8" standalone="no"?>
<!DOCTYPE svg PUBLIC "-//W3C//DTD SVG 1.1//EN"
 "http://www.w3.org/Graphics/SVG/1.1/DTD/svg11.dtd">
<!-- Generated by graphviz version 2.49.3 (20211215.1918)
 -->
<!-- Title: eqfor Pages: 1 -->
<svg width="414pt" height="370pt"
 viewBox="0.00 0.00 414.00 370.00" xmlns="http://www.w3.org/2000/svg" xmlns:xlink="http://www.w3.org/1999/xlink">
<g id="graph0" class="graph" transform="scale(1 1) rotate(0) translate(4 366)">
<title>eqfor</title>
<polygon fill="white" stroke="transparent" points="-4,4 -4,-366 410,-366 410,4 -4,4"/>
<!-- Node1 -->
<g id="node1" class="node">
<title>Node1</title>
<g id="a_node1"><a xlink:title="Basis physics analysis and evaluaton of force balance. This is where most of the contents of the thre...">
<polygon fill="#bfbfbf" stroke="black" points="0,-247.5 0,-266.5 38,-266.5 38,-247.5 0,-247.5"/>
<text text-anchor="middle" x="19" y="-254.5" font-family="Helvetica,sans-Serif" font-size="10.00">eqfor</text>
</a>
</g>
</g>
<!-- Node2 -->
<g id="node2" class="node">
<title>Node2</title>
<g id="a_node2"><a xlink:href="../../d9/d25/bextrema_8f90.html#aba3f90e7c94f19661c0eea471f1e05a5" target="_top" xlink:title="Computes minimum and maximum &#160;along &#160;between two angle lines ( ).">
<polygon fill="white" stroke="black" points="76.5,-342.5 76.5,-361.5 132.5,-361.5 132.5,-342.5 76.5,-342.5"/>
<text text-anchor="middle" x="104.5" y="-349.5" font-family="Helvetica,sans-Serif" font-size="10.00">bextrema</text>
</a>
</g>
</g>
<!-- Node1&#45;&gt;Node2 -->
<g id="edge1" class="edge">
<title>Node1&#45;&gt;Node2</title>
<path fill="none" stroke="midnightblue" d="M25.3,-266.77C33.99,-282.17 52.47,-312.43 74,-333 75.24,-334.19 76.57,-335.34 77.94,-336.46"/>
<polygon fill="midnightblue" stroke="midnightblue" points="75.99,-339.37 86.15,-342.38 80.09,-333.69 75.99,-339.37"/>
</g>
<!-- Node3 -->
<g id="node3" class="node">
<title>Node3</title>
<g id="a_node3"><a xlink:href="../../d7/d77/bss_8f90.html#acdfd6dccfb28d75e1de40c6822f5736b" target="_top" xlink:title="Computes br, bphi, bz, bsubs on half&#45;radial mesh.">
<polygon fill="white" stroke="black" points="88.5,-304.5 88.5,-323.5 120.5,-323.5 120.5,-304.5 88.5,-304.5"/>
<text text-anchor="middle" x="104.5" y="-311.5" font-family="Helvetica,sans-Serif" font-size="10.00">bss</text>
</a>
</g>
</g>
<!-- Node1&#45;&gt;Node3 -->
<g id="edge2" class="edge">
<title>Node1&#45;&gt;Node3</title>
<path fill="none" stroke="midnightblue" d="M34.16,-266.67C46.96,-275.4 66,-288.4 80.9,-298.57"/>
<polygon fill="midnightblue" stroke="midnightblue" points="79.31,-301.73 89.54,-304.47 83.26,-295.94 79.31,-301.73"/>
</g>
<!-- Node4 -->
<g id="node4" class="node">
<title>Node4</title>
<g id="a_node4"><a xlink:href="../../d8/dfd/namespacedbgout.html#acdd1612a38e44b6469dc03d9d1c6ceed" target="_top" xlink:title="check if any output is desired for the current iteration check if the given context should be openend...">
<polygon fill="white" stroke="black" points="274,-228.5 274,-247.5 403,-247.5 403,-228.5 274,-228.5"/>
<text text-anchor="middle" x="338.5" y="-235.5" font-family="Helvetica,sans-Serif" font-size="10.00">dbgout::open_dbg_context</text>
</a>
</g>
</g>
<!-- Node1&#45;&gt;Node4 -->
<g id="edge18" class="edge">
<title>Node1&#45;&gt;Node4</title>
<path fill="none" stroke="midnightblue" d="M38.17,-257.43C75.26,-258.11 162.32,-258.77 235,-252 244.42,-251.12 254.31,-250.01 264.07,-248.8"/>
<polygon fill="midnightblue" stroke="midnightblue" points="264.7,-252.25 274.17,-247.51 263.81,-245.31 264.7,-252.25"/>
</g>
<!-- Node5 -->
<g id="node5" class="node">
<title>Node5</title>
<g id="a_node5"><a xlink:href="../../d9/dff/calc__fbal_8f90.html#a6cdc3d21c48f66aeaff8ab5e639641b6" target="_top" xlink:title="Compute flux&#45;surface averaged radial force balance .">
<polygon fill="white" stroke="black" points="76.5,-228.5 76.5,-247.5 132.5,-247.5 132.5,-228.5 76.5,-228.5"/>
<text text-anchor="middle" x="104.5" y="-235.5" font-family="Helvetica,sans-Serif" font-size="10.00">calc_fbal</text>
</a>
</g>
</g>
<!-- Node1&#45;&gt;Node5 -->
<g id="edge5" class="edge">
<title>Node1&#45;&gt;Node5</title>
<path fill="none" stroke="midnightblue" d="M38.12,-252.88C46.38,-251 56.48,-248.7 66.24,-246.48"/>
<polygon fill="midnightblue" stroke="midnightblue" points="67.24,-249.84 76.21,-244.21 65.68,-243.02 67.24,-249.84"/>
</g>
<!-- Node6 -->
<g id="node6" class="node">
<title>Node6</title>
<g id="a_node6"><a xlink:href="../../d4/d21/elongation_8f90.html#ad09a13ed71a559093ad6f28eef38c9c7" target="_top" xlink:title="Compute Waist thickness and height in &#160;symmetry planes.">
<polygon fill="white" stroke="black" points="74,-190.5 74,-209.5 135,-209.5 135,-190.5 74,-190.5"/>
<text text-anchor="middle" x="104.5" y="-197.5" font-family="Helvetica,sans-Serif" font-size="10.00">elongation</text>
</a>
</g>
</g>
<!-- Node1&#45;&gt;Node6 -->
<g id="edge7" class="edge">
<title>Node1&#45;&gt;Node6</title>
<path fill="none" stroke="midnightblue" d="M33.21,-247.48C44.08,-239.7 59.93,-228.48 74,-219 75.89,-217.73 77.85,-216.42 79.83,-215.12"/>
<polygon fill="midnightblue" stroke="midnightblue" points="81.93,-217.93 88.41,-209.55 78.12,-212.06 81.93,-217.93"/>
</g>
<!-- Node7 -->
<g id="node7" class="node">
<title>Node7</title>
<g id="a_node7"><a xlink:href="../../d6/d53/jxbforce_8f90.html#aef04f343b688724d6ec0ee8f2a9db7c1" target="_top" xlink:title="Program for computing local &#160;force balance.">
<polygon fill="white" stroke="black" points="79.5,-114.5 79.5,-133.5 129.5,-133.5 129.5,-114.5 79.5,-114.5"/>
<text text-anchor="middle" x="104.5" y="-121.5" font-family="Helvetica,sans-Serif" font-size="10.00">jxbforce</text>
</a>
</g>
</g>
<!-- Node1&#45;&gt;Node7 -->
<g id="edge8" class="edge">
<title>Node1&#45;&gt;Node7</title>
<path fill="none" stroke="midnightblue" d="M26.01,-247.43C39.78,-225.49 73.85,-171.23 91.88,-142.51"/>
<polygon fill="midnightblue" stroke="midnightblue" points="94.97,-144.17 97.32,-133.84 89.04,-140.45 94.97,-144.17"/>
</g>
<!-- Node3&#45;&gt;Node4 -->
<g id="edge3" class="edge">
<title>Node3&#45;&gt;Node4</title>
<path fill="none" stroke="midnightblue" d="M120.61,-312.62C145.15,-310.06 194.93,-303.56 235,-290 263.06,-280.5 293.06,-264.53 313.3,-252.79"/>
<polygon fill="midnightblue" stroke="midnightblue" points="315.3,-255.67 322.14,-247.57 311.74,-249.64 315.3,-255.67"/>
</g>
<!-- Node4&#45;&gt;Node4 -->
<g id="edge4" class="edge">
<title>Node4&#45;&gt;Node4</title>
<path fill="none" stroke="midnightblue" d="M317.85,-247.76C307.8,-256.57 314.68,-266 338.5,-266 353.76,-266 362.07,-262.13 363.43,-257.03"/>
<polygon fill="midnightblue" stroke="midnightblue" points="366.52,-255.37 359.15,-247.76 360.16,-258.3 366.52,-255.37"/>
</g>
<!-- Node5&#45;&gt;Node4 -->
<g id="edge6" class="edge">
<title>Node5&#45;&gt;Node4</title>
<path fill="none" stroke="midnightblue" d="M132.57,-238C164.5,-238 218.92,-238 263.65,-238"/>
<polygon fill="midnightblue" stroke="midnightblue" points="263.91,-241.5 273.91,-238 263.91,-234.5 263.91,-241.5"/>
</g>
<!-- Node7&#45;&gt;Node4 -->
<g id="edge17" class="edge">
<title>Node7&#45;&gt;Node4</title>
<path fill="none" stroke="midnightblue" d="M114.36,-133.77C126.18,-146.27 148.28,-167.9 171,-181 207.02,-201.76 251.78,-216.56 285.83,-225.86"/>
<polygon fill="midnightblue" stroke="midnightblue" points="285.01,-229.27 295.57,-228.46 286.81,-222.5 285.01,-229.27"/>
</g>
<!-- Node8 -->
<g id="node8" class="node">
<title>Node8</title>
<g id="a_node8"><a xlink:href="../../d9/d8e/fext__fft_8f90.html#a5558cd119122c53bb067ab7fc61b9fee" target="_top" xlink:title="Extends &#160;from ntheta2 interval to full ntheta3 interval in angle .">
<polygon fill="white" stroke="black" points="180,-38.5 180,-57.5 226,-57.5 226,-38.5 180,-38.5"/>
<text text-anchor="middle" x="203" y="-45.5" font-family="Helvetica,sans-Serif" font-size="10.00">fext_fft</text>
</a>
</g>
</g>
<!-- Node7&#45;&gt;Node8 -->
<g id="edge9" class="edge">
<title>Node7&#45;&gt;Node8</title>
<path fill="none" stroke="midnightblue" d="M115.71,-114.16C128.23,-102.32 150.34,-82.16 171,-67 172.82,-65.67 174.74,-64.33 176.69,-63.03"/>
<polygon fill="midnightblue" stroke="midnightblue" points="178.71,-65.89 185.26,-57.56 174.94,-59.99 178.71,-65.89"/>
</g>
<!-- Node9 -->
<g id="node9" class="node">
<title>Node9</title>
<g id="a_node9"><a xlink:href="../../da/d22/fsym__fft_8f90.html#a019fe7da811a16aec5f0726e33df73ba" target="_top" xlink:title="Contract bs,bu,bv from full nu interval to half&#45;u interval so cos, sin integrals can be performed on ...">
<polygon fill="white" stroke="black" points="177.5,-0.5 177.5,-19.5 228.5,-19.5 228.5,-0.5 177.5,-0.5"/>
<text text-anchor="middle" x="203" y="-7.5" font-family="Helvetica,sans-Serif" font-size="10.00">fsym_fft</text>
</a>
</g>
</g>
<!-- Node7&#45;&gt;Node9 -->
<g id="edge10" class="edge">
<title>Node7&#45;&gt;Node9</title>
<path fill="none" stroke="midnightblue" d="M110.35,-114.4C119.96,-96.09 142.94,-55.59 171,-29 172.26,-27.81 173.61,-26.65 175.01,-25.54"/>
<polygon fill="midnightblue" stroke="midnightblue" points="177.2,-28.27 183.39,-19.67 173.19,-22.54 177.2,-28.27"/>
</g>
<!-- Node10 -->
<g id="node10" class="node">
<title>Node10</title>
<g id="a_node10"><a xlink:href="../../d4/d23/fsym__invfft_8f90.html#a50d31cc0bfc47f4d0241f5154c78ef2b" target="_top" xlink:title="Extends function from ntheta2 to ntheta3 range.">
<polygon fill="white" stroke="black" points="171,-152.5 171,-171.5 235,-171.5 235,-152.5 171,-152.5"/>
<text text-anchor="middle" x="203" y="-159.5" font-family="Helvetica,sans-Serif" font-size="10.00">fsym_invfft</text>
</a>
</g>
</g>
<!-- Node7&#45;&gt;Node10 -->
<g id="edge11" class="edge">
<title>Node7&#45;&gt;Node10</title>
<path fill="none" stroke="midnightblue" d="M129.85,-133.59C141.51,-138.18 155.66,-143.75 168.32,-148.74"/>
<polygon fill="midnightblue" stroke="midnightblue" points="167.07,-152.01 177.66,-152.41 169.63,-145.49 167.07,-152.01"/>
</g>
<!-- Node11 -->
<g id="node11" class="node">
<title>Node11</title>
<g id="a_node11"><a xlink:href="../../d1/d9b/getbsubs_8f90.html#a5090459bbac22499a3c1c6a97740cd1b" target="_top" xlink:title="Solves the radial force balance &#160;for &#160;in real space using collocation.">
<polygon fill="white" stroke="black" points="175,-76.5 175,-95.5 231,-95.5 231,-76.5 175,-76.5"/>
<text text-anchor="middle" x="203" y="-83.5" font-family="Helvetica,sans-Serif" font-size="10.00">getbsubs</text>
</a>
</g>
</g>
<!-- Node7&#45;&gt;Node11 -->
<g id="edge12" class="edge">
<title>Node7&#45;&gt;Node11</title>
<path fill="none" stroke="midnightblue" d="M129.85,-114.41C141.51,-109.82 155.66,-104.25 168.32,-99.26"/>
<polygon fill="midnightblue" stroke="midnightblue" points="169.63,-102.51 177.66,-95.59 167.07,-95.99 169.63,-102.51"/>
</g>
<!-- Node13 -->
<g id="node13" class="node">
<title>Node13</title>
<g id="a_node13"><a xlink:href="../../de/d25/mercier_8f90.html#a6635929818286c4cff963bd148261208" target="_top" xlink:title="Evaluate the Mercier stability criterion.">
<polygon fill="white" stroke="black" points="178.5,-114.5 178.5,-133.5 227.5,-133.5 227.5,-114.5 178.5,-114.5"/>
<text text-anchor="middle" x="203" y="-121.5" font-family="Helvetica,sans-Serif" font-size="10.00">mercier</text>
</a>
</g>
</g>
<!-- Node7&#45;&gt;Node13 -->
<g id="edge14" class="edge">
<title>Node7&#45;&gt;Node13</title>
<path fill="none" stroke="midnightblue" d="M129.85,-124C141.45,-124 155.52,-124 168.15,-124"/>
<polygon fill="midnightblue" stroke="midnightblue" points="168.32,-127.5 178.32,-124 168.32,-120.5 168.32,-127.5"/>
</g>
<!-- Node12 -->
<g id="node12" class="node">
<title>Node12</title>
<g id="a_node12"><a xlink:href="../../d7/d39/solver_8f90.html#a1e815013ed24a9dddc80410103f4a220" target="_top" xlink:title="Solve a linear system of equations using dgesv.">
<polygon fill="white" stroke="black" points="317,-76.5 317,-95.5 360,-95.5 360,-76.5 317,-76.5"/>
<text text-anchor="middle" x="338.5" y="-83.5" font-family="Helvetica,sans-Serif" font-size="10.00">solver</text>
</a>
</g>
</g>
<!-- Node11&#45;&gt;Node12 -->
<g id="edge13" class="edge">
<title>Node11&#45;&gt;Node12</title>
<path fill="none" stroke="midnightblue" d="M231.02,-86C252.85,-86 283.61,-86 306.46,-86"/>
<polygon fill="midnightblue" stroke="midnightblue" points="306.65,-89.5 316.65,-86 306.65,-82.5 306.65,-89.5"/>
</g>
<!-- Node13&#45;&gt;Node4 -->
<g id="edge15" class="edge">
<title>Node13&#45;&gt;Node4</title>
<path fill="none" stroke="midnightblue" d="M221.13,-133.67C225.76,-136.5 230.67,-139.72 235,-143 267.63,-167.73 301.78,-201.14 321.27,-221.04"/>
<polygon fill="midnightblue" stroke="midnightblue" points="318.97,-223.69 328.45,-228.43 323.99,-218.82 318.97,-223.69"/>
</g>
<!-- Node14 -->
<g id="node14" class="node">
<title>Node14</title>
<g id="a_node14"><a xlink:href="../../d0/d29/namespacesafe__open__mod.html#aab207f9769415b0cccd91260a8382eeb" target="_top" xlink:title=" ">
<polygon fill="white" stroke="black" points="271,-114.5 271,-133.5 406,-133.5 406,-114.5 271,-114.5"/>
<text text-anchor="middle" x="338.5" y="-121.5" font-family="Helvetica,sans-Serif" font-size="10.00">safe_open_mod::safe_open</text>
</a>
</g>
</g>
<!-- Node13&#45;&gt;Node14 -->
<g id="edge16" class="edge">
<title>Node13&#45;&gt;Node14</title>
<path fill="none" stroke="midnightblue" d="M227.56,-124C237.09,-124 248.68,-124 260.72,-124"/>
<polygon fill="midnightblue" stroke="midnightblue" points="260.9,-127.5 270.9,-124 260.9,-120.5 260.9,-127.5"/>
</g>
</g>
</svg>
