<?xml version="1.0" encoding="UTF-8" standalone="no"?>
<!DOCTYPE svg PUBLIC "-//W3C//DTD SVG 1.1//EN"
 "http://www.w3.org/Graphics/SVG/1.1/DTD/svg11.dtd">
<!-- Generated by graphviz version 2.49.3 (20211215.1918)
 -->
<!-- Title: eqfor Pages: 1 -->
<svg width="479pt" height="256pt"
 viewBox="0.00 0.00 479.00 256.00" xmlns="http://www.w3.org/2000/svg" xmlns:xlink="http://www.w3.org/1999/xlink">
<g id="graph0" class="graph" transform="scale(1 1) rotate(0) translate(4 252)">
<title>eqfor</title>
<polygon fill="white" stroke="transparent" points="-4,4 -4,-252 475,-252 475,4 -4,4"/>
<!-- Node1 -->
<g id="node1" class="node">
<title>Node1</title>
<g id="a_node1"><a xlink:title="Basis physics analysis and evaluaton of force balance. This is where most of the contents of the thre...">
<polygon fill="#bfbfbf" stroke="black" points="0,-152.5 0,-171.5 38,-171.5 38,-152.5 0,-152.5"/>
<text text-anchor="middle" x="19" y="-159.5" font-family="Helvetica,sans-Serif" font-size="10.00">eqfor</text>
</a>
</g>
</g>
<!-- Node2 -->
<g id="node2" class="node">
<title>Node2</title>
<g id="a_node2"><a xlink:href="../../d9/d25/bextrema_8f90.html#aba3f90e7c94f19661c0eea471f1e05a5" target="_top" xlink:title="Computes minimum and maximum &#160;along &#160;between two angle lines ( ).">
<polygon fill="white" stroke="black" points="76.5,-228.5 76.5,-247.5 132.5,-247.5 132.5,-228.5 76.5,-228.5"/>
<text text-anchor="middle" x="104.5" y="-235.5" font-family="Helvetica,sans-Serif" font-size="10.00">bextrema</text>
</a>
</g>
</g>
<!-- Node1&#45;&gt;Node2 -->
<g id="edge1" class="edge">
<title>Node1&#45;&gt;Node2</title>
<path fill="none" stroke="midnightblue" d="M27.8,-171.55C37.78,-183.45 55.95,-204.03 74,-219 75.51,-220.25 77.11,-221.49 78.75,-222.7"/>
<polygon fill="midnightblue" stroke="midnightblue" points="76.86,-225.65 87.09,-228.42 80.82,-219.87 76.86,-225.65"/>
</g>
<!-- Node3 -->
<g id="node3" class="node">
<title>Node3</title>
<g id="a_node3"><a xlink:href="../../d7/d77/bss_8f90.html#acdfd6dccfb28d75e1de40c6822f5736b" target="_top" xlink:title="Computes br, bphi, bz, bsubs on half&#45;radial mesh.">
<polygon fill="white" stroke="black" points="88.5,-190.5 88.5,-209.5 120.5,-209.5 120.5,-190.5 88.5,-190.5"/>
<text text-anchor="middle" x="104.5" y="-197.5" font-family="Helvetica,sans-Serif" font-size="10.00">bss</text>
</a>
</g>
</g>
<!-- Node1&#45;&gt;Node3 -->
<g id="edge2" class="edge">
<title>Node1&#45;&gt;Node3</title>
<path fill="none" stroke="midnightblue" d="M38.12,-170.25C50.12,-175.71 66.01,-182.94 79.11,-188.9"/>
<polygon fill="midnightblue" stroke="midnightblue" points="77.93,-192.21 88.49,-193.17 80.83,-185.84 77.93,-192.21"/>
</g>
<!-- Node5 -->
<g id="node5" class="node">
<title>Node5</title>
<g id="a_node5"><a xlink:href="../../d9/dff/calc__fbal_8f90.html#a6cdc3d21c48f66aeaff8ab5e639641b6" target="_top" xlink:title="Compute flux&#45;surface averaged radial force balance .">
<polygon fill="white" stroke="black" points="76.5,-152.5 76.5,-171.5 132.5,-171.5 132.5,-152.5 76.5,-152.5"/>
<text text-anchor="middle" x="104.5" y="-159.5" font-family="Helvetica,sans-Serif" font-size="10.00">calc_fbal</text>
</a>
</g>
</g>
<!-- Node1&#45;&gt;Node5 -->
<g id="edge5" class="edge">
<title>Node1&#45;&gt;Node5</title>
<path fill="none" stroke="midnightblue" d="M38.12,-162C46.29,-162 56.26,-162 65.93,-162"/>
<polygon fill="midnightblue" stroke="midnightblue" points="66.21,-165.5 76.21,-162 66.21,-158.5 66.21,-165.5"/>
</g>
<!-- Node6 -->
<g id="node6" class="node">
<title>Node6</title>
<g id="a_node6"><a xlink:href="../../d4/d21/elongation_8f90.html#ad09a13ed71a559093ad6f28eef38c9c7" target="_top" xlink:title="Compute Waist thickness and height in &#160;symmetry planes.">
<polygon fill="white" stroke="black" points="74,-114.5 74,-133.5 135,-133.5 135,-114.5 74,-114.5"/>
<text text-anchor="middle" x="104.5" y="-121.5" font-family="Helvetica,sans-Serif" font-size="10.00">elongation</text>
</a>
</g>
</g>
<!-- Node1&#45;&gt;Node6 -->
<g id="edge7" class="edge">
<title>Node1&#45;&gt;Node6</title>
<path fill="none" stroke="midnightblue" d="M38.12,-153.75C48.31,-149.12 61.31,-143.2 73.02,-137.87"/>
<polygon fill="midnightblue" stroke="midnightblue" points="74.82,-140.9 82.47,-133.57 71.92,-134.53 74.82,-140.9"/>
</g>
<!-- Node7 -->
<g id="node7" class="node">
<title>Node7</title>
<g id="a_node7"><a xlink:href="../../d6/d53/jxbforce_8f90.html#aef04f343b688724d6ec0ee8f2a9db7c1" target="_top" xlink:title="Program for computing local &#160;force balance.">
<polygon fill="white" stroke="black" points="79.5,-76.5 79.5,-95.5 129.5,-95.5 129.5,-76.5 79.5,-76.5"/>
<text text-anchor="middle" x="104.5" y="-83.5" font-family="Helvetica,sans-Serif" font-size="10.00">jxbforce</text>
</a>
</g>
</g>
<!-- Node1&#45;&gt;Node7 -->
<g id="edge8" class="edge">
<title>Node1&#45;&gt;Node7</title>
<path fill="none" stroke="midnightblue" d="M27.8,-152.45C37.78,-140.55 55.95,-119.97 74,-105 75.51,-103.75 77.11,-102.51 78.75,-101.3"/>
<polygon fill="midnightblue" stroke="midnightblue" points="80.82,-104.13 87.09,-95.58 76.86,-98.35 80.82,-104.13"/>
</g>
<!-- Node4 -->
<g id="node4" class="node">
<title>Node4</title>
<g id="a_node4"><a xlink:href="../../d8/dfd/namespacedbgout.html#acdd1612a38e44b6469dc03d9d1c6ceed" target="_top" xlink:title="check if any output is desired for the current iteration check if the given context should be openend...">
<polygon fill="white" stroke="black" points="171,-190.5 171,-209.5 300,-209.5 300,-190.5 171,-190.5"/>
<text text-anchor="middle" x="235.5" y="-197.5" font-family="Helvetica,sans-Serif" font-size="10.00">dbgout::open_dbg_context</text>
</a>
</g>
</g>
<!-- Node3&#45;&gt;Node4 -->
<g id="edge3" class="edge">
<title>Node3&#45;&gt;Node4</title>
<path fill="none" stroke="midnightblue" d="M120.55,-200C130.91,-200 145.52,-200 160.84,-200"/>
<polygon fill="midnightblue" stroke="midnightblue" points="160.96,-203.5 170.96,-200 160.96,-196.5 160.96,-203.5"/>
</g>
<!-- Node4&#45;&gt;Node4 -->
<g id="edge4" class="edge">
<title>Node4&#45;&gt;Node4</title>
<path fill="none" stroke="midnightblue" d="M215.46,-209.76C205.72,-218.57 212.39,-228 235.5,-228 250.3,-228 258.36,-224.13 259.68,-219.03"/>
<polygon fill="midnightblue" stroke="midnightblue" points="262.81,-217.46 255.54,-209.76 256.42,-220.31 262.81,-217.46"/>
</g>
<!-- Node5&#45;&gt;Node4 -->
<g id="edge6" class="edge">
<title>Node5&#45;&gt;Node4</title>
<path fill="none" stroke="midnightblue" d="M132.54,-169.97C149.86,-175.07 172.69,-181.79 192.36,-187.59"/>
<polygon fill="midnightblue" stroke="midnightblue" points="191.43,-190.96 202.01,-190.43 193.41,-184.25 191.43,-190.96"/>
</g>
<!-- Node8 -->
<g id="node8" class="node">
<title>Node8</title>
<g id="a_node8"><a xlink:href="../../d9/d8e/fext__fft_8f90.html#a5558cd119122c53bb067ab7fc61b9fee" target="_top" xlink:title="Extends &#160;from ntheta2 interval to full ntheta3 interval in angle .">
<polygon fill="white" stroke="black" points="212.5,-152.5 212.5,-171.5 258.5,-171.5 258.5,-152.5 212.5,-152.5"/>
<text text-anchor="middle" x="235.5" y="-159.5" font-family="Helvetica,sans-Serif" font-size="10.00">fext_fft</text>
</a>
</g>
</g>
<!-- Node7&#45;&gt;Node8 -->
<g id="edge9" class="edge">
<title>Node7&#45;&gt;Node8</title>
<path fill="none" stroke="midnightblue" d="M121.91,-95.58C126.31,-98.41 130.97,-101.66 135,-105 152.91,-119.85 151.19,-130.81 171,-143 180.58,-148.89 192.1,-153.06 202.69,-155.95"/>
<polygon fill="midnightblue" stroke="midnightblue" points="201.91,-159.37 212.46,-158.35 203.58,-152.57 201.91,-159.37"/>
</g>
<!-- Node9 -->
<g id="node9" class="node">
<title>Node9</title>
<g id="a_node9"><a xlink:href="../../da/d22/fsym__fft_8f90.html#a019fe7da811a16aec5f0726e33df73ba" target="_top" xlink:title="Contract bs,bu,bv from full nu interval to half&#45;u interval so cos, sin integrals can be performed on ...">
<polygon fill="white" stroke="black" points="210,-114.5 210,-133.5 261,-133.5 261,-114.5 210,-114.5"/>
<text text-anchor="middle" x="235.5" y="-121.5" font-family="Helvetica,sans-Serif" font-size="10.00">fsym_fft</text>
</a>
</g>
</g>
<!-- Node7&#45;&gt;Node9 -->
<g id="edge10" class="edge">
<title>Node7&#45;&gt;Node9</title>
<path fill="none" stroke="midnightblue" d="M129.76,-93.15C149.64,-99 178,-107.36 200.19,-113.89"/>
<polygon fill="midnightblue" stroke="midnightblue" points="199.32,-117.29 209.91,-116.76 201.3,-110.57 199.32,-117.29"/>
</g>
<!-- Node10 -->
<g id="node10" class="node">
<title>Node10</title>
<g id="a_node10"><a xlink:href="../../d4/d23/fsym__invfft_8f90.html#a50d31cc0bfc47f4d0241f5154c78ef2b" target="_top" xlink:title="Extends function from ntheta2 to ntheta3 range.">
<polygon fill="white" stroke="black" points="203.5,-76.5 203.5,-95.5 267.5,-95.5 267.5,-76.5 203.5,-76.5"/>
<text text-anchor="middle" x="235.5" y="-83.5" font-family="Helvetica,sans-Serif" font-size="10.00">fsym_invfft</text>
</a>
</g>
</g>
<!-- Node7&#45;&gt;Node10 -->
<g id="edge11" class="edge">
<title>Node7&#45;&gt;Node10</title>
<path fill="none" stroke="midnightblue" d="M129.76,-86C147.62,-86 172.33,-86 193.26,-86"/>
<polygon fill="midnightblue" stroke="midnightblue" points="193.5,-89.5 203.5,-86 193.5,-82.5 193.5,-89.5"/>
</g>
<!-- Node11 -->
<g id="node11" class="node">
<title>Node11</title>
<g id="a_node11"><a xlink:href="../../d1/d9b/getbsubs_8f90.html#a5090459bbac22499a3c1c6a97740cd1b" target="_top" xlink:title="Solves the radial force balance &#160;for &#160;in real space using collocation.">
<polygon fill="white" stroke="black" points="207.5,-38.5 207.5,-57.5 263.5,-57.5 263.5,-38.5 207.5,-38.5"/>
<text text-anchor="middle" x="235.5" y="-45.5" font-family="Helvetica,sans-Serif" font-size="10.00">getbsubs</text>
</a>
</g>
</g>
<!-- Node7&#45;&gt;Node11 -->
<g id="edge12" class="edge">
<title>Node7&#45;&gt;Node11</title>
<path fill="none" stroke="midnightblue" d="M129.76,-78.85C148.88,-73.22 175.84,-65.28 197.62,-58.86"/>
<polygon fill="midnightblue" stroke="midnightblue" points="198.62,-62.22 207.22,-56.04 196.64,-55.5 198.62,-62.22"/>
</g>
<!-- Node13 -->
<g id="node13" class="node">
<title>Node13</title>
<g id="a_node13"><a xlink:href="../../de/d25/mercier_8f90.html#a6635929818286c4cff963bd148261208" target="_top" xlink:title="Evaluate the Mercier stability criterion.">
<polygon fill="white" stroke="black" points="211,-0.5 211,-19.5 260,-19.5 260,-0.5 211,-0.5"/>
<text text-anchor="middle" x="235.5" y="-7.5" font-family="Helvetica,sans-Serif" font-size="10.00">mercier</text>
</a>
</g>
</g>
<!-- Node7&#45;&gt;Node13 -->
<g id="edge14" class="edge">
<title>Node7&#45;&gt;Node13</title>
<path fill="none" stroke="midnightblue" d="M114.28,-76.1C126.02,-63.44 148.02,-41.65 171,-29 180.3,-23.88 191.14,-19.98 201.21,-17.09"/>
<polygon fill="midnightblue" stroke="midnightblue" points="202.15,-20.46 210.93,-14.53 200.37,-13.69 202.15,-20.46"/>
</g>
<!-- Node12 -->
<g id="node12" class="node">
<title>Node12</title>
<g id="a_node12"><a xlink:href="../../d7/d39/solver_8f90.html#a1e815013ed24a9dddc80410103f4a220" target="_top" xlink:title="Solve a linear system of equations using dgesv.">
<polygon fill="white" stroke="black" points="382,-38.5 382,-57.5 425,-57.5 425,-38.5 382,-38.5"/>
<text text-anchor="middle" x="403.5" y="-45.5" font-family="Helvetica,sans-Serif" font-size="10.00">solver</text>
</a>
</g>
</g>
<!-- Node11&#45;&gt;Node12 -->
<g id="edge13" class="edge">
<title>Node11&#45;&gt;Node12</title>
<path fill="none" stroke="midnightblue" d="M263.54,-48C293.13,-48 340.47,-48 371.52,-48"/>
<polygon fill="midnightblue" stroke="midnightblue" points="371.78,-51.5 381.78,-48 371.77,-44.5 371.78,-51.5"/>
</g>
<!-- Node14 -->
<g id="node14" class="node">
<title>Node14</title>
<g id="a_node14"><a xlink:href="../../d0/d29/namespacesafe__open__mod.html#aab207f9769415b0cccd91260a8382eeb" target="_top" xlink:title=" ">
<polygon fill="white" stroke="black" points="336,-0.5 336,-19.5 471,-19.5 471,-0.5 336,-0.5"/>
<text text-anchor="middle" x="403.5" y="-7.5" font-family="Helvetica,sans-Serif" font-size="10.00">safe_open_mod::safe_open</text>
</a>
</g>
</g>
<!-- Node13&#45;&gt;Node14 -->
<g id="edge15" class="edge">
<title>Node13&#45;&gt;Node14</title>
<path fill="none" stroke="midnightblue" d="M260.28,-10C277.54,-10 301.93,-10 325.64,-10"/>
<polygon fill="midnightblue" stroke="midnightblue" points="325.74,-13.5 335.74,-10 325.74,-6.5 325.74,-13.5"/>
</g>
</g>
</svg>
