<?xml version="1.0" encoding="UTF-8" standalone="no"?>
<!DOCTYPE svg PUBLIC "-//W3C//DTD SVG 1.1//EN"
 "http://www.w3.org/Graphics/SVG/1.1/DTD/svg11.dtd">
<!-- Generated by graphviz version 7.1.0 (20230121.1956)
 -->
<!-- Title: eqfor Pages: 1 -->
<svg width="414pt" height="364pt"
 viewBox="0.00 0.00 414.00 364.00" xmlns="http://www.w3.org/2000/svg" xmlns:xlink="http://www.w3.org/1999/xlink">
<g id="graph0" class="graph" transform="scale(1 1) rotate(0) translate(4 360)">
<title>eqfor</title>
<!-- Node1 -->
<g id="node1" class="node">
<title>Node1</title>
<g id="a_node1"><a xlink:title="Basis physics analysis and evaluaton of force balance. This is where most of the contents of the thre...">
<polygon fill="#999999" stroke="#666666" points="38,-262 0,-262 0,-243 38,-243 38,-262"/>
<text text-anchor="middle" x="19" y="-250" font-family="Helvetica,sans-Serif" font-size="10.00">eqfor</text>
</a>
</g>
</g>
<!-- Node2 -->
<g id="node2" class="node">
<title>Node2</title>
<g id="a_node2"><a xlink:href="../../d9/d25/bextrema_8f90.html#aba3f90e7c94f19661c0eea471f1e05a5" target="_top" xlink:title="Computes minimum and maximum &#160;along &#160;between two angle lines ( ).">
<polygon fill="white" stroke="#666666" points="132.5,-356 76.5,-356 76.5,-337 132.5,-337 132.5,-356"/>
<text text-anchor="middle" x="104.5" y="-344" font-family="Helvetica,sans-Serif" font-size="10.00">bextrema</text>
</a>
</g>
</g>
<!-- Node1&#45;&gt;Node2 -->
<g id="edge1" class="edge">
<title>Node1&#45;&gt;Node2</title>
<path fill="none" stroke="#63b8ff" d="M25.24,-262.33C33.85,-277.81 52.22,-308.19 74,-328.5 74.49,-328.96 75,-329.41 75.52,-329.86"/>
<polygon fill="#63b8ff" stroke="#63b8ff" points="73.24,-332.53 83.37,-335.64 77.39,-326.89 73.24,-332.53"/>
</g>
<!-- Node3 -->
<g id="node3" class="node">
<title>Node3</title>
<g id="a_node3"><a xlink:href="../../d7/d77/bss_8f90.html#acdfd6dccfb28d75e1de40c6822f5736b" target="_top" xlink:title="Computes br, bphi, bz, bsubs on half&#45;radial mesh.">
<polygon fill="white" stroke="#666666" points="120.5,-319 88.5,-319 88.5,-300 120.5,-300 120.5,-319"/>
<text text-anchor="middle" x="104.5" y="-307" font-family="Helvetica,sans-Serif" font-size="10.00">bss</text>
</a>
</g>
</g>
<!-- Node1&#45;&gt;Node3 -->
<g id="edge2" class="edge">
<title>Node1&#45;&gt;Node3</title>
<path fill="none" stroke="#63b8ff" d="M34.54,-262.43C47,-270.93 65.17,-283.33 79.73,-293.27"/>
<polygon fill="#63b8ff" stroke="#63b8ff" points="77.64,-296.08 87.87,-298.83 81.59,-290.3 77.64,-296.08"/>
</g>
<!-- Node4 -->
<g id="node4" class="node">
<title>Node4</title>
<g id="a_node4"><a xlink:href="../../d8/dfd/namespacedbgout.html#acdd1612a38e44b6469dc03d9d1c6ceed" target="_top" xlink:title="check if any output is desired for the current iteration check if the given context should be openend...">
<polygon fill="white" stroke="#666666" points="403,-243 274,-243 274,-224 403,-224 403,-243"/>
<text text-anchor="middle" x="338.5" y="-231" font-family="Helvetica,sans-Serif" font-size="10.00">dbgout::open_dbg_context</text>
</a>
</g>
</g>
<!-- Node1&#45;&gt;Node4 -->
<g id="edge18" class="edge">
<title>Node1&#45;&gt;Node4</title>
<path fill="none" stroke="#63b8ff" d="M38.46,-252.93C75.71,-253.62 162.51,-254.25 235,-247.5 243.9,-246.67 253.21,-245.64 262.44,-244.5"/>
<polygon fill="#63b8ff" stroke="#63b8ff" points="262.64,-248.01 272.12,-243.28 261.76,-241.06 262.64,-248.01"/>
</g>
<!-- Node5 -->
<g id="node5" class="node">
<title>Node5</title>
<g id="a_node5"><a xlink:href="../../d9/dff/calc__fbal_8f90.html#a6cdc3d21c48f66aeaff8ab5e639641b6" target="_top" xlink:title="Compute flux&#45;surface averaged radial force balance .">
<polygon fill="white" stroke="#666666" points="132.5,-243 76.5,-243 76.5,-224 132.5,-224 132.5,-243"/>
<text text-anchor="middle" x="104.5" y="-231" font-family="Helvetica,sans-Serif" font-size="10.00">calc_fbal</text>
</a>
</g>
</g>
<!-- Node1&#45;&gt;Node5 -->
<g id="edge5" class="edge">
<title>Node1&#45;&gt;Node5</title>
<path fill="none" stroke="#63b8ff" d="M38.12,-248.38C46.03,-246.58 55.63,-244.39 65.01,-242.26"/>
<polygon fill="#63b8ff" stroke="#63b8ff" points="65.76,-245.68 74.73,-240.05 64.21,-238.85 65.76,-245.68"/>
</g>
<!-- Node6 -->
<g id="node6" class="node">
<title>Node6</title>
<g id="a_node6"><a xlink:href="../../d4/d21/elongation_8f90.html#ad09a13ed71a559093ad6f28eef38c9c7" target="_top" xlink:title="Compute Waist thickness and height in &#160;symmetry planes.">
<polygon fill="white" stroke="#666666" points="135,-206 74,-206 74,-187 135,-187 135,-206"/>
<text text-anchor="middle" x="104.5" y="-194" font-family="Helvetica,sans-Serif" font-size="10.00">elongation</text>
</a>
</g>
</g>
<!-- Node1&#45;&gt;Node6 -->
<g id="edge7" class="edge">
<title>Node1&#45;&gt;Node6</title>
<path fill="none" stroke="#63b8ff" d="M34.14,-242.65C44.99,-235.13 60.37,-224.56 74,-215.5 75.4,-214.57 76.83,-213.63 78.28,-212.67"/>
<polygon fill="#63b8ff" stroke="#63b8ff" points="80.08,-215.68 86.56,-207.3 76.27,-209.81 80.08,-215.68"/>
</g>
<!-- Node7 -->
<g id="node7" class="node">
<title>Node7</title>
<g id="a_node7"><a xlink:href="../../d6/d53/jxbforce_8f90.html#aef04f343b688724d6ec0ee8f2a9db7c1" target="_top" xlink:title="Program for computing local &#160;force balance.">
<polygon fill="white" stroke="#666666" points="129.5,-130 79.5,-130 79.5,-111 129.5,-111 129.5,-130"/>
<text text-anchor="middle" x="104.5" y="-118" font-family="Helvetica,sans-Serif" font-size="10.00">jxbforce</text>
</a>
</g>
</g>
<!-- Node1&#45;&gt;Node7 -->
<g id="edge8" class="edge">
<title>Node1&#45;&gt;Node7</title>
<path fill="none" stroke="#63b8ff" d="M26.28,-242.58C40.06,-220.78 73.21,-168.39 91.27,-139.84"/>
<polygon fill="#63b8ff" stroke="#63b8ff" points="94.18,-141.78 96.57,-131.46 88.27,-138.04 94.18,-141.78"/>
</g>
<!-- Node3&#45;&gt;Node4 -->
<g id="edge3" class="edge">
<title>Node3&#45;&gt;Node4</title>
<path fill="none" stroke="#63b8ff" d="M120.61,-308.12C145.15,-305.56 194.93,-299.06 235,-285.5 262.36,-276.24 291.56,-260.82 311.76,-249.18"/>
<polygon fill="#63b8ff" stroke="#63b8ff" points="313.3,-252.33 320.14,-244.25 309.75,-246.3 313.3,-252.33"/>
</g>
<!-- Node4&#45;&gt;Node4 -->
<g id="edge4" class="edge">
<title>Node4&#45;&gt;Node4</title>
<path fill="none" stroke="#63b8ff" d="M317.29,-243.37C307.61,-251.94 314.68,-261 338.5,-261 351.53,-261 359.54,-258.29 362.55,-254.43"/>
<polygon fill="#63b8ff" stroke="#63b8ff" points="365.96,-253.65 360.09,-244.83 359.18,-255.39 365.96,-253.65"/>
</g>
<!-- Node5&#45;&gt;Node4 -->
<g id="edge6" class="edge">
<title>Node5&#45;&gt;Node4</title>
<path fill="none" stroke="#63b8ff" d="M132.57,-233.5C164.24,-233.5 218,-233.5 262.52,-233.5"/>
<polygon fill="#63b8ff" stroke="#63b8ff" points="262.4,-237 272.4,-233.5 262.4,-230 262.4,-237"/>
</g>
<!-- Node7&#45;&gt;Node4 -->
<g id="edge17" class="edge">
<title>Node7&#45;&gt;Node4</title>
<path fill="none" stroke="#63b8ff" d="M114.4,-130.08C126.26,-142.36 148.39,-163.6 171,-176.5 206.28,-196.64 249.83,-211.23 283.54,-220.61"/>
<polygon fill="#63b8ff" stroke="#63b8ff" points="282.54,-223.97 293.11,-223.2 284.37,-217.21 282.54,-223.97"/>
</g>
<!-- Node8 -->
<g id="node8" class="node">
<title>Node8</title>
<g id="a_node8"><a xlink:href="../../d9/d8e/fext__fft_8f90.html#a5558cd119122c53bb067ab7fc61b9fee" target="_top" xlink:title="Extends &#160;from ntheta2 interval to full ntheta3 interval in angle .">
<polygon fill="white" stroke="#666666" points="226,-56 180,-56 180,-37 226,-37 226,-56"/>
<text text-anchor="middle" x="203" y="-44" font-family="Helvetica,sans-Serif" font-size="10.00">fext_fft</text>
</a>
</g>
</g>
<!-- Node7&#45;&gt;Node8 -->
<g id="edge9" class="edge">
<title>Node7&#45;&gt;Node8</title>
<path fill="none" stroke="#63b8ff" d="M115.68,-110.77C128.18,-99.08 150.25,-79.21 171,-64.5 171.99,-63.8 173.01,-63.1 174.05,-62.41"/>
<polygon fill="#63b8ff" stroke="#63b8ff" points="175.71,-65.5 182.34,-57.23 172,-59.56 175.71,-65.5"/>
</g>
<!-- Node9 -->
<g id="node9" class="node">
<title>Node9</title>
<g id="a_node9"><a xlink:href="../../da/d22/fsym__fft_8f90.html#a019fe7da811a16aec5f0726e33df73ba" target="_top" xlink:title="Contract bs,bu,bv from full nu interval to half&#45;u interval so cos, sin integrals can be performed on ...">
<polygon fill="white" stroke="#666666" points="228.5,-19 177.5,-19 177.5,0 228.5,0 228.5,-19"/>
<text text-anchor="middle" x="203" y="-7" font-family="Helvetica,sans-Serif" font-size="10.00">fsym_fft</text>
</a>
</g>
</g>
<!-- Node7&#45;&gt;Node9 -->
<g id="edge10" class="edge">
<title>Node7&#45;&gt;Node9</title>
<path fill="none" stroke="#63b8ff" d="M110.49,-110.77C120.18,-92.62 143.04,-53.11 171,-27.5 171.62,-26.93 172.26,-26.37 172.92,-25.83"/>
<polygon fill="#63b8ff" stroke="#63b8ff" points="174.72,-28.84 180.86,-20.21 170.68,-23.13 174.72,-28.84"/>
</g>
<!-- Node10 -->
<g id="node10" class="node">
<title>Node10</title>
<g id="a_node10"><a xlink:href="../../d4/d23/fsym__invfft_8f90.html#a50d31cc0bfc47f4d0241f5154c78ef2b" target="_top" xlink:title="Extends function from ntheta2 to ntheta3 range.">
<polygon fill="white" stroke="#666666" points="235,-167 171,-167 171,-148 235,-148 235,-167"/>
<text text-anchor="middle" x="203" y="-155" font-family="Helvetica,sans-Serif" font-size="10.00">fsym_invfft</text>
</a>
</g>
</g>
<!-- Node7&#45;&gt;Node10 -->
<g id="edge11" class="edge">
<title>Node7&#45;&gt;Node10</title>
<path fill="none" stroke="#63b8ff" d="M129.85,-129.84C140.62,-133.97 153.52,-138.91 165.42,-143.47"/>
<polygon fill="#63b8ff" stroke="#63b8ff" points="163.96,-146.66 174.55,-146.98 166.47,-140.13 163.96,-146.66"/>
</g>
<!-- Node11 -->
<g id="node11" class="node">
<title>Node11</title>
<g id="a_node11"><a xlink:href="../../d1/d9b/getbsubs_8f90.html#a5090459bbac22499a3c1c6a97740cd1b" target="_top" xlink:title="Solves the radial force balance &#160;for &#160;in real space using collocation.">
<polygon fill="white" stroke="#666666" points="231,-93 175,-93 175,-74 231,-74 231,-93"/>
<text text-anchor="middle" x="203" y="-81" font-family="Helvetica,sans-Serif" font-size="10.00">getbsubs</text>
</a>
</g>
</g>
<!-- Node7&#45;&gt;Node11 -->
<g id="edge12" class="edge">
<title>Node7&#45;&gt;Node11</title>
<path fill="none" stroke="#63b8ff" d="M129.85,-111.16C140.62,-107.03 153.52,-102.09 165.42,-97.53"/>
<polygon fill="#63b8ff" stroke="#63b8ff" points="166.47,-100.87 174.55,-94.02 163.96,-94.34 166.47,-100.87"/>
</g>
<!-- Node13 -->
<g id="node13" class="node">
<title>Node13</title>
<g id="a_node13"><a xlink:href="../../de/d25/mercier_8f90.html#a6635929818286c4cff963bd148261208" target="_top" xlink:title="Evaluate the Mercier stability criterion.">
<polygon fill="white" stroke="#666666" points="227.5,-130 178.5,-130 178.5,-111 227.5,-111 227.5,-130"/>
<text text-anchor="middle" x="203" y="-118" font-family="Helvetica,sans-Serif" font-size="10.00">mercier</text>
</a>
</g>
</g>
<!-- Node7&#45;&gt;Node13 -->
<g id="edge14" class="edge">
<title>Node7&#45;&gt;Node13</title>
<path fill="none" stroke="#63b8ff" d="M129.85,-120.5C141.11,-120.5 154.68,-120.5 167.01,-120.5"/>
<polygon fill="#63b8ff" stroke="#63b8ff" points="166.81,-124 176.81,-120.5 166.81,-117 166.81,-124"/>
</g>
<!-- Node12 -->
<g id="node12" class="node">
<title>Node12</title>
<g id="a_node12"><a xlink:href="../../d7/d39/solver_8f90.html#a1e815013ed24a9dddc80410103f4a220" target="_top" xlink:title="Solve a linear system of equations using dgesv.">
<polygon fill="white" stroke="#666666" points="360,-93 317,-93 317,-74 360,-74 360,-93"/>
<text text-anchor="middle" x="338.5" y="-81" font-family="Helvetica,sans-Serif" font-size="10.00">solver</text>
</a>
</g>
</g>
<!-- Node11&#45;&gt;Node12 -->
<g id="edge13" class="edge">
<title>Node11&#45;&gt;Node12</title>
<path fill="none" stroke="#63b8ff" d="M231.34,-83.5C252.81,-83.5 282.75,-83.5 305.36,-83.5"/>
<polygon fill="#63b8ff" stroke="#63b8ff" points="305.24,-87 315.24,-83.5 305.24,-80 305.24,-87"/>
</g>
<!-- Node13&#45;&gt;Node4 -->
<g id="edge15" class="edge">
<title>Node13&#45;&gt;Node4</title>
<path fill="none" stroke="#63b8ff" d="M221.44,-130.38C225.97,-133.16 230.77,-136.31 235,-139.5 266.93,-163.58 300.45,-195.85 320.14,-215.63"/>
<polygon fill="#63b8ff" stroke="#63b8ff" points="317.58,-218.02 327.09,-222.69 322.57,-213.11 317.58,-218.02"/>
</g>
<!-- Node14 -->
<g id="node14" class="node">
<title>Node14</title>
<g id="a_node14"><a xlink:href="../../d0/d29/namespacesafe__open__mod.html#aab207f9769415b0cccd91260a8382eeb" target="_top" xlink:title=" ">
<polygon fill="white" stroke="#666666" points="406,-130 271,-130 271,-111 406,-111 406,-130"/>
<text text-anchor="middle" x="338.5" y="-118" font-family="Helvetica,sans-Serif" font-size="10.00">safe_open_mod::safe_open</text>
</a>
</g>
</g>
<!-- Node13&#45;&gt;Node14 -->
<g id="edge16" class="edge">
<title>Node13&#45;&gt;Node14</title>
<path fill="none" stroke="#63b8ff" d="M227.87,-120.5C236.92,-120.5 247.81,-120.5 259.15,-120.5"/>
<polygon fill="#63b8ff" stroke="#63b8ff" points="259.08,-124 269.08,-120.5 259.08,-117 259.08,-124"/>
</g>
</g>
</svg>
