<?xml version="1.0" encoding="UTF-8" standalone="no"?>
<!DOCTYPE svg PUBLIC "-//W3C//DTD SVG 1.1//EN"
 "http://www.w3.org/Graphics/SVG/1.1/DTD/svg11.dtd">
<!-- Generated by graphviz version 12.0.0 (20240704.0754)
 -->
<!-- Title: eqfor Pages: 1 -->
<svg width="412pt" height="364pt"
 viewBox="0.00 0.00 411.75 364.25" xmlns="http://www.w3.org/2000/svg" xmlns:xlink="http://www.w3.org/1999/xlink">

<svg id="main" version="1.1" xmlns="http://www.w3.org/2000/svg" xmlns:xlink="http://www.w3.org/1999/xlink" xml:space="preserve">

<style type="text/css"><![CDATA[
.node, .edge {opacity: 0.7;}
.node.selected, .edge.selected {opacity: 1;}
.edge:hover path { stroke: red; }
.edge:hover polygon { stroke: red; fill: red; }
]]></style>
<script type="application/ecmascript" xlink:href="../../svg.min.js"/>
<svg id="graph" class="graph">
<g id="graph0" class="graph" transform="scale(1 1) rotate(0) translate(4 360.25)">
<title>eqfor</title>
<!-- Node1 -->
<g id="Node000001" class="node">
<title>Node1</title>
<g id="a_Node000001"><a xlink:title="Basis physics analysis and evaluaton of force balance. This is where most of the contents of the thre...">
<polygon fill="#999999" stroke="#666666" points="37.75,-262.25 0,-262.25 0,-243 37.75,-243 37.75,-262.25"/>
<text text-anchor="middle" x="18.88" y="-248.75" font-family="Helvetica,sans-Serif" font-size="10.00">eqfor</text>
</a>
</g>
</g>
<!-- Node2 -->
<g id="Node000002" class="node">
<title>Node2</title>
<g id="a_Node000002"><a xlink:href="../../d9/d25/bextrema_8f90.html#aba3f90e7c94f19661c0eea471f1e05a5" target="_top" xlink:title="Computes minimum and maximum &#160;along &#160;between two angle lines ( ).">
<polygon fill="white" stroke="#666666" points="131.75,-356.25 76,-356.25 76,-337 131.75,-337 131.75,-356.25"/>
<text text-anchor="middle" x="103.88" y="-342.75" font-family="Helvetica,sans-Serif" font-size="10.00">bextrema</text>
</a>
</g>
</g>
<!-- Node1&#45;&gt;Node2 -->
<g id="edge1_Node000001_Node000002" class="edge">
<title>Node1&#45;&gt;Node2</title>
<g id="a_edge1_Node000001_Node000002"><a xlink:title=" ">
<path fill="none" stroke="#63b8ff" d="M25.26,-262.7C33.91,-278.24 52.17,-308.37 73.75,-328.62 74.24,-329.08 74.74,-329.53 75.25,-329.98"/>
<polygon fill="#63b8ff" stroke="#63b8ff" points="72.87,-332.58 82.99,-335.73 77.05,-326.96 72.87,-332.58"/>
</a>
</g>
</g>
<!-- Node3 -->
<g id="Node000003" class="node">
<title>Node3</title>
<g id="a_Node000003"><a xlink:href="../../d7/d77/bss_8f90.html#acdfd6dccfb28d75e1de40c6822f5736b" target="_top" xlink:title="Computes br, bphi, bz, bsubs on half&#45;radial mesh.">
<polygon fill="white" stroke="#666666" points="119.75,-319.25 88,-319.25 88,-300 119.75,-300 119.75,-319.25"/>
<text text-anchor="middle" x="103.88" y="-305.75" font-family="Helvetica,sans-Serif" font-size="10.00">bss</text>
</a>
</g>
</g>
<!-- Node1&#45;&gt;Node3 -->
<g id="edge2_Node000001_Node000003" class="edge">
<title>Node1&#45;&gt;Node3</title>
<g id="a_edge2_Node000001_Node000003"><a xlink:title=" ">
<path fill="none" stroke="#63b8ff" d="M34.33,-262.55C46.63,-271 64.55,-283.31 78.98,-293.22"/>
<polygon fill="#63b8ff" stroke="#63b8ff" points="76.83,-295.99 87.06,-298.76 80.8,-290.22 76.83,-295.99"/>
</a>
</g>
</g>
<!-- Node4 -->
<g id="Node000004" class="node">
<title>Node4</title>
<g id="a_Node000004"><a xlink:href="../../d8/dfd/namespacedbgout.html#acdd1612a38e44b6469dc03d9d1c6ceed" target="_top" xlink:title="check if any output is desired for the current iteration check if the given context should be openend...">
<polygon fill="white" stroke="#666666" points="400.75,-243.25 272.25,-243.25 272.25,-224 400.75,-224 400.75,-243.25"/>
<text text-anchor="middle" x="336.5" y="-229.75" font-family="Helvetica,sans-Serif" font-size="10.00">dbgout::open_dbg_context</text>
</a>
</g>
</g>
<!-- Node1&#45;&gt;Node4 -->
<g id="edge18_Node000001_Node000004" class="edge">
<title>Node1&#45;&gt;Node4</title>
<g id="a_edge18_Node000001_Node000004"><a xlink:title=" ">
<path fill="none" stroke="#63b8ff" d="M38.19,-253.05C75.16,-253.73 161.31,-254.35 233.25,-247.62 242.13,-246.8 251.42,-245.76 260.63,-244.63"/>
<polygon fill="#63b8ff" stroke="#63b8ff" points="260.8,-248.13 270.28,-243.4 259.92,-241.19 260.8,-248.13"/>
</a>
</g>
</g>
<!-- Node5 -->
<g id="Node000005" class="node">
<title>Node5</title>
<g id="a_Node000005"><a xlink:href="../../d9/dff/calc__fbal_8f90.html#a6cdc3d21c48f66aeaff8ab5e639641b6" target="_top" xlink:title="Compute flux&#45;surface averaged radial force balance .">
<polygon fill="white" stroke="#666666" points="131.38,-243.25 76.38,-243.25 76.38,-224 131.38,-224 131.38,-243.25"/>
<text text-anchor="middle" x="103.88" y="-229.75" font-family="Helvetica,sans-Serif" font-size="10.00">calc_fbal</text>
</a>
</g>
</g>
<!-- Node1&#45;&gt;Node5 -->
<g id="edge5_Node000001_Node000005" class="edge">
<title>Node1&#45;&gt;Node5</title>
<g id="a_edge5_Node000001_Node000005"><a xlink:title=" ">
<path fill="none" stroke="#63b8ff" d="M37.88,-248.5C45.82,-246.69 55.45,-244.48 64.85,-242.33"/>
<polygon fill="#63b8ff" stroke="#63b8ff" points="65.63,-245.74 74.59,-240.1 64.06,-238.92 65.63,-245.74"/>
</a>
</g>
</g>
<!-- Node6 -->
<g id="Node000006" class="node">
<title>Node6</title>
<g id="a_Node000006"><a xlink:href="../../d4/d21/elongation_8f90.html#ad09a13ed71a559093ad6f28eef38c9c7" target="_top" xlink:title="Compute Waist thickness and height in &#160;symmetry planes.">
<polygon fill="white" stroke="#666666" points="134,-206.25 73.75,-206.25 73.75,-187 134,-187 134,-206.25"/>
<text text-anchor="middle" x="103.88" y="-192.75" font-family="Helvetica,sans-Serif" font-size="10.00">elongation</text>
</a>
</g>
</g>
<!-- Node1&#45;&gt;Node6 -->
<g id="edge7_Node000001_Node000006" class="edge">
<title>Node1&#45;&gt;Node6</title>
<g id="a_edge7_Node000001_Node000006"><a xlink:title=" ">
<path fill="none" stroke="#63b8ff" d="M33.45,-242.71C44.25,-234.9 59.81,-223.84 73.75,-214.62 74.74,-213.97 75.76,-213.31 76.78,-212.64"/>
<polygon fill="#63b8ff" stroke="#63b8ff" points="78.27,-215.84 84.85,-207.54 74.53,-209.93 78.27,-215.84"/>
</a>
</g>
</g>
<!-- Node7 -->
<g id="Node000007" class="node">
<title>Node7</title>
<g id="a_Node000007"><a xlink:href="../../d6/d53/jxbforce_8f90.html#aef04f343b688724d6ec0ee8f2a9db7c1" target="_top" xlink:title="Program for computing local &#160;force balance.">
<polygon fill="white" stroke="#666666" points="128.75,-130.25 79,-130.25 79,-111 128.75,-111 128.75,-130.25"/>
<text text-anchor="middle" x="103.88" y="-116.75" font-family="Helvetica,sans-Serif" font-size="10.00">jxbforce</text>
</a>
</g>
</g>
<!-- Node1&#45;&gt;Node7 -->
<g id="edge8_Node000001_Node000007" class="edge">
<title>Node1&#45;&gt;Node7</title>
<g id="a_edge8_Node000001_Node000007"><a xlink:title=" ">
<path fill="none" stroke="#63b8ff" d="M26.11,-242.7C39.75,-221.01 72.44,-169.02 90.45,-140.38"/>
<polygon fill="#63b8ff" stroke="#63b8ff" points="93.4,-142.27 95.76,-131.94 87.47,-138.55 93.4,-142.27"/>
</a>
</g>
</g>
<!-- Node3&#45;&gt;Node4 -->
<g id="edge3_Node000003_Node000004" class="edge">
<title>Node3&#45;&gt;Node4</title>
<g id="a_edge3_Node000003_Node000004"><a xlink:title=" ">
<path fill="none" stroke="#63b8ff" d="M119.86,-308.23C144.18,-305.65 193.54,-299.12 233.25,-285.62 260.55,-276.35 289.67,-260.93 309.82,-249.29"/>
<polygon fill="#63b8ff" stroke="#63b8ff" points="311.34,-252.46 318.18,-244.37 307.79,-246.43 311.34,-252.46"/>
</a>
</g>
</g>
<!-- Node4&#45;&gt;Node4 -->
<g id="edge4_Node000004_Node000004" class="edge">
<title>Node4&#45;&gt;Node4</title>
<g id="a_edge4_Node000004_Node000004"><a xlink:title=" ">
<path fill="none" stroke="#63b8ff" d="M315.38,-243.54C305.75,-252.15 312.79,-261.25 336.5,-261.25 349.47,-261.25 357.45,-258.53 360.44,-254.65"/>
<polygon fill="#63b8ff" stroke="#63b8ff" points="363.84,-253.83 357.99,-245 357.06,-255.56 363.84,-253.83"/>
</a>
</g>
</g>
<!-- Node5&#45;&gt;Node4 -->
<g id="edge6_Node000005_Node000004" class="edge">
<title>Node5&#45;&gt;Node4</title>
<g id="a_edge6_Node000005_Node000004"><a xlink:title=" ">
<path fill="none" stroke="#63b8ff" d="M131.78,-233.62C163.15,-233.62 216.34,-233.62 260.5,-233.62"/>
<polygon fill="#63b8ff" stroke="#63b8ff" points="260.3,-237.13 270.3,-233.63 260.3,-230.13 260.3,-237.13"/>
</a>
</g>
</g>
<!-- Node7&#45;&gt;Node4 -->
<g id="edge17_Node000007_Node000004" class="edge">
<title>Node7&#45;&gt;Node4</title>
<g id="a_edge17_Node000007_Node000004"><a xlink:title=" ">
<path fill="none" stroke="#63b8ff" d="M114.12,-130.63C126,-142.97 147.75,-163.86 170,-176.62 204.81,-196.6 247.75,-211.14 281.17,-220.53"/>
<polygon fill="#63b8ff" stroke="#63b8ff" points="280.08,-223.86 290.65,-223.12 281.93,-217.11 280.08,-223.86"/>
</a>
</g>
</g>
<!-- Node8 -->
<g id="Node000008" class="node">
<title>Node8</title>
<g id="a_Node000008"><a xlink:href="../../d9/d8e/fext__fft_8f90.html#a5558cd119122c53bb067ab7fc61b9fee" target="_top" xlink:title="Extends &#160;from ntheta2 interval to full ntheta3 interval in angle .">
<polygon fill="white" stroke="#666666" points="224.25,-56.25 179,-56.25 179,-37 224.25,-37 224.25,-56.25"/>
<text text-anchor="middle" x="201.62" y="-42.75" font-family="Helvetica,sans-Serif" font-size="10.00">fext_fft</text>
</a>
</g>
</g>
<!-- Node7&#45;&gt;Node8 -->
<g id="edge9_Node000007_Node000008" class="edge">
<title>Node7&#45;&gt;Node8</title>
<g id="a_edge9_Node000007_Node000008"><a xlink:title=" ">
<path fill="none" stroke="#63b8ff" d="M115,-110.9C127.43,-99.23 149.38,-79.37 170,-64.62 170.98,-63.93 171.99,-63.23 173.01,-62.54"/>
<polygon fill="#63b8ff" stroke="#63b8ff" points="174.6,-65.67 181.19,-57.38 170.87,-59.75 174.6,-65.67"/>
</a>
</g>
</g>
<!-- Node9 -->
<g id="Node000009" class="node">
<title>Node9</title>
<g id="a_Node000009"><a xlink:href="../../da/d22/fsym__fft_8f90.html#a019fe7da811a16aec5f0726e33df73ba" target="_top" xlink:title="Contract bs,bu,bv from full nu interval to half&#45;u interval so cos, sin integrals can be performed on ...">
<polygon fill="white" stroke="#666666" points="226.88,-19.25 176.38,-19.25 176.38,0 226.88,0 226.88,-19.25"/>
<text text-anchor="middle" x="201.62" y="-5.75" font-family="Helvetica,sans-Serif" font-size="10.00">fsym_fft</text>
</a>
</g>
</g>
<!-- Node7&#45;&gt;Node9 -->
<g id="edge10_Node000007_Node000009" class="edge">
<title>Node7&#45;&gt;Node9</title>
<g id="a_edge10_Node000007_Node000009"><a xlink:title=" ">
<path fill="none" stroke="#63b8ff" d="M109.99,-110.62C119.7,-92.36 142.34,-53.17 170,-27.62 170.5,-27.17 171,-26.72 171.53,-26.27"/>
<polygon fill="#63b8ff" stroke="#63b8ff" points="173.36,-29.27 179.41,-20.57 169.26,-23.59 173.36,-29.27"/>
</a>
</g>
</g>
<!-- Node10 -->
<g id="Node000010" class="node">
<title>Node10</title>
<g id="a_Node000010"><a xlink:href="../../d4/d23/fsym__invfft_8f90.html#a50d31cc0bfc47f4d0241f5154c78ef2b" target="_top" xlink:title="Extends function from ntheta2 to ntheta3 range.">
<polygon fill="white" stroke="#666666" points="233.25,-167.25 170,-167.25 170,-148 233.25,-148 233.25,-167.25"/>
<text text-anchor="middle" x="201.62" y="-153.75" font-family="Helvetica,sans-Serif" font-size="10.00">fsym_invfft</text>
</a>
</g>
</g>
<!-- Node7&#45;&gt;Node10 -->
<g id="edge11_Node000007_Node000010" class="edge">
<title>Node7&#45;&gt;Node10</title>
<g id="a_edge11_Node000007_Node000010"><a xlink:title=" ">
<path fill="none" stroke="#63b8ff" d="M129.04,-129.96C139.64,-134.06 152.32,-138.96 164.04,-143.49"/>
<polygon fill="#63b8ff" stroke="#63b8ff" points="162.45,-146.63 173.04,-146.97 164.97,-140.1 162.45,-146.63"/>
</a>
</g>
</g>
<!-- Node11 -->
<g id="Node000011" class="node">
<title>Node11</title>
<g id="a_Node000011"><a xlink:href="../../d1/d9b/getbsubs_8f90.html#a5090459bbac22499a3c1c6a97740cd1b" target="_top" xlink:title="Solves the radial force balance &#160;for &#160;in real space using collocation.">
<polygon fill="white" stroke="#666666" points="229.5,-93.25 173.75,-93.25 173.75,-74 229.5,-74 229.5,-93.25"/>
<text text-anchor="middle" x="201.62" y="-79.75" font-family="Helvetica,sans-Serif" font-size="10.00">getbsubs</text>
</a>
</g>
</g>
<!-- Node7&#45;&gt;Node11 -->
<g id="edge12_Node000007_Node000011" class="edge">
<title>Node7&#45;&gt;Node11</title>
<g id="a_edge12_Node000007_Node000011"><a xlink:title=" ">
<path fill="none" stroke="#63b8ff" d="M129.04,-111.29C139.64,-107.19 152.32,-102.29 164.04,-97.76"/>
<polygon fill="#63b8ff" stroke="#63b8ff" points="164.97,-101.15 173.04,-94.28 162.45,-94.62 164.97,-101.15"/>
</a>
</g>
</g>
<!-- Node13 -->
<g id="Node000013" class="node">
<title>Node13</title>
<g id="a_Node000013"><a xlink:href="../../de/d25/mercier_8f90.html#a6635929818286c4cff963bd148261208" target="_top" xlink:title="Evaluate the Mercier stability criterion.">
<polygon fill="white" stroke="#666666" points="225.75,-130.25 177.5,-130.25 177.5,-111 225.75,-111 225.75,-130.25"/>
<text text-anchor="middle" x="201.62" y="-116.75" font-family="Helvetica,sans-Serif" font-size="10.00">mercier</text>
</a>
</g>
</g>
<!-- Node7&#45;&gt;Node13 -->
<g id="edge14_Node000007_Node000013" class="edge">
<title>Node7&#45;&gt;Node13</title>
<g id="a_edge14_Node000007_Node000013"><a xlink:title=" ">
<path fill="none" stroke="#63b8ff" d="M129.04,-120.62C140.2,-120.62 153.67,-120.62 165.9,-120.62"/>
<polygon fill="#63b8ff" stroke="#63b8ff" points="165.62,-124.13 175.62,-120.63 165.62,-117.13 165.62,-124.13"/>
</a>
</g>
</g>
<!-- Node12 -->
<g id="Node000012" class="node">
<title>Node12</title>
<g id="a_Node000012"><a xlink:href="../../d7/d39/solver_8f90.html#a1e815013ed24a9dddc80410103f4a220" target="_top" xlink:title="Solve a linear system of equations using dgesv.">
<polygon fill="white" stroke="#666666" points="357.62,-93.25 315.38,-93.25 315.38,-74 357.62,-74 357.62,-93.25"/>
<text text-anchor="middle" x="336.5" y="-79.75" font-family="Helvetica,sans-Serif" font-size="10.00">solver</text>
</a>
</g>
</g>
<!-- Node11&#45;&gt;Node12 -->
<g id="edge13_Node000011_Node000012" class="edge">
<title>Node11&#45;&gt;Node12</title>
<g id="a_edge13_Node000011_Node000012"><a xlink:title=" ">
<path fill="none" stroke="#63b8ff" d="M229.83,-83.62C251.33,-83.62 281.36,-83.62 303.92,-83.62"/>
<polygon fill="#63b8ff" stroke="#63b8ff" points="303.75,-87.13 313.75,-83.63 303.75,-80.13 303.75,-87.13"/>
</a>
</g>
</g>
<!-- Node13&#45;&gt;Node4 -->
<g id="edge15_Node000013_Node000004" class="edge">
<title>Node13&#45;&gt;Node4</title>
<g id="a_edge15_Node000013_Node000004"><a xlink:title=" ">
<path fill="none" stroke="#63b8ff" d="M221.18,-130.66C225.26,-133.1 229.49,-135.83 233.25,-138.62 265.44,-162.59 298.78,-195.31 318.31,-215.43"/>
<polygon fill="#63b8ff" stroke="#63b8ff" points="315.75,-217.82 325.2,-222.62 320.8,-212.98 315.75,-217.82"/>
</a>
</g>
</g>
<!-- Node14 -->
<g id="Node000014" class="node">
<title>Node14</title>
<g id="a_Node000014"><a xlink:href="../../d0/d29/namespacesafe__open__mod.html#aab207f9769415b0cccd91260a8382eeb" target="_top" xlink:title=" ">
<polygon fill="white" stroke="#666666" points="403.75,-130.25 269.25,-130.25 269.25,-111 403.75,-111 403.75,-130.25"/>
<text text-anchor="middle" x="336.5" y="-116.75" font-family="Helvetica,sans-Serif" font-size="10.00">safe_open_mod::safe_open</text>
</a>
</g>
</g>
<!-- Node13&#45;&gt;Node14 -->
<g id="edge16_Node000013_Node000014" class="edge">
<title>Node13&#45;&gt;Node14</title>
<g id="a_edge16_Node000013_Node000014"><a xlink:title=" ">
<path fill="none" stroke="#63b8ff" d="M226.07,-120.62C235.13,-120.62 246.04,-120.62 257.43,-120.62"/>
<polygon fill="#63b8ff" stroke="#63b8ff" points="257.41,-124.13 267.41,-120.63 257.41,-117.13 257.41,-124.13"/>
</a>
</g>
</g>
</g>
</svg>
</svg>

<style type='text/css'>
<![CDATA[
[data-mouse-over-selected='false'] { opacity: 0.7; }
[data-mouse-over-selected='true']  { opacity: 1.0; }
]]>
</style>
<script type="application/ecmascript"><![CDATA[
document.addEventListener('DOMContentLoaded', (event) => {
  highlightEdges();
  highlightAdjacentNodes();
});
]]></script>
</svg>
