<?xml version="1.0" encoding="UTF-8" standalone="no"?>
<!DOCTYPE svg PUBLIC "-//W3C//DTD SVG 1.1//EN"
 "http://www.w3.org/Graphics/SVG/1.1/DTD/svg11.dtd">
<!-- Generated by graphviz version 8.0.1 (20230327.1645)
 -->
<!-- Title: eqfor Pages: 1 -->
<svg width="414pt" height="364pt"
 viewBox="0.00 0.00 414.00 364.00" xmlns="http://www.w3.org/2000/svg" xmlns:xlink="http://www.w3.org/1999/xlink">
<g id="graph0" class="graph" transform="scale(1 1) rotate(0) translate(4 360)">
<title>eqfor</title>
<!-- Node1 -->
<g id="node1" class="node">
<title>Node1</title>
<g id="a_node1"><a xlink:title="Basis physics analysis and evaluaton of force balance. This is where most of the contents of the thre...">
<polygon fill="#999999" stroke="#666666" points="38,-262 0,-262 0,-243 38,-243 38,-262"/>
<text text-anchor="middle" x="19" y="-250" font-family="Helvetica,sans-Serif" font-size="10.00">eqfor</text>
</a>
</g>
</g>
<!-- Node2 -->
<g id="node2" class="node">
<title>Node2</title>
<g id="a_node2"><a xlink:href="../../d9/d25/bextrema_8f90.html#aba3f90e7c94f19661c0eea471f1e05a5" target="_top" xlink:title="Computes minimum and maximum &#160;along &#160;between two angle lines ( ).">
<polygon fill="white" stroke="#666666" points="132.5,-356 76.5,-356 76.5,-337 132.5,-337 132.5,-356"/>
<text text-anchor="middle" x="104.5" y="-344" font-family="Helvetica,sans-Serif" font-size="10.00">bextrema</text>
</a>
</g>
</g>
<!-- Node1&#45;&gt;Node2 -->
<g id="edge1" class="edge">
<title>Node1&#45;&gt;Node2</title>
<path fill="none" stroke="#63b8ff" d="M25.24,-262.33C33.85,-277.81 52.22,-308.19 74,-328.5 74.59,-329.05 75.2,-329.6 75.83,-330.13"/>
<polygon fill="#63b8ff" stroke="#63b8ff" points="73.45,-333.46 83.58,-336.54 77.58,-327.81 73.45,-333.46"/>
</g>
<!-- Node3 -->
<g id="node3" class="node">
<title>Node3</title>
<g id="a_node3"><a xlink:href="../../d7/d77/bss_8f90.html#acdfd6dccfb28d75e1de40c6822f5736b" target="_top" xlink:title="Computes br, bphi, bz, bsubs on half&#45;radial mesh.">
<polygon fill="white" stroke="#666666" points="120.5,-319 88.5,-319 88.5,-300 120.5,-300 120.5,-319"/>
<text text-anchor="middle" x="104.5" y="-307" font-family="Helvetica,sans-Serif" font-size="10.00">bss</text>
</a>
</g>
</g>
<!-- Node1&#45;&gt;Node3 -->
<g id="edge2" class="edge">
<title>Node1&#45;&gt;Node3</title>
<path fill="none" stroke="#63b8ff" d="M34.54,-262.43C47.12,-271.01 65.52,-283.57 80.15,-293.56"/>
<polygon fill="#63b8ff" stroke="#63b8ff" points="77.89,-296.94 88.12,-299.69 81.84,-291.16 77.89,-296.94"/>
</g>
<!-- Node4 -->
<g id="node4" class="node">
<title>Node4</title>
<g id="a_node4"><a xlink:href="../../d8/dfd/namespacedbgout.html#acdd1612a38e44b6469dc03d9d1c6ceed" target="_top" xlink:title="check if any output is desired for the current iteration check if the given context should be openend...">
<polygon fill="white" stroke="#666666" points="403,-243 274,-243 274,-224 403,-224 403,-243"/>
<text text-anchor="middle" x="338.5" y="-231" font-family="Helvetica,sans-Serif" font-size="10.00">dbgout::open_dbg_context</text>
</a>
</g>
</g>
<!-- Node1&#45;&gt;Node4 -->
<g id="edge18" class="edge">
<title>Node1&#45;&gt;Node4</title>
<path fill="none" stroke="#63b8ff" d="M38.46,-252.93C75.71,-253.62 162.51,-254.25 235,-247.5 244,-246.66 253.42,-245.61 262.75,-244.47"/>
<polygon fill="#63b8ff" stroke="#63b8ff" points="263.15,-247.82 272.62,-243.09 262.26,-240.87 263.15,-247.82"/>
</g>
<!-- Node5 -->
<g id="node5" class="node">
<title>Node5</title>
<g id="a_node5"><a xlink:href="../../d9/dff/calc__fbal_8f90.html#a6cdc3d21c48f66aeaff8ab5e639641b6" target="_top" xlink:title="Compute flux&#45;surface averaged radial force balance .">
<polygon fill="white" stroke="#666666" points="132.5,-243 76.5,-243 76.5,-224 132.5,-224 132.5,-243"/>
<text text-anchor="middle" x="104.5" y="-231" font-family="Helvetica,sans-Serif" font-size="10.00">calc_fbal</text>
</a>
</g>
</g>
<!-- Node1&#45;&gt;Node5 -->
<g id="edge5" class="edge">
<title>Node1&#45;&gt;Node5</title>
<path fill="none" stroke="#63b8ff" d="M38.12,-248.38C46.2,-246.54 56.05,-244.3 65.63,-242.12"/>
<polygon fill="#63b8ff" stroke="#63b8ff" points="66.24,-245.34 75.21,-239.71 64.68,-238.52 66.24,-245.34"/>
</g>
<!-- Node6 -->
<g id="node6" class="node">
<title>Node6</title>
<g id="a_node6"><a xlink:href="../../d4/d21/elongation_8f90.html#ad09a13ed71a559093ad6f28eef38c9c7" target="_top" xlink:title="Compute Waist thickness and height in &#160;symmetry planes.">
<polygon fill="white" stroke="#666666" points="135,-206 74,-206 74,-187 135,-187 135,-206"/>
<text text-anchor="middle" x="104.5" y="-194" font-family="Helvetica,sans-Serif" font-size="10.00">elongation</text>
</a>
</g>
</g>
<!-- Node1&#45;&gt;Node6 -->
<g id="edge7" class="edge">
<title>Node1&#45;&gt;Node6</title>
<path fill="none" stroke="#63b8ff" d="M34.14,-242.65C44.99,-235.13 60.37,-224.56 74,-215.5 75.53,-214.48 77.12,-213.44 78.72,-212.39"/>
<polygon fill="#63b8ff" stroke="#63b8ff" points="80.35,-214.85 86.83,-206.48 76.54,-208.98 80.35,-214.85"/>
</g>
<!-- Node7 -->
<g id="node7" class="node">
<title>Node7</title>
<g id="a_node7"><a xlink:href="../../d6/d53/jxbforce_8f90.html#aef04f343b688724d6ec0ee8f2a9db7c1" target="_top" xlink:title="Program for computing local &#160;force balance.">
<polygon fill="white" stroke="#666666" points="129.5,-130 79.5,-130 79.5,-111 129.5,-111 129.5,-130"/>
<text text-anchor="middle" x="104.5" y="-118" font-family="Helvetica,sans-Serif" font-size="10.00">jxbforce</text>
</a>
</g>
</g>
<!-- Node1&#45;&gt;Node7 -->
<g id="edge8" class="edge">
<title>Node1&#45;&gt;Node7</title>
<path fill="none" stroke="#63b8ff" d="M26.28,-242.58C40.13,-220.68 73.5,-167.93 91.5,-139.46"/>
<polygon fill="#63b8ff" stroke="#63b8ff" points="94.99,-141.5 97.38,-131.18 89.07,-137.76 94.99,-141.5"/>
</g>
<!-- Node3&#45;&gt;Node4 -->
<g id="edge3" class="edge">
<title>Node3&#45;&gt;Node4</title>
<path fill="none" stroke="#63b8ff" d="M120.61,-308.12C145.15,-305.56 194.93,-299.06 235,-285.5 262.49,-276.2 291.82,-260.68 312.04,-249.02"/>
<polygon fill="#63b8ff" stroke="#63b8ff" points="313.6,-251.57 320.45,-243.48 310.05,-245.53 313.6,-251.57"/>
</g>
<!-- Node4&#45;&gt;Node4 -->
<g id="edge4" class="edge">
<title>Node4&#45;&gt;Node4</title>
<path fill="none" stroke="#63b8ff" d="M317.29,-243.37C307.61,-251.94 314.68,-261 338.5,-261 352.27,-261 360.44,-257.97 363.02,-253.76"/>
<polygon fill="#63b8ff" stroke="#63b8ff" points="366.08,-252.84 359.71,-244.37 359.41,-254.96 366.08,-252.84"/>
</g>
<!-- Node5&#45;&gt;Node4 -->
<g id="edge6" class="edge">
<title>Node5&#45;&gt;Node4</title>
<path fill="none" stroke="#63b8ff" d="M132.57,-233.5C164.37,-233.5 218.46,-233.5 263.09,-233.5"/>
<polygon fill="#63b8ff" stroke="#63b8ff" points="262.91,-237 272.91,-233.5 262.91,-230 262.91,-237"/>
</g>
<!-- Node7&#45;&gt;Node4 -->
<g id="edge17" class="edge">
<title>Node7&#45;&gt;Node4</title>
<path fill="none" stroke="#63b8ff" d="M114.4,-130.08C126.26,-142.36 148.39,-163.6 171,-176.5 206.44,-196.72 250.21,-211.36 283.98,-220.73"/>
<polygon fill="#63b8ff" stroke="#63b8ff" points="283.01,-224.37 293.57,-223.59 284.83,-217.61 283.01,-224.37"/>
</g>
<!-- Node8 -->
<g id="node8" class="node">
<title>Node8</title>
<g id="a_node8"><a xlink:href="../../d9/d8e/fext__fft_8f90.html#a5558cd119122c53bb067ab7fc61b9fee" target="_top" xlink:title="Extends &#160;from ntheta2 interval to full ntheta3 interval in angle .">
<polygon fill="white" stroke="#666666" points="226,-56 180,-56 180,-37 226,-37 226,-56"/>
<text text-anchor="middle" x="203" y="-44" font-family="Helvetica,sans-Serif" font-size="10.00">fext_fft</text>
</a>
</g>
</g>
<!-- Node7&#45;&gt;Node8 -->
<g id="edge9" class="edge">
<title>Node7&#45;&gt;Node8</title>
<path fill="none" stroke="#63b8ff" d="M115.68,-110.77C128.18,-99.08 150.25,-79.21 171,-64.5 172.11,-63.71 173.26,-62.92 174.44,-62.15"/>
<polygon fill="#63b8ff" stroke="#63b8ff" points="175.98,-64.69 182.62,-56.43 172.28,-58.74 175.98,-64.69"/>
</g>
<!-- Node9 -->
<g id="node9" class="node">
<title>Node9</title>
<g id="a_node9"><a xlink:href="../../da/d22/fsym__fft_8f90.html#a019fe7da811a16aec5f0726e33df73ba" target="_top" xlink:title="Contract bs,bu,bv from full nu interval to half&#45;u interval so cos, sin integrals can be performed on ...">
<polygon fill="white" stroke="#666666" points="228.5,-19 177.5,-19 177.5,0 228.5,0 228.5,-19"/>
<text text-anchor="middle" x="203" y="-7" font-family="Helvetica,sans-Serif" font-size="10.00">fsym_fft</text>
</a>
</g>
</g>
<!-- Node7&#45;&gt;Node9 -->
<g id="edge10" class="edge">
<title>Node7&#45;&gt;Node9</title>
<path fill="none" stroke="#63b8ff" d="M110.49,-110.77C120.18,-92.62 143.04,-53.11 171,-27.5 171.72,-26.84 172.47,-26.19 173.25,-25.55"/>
<polygon fill="#63b8ff" stroke="#63b8ff" points="174.93,-27.95 181.1,-19.34 170.9,-22.22 174.93,-27.95"/>
</g>
<!-- Node10 -->
<g id="node10" class="node">
<title>Node10</title>
<g id="a_node10"><a xlink:href="../../d4/d23/fsym__invfft_8f90.html#a50d31cc0bfc47f4d0241f5154c78ef2b" target="_top" xlink:title="Extends function from ntheta2 to ntheta3 range.">
<polygon fill="white" stroke="#666666" points="235,-167 171,-167 171,-148 235,-148 235,-167"/>
<text text-anchor="middle" x="203" y="-155" font-family="Helvetica,sans-Serif" font-size="10.00">fsym_invfft</text>
</a>
</g>
</g>
<!-- Node7&#45;&gt;Node10 -->
<g id="edge11" class="edge">
<title>Node7&#45;&gt;Node10</title>
<path fill="none" stroke="#63b8ff" d="M129.85,-129.84C140.73,-134.01 153.79,-139.01 165.78,-143.61"/>
<polygon fill="#63b8ff" stroke="#63b8ff" points="164.37,-147.21 174.97,-147.52 166.88,-140.67 164.37,-147.21"/>
</g>
<!-- Node11 -->
<g id="node11" class="node">
<title>Node11</title>
<g id="a_node11"><a xlink:href="../../d1/d9b/getbsubs_8f90.html#a5090459bbac22499a3c1c6a97740cd1b" target="_top" xlink:title="Solves the radial force balance &#160;for &#160;in real space using collocation.">
<polygon fill="white" stroke="#666666" points="231,-93 175,-93 175,-74 231,-74 231,-93"/>
<text text-anchor="middle" x="203" y="-81" font-family="Helvetica,sans-Serif" font-size="10.00">getbsubs</text>
</a>
</g>
</g>
<!-- Node7&#45;&gt;Node11 -->
<g id="edge12" class="edge">
<title>Node7&#45;&gt;Node11</title>
<path fill="none" stroke="#63b8ff" d="M129.85,-111.16C140.73,-106.99 153.79,-101.99 165.78,-97.39"/>
<polygon fill="#63b8ff" stroke="#63b8ff" points="166.88,-100.33 174.97,-93.48 164.37,-93.79 166.88,-100.33"/>
</g>
<!-- Node13 -->
<g id="node13" class="node">
<title>Node13</title>
<g id="a_node13"><a xlink:href="../../de/d25/mercier_8f90.html#a6635929818286c4cff963bd148261208" target="_top" xlink:title="Evaluate the Mercier stability criterion.">
<polygon fill="white" stroke="#666666" points="227.5,-130 178.5,-130 178.5,-111 227.5,-111 227.5,-130"/>
<text text-anchor="middle" x="203" y="-118" font-family="Helvetica,sans-Serif" font-size="10.00">mercier</text>
</a>
</g>
</g>
<!-- Node7&#45;&gt;Node13 -->
<g id="edge14" class="edge">
<title>Node7&#45;&gt;Node13</title>
<path fill="none" stroke="#63b8ff" d="M129.85,-120.5C141.22,-120.5 154.96,-120.5 167.39,-120.5"/>
<polygon fill="#63b8ff" stroke="#63b8ff" points="167.32,-124 177.32,-120.5 167.32,-117 167.32,-124"/>
</g>
<!-- Node12 -->
<g id="node12" class="node">
<title>Node12</title>
<g id="a_node12"><a xlink:href="../../d7/d39/solver_8f90.html#a1e815013ed24a9dddc80410103f4a220" target="_top" xlink:title="Solve a linear system of equations using dgesv.">
<polygon fill="white" stroke="#666666" points="360,-93 317,-93 317,-74 360,-74 360,-93"/>
<text text-anchor="middle" x="338.5" y="-81" font-family="Helvetica,sans-Serif" font-size="10.00">solver</text>
</a>
</g>
</g>
<!-- Node11&#45;&gt;Node12 -->
<g id="edge13" class="edge">
<title>Node11&#45;&gt;Node12</title>
<path fill="none" stroke="#63b8ff" d="M231.34,-83.5C253,-83.5 283.3,-83.5 305.99,-83.5"/>
<polygon fill="#63b8ff" stroke="#63b8ff" points="305.75,-87 315.75,-83.5 305.75,-80 305.75,-87"/>
</g>
<!-- Node13&#45;&gt;Node4 -->
<g id="edge15" class="edge">
<title>Node13&#45;&gt;Node4</title>
<path fill="none" stroke="#63b8ff" d="M221.44,-130.38C225.97,-133.16 230.77,-136.31 235,-139.5 267.22,-163.79 301.06,-196.43 320.67,-216.16"/>
<polygon fill="#63b8ff" stroke="#63b8ff" points="317.64,-218.1 327.15,-222.77 322.63,-213.19 317.64,-218.1"/>
</g>
<!-- Node14 -->
<g id="node14" class="node">
<title>Node14</title>
<g id="a_node14"><a xlink:href="../../d0/d29/namespacesafe__open__mod.html#aab207f9769415b0cccd91260a8382eeb" target="_top" xlink:title=" ">
<polygon fill="white" stroke="#666666" points="406,-130 271,-130 271,-111 406,-111 406,-130"/>
<text text-anchor="middle" x="338.5" y="-118" font-family="Helvetica,sans-Serif" font-size="10.00">safe_open_mod::safe_open</text>
</a>
</g>
</g>
<!-- Node13&#45;&gt;Node14 -->
<g id="edge16" class="edge">
<title>Node13&#45;&gt;Node14</title>
<path fill="none" stroke="#63b8ff" d="M227.87,-120.5C237.11,-120.5 248.26,-120.5 259.86,-120.5"/>
<polygon fill="#63b8ff" stroke="#63b8ff" points="259.6,-124 269.6,-120.5 259.6,-117 259.6,-124"/>
</g>
</g>
</svg>
