<?xml version="1.0" encoding="UTF-8" standalone="no"?>
<!DOCTYPE svg PUBLIC "-//W3C//DTD SVG 1.1//EN"
 "http://www.w3.org/Graphics/SVG/1.1/DTD/svg11.dtd">
<!-- Generated by graphviz version 8.0.5 (20230430.1635)
 -->
<!-- Title: eqfor Pages: 1 -->
<svg width="412pt" height="364pt"
 viewBox="0.00 0.00 411.75 364.25" xmlns="http://www.w3.org/2000/svg" xmlns:xlink="http://www.w3.org/1999/xlink">

<svg id="main" version="1.1" xmlns="http://www.w3.org/2000/svg" xmlns:xlink="http://www.w3.org/1999/xlink" xml:space="preserve" onload="init(evt)">
<style type="text/css"><![CDATA[
.node, .edge {opacity: 0.7;}
.node.selected, .edge.selected {opacity: 1;}
.edge:hover path { stroke: red; }
.edge:hover polygon { stroke: red; fill: red; }
]]></style>
<script type="application/ecmascript" xlink:href="../../svg.min.js"/>
<svg id="graph" class="graph">
<g id="graph0" class="graph" transform="scale(1 1) rotate(0) translate(4 360.25)">
<title>eqfor</title>
<!-- Node1 -->
<g id="Node000001" class="node">
<title>Node1</title>
<g id="a_Node000001"><a xlink:title="Basis physics analysis and evaluaton of force balance. This is where most of the contents of the thre...">
<polygon fill="#999999" stroke="#666666" points="37.75,-262.25 0,-262.25 0,-243 37.75,-243 37.75,-262.25"/>
<text text-anchor="middle" x="18.88" y="-248.75" font-family="Helvetica,sans-Serif" font-size="10.00">eqfor</text>
</a>
</g>
</g>
<!-- Node2 -->
<g id="Node000002" class="node">
<title>Node2</title>
<g id="a_Node000002"><a xlink:href="../../d9/d25/bextrema_8f90.html#aba3f90e7c94f19661c0eea471f1e05a5" target="_top" xlink:title="Computes minimum and maximum &#160;along &#160;between two angle lines ( ).">
<polygon fill="white" stroke="#666666" points="131.75,-356.25 76,-356.25 76,-337 131.75,-337 131.75,-356.25"/>
<text text-anchor="middle" x="103.88" y="-342.75" font-family="Helvetica,sans-Serif" font-size="10.00">bextrema</text>
</a>
</g>
</g>
<!-- Node1&#45;&gt;Node2 -->
<g id="edge1_Node000001_Node000002" class="edge">
<title>Node1&#45;&gt;Node2</title>
<g id="a_edge1_Node000001_Node000002"><a xlink:title=" ">
<path fill="none" stroke="#63b8ff" d="M25.26,-262.7C33.91,-278.24 52.17,-308.37 73.75,-328.62 74.34,-329.17 74.94,-329.72 75.56,-330.25"/>
<polygon fill="#63b8ff" stroke="#63b8ff" points="73.08,-333.51 83.2,-336.64 77.24,-327.88 73.08,-333.51"/>
</a>
</g>
</g>
<!-- Node3 -->
<g id="Node000003" class="node">
<title>Node3</title>
<g id="a_Node000003"><a xlink:href="../../d7/d77/bss_8f90.html#acdfd6dccfb28d75e1de40c6822f5736b" target="_top" xlink:title="Computes br, bphi, bz, bsubs on half&#45;radial mesh.">
<polygon fill="white" stroke="#666666" points="119.75,-319.25 88,-319.25 88,-300 119.75,-300 119.75,-319.25"/>
<text text-anchor="middle" x="103.88" y="-305.75" font-family="Helvetica,sans-Serif" font-size="10.00">bss</text>
</a>
</g>
</g>
<!-- Node1&#45;&gt;Node3 -->
<g id="edge2_Node000001_Node000003" class="edge">
<title>Node1&#45;&gt;Node3</title>
<g id="a_edge2_Node000001_Node000003"><a xlink:title=" ">
<path fill="none" stroke="#63b8ff" d="M34.33,-262.55C46.75,-271.08 64.9,-283.54 79.4,-293.5"/>
<polygon fill="#63b8ff" stroke="#63b8ff" points="77.08,-296.84 87.3,-299.62 81.04,-291.07 77.08,-296.84"/>
</a>
</g>
</g>
<!-- Node4 -->
<g id="Node000004" class="node">
<title>Node4</title>
<g id="a_Node000004"><a xlink:href="../../d8/dfd/namespacedbgout.html#acdd1612a38e44b6469dc03d9d1c6ceed" target="_top" xlink:title="check if any output is desired for the current iteration check if the given context should be openend...">
<polygon fill="white" stroke="#666666" points="400.75,-243.25 272.25,-243.25 272.25,-224 400.75,-224 400.75,-243.25"/>
<text text-anchor="middle" x="336.5" y="-229.75" font-family="Helvetica,sans-Serif" font-size="10.00">dbgout::open_dbg_context</text>
</a>
</g>
</g>
<!-- Node1&#45;&gt;Node4 -->
<g id="edge18_Node000001_Node000004" class="edge">
<title>Node1&#45;&gt;Node4</title>
<g id="a_edge18_Node000001_Node000004"><a xlink:title=" ">
<path fill="none" stroke="#63b8ff" d="M38.19,-253.05C75.16,-253.73 161.31,-254.35 233.25,-247.62 242.23,-246.79 251.62,-245.74 260.93,-244.59"/>
<polygon fill="#63b8ff" stroke="#63b8ff" points="261.3,-247.94 270.78,-243.21 260.42,-241 261.3,-247.94"/>
</a>
</g>
</g>
<!-- Node5 -->
<g id="Node000005" class="node">
<title>Node5</title>
<g id="a_Node000005"><a xlink:href="../../d9/dff/calc__fbal_8f90.html#a6cdc3d21c48f66aeaff8ab5e639641b6" target="_top" xlink:title="Compute flux&#45;surface averaged radial force balance .">
<polygon fill="white" stroke="#666666" points="131.38,-243.25 76.38,-243.25 76.38,-224 131.38,-224 131.38,-243.25"/>
<text text-anchor="middle" x="103.88" y="-229.75" font-family="Helvetica,sans-Serif" font-size="10.00">calc_fbal</text>
</a>
</g>
</g>
<!-- Node1&#45;&gt;Node5 -->
<g id="edge5_Node000001_Node000005" class="edge">
<title>Node1&#45;&gt;Node5</title>
<g id="a_edge5_Node000001_Node000005"><a xlink:title=" ">
<path fill="none" stroke="#63b8ff" d="M37.88,-248.5C45.99,-246.65 55.88,-244.38 65.47,-242.19"/>
<polygon fill="#63b8ff" stroke="#63b8ff" points="66.1,-245.4 75.07,-239.76 64.54,-238.58 66.1,-245.4"/>
</a>
</g>
</g>
<!-- Node6 -->
<g id="Node000006" class="node">
<title>Node6</title>
<g id="a_Node000006"><a xlink:href="../../d4/d21/elongation_8f90.html#ad09a13ed71a559093ad6f28eef38c9c7" target="_top" xlink:title="Compute Waist thickness and height in &#160;symmetry planes.">
<polygon fill="white" stroke="#666666" points="134,-206.25 73.75,-206.25 73.75,-187 134,-187 134,-206.25"/>
<text text-anchor="middle" x="103.88" y="-192.75" font-family="Helvetica,sans-Serif" font-size="10.00">elongation</text>
</a>
</g>
</g>
<!-- Node1&#45;&gt;Node6 -->
<g id="edge7_Node000001_Node000006" class="edge">
<title>Node1&#45;&gt;Node6</title>
<g id="a_edge7_Node000001_Node000006"><a xlink:title=" ">
<path fill="none" stroke="#63b8ff" d="M33.45,-242.71C44.25,-234.9 59.81,-223.84 73.75,-214.62 74.87,-213.89 76.01,-213.14 77.17,-212.39"/>
<polygon fill="#63b8ff" stroke="#63b8ff" points="78.54,-215.03 85.13,-206.73 74.81,-209.11 78.54,-215.03"/>
</a>
</g>
</g>
<!-- Node7 -->
<g id="Node000007" class="node">
<title>Node7</title>
<g id="a_Node000007"><a xlink:href="../../d6/d53/jxbforce_8f90.html#aef04f343b688724d6ec0ee8f2a9db7c1" target="_top" xlink:title="Program for computing local &#160;force balance.">
<polygon fill="white" stroke="#666666" points="128.75,-130.25 79,-130.25 79,-111 128.75,-111 128.75,-130.25"/>
<text text-anchor="middle" x="103.88" y="-116.75" font-family="Helvetica,sans-Serif" font-size="10.00">jxbforce</text>
</a>
</g>
</g>
<!-- Node1&#45;&gt;Node7 -->
<g id="edge8_Node000001_Node000007" class="edge">
<title>Node1&#45;&gt;Node7</title>
<g id="a_edge8_Node000001_Node000007"><a xlink:title=" ">
<path fill="none" stroke="#63b8ff" d="M26.11,-242.7C39.87,-220.82 73.02,-168.1 90.92,-139.63"/>
<polygon fill="#63b8ff" stroke="#63b8ff" points="94.2,-141.99 96.56,-131.66 88.28,-138.26 94.2,-141.99"/>
</a>
</g>
</g>
<!-- Node3&#45;&gt;Node4 -->
<g id="edge3_Node000003_Node000004" class="edge">
<title>Node3&#45;&gt;Node4</title>
<g id="a_edge3_Node000003_Node000004"><a xlink:title=" ">
<path fill="none" stroke="#63b8ff" d="M119.86,-308.23C144.18,-305.65 193.54,-299.12 233.25,-285.62 260.67,-276.3 289.94,-260.79 310.1,-249.13"/>
<polygon fill="#63b8ff" stroke="#63b8ff" points="311.65,-251.69 318.49,-243.6 308.1,-245.66 311.65,-251.69"/>
</a>
</g>
</g>
<!-- Node4&#45;&gt;Node4 -->
<g id="edge4_Node000004_Node000004" class="edge">
<title>Node4&#45;&gt;Node4</title>
<g id="a_edge4_Node000004_Node000004"><a xlink:title=" ">
<path fill="none" stroke="#63b8ff" d="M315.38,-243.54C305.75,-252.15 312.79,-261.25 336.5,-261.25 350.21,-261.25 358.34,-258.21 360.9,-253.98"/>
<polygon fill="#63b8ff" stroke="#63b8ff" points="363.96,-253.02 357.62,-244.54 357.28,-255.13 363.96,-253.02"/>
</a>
</g>
</g>
<!-- Node5&#45;&gt;Node4 -->
<g id="edge6_Node000005_Node000004" class="edge">
<title>Node5&#45;&gt;Node4</title>
<g id="a_edge6_Node000005_Node000004"><a xlink:title=" ">
<path fill="none" stroke="#63b8ff" d="M131.78,-233.62C163.29,-233.62 216.79,-233.62 261.06,-233.62"/>
<polygon fill="#63b8ff" stroke="#63b8ff" points="260.81,-237.13 270.81,-233.62 260.81,-230.13 260.81,-237.13"/>
</a>
</g>
</g>
<!-- Node7&#45;&gt;Node4 -->
<g id="edge17_Node000007_Node000004" class="edge">
<title>Node7&#45;&gt;Node4</title>
<g id="a_edge17_Node000007_Node000004"><a xlink:title=" ">
<path fill="none" stroke="#63b8ff" d="M114.12,-130.63C126,-142.97 147.75,-163.86 170,-176.62 204.96,-196.69 248.13,-211.26 281.61,-220.65"/>
<polygon fill="#63b8ff" stroke="#63b8ff" points="280.54,-224.26 291.11,-223.52 282.39,-217.51 280.54,-224.26"/>
</a>
</g>
</g>
<!-- Node8 -->
<g id="Node000008" class="node">
<title>Node8</title>
<g id="a_Node000008"><a xlink:href="../../d9/d8e/fext__fft_8f90.html#a5558cd119122c53bb067ab7fc61b9fee" target="_top" xlink:title="Extends &#160;from ntheta2 interval to full ntheta3 interval in angle .">
<polygon fill="white" stroke="#666666" points="224.25,-56.25 179,-56.25 179,-37 224.25,-37 224.25,-56.25"/>
<text text-anchor="middle" x="201.62" y="-42.75" font-family="Helvetica,sans-Serif" font-size="10.00">fext_fft</text>
</a>
</g>
</g>
<!-- Node7&#45;&gt;Node8 -->
<g id="edge9_Node000007_Node000008" class="edge">
<title>Node7&#45;&gt;Node8</title>
<g id="a_edge9_Node000007_Node000008"><a xlink:title=" ">
<path fill="none" stroke="#63b8ff" d="M115,-110.9C127.43,-99.23 149.38,-79.37 170,-64.62 171.1,-63.84 172.24,-63.05 173.4,-62.28"/>
<polygon fill="#63b8ff" stroke="#63b8ff" points="174.87,-64.86 181.47,-56.57 171.14,-58.93 174.87,-64.86"/>
</a>
</g>
</g>
<!-- Node9 -->
<g id="Node000009" class="node">
<title>Node9</title>
<g id="a_Node000009"><a xlink:href="../../da/d22/fsym__fft_8f90.html#a019fe7da811a16aec5f0726e33df73ba" target="_top" xlink:title="Contract bs,bu,bv from full nu interval to half&#45;u interval so cos, sin integrals can be performed on ...">
<polygon fill="white" stroke="#666666" points="226.88,-19.25 176.38,-19.25 176.38,0 226.88,0 226.88,-19.25"/>
<text text-anchor="middle" x="201.62" y="-5.75" font-family="Helvetica,sans-Serif" font-size="10.00">fsym_fft</text>
</a>
</g>
</g>
<!-- Node7&#45;&gt;Node9 -->
<g id="edge10_Node000007_Node000009" class="edge">
<title>Node7&#45;&gt;Node9</title>
<g id="a_edge10_Node000007_Node000009"><a xlink:title=" ">
<path fill="none" stroke="#63b8ff" d="M109.99,-110.62C119.7,-92.36 142.34,-53.17 170,-27.62 170.59,-27.08 171.21,-26.54 171.84,-26.01"/>
<polygon fill="#63b8ff" stroke="#63b8ff" points="173.56,-28.36 179.64,-19.69 169.48,-22.68 173.56,-28.36"/>
</a>
</g>
</g>
<!-- Node10 -->
<g id="Node000010" class="node">
<title>Node10</title>
<g id="a_Node000010"><a xlink:href="../../d4/d23/fsym__invfft_8f90.html#a50d31cc0bfc47f4d0241f5154c78ef2b" target="_top" xlink:title="Extends function from ntheta2 to ntheta3 range.">
<polygon fill="white" stroke="#666666" points="233.25,-167.25 170,-167.25 170,-148 233.25,-148 233.25,-167.25"/>
<text text-anchor="middle" x="201.62" y="-153.75" font-family="Helvetica,sans-Serif" font-size="10.00">fsym_invfft</text>
</a>
</g>
</g>
<!-- Node7&#45;&gt;Node10 -->
<g id="edge11_Node000007_Node000010" class="edge">
<title>Node7&#45;&gt;Node10</title>
<g id="a_edge11_Node000007_Node000010"><a xlink:title=" ">
<path fill="none" stroke="#63b8ff" d="M129.04,-129.96C139.75,-134.1 152.58,-139.06 164.4,-143.63"/>
<polygon fill="#63b8ff" stroke="#63b8ff" points="162.86,-147.17 173.45,-147.51 165.39,-140.64 162.86,-147.17"/>
</a>
</g>
</g>
<!-- Node11 -->
<g id="Node000011" class="node">
<title>Node11</title>
<g id="a_Node000011"><a xlink:href="../../d1/d9b/getbsubs_8f90.html#a5090459bbac22499a3c1c6a97740cd1b" target="_top" xlink:title="Solves the radial force balance &#160;for &#160;in real space using collocation.">
<polygon fill="white" stroke="#666666" points="229.5,-93.25 173.75,-93.25 173.75,-74 229.5,-74 229.5,-93.25"/>
<text text-anchor="middle" x="201.62" y="-79.75" font-family="Helvetica,sans-Serif" font-size="10.00">getbsubs</text>
</a>
</g>
</g>
<!-- Node7&#45;&gt;Node11 -->
<g id="edge12_Node000007_Node000011" class="edge">
<title>Node7&#45;&gt;Node11</title>
<g id="a_edge12_Node000007_Node000011"><a xlink:title=" ">
<path fill="none" stroke="#63b8ff" d="M129.04,-111.29C139.75,-107.15 152.58,-102.19 164.4,-97.62"/>
<polygon fill="#63b8ff" stroke="#63b8ff" points="165.39,-100.61 173.45,-93.74 162.86,-94.08 165.39,-100.61"/>
</a>
</g>
</g>
<!-- Node13 -->
<g id="Node000013" class="node">
<title>Node13</title>
<g id="a_Node000013"><a xlink:href="../../de/d25/mercier_8f90.html#a6635929818286c4cff963bd148261208" target="_top" xlink:title="Evaluate the Mercier stability criterion.">
<polygon fill="white" stroke="#666666" points="225.75,-130.25 177.5,-130.25 177.5,-111 225.75,-111 225.75,-130.25"/>
<text text-anchor="middle" x="201.62" y="-116.75" font-family="Helvetica,sans-Serif" font-size="10.00">mercier</text>
</a>
</g>
</g>
<!-- Node7&#45;&gt;Node13 -->
<g id="edge14_Node000007_Node000013" class="edge">
<title>Node7&#45;&gt;Node13</title>
<g id="a_edge14_Node000007_Node000013"><a xlink:title=" ">
<path fill="none" stroke="#63b8ff" d="M129.04,-120.62C140.32,-120.62 153.95,-120.62 166.28,-120.62"/>
<polygon fill="#63b8ff" stroke="#63b8ff" points="166.13,-124.13 176.13,-120.62 166.13,-117.13 166.13,-124.13"/>
</a>
</g>
</g>
<!-- Node12 -->
<g id="Node000012" class="node">
<title>Node12</title>
<g id="a_Node000012"><a xlink:href="../../d7/d39/solver_8f90.html#a1e815013ed24a9dddc80410103f4a220" target="_top" xlink:title="Solve a linear system of equations using dgesv.">
<polygon fill="white" stroke="#666666" points="357.62,-93.25 315.38,-93.25 315.38,-74 357.62,-74 357.62,-93.25"/>
<text text-anchor="middle" x="336.5" y="-79.75" font-family="Helvetica,sans-Serif" font-size="10.00">solver</text>
</a>
</g>
</g>
<!-- Node11&#45;&gt;Node12 -->
<g id="edge13_Node000011_Node000012" class="edge">
<title>Node11&#45;&gt;Node12</title>
<g id="a_edge13_Node000011_Node000012"><a xlink:title=" ">
<path fill="none" stroke="#63b8ff" d="M229.83,-83.62C251.53,-83.62 281.92,-83.62 304.54,-83.62"/>
<polygon fill="#63b8ff" stroke="#63b8ff" points="304.26,-87.13 314.26,-83.62 304.26,-80.13 304.26,-87.13"/>
</a>
</g>
</g>
<!-- Node13&#45;&gt;Node4 -->
<g id="edge15_Node000013_Node000004" class="edge">
<title>Node13&#45;&gt;Node4</title>
<g id="a_edge15_Node000013_Node000004"><a xlink:title=" ">
<path fill="none" stroke="#63b8ff" d="M221.18,-130.66C225.26,-133.1 229.49,-135.83 233.25,-138.62 265.73,-162.81 299.38,-195.91 318.83,-215.97"/>
<polygon fill="#63b8ff" stroke="#63b8ff" points="315.8,-217.91 325.25,-222.71 320.86,-213.07 315.8,-217.91"/>
</a>
</g>
</g>
<!-- Node14 -->
<g id="Node000014" class="node">
<title>Node14</title>
<g id="a_Node000014"><a xlink:href="../../d0/d29/namespacesafe__open__mod.html#aab207f9769415b0cccd91260a8382eeb" target="_top" xlink:title=" ">
<polygon fill="white" stroke="#666666" points="403.75,-130.25 269.25,-130.25 269.25,-111 403.75,-111 403.75,-130.25"/>
<text text-anchor="middle" x="336.5" y="-116.75" font-family="Helvetica,sans-Serif" font-size="10.00">safe_open_mod::safe_open</text>
</a>
</g>
</g>
<!-- Node13&#45;&gt;Node14 -->
<g id="edge16_Node000013_Node000014" class="edge">
<title>Node13&#45;&gt;Node14</title>
<g id="a_edge16_Node000013_Node000014"><a xlink:title=" ">
<path fill="none" stroke="#63b8ff" d="M226.07,-120.62C235.32,-120.62 246.5,-120.62 258.15,-120.62"/>
<polygon fill="#63b8ff" stroke="#63b8ff" points="257.93,-124.13 267.93,-120.62 257.93,-117.13 257.93,-124.13"/>
</a>
</g>
</g>
</g>
</svg>
</svg>

<style type='text/css'>
<![CDATA[
[data-mouse-over-selected='false'] { opacity: 0.7; }
[data-mouse-over-selected='true']  { opacity: 1.0; }
]]>
</style>
<script type="application/ecmascript"><![CDATA[
document.addEventListener('DOMContentLoaded', (event) => {
  highlightEdges();
  highlightAdjacentNodes();
});
]]></script>
</svg>
