<?xml version="1.0" encoding="UTF-8" standalone="no"?>
<!DOCTYPE svg PUBLIC "-//W3C//DTD SVG 1.1//EN"
 "http://www.w3.org/Graphics/SVG/1.1/DTD/svg11.dtd">
<!-- Generated by graphviz version 2.49.3 (20211215.1918)
 -->
<!-- Title: eqfor Pages: 1 -->
<svg width="479pt" height="275pt"
 viewBox="0.00 0.00 479.00 275.00" xmlns="http://www.w3.org/2000/svg" xmlns:xlink="http://www.w3.org/1999/xlink">
<g id="graph0" class="graph" transform="scale(1 1) rotate(0) translate(4 271)">
<title>eqfor</title>
<polygon fill="white" stroke="transparent" points="-4,4 -4,-271 475,-271 475,4 -4,4"/>
<!-- Node1 -->
<g id="node1" class="node">
<title>Node1</title>
<g id="a_node1"><a xlink:title="Basis physics analysis and evaluaton of force balance. This is where most of the contents of the thre...">
<polygon fill="#bfbfbf" stroke="black" points="0,-171.5 0,-190.5 38,-190.5 38,-171.5 0,-171.5"/>
<text text-anchor="middle" x="19" y="-178.5" font-family="Helvetica,sans-Serif" font-size="10.00">eqfor</text>
</a>
</g>
</g>
<!-- Node2 -->
<g id="node2" class="node">
<title>Node2</title>
<g id="a_node2"><a xlink:href="../../d9/d25/bextrema_8f90.html#aba3f90e7c94f19661c0eea471f1e05a5" target="_top" xlink:title="Computes minimum and maximum &#160;along &#160;between two angle lines ( ).">
<polygon fill="white" stroke="black" points="76.5,-247.5 76.5,-266.5 132.5,-266.5 132.5,-247.5 76.5,-247.5"/>
<text text-anchor="middle" x="104.5" y="-254.5" font-family="Helvetica,sans-Serif" font-size="10.00">bextrema</text>
</a>
</g>
</g>
<!-- Node1&#45;&gt;Node2 -->
<g id="edge1" class="edge">
<title>Node1&#45;&gt;Node2</title>
<path fill="none" stroke="midnightblue" d="M27.8,-190.55C37.78,-202.45 55.95,-223.03 74,-238 75.51,-239.25 77.11,-240.49 78.75,-241.7"/>
<polygon fill="midnightblue" stroke="midnightblue" points="76.86,-244.65 87.09,-247.42 80.82,-238.87 76.86,-244.65"/>
</g>
<!-- Node3 -->
<g id="node3" class="node">
<title>Node3</title>
<g id="a_node3"><a xlink:href="../../d7/d77/bss_8f90.html#acdfd6dccfb28d75e1de40c6822f5736b" target="_top" xlink:title="Computes br, bphi, bz, bsubs on half&#45;radial mesh.">
<polygon fill="white" stroke="black" points="88.5,-209.5 88.5,-228.5 120.5,-228.5 120.5,-209.5 88.5,-209.5"/>
<text text-anchor="middle" x="104.5" y="-216.5" font-family="Helvetica,sans-Serif" font-size="10.00">bss</text>
</a>
</g>
</g>
<!-- Node1&#45;&gt;Node3 -->
<g id="edge2" class="edge">
<title>Node1&#45;&gt;Node3</title>
<path fill="none" stroke="midnightblue" d="M38.12,-189.25C50.12,-194.71 66.01,-201.94 79.11,-207.9"/>
<polygon fill="midnightblue" stroke="midnightblue" points="77.93,-211.21 88.49,-212.17 80.83,-204.84 77.93,-211.21"/>
</g>
<!-- Node5 -->
<g id="node5" class="node">
<title>Node5</title>
<g id="a_node5"><a xlink:href="../../d9/dff/calc__fbal_8f90.html#a6cdc3d21c48f66aeaff8ab5e639641b6" target="_top" xlink:title="Compute flux&#45;surface averaged radial force balance .">
<polygon fill="white" stroke="black" points="76.5,-171.5 76.5,-190.5 132.5,-190.5 132.5,-171.5 76.5,-171.5"/>
<text text-anchor="middle" x="104.5" y="-178.5" font-family="Helvetica,sans-Serif" font-size="10.00">calc_fbal</text>
</a>
</g>
</g>
<!-- Node1&#45;&gt;Node5 -->
<g id="edge5" class="edge">
<title>Node1&#45;&gt;Node5</title>
<path fill="none" stroke="midnightblue" d="M38.12,-181C46.29,-181 56.26,-181 65.93,-181"/>
<polygon fill="midnightblue" stroke="midnightblue" points="66.21,-184.5 76.21,-181 66.21,-177.5 66.21,-184.5"/>
</g>
<!-- Node6 -->
<g id="node6" class="node">
<title>Node6</title>
<g id="a_node6"><a xlink:href="../../d4/d21/elongation_8f90.html#ad09a13ed71a559093ad6f28eef38c9c7" target="_top" xlink:title="Compute Waist thickness and height in &#160;symmetry planes.">
<polygon fill="white" stroke="black" points="74,-133.5 74,-152.5 135,-152.5 135,-133.5 74,-133.5"/>
<text text-anchor="middle" x="104.5" y="-140.5" font-family="Helvetica,sans-Serif" font-size="10.00">elongation</text>
</a>
</g>
</g>
<!-- Node1&#45;&gt;Node6 -->
<g id="edge7" class="edge">
<title>Node1&#45;&gt;Node6</title>
<path fill="none" stroke="midnightblue" d="M38.12,-172.75C48.31,-168.12 61.31,-162.2 73.02,-156.87"/>
<polygon fill="midnightblue" stroke="midnightblue" points="74.82,-159.9 82.47,-152.57 71.92,-153.53 74.82,-159.9"/>
</g>
<!-- Node7 -->
<g id="node7" class="node">
<title>Node7</title>
<g id="a_node7"><a xlink:href="../../d6/d53/jxbforce_8f90.html#aef04f343b688724d6ec0ee8f2a9db7c1" target="_top" xlink:title="Program for computing local &#160;force balance.">
<polygon fill="white" stroke="black" points="79.5,-95.5 79.5,-114.5 129.5,-114.5 129.5,-95.5 79.5,-95.5"/>
<text text-anchor="middle" x="104.5" y="-102.5" font-family="Helvetica,sans-Serif" font-size="10.00">jxbforce</text>
</a>
</g>
</g>
<!-- Node1&#45;&gt;Node7 -->
<g id="edge8" class="edge">
<title>Node1&#45;&gt;Node7</title>
<path fill="none" stroke="midnightblue" d="M27.8,-171.45C37.78,-159.55 55.95,-138.97 74,-124 75.51,-122.75 77.11,-121.51 78.75,-120.3"/>
<polygon fill="midnightblue" stroke="midnightblue" points="80.82,-123.13 87.09,-114.58 76.86,-117.35 80.82,-123.13"/>
</g>
<!-- Node4 -->
<g id="node4" class="node">
<title>Node4</title>
<g id="a_node4"><a xlink:href="../../d8/dfd/namespacedbgout.html#acdd1612a38e44b6469dc03d9d1c6ceed" target="_top" xlink:title="check if any output is desired for the current iteration check if the given context should be openend...">
<polygon fill="white" stroke="black" points="171,-190.5 171,-209.5 300,-209.5 300,-190.5 171,-190.5"/>
<text text-anchor="middle" x="235.5" y="-197.5" font-family="Helvetica,sans-Serif" font-size="10.00">dbgout::open_dbg_context</text>
</a>
</g>
</g>
<!-- Node3&#45;&gt;Node4 -->
<g id="edge3" class="edge">
<title>Node3&#45;&gt;Node4</title>
<path fill="none" stroke="midnightblue" d="M120.55,-216.78C130.91,-215.26 145.52,-213.11 160.84,-210.85"/>
<polygon fill="midnightblue" stroke="midnightblue" points="161.58,-214.28 170.96,-209.36 160.56,-207.35 161.58,-214.28"/>
</g>
<!-- Node4&#45;&gt;Node4 -->
<g id="edge4" class="edge">
<title>Node4&#45;&gt;Node4</title>
<path fill="none" stroke="midnightblue" d="M215.46,-209.76C205.72,-218.57 212.39,-228 235.5,-228 250.3,-228 258.36,-224.13 259.68,-219.03"/>
<polygon fill="midnightblue" stroke="midnightblue" points="262.81,-217.46 255.54,-209.76 256.42,-220.31 262.81,-217.46"/>
</g>
<!-- Node5&#45;&gt;Node4 -->
<g id="edge6" class="edge">
<title>Node5&#45;&gt;Node4</title>
<path fill="none" stroke="midnightblue" d="M132.54,-184.98C140.97,-186.22 150.69,-187.66 160.72,-189.13"/>
<polygon fill="midnightblue" stroke="midnightblue" points="160.42,-192.63 170.82,-190.62 161.44,-185.7 160.42,-192.63"/>
</g>
<!-- Node7&#45;&gt;Node4 -->
<g id="edge16" class="edge">
<title>Node7&#45;&gt;Node4</title>
<path fill="none" stroke="midnightblue" d="M123.29,-114.69C127.4,-117.39 131.57,-120.54 135,-124 156.09,-145.28 147.13,-162.89 171,-181 173.49,-182.89 176.16,-184.59 178.95,-186.12"/>
<polygon fill="midnightblue" stroke="midnightblue" points="177.65,-189.37 188.19,-190.46 180.63,-183.04 177.65,-189.37"/>
</g>
<!-- Node8 -->
<g id="node8" class="node">
<title>Node8</title>
<g id="a_node8"><a xlink:href="../../d9/d8e/fext__fft_8f90.html#a5558cd119122c53bb067ab7fc61b9fee" target="_top" xlink:title="Extends &#160;from ntheta2 interval to full ntheta3 interval in angle .">
<polygon fill="white" stroke="black" points="212.5,-152.5 212.5,-171.5 258.5,-171.5 258.5,-152.5 212.5,-152.5"/>
<text text-anchor="middle" x="235.5" y="-159.5" font-family="Helvetica,sans-Serif" font-size="10.00">fext_fft</text>
</a>
</g>
</g>
<!-- Node7&#45;&gt;Node8 -->
<g id="edge9" class="edge">
<title>Node7&#45;&gt;Node8</title>
<path fill="none" stroke="midnightblue" d="M120.96,-114.54C137.01,-124.33 161.11,-138.72 171,-143 180.98,-147.32 192.25,-151.04 202.49,-154.01"/>
<polygon fill="midnightblue" stroke="midnightblue" points="201.73,-157.43 212.3,-156.73 203.6,-150.69 201.73,-157.43"/>
</g>
<!-- Node9 -->
<g id="node9" class="node">
<title>Node9</title>
<g id="a_node9"><a xlink:href="../../da/d22/fsym__fft_8f90.html#a019fe7da811a16aec5f0726e33df73ba" target="_top" xlink:title="Contract bs,bu,bv from full nu interval to half&#45;u interval so cos, sin integrals can be performed on ...">
<polygon fill="white" stroke="black" points="210,-114.5 210,-133.5 261,-133.5 261,-114.5 210,-114.5"/>
<text text-anchor="middle" x="235.5" y="-121.5" font-family="Helvetica,sans-Serif" font-size="10.00">fsym_fft</text>
</a>
</g>
</g>
<!-- Node7&#45;&gt;Node9 -->
<g id="edge10" class="edge">
<title>Node7&#45;&gt;Node9</title>
<path fill="none" stroke="midnightblue" d="M129.76,-108.57C149.55,-111.49 177.74,-115.64 199.89,-118.9"/>
<polygon fill="midnightblue" stroke="midnightblue" points="199.5,-122.38 209.91,-120.38 200.52,-115.46 199.5,-122.38"/>
</g>
<!-- Node10 -->
<g id="node10" class="node">
<title>Node10</title>
<g id="a_node10"><a xlink:href="../../d4/d23/fsym__invfft_8f90.html#a50d31cc0bfc47f4d0241f5154c78ef2b" target="_top" xlink:title="Extends function from ntheta2 to ntheta3 range.">
<polygon fill="white" stroke="black" points="203.5,-76.5 203.5,-95.5 267.5,-95.5 267.5,-76.5 203.5,-76.5"/>
<text text-anchor="middle" x="235.5" y="-83.5" font-family="Helvetica,sans-Serif" font-size="10.00">fsym_invfft</text>
</a>
</g>
</g>
<!-- Node7&#45;&gt;Node10 -->
<g id="edge11" class="edge">
<title>Node7&#45;&gt;Node10</title>
<path fill="none" stroke="midnightblue" d="M129.76,-101.43C147.7,-98.78 172.55,-95.12 193.55,-92.03"/>
<polygon fill="midnightblue" stroke="midnightblue" points="194.11,-95.49 203.5,-90.57 193.09,-88.56 194.11,-95.49"/>
</g>
<!-- Node11 -->
<g id="node11" class="node">
<title>Node11</title>
<g id="a_node11"><a xlink:href="../../d1/d9b/getbsubs_8f90.html#a5090459bbac22499a3c1c6a97740cd1b" target="_top" xlink:title="Solves the radial force balance &#160;for &#160;in real space using collocation.">
<polygon fill="white" stroke="black" points="207.5,-38.5 207.5,-57.5 263.5,-57.5 263.5,-38.5 207.5,-38.5"/>
<text text-anchor="middle" x="235.5" y="-45.5" font-family="Helvetica,sans-Serif" font-size="10.00">getbsubs</text>
</a>
</g>
</g>
<!-- Node7&#45;&gt;Node11 -->
<g id="edge12" class="edge">
<title>Node7&#45;&gt;Node11</title>
<path fill="none" stroke="midnightblue" d="M119.81,-95.37C132.75,-87 152.54,-74.98 171,-67 179.44,-63.35 188.8,-60.13 197.68,-57.42"/>
<polygon fill="midnightblue" stroke="midnightblue" points="198.81,-60.74 207.43,-54.59 196.85,-54.02 198.81,-60.74"/>
</g>
<!-- Node13 -->
<g id="node13" class="node">
<title>Node13</title>
<g id="a_node13"><a xlink:href="../../de/d25/mercier_8f90.html#a6635929818286c4cff963bd148261208" target="_top" xlink:title="Evaluate the Mercier stability criterion.">
<polygon fill="white" stroke="black" points="211,-0.5 211,-19.5 260,-19.5 260,-0.5 211,-0.5"/>
<text text-anchor="middle" x="235.5" y="-7.5" font-family="Helvetica,sans-Serif" font-size="10.00">mercier</text>
</a>
</g>
</g>
<!-- Node7&#45;&gt;Node13 -->
<g id="edge14" class="edge">
<title>Node7&#45;&gt;Node13</title>
<path fill="none" stroke="midnightblue" d="M111.25,-95.27C121.32,-79.1 143.67,-46.72 171,-29 179.98,-23.18 190.82,-19.08 200.97,-16.22"/>
<polygon fill="midnightblue" stroke="midnightblue" points="201.96,-19.58 210.81,-13.75 200.26,-12.79 201.96,-19.58"/>
</g>
<!-- Node12 -->
<g id="node12" class="node">
<title>Node12</title>
<g id="a_node12"><a xlink:href="../../d7/d39/solver_8f90.html#a1e815013ed24a9dddc80410103f4a220" target="_top" xlink:title="Solve a linear system of equations using dgesv.">
<polygon fill="white" stroke="black" points="382,-38.5 382,-57.5 425,-57.5 425,-38.5 382,-38.5"/>
<text text-anchor="middle" x="403.5" y="-45.5" font-family="Helvetica,sans-Serif" font-size="10.00">solver</text>
</a>
</g>
</g>
<!-- Node11&#45;&gt;Node12 -->
<g id="edge13" class="edge">
<title>Node11&#45;&gt;Node12</title>
<path fill="none" stroke="midnightblue" d="M263.54,-48C293.13,-48 340.47,-48 371.52,-48"/>
<polygon fill="midnightblue" stroke="midnightblue" points="371.78,-51.5 381.78,-48 371.77,-44.5 371.78,-51.5"/>
</g>
<!-- Node14 -->
<g id="node14" class="node">
<title>Node14</title>
<g id="a_node14"><a xlink:href="../../d0/d29/namespacesafe__open__mod.html#aab207f9769415b0cccd91260a8382eeb" target="_top" xlink:title=" ">
<polygon fill="white" stroke="black" points="336,-0.5 336,-19.5 471,-19.5 471,-0.5 336,-0.5"/>
<text text-anchor="middle" x="403.5" y="-7.5" font-family="Helvetica,sans-Serif" font-size="10.00">safe_open_mod::safe_open</text>
</a>
</g>
</g>
<!-- Node13&#45;&gt;Node14 -->
<g id="edge15" class="edge">
<title>Node13&#45;&gt;Node14</title>
<path fill="none" stroke="midnightblue" d="M260.28,-10C277.54,-10 301.93,-10 325.64,-10"/>
<polygon fill="midnightblue" stroke="midnightblue" points="325.74,-13.5 335.74,-10 325.74,-6.5 325.74,-13.5"/>
</g>
</g>
</svg>
