<?xml version="1.0" encoding="UTF-8" standalone="no"?>
<!DOCTYPE svg PUBLIC "-//W3C//DTD SVG 1.1//EN"
 "http://www.w3.org/Graphics/SVG/1.1/DTD/svg11.dtd">
<!-- Generated by graphviz version 8.0.5 (20230430.1635)
 -->
<!-- Title: fourp Pages: 1 -->
<svg width="210pt" height="45pt"
 viewBox="0.00 0.00 210.25 45.25" xmlns="http://www.w3.org/2000/svg" xmlns:xlink="http://www.w3.org/1999/xlink">
<g id="graph0" class="graph" transform="scale(1 1) rotate(0) translate(4 41.25)">
<title>fourp</title>
<!-- Node1 -->
<g id="Node000001" class="node">
<title>Node1</title>
<g id="a_Node000001"><a xlink:title="Perform Fourier integrals of Green&#39;s function kernel.">
<polygon fill="#999999" stroke="#666666" points="37.75,-19.25 0,-19.25 0,0 37.75,0 37.75,-19.25"/>
<text text-anchor="middle" x="18.88" y="-5.75" font-family="Helvetica,sans-Serif" font-size="10.00">fourp</text>
</a>
</g>
</g>
<!-- Node2 -->
<g id="Node000002" class="node">
<title>Node2</title>
<g id="a_Node000002"><a xlink:href="../../d8/dfd/namespacedbgout.html#acdd1612a38e44b6469dc03d9d1c6ceed" target="_top" xlink:title="check if any output is desired for the current iteration check if the given context should be openend...">
<polygon fill="white" stroke="#666666" points="202.25,-19.25 73.75,-19.25 73.75,0 202.25,0 202.25,-19.25"/>
<text text-anchor="middle" x="138" y="-5.75" font-family="Helvetica,sans-Serif" font-size="10.00">dbgout::open_dbg_context</text>
</a>
</g>
</g>
<!-- Node1&#45;&gt;Node2 -->
<g id="edge1_Node000001_Node000002" class="edge">
<title>Node1&#45;&gt;Node2</title>
<g id="a_edge1_Node000001_Node000002"><a xlink:title=" ">
<path fill="none" stroke="#63b8ff" d="M38.18,-9.62C45.16,-9.62 53.62,-9.62 62.62,-9.62"/>
<polygon fill="#63b8ff" stroke="#63b8ff" points="62.38,-13.13 72.38,-9.62 62.38,-6.13 62.38,-13.13"/>
</a>
</g>
</g>
<!-- Node2&#45;&gt;Node2 -->
<g id="edge2_Node000002_Node000002" class="edge">
<title>Node2&#45;&gt;Node2</title>
<g id="a_edge2_Node000002_Node000002"><a xlink:title=" ">
<path fill="none" stroke="#63b8ff" d="M119.35,-19.54C110.84,-28.15 117.06,-37.25 138,-37.25 150.11,-37.25 157.29,-34.21 159.55,-29.98"/>
<polygon fill="#63b8ff" stroke="#63b8ff" points="162.7,-29.23 156.65,-20.54 155.96,-31.11 162.7,-29.23"/>
</a>
</g>
</g>
</g>
</svg>
