<?xml version="1.0" encoding="UTF-8" standalone="no"?>
<!DOCTYPE svg PUBLIC "-//W3C//DTD SVG 1.1//EN"
 "http://www.w3.org/Graphics/SVG/1.1/DTD/svg11.dtd">
<!-- Generated by graphviz version 2.49.3 (20211027.1501)
 -->
<!-- Title: residue Pages: 1 -->
<svg width="332pt" height="218pt"
 viewBox="0.00 0.00 332.00 218.00" xmlns="http://www.w3.org/2000/svg" xmlns:xlink="http://www.w3.org/1999/xlink">
<g id="graph0" class="graph" transform="scale(1 1) rotate(0) translate(4 214)">
<title>residue</title>
<polygon fill="white" stroke="transparent" points="-4,4 -4,-214 328,-214 328,4 -4,4"/>
<!-- Node1 -->
<g id="node1" class="node">
<title>Node1</title>
<g id="a_node1"><a xlink:title="Compute invariant residuals.">
<polygon fill="#bfbfbf" stroke="black" points="0,-95.5 0,-114.5 48,-114.5 48,-95.5 0,-95.5"/>
<text text-anchor="middle" x="24" y="-102.5" font-family="Helvetica,sans-Serif" font-size="10.00">residue</text>
</a>
</g>
</g>
<!-- Node2 -->
<g id="node2" class="node">
<title>Node2</title>
<g id="a_node2"><a xlink:href="../../db/d5a/residue_8f90.html#a29cc4a06a22a55dc9b1bf7252ebcc9ed" target="_top" xlink:title="Compute internal gr , gz required for &#160;constraint.">
<polygon fill="white" stroke="black" points="84,-190.5 84,-209.5 159,-209.5 159,-190.5 84,-190.5"/>
<text text-anchor="middle" x="121.5" y="-197.5" font-family="Helvetica,sans-Serif" font-size="10.00">constrain_m1</text>
</a>
</g>
</g>
<!-- Node1&#45;&gt;Node2 -->
<g id="edge1" class="edge">
<title>Node1&#45;&gt;Node2</title>
<path fill="none" stroke="midnightblue" d="M30.78,-114.98C40.25,-130.66 60.4,-161.31 84,-181 85.74,-182.45 87.61,-183.83 89.54,-185.14"/>
<polygon fill="midnightblue" stroke="midnightblue" points="87.93,-188.26 98.31,-190.39 91.53,-182.25 87.93,-188.26"/>
</g>
<!-- Node3 -->
<g id="node3" class="node">
<title>Node3</title>
<g id="a_node3"><a xlink:href="../../d3/d3a/getfsq_8f90.html#a7b636db95ff23aaea849bd65fba7aa2e" target="_top" xlink:title="Compute total force residual on flux surfaces.">
<polygon fill="white" stroke="black" points="99.5,-152.5 99.5,-171.5 143.5,-171.5 143.5,-152.5 99.5,-152.5"/>
<text text-anchor="middle" x="121.5" y="-159.5" font-family="Helvetica,sans-Serif" font-size="10.00">getfsq</text>
</a>
</g>
</g>
<!-- Node1&#45;&gt;Node3 -->
<g id="edge2" class="edge">
<title>Node1&#45;&gt;Node3</title>
<path fill="none" stroke="midnightblue" d="M41.2,-114.67C56.11,-123.57 78.44,-136.9 95.61,-147.14"/>
<polygon fill="midnightblue" stroke="midnightblue" points="94.16,-150.35 104.54,-152.47 97.75,-144.34 94.16,-150.35"/>
</g>
<!-- Node4 -->
<g id="node4" class="node">
<title>Node4</title>
<g id="a_node4"><a xlink:href="../../d8/dfd/namespacedbgout.html#a0752528f123b592bc57f687438b75d9b" target="_top" xlink:title=" ">
<polygon fill="white" stroke="black" points="195,-104.5 195,-123.5 324,-123.5 324,-104.5 195,-104.5"/>
<text text-anchor="middle" x="259.5" y="-111.5" font-family="Helvetica,sans-Serif" font-size="10.00">dbgout::open_dbg_context</text>
</a>
</g>
</g>
<!-- Node1&#45;&gt;Node4 -->
<g id="edge3" class="edge">
<title>Node1&#45;&gt;Node4</title>
<path fill="none" stroke="midnightblue" d="M48.24,-105.9C79.73,-107.11 137.41,-109.33 184.4,-111.14"/>
<polygon fill="midnightblue" stroke="midnightblue" points="184.43,-114.65 194.56,-111.54 184.7,-107.65 184.43,-114.65"/>
</g>
<!-- Node5 -->
<g id="node5" class="node">
<title>Node5</title>
<g id="a_node5"><a xlink:href="../../db/d5a/residue_8f90.html#aaf8d684a58b8bf9dfdecfdb925960780" target="_top" xlink:title="Compute internal gr , gz required for &#160;constraint.">
<polygon fill="white" stroke="black" points="92,-76.5 92,-95.5 151,-95.5 151,-76.5 92,-76.5"/>
<text text-anchor="middle" x="121.5" y="-83.5" font-family="Helvetica,sans-Serif" font-size="10.00">scale_m1</text>
</a>
</g>
</g>
<!-- Node1&#45;&gt;Node5 -->
<g id="edge4" class="edge">
<title>Node1&#45;&gt;Node5</title>
<path fill="none" stroke="midnightblue" d="M48.12,-100.4C58.28,-98.38 70.49,-95.95 81.96,-93.67"/>
<polygon fill="midnightblue" stroke="midnightblue" points="82.66,-97.1 91.79,-91.71 81.3,-90.23 82.66,-97.1"/>
</g>
<!-- Node6 -->
<g id="node6" class="node">
<title>Node6</title>
<g id="a_node6"><a xlink:href="../../d8/d86/scalfor_8f90.html#a20fb7039b82d05e64d01a2e50431ba5e" target="_top" xlink:title="Build forces from different contributions.">
<polygon fill="white" stroke="black" points="98.5,-38.5 98.5,-57.5 144.5,-57.5 144.5,-38.5 98.5,-38.5"/>
<text text-anchor="middle" x="121.5" y="-45.5" font-family="Helvetica,sans-Serif" font-size="10.00">scalfor</text>
</a>
</g>
</g>
<!-- Node1&#45;&gt;Node6 -->
<g id="edge5" class="edge">
<title>Node1&#45;&gt;Node6</title>
<path fill="none" stroke="midnightblue" d="M39.32,-95.25C51.12,-87.34 68.41,-76.05 84,-67 86.69,-65.44 89.53,-63.85 92.38,-62.31"/>
<polygon fill="midnightblue" stroke="midnightblue" points="94.18,-65.31 101.38,-57.53 90.9,-59.13 94.18,-65.31"/>
</g>
<!-- Node7 -->
<g id="node7" class="node">
<title>Node7</title>
<g id="a_node7"><a xlink:href="../../d8/dfd/namespacedbgout.html#a0537172e9da0db08b9d29ab8880f0559" target="_top" xlink:title=" ">
<polygon fill="white" stroke="black" points="207,-0.5 207,-19.5 312,-19.5 312,-0.5 207,-0.5"/>
<text text-anchor="middle" x="259.5" y="-7.5" font-family="Helvetica,sans-Serif" font-size="10.00">dbgout::should_write</text>
</a>
</g>
</g>
<!-- Node1&#45;&gt;Node7 -->
<g id="edge10" class="edge">
<title>Node1&#45;&gt;Node7</title>
<path fill="none" stroke="midnightblue" d="M29.35,-95.27C37.42,-78.49 56.44,-44.4 84,-29 118.02,-9.99 161.59,-5.23 196.69,-5.23"/>
<polygon fill="midnightblue" stroke="midnightblue" points="196.77,-8.73 206.81,-5.36 196.86,-1.73 196.77,-8.73"/>
</g>
<!-- Node6&#45;&gt;Node4 -->
<g id="edge6" class="edge">
<title>Node6&#45;&gt;Node4</title>
<path fill="none" stroke="midnightblue" d="M141.15,-57.63C159.05,-66.86 184.82,-80.08 195,-85 205.61,-90.13 217.32,-95.54 227.77,-100.29"/>
<polygon fill="midnightblue" stroke="midnightblue" points="226.38,-103.5 236.93,-104.43 229.26,-97.12 226.38,-103.5"/>
</g>
<!-- Node6&#45;&gt;Node7 -->
<g id="edge7" class="edge">
<title>Node6&#45;&gt;Node7</title>
<path fill="none" stroke="midnightblue" d="M144.65,-41.81C163.56,-36.53 191.3,-28.78 214.67,-22.25"/>
<polygon fill="midnightblue" stroke="midnightblue" points="215.69,-25.6 224.38,-19.53 213.81,-18.85 215.69,-25.6"/>
</g>
<!-- Node8 -->
<g id="node8" class="node">
<title>Node8</title>
<g id="a_node8"><a xlink:href="../../db/d40/tridslv_8f90.html#abf5399c0154abe7424c54d7fa9eb69db" target="_top" xlink:title="Solve a tridiagonal system of equations.">
<polygon fill="white" stroke="black" points="238,-56.5 238,-75.5 281,-75.5 281,-56.5 238,-56.5"/>
<text text-anchor="middle" x="259.5" y="-63.5" font-family="Helvetica,sans-Serif" font-size="10.00">tridslv</text>
</a>
</g>
</g>
<!-- Node6&#45;&gt;Node8 -->
<g id="edge9" class="edge">
<title>Node6&#45;&gt;Node8</title>
<path fill="none" stroke="midnightblue" d="M144.65,-50.93C167.18,-53.91 202.26,-58.56 227.53,-61.9"/>
<polygon fill="midnightblue" stroke="midnightblue" points="227.32,-65.4 237.7,-63.25 228.24,-58.46 227.32,-65.4"/>
</g>
<!-- Node7&#45;&gt;Node7 -->
<g id="edge8" class="edge">
<title>Node7&#45;&gt;Node7</title>
<path fill="none" stroke="midnightblue" d="M238.23,-19.76C227.88,-28.57 234.97,-38 259.5,-38 275.21,-38 283.77,-34.13 285.17,-29.03"/>
<polygon fill="midnightblue" stroke="midnightblue" points="288.22,-27.29 280.77,-19.76 281.89,-30.29 288.22,-27.29"/>
</g>
</g>
</svg>
