<?xml version="1.0" encoding="UTF-8" standalone="no"?>
<!DOCTYPE svg PUBLIC "-//W3C//DTD SVG 1.1//EN"
 "http://www.w3.org/Graphics/SVG/1.1/DTD/svg11.dtd">
<!-- Generated by graphviz version 12.0.0 (20240704.0754)
 -->
<!-- Title: residue Pages: 1 -->
<svg width="331pt" height="177pt"
 viewBox="0.00 0.00 330.50 177.25" xmlns="http://www.w3.org/2000/svg" xmlns:xlink="http://www.w3.org/1999/xlink">
<g id="graph0" class="graph" transform="scale(1 1) rotate(0) translate(4 173.25)">
<title>residue</title>
<!-- Node1 -->
<g id="Node000001" class="node">
<title>Node1</title>
<g id="a_Node000001"><a xlink:title="Compute invariant residuals.">
<polygon fill="#999999" stroke="#666666" points="47.5,-94.25 0,-94.25 0,-75 47.5,-75 47.5,-94.25"/>
<text text-anchor="middle" x="23.75" y="-80.75" font-family="Helvetica,sans-Serif" font-size="10.00">residue</text>
</a>
</g>
</g>
<!-- Node2 -->
<g id="Node000002" class="node">
<title>Node2</title>
<g id="a_Node000002"><a xlink:href="../../db/d5a/residue_8f90.html#a29cc4a06a22a55dc9b1bf7252ebcc9ed" target="_top" xlink:title="Compute internal gr , gz required for &#160;constraint.">
<polygon fill="white" stroke="#666666" points="158,-169.25 83.5,-169.25 83.5,-150 158,-150 158,-169.25"/>
<text text-anchor="middle" x="120.75" y="-155.75" font-family="Helvetica,sans-Serif" font-size="10.00">constrain_m1</text>
</a>
</g>
</g>
<!-- Node1&#45;&gt;Node2 -->
<g id="edge1_Node000001_Node000002" class="edge">
<title>Node1&#45;&gt;Node2</title>
<g id="a_edge1_Node000001_Node000002"><a xlink:title=" ">
<path fill="none" stroke="#63b8ff" d="M33.13,-94.45C43.88,-106.63 63.54,-127.51 83.5,-141.62 84.66,-142.45 85.87,-143.25 87.1,-144.04"/>
<polygon fill="#63b8ff" stroke="#63b8ff" points="85.16,-146.96 95.58,-148.87 88.63,-140.88 85.16,-146.96"/>
</a>
</g>
</g>
<!-- Node3 -->
<g id="Node000003" class="node">
<title>Node3</title>
<g id="a_Node000003"><a xlink:href="../../d3/d3a/getfsq_8f90.html#a7b636db95ff23aaea849bd65fba7aa2e" target="_top" xlink:title="Compute total force residual on flux surfaces.">
<polygon fill="white" stroke="#666666" points="142.25,-132.25 99.25,-132.25 99.25,-113 142.25,-113 142.25,-132.25"/>
<text text-anchor="middle" x="120.75" y="-118.75" font-family="Helvetica,sans-Serif" font-size="10.00">getfsq</text>
</a>
</g>
</g>
<!-- Node1&#45;&gt;Node3 -->
<g id="edge2_Node000001_Node000003" class="edge">
<title>Node1&#45;&gt;Node3</title>
<g id="a_edge2_Node000001_Node000003"><a xlink:title=" ">
<path fill="none" stroke="#63b8ff" d="M47.75,-93.82C59.93,-98.7 75.08,-104.76 88.33,-110.06"/>
<polygon fill="#63b8ff" stroke="#63b8ff" points="86.92,-113.26 97.5,-113.73 89.52,-106.76 86.92,-113.26"/>
</a>
</g>
</g>
<!-- Node4 -->
<g id="Node000004" class="node">
<title>Node4</title>
<g id="a_Node000004"><a xlink:href="../../d8/dfd/namespacedbgout.html#acdd1612a38e44b6469dc03d9d1c6ceed" target="_top" xlink:title="check if any output is desired for the current iteration check if the given context should be openend...">
<polygon fill="white" stroke="#666666" points="322.5,-75.25 194,-75.25 194,-56 322.5,-56 322.5,-75.25"/>
<text text-anchor="middle" x="258.25" y="-61.75" font-family="Helvetica,sans-Serif" font-size="10.00">dbgout::open_dbg_context</text>
</a>
</g>
</g>
<!-- Node1&#45;&gt;Node4 -->
<g id="edge3_Node000001_Node000004" class="edge">
<title>Node1&#45;&gt;Node4</title>
<g id="a_edge3_Node000001_Node000004"><a xlink:title=" ">
<path fill="none" stroke="#63b8ff" d="M47.89,-82.73C78.98,-80.19 135.72,-75.56 182.29,-71.75"/>
<polygon fill="#63b8ff" stroke="#63b8ff" points="182.39,-75.25 192.07,-70.95 181.82,-68.28 182.39,-75.25"/>
</a>
</g>
</g>
<!-- Node5 -->
<g id="Node000005" class="node">
<title>Node5</title>
<g id="a_Node000005"><a xlink:href="../../db/d5a/residue_8f90.html#aaf8d684a58b8bf9dfdecfdb925960780" target="_top" xlink:title="Compute internal gr , gz required for &#160;constraint.">
<polygon fill="white" stroke="#666666" points="149.75,-56.25 91.75,-56.25 91.75,-37 149.75,-37 149.75,-56.25"/>
<text text-anchor="middle" x="120.75" y="-42.75" font-family="Helvetica,sans-Serif" font-size="10.00">scale_m1</text>
</a>
</g>
</g>
<!-- Node1&#45;&gt;Node5 -->
<g id="edge5_Node000001_Node000005" class="edge">
<title>Node1&#45;&gt;Node5</title>
<g id="a_edge5_Node000001_Node000005"><a xlink:title=" ">
<path fill="none" stroke="#63b8ff" d="M47.75,-75.43C58.7,-71.04 72.06,-65.7 84.28,-60.81"/>
<polygon fill="#63b8ff" stroke="#63b8ff" points="85.24,-64.2 93.23,-57.23 82.64,-57.7 85.24,-64.2"/>
</a>
</g>
</g>
<!-- Node6 -->
<g id="Node000006" class="node">
<title>Node6</title>
<g id="a_Node000006"><a xlink:href="../../d8/d86/scalfor_8f90.html#a2ef9c34d20ddf30cb7b15fe35066b8ca" target="_top" xlink:title="Build forces from different contributions.">
<polygon fill="white" stroke="#666666" points="143.38,-19.25 98.12,-19.25 98.12,0 143.38,0 143.38,-19.25"/>
<text text-anchor="middle" x="120.75" y="-5.75" font-family="Helvetica,sans-Serif" font-size="10.00">scalfor</text>
</a>
</g>
</g>
<!-- Node1&#45;&gt;Node6 -->
<g id="edge6_Node000001_Node000006" class="edge">
<title>Node1&#45;&gt;Node6</title>
<g id="a_edge6_Node000001_Node000006"><a xlink:title=" ">
<path fill="none" stroke="#63b8ff" d="M33.13,-74.8C43.88,-62.62 63.54,-41.74 83.5,-27.62 84.86,-26.66 86.28,-25.72 87.74,-24.81"/>
<polygon fill="#63b8ff" stroke="#63b8ff" points="89.34,-27.93 96.33,-19.98 85.9,-21.83 89.34,-27.93"/>
</a>
</g>
</g>
<!-- Node4&#45;&gt;Node4 -->
<g id="edge4_Node000004_Node000004" class="edge">
<title>Node4&#45;&gt;Node4</title>
<g id="a_edge4_Node000004_Node000004"><a xlink:title=" ">
<path fill="none" stroke="#63b8ff" d="M236.72,-75.54C226.9,-84.15 234.08,-93.25 258.25,-93.25 271.47,-93.25 279.6,-90.53 282.66,-86.65"/>
<polygon fill="#63b8ff" stroke="#63b8ff" points="286.05,-85.81 280.16,-77 279.28,-87.56 286.05,-85.81"/>
</a>
</g>
</g>
<!-- Node6&#45;&gt;Node4 -->
<g id="edge7_Node000006_Node000004" class="edge">
<title>Node6&#45;&gt;Node4</title>
<g id="a_edge7_Node000006_Node000004"><a xlink:title=" ">
<path fill="none" stroke="#63b8ff" d="M143.82,-18.75C165.12,-27.55 197.68,-41.01 222.47,-51.25"/>
<polygon fill="#63b8ff" stroke="#63b8ff" points="220.92,-54.4 231.5,-54.98 223.59,-47.93 220.92,-54.4"/>
</a>
</g>
</g>
<!-- Node7 -->
<g id="Node000007" class="node">
<title>Node7</title>
<g id="a_Node000007"><a xlink:href="../../db/d40/tridslv_8f90.html#abf5399c0154abe7424c54d7fa9eb69db" target="_top" xlink:title="Solve a tridiagonal system of equations.">
<polygon fill="white" stroke="#666666" points="279.38,-19.25 237.12,-19.25 237.12,0 279.38,0 279.38,-19.25"/>
<text text-anchor="middle" x="258.25" y="-5.75" font-family="Helvetica,sans-Serif" font-size="10.00">tridslv</text>
</a>
</g>
</g>
<!-- Node6&#45;&gt;Node7 -->
<g id="edge8_Node000006_Node000007" class="edge">
<title>Node6&#45;&gt;Node7</title>
<g id="a_edge8_Node000006_Node000007"><a xlink:title=" ">
<path fill="none" stroke="#63b8ff" d="M143.82,-9.62C165.99,-9.62 200.37,-9.62 225.48,-9.62"/>
<polygon fill="#63b8ff" stroke="#63b8ff" points="225.45,-13.13 235.45,-9.63 225.45,-6.13 225.45,-13.13"/>
</a>
</g>
</g>
</g>
</svg>
