<?xml version="1.0" encoding="UTF-8" standalone="no"?>
<!DOCTYPE svg PUBLIC "-//W3C//DTD SVG 1.1//EN"
 "http://www.w3.org/Graphics/SVG/1.1/DTD/svg11.dtd">
<!-- Generated by graphviz version 2.49.3 (20211215.1918)
 -->
<!-- Title: residue Pages: 1 -->
<svg width="332pt" height="180pt"
 viewBox="0.00 0.00 332.00 180.00" xmlns="http://www.w3.org/2000/svg" xmlns:xlink="http://www.w3.org/1999/xlink">
<g id="graph0" class="graph" transform="scale(1 1) rotate(0) translate(4 176)">
<title>residue</title>
<polygon fill="white" stroke="transparent" points="-4,4 -4,-176 328,-176 328,4 -4,4"/>
<!-- Node1 -->
<g id="node1" class="node">
<title>Node1</title>
<g id="a_node1"><a xlink:title="Compute invariant residuals.">
<polygon fill="#bfbfbf" stroke="black" points="0,-76.5 0,-95.5 48,-95.5 48,-76.5 0,-76.5"/>
<text text-anchor="middle" x="24" y="-83.5" font-family="Helvetica,sans-Serif" font-size="10.00">residue</text>
</a>
</g>
</g>
<!-- Node2 -->
<g id="node2" class="node">
<title>Node2</title>
<g id="a_node2"><a xlink:href="../../db/d5a/residue_8f90.html#a29cc4a06a22a55dc9b1bf7252ebcc9ed" target="_top" xlink:title="Compute internal gr , gz required for &#160;constraint.">
<polygon fill="white" stroke="black" points="84,-152.5 84,-171.5 159,-171.5 159,-152.5 84,-152.5"/>
<text text-anchor="middle" x="121.5" y="-159.5" font-family="Helvetica,sans-Serif" font-size="10.00">constrain_m1</text>
</a>
</g>
</g>
<!-- Node1&#45;&gt;Node2 -->
<g id="edge1" class="edge">
<title>Node1&#45;&gt;Node2</title>
<path fill="none" stroke="midnightblue" d="M33.47,-95.76C44.32,-107.88 64.12,-128.69 84,-143 86.08,-144.5 88.29,-145.95 90.56,-147.34"/>
<polygon fill="midnightblue" stroke="midnightblue" points="89,-150.47 99.42,-152.34 92.44,-144.38 89,-150.47"/>
</g>
<!-- Node3 -->
<g id="node3" class="node">
<title>Node3</title>
<g id="a_node3"><a xlink:href="../../d3/d3a/getfsq_8f90.html#a7b636db95ff23aaea849bd65fba7aa2e" target="_top" xlink:title="Compute total force residual on flux surfaces.">
<polygon fill="white" stroke="black" points="99.5,-114.5 99.5,-133.5 143.5,-133.5 143.5,-114.5 99.5,-114.5"/>
<text text-anchor="middle" x="121.5" y="-121.5" font-family="Helvetica,sans-Serif" font-size="10.00">getfsq</text>
</a>
</g>
</g>
<!-- Node1&#45;&gt;Node3 -->
<g id="edge2" class="edge">
<title>Node1&#45;&gt;Node3</title>
<path fill="none" stroke="midnightblue" d="M48.12,-95.2C60.64,-100.18 76.29,-106.41 89.82,-111.79"/>
<polygon fill="midnightblue" stroke="midnightblue" points="88.64,-115.09 99.23,-115.54 91.23,-108.59 88.64,-115.09"/>
</g>
<!-- Node4 -->
<g id="node4" class="node">
<title>Node4</title>
<g id="a_node4"><a xlink:href="../../d8/dfd/namespacedbgout.html#acdd1612a38e44b6469dc03d9d1c6ceed" target="_top" xlink:title="check if any output is desired for the current iteration check if the given context should be openend...">
<polygon fill="white" stroke="black" points="195,-57.5 195,-76.5 324,-76.5 324,-57.5 195,-57.5"/>
<text text-anchor="middle" x="259.5" y="-64.5" font-family="Helvetica,sans-Serif" font-size="10.00">dbgout::open_dbg_context</text>
</a>
</g>
</g>
<!-- Node1&#45;&gt;Node4 -->
<g id="edge3" class="edge">
<title>Node1&#45;&gt;Node4</title>
<path fill="none" stroke="midnightblue" d="M48.24,-84.11C79.73,-81.55 137.41,-76.85 184.4,-73.03"/>
<polygon fill="midnightblue" stroke="midnightblue" points="184.87,-76.5 194.56,-72.2 184.3,-69.53 184.87,-76.5"/>
</g>
<!-- Node5 -->
<g id="node5" class="node">
<title>Node5</title>
<g id="a_node5"><a xlink:href="../../db/d5a/residue_8f90.html#aaf8d684a58b8bf9dfdecfdb925960780" target="_top" xlink:title="Compute internal gr , gz required for &#160;constraint.">
<polygon fill="white" stroke="black" points="92,-38.5 92,-57.5 151,-57.5 151,-38.5 92,-38.5"/>
<text text-anchor="middle" x="121.5" y="-45.5" font-family="Helvetica,sans-Serif" font-size="10.00">scale_m1</text>
</a>
</g>
</g>
<!-- Node1&#45;&gt;Node5 -->
<g id="edge5" class="edge">
<title>Node1&#45;&gt;Node5</title>
<path fill="none" stroke="midnightblue" d="M48.12,-76.8C59.82,-72.15 74.24,-66.41 87.12,-61.28"/>
<polygon fill="midnightblue" stroke="midnightblue" points="88.6,-64.46 96.6,-57.51 86.01,-57.96 88.6,-64.46"/>
</g>
<!-- Node6 -->
<g id="node6" class="node">
<title>Node6</title>
<g id="a_node6"><a xlink:href="../../d8/d86/scalfor_8f90.html#a2ef9c34d20ddf30cb7b15fe35066b8ca" target="_top" xlink:title="Build forces from different contributions.">
<polygon fill="white" stroke="black" points="98.5,-0.5 98.5,-19.5 144.5,-19.5 144.5,-0.5 98.5,-0.5"/>
<text text-anchor="middle" x="121.5" y="-7.5" font-family="Helvetica,sans-Serif" font-size="10.00">scalfor</text>
</a>
</g>
</g>
<!-- Node1&#45;&gt;Node6 -->
<g id="edge6" class="edge">
<title>Node1&#45;&gt;Node6</title>
<path fill="none" stroke="midnightblue" d="M33.47,-76.24C44.32,-64.12 64.12,-43.31 84,-29 86.08,-27.5 88.29,-26.05 90.56,-24.66"/>
<polygon fill="midnightblue" stroke="midnightblue" points="92.44,-27.62 99.42,-19.66 89,-21.53 92.44,-27.62"/>
</g>
<!-- Node4&#45;&gt;Node4 -->
<g id="edge4" class="edge">
<title>Node4&#45;&gt;Node4</title>
<path fill="none" stroke="midnightblue" d="M238.23,-76.76C227.88,-85.57 234.97,-95 259.5,-95 275.21,-95 283.77,-91.13 285.17,-86.03"/>
<polygon fill="midnightblue" stroke="midnightblue" points="288.22,-84.29 280.77,-76.76 281.89,-87.29 288.22,-84.29"/>
</g>
<!-- Node6&#45;&gt;Node4 -->
<g id="edge7" class="edge">
<title>Node6&#45;&gt;Node4</title>
<path fill="none" stroke="midnightblue" d="M144.65,-19.28C166.71,-28.53 200.82,-42.83 225.96,-53.36"/>
<polygon fill="midnightblue" stroke="midnightblue" points="224.87,-56.7 235.45,-57.34 227.58,-50.24 224.87,-56.7"/>
</g>
<!-- Node7 -->
<g id="node7" class="node">
<title>Node7</title>
<g id="a_node7"><a xlink:href="../../db/d40/tridslv_8f90.html#abf5399c0154abe7424c54d7fa9eb69db" target="_top" xlink:title="Solve a tridiagonal system of equations.">
<polygon fill="white" stroke="black" points="238,-0.5 238,-19.5 281,-19.5 281,-0.5 238,-0.5"/>
<text text-anchor="middle" x="259.5" y="-7.5" font-family="Helvetica,sans-Serif" font-size="10.00">tridslv</text>
</a>
</g>
</g>
<!-- Node6&#45;&gt;Node7 -->
<g id="edge8" class="edge">
<title>Node6&#45;&gt;Node7</title>
<path fill="none" stroke="midnightblue" d="M144.65,-10C167.18,-10 202.26,-10 227.53,-10"/>
<polygon fill="midnightblue" stroke="midnightblue" points="227.7,-13.5 237.7,-10 227.7,-6.5 227.7,-13.5"/>
</g>
</g>
</svg>
