<?xml version="1.0" encoding="UTF-8" standalone="no"?>
<!DOCTYPE svg PUBLIC "-//W3C//DTD SVG 1.1//EN"
 "http://www.w3.org/Graphics/SVG/1.1/DTD/svg11.dtd">
<!-- Generated by graphviz version 7.1.0 (20230121.1956)
 -->
<!-- Title: residue Pages: 1 -->
<svg width="332pt" height="177pt"
 viewBox="0.00 0.00 332.00 177.00" xmlns="http://www.w3.org/2000/svg" xmlns:xlink="http://www.w3.org/1999/xlink">
<g id="graph0" class="graph" transform="scale(1 1) rotate(0) translate(4 173)">
<title>residue</title>
<!-- Node1 -->
<g id="node1" class="node">
<title>Node1</title>
<g id="a_node1"><a xlink:title="Compute invariant residuals.">
<polygon fill="#999999" stroke="#666666" points="48,-94 0,-94 0,-75 48,-75 48,-94"/>
<text text-anchor="middle" x="24" y="-82" font-family="Helvetica,sans-Serif" font-size="10.00">residue</text>
</a>
</g>
</g>
<!-- Node2 -->
<g id="node2" class="node">
<title>Node2</title>
<g id="a_node2"><a xlink:href="../../db/d5a/residue_8f90.html#a29cc4a06a22a55dc9b1bf7252ebcc9ed" target="_top" xlink:title="Compute internal gr , gz required for &#160;constraint.">
<polygon fill="white" stroke="#666666" points="159,-169 84,-169 84,-150 159,-150 159,-169"/>
<text text-anchor="middle" x="121.5" y="-157" font-family="Helvetica,sans-Serif" font-size="10.00">constrain_m1</text>
</a>
</g>
</g>
<!-- Node1&#45;&gt;Node2 -->
<g id="edge1" class="edge">
<title>Node1&#45;&gt;Node2</title>
<path fill="none" stroke="#63b8ff" d="M33.42,-94.33C44.22,-106.52 63.97,-127.4 84,-141.5 85.17,-142.32 86.38,-143.13 87.63,-143.91"/>
<polygon fill="#63b8ff" stroke="#63b8ff" points="85.74,-146.87 96.17,-148.76 89.2,-140.78 85.74,-146.87"/>
</g>
<!-- Node3 -->
<g id="node3" class="node">
<title>Node3</title>
<g id="a_node3"><a xlink:href="../../d3/d3a/getfsq_8f90.html#a7b636db95ff23aaea849bd65fba7aa2e" target="_top" xlink:title="Compute total force residual on flux surfaces.">
<polygon fill="white" stroke="#666666" points="143.5,-132 99.5,-132 99.5,-113 143.5,-113 143.5,-132"/>
<text text-anchor="middle" x="121.5" y="-120" font-family="Helvetica,sans-Serif" font-size="10.00">getfsq</text>
</a>
</g>
</g>
<!-- Node1&#45;&gt;Node3 -->
<g id="edge2" class="edge">
<title>Node1&#45;&gt;Node3</title>
<path fill="none" stroke="#63b8ff" d="M48.12,-93.7C60.28,-98.54 75.38,-104.55 88.63,-109.82"/>
<polygon fill="#63b8ff" stroke="#63b8ff" points="87.24,-113.03 97.82,-113.48 89.82,-106.53 87.24,-113.03"/>
</g>
<!-- Node4 -->
<g id="node4" class="node">
<title>Node4</title>
<g id="a_node4"><a xlink:href="../../d8/dfd/namespacedbgout.html#acdd1612a38e44b6469dc03d9d1c6ceed" target="_top" xlink:title="check if any output is desired for the current iteration check if the given context should be openend...">
<polygon fill="white" stroke="#666666" points="324,-75 195,-75 195,-56 324,-56 324,-75"/>
<text text-anchor="middle" x="259.5" y="-63" font-family="Helvetica,sans-Serif" font-size="10.00">dbgout::open_dbg_context</text>
</a>
</g>
</g>
<!-- Node1&#45;&gt;Node4 -->
<g id="edge3" class="edge">
<title>Node1&#45;&gt;Node4</title>
<path fill="none" stroke="#63b8ff" d="M48.24,-82.61C79.47,-80.07 136.44,-75.43 183.21,-71.63"/>
<polygon fill="#63b8ff" stroke="#63b8ff" points="183.36,-75.13 193.05,-70.83 182.8,-68.15 183.36,-75.13"/>
</g>
<!-- Node5 -->
<g id="node5" class="node">
<title>Node5</title>
<g id="a_node5"><a xlink:href="../../db/d5a/residue_8f90.html#aaf8d684a58b8bf9dfdecfdb925960780" target="_top" xlink:title="Compute internal gr , gz required for &#160;constraint.">
<polygon fill="white" stroke="#666666" points="151,-56 92,-56 92,-37 151,-37 151,-56"/>
<text text-anchor="middle" x="121.5" y="-44" font-family="Helvetica,sans-Serif" font-size="10.00">scale_m1</text>
</a>
</g>
</g>
<!-- Node1&#45;&gt;Node5 -->
<g id="edge5" class="edge">
<title>Node1&#45;&gt;Node5</title>
<path fill="none" stroke="#63b8ff" d="M48.12,-75.3C59.22,-70.88 72.77,-65.49 85.12,-60.58"/>
<polygon fill="#63b8ff" stroke="#63b8ff" points="86.18,-63.92 94.18,-56.97 83.6,-57.42 86.18,-63.92"/>
</g>
<!-- Node6 -->
<g id="node6" class="node">
<title>Node6</title>
<g id="a_node6"><a xlink:href="../../d8/d86/scalfor_8f90.html#a2ef9c34d20ddf30cb7b15fe35066b8ca" target="_top" xlink:title="Build forces from different contributions.">
<polygon fill="white" stroke="#666666" points="144.5,-19 98.5,-19 98.5,0 144.5,0 144.5,-19"/>
<text text-anchor="middle" x="121.5" y="-7" font-family="Helvetica,sans-Serif" font-size="10.00">scalfor</text>
</a>
</g>
</g>
<!-- Node1&#45;&gt;Node6 -->
<g id="edge6" class="edge">
<title>Node1&#45;&gt;Node6</title>
<path fill="none" stroke="#63b8ff" d="M33.42,-74.67C44.22,-62.48 63.97,-41.6 84,-27.5 85.37,-26.53 86.8,-25.59 88.27,-24.68"/>
<polygon fill="#63b8ff" stroke="#63b8ff" points="89.91,-27.77 96.93,-19.84 86.5,-21.66 89.91,-27.77"/>
</g>
<!-- Node4&#45;&gt;Node4 -->
<g id="edge4" class="edge">
<title>Node4&#45;&gt;Node4</title>
<path fill="none" stroke="#63b8ff" d="M237.9,-75.37C228.04,-83.94 235.24,-93 259.5,-93 272.77,-93 280.93,-90.29 283.99,-86.43"/>
<polygon fill="#63b8ff" stroke="#63b8ff" points="287.4,-85.62 281.49,-76.83 280.63,-87.39 287.4,-85.62"/>
</g>
<!-- Node6&#45;&gt;Node4 -->
<g id="edge7" class="edge">
<title>Node6&#45;&gt;Node4</title>
<path fill="none" stroke="#63b8ff" d="M144.96,-18.75C166.51,-27.62 199.37,-41.15 224.2,-51.38"/>
<polygon fill="#63b8ff" stroke="#63b8ff" points="222.66,-54.53 233.24,-55.1 225.32,-48.05 222.66,-54.53"/>
</g>
<!-- Node7 -->
<g id="node7" class="node">
<title>Node7</title>
<g id="a_node7"><a xlink:href="../../db/d40/tridslv_8f90.html#abf5399c0154abe7424c54d7fa9eb69db" target="_top" xlink:title="Solve a tridiagonal system of equations.">
<polygon fill="white" stroke="#666666" points="281,-19 238,-19 238,0 281,0 281,-19"/>
<text text-anchor="middle" x="259.5" y="-7" font-family="Helvetica,sans-Serif" font-size="10.00">tridslv</text>
</a>
</g>
</g>
<!-- Node6&#45;&gt;Node7 -->
<g id="edge8" class="edge">
<title>Node6&#45;&gt;Node7</title>
<path fill="none" stroke="#63b8ff" d="M144.96,-9.5C167.13,-9.5 201.26,-9.5 226.32,-9.5"/>
<polygon fill="#63b8ff" stroke="#63b8ff" points="226.28,-13 236.28,-9.5 226.28,-6 226.28,-13"/>
</g>
</g>
</svg>
