<?xml version="1.0" encoding="UTF-8" standalone="no"?>
<!DOCTYPE svg PUBLIC "-//W3C//DTD SVG 1.1//EN"
 "http://www.w3.org/Graphics/SVG/1.1/DTD/svg11.dtd">
<!-- Generated by graphviz version 12.2.1 (20241206.2353)
 -->
<!-- Title: vmec_input::read_indata_namelist Pages: 1 -->
<svg width="466pt" height="39pt"
 viewBox="0.00 0.00 466.00 38.50" xmlns="http://www.w3.org/2000/svg" xmlns:xlink="http://www.w3.org/1999/xlink">
<g id="graph0" class="graph" transform="scale(1 1) rotate(0) translate(4 34.5)">
<title>vmec_input::read_indata_namelist</title>
<!-- Node1 -->
<g id="Node000001" class="node">
<title>Node1</title>
<g id="a_Node000001"><a xlink:title=" ">
<polygon fill="#999999" stroke="#666666" points="458,-30.5 337,-30.5 337,0 458,0 458,-30.5"/>
<text text-anchor="start" x="345" y="-17" font-family="Helvetica,sans-Serif" font-size="10.00">vmec_input::read_indata</text>
<text text-anchor="middle" x="397.5" y="-5.75" font-family="Helvetica,sans-Serif" font-size="10.00">_namelist</text>
</a>
</g>
</g>
<!-- Node2 -->
<g id="Node000002" class="node">
<title>Node2</title>
<g id="a_Node000002"><a xlink:href="../../d4/dc8/read__indata_8f90.html#a93b4b27202925d5f2783e8a4da81a8d7" target="_top" xlink:title="Read the INDATA namelist from a given input file.">
<polygon fill="white" stroke="#666666" points="301,-24.88 234.75,-24.88 234.75,-5.63 301,-5.63 301,-24.88"/>
<text text-anchor="middle" x="267.88" y="-11.38" font-family="Helvetica,sans-Serif" font-size="10.00">read_indata</text>
</a>
</g>
</g>
<!-- Node1&#45;&gt;Node2 -->
<g id="edge1_Node000001_Node000002" class="edge">
<title>Node1&#45;&gt;Node2</title>
<g id="a_edge1_Node000001_Node000002"><a xlink:title=" ">
<path fill="none" stroke="#63b8ff" d="M325.36,-15.25C317.01,-15.25 308.83,-15.25 301.4,-15.25"/>
<polygon fill="#63b8ff" stroke="#63b8ff" points="325.28,-18.75 335.28,-15.25 325.28,-11.75 325.28,-18.75"/>
</a>
</g>
</g>
<!-- Node3 -->
<g id="Node000003" class="node">
<title>Node3</title>
<g id="a_Node000003"><a xlink:href="../../d8/da3/readin_8f90.html#a60f2bfd8fc6f7c3e027a8f91ef0c7b25" target="_top" xlink:title="Read the input file.">
<polygon fill="white" stroke="#666666" points="198.75,-24.88 156.5,-24.88 156.5,-5.63 198.75,-5.63 198.75,-24.88"/>
<text text-anchor="middle" x="177.62" y="-11.38" font-family="Helvetica,sans-Serif" font-size="10.00">readin</text>
</a>
</g>
</g>
<!-- Node2&#45;&gt;Node3 -->
<g id="edge2_Node000002_Node000003" class="edge">
<title>Node2&#45;&gt;Node3</title>
<g id="a_edge2_Node000002_Node000003"><a xlink:title=" ">
<path fill="none" stroke="#63b8ff" d="M222.98,-15.25C214.63,-15.25 206.25,-15.25 199.07,-15.25"/>
<polygon fill="#63b8ff" stroke="#63b8ff" points="222.75,-18.75 232.75,-15.25 222.75,-11.75 222.75,-18.75"/>
</a>
</g>
</g>
<!-- Node4 -->
<g id="Node000004" class="node">
<title>Node4</title>
<g id="a_Node000004"><a xlink:href="../../db/d61/vmec_8f90.html#a6d38ab7be2f9d818da4541e1d352ea23" target="_top" xlink:title="Main driver for VMEC.">
<polygon fill="white" stroke="#666666" points="120.5,-24.88 80.5,-24.88 80.5,-5.63 120.5,-5.63 120.5,-24.88"/>
<text text-anchor="middle" x="100.5" y="-11.38" font-family="Helvetica,sans-Serif" font-size="10.00">vmec</text>
</a>
</g>
</g>
<!-- Node3&#45;&gt;Node4 -->
<g id="edge3_Node000003_Node000004" class="edge">
<title>Node3&#45;&gt;Node4</title>
<g id="a_edge3_Node000003_Node000004"><a xlink:title=" ">
<path fill="none" stroke="#63b8ff" d="M144.71,-15.25C136.64,-15.25 128.21,-15.25 120.97,-15.25"/>
<polygon fill="#63b8ff" stroke="#63b8ff" points="144.58,-18.75 154.58,-15.25 144.58,-11.75 144.58,-18.75"/>
</a>
</g>
</g>
<!-- Node5 -->
<g id="Node000005" class="node">
<title>Node5</title>
<g id="a_Node000005"><a xlink:href="../../db/d61/vmec_8f90.html#ace5bdf043bb85c8f0a9fc582bdb55725" target="_top" xlink:title="Main program of VMEC.">
<polygon fill="white" stroke="#666666" points="44.5,-24.88 0,-24.88 0,-5.63 44.5,-5.63 44.5,-24.88"/>
<text text-anchor="middle" x="22.25" y="-11.38" font-family="Helvetica,sans-Serif" font-size="10.00">xvmec</text>
</a>
</g>
</g>
<!-- Node4&#45;&gt;Node5 -->
<g id="edge4_Node000004_Node000005" class="edge">
<title>Node4&#45;&gt;Node5</title>
<g id="a_edge4_Node000004_Node000005"><a xlink:title=" ">
<path fill="none" stroke="#63b8ff" d="M68.97,-15.25C60.92,-15.25 52.39,-15.25 44.91,-15.25"/>
<polygon fill="#63b8ff" stroke="#63b8ff" points="68.75,-18.75 78.75,-15.25 68.75,-11.75 68.75,-18.75"/>
</a>
</g>
</g>
</g>
</svg>
