<?xml version="1.0" encoding="UTF-8" standalone="no"?>
<!DOCTYPE svg PUBLIC "-//W3C//DTD SVG 1.1//EN"
 "http://www.w3.org/Graphics/SVG/1.1/DTD/svg11.dtd">
<!-- Generated by graphviz version 2.47.1 (20210421.1823)
 -->
<!-- Title: piota Pages: 1 -->
<svg width="289pt" height="142pt"
 viewBox="0.00 0.00 289.00 142.00" xmlns="http://www.w3.org/2000/svg" xmlns:xlink="http://www.w3.org/1999/xlink">
<g id="graph0" class="graph" transform="scale(1 1) rotate(0) translate(4 138)">
<title>piota</title>
<polygon fill="white" stroke="transparent" points="-4,4 -4,-138 285,-138 285,4 -4,4"/>
<!-- Node1 -->
<g id="node1" class="node">
<title>Node1</title>
<g id="a_node1"><a xlink:title=" ">
<polygon fill="#bfbfbf" stroke="black" points="0,-57.5 0,-76.5 38,-76.5 38,-57.5 0,-57.5"/>
<text text-anchor="middle" x="19" y="-64.5" font-family="Helvetica,sans-Serif" font-size="10.00">piota</text>
</a>
</g>
</g>
<!-- Node2 -->
<g id="node2" class="node">
<title>Node2</title>
<g id="a_node2"><a xlink:href="../../d2/dcb/namespaceline__segment.html#aa63bfde0ff39e19622f7f5fe150e8b59" target="_top" xlink:title=" ">
<polygon fill="white" stroke="black" points="74,-114.5 74,-133.5 189,-133.5 189,-114.5 74,-114.5"/>
<text text-anchor="middle" x="131.5" y="-121.5" font-family="Helvetica,sans-Serif" font-size="10.00">line_segment::line_seg</text>
</a>
</g>
</g>
<!-- Node1&#45;&gt;Node2 -->
<g id="edge1" class="edge">
<title>Node1&#45;&gt;Node2</title>
<path fill="none" stroke="midnightblue" d="M31.8,-76.82C42.33,-85.21 58.46,-97.13 74,-105 78.22,-107.14 82.74,-109.12 87.31,-110.93"/>
<polygon fill="midnightblue" stroke="midnightblue" points="86.09,-114.21 96.69,-114.4 88.52,-107.65 86.09,-114.21"/>
</g>
<!-- Node3 -->
<g id="node3" class="node">
<title>Node3</title>
<g id="a_node3"><a xlink:href="../../d6/dec/spline__akima_8f.html#a7517a5f00e408c447a9dd0e438f60e52" target="_top" xlink:title=" ">
<polygon fill="white" stroke="black" points="94.5,-76.5 94.5,-95.5 168.5,-95.5 168.5,-76.5 94.5,-76.5"/>
<text text-anchor="middle" x="131.5" y="-83.5" font-family="Helvetica,sans-Serif" font-size="10.00">spline_akima</text>
</a>
</g>
</g>
<!-- Node1&#45;&gt;Node3 -->
<g id="edge2" class="edge">
<title>Node1&#45;&gt;Node3</title>
<path fill="none" stroke="midnightblue" d="M38.25,-70.14C50.84,-72.3 68.17,-75.28 84.41,-78.08"/>
<polygon fill="midnightblue" stroke="midnightblue" points="83.89,-81.54 94.34,-79.78 85.08,-74.64 83.89,-81.54"/>
</g>
<!-- Node4 -->
<g id="node4" class="node">
<title>Node4</title>
<g id="a_node4"><a xlink:href="../../d8/d60/spline__cubic_8f.html#a60e9606a5fa1dcb7f79f9259b8e0d067" target="_top" xlink:title=" ">
<polygon fill="white" stroke="black" points="96,-38.5 96,-57.5 167,-57.5 167,-38.5 96,-38.5"/>
<text text-anchor="middle" x="131.5" y="-45.5" font-family="Helvetica,sans-Serif" font-size="10.00">spline_cubic</text>
</a>
</g>
</g>
<!-- Node1&#45;&gt;Node4 -->
<g id="edge3" class="edge">
<title>Node1&#45;&gt;Node4</title>
<path fill="none" stroke="midnightblue" d="M38.25,-63.86C51.14,-61.65 69.01,-58.57 85.59,-55.72"/>
<polygon fill="midnightblue" stroke="midnightblue" points="86.43,-59.13 95.69,-53.98 85.25,-52.23 86.43,-59.13"/>
</g>
<!-- Node7 -->
<g id="node7" class="node">
<title>Node7</title>
<g id="a_node7"><a xlink:href="../../d1/d4a/tolower_8f90.html#af0b4b410165cce4c9f0e5e6d82d21571" target="_top" xlink:title="Convert a string to lower case.">
<polygon fill="white" stroke="black" points="107.5,-0.5 107.5,-19.5 155.5,-19.5 155.5,-0.5 107.5,-0.5"/>
<text text-anchor="middle" x="131.5" y="-7.5" font-family="Helvetica,sans-Serif" font-size="10.00">tolower</text>
</a>
</g>
</g>
<!-- Node1&#45;&gt;Node7 -->
<g id="edge6" class="edge">
<title>Node1&#45;&gt;Node7</title>
<path fill="none" stroke="midnightblue" d="M31.8,-57.18C42.33,-48.79 58.46,-36.87 74,-29 81.4,-25.25 89.71,-21.99 97.62,-19.27"/>
<polygon fill="midnightblue" stroke="midnightblue" points="98.91,-22.54 107.35,-16.13 96.76,-15.88 98.91,-22.54"/>
</g>
<!-- Node5 -->
<g id="node5" class="node">
<title>Node5</title>
<g id="a_node5"><a xlink:href="../../d8/d60/spline__cubic_8f.html#a83fa704212982fff74dee5f6c68b241f" target="_top" xlink:title=" ">
<polygon fill="white" stroke="black" points="225,-57.5 225,-76.5 281,-76.5 281,-57.5 225,-57.5"/>
<text text-anchor="middle" x="253" y="-64.5" font-family="Helvetica,sans-Serif" font-size="10.00">spline_nr</text>
</a>
</g>
</g>
<!-- Node4&#45;&gt;Node5 -->
<g id="edge4" class="edge">
<title>Node4&#45;&gt;Node5</title>
<path fill="none" stroke="midnightblue" d="M167.06,-53.5C181.96,-55.86 199.42,-58.64 214.62,-61.06"/>
<polygon fill="midnightblue" stroke="midnightblue" points="214.29,-64.55 224.72,-62.66 215.39,-57.64 214.29,-64.55"/>
</g>
<!-- Node6 -->
<g id="node6" class="node">
<title>Node6</title>
<g id="a_node6"><a xlink:href="../../d8/d60/spline__cubic_8f.html#a1d13bcd91bd68259f6dbd2deb9919e6d" target="_top" xlink:title=" ">
<polygon fill="white" stroke="black" points="226.5,-19.5 226.5,-38.5 279.5,-38.5 279.5,-19.5 226.5,-19.5"/>
<text text-anchor="middle" x="253" y="-26.5" font-family="Helvetica,sans-Serif" font-size="10.00">splint_nr</text>
</a>
</g>
</g>
<!-- Node4&#45;&gt;Node6 -->
<g id="edge5" class="edge">
<title>Node4&#45;&gt;Node6</title>
<path fill="none" stroke="midnightblue" d="M167.06,-42.5C182.41,-40.06 200.47,-37.19 215.98,-34.73"/>
<polygon fill="midnightblue" stroke="midnightblue" points="216.92,-38.12 226.25,-33.09 215.82,-31.21 216.92,-38.12"/>
</g>
</g>
</svg>
