<?xml version="1.0" encoding="UTF-8" standalone="no"?>
<!DOCTYPE svg PUBLIC "-//W3C//DTD SVG 1.1//EN"
 "http://www.w3.org/Graphics/SVG/1.1/DTD/svg11.dtd">
<!-- Generated by graphviz version 2.50.0 (20220203.2022)
 -->
<!-- Title: piota Pages: 1 -->
<svg width="291pt" height="142pt"
 viewBox="0.00 0.00 291.24 142.00" xmlns="http://www.w3.org/2000/svg" xmlns:xlink="http://www.w3.org/1999/xlink">
<g id="graph0" class="graph" transform="scale(1 1) rotate(0) translate(4 138)">
<title>piota</title>
<polygon fill="white" stroke="transparent" points="-4,4 -4,-138 287.24,-138 287.24,4 -4,4"/>
<!-- Node1 -->
<g id="node1" class="node">
<title>Node1</title>
<g id="a_node1"><a xlink:title=" ">
<polygon fill="#bfbfbf" stroke="black" points="2.24,-57.5 2.24,-76.5 40.24,-76.5 40.24,-57.5 2.24,-57.5"/>
<text text-anchor="middle" x="21.24" y="-64.5" font-family="Helvetica,sans-Serif" font-size="10.00">piota</text>
</a>
</g>
</g>
<!-- Node1&#45;&gt;Node1 -->
<g id="edge2" class="edge">
<title>Node1&#45;&gt;Node1</title>
<path fill="none" stroke="midnightblue" d="M3.98,-76.76C-4.42,-85.57 1.33,-95 21.24,-95 33.68,-95 40.59,-91.31 41.98,-86.4"/>
<polygon fill="midnightblue" stroke="midnightblue" points="45.19,-84.98 38.5,-76.76 38.6,-87.35 45.19,-84.98"/>
</g>
<!-- Node2 -->
<g id="node2" class="node">
<title>Node2</title>
<g id="a_node2"><a xlink:href="../../d2/dcb/namespaceline__segment.html#aa63bfde0ff39e19622f7f5fe150e8b59" target="_top" xlink:title=" ">
<polygon fill="white" stroke="black" points="76.24,-114.5 76.24,-133.5 191.24,-133.5 191.24,-114.5 76.24,-114.5"/>
<text text-anchor="middle" x="133.74" y="-121.5" font-family="Helvetica,sans-Serif" font-size="10.00">line_segment::line_seg</text>
</a>
</g>
</g>
<!-- Node1&#45;&gt;Node2 -->
<g id="edge1" class="edge">
<title>Node1&#45;&gt;Node2</title>
<path fill="none" stroke="midnightblue" d="M34.04,-76.82C44.57,-85.21 60.69,-97.13 76.24,-105 80.46,-107.14 84.97,-109.12 89.54,-110.93"/>
<polygon fill="midnightblue" stroke="midnightblue" points="88.33,-114.21 98.92,-114.4 90.76,-107.65 88.33,-114.21"/>
</g>
<!-- Node3 -->
<g id="node3" class="node">
<title>Node3</title>
<g id="a_node3"><a xlink:href="../../d6/dec/spline__akima_8f.html#a7517a5f00e408c447a9dd0e438f60e52" target="_top" xlink:title=" ">
<polygon fill="white" stroke="black" points="96.74,-76.5 96.74,-95.5 170.74,-95.5 170.74,-76.5 96.74,-76.5"/>
<text text-anchor="middle" x="133.74" y="-83.5" font-family="Helvetica,sans-Serif" font-size="10.00">spline_akima</text>
</a>
</g>
</g>
<!-- Node1&#45;&gt;Node3 -->
<g id="edge3" class="edge">
<title>Node1&#45;&gt;Node3</title>
<path fill="none" stroke="midnightblue" d="M40.48,-70.14C53.07,-72.3 70.41,-75.28 86.65,-78.08"/>
<polygon fill="midnightblue" stroke="midnightblue" points="86.13,-81.54 96.58,-79.78 87.31,-74.64 86.13,-81.54"/>
</g>
<!-- Node4 -->
<g id="node4" class="node">
<title>Node4</title>
<g id="a_node4"><a xlink:href="../../d8/d60/spline__cubic_8f.html#a60e9606a5fa1dcb7f79f9259b8e0d067" target="_top" xlink:title=" ">
<polygon fill="white" stroke="black" points="98.24,-38.5 98.24,-57.5 169.24,-57.5 169.24,-38.5 98.24,-38.5"/>
<text text-anchor="middle" x="133.74" y="-45.5" font-family="Helvetica,sans-Serif" font-size="10.00">spline_cubic</text>
</a>
</g>
</g>
<!-- Node1&#45;&gt;Node4 -->
<g id="edge4" class="edge">
<title>Node1&#45;&gt;Node4</title>
<path fill="none" stroke="midnightblue" d="M40.48,-63.86C53.38,-61.65 71.25,-58.57 87.83,-55.72"/>
<polygon fill="midnightblue" stroke="midnightblue" points="88.67,-59.13 97.93,-53.98 87.48,-52.23 88.67,-59.13"/>
</g>
<!-- Node7 -->
<g id="node7" class="node">
<title>Node7</title>
<g id="a_node7"><a xlink:href="../../d1/d4a/tolower_8f90.html#af0b4b410165cce4c9f0e5e6d82d21571" target="_top" xlink:title="Convert a string to lower case.">
<polygon fill="white" stroke="black" points="109.74,-0.5 109.74,-19.5 157.74,-19.5 157.74,-0.5 109.74,-0.5"/>
<text text-anchor="middle" x="133.74" y="-7.5" font-family="Helvetica,sans-Serif" font-size="10.00">tolower</text>
</a>
</g>
</g>
<!-- Node1&#45;&gt;Node7 -->
<g id="edge7" class="edge">
<title>Node1&#45;&gt;Node7</title>
<path fill="none" stroke="midnightblue" d="M34.04,-57.18C44.57,-48.79 60.69,-36.87 76.24,-29 83.64,-25.25 91.94,-21.99 99.86,-19.27"/>
<polygon fill="midnightblue" stroke="midnightblue" points="101.15,-22.54 109.59,-16.13 98.99,-15.88 101.15,-22.54"/>
</g>
<!-- Node5 -->
<g id="node5" class="node">
<title>Node5</title>
<g id="a_node5"><a xlink:href="../../d8/d60/spline__cubic_8f.html#a83fa704212982fff74dee5f6c68b241f" target="_top" xlink:title=" ">
<polygon fill="white" stroke="black" points="227.24,-57.5 227.24,-76.5 283.24,-76.5 283.24,-57.5 227.24,-57.5"/>
<text text-anchor="middle" x="255.24" y="-64.5" font-family="Helvetica,sans-Serif" font-size="10.00">spline_nr</text>
</a>
</g>
</g>
<!-- Node4&#45;&gt;Node5 -->
<g id="edge5" class="edge">
<title>Node4&#45;&gt;Node5</title>
<path fill="none" stroke="midnightblue" d="M169.3,-53.5C184.2,-55.86 201.65,-58.64 216.85,-61.06"/>
<polygon fill="midnightblue" stroke="midnightblue" points="216.53,-64.55 226.96,-62.66 217.63,-57.64 216.53,-64.55"/>
</g>
<!-- Node6 -->
<g id="node6" class="node">
<title>Node6</title>
<g id="a_node6"><a xlink:href="../../d8/d60/spline__cubic_8f.html#a1d13bcd91bd68259f6dbd2deb9919e6d" target="_top" xlink:title=" ">
<polygon fill="white" stroke="black" points="228.74,-19.5 228.74,-38.5 281.74,-38.5 281.74,-19.5 228.74,-19.5"/>
<text text-anchor="middle" x="255.24" y="-26.5" font-family="Helvetica,sans-Serif" font-size="10.00">splint_nr</text>
</a>
</g>
</g>
<!-- Node4&#45;&gt;Node6 -->
<g id="edge6" class="edge">
<title>Node4&#45;&gt;Node6</title>
<path fill="none" stroke="midnightblue" d="M169.3,-42.5C184.65,-40.06 202.71,-37.19 218.22,-34.73"/>
<polygon fill="midnightblue" stroke="midnightblue" points="219.16,-38.12 228.49,-33.09 218.06,-31.21 219.16,-38.12"/>
</g>
</g>
</svg>
