<?xml version="1.0" encoding="UTF-8" standalone="no"?>
<!DOCTYPE svg PUBLIC "-//W3C//DTD SVG 1.1//EN"
 "http://www.w3.org/Graphics/SVG/1.1/DTD/svg11.dtd">
<!-- Generated by graphviz version 12.2.1 (20241206.2353)
 -->
<!-- Title: piota Pages: 1 -->
<svg width="229pt" height="45pt"
 viewBox="0.00 0.00 229.25 45.25" xmlns="http://www.w3.org/2000/svg" xmlns:xlink="http://www.w3.org/1999/xlink">
<g id="graph0" class="graph" transform="scale(1 1) rotate(0) translate(4 41.25)">
<title>piota</title>
<!-- Node1 -->
<g id="Node000001" class="node">
<title>Node1</title>
<g id="a_Node000001"><a xlink:title=" ">
<polygon fill="#999999" stroke="#666666" points="221.25,-19.25 184.25,-19.25 184.25,0 221.25,0 221.25,-19.25"/>
<text text-anchor="middle" x="202.75" y="-5.75" font-family="Helvetica,sans-Serif" font-size="10.00">piota</text>
</a>
</g>
</g>
<!-- Node1&#45;&gt;Node1 -->
<g id="edge1_Node000001_Node000001" class="edge">
<title>Node1&#45;&gt;Node1</title>
<g id="a_edge1_Node000001_Node000001"><a xlink:title=" ">
<path fill="none" stroke="#63b8ff" d="M218.57,-30.65C216.59,-34.53 211.32,-37.25 202.75,-37.25 187.08,-37.25 182.43,-28.15 188.8,-19.54"/>
<polygon fill="#63b8ff" stroke="#63b8ff" points="222.06,-30.31 216.95,-21.03 215.16,-31.47 222.06,-30.31"/>
</a>
</g>
</g>
<!-- Node2 -->
<g id="Node000002" class="node">
<title>Node2</title>
<g id="a_Node000002"><a xlink:href="../../d5/d26/magnetic__fluxes_8f90.html#ad5e5642d688664c85a181c2d1fd6497f" target="_top" xlink:title="Compute the radial derivative of the enclosed poloidal magnetic flux.">
<polygon fill="white" stroke="#666666" points="148.25,-19.25 79,-19.25 79,0 148.25,0 148.25,-19.25"/>
<text text-anchor="middle" x="113.62" y="-5.75" font-family="Helvetica,sans-Serif" font-size="10.00">polflux_deriv</text>
</a>
</g>
</g>
<!-- Node1&#45;&gt;Node2 -->
<g id="edge2_Node000001_Node000002" class="edge">
<title>Node1&#45;&gt;Node2</title>
<g id="a_edge2_Node000001_Node000002"><a xlink:title=" ">
<path fill="none" stroke="#63b8ff" d="M172.66,-9.62C164.89,-9.62 156.44,-9.62 148.45,-9.62"/>
<polygon fill="#63b8ff" stroke="#63b8ff" points="172.61,-13.13 182.61,-9.63 172.61,-6.13 172.61,-13.13"/>
</a>
</g>
</g>
<!-- Node2&#45;&gt;Node2 -->
<g id="edge5_Node000002_Node000002" class="edge">
<title>Node2&#45;&gt;Node2</title>
<g id="a_edge5_Node000002_Node000002"><a xlink:title=" ">
<path fill="none" stroke="#63b8ff" d="M129.44,-30.65C127.47,-34.53 122.19,-37.25 113.62,-37.25 97.96,-37.25 93.31,-28.15 99.67,-19.54"/>
<polygon fill="#63b8ff" stroke="#63b8ff" points="132.94,-30.31 127.83,-21.03 126.03,-31.47 132.94,-30.31"/>
</a>
</g>
</g>
<!-- Node3 -->
<g id="Node000003" class="node">
<title>Node3</title>
<g id="a_Node000003"><a xlink:href="../../d5/d26/magnetic__fluxes_8f90.html#a9d78c3bac80a4d14cc82a93bc79e7dcd" target="_top" xlink:title="Compute the enclosed poloidal magnetic flux.">
<polygon fill="white" stroke="#666666" points="43,-19.25 0,-19.25 0,0 43,0 43,-19.25"/>
<text text-anchor="middle" x="21.5" y="-5.75" font-family="Helvetica,sans-Serif" font-size="10.00">polflux</text>
</a>
</g>
</g>
<!-- Node2&#45;&gt;Node3 -->
<g id="edge3_Node000002_Node000003" class="edge">
<title>Node2&#45;&gt;Node3</title>
<g id="a_edge3_Node000002_Node000003"><a xlink:title=" ">
<path fill="none" stroke="#63b8ff" d="M67.22,-9.62C58.84,-9.62 50.47,-9.62 43.28,-9.62"/>
<polygon fill="#63b8ff" stroke="#63b8ff" points="67.04,-13.13 77.04,-9.63 67.04,-6.13 67.04,-13.13"/>
</a>
</g>
</g>
<!-- Node3&#45;&gt;Node3 -->
<g id="edge4_Node000003_Node000003" class="edge">
<title>Node3&#45;&gt;Node3</title>
<g id="a_edge4_Node000003_Node000003"><a xlink:title=" ">
<path fill="none" stroke="#63b8ff" d="M37.85,-30.65C35.81,-34.53 30.36,-37.25 21.5,-37.25 5.31,-37.25 0.5,-28.15 7.08,-19.54"/>
<polygon fill="#63b8ff" stroke="#63b8ff" points="41.34,-30.28 36.18,-21.03 34.44,-31.48 41.34,-30.28"/>
</a>
</g>
</g>
</g>
</svg>
