<?xml version="1.0" encoding="UTF-8" standalone="no"?>
<!DOCTYPE svg PUBLIC "-//W3C//DTD SVG 1.1//EN"
 "http://www.w3.org/Graphics/SVG/1.1/DTD/svg11.dtd">
<!-- Generated by graphviz version 2.47.1 (20210421.1823)
 -->
<!-- Title: pcurr Pages: 1 -->
<svg width="291pt" height="268pt"
 viewBox="0.00 0.00 291.00 268.00" xmlns="http://www.w3.org/2000/svg" xmlns:xlink="http://www.w3.org/1999/xlink">
<g id="graph0" class="graph" transform="scale(1 1) rotate(0) translate(4 264)">
<title>pcurr</title>
<polygon fill="white" stroke="transparent" points="-4,4 -4,-264 287,-264 287,4 -4,4"/>
<!-- Node1 -->
<g id="node1" class="node">
<title>Node1</title>
<g id="a_node1"><a xlink:title=" ">
<polygon fill="#bfbfbf" stroke="black" points="0,-114.5 0,-133.5 38,-133.5 38,-114.5 0,-114.5"/>
<text text-anchor="middle" x="19" y="-121.5" font-family="Helvetica,sans-Serif" font-size="10.00">pcurr</text>
</a>
</g>
</g>
<!-- Node2 -->
<g id="node2" class="node">
<title>Node2</title>
<g id="a_node2"><a xlink:href="../../d2/dcb/namespaceline__segment.html#aa63bfde0ff39e19622f7f5fe150e8b59" target="_top" xlink:title=" ">
<polygon fill="white" stroke="black" points="74,-240.5 74,-259.5 189,-259.5 189,-240.5 74,-240.5"/>
<text text-anchor="middle" x="131.5" y="-247.5" font-family="Helvetica,sans-Serif" font-size="10.00">line_segment::line_seg</text>
</a>
</g>
</g>
<!-- Node1&#45;&gt;Node2 -->
<g id="edge1" class="edge">
<title>Node1&#45;&gt;Node2</title>
<path fill="none" stroke="midnightblue" d="M22.18,-133.52C27.43,-154.27 42.7,-203.89 74,-231 75.95,-232.69 78.06,-234.23 80.27,-235.64"/>
<polygon fill="midnightblue" stroke="midnightblue" points="78.77,-238.8 89.24,-240.41 82.05,-232.62 78.77,-238.8"/>
</g>
<!-- Node3 -->
<g id="node3" class="node">
<title>Node3</title>
<g id="a_node3"><a xlink:href="../../d2/dcb/namespaceline__segment.html#a5686dda904eede25b04410ebada585d3" target="_top" xlink:title=" ">
<polygon fill="white" stroke="black" points="84.5,-191 84.5,-221 178.5,-221 178.5,-191 84.5,-191"/>
<text text-anchor="start" x="92.5" y="-209" font-family="Helvetica,sans-Serif" font-size="10.00">line_segment::line</text>
<text text-anchor="middle" x="131.5" y="-198" font-family="Helvetica,sans-Serif" font-size="10.00">_seg_int</text>
</a>
</g>
</g>
<!-- Node1&#45;&gt;Node3 -->
<g id="edge2" class="edge">
<title>Node1&#45;&gt;Node3</title>
<path fill="none" stroke="midnightblue" d="M27.11,-133.59C36.64,-145.91 54.62,-167.32 74,-181 76.5,-182.77 79.15,-184.45 81.89,-186.05"/>
<polygon fill="midnightblue" stroke="midnightblue" points="80.34,-189.19 90.81,-190.85 83.66,-183.03 80.34,-189.19"/>
</g>
<!-- Node4 -->
<g id="node4" class="node">
<title>Node4</title>
<g id="a_node4"><a xlink:href="../../d6/dec/spline__akima_8f.html#a7517a5f00e408c447a9dd0e438f60e52" target="_top" xlink:title=" ">
<polygon fill="white" stroke="black" points="94.5,-152.5 94.5,-171.5 168.5,-171.5 168.5,-152.5 94.5,-152.5"/>
<text text-anchor="middle" x="131.5" y="-159.5" font-family="Helvetica,sans-Serif" font-size="10.00">spline_akima</text>
</a>
</g>
</g>
<!-- Node1&#45;&gt;Node4 -->
<g id="edge3" class="edge">
<title>Node1&#45;&gt;Node4</title>
<path fill="none" stroke="midnightblue" d="M38.47,-130.57C48.89,-134.26 62.16,-138.93 74,-143 79.77,-144.98 85.87,-147.06 91.86,-149.08"/>
<polygon fill="midnightblue" stroke="midnightblue" points="91.14,-152.54 101.73,-152.41 93.37,-145.9 91.14,-152.54"/>
</g>
<!-- Node5 -->
<g id="node5" class="node">
<title>Node5</title>
<g id="a_node5"><a xlink:href="../../d1/d95/spline__akima__int_8f.html#a06a168ee52e5ec1d7cab10c19ee37c91" target="_top" xlink:title=" ">
<polygon fill="white" stroke="black" points="87,-114.5 87,-133.5 176,-133.5 176,-114.5 87,-114.5"/>
<text text-anchor="middle" x="131.5" y="-121.5" font-family="Helvetica,sans-Serif" font-size="10.00">spline_akima_int</text>
</a>
</g>
</g>
<!-- Node1&#45;&gt;Node5 -->
<g id="edge4" class="edge">
<title>Node1&#45;&gt;Node5</title>
<path fill="none" stroke="midnightblue" d="M38.25,-124C48.9,-124 62.95,-124 76.87,-124"/>
<polygon fill="midnightblue" stroke="midnightblue" points="76.93,-127.5 86.93,-124 76.93,-120.5 76.93,-127.5"/>
</g>
<!-- Node6 -->
<g id="node6" class="node">
<title>Node6</title>
<g id="a_node6"><a xlink:href="../../d8/d60/spline__cubic_8f.html#a60e9606a5fa1dcb7f79f9259b8e0d067" target="_top" xlink:title=" ">
<polygon fill="white" stroke="black" points="96,-76.5 96,-95.5 167,-95.5 167,-76.5 96,-76.5"/>
<text text-anchor="middle" x="131.5" y="-83.5" font-family="Helvetica,sans-Serif" font-size="10.00">spline_cubic</text>
</a>
</g>
</g>
<!-- Node1&#45;&gt;Node6 -->
<g id="edge5" class="edge">
<title>Node1&#45;&gt;Node6</title>
<path fill="none" stroke="midnightblue" d="M38.47,-117.43C48.89,-113.74 62.16,-109.07 74,-105 79.77,-103.02 85.87,-100.94 91.86,-98.92"/>
<polygon fill="midnightblue" stroke="midnightblue" points="93.37,-102.1 101.73,-95.59 91.14,-95.46 93.37,-102.1"/>
</g>
<!-- Node9 -->
<g id="node9" class="node">
<title>Node9</title>
<g id="a_node9"><a xlink:href="../../de/d64/spline__cubic__int_8f.html#ad67b8e5169554dbccb5cf79f069dc055" target="_top" xlink:title=" ">
<polygon fill="white" stroke="black" points="88.5,-38.5 88.5,-57.5 174.5,-57.5 174.5,-38.5 88.5,-38.5"/>
<text text-anchor="middle" x="131.5" y="-45.5" font-family="Helvetica,sans-Serif" font-size="10.00">spline_cubic_int</text>
</a>
</g>
</g>
<!-- Node1&#45;&gt;Node9 -->
<g id="edge8" class="edge">
<title>Node1&#45;&gt;Node9</title>
<path fill="none" stroke="midnightblue" d="M26.92,-114.13C36.25,-101.51 54.01,-79.77 74,-67 77.15,-64.99 80.54,-63.16 84.03,-61.52"/>
<polygon fill="midnightblue" stroke="midnightblue" points="85.58,-64.67 93.44,-57.56 82.86,-58.21 85.58,-64.67"/>
</g>
<!-- Node12 -->
<g id="node12" class="node">
<title>Node12</title>
<g id="a_node12"><a xlink:href="../../d1/d4a/tolower_8f90.html#af0b4b410165cce4c9f0e5e6d82d21571" target="_top" xlink:title=" ">
<polygon fill="white" stroke="black" points="107.5,-0.5 107.5,-19.5 155.5,-19.5 155.5,-0.5 107.5,-0.5"/>
<text text-anchor="middle" x="131.5" y="-7.5" font-family="Helvetica,sans-Serif" font-size="10.00">tolower</text>
</a>
</g>
</g>
<!-- Node1&#45;&gt;Node12 -->
<g id="edge11" class="edge">
<title>Node1&#45;&gt;Node12</title>
<path fill="none" stroke="midnightblue" d="M22.87,-114.4C29.06,-95.33 45.45,-52.52 74,-29 80.83,-23.37 89.4,-19.38 97.79,-16.57"/>
<polygon fill="midnightblue" stroke="midnightblue" points="98.81,-19.92 107.44,-13.77 96.86,-13.19 98.81,-19.92"/>
</g>
<!-- Node7 -->
<g id="node7" class="node">
<title>Node7</title>
<g id="a_node7"><a xlink:href="../../d8/d60/spline__cubic_8f.html#a83fa704212982fff74dee5f6c68b241f" target="_top" xlink:title=" ">
<polygon fill="white" stroke="black" points="226,-114.5 226,-133.5 282,-133.5 282,-114.5 226,-114.5"/>
<text text-anchor="middle" x="254" y="-121.5" font-family="Helvetica,sans-Serif" font-size="10.00">spline_nr</text>
</a>
</g>
</g>
<!-- Node6&#45;&gt;Node7 -->
<g id="edge6" class="edge">
<title>Node6&#45;&gt;Node7</title>
<path fill="none" stroke="midnightblue" d="M162.91,-95.59C179.11,-100.7 199.16,-107.02 216.24,-112.41"/>
<polygon fill="midnightblue" stroke="midnightblue" points="215.3,-115.78 225.89,-115.45 217.41,-109.11 215.3,-115.78"/>
</g>
<!-- Node8 -->
<g id="node8" class="node">
<title>Node8</title>
<g id="a_node8"><a xlink:href="../../d8/d60/spline__cubic_8f.html#a1d13bcd91bd68259f6dbd2deb9919e6d" target="_top" xlink:title=" ">
<polygon fill="white" stroke="black" points="227.5,-76.5 227.5,-95.5 280.5,-95.5 280.5,-76.5 227.5,-76.5"/>
<text text-anchor="middle" x="254" y="-83.5" font-family="Helvetica,sans-Serif" font-size="10.00">splint_nr</text>
</a>
</g>
</g>
<!-- Node6&#45;&gt;Node8 -->
<g id="edge7" class="edge">
<title>Node6&#45;&gt;Node8</title>
<path fill="none" stroke="midnightblue" d="M167.03,-86C182.63,-86 201.05,-86 216.84,-86"/>
<polygon fill="midnightblue" stroke="midnightblue" points="217.28,-89.5 227.28,-86 217.28,-82.5 217.28,-89.5"/>
</g>
<!-- Node10 -->
<g id="node10" class="node">
<title>Node10</title>
<g id="a_node10"><a xlink:href="../../de/d64/spline__cubic__int_8f.html#a63307cd586733f21daca60330abd56a9" target="_top" xlink:title=" ">
<polygon fill="white" stroke="black" points="225,-38.5 225,-57.5 283,-57.5 283,-38.5 225,-38.5"/>
<text text-anchor="middle" x="254" y="-45.5" font-family="Helvetica,sans-Serif" font-size="10.00">spline_int</text>
</a>
</g>
</g>
<!-- Node9&#45;&gt;Node10 -->
<g id="edge9" class="edge">
<title>Node9&#45;&gt;Node10</title>
<path fill="none" stroke="midnightblue" d="M174.65,-48C187.58,-48 201.75,-48 214.43,-48"/>
<polygon fill="midnightblue" stroke="midnightblue" points="214.68,-51.5 224.68,-48 214.68,-44.5 214.68,-51.5"/>
</g>
<!-- Node11 -->
<g id="node11" class="node">
<title>Node11</title>
<g id="a_node11"><a xlink:href="../../de/d64/spline__cubic__int_8f.html#aa733cd2e81ca5dcc5d570cad7f085908" target="_top" xlink:title=" ">
<polygon fill="white" stroke="black" points="226,-0.5 226,-19.5 282,-19.5 282,-0.5 226,-0.5"/>
<text text-anchor="middle" x="254" y="-7.5" font-family="Helvetica,sans-Serif" font-size="10.00">splint_int</text>
</a>
</g>
</g>
<!-- Node9&#45;&gt;Node11 -->
<g id="edge10" class="edge">
<title>Node9&#45;&gt;Node11</title>
<path fill="none" stroke="midnightblue" d="M162.91,-38.41C179.11,-33.3 199.16,-26.98 216.24,-21.59"/>
<polygon fill="midnightblue" stroke="midnightblue" points="217.41,-24.89 225.89,-18.55 215.3,-18.22 217.41,-24.89"/>
</g>
</g>
</svg>
