<?xml version="1.0" encoding="UTF-8" standalone="no"?>
<!DOCTYPE svg PUBLIC "-//W3C//DTD SVG 1.1//EN"
 "http://www.w3.org/Graphics/SVG/1.1/DTD/svg11.dtd">
<!-- Generated by graphviz version 8.0.1 (20230327.1645)
 -->
<!-- Title: pcurr Pages: 1 -->
<svg width="293pt" height="261pt"
 viewBox="0.00 0.00 293.30 261.00" xmlns="http://www.w3.org/2000/svg" xmlns:xlink="http://www.w3.org/1999/xlink">
<g id="graph0" class="graph" transform="scale(1 1) rotate(0) translate(4 257)">
<title>pcurr</title>
<!-- Node1 -->
<g id="node1" class="node">
<title>Node1</title>
<g id="a_node1"><a xlink:title=" ">
<polygon fill="#999999" stroke="#666666" points="40.3,-130 2.3,-130 2.3,-111 40.3,-111 40.3,-130"/>
<text text-anchor="middle" x="21.3" y="-118" font-family="Helvetica,sans-Serif" font-size="10.00">pcurr</text>
</a>
</g>
</g>
<!-- Node1&#45;&gt;Node1 -->
<g id="edge3" class="edge">
<title>Node1&#45;&gt;Node1</title>
<path fill="none" stroke="#63b8ff" d="M3.69,-130.37C-4.35,-138.94 1.53,-148 21.3,-148 32.73,-148 39.52,-144.97 41.66,-140.76"/>
<polygon fill="#63b8ff" stroke="#63b8ff" points="44.85,-140.14 38.91,-131.37 38.08,-141.93 44.85,-140.14"/>
</g>
<!-- Node2 -->
<g id="node2" class="node">
<title>Node2</title>
<g id="a_node2"><a xlink:href="../../d2/dcb/namespaceline__segment.html#aa63bfde0ff39e19622f7f5fe150e8b59" target="_top" xlink:title=" ">
<polygon fill="white" stroke="#666666" points="191.3,-253 76.3,-253 76.3,-234 191.3,-234 191.3,-253"/>
<text text-anchor="middle" x="133.8" y="-241" font-family="Helvetica,sans-Serif" font-size="10.00">line_segment::line_seg</text>
</a>
</g>
</g>
<!-- Node1&#45;&gt;Node2 -->
<g id="edge1" class="edge">
<title>Node1&#45;&gt;Node2</title>
<path fill="none" stroke="#63b8ff" d="M24.73,-130.37C30.29,-150.9 45.86,-198.43 76.3,-224.5 77.92,-225.89 79.65,-227.18 81.45,-228.37"/>
<polygon fill="#63b8ff" stroke="#63b8ff" points="79.55,-231.87 90,-233.6 82.91,-225.73 79.55,-231.87"/>
</g>
<!-- Node3 -->
<g id="node3" class="node">
<title>Node3</title>
<g id="a_node3"><a xlink:href="../../d2/dcb/namespaceline__segment.html#a5686dda904eede25b04410ebada585d3" target="_top" xlink:title=" ">
<polygon fill="white" stroke="#666666" points="180.8,-215.5 86.8,-215.5 86.8,-185.5 180.8,-185.5 180.8,-215.5"/>
<text text-anchor="start" x="94.8" y="-203.5" font-family="Helvetica,sans-Serif" font-size="10.00">line_segment::line</text>
<text text-anchor="middle" x="133.8" y="-192.5" font-family="Helvetica,sans-Serif" font-size="10.00">_seg_int</text>
</a>
</g>
</g>
<!-- Node1&#45;&gt;Node3 -->
<g id="edge2" class="edge">
<title>Node1&#45;&gt;Node3</title>
<path fill="none" stroke="#63b8ff" d="M29.75,-130.38C39.37,-142.58 57.16,-163.33 76.3,-176.5 78.01,-177.68 79.79,-178.82 81.62,-179.91"/>
<polygon fill="#63b8ff" stroke="#63b8ff" points="79.59,-183.34 90.05,-185.05 82.94,-177.19 79.59,-183.34"/>
</g>
<!-- Node4 -->
<g id="node4" class="node">
<title>Node4</title>
<g id="a_node4"><a xlink:href="../../de/de4/explore__spline__akima_8f90.html#a7517a5f00e408c447a9dd0e438f60e52" target="_top" xlink:title=" ">
<polygon fill="white" stroke="#666666" points="170.8,-167 96.8,-167 96.8,-148 170.8,-148 170.8,-167"/>
<text text-anchor="middle" x="133.8" y="-155" font-family="Helvetica,sans-Serif" font-size="10.00">spline_akima</text>
</a>
</g>
</g>
<!-- Node1&#45;&gt;Node4 -->
<g id="edge4" class="edge">
<title>Node1&#45;&gt;Node4</title>
<path fill="none" stroke="#63b8ff" d="M40.75,-127.14C51.16,-130.86 64.43,-135.52 76.3,-139.5 80.93,-141.05 85.78,-142.64 90.61,-144.21"/>
<polygon fill="#63b8ff" stroke="#63b8ff" points="89.48,-147.85 100.07,-147.58 91.62,-141.18 89.48,-147.85"/>
</g>
<!-- Node5 -->
<g id="node5" class="node">
<title>Node5</title>
<g id="a_node5"><a xlink:href="../../d1/d95/spline__akima__int_8f.html#a06a168ee52e5ec1d7cab10c19ee37c91" target="_top" xlink:title=" ">
<polygon fill="white" stroke="#666666" points="178.3,-130 89.3,-130 89.3,-111 178.3,-111 178.3,-130"/>
<text text-anchor="middle" x="133.8" y="-118" font-family="Helvetica,sans-Serif" font-size="10.00">spline_akima_int</text>
</a>
</g>
</g>
<!-- Node1&#45;&gt;Node5 -->
<g id="edge5" class="edge">
<title>Node1&#45;&gt;Node5</title>
<path fill="none" stroke="#63b8ff" d="M40.55,-120.5C51,-120.5 64.71,-120.5 78.36,-120.5"/>
<polygon fill="#63b8ff" stroke="#63b8ff" points="78.23,-124 88.23,-120.5 78.23,-117 78.23,-124"/>
</g>
<!-- Node6 -->
<g id="node6" class="node">
<title>Node6</title>
<g id="a_node6"><a xlink:href="../../d8/d60/spline__cubic_8f.html#a60e9606a5fa1dcb7f79f9259b8e0d067" target="_top" xlink:title=" ">
<polygon fill="white" stroke="#666666" points="169.3,-93 98.3,-93 98.3,-74 169.3,-74 169.3,-93"/>
<text text-anchor="middle" x="133.8" y="-81" font-family="Helvetica,sans-Serif" font-size="10.00">spline_cubic</text>
</a>
</g>
</g>
<!-- Node1&#45;&gt;Node6 -->
<g id="edge6" class="edge">
<title>Node1&#45;&gt;Node6</title>
<path fill="none" stroke="#63b8ff" d="M40.55,-114.39C54.79,-109.62 75.11,-102.82 93.06,-96.81"/>
<polygon fill="#63b8ff" stroke="#63b8ff" points="93.91,-99.88 102.28,-93.38 91.69,-93.24 93.91,-99.88"/>
</g>
<!-- Node8 -->
<g id="node8" class="node">
<title>Node8</title>
<g id="a_node8"><a xlink:href="../../de/d64/spline__cubic__int_8f.html#ad67b8e5169554dbccb5cf79f069dc055" target="_top" xlink:title=" ">
<polygon fill="white" stroke="#666666" points="176.8,-56 90.8,-56 90.8,-37 176.8,-37 176.8,-56"/>
<text text-anchor="middle" x="133.8" y="-44" font-family="Helvetica,sans-Serif" font-size="10.00">spline_cubic_int</text>
</a>
</g>
</g>
<!-- Node1&#45;&gt;Node8 -->
<g id="edge8" class="edge">
<title>Node1&#45;&gt;Node8</title>
<path fill="none" stroke="#63b8ff" d="M29.23,-110.76C38.57,-98.32 56.34,-76.9 76.3,-64.5 78.36,-63.22 80.52,-62.02 82.74,-60.9"/>
<polygon fill="#63b8ff" stroke="#63b8ff" points="84.04,-63.72 91.79,-56.49 81.23,-57.31 84.04,-63.72"/>
</g>
<!-- Node10 -->
<g id="node10" class="node">
<title>Node10</title>
<g id="a_node10"><a xlink:href="../../d1/d4a/tolower_8f90.html#af0b4b410165cce4c9f0e5e6d82d21571" target="_top" xlink:title="Convert a string to lower case.">
<polygon fill="white" stroke="#666666" points="157.8,-19 109.8,-19 109.8,0 157.8,0 157.8,-19"/>
<text text-anchor="middle" x="133.8" y="-7" font-family="Helvetica,sans-Serif" font-size="10.00">tolower</text>
</a>
</g>
</g>
<!-- Node1&#45;&gt;Node10 -->
<g id="edge10" class="edge">
<title>Node1&#45;&gt;Node10</title>
<path fill="none" stroke="#63b8ff" d="M25.3,-110.77C31.61,-91.89 48.06,-50.18 76.3,-27.5 82.89,-22.21 91.05,-18.46 99.11,-15.81"/>
<polygon fill="#63b8ff" stroke="#63b8ff" points="99.81,-18.97 108.5,-12.92 97.93,-12.23 99.81,-18.97"/>
</g>
<!-- Node7 -->
<g id="node7" class="node">
<title>Node7</title>
<g id="a_node7"><a xlink:href="../../d8/d60/spline__cubic_8f.html#a83fa704212982fff74dee5f6c68b241f" target="_top" xlink:title=" ">
<polygon fill="white" stroke="#666666" points="284.3,-93 228.3,-93 228.3,-74 284.3,-74 284.3,-93"/>
<text text-anchor="middle" x="256.3" y="-81" font-family="Helvetica,sans-Serif" font-size="10.00">spline_nr</text>
</a>
</g>
</g>
<!-- Node6&#45;&gt;Node7 -->
<g id="edge7" class="edge">
<title>Node6&#45;&gt;Node7</title>
<path fill="none" stroke="#63b8ff" d="M169.65,-83.5C184.64,-83.5 202.2,-83.5 217.5,-83.5"/>
<polygon fill="#63b8ff" stroke="#63b8ff" points="217.18,-87 227.18,-83.5 217.18,-80 217.18,-87"/>
</g>
<!-- Node9 -->
<g id="node9" class="node">
<title>Node9</title>
<g id="a_node9"><a xlink:href="../../de/d64/spline__cubic__int_8f.html#a63307cd586733f21daca60330abd56a9" target="_top" xlink:title=" ">
<polygon fill="white" stroke="#666666" points="285.3,-56 227.3,-56 227.3,-37 285.3,-37 285.3,-56"/>
<text text-anchor="middle" x="256.3" y="-44" font-family="Helvetica,sans-Serif" font-size="10.00">spline_int</text>
</a>
</g>
</g>
<!-- Node8&#45;&gt;Node9 -->
<g id="edge9" class="edge">
<title>Node8&#45;&gt;Node9</title>
<path fill="none" stroke="#63b8ff" d="M177.28,-46.5C189.94,-46.5 203.75,-46.5 216.18,-46.5"/>
<polygon fill="#63b8ff" stroke="#63b8ff" points="216.14,-50 226.14,-46.5 216.14,-43 216.14,-50"/>
</g>
</g>
</svg>
