<?xml version="1.0" encoding="UTF-8" standalone="no"?>
<!DOCTYPE svg PUBLIC "-//W3C//DTD SVG 1.1//EN"
 "http://www.w3.org/Graphics/SVG/1.1/DTD/svg11.dtd">
<!-- Generated by graphviz version 2.49.2 (20211018.0330)
 -->
<!-- Title: pcurr Pages: 1 -->
<svg width="293pt" height="268pt"
 viewBox="0.00 0.00 293.24 268.00" xmlns="http://www.w3.org/2000/svg" xmlns:xlink="http://www.w3.org/1999/xlink">
<g id="graph0" class="graph" transform="scale(1 1) rotate(0) translate(4 264)">
<title>pcurr</title>
<polygon fill="white" stroke="transparent" points="-4,4 -4,-264 289.24,-264 289.24,4 -4,4"/>
<!-- Node1 -->
<g id="node1" class="node">
<title>Node1</title>
<g id="a_node1"><a xlink:title=" ">
<polygon fill="#bfbfbf" stroke="black" points="2.24,-114.5 2.24,-133.5 40.24,-133.5 40.24,-114.5 2.24,-114.5"/>
<text text-anchor="middle" x="21.24" y="-121.5" font-family="Helvetica,sans-Serif" font-size="10.00">pcurr</text>
</a>
</g>
</g>
<!-- Node1&#45;&gt;Node1 -->
<g id="edge3" class="edge">
<title>Node1&#45;&gt;Node1</title>
<path fill="none" stroke="midnightblue" d="M3.98,-133.76C-4.42,-142.57 1.33,-152 21.24,-152 33.68,-152 40.59,-148.31 41.98,-143.4"/>
<polygon fill="midnightblue" stroke="midnightblue" points="45.19,-141.98 38.5,-133.76 38.6,-144.35 45.19,-141.98"/>
</g>
<!-- Node2 -->
<g id="node2" class="node">
<title>Node2</title>
<g id="a_node2"><a xlink:href="../../d2/dcb/namespaceline__segment.html#aa63bfde0ff39e19622f7f5fe150e8b59" target="_top" xlink:title=" ">
<polygon fill="white" stroke="black" points="76.24,-240.5 76.24,-259.5 191.24,-259.5 191.24,-240.5 76.24,-240.5"/>
<text text-anchor="middle" x="133.74" y="-247.5" font-family="Helvetica,sans-Serif" font-size="10.00">line_segment::line_seg</text>
</a>
</g>
</g>
<!-- Node1&#45;&gt;Node2 -->
<g id="edge1" class="edge">
<title>Node1&#45;&gt;Node2</title>
<path fill="none" stroke="midnightblue" d="M24.42,-133.52C29.67,-154.27 44.94,-203.89 76.24,-231 78.19,-232.69 80.3,-234.23 82.51,-235.64"/>
<polygon fill="midnightblue" stroke="midnightblue" points="81,-238.8 91.48,-240.41 84.29,-232.62 81,-238.8"/>
</g>
<!-- Node3 -->
<g id="node3" class="node">
<title>Node3</title>
<g id="a_node3"><a xlink:href="../../d2/dcb/namespaceline__segment.html#a5686dda904eede25b04410ebada585d3" target="_top" xlink:title=" ">
<polygon fill="white" stroke="black" points="86.74,-191 86.74,-221 180.74,-221 180.74,-191 86.74,-191"/>
<text text-anchor="start" x="94.74" y="-209" font-family="Helvetica,sans-Serif" font-size="10.00">line_segment::line</text>
<text text-anchor="middle" x="133.74" y="-198" font-family="Helvetica,sans-Serif" font-size="10.00">_seg_int</text>
</a>
</g>
</g>
<!-- Node1&#45;&gt;Node3 -->
<g id="edge2" class="edge">
<title>Node1&#45;&gt;Node3</title>
<path fill="none" stroke="midnightblue" d="M29.34,-133.59C38.88,-145.91 56.86,-167.32 76.24,-181 78.74,-182.77 81.39,-184.45 84.12,-186.05"/>
<polygon fill="midnightblue" stroke="midnightblue" points="82.58,-189.19 93.04,-190.85 85.9,-183.03 82.58,-189.19"/>
</g>
<!-- Node4 -->
<g id="node4" class="node">
<title>Node4</title>
<g id="a_node4"><a xlink:href="../../d6/dec/spline__akima_8f.html#a7517a5f00e408c447a9dd0e438f60e52" target="_top" xlink:title=" ">
<polygon fill="white" stroke="black" points="96.74,-152.5 96.74,-171.5 170.74,-171.5 170.74,-152.5 96.74,-152.5"/>
<text text-anchor="middle" x="133.74" y="-159.5" font-family="Helvetica,sans-Serif" font-size="10.00">spline_akima</text>
</a>
</g>
</g>
<!-- Node1&#45;&gt;Node4 -->
<g id="edge4" class="edge">
<title>Node1&#45;&gt;Node4</title>
<path fill="none" stroke="midnightblue" d="M40.71,-130.57C51.13,-134.26 64.4,-138.93 76.24,-143 82.01,-144.98 88.11,-147.06 94.1,-149.08"/>
<polygon fill="midnightblue" stroke="midnightblue" points="93.37,-152.54 103.97,-152.41 95.61,-145.9 93.37,-152.54"/>
</g>
<!-- Node5 -->
<g id="node5" class="node">
<title>Node5</title>
<g id="a_node5"><a xlink:href="../../d1/d95/spline__akima__int_8f.html#a06a168ee52e5ec1d7cab10c19ee37c91" target="_top" xlink:title=" ">
<polygon fill="white" stroke="black" points="89.24,-114.5 89.24,-133.5 178.24,-133.5 178.24,-114.5 89.24,-114.5"/>
<text text-anchor="middle" x="133.74" y="-121.5" font-family="Helvetica,sans-Serif" font-size="10.00">spline_akima_int</text>
</a>
</g>
</g>
<!-- Node1&#45;&gt;Node5 -->
<g id="edge5" class="edge">
<title>Node1&#45;&gt;Node5</title>
<path fill="none" stroke="midnightblue" d="M40.48,-124C51.14,-124 65.19,-124 79.11,-124"/>
<polygon fill="midnightblue" stroke="midnightblue" points="79.16,-127.5 89.16,-124 79.16,-120.5 79.16,-127.5"/>
</g>
<!-- Node6 -->
<g id="node6" class="node">
<title>Node6</title>
<g id="a_node6"><a xlink:href="../../d8/d60/spline__cubic_8f.html#a60e9606a5fa1dcb7f79f9259b8e0d067" target="_top" xlink:title=" ">
<polygon fill="white" stroke="black" points="98.24,-76.5 98.24,-95.5 169.24,-95.5 169.24,-76.5 98.24,-76.5"/>
<text text-anchor="middle" x="133.74" y="-83.5" font-family="Helvetica,sans-Serif" font-size="10.00">spline_cubic</text>
</a>
</g>
</g>
<!-- Node1&#45;&gt;Node6 -->
<g id="edge6" class="edge">
<title>Node1&#45;&gt;Node6</title>
<path fill="none" stroke="midnightblue" d="M40.71,-117.43C51.13,-113.74 64.4,-109.07 76.24,-105 82.01,-103.02 88.11,-100.94 94.1,-98.92"/>
<polygon fill="midnightblue" stroke="midnightblue" points="95.61,-102.1 103.97,-95.59 93.37,-95.46 95.61,-102.1"/>
</g>
<!-- Node9 -->
<g id="node9" class="node">
<title>Node9</title>
<g id="a_node9"><a xlink:href="../../de/d64/spline__cubic__int_8f.html#ad67b8e5169554dbccb5cf79f069dc055" target="_top" xlink:title=" ">
<polygon fill="white" stroke="black" points="90.74,-38.5 90.74,-57.5 176.74,-57.5 176.74,-38.5 90.74,-38.5"/>
<text text-anchor="middle" x="133.74" y="-45.5" font-family="Helvetica,sans-Serif" font-size="10.00">spline_cubic_int</text>
</a>
</g>
</g>
<!-- Node1&#45;&gt;Node9 -->
<g id="edge9" class="edge">
<title>Node1&#45;&gt;Node9</title>
<path fill="none" stroke="midnightblue" d="M29.16,-114.13C38.49,-101.51 56.25,-79.77 76.24,-67 79.39,-64.99 82.78,-63.16 86.27,-61.52"/>
<polygon fill="midnightblue" stroke="midnightblue" points="87.81,-64.67 95.67,-57.56 85.1,-58.21 87.81,-64.67"/>
</g>
<!-- Node12 -->
<g id="node12" class="node">
<title>Node12</title>
<g id="a_node12"><a xlink:href="../../d1/d4a/tolower_8f90.html#af0b4b410165cce4c9f0e5e6d82d21571" target="_top" xlink:title="Convert a string to lower case.">
<polygon fill="white" stroke="black" points="109.74,-0.5 109.74,-19.5 157.74,-19.5 157.74,-0.5 109.74,-0.5"/>
<text text-anchor="middle" x="133.74" y="-7.5" font-family="Helvetica,sans-Serif" font-size="10.00">tolower</text>
</a>
</g>
</g>
<!-- Node1&#45;&gt;Node12 -->
<g id="edge12" class="edge">
<title>Node1&#45;&gt;Node12</title>
<path fill="none" stroke="midnightblue" d="M25.11,-114.4C31.3,-95.33 47.69,-52.52 76.24,-29 83.07,-23.37 91.64,-19.38 100.03,-16.57"/>
<polygon fill="midnightblue" stroke="midnightblue" points="101.05,-19.92 109.68,-13.77 99.1,-13.19 101.05,-19.92"/>
</g>
<!-- Node7 -->
<g id="node7" class="node">
<title>Node7</title>
<g id="a_node7"><a xlink:href="../../d8/d60/spline__cubic_8f.html#a83fa704212982fff74dee5f6c68b241f" target="_top" xlink:title=" ">
<polygon fill="white" stroke="black" points="228.24,-114.5 228.24,-133.5 284.24,-133.5 284.24,-114.5 228.24,-114.5"/>
<text text-anchor="middle" x="256.24" y="-121.5" font-family="Helvetica,sans-Serif" font-size="10.00">spline_nr</text>
</a>
</g>
</g>
<!-- Node6&#45;&gt;Node7 -->
<g id="edge7" class="edge">
<title>Node6&#45;&gt;Node7</title>
<path fill="none" stroke="midnightblue" d="M165.15,-95.59C181.35,-100.7 201.4,-107.02 218.47,-112.41"/>
<polygon fill="midnightblue" stroke="midnightblue" points="217.54,-115.78 228.13,-115.45 219.65,-109.11 217.54,-115.78"/>
</g>
<!-- Node8 -->
<g id="node8" class="node">
<title>Node8</title>
<g id="a_node8"><a xlink:href="../../d8/d60/spline__cubic_8f.html#a1d13bcd91bd68259f6dbd2deb9919e6d" target="_top" xlink:title=" ">
<polygon fill="white" stroke="black" points="229.74,-76.5 229.74,-95.5 282.74,-95.5 282.74,-76.5 229.74,-76.5"/>
<text text-anchor="middle" x="256.24" y="-83.5" font-family="Helvetica,sans-Serif" font-size="10.00">splint_nr</text>
</a>
</g>
</g>
<!-- Node6&#45;&gt;Node8 -->
<g id="edge8" class="edge">
<title>Node6&#45;&gt;Node8</title>
<path fill="none" stroke="midnightblue" d="M169.27,-86C184.86,-86 203.29,-86 219.08,-86"/>
<polygon fill="midnightblue" stroke="midnightblue" points="219.51,-89.5 229.51,-86 219.51,-82.5 219.51,-89.5"/>
</g>
<!-- Node10 -->
<g id="node10" class="node">
<title>Node10</title>
<g id="a_node10"><a xlink:href="../../de/d64/spline__cubic__int_8f.html#a63307cd586733f21daca60330abd56a9" target="_top" xlink:title=" ">
<polygon fill="white" stroke="black" points="227.24,-38.5 227.24,-57.5 285.24,-57.5 285.24,-38.5 227.24,-38.5"/>
<text text-anchor="middle" x="256.24" y="-45.5" font-family="Helvetica,sans-Serif" font-size="10.00">spline_int</text>
</a>
</g>
</g>
<!-- Node9&#45;&gt;Node10 -->
<g id="edge10" class="edge">
<title>Node9&#45;&gt;Node10</title>
<path fill="none" stroke="midnightblue" d="M176.88,-48C189.82,-48 203.99,-48 216.67,-48"/>
<polygon fill="midnightblue" stroke="midnightblue" points="216.92,-51.5 226.92,-48 216.92,-44.5 216.92,-51.5"/>
</g>
<!-- Node11 -->
<g id="node11" class="node">
<title>Node11</title>
<g id="a_node11"><a xlink:href="../../de/d64/spline__cubic__int_8f.html#aa733cd2e81ca5dcc5d570cad7f085908" target="_top" xlink:title=" ">
<polygon fill="white" stroke="black" points="228.24,-0.5 228.24,-19.5 284.24,-19.5 284.24,-0.5 228.24,-0.5"/>
<text text-anchor="middle" x="256.24" y="-7.5" font-family="Helvetica,sans-Serif" font-size="10.00">splint_int</text>
</a>
</g>
</g>
<!-- Node9&#45;&gt;Node11 -->
<g id="edge11" class="edge">
<title>Node9&#45;&gt;Node11</title>
<path fill="none" stroke="midnightblue" d="M165.15,-38.41C181.35,-33.3 201.4,-26.98 218.47,-21.59"/>
<polygon fill="midnightblue" stroke="midnightblue" points="219.65,-24.89 228.13,-18.55 217.54,-18.22 219.65,-24.89"/>
</g>
</g>
</svg>
