<?xml version="1.0" encoding="UTF-8" standalone="no"?>
<!DOCTYPE svg PUBLIC "-//W3C//DTD SVG 1.1//EN"
 "http://www.w3.org/Graphics/SVG/1.1/DTD/svg11.dtd">
<!-- Generated by graphviz version 2.47.1 (20210421.1823)
 -->
<!-- Title: piota Pages: 1 -->
<svg width="232pt" height="28pt"
 viewBox="0.00 0.00 232.00 28.00" xmlns="http://www.w3.org/2000/svg" xmlns:xlink="http://www.w3.org/1999/xlink">
<g id="graph0" class="graph" transform="scale(1 1) rotate(0) translate(4 24)">
<title>piota</title>
<polygon fill="white" stroke="transparent" points="-4,4 -4,-24 228,-24 228,4 -4,4"/>
<!-- Node1 -->
<g id="node1" class="node">
<title>Node1</title>
<g id="a_node1"><a xlink:title=" ">
<polygon fill="#bfbfbf" stroke="black" points="186,-0.5 186,-19.5 224,-19.5 224,-0.5 186,-0.5"/>
<text text-anchor="middle" x="205" y="-7.5" font-family="Helvetica,sans-Serif" font-size="10.00">piota</text>
</a>
</g>
</g>
<!-- Node2 -->
<g id="node2" class="node">
<title>Node2</title>
<g id="a_node2"><a xlink:href="../../d5/d26/magnetic__fluxes_8f90.html#ad5e5642d688664c85a181c2d1fd6497f" target="_top" xlink:title="Compute the radial derivative of the enclosed poloidal magnetic flux.">
<polygon fill="white" stroke="black" points="80,-0.5 80,-19.5 150,-19.5 150,-0.5 80,-0.5"/>
<text text-anchor="middle" x="115" y="-7.5" font-family="Helvetica,sans-Serif" font-size="10.00">polflux_deriv</text>
</a>
</g>
</g>
<!-- Node1&#45;&gt;Node2 -->
<g id="edge1" class="edge">
<title>Node1&#45;&gt;Node2</title>
<path fill="none" stroke="midnightblue" d="M175.68,-10C167.57,-10 158.64,-10 150.22,-10"/>
<polygon fill="midnightblue" stroke="midnightblue" points="175.77,-13.5 185.77,-10 175.77,-6.5 175.77,-13.5"/>
</g>
<!-- Node3 -->
<g id="node3" class="node">
<title>Node3</title>
<g id="a_node3"><a xlink:href="../../d5/d26/magnetic__fluxes_8f90.html#a9d78c3bac80a4d14cc82a93bc79e7dcd" target="_top" xlink:title="Compute the enclosed poloidal magnetic flux.">
<polygon fill="white" stroke="black" points="0,-0.5 0,-19.5 44,-19.5 44,-0.5 0,-0.5"/>
<text text-anchor="middle" x="22" y="-7.5" font-family="Helvetica,sans-Serif" font-size="10.00">polflux</text>
</a>
</g>
</g>
<!-- Node2&#45;&gt;Node3 -->
<g id="edge2" class="edge">
<title>Node2&#45;&gt;Node3</title>
<path fill="none" stroke="midnightblue" d="M69.83,-10C60.86,-10 51.82,-10 44.11,-10"/>
<polygon fill="midnightblue" stroke="midnightblue" points="69.86,-13.5 79.86,-10 69.86,-6.5 69.86,-13.5"/>
</g>
</g>
</svg>
