<?xml version="1.0" encoding="UTF-8" standalone="no"?>
<!DOCTYPE svg PUBLIC "-//W3C//DTD SVG 1.1//EN"
 "http://www.w3.org/Graphics/SVG/1.1/DTD/svg11.dtd">
<!-- Generated by graphviz version 7.1.0 (20230121.1956)
 -->
<!-- Title: pmass Pages: 1 -->
<svg width="297pt" height="138pt"
 viewBox="0.00 0.00 297.00 138.00" xmlns="http://www.w3.org/2000/svg" xmlns:xlink="http://www.w3.org/1999/xlink">
<g id="graph0" class="graph" transform="scale(1 1) rotate(0) translate(4 134)">
<title>pmass</title>
<!-- Node1 -->
<g id="node1" class="node">
<title>Node1</title>
<g id="a_node1"><a xlink:title=" ">
<polygon fill="#999999" stroke="#666666" points="46,-74 0,-74 0,-55 46,-55 46,-74"/>
<text text-anchor="middle" x="23" y="-62" font-family="Helvetica,sans-Serif" font-size="10.00">pmass</text>
</a>
</g>
</g>
<!-- Node1&#45;&gt;Node1 -->
<g id="edge2" class="edge">
<title>Node1&#45;&gt;Node1</title>
<path fill="none" stroke="#63b8ff" d="M4.76,-74.37C-3.56,-82.94 2.52,-92 23,-92 34.2,-92 41.09,-89.29 43.68,-85.43"/>
<polygon fill="#63b8ff" stroke="#63b8ff" points="47.14,-84.86 41.56,-75.85 40.3,-86.37 47.14,-84.86"/>
</g>
<!-- Node2 -->
<g id="node2" class="node">
<title>Node2</title>
<g id="a_node2"><a xlink:href="../../d2/dcb/namespaceline__segment.html#aa63bfde0ff39e19622f7f5fe150e8b59" target="_top" xlink:title=" ">
<polygon fill="white" stroke="#666666" points="197,-130 82,-130 82,-111 197,-111 197,-130"/>
<text text-anchor="middle" x="139.5" y="-118" font-family="Helvetica,sans-Serif" font-size="10.00">line_segment::line_seg</text>
</a>
</g>
</g>
<!-- Node1&#45;&gt;Node2 -->
<g id="edge1" class="edge">
<title>Node1&#45;&gt;Node2</title>
<path fill="none" stroke="#63b8ff" d="M36.76,-74.33C48.13,-82.71 65.48,-94.64 82,-102.5 85.06,-103.96 88.27,-105.34 91.54,-106.64"/>
<polygon fill="#63b8ff" stroke="#63b8ff" points="90.05,-109.82 100.65,-109.98 92.47,-103.25 90.05,-109.82"/>
</g>
<!-- Node3 -->
<g id="node3" class="node">
<title>Node3</title>
<g id="a_node3"><a xlink:href="../../de/de4/explore__spline__akima_8f90.html#a7517a5f00e408c447a9dd0e438f60e52" target="_top" xlink:title=" ">
<polygon fill="white" stroke="#666666" points="176.5,-93 102.5,-93 102.5,-74 176.5,-74 176.5,-93"/>
<text text-anchor="middle" x="139.5" y="-81" font-family="Helvetica,sans-Serif" font-size="10.00">spline_akima</text>
</a>
</g>
</g>
<!-- Node1&#45;&gt;Node3 -->
<g id="edge3" class="edge">
<title>Node1&#45;&gt;Node3</title>
<path fill="none" stroke="#63b8ff" d="M46.35,-68.21C59.13,-70.33 75.66,-73.07 91.18,-75.65"/>
<polygon fill="#63b8ff" stroke="#63b8ff" points="90.31,-79.05 100.75,-77.24 91.45,-72.15 90.31,-79.05"/>
</g>
<!-- Node4 -->
<g id="node4" class="node">
<title>Node4</title>
<g id="a_node4"><a xlink:href="../../d8/d60/spline__cubic_8f.html#a60e9606a5fa1dcb7f79f9259b8e0d067" target="_top" xlink:title=" ">
<polygon fill="white" stroke="#666666" points="175,-56 104,-56 104,-37 175,-37 175,-56"/>
<text text-anchor="middle" x="139.5" y="-44" font-family="Helvetica,sans-Serif" font-size="10.00">spline_cubic</text>
</a>
</g>
</g>
<!-- Node1&#45;&gt;Node4 -->
<g id="edge4" class="edge">
<title>Node1&#45;&gt;Node4</title>
<path fill="none" stroke="#63b8ff" d="M46.35,-60.99C59.44,-58.93 76.47,-56.25 92.32,-53.76"/>
<polygon fill="#63b8ff" stroke="#63b8ff" points="92.76,-57.23 102.09,-52.22 91.67,-50.32 92.76,-57.23"/>
</g>
<!-- Node6 -->
<g id="node6" class="node">
<title>Node6</title>
<g id="a_node6"><a xlink:href="../../d1/d4a/tolower_8f90.html#af0b4b410165cce4c9f0e5e6d82d21571" target="_top" xlink:title="Convert a string to lower case.">
<polygon fill="white" stroke="#666666" points="163.5,-19 115.5,-19 115.5,0 163.5,0 163.5,-19"/>
<text text-anchor="middle" x="139.5" y="-7" font-family="Helvetica,sans-Serif" font-size="10.00">tolower</text>
</a>
</g>
</g>
<!-- Node1&#45;&gt;Node6 -->
<g id="edge6" class="edge">
<title>Node1&#45;&gt;Node6</title>
<path fill="none" stroke="#63b8ff" d="M37.78,-54.67C49.22,-46.84 66.13,-35.97 82,-28.5 89.11,-25.15 96.97,-22.12 104.51,-19.51"/>
<polygon fill="#63b8ff" stroke="#63b8ff" points="105.36,-22.92 113.77,-16.47 103.18,-16.26 105.36,-22.92"/>
</g>
<!-- Node5 -->
<g id="node5" class="node">
<title>Node5</title>
<g id="a_node5"><a xlink:href="../../d8/d60/spline__cubic_8f.html#a83fa704212982fff74dee5f6c68b241f" target="_top" xlink:title=" ">
<polygon fill="white" stroke="#666666" points="289,-56 233,-56 233,-37 289,-37 289,-56"/>
<text text-anchor="middle" x="261" y="-44" font-family="Helvetica,sans-Serif" font-size="10.00">spline_nr</text>
</a>
</g>
</g>
<!-- Node4&#45;&gt;Node5 -->
<g id="edge5" class="edge">
<title>Node4&#45;&gt;Node5</title>
<path fill="none" stroke="#63b8ff" d="M175.39,-46.5C189.85,-46.5 206.67,-46.5 221.49,-46.5"/>
<polygon fill="#63b8ff" stroke="#63b8ff" points="221.35,-50 231.35,-46.5 221.35,-43 221.35,-50"/>
</g>
</g>
</svg>
