<?xml version="1.0" encoding="UTF-8" standalone="no"?>
<!DOCTYPE svg PUBLIC "-//W3C//DTD SVG 1.1//EN"
 "http://www.w3.org/Graphics/SVG/1.1/DTD/svg11.dtd">
<!-- Generated by graphviz version 8.1.0 (20230707.0739)
 -->
<!-- Title: piota Pages: 1 -->
<svg width="289pt" height="138pt"
 viewBox="0.00 0.00 288.89 138.25" xmlns="http://www.w3.org/2000/svg" xmlns:xlink="http://www.w3.org/1999/xlink">

<svg id="main" version="1.1" xmlns="http://www.w3.org/2000/svg" xmlns:xlink="http://www.w3.org/1999/xlink" xml:space="preserve" onload="init(evt)">
<style type="text/css"><![CDATA[
.node, .edge {opacity: 0.7;}
.node.selected, .edge.selected {opacity: 1;}
.edge:hover path { stroke: red; }
.edge:hover polygon { stroke: red; fill: red; }
]]></style>
<script type="application/ecmascript" xlink:href="../../svg.min.js"/>
<svg id="graph" class="graph">
<g id="graph0" class="graph" transform="scale(1 1) rotate(0) translate(4 134.25)">
<title>piota</title>
<!-- Node1 -->
<g id="Node000001" class="node">
<title>Node1</title>
<g id="a_Node000001"><a xlink:title=" ">
<polygon fill="#999999" stroke="#666666" points="39.64,-74.25 2.64,-74.25 2.64,-55 39.64,-55 39.64,-74.25"/>
<text text-anchor="middle" x="21.14" y="-60.75" font-family="Helvetica,sans-Serif" font-size="10.00">piota</text>
</a>
</g>
</g>
<!-- Node1&#45;&gt;Node1 -->
<g id="edge2_Node000001_Node000001" class="edge">
<title>Node1&#45;&gt;Node1</title>
<g id="a_edge2_Node000001_Node000001"><a xlink:title=" ">
<path fill="none" stroke="#63b8ff" d="M3.66,-74.54C-4.31,-83.15 1.51,-92.25 21.14,-92.25 32.48,-92.25 39.21,-89.21 41.33,-84.98"/>
<polygon fill="#63b8ff" stroke="#63b8ff" points="44.52,-84.33 38.61,-75.54 37.75,-86.1 44.52,-84.33"/>
</a>
</g>
</g>
<!-- Node2 -->
<g id="Node000002" class="node">
<title>Node2</title>
<g id="a_Node000002"><a xlink:href="../../d2/dcb/namespaceline__segment.html#aa63bfde0ff39e19622f7f5fe150e8b59" target="_top" xlink:title=" ">
<polygon fill="white" stroke="#666666" points="189.89,-130.25 75.64,-130.25 75.64,-111 189.89,-111 189.89,-130.25"/>
<text text-anchor="middle" x="132.76" y="-116.75" font-family="Helvetica,sans-Serif" font-size="10.00">line_segment::line_seg</text>
</a>
</g>
</g>
<!-- Node1&#45;&gt;Node2 -->
<g id="edge1_Node000001_Node000002" class="edge">
<title>Node1&#45;&gt;Node2</title>
<g id="a_edge1_Node000001_Node000002"><a xlink:title=" ">
<path fill="none" stroke="#63b8ff" d="M33.78,-74.51C44.19,-82.93 60.15,-94.88 75.64,-102.62 78.56,-104.09 81.63,-105.47 84.76,-106.76"/>
<polygon fill="#63b8ff" stroke="#63b8ff" points="83.29,-110.32 93.88,-110.59 85.77,-103.78 83.29,-110.32"/>
</a>
</g>
</g>
<!-- Node3 -->
<g id="Node000003" class="node">
<title>Node3</title>
<g id="a_Node000003"><a xlink:href="../../de/de4/explore__spline__akima_8f90.html#a7517a5f00e408c447a9dd0e438f60e52" target="_top" xlink:title=" ">
<polygon fill="white" stroke="#666666" points="169.26,-93.25 96.26,-93.25 96.26,-74 169.26,-74 169.26,-93.25"/>
<text text-anchor="middle" x="132.76" y="-79.75" font-family="Helvetica,sans-Serif" font-size="10.00">spline_akima</text>
</a>
</g>
</g>
<!-- Node1&#45;&gt;Node3 -->
<g id="edge3_Node000001_Node000003" class="edge">
<title>Node1&#45;&gt;Node3</title>
<g id="a_edge3_Node000001_Node000003"><a xlink:title=" ">
<path fill="none" stroke="#63b8ff" d="M39.75,-67.68C52.16,-69.83 69.39,-72.82 85.59,-75.62"/>
<polygon fill="#63b8ff" stroke="#63b8ff" points="84.57,-79.17 95.02,-77.43 85.77,-72.27 84.57,-79.17"/>
</a>
</g>
</g>
<!-- Node4 -->
<g id="Node000004" class="node">
<title>Node4</title>
<g id="a_Node000004"><a xlink:href="../../d8/d60/spline__cubic_8f.html#a60e9606a5fa1dcb7f79f9259b8e0d067" target="_top" xlink:title=" ">
<polygon fill="white" stroke="#666666" points="167.76,-56.25 97.76,-56.25 97.76,-37 167.76,-37 167.76,-56.25"/>
<text text-anchor="middle" x="132.76" y="-42.75" font-family="Helvetica,sans-Serif" font-size="10.00">spline_cubic</text>
</a>
</g>
</g>
<!-- Node1&#45;&gt;Node4 -->
<g id="edge4_Node000001_Node000004" class="edge">
<title>Node1&#45;&gt;Node4</title>
<g id="a_edge4_Node000001_Node000004"><a xlink:title=" ">
<path fill="none" stroke="#63b8ff" d="M39.75,-61.73C52.46,-59.65 70.22,-56.73 86.75,-54.01"/>
<polygon fill="#63b8ff" stroke="#63b8ff" points="87.07,-57.35 96.38,-52.27 85.94,-50.44 87.07,-57.35"/>
</a>
</g>
</g>
<!-- Node6 -->
<g id="Node000006" class="node">
<title>Node6</title>
<g id="a_Node000006"><a xlink:href="../../d1/d4a/tolower_8f90.html#af0b4b410165cce4c9f0e5e6d82d21571" target="_top" xlink:title="Convert a string to lower case.">
<polygon fill="white" stroke="#666666" points="156.51,-19.25 109.01,-19.25 109.01,0 156.51,0 156.51,-19.25"/>
<text text-anchor="middle" x="132.76" y="-5.75" font-family="Helvetica,sans-Serif" font-size="10.00">tolower</text>
</a>
</g>
</g>
<!-- Node1&#45;&gt;Node6 -->
<g id="edge6_Node000001_Node000006" class="edge">
<title>Node1&#45;&gt;Node6</title>
<g id="a_edge6_Node000001_Node000006"><a xlink:title=" ">
<path fill="none" stroke="#63b8ff" d="M34.24,-54.7C44.68,-46.53 60.44,-35.11 75.64,-27.62 82.75,-24.12 90.7,-21.09 98.32,-18.57"/>
<polygon fill="#63b8ff" stroke="#63b8ff" points="99.25,-21.63 107.77,-15.34 97.18,-14.95 99.25,-21.63"/>
</a>
</g>
</g>
<!-- Node5 -->
<g id="Node000005" class="node">
<title>Node5</title>
<g id="a_Node000005"><a xlink:href="../../d8/d60/spline__cubic_8f.html#a83fa704212982fff74dee5f6c68b241f" target="_top" xlink:title=" ">
<polygon fill="white" stroke="#666666" points="280.89,-56.25 225.89,-56.25 225.89,-37 280.89,-37 280.89,-56.25"/>
<text text-anchor="middle" x="253.39" y="-42.75" font-family="Helvetica,sans-Serif" font-size="10.00">spline_nr</text>
</a>
</g>
</g>
<!-- Node4&#45;&gt;Node5 -->
<g id="edge5_Node000004_Node000005" class="edge">
<title>Node4&#45;&gt;Node5</title>
<g id="a_edge5_Node000004_Node000005"><a xlink:title=" ">
<path fill="none" stroke="#63b8ff" d="M168.07,-46.62C182.69,-46.62 199.78,-46.62 214.74,-46.62"/>
<polygon fill="#63b8ff" stroke="#63b8ff" points="214.69,-50.13 224.69,-46.62 214.69,-43.13 214.69,-50.13"/>
</a>
</g>
</g>
</g>
</svg>
</svg>

<style type='text/css'>
<![CDATA[
[data-mouse-over-selected='false'] { opacity: 0.7; }
[data-mouse-over-selected='true']  { opacity: 1.0; }
]]>
</style>
<script type="application/ecmascript"><![CDATA[
document.addEventListener('DOMContentLoaded', (event) => {
  highlightEdges();
  highlightAdjacentNodes();
});
]]></script>
</svg>
