<?xml version="1.0" encoding="UTF-8" standalone="no"?>
<!DOCTYPE svg PUBLIC "-//W3C//DTD SVG 1.1//EN"
 "http://www.w3.org/Graphics/SVG/1.1/DTD/svg11.dtd">
<!-- Generated by graphviz version 8.0.5 (20230430.1635)
 -->
<!-- Title: piota Pages: 1 -->
<svg width="229pt" height="45pt"
 viewBox="0.00 0.00 229.25 45.25" xmlns="http://www.w3.org/2000/svg" xmlns:xlink="http://www.w3.org/1999/xlink">
<g id="graph0" class="graph" transform="scale(1 1) rotate(0) translate(4 41.25)">
<title>piota</title>
<!-- Node1 -->
<g id="Node000001" class="node">
<title>Node1</title>
<g id="a_Node000001"><a xlink:title=" ">
<polygon fill="#999999" stroke="#666666" points="221.25,-19.25 184.25,-19.25 184.25,0 221.25,0 221.25,-19.25"/>
<text text-anchor="middle" x="202.75" y="-5.75" font-family="Helvetica,sans-Serif" font-size="10.00">piota</text>
</a>
</g>
</g>
<!-- Node1&#45;&gt;Node1 -->
<g id="edge1_Node000001_Node000001" class="edge">
<title>Node1&#45;&gt;Node1</title>
<g id="a_edge1_Node000001_Node000001"><a xlink:title=" ">
<path fill="none" stroke="#63b8ff" d="M218.73,-30.32C216.89,-34.37 211.56,-37.25 202.75,-37.25 187.08,-37.25 182.43,-28.15 188.8,-19.54"/>
<polygon fill="#63b8ff" stroke="#63b8ff" points="221.99,-29.72 216.7,-20.54 215.11,-31.01 221.99,-29.72"/>
</a>
</g>
</g>
<!-- Node2 -->
<g id="Node000002" class="node">
<title>Node2</title>
<g id="a_Node000002"><a xlink:href="../../d5/d26/magnetic__fluxes_8f90.html#ad5e5642d688664c85a181c2d1fd6497f" target="_top" xlink:title="Compute the radial derivative of the enclosed poloidal magnetic flux.">
<polygon fill="white" stroke="#666666" points="148.25,-19.25 79,-19.25 79,0 148.25,0 148.25,-19.25"/>
<text text-anchor="middle" x="113.62" y="-5.75" font-family="Helvetica,sans-Serif" font-size="10.00">polflux_deriv</text>
</a>
</g>
</g>
<!-- Node1&#45;&gt;Node2 -->
<g id="edge2_Node000001_Node000002" class="edge">
<title>Node1&#45;&gt;Node2</title>
<g id="a_edge2_Node000001_Node000002"><a xlink:title=" ">
<path fill="none" stroke="#63b8ff" d="M173.21,-9.62C165.3,-9.62 156.63,-9.62 148.45,-9.62"/>
<polygon fill="#63b8ff" stroke="#63b8ff" points="173.12,-13.13 183.12,-9.62 173.12,-6.13 173.12,-13.13"/>
</a>
</g>
</g>
<!-- Node2&#45;&gt;Node2 -->
<g id="edge5_Node000002_Node000002" class="edge">
<title>Node2&#45;&gt;Node2</title>
<g id="a_edge5_Node000002_Node000002"><a xlink:title=" ">
<path fill="none" stroke="#63b8ff" d="M129.61,-30.32C127.76,-34.37 122.44,-37.25 113.62,-37.25 97.96,-37.25 93.31,-28.15 99.67,-19.54"/>
<polygon fill="#63b8ff" stroke="#63b8ff" points="132.87,-29.72 127.58,-20.54 125.99,-31.01 132.87,-29.72"/>
</a>
</g>
</g>
<!-- Node3 -->
<g id="Node000003" class="node">
<title>Node3</title>
<g id="a_Node000003"><a xlink:href="../../d5/d26/magnetic__fluxes_8f90.html#a9d78c3bac80a4d14cc82a93bc79e7dcd" target="_top" xlink:title="Compute the enclosed poloidal magnetic flux.">
<polygon fill="white" stroke="#666666" points="43,-19.25 0,-19.25 0,0 43,0 43,-19.25"/>
<text text-anchor="middle" x="21.5" y="-5.75" font-family="Helvetica,sans-Serif" font-size="10.00">polflux</text>
</a>
</g>
</g>
<!-- Node2&#45;&gt;Node3 -->
<g id="edge3_Node000002_Node000003" class="edge">
<title>Node2&#45;&gt;Node3</title>
<g id="a_edge3_Node000002_Node000003"><a xlink:title=" ">
<path fill="none" stroke="#63b8ff" d="M67.79,-9.62C59.22,-9.62 50.64,-9.62 43.28,-9.62"/>
<polygon fill="#63b8ff" stroke="#63b8ff" points="67.55,-13.13 77.55,-9.62 67.55,-6.13 67.55,-13.13"/>
</a>
</g>
</g>
<!-- Node3&#45;&gt;Node3 -->
<g id="edge4_Node000003_Node000003" class="edge">
<title>Node3&#45;&gt;Node3</title>
<g id="a_edge4_Node000003_Node000003"><a xlink:title=" ">
<path fill="none" stroke="#63b8ff" d="M38.02,-30.32C36.12,-34.37 30.61,-37.25 21.5,-37.25 5.31,-37.25 0.5,-28.15 7.08,-19.54"/>
<polygon fill="#63b8ff" stroke="#63b8ff" points="41.27,-29.69 35.92,-20.54 34.4,-31.02 41.27,-29.69"/>
</a>
</g>
</g>
</g>
</svg>
