<?xml version="1.0" encoding="UTF-8" standalone="no"?>
<!DOCTYPE svg PUBLIC "-//W3C//DTD SVG 1.1//EN"
 "http://www.w3.org/Graphics/SVG/1.1/DTD/svg11.dtd">
<!-- Generated by graphviz version 2.49.2 (20211018.0330)
 -->
<!-- Title: pmass Pages: 1 -->
<svg width="297pt" height="142pt"
 viewBox="0.00 0.00 297.00 142.00" xmlns="http://www.w3.org/2000/svg" xmlns:xlink="http://www.w3.org/1999/xlink">
<g id="graph0" class="graph" transform="scale(1 1) rotate(0) translate(4 138)">
<title>pmass</title>
<polygon fill="white" stroke="transparent" points="-4,4 -4,-138 293,-138 293,4 -4,4"/>
<!-- Node1 -->
<g id="node1" class="node">
<title>Node1</title>
<g id="a_node1"><a xlink:title=" ">
<polygon fill="#bfbfbf" stroke="black" points="0,-57.5 0,-76.5 46,-76.5 46,-57.5 0,-57.5"/>
<text text-anchor="middle" x="23" y="-64.5" font-family="Helvetica,sans-Serif" font-size="10.00">pmass</text>
</a>
</g>
</g>
<!-- Node1&#45;&gt;Node1 -->
<g id="edge2" class="edge">
<title>Node1&#45;&gt;Node1</title>
<path fill="none" stroke="midnightblue" d="M5.12,-76.76C-3.58,-85.57 2.38,-95 23,-95 35.89,-95 43.05,-91.31 44.48,-86.4"/>
<polygon fill="midnightblue" stroke="midnightblue" points="47.66,-84.9 40.88,-76.76 41.1,-87.35 47.66,-84.9"/>
</g>
<!-- Node2 -->
<g id="node2" class="node">
<title>Node2</title>
<g id="a_node2"><a xlink:href="../../d2/dcb/namespaceline__segment.html#aa63bfde0ff39e19622f7f5fe150e8b59" target="_top" xlink:title=" ">
<polygon fill="white" stroke="black" points="82,-114.5 82,-133.5 197,-133.5 197,-114.5 82,-114.5"/>
<text text-anchor="middle" x="139.5" y="-121.5" font-family="Helvetica,sans-Serif" font-size="10.00">line_segment::line_seg</text>
</a>
</g>
</g>
<!-- Node1&#45;&gt;Node2 -->
<g id="edge1" class="edge">
<title>Node1&#45;&gt;Node2</title>
<path fill="none" stroke="midnightblue" d="M36.79,-76.76C48.18,-85.11 65.54,-97 82,-105 86.37,-107.12 91.03,-109.1 95.73,-110.92"/>
<polygon fill="midnightblue" stroke="midnightblue" points="94.77,-114.3 105.37,-114.43 97.17,-107.72 94.77,-114.3"/>
</g>
<!-- Node3 -->
<g id="node3" class="node">
<title>Node3</title>
<g id="a_node3"><a xlink:href="../../d6/dec/spline__akima_8f.html#a7517a5f00e408c447a9dd0e438f60e52" target="_top" xlink:title=" ">
<polygon fill="white" stroke="black" points="102.5,-76.5 102.5,-95.5 176.5,-95.5 176.5,-76.5 102.5,-76.5"/>
<text text-anchor="middle" x="139.5" y="-83.5" font-family="Helvetica,sans-Serif" font-size="10.00">spline_akima</text>
</a>
</g>
</g>
<!-- Node1&#45;&gt;Node3 -->
<g id="edge3" class="edge">
<title>Node1&#45;&gt;Node3</title>
<path fill="none" stroke="midnightblue" d="M46.08,-70.66C59.08,-72.82 76.05,-75.64 91.88,-78.26"/>
<polygon fill="midnightblue" stroke="midnightblue" points="91.64,-81.77 102.07,-79.96 92.78,-74.87 91.64,-81.77"/>
</g>
<!-- Node4 -->
<g id="node4" class="node">
<title>Node4</title>
<g id="a_node4"><a xlink:href="../../d8/d60/spline__cubic_8f.html#a60e9606a5fa1dcb7f79f9259b8e0d067" target="_top" xlink:title=" ">
<polygon fill="white" stroke="black" points="104,-38.5 104,-57.5 175,-57.5 175,-38.5 104,-38.5"/>
<text text-anchor="middle" x="139.5" y="-45.5" font-family="Helvetica,sans-Serif" font-size="10.00">spline_cubic</text>
</a>
</g>
</g>
<!-- Node1&#45;&gt;Node4 -->
<g id="edge4" class="edge">
<title>Node1&#45;&gt;Node4</title>
<path fill="none" stroke="midnightblue" d="M46.08,-63.34C59.64,-61.09 77.5,-58.12 93.9,-55.4"/>
<polygon fill="midnightblue" stroke="midnightblue" points="94.58,-58.84 103.87,-53.75 93.44,-51.93 94.58,-58.84"/>
</g>
<!-- Node7 -->
<g id="node7" class="node">
<title>Node7</title>
<g id="a_node7"><a xlink:href="../../d1/d4a/tolower_8f90.html#af0b4b410165cce4c9f0e5e6d82d21571" target="_top" xlink:title="Convert a string to lower case.">
<polygon fill="white" stroke="black" points="115.5,-0.5 115.5,-19.5 163.5,-19.5 163.5,-0.5 115.5,-0.5"/>
<text text-anchor="middle" x="139.5" y="-7.5" font-family="Helvetica,sans-Serif" font-size="10.00">tolower</text>
</a>
</g>
</g>
<!-- Node1&#45;&gt;Node7 -->
<g id="edge7" class="edge">
<title>Node1&#45;&gt;Node7</title>
<path fill="none" stroke="midnightblue" d="M36.79,-57.24C48.18,-48.89 65.54,-37 82,-29 89.46,-25.38 97.79,-22.16 105.71,-19.45"/>
<polygon fill="midnightblue" stroke="midnightblue" points="107,-22.71 115.43,-16.29 104.84,-16.05 107,-22.71"/>
</g>
<!-- Node5 -->
<g id="node5" class="node">
<title>Node5</title>
<g id="a_node5"><a xlink:href="../../d8/d60/spline__cubic_8f.html#a83fa704212982fff74dee5f6c68b241f" target="_top" xlink:title=" ">
<polygon fill="white" stroke="black" points="233,-57.5 233,-76.5 289,-76.5 289,-57.5 233,-57.5"/>
<text text-anchor="middle" x="261" y="-64.5" font-family="Helvetica,sans-Serif" font-size="10.00">spline_nr</text>
</a>
</g>
</g>
<!-- Node4&#45;&gt;Node5 -->
<g id="edge5" class="edge">
<title>Node4&#45;&gt;Node5</title>
<path fill="none" stroke="midnightblue" d="M175.06,-53.5C189.96,-55.86 207.42,-58.64 222.62,-61.06"/>
<polygon fill="midnightblue" stroke="midnightblue" points="222.29,-64.55 232.72,-62.66 223.39,-57.64 222.29,-64.55"/>
</g>
<!-- Node6 -->
<g id="node6" class="node">
<title>Node6</title>
<g id="a_node6"><a xlink:href="../../d8/d60/spline__cubic_8f.html#a1d13bcd91bd68259f6dbd2deb9919e6d" target="_top" xlink:title=" ">
<polygon fill="white" stroke="black" points="234.5,-19.5 234.5,-38.5 287.5,-38.5 287.5,-19.5 234.5,-19.5"/>
<text text-anchor="middle" x="261" y="-26.5" font-family="Helvetica,sans-Serif" font-size="10.00">splint_nr</text>
</a>
</g>
</g>
<!-- Node4&#45;&gt;Node6 -->
<g id="edge6" class="edge">
<title>Node4&#45;&gt;Node6</title>
<path fill="none" stroke="midnightblue" d="M175.06,-42.5C190.41,-40.06 208.47,-37.19 223.98,-34.73"/>
<polygon fill="midnightblue" stroke="midnightblue" points="224.92,-38.12 234.25,-33.09 223.82,-31.21 224.92,-38.12"/>
</g>
</g>
</svg>
