<?xml version="1.0" encoding="UTF-8" standalone="no"?>
<!DOCTYPE svg PUBLIC "-//W3C//DTD SVG 1.1//EN"
 "http://www.w3.org/Graphics/SVG/1.1/DTD/svg11.dtd">
<!-- Generated by graphviz version 8.0.5 (20230430.1635)
 -->
<!-- Title: pcurr Pages: 1 -->
<svg width="292pt" height="261pt"
 viewBox="0.00 0.00 291.58 261.25" xmlns="http://www.w3.org/2000/svg" xmlns:xlink="http://www.w3.org/1999/xlink">

<svg id="main" version="1.1" xmlns="http://www.w3.org/2000/svg" xmlns:xlink="http://www.w3.org/1999/xlink" xml:space="preserve" onload="init(evt)">
<style type="text/css"><![CDATA[
.node, .edge {opacity: 0.7;}
.node.selected, .edge.selected {opacity: 1;}
.edge:hover path { stroke: red; }
.edge:hover polygon { stroke: red; fill: red; }
]]></style>
<script type="application/ecmascript" xlink:href="../../svg.min.js"/>
<svg id="graph" class="graph">
<g id="graph0" class="graph" transform="scale(1 1) rotate(0) translate(4 257.25)">
<title>pcurr</title>
<!-- Node1 -->
<g id="Node000001" class="node">
<title>Node1</title>
<g id="a_Node000001"><a xlink:title=" ">
<polygon fill="#999999" stroke="#666666" points="40.08,-130.25 2.33,-130.25 2.33,-111 40.08,-111 40.08,-130.25"/>
<text text-anchor="middle" x="21.21" y="-116.75" font-family="Helvetica,sans-Serif" font-size="10.00">pcurr</text>
</a>
</g>
</g>
<!-- Node1&#45;&gt;Node1 -->
<g id="edge3_Node000001_Node000001" class="edge">
<title>Node1&#45;&gt;Node1</title>
<g id="a_edge3_Node000001_Node000001"><a xlink:title=" ">
<path fill="none" stroke="#63b8ff" d="M3.67,-130.54C-4.33,-139.15 1.52,-148.25 21.21,-148.25 32.59,-148.25 39.34,-145.21 41.47,-140.98"/>
<polygon fill="#63b8ff" stroke="#63b8ff" points="44.66,-140.33 38.74,-131.54 37.89,-142.1 44.66,-140.33"/>
</a>
</g>
</g>
<!-- Node2 -->
<g id="Node000002" class="node">
<title>Node2</title>
<g id="a_Node000002"><a xlink:href="../../d2/dcb/namespaceline__segment.html#aa63bfde0ff39e19622f7f5fe150e8b59" target="_top" xlink:title=" ">
<polygon fill="white" stroke="#666666" points="190.33,-253.25 76.08,-253.25 76.08,-234 190.33,-234 190.33,-253.25"/>
<text text-anchor="middle" x="133.21" y="-239.75" font-family="Helvetica,sans-Serif" font-size="10.00">line_segment::line_seg</text>
</a>
</g>
</g>
<!-- Node1&#45;&gt;Node2 -->
<g id="edge1_Node000001_Node000002" class="edge">
<title>Node1&#45;&gt;Node2</title>
<g id="a_edge1_Node000001_Node000002"><a xlink:title=" ">
<path fill="none" stroke="#63b8ff" d="M24.63,-130.49C30.17,-151.01 45.69,-198.52 76.08,-224.62 77.66,-225.98 79.34,-227.24 81.1,-228.42"/>
<polygon fill="#63b8ff" stroke="#63b8ff" points="78.95,-231.78 89.39,-233.57 82.34,-225.66 78.95,-231.78"/>
</a>
</g>
</g>
<!-- Node3 -->
<g id="Node000003" class="node">
<title>Node3</title>
<g id="a_Node000003"><a xlink:href="../../d2/dcb/namespaceline__segment.html#a5686dda904eede25b04410ebada585d3" target="_top" xlink:title=" ">
<polygon fill="white" stroke="#666666" points="179.83,-215.88 86.58,-215.88 86.58,-185.38 179.83,-185.38 179.83,-215.88"/>
<text text-anchor="start" x="94.58" y="-202.38" font-family="Helvetica,sans-Serif" font-size="10.00">line_segment::line</text>
<text text-anchor="middle" x="133.21" y="-191.12" font-family="Helvetica,sans-Serif" font-size="10.00">_seg_int</text>
</a>
</g>
</g>
<!-- Node1&#45;&gt;Node3 -->
<g id="edge2_Node000001_Node000003" class="edge">
<title>Node1&#45;&gt;Node3</title>
<g id="a_edge2_Node000001_Node000003"><a xlink:title=" ">
<path fill="none" stroke="#63b8ff" d="M29.63,-130.5C39.23,-142.69 56.99,-163.44 76.08,-176.62 77.61,-177.68 79.19,-178.7 80.81,-179.7"/>
<polygon fill="#63b8ff" stroke="#63b8ff" points="78.99,-183.24 89.43,-185.01 82.37,-177.11 78.99,-183.24"/>
</a>
</g>
</g>
<!-- Node4 -->
<g id="Node000004" class="node">
<title>Node4</title>
<g id="a_Node000004"><a xlink:href="../../de/de4/explore__spline__akima_8f90.html#a7517a5f00e408c447a9dd0e438f60e52" target="_top" xlink:title=" ">
<polygon fill="white" stroke="#666666" points="169.71,-167.25 96.71,-167.25 96.71,-148 169.71,-148 169.71,-167.25"/>
<text text-anchor="middle" x="133.21" y="-153.75" font-family="Helvetica,sans-Serif" font-size="10.00">spline_akima</text>
</a>
</g>
</g>
<!-- Node1&#45;&gt;Node4 -->
<g id="edge4_Node000001_Node000004" class="edge">
<title>Node1&#45;&gt;Node4</title>
<g id="a_edge4_Node000001_Node000004"><a xlink:title=" ">
<path fill="none" stroke="#63b8ff" d="M40.12,-127.09C50.58,-130.83 64.05,-135.58 76.08,-139.62 80.57,-141.13 85.26,-142.69 89.95,-144.22"/>
<polygon fill="#63b8ff" stroke="#63b8ff" points="88.51,-147.75 99.1,-147.5 90.66,-141.09 88.51,-147.75"/>
</a>
</g>
</g>
<!-- Node5 -->
<g id="Node000005" class="node">
<title>Node5</title>
<g id="a_Node000005"><a xlink:href="../../d1/d95/spline__akima__int_8f.html#a06a168ee52e5ec1d7cab10c19ee37c91" target="_top" xlink:title=" ">
<polygon fill="white" stroke="#666666" points="177.58,-130.25 88.83,-130.25 88.83,-111 177.58,-111 177.58,-130.25"/>
<text text-anchor="middle" x="133.21" y="-116.75" font-family="Helvetica,sans-Serif" font-size="10.00">spline_akima_int</text>
</a>
</g>
</g>
<!-- Node1&#45;&gt;Node5 -->
<g id="edge5_Node000001_Node000005" class="edge">
<title>Node1&#45;&gt;Node5</title>
<g id="a_edge5_Node000001_Node000005"><a xlink:title=" ">
<path fill="none" stroke="#63b8ff" d="M40.37,-120.62C50.67,-120.62 64.17,-120.62 77.63,-120.62"/>
<polygon fill="#63b8ff" stroke="#63b8ff" points="77.36,-124.13 87.36,-120.62 77.36,-117.13 77.36,-124.13"/>
</a>
</g>
</g>
<!-- Node6 -->
<g id="Node000006" class="node">
<title>Node6</title>
<g id="a_Node000006"><a xlink:href="../../d8/d60/spline__cubic_8f.html#a60e9606a5fa1dcb7f79f9259b8e0d067" target="_top" xlink:title=" ">
<polygon fill="white" stroke="#666666" points="168.21,-93.25 98.21,-93.25 98.21,-74 168.21,-74 168.21,-93.25"/>
<text text-anchor="middle" x="133.21" y="-79.75" font-family="Helvetica,sans-Serif" font-size="10.00">spline_cubic</text>
</a>
</g>
</g>
<!-- Node1&#45;&gt;Node6 -->
<g id="edge6_Node000001_Node000006" class="edge">
<title>Node1&#45;&gt;Node6</title>
<g id="a_edge6_Node000001_Node000006"><a xlink:title=" ">
<path fill="none" stroke="#63b8ff" d="M40.12,-114.16C50.58,-110.42 64.05,-105.67 76.08,-101.62 80.57,-100.12 85.26,-98.56 89.95,-97.03"/>
<polygon fill="#63b8ff" stroke="#63b8ff" points="90.66,-100.16 99.1,-93.75 88.51,-93.5 90.66,-100.16"/>
</a>
</g>
</g>
<!-- Node8 -->
<g id="Node000008" class="node">
<title>Node8</title>
<g id="a_Node000008"><a xlink:href="../../de/d64/spline__cubic__int_8f.html#ad67b8e5169554dbccb5cf79f069dc055" target="_top" xlink:title=" ">
<polygon fill="white" stroke="#666666" points="176.08,-56.25 90.33,-56.25 90.33,-37 176.08,-37 176.08,-56.25"/>
<text text-anchor="middle" x="133.21" y="-42.75" font-family="Helvetica,sans-Serif" font-size="10.00">spline_cubic_int</text>
</a>
</g>
</g>
<!-- Node1&#45;&gt;Node8 -->
<g id="edge8_Node000001_Node000008" class="edge">
<title>Node1&#45;&gt;Node8</title>
<g id="a_edge8_Node000001_Node000008"><a xlink:title=" ">
<path fill="none" stroke="#63b8ff" d="M29.12,-110.89C38.43,-98.45 56.16,-77.05 76.08,-64.62 78.13,-63.35 80.27,-62.16 82.48,-61.04"/>
<polygon fill="#63b8ff" stroke="#63b8ff" points="83.72,-63.88 91.46,-56.64 80.9,-57.47 83.72,-63.88"/>
</a>
</g>
</g>
<!-- Node10 -->
<g id="Node000010" class="node">
<title>Node10</title>
<g id="a_Node000010"><a xlink:href="../../d1/d4a/tolower_8f90.html#af0b4b410165cce4c9f0e5e6d82d21571" target="_top" xlink:title="Convert a string to lower case.">
<polygon fill="white" stroke="#666666" points="156.96,-19.25 109.46,-19.25 109.46,0 156.96,0 156.96,-19.25"/>
<text text-anchor="middle" x="133.21" y="-5.75" font-family="Helvetica,sans-Serif" font-size="10.00">tolower</text>
</a>
</g>
</g>
<!-- Node1&#45;&gt;Node10 -->
<g id="edge10_Node000001_Node000010" class="edge">
<title>Node1&#45;&gt;Node10</title>
<g id="a_edge10_Node000001_Node000010"><a xlink:title=" ">
<path fill="none" stroke="#63b8ff" d="M25.29,-110.6C31.66,-91.6 48.03,-50.21 76.08,-27.62 82.62,-22.36 90.73,-18.62 98.74,-15.97"/>
<polygon fill="#63b8ff" stroke="#63b8ff" points="99.38,-19.14 108.06,-13.07 97.49,-12.4 99.38,-19.14"/>
</a>
</g>
</g>
<!-- Node7 -->
<g id="Node000007" class="node">
<title>Node7</title>
<g id="a_Node000007"><a xlink:href="../../d8/d60/spline__cubic_8f.html#a83fa704212982fff74dee5f6c68b241f" target="_top" xlink:title=" ">
<polygon fill="white" stroke="#666666" points="282.46,-93.25 227.46,-93.25 227.46,-74 282.46,-74 282.46,-93.25"/>
<text text-anchor="middle" x="254.96" y="-79.75" font-family="Helvetica,sans-Serif" font-size="10.00">spline_nr</text>
</a>
</g>
</g>
<!-- Node6&#45;&gt;Node7 -->
<g id="edge7_Node000006_Node000007" class="edge">
<title>Node6&#45;&gt;Node7</title>
<g id="a_edge7_Node000006_Node000007"><a xlink:title=" ">
<path fill="none" stroke="#63b8ff" d="M168.52,-83.62C183.54,-83.62 201.19,-83.62 216.55,-83.62"/>
<polygon fill="#63b8ff" stroke="#63b8ff" points="216.25,-87.13 226.25,-83.62 216.25,-80.13 216.25,-87.13"/>
</a>
</g>
</g>
<!-- Node9 -->
<g id="Node000009" class="node">
<title>Node9</title>
<g id="a_Node000009"><a xlink:href="../../de/d64/spline__cubic__int_8f.html#a63307cd586733f21daca60330abd56a9" target="_top" xlink:title=" ">
<polygon fill="white" stroke="#666666" points="283.58,-56.25 226.33,-56.25 226.33,-37 283.58,-37 283.58,-56.25"/>
<text text-anchor="middle" x="254.96" y="-42.75" font-family="Helvetica,sans-Serif" font-size="10.00">spline_int</text>
</a>
</g>
</g>
<!-- Node8&#45;&gt;Node9 -->
<g id="edge9_Node000008_Node000009" class="edge">
<title>Node8&#45;&gt;Node9</title>
<g id="a_edge9_Node000008_Node000009"><a xlink:title=" ">
<path fill="none" stroke="#63b8ff" d="M176.43,-46.62C189.01,-46.62 202.73,-46.62 215.08,-46.62"/>
<polygon fill="#63b8ff" stroke="#63b8ff" points="214.97,-50.13 224.97,-46.62 214.97,-43.13 214.97,-50.13"/>
</a>
</g>
</g>
</g>
</svg>
</svg>

<style type='text/css'>
<![CDATA[
[data-mouse-over-selected='false'] { opacity: 0.7; }
[data-mouse-over-selected='true']  { opacity: 1.0; }
]]>
</style>
<script type="application/ecmascript"><![CDATA[
document.addEventListener('DOMContentLoaded', (event) => {
  highlightEdges();
  highlightAdjacentNodes();
});
]]></script>
</svg>
