<?xml version="1.0" encoding="UTF-8" standalone="no"?>
<!DOCTYPE svg PUBLIC "-//W3C//DTD SVG 1.1//EN"
 "http://www.w3.org/Graphics/SVG/1.1/DTD/svg11.dtd">
<!-- Generated by graphviz version 7.1.0 (20230121.1956)
 -->
<!-- Title: piota Pages: 1 -->
<svg width="291pt" height="138pt"
 viewBox="0.00 0.00 291.30 138.00" xmlns="http://www.w3.org/2000/svg" xmlns:xlink="http://www.w3.org/1999/xlink">
<g id="graph0" class="graph" transform="scale(1 1) rotate(0) translate(4 134)">
<title>piota</title>
<!-- Node1 -->
<g id="node1" class="node">
<title>Node1</title>
<g id="a_node1"><a xlink:title=" ">
<polygon fill="#999999" stroke="#666666" points="40.3,-74 2.3,-74 2.3,-55 40.3,-55 40.3,-74"/>
<text text-anchor="middle" x="21.3" y="-62" font-family="Helvetica,sans-Serif" font-size="10.00">piota</text>
</a>
</g>
</g>
<!-- Node1&#45;&gt;Node1 -->
<g id="edge2" class="edge">
<title>Node1&#45;&gt;Node1</title>
<path fill="none" stroke="#63b8ff" d="M3.69,-74.37C-4.35,-82.94 1.53,-92 21.3,-92 32.12,-92 38.77,-89.29 41.27,-85.43"/>
<polygon fill="#63b8ff" stroke="#63b8ff" points="44.74,-84.9 39.23,-75.85 37.89,-86.36 44.74,-84.9"/>
</g>
<!-- Node2 -->
<g id="node2" class="node">
<title>Node2</title>
<g id="a_node2"><a xlink:href="../../d2/dcb/namespaceline__segment.html#aa63bfde0ff39e19622f7f5fe150e8b59" target="_top" xlink:title=" ">
<polygon fill="white" stroke="#666666" points="191.3,-130 76.3,-130 76.3,-111 191.3,-111 191.3,-130"/>
<text text-anchor="middle" x="133.8" y="-118" font-family="Helvetica,sans-Serif" font-size="10.00">line_segment::line_seg</text>
</a>
</g>
</g>
<!-- Node1&#45;&gt;Node2 -->
<g id="edge1" class="edge">
<title>Node1&#45;&gt;Node2</title>
<path fill="none" stroke="#63b8ff" d="M34.07,-74.38C44.58,-82.81 60.69,-94.75 76.3,-102.5 79.2,-103.94 82.23,-105.29 85.33,-106.57"/>
<polygon fill="#63b8ff" stroke="#63b8ff" points="83.98,-109.8 94.57,-110.04 86.44,-103.24 83.98,-109.8"/>
</g>
<!-- Node3 -->
<g id="node3" class="node">
<title>Node3</title>
<g id="a_node3"><a xlink:href="../../de/de4/explore__spline__akima_8f90.html#a7517a5f00e408c447a9dd0e438f60e52" target="_top" xlink:title=" ">
<polygon fill="white" stroke="#666666" points="170.8,-93 96.8,-93 96.8,-74 170.8,-74 170.8,-93"/>
<text text-anchor="middle" x="133.8" y="-81" font-family="Helvetica,sans-Serif" font-size="10.00">spline_akima</text>
</a>
</g>
</g>
<!-- Node1&#45;&gt;Node3 -->
<g id="edge3" class="edge">
<title>Node1&#45;&gt;Node3</title>
<path fill="none" stroke="#63b8ff" d="M40.55,-67.64C52.78,-69.74 69.49,-72.61 85.33,-75.34"/>
<polygon fill="#63b8ff" stroke="#63b8ff" points="84.7,-78.78 95.15,-77.03 85.88,-71.88 84.7,-78.78"/>
</g>
<!-- Node4 -->
<g id="node4" class="node">
<title>Node4</title>
<g id="a_node4"><a xlink:href="../../d8/d60/spline__cubic_8f.html#a60e9606a5fa1dcb7f79f9259b8e0d067" target="_top" xlink:title=" ">
<polygon fill="white" stroke="#666666" points="169.3,-56 98.3,-56 98.3,-37 169.3,-37 169.3,-56"/>
<text text-anchor="middle" x="133.8" y="-44" font-family="Helvetica,sans-Serif" font-size="10.00">spline_cubic</text>
</a>
</g>
</g>
<!-- Node1&#45;&gt;Node4 -->
<g id="edge4" class="edge">
<title>Node1&#45;&gt;Node4</title>
<path fill="none" stroke="#63b8ff" d="M40.55,-61.53C53.2,-59.47 70.64,-56.63 86.95,-53.97"/>
<polygon fill="#63b8ff" stroke="#63b8ff" points="87.19,-57.48 96.5,-52.41 86.07,-50.57 87.19,-57.48"/>
</g>
<!-- Node6 -->
<g id="node6" class="node">
<title>Node6</title>
<g id="a_node6"><a xlink:href="../../d1/d4a/tolower_8f90.html#af0b4b410165cce4c9f0e5e6d82d21571" target="_top" xlink:title="Convert a string to lower case.">
<polygon fill="white" stroke="#666666" points="157.8,-19 109.8,-19 109.8,0 157.8,0 157.8,-19"/>
<text text-anchor="middle" x="133.8" y="-7" font-family="Helvetica,sans-Serif" font-size="10.00">tolower</text>
</a>
</g>
</g>
<!-- Node1&#45;&gt;Node6 -->
<g id="edge6" class="edge">
<title>Node1&#45;&gt;Node6</title>
<path fill="none" stroke="#63b8ff" d="M35.03,-54.61C45.62,-46.73 61.33,-35.85 76.3,-28.5 83.35,-25.04 91.19,-21.96 98.73,-19.34"/>
<polygon fill="#63b8ff" stroke="#63b8ff" points="99.58,-22.74 108,-16.31 97.4,-16.09 99.58,-22.74"/>
</g>
<!-- Node5 -->
<g id="node5" class="node">
<title>Node5</title>
<g id="a_node5"><a xlink:href="../../d8/d60/spline__cubic_8f.html#a83fa704212982fff74dee5f6c68b241f" target="_top" xlink:title=" ">
<polygon fill="white" stroke="#666666" points="283.3,-56 227.3,-56 227.3,-37 283.3,-37 283.3,-56"/>
<text text-anchor="middle" x="255.3" y="-44" font-family="Helvetica,sans-Serif" font-size="10.00">spline_nr</text>
</a>
</g>
</g>
<!-- Node4&#45;&gt;Node5 -->
<g id="edge5" class="edge">
<title>Node4&#45;&gt;Node5</title>
<path fill="none" stroke="#63b8ff" d="M169.69,-46.5C184.15,-46.5 200.97,-46.5 215.79,-46.5"/>
<polygon fill="#63b8ff" stroke="#63b8ff" points="215.65,-50 225.65,-46.5 215.65,-43 215.65,-50"/>
</g>
</g>
</svg>
