<?xml version="1.0" encoding="UTF-8" standalone="no"?>
<!DOCTYPE svg PUBLIC "-//W3C//DTD SVG 1.1//EN"
 "http://www.w3.org/Graphics/SVG/1.1/DTD/svg11.dtd">
<!-- Generated by graphviz version 2.47.1 (20210421.1823)
 -->
<!-- Title: initialize_radial Pages: 1 -->
<svg width="448pt" height="123pt"
 viewBox="0.00 0.00 448.00 123.00" xmlns="http://www.w3.org/2000/svg" xmlns:xlink="http://www.w3.org/1999/xlink">
<g id="graph0" class="graph" transform="scale(1 1) rotate(0) translate(4 119)">
<title>initialize_radial</title>
<polygon fill="white" stroke="transparent" points="-4,4 -4,-119 444,-119 444,4 -4,4"/>
<!-- Node1 -->
<g id="node1" class="node">
<title>Node1</title>
<g id="a_node1"><a xlink:title="Allocates memory for radial arrays and initializes radial profiles.">
<polygon fill="#bfbfbf" stroke="black" points="0,-38.5 0,-57.5 80,-57.5 80,-38.5 0,-38.5"/>
<text text-anchor="middle" x="40" y="-45.5" font-family="Helvetica,sans-Serif" font-size="10.00">initialize_radial</text>
</a>
</g>
</g>
<!-- Node2 -->
<g id="node2" class="node">
<title>Node2</title>
<g id="a_node2"><a xlink:href="../../d7/df2/allocate__ns_8f90.html#aeb3e662fed5b934054b3febb084ed659" target="_top" xlink:title="allocate arrays depending on the number of flux surfaces ns">
<polygon fill="white" stroke="black" points="116,-76.5 116,-95.5 182,-95.5 182,-76.5 116,-76.5"/>
<text text-anchor="middle" x="149" y="-83.5" font-family="Helvetica,sans-Serif" font-size="10.00">allocate_ns</text>
</a>
</g>
</g>
<!-- Node1&#45;&gt;Node2 -->
<g id="edge1" class="edge">
<title>Node1&#45;&gt;Node2</title>
<path fill="none" stroke="midnightblue" d="M68,-57.59C81.18,-62.27 97.23,-67.97 111.48,-73.03"/>
<polygon fill="midnightblue" stroke="midnightblue" points="110.41,-76.37 121.01,-76.41 112.76,-69.77 110.41,-76.37"/>
</g>
<!-- Node6 -->
<g id="node6" class="node">
<title>Node6</title>
<g id="a_node6"><a xlink:href="../../dc/df5/interp_8f90.html#a5bac7725cb89730c4bd187e158dc36ee" target="_top" xlink:title="Interpolate , &#160;and &#160;on full grid.">
<polygon fill="white" stroke="black" points="128.5,-38.5 128.5,-57.5 169.5,-57.5 169.5,-38.5 128.5,-38.5"/>
<text text-anchor="middle" x="149" y="-45.5" font-family="Helvetica,sans-Serif" font-size="10.00">interp</text>
</a>
</g>
</g>
<!-- Node1&#45;&gt;Node6 -->
<g id="edge5" class="edge">
<title>Node1&#45;&gt;Node6</title>
<path fill="none" stroke="midnightblue" d="M80.24,-48C92.75,-48 106.38,-48 118.12,-48"/>
<polygon fill="midnightblue" stroke="midnightblue" points="118.28,-51.5 128.28,-48 118.28,-44.5 118.28,-51.5"/>
</g>
<!-- Node7 -->
<g id="node7" class="node">
<title>Node7</title>
<g id="a_node7"><a xlink:href="../../d7/d61/profil1d_8f90.html#ab378195ac5fc3be3e3ec3bcddf7c72f9" target="_top" xlink:title="Compute phip and iota profiles on full grid.">
<polygon fill="white" stroke="black" points="125.5,-0.5 125.5,-19.5 172.5,-19.5 172.5,-0.5 125.5,-0.5"/>
<text text-anchor="middle" x="149" y="-7.5" font-family="Helvetica,sans-Serif" font-size="10.00">profil1d</text>
</a>
</g>
</g>
<!-- Node1&#45;&gt;Node7 -->
<g id="edge6" class="edge">
<title>Node1&#45;&gt;Node7</title>
<path fill="none" stroke="midnightblue" d="M68,-38.41C82.53,-33.25 100.54,-26.86 115.79,-21.44"/>
<polygon fill="midnightblue" stroke="midnightblue" points="117.1,-24.69 125.35,-18.04 114.75,-18.09 117.1,-24.69"/>
</g>
<!-- Node3 -->
<g id="node3" class="node">
<title>Node3</title>
<g id="a_node3"><a xlink:href="../../d2/d6a/allocate__funct3d_8f90.html#aa28af836c4a986153f038a50689c152a" target="_top" xlink:title="allocate arrays required in funct3d()">
<polygon fill="white" stroke="black" points="218,-95.5 218,-114.5 306,-114.5 306,-95.5 218,-95.5"/>
<text text-anchor="middle" x="262" y="-102.5" font-family="Helvetica,sans-Serif" font-size="10.00">allocate_funct3d</text>
</a>
</g>
</g>
<!-- Node2&#45;&gt;Node3 -->
<g id="edge2" class="edge">
<title>Node2&#45;&gt;Node3</title>
<path fill="none" stroke="midnightblue" d="M182.11,-91.5C190.2,-92.88 199.11,-94.41 207.93,-95.92"/>
<polygon fill="midnightblue" stroke="midnightblue" points="207.37,-99.37 217.81,-97.61 208.55,-92.47 207.37,-99.37"/>
</g>
<!-- Node5 -->
<g id="node5" class="node">
<title>Node5</title>
<g id="a_node5"><a xlink:href="../../d9/d30/free__mem__ns_8f90.html#a467551106b66f531d5dd780bd24a2d37" target="_top" xlink:title="Free memory depending on the number of flux surfaces ns.">
<polygon fill="white" stroke="black" points="224,-57.5 224,-76.5 300,-76.5 300,-57.5 224,-57.5"/>
<text text-anchor="middle" x="262" y="-64.5" font-family="Helvetica,sans-Serif" font-size="10.00">free_mem_ns</text>
</a>
</g>
</g>
<!-- Node2&#45;&gt;Node5 -->
<g id="edge4" class="edge">
<title>Node2&#45;&gt;Node5</title>
<path fill="none" stroke="midnightblue" d="M182.11,-80.5C192,-78.81 203.12,-76.91 213.81,-75.08"/>
<polygon fill="midnightblue" stroke="midnightblue" points="214.61,-78.49 223.88,-73.35 213.43,-71.59 214.61,-78.49"/>
</g>
<!-- Node4 -->
<g id="node4" class="node">
<title>Node4</title>
<g id="a_node4"><a xlink:href="../../da/dc7/free__mem__funct3d_8f90.html#ad59355935b77a3f3674383e74d424289" target="_top" xlink:title="Free memory required by funct3d()">
<polygon fill="white" stroke="black" points="342,-95.5 342,-114.5 440,-114.5 440,-95.5 342,-95.5"/>
<text text-anchor="middle" x="391" y="-102.5" font-family="Helvetica,sans-Serif" font-size="10.00">free_mem_funct3d</text>
</a>
</g>
</g>
<!-- Node3&#45;&gt;Node4 -->
<g id="edge3" class="edge">
<title>Node3&#45;&gt;Node4</title>
<path fill="none" stroke="midnightblue" d="M306.35,-105C314.42,-105 322.98,-105 331.42,-105"/>
<polygon fill="midnightblue" stroke="midnightblue" points="331.61,-108.5 341.61,-105 331.61,-101.5 331.61,-108.5"/>
</g>
</g>
</svg>
