<?xml version="1.0" encoding="UTF-8" standalone="no"?>
<!DOCTYPE svg PUBLIC "-//W3C//DTD SVG 1.1//EN"
 "http://www.w3.org/Graphics/SVG/1.1/DTD/svg11.dtd">
<!-- Generated by graphviz version 7.1.0 (20230121.1956)
 -->
<!-- Title: initialize_radial Pages: 1 -->
<svg width="489pt" height="202pt"
 viewBox="0.00 0.00 489.00 202.00" xmlns="http://www.w3.org/2000/svg" xmlns:xlink="http://www.w3.org/1999/xlink">
<g id="graph0" class="graph" transform="scale(1 1) rotate(0) translate(4 198)">
<title>initialize_radial</title>
<!-- Node1 -->
<g id="node1" class="node">
<title>Node1</title>
<g id="a_node1"><a xlink:title="Allocates memory for radial arrays and initializes radial profiles.">
<polygon fill="#999999" stroke="#666666" points="80,-93 0,-93 0,-74 80,-74 80,-93"/>
<text text-anchor="middle" x="40" y="-81" font-family="Helvetica,sans-Serif" font-size="10.00">initialize_radial</text>
</a>
</g>
</g>
<!-- Node2 -->
<g id="node2" class="node">
<title>Node2</title>
<g id="a_node2"><a xlink:href="../../d7/df2/allocate__ns_8f90.html#aeb3e662fed5b934054b3febb084ed659" target="_top" xlink:title="allocate arrays depending on the number of flux surfaces ns">
<polygon fill="white" stroke="#666666" points="182,-167 116,-167 116,-148 182,-148 182,-167"/>
<text text-anchor="middle" x="149" y="-155" font-family="Helvetica,sans-Serif" font-size="10.00">allocate_ns</text>
</a>
</g>
</g>
<!-- Node1&#45;&gt;Node2 -->
<g id="edge1" class="edge">
<title>Node1&#45;&gt;Node2</title>
<path fill="none" stroke="#63b8ff" d="M53.12,-93.32C67.67,-104.91 92.98,-124.52 116,-139.5 117.2,-140.28 118.44,-141.07 119.7,-141.84"/>
<polygon fill="#63b8ff" stroke="#63b8ff" points="117.79,-144.78 128.18,-146.85 121.35,-138.75 117.79,-144.78"/>
</g>
<!-- Node6 -->
<g id="node6" class="node">
<title>Node6</title>
<g id="a_node6"><a xlink:href="../../dc/df5/interp_8f90.html#a5bac7725cb89730c4bd187e158dc36ee" target="_top" xlink:title="Interpolate , &#160;and &#160;on full grid.">
<polygon fill="white" stroke="#666666" points="169.5,-130 128.5,-130 128.5,-111 169.5,-111 169.5,-130"/>
<text text-anchor="middle" x="149" y="-118" font-family="Helvetica,sans-Serif" font-size="10.00">interp</text>
</a>
</g>
</g>
<!-- Node1&#45;&gt;Node6 -->
<g id="edge5" class="edge">
<title>Node1&#45;&gt;Node6</title>
<path fill="none" stroke="#63b8ff" d="M69.67,-93.42C84.37,-98.5 102.29,-104.69 117.27,-109.87"/>
<polygon fill="#63b8ff" stroke="#63b8ff" points="116.03,-113.15 126.63,-113.11 118.32,-106.53 116.03,-113.15"/>
</g>
<!-- Node8 -->
<g id="node8" class="node">
<title>Node8</title>
<g id="a_node8"><a xlink:href="../../d7/d61/profil1d_8f90.html#a2bc38da2d3b36d16295159df2f8573e2" target="_top" xlink:title="Compute phip and iota profiles on full grid.">
<polygon fill="white" stroke="#666666" points="172.5,-93 125.5,-93 125.5,-74 172.5,-74 172.5,-93"/>
<text text-anchor="middle" x="149" y="-81" font-family="Helvetica,sans-Serif" font-size="10.00">profil1d</text>
</a>
</g>
</g>
<!-- Node1&#45;&gt;Node8 -->
<g id="edge8" class="edge">
<title>Node1&#45;&gt;Node8</title>
<path fill="none" stroke="#63b8ff" d="M80.24,-83.5C91.24,-83.5 103.12,-83.5 113.81,-83.5"/>
<polygon fill="#63b8ff" stroke="#63b8ff" points="113.75,-87 123.75,-83.5 113.75,-80 113.75,-87"/>
</g>
<!-- Node9 -->
<g id="node9" class="node">
<title>Node9</title>
<g id="a_node9"><a xlink:href="../../dd/d75/profil3d_8f90.html#a67d2774ceac255f1e1f75e54f4679e9c" target="_top" xlink:title="Compute three&#45;dimensional profiles of flux&#45;surface geometry etc.">
<polygon fill="white" stroke="#666666" points="172.5,-56 125.5,-56 125.5,-37 172.5,-37 172.5,-56"/>
<text text-anchor="middle" x="149" y="-44" font-family="Helvetica,sans-Serif" font-size="10.00">profil3d</text>
</a>
</g>
</g>
<!-- Node1&#45;&gt;Node9 -->
<g id="edge10" class="edge">
<title>Node1&#45;&gt;Node9</title>
<path fill="none" stroke="#63b8ff" d="M69.67,-73.58C83.49,-68.81 100.14,-63.05 114.53,-58.08"/>
<polygon fill="#63b8ff" stroke="#63b8ff" points="115.27,-61.52 123.57,-54.95 112.98,-54.91 115.27,-61.52"/>
</g>
<!-- Node10 -->
<g id="node10" class="node">
<title>Node10</title>
<g id="a_node10"><a xlink:href="../../d5/d6e/restart__iter_8f90.html#ace7df67e039f0ebf69200f91d3cb16cc" target="_top" xlink:title="Save current or restore previous good state vector and reduce time step.">
<polygon fill="white" stroke="#666666" points="180.5,-19 117.5,-19 117.5,0 180.5,0 180.5,-19"/>
<text text-anchor="middle" x="149" y="-7" font-family="Helvetica,sans-Serif" font-size="10.00">restart_iter</text>
</a>
</g>
</g>
<!-- Node1&#45;&gt;Node10 -->
<g id="edge12" class="edge">
<title>Node1&#45;&gt;Node10</title>
<path fill="none" stroke="#63b8ff" d="M53.12,-73.68C67.67,-62.09 92.98,-42.48 116,-27.5 117.2,-26.72 118.44,-25.93 119.7,-25.16"/>
<polygon fill="#63b8ff" stroke="#63b8ff" points="121.35,-28.25 128.18,-20.15 117.79,-22.22 121.35,-28.25"/>
</g>
<!-- Node3 -->
<g id="node3" class="node">
<title>Node3</title>
<g id="a_node3"><a xlink:href="../../d2/d6a/allocate__funct3d_8f90.html#aa28af836c4a986153f038a50689c152a" target="_top" xlink:title="allocate arrays required in funct3d()">
<polygon fill="white" stroke="#666666" points="326.5,-194 238.5,-194 238.5,-175 326.5,-175 326.5,-194"/>
<text text-anchor="middle" x="282.5" y="-182" font-family="Helvetica,sans-Serif" font-size="10.00">allocate_funct3d</text>
</a>
</g>
</g>
<!-- Node2&#45;&gt;Node3 -->
<g id="edge2" class="edge">
<title>Node2&#45;&gt;Node3</title>
<path fill="none" stroke="#63b8ff" d="M182.17,-164.1C195.75,-166.89 211.95,-170.22 227.28,-173.37"/>
<polygon fill="#63b8ff" stroke="#63b8ff" points="226.26,-176.73 236.76,-175.31 227.67,-169.87 226.26,-176.73"/>
</g>
<!-- Node5 -->
<g id="node5" class="node">
<title>Node5</title>
<g id="a_node5"><a xlink:href="../../d9/d30/free__mem__ns_8f90.html#a467551106b66f531d5dd780bd24a2d37" target="_top" xlink:title="Free memory depending on the number of flux surfaces ns.">
<polygon fill="white" stroke="#666666" points="320.5,-157 244.5,-157 244.5,-138 320.5,-138 320.5,-157"/>
<text text-anchor="middle" x="282.5" y="-145" font-family="Helvetica,sans-Serif" font-size="10.00">free_mem_ns</text>
</a>
</g>
</g>
<!-- Node2&#45;&gt;Node5 -->
<g id="edge4" class="edge">
<title>Node2&#45;&gt;Node5</title>
<path fill="none" stroke="#63b8ff" d="M182.17,-155.05C197.37,-153.9 215.84,-152.49 232.71,-151.21"/>
<polygon fill="#63b8ff" stroke="#63b8ff" points="232.86,-154.71 242.56,-150.46 232.33,-147.73 232.86,-154.71"/>
</g>
<!-- Node4 -->
<g id="node4" class="node">
<title>Node4</title>
<g id="a_node4"><a xlink:href="../../da/dc7/free__mem__funct3d_8f90.html#ad59355935b77a3f3674383e74d424289" target="_top" xlink:title="Free memory required by funct3d()">
<polygon fill="white" stroke="#666666" points="481,-194 383,-194 383,-175 481,-175 481,-194"/>
<text text-anchor="middle" x="432" y="-182" font-family="Helvetica,sans-Serif" font-size="10.00">free_mem_funct3d</text>
</a>
</g>
</g>
<!-- Node3&#45;&gt;Node4 -->
<g id="edge3" class="edge">
<title>Node3&#45;&gt;Node4</title>
<path fill="none" stroke="#63b8ff" d="M326.96,-184.5C340.91,-184.5 356.61,-184.5 371.5,-184.5"/>
<polygon fill="#63b8ff" stroke="#63b8ff" points="371.18,-188 381.18,-184.5 371.18,-181 371.18,-188"/>
</g>
<!-- Node7 -->
<g id="node7" class="node">
<title>Node7</title>
<g id="a_node7"><a xlink:href="../../d8/dfd/namespacedbgout.html#acdd1612a38e44b6469dc03d9d1c6ceed" target="_top" xlink:title="check if any output is desired for the current iteration check if the given context should be openend...">
<polygon fill="white" stroke="#666666" points="347,-93 218,-93 218,-74 347,-74 347,-93"/>
<text text-anchor="middle" x="282.5" y="-81" font-family="Helvetica,sans-Serif" font-size="10.00">dbgout::open_dbg_context</text>
</a>
</g>
</g>
<!-- Node6&#45;&gt;Node7 -->
<g id="edge6" class="edge">
<title>Node6&#45;&gt;Node7</title>
<path fill="none" stroke="#63b8ff" d="M169.97,-114.88C187.24,-110.02 212.88,-102.81 235.22,-96.52"/>
<polygon fill="#63b8ff" stroke="#63b8ff" points="236.07,-99.92 244.75,-93.84 234.18,-93.18 236.07,-99.92"/>
</g>
<!-- Node7&#45;&gt;Node7 -->
<g id="edge7" class="edge">
<title>Node7&#45;&gt;Node7</title>
<path fill="none" stroke="#63b8ff" d="M261.6,-93.37C252.07,-101.94 259.03,-111 282.5,-111 295.33,-111 303.23,-108.29 306.2,-104.43"/>
<polygon fill="#63b8ff" stroke="#63b8ff" points="309.61,-103.67 303.77,-94.84 302.83,-105.39 309.61,-103.67"/>
</g>
<!-- Node8&#45;&gt;Node7 -->
<g id="edge9" class="edge">
<title>Node8&#45;&gt;Node7</title>
<path fill="none" stroke="#63b8ff" d="M172.91,-83.5C182.48,-83.5 194.21,-83.5 206.37,-83.5"/>
<polygon fill="#63b8ff" stroke="#63b8ff" points="206.1,-87 216.1,-83.5 206.1,-80 206.1,-87"/>
</g>
<!-- Node9&#45;&gt;Node7 -->
<g id="edge11" class="edge">
<title>Node9&#45;&gt;Node7</title>
<path fill="none" stroke="#63b8ff" d="M172.91,-52.94C190,-57.75 213.93,-64.49 234.98,-70.41"/>
<polygon fill="#63b8ff" stroke="#63b8ff" points="233.96,-73.76 244.53,-73.1 235.85,-67.02 233.96,-73.76"/>
</g>
</g>
</svg>
