<?xml version="1.0" encoding="UTF-8" standalone="no"?>
<!DOCTYPE svg PUBLIC "-//W3C//DTD SVG 1.1//EN"
 "http://www.w3.org/Graphics/SVG/1.1/DTD/svg11.dtd">
<!-- Generated by graphviz version 2.47.1 (20210421.1823)
 -->
<!-- Title: initialize_radial Pages: 1 -->
<svg width="448pt" height="199pt"
 viewBox="0.00 0.00 448.00 199.00" xmlns="http://www.w3.org/2000/svg" xmlns:xlink="http://www.w3.org/1999/xlink">
<g id="graph0" class="graph" transform="scale(1 1) rotate(0) translate(4 195)">
<title>initialize_radial</title>
<polygon fill="white" stroke="transparent" points="-4,4 -4,-195 444,-195 444,4 -4,4"/>
<!-- Node1 -->
<g id="node1" class="node">
<title>Node1</title>
<g id="a_node1"><a xlink:title="Allocates memory for radial arrays and initializes radial profiles.">
<polygon fill="#bfbfbf" stroke="black" points="0,-76.5 0,-95.5 80,-95.5 80,-76.5 0,-76.5"/>
<text text-anchor="middle" x="40" y="-83.5" font-family="Helvetica,sans-Serif" font-size="10.00">initialize_radial</text>
</a>
</g>
</g>
<!-- Node2 -->
<g id="node2" class="node">
<title>Node2</title>
<g id="a_node2"><a xlink:href="../../d7/df2/allocate__ns_8f90.html#aeb3e662fed5b934054b3febb084ed659" target="_top" xlink:title="allocate arrays depending on the number of flux surfaces ns">
<polygon fill="white" stroke="black" points="116,-152.5 116,-171.5 182,-171.5 182,-152.5 116,-152.5"/>
<text text-anchor="middle" x="149" y="-159.5" font-family="Helvetica,sans-Serif" font-size="10.00">allocate_ns</text>
</a>
</g>
</g>
<!-- Node1&#45;&gt;Node2 -->
<g id="edge1" class="edge">
<title>Node1&#45;&gt;Node2</title>
<path fill="none" stroke="midnightblue" d="M52.64,-95.51C67.13,-107.19 92.81,-127.37 116,-143 118.11,-144.42 120.33,-145.86 122.57,-147.26"/>
<polygon fill="midnightblue" stroke="midnightblue" points="120.81,-150.29 131.17,-152.49 124.44,-144.31 120.81,-150.29"/>
</g>
<!-- Node6 -->
<g id="node6" class="node">
<title>Node6</title>
<g id="a_node6"><a xlink:href="../../dc/df5/interp_8f90.html#a5bac7725cb89730c4bd187e158dc36ee" target="_top" xlink:title="Interpolate , &#160;and &#160;on full grid.">
<polygon fill="white" stroke="black" points="128.5,-114.5 128.5,-133.5 169.5,-133.5 169.5,-114.5 128.5,-114.5"/>
<text text-anchor="middle" x="149" y="-121.5" font-family="Helvetica,sans-Serif" font-size="10.00">interp</text>
</a>
</g>
</g>
<!-- Node1&#45;&gt;Node6 -->
<g id="edge5" class="edge">
<title>Node1&#45;&gt;Node6</title>
<path fill="none" stroke="midnightblue" d="M68,-95.59C83.44,-101.07 102.82,-107.95 118.63,-113.57"/>
<polygon fill="midnightblue" stroke="midnightblue" points="117.84,-117 128.44,-117.05 120.18,-110.41 117.84,-117"/>
</g>
<!-- Node7 -->
<g id="node7" class="node">
<title>Node7</title>
<g id="a_node7"><a xlink:href="../../d7/d61/profil1d_8f90.html#ab378195ac5fc3be3e3ec3bcddf7c72f9" target="_top" xlink:title="Compute phip and iota profiles on full grid.">
<polygon fill="white" stroke="black" points="125.5,-76.5 125.5,-95.5 172.5,-95.5 172.5,-76.5 125.5,-76.5"/>
<text text-anchor="middle" x="149" y="-83.5" font-family="Helvetica,sans-Serif" font-size="10.00">profil1d</text>
</a>
</g>
</g>
<!-- Node1&#45;&gt;Node7 -->
<g id="edge6" class="edge">
<title>Node1&#45;&gt;Node7</title>
<path fill="none" stroke="midnightblue" d="M80.24,-86C91.72,-86 104.14,-86 115.18,-86"/>
<polygon fill="midnightblue" stroke="midnightblue" points="115.26,-89.5 125.26,-86 115.26,-82.5 115.26,-89.5"/>
</g>
<!-- Node8 -->
<g id="node8" class="node">
<title>Node8</title>
<g id="a_node8"><a xlink:href="../../dd/d75/profil3d_8f90.html#a67d2774ceac255f1e1f75e54f4679e9c" target="_top" xlink:title="Compute three&#45;dimensional profiles of flux&#45;surface geometry etc.">
<polygon fill="white" stroke="black" points="125.5,-38.5 125.5,-57.5 172.5,-57.5 172.5,-38.5 125.5,-38.5"/>
<text text-anchor="middle" x="149" y="-45.5" font-family="Helvetica,sans-Serif" font-size="10.00">profil3d</text>
</a>
</g>
</g>
<!-- Node1&#45;&gt;Node8 -->
<g id="edge7" class="edge">
<title>Node1&#45;&gt;Node8</title>
<path fill="none" stroke="midnightblue" d="M68,-76.41C82.53,-71.25 100.54,-64.86 115.79,-59.44"/>
<polygon fill="midnightblue" stroke="midnightblue" points="117.1,-62.69 125.35,-56.04 114.75,-56.09 117.1,-62.69"/>
</g>
<!-- Node9 -->
<g id="node9" class="node">
<title>Node9</title>
<g id="a_node9"><a xlink:href="../../d5/d6e/restart__iter_8f90.html#ace7df67e039f0ebf69200f91d3cb16cc" target="_top" xlink:title="Save current or restore previous good state vector and reduce time step.">
<polygon fill="white" stroke="black" points="117.5,-0.5 117.5,-19.5 180.5,-19.5 180.5,-0.5 117.5,-0.5"/>
<text text-anchor="middle" x="149" y="-7.5" font-family="Helvetica,sans-Serif" font-size="10.00">restart_iter</text>
</a>
</g>
</g>
<!-- Node1&#45;&gt;Node9 -->
<g id="edge8" class="edge">
<title>Node1&#45;&gt;Node9</title>
<path fill="none" stroke="midnightblue" d="M52.64,-76.49C67.13,-64.81 92.81,-44.63 116,-29 118.11,-27.58 120.33,-26.14 122.57,-24.74"/>
<polygon fill="midnightblue" stroke="midnightblue" points="124.44,-27.69 131.17,-19.51 120.81,-21.71 124.44,-27.69"/>
</g>
<!-- Node3 -->
<g id="node3" class="node">
<title>Node3</title>
<g id="a_node3"><a xlink:href="../../d2/d6a/allocate__funct3d_8f90.html#aa28af836c4a986153f038a50689c152a" target="_top" xlink:title="allocate arrays required in funct3d()">
<polygon fill="white" stroke="black" points="218,-171.5 218,-190.5 306,-190.5 306,-171.5 218,-171.5"/>
<text text-anchor="middle" x="262" y="-178.5" font-family="Helvetica,sans-Serif" font-size="10.00">allocate_funct3d</text>
</a>
</g>
</g>
<!-- Node2&#45;&gt;Node3 -->
<g id="edge2" class="edge">
<title>Node2&#45;&gt;Node3</title>
<path fill="none" stroke="midnightblue" d="M182.11,-167.5C190.2,-168.88 199.11,-170.41 207.93,-171.92"/>
<polygon fill="midnightblue" stroke="midnightblue" points="207.37,-175.37 217.81,-173.61 208.55,-168.47 207.37,-175.37"/>
</g>
<!-- Node5 -->
<g id="node5" class="node">
<title>Node5</title>
<g id="a_node5"><a xlink:href="../../d9/d30/free__mem__ns_8f90.html#a467551106b66f531d5dd780bd24a2d37" target="_top" xlink:title="Free memory depending on the number of flux surfaces ns.">
<polygon fill="white" stroke="black" points="224,-133.5 224,-152.5 300,-152.5 300,-133.5 224,-133.5"/>
<text text-anchor="middle" x="262" y="-140.5" font-family="Helvetica,sans-Serif" font-size="10.00">free_mem_ns</text>
</a>
</g>
</g>
<!-- Node2&#45;&gt;Node5 -->
<g id="edge4" class="edge">
<title>Node2&#45;&gt;Node5</title>
<path fill="none" stroke="midnightblue" d="M182.11,-156.5C192,-154.81 203.12,-152.91 213.81,-151.08"/>
<polygon fill="midnightblue" stroke="midnightblue" points="214.61,-154.49 223.88,-149.35 213.43,-147.59 214.61,-154.49"/>
</g>
<!-- Node4 -->
<g id="node4" class="node">
<title>Node4</title>
<g id="a_node4"><a xlink:href="../../da/dc7/free__mem__funct3d_8f90.html#ad59355935b77a3f3674383e74d424289" target="_top" xlink:title="Free memory required by funct3d()">
<polygon fill="white" stroke="black" points="342,-171.5 342,-190.5 440,-190.5 440,-171.5 342,-171.5"/>
<text text-anchor="middle" x="391" y="-178.5" font-family="Helvetica,sans-Serif" font-size="10.00">free_mem_funct3d</text>
</a>
</g>
</g>
<!-- Node3&#45;&gt;Node4 -->
<g id="edge3" class="edge">
<title>Node3&#45;&gt;Node4</title>
<path fill="none" stroke="midnightblue" d="M306.35,-181C314.42,-181 322.98,-181 331.42,-181"/>
<polygon fill="midnightblue" stroke="midnightblue" points="331.61,-184.5 341.61,-181 331.61,-177.5 331.61,-184.5"/>
</g>
</g>
</svg>
