<?xml version="1.0" encoding="UTF-8" standalone="no"?>
<!DOCTYPE svg PUBLIC "-//W3C//DTD SVG 1.1//EN"
 "http://www.w3.org/Graphics/SVG/1.1/DTD/svg11.dtd">
<!-- Generated by graphviz version 2.49.3 (20211027.1501)
 -->
<!-- Title: initialize_radial Pages: 1 -->
<svg width="489pt" height="213pt"
 viewBox="0.00 0.00 489.00 213.00" xmlns="http://www.w3.org/2000/svg" xmlns:xlink="http://www.w3.org/1999/xlink">
<g id="graph0" class="graph" transform="scale(1 1) rotate(0) translate(4 209)">
<title>initialize_radial</title>
<polygon fill="white" stroke="transparent" points="-4,4 -4,-209 485,-209 485,4 -4,4"/>
<!-- Node1 -->
<g id="node1" class="node">
<title>Node1</title>
<g id="a_node1"><a xlink:title="Allocates memory for radial arrays and initializes radial profiles.">
<polygon fill="#bfbfbf" stroke="black" points="0,-76.5 0,-95.5 80,-95.5 80,-76.5 0,-76.5"/>
<text text-anchor="middle" x="40" y="-83.5" font-family="Helvetica,sans-Serif" font-size="10.00">initialize_radial</text>
</a>
</g>
</g>
<!-- Node2 -->
<g id="node2" class="node">
<title>Node2</title>
<g id="a_node2"><a xlink:href="../../d7/df2/allocate__ns_8f90.html#aeb3e662fed5b934054b3febb084ed659" target="_top" xlink:title="allocate arrays depending on the number of flux surfaces ns">
<polygon fill="white" stroke="black" points="116,-152.5 116,-171.5 182,-171.5 182,-152.5 116,-152.5"/>
<text text-anchor="middle" x="149" y="-159.5" font-family="Helvetica,sans-Serif" font-size="10.00">allocate_ns</text>
</a>
</g>
</g>
<!-- Node1&#45;&gt;Node2 -->
<g id="edge1" class="edge">
<title>Node1&#45;&gt;Node2</title>
<path fill="none" stroke="midnightblue" d="M52.64,-95.51C67.13,-107.19 92.81,-127.37 116,-143 118.11,-144.42 120.33,-145.86 122.57,-147.26"/>
<polygon fill="midnightblue" stroke="midnightblue" points="120.81,-150.29 131.17,-152.49 124.44,-144.31 120.81,-150.29"/>
</g>
<!-- Node6 -->
<g id="node6" class="node">
<title>Node6</title>
<g id="a_node6"><a xlink:href="../../dc/df5/interp_8f90.html#a5bac7725cb89730c4bd187e158dc36ee" target="_top" xlink:title="Interpolate , &#160;and &#160;on full grid.">
<polygon fill="white" stroke="black" points="128.5,-114.5 128.5,-133.5 169.5,-133.5 169.5,-114.5 128.5,-114.5"/>
<text text-anchor="middle" x="149" y="-121.5" font-family="Helvetica,sans-Serif" font-size="10.00">interp</text>
</a>
</g>
</g>
<!-- Node1&#45;&gt;Node6 -->
<g id="edge5" class="edge">
<title>Node1&#45;&gt;Node6</title>
<path fill="none" stroke="midnightblue" d="M68,-95.59C83.44,-101.07 102.82,-107.95 118.63,-113.57"/>
<polygon fill="midnightblue" stroke="midnightblue" points="117.84,-117 128.44,-117.05 120.18,-110.41 117.84,-117"/>
</g>
<!-- Node9 -->
<g id="node9" class="node">
<title>Node9</title>
<g id="a_node9"><a xlink:href="../../d7/d61/profil1d_8f90.html#a2bc38da2d3b36d16295159df2f8573e2" target="_top" xlink:title="Compute phip and iota profiles on full grid.">
<polygon fill="white" stroke="black" points="125.5,-76.5 125.5,-95.5 172.5,-95.5 172.5,-76.5 125.5,-76.5"/>
<text text-anchor="middle" x="149" y="-83.5" font-family="Helvetica,sans-Serif" font-size="10.00">profil1d</text>
</a>
</g>
</g>
<!-- Node1&#45;&gt;Node9 -->
<g id="edge9" class="edge">
<title>Node1&#45;&gt;Node9</title>
<path fill="none" stroke="midnightblue" d="M80.24,-86C91.72,-86 104.14,-86 115.18,-86"/>
<polygon fill="midnightblue" stroke="midnightblue" points="115.26,-89.5 125.26,-86 115.26,-82.5 115.26,-89.5"/>
</g>
<!-- Node10 -->
<g id="node10" class="node">
<title>Node10</title>
<g id="a_node10"><a xlink:href="../../dd/d75/profil3d_8f90.html#a67d2774ceac255f1e1f75e54f4679e9c" target="_top" xlink:title="Compute three&#45;dimensional profiles of flux&#45;surface geometry etc.">
<polygon fill="white" stroke="black" points="125.5,-38.5 125.5,-57.5 172.5,-57.5 172.5,-38.5 125.5,-38.5"/>
<text text-anchor="middle" x="149" y="-45.5" font-family="Helvetica,sans-Serif" font-size="10.00">profil3d</text>
</a>
</g>
</g>
<!-- Node1&#45;&gt;Node10 -->
<g id="edge12" class="edge">
<title>Node1&#45;&gt;Node10</title>
<path fill="none" stroke="midnightblue" d="M68,-76.41C82.53,-71.25 100.54,-64.86 115.79,-59.44"/>
<polygon fill="midnightblue" stroke="midnightblue" points="117.1,-62.69 125.35,-56.04 114.75,-56.09 117.1,-62.69"/>
</g>
<!-- Node11 -->
<g id="node11" class="node">
<title>Node11</title>
<g id="a_node11"><a xlink:href="../../d5/d6e/restart__iter_8f90.html#ace7df67e039f0ebf69200f91d3cb16cc" target="_top" xlink:title="Save current or restore previous good state vector and reduce time step.">
<polygon fill="white" stroke="black" points="117.5,-0.5 117.5,-19.5 180.5,-19.5 180.5,-0.5 117.5,-0.5"/>
<text text-anchor="middle" x="149" y="-7.5" font-family="Helvetica,sans-Serif" font-size="10.00">restart_iter</text>
</a>
</g>
</g>
<!-- Node1&#45;&gt;Node11 -->
<g id="edge15" class="edge">
<title>Node1&#45;&gt;Node11</title>
<path fill="none" stroke="midnightblue" d="M52.64,-76.49C67.13,-64.81 92.81,-44.63 116,-29 118.11,-27.58 120.33,-26.14 122.57,-24.74"/>
<polygon fill="midnightblue" stroke="midnightblue" points="124.44,-27.69 131.17,-19.51 120.81,-21.71 124.44,-27.69"/>
</g>
<!-- Node3 -->
<g id="node3" class="node">
<title>Node3</title>
<g id="a_node3"><a xlink:href="../../d2/d6a/allocate__funct3d_8f90.html#aa28af836c4a986153f038a50689c152a" target="_top" xlink:title="allocate arrays required in funct3d()">
<polygon fill="white" stroke="black" points="238.5,-185.5 238.5,-204.5 326.5,-204.5 326.5,-185.5 238.5,-185.5"/>
<text text-anchor="middle" x="282.5" y="-192.5" font-family="Helvetica,sans-Serif" font-size="10.00">allocate_funct3d</text>
</a>
</g>
</g>
<!-- Node2&#45;&gt;Node3 -->
<g id="edge2" class="edge">
<title>Node2&#45;&gt;Node3</title>
<path fill="none" stroke="midnightblue" d="M182.17,-170.07C197.68,-173.96 216.59,-178.71 233.74,-183.01"/>
<polygon fill="midnightblue" stroke="midnightblue" points="233.04,-186.45 243.59,-185.49 234.75,-179.66 233.04,-186.45"/>
</g>
<!-- Node5 -->
<g id="node5" class="node">
<title>Node5</title>
<g id="a_node5"><a xlink:href="../../d9/d30/free__mem__ns_8f90.html#a467551106b66f531d5dd780bd24a2d37" target="_top" xlink:title="Free memory depending on the number of flux surfaces ns.">
<polygon fill="white" stroke="black" points="244.5,-147.5 244.5,-166.5 320.5,-166.5 320.5,-147.5 244.5,-147.5"/>
<text text-anchor="middle" x="282.5" y="-154.5" font-family="Helvetica,sans-Serif" font-size="10.00">free_mem_ns</text>
</a>
</g>
</g>
<!-- Node2&#45;&gt;Node5 -->
<g id="edge4" class="edge">
<title>Node2&#45;&gt;Node5</title>
<path fill="none" stroke="midnightblue" d="M182.17,-160.78C197.66,-160.19 216.55,-159.47 233.68,-158.82"/>
<polygon fill="midnightblue" stroke="midnightblue" points="234.21,-162.3 244.07,-158.42 233.95,-155.31 234.21,-162.3"/>
</g>
<!-- Node4 -->
<g id="node4" class="node">
<title>Node4</title>
<g id="a_node4"><a xlink:href="../../da/dc7/free__mem__funct3d_8f90.html#ad59355935b77a3f3674383e74d424289" target="_top" xlink:title="Free memory required by funct3d()">
<polygon fill="white" stroke="black" points="383,-185.5 383,-204.5 481,-204.5 481,-185.5 383,-185.5"/>
<text text-anchor="middle" x="432" y="-192.5" font-family="Helvetica,sans-Serif" font-size="10.00">free_mem_funct3d</text>
</a>
</g>
</g>
<!-- Node3&#45;&gt;Node4 -->
<g id="edge3" class="edge">
<title>Node3&#45;&gt;Node4</title>
<path fill="none" stroke="midnightblue" d="M326.56,-195C340.93,-195 357.19,-195 372.53,-195"/>
<polygon fill="midnightblue" stroke="midnightblue" points="372.97,-198.5 382.97,-195 372.97,-191.5 372.97,-198.5"/>
</g>
<!-- Node7 -->
<g id="node7" class="node">
<title>Node7</title>
<g id="a_node7"><a xlink:href="../../d8/dfd/namespacedbgout.html#a0752528f123b592bc57f687438b75d9b" target="_top" xlink:title=" ">
<polygon fill="white" stroke="black" points="218,-104.5 218,-123.5 347,-123.5 347,-104.5 218,-104.5"/>
<text text-anchor="middle" x="282.5" y="-111.5" font-family="Helvetica,sans-Serif" font-size="10.00">dbgout::open_dbg_context</text>
</a>
</g>
</g>
<!-- Node6&#45;&gt;Node7 -->
<g id="edge6" class="edge">
<title>Node6&#45;&gt;Node7</title>
<path fill="none" stroke="midnightblue" d="M169.69,-122.5C180.12,-121.71 193.67,-120.68 207.71,-119.61"/>
<polygon fill="midnightblue" stroke="midnightblue" points="208.28,-123.08 217.99,-118.83 207.75,-116.1 208.28,-123.08"/>
</g>
<!-- Node8 -->
<g id="node8" class="node">
<title>Node8</title>
<g id="a_node8"><a xlink:href="../../d8/dfd/namespacedbgout.html#a0537172e9da0db08b9d29ab8880f0559" target="_top" xlink:title=" ">
<polygon fill="white" stroke="black" points="230,-48.5 230,-67.5 335,-67.5 335,-48.5 230,-48.5"/>
<text text-anchor="middle" x="282.5" y="-55.5" font-family="Helvetica,sans-Serif" font-size="10.00">dbgout::should_write</text>
</a>
</g>
</g>
<!-- Node6&#45;&gt;Node8 -->
<g id="edge7" class="edge">
<title>Node6&#45;&gt;Node8</title>
<path fill="none" stroke="midnightblue" d="M169.12,-114.4C191.23,-103.31 227.83,-84.94 253.22,-72.19"/>
<polygon fill="midnightblue" stroke="midnightblue" points="254.99,-75.22 262.36,-67.61 251.85,-68.97 254.99,-75.22"/>
</g>
<!-- Node8&#45;&gt;Node8 -->
<g id="edge8" class="edge">
<title>Node8&#45;&gt;Node8</title>
<path fill="none" stroke="midnightblue" d="M262.15,-67.76C252.26,-76.57 259.04,-86 282.5,-86 297.53,-86 305.71,-82.13 307.05,-77.03"/>
<polygon fill="midnightblue" stroke="midnightblue" points="310.17,-75.42 302.85,-67.76 303.79,-78.31 310.17,-75.42"/>
</g>
<!-- Node9&#45;&gt;Node7 -->
<g id="edge10" class="edge">
<title>Node9&#45;&gt;Node7</title>
<path fill="none" stroke="midnightblue" d="M172.61,-90.81C187.61,-94.01 207.99,-98.35 227.06,-102.41"/>
<polygon fill="midnightblue" stroke="midnightblue" points="226.37,-105.84 236.88,-104.5 227.83,-98.99 226.37,-105.84"/>
</g>
<!-- Node9&#45;&gt;Node8 -->
<g id="edge11" class="edge">
<title>Node9&#45;&gt;Node8</title>
<path fill="none" stroke="midnightblue" d="M172.61,-81.19C187.61,-77.99 207.99,-73.65 227.06,-69.59"/>
<polygon fill="midnightblue" stroke="midnightblue" points="227.83,-73.01 236.88,-67.5 226.37,-66.16 227.83,-73.01"/>
</g>
<!-- Node10&#45;&gt;Node7 -->
<g id="edge13" class="edge">
<title>Node10&#45;&gt;Node7</title>
<path fill="none" stroke="midnightblue" d="M167.19,-57.67C172.05,-60.55 177.3,-63.8 182,-67 198.75,-78.42 199.98,-85.71 218,-95 222.31,-97.22 226.93,-99.23 231.63,-101.03"/>
<polygon fill="midnightblue" stroke="midnightblue" points="230.73,-104.42 241.32,-104.44 233.05,-97.82 230.73,-104.42"/>
</g>
<!-- Node10&#45;&gt;Node8 -->
<g id="edge14" class="edge">
<title>Node10&#45;&gt;Node8</title>
<path fill="none" stroke="midnightblue" d="M172.61,-49.72C185.62,-50.71 202.67,-52.01 219.4,-53.28"/>
<polygon fill="midnightblue" stroke="midnightblue" points="219.51,-56.8 229.74,-54.06 220.04,-49.82 219.51,-56.8"/>
</g>
</g>
</svg>
