<?xml version="1.0" encoding="UTF-8" standalone="no"?>
<!DOCTYPE svg PUBLIC "-//W3C//DTD SVG 1.1//EN"
 "http://www.w3.org/Graphics/SVG/1.1/DTD/svg11.dtd">
<!-- Generated by graphviz version 9.0.0 (20230911.1827)
 -->
<!-- Title: initialize_radial Pages: 1 -->
<svg width="486pt" height="202pt"
 viewBox="0.00 0.00 486.00 202.25" xmlns="http://www.w3.org/2000/svg" xmlns:xlink="http://www.w3.org/1999/xlink">
<g id="graph0" class="graph" transform="scale(1 1) rotate(0) translate(4 198.25)">
<title>initialize_radial</title>
<!-- Node1 -->
<g id="Node000001" class="node">
<title>Node1</title>
<g id="a_Node000001"><a xlink:title="Allocates memory for radial arrays and initializes radial profiles.">
<polygon fill="#999999" stroke="#666666" points="79,-93.25 0,-93.25 0,-74 79,-74 79,-93.25"/>
<text text-anchor="middle" x="39.5" y="-79.75" font-family="Helvetica,sans-Serif" font-size="10.00">initialize_radial</text>
</a>
</g>
</g>
<!-- Node2 -->
<g id="Node000002" class="node">
<title>Node2</title>
<g id="a_Node000002"><a xlink:href="../../d7/df2/allocate__ns_8f90.html#aeb3e662fed5b934054b3febb084ed659" target="_top" xlink:title="allocate arrays depending on the number of flux surfaces ns">
<polygon fill="white" stroke="#666666" points="180.5,-167.25 115,-167.25 115,-148 180.5,-148 180.5,-167.25"/>
<text text-anchor="middle" x="147.75" y="-153.75" font-family="Helvetica,sans-Serif" font-size="10.00">allocate_ns</text>
</a>
</g>
</g>
<!-- Node1&#45;&gt;Node2 -->
<g id="edge1_Node000001_Node000002" class="edge">
<title>Node1&#45;&gt;Node2</title>
<g id="a_edge1_Node000001_Node000002"><a xlink:title=" ">
<path fill="none" stroke="#63b8ff" d="M52.8,-93.65C67.28,-105.26 92.26,-124.72 115,-139.62 116.03,-140.3 117.09,-140.98 118.17,-141.66"/>
<polygon fill="#63b8ff" stroke="#63b8ff" points="116.36,-144.65 126.74,-146.77 119.95,-138.64 116.36,-144.65"/>
</a>
</g>
</g>
<!-- Node6 -->
<g id="Node000006" class="node">
<title>Node6</title>
<g id="a_Node000006"><a xlink:href="../../dc/df5/interp_8f90.html#a5bac7725cb89730c4bd187e158dc36ee" target="_top" xlink:title="Interpolate , &#160;and &#160;on full grid.">
<polygon fill="white" stroke="#666666" points="167.75,-130.25 127.75,-130.25 127.75,-111 167.75,-111 167.75,-130.25"/>
<text text-anchor="middle" x="147.75" y="-116.75" font-family="Helvetica,sans-Serif" font-size="10.00">interp</text>
</a>
</g>
</g>
<!-- Node1&#45;&gt;Node6 -->
<g id="edge5_Node000001_Node000006" class="edge">
<title>Node1&#45;&gt;Node6</title>
<g id="a_edge5_Node000001_Node000006"><a xlink:title=" ">
<path fill="none" stroke="#63b8ff" d="M69.53,-93.74C84.22,-98.85 102.03,-105.05 116.84,-110.21"/>
<polygon fill="#63b8ff" stroke="#63b8ff" points="115.45,-113.43 126.05,-113.42 117.76,-106.82 115.45,-113.43"/>
</a>
</g>
</g>
<!-- Node8 -->
<g id="Node000008" class="node">
<title>Node8</title>
<g id="a_Node000008"><a xlink:href="../../d7/d61/profil1d_8f90.html#a2bc38da2d3b36d16295159df2f8573e2" target="_top" xlink:title="Compute phip and iota profiles on full grid.">
<polygon fill="white" stroke="#666666" points="171.12,-93.25 124.38,-93.25 124.38,-74 171.12,-74 171.12,-93.25"/>
<text text-anchor="middle" x="147.75" y="-79.75" font-family="Helvetica,sans-Serif" font-size="10.00">profil1d</text>
</a>
</g>
</g>
<!-- Node1&#45;&gt;Node8 -->
<g id="edge8_Node000001_Node000008" class="edge">
<title>Node1&#45;&gt;Node8</title>
<g id="a_edge8_Node000001_Node000008"><a xlink:title=" ">
<path fill="none" stroke="#63b8ff" d="M79.46,-83.62C90.39,-83.62 102.18,-83.62 112.8,-83.62"/>
<polygon fill="#63b8ff" stroke="#63b8ff" points="112.66,-87.13 122.66,-83.63 112.66,-80.13 112.66,-87.13"/>
</a>
</g>
</g>
<!-- Node9 -->
<g id="Node000009" class="node">
<title>Node9</title>
<g id="a_Node000009"><a xlink:href="../../dd/d75/profil3d_8f90.html#a67d2774ceac255f1e1f75e54f4679e9c" target="_top" xlink:title="Compute three&#45;dimensional profiles of flux&#45;surface geometry etc.">
<polygon fill="white" stroke="#666666" points="171.12,-56.25 124.38,-56.25 124.38,-37 171.12,-37 171.12,-56.25"/>
<text text-anchor="middle" x="147.75" y="-42.75" font-family="Helvetica,sans-Serif" font-size="10.00">profil3d</text>
</a>
</g>
</g>
<!-- Node1&#45;&gt;Node9 -->
<g id="edge10_Node000001_Node000009" class="edge">
<title>Node1&#45;&gt;Node9</title>
<g id="a_edge10_Node000001_Node000009"><a xlink:title=" ">
<path fill="none" stroke="#63b8ff" d="M69.53,-73.51C83.11,-68.79 99.35,-63.13 113.42,-58.23"/>
<polygon fill="#63b8ff" stroke="#63b8ff" points="114.43,-61.59 122.72,-54.99 112.13,-54.98 114.43,-61.59"/>
</a>
</g>
</g>
<!-- Node10 -->
<g id="Node000010" class="node">
<title>Node10</title>
<g id="a_Node000010"><a xlink:href="../../d5/d6e/restart__iter_8f90.html#ace7df67e039f0ebf69200f91d3cb16cc" target="_top" xlink:title="Save current or restore previous good state vector and reduce time step.">
<polygon fill="white" stroke="#666666" points="179,-19.25 116.5,-19.25 116.5,0 179,0 179,-19.25"/>
<text text-anchor="middle" x="147.75" y="-5.75" font-family="Helvetica,sans-Serif" font-size="10.00">restart_iter</text>
</a>
</g>
</g>
<!-- Node1&#45;&gt;Node10 -->
<g id="edge12_Node000001_Node000010" class="edge">
<title>Node1&#45;&gt;Node10</title>
<g id="a_edge12_Node000001_Node000010"><a xlink:title=" ">
<path fill="none" stroke="#63b8ff" d="M52.8,-73.6C67.28,-61.99 92.26,-42.53 115,-27.62 116.03,-26.95 117.09,-26.27 118.17,-25.59"/>
<polygon fill="#63b8ff" stroke="#63b8ff" points="119.95,-28.61 126.74,-20.48 116.36,-22.6 119.95,-28.61"/>
</a>
</g>
</g>
<!-- Node3 -->
<g id="Node000003" class="node">
<title>Node3</title>
<g id="a_Node000003"><a xlink:href="../../d2/d6a/allocate__funct3d_8f90.html#aa28af836c4a986153f038a50689c152a" target="_top" xlink:title="allocate arrays required in funct3d()">
<polygon fill="white" stroke="#666666" points="324.38,-194.25 237.12,-194.25 237.12,-175 324.38,-175 324.38,-194.25"/>
<text text-anchor="middle" x="280.75" y="-180.75" font-family="Helvetica,sans-Serif" font-size="10.00">allocate_funct3d</text>
</a>
</g>
</g>
<!-- Node2&#45;&gt;Node3 -->
<g id="edge2_Node000002_Node000003" class="edge">
<title>Node2&#45;&gt;Node3</title>
<g id="a_edge2_Node000002_Node000003"><a xlink:title=" ">
<path fill="none" stroke="#63b8ff" d="M180.8,-164.23C194.33,-167.02 210.46,-170.34 225.74,-173.49"/>
<polygon fill="#63b8ff" stroke="#63b8ff" points="224.68,-176.85 235.18,-175.44 226.09,-169.99 224.68,-176.85"/>
</a>
</g>
</g>
<!-- Node5 -->
<g id="Node000005" class="node">
<title>Node5</title>
<g id="a_Node000005"><a xlink:href="../../d9/d30/free__mem__ns_8f90.html#a467551106b66f531d5dd780bd24a2d37" target="_top" xlink:title="Free memory depending on the number of flux surfaces ns.">
<polygon fill="white" stroke="#666666" points="318.38,-157.25 243.12,-157.25 243.12,-138 318.38,-138 318.38,-157.25"/>
<text text-anchor="middle" x="280.75" y="-143.75" font-family="Helvetica,sans-Serif" font-size="10.00">free_mem_ns</text>
</a>
</g>
</g>
<!-- Node2&#45;&gt;Node5 -->
<g id="edge4_Node000002_Node000005" class="edge">
<title>Node2&#45;&gt;Node5</title>
<g id="a_edge4_Node000002_Node000005"><a xlink:title=" ">
<path fill="none" stroke="#63b8ff" d="M180.8,-155.18C196.06,-154.01 214.64,-152.6 231.55,-151.3"/>
<polygon fill="#63b8ff" stroke="#63b8ff" points="231.72,-154.8 241.43,-150.55 231.19,-147.82 231.72,-154.8"/>
</a>
</g>
</g>
<!-- Node4 -->
<g id="Node000004" class="node">
<title>Node4</title>
<g id="a_Node000004"><a xlink:href="../../da/dc7/free__mem__funct3d_8f90.html#ad59355935b77a3f3674383e74d424289" target="_top" xlink:title="Free memory required by funct3d()">
<polygon fill="white" stroke="#666666" points="478,-194.25 381,-194.25 381,-175 478,-175 478,-194.25"/>
<text text-anchor="middle" x="429.5" y="-180.75" font-family="Helvetica,sans-Serif" font-size="10.00">free_mem_funct3d</text>
</a>
</g>
</g>
<!-- Node3&#45;&gt;Node4 -->
<g id="edge3_Node000003_Node000004" class="edge">
<title>Node3&#45;&gt;Node4</title>
<g id="a_edge3_Node000003_Node000004"><a xlink:title=" ">
<path fill="none" stroke="#63b8ff" d="M324.59,-184.62C338.61,-184.62 354.45,-184.62 369.45,-184.62"/>
<polygon fill="#63b8ff" stroke="#63b8ff" points="369.2,-188.13 379.2,-184.63 369.2,-181.13 369.2,-188.13"/>
</a>
</g>
</g>
<!-- Node7 -->
<g id="Node000007" class="node">
<title>Node7</title>
<g id="a_Node000007"><a xlink:href="../../d8/dfd/namespacedbgout.html#acdd1612a38e44b6469dc03d9d1c6ceed" target="_top" xlink:title="check if any output is desired for the current iteration check if the given context should be openend...">
<polygon fill="white" stroke="#666666" points="345,-93.25 216.5,-93.25 216.5,-74 345,-74 345,-93.25"/>
<text text-anchor="middle" x="280.75" y="-79.75" font-family="Helvetica,sans-Serif" font-size="10.00">dbgout::open_dbg_context</text>
</a>
</g>
</g>
<!-- Node6&#45;&gt;Node7 -->
<g id="edge6_Node000006_Node000007" class="edge">
<title>Node6&#45;&gt;Node7</title>
<g id="a_edge6_Node000006_Node000007"><a xlink:title=" ">
<path fill="none" stroke="#63b8ff" d="M168.08,-115.17C185.13,-110.35 210.67,-103.14 233.02,-96.82"/>
<polygon fill="#63b8ff" stroke="#63b8ff" points="233.89,-100.21 242.56,-94.13 231.99,-93.48 233.89,-100.21"/>
</a>
</g>
</g>
<!-- Node7&#45;&gt;Node7 -->
<g id="edge7_Node000007_Node000007" class="edge">
<title>Node7&#45;&gt;Node7</title>
<g id="a_edge7_Node000007_Node000007"><a xlink:title=" ">
<path fill="none" stroke="#63b8ff" d="M259.93,-93.54C250.43,-102.15 257.37,-111.25 280.75,-111.25 293.54,-111.25 301.4,-108.53 304.36,-104.65"/>
<polygon fill="#63b8ff" stroke="#63b8ff" points="307.77,-103.86 301.94,-95.01 300.98,-105.56 307.77,-103.86"/>
</a>
</g>
</g>
<!-- Node8&#45;&gt;Node7 -->
<g id="edge9_Node000008_Node000007" class="edge">
<title>Node8&#45;&gt;Node7</title>
<g id="a_edge9_Node000008_Node000007"><a xlink:title=" ">
<path fill="none" stroke="#63b8ff" d="M171.57,-83.62C181.11,-83.62 192.79,-83.62 204.91,-83.62"/>
<polygon fill="#63b8ff" stroke="#63b8ff" points="204.6,-87.13 214.6,-83.63 204.6,-80.13 204.6,-87.13"/>
</a>
</g>
</g>
<!-- Node9&#45;&gt;Node7 -->
<g id="edge11_Node000009_Node000007" class="edge">
<title>Node9&#45;&gt;Node7</title>
<g id="a_edge11_Node000009_Node000007"><a xlink:title=" ">
<path fill="none" stroke="#63b8ff" d="M171.57,-53.07C188.53,-57.86 212.26,-64.56 233.17,-70.47"/>
<polygon fill="#63b8ff" stroke="#63b8ff" points="232.09,-73.8 242.66,-73.15 233.99,-67.06 232.09,-73.8"/>
</a>
</g>
</g>
</g>
</svg>
