<?xml version="1.0" encoding="UTF-8" standalone="no"?>
<!DOCTYPE svg PUBLIC "-//W3C//DTD SVG 1.1//EN"
 "http://www.w3.org/Graphics/SVG/1.1/DTD/svg11.dtd">
<!-- Generated by graphviz version 8.0.5 (20230430.1635)
 -->
<!-- Title: initialize_radial Pages: 1 -->
<svg width="486pt" height="202pt"
 viewBox="0.00 0.00 486.00 202.25" xmlns="http://www.w3.org/2000/svg" xmlns:xlink="http://www.w3.org/1999/xlink">
<g id="graph0" class="graph" transform="scale(1 1) rotate(0) translate(4 198.25)">
<title>initialize_radial</title>
<!-- Node1 -->
<g id="Node000001" class="node">
<title>Node1</title>
<g id="a_Node000001"><a xlink:title="Allocates memory for radial arrays and initializes radial profiles.">
<polygon fill="#999999" stroke="#666666" points="79,-93.25 0,-93.25 0,-74 79,-74 79,-93.25"/>
<text text-anchor="middle" x="39.5" y="-79.75" font-family="Helvetica,sans-Serif" font-size="10.00">initialize_radial</text>
</a>
</g>
</g>
<!-- Node2 -->
<g id="Node000002" class="node">
<title>Node2</title>
<g id="a_Node000002"><a xlink:href="../../d7/df2/allocate__ns_8f90.html#aeb3e662fed5b934054b3febb084ed659" target="_top" xlink:title="allocate arrays depending on the number of flux surfaces ns">
<polygon fill="white" stroke="#666666" points="180.5,-167.25 115,-167.25 115,-148 180.5,-148 180.5,-167.25"/>
<text text-anchor="middle" x="147.75" y="-153.75" font-family="Helvetica,sans-Serif" font-size="10.00">allocate_ns</text>
</a>
</g>
</g>
<!-- Node1&#45;&gt;Node2 -->
<g id="edge1_Node000001_Node000002" class="edge">
<title>Node1&#45;&gt;Node2</title>
<g id="a_edge1_Node000001_Node000002"><a xlink:title=" ">
<path fill="none" stroke="#63b8ff" d="M52.8,-93.65C67.28,-105.26 92.26,-124.72 115,-139.62 116.29,-140.47 117.63,-141.32 118.98,-142.16"/>
<polygon fill="#63b8ff" stroke="#63b8ff" points="116.66,-145.45 127.04,-147.55 120.23,-139.43 116.66,-145.45"/>
</a>
</g>
</g>
<!-- Node6 -->
<g id="Node000006" class="node">
<title>Node6</title>
<g id="a_Node000006"><a xlink:href="../../dc/df5/interp_8f90.html#a5bac7725cb89730c4bd187e158dc36ee" target="_top" xlink:title="Interpolate , &#160;and &#160;on full grid.">
<polygon fill="white" stroke="#666666" points="167.75,-130.25 127.75,-130.25 127.75,-111 167.75,-111 167.75,-130.25"/>
<text text-anchor="middle" x="147.75" y="-116.75" font-family="Helvetica,sans-Serif" font-size="10.00">interp</text>
</a>
</g>
</g>
<!-- Node1&#45;&gt;Node6 -->
<g id="edge5_Node000001_Node000006" class="edge">
<title>Node1&#45;&gt;Node6</title>
<g id="a_edge5_Node000001_Node000006"><a xlink:title=" ">
<path fill="none" stroke="#63b8ff" d="M69.53,-93.74C84.37,-98.9 102.38,-105.17 117.27,-110.36"/>
<polygon fill="#63b8ff" stroke="#63b8ff" points="115.88,-113.93 126.48,-113.91 118.19,-107.32 115.88,-113.93"/>
</a>
</g>
</g>
<!-- Node8 -->
<g id="Node000008" class="node">
<title>Node8</title>
<g id="a_Node000008"><a xlink:href="../../d7/d61/profil1d_8f90.html#a2bc38da2d3b36d16295159df2f8573e2" target="_top" xlink:title="Compute phip and iota profiles on full grid.">
<polygon fill="white" stroke="#666666" points="171.12,-93.25 124.38,-93.25 124.38,-74 171.12,-74 171.12,-93.25"/>
<text text-anchor="middle" x="147.75" y="-79.75" font-family="Helvetica,sans-Serif" font-size="10.00">profil1d</text>
</a>
</g>
</g>
<!-- Node1&#45;&gt;Node8 -->
<g id="edge8_Node000001_Node000008" class="edge">
<title>Node1&#45;&gt;Node8</title>
<g id="a_edge8_Node000001_Node000008"><a xlink:title=" ">
<path fill="none" stroke="#63b8ff" d="M79.46,-83.62C90.63,-83.62 102.69,-83.62 113.48,-83.62"/>
<polygon fill="#63b8ff" stroke="#63b8ff" points="113.17,-87.13 123.17,-83.62 113.17,-80.13 113.17,-87.13"/>
</a>
</g>
</g>
<!-- Node9 -->
<g id="Node000009" class="node">
<title>Node9</title>
<g id="a_Node000009"><a xlink:href="../../dd/d75/profil3d_8f90.html#a67d2774ceac255f1e1f75e54f4679e9c" target="_top" xlink:title="Compute three&#45;dimensional profiles of flux&#45;surface geometry etc.">
<polygon fill="white" stroke="#666666" points="171.12,-56.25 124.38,-56.25 124.38,-37 171.12,-37 171.12,-56.25"/>
<text text-anchor="middle" x="147.75" y="-42.75" font-family="Helvetica,sans-Serif" font-size="10.00">profil3d</text>
</a>
</g>
</g>
<!-- Node1&#45;&gt;Node9 -->
<g id="edge10_Node000001_Node000009" class="edge">
<title>Node1&#45;&gt;Node9</title>
<g id="a_edge10_Node000001_Node000009"><a xlink:title=" ">
<path fill="none" stroke="#63b8ff" d="M69.53,-73.51C83.24,-68.74 99.67,-63.02 113.84,-58.09"/>
<polygon fill="#63b8ff" stroke="#63b8ff" points="114.86,-61.09 123.15,-54.49 112.56,-54.48 114.86,-61.09"/>
</a>
</g>
</g>
<!-- Node10 -->
<g id="Node000010" class="node">
<title>Node10</title>
<g id="a_Node000010"><a xlink:href="../../d5/d6e/restart__iter_8f90.html#ace7df67e039f0ebf69200f91d3cb16cc" target="_top" xlink:title="Save current or restore previous good state vector and reduce time step.">
<polygon fill="white" stroke="#666666" points="179,-19.25 116.5,-19.25 116.5,0 179,0 179,-19.25"/>
<text text-anchor="middle" x="147.75" y="-5.75" font-family="Helvetica,sans-Serif" font-size="10.00">restart_iter</text>
</a>
</g>
</g>
<!-- Node1&#45;&gt;Node10 -->
<g id="edge12_Node000001_Node000010" class="edge">
<title>Node1&#45;&gt;Node10</title>
<g id="a_edge12_Node000001_Node000010"><a xlink:title=" ">
<path fill="none" stroke="#63b8ff" d="M52.8,-73.6C67.28,-61.99 92.26,-42.53 115,-27.62 116.29,-26.78 117.63,-25.93 118.98,-25.09"/>
<polygon fill="#63b8ff" stroke="#63b8ff" points="120.23,-27.82 127.04,-19.7 116.66,-21.8 120.23,-27.82"/>
</a>
</g>
</g>
<!-- Node3 -->
<g id="Node000003" class="node">
<title>Node3</title>
<g id="a_Node000003"><a xlink:href="../../d2/d6a/allocate__funct3d_8f90.html#aa28af836c4a986153f038a50689c152a" target="_top" xlink:title="allocate arrays required in funct3d()">
<polygon fill="white" stroke="#666666" points="324.38,-194.25 237.12,-194.25 237.12,-175 324.38,-175 324.38,-194.25"/>
<text text-anchor="middle" x="280.75" y="-180.75" font-family="Helvetica,sans-Serif" font-size="10.00">allocate_funct3d</text>
</a>
</g>
</g>
<!-- Node2&#45;&gt;Node3 -->
<g id="edge2_Node000002_Node000003" class="edge">
<title>Node2&#45;&gt;Node3</title>
<g id="a_edge2_Node000002_Node000003"><a xlink:title=" ">
<path fill="none" stroke="#63b8ff" d="M180.8,-164.23C194.46,-167.05 210.78,-170.41 226.18,-173.58"/>
<polygon fill="#63b8ff" stroke="#63b8ff" points="225.16,-177.15 235.66,-175.74 226.57,-170.3 225.16,-177.15"/>
</a>
</g>
</g>
<!-- Node5 -->
<g id="Node000005" class="node">
<title>Node5</title>
<g id="a_Node000005"><a xlink:href="../../d9/d30/free__mem__ns_8f90.html#a467551106b66f531d5dd780bd24a2d37" target="_top" xlink:title="Free memory depending on the number of flux surfaces ns.">
<polygon fill="white" stroke="#666666" points="318.38,-157.25 243.12,-157.25 243.12,-138 318.38,-138 318.38,-157.25"/>
<text text-anchor="middle" x="280.75" y="-143.75" font-family="Helvetica,sans-Serif" font-size="10.00">free_mem_ns</text>
</a>
</g>
</g>
<!-- Node2&#45;&gt;Node5 -->
<g id="edge4_Node000002_Node000005" class="edge">
<title>Node2&#45;&gt;Node5</title>
<g id="a_edge4_Node000002_Node000005"><a xlink:title=" ">
<path fill="none" stroke="#63b8ff" d="M180.8,-155.18C196.21,-154 214.99,-152.57 232.04,-151.27"/>
<polygon fill="#63b8ff" stroke="#63b8ff" points="232.23,-154.69 241.94,-150.44 231.7,-147.71 232.23,-154.69"/>
</a>
</g>
</g>
<!-- Node4 -->
<g id="Node000004" class="node">
<title>Node4</title>
<g id="a_Node000004"><a xlink:href="../../da/dc7/free__mem__funct3d_8f90.html#ad59355935b77a3f3674383e74d424289" target="_top" xlink:title="Free memory required by funct3d()">
<polygon fill="white" stroke="#666666" points="478,-194.25 381,-194.25 381,-175 478,-175 478,-194.25"/>
<text text-anchor="middle" x="429.5" y="-180.75" font-family="Helvetica,sans-Serif" font-size="10.00">free_mem_funct3d</text>
</a>
</g>
</g>
<!-- Node3&#45;&gt;Node4 -->
<g id="edge3_Node000003_Node000004" class="edge">
<title>Node3&#45;&gt;Node4</title>
<g id="a_edge3_Node000003_Node000004"><a xlink:title=" ">
<path fill="none" stroke="#63b8ff" d="M324.59,-184.62C338.75,-184.62 354.76,-184.62 369.89,-184.62"/>
<polygon fill="#63b8ff" stroke="#63b8ff" points="369.72,-188.13 379.72,-184.62 369.72,-181.13 369.72,-188.13"/>
</a>
</g>
</g>
<!-- Node7 -->
<g id="Node000007" class="node">
<title>Node7</title>
<g id="a_Node000007"><a xlink:href="../../d8/dfd/namespacedbgout.html#acdd1612a38e44b6469dc03d9d1c6ceed" target="_top" xlink:title="check if any output is desired for the current iteration check if the given context should be openend...">
<polygon fill="white" stroke="#666666" points="345,-93.25 216.5,-93.25 216.5,-74 345,-74 345,-93.25"/>
<text text-anchor="middle" x="280.75" y="-79.75" font-family="Helvetica,sans-Serif" font-size="10.00">dbgout::open_dbg_context</text>
</a>
</g>
</g>
<!-- Node6&#45;&gt;Node7 -->
<g id="edge6_Node000006_Node000007" class="edge">
<title>Node6&#45;&gt;Node7</title>
<g id="a_edge6_Node000006_Node000007"><a xlink:title=" ">
<path fill="none" stroke="#63b8ff" d="M168.08,-115.17C185.28,-110.31 211.13,-103.01 233.63,-96.65"/>
<polygon fill="#63b8ff" stroke="#63b8ff" points="234.35,-99.8 243.02,-93.72 232.44,-93.07 234.35,-99.8"/>
</a>
</g>
</g>
<!-- Node7&#45;&gt;Node7 -->
<g id="edge7_Node000007_Node000007" class="edge">
<title>Node7&#45;&gt;Node7</title>
<g id="a_edge7_Node000007_Node000007"><a xlink:title=" ">
<path fill="none" stroke="#63b8ff" d="M259.93,-93.54C250.43,-102.15 257.37,-111.25 280.75,-111.25 294.27,-111.25 302.29,-108.21 304.82,-103.98"/>
<polygon fill="#63b8ff" stroke="#63b8ff" points="307.88,-103.05 301.57,-94.54 301.2,-105.13 307.88,-103.05"/>
</a>
</g>
</g>
<!-- Node8&#45;&gt;Node7 -->
<g id="edge9_Node000008_Node000007" class="edge">
<title>Node8&#45;&gt;Node7</title>
<g id="a_edge9_Node000008_Node000007"><a xlink:title=" ">
<path fill="none" stroke="#63b8ff" d="M171.57,-83.62C181.21,-83.62 193.03,-83.62 205.28,-83.62"/>
<polygon fill="#63b8ff" stroke="#63b8ff" points="205.11,-87.13 215.11,-83.62 205.11,-80.13 205.11,-87.13"/>
</a>
</g>
</g>
<!-- Node9&#45;&gt;Node7 -->
<g id="edge11_Node000009_Node000007" class="edge">
<title>Node9&#45;&gt;Node7</title>
<g id="a_edge11_Node000009_Node000007"><a xlink:title=" ">
<path fill="none" stroke="#63b8ff" d="M171.57,-53.07C188.69,-57.91 212.7,-64.69 233.75,-70.63"/>
<polygon fill="#63b8ff" stroke="#63b8ff" points="232.55,-74.21 243.12,-73.56 234.45,-67.48 232.55,-74.21"/>
</a>
</g>
</g>
</g>
</svg>
