<?xml version="1.0" encoding="UTF-8" standalone="no"?>
<!DOCTYPE svg PUBLIC "-//W3C//DTD SVG 1.1//EN"
 "http://www.w3.org/Graphics/SVG/1.1/DTD/svg11.dtd">
<!-- Generated by graphviz version 7.1.0 (20230121.1956)
 -->
<!-- Title: jxbforce Pages: 1 -->
<svg width="329pt" height="222pt"
 viewBox="0.00 0.00 329.00 222.00" xmlns="http://www.w3.org/2000/svg" xmlns:xlink="http://www.w3.org/1999/xlink">
<g id="graph0" class="graph" transform="scale(1 1) rotate(0) translate(4 218)">
<title>jxbforce</title>
<!-- Node1 -->
<g id="node1" class="node">
<title>Node1</title>
<g id="a_node1"><a xlink:title="Program for computing local &#160;force balance.">
<polygon fill="#999999" stroke="#666666" points="50,-121 0,-121 0,-102 50,-102 50,-121"/>
<text text-anchor="middle" x="25" y="-109" font-family="Helvetica,sans-Serif" font-size="10.00">jxbforce</text>
</a>
</g>
</g>
<!-- Node2 -->
<g id="node2" class="node">
<title>Node2</title>
<g id="a_node2"><a xlink:href="../../d9/d8e/fext__fft_8f90.html#a5558cd119122c53bb067ab7fc61b9fee" target="_top" xlink:title="Extends &#160;from ntheta2 interval to full ntheta3 interval in angle .">
<polygon fill="white" stroke="#666666" points="141,-214 95,-214 95,-195 141,-195 141,-214"/>
<text text-anchor="middle" x="118" y="-202" font-family="Helvetica,sans-Serif" font-size="10.00">fext_fft</text>
</a>
</g>
</g>
<!-- Node1&#45;&gt;Node2 -->
<g id="edge1" class="edge">
<title>Node1&#45;&gt;Node2</title>
<path fill="none" stroke="#63b8ff" d="M32.21,-121.46C42.15,-136.82 62.88,-166.58 86,-186.5 86.64,-187.05 87.29,-187.59 87.96,-188.12"/>
<polygon fill="#63b8ff" stroke="#63b8ff" points="85.77,-190.86 95.99,-193.64 89.74,-185.09 85.77,-190.86"/>
</g>
<!-- Node3 -->
<g id="node3" class="node">
<title>Node3</title>
<g id="a_node3"><a xlink:href="../../da/d22/fsym__fft_8f90.html#a019fe7da811a16aec5f0726e33df73ba" target="_top" xlink:title="Contract bs,bu,bv from full nu interval to half&#45;u interval so cos, sin integrals can be performed on ...">
<polygon fill="white" stroke="#666666" points="143.5,-177 92.5,-177 92.5,-158 143.5,-158 143.5,-177"/>
<text text-anchor="middle" x="118" y="-165" font-family="Helvetica,sans-Serif" font-size="10.00">fsym_fft</text>
</a>
</g>
</g>
<!-- Node1&#45;&gt;Node3 -->
<g id="edge2" class="edge">
<title>Node1&#45;&gt;Node3</title>
<path fill="none" stroke="#63b8ff" d="M41.19,-121.35C53.26,-129.12 70.61,-140.16 86,-149.5 87.23,-150.24 88.48,-151 89.76,-151.76"/>
<polygon fill="#63b8ff" stroke="#63b8ff" points="87.85,-154.7 98.25,-156.76 91.4,-148.67 87.85,-154.7"/>
</g>
<!-- Node4 -->
<g id="node4" class="node">
<title>Node4</title>
<g id="a_node4"><a xlink:href="../../d4/d23/fsym__invfft_8f90.html#a50d31cc0bfc47f4d0241f5154c78ef2b" target="_top" xlink:title="Extends function from ntheta2 to ntheta3 range.">
<polygon fill="white" stroke="#666666" points="150,-140 86,-140 86,-121 150,-121 150,-140"/>
<text text-anchor="middle" x="118" y="-128" font-family="Helvetica,sans-Serif" font-size="10.00">fsym_invfft</text>
</a>
</g>
</g>
<!-- Node1&#45;&gt;Node4 -->
<g id="edge3" class="edge">
<title>Node1&#45;&gt;Node4</title>
<path fill="none" stroke="#63b8ff" d="M50.39,-116.59C57.84,-118.15 66.27,-119.91 74.56,-121.64"/>
<polygon fill="#63b8ff" stroke="#63b8ff" points="73.7,-125.03 84.2,-123.65 75.13,-118.18 73.7,-125.03"/>
</g>
<!-- Node5 -->
<g id="node5" class="node">
<title>Node5</title>
<g id="a_node5"><a xlink:href="../../d1/d9b/getbsubs_8f90.html#a5090459bbac22499a3c1c6a97740cd1b" target="_top" xlink:title="Solves the radial force balance &#160;for &#160;in real space using collocation.">
<polygon fill="white" stroke="#666666" points="146,-103 90,-103 90,-84 146,-84 146,-103"/>
<text text-anchor="middle" x="118" y="-91" font-family="Helvetica,sans-Serif" font-size="10.00">getbsubs</text>
</a>
</g>
</g>
<!-- Node1&#45;&gt;Node5 -->
<g id="edge4" class="edge">
<title>Node1&#45;&gt;Node5</title>
<path fill="none" stroke="#63b8ff" d="M50.39,-106.68C58.99,-104.97 68.9,-103.01 78.39,-101.14"/>
<polygon fill="#63b8ff" stroke="#63b8ff" points="79.04,-104.58 88.17,-99.2 77.68,-97.71 79.04,-104.58"/>
</g>
<!-- Node7 -->
<g id="node7" class="node">
<title>Node7</title>
<g id="a_node7"><a xlink:href="../../de/d25/mercier_8f90.html#a6635929818286c4cff963bd148261208" target="_top" xlink:title="Evaluate the Mercier stability criterion.">
<polygon fill="white" stroke="#666666" points="142.5,-27 93.5,-27 93.5,-8 142.5,-8 142.5,-27"/>
<text text-anchor="middle" x="118" y="-15" font-family="Helvetica,sans-Serif" font-size="10.00">mercier</text>
</a>
</g>
</g>
<!-- Node1&#45;&gt;Node7 -->
<g id="edge6" class="edge">
<title>Node1&#45;&gt;Node7</title>
<path fill="none" stroke="#63b8ff" d="M33.21,-101.91C43.94,-87.9 65.13,-61.36 86,-41.5 88.53,-39.09 91.3,-36.68 94.1,-34.37"/>
<polygon fill="#63b8ff" stroke="#63b8ff" points="96.03,-37.3 101.74,-28.38 91.71,-31.8 96.03,-37.3"/>
</g>
<!-- Node8 -->
<g id="node8" class="node">
<title>Node8</title>
<g id="a_node8"><a xlink:href="../../d8/dfd/namespacedbgout.html#acdd1612a38e44b6469dc03d9d1c6ceed" target="_top" xlink:title="check if any output is desired for the current iteration check if the given context should be openend...">
<polygon fill="white" stroke="#666666" points="318,-56 189,-56 189,-37 318,-37 318,-56"/>
<text text-anchor="middle" x="253.5" y="-44" font-family="Helvetica,sans-Serif" font-size="10.00">dbgout::open_dbg_context</text>
</a>
</g>
</g>
<!-- Node1&#45;&gt;Node8 -->
<g id="edge10" class="edge">
<title>Node1&#45;&gt;Node8</title>
<path fill="none" stroke="#63b8ff" d="M39.09,-101.69C50.79,-93.43 68.7,-81.94 86,-75.5 114.89,-64.74 148.1,-57.93 177.23,-53.64"/>
<polygon fill="#63b8ff" stroke="#63b8ff" points="177.68,-57.11 187.1,-52.27 176.71,-50.18 177.68,-57.11"/>
</g>
<!-- Node6 -->
<g id="node6" class="node">
<title>Node6</title>
<g id="a_node6"><a xlink:href="../../d7/d39/solver_8f90.html#a1e815013ed24a9dddc80410103f4a220" target="_top" xlink:title="Solve a linear system of equations using dgesv.">
<polygon fill="white" stroke="#666666" points="275,-111 232,-111 232,-92 275,-92 275,-111"/>
<text text-anchor="middle" x="253.5" y="-99" font-family="Helvetica,sans-Serif" font-size="10.00">solver</text>
</a>
</g>
</g>
<!-- Node5&#45;&gt;Node6 -->
<g id="edge5" class="edge">
<title>Node5&#45;&gt;Node6</title>
<path fill="none" stroke="#63b8ff" d="M146.34,-95.14C167.81,-96.42 197.75,-98.22 220.36,-99.57"/>
<polygon fill="#63b8ff" stroke="#63b8ff" points="220.05,-103.06 230.24,-100.17 220.47,-96.07 220.05,-103.06"/>
</g>
<!-- Node7&#45;&gt;Node8 -->
<g id="edge7" class="edge">
<title>Node7&#45;&gt;Node8</title>
<path fill="none" stroke="#63b8ff" d="M142.87,-22.68C157.59,-25.88 177.15,-30.13 195.66,-34.15"/>
<polygon fill="#63b8ff" stroke="#63b8ff" points="194.71,-37.53 205.22,-36.23 196.19,-30.69 194.71,-37.53"/>
</g>
<!-- Node9 -->
<g id="node9" class="node">
<title>Node9</title>
<g id="a_node9"><a xlink:href="../../d0/d29/namespacesafe__open__mod.html#aab207f9769415b0cccd91260a8382eeb" target="_top" xlink:title=" ">
<polygon fill="white" stroke="#666666" points="321,-19 186,-19 186,0 321,0 321,-19"/>
<text text-anchor="middle" x="253.5" y="-7" font-family="Helvetica,sans-Serif" font-size="10.00">safe_open_mod::safe_open</text>
</a>
</g>
</g>
<!-- Node7&#45;&gt;Node9 -->
<g id="edge9" class="edge">
<title>Node7&#45;&gt;Node9</title>
<path fill="none" stroke="#63b8ff" d="M142.87,-16.07C151.92,-15.53 162.81,-14.87 174.15,-14.2"/>
<polygon fill="#63b8ff" stroke="#63b8ff" points="174.31,-17.69 184.08,-13.6 173.89,-10.7 174.31,-17.69"/>
</g>
<!-- Node8&#45;&gt;Node8 -->
<g id="edge8" class="edge">
<title>Node8&#45;&gt;Node8</title>
<path fill="none" stroke="#63b8ff" d="M232.29,-56.37C222.61,-64.94 229.68,-74 253.5,-74 266.53,-74 274.54,-71.29 277.55,-67.43"/>
<polygon fill="#63b8ff" stroke="#63b8ff" points="280.96,-66.65 275.09,-57.83 274.18,-68.39 280.96,-66.65"/>
</g>
</g>
</svg>
