<?xml version="1.0" encoding="UTF-8" standalone="no"?>
<!DOCTYPE svg PUBLIC "-//W3C//DTD SVG 1.1//EN"
 "http://www.w3.org/Graphics/SVG/1.1/DTD/svg11.dtd">
<!-- Generated by graphviz version 8.0.1 (20230327.1645)
 -->
<!-- Title: jxbforce Pages: 1 -->
<svg width="329pt" height="222pt"
 viewBox="0.00 0.00 329.00 222.00" xmlns="http://www.w3.org/2000/svg" xmlns:xlink="http://www.w3.org/1999/xlink">
<g id="graph0" class="graph" transform="scale(1 1) rotate(0) translate(4 218)">
<title>jxbforce</title>
<!-- Node1 -->
<g id="node1" class="node">
<title>Node1</title>
<g id="a_node1"><a xlink:title="Program for computing local &#160;force balance.">
<polygon fill="#999999" stroke="#666666" points="50,-121 0,-121 0,-102 50,-102 50,-121"/>
<text text-anchor="middle" x="25" y="-109" font-family="Helvetica,sans-Serif" font-size="10.00">jxbforce</text>
</a>
</g>
</g>
<!-- Node2 -->
<g id="node2" class="node">
<title>Node2</title>
<g id="a_node2"><a xlink:href="../../d9/d8e/fext__fft_8f90.html#a5558cd119122c53bb067ab7fc61b9fee" target="_top" xlink:title="Extends &#160;from ntheta2 interval to full ntheta3 interval in angle .">
<polygon fill="white" stroke="#666666" points="141,-214 95,-214 95,-195 141,-195 141,-214"/>
<text text-anchor="middle" x="118" y="-202" font-family="Helvetica,sans-Serif" font-size="10.00">fext_fft</text>
</a>
</g>
</g>
<!-- Node1&#45;&gt;Node2 -->
<g id="edge1" class="edge">
<title>Node1&#45;&gt;Node2</title>
<path fill="none" stroke="#63b8ff" d="M32.21,-121.46C42.15,-136.82 62.88,-166.58 86,-186.5 86.74,-187.14 87.51,-187.77 88.3,-188.39"/>
<polygon fill="#63b8ff" stroke="#63b8ff" points="86.01,-191.74 96.24,-194.5 89.96,-185.97 86.01,-191.74"/>
</g>
<!-- Node3 -->
<g id="node3" class="node">
<title>Node3</title>
<g id="a_node3"><a xlink:href="../../da/d22/fsym__fft_8f90.html#a019fe7da811a16aec5f0726e33df73ba" target="_top" xlink:title="Contract bs,bu,bv from full nu interval to half&#45;u interval so cos, sin integrals can be performed on ...">
<polygon fill="white" stroke="#666666" points="143.5,-177 92.5,-177 92.5,-158 143.5,-158 143.5,-177"/>
<text text-anchor="middle" x="118" y="-165" font-family="Helvetica,sans-Serif" font-size="10.00">fsym_fft</text>
</a>
</g>
</g>
<!-- Node1&#45;&gt;Node3 -->
<g id="edge2" class="edge">
<title>Node1&#45;&gt;Node3</title>
<path fill="none" stroke="#63b8ff" d="M41.19,-121.35C53.26,-129.12 70.61,-140.16 86,-149.5 87.36,-150.33 88.76,-151.17 90.18,-152.01"/>
<polygon fill="#63b8ff" stroke="#63b8ff" points="88.16,-155.47 98.55,-157.53 91.71,-149.44 88.16,-155.47"/>
</g>
<!-- Node4 -->
<g id="node4" class="node">
<title>Node4</title>
<g id="a_node4"><a xlink:href="../../d4/d23/fsym__invfft_8f90.html#a50d31cc0bfc47f4d0241f5154c78ef2b" target="_top" xlink:title="Extends function from ntheta2 to ntheta3 range.">
<polygon fill="white" stroke="#666666" points="150,-140 86,-140 86,-121 150,-121 150,-140"/>
<text text-anchor="middle" x="118" y="-128" font-family="Helvetica,sans-Serif" font-size="10.00">fsym_invfft</text>
</a>
</g>
</g>
<!-- Node1&#45;&gt;Node4 -->
<g id="edge3" class="edge">
<title>Node1&#45;&gt;Node4</title>
<path fill="none" stroke="#63b8ff" d="M50.39,-116.59C58.01,-118.18 66.65,-119.99 75.13,-121.76"/>
<polygon fill="#63b8ff" stroke="#63b8ff" points="74.18,-125.34 84.68,-123.96 75.61,-118.49 74.18,-125.34"/>
</g>
<!-- Node5 -->
<g id="node5" class="node">
<title>Node5</title>
<g id="a_node5"><a xlink:href="../../d1/d9b/getbsubs_8f90.html#a5090459bbac22499a3c1c6a97740cd1b" target="_top" xlink:title="Solves the radial force balance &#160;for &#160;in real space using collocation.">
<polygon fill="white" stroke="#666666" points="146,-103 90,-103 90,-84 146,-84 146,-103"/>
<text text-anchor="middle" x="118" y="-91" font-family="Helvetica,sans-Serif" font-size="10.00">getbsubs</text>
</a>
</g>
</g>
<!-- Node1&#45;&gt;Node5 -->
<g id="edge4" class="edge">
<title>Node1&#45;&gt;Node5</title>
<path fill="none" stroke="#63b8ff" d="M50.39,-106.68C59.18,-104.94 69.34,-102.93 79.02,-101.01"/>
<polygon fill="#63b8ff" stroke="#63b8ff" points="79.53,-104.28 88.66,-98.91 78.17,-97.42 79.53,-104.28"/>
</g>
<!-- Node7 -->
<g id="node7" class="node">
<title>Node7</title>
<g id="a_node7"><a xlink:href="../../de/d25/mercier_8f90.html#a6635929818286c4cff963bd148261208" target="_top" xlink:title="Evaluate the Mercier stability criterion.">
<polygon fill="white" stroke="#666666" points="142.5,-27 93.5,-27 93.5,-8 142.5,-8 142.5,-27"/>
<text text-anchor="middle" x="118" y="-15" font-family="Helvetica,sans-Serif" font-size="10.00">mercier</text>
</a>
</g>
</g>
<!-- Node1&#45;&gt;Node7 -->
<g id="edge6" class="edge">
<title>Node1&#45;&gt;Node7</title>
<path fill="none" stroke="#63b8ff" d="M33.21,-101.91C43.94,-87.9 65.13,-61.36 86,-41.5 88.61,-39.01 91.47,-36.53 94.37,-34.15"/>
<polygon fill="#63b8ff" stroke="#63b8ff" points="96.21,-36.36 101.93,-27.44 91.9,-30.85 96.21,-36.36"/>
</g>
<!-- Node8 -->
<g id="node8" class="node">
<title>Node8</title>
<g id="a_node8"><a xlink:href="../../d8/dfd/namespacedbgout.html#acdd1612a38e44b6469dc03d9d1c6ceed" target="_top" xlink:title="check if any output is desired for the current iteration check if the given context should be openend...">
<polygon fill="white" stroke="#666666" points="318,-56 189,-56 189,-37 318,-37 318,-56"/>
<text text-anchor="middle" x="253.5" y="-44" font-family="Helvetica,sans-Serif" font-size="10.00">dbgout::open_dbg_context</text>
</a>
</g>
</g>
<!-- Node1&#45;&gt;Node8 -->
<g id="edge10" class="edge">
<title>Node1&#45;&gt;Node8</title>
<path fill="none" stroke="#63b8ff" d="M39.09,-101.69C50.79,-93.43 68.7,-81.94 86,-75.5 115.14,-64.65 148.69,-57.81 178.01,-53.53"/>
<polygon fill="#63b8ff" stroke="#63b8ff" points="178.17,-56.9 187.6,-52.06 177.21,-49.96 178.17,-56.9"/>
</g>
<!-- Node6 -->
<g id="node6" class="node">
<title>Node6</title>
<g id="a_node6"><a xlink:href="../../d7/d39/solver_8f90.html#a1e815013ed24a9dddc80410103f4a220" target="_top" xlink:title="Solve a linear system of equations using dgesv.">
<polygon fill="white" stroke="#666666" points="275,-111 232,-111 232,-92 275,-92 275,-111"/>
<text text-anchor="middle" x="253.5" y="-99" font-family="Helvetica,sans-Serif" font-size="10.00">solver</text>
</a>
</g>
</g>
<!-- Node5&#45;&gt;Node6 -->
<g id="edge5" class="edge">
<title>Node5&#45;&gt;Node6</title>
<path fill="none" stroke="#63b8ff" d="M146.34,-95.14C168,-96.44 198.3,-98.25 220.99,-99.61"/>
<polygon fill="#63b8ff" stroke="#63b8ff" points="220.56,-103.15 230.75,-100.26 220.98,-96.16 220.56,-103.15"/>
</g>
<!-- Node7&#45;&gt;Node8 -->
<g id="edge7" class="edge">
<title>Node7&#45;&gt;Node8</title>
<path fill="none" stroke="#63b8ff" d="M142.87,-22.68C157.73,-25.91 177.52,-30.21 196.19,-34.27"/>
<polygon fill="#63b8ff" stroke="#63b8ff" points="195.19,-37.85 205.7,-36.55 196.67,-31.01 195.19,-37.85"/>
</g>
<!-- Node9 -->
<g id="node9" class="node">
<title>Node9</title>
<g id="a_node9"><a xlink:href="../../d0/d29/namespacesafe__open__mod.html#aab207f9769415b0cccd91260a8382eeb" target="_top" xlink:title=" ">
<polygon fill="white" stroke="#666666" points="321,-19 186,-19 186,0 321,0 321,-19"/>
<text text-anchor="middle" x="253.5" y="-7" font-family="Helvetica,sans-Serif" font-size="10.00">safe_open_mod::safe_open</text>
</a>
</g>
</g>
<!-- Node7&#45;&gt;Node9 -->
<g id="edge9" class="edge">
<title>Node7&#45;&gt;Node9</title>
<path fill="none" stroke="#63b8ff" d="M142.87,-16.07C152.11,-15.52 163.26,-14.85 174.86,-14.15"/>
<polygon fill="#63b8ff" stroke="#63b8ff" points="174.82,-17.6 184.6,-13.51 174.4,-10.61 174.82,-17.6"/>
</g>
<!-- Node8&#45;&gt;Node8 -->
<g id="edge8" class="edge">
<title>Node8&#45;&gt;Node8</title>
<path fill="none" stroke="#63b8ff" d="M232.29,-56.37C222.61,-64.94 229.68,-74 253.5,-74 267.27,-74 275.44,-70.97 278.02,-66.76"/>
<polygon fill="#63b8ff" stroke="#63b8ff" points="281.08,-65.84 274.71,-57.37 274.41,-67.96 281.08,-65.84"/>
</g>
</g>
</svg>
