<?xml version="1.0" encoding="UTF-8" standalone="no"?>
<!DOCTYPE svg PUBLIC "-//W3C//DTD SVG 1.1//EN"
 "http://www.w3.org/Graphics/SVG/1.1/DTD/svg11.dtd">
<!-- Generated by graphviz version 2.50.0 (20220203.2022)
 -->
<!-- Title: jxbforce Pages: 1 -->
<svg width="329pt" height="227pt"
 viewBox="0.00 0.00 329.00 227.00" xmlns="http://www.w3.org/2000/svg" xmlns:xlink="http://www.w3.org/1999/xlink">
<g id="graph0" class="graph" transform="scale(1 1) rotate(0) translate(4 223)">
<title>jxbforce</title>
<polygon fill="white" stroke="transparent" points="-4,4 -4,-223 325,-223 325,4 -4,4"/>
<!-- Node1 -->
<g id="node1" class="node">
<title>Node1</title>
<g id="a_node1"><a xlink:title="Program for computing local &#160;force balance.">
<polygon fill="#bfbfbf" stroke="black" points="0,-104.5 0,-123.5 50,-123.5 50,-104.5 0,-104.5"/>
<text text-anchor="middle" x="25" y="-111.5" font-family="Helvetica,sans-Serif" font-size="10.00">jxbforce</text>
</a>
</g>
</g>
<!-- Node2 -->
<g id="node2" class="node">
<title>Node2</title>
<g id="a_node2"><a xlink:href="../../d9/d8e/fext__fft_8f90.html#a5558cd119122c53bb067ab7fc61b9fee" target="_top" xlink:title="Extends &#160;from ntheta2 interval to full ntheta3 interval in angle .">
<polygon fill="white" stroke="black" points="95,-199.5 95,-218.5 141,-218.5 141,-199.5 95,-199.5"/>
<text text-anchor="middle" x="118" y="-206.5" font-family="Helvetica,sans-Serif" font-size="10.00">fext_fft</text>
</a>
</g>
</g>
<!-- Node1&#45;&gt;Node2 -->
<g id="edge1" class="edge">
<title>Node1&#45;&gt;Node2</title>
<path fill="none" stroke="midnightblue" d="M32.08,-123.78C41.99,-139.18 62.87,-169.46 86,-190 87.33,-191.18 88.74,-192.33 90.21,-193.45"/>
<polygon fill="midnightblue" stroke="midnightblue" points="88.64,-196.61 98.87,-199.36 92.58,-190.83 88.64,-196.61"/>
</g>
<!-- Node3 -->
<g id="node3" class="node">
<title>Node3</title>
<g id="a_node3"><a xlink:href="../../da/d22/fsym__fft_8f90.html#a019fe7da811a16aec5f0726e33df73ba" target="_top" xlink:title="Contract bs,bu,bv from full nu interval to half&#45;u interval so cos, sin integrals can be performed on ...">
<polygon fill="white" stroke="black" points="92.5,-161.5 92.5,-180.5 143.5,-180.5 143.5,-161.5 92.5,-161.5"/>
<text text-anchor="middle" x="118" y="-168.5" font-family="Helvetica,sans-Serif" font-size="10.00">fsym_fft</text>
</a>
</g>
</g>
<!-- Node1&#45;&gt;Node3 -->
<g id="edge2" class="edge">
<title>Node1&#45;&gt;Node3</title>
<path fill="none" stroke="midnightblue" d="M41.25,-123.75C53.35,-131.46 70.72,-142.48 86,-152 88.16,-153.34 90.4,-154.73 92.65,-156.12"/>
<polygon fill="midnightblue" stroke="midnightblue" points="90.85,-159.12 101.2,-161.38 94.52,-153.16 90.85,-159.12"/>
</g>
<!-- Node4 -->
<g id="node4" class="node">
<title>Node4</title>
<g id="a_node4"><a xlink:href="../../d4/d23/fsym__invfft_8f90.html#a50d31cc0bfc47f4d0241f5154c78ef2b" target="_top" xlink:title="Extends function from ntheta2 to ntheta3 range.">
<polygon fill="white" stroke="black" points="86,-123.5 86,-142.5 150,-142.5 150,-123.5 86,-123.5"/>
<text text-anchor="middle" x="118" y="-130.5" font-family="Helvetica,sans-Serif" font-size="10.00">fsym_invfft</text>
</a>
</g>
</g>
<!-- Node1&#45;&gt;Node4 -->
<g id="edge3" class="edge">
<title>Node1&#45;&gt;Node4</title>
<path fill="none" stroke="midnightblue" d="M50.39,-119.09C58.18,-120.72 67.04,-122.57 75.69,-124.38"/>
<polygon fill="midnightblue" stroke="midnightblue" points="75.18,-127.84 85.68,-126.46 76.61,-120.99 75.18,-127.84"/>
</g>
<!-- Node5 -->
<g id="node5" class="node">
<title>Node5</title>
<g id="a_node5"><a xlink:href="../../d1/d9b/getbsubs_8f90.html#a5090459bbac22499a3c1c6a97740cd1b" target="_top" xlink:title="Solves the radial force balance &#160;for &#160;in real space using collocation.">
<polygon fill="white" stroke="black" points="90,-85.5 90,-104.5 146,-104.5 146,-85.5 90,-85.5"/>
<text text-anchor="middle" x="118" y="-92.5" font-family="Helvetica,sans-Serif" font-size="10.00">getbsubs</text>
</a>
</g>
</g>
<!-- Node1&#45;&gt;Node5 -->
<g id="edge4" class="edge">
<title>Node1&#45;&gt;Node5</title>
<path fill="none" stroke="midnightblue" d="M50.39,-108.91C59.45,-107.02 69.95,-104.82 79.9,-102.75"/>
<polygon fill="midnightblue" stroke="midnightblue" points="80.91,-106.11 89.98,-100.64 79.48,-99.26 80.91,-106.11"/>
</g>
<!-- Node7 -->
<g id="node7" class="node">
<title>Node7</title>
<g id="a_node7"><a xlink:href="../../de/d25/mercier_8f90.html#a6635929818286c4cff963bd148261208" target="_top" xlink:title="Evaluate the Mercier stability criterion.">
<polygon fill="white" stroke="black" points="93.5,-9.5 93.5,-28.5 142.5,-28.5 142.5,-9.5 93.5,-9.5"/>
<text text-anchor="middle" x="118" y="-16.5" font-family="Helvetica,sans-Serif" font-size="10.00">mercier</text>
</a>
</g>
</g>
<!-- Node1&#45;&gt;Node7 -->
<g id="edge6" class="edge">
<title>Node1&#45;&gt;Node7</title>
<path fill="none" stroke="midnightblue" d="M33.18,-104.26C43.88,-90.03 65.02,-63.1 86,-43 88.82,-40.3 91.93,-37.6 95.07,-35.04"/>
<polygon fill="midnightblue" stroke="midnightblue" points="97.48,-37.6 103.22,-28.69 93.18,-32.08 97.48,-37.6"/>
</g>
<!-- Node8 -->
<g id="node8" class="node">
<title>Node8</title>
<g id="a_node8"><a xlink:href="../../d8/dfd/namespacedbgout.html#acdd1612a38e44b6469dc03d9d1c6ceed" target="_top" xlink:title="check if any output is desired for the current iteration check if the given context should be openend...">
<polygon fill="white" stroke="black" points="189,-38.5 189,-57.5 318,-57.5 318,-38.5 189,-38.5"/>
<text text-anchor="middle" x="253.5" y="-45.5" font-family="Helvetica,sans-Serif" font-size="10.00">dbgout::open_dbg_context</text>
</a>
</g>
</g>
<!-- Node1&#45;&gt;Node8 -->
<g id="edge10" class="edge">
<title>Node1&#45;&gt;Node8</title>
<path fill="none" stroke="midnightblue" d="M38.09,-104.28C49.69,-95.48 68.04,-82.88 86,-76 115.26,-64.8 149.12,-58.07 178.63,-54.03"/>
<polygon fill="midnightblue" stroke="midnightblue" points="179.4,-57.46 188.87,-52.71 178.51,-50.52 179.4,-57.46"/>
</g>
<!-- Node6 -->
<g id="node6" class="node">
<title>Node6</title>
<g id="a_node6"><a xlink:href="../../d7/d39/solver_8f90.html#a1e815013ed24a9dddc80410103f4a220" target="_top" xlink:title="Solve a linear system of equations using dgesv.">
<polygon fill="white" stroke="black" points="232,-94.5 232,-113.5 275,-113.5 275,-94.5 232,-94.5"/>
<text text-anchor="middle" x="253.5" y="-101.5" font-family="Helvetica,sans-Serif" font-size="10.00">solver</text>
</a>
</g>
</g>
<!-- Node5&#45;&gt;Node6 -->
<g id="edge5" class="edge">
<title>Node5&#45;&gt;Node6</title>
<path fill="none" stroke="midnightblue" d="M146.02,-96.82C167.85,-98.29 198.61,-100.37 221.46,-101.91"/>
<polygon fill="midnightblue" stroke="midnightblue" points="221.44,-105.41 231.65,-102.59 221.91,-98.43 221.44,-105.41"/>
</g>
<!-- Node7&#45;&gt;Node8 -->
<g id="edge7" class="edge">
<title>Node7&#45;&gt;Node8</title>
<path fill="none" stroke="midnightblue" d="M142.56,-24.12C158.11,-27.5 179.15,-32.07 198.66,-36.3"/>
<polygon fill="midnightblue" stroke="midnightblue" points="198.17,-39.78 208.68,-38.48 199.65,-32.94 198.17,-39.78"/>
</g>
<!-- Node9 -->
<g id="node9" class="node">
<title>Node9</title>
<g id="a_node9"><a xlink:href="../../d0/d29/namespacesafe__open__mod.html#aab207f9769415b0cccd91260a8382eeb" target="_top" xlink:title=" ">
<polygon fill="white" stroke="black" points="186,-0.5 186,-19.5 321,-19.5 321,-0.5 186,-0.5"/>
<text text-anchor="middle" x="253.5" y="-7.5" font-family="Helvetica,sans-Serif" font-size="10.00">safe_open_mod::safe_open</text>
</a>
</g>
</g>
<!-- Node7&#45;&gt;Node9 -->
<g id="edge9" class="edge">
<title>Node7&#45;&gt;Node9</title>
<path fill="none" stroke="midnightblue" d="M142.56,-17.41C152.09,-16.77 163.68,-15.99 175.72,-15.18"/>
<polygon fill="midnightblue" stroke="midnightblue" points="176.16,-18.65 185.9,-14.49 175.69,-11.67 176.16,-18.65"/>
</g>
<!-- Node8&#45;&gt;Node8 -->
<g id="edge8" class="edge">
<title>Node8&#45;&gt;Node8</title>
<path fill="none" stroke="midnightblue" d="M232.85,-57.76C222.8,-66.57 229.68,-76 253.5,-76 268.76,-76 277.07,-72.13 278.43,-67.03"/>
<polygon fill="midnightblue" stroke="midnightblue" points="281.52,-65.37 274.15,-57.76 275.16,-68.3 281.52,-65.37"/>
</g>
</g>
</svg>
