<?xml version="1.0" encoding="UTF-8" standalone="no"?>
<!DOCTYPE svg PUBLIC "-//W3C//DTD SVG 1.1//EN"
 "http://www.w3.org/Graphics/SVG/1.1/DTD/svg11.dtd">
<!-- Generated by graphviz version 9.0.0 (20230911.1827)
 -->
<!-- Title: jxbforce Pages: 1 -->
<svg width="328pt" height="222pt"
 viewBox="0.00 0.00 327.50 222.25" xmlns="http://www.w3.org/2000/svg" xmlns:xlink="http://www.w3.org/1999/xlink">

<svg id="main" version="1.1" xmlns="http://www.w3.org/2000/svg" xmlns:xlink="http://www.w3.org/1999/xlink" xml:space="preserve" onload="init(evt)">
<style type="text/css"><![CDATA[
.node, .edge {opacity: 0.7;}
.node.selected, .edge.selected {opacity: 1;}
.edge:hover path { stroke: red; }
.edge:hover polygon { stroke: red; fill: red; }
]]></style>
<script type="application/ecmascript" xlink:href="../../svg.min.js"/>
<svg id="graph" class="graph">
<g id="graph0" class="graph" transform="scale(1 1) rotate(0) translate(4 218.25)">
<title>jxbforce</title>
<!-- Node1 -->
<g id="Node000001" class="node">
<title>Node1</title>
<g id="a_Node000001"><a xlink:title="Program for computing local &#160;force balance.">
<polygon fill="#999999" stroke="#666666" points="49.75,-121.25 0,-121.25 0,-102 49.75,-102 49.75,-121.25"/>
<text text-anchor="middle" x="24.88" y="-107.75" font-family="Helvetica,sans-Serif" font-size="10.00">jxbforce</text>
</a>
</g>
</g>
<!-- Node2 -->
<g id="Node000002" class="node">
<title>Node2</title>
<g id="a_Node000002"><a xlink:href="../../d9/d8e/fext__fft_8f90.html#a5558cd119122c53bb067ab7fc61b9fee" target="_top" xlink:title="Extends &#160;from ntheta2 interval to full ntheta3 interval in angle .">
<polygon fill="white" stroke="#666666" points="140,-214.25 94.75,-214.25 94.75,-195 140,-195 140,-214.25"/>
<text text-anchor="middle" x="117.38" y="-200.75" font-family="Helvetica,sans-Serif" font-size="10.00">fext_fft</text>
</a>
</g>
</g>
<!-- Node1&#45;&gt;Node2 -->
<g id="edge1_Node000001_Node000002" class="edge">
<title>Node1&#45;&gt;Node2</title>
<g id="a_edge1_Node000001_Node000002"><a xlink:title=" ">
<path fill="none" stroke="#63b8ff" d="M32.08,-121.57C42.01,-136.91 62.71,-166.65 85.75,-186.62 86.38,-187.17 87.03,-187.71 87.69,-188.24"/>
<polygon fill="#63b8ff" stroke="#63b8ff" points="85.4,-190.91 95.61,-193.74 89.39,-185.16 85.4,-190.91"/>
</a>
</g>
</g>
<!-- Node3 -->
<g id="Node000003" class="node">
<title>Node3</title>
<g id="a_Node000003"><a xlink:href="../../da/d22/fsym__fft_8f90.html#a019fe7da811a16aec5f0726e33df73ba" target="_top" xlink:title="Contract bs,bu,bv from full nu interval to half&#45;u interval so cos, sin integrals can be performed on ...">
<polygon fill="white" stroke="#666666" points="142.62,-177.25 92.12,-177.25 92.12,-158 142.62,-158 142.62,-177.25"/>
<text text-anchor="middle" x="117.38" y="-163.75" font-family="Helvetica,sans-Serif" font-size="10.00">fsym_fft</text>
</a>
</g>
</g>
<!-- Node1&#45;&gt;Node3 -->
<g id="edge2_Node000001_Node000003" class="edge">
<title>Node1&#45;&gt;Node3</title>
<g id="a_edge2_Node000001_Node000003"><a xlink:title=" ">
<path fill="none" stroke="#63b8ff" d="M41.04,-121.45C53.09,-129.21 70.41,-140.25 85.75,-149.62 86.96,-150.37 88.21,-151.12 89.47,-151.88"/>
<polygon fill="#63b8ff" stroke="#63b8ff" points="87.46,-154.76 97.84,-156.86 91.04,-148.74 87.46,-154.76"/>
</a>
</g>
</g>
<!-- Node4 -->
<g id="Node000004" class="node">
<title>Node4</title>
<g id="a_Node000004"><a xlink:href="../../d4/d23/fsym__invfft_8f90.html#a50d31cc0bfc47f4d0241f5154c78ef2b" target="_top" xlink:title="Extends function from ntheta2 to ntheta3 range.">
<polygon fill="white" stroke="#666666" points="149,-140.25 85.75,-140.25 85.75,-121 149,-121 149,-140.25"/>
<text text-anchor="middle" x="117.38" y="-126.75" font-family="Helvetica,sans-Serif" font-size="10.00">fsym_invfft</text>
</a>
</g>
</g>
<!-- Node1&#45;&gt;Node4 -->
<g id="edge3_Node000001_Node000004" class="edge">
<title>Node1&#45;&gt;Node4</title>
<g id="a_edge3_Node000001_Node000004"><a xlink:title=" ">
<path fill="none" stroke="#63b8ff" d="M50.13,-116.72C57.61,-118.29 66.09,-120.07 74.41,-121.81"/>
<polygon fill="#63b8ff" stroke="#63b8ff" points="73.58,-125.22 84.08,-123.85 75.01,-118.36 73.58,-125.22"/>
</a>
</g>
</g>
<!-- Node5 -->
<g id="Node000005" class="node">
<title>Node5</title>
<g id="a_Node000005"><a xlink:href="../../d1/d9b/getbsubs_8f90.html#a5090459bbac22499a3c1c6a97740cd1b" target="_top" xlink:title="Solves the radial force balance &#160;for &#160;in real space using collocation.">
<polygon fill="white" stroke="#666666" points="145.25,-103.25 89.5,-103.25 89.5,-84 145.25,-84 145.25,-103.25"/>
<text text-anchor="middle" x="117.38" y="-89.75" font-family="Helvetica,sans-Serif" font-size="10.00">getbsubs</text>
</a>
</g>
</g>
<!-- Node1&#45;&gt;Node5 -->
<g id="edge4_Node000001_Node000005" class="edge">
<title>Node1&#45;&gt;Node5</title>
<g id="a_edge4_Node000001_Node000005"><a xlink:title=" ">
<path fill="none" stroke="#63b8ff" d="M50.13,-106.8C58.69,-105.1 68.54,-103.14 77.98,-101.26"/>
<polygon fill="#63b8ff" stroke="#63b8ff" points="78.57,-104.71 87.7,-99.33 77.21,-97.85 78.57,-104.71"/>
</a>
</g>
</g>
<!-- Node7 -->
<g id="Node000007" class="node">
<title>Node7</title>
<g id="a_Node000007"><a xlink:href="../../de/d25/mercier_8f90.html#a6635929818286c4cff963bd148261208" target="_top" xlink:title="Evaluate the Mercier stability criterion.">
<polygon fill="white" stroke="#666666" points="141.5,-27.25 93.25,-27.25 93.25,-8 141.5,-8 141.5,-27.25"/>
<text text-anchor="middle" x="117.38" y="-13.75" font-family="Helvetica,sans-Serif" font-size="10.00">mercier</text>
</a>
</g>
</g>
<!-- Node1&#45;&gt;Node7 -->
<g id="edge6_Node000001_Node000007" class="edge">
<title>Node1&#45;&gt;Node7</title>
<g id="a_edge6_Node000001_Node000007"><a xlink:title=" ">
<path fill="none" stroke="#63b8ff" d="M33.44,-101.57C44.28,-87.47 65.19,-61.32 85.75,-41.62 88.17,-39.3 90.81,-36.98 93.49,-34.74"/>
<polygon fill="#63b8ff" stroke="#63b8ff" points="95.65,-37.49 101.29,-28.53 91.29,-32.01 95.65,-37.49"/>
</a>
</g>
</g>
<!-- Node8 -->
<g id="Node000008" class="node">
<title>Node8</title>
<g id="a_Node000008"><a xlink:href="../../d8/dfd/namespacedbgout.html#acdd1612a38e44b6469dc03d9d1c6ceed" target="_top" xlink:title="check if any output is desired for the current iteration check if the given context should be openend...">
<polygon fill="white" stroke="#666666" points="316.5,-56.25 188,-56.25 188,-37 316.5,-37 316.5,-56.25"/>
<text text-anchor="middle" x="252.25" y="-42.75" font-family="Helvetica,sans-Serif" font-size="10.00">dbgout::open_dbg_context</text>
</a>
</g>
</g>
<!-- Node1&#45;&gt;Node8 -->
<g id="edge10_Node000001_Node000008" class="edge">
<title>Node1&#45;&gt;Node8</title>
<g id="a_edge10_Node000001_Node000008"><a xlink:title=" ">
<path fill="none" stroke="#63b8ff" d="M38.89,-101.51C50.52,-92.99 68.37,-81.18 85.75,-74.62 114.4,-63.82 147.4,-57.17 176.36,-53.08"/>
<polygon fill="#63b8ff" stroke="#63b8ff" points="176.71,-56.57 186.16,-51.79 175.79,-49.63 176.71,-56.57"/>
</a>
</g>
</g>
<!-- Node6 -->
<g id="Node000006" class="node">
<title>Node6</title>
<g id="a_Node000006"><a xlink:href="../../d7/d39/solver_8f90.html#a1e815013ed24a9dddc80410103f4a220" target="_top" xlink:title="Solve a linear system of equations using dgesv.">
<polygon fill="white" stroke="#666666" points="273.38,-111.25 231.12,-111.25 231.12,-92 273.38,-92 273.38,-111.25"/>
<text text-anchor="middle" x="252.25" y="-97.75" font-family="Helvetica,sans-Serif" font-size="10.00">solver</text>
</a>
</g>
</g>
<!-- Node5&#45;&gt;Node6 -->
<g id="edge5_Node000005_Node000006" class="edge">
<title>Node5&#45;&gt;Node6</title>
<g id="a_edge5_Node000005_Node000006"><a xlink:title=" ">
<path fill="none" stroke="#63b8ff" d="M145.58,-95.26C167.08,-96.56 197.11,-98.37 219.67,-99.72"/>
<polygon fill="#63b8ff" stroke="#63b8ff" points="219.31,-103.21 229.5,-100.32 219.73,-96.22 219.31,-103.21"/>
</a>
</g>
</g>
<!-- Node7&#45;&gt;Node8 -->
<g id="edge7_Node000007_Node000008" class="edge">
<title>Node7&#45;&gt;Node8</title>
<g id="a_edge7_Node000007_Node000008"><a xlink:title=" ">
<path fill="none" stroke="#63b8ff" d="M141.82,-22.74C156.26,-25.89 175.45,-30.08 193.71,-34.07"/>
<polygon fill="#63b8ff" stroke="#63b8ff" points="192.93,-37.48 203.44,-36.19 194.42,-30.64 192.93,-37.48"/>
</a>
</g>
</g>
<!-- Node9 -->
<g id="Node000009" class="node">
<title>Node9</title>
<g id="a_Node000009"><a xlink:href="../../d0/d29/namespacesafe__open__mod.html#aab207f9769415b0cccd91260a8382eeb" target="_top" xlink:title=" ">
<polygon fill="white" stroke="#666666" points="319.5,-19.25 185,-19.25 185,0 319.5,0 319.5,-19.25"/>
<text text-anchor="middle" x="252.25" y="-5.75" font-family="Helvetica,sans-Serif" font-size="10.00">safe_open_mod::safe_open</text>
</a>
</g>
</g>
<!-- Node7&#45;&gt;Node9 -->
<g id="edge9_Node000007_Node000009" class="edge">
<title>Node7&#45;&gt;Node9</title>
<g id="a_edge9_Node000007_Node000009"><a xlink:title=" ">
<path fill="none" stroke="#63b8ff" d="M141.82,-16.21C150.97,-15.66 162.02,-15 173.54,-14.3"/>
<polygon fill="#63b8ff" stroke="#63b8ff" points="173.39,-17.82 183.17,-13.72 172.97,-10.83 173.39,-17.82"/>
</a>
</g>
</g>
<!-- Node8&#45;&gt;Node8 -->
<g id="edge8_Node000008_Node000008" class="edge">
<title>Node8&#45;&gt;Node8</title>
<g id="a_edge8_Node000008_Node000008"><a xlink:title=" ">
<path fill="none" stroke="#63b8ff" d="M231.13,-56.54C221.5,-65.15 228.54,-74.25 252.25,-74.25 265.22,-74.25 273.2,-71.53 276.19,-67.65"/>
<polygon fill="#63b8ff" stroke="#63b8ff" points="279.59,-66.83 273.74,-58 272.81,-68.56 279.59,-66.83"/>
</a>
</g>
</g>
</g>
</svg>
</svg>

<style type='text/css'>
<![CDATA[
[data-mouse-over-selected='false'] { opacity: 0.7; }
[data-mouse-over-selected='true']  { opacity: 1.0; }
]]>
</style>
<script type="application/ecmascript"><![CDATA[
document.addEventListener('DOMContentLoaded', (event) => {
  highlightEdges();
  highlightAdjacentNodes();
});
]]></script>
</svg>
