<?xml version="1.0" encoding="UTF-8" standalone="no"?>
<!DOCTYPE svg PUBLIC "-//W3C//DTD SVG 1.1//EN"
 "http://www.w3.org/Graphics/SVG/1.1/DTD/svg11.dtd">
<!-- Generated by graphviz version 2.49.3 (20211215.1918)
 -->
<!-- Title: jxbforce Pages: 1 -->
<svg width="394pt" height="236pt"
 viewBox="0.00 0.00 394.00 236.00" xmlns="http://www.w3.org/2000/svg" xmlns:xlink="http://www.w3.org/1999/xlink">
<g id="graph0" class="graph" transform="scale(1 1) rotate(0) translate(4 232)">
<title>jxbforce</title>
<polygon fill="white" stroke="transparent" points="-4,4 -4,-232 390,-232 390,4 -4,4"/>
<!-- Node1 -->
<g id="node1" class="node">
<title>Node1</title>
<g id="a_node1"><a xlink:title="Program for computing local &#160;force balance.">
<polygon fill="#bfbfbf" stroke="black" points="0,-113.5 0,-132.5 50,-132.5 50,-113.5 0,-113.5"/>
<text text-anchor="middle" x="25" y="-120.5" font-family="Helvetica,sans-Serif" font-size="10.00">jxbforce</text>
</a>
</g>
</g>
<!-- Node2 -->
<g id="node2" class="node">
<title>Node2</title>
<g id="a_node2"><a xlink:href="../../d9/d8e/fext__fft_8f90.html#a5558cd119122c53bb067ab7fc61b9fee" target="_top" xlink:title="Extends &#160;from ntheta2 interval to full ntheta3 interval in angle .">
<polygon fill="white" stroke="black" points="127.5,-208.5 127.5,-227.5 173.5,-227.5 173.5,-208.5 127.5,-208.5"/>
<text text-anchor="middle" x="150.5" y="-215.5" font-family="Helvetica,sans-Serif" font-size="10.00">fext_fft</text>
</a>
</g>
</g>
<!-- Node1&#45;&gt;Node2 -->
<g id="edge1" class="edge">
<title>Node1&#45;&gt;Node2</title>
<path fill="none" stroke="midnightblue" d="M31.06,-132.74C39.97,-148.93 59.99,-181.34 86,-199 95.38,-205.37 106.94,-209.65 117.62,-212.51"/>
<polygon fill="midnightblue" stroke="midnightblue" points="116.95,-215.94 127.49,-214.83 118.56,-209.13 116.95,-215.94"/>
</g>
<!-- Node3 -->
<g id="node3" class="node">
<title>Node3</title>
<g id="a_node3"><a xlink:href="../../da/d22/fsym__fft_8f90.html#a019fe7da811a16aec5f0726e33df73ba" target="_top" xlink:title="Contract bs,bu,bv from full nu interval to half&#45;u interval so cos, sin integrals can be performed on ...">
<polygon fill="white" stroke="black" points="125,-170.5 125,-189.5 176,-189.5 176,-170.5 125,-170.5"/>
<text text-anchor="middle" x="150.5" y="-177.5" font-family="Helvetica,sans-Serif" font-size="10.00">fsym_fft</text>
</a>
</g>
</g>
<!-- Node1&#45;&gt;Node3 -->
<g id="edge2" class="edge">
<title>Node1&#45;&gt;Node3</title>
<path fill="none" stroke="midnightblue" d="M38.76,-132.54C50.52,-140.97 68.72,-153.12 86,-161 95.17,-165.18 105.5,-168.72 115.12,-171.58"/>
<polygon fill="midnightblue" stroke="midnightblue" points="114.23,-174.96 124.81,-174.3 116.13,-168.22 114.23,-174.96"/>
</g>
<!-- Node4 -->
<g id="node4" class="node">
<title>Node4</title>
<g id="a_node4"><a xlink:href="../../d4/d23/fsym__invfft_8f90.html#a50d31cc0bfc47f4d0241f5154c78ef2b" target="_top" xlink:title="Extends function from ntheta2 to ntheta3 range.">
<polygon fill="white" stroke="black" points="118.5,-132.5 118.5,-151.5 182.5,-151.5 182.5,-132.5 118.5,-132.5"/>
<text text-anchor="middle" x="150.5" y="-139.5" font-family="Helvetica,sans-Serif" font-size="10.00">fsym_invfft</text>
</a>
</g>
</g>
<!-- Node1&#45;&gt;Node4 -->
<g id="edge3" class="edge">
<title>Node1&#45;&gt;Node4</title>
<path fill="none" stroke="midnightblue" d="M50.11,-126.71C66.65,-129.25 89.02,-132.69 108.35,-135.67"/>
<polygon fill="midnightblue" stroke="midnightblue" points="108.01,-139.16 118.42,-137.22 109.07,-132.24 108.01,-139.16"/>
</g>
<!-- Node5 -->
<g id="node5" class="node">
<title>Node5</title>
<g id="a_node5"><a xlink:href="../../d1/d9b/getbsubs_8f90.html#a5090459bbac22499a3c1c6a97740cd1b" target="_top" xlink:title="Solves the radial force balance &#160;for &#160;in real space using collocation.">
<polygon fill="white" stroke="black" points="122.5,-94.5 122.5,-113.5 178.5,-113.5 178.5,-94.5 122.5,-94.5"/>
<text text-anchor="middle" x="150.5" y="-101.5" font-family="Helvetica,sans-Serif" font-size="10.00">getbsubs</text>
</a>
</g>
</g>
<!-- Node1&#45;&gt;Node5 -->
<g id="edge4" class="edge">
<title>Node1&#45;&gt;Node5</title>
<path fill="none" stroke="midnightblue" d="M50.11,-119.29C67.8,-116.57 92.16,-112.82 112.34,-109.72"/>
<polygon fill="midnightblue" stroke="midnightblue" points="113.1,-113.14 122.45,-108.16 112.03,-106.22 113.1,-113.14"/>
</g>
<!-- Node7 -->
<g id="node7" class="node">
<title>Node7</title>
<g id="a_node7"><a xlink:href="../../de/d25/mercier_8f90.html#a6635929818286c4cff963bd148261208" target="_top" xlink:title="Evaluate the Mercier stability criterion.">
<polygon fill="white" stroke="black" points="126,-56.5 126,-75.5 175,-75.5 175,-56.5 126,-56.5"/>
<text text-anchor="middle" x="150.5" y="-63.5" font-family="Helvetica,sans-Serif" font-size="10.00">mercier</text>
</a>
</g>
</g>
<!-- Node1&#45;&gt;Node7 -->
<g id="edge6" class="edge">
<title>Node1&#45;&gt;Node7</title>
<path fill="none" stroke="midnightblue" d="M38.76,-113.46C50.52,-105.03 68.72,-92.88 86,-85 95.4,-80.71 106.02,-77.1 115.85,-74.21"/>
<polygon fill="midnightblue" stroke="midnightblue" points="117.02,-77.51 125.72,-71.46 115.15,-70.77 117.02,-77.51"/>
</g>
<!-- Node9 -->
<g id="node9" class="node">
<title>Node9</title>
<g id="a_node9"><a xlink:href="../../d8/dfd/namespacedbgout.html#acdd1612a38e44b6469dc03d9d1c6ceed" target="_top" xlink:title="check if any output is desired for the current iteration check if the given context should be openend...">
<polygon fill="white" stroke="black" points="86,-0.5 86,-19.5 215,-19.5 215,-0.5 86,-0.5"/>
<text text-anchor="middle" x="150.5" y="-7.5" font-family="Helvetica,sans-Serif" font-size="10.00">dbgout::open_dbg_context</text>
</a>
</g>
</g>
<!-- Node1&#45;&gt;Node9 -->
<g id="edge8" class="edge">
<title>Node1&#45;&gt;Node9</title>
<path fill="none" stroke="midnightblue" d="M32.03,-113.16C41.87,-97.67 62.64,-67.28 86,-47 96.09,-38.24 108.54,-30.46 119.74,-24.32"/>
<polygon fill="midnightblue" stroke="midnightblue" points="121.56,-27.32 128.78,-19.56 118.3,-21.12 121.56,-27.32"/>
</g>
<!-- Node6 -->
<g id="node6" class="node">
<title>Node6</title>
<g id="a_node6"><a xlink:href="../../d7/d39/solver_8f90.html#a1e815013ed24a9dddc80410103f4a220" target="_top" xlink:title="Solve a linear system of equations using dgesv.">
<polygon fill="white" stroke="black" points="297,-94.5 297,-113.5 340,-113.5 340,-94.5 297,-94.5"/>
<text text-anchor="middle" x="318.5" y="-101.5" font-family="Helvetica,sans-Serif" font-size="10.00">solver</text>
</a>
</g>
</g>
<!-- Node5&#45;&gt;Node6 -->
<g id="edge5" class="edge">
<title>Node5&#45;&gt;Node6</title>
<path fill="none" stroke="midnightblue" d="M178.54,-104C208.13,-104 255.47,-104 286.52,-104"/>
<polygon fill="midnightblue" stroke="midnightblue" points="286.78,-107.5 296.78,-104 286.77,-100.5 286.78,-107.5"/>
</g>
<!-- Node8 -->
<g id="node8" class="node">
<title>Node8</title>
<g id="a_node8"><a xlink:href="../../d0/d29/namespacesafe__open__mod.html#aab207f9769415b0cccd91260a8382eeb" target="_top" xlink:title=" ">
<polygon fill="white" stroke="black" points="251,-56.5 251,-75.5 386,-75.5 386,-56.5 251,-56.5"/>
<text text-anchor="middle" x="318.5" y="-63.5" font-family="Helvetica,sans-Serif" font-size="10.00">safe_open_mod::safe_open</text>
</a>
</g>
</g>
<!-- Node7&#45;&gt;Node8 -->
<g id="edge7" class="edge">
<title>Node7&#45;&gt;Node8</title>
<path fill="none" stroke="midnightblue" d="M175.28,-66C192.54,-66 216.93,-66 240.64,-66"/>
<polygon fill="midnightblue" stroke="midnightblue" points="240.74,-69.5 250.74,-66 240.74,-62.5 240.74,-69.5"/>
</g>
<!-- Node9&#45;&gt;Node9 -->
<g id="edge9" class="edge">
<title>Node9&#45;&gt;Node9</title>
<path fill="none" stroke="midnightblue" d="M131.39,-19.76C122.09,-28.57 128.46,-38 150.5,-38 164.62,-38 172.31,-34.13 173.57,-29.03"/>
<polygon fill="midnightblue" stroke="midnightblue" points="176.75,-27.58 169.61,-19.76 170.31,-30.33 176.75,-27.58"/>
</g>
</g>
</svg>
