<?xml version="1.0" encoding="UTF-8" standalone="no"?>
<!DOCTYPE svg PUBLIC "-//W3C//DTD SVG 1.1//EN"
 "http://www.w3.org/Graphics/SVG/1.1/DTD/svg11.dtd">
<!-- Generated by graphviz version 8.0.1 (20230327.1645)
 -->
<!-- Title: printout Pages: 1 -->
<svg width="263pt" height="64pt"
 viewBox="0.00 0.00 263.00 64.00" xmlns="http://www.w3.org/2000/svg" xmlns:xlink="http://www.w3.org/1999/xlink">
<g id="graph0" class="graph" transform="scale(1 1) rotate(0) translate(4 60)">
<title>printout</title>
<!-- Node1 -->
<g id="node1" class="node">
<title>Node1</title>
<g id="a_node1"><a xlink:title="Print iteration progress to screen and threed1 output file.">
<polygon fill="#999999" stroke="#666666" points="49,-37 0,-37 0,-18 49,-18 49,-37"/>
<text text-anchor="middle" x="24.5" y="-25" font-family="Helvetica,sans-Serif" font-size="10.00">printout</text>
</a>
</g>
</g>
<!-- Node2 -->
<g id="node2" class="node">
<title>Node2</title>
<g id="a_node2"><a xlink:href="../../de/daf/spectrum_8f90.html#afecccf953acda8cefc93e3f955198fcc" target="_top" xlink:title="Compute the spectral width of the surface geometry Fourier coefficients.">
<polygon fill="white" stroke="#666666" points="142,-37 85,-37 85,-18 142,-18 142,-37"/>
<text text-anchor="middle" x="113.5" y="-25" font-family="Helvetica,sans-Serif" font-size="10.00">spectrum</text>
</a>
</g>
</g>
<!-- Node1&#45;&gt;Node2 -->
<g id="edge1" class="edge">
<title>Node1&#45;&gt;Node2</title>
<path fill="none" stroke="#63b8ff" d="M49.27,-27.5C56.9,-27.5 65.55,-27.5 73.95,-27.5"/>
<polygon fill="#63b8ff" stroke="#63b8ff" points="73.75,-31 83.75,-27.5 73.75,-24 73.75,-31"/>
</g>
<!-- Node3 -->
<g id="node3" class="node">
<title>Node3</title>
<g id="a_node3"><a xlink:href="../../dc/d49/totzsp_8f90.html#aff13f873fb632d486fdffc6ee97857c6" target="_top" xlink:title="Convert from internal representation to &quot;physical&quot; rmnsc, zmncc Fourier form.">
<polygon fill="white" stroke="#666666" points="255,-56 178,-56 178,-37 255,-37 255,-56"/>
<text text-anchor="middle" x="216.5" y="-44" font-family="Helvetica,sans-Serif" font-size="10.00">convert_asym</text>
</a>
</g>
</g>
<!-- Node2&#45;&gt;Node3 -->
<g id="edge2" class="edge">
<title>Node2&#45;&gt;Node3</title>
<path fill="none" stroke="#63b8ff" d="M142.37,-32.74C150,-34.18 158.51,-35.78 166.94,-37.37"/>
<polygon fill="#63b8ff" stroke="#63b8ff" points="166.04,-40.95 176.52,-39.35 167.34,-34.07 166.04,-40.95"/>
</g>
<!-- Node4 -->
<g id="node4" class="node">
<title>Node4</title>
<g id="a_node4"><a xlink:href="../../dc/d49/totzsp_8f90.html#a3264ce8fefaa7ede632c4147049aadc5" target="_top" xlink:title="Convert from internal representation to &quot;physical&quot; rmnss, zmncs Fourier form.">
<polygon fill="white" stroke="#666666" points="252.5,-19 180.5,-19 180.5,0 252.5,0 252.5,-19"/>
<text text-anchor="middle" x="216.5" y="-7" font-family="Helvetica,sans-Serif" font-size="10.00">convert_sym</text>
</a>
</g>
</g>
<!-- Node2&#45;&gt;Node4 -->
<g id="edge3" class="edge">
<title>Node2&#45;&gt;Node4</title>
<path fill="none" stroke="#63b8ff" d="M142.37,-22.53C150.76,-21.04 160.2,-19.35 169.45,-17.71"/>
<polygon fill="#63b8ff" stroke="#63b8ff" points="169.9,-21 179.14,-15.8 168.68,-14.11 169.9,-21"/>
</g>
</g>
</svg>
