<?xml version="1.0" encoding="UTF-8" standalone="no"?>
<!DOCTYPE svg PUBLIC "-//W3C//DTD SVG 1.1//EN"
 "http://www.w3.org/Graphics/SVG/1.1/DTD/svg11.dtd">
<!-- Generated by graphviz version 12.0.0 (20240704.0754)
 -->
<!-- Title: printout Pages: 1 -->
<svg width="334pt" height="100pt"
 viewBox="0.00 0.00 333.50 100.25" xmlns="http://www.w3.org/2000/svg" xmlns:xlink="http://www.w3.org/1999/xlink">
<g id="graph0" class="graph" transform="scale(1 1) rotate(0) translate(4 96.25)">
<title>printout</title>
<!-- Node1 -->
<g id="Node000001" class="node">
<title>Node1</title>
<g id="a_Node000001"><a xlink:title="Print iteration progress to screen and threed1 output file.">
<polygon fill="#999999" stroke="#666666" points="48.25,-55.25 0,-55.25 0,-36 48.25,-36 48.25,-55.25"/>
<text text-anchor="middle" x="24.12" y="-41.75" font-family="Helvetica,sans-Serif" font-size="10.00">printout</text>
</a>
</g>
</g>
<!-- Node2 -->
<g id="Node000002" class="node">
<title>Node2</title>
<g id="a_Node000002"><a xlink:href="../../d8/dfd/namespacedbgout.html#acdd1612a38e44b6469dc03d9d1c6ceed" target="_top" xlink:title="check if any output is desired for the current iteration check if the given context should be openend...">
<polygon fill="white" stroke="#666666" points="212.75,-74.25 84.25,-74.25 84.25,-55 212.75,-55 212.75,-74.25"/>
<text text-anchor="middle" x="148.5" y="-60.75" font-family="Helvetica,sans-Serif" font-size="10.00">dbgout::open_dbg_context</text>
</a>
</g>
</g>
<!-- Node1&#45;&gt;Node2 -->
<g id="edge1_Node000001_Node000002" class="edge">
<title>Node1&#45;&gt;Node2</title>
<g id="a_edge1_Node000001_Node000002"><a xlink:title=" ">
<path fill="none" stroke="#63b8ff" d="M48.72,-49.29C55.77,-50.38 63.91,-51.65 72.43,-52.97"/>
<polygon fill="#63b8ff" stroke="#63b8ff" points="71.87,-56.42 82.29,-54.5 72.94,-49.51 71.87,-56.42"/>
</a>
</g>
</g>
<!-- Node3 -->
<g id="Node000003" class="node">
<title>Node3</title>
<g id="a_Node000003"><a xlink:href="../../de/daf/spectrum_8f90.html#afecccf953acda8cefc93e3f955198fcc" target="_top" xlink:title="Compute the spectral width of the surface geometry Fourier coefficients.">
<polygon fill="white" stroke="#666666" points="176.75,-37.25 120.25,-37.25 120.25,-18 176.75,-18 176.75,-37.25"/>
<text text-anchor="middle" x="148.5" y="-23.75" font-family="Helvetica,sans-Serif" font-size="10.00">spectrum</text>
</a>
</g>
</g>
<!-- Node1&#45;&gt;Node3 -->
<g id="edge3_Node000001_Node000003" class="edge">
<title>Node1&#45;&gt;Node3</title>
<g id="a_edge3_Node000001_Node000003"><a xlink:title=" ">
<path fill="none" stroke="#63b8ff" d="M48.72,-42.15C65.79,-39.64 89.23,-36.2 109,-33.29"/>
<polygon fill="#63b8ff" stroke="#63b8ff" points="109.25,-36.79 118.63,-31.87 108.23,-29.86 109.25,-36.79"/>
</a>
</g>
</g>
<!-- Node2&#45;&gt;Node2 -->
<g id="edge2_Node000002_Node000002" class="edge">
<title>Node2&#45;&gt;Node2</title>
<g id="a_edge2_Node000002_Node000002"><a xlink:title=" ">
<path fill="none" stroke="#63b8ff" d="M129.03,-74.54C120.15,-83.15 126.64,-92.25 148.5,-92.25 160.46,-92.25 167.82,-89.53 170.58,-85.65"/>
<polygon fill="#63b8ff" stroke="#63b8ff" points="174.01,-84.95 168.32,-76.01 167.19,-86.55 174.01,-84.95"/>
</a>
</g>
</g>
<!-- Node4 -->
<g id="Node000004" class="node">
<title>Node4</title>
<g id="a_Node000004"><a xlink:href="../../dc/d49/totzsp_8f90.html#aff13f873fb632d486fdffc6ee97857c6" target="_top" xlink:title="Convert from internal representation to &quot;physical&quot; rmnsc, zmncc Fourier form.">
<polygon fill="white" stroke="#666666" points="325.5,-56.25 248.75,-56.25 248.75,-37 325.5,-37 325.5,-56.25"/>
<text text-anchor="middle" x="287.12" y="-42.75" font-family="Helvetica,sans-Serif" font-size="10.00">convert_asym</text>
</a>
</g>
</g>
<!-- Node3&#45;&gt;Node4 -->
<g id="edge4_Node000003_Node000004" class="edge">
<title>Node3&#45;&gt;Node4</title>
<g id="a_edge4_Node000003_Node000004"><a xlink:title=" ">
<path fill="none" stroke="#63b8ff" d="M177.15,-31.47C194.37,-33.87 217.02,-37.01 237.2,-39.82"/>
<polygon fill="#63b8ff" stroke="#63b8ff" points="236.54,-43.26 246.92,-41.17 237.5,-36.33 236.54,-43.26"/>
</a>
</g>
</g>
<!-- Node5 -->
<g id="Node000005" class="node">
<title>Node5</title>
<g id="a_Node000005"><a xlink:href="../../dc/d49/totzsp_8f90.html#a3264ce8fefaa7ede632c4147049aadc5" target="_top" xlink:title="Convert from internal representation to &quot;physical&quot; rmnss, zmncs Fourier form.">
<polygon fill="white" stroke="#666666" points="322.88,-19.25 251.38,-19.25 251.38,0 322.88,0 322.88,-19.25"/>
<text text-anchor="middle" x="287.12" y="-5.75" font-family="Helvetica,sans-Serif" font-size="10.00">convert_sym</text>
</a>
</g>
</g>
<!-- Node3&#45;&gt;Node5 -->
<g id="edge5_Node000003_Node000005" class="edge">
<title>Node3&#45;&gt;Node5</title>
<g id="a_edge5_Node000003_Node000005"><a xlink:title=" ">
<path fill="none" stroke="#63b8ff" d="M177.15,-23.98C195.11,-21.62 218.97,-18.47 239.78,-15.73"/>
<polygon fill="#63b8ff" stroke="#63b8ff" points="240.01,-19.23 249.47,-14.45 239.1,-12.29 240.01,-19.23"/>
</a>
</g>
</g>
</g>
</svg>
