<?xml version="1.0" encoding="UTF-8" standalone="no"?>
<!DOCTYPE svg PUBLIC "-//W3C//DTD SVG 1.1//EN"
 "http://www.w3.org/Graphics/SVG/1.1/DTD/svg11.dtd">
<!-- Generated by graphviz version 2.47.1 (20210421.1823)
 -->
<!-- Title: fileout Pages: 1 -->
<svg width="668pt" height="1123pt"
 viewBox="0.00 0.00 668.00 1123.00" xmlns="http://www.w3.org/2000/svg" xmlns:xlink="http://www.w3.org/1999/xlink">
<g id="graph0" class="graph" transform="scale(1 1) rotate(0) translate(4 1119)">
<title>fileout</title>
<polygon fill="white" stroke="transparent" points="-4,4 -4,-1119 664,-1119 664,4 -4,4"/>
<!-- Node1 -->
<g id="node1" class="node">
<title>Node1</title>
<g id="a_node1"><a xlink:title="Write the output files.">
<polygon fill="#bfbfbf" stroke="black" points="0,-829.5 0,-848.5 42,-848.5 42,-829.5 0,-829.5"/>
<text text-anchor="middle" x="21" y="-836.5" font-family="Helvetica,sans-Serif" font-size="10.00">fileout</text>
</a>
</g>
</g>
<!-- Node2 -->
<g id="node2" class="node">
<title>Node2</title>
<g id="a_node2"><a xlink:href="../../d0/d22/eqfor_8f90.html#a4579124c405a906bf05b3d3a0da2d105" target="_top" xlink:title="Basis physics analysis and evaluaton of force balance. This is where most of the contents of the thre...">
<polygon fill="white" stroke="black" points="83.5,-1000.5 83.5,-1019.5 121.5,-1019.5 121.5,-1000.5 83.5,-1000.5"/>
<text text-anchor="middle" x="102.5" y="-1007.5" font-family="Helvetica,sans-Serif" font-size="10.00">eqfor</text>
</a>
</g>
</g>
<!-- Node1&#45;&gt;Node2 -->
<g id="edge1" class="edge">
<title>Node1&#45;&gt;Node2</title>
<path fill="none" stroke="midnightblue" d="M26.5,-848.68C39.24,-876.08 75.69,-954.49 92.64,-990.94"/>
<polygon fill="midnightblue" stroke="midnightblue" points="89.66,-992.83 97.05,-1000.42 96.01,-989.88 89.66,-992.83"/>
</g>
<!-- Node15 -->
<g id="node15" class="node">
<title>Node15</title>
<g id="a_node15"><a xlink:href="../../d3/d4f/funct3d_8f90.html#a800bacc22176e16323899df87b55c547" target="_top" xlink:title="Evaluate the three&#45;dimensional MHD energy functional.">
<polygon fill="white" stroke="black" points="78,-456.5 78,-475.5 127,-475.5 127,-456.5 78,-456.5"/>
<text text-anchor="middle" x="102.5" y="-463.5" font-family="Helvetica,sans-Serif" font-size="10.00">funct3d</text>
</a>
</g>
</g>
<!-- Node1&#45;&gt;Node15 -->
<g id="edge14" class="edge">
<title>Node1&#45;&gt;Node15</title>
<path fill="none" stroke="midnightblue" d="M24.05,-829.4C34.59,-779.93 82.88,-553.37 97.37,-485.36"/>
<polygon fill="midnightblue" stroke="midnightblue" points="100.81,-486.04 99.47,-475.53 93.96,-484.58 100.81,-486.04"/>
</g>
<!-- Node55 -->
<g id="node55" class="node">
<title>Node55</title>
<g id="a_node55"><a xlink:href="../../de/d3f/wrout_8f90.html#acfcf1bded82176b6a4a4a4ca430d75a9" target="_top" xlink:title=" ">
<polygon fill="white" stroke="black" points="82,-829.5 82,-848.5 123,-848.5 123,-829.5 82,-829.5"/>
<text text-anchor="middle" x="102.5" y="-836.5" font-family="Helvetica,sans-Serif" font-size="10.00">wrout</text>
</a>
</g>
</g>
<!-- Node1&#45;&gt;Node55 -->
<g id="edge56" class="edge">
<title>Node1&#45;&gt;Node55</title>
<path fill="none" stroke="midnightblue" d="M42.06,-839C51.05,-839 61.83,-839 71.73,-839"/>
<polygon fill="midnightblue" stroke="midnightblue" points="71.99,-842.5 81.99,-839 71.99,-835.5 71.99,-842.5"/>
</g>
<!-- Node3 -->
<g id="node3" class="node">
<title>Node3</title>
<g id="a_node3"><a xlink:href="../../d9/d25/bextrema_8f90.html#aba3f90e7c94f19661c0eea471f1e05a5" target="_top" xlink:title="Computes minimum and maximum &#160;along &#160;between two angle lines ( ).">
<polygon fill="white" stroke="black" points="192,-1057.5 192,-1076.5 248,-1076.5 248,-1057.5 192,-1057.5"/>
<text text-anchor="middle" x="220" y="-1064.5" font-family="Helvetica,sans-Serif" font-size="10.00">bextrema</text>
</a>
</g>
</g>
<!-- Node2&#45;&gt;Node3 -->
<g id="edge2" class="edge">
<title>Node2&#45;&gt;Node3</title>
<path fill="none" stroke="midnightblue" d="M116.67,-1019.73C128.38,-1028.05 146.21,-1039.93 163,-1048 169.16,-1050.96 175.89,-1053.66 182.49,-1056.04"/>
<polygon fill="midnightblue" stroke="midnightblue" points="181.39,-1059.36 191.99,-1059.29 183.66,-1052.74 181.39,-1059.36"/>
</g>
<!-- Node4 -->
<g id="node4" class="node">
<title>Node4</title>
<g id="a_node4"><a xlink:href="../../d7/d77/bss_8f90.html#acdfd6dccfb28d75e1de40c6822f5736b" target="_top" xlink:title="Computes br, bphi, bz, bsubs on half&#45;radial mesh.">
<polygon fill="white" stroke="black" points="204,-1019.5 204,-1038.5 236,-1038.5 236,-1019.5 204,-1019.5"/>
<text text-anchor="middle" x="220" y="-1026.5" font-family="Helvetica,sans-Serif" font-size="10.00">bss</text>
</a>
</g>
</g>
<!-- Node2&#45;&gt;Node4 -->
<g id="edge3" class="edge">
<title>Node2&#45;&gt;Node4</title>
<path fill="none" stroke="midnightblue" d="M121.55,-1012.97C140.96,-1016.16 171.97,-1021.26 193.78,-1024.85"/>
<polygon fill="midnightblue" stroke="midnightblue" points="193.23,-1028.31 203.66,-1026.48 194.36,-1021.4 193.23,-1028.31"/>
</g>
<!-- Node5 -->
<g id="node5" class="node">
<title>Node5</title>
<g id="a_node5"><a xlink:href="../../d9/dff/calc__fbal_8f90.html#a6cdc3d21c48f66aeaff8ab5e639641b6" target="_top" xlink:title="Compute flux&#45;surface averaged radial force balance .">
<polygon fill="white" stroke="black" points="323.5,-683.5 323.5,-702.5 379.5,-702.5 379.5,-683.5 323.5,-683.5"/>
<text text-anchor="middle" x="351.5" y="-690.5" font-family="Helvetica,sans-Serif" font-size="10.00">calc_fbal</text>
</a>
</g>
</g>
<!-- Node2&#45;&gt;Node5 -->
<g id="edge4" class="edge">
<title>Node2&#45;&gt;Node5</title>
<path fill="none" stroke="midnightblue" d="M118.33,-1000.47C159.83,-973.76 274.32,-899.88 277,-896 318.89,-835.3 278.96,-799.43 313,-734 317.61,-725.14 324.62,-716.75 331.34,-709.88"/>
<polygon fill="midnightblue" stroke="midnightblue" points="334.14,-712.05 338.93,-702.6 329.29,-707 334.14,-712.05"/>
</g>
<!-- Node6 -->
<g id="node6" class="node">
<title>Node6</title>
<g id="a_node6"><a xlink:href="../../d4/d21/elongation_8f90.html#ad09a13ed71a559093ad6f28eef38c9c7" target="_top" xlink:title="Compute Waist thickness and height in &#160;symmetry planes.">
<polygon fill="white" stroke="black" points="189.5,-1095.5 189.5,-1114.5 250.5,-1114.5 250.5,-1095.5 189.5,-1095.5"/>
<text text-anchor="middle" x="220" y="-1102.5" font-family="Helvetica,sans-Serif" font-size="10.00">elongation</text>
</a>
</g>
</g>
<!-- Node2&#45;&gt;Node6 -->
<g id="edge5" class="edge">
<title>Node2&#45;&gt;Node6</title>
<path fill="none" stroke="midnightblue" d="M108.57,-1019.64C117.47,-1035.68 137.44,-1067.87 163,-1086 167.99,-1089.54 173.69,-1092.46 179.5,-1094.86"/>
<polygon fill="midnightblue" stroke="midnightblue" points="178.68,-1098.28 189.27,-1098.42 181.08,-1091.71 178.68,-1098.28"/>
</g>
<!-- Node7 -->
<g id="node7" class="node">
<title>Node7</title>
<g id="a_node7"><a xlink:href="../../d6/d53/jxbforce_8f90.html#aef04f343b688724d6ec0ee8f2a9db7c1" target="_top" xlink:title="Program for computing local &#160;force balance.">
<polygon fill="white" stroke="black" points="195,-981.5 195,-1000.5 245,-1000.5 245,-981.5 195,-981.5"/>
<text text-anchor="middle" x="220" y="-988.5" font-family="Helvetica,sans-Serif" font-size="10.00">jxbforce</text>
</a>
</g>
</g>
<!-- Node2&#45;&gt;Node7 -->
<g id="edge6" class="edge">
<title>Node2&#45;&gt;Node7</title>
<path fill="none" stroke="midnightblue" d="M121.55,-1007.03C138.37,-1004.26 163.91,-1000.06 184.63,-996.65"/>
<polygon fill="midnightblue" stroke="midnightblue" points="185.35,-1000.08 194.65,-995.01 184.21,-993.18 185.35,-1000.08"/>
</g>
<!-- Node8 -->
<g id="node8" class="node">
<title>Node8</title>
<g id="a_node8"><a xlink:href="../../da/d22/fsym__fft_8f90.html#a5558cd119122c53bb067ab7fc61b9fee" target="_top" xlink:title="Extends &#160;from ntheta2 interval to full ntheta3 interval in angle .">
<polygon fill="white" stroke="black" points="328.5,-1000.5 328.5,-1019.5 374.5,-1019.5 374.5,-1000.5 328.5,-1000.5"/>
<text text-anchor="middle" x="351.5" y="-1007.5" font-family="Helvetica,sans-Serif" font-size="10.00">fext_fft</text>
</a>
</g>
</g>
<!-- Node7&#45;&gt;Node8 -->
<g id="edge7" class="edge">
<title>Node7&#45;&gt;Node8</title>
<path fill="none" stroke="midnightblue" d="M245.05,-994.53C265.64,-997.55 295.45,-1001.92 318.13,-1005.25"/>
<polygon fill="midnightblue" stroke="midnightblue" points="317.9,-1008.75 328.3,-1006.74 318.92,-1001.83 317.9,-1008.75"/>
</g>
<!-- Node9 -->
<g id="node9" class="node">
<title>Node9</title>
<g id="a_node9"><a xlink:href="../../da/d22/fsym__fft_8f90.html#a019fe7da811a16aec5f0726e33df73ba" target="_top" xlink:title="Contract bs,bu,bv from full nu interval to half&#45;u interval so cos, sin integrals can be performed on ...">
<polygon fill="white" stroke="black" points="326,-962.5 326,-981.5 377,-981.5 377,-962.5 326,-962.5"/>
<text text-anchor="middle" x="351.5" y="-969.5" font-family="Helvetica,sans-Serif" font-size="10.00">fsym_fft</text>
</a>
</g>
</g>
<!-- Node7&#45;&gt;Node9 -->
<g id="edge8" class="edge">
<title>Node7&#45;&gt;Node9</title>
<path fill="none" stroke="midnightblue" d="M245.05,-987.47C264.88,-984.56 293.27,-980.4 315.6,-977.12"/>
<polygon fill="midnightblue" stroke="midnightblue" points="316.31,-980.55 325.69,-975.64 315.29,-973.63 316.31,-980.55"/>
</g>
<!-- Node10 -->
<g id="node10" class="node">
<title>Node10</title>
<g id="a_node10"><a xlink:href="../../d4/d23/fsym__invfft_8f90.html#a50d31cc0bfc47f4d0241f5154c78ef2b" target="_top" xlink:title="Extends function from ntheta2 to ntheta3 range.">
<polygon fill="white" stroke="black" points="319.5,-924.5 319.5,-943.5 383.5,-943.5 383.5,-924.5 319.5,-924.5"/>
<text text-anchor="middle" x="351.5" y="-931.5" font-family="Helvetica,sans-Serif" font-size="10.00">fsym_invfft</text>
</a>
</g>
</g>
<!-- Node7&#45;&gt;Node10 -->
<g id="edge9" class="edge">
<title>Node7&#45;&gt;Node10</title>
<path fill="none" stroke="midnightblue" d="M243.65,-981.4C253.86,-977.04 266.05,-971.8 277,-967 291.22,-960.76 306.94,-953.72 320.17,-947.76"/>
<polygon fill="midnightblue" stroke="midnightblue" points="321.64,-950.93 329.31,-943.63 318.76,-944.55 321.64,-950.93"/>
</g>
<!-- Node11 -->
<g id="node11" class="node">
<title>Node11</title>
<g id="a_node11"><a xlink:href="../../d1/d9b/getbsubs_8f90.html#a5090459bbac22499a3c1c6a97740cd1b" target="_top" xlink:title="Solves the radial force balance &#160;for &#160;in real space using collocation.">
<polygon fill="white" stroke="black" points="323.5,-829.5 323.5,-848.5 379.5,-848.5 379.5,-829.5 323.5,-829.5"/>
<text text-anchor="middle" x="351.5" y="-836.5" font-family="Helvetica,sans-Serif" font-size="10.00">getbsubs</text>
</a>
</g>
</g>
<!-- Node7&#45;&gt;Node11 -->
<g id="edge10" class="edge">
<title>Node7&#45;&gt;Node11</title>
<path fill="none" stroke="midnightblue" d="M245.26,-984.44C255.9,-980.65 267.99,-975.02 277,-967 295.05,-950.94 326.39,-889.08 341.65,-857.61"/>
<polygon fill="midnightblue" stroke="midnightblue" points="344.82,-859.09 346,-848.56 338.51,-856.06 344.82,-859.09"/>
</g>
<!-- Node13 -->
<g id="node13" class="node">
<title>Node13</title>
<g id="a_node13"><a xlink:href="../../de/d25/mercier_8f90.html#a6635929818286c4cff963bd148261208" target="_top" xlink:title="Evaluate the Mercier stability criterion.">
<polygon fill="white" stroke="black" points="327,-1038.5 327,-1057.5 376,-1057.5 376,-1038.5 327,-1038.5"/>
<text text-anchor="middle" x="351.5" y="-1045.5" font-family="Helvetica,sans-Serif" font-size="10.00">mercier</text>
</a>
</g>
</g>
<!-- Node7&#45;&gt;Node13 -->
<g id="edge12" class="edge">
<title>Node7&#45;&gt;Node13</title>
<path fill="none" stroke="midnightblue" d="M245.02,-998.22C255.04,-1001.48 266.72,-1005.58 277,-1010 293.62,-1017.15 296.93,-1020.69 313,-1029 315.98,-1030.54 319.1,-1032.14 322.22,-1033.73"/>
<polygon fill="midnightblue" stroke="midnightblue" points="320.89,-1036.99 331.39,-1038.4 324.06,-1030.74 320.89,-1036.99"/>
</g>
<!-- Node12 -->
<g id="node12" class="node">
<title>Node12</title>
<g id="a_node12"><a xlink:href="../../d7/d39/solver_8f90.html#a1e815013ed24a9dddc80410103f4a220" target="_top" xlink:title=" ">
<polygon fill="white" stroke="black" points="472,-576.5 472,-595.5 515,-595.5 515,-576.5 472,-576.5"/>
<text text-anchor="middle" x="493.5" y="-583.5" font-family="Helvetica,sans-Serif" font-size="10.00">solver</text>
</a>
</g>
</g>
<!-- Node11&#45;&gt;Node12 -->
<g id="edge11" class="edge">
<title>Node11&#45;&gt;Node12</title>
<path fill="none" stroke="midnightblue" d="M357.86,-829.47C365.16,-816.49 378.61,-792.51 390,-772 423.91,-710.95 463.75,-638.42 482.18,-604.82"/>
<polygon fill="midnightblue" stroke="midnightblue" points="485.45,-606.15 487.19,-595.69 479.31,-602.78 485.45,-606.15"/>
</g>
<!-- Node14 -->
<g id="node14" class="node">
<title>Node14</title>
<g id="a_node14"><a xlink:href="../../d0/d29/namespacesafe__open__mod.html#aab207f9769415b0cccd91260a8382eeb" target="_top" xlink:title=" ">
<polygon fill="white" stroke="black" points="426,-1038.5 426,-1057.5 561,-1057.5 561,-1038.5 426,-1038.5"/>
<text text-anchor="middle" x="493.5" y="-1045.5" font-family="Helvetica,sans-Serif" font-size="10.00">safe_open_mod::safe_open</text>
</a>
</g>
</g>
<!-- Node13&#45;&gt;Node14 -->
<g id="edge13" class="edge">
<title>Node13&#45;&gt;Node14</title>
<path fill="none" stroke="midnightblue" d="M376.25,-1048C387.3,-1048 401.13,-1048 415.36,-1048"/>
<polygon fill="midnightblue" stroke="midnightblue" points="415.75,-1051.5 425.75,-1048 415.75,-1044.5 415.75,-1051.5"/>
</g>
<!-- Node16 -->
<g id="node16" class="node">
<title>Node16</title>
<g id="a_node16"><a xlink:href="../../d5/de7/alias_8f90.html#a971bf2e3997d8e5ed08c060b651c88c4" target="_top" xlink:title="Fourier transform alias force from ztemp to gcons and also return intermediate output in g(c,...">
<polygon fill="white" stroke="black" points="201.5,-437.5 201.5,-456.5 238.5,-456.5 238.5,-437.5 201.5,-437.5"/>
<text text-anchor="middle" x="220" y="-444.5" font-family="Helvetica,sans-Serif" font-size="10.00">alias</text>
</a>
</g>
</g>
<!-- Node15&#45;&gt;Node16 -->
<g id="edge15" class="edge">
<title>Node15&#45;&gt;Node16</title>
<path fill="none" stroke="midnightblue" d="M127.15,-462.11C145.75,-459.05 171.7,-454.78 191.28,-451.56"/>
<polygon fill="midnightblue" stroke="midnightblue" points="192.11,-454.97 201.41,-449.89 190.97,-448.06 192.11,-454.97"/>
</g>
<!-- Node17 -->
<g id="node17" class="node">
<title>Node17</title>
<g id="a_node17"><a xlink:href="../../d7/d61/bcovar_8f90.html#a1e1624195f0c0c7daa9f49d83bae5ce8" target="_top" xlink:title="Compute the covariant components of the magnetic field , .">
<polygon fill="white" stroke="black" points="197,-323.5 197,-342.5 243,-342.5 243,-323.5 197,-323.5"/>
<text text-anchor="middle" x="220" y="-330.5" font-family="Helvetica,sans-Serif" font-size="10.00">bcovar</text>
</a>
</g>
</g>
<!-- Node15&#45;&gt;Node17 -->
<g id="edge16" class="edge">
<title>Node15&#45;&gt;Node17</title>
<path fill="none" stroke="midnightblue" d="M105.93,-456.19C111.85,-434.29 129.09,-381.05 163,-352 169.84,-346.14 178.56,-342.07 187.08,-339.24"/>
<polygon fill="midnightblue" stroke="midnightblue" points="188.19,-342.57 196.85,-336.47 186.28,-335.83 188.19,-342.57"/>
</g>
<!-- Node21 -->
<g id="node21" class="node">
<title>Node21</title>
<g id="a_node21"><a xlink:href="../../db/d74/convert_8f90.html#ae6d3862ea21a8d39210a79c6955b5b75" target="_top" xlink:title="Convert internal mode representation to standard form for output (coefficients of cos(mu&#45;nv),...">
<polygon fill="white" stroke="black" points="195.5,-753.5 195.5,-772.5 244.5,-772.5 244.5,-753.5 195.5,-753.5"/>
<text text-anchor="middle" x="220" y="-760.5" font-family="Helvetica,sans-Serif" font-size="10.00">convert</text>
</a>
</g>
</g>
<!-- Node15&#45;&gt;Node21 -->
<g id="edge21" class="edge">
<title>Node15&#45;&gt;Node21</title>
<path fill="none" stroke="midnightblue" d="M104.31,-475.71C108.18,-520.02 126.17,-702.61 163,-744 168.89,-750.61 177.16,-754.93 185.55,-757.74"/>
<polygon fill="midnightblue" stroke="midnightblue" points="184.74,-761.15 195.31,-760.4 186.59,-754.4 184.74,-761.15"/>
</g>
<!-- Node22 -->
<g id="node22" class="node">
<title>Node22</title>
<g id="a_node22"><a xlink:href="../../de/d0c/forces_8f90.html#a7b4708aaec3cc94526474c16bc3a16f0" target="_top" xlink:title="Compute the real&#45;space MHD forces.">
<polygon fill="white" stroke="black" points="198,-247.5 198,-266.5 242,-266.5 242,-247.5 198,-247.5"/>
<text text-anchor="middle" x="220" y="-254.5" font-family="Helvetica,sans-Serif" font-size="10.00">forces</text>
</a>
</g>
</g>
<!-- Node15&#45;&gt;Node22 -->
<g id="edge22" class="edge">
<title>Node15&#45;&gt;Node22</title>
<path fill="none" stroke="midnightblue" d="M103.62,-456.18C104.53,-425.23 111.56,-328.67 163,-276 169.67,-269.17 178.89,-264.79 187.92,-261.99"/>
<polygon fill="midnightblue" stroke="midnightblue" points="189.06,-265.31 197.89,-259.45 187.33,-258.53 189.06,-265.31"/>
</g>
<!-- Node23 -->
<g id="node23" class="node">
<title>Node23</title>
<g id="a_node23"><a xlink:href="../../d8/dc3/jacobian_8f90.html#af346f65d2aa225d9ede6e0f23add6142" target="_top" xlink:title="Evaulate the Jacobian of the transform from flux&#45; to cylindrical coordinates.">
<polygon fill="white" stroke="black" points="193.5,-209.5 193.5,-228.5 246.5,-228.5 246.5,-209.5 193.5,-209.5"/>
<text text-anchor="middle" x="220" y="-216.5" font-family="Helvetica,sans-Serif" font-size="10.00">jacobian</text>
</a>
</g>
</g>
<!-- Node15&#45;&gt;Node23 -->
<g id="edge23" class="edge">
<title>Node15&#45;&gt;Node23</title>
<path fill="none" stroke="midnightblue" d="M103.01,-456.26C101.82,-421.62 102.52,-302.99 163,-238 168.56,-232.03 176.06,-227.93 183.76,-225.13"/>
<polygon fill="midnightblue" stroke="midnightblue" points="184.92,-228.43 193.5,-222.21 182.92,-221.73 184.92,-228.43"/>
</g>
<!-- Node24 -->
<g id="node24" class="node">
<title>Node24</title>
<g id="a_node24"><a xlink:href="../../db/da1/nestor__io_8f90.html#a67b1cb19f12a5860a25a89dbd3dfd9c9" target="_top" xlink:title=" ">
<polygon fill="white" stroke="black" points="167.5,-171.5 167.5,-190.5 272.5,-190.5 272.5,-171.5 167.5,-171.5"/>
<text text-anchor="middle" x="220" y="-178.5" font-family="Helvetica,sans-Serif" font-size="10.00">read_nestor_outputs</text>
</a>
</g>
</g>
<!-- Node15&#45;&gt;Node24 -->
<g id="edge24" class="edge">
<title>Node15&#45;&gt;Node24</title>
<path fill="none" stroke="midnightblue" d="M104.4,-456.42C108.59,-413.51 127.58,-239.43 163,-200 164.2,-198.66 165.5,-197.42 166.88,-196.26"/>
<polygon fill="midnightblue" stroke="midnightblue" points="169.11,-198.98 175.51,-190.54 165.24,-193.15 169.11,-198.98"/>
</g>
<!-- Node25 -->
<g id="node25" class="node">
<title>Node25</title>
<g id="a_node25"><a xlink:href="../../db/d5a/residue_8f90.html#a2d42fddb02336c3ce8846116ab5bf089" target="_top" xlink:title=" ">
<polygon fill="white" stroke="black" points="196,-76.5 196,-95.5 244,-95.5 244,-76.5 196,-76.5"/>
<text text-anchor="middle" x="220" y="-83.5" font-family="Helvetica,sans-Serif" font-size="10.00">residue</text>
</a>
</g>
</g>
<!-- Node15&#45;&gt;Node25 -->
<g id="edge25" class="edge">
<title>Node15&#45;&gt;Node25</title>
<path fill="none" stroke="midnightblue" d="M103.86,-456.35C105.62,-417.64 115.28,-270.56 163,-162 172.7,-139.93 189.75,-118.12 202.49,-103.57"/>
<polygon fill="midnightblue" stroke="midnightblue" points="205.32,-105.66 209.41,-95.89 200.12,-100.98 205.32,-105.66"/>
</g>
<!-- Node31 -->
<g id="node31" class="node">
<title>Node31</title>
<g id="a_node31"><a xlink:href="../../d5/d6e/restart__iter_8f90.html#ace7df67e039f0ebf69200f91d3cb16cc" target="_top" xlink:title=" ">
<polygon fill="white" stroke="black" points="188.5,-589.5 188.5,-608.5 251.5,-608.5 251.5,-589.5 188.5,-589.5"/>
<text text-anchor="middle" x="220" y="-596.5" font-family="Helvetica,sans-Serif" font-size="10.00">restart_iter</text>
</a>
</g>
</g>
<!-- Node15&#45;&gt;Node31 -->
<g id="edge31" class="edge">
<title>Node15&#45;&gt;Node31</title>
<path fill="none" stroke="midnightblue" d="M105.93,-475.81C111.85,-497.71 129.09,-550.95 163,-580 167.59,-583.94 173.04,-587.07 178.71,-589.56"/>
<polygon fill="midnightblue" stroke="midnightblue" points="177.74,-592.93 188.33,-593.16 180.2,-586.38 177.74,-592.93"/>
</g>
<!-- Node32 -->
<g id="node32" class="node">
<title>Node32</title>
<g id="a_node32"><a xlink:href="../../d4/df3/symforce_8f90.html#a169610bcc5544fc8e16ad1e10ac85dcb" target="_top" xlink:title=" ">
<polygon fill="white" stroke="black" points="192,-513.5 192,-532.5 248,-532.5 248,-513.5 192,-513.5"/>
<text text-anchor="middle" x="220" y="-520.5" font-family="Helvetica,sans-Serif" font-size="10.00">symforce</text>
</a>
</g>
</g>
<!-- Node15&#45;&gt;Node32 -->
<g id="edge32" class="edge">
<title>Node15&#45;&gt;Node32</title>
<path fill="none" stroke="midnightblue" d="M116.67,-475.73C128.38,-484.05 146.21,-495.93 163,-504 169.16,-506.96 175.89,-509.66 182.49,-512.04"/>
<polygon fill="midnightblue" stroke="midnightblue" points="181.39,-515.36 191.99,-515.29 183.66,-508.74 181.39,-515.36"/>
</g>
<!-- Node33 -->
<g id="node33" class="node">
<title>Node33</title>
<g id="a_node33"><a xlink:href="../../da/d11/symrzl_8f90.html#ac5df1aefe2e993d4416c52c8a727b817" target="_top" xlink:title=" ">
<polygon fill="white" stroke="black" points="198,-475.5 198,-494.5 242,-494.5 242,-475.5 198,-475.5"/>
<text text-anchor="middle" x="220" y="-482.5" font-family="Helvetica,sans-Serif" font-size="10.00">symrzl</text>
</a>
</g>
</g>
<!-- Node15&#45;&gt;Node33 -->
<g id="edge33" class="edge">
<title>Node15&#45;&gt;Node33</title>
<path fill="none" stroke="midnightblue" d="M127.15,-469.89C144.64,-472.77 168.62,-476.71 187.69,-479.85"/>
<polygon fill="midnightblue" stroke="midnightblue" points="187.28,-483.33 197.71,-481.5 188.41,-476.42 187.28,-483.33"/>
</g>
<!-- Node34 -->
<g id="node34" class="node">
<title>Node34</title>
<g id="a_node34"><a xlink:href="../../d0/d6f/tomnsp_8f90.html#a6c7345c0aa0f13f311650d9633e6ecf8" target="_top" xlink:title=" ">
<polygon fill="white" stroke="black" points="193,-399.5 193,-418.5 247,-418.5 247,-399.5 193,-399.5"/>
<text text-anchor="middle" x="220" y="-406.5" font-family="Helvetica,sans-Serif" font-size="10.00">tomnspa</text>
</a>
</g>
</g>
<!-- Node15&#45;&gt;Node34 -->
<g id="edge34" class="edge">
<title>Node15&#45;&gt;Node34</title>
<path fill="none" stroke="midnightblue" d="M116.67,-456.27C128.38,-447.95 146.21,-436.07 163,-428 169.34,-424.95 176.3,-422.18 183.09,-419.74"/>
<polygon fill="midnightblue" stroke="midnightblue" points="184.49,-422.97 192.83,-416.43 182.24,-416.34 184.49,-422.97"/>
</g>
<!-- Node35 -->
<g id="node35" class="node">
<title>Node35</title>
<g id="a_node35"><a xlink:href="../../d0/d6f/tomnsp_8f90.html#aec4b11e4f55e18c6bfc0348c263e31db" target="_top" xlink:title=" ">
<polygon fill="white" stroke="black" points="193,-361.5 193,-380.5 247,-380.5 247,-361.5 193,-361.5"/>
<text text-anchor="middle" x="220" y="-368.5" font-family="Helvetica,sans-Serif" font-size="10.00">tomnsps</text>
</a>
</g>
</g>
<!-- Node15&#45;&gt;Node35 -->
<g id="edge35" class="edge">
<title>Node15&#45;&gt;Node35</title>
<path fill="none" stroke="midnightblue" d="M108.57,-456.36C117.47,-440.32 137.44,-408.13 163,-390 169.1,-385.67 176.27,-382.27 183.4,-379.61"/>
<polygon fill="midnightblue" stroke="midnightblue" points="184.6,-382.9 193,-376.44 182.4,-376.26 184.6,-382.9"/>
</g>
<!-- Node36 -->
<g id="node36" class="node">
<title>Node36</title>
<g id="a_node36"><a xlink:href="../../dc/d49/totzsp_8f90.html#a8c3f89c23a3be79d0f993c5031f7eab5" target="_top" xlink:title=" ">
<polygon fill="white" stroke="black" points="196,-715.5 196,-734.5 244,-734.5 244,-715.5 196,-715.5"/>
<text text-anchor="middle" x="220" y="-722.5" font-family="Helvetica,sans-Serif" font-size="10.00">totzspa</text>
</a>
</g>
</g>
<!-- Node15&#45;&gt;Node36 -->
<g id="edge36" class="edge">
<title>Node15&#45;&gt;Node36</title>
<path fill="none" stroke="midnightblue" d="M104.66,-475.72C109.69,-516.2 130.75,-670.92 163,-706 169.04,-712.57 177.44,-716.87 185.9,-719.69"/>
<polygon fill="midnightblue" stroke="midnightblue" points="185.15,-723.11 195.72,-722.35 186.99,-716.35 185.15,-723.11"/>
</g>
<!-- Node38 -->
<g id="node38" class="node">
<title>Node38</title>
<g id="a_node38"><a xlink:href="../../dc/d49/totzsp_8f90.html#ac4756c0f66a5a01d9c08334a98a61b21" target="_top" xlink:title=" ">
<polygon fill="white" stroke="black" points="196,-551.5 196,-570.5 244,-570.5 244,-551.5 196,-551.5"/>
<text text-anchor="middle" x="220" y="-558.5" font-family="Helvetica,sans-Serif" font-size="10.00">totzsps</text>
</a>
</g>
</g>
<!-- Node15&#45;&gt;Node38 -->
<g id="edge38" class="edge">
<title>Node15&#45;&gt;Node38</title>
<path fill="none" stroke="midnightblue" d="M108.57,-475.64C117.47,-491.68 137.44,-523.87 163,-542 169.91,-546.9 178.17,-550.61 186.21,-553.4"/>
<polygon fill="midnightblue" stroke="midnightblue" points="185.2,-556.75 195.79,-556.35 187.26,-550.06 185.2,-556.75"/>
</g>
<!-- Node40 -->
<g id="node40" class="node">
<title>Node40</title>
<g id="a_node40"><a xlink:href="../../dd/d6d/vacuum_8f90.html#a0acbc18d2ab7664835d797b42ce49a35" target="_top" xlink:title=" ">
<polygon fill="white" stroke="black" points="194.5,-285.5 194.5,-304.5 245.5,-304.5 245.5,-285.5 194.5,-285.5"/>
<text text-anchor="middle" x="220" y="-292.5" font-family="Helvetica,sans-Serif" font-size="10.00">vacuum</text>
</a>
</g>
</g>
<!-- Node15&#45;&gt;Node40 -->
<g id="edge40" class="edge">
<title>Node15&#45;&gt;Node40</title>
<path fill="none" stroke="midnightblue" d="M104.5,-456.27C107.74,-429.61 120.37,-354.71 163,-314 168.95,-308.32 176.67,-304.33 184.46,-301.53"/>
<polygon fill="midnightblue" stroke="midnightblue" points="185.67,-304.82 194.24,-298.59 183.65,-298.12 185.67,-304.82"/>
</g>
<!-- Node53 -->
<g id="node53" class="node">
<title>Node53</title>
<g id="a_node53"><a xlink:href="../../db/da1/nestor__io_8f90.html#a771059753d70a579e9443aa7ca5a991e" target="_top" xlink:title=" ">
<polygon fill="white" stroke="black" points="169.5,-677.5 169.5,-696.5 270.5,-696.5 270.5,-677.5 169.5,-677.5"/>
<text text-anchor="middle" x="220" y="-684.5" font-family="Helvetica,sans-Serif" font-size="10.00">write_nestor_inputs</text>
</a>
</g>
</g>
<!-- Node15&#45;&gt;Node53 -->
<g id="edge54" class="edge">
<title>Node15&#45;&gt;Node53</title>
<path fill="none" stroke="midnightblue" d="M103.4,-475.52C103.59,-507.36 108.56,-611.3 163,-668 164.39,-669.44 165.89,-670.78 167.48,-672.01"/>
<polygon fill="midnightblue" stroke="midnightblue" points="165.7,-675.03 176.04,-677.37 169.42,-669.1 165.7,-675.03"/>
</g>
<!-- Node54 -->
<g id="node54" class="node">
<title>Node54</title>
<g id="a_node54"><a xlink:href="../../db/dc0/namespacenestor__io.html#a288cc8f23cbfe1484ec6815381cc25c8" target="_top" xlink:title=" ">
<polygon fill="white" stroke="black" points="163,-628 163,-658 277,-658 277,-628 163,-628"/>
<text text-anchor="start" x="171" y="-646" font-family="Helvetica,sans-Serif" font-size="10.00">nestor_io::write_nestor</text>
<text text-anchor="middle" x="220" y="-635" font-family="Helvetica,sans-Serif" font-size="10.00">_outputs</text>
</a>
</g>
</g>
<!-- Node15&#45;&gt;Node54 -->
<g id="edge55" class="edge">
<title>Node15&#45;&gt;Node54</title>
<path fill="none" stroke="midnightblue" d="M104.7,-475.53C108.46,-501.67 122.31,-575.36 163,-618 164.38,-619.44 165.85,-620.81 167.41,-622.1"/>
<polygon fill="midnightblue" stroke="midnightblue" points="165.53,-625.06 175.71,-627.97 169.56,-619.34 165.53,-625.06"/>
</g>
<!-- Node17&#45;&gt;Node5 -->
<g id="edge18" class="edge">
<title>Node17&#45;&gt;Node5</title>
<path fill="none" stroke="midnightblue" d="M243.03,-334.93C254.89,-337.16 268.74,-341.91 277,-352 355.94,-448.38 272.29,-512.25 313,-630 318.63,-646.3 328.81,-662.99 337.14,-675.09"/>
<polygon fill="midnightblue" stroke="midnightblue" points="334.38,-677.26 343.04,-683.37 340.08,-673.2 334.38,-677.26"/>
</g>
<!-- Node18 -->
<g id="node18" class="node">
<title>Node18</title>
<g id="a_node18"><a xlink:href="../../d8/d7d/add__fluxes_8f90.html#a988e7013ef02301b9cfbde5b8068d5af" target="_top" xlink:title="Add the magnetic fluxes to the tangential derivatives of &#160;to arrive at the contravariant magnetic fie...">
<polygon fill="white" stroke="black" points="320.5,-380.5 320.5,-399.5 382.5,-399.5 382.5,-380.5 320.5,-380.5"/>
<text text-anchor="middle" x="351.5" y="-387.5" font-family="Helvetica,sans-Serif" font-size="10.00">add_fluxes</text>
</a>
</g>
</g>
<!-- Node17&#45;&gt;Node18 -->
<g id="edge17" class="edge">
<title>Node17&#45;&gt;Node18</title>
<path fill="none" stroke="midnightblue" d="M243.09,-339.65C253.52,-343 266.04,-347.34 277,-352 293.22,-358.9 310.77,-367.91 324.66,-375.43"/>
<polygon fill="midnightblue" stroke="midnightblue" points="323.17,-378.61 333.62,-380.35 326.54,-372.47 323.17,-378.61"/>
</g>
<!-- Node19 -->
<g id="node19" class="node">
<title>Node19</title>
<g id="a_node19"><a xlink:href="../../d4/d51/lamcal_8f90.html#aae66bdcec0bbb969704413d933148096" target="_top" xlink:title="Normalization parameters for .">
<polygon fill="white" stroke="black" points="329,-456.5 329,-475.5 374,-475.5 374,-456.5 329,-456.5"/>
<text text-anchor="middle" x="351.5" y="-463.5" font-family="Helvetica,sans-Serif" font-size="10.00">lamcal</text>
</a>
</g>
</g>
<!-- Node17&#45;&gt;Node19 -->
<g id="edge19" class="edge">
<title>Node17&#45;&gt;Node19</title>
<path fill="none" stroke="midnightblue" d="M243.01,-335.89C254.42,-338.42 267.84,-343.16 277,-352 309.48,-383.36 282.82,-413.41 313,-447 315.01,-449.24 317.35,-451.25 319.86,-453.05"/>
<polygon fill="midnightblue" stroke="midnightblue" points="318.41,-456.26 328.79,-458.36 321.99,-450.24 318.41,-456.26"/>
</g>
<!-- Node20 -->
<g id="node20" class="node">
<title>Node20</title>
<g id="a_node20"><a xlink:href="../../d4/da9/precondn_8f90.html#a4c530a7978360300894520e9c5f7663c" target="_top" xlink:title="Compute preconditioning matrix elements for , &#160;force.">
<polygon fill="white" stroke="black" points="323.5,-418.5 323.5,-437.5 379.5,-437.5 379.5,-418.5 323.5,-418.5"/>
<text text-anchor="middle" x="351.5" y="-425.5" font-family="Helvetica,sans-Serif" font-size="10.00">precondn</text>
</a>
</g>
</g>
<!-- Node17&#45;&gt;Node20 -->
<g id="edge20" class="edge">
<title>Node17&#45;&gt;Node20</title>
<path fill="none" stroke="midnightblue" d="M243.15,-336.86C254.2,-339.65 267.24,-344.31 277,-352 300.54,-370.54 290.84,-388.84 313,-409 314.5,-410.36 316.11,-411.65 317.8,-412.87"/>
<polygon fill="midnightblue" stroke="midnightblue" points="316.3,-416.06 326.65,-418.36 319.99,-410.11 316.3,-416.06"/>
</g>
<!-- Node26 -->
<g id="node26" class="node">
<title>Node26</title>
<g id="a_node26"><a xlink:href="../../db/d5a/residue_8f90.html#a6b8a6225e22b043a0c73e6be6c99176c" target="_top" xlink:title=" ">
<polygon fill="white" stroke="black" points="314,-38.5 314,-57.5 389,-57.5 389,-38.5 314,-38.5"/>
<text text-anchor="middle" x="351.5" y="-45.5" font-family="Helvetica,sans-Serif" font-size="10.00">constrain_m1</text>
</a>
</g>
</g>
<!-- Node25&#45;&gt;Node26 -->
<g id="edge26" class="edge">
<title>Node25&#45;&gt;Node26</title>
<path fill="none" stroke="midnightblue" d="M244.15,-79.21C261.86,-74.01 286.77,-66.7 308.04,-60.46"/>
<polygon fill="midnightblue" stroke="midnightblue" points="309.21,-63.76 317.82,-57.59 307.24,-57.05 309.21,-63.76"/>
</g>
<!-- Node27 -->
<g id="node27" class="node">
<title>Node27</title>
<g id="a_node27"><a xlink:href="../../d3/d3a/getfsq_8f90.html#a7b636db95ff23aaea849bd65fba7aa2e" target="_top" xlink:title="Compute total force residual on flux surfaces.">
<polygon fill="white" stroke="black" points="329.5,-0.5 329.5,-19.5 373.5,-19.5 373.5,-0.5 329.5,-0.5"/>
<text text-anchor="middle" x="351.5" y="-7.5" font-family="Helvetica,sans-Serif" font-size="10.00">getfsq</text>
</a>
</g>
</g>
<!-- Node25&#45;&gt;Node27 -->
<g id="edge27" class="edge">
<title>Node25&#45;&gt;Node27</title>
<path fill="none" stroke="midnightblue" d="M235.74,-76.32C253.72,-64.65 285.15,-44.64 313,-29 315.86,-27.39 318.88,-25.76 321.9,-24.17"/>
<polygon fill="midnightblue" stroke="midnightblue" points="323.58,-27.24 330.87,-19.55 320.38,-21.02 323.58,-27.24"/>
</g>
<!-- Node28 -->
<g id="node28" class="node">
<title>Node28</title>
<g id="a_node28"><a xlink:href="../../db/d5a/residue_8f90.html#aaf8d684a58b8bf9dfdecfdb925960780" target="_top" xlink:title=" ">
<polygon fill="white" stroke="black" points="322,-114.5 322,-133.5 381,-133.5 381,-114.5 322,-114.5"/>
<text text-anchor="middle" x="351.5" y="-121.5" font-family="Helvetica,sans-Serif" font-size="10.00">scale_m1</text>
</a>
</g>
</g>
<!-- Node25&#45;&gt;Node28 -->
<g id="edge28" class="edge">
<title>Node25&#45;&gt;Node28</title>
<path fill="none" stroke="midnightblue" d="M244.15,-92.79C262.95,-98.31 289.87,-106.21 311.92,-112.68"/>
<polygon fill="midnightblue" stroke="midnightblue" points="311.08,-116.08 321.66,-115.54 313.05,-109.36 311.08,-116.08"/>
</g>
<!-- Node29 -->
<g id="node29" class="node">
<title>Node29</title>
<g id="a_node29"><a xlink:href="../../d8/d86/scalfor_8f90.html#a20fb7039b82d05e64d01a2e50431ba5e" target="_top" xlink:title=" ">
<polygon fill="white" stroke="black" points="328.5,-76.5 328.5,-95.5 374.5,-95.5 374.5,-76.5 328.5,-76.5"/>
<text text-anchor="middle" x="351.5" y="-83.5" font-family="Helvetica,sans-Serif" font-size="10.00">scalfor</text>
</a>
</g>
</g>
<!-- Node25&#45;&gt;Node29 -->
<g id="edge29" class="edge">
<title>Node25&#45;&gt;Node29</title>
<path fill="none" stroke="midnightblue" d="M244.15,-86C264.75,-86 295.09,-86 318.1,-86"/>
<polygon fill="midnightblue" stroke="midnightblue" points="318.41,-89.5 328.41,-86 318.41,-82.5 318.41,-89.5"/>
</g>
<!-- Node30 -->
<g id="node30" class="node">
<title>Node30</title>
<g id="a_node30"><a xlink:href="../../db/d40/tridslv_8f90.html#abf5399c0154abe7424c54d7fa9eb69db" target="_top" xlink:title=" ">
<polygon fill="white" stroke="black" points="472,-57.5 472,-76.5 515,-76.5 515,-57.5 472,-57.5"/>
<text text-anchor="middle" x="493.5" y="-64.5" font-family="Helvetica,sans-Serif" font-size="10.00">tridslv</text>
</a>
</g>
</g>
<!-- Node29&#45;&gt;Node30 -->
<g id="edge30" class="edge">
<title>Node29&#45;&gt;Node30</title>
<path fill="none" stroke="midnightblue" d="M374.68,-82.99C398.13,-79.81 435.29,-74.76 461.6,-71.19"/>
<polygon fill="midnightblue" stroke="midnightblue" points="462.35,-74.62 471.79,-69.81 461.41,-67.69 462.35,-74.62"/>
</g>
<!-- Node37 -->
<g id="node37" class="node">
<title>Node37</title>
<g id="a_node37"><a xlink:href="../../dc/d49/totzsp_8f90.html#aff13f873fb632d486fdffc6ee97857c6" target="_top" xlink:title=" ">
<polygon fill="white" stroke="black" points="313,-743.5 313,-762.5 390,-762.5 390,-743.5 313,-743.5"/>
<text text-anchor="middle" x="351.5" y="-750.5" font-family="Helvetica,sans-Serif" font-size="10.00">convert_asym</text>
</a>
</g>
</g>
<!-- Node36&#45;&gt;Node37 -->
<g id="edge37" class="edge">
<title>Node36&#45;&gt;Node37</title>
<path fill="none" stroke="midnightblue" d="M244.15,-730.01C260.46,-733.53 282.87,-738.38 302.91,-742.71"/>
<polygon fill="midnightblue" stroke="midnightblue" points="302.31,-746.16 312.83,-744.85 303.79,-739.32 302.31,-746.16"/>
</g>
<!-- Node39 -->
<g id="node39" class="node">
<title>Node39</title>
<g id="a_node39"><a xlink:href="../../dc/d49/totzsp_8f90.html#a3264ce8fefaa7ede632c4147049aadc5" target="_top" xlink:title=" ">
<polygon fill="white" stroke="black" points="315.5,-601.5 315.5,-620.5 387.5,-620.5 387.5,-601.5 315.5,-601.5"/>
<text text-anchor="middle" x="351.5" y="-608.5" font-family="Helvetica,sans-Serif" font-size="10.00">convert_sym</text>
</a>
</g>
</g>
<!-- Node38&#45;&gt;Node39 -->
<g id="edge39" class="edge">
<title>Node38&#45;&gt;Node39</title>
<path fill="none" stroke="midnightblue" d="M244.02,-568.4C254.19,-571.77 266.25,-575.92 277,-580 291.03,-585.33 306.35,-591.7 319.36,-597.28"/>
<polygon fill="midnightblue" stroke="midnightblue" points="318.23,-600.6 328.8,-601.36 321.01,-594.18 318.23,-600.6"/>
</g>
<!-- Node40&#45;&gt;Node12 -->
<g id="edge52" class="edge">
<title>Node40&#45;&gt;Node12</title>
<path fill="none" stroke="midnightblue" d="M245.57,-302.4C255.47,-305.63 266.91,-309.66 277,-314 293.62,-321.15 296.89,-324.77 313,-333 346.99,-350.35 363.2,-343.83 390,-371 447.19,-428.98 477.05,-524.99 487.78,-566.21"/>
<polygon fill="midnightblue" stroke="midnightblue" points="484.43,-567.24 490.26,-576.09 491.22,-565.54 484.43,-567.24"/>
</g>
<!-- Node41 -->
<g id="node41" class="node">
<title>Node41</title>
<g id="a_node41"><a xlink:href="../../db/d3d/bextern_8f90.html#a90228cc5f358147ae7f59953d6f9cced" target="_top" xlink:title=" ">
<polygon fill="white" stroke="black" points="327.5,-228.5 327.5,-247.5 375.5,-247.5 375.5,-228.5 327.5,-228.5"/>
<text text-anchor="middle" x="351.5" y="-235.5" font-family="Helvetica,sans-Serif" font-size="10.00">bextern</text>
</a>
</g>
</g>
<!-- Node40&#45;&gt;Node41 -->
<g id="edge41" class="edge">
<title>Node40&#45;&gt;Node41</title>
<path fill="none" stroke="midnightblue" d="M245.57,-287.6C255.47,-284.37 266.91,-280.34 277,-276 293.62,-268.85 296.93,-265.31 313,-257 315.98,-255.46 319.1,-253.86 322.22,-252.27"/>
<polygon fill="midnightblue" stroke="midnightblue" points="324.06,-255.26 331.39,-247.6 320.89,-249.01 324.06,-255.26"/>
</g>
<!-- Node44 -->
<g id="node44" class="node">
<title>Node44</title>
<g id="a_node44"><a xlink:href="../../dd/d98/precal_8f90.html#a0dae73e848a4757092d7e9786d073d3d" target="_top" xlink:title=" ">
<polygon fill="white" stroke="black" points="330,-266.5 330,-285.5 373,-285.5 373,-266.5 330,-266.5"/>
<text text-anchor="middle" x="351.5" y="-273.5" font-family="Helvetica,sans-Serif" font-size="10.00">precal</text>
</a>
</g>
</g>
<!-- Node40&#45;&gt;Node44 -->
<g id="edge44" class="edge">
<title>Node40&#45;&gt;Node44</title>
<path fill="none" stroke="midnightblue" d="M245.66,-291.38C266.7,-288.3 297.03,-283.84 319.67,-280.52"/>
<polygon fill="midnightblue" stroke="midnightblue" points="320.39,-283.96 329.77,-279.04 319.37,-277.03 320.39,-283.96"/>
</g>
<!-- Node45 -->
<g id="node45" class="node">
<title>Node45</title>
<g id="a_node45"><a xlink:href="../../d0/d19/scalpot_8f90.html#afb9e58849c5a27e486bdf4106f8bb84e" target="_top" xlink:title=" ">
<polygon fill="white" stroke="black" points="327.5,-171.5 327.5,-190.5 375.5,-190.5 375.5,-171.5 327.5,-171.5"/>
<text text-anchor="middle" x="351.5" y="-178.5" font-family="Helvetica,sans-Serif" font-size="10.00">scalpot</text>
</a>
</g>
</g>
<!-- Node40&#45;&gt;Node45 -->
<g id="edge45" class="edge">
<title>Node40&#45;&gt;Node45</title>
<path fill="none" stroke="midnightblue" d="M245.65,-290.48C256.12,-287.64 267.97,-283.12 277,-276 300.54,-257.46 294.37,-242.47 313,-219 318.75,-211.75 325.72,-204.38 332.09,-198.08"/>
<polygon fill="midnightblue" stroke="midnightblue" points="334.91,-200.22 339.68,-190.76 330.05,-195.18 334.91,-200.22"/>
</g>
<!-- Node52 -->
<g id="node52" class="node">
<title>Node52</title>
<g id="a_node52"><a xlink:href="../../d6/d03/surface_8f90.html#ad7b6446e720a806f41f10dd1eb0b6f88" target="_top" xlink:title=" ">
<polygon fill="white" stroke="black" points="327,-304.5 327,-323.5 376,-323.5 376,-304.5 327,-304.5"/>
<text text-anchor="middle" x="351.5" y="-311.5" font-family="Helvetica,sans-Serif" font-size="10.00">surface</text>
</a>
</g>
</g>
<!-- Node40&#45;&gt;Node52 -->
<g id="edge53" class="edge">
<title>Node40&#45;&gt;Node52</title>
<path fill="none" stroke="midnightblue" d="M245.66,-298.62C265.81,-301.57 294.49,-305.78 316.76,-309.05"/>
<polygon fill="midnightblue" stroke="midnightblue" points="316.4,-312.53 326.8,-310.52 317.42,-305.61 316.4,-312.53"/>
</g>
<!-- Node42 -->
<g id="node42" class="node">
<title>Node42</title>
<g id="a_node42"><a xlink:href="../../d6/dc7/becoil_8f90.html#a449b054fb88bdb4cdf73ef8939654bfb" target="_top" xlink:title=" ">
<polygon fill="white" stroke="black" points="472.5,-247.5 472.5,-266.5 514.5,-266.5 514.5,-247.5 472.5,-247.5"/>
<text text-anchor="middle" x="493.5" y="-254.5" font-family="Helvetica,sans-Serif" font-size="10.00">becoil</text>
</a>
</g>
</g>
<!-- Node41&#45;&gt;Node42 -->
<g id="edge42" class="edge">
<title>Node41&#45;&gt;Node42</title>
<path fill="none" stroke="midnightblue" d="M375.62,-241.14C399.24,-244.34 436.03,-249.34 462.02,-252.86"/>
<polygon fill="midnightblue" stroke="midnightblue" points="461.7,-256.35 472.08,-254.23 462.64,-249.42 461.7,-256.35"/>
</g>
<!-- Node43 -->
<g id="node43" class="node">
<title>Node43</title>
<g id="a_node43"><a xlink:href="../../d9/dda/belicu_8f90.html#a53e6f162ca96069b8d93e131069ddf5d" target="_top" xlink:title=" ">
<polygon fill="white" stroke="black" points="472.5,-285.5 472.5,-304.5 514.5,-304.5 514.5,-285.5 472.5,-285.5"/>
<text text-anchor="middle" x="493.5" y="-292.5" font-family="Helvetica,sans-Serif" font-size="10.00">belicu</text>
</a>
</g>
</g>
<!-- Node41&#45;&gt;Node43 -->
<g id="edge43" class="edge">
<title>Node41&#45;&gt;Node43</title>
<path fill="none" stroke="midnightblue" d="M371.61,-247.6C377.52,-250.59 384.04,-253.92 390,-257 406.07,-265.31 409.21,-269.26 426,-276 437.72,-280.71 451.04,-284.75 462.66,-287.89"/>
<polygon fill="midnightblue" stroke="midnightblue" points="461.79,-291.28 472.35,-290.4 463.55,-284.5 461.79,-291.28"/>
</g>
<!-- Node46 -->
<g id="node46" class="node">
<title>Node46</title>
<g id="a_node46"><a xlink:href="../../da/d73/analyt_8f90.html#a60edcf4884aa60f6d96c258a97255756" target="_top" xlink:title=" ">
<polygon fill="white" stroke="black" points="472.5,-171.5 472.5,-190.5 514.5,-190.5 514.5,-171.5 472.5,-171.5"/>
<text text-anchor="middle" x="493.5" y="-178.5" font-family="Helvetica,sans-Serif" font-size="10.00">analyt</text>
</a>
</g>
</g>
<!-- Node45&#45;&gt;Node46 -->
<g id="edge46" class="edge">
<title>Node45&#45;&gt;Node46</title>
<path fill="none" stroke="midnightblue" d="M375.62,-181C399.24,-181 436.03,-181 462.02,-181"/>
<polygon fill="midnightblue" stroke="midnightblue" points="462.08,-184.5 472.08,-181 462.08,-177.5 462.08,-184.5"/>
</g>
<!-- Node49 -->
<g id="node49" class="node">
<title>Node49</title>
<g id="a_node49"><a xlink:href="../../d6/d77/fouri_8f90.html#a0f902f8d584a395f9db7175079d273c7" target="_top" xlink:title=" ">
<polygon fill="white" stroke="black" points="476,-133.5 476,-152.5 511,-152.5 511,-133.5 476,-133.5"/>
<text text-anchor="middle" x="493.5" y="-140.5" font-family="Helvetica,sans-Serif" font-size="10.00">fouri</text>
</a>
</g>
</g>
<!-- Node45&#45;&gt;Node49 -->
<g id="edge49" class="edge">
<title>Node45&#45;&gt;Node49</title>
<path fill="none" stroke="midnightblue" d="M375.62,-174.73C400.46,-167.98 439.9,-157.28 465.98,-150.2"/>
<polygon fill="midnightblue" stroke="midnightblue" points="467.2,-153.49 475.93,-147.5 465.37,-146.74 467.2,-153.49"/>
</g>
<!-- Node50 -->
<g id="node50" class="node">
<title>Node50</title>
<g id="a_node50"><a xlink:href="../../d0/d1c/fourp_8f90.html#add725dd420251115fd60182dc992503c" target="_top" xlink:title=" ">
<polygon fill="white" stroke="black" points="474.5,-95.5 474.5,-114.5 512.5,-114.5 512.5,-95.5 474.5,-95.5"/>
<text text-anchor="middle" x="493.5" y="-102.5" font-family="Helvetica,sans-Serif" font-size="10.00">fourp</text>
</a>
</g>
</g>
<!-- Node45&#45;&gt;Node50 -->
<g id="edge50" class="edge">
<title>Node45&#45;&gt;Node50</title>
<path fill="none" stroke="midnightblue" d="M362.58,-171.11C375.99,-158.47 400.94,-136.7 426,-124 437.93,-117.96 452.07,-113.57 464.23,-110.55"/>
<polygon fill="midnightblue" stroke="midnightblue" points="465.34,-113.89 474.31,-108.24 463.78,-107.07 465.34,-113.89"/>
</g>
<!-- Node51 -->
<g id="node51" class="node">
<title>Node51</title>
<g id="a_node51"><a xlink:href="../../df/d2d/greenf_8f90.html#acd9d25905cc799c9fcd4d08a3cbb1e65" target="_top" xlink:title=" ">
<polygon fill="white" stroke="black" points="471.5,-209.5 471.5,-228.5 515.5,-228.5 515.5,-209.5 471.5,-209.5"/>
<text text-anchor="middle" x="493.5" y="-216.5" font-family="Helvetica,sans-Serif" font-size="10.00">greenf</text>
</a>
</g>
</g>
<!-- Node45&#45;&gt;Node51 -->
<g id="edge51" class="edge">
<title>Node45&#45;&gt;Node51</title>
<path fill="none" stroke="midnightblue" d="M375.62,-187.27C399.07,-193.64 435.5,-203.53 461.46,-210.57"/>
<polygon fill="midnightblue" stroke="midnightblue" points="460.62,-213.97 471.18,-213.21 462.45,-207.22 460.62,-213.97"/>
</g>
<!-- Node47 -->
<g id="node47" class="node">
<title>Node47</title>
<g id="a_node47"><a xlink:href="../../df/df3/analysum_8f90.html#aa51b1a5786e7b5719fe2ca679efc66b0" target="_top" xlink:title=" ">
<polygon fill="white" stroke="black" points="599.5,-190.5 599.5,-209.5 657.5,-209.5 657.5,-190.5 599.5,-190.5"/>
<text text-anchor="middle" x="628.5" y="-197.5" font-family="Helvetica,sans-Serif" font-size="10.00">analysum</text>
</a>
</g>
</g>
<!-- Node46&#45;&gt;Node47 -->
<g id="edge47" class="edge">
<title>Node46&#45;&gt;Node47</title>
<path fill="none" stroke="midnightblue" d="M514.7,-183.89C534.41,-186.7 564.9,-191.06 589.21,-194.53"/>
<polygon fill="midnightblue" stroke="midnightblue" points="588.81,-198.01 599.2,-195.96 589.8,-191.08 588.81,-198.01"/>
</g>
<!-- Node48 -->
<g id="node48" class="node">
<title>Node48</title>
<g id="a_node48"><a xlink:href="../../d1/d90/analysum2_8f90.html#a47a0d185131a197c6fc62ee5d68d62fb" target="_top" xlink:title=" ">
<polygon fill="white" stroke="black" points="597,-152.5 597,-171.5 660,-171.5 660,-152.5 597,-152.5"/>
<text text-anchor="middle" x="628.5" y="-159.5" font-family="Helvetica,sans-Serif" font-size="10.00">analysum2</text>
</a>
</g>
</g>
<!-- Node46&#45;&gt;Node48 -->
<g id="edge48" class="edge">
<title>Node46&#45;&gt;Node48</title>
<path fill="none" stroke="midnightblue" d="M514.7,-178.11C533.75,-175.39 562.87,-171.23 586.75,-167.82"/>
<polygon fill="midnightblue" stroke="midnightblue" points="587.56,-171.24 596.96,-166.36 586.57,-164.31 587.56,-171.24"/>
</g>
<!-- Node55&#45;&gt;Node21 -->
<g id="edge57" class="edge">
<title>Node55&#45;&gt;Node21</title>
<path fill="none" stroke="midnightblue" d="M112.84,-829.14C123.96,-817.83 143.49,-799.27 163,-787 170.13,-782.52 178.24,-778.5 186.03,-775.09"/>
<polygon fill="midnightblue" stroke="midnightblue" points="187.4,-778.31 195.3,-771.25 184.72,-771.85 187.4,-778.31"/>
</g>
<!-- Node55&#45;&gt;Node37 -->
<g id="edge58" class="edge">
<title>Node55&#45;&gt;Node37</title>
<path fill="none" stroke="midnightblue" d="M109.8,-848.55C119.4,-862.12 139.11,-886.4 163,-896 210.02,-914.89 234.19,-923.09 277,-896 308.58,-876.01 295.86,-853.22 313,-820 321.56,-803.41 331.97,-784.93 339.65,-771.58"/>
<polygon fill="midnightblue" stroke="midnightblue" points="342.71,-773.28 344.7,-762.87 336.66,-769.77 342.71,-773.28"/>
</g>
<!-- Node55&#45;&gt;Node39 -->
<g id="edge59" class="edge">
<title>Node55&#45;&gt;Node39</title>
<path fill="none" stroke="midnightblue" d="M123.21,-832.65C168.38,-818.09 275.58,-783.41 277,-782 312.85,-746.3 291.94,-720 313,-674 320.18,-658.32 330.26,-641.59 338.16,-629.32"/>
<polygon fill="midnightblue" stroke="midnightblue" points="341.13,-631.17 343.7,-620.89 335.28,-627.33 341.13,-631.17"/>
</g>
<!-- Node56 -->
<g id="node56" class="node">
<title>Node56</title>
<g id="a_node56"><a xlink:href="../../d1/d87/freeb__data_8f90.html#a71de251d01e145a30e3f710ac705f217" target="_top" xlink:title="Write out edge values of fields.">
<polygon fill="white" stroke="black" points="189,-867.5 189,-886.5 251,-886.5 251,-867.5 189,-867.5"/>
<text text-anchor="middle" x="220" y="-874.5" font-family="Helvetica,sans-Serif" font-size="10.00">freeb_data</text>
</a>
</g>
</g>
<!-- Node55&#45;&gt;Node56 -->
<g id="edge60" class="edge">
<title>Node55&#45;&gt;Node56</title>
<path fill="none" stroke="midnightblue" d="M123.09,-845.45C138.66,-850.57 160.92,-857.89 180.07,-864.19"/>
<polygon fill="midnightblue" stroke="midnightblue" points="179.16,-867.58 189.76,-867.38 181.35,-860.93 179.16,-867.58"/>
</g>
<!-- Node57 -->
<g id="node57" class="node">
<title>Node57</title>
<g id="a_node57"><a xlink:href="../../d4/df3/symforce_8f90.html#a2489a93ca37b283b9dec6888826083ae" target="_top" xlink:title=" ">
<polygon fill="white" stroke="black" points="189,-829.5 189,-848.5 251,-848.5 251,-829.5 189,-829.5"/>
<text text-anchor="middle" x="220" y="-836.5" font-family="Helvetica,sans-Serif" font-size="10.00">symoutput</text>
</a>
</g>
</g>
<!-- Node55&#45;&gt;Node57 -->
<g id="edge61" class="edge">
<title>Node55&#45;&gt;Node57</title>
<path fill="none" stroke="midnightblue" d="M123.09,-839C138.3,-839 159.89,-839 178.74,-839"/>
<polygon fill="midnightblue" stroke="midnightblue" points="178.87,-842.5 188.87,-839 178.87,-835.5 178.87,-842.5"/>
</g>
</g>
</svg>
