<?xml version="1.0" encoding="UTF-8" standalone="no"?>
<!DOCTYPE svg PUBLIC "-//W3C//DTD SVG 1.1//EN"
 "http://www.w3.org/Graphics/SVG/1.1/DTD/svg11.dtd">
<!-- Generated by graphviz version 2.47.1 (20210421.1823)
 -->
<!-- Title: fileout Pages: 1 -->
<!--zoomable 484 -->
<svg id="main" version="1.1" xmlns="http://www.w3.org/2000/svg" xmlns:xlink="http://www.w3.org/1999/xlink" xml:space="preserve" onload="init(evt)">
<style type="text/css"><![CDATA[
.edge:hover path { stroke: red; }
.edge:hover polygon { stroke: red; fill: red; }
]]></style>
<script type="text/javascript"><![CDATA[
var edges = document.getElementsByTagName('g');
if (edges && edges.length) {
  for (var i=0;i<edges.length;i++) {
    if (edges[i].id.substr(0,4)=='edge') {
      edges[i].setAttribute('class','edge');
    }
  }
}
]]></script>
        <defs>
                <circle id="rim" cx="0" cy="0" r="7"/>
                <circle id="rim2" cx="0" cy="0" r="3.5"/>
                <g id="zoomPlus">
                        <use xlink:href="#rim" fill="#404040">
                                <set attributeName="fill" to="#808080" begin="zoomplus.mouseover" end="zoomplus.mouseout"/>
                        </use>
                        <path d="M-4,0h8M0,-4v8" fill="none" stroke="white" stroke-width="1.5" pointer-events="none"/>
                </g>
                <g id="zoomMin">
                        <use xlink:href="#rim" fill="#404040">
                                <set attributeName="fill" to="#808080" begin="zoomminus.mouseover" end="zoomminus.mouseout"/>
                        </use>
                        <path d="M-4,0h8" fill="none" stroke="white" stroke-width="1.5" pointer-events="none"/>
                </g>
                <g id="dirArrow">
                        <path fill="none" stroke="white" stroke-width="1.5" d="M0,-3.0v7 M-2.5,-0.5L0,-3.0L2.5,-0.5"/>
                </g>
               <g id="resetDef">
                       <use xlink:href="#rim2" fill="#404040">
                               <set attributeName="fill" to="#808080" begin="reset.mouseover" end="reset.mouseout"/>
                       </use>
               </g>
        </defs>

<script type="text/javascript">
var viewWidth = 332;
var viewHeight = 484;
var sectionId = 'dynsection-0';
</script>
<script xlink:href="../../svgpan.js"/>
<svg id="graph" class="graph">
<g id="viewport">
<title>fileout</title>
<polygon fill="white" stroke="transparent" points="-4,4 -4,-480 328,-480 328,4 -4,4"/>
<!-- Node1 -->
<g id="node1" class="node">
<title>Node1</title>
<g id="a_node1"><a xlink:title="Write the output files.">
<polygon fill="#bfbfbf" stroke="black" points="0,-190.5 0,-209.5 42,-209.5 42,-190.5 0,-190.5"/>
<text text-anchor="middle" x="21" y="-197.5" font-family="Helvetica,sans-Serif" font-size="10.00">fileout</text>
</a>
</g>
</g>
<!-- Node2 -->
<g id="node2" class="node">
<title>Node2</title>
<g id="a_node2"><a xlink:href="../../d0/d22/eqfor_8f90.html#a4579124c405a906bf05b3d3a0da2d105" target="_top" xlink:title="Basis physics analysis and evaluaton of force balance. This is where most of the contents of the thre...">
<polygon fill="white" stroke="black" points="83.5,-285.5 83.5,-304.5 121.5,-304.5 121.5,-285.5 83.5,-285.5"/>
<text text-anchor="middle" x="102.5" y="-292.5" font-family="Helvetica,sans-Serif" font-size="10.00">eqfor</text>
</a>
</g>
</g>
<!-- Node1&#45;&gt;Node2 -->
<g id="edge1" class="edge">
<title>Node1&#45;&gt;Node2</title>
<path fill="none" stroke="midnightblue" d="M30.21,-209.81C43.61,-225.82 70.35,-257.78 87,-277.68"/>
<polygon fill="midnightblue" stroke="midnightblue" points="84.35,-279.96 93.45,-285.39 89.72,-275.47 84.35,-279.96"/>
</g>
<!-- Node13 -->
<g id="node13" class="node">
<title>Node13</title>
<g id="a_node13"><a xlink:href="../../d3/d4f/funct3d_8f90.html#a800bacc22176e16323899df87b55c547" target="_top" xlink:title="Evaluate the three&#45;dimensional MHD energy functional.">
<polygon fill="white" stroke="black" points="78,-114.5 78,-133.5 127,-133.5 127,-114.5 78,-114.5"/>
<text text-anchor="middle" x="102.5" y="-121.5" font-family="Helvetica,sans-Serif" font-size="10.00">funct3d</text>
</a>
</g>
</g>
<!-- Node1&#45;&gt;Node13 -->
<g id="edge12" class="edge">
<title>Node1&#45;&gt;Node13</title>
<path fill="none" stroke="midnightblue" d="M32.07,-190.37C45.09,-177.93 67.99,-156.04 83.91,-140.81"/>
<polygon fill="midnightblue" stroke="midnightblue" points="86.7,-142.99 91.51,-133.55 81.87,-137.93 86.7,-142.99"/>
</g>
<!-- Node3 -->
<g id="node3" class="node">
<title>Node3</title>
<g id="a_node3"><a xlink:href="../../d9/d25/bextrema_8f90.html#aba3f90e7c94f19661c0eea471f1e05a5" target="_top" xlink:title="Computes minimum and maximum &#160;along &#160;between two angle lines ( ).">
<polygon fill="white" stroke="black" points="165.5,-342.5 165.5,-361.5 221.5,-361.5 221.5,-342.5 165.5,-342.5"/>
<text text-anchor="middle" x="193.5" y="-349.5" font-family="Helvetica,sans-Serif" font-size="10.00">bextrema</text>
</a>
</g>
</g>
<!-- Node2&#45;&gt;Node3 -->
<g id="edge2" class="edge">
<title>Node2&#45;&gt;Node3</title>
<path fill="none" stroke="midnightblue" d="M118.6,-304.67C132.36,-313.48 152.92,-326.65 168.86,-336.86"/>
<polygon fill="midnightblue" stroke="midnightblue" points="167.32,-340.03 177.63,-342.47 171.09,-334.13 167.32,-340.03"/>
</g>
<!-- Node4 -->
<g id="node4" class="node">
<title>Node4</title>
<g id="a_node4"><a xlink:href="../../d7/d77/bss_8f90.html#acdfd6dccfb28d75e1de40c6822f5736b" target="_top" xlink:title="Computes br, bphi, bz, bsubs on half&#45;radial mesh.">
<polygon fill="white" stroke="black" points="177.5,-304.5 177.5,-323.5 209.5,-323.5 209.5,-304.5 177.5,-304.5"/>
<text text-anchor="middle" x="193.5" y="-311.5" font-family="Helvetica,sans-Serif" font-size="10.00">bss</text>
</a>
</g>
</g>
<!-- Node2&#45;&gt;Node4 -->
<g id="edge3" class="edge">
<title>Node2&#45;&gt;Node4</title>
<path fill="none" stroke="midnightblue" d="M121.51,-298.84C134.75,-301.67 152.92,-305.55 167.56,-308.67"/>
<polygon fill="midnightblue" stroke="midnightblue" points="166.96,-312.13 177.47,-310.79 168.42,-305.28 166.96,-312.13"/>
</g>
<!-- Node5 -->
<g id="node5" class="node">
<title>Node5</title>
<g id="a_node5"><a xlink:href="../../d9/dff/calc__fbal_8f90.html#a6cdc3d21c48f66aeaff8ab5e639641b6" target="_top" xlink:title="Compute flux&#45;surface averaged radial force balance .">
<polygon fill="white" stroke="black" points="264,-266.5 264,-285.5 320,-285.5 320,-266.5 264,-266.5"/>
<text text-anchor="middle" x="292" y="-273.5" font-family="Helvetica,sans-Serif" font-size="10.00">calc_fbal</text>
</a>
</g>
</g>
<!-- Node2&#45;&gt;Node5 -->
<g id="edge4" class="edge">
<title>Node2&#45;&gt;Node5</title>
<path fill="none" stroke="midnightblue" d="M121.82,-293.14C152.27,-290.06 213.89,-283.81 253.76,-279.77"/>
<polygon fill="midnightblue" stroke="midnightblue" points="254.3,-283.24 263.89,-278.75 253.59,-276.27 254.3,-283.24"/>
</g>
<!-- Node6 -->
<g id="node6" class="node">
<title>Node6</title>
<g id="a_node6"><a xlink:href="../../d4/d21/elongation_8f90.html#ad09a13ed71a559093ad6f28eef38c9c7" target="_top" xlink:title="Compute Waist thickness and height in &#160;symmetry planes.">
<polygon fill="white" stroke="black" points="163,-228.5 163,-247.5 224,-247.5 224,-228.5 163,-228.5"/>
<text text-anchor="middle" x="193.5" y="-235.5" font-family="Helvetica,sans-Serif" font-size="10.00">elongation</text>
</a>
</g>
</g>
<!-- Node2&#45;&gt;Node6 -->
<g id="edge5" class="edge">
<title>Node2&#45;&gt;Node6</title>
<path fill="none" stroke="midnightblue" d="M118.6,-285.33C132.36,-276.52 152.92,-263.35 168.86,-253.14"/>
<polygon fill="midnightblue" stroke="midnightblue" points="171.09,-255.87 177.63,-247.53 167.32,-249.97 171.09,-255.87"/>
</g>
<!-- Node7 -->
<g id="node7" class="node">
<title>Node7</title>
<g id="a_node7"><a xlink:href="../../d6/d53/jxbforce_8f90.html#aef04f343b688724d6ec0ee8f2a9db7c1" target="_top" xlink:title="Program for computing local &#160;force balance.">
<polygon fill="white" stroke="black" points="168.5,-380.5 168.5,-399.5 218.5,-399.5 218.5,-380.5 168.5,-380.5"/>
<text text-anchor="middle" x="193.5" y="-387.5" font-family="Helvetica,sans-Serif" font-size="10.00">jxbforce</text>
</a>
</g>
</g>
<!-- Node2&#45;&gt;Node7 -->
<g id="edge6" class="edge">
<title>Node2&#45;&gt;Node7</title>
<path fill="none" stroke="midnightblue" d="M109.57,-304.72C119.45,-320.05 140.22,-350.22 163,-371 164.3,-372.19 165.68,-373.34 167.11,-374.47"/>
<polygon fill="midnightblue" stroke="midnightblue" points="165.38,-377.54 175.56,-380.46 169.43,-371.82 165.38,-377.54"/>
</g>
<!-- Node8 -->
<g id="node8" class="node">
<title>Node8</title>
<g id="a_node8"><a xlink:href="../../da/d22/fsym__fft_8f90.html#a5558cd119122c53bb067ab7fc61b9fee" target="_top" xlink:title="Extends &#160;from ntheta2 interval to full ntheta3 interval in angle .">
<polygon fill="white" stroke="black" points="269,-304.5 269,-323.5 315,-323.5 315,-304.5 269,-304.5"/>
<text text-anchor="middle" x="292" y="-311.5" font-family="Helvetica,sans-Serif" font-size="10.00">fext_fft</text>
</a>
</g>
</g>
<!-- Node7&#45;&gt;Node8 -->
<g id="edge7" class="edge">
<title>Node7&#45;&gt;Node8</title>
<path fill="none" stroke="midnightblue" d="M210.91,-380.42C215.31,-377.59 219.97,-374.34 224,-371 241.91,-356.15 241.93,-347.65 260,-333 261.54,-331.75 263.18,-330.52 264.86,-329.32"/>
<polygon fill="midnightblue" stroke="midnightblue" points="266.98,-332.11 273.4,-323.68 263.13,-326.27 266.98,-332.11"/>
</g>
<!-- Node9 -->
<g id="node9" class="node">
<title>Node9</title>
<g id="a_node9"><a xlink:href="../../da/d22/fsym__fft_8f90.html#a019fe7da811a16aec5f0726e33df73ba" target="_top" xlink:title="Contract bs,bu,bv from full nu interval to half&#45;u interval so cos, sin integrals can be performed on ...">
<polygon fill="white" stroke="black" points="266.5,-456.5 266.5,-475.5 317.5,-475.5 317.5,-456.5 266.5,-456.5"/>
<text text-anchor="middle" x="292" y="-463.5" font-family="Helvetica,sans-Serif" font-size="10.00">fsym_fft</text>
</a>
</g>
</g>
<!-- Node7&#45;&gt;Node9 -->
<g id="edge8" class="edge">
<title>Node7&#45;&gt;Node9</title>
<path fill="none" stroke="midnightblue" d="M204.71,-399.84C217.23,-411.68 239.34,-431.84 260,-447 261.82,-448.33 263.74,-449.67 265.69,-450.97"/>
<polygon fill="midnightblue" stroke="midnightblue" points="263.94,-454.01 274.26,-456.44 267.71,-448.11 263.94,-454.01"/>
</g>
<!-- Node10 -->
<g id="node10" class="node">
<title>Node10</title>
<g id="a_node10"><a xlink:href="../../d4/d23/fsym__invfft_8f90.html#a50d31cc0bfc47f4d0241f5154c78ef2b" target="_top" xlink:title="Extends function from ntheta2 to ntheta3 range.">
<polygon fill="white" stroke="black" points="260,-418.5 260,-437.5 324,-437.5 324,-418.5 260,-418.5"/>
<text text-anchor="middle" x="292" y="-425.5" font-family="Helvetica,sans-Serif" font-size="10.00">fsym_invfft</text>
</a>
</g>
</g>
<!-- Node7&#45;&gt;Node10 -->
<g id="edge9" class="edge">
<title>Node7&#45;&gt;Node10</title>
<path fill="none" stroke="midnightblue" d="M218.85,-399.59C230.51,-404.18 244.66,-409.75 257.32,-414.74"/>
<polygon fill="midnightblue" stroke="midnightblue" points="256.07,-418.01 266.66,-418.41 258.63,-411.49 256.07,-418.01"/>
</g>
<!-- Node11 -->
<g id="node11" class="node">
<title>Node11</title>
<g id="a_node11"><a xlink:href="../../d1/d9b/getbsubs_8f90.html#a5090459bbac22499a3c1c6a97740cd1b" target="_top" xlink:title="Solves the radial force balance &#160;for &#160;in real space using collocation.">
<polygon fill="white" stroke="black" points="264,-380.5 264,-399.5 320,-399.5 320,-380.5 264,-380.5"/>
<text text-anchor="middle" x="292" y="-387.5" font-family="Helvetica,sans-Serif" font-size="10.00">getbsubs</text>
</a>
</g>
</g>
<!-- Node7&#45;&gt;Node11 -->
<g id="edge10" class="edge">
<title>Node7&#45;&gt;Node11</title>
<path fill="none" stroke="midnightblue" d="M218.85,-390C229.47,-390 242.17,-390 253.92,-390"/>
<polygon fill="midnightblue" stroke="midnightblue" points="253.93,-393.5 263.93,-390 253.93,-386.5 253.93,-393.5"/>
</g>
<!-- Node12 -->
<g id="node12" class="node">
<title>Node12</title>
<g id="a_node12"><a xlink:href="../../de/d25/mercier_8f90.html#a6635929818286c4cff963bd148261208" target="_top" xlink:title="Evaluate the Mercier stability criterion.">
<polygon fill="white" stroke="black" points="267.5,-342.5 267.5,-361.5 316.5,-361.5 316.5,-342.5 267.5,-342.5"/>
<text text-anchor="middle" x="292" y="-349.5" font-family="Helvetica,sans-Serif" font-size="10.00">mercier</text>
</a>
</g>
</g>
<!-- Node7&#45;&gt;Node12 -->
<g id="edge11" class="edge">
<title>Node7&#45;&gt;Node12</title>
<path fill="none" stroke="midnightblue" d="M218.85,-380.41C230.69,-375.75 245.09,-370.08 257.9,-365.03"/>
<polygon fill="midnightblue" stroke="midnightblue" points="259.3,-368.24 267.32,-361.32 256.74,-361.73 259.3,-368.24"/>
</g>
<!-- Node14 -->
<g id="node14" class="node">
<title>Node14</title>
<g id="a_node14"><a xlink:href="../../d5/de7/alias_8f90.html#a971bf2e3997d8e5ed08c060b651c88c4" target="_top" xlink:title="Fourier transform alias force from ztemp to gcons and also return intermediate output in g(c,...">
<polygon fill="white" stroke="black" points="175,-0.5 175,-19.5 212,-19.5 212,-0.5 175,-0.5"/>
<text text-anchor="middle" x="193.5" y="-7.5" font-family="Helvetica,sans-Serif" font-size="10.00">alias</text>
</a>
</g>
</g>
<!-- Node13&#45;&gt;Node14 -->
<g id="edge13" class="edge">
<title>Node13&#45;&gt;Node14</title>
<path fill="none" stroke="midnightblue" d="M107.74,-114.43C116.19,-96.15 136.61,-55.73 163,-29 164.07,-27.92 165.21,-26.86 166.4,-25.84"/>
<polygon fill="midnightblue" stroke="midnightblue" points="168.76,-28.45 174.7,-19.68 164.58,-22.84 168.76,-28.45"/>
</g>
<!-- Node15 -->
<g id="node15" class="node">
<title>Node15</title>
<g id="a_node15"><a xlink:href="../../d7/d61/bcovar_8f90.html#a1e1624195f0c0c7daa9f49d83bae5ce8" target="_top" xlink:title="Compute the covariant components of the magnetic field , .">
<polygon fill="white" stroke="black" points="170.5,-190.5 170.5,-209.5 216.5,-209.5 216.5,-190.5 170.5,-190.5"/>
<text text-anchor="middle" x="193.5" y="-197.5" font-family="Helvetica,sans-Serif" font-size="10.00">bcovar</text>
</a>
</g>
</g>
<!-- Node13&#45;&gt;Node15 -->
<g id="edge14" class="edge">
<title>Node13&#45;&gt;Node15</title>
<path fill="none" stroke="midnightblue" d="M112.67,-133.88C123.94,-145.74 143.91,-165.94 163,-181 164.58,-182.25 166.24,-183.49 167.94,-184.7"/>
<polygon fill="midnightblue" stroke="midnightblue" points="166.25,-187.79 176.5,-190.48 170.17,-181.99 166.25,-187.79"/>
</g>
<!-- Node19 -->
<g id="node19" class="node">
<title>Node19</title>
<g id="a_node19"><a xlink:href="../../db/d74/convert_8f90.html#ae6d3862ea21a8d39210a79c6955b5b75" target="_top" xlink:title="Convert internal mode representation to standard form for output (coefficients of cos(mu&#45;nv),...">
<polygon fill="white" stroke="black" points="169,-152.5 169,-171.5 218,-171.5 218,-152.5 169,-152.5"/>
<text text-anchor="middle" x="193.5" y="-159.5" font-family="Helvetica,sans-Serif" font-size="10.00">convert</text>
</a>
</g>
</g>
<!-- Node13&#45;&gt;Node19 -->
<g id="edge19" class="edge">
<title>Node13&#45;&gt;Node19</title>
<path fill="none" stroke="midnightblue" d="M125.96,-133.59C136.5,-138.09 149.25,-143.53 160.75,-148.44"/>
<polygon fill="midnightblue" stroke="midnightblue" points="159.48,-151.71 170.05,-152.41 162.23,-145.27 159.48,-151.71"/>
</g>
<!-- Node20 -->
<g id="node20" class="node">
<title>Node20</title>
<g id="a_node20"><a xlink:href="../../de/d0c/forces_8f90.html#a7b4708aaec3cc94526474c16bc3a16f0" target="_top" xlink:title="Compute the real&#45;space MHD forces.">
<polygon fill="white" stroke="black" points="171.5,-114.5 171.5,-133.5 215.5,-133.5 215.5,-114.5 171.5,-114.5"/>
<text text-anchor="middle" x="193.5" y="-121.5" font-family="Helvetica,sans-Serif" font-size="10.00">forces</text>
</a>
</g>
</g>
<!-- Node13&#45;&gt;Node20 -->
<g id="edge20" class="edge">
<title>Node13&#45;&gt;Node20</title>
<path fill="none" stroke="midnightblue" d="M127.35,-124C137.73,-124 150.03,-124 161.14,-124"/>
<polygon fill="midnightblue" stroke="midnightblue" points="161.32,-127.5 171.32,-124 161.32,-120.5 161.32,-127.5"/>
</g>
<!-- Node21 -->
<g id="node21" class="node">
<title>Node21</title>
<g id="a_node21"><a xlink:href="../../d8/dc3/jacobian_8f90.html#af346f65d2aa225d9ede6e0f23add6142" target="_top" xlink:title="Evaulate the Jacobian of the transform from flux&#45; to cylindrical coordinates.">
<polygon fill="white" stroke="black" points="167,-76.5 167,-95.5 220,-95.5 220,-76.5 167,-76.5"/>
<text text-anchor="middle" x="193.5" y="-83.5" font-family="Helvetica,sans-Serif" font-size="10.00">jacobian</text>
</a>
</g>
</g>
<!-- Node13&#45;&gt;Node21 -->
<g id="edge21" class="edge">
<title>Node13&#45;&gt;Node21</title>
<path fill="none" stroke="midnightblue" d="M125.96,-114.41C136.5,-109.91 149.25,-104.47 160.75,-99.56"/>
<polygon fill="midnightblue" stroke="midnightblue" points="162.23,-102.73 170.05,-95.59 159.48,-96.29 162.23,-102.73"/>
</g>
<!-- Node22 -->
<g id="node22" class="node">
<title>Node22</title>
<g id="a_node22"><a xlink:href="../../dc/d49/totzsp_8f90.html#ac4756c0f66a5a01d9c08334a98a61b21" target="_top" xlink:title=" ">
<polygon fill="white" stroke="black" points="169.5,-38.5 169.5,-57.5 217.5,-57.5 217.5,-38.5 169.5,-38.5"/>
<text text-anchor="middle" x="193.5" y="-45.5" font-family="Helvetica,sans-Serif" font-size="10.00">totzsps</text>
</a>
</g>
</g>
<!-- Node13&#45;&gt;Node22 -->
<g id="edge22" class="edge">
<title>Node13&#45;&gt;Node22</title>
<path fill="none" stroke="midnightblue" d="M112.67,-114.12C123.94,-102.26 143.91,-82.06 163,-67 164.58,-65.75 166.24,-64.51 167.94,-63.3"/>
<polygon fill="midnightblue" stroke="midnightblue" points="170.17,-66.01 176.5,-57.52 166.25,-60.21 170.17,-66.01"/>
</g>
<!-- Node15&#45;&gt;Node5 -->
<g id="edge16" class="edge">
<title>Node15&#45;&gt;Node5</title>
<path fill="none" stroke="midnightblue" d="M210.91,-209.58C215.31,-212.41 219.97,-215.66 224,-219 241.91,-233.85 241.93,-242.35 260,-257 261.54,-258.25 263.18,-259.48 264.86,-260.68"/>
<polygon fill="midnightblue" stroke="midnightblue" points="263.13,-263.73 273.4,-266.32 266.98,-257.89 263.13,-263.73"/>
</g>
<!-- Node16 -->
<g id="node16" class="node">
<title>Node16</title>
<g id="a_node16"><a xlink:href="../../d8/d7d/add__fluxes_8f90.html#a988e7013ef02301b9cfbde5b8068d5af" target="_top" xlink:title="Add the magnetic fluxes to the tangential derivatives of &#160;to arrive at the contravariant magnetic fie...">
<polygon fill="white" stroke="black" points="261,-228.5 261,-247.5 323,-247.5 323,-228.5 261,-228.5"/>
<text text-anchor="middle" x="292" y="-235.5" font-family="Helvetica,sans-Serif" font-size="10.00">add_fluxes</text>
</a>
</g>
</g>
<!-- Node15&#45;&gt;Node16 -->
<g id="edge15" class="edge">
<title>Node15&#45;&gt;Node16</title>
<path fill="none" stroke="midnightblue" d="M216.88,-208.81C228.89,-213.54 243.93,-219.46 257.32,-224.74"/>
<polygon fill="midnightblue" stroke="midnightblue" points="256.12,-228.03 266.71,-228.44 258.69,-221.51 256.12,-228.03"/>
</g>
<!-- Node17 -->
<g id="node17" class="node">
<title>Node17</title>
<g id="a_node17"><a xlink:href="../../d4/d51/lamcal_8f90.html#aae66bdcec0bbb969704413d933148096" target="_top" xlink:title="Normalization parameters for .">
<polygon fill="white" stroke="black" points="269.5,-190.5 269.5,-209.5 314.5,-209.5 314.5,-190.5 269.5,-190.5"/>
<text text-anchor="middle" x="292" y="-197.5" font-family="Helvetica,sans-Serif" font-size="10.00">lamcal</text>
</a>
</g>
</g>
<!-- Node15&#45;&gt;Node17 -->
<g id="edge17" class="edge">
<title>Node15&#45;&gt;Node17</title>
<path fill="none" stroke="midnightblue" d="M216.88,-200C229.48,-200 245.42,-200 259.29,-200"/>
<polygon fill="midnightblue" stroke="midnightblue" points="259.4,-203.5 269.4,-200 259.4,-196.5 259.4,-203.5"/>
</g>
<!-- Node18 -->
<g id="node18" class="node">
<title>Node18</title>
<g id="a_node18"><a xlink:href="../../d4/da9/precondn_8f90.html#a4c530a7978360300894520e9c5f7663c" target="_top" xlink:title="Compute preconditioning matrix elements for , &#160;force.">
<polygon fill="white" stroke="black" points="264,-152.5 264,-171.5 320,-171.5 320,-152.5 264,-152.5"/>
<text text-anchor="middle" x="292" y="-159.5" font-family="Helvetica,sans-Serif" font-size="10.00">precondn</text>
</a>
</g>
</g>
<!-- Node15&#45;&gt;Node18 -->
<g id="edge18" class="edge">
<title>Node15&#45;&gt;Node18</title>
<path fill="none" stroke="midnightblue" d="M216.88,-191.19C228.89,-186.46 243.93,-180.54 257.32,-175.26"/>
<polygon fill="midnightblue" stroke="midnightblue" points="258.69,-178.49 266.71,-171.56 256.12,-171.97 258.69,-178.49"/>
</g>
</g>
</svg>
        <g id="navigator" transform="translate(0 0)" fill="#404254">
                <rect fill="#f2f5e9" fill-opacity="0.5" stroke="#606060" stroke-width=".5" x="0" y="0" width="60" height="60"/>
                <use id="zoomplus" xlink:href="#zoomPlus" x="17" y="9" onmousedown="handleZoom(evt,'in')"/>
                <use id="zoomminus" xlink:href="#zoomMin" x="42" y="9" onmousedown="handleZoom(evt,'out')"/>
                <use id="reset" xlink:href="#resetDef" x="30" y="36" onmousedown="handleReset()"/>
                <g id="arrowUp" xlink:href="#dirArrow" transform="translate(30 24)" onmousedown="handlePan(0,-1)">
                  <use xlink:href="#rim" fill="#404040">
                        <set attributeName="fill" to="#808080" begin="arrowUp.mouseover" end="arrowUp.mouseout"/>
                  </use>
                  <path fill="none" stroke="white" stroke-width="1.5" d="M0,-3.0v7 M-2.5,-0.5L0,-3.0L2.5,-0.5"/>
                </g>
                <g id="arrowRight" xlink:href="#dirArrow" transform="rotate(90) translate(36 -43)" onmousedown="handlePan(1,0)">
                  <use xlink:href="#rim" fill="#404040">
                        <set attributeName="fill" to="#808080" begin="arrowRight.mouseover" end="arrowRight.mouseout"/>
                  </use>
                  <path fill="none" stroke="white" stroke-width="1.5" d="M0,-3.0v7 M-2.5,-0.5L0,-3.0L2.5,-0.5"/>
                </g>
                <g id="arrowDown" xlink:href="#dirArrow" transform="rotate(180) translate(-30 -48)" onmousedown="handlePan(0,1)">
                  <use xlink:href="#rim" fill="#404040">
                        <set attributeName="fill" to="#808080" begin="arrowDown.mouseover" end="arrowDown.mouseout"/>
                  </use>
                  <path fill="none" stroke="white" stroke-width="1.5" d="M0,-3.0v7 M-2.5,-0.5L0,-3.0L2.5,-0.5"/>
                </g>
                <g id="arrowLeft" xlink:href="#dirArrow" transform="rotate(270) translate(-36 17)" onmousedown="handlePan(-1,0)">
                  <use xlink:href="#rim" fill="#404040">
                        <set attributeName="fill" to="#808080" begin="arrowLeft.mouseover" end="arrowLeft.mouseout"/>
                  </use>
                  <path fill="none" stroke="white" stroke-width="1.5" d="M0,-3.0v7 M-2.5,-0.5L0,-3.0L2.5,-0.5"/>
                </g>
        </g>
        <svg viewBox="0 0 15 15" width="100%" height="30px" preserveAspectRatio="xMaxYMin meet">
         <g id="arrow_out" transform="scale(0.3 0.3)">
          <a xlink:href="fileout_8f90_a7228e984aaf2c38bd772e3d846fab7af_cgraph_org.svg" target="_base">
           <rect id="button" ry="5" rx="5" y="6" x="6" height="38" width="38"
                fill="#f2f5e9" fill-opacity="0.5" stroke="#606060" stroke-width="1.0"/>
           <path id="arrow"
             d="M 11.500037,31.436501 C 11.940474,20.09759 22.043105,11.32322 32.158766,21.979434 L 37.068811,17.246167 C 37.068811,17.246167 37.088388,32 37.088388,32 L 22.160133,31.978069 C 22.160133,31.978069 26.997745,27.140456 26.997745,27.140456 C 18.528582,18.264221 13.291696,25.230495 11.500037,31.436501 z"
             style="fill:#404040;"/>
          </a>
         </g>
        </svg>
</svg>
