<?xml version="1.0" encoding="UTF-8" standalone="no"?>
<!DOCTYPE svg PUBLIC "-//W3C//DTD SVG 1.1//EN"
 "http://www.w3.org/Graphics/SVG/1.1/DTD/svg11.dtd">
<!-- Generated by graphviz version 8.1.0 (20230707.0739)
 -->
<!-- Title: analyt Pages: 1 -->
<svg width="214pt" height="119pt"
 viewBox="0.00 0.00 214.00 119.25" xmlns="http://www.w3.org/2000/svg" xmlns:xlink="http://www.w3.org/1999/xlink">
<g id="graph0" class="graph" transform="scale(1 1) rotate(0) translate(4 115.25)">
<title>analyt</title>
<!-- Node1 -->
<g id="Node000001" class="node">
<title>Node1</title>
<g id="a_Node000001"><a xlink:title="Compute the analytical&#45;and&#45;numerical 4D Fourier integrals over the equivalently&#45;singular functions.">
<polygon fill="#999999" stroke="#666666" points="41.5,-74.25 0,-74.25 0,-55 41.5,-55 41.5,-74.25"/>
<text text-anchor="middle" x="20.75" y="-60.75" font-family="Helvetica,sans-Serif" font-size="10.00">analyt</text>
</a>
</g>
</g>
<!-- Node2 -->
<g id="Node000002" class="node">
<title>Node2</title>
<g id="a_Node000002"><a xlink:href="../../df/df3/analysum_8f90.html#aa51b1a5786e7b5719fe2ca679efc66b0" target="_top" xlink:title="Compute the (m=0 or n=0) part of the DFT of the analytical Fourier transforms of the equivalently&#45;sin...">
<polygon fill="white" stroke="#666666" points="170.38,-111.25 113.12,-111.25 113.12,-92 170.38,-92 170.38,-111.25"/>
<text text-anchor="middle" x="141.75" y="-97.75" font-family="Helvetica,sans-Serif" font-size="10.00">analysum</text>
</a>
</g>
</g>
<!-- Node1&#45;&gt;Node2 -->
<g id="edge1_Node000001_Node000002" class="edge">
<title>Node1&#45;&gt;Node2</title>
<g id="a_edge1_Node000001_Node000002"><a xlink:title=" ">
<path fill="none" stroke="#63b8ff" d="M41.8,-71.73C52.37,-75.41 65.59,-79.9 77.5,-83.62 85.46,-86.11 94.02,-88.64 102.19,-90.99"/>
<polygon fill="#63b8ff" stroke="#63b8ff" points="101.06,-94.59 111.64,-93.96 102.97,-87.86 101.06,-94.59"/>
</a>
</g>
</g>
<!-- Node3 -->
<g id="Node000003" class="node">
<title>Node3</title>
<g id="a_Node000003"><a xlink:href="../../d1/d90/analysum2_8f90.html#a47a0d185131a197c6fc62ee5d68d62fb" target="_top" xlink:title="Compute the (m&gt;0 and n&gt;0) part of the DFT of the analytical Fourier transforms of the equivalently&#45;si...">
<polygon fill="white" stroke="#666666" points="173,-74.25 110.5,-74.25 110.5,-55 173,-55 173,-74.25"/>
<text text-anchor="middle" x="141.75" y="-60.75" font-family="Helvetica,sans-Serif" font-size="10.00">analysum2</text>
</a>
</g>
</g>
<!-- Node1&#45;&gt;Node3 -->
<g id="edge2_Node000001_Node000003" class="edge">
<title>Node1&#45;&gt;Node3</title>
<g id="a_edge2_Node000001_Node000003"><a xlink:title=" ">
<path fill="none" stroke="#63b8ff" d="M41.94,-64.62C57.64,-64.62 79.96,-64.62 99.41,-64.62"/>
<polygon fill="#63b8ff" stroke="#63b8ff" points="99.16,-68.13 109.16,-64.62 99.16,-61.13 99.16,-68.13"/>
</a>
</g>
</g>
<!-- Node4 -->
<g id="Node000004" class="node">
<title>Node4</title>
<g id="a_Node000004"><a xlink:href="../../d8/dfd/namespacedbgout.html#acdd1612a38e44b6469dc03d9d1c6ceed" target="_top" xlink:title="check if any output is desired for the current iteration check if the given context should be openend...">
<polygon fill="white" stroke="#666666" points="206,-19.25 77.5,-19.25 77.5,0 206,0 206,-19.25"/>
<text text-anchor="middle" x="141.75" y="-5.75" font-family="Helvetica,sans-Serif" font-size="10.00">dbgout::open_dbg_context</text>
</a>
</g>
</g>
<!-- Node1&#45;&gt;Node4 -->
<g id="edge3_Node000001_Node000004" class="edge">
<title>Node1&#45;&gt;Node4</title>
<g id="a_edge3_Node000001_Node000004"><a xlink:title=" ">
<path fill="none" stroke="#63b8ff" d="M41.94,-55.29C60.29,-46.81 87.66,-34.16 108.95,-24.32"/>
<polygon fill="#63b8ff" stroke="#63b8ff" points="110.24,-27.12 117.85,-19.75 107.3,-20.77 110.24,-27.12"/>
</a>
</g>
</g>
<!-- Node4&#45;&gt;Node4 -->
<g id="edge4_Node000004_Node000004" class="edge">
<title>Node4&#45;&gt;Node4</title>
<g id="a_edge4_Node000004_Node000004"><a xlink:title=" ">
<path fill="none" stroke="#63b8ff" d="M122.81,-19.54C114.17,-28.15 120.48,-37.25 141.75,-37.25 154.05,-37.25 161.34,-34.21 163.64,-29.98"/>
<polygon fill="#63b8ff" stroke="#63b8ff" points="166.78,-29.21 160.69,-20.54 160.05,-31.11 166.78,-29.21"/>
</a>
</g>
</g>
</g>
</svg>
