<?xml version="1.0" encoding="UTF-8" standalone="no"?>
<!DOCTYPE svg PUBLIC "-//W3C//DTD SVG 1.1//EN"
 "http://www.w3.org/Graphics/SVG/1.1/DTD/svg11.dtd">
<!-- Generated by graphviz version 2.49.3 (20211027.1501)
 -->
<!-- Title: analyt Pages: 1 -->
<svg width="215pt" height="122pt"
 viewBox="0.00 0.00 215.00 122.00" xmlns="http://www.w3.org/2000/svg" xmlns:xlink="http://www.w3.org/1999/xlink">
<g id="graph0" class="graph" transform="scale(1 1) rotate(0) translate(4 118)">
<title>analyt</title>
<polygon fill="white" stroke="transparent" points="-4,4 -4,-118 211,-118 211,4 -4,4"/>
<!-- Node1 -->
<g id="node1" class="node">
<title>Node1</title>
<g id="a_node1"><a xlink:title="Compute the analytical&#45;and&#45;numerical 4D Fourier integrals over the equivalently&#45;singular functions.">
<polygon fill="#bfbfbf" stroke="black" points="0,-56.5 0,-75.5 42,-75.5 42,-56.5 0,-56.5"/>
<text text-anchor="middle" x="21" y="-63.5" font-family="Helvetica,sans-Serif" font-size="10.00">analyt</text>
</a>
</g>
</g>
<!-- Node2 -->
<g id="node2" class="node">
<title>Node2</title>
<g id="a_node2"><a xlink:href="../../df/df3/analysum_8f90.html#aa51b1a5786e7b5719fe2ca679efc66b0" target="_top" xlink:title="Compute the (m=0 or n=0) part of the DFT of the analytical Fourier transforms of the equivalently&#45;sin...">
<polygon fill="white" stroke="black" points="113.5,-94.5 113.5,-113.5 171.5,-113.5 171.5,-94.5 113.5,-94.5"/>
<text text-anchor="middle" x="142.5" y="-101.5" font-family="Helvetica,sans-Serif" font-size="10.00">analysum</text>
</a>
</g>
</g>
<!-- Node1&#45;&gt;Node2 -->
<g id="edge1" class="edge">
<title>Node1&#45;&gt;Node2</title>
<path fill="none" stroke="midnightblue" d="M42.16,-73.04C52.79,-76.7 66.07,-81.19 78,-85 86.27,-87.64 95.19,-90.38 103.65,-92.92"/>
<polygon fill="midnightblue" stroke="midnightblue" points="102.72,-96.29 113.3,-95.8 104.72,-89.59 102.72,-96.29"/>
</g>
<!-- Node3 -->
<g id="node3" class="node">
<title>Node3</title>
<g id="a_node3"><a xlink:href="../../d1/d90/analysum2_8f90.html#a47a0d185131a197c6fc62ee5d68d62fb" target="_top" xlink:title="Compute the (m&gt;0 and n&gt;0) part of the DFT of the analytical Fourier transforms of the equivalently&#45;si...">
<polygon fill="white" stroke="black" points="111,-56.5 111,-75.5 174,-75.5 174,-56.5 111,-56.5"/>
<text text-anchor="middle" x="142.5" y="-63.5" font-family="Helvetica,sans-Serif" font-size="10.00">analysum2</text>
</a>
</g>
</g>
<!-- Node1&#45;&gt;Node3 -->
<g id="edge2" class="edge">
<title>Node1&#45;&gt;Node3</title>
<path fill="none" stroke="midnightblue" d="M42,-66C57.96,-66 80.83,-66 100.63,-66"/>
<polygon fill="midnightblue" stroke="midnightblue" points="100.65,-69.5 110.65,-66 100.65,-62.5 100.65,-69.5"/>
</g>
<!-- Node4 -->
<g id="node4" class="node">
<title>Node4</title>
<g id="a_node4"><a xlink:href="../../d8/dfd/namespacedbgout.html#acdd1612a38e44b6469dc03d9d1c6ceed" target="_top" xlink:title="check if any output is desired for the current iteration check if the given context should be openend...">
<polygon fill="white" stroke="black" points="78,-0.5 78,-19.5 207,-19.5 207,-0.5 78,-0.5"/>
<text text-anchor="middle" x="142.5" y="-7.5" font-family="Helvetica,sans-Serif" font-size="10.00">dbgout::open_dbg_context</text>
</a>
</g>
</g>
<!-- Node1&#45;&gt;Node4 -->
<g id="edge3" class="edge">
<title>Node1&#45;&gt;Node4</title>
<path fill="none" stroke="midnightblue" d="M42,-56.63C61.1,-47.68 90.12,-34.08 111.9,-23.87"/>
<polygon fill="midnightblue" stroke="midnightblue" points="113.46,-27 121.03,-19.59 110.49,-20.67 113.46,-27"/>
</g>
<!-- Node4&#45;&gt;Node4 -->
<g id="edge4" class="edge">
<title>Node4&#45;&gt;Node4</title>
<path fill="none" stroke="midnightblue" d="M124,-19.76C115.01,-28.57 121.17,-38 142.5,-38 156.16,-38 163.6,-34.13 164.82,-29.03"/>
<polygon fill="midnightblue" stroke="midnightblue" points="168.05,-27.67 161,-19.76 161.57,-30.34 168.05,-27.67"/>
</g>
</g>
</svg>
