<?xml version="1.0" encoding="UTF-8" standalone="no"?>
<!DOCTYPE svg PUBLIC "-//W3C//DTD SVG 1.1//EN"
 "http://www.w3.org/Graphics/SVG/1.1/DTD/svg11.dtd">
<!-- Generated by graphviz version 2.47.1 (20210421.1823)
 -->
<!-- Title: add_fluxes Pages: 1 -->
<svg width="481pt" height="66pt"
 viewBox="0.00 0.00 481.00 66.00" xmlns="http://www.w3.org/2000/svg" xmlns:xlink="http://www.w3.org/1999/xlink">
<g id="graph0" class="graph" transform="scale(1 1) rotate(0) translate(4 62)">
<title>add_fluxes</title>
<polygon fill="white" stroke="transparent" points="-4,4 -4,-62 477,-62 477,4 -4,4"/>
<!-- Node1 -->
<g id="node1" class="node">
<title>Node1</title>
<g id="a_node1"><a xlink:title="Add the magnetic fluxes to the tangential derivatives of &#160;to arrive at the contravariant magnetic fie...">
<polygon fill="#bfbfbf" stroke="black" points="411,-19.5 411,-38.5 473,-38.5 473,-19.5 411,-19.5"/>
<text text-anchor="middle" x="442" y="-26.5" font-family="Helvetica,sans-Serif" font-size="10.00">add_fluxes</text>
</a>
</g>
</g>
<!-- Node2 -->
<g id="node2" class="node">
<title>Node2</title>
<g id="a_node2"><a xlink:href="../../d7/d61/bcovar_8f90.html#a1e1624195f0c0c7daa9f49d83bae5ce8" target="_top" xlink:title="Compute the covariant components of the magnetic field , .">
<polygon fill="white" stroke="black" points="329,-19.5 329,-38.5 375,-38.5 375,-19.5 329,-19.5"/>
<text text-anchor="middle" x="352" y="-26.5" font-family="Helvetica,sans-Serif" font-size="10.00">bcovar</text>
</a>
</g>
</g>
<!-- Node1&#45;&gt;Node2 -->
<g id="edge1" class="edge">
<title>Node1&#45;&gt;Node2</title>
<path fill="none" stroke="midnightblue" d="M400.56,-29C391.76,-29 382.77,-29 375,-29"/>
<polygon fill="midnightblue" stroke="midnightblue" points="400.72,-32.5 410.72,-29 400.72,-25.5 400.72,-32.5"/>
</g>
<!-- Node3 -->
<g id="node3" class="node">
<title>Node3</title>
<g id="a_node3"><a xlink:href="../../d3/d4f/funct3d_8f90.html#a800bacc22176e16323899df87b55c547" target="_top" xlink:title="Evaluate the three&#45;dimensional MHD energy functional.">
<polygon fill="white" stroke="black" points="244,-19.5 244,-38.5 293,-38.5 293,-19.5 244,-19.5"/>
<text text-anchor="middle" x="268.5" y="-26.5" font-family="Helvetica,sans-Serif" font-size="10.00">funct3d</text>
</a>
</g>
</g>
<!-- Node2&#45;&gt;Node3 -->
<g id="edge2" class="edge">
<title>Node2&#45;&gt;Node3</title>
<path fill="none" stroke="midnightblue" d="M318.7,-29C310.18,-29 301.14,-29 293.17,-29"/>
<polygon fill="midnightblue" stroke="midnightblue" points="318.73,-32.5 328.73,-29 318.73,-25.5 318.73,-32.5"/>
</g>
<!-- Node4 -->
<g id="node4" class="node">
<title>Node4</title>
<g id="a_node4"><a xlink:href="../../de/da9/evolve_8f90.html#a8103e838be03904e03551e04f6b396e4" target="_top" xlink:title="Take a single time step in Fourier space to evolve the Fourier coefficients describing the equilibriu...">
<polygon fill="white" stroke="black" points="163,-38.5 163,-57.5 208,-57.5 208,-38.5 163,-38.5"/>
<text text-anchor="middle" x="185.5" y="-45.5" font-family="Helvetica,sans-Serif" font-size="10.00">evolve</text>
</a>
</g>
</g>
<!-- Node3&#45;&gt;Node4 -->
<g id="edge3" class="edge">
<title>Node3&#45;&gt;Node4</title>
<path fill="none" stroke="midnightblue" d="M233.8,-36.91C225.16,-38.93 216.11,-41.05 208.26,-42.9"/>
<polygon fill="midnightblue" stroke="midnightblue" points="234.7,-40.29 243.64,-34.6 233.1,-33.47 234.7,-40.29"/>
</g>
<!-- Node7 -->
<g id="node7" class="node">
<title>Node7</title>
<g id="a_node7"><a xlink:href="../../d0/d71/fileout_8f90.html#a7228e984aaf2c38bd772e3d846fab7af" target="_top" xlink:title="Write the output files.">
<polygon fill="white" stroke="black" points="81,-0.5 81,-19.5 123,-19.5 123,-0.5 81,-0.5"/>
<text text-anchor="middle" x="102" y="-7.5" font-family="Helvetica,sans-Serif" font-size="10.00">fileout</text>
</a>
</g>
</g>
<!-- Node3&#45;&gt;Node7 -->
<g id="edge6" class="edge">
<title>Node3&#45;&gt;Node7</title>
<path fill="none" stroke="midnightblue" d="M233.75,-25.1C200.47,-21.26 150.71,-15.51 123.16,-12.33"/>
<polygon fill="midnightblue" stroke="midnightblue" points="233.6,-28.61 243.93,-26.28 234.4,-21.65 233.6,-28.61"/>
</g>
<!-- Node5 -->
<g id="node5" class="node">
<title>Node5</title>
<g id="a_node5"><a xlink:href="../../d7/d46/eqsolve_8f90.html#ab740b09d1b651e2ab8a60c5d552df0c2" target="_top" xlink:title="Iteratively evolve the Fourier coefficients that specify the equilibrium.">
<polygon fill="white" stroke="black" points="77,-38.5 77,-57.5 127,-57.5 127,-38.5 77,-38.5"/>
<text text-anchor="middle" x="102" y="-45.5" font-family="Helvetica,sans-Serif" font-size="10.00">eqsolve</text>
</a>
</g>
</g>
<!-- Node4&#45;&gt;Node5 -->
<g id="edge4" class="edge">
<title>Node4&#45;&gt;Node5</title>
<path fill="none" stroke="midnightblue" d="M152.41,-48C144.02,-48 135.11,-48 127.2,-48"/>
<polygon fill="midnightblue" stroke="midnightblue" points="152.66,-51.5 162.66,-48 152.66,-44.5 152.66,-51.5"/>
</g>
<!-- Node6 -->
<g id="node6" class="node">
<title>Node6</title>
<g id="a_node6"><a xlink:href="../../db/d61/vmec_8f90.html#a6d38ab7be2f9d818da4541e1d352ea23" target="_top" xlink:title="Main driver for VMEC.">
<polygon fill="white" stroke="black" points="0,-19.5 0,-38.5 41,-38.5 41,-19.5 0,-19.5"/>
<text text-anchor="middle" x="20.5" y="-26.5" font-family="Helvetica,sans-Serif" font-size="10.00">vmec</text>
</a>
</g>
</g>
<!-- Node5&#45;&gt;Node6 -->
<g id="edge5" class="edge">
<title>Node5&#45;&gt;Node6</title>
<path fill="none" stroke="midnightblue" d="M66.71,-39.8C57.96,-37.71 48.84,-35.53 41.11,-33.69"/>
<polygon fill="midnightblue" stroke="midnightblue" points="66.18,-43.28 76.72,-42.2 67.8,-36.47 66.18,-43.28"/>
</g>
<!-- Node7&#45;&gt;Node6 -->
<g id="edge7" class="edge">
<title>Node7&#45;&gt;Node6</title>
<path fill="none" stroke="midnightblue" d="M70.93,-17.19C60.91,-19.58 50.01,-22.19 41.01,-24.34"/>
<polygon fill="midnightblue" stroke="midnightblue" points="72.03,-20.52 80.94,-14.79 70.4,-13.71 72.03,-20.52"/>
</g>
</g>
</svg>
