<?xml version="1.0" encoding="UTF-8" standalone="no"?>
<!DOCTYPE svg PUBLIC "-//W3C//DTD SVG 1.1//EN"
 "http://www.w3.org/Graphics/SVG/1.1/DTD/svg11.dtd">
<!-- Generated by graphviz version 2.49.3 (20211027.1501)
 -->
<!-- Title: add_fluxes Pages: 1 -->
<svg width="235pt" height="84pt"
 viewBox="0.00 0.00 235.00 84.00" xmlns="http://www.w3.org/2000/svg" xmlns:xlink="http://www.w3.org/1999/xlink">
<g id="graph0" class="graph" transform="scale(1 1) rotate(0) translate(4 80)">
<title>add_fluxes</title>
<polygon fill="white" stroke="transparent" points="-4,4 -4,-80 231,-80 231,4 -4,4"/>
<!-- Node1 -->
<g id="node1" class="node">
<title>Node1</title>
<g id="a_node1"><a xlink:title="Add the magnetic fluxes to the tangential derivatives of &#160;to arrive at the contravariant magnetic fie...">
<polygon fill="#bfbfbf" stroke="black" points="0,-28.5 0,-47.5 62,-47.5 62,-28.5 0,-28.5"/>
<text text-anchor="middle" x="31" y="-35.5" font-family="Helvetica,sans-Serif" font-size="10.00">add_fluxes</text>
</a>
</g>
</g>
<!-- Node2 -->
<g id="node2" class="node">
<title>Node2</title>
<g id="a_node2"><a xlink:href="../../d8/dfd/namespacedbgout.html#a0752528f123b592bc57f687438b75d9b" target="_top" xlink:title=" ">
<polygon fill="white" stroke="black" points="98,-56.5 98,-75.5 227,-75.5 227,-56.5 98,-56.5"/>
<text text-anchor="middle" x="162.5" y="-63.5" font-family="Helvetica,sans-Serif" font-size="10.00">dbgout::open_dbg_context</text>
</a>
</g>
</g>
<!-- Node1&#45;&gt;Node2 -->
<g id="edge1" class="edge">
<title>Node1&#45;&gt;Node2</title>
<path fill="none" stroke="midnightblue" d="M62.04,-44.49C75.52,-47.41 91.86,-50.94 107.36,-54.29"/>
<polygon fill="midnightblue" stroke="midnightblue" points="106.87,-57.77 117.39,-56.46 108.35,-50.93 106.87,-57.77"/>
</g>
<!-- Node3 -->
<g id="node3" class="node">
<title>Node3</title>
<g id="a_node3"><a xlink:href="../../d8/dfd/namespacedbgout.html#a0537172e9da0db08b9d29ab8880f0559" target="_top" xlink:title=" ">
<polygon fill="white" stroke="black" points="110,-0.5 110,-19.5 215,-19.5 215,-0.5 110,-0.5"/>
<text text-anchor="middle" x="162.5" y="-7.5" font-family="Helvetica,sans-Serif" font-size="10.00">dbgout::should_write</text>
</a>
</g>
</g>
<!-- Node1&#45;&gt;Node3 -->
<g id="edge2" class="edge">
<title>Node1&#45;&gt;Node3</title>
<path fill="none" stroke="midnightblue" d="M62.04,-31.51C75.52,-28.59 91.86,-25.06 107.36,-21.71"/>
<polygon fill="midnightblue" stroke="midnightblue" points="108.35,-25.07 117.39,-19.54 106.87,-18.23 108.35,-25.07"/>
</g>
<!-- Node3&#45;&gt;Node3 -->
<g id="edge3" class="edge">
<title>Node3&#45;&gt;Node3</title>
<path fill="none" stroke="midnightblue" d="M142.46,-19.76C132.72,-28.57 139.39,-38 162.5,-38 177.3,-38 185.36,-34.13 186.68,-29.03"/>
<polygon fill="midnightblue" stroke="midnightblue" points="189.81,-27.46 182.54,-19.76 183.42,-30.31 189.81,-27.46"/>
</g>
</g>
</svg>
