<?xml version="1.0" encoding="UTF-8" standalone="no"?>
<!DOCTYPE svg PUBLIC "-//W3C//DTD SVG 1.1//EN"
 "http://www.w3.org/Graphics/SVG/1.1/DTD/svg11.dtd">
<!-- Generated by graphviz version 9.0.0 (20230911.1827)
 -->
<!-- Title: convert Pages: 1 -->
<svg width="463pt" height="65pt"
 viewBox="0.00 0.00 463.25 65.25" xmlns="http://www.w3.org/2000/svg" xmlns:xlink="http://www.w3.org/1999/xlink">

<svg id="main" version="1.1" xmlns="http://www.w3.org/2000/svg" xmlns:xlink="http://www.w3.org/1999/xlink" xml:space="preserve" onload="init(evt)">
<style type="text/css"><![CDATA[
.node, .edge {opacity: 0.7;}
.node.selected, .edge.selected {opacity: 1;}
.edge:hover path { stroke: red; }
.edge:hover polygon { stroke: red; fill: red; }
]]></style>
<script type="application/ecmascript" xlink:href="../../svg.min.js"/>
<svg id="graph" class="graph">
<g id="graph0" class="graph" transform="scale(1 1) rotate(0) translate(4 61.25)">
<title>convert</title>
<!-- Node1 -->
<g id="Node000001" class="node">
<title>Node1</title>
<g id="a_Node000001"><a xlink:title="Convert internal mode representation to standard form for output (coefficients of cos(mu&#45;nv),...">
<polygon fill="#999999" stroke="#666666" points="455.25,-37.25 407,-37.25 407,-18 455.25,-18 455.25,-37.25"/>
<text text-anchor="middle" x="431.12" y="-23.75" font-family="Helvetica,sans-Serif" font-size="10.00">convert</text>
</a>
</g>
</g>
<!-- Node2 -->
<g id="Node000002" class="node">
<title>Node2</title>
<g id="a_Node000002"><a xlink:href="../../d3/d4f/funct3d_8f90.html#a800bacc22176e16323899df87b55c547" target="_top" xlink:title="Evaluate the three&#45;dimensional MHD energy functional. Think of this as the &quot;forward model&quot; that tells...">
<polygon fill="white" stroke="#666666" points="371,-56.25 322.75,-56.25 322.75,-37 371,-37 371,-56.25"/>
<text text-anchor="middle" x="346.88" y="-42.75" font-family="Helvetica,sans-Serif" font-size="10.00">funct3d</text>
</a>
</g>
</g>
<!-- Node1&#45;&gt;Node2 -->
<g id="edge1_Node000001_Node000002" class="edge">
<title>Node1&#45;&gt;Node2</title>
<g id="a_edge1_Node000001_Node000002"><a xlink:title=" ">
<path fill="none" stroke="#63b8ff" d="M395.58,-35.61C387.39,-37.5 378.84,-39.47 371.28,-41.22"/>
<polygon fill="#63b8ff" stroke="#63b8ff" points="396.35,-39.02 405.3,-33.36 394.77,-32.2 396.35,-39.02"/>
</a>
</g>
</g>
<!-- Node8 -->
<g id="Node000008" class="node">
<title>Node8</title>
<g id="a_Node000008"><a xlink:href="../../de/d3f/wrout_8f90.html#acfcf1bded82176b6a4a4a4ca430d75a9" target="_top" xlink:title="Write the output files of VMEC.">
<polygon fill="white" stroke="#666666" points="366.88,-19.25 326.88,-19.25 326.88,0 366.88,0 366.88,-19.25"/>
<text text-anchor="middle" x="346.88" y="-5.75" font-family="Helvetica,sans-Serif" font-size="10.00">wrout</text>
</a>
</g>
</g>
<!-- Node1&#45;&gt;Node8 -->
<g id="edge8_Node000001_Node000008" class="edge">
<title>Node1&#45;&gt;Node8</title>
<g id="a_edge8_Node000001_Node000008"><a xlink:title=" ">
<path fill="none" stroke="#63b8ff" d="M395.69,-20.09C385.92,-17.95 375.64,-15.7 367.12,-13.84"/>
<polygon fill="#63b8ff" stroke="#63b8ff" points="394.78,-23.47 405.3,-22.19 396.28,-16.63 394.78,-23.47"/>
</a>
</g>
</g>
<!-- Node3 -->
<g id="Node000003" class="node">
<title>Node3</title>
<g id="a_Node000003"><a xlink:href="../../de/da9/evolve_8f90.html#a8103e838be03904e03551e04f6b396e4" target="_top" xlink:title="Take a single time step in Fourier space to evolve the Fourier coefficients describing the equilibriu...">
<polygon fill="white" stroke="#666666" points="286.75,-56.25 242.25,-56.25 242.25,-37 286.75,-37 286.75,-56.25"/>
<text text-anchor="middle" x="264.5" y="-42.75" font-family="Helvetica,sans-Serif" font-size="10.00">evolve</text>
</a>
</g>
</g>
<!-- Node2&#45;&gt;Node3 -->
<g id="edge2_Node000002_Node000003" class="edge">
<title>Node2&#45;&gt;Node3</title>
<g id="a_edge2_Node000002_Node000003"><a xlink:title=" ">
<path fill="none" stroke="#63b8ff" d="M311.33,-46.62C303.08,-46.62 294.51,-46.62 287.04,-46.62"/>
<polygon fill="#63b8ff" stroke="#63b8ff" points="311.11,-50.13 321.11,-46.63 311.11,-43.13 311.11,-50.13"/>
</a>
</g>
</g>
<!-- Node7 -->
<g id="Node000007" class="node">
<title>Node7</title>
<g id="a_Node000007"><a xlink:href="../../d0/d71/fileout_8f90.html#a7228e984aaf2c38bd772e3d846fab7af" target="_top" xlink:title="Write the output files.">
<polygon fill="white" stroke="#666666" points="285.25,-19.25 243.75,-19.25 243.75,0 285.25,0 285.25,-19.25"/>
<text text-anchor="middle" x="264.5" y="-5.75" font-family="Helvetica,sans-Serif" font-size="10.00">fileout</text>
</a>
</g>
</g>
<!-- Node2&#45;&gt;Node7 -->
<g id="edge6_Node000002_Node000007" class="edge">
<title>Node2&#45;&gt;Node7</title>
<g id="a_edge6_Node000002_Node000007"><a xlink:title=" ">
<path fill="none" stroke="#63b8ff" d="M313.58,-31.76C304.09,-27.39 293.99,-22.74 285.51,-18.84"/>
<polygon fill="#63b8ff" stroke="#63b8ff" points="311.99,-34.88 322.54,-35.88 314.92,-28.52 311.99,-34.88"/>
</a>
</g>
</g>
<!-- Node4 -->
<g id="Node000004" class="node">
<title>Node4</title>
<g id="a_Node000004"><a xlink:href="../../d7/d46/eqsolve_8f90.html#ab740b09d1b651e2ab8a60c5d552df0c2" target="_top" xlink:title="Iteratively evolve the Fourier coefficients that specify the equilibrium.">
<polygon fill="white" stroke="#666666" points="206.25,-57.25 156.5,-57.25 156.5,-38 206.25,-38 206.25,-57.25"/>
<text text-anchor="middle" x="181.38" y="-43.75" font-family="Helvetica,sans-Serif" font-size="10.00">eqsolve</text>
</a>
</g>
</g>
<!-- Node3&#45;&gt;Node4 -->
<g id="edge3_Node000003_Node000004" class="edge">
<title>Node3&#45;&gt;Node4</title>
<g id="a_edge3_Node000003_Node000004"><a xlink:title=" ">
<path fill="none" stroke="#63b8ff" d="M230.44,-47.03C222.42,-47.13 213.98,-47.24 206.46,-47.33"/>
<polygon fill="#63b8ff" stroke="#63b8ff" points="230.29,-50.53 240.25,-46.91 230.2,-43.54 230.29,-50.53"/>
</a>
</g>
</g>
<!-- Node5 -->
<g id="Node000005" class="node">
<title>Node5</title>
<g id="a_Node000005"><a xlink:href="../../db/d61/vmec_8f90.html#a6d38ab7be2f9d818da4541e1d352ea23" target="_top" xlink:title="Main driver for VMEC.">
<polygon fill="white" stroke="#666666" points="120.5,-38.25 80.5,-38.25 80.5,-19 120.5,-19 120.5,-38.25"/>
<text text-anchor="middle" x="100.5" y="-24.75" font-family="Helvetica,sans-Serif" font-size="10.00">vmec</text>
</a>
</g>
</g>
<!-- Node4&#45;&gt;Node5 -->
<g id="edge4_Node000004_Node000005" class="edge">
<title>Node4&#45;&gt;Node5</title>
<g id="a_edge4_Node000004_Node000005"><a xlink:title=" ">
<path fill="none" stroke="#63b8ff" d="M145.22,-39.16C136.89,-37.15 128.29,-35.08 120.96,-33.31"/>
<polygon fill="#63b8ff" stroke="#63b8ff" points="144.27,-42.53 154.81,-41.47 145.91,-35.72 144.27,-42.53"/>
</a>
</g>
</g>
<!-- Node6 -->
<g id="Node000006" class="node">
<title>Node6</title>
<g id="a_Node000006"><a xlink:href="../../db/d61/vmec_8f90.html#ace5bdf043bb85c8f0a9fc582bdb55725" target="_top" xlink:title="Main program of VMEC.">
<polygon fill="white" stroke="#666666" points="44.5,-38.25 0,-38.25 0,-19 44.5,-19 44.5,-38.25"/>
<text text-anchor="middle" x="22.25" y="-24.75" font-family="Helvetica,sans-Serif" font-size="10.00">xvmec</text>
</a>
</g>
</g>
<!-- Node5&#45;&gt;Node6 -->
<g id="edge5_Node000005_Node000006" class="edge">
<title>Node5&#45;&gt;Node6</title>
<g id="a_edge5_Node000005_Node000006"><a xlink:title=" ">
<path fill="none" stroke="#63b8ff" d="M68.97,-28.62C60.92,-28.62 52.39,-28.62 44.91,-28.62"/>
<polygon fill="#63b8ff" stroke="#63b8ff" points="68.75,-32.13 78.75,-28.63 68.75,-25.13 68.75,-32.13"/>
</a>
</g>
</g>
<!-- Node7&#45;&gt;Node5 -->
<g id="edge7_Node000007_Node000005" class="edge">
<title>Node7&#45;&gt;Node5</title>
<g id="a_edge7_Node000007_Node000005"><a xlink:title=" ">
<path fill="none" stroke="#63b8ff" d="M232.06,-13.31C199.13,-17.17 148.46,-23.12 120.93,-26.35"/>
<polygon fill="#63b8ff" stroke="#63b8ff" points="232.28,-16.81 241.81,-12.17 231.47,-9.86 232.28,-16.81"/>
</a>
</g>
</g>
<!-- Node8&#45;&gt;Node7 -->
<g id="edge9_Node000008_Node000007" class="edge">
<title>Node8&#45;&gt;Node7</title>
<g id="a_edge9_Node000008_Node000007"><a xlink:title=" ">
<path fill="none" stroke="#63b8ff" d="M314.97,-9.62C305.12,-9.62 294.49,-9.62 285.62,-9.62"/>
<polygon fill="#63b8ff" stroke="#63b8ff" points="314.9,-13.13 324.9,-9.63 314.9,-6.13 314.9,-13.13"/>
</a>
</g>
</g>
</g>
</svg>
</svg>

<style type='text/css'>
<![CDATA[
[data-mouse-over-selected='false'] { opacity: 0.7; }
[data-mouse-over-selected='true']  { opacity: 1.0; }
]]>
</style>
<script type="application/ecmascript"><![CDATA[
document.addEventListener('DOMContentLoaded', (event) => {
  highlightEdges();
  highlightAdjacentNodes();
});
]]></script>
</svg>
