<?xml version="1.0" encoding="UTF-8" standalone="no"?>
<!DOCTYPE svg PUBLIC "-//W3C//DTD SVG 1.1//EN"
 "http://www.w3.org/Graphics/SVG/1.1/DTD/svg11.dtd">
<!-- Generated by graphviz version 7.1.0 (20230121.1956)
 -->
<!-- Title: wrout Pages: 1 -->
<svg width="162pt" height="138pt"
 viewBox="0.00 0.00 162.00 138.00" xmlns="http://www.w3.org/2000/svg" xmlns:xlink="http://www.w3.org/1999/xlink">
<g id="graph0" class="graph" transform="scale(1 1) rotate(0) translate(4 134)">
<title>wrout</title>
<!-- Node1 -->
<g id="node1" class="node">
<title>Node1</title>
<g id="a_node1"><a xlink:title="Write the output files of VMEC.">
<polygon fill="#999999" stroke="#666666" points="41,-74 0,-74 0,-55 41,-55 41,-74"/>
<text text-anchor="middle" x="20.5" y="-62" font-family="Helvetica,sans-Serif" font-size="10.00">wrout</text>
</a>
</g>
</g>
<!-- Node2 -->
<g id="node2" class="node">
<title>Node2</title>
<g id="a_node2"><a xlink:href="../../db/d74/convert_8f90.html#ae6d3862ea21a8d39210a79c6955b5b75" target="_top" xlink:title="Convert internal mode representation to standard form for output (coefficients of cos(mu&#45;nv),...">
<polygon fill="white" stroke="#666666" points="140,-130 91,-130 91,-111 140,-111 140,-130"/>
<text text-anchor="middle" x="115.5" y="-118" font-family="Helvetica,sans-Serif" font-size="10.00">convert</text>
</a>
</g>
</g>
<!-- Node1&#45;&gt;Node2 -->
<g id="edge1" class="edge">
<title>Node1&#45;&gt;Node2</title>
<path fill="none" stroke="#63b8ff" d="M34.81,-74.47C45.82,-82.5 62.04,-93.85 77,-102.5 78.68,-103.47 80.41,-104.43 82.18,-105.38"/>
<polygon fill="#63b8ff" stroke="#63b8ff" points="80.55,-108.48 91.05,-109.9 83.72,-102.24 80.55,-108.48"/>
</g>
<!-- Node3 -->
<g id="node3" class="node">
<title>Node3</title>
<g id="a_node3"><a xlink:href="../../dc/d49/totzsp_8f90.html#aff13f873fb632d486fdffc6ee97857c6" target="_top" xlink:title="Convert from internal representation to &quot;physical&quot; rmnsc, zmncc Fourier form.">
<polygon fill="white" stroke="#666666" points="154,-93 77,-93 77,-74 154,-74 154,-93"/>
<text text-anchor="middle" x="115.5" y="-81" font-family="Helvetica,sans-Serif" font-size="10.00">convert_asym</text>
</a>
</g>
</g>
<!-- Node1&#45;&gt;Node3 -->
<g id="edge2" class="edge">
<title>Node1&#45;&gt;Node3</title>
<path fill="none" stroke="#63b8ff" d="M41.22,-68.53C48.42,-70 56.9,-71.73 65.51,-73.49"/>
<polygon fill="#63b8ff" stroke="#63b8ff" points="64.8,-76.92 75.3,-75.49 66.2,-70.06 64.8,-76.92"/>
</g>
<!-- Node4 -->
<g id="node4" class="node">
<title>Node4</title>
<g id="a_node4"><a xlink:href="../../dc/d49/totzsp_8f90.html#a3264ce8fefaa7ede632c4147049aadc5" target="_top" xlink:title="Convert from internal representation to &quot;physical&quot; rmnss, zmncs Fourier form.">
<polygon fill="white" stroke="#666666" points="151.5,-56 79.5,-56 79.5,-37 151.5,-37 151.5,-56"/>
<text text-anchor="middle" x="115.5" y="-44" font-family="Helvetica,sans-Serif" font-size="10.00">convert_sym</text>
</a>
</g>
</g>
<!-- Node1&#45;&gt;Node4 -->
<g id="edge3" class="edge">
<title>Node1&#45;&gt;Node4</title>
<path fill="none" stroke="#63b8ff" d="M41.22,-60.68C49.12,-59.15 58.57,-57.32 68.03,-55.49"/>
<polygon fill="#63b8ff" stroke="#63b8ff" points="68.4,-58.99 77.55,-53.65 67.07,-52.12 68.4,-58.99"/>
</g>
<!-- Node5 -->
<g id="node5" class="node">
<title>Node5</title>
<g id="a_node5"><a xlink:href="../../db/d40/symoutput_8f90.html#a2489a93ca37b283b9dec6888826083ae" target="_top" xlink:title="Symmetrize some quantities so that they can be output (?)">
<polygon fill="white" stroke="#666666" points="146.5,-19 84.5,-19 84.5,0 146.5,0 146.5,-19"/>
<text text-anchor="middle" x="115.5" y="-7" font-family="Helvetica,sans-Serif" font-size="10.00">symoutput</text>
</a>
</g>
</g>
<!-- Node1&#45;&gt;Node5 -->
<g id="edge4" class="edge">
<title>Node1&#45;&gt;Node5</title>
<path fill="none" stroke="#63b8ff" d="M35.84,-54.59C46.9,-47.11 62.67,-36.75 77,-28.5 79.21,-27.23 81.52,-25.95 83.85,-24.69"/>
<polygon fill="#63b8ff" stroke="#63b8ff" points="85.46,-27.8 92.71,-20.07 82.22,-21.59 85.46,-27.8"/>
</g>
</g>
</svg>
