<?xml version="1.0" encoding="UTF-8" standalone="no"?>
<!DOCTYPE svg PUBLIC "-//W3C//DTD SVG 1.1//EN"
 "http://www.w3.org/Graphics/SVG/1.1/DTD/svg11.dtd">
<!-- Generated by graphviz version 12.0.0 (20240704.0754)
 -->
<!-- Title: wrout Pages: 1 -->
<svg width="325pt" height="175pt"
 viewBox="0.00 0.00 325.25 175.25" xmlns="http://www.w3.org/2000/svg" xmlns:xlink="http://www.w3.org/1999/xlink">

<svg id="main" version="1.1" xmlns="http://www.w3.org/2000/svg" xmlns:xlink="http://www.w3.org/1999/xlink" xml:space="preserve">

<style type="text/css"><![CDATA[
.node, .edge {opacity: 0.7;}
.node.selected, .edge.selected {opacity: 1;}
.edge:hover path { stroke: red; }
.edge:hover polygon { stroke: red; fill: red; }
]]></style>
<script type="application/ecmascript" xlink:href="../../svg.min.js"/>
<svg id="graph" class="graph">
<g id="graph0" class="graph" transform="scale(1 1) rotate(0) translate(4 171.25)">
<title>wrout</title>
<!-- Node1 -->
<g id="Node000001" class="node">
<title>Node1</title>
<g id="a_Node000001"><a xlink:title="Write the output files of VMEC.">
<polygon fill="#999999" stroke="#666666" points="40,-93.25 0,-93.25 0,-74 40,-74 40,-93.25"/>
<text text-anchor="middle" x="20" y="-79.75" font-family="Helvetica,sans-Serif" font-size="10.00">wrout</text>
</a>
</g>
</g>
<!-- Node2 -->
<g id="Node000002" class="node">
<title>Node2</title>
<g id="a_Node000002"><a xlink:href="../../db/d74/convert_8f90.html#ae6d3862ea21a8d39210a79c6955b5b75" target="_top" xlink:title="Convert internal mode representation to standard form for output (coefficients of cos(mu&#45;nv),...">
<polygon fill="white" stroke="#666666" points="138.5,-167.25 90.25,-167.25 90.25,-148 138.5,-148 138.5,-167.25"/>
<text text-anchor="middle" x="114.38" y="-153.75" font-family="Helvetica,sans-Serif" font-size="10.00">convert</text>
</a>
</g>
</g>
<!-- Node1&#45;&gt;Node2 -->
<g id="edge1_Node000001_Node000002" class="edge">
<title>Node1&#45;&gt;Node2</title>
<g id="a_edge1_Node000001_Node000002"><a xlink:title=" ">
<path fill="none" stroke="#63b8ff" d="M28.72,-93.35C38.67,-105.39 56.95,-125.98 76,-139.62 77.35,-140.59 78.77,-141.54 80.22,-142.45"/>
<polygon fill="#63b8ff" stroke="#63b8ff" points="78.37,-145.42 88.81,-147.24 81.78,-139.31 78.37,-145.42"/>
</a>
</g>
</g>
<!-- Node3 -->
<g id="Node000003" class="node">
<title>Node3</title>
<g id="a_Node000003"><a xlink:href="../../dc/d49/totzsp_8f90.html#aff13f873fb632d486fdffc6ee97857c6" target="_top" xlink:title="Convert from internal representation to &quot;physical&quot; rmnsc, zmncc Fourier form.">
<polygon fill="white" stroke="#666666" points="152.75,-130.25 76,-130.25 76,-111 152.75,-111 152.75,-130.25"/>
<text text-anchor="middle" x="114.38" y="-116.75" font-family="Helvetica,sans-Serif" font-size="10.00">convert_asym</text>
</a>
</g>
</g>
<!-- Node1&#45;&gt;Node3 -->
<g id="edge2_Node000001_Node000003" class="edge">
<title>Node1&#45;&gt;Node3</title>
<g id="a_edge2_Node000001_Node000003"><a xlink:title=" ">
<path fill="none" stroke="#63b8ff" d="M40.14,-91.29C51.04,-95.66 65.04,-101.27 77.88,-106.41"/>
<polygon fill="#63b8ff" stroke="#63b8ff" points="76.3,-109.55 86.89,-110.02 78.91,-103.05 76.3,-109.55"/>
</a>
</g>
</g>
<!-- Node4 -->
<g id="Node000004" class="node">
<title>Node4</title>
<g id="a_Node000004"><a xlink:href="../../dc/d49/totzsp_8f90.html#a3264ce8fefaa7ede632c4147049aadc5" target="_top" xlink:title="Convert from internal representation to &quot;physical&quot; rmnss, zmncs Fourier form.">
<polygon fill="white" stroke="#666666" points="150.12,-93.25 78.62,-93.25 78.62,-74 150.12,-74 150.12,-93.25"/>
<text text-anchor="middle" x="114.38" y="-79.75" font-family="Helvetica,sans-Serif" font-size="10.00">convert_sym</text>
</a>
</g>
</g>
<!-- Node1&#45;&gt;Node4 -->
<g id="edge3_Node000001_Node000004" class="edge">
<title>Node1&#45;&gt;Node4</title>
<g id="a_edge3_Node000001_Node000004"><a xlink:title=" ">
<path fill="none" stroke="#63b8ff" d="M40.14,-83.62C47.95,-83.62 57.36,-83.62 66.8,-83.62"/>
<polygon fill="#63b8ff" stroke="#63b8ff" points="66.69,-87.13 76.69,-83.63 66.69,-80.13 66.69,-87.13"/>
</a>
</g>
</g>
<!-- Node5 -->
<g id="Node000005" class="node">
<title>Node5</title>
<g id="a_Node000005"><a xlink:href="../../d1/d87/freeb__data_8f90.html#a71de251d01e145a30e3f710ac705f217" target="_top" xlink:title="Write out edge values of fields.">
<polygon fill="white" stroke="#666666" points="145.25,-56.25 83.5,-56.25 83.5,-37 145.25,-37 145.25,-56.25"/>
<text text-anchor="middle" x="114.38" y="-42.75" font-family="Helvetica,sans-Serif" font-size="10.00">freeb_data</text>
</a>
</g>
</g>
<!-- Node1&#45;&gt;Node5 -->
<g id="edge4_Node000001_Node000005" class="edge">
<title>Node1&#45;&gt;Node5</title>
<g id="a_edge4_Node000001_Node000005"><a xlink:title=" ">
<path fill="none" stroke="#63b8ff" d="M40.14,-75.96C51.04,-71.59 65.04,-65.98 77.88,-60.84"/>
<polygon fill="#63b8ff" stroke="#63b8ff" points="78.91,-64.2 86.89,-57.23 76.3,-57.7 78.91,-64.2"/>
</a>
</g>
</g>
<!-- Node7 -->
<g id="Node000007" class="node">
<title>Node7</title>
<g id="a_Node000007"><a xlink:href="../../db/d40/symoutput_8f90.html#a2489a93ca37b283b9dec6888826083ae" target="_top" xlink:title="Symmetrize some quantities so that they can be output (?)">
<polygon fill="white" stroke="#666666" points="144.88,-19.25 83.88,-19.25 83.88,0 144.88,0 144.88,-19.25"/>
<text text-anchor="middle" x="114.38" y="-5.75" font-family="Helvetica,sans-Serif" font-size="10.00">symoutput</text>
</a>
</g>
</g>
<!-- Node1&#45;&gt;Node7 -->
<g id="edge7_Node000001_Node000007" class="edge">
<title>Node1&#45;&gt;Node7</title>
<g id="a_edge7_Node000001_Node000007"><a xlink:title=" ">
<path fill="none" stroke="#63b8ff" d="M28.72,-73.9C38.67,-61.86 56.95,-41.27 76,-27.62 77.15,-26.8 78.35,-25.99 79.58,-25.21"/>
<polygon fill="#63b8ff" stroke="#63b8ff" points="81.05,-28.4 88.03,-20.42 77.6,-22.31 81.05,-28.4"/>
</a>
</g>
</g>
<!-- Node6 -->
<g id="Node000006" class="node">
<title>Node6</title>
<g id="a_Node000006"><a xlink:href="../../d8/dfd/namespacedbgout.html#acdd1612a38e44b6469dc03d9d1c6ceed" target="_top" xlink:title="check if any output is desired for the current iteration check if the given context should be openend...">
<polygon fill="white" stroke="#666666" points="317.25,-56.25 188.75,-56.25 188.75,-37 317.25,-37 317.25,-56.25"/>
<text text-anchor="middle" x="253" y="-42.75" font-family="Helvetica,sans-Serif" font-size="10.00">dbgout::open_dbg_context</text>
</a>
</g>
</g>
<!-- Node5&#45;&gt;Node6 -->
<g id="edge5_Node000005_Node000006" class="edge">
<title>Node5&#45;&gt;Node6</title>
<g id="a_edge5_Node000005_Node000006"><a xlink:title=" ">
<path fill="none" stroke="#63b8ff" d="M145.7,-46.62C155.19,-46.62 166.12,-46.62 177.28,-46.62"/>
<polygon fill="#63b8ff" stroke="#63b8ff" points="176.95,-50.13 186.95,-46.63 176.95,-43.13 176.95,-50.13"/>
</a>
</g>
</g>
<!-- Node6&#45;&gt;Node6 -->
<g id="edge6_Node000006_Node000006" class="edge">
<title>Node6&#45;&gt;Node6</title>
<g id="a_edge6_Node000006_Node000006"><a xlink:title=" ">
<path fill="none" stroke="#63b8ff" d="M231.3,-56.54C221.4,-65.15 228.63,-74.25 253,-74.25 266.33,-74.25 274.53,-71.53 277.61,-67.65"/>
<polygon fill="#63b8ff" stroke="#63b8ff" points="281,-66.79 275.09,-58 274.23,-68.56 281,-66.79"/>
</a>
</g>
</g>
</g>
</svg>
</svg>

<style type='text/css'>
<![CDATA[
[data-mouse-over-selected='false'] { opacity: 0.7; }
[data-mouse-over-selected='true']  { opacity: 1.0; }
]]>
</style>
<script type="application/ecmascript"><![CDATA[
document.addEventListener('DOMContentLoaded', (event) => {
  highlightEdges();
  highlightAdjacentNodes();
});
]]></script>
</svg>
