<?xml version="1.0" encoding="UTF-8" standalone="no"?>
<!DOCTYPE svg PUBLIC "-//W3C//DTD SVG 1.1//EN"
 "http://www.w3.org/Graphics/SVG/1.1/DTD/svg11.dtd">
<!-- Generated by graphviz version 2.49.3 (20211027.1501)
 -->
<!-- Title: wrout Pages: 1 -->
<svg width="162pt" height="142pt"
 viewBox="0.00 0.00 162.00 142.00" xmlns="http://www.w3.org/2000/svg" xmlns:xlink="http://www.w3.org/1999/xlink">
<g id="graph0" class="graph" transform="scale(1 1) rotate(0) translate(4 138)">
<title>wrout</title>
<polygon fill="white" stroke="transparent" points="-4,4 -4,-138 158,-138 158,4 -4,4"/>
<!-- Node1 -->
<g id="node1" class="node">
<title>Node1</title>
<g id="a_node1"><a xlink:title="Write the output files of VMEC.">
<polygon fill="#bfbfbf" stroke="black" points="0,-57.5 0,-76.5 41,-76.5 41,-57.5 0,-57.5"/>
<text text-anchor="middle" x="20.5" y="-64.5" font-family="Helvetica,sans-Serif" font-size="10.00">wrout</text>
</a>
</g>
</g>
<!-- Node2 -->
<g id="node2" class="node">
<title>Node2</title>
<g id="a_node2"><a xlink:href="../../db/d74/convert_8f90.html#ae6d3862ea21a8d39210a79c6955b5b75" target="_top" xlink:title="Convert internal mode representation to standard form for output (coefficients of cos(mu&#45;nv),...">
<polygon fill="white" stroke="black" points="91,-114.5 91,-133.5 140,-133.5 140,-114.5 91,-114.5"/>
<text text-anchor="middle" x="115.5" y="-121.5" font-family="Helvetica,sans-Serif" font-size="10.00">convert</text>
</a>
</g>
</g>
<!-- Node1&#45;&gt;Node2 -->
<g id="edge1" class="edge">
<title>Node1&#45;&gt;Node2</title>
<path fill="none" stroke="midnightblue" d="M34.41,-76.56C45.46,-84.56 61.93,-96.07 77,-105 79.68,-106.59 82.5,-108.17 85.35,-109.71"/>
<polygon fill="midnightblue" stroke="midnightblue" points="83.9,-112.9 94.39,-114.42 87.14,-106.69 83.9,-112.9"/>
</g>
<!-- Node3 -->
<g id="node3" class="node">
<title>Node3</title>
<g id="a_node3"><a xlink:href="../../dc/d49/totzsp_8f90.html#aff13f873fb632d486fdffc6ee97857c6" target="_top" xlink:title="Convert from internal representation to &quot;physical&quot; rmnsc, zmncc Fourier form.">
<polygon fill="white" stroke="black" points="77,-76.5 77,-95.5 154,-95.5 154,-76.5 77,-76.5"/>
<text text-anchor="middle" x="115.5" y="-83.5" font-family="Helvetica,sans-Serif" font-size="10.00">convert_asym</text>
</a>
</g>
</g>
<!-- Node1&#45;&gt;Node3 -->
<g id="edge2" class="edge">
<title>Node1&#45;&gt;Node3</title>
<path fill="none" stroke="midnightblue" d="M41.22,-71.03C48.82,-72.58 57.86,-74.43 66.96,-76.29"/>
<polygon fill="midnightblue" stroke="midnightblue" points="66.28,-79.72 76.78,-78.29 67.69,-72.86 66.28,-79.72"/>
</g>
<!-- Node4 -->
<g id="node4" class="node">
<title>Node4</title>
<g id="a_node4"><a xlink:href="../../dc/d49/totzsp_8f90.html#a3264ce8fefaa7ede632c4147049aadc5" target="_top" xlink:title="Convert from internal representation to &quot;physical&quot; rmnss, zmncs Fourier form.">
<polygon fill="white" stroke="black" points="79.5,-38.5 79.5,-57.5 151.5,-57.5 151.5,-38.5 79.5,-38.5"/>
<text text-anchor="middle" x="115.5" y="-45.5" font-family="Helvetica,sans-Serif" font-size="10.00">convert_sym</text>
</a>
</g>
</g>
<!-- Node1&#45;&gt;Node4 -->
<g id="edge3" class="edge">
<title>Node1&#45;&gt;Node4</title>
<path fill="none" stroke="midnightblue" d="M41.22,-62.97C49.54,-61.27 59.59,-59.22 69.55,-57.18"/>
<polygon fill="midnightblue" stroke="midnightblue" points="70.31,-60.6 79.41,-55.17 68.91,-53.74 70.31,-60.6"/>
</g>
<!-- Node5 -->
<g id="node5" class="node">
<title>Node5</title>
<g id="a_node5"><a xlink:href="../../d4/df3/symforce_8f90.html#a2489a93ca37b283b9dec6888826083ae" target="_top" xlink:title="Symmetrize some quantities so that they can be output (?)">
<polygon fill="white" stroke="black" points="84.5,-0.5 84.5,-19.5 146.5,-19.5 146.5,-0.5 84.5,-0.5"/>
<text text-anchor="middle" x="115.5" y="-7.5" font-family="Helvetica,sans-Serif" font-size="10.00">symoutput</text>
</a>
</g>
</g>
<!-- Node1&#45;&gt;Node5 -->
<g id="edge4" class="edge">
<title>Node1&#45;&gt;Node5</title>
<path fill="none" stroke="midnightblue" d="M34.41,-57.44C45.46,-49.44 61.93,-37.93 77,-29 79.68,-27.41 82.5,-25.83 85.35,-24.29"/>
<polygon fill="midnightblue" stroke="midnightblue" points="87.14,-27.31 94.39,-19.58 83.9,-21.1 87.14,-27.31"/>
</g>
</g>
</svg>
