<?xml version="1.0" encoding="UTF-8" standalone="no"?>
<!DOCTYPE svg PUBLIC "-//W3C//DTD SVG 1.1//EN"
 "http://www.w3.org/Graphics/SVG/1.1/DTD/svg11.dtd">
<!-- Generated by graphviz version 8.1.0 (20230707.0739)
 -->
<!-- Title: wrout Pages: 1 -->
<svg width="161pt" height="138pt"
 viewBox="0.00 0.00 160.75 138.25" xmlns="http://www.w3.org/2000/svg" xmlns:xlink="http://www.w3.org/1999/xlink">

<svg id="main" version="1.1" xmlns="http://www.w3.org/2000/svg" xmlns:xlink="http://www.w3.org/1999/xlink" xml:space="preserve" onload="init(evt)">
<style type="text/css"><![CDATA[
.node, .edge {opacity: 0.7;}
.node.selected, .edge.selected {opacity: 1;}
.edge:hover path { stroke: red; }
.edge:hover polygon { stroke: red; fill: red; }
]]></style>
<script type="application/ecmascript" xlink:href="../../svg.min.js"/>
<svg id="graph" class="graph">
<g id="graph0" class="graph" transform="scale(1 1) rotate(0) translate(4 134.25)">
<title>wrout</title>
<!-- Node1 -->
<g id="Node000001" class="node">
<title>Node1</title>
<g id="a_Node000001"><a xlink:title="Write the output files of VMEC.">
<polygon fill="#999999" stroke="#666666" points="40,-74.25 0,-74.25 0,-55 40,-55 40,-74.25"/>
<text text-anchor="middle" x="20" y="-60.75" font-family="Helvetica,sans-Serif" font-size="10.00">wrout</text>
</a>
</g>
</g>
<!-- Node2 -->
<g id="Node000002" class="node">
<title>Node2</title>
<g id="a_Node000002"><a xlink:href="../../db/d74/convert_8f90.html#ae6d3862ea21a8d39210a79c6955b5b75" target="_top" xlink:title="Convert internal mode representation to standard form for output (coefficients of cos(mu&#45;nv),...">
<polygon fill="white" stroke="#666666" points="138.5,-130.25 90.25,-130.25 90.25,-111 138.5,-111 138.5,-130.25"/>
<text text-anchor="middle" x="114.38" y="-116.75" font-family="Helvetica,sans-Serif" font-size="10.00">convert</text>
</a>
</g>
</g>
<!-- Node1&#45;&gt;Node2 -->
<g id="edge1_Node000001_Node000002" class="edge">
<title>Node1&#45;&gt;Node2</title>
<g id="a_edge1_Node000001_Node000002"><a xlink:title=" ">
<path fill="none" stroke="#63b8ff" d="M34.18,-74.6C45.09,-82.64 61.15,-93.99 76,-102.62 77.77,-103.66 79.62,-104.68 81.49,-105.69"/>
<polygon fill="#63b8ff" stroke="#63b8ff" points="79.45,-109.09 89.94,-110.52 82.63,-102.85 79.45,-109.09"/>
</a>
</g>
</g>
<!-- Node3 -->
<g id="Node000003" class="node">
<title>Node3</title>
<g id="a_Node000003"><a xlink:href="../../dc/d49/totzsp_8f90.html#aff13f873fb632d486fdffc6ee97857c6" target="_top" xlink:title="Convert from internal representation to &quot;physical&quot; rmnsc, zmncc Fourier form.">
<polygon fill="white" stroke="#666666" points="152.75,-93.25 76,-93.25 76,-74 152.75,-74 152.75,-93.25"/>
<text text-anchor="middle" x="114.38" y="-79.75" font-family="Helvetica,sans-Serif" font-size="10.00">convert_asym</text>
</a>
</g>
</g>
<!-- Node1&#45;&gt;Node3 -->
<g id="edge2_Node000001_Node000003" class="edge">
<title>Node1&#45;&gt;Node3</title>
<g id="a_edge2_Node000001_Node000003"><a xlink:title=" ">
<path fill="none" stroke="#63b8ff" d="M40.14,-68.56C47.43,-70.06 56.1,-71.85 64.89,-73.65"/>
<polygon fill="#63b8ff" stroke="#63b8ff" points="64.08,-77.26 74.58,-75.85 65.49,-70.41 64.08,-77.26"/>
</a>
</g>
</g>
<!-- Node4 -->
<g id="Node000004" class="node">
<title>Node4</title>
<g id="a_Node000004"><a xlink:href="../../dc/d49/totzsp_8f90.html#a3264ce8fefaa7ede632c4147049aadc5" target="_top" xlink:title="Convert from internal representation to &quot;physical&quot; rmnss, zmncs Fourier form.">
<polygon fill="white" stroke="#666666" points="150.12,-56.25 78.62,-56.25 78.62,-37 150.12,-37 150.12,-56.25"/>
<text text-anchor="middle" x="114.38" y="-42.75" font-family="Helvetica,sans-Serif" font-size="10.00">convert_sym</text>
</a>
</g>
</g>
<!-- Node1&#45;&gt;Node4 -->
<g id="edge3_Node000001_Node000004" class="edge">
<title>Node1&#45;&gt;Node4</title>
<g id="a_edge3_Node000001_Node000004"><a xlink:title=" ">
<path fill="none" stroke="#63b8ff" d="M40.14,-60.9C48.13,-59.34 57.78,-57.46 67.42,-55.58"/>
<polygon fill="#63b8ff" stroke="#63b8ff" points="68.06,-58.83 77.2,-53.48 66.72,-51.96 68.06,-58.83"/>
</a>
</g>
</g>
<!-- Node5 -->
<g id="Node000005" class="node">
<title>Node5</title>
<g id="a_Node000005"><a xlink:href="../../db/d40/symoutput_8f90.html#a2489a93ca37b283b9dec6888826083ae" target="_top" xlink:title="Symmetrize some quantities so that they can be output (?)">
<polygon fill="white" stroke="#666666" points="144.88,-19.25 83.88,-19.25 83.88,0 144.88,0 144.88,-19.25"/>
<text text-anchor="middle" x="114.38" y="-5.75" font-family="Helvetica,sans-Serif" font-size="10.00">symoutput</text>
</a>
</g>
</g>
<!-- Node1&#45;&gt;Node5 -->
<g id="edge4_Node000001_Node000005" class="edge">
<title>Node1&#45;&gt;Node5</title>
<g id="a_edge4_Node000001_Node000005"><a xlink:title=" ">
<path fill="none" stroke="#63b8ff" d="M34.66,-54.63C45.58,-46.84 61.42,-35.98 76,-27.62 77.83,-26.58 79.73,-25.53 81.65,-24.51"/>
<polygon fill="#63b8ff" stroke="#63b8ff" points="83.03,-27.23 90.36,-19.58 79.86,-20.98 83.03,-27.23"/>
</a>
</g>
</g>
</g>
</svg>
</svg>

<style type='text/css'>
<![CDATA[
[data-mouse-over-selected='false'] { opacity: 0.7; }
[data-mouse-over-selected='true']  { opacity: 1.0; }
]]>
</style>
<script type="application/ecmascript"><![CDATA[
document.addEventListener('DOMContentLoaded', (event) => {
  highlightEdges();
  highlightAdjacentNodes();
});
]]></script>
</svg>
