<?xml version="1.0" encoding="UTF-8" standalone="no"?>
<!DOCTYPE svg PUBLIC "-//W3C//DTD SVG 1.1//EN"
 "http://www.w3.org/Graphics/SVG/1.1/DTD/svg11.dtd">
<!-- Generated by graphviz version 2.49.3 (20211027.1501)
 -->
<!-- Title: fixaray Pages: 1 -->
<svg width="217pt" height="46pt"
 viewBox="0.00 0.00 217.00 46.00" xmlns="http://www.w3.org/2000/svg" xmlns:xlink="http://www.w3.org/1999/xlink">
<g id="graph0" class="graph" transform="scale(1 1) rotate(0) translate(4 42)">
<title>fixaray</title>
<polygon fill="white" stroke="transparent" points="-4,4 -4,-42 213,-42 213,4 -4,4"/>
<!-- Node1 -->
<g id="node1" class="node">
<title>Node1</title>
<g id="a_node1"><a xlink:title="allocate and fill some fixed&#45;size arrays (only depending on Fourier resolution).">
<polygon fill="#bfbfbf" stroke="black" points="0,-0.5 0,-19.5 44,-19.5 44,-0.5 0,-0.5"/>
<text text-anchor="middle" x="22" y="-7.5" font-family="Helvetica,sans-Serif" font-size="10.00">fixaray</text>
</a>
</g>
</g>
<!-- Node2 -->
<g id="node2" class="node">
<title>Node2</title>
<g id="a_node2"><a xlink:href="../../d8/dfd/namespacedbgout.html#af9a9deb4fdfe84878a6e319b15221492" target="_top" xlink:title=" ">
<polygon fill="white" stroke="black" points="80,-0.5 80,-19.5 209,-19.5 209,-0.5 80,-0.5"/>
<text text-anchor="middle" x="144.5" y="-7.5" font-family="Helvetica,sans-Serif" font-size="10.00">dbgout::open_dbg_context</text>
</a>
</g>
</g>
<!-- Node1&#45;&gt;Node2 -->
<g id="edge1" class="edge">
<title>Node1&#45;&gt;Node2</title>
<path fill="none" stroke="midnightblue" d="M44.27,-10C51.66,-10 60.42,-10 69.64,-10"/>
<polygon fill="midnightblue" stroke="midnightblue" points="69.77,-13.5 79.77,-10 69.77,-6.5 69.77,-13.5"/>
</g>
<!-- Node2&#45;&gt;Node2 -->
<g id="edge2" class="edge">
<title>Node2&#45;&gt;Node2</title>
<path fill="none" stroke="midnightblue" d="M125.7,-19.76C116.55,-28.57 122.82,-38 144.5,-38 158.39,-38 165.96,-34.13 167.19,-29.03"/>
<polygon fill="midnightblue" stroke="midnightblue" points="170.4,-27.62 163.3,-19.76 163.94,-30.33 170.4,-27.62"/>
</g>
</g>
</svg>
