<?xml version="1.0" encoding="UTF-8" standalone="no"?>
<!DOCTYPE svg PUBLIC "-//W3C//DTD SVG 1.1//EN"
 "http://www.w3.org/Graphics/SVG/1.1/DTD/svg11.dtd">
<!-- Generated by graphviz version 8.0.1 (20230327.1645)
 -->
<!-- Title: vacuum Pages: 1 -->
<svg width="389pt" height="441pt"
 viewBox="0.00 0.00 389.00 441.00" xmlns="http://www.w3.org/2000/svg" xmlns:xlink="http://www.w3.org/1999/xlink">
<g id="graph0" class="graph" transform="scale(1 1) rotate(0) translate(4 437)">
<title>vacuum</title>
<!-- Node1 -->
<g id="node1" class="node">
<title>Node1</title>
<g id="a_node1"><a xlink:title="Compute the vacuum contribution to the free&#45;boundary energy functional.">
<polygon fill="#999999" stroke="#666666" points="51,-113 0,-113 0,-94 51,-94 51,-113"/>
<text text-anchor="middle" x="25.5" y="-101" font-family="Helvetica,sans-Serif" font-size="10.00">vacuum</text>
</a>
</g>
</g>
<!-- Node2 -->
<g id="node2" class="node">
<title>Node2</title>
<g id="a_node2"><a xlink:href="../../db/d3d/bextern_8f90.html#a90228cc5f358147ae7f59953d6f9cced" target="_top" xlink:title="Compute the total magnetic field due to external coils and the net toroidal plasma current.">
<polygon fill="white" stroke="#666666" points="135.5,-358 87.5,-358 87.5,-339 135.5,-339 135.5,-358"/>
<text text-anchor="middle" x="111.5" y="-346" font-family="Helvetica,sans-Serif" font-size="10.00">bextern</text>
</a>
</g>
</g>
<!-- Node1&#45;&gt;Node2 -->
<g id="edge1" class="edge">
<title>Node1&#45;&gt;Node2</title>
<path fill="none" stroke="#63b8ff" d="M29.9,-113.41C42.48,-150.12 86.61,-278.82 103.68,-328.62"/>
<polygon fill="#63b8ff" stroke="#63b8ff" points="100.6,-329.41 107.15,-337.74 107.22,-327.14 100.6,-329.41"/>
</g>
<!-- Node5 -->
<g id="node5" class="node">
<title>Node5</title>
<g id="a_node5"><a xlink:href="../../d8/dfd/namespacedbgout.html#acdd1612a38e44b6469dc03d9d1c6ceed" target="_top" xlink:title="check if any output is desired for the current iteration check if the given context should be openend...">
<polygon fill="white" stroke="#666666" points="381,-189 252,-189 252,-170 381,-170 381,-189"/>
<text text-anchor="middle" x="316.5" y="-177" font-family="Helvetica,sans-Serif" font-size="10.00">dbgout::open_dbg_context</text>
</a>
</g>
</g>
<!-- Node1&#45;&gt;Node5 -->
<g id="edge6" class="edge">
<title>Node1&#45;&gt;Node5</title>
<path fill="none" stroke="#63b8ff" d="M51.45,-101.74C73.75,-100.64 107.24,-100.14 136,-104.5 194.35,-113.34 256.68,-145.06 290.37,-164.3"/>
<polygon fill="#63b8ff" stroke="#63b8ff" points="288.07,-167.6 298.47,-169.6 291.59,-161.55 288.07,-167.6"/>
</g>
<!-- Node6 -->
<g id="node6" class="node">
<title>Node6</title>
<g id="a_node6"><a xlink:href="../../dd/d98/precal_8f90.html#a0dae73e848a4757092d7e9786d073d3d" target="_top" xlink:title="Pre&#45;compute constant terms required for NESTOR.">
<polygon fill="white" stroke="#666666" points="133,-56 90,-56 90,-37 133,-37 133,-56"/>
<text text-anchor="middle" x="111.5" y="-44" font-family="Helvetica,sans-Serif" font-size="10.00">precal</text>
</a>
</g>
</g>
<!-- Node1&#45;&gt;Node6 -->
<g id="edge7" class="edge">
<title>Node1&#45;&gt;Node6</title>
<path fill="none" stroke="#63b8ff" d="M41.13,-93.57C53.78,-84.99 72.29,-72.43 87.01,-62.44"/>
<polygon fill="#63b8ff" stroke="#63b8ff" points="88.73,-64.83 95.04,-56.31 84.8,-59.03 88.73,-64.83"/>
</g>
<!-- Node7 -->
<g id="node7" class="node">
<title>Node7</title>
<g id="a_node7"><a xlink:href="../../d0/d19/scalpot_8f90.html#afb9e58849c5a27e486bdf4106f8bb84e" target="_top" xlink:title="Compute all required terms for solving for the scalar magnetic potential.">
<polygon fill="white" stroke="#666666" points="135.5,-227 87.5,-227 87.5,-208 135.5,-208 135.5,-227"/>
<text text-anchor="middle" x="111.5" y="-215" font-family="Helvetica,sans-Serif" font-size="10.00">scalpot</text>
</a>
</g>
</g>
<!-- Node1&#45;&gt;Node7 -->
<g id="edge9" class="edge">
<title>Node1&#45;&gt;Node7</title>
<path fill="none" stroke="#63b8ff" d="M33.66,-113.22C47.67,-132.23 78.91,-174.62 96.94,-199.1"/>
<polygon fill="#63b8ff" stroke="#63b8ff" points="94.61,-200.83 103.36,-206.81 100.24,-196.68 94.61,-200.83"/>
</g>
<!-- Node14 -->
<g id="node14" class="node">
<title>Node14</title>
<g id="a_node14"><a xlink:href="../../d7/d39/solver_8f90.html#a1e815013ed24a9dddc80410103f4a220" target="_top" xlink:title="Solve a linear system of equations using dgesv.">
<polygon fill="white" stroke="#666666" points="133,-19 90,-19 90,0 133,0 133,-19"/>
<text text-anchor="middle" x="111.5" y="-7" font-family="Helvetica,sans-Serif" font-size="10.00">solver</text>
</a>
</g>
</g>
<!-- Node1&#45;&gt;Node14 -->
<g id="edge20" class="edge">
<title>Node1&#45;&gt;Node14</title>
<path fill="none" stroke="#63b8ff" d="M33.25,-93.51C43.76,-78.34 65.09,-49 87,-27.5 87.46,-27.05 87.93,-26.6 88.41,-26.15"/>
<polygon fill="#63b8ff" stroke="#63b8ff" points="90.22,-28.36 95.61,-19.24 85.71,-23.01 90.22,-28.36"/>
</g>
<!-- Node15 -->
<g id="node15" class="node">
<title>Node15</title>
<g id="a_node15"><a xlink:href="../../d6/d03/surface_8f90.html#ad7b6446e720a806f41f10dd1eb0b6f88" target="_top" xlink:title="Evaluate the geometry of the LCFS and tangential derivatives.">
<polygon fill="white" stroke="#666666" points="136,-132 87,-132 87,-113 136,-113 136,-132"/>
<text text-anchor="middle" x="111.5" y="-120" font-family="Helvetica,sans-Serif" font-size="10.00">surface</text>
</a>
</g>
</g>
<!-- Node1&#45;&gt;Node15 -->
<g id="edge21" class="edge">
<title>Node1&#45;&gt;Node15</title>
<path fill="none" stroke="#63b8ff" d="M51.25,-109.1C58.99,-110.85 67.67,-112.81 75.96,-114.69"/>
<polygon fill="#63b8ff" stroke="#63b8ff" points="74.98,-118.28 85.51,-117.07 76.52,-111.45 74.98,-118.28"/>
</g>
<!-- Node3 -->
<g id="node3" class="node">
<title>Node3</title>
<g id="a_node3"><a xlink:href="../../d6/dc7/becoil_8f90.html#a449b054fb88bdb4cdf73ef8939654bfb" target="_top" xlink:title="Compute the cylindrical components of the magnetic field due to external coils. by bi&#45;linear interpol...">
<polygon fill="white" stroke="#666666" points="215,-396 173,-396 173,-377 215,-377 215,-396"/>
<text text-anchor="middle" x="194" y="-384" font-family="Helvetica,sans-Serif" font-size="10.00">becoil</text>
</a>
</g>
</g>
<!-- Node2&#45;&gt;Node3 -->
<g id="edge2" class="edge">
<title>Node2&#45;&gt;Node3</title>
<path fill="none" stroke="#63b8ff" d="M133.65,-358.48C142.57,-362.69 153.12,-367.67 162.83,-372.26"/>
<polygon fill="#63b8ff" stroke="#63b8ff" points="161.01,-375.74 171.55,-376.84 164,-369.41 161.01,-375.74"/>
</g>
<!-- Node4 -->
<g id="node4" class="node">
<title>Node4</title>
<g id="a_node4"><a xlink:href="../../d9/dda/belicu_8f90.html#a53e6f162ca96069b8d93e131069ddf5d" target="_top" xlink:title="Magnetic field due to net toroidal current modeled by a filament along the magnetic axis.">
<polygon fill="white" stroke="#666666" points="215,-433 173,-433 173,-414 215,-414 215,-433"/>
<text text-anchor="middle" x="194" y="-421" font-family="Helvetica,sans-Serif" font-size="10.00">belicu</text>
</a>
</g>
</g>
<!-- Node2&#45;&gt;Node4 -->
<g id="edge3" class="edge">
<title>Node2&#45;&gt;Node4</title>
<path fill="none" stroke="#63b8ff" d="M122.45,-358.35C134.13,-369.86 154.19,-389.36 172,-405.5 172.37,-405.84 172.75,-406.18 173.13,-406.52"/>
<polygon fill="#63b8ff" stroke="#63b8ff" points="170.52,-409.76 180.35,-413.71 175.13,-404.49 170.52,-409.76"/>
</g>
<!-- Node2&#45;&gt;Node5 -->
<g id="edge4" class="edge">
<title>Node2&#45;&gt;Node5</title>
<path fill="none" stroke="#63b8ff" d="M135.71,-338.82C157.66,-329.01 190.91,-312.48 216,-292.5 251.59,-264.17 284.77,-222.14 302.37,-198.12"/>
<polygon fill="#63b8ff" stroke="#63b8ff" points="305.72,-200.47 308.73,-190.31 300.04,-196.37 305.72,-200.47"/>
</g>
<!-- Node5&#45;&gt;Node5 -->
<g id="edge5" class="edge">
<title>Node5&#45;&gt;Node5</title>
<path fill="none" stroke="#63b8ff" d="M297.32,-189.37C288.57,-197.94 294.97,-207 316.5,-207 328.95,-207 336.34,-203.97 338.67,-199.76"/>
<polygon fill="#63b8ff" stroke="#63b8ff" points="341.8,-199.01 335.68,-190.37 335.08,-200.95 341.8,-199.01"/>
</g>
<!-- Node6&#45;&gt;Node5 -->
<g id="edge8" class="edge">
<title>Node6&#45;&gt;Node5</title>
<path fill="none" stroke="#63b8ff" d="M133.28,-47.69C155.19,-49.74 190.05,-55.32 216,-70.5 254.68,-93.13 286.95,-135.72 303.52,-160.43"/>
<polygon fill="#63b8ff" stroke="#63b8ff" points="301.05,-162.06 309.44,-168.52 306.92,-158.24 301.05,-162.06"/>
</g>
<!-- Node7&#45;&gt;Node5 -->
<g id="edge19" class="edge">
<title>Node7&#45;&gt;Node5</title>
<path fill="none" stroke="#63b8ff" d="M135.79,-213.14C163.83,-207.89 212.1,-198.86 251.55,-191.47"/>
<polygon fill="#63b8ff" stroke="#63b8ff" points="251.97,-194.77 261.16,-189.49 250.68,-187.89 251.97,-194.77"/>
</g>
<!-- Node8 -->
<g id="node8" class="node">
<title>Node8</title>
<g id="a_node8"><a xlink:href="../../da/d73/analyt_8f90.html#a60edcf4884aa60f6d96c258a97255756" target="_top" xlink:title="Compute the analytical&#45;and&#45;numerical 4D Fourier integrals over the equivalently&#45;singular functions.">
<polygon fill="white" stroke="#666666" points="215,-359 173,-359 173,-340 215,-340 215,-359"/>
<text text-anchor="middle" x="194" y="-347" font-family="Helvetica,sans-Serif" font-size="10.00">analyt</text>
</a>
</g>
</g>
<!-- Node7&#45;&gt;Node8 -->
<g id="edge10" class="edge">
<title>Node7&#45;&gt;Node8</title>
<path fill="none" stroke="#63b8ff" d="M118.55,-227.42C131.9,-249.32 164.08,-302.07 181.44,-330.54"/>
<polygon fill="#63b8ff" stroke="#63b8ff" points="178.9,-332.11 187.1,-338.82 184.88,-328.46 178.9,-332.11"/>
</g>
<!-- Node11 -->
<g id="node11" class="node">
<title>Node11</title>
<g id="a_node11"><a xlink:href="../../d6/d77/fouri_8f90.html#a0f902f8d584a395f9db7175079d273c7" target="_top" xlink:title="Compute Fourier integrals and build amatrix.">
<polygon fill="white" stroke="#666666" points="211.5,-170 176.5,-170 176.5,-151 211.5,-151 211.5,-170"/>
<text text-anchor="middle" x="194" y="-158" font-family="Helvetica,sans-Serif" font-size="10.00">fouri</text>
</a>
</g>
</g>
<!-- Node7&#45;&gt;Node11 -->
<g id="edge14" class="edge">
<title>Node7&#45;&gt;Node11</title>
<path fill="none" stroke="#63b8ff" d="M126.52,-207.57C138.64,-198.99 156.38,-186.43 170.49,-176.44"/>
<polygon fill="#63b8ff" stroke="#63b8ff" points="172,-178.95 178.14,-170.31 167.95,-173.24 172,-178.95"/>
</g>
<!-- Node12 -->
<g id="node12" class="node">
<title>Node12</title>
<g id="a_node12"><a xlink:href="../../d0/d1c/fourp_8f90.html#add725dd420251115fd60182dc992503c" target="_top" xlink:title="Perform Fourier integrals of Green&#39;s function kernel.">
<polygon fill="white" stroke="#666666" points="213,-283 175,-283 175,-264 213,-264 213,-283"/>
<text text-anchor="middle" x="194" y="-271" font-family="Helvetica,sans-Serif" font-size="10.00">fourp</text>
</a>
</g>
</g>
<!-- Node7&#45;&gt;Node12 -->
<g id="edge16" class="edge">
<title>Node7&#45;&gt;Node12</title>
<path fill="none" stroke="#63b8ff" d="M126.52,-227.25C138.57,-235.63 156.17,-247.88 170.23,-257.66"/>
<polygon fill="#63b8ff" stroke="#63b8ff" points="167.66,-260.83 177.87,-263.67 171.66,-255.09 167.66,-260.83"/>
</g>
<!-- Node13 -->
<g id="node13" class="node">
<title>Node13</title>
<g id="a_node13"><a xlink:href="../../df/d2d/greenf_8f90.html#acd9d25905cc799c9fcd4d08a3cbb1e65" target="_top" xlink:title="Compute the regularized evaluation of the Green&#39;s function and the source term.">
<polygon fill="white" stroke="#666666" points="216,-246 172,-246 172,-227 216,-227 216,-246"/>
<text text-anchor="middle" x="194" y="-234" font-family="Helvetica,sans-Serif" font-size="10.00">greenf</text>
</a>
</g>
</g>
<!-- Node7&#45;&gt;Node13 -->
<g id="edge18" class="edge">
<title>Node7&#45;&gt;Node13</title>
<path fill="none" stroke="#63b8ff" d="M135.78,-223C143.66,-224.85 152.6,-226.96 161.03,-228.96"/>
<polygon fill="#63b8ff" stroke="#63b8ff" points="160.16,-232.58 170.69,-231.47 161.77,-225.77 160.16,-232.58"/>
</g>
<!-- Node8&#45;&gt;Node5 -->
<g id="edge13" class="edge">
<title>Node8&#45;&gt;Node5</title>
<path fill="none" stroke="#63b8ff" d="M203.86,-339.92C207.71,-335.61 212.21,-330.4 216,-325.5 249.94,-281.64 285.57,-226.91 303.57,-198.54"/>
<polygon fill="#63b8ff" stroke="#63b8ff" points="306.99,-200.67 309.37,-190.35 301.07,-196.94 306.99,-200.67"/>
</g>
<!-- Node9 -->
<g id="node9" class="node">
<title>Node9</title>
<g id="a_node9"><a xlink:href="../../df/df3/analysum_8f90.html#aa51b1a5786e7b5719fe2ca679efc66b0" target="_top" xlink:title="Compute the (m=0 or n=0) part of the DFT of the analytical Fourier transforms of the equivalently&#45;sin...">
<polygon fill="white" stroke="#666666" points="345.5,-340 287.5,-340 287.5,-321 345.5,-321 345.5,-340"/>
<text text-anchor="middle" x="316.5" y="-328" font-family="Helvetica,sans-Serif" font-size="10.00">analysum</text>
</a>
</g>
</g>
<!-- Node8&#45;&gt;Node9 -->
<g id="edge11" class="edge">
<title>Node8&#45;&gt;Node9</title>
<path fill="none" stroke="#63b8ff" d="M215.44,-346.28C232.1,-343.65 256.1,-339.87 276.42,-336.66"/>
<polygon fill="#63b8ff" stroke="#63b8ff" points="276.93,-339.97 286.26,-334.95 275.84,-333.05 276.93,-339.97"/>
</g>
<!-- Node10 -->
<g id="node10" class="node">
<title>Node10</title>
<g id="a_node10"><a xlink:href="../../d1/d90/analysum2_8f90.html#a47a0d185131a197c6fc62ee5d68d62fb" target="_top" xlink:title="Compute the (m&gt;0 and n&gt;0) part of the DFT of the analytical Fourier transforms of the equivalently&#45;si...">
<polygon fill="white" stroke="#666666" points="348,-377 285,-377 285,-358 348,-358 348,-377"/>
<text text-anchor="middle" x="316.5" y="-365" font-family="Helvetica,sans-Serif" font-size="10.00">analysum2</text>
</a>
</g>
</g>
<!-- Node8&#45;&gt;Node10 -->
<g id="edge12" class="edge">
<title>Node8&#45;&gt;Node10</title>
<path fill="none" stroke="#63b8ff" d="M215.44,-352.55C231.42,-354.94 254.15,-358.34 273.92,-361.29"/>
<polygon fill="#63b8ff" stroke="#63b8ff" points="273.12,-364.86 283.53,-362.87 274.16,-357.93 273.12,-364.86"/>
</g>
<!-- Node11&#45;&gt;Node5 -->
<g id="edge15" class="edge">
<title>Node11&#45;&gt;Node5</title>
<path fill="none" stroke="#63b8ff" d="M211.76,-163.14C219.89,-164.42 230.29,-166.06 241.35,-167.81"/>
<polygon fill="#63b8ff" stroke="#63b8ff" points="240.68,-171.4 251.11,-169.5 241.77,-164.49 240.68,-171.4"/>
</g>
<!-- Node12&#45;&gt;Node5 -->
<g id="edge17" class="edge">
<title>Node12&#45;&gt;Node5</title>
<path fill="none" stroke="#63b8ff" d="M207.44,-263.79C228.01,-247.75 269.31,-215.53 294.47,-195.9"/>
<polygon fill="#63b8ff" stroke="#63b8ff" points="296.21,-198.2 301.95,-189.29 291.91,-192.68 296.21,-198.2"/>
</g>
<!-- Node15&#45;&gt;Node5 -->
<g id="edge22" class="edge">
<title>Node15&#45;&gt;Node5</title>
<path fill="none" stroke="#63b8ff" d="M136.19,-125.94C157.34,-129.27 189.04,-134.94 216,-142.5 238.46,-148.8 263.03,-157.91 282.14,-165.52"/>
<polygon fill="#63b8ff" stroke="#63b8ff" points="280.56,-169.06 291.14,-169.56 283.18,-162.57 280.56,-169.06"/>
</g>
</g>
</svg>
