<?xml version="1.0" encoding="UTF-8" standalone="no"?>
<!DOCTYPE svg PUBLIC "-//W3C//DTD SVG 1.1//EN"
 "http://www.w3.org/Graphics/SVG/1.1/DTD/svg11.dtd">
<!-- Generated by graphviz version 2.49.3 (20211215.1918)
 -->
<!-- Title: vacuum Pages: 1 -->
<svg width="389pt" height="408pt"
 viewBox="0.00 0.00 389.00 408.07" xmlns="http://www.w3.org/2000/svg" xmlns:xlink="http://www.w3.org/1999/xlink">
<g id="graph0" class="graph" transform="scale(1 1) rotate(0) translate(4 404.07)">
<title>vacuum</title>
<polygon fill="white" stroke="transparent" points="-4,4 -4,-404.07 385,-404.07 385,4 -4,4"/>
<!-- Node1 -->
<g id="node1" class="node">
<title>Node1</title>
<g id="a_node1"><a xlink:title="Compute the vacuum contribution to the free&#45;boundary energy functional.">
<polygon fill="#bfbfbf" stroke="black" points="0,-228.5 0,-247.5 51,-247.5 51,-228.5 0,-228.5"/>
<text text-anchor="middle" x="25.5" y="-235.5" font-family="Helvetica,sans-Serif" font-size="10.00">vacuum</text>
</a>
</g>
</g>
<!-- Node2 -->
<g id="node2" class="node">
<title>Node2</title>
<g id="a_node2"><a xlink:href="../../db/d3d/bextern_8f90.html#a90228cc5f358147ae7f59953d6f9cced" target="_top" xlink:title="Compute the total magnetic field due to external coils and the net toroidal plasma current.">
<polygon fill="white" stroke="black" points="87.5,-304.5 87.5,-323.5 135.5,-323.5 135.5,-304.5 87.5,-304.5"/>
<text text-anchor="middle" x="111.5" y="-311.5" font-family="Helvetica,sans-Serif" font-size="10.00">bextern</text>
</a>
</g>
</g>
<!-- Node1&#45;&gt;Node2 -->
<g id="edge1" class="edge">
<title>Node1&#45;&gt;Node2</title>
<path fill="none" stroke="midnightblue" d="M37.14,-247.63C51.02,-260.19 75.54,-282.37 92.38,-297.6"/>
<polygon fill="midnightblue" stroke="midnightblue" points="90.18,-300.34 99.95,-304.45 94.88,-295.15 90.18,-300.34"/>
</g>
<!-- Node5 -->
<g id="node5" class="node">
<title>Node5</title>
<g id="a_node5"><a xlink:href="../../d8/dfd/namespacedbgout.html#acdd1612a38e44b6469dc03d9d1c6ceed" target="_top" xlink:title="check if any output is desired for the current iteration check if the given context should be openend...">
<polygon fill="white" stroke="black" points="252,-228.5 252,-247.5 381,-247.5 381,-228.5 252,-228.5"/>
<text text-anchor="middle" x="316.5" y="-235.5" font-family="Helvetica,sans-Serif" font-size="10.00">dbgout::open_dbg_context</text>
</a>
</g>
</g>
<!-- Node1&#45;&gt;Node5 -->
<g id="edge6" class="edge">
<title>Node1&#45;&gt;Node5</title>
<path fill="none" stroke="midnightblue" d="M51.03,-238.58C87.15,-239.36 156.78,-240.6 216,-240 224.32,-239.92 233.03,-239.79 241.69,-239.65"/>
<polygon fill="midnightblue" stroke="midnightblue" points="241.87,-243.15 251.81,-239.47 241.75,-236.15 241.87,-243.15"/>
</g>
<!-- Node6 -->
<g id="node6" class="node">
<title>Node6</title>
<g id="a_node6"><a xlink:href="../../dd/d98/precal_8f90.html#a0dae73e848a4757092d7e9786d073d3d" target="_top" xlink:title="Pre&#45;compute constant terms required for NESTOR.">
<polygon fill="white" stroke="black" points="90,-209.5 90,-228.5 133,-228.5 133,-209.5 90,-209.5"/>
<text text-anchor="middle" x="111.5" y="-216.5" font-family="Helvetica,sans-Serif" font-size="10.00">precal</text>
</a>
</g>
</g>
<!-- Node1&#45;&gt;Node6 -->
<g id="edge7" class="edge">
<title>Node1&#45;&gt;Node6</title>
<path fill="none" stroke="midnightblue" d="M51.25,-232.4C60.28,-230.36 70.59,-228.03 80.05,-225.89"/>
<polygon fill="midnightblue" stroke="midnightblue" points="80.91,-229.28 89.89,-223.66 79.36,-222.45 80.91,-229.28"/>
</g>
<!-- Node7 -->
<g id="node7" class="node">
<title>Node7</title>
<g id="a_node7"><a xlink:href="../../d0/d19/scalpot_8f90.html#afb9e58849c5a27e486bdf4106f8bb84e" target="_top" xlink:title="Compute all required terms for solving for the scalar magnetic potential.">
<polygon fill="white" stroke="black" points="87.5,-114.5 87.5,-133.5 135.5,-133.5 135.5,-114.5 87.5,-114.5"/>
<text text-anchor="middle" x="111.5" y="-121.5" font-family="Helvetica,sans-Serif" font-size="10.00">scalpot</text>
</a>
</g>
</g>
<!-- Node1&#45;&gt;Node7 -->
<g id="edge9" class="edge">
<title>Node1&#45;&gt;Node7</title>
<path fill="none" stroke="midnightblue" d="M33.66,-228.28C47.8,-209.1 79.46,-166.12 97.42,-141.75"/>
<polygon fill="midnightblue" stroke="midnightblue" points="100.24,-143.82 103.36,-133.69 94.61,-139.67 100.24,-143.82"/>
</g>
<!-- Node14 -->
<g id="node14" class="node">
<title>Node14</title>
<g id="a_node14"><a xlink:href="../../d7/d39/solver_8f90.html#a1e815013ed24a9dddc80410103f4a220" target="_top" xlink:title="Solve a linear system of equations using dgesv.">
<polygon fill="white" stroke="black" points="90,-171.5 90,-190.5 133,-190.5 133,-171.5 90,-171.5"/>
<text text-anchor="middle" x="111.5" y="-178.5" font-family="Helvetica,sans-Serif" font-size="10.00">solver</text>
</a>
</g>
</g>
<!-- Node1&#45;&gt;Node14 -->
<g id="edge18" class="edge">
<title>Node1&#45;&gt;Node14</title>
<path fill="none" stroke="midnightblue" d="M40.75,-228.33C53.62,-219.6 72.78,-206.6 87.76,-196.43"/>
<polygon fill="midnightblue" stroke="midnightblue" points="90.15,-199.04 96.46,-190.53 86.22,-193.25 90.15,-199.04"/>
</g>
<!-- Node15 -->
<g id="node15" class="node">
<title>Node15</title>
<g id="a_node15"><a xlink:href="../../d6/d03/surface_8f90.html#ad7b6446e720a806f41f10dd1eb0b6f88" target="_top" xlink:title="Evaluate the geometry of the LCFS and tangential derivatives.">
<polygon fill="white" stroke="black" points="87,-380.5 87,-399.5 136,-399.5 136,-380.5 87,-380.5"/>
<text text-anchor="middle" x="111.5" y="-387.5" font-family="Helvetica,sans-Serif" font-size="10.00">surface</text>
</a>
</g>
</g>
<!-- Node1&#45;&gt;Node15 -->
<g id="edge19" class="edge">
<title>Node1&#45;&gt;Node15</title>
<path fill="none" stroke="midnightblue" d="M31.75,-247.51C45.43,-272.25 82.29,-338.95 100.31,-371.56"/>
<polygon fill="midnightblue" stroke="midnightblue" points="97.35,-373.44 105.25,-380.5 103.47,-370.05 97.35,-373.44"/>
</g>
<!-- Node3 -->
<g id="node3" class="node">
<title>Node3</title>
<g id="a_node3"><a xlink:href="../../d6/dc7/becoil_8f90.html#a449b054fb88bdb4cdf73ef8939654bfb" target="_top" xlink:title="Compute the cylindrical components of the magnetic field due to external coils. by bi&#45;linear interpol...">
<polygon fill="white" stroke="black" points="173,-323.5 173,-342.5 215,-342.5 215,-323.5 173,-323.5"/>
<text text-anchor="middle" x="194" y="-330.5" font-family="Helvetica,sans-Serif" font-size="10.00">becoil</text>
</a>
</g>
</g>
<!-- Node2&#45;&gt;Node3 -->
<g id="edge2" class="edge">
<title>Node2&#45;&gt;Node3</title>
<path fill="none" stroke="midnightblue" d="M135.78,-319.5C144.29,-321.5 154.02,-323.8 163.03,-325.93"/>
<polygon fill="midnightblue" stroke="midnightblue" points="162.24,-329.34 172.77,-328.23 163.85,-322.52 162.24,-329.34"/>
</g>
<!-- Node4 -->
<g id="node4" class="node">
<title>Node4</title>
<g id="a_node4"><a xlink:href="../../d9/dda/belicu_8f90.html#a53e6f162ca96069b8d93e131069ddf5d" target="_top" xlink:title="Magnetic field due to net toroidal current modeled by a filament along the magnetic axis.">
<polygon fill="white" stroke="black" points="173,-361.5 173,-380.5 215,-380.5 215,-361.5 173,-361.5"/>
<text text-anchor="middle" x="194" y="-368.5" font-family="Helvetica,sans-Serif" font-size="10.00">belicu</text>
</a>
</g>
</g>
<!-- Node2&#45;&gt;Node4 -->
<g id="edge3" class="edge">
<title>Node2&#45;&gt;Node4</title>
<path fill="none" stroke="midnightblue" d="M126.16,-323.67C138.49,-332.4 156.85,-345.4 171.21,-355.57"/>
<polygon fill="midnightblue" stroke="midnightblue" points="169.36,-358.55 179.55,-361.47 173.41,-352.84 169.36,-358.55"/>
</g>
<!-- Node2&#45;&gt;Node5 -->
<g id="edge4" class="edge">
<title>Node2&#45;&gt;Node5</title>
<path fill="none" stroke="midnightblue" d="M135.79,-305.28C171.27,-292 239.1,-266.6 280.52,-251.1"/>
<polygon fill="midnightblue" stroke="midnightblue" points="281.81,-254.35 289.94,-247.57 279.35,-247.8 281.81,-254.35"/>
</g>
<!-- Node5&#45;&gt;Node5 -->
<g id="edge5" class="edge">
<title>Node5&#45;&gt;Node5</title>
<path fill="none" stroke="midnightblue" d="M297.7,-247.76C288.55,-256.57 294.82,-266 316.5,-266 330.39,-266 337.96,-262.13 339.19,-257.03"/>
<polygon fill="midnightblue" stroke="midnightblue" points="342.4,-255.62 335.3,-247.76 335.94,-258.33 342.4,-255.62"/>
</g>
<!-- Node6&#45;&gt;Node5 -->
<g id="edge8" class="edge">
<title>Node6&#45;&gt;Node5</title>
<path fill="none" stroke="midnightblue" d="M133.08,-220.93C158.43,-223.3 202.9,-227.46 241.58,-231.08"/>
<polygon fill="midnightblue" stroke="midnightblue" points="241.52,-234.59 251.8,-232.04 242.17,-227.62 241.52,-234.59"/>
</g>
<!-- Node7&#45;&gt;Node5 -->
<g id="edge17" class="edge">
<title>Node7&#45;&gt;Node5</title>
<path fill="none" stroke="midnightblue" d="M135.56,-130.29C157.12,-136.66 189.82,-147.63 216,-162 246.87,-178.95 278.52,-204.89 297.6,-221.65"/>
<polygon fill="midnightblue" stroke="midnightblue" points="295.41,-224.38 305.2,-228.42 300.07,-219.16 295.41,-224.38"/>
</g>
<!-- Node8 -->
<g id="node8" class="node">
<title>Node8</title>
<g id="a_node8"><a xlink:href="../../da/d73/analyt_8f90.html#a60edcf4884aa60f6d96c258a97255756" target="_top" xlink:title="Compute the analytical&#45;and&#45;numerical 4D Fourier integrals over the equivalently&#45;singular functions.">
<polygon fill="white" stroke="black" points="173,-19.5 173,-38.5 215,-38.5 215,-19.5 173,-19.5"/>
<text text-anchor="middle" x="194" y="-26.5" font-family="Helvetica,sans-Serif" font-size="10.00">analyt</text>
</a>
</g>
</g>
<!-- Node7&#45;&gt;Node8 -->
<g id="edge10" class="edge">
<title>Node7&#45;&gt;Node8</title>
<path fill="none" stroke="midnightblue" d="M119.33,-114.22C129.91,-99.32 151.22,-70.32 172,-48 172.74,-47.21 173.5,-46.41 174.29,-45.62"/>
<polygon fill="midnightblue" stroke="midnightblue" points="176.71,-48.14 181.55,-38.72 171.89,-43.07 176.71,-48.14"/>
</g>
<!-- Node11 -->
<g id="node11" class="node">
<title>Node11</title>
<g id="a_node11"><a xlink:href="../../d6/d77/fouri_8f90.html#a0f902f8d584a395f9db7175079d273c7" target="_top" xlink:title="Compute Fourier integrals and build amatrix.">
<polygon fill="white" stroke="black" points="176.5,-95.5 176.5,-114.5 211.5,-114.5 211.5,-95.5 176.5,-95.5"/>
<text text-anchor="middle" x="194" y="-102.5" font-family="Helvetica,sans-Serif" font-size="10.00">fouri</text>
</a>
</g>
</g>
<!-- Node7&#45;&gt;Node11 -->
<g id="edge14" class="edge">
<title>Node7&#45;&gt;Node11</title>
<path fill="none" stroke="midnightblue" d="M135.78,-118.5C145.43,-116.23 156.68,-113.57 166.63,-111.22"/>
<polygon fill="midnightblue" stroke="midnightblue" points="167.48,-114.62 176.41,-108.92 165.88,-107.81 167.48,-114.62"/>
</g>
<!-- Node12 -->
<g id="node12" class="node">
<title>Node12</title>
<g id="a_node12"><a xlink:href="../../d0/d1c/fourp_8f90.html#add725dd420251115fd60182dc992503c" target="_top" xlink:title="Perform Fourier integrals of Green&#39;s function kernel.">
<polygon fill="white" stroke="black" points="175,-57.5 175,-76.5 213,-76.5 213,-57.5 175,-57.5"/>
<text text-anchor="middle" x="194" y="-64.5" font-family="Helvetica,sans-Serif" font-size="10.00">fourp</text>
</a>
</g>
</g>
<!-- Node7&#45;&gt;Node12 -->
<g id="edge15" class="edge">
<title>Node7&#45;&gt;Node12</title>
<path fill="none" stroke="midnightblue" d="M126.16,-114.33C138.49,-105.6 156.85,-92.6 171.21,-82.43"/>
<polygon fill="midnightblue" stroke="midnightblue" points="173.41,-85.16 179.55,-76.53 169.36,-79.45 173.41,-85.16"/>
</g>
<!-- Node13 -->
<g id="node13" class="node">
<title>Node13</title>
<g id="a_node13"><a xlink:href="../../df/d2d/greenf_8f90.html#acd9d25905cc799c9fcd4d08a3cbb1e65" target="_top" xlink:title="Compute the regularized evaluation of the Green&#39;s function and the source term.">
<polygon fill="white" stroke="black" points="172,-171.5 172,-190.5 216,-190.5 216,-171.5 172,-171.5"/>
<text text-anchor="middle" x="194" y="-178.5" font-family="Helvetica,sans-Serif" font-size="10.00">greenf</text>
</a>
</g>
</g>
<!-- Node7&#45;&gt;Node13 -->
<g id="edge16" class="edge">
<title>Node7&#45;&gt;Node13</title>
<path fill="none" stroke="midnightblue" d="M126.16,-133.67C138.49,-142.4 156.85,-155.4 171.21,-165.57"/>
<polygon fill="midnightblue" stroke="midnightblue" points="169.36,-168.55 179.55,-171.47 173.41,-162.84 169.36,-168.55"/>
</g>
<!-- Node8&#45;&gt;Node5 -->
<g id="edge13" class="edge">
<title>Node8&#45;&gt;Node5</title>
<path fill="none" stroke="midnightblue" d="M207.28,-38.78C210.34,-41.57 213.47,-44.73 216,-48 259.59,-104.3 293.58,-182.5 307.98,-218.47"/>
<polygon fill="midnightblue" stroke="midnightblue" points="304.9,-220.19 311.82,-228.21 311.41,-217.62 304.9,-220.19"/>
</g>
<!-- Node9 -->
<g id="node9" class="node">
<title>Node9</title>
<g id="a_node9"><a xlink:href="../../df/df3/analysum_8f90.html#aa51b1a5786e7b5719fe2ca679efc66b0" target="_top" xlink:title="Compute the (m=0 or n=0) part of the DFT of the analytical Fourier transforms of the equivalently&#45;sin...">
<polygon fill="white" stroke="black" points="287.5,-0.5 287.5,-19.5 345.5,-19.5 345.5,-0.5 287.5,-0.5"/>
<text text-anchor="middle" x="316.5" y="-7.5" font-family="Helvetica,sans-Serif" font-size="10.00">analysum</text>
</a>
</g>
</g>
<!-- Node8&#45;&gt;Node9 -->
<g id="edge11" class="edge">
<title>Node8&#45;&gt;Node9</title>
<path fill="none" stroke="midnightblue" d="M215.17,-25.82C232.02,-23.16 256.53,-19.3 277.1,-16.05"/>
<polygon fill="midnightblue" stroke="midnightblue" points="277.8,-19.49 287.14,-14.47 276.71,-12.57 277.8,-19.49"/>
</g>
<!-- Node10 -->
<g id="node10" class="node">
<title>Node10</title>
<g id="a_node10"><a xlink:href="../../d1/d90/analysum2_8f90.html#a47a0d185131a197c6fc62ee5d68d62fb" target="_top" xlink:title="Compute the (m&gt;0 and n&gt;0) part of the DFT of the analytical Fourier transforms of the equivalently&#45;si...">
<polygon fill="white" stroke="black" points="285,-38.5 285,-57.5 348,-57.5 348,-38.5 285,-38.5"/>
<text text-anchor="middle" x="316.5" y="-45.5" font-family="Helvetica,sans-Serif" font-size="10.00">analysum2</text>
</a>
</g>
</g>
<!-- Node8&#45;&gt;Node10 -->
<g id="edge12" class="edge">
<title>Node8&#45;&gt;Node10</title>
<path fill="none" stroke="midnightblue" d="M215.17,-32.18C231.37,-34.74 254.65,-38.41 274.71,-41.57"/>
<polygon fill="midnightblue" stroke="midnightblue" points="274.43,-45.07 284.85,-43.17 275.52,-38.15 274.43,-45.07"/>
</g>
<!-- Node15&#45;&gt;Node5 -->
<g id="edge20" class="edge">
<title>Node15&#45;&gt;Node5</title>
<path fill="none" stroke="midnightblue" d="M136.25,-396.1C158.3,-400.41 191.34,-403.33 216,-390 268.83,-361.44 298.11,-291.29 309.65,-257.2"/>
<polygon fill="midnightblue" stroke="midnightblue" points="313.04,-258.1 312.78,-247.51 306.38,-255.95 313.04,-258.1"/>
</g>
</g>
</svg>
