<?xml version="1.0" encoding="UTF-8" standalone="no"?>
<!DOCTYPE svg PUBLIC "-//W3C//DTD SVG 1.1//EN"
 "http://www.w3.org/Graphics/SVG/1.1/DTD/svg11.dtd">
<!-- Generated by graphviz version 2.50.0 (20220203.2022)
 -->
<!-- Title: vacuum Pages: 1 -->
<svg width="389pt" height="446pt"
 viewBox="0.00 0.00 389.00 446.00" xmlns="http://www.w3.org/2000/svg" xmlns:xlink="http://www.w3.org/1999/xlink">
<g id="graph0" class="graph" transform="scale(1 1) rotate(0) translate(4 442)">
<title>vacuum</title>
<polygon fill="white" stroke="transparent" points="-4,4 -4,-442 385,-442 385,4 -4,4"/>
<!-- Node1 -->
<g id="node1" class="node">
<title>Node1</title>
<g id="a_node1"><a xlink:title="Compute the vacuum contribution to the free&#45;boundary energy functional.">
<polygon fill="#bfbfbf" stroke="black" points="0,-95.5 0,-114.5 51,-114.5 51,-95.5 0,-95.5"/>
<text text-anchor="middle" x="25.5" y="-102.5" font-family="Helvetica,sans-Serif" font-size="10.00">vacuum</text>
</a>
</g>
</g>
<!-- Node2 -->
<g id="node2" class="node">
<title>Node2</title>
<g id="a_node2"><a xlink:href="../../db/d3d/bextern_8f90.html#a90228cc5f358147ae7f59953d6f9cced" target="_top" xlink:title="Compute the total magnetic field due to external coils and the net toroidal plasma current.">
<polygon fill="white" stroke="black" points="87.5,-342.5 87.5,-361.5 135.5,-361.5 135.5,-342.5 87.5,-342.5"/>
<text text-anchor="middle" x="111.5" y="-349.5" font-family="Helvetica,sans-Serif" font-size="10.00">bextern</text>
</a>
</g>
</g>
<!-- Node1&#45;&gt;Node2 -->
<g id="edge1" class="edge">
<title>Node1&#45;&gt;Node2</title>
<path fill="none" stroke="midnightblue" d="M29.79,-114.68C42.31,-151.49 87.09,-283.16 103.98,-332.84"/>
<polygon fill="midnightblue" stroke="midnightblue" points="100.7,-334.04 107.23,-342.38 107.32,-331.79 100.7,-334.04"/>
</g>
<!-- Node5 -->
<g id="node5" class="node">
<title>Node5</title>
<g id="a_node5"><a xlink:href="../../d8/dfd/namespacedbgout.html#acdd1612a38e44b6469dc03d9d1c6ceed" target="_top" xlink:title="check if any output is desired for the current iteration check if the given context should be openend...">
<polygon fill="white" stroke="black" points="252,-171.5 252,-190.5 381,-190.5 381,-171.5 252,-171.5"/>
<text text-anchor="middle" x="316.5" y="-178.5" font-family="Helvetica,sans-Serif" font-size="10.00">dbgout::open_dbg_context</text>
</a>
</g>
</g>
<!-- Node1&#45;&gt;Node5 -->
<g id="edge6" class="edge">
<title>Node1&#45;&gt;Node5</title>
<path fill="none" stroke="midnightblue" d="M51,-102.98C73.29,-101.61 107.03,-100.75 136,-105 195.12,-113.68 258.08,-146.54 291.46,-166.1"/>
<polygon fill="midnightblue" stroke="midnightblue" points="290.06,-169.34 300.44,-171.46 293.65,-163.33 290.06,-169.34"/>
</g>
<!-- Node6 -->
<g id="node6" class="node">
<title>Node6</title>
<g id="a_node6"><a xlink:href="../../dd/d98/precal_8f90.html#a0dae73e848a4757092d7e9786d073d3d" target="_top" xlink:title="Pre&#45;compute constant terms required for NESTOR.">
<polygon fill="white" stroke="black" points="90,-38.5 90,-57.5 133,-57.5 133,-38.5 90,-38.5"/>
<text text-anchor="middle" x="111.5" y="-45.5" font-family="Helvetica,sans-Serif" font-size="10.00">precal</text>
</a>
</g>
</g>
<!-- Node1&#45;&gt;Node6 -->
<g id="edge7" class="edge">
<title>Node1&#45;&gt;Node6</title>
<path fill="none" stroke="midnightblue" d="M40.75,-95.33C53.62,-86.6 72.78,-73.6 87.76,-63.43"/>
<polygon fill="midnightblue" stroke="midnightblue" points="90.15,-66.04 96.46,-57.53 86.22,-60.25 90.15,-66.04"/>
</g>
<!-- Node7 -->
<g id="node7" class="node">
<title>Node7</title>
<g id="a_node7"><a xlink:href="../../d0/d19/scalpot_8f90.html#afb9e58849c5a27e486bdf4106f8bb84e" target="_top" xlink:title="Compute all required terms for solving for the scalar magnetic potential.">
<polygon fill="white" stroke="black" points="87.5,-209.5 87.5,-228.5 135.5,-228.5 135.5,-209.5 87.5,-209.5"/>
<text text-anchor="middle" x="111.5" y="-216.5" font-family="Helvetica,sans-Serif" font-size="10.00">scalpot</text>
</a>
</g>
</g>
<!-- Node1&#45;&gt;Node7 -->
<g id="edge9" class="edge">
<title>Node1&#45;&gt;Node7</title>
<path fill="none" stroke="midnightblue" d="M33.66,-114.72C47.8,-133.9 79.46,-176.88 97.42,-201.25"/>
<polygon fill="midnightblue" stroke="midnightblue" points="94.61,-203.33 103.36,-209.31 100.24,-199.18 94.61,-203.33"/>
</g>
<!-- Node14 -->
<g id="node14" class="node">
<title>Node14</title>
<g id="a_node14"><a xlink:href="../../d7/d39/solver_8f90.html#a1e815013ed24a9dddc80410103f4a220" target="_top" xlink:title="Solve a linear system of equations using dgesv.">
<polygon fill="white" stroke="black" points="90,-0.5 90,-19.5 133,-19.5 133,-0.5 90,-0.5"/>
<text text-anchor="middle" x="111.5" y="-7.5" font-family="Helvetica,sans-Serif" font-size="10.00">solver</text>
</a>
</g>
</g>
<!-- Node1&#45;&gt;Node14 -->
<g id="edge20" class="edge">
<title>Node1&#45;&gt;Node14</title>
<path fill="none" stroke="midnightblue" d="M33.15,-95.33C43.69,-80.33 65.26,-50.91 87,-29 87.91,-28.08 88.87,-27.16 89.86,-26.25"/>
<polygon fill="midnightblue" stroke="midnightblue" points="92.32,-28.74 97.62,-19.57 87.76,-23.43 92.32,-28.74"/>
</g>
<!-- Node15 -->
<g id="node15" class="node">
<title>Node15</title>
<g id="a_node15"><a xlink:href="../../d6/d03/surface_8f90.html#ad7b6446e720a806f41f10dd1eb0b6f88" target="_top" xlink:title="Evaluate the geometry of the LCFS and tangential derivatives.">
<polygon fill="white" stroke="black" points="87,-114.5 87,-133.5 136,-133.5 136,-114.5 87,-114.5"/>
<text text-anchor="middle" x="111.5" y="-121.5" font-family="Helvetica,sans-Serif" font-size="10.00">surface</text>
</a>
</g>
</g>
<!-- Node1&#45;&gt;Node15 -->
<g id="edge21" class="edge">
<title>Node1&#45;&gt;Node15</title>
<path fill="none" stroke="midnightblue" d="M51.25,-110.6C59.32,-112.42 68.42,-114.48 77.02,-116.43"/>
<polygon fill="midnightblue" stroke="midnightblue" points="76.27,-119.85 86.79,-118.64 77.81,-113.02 76.27,-119.85"/>
</g>
<!-- Node3 -->
<g id="node3" class="node">
<title>Node3</title>
<g id="a_node3"><a xlink:href="../../d6/dc7/becoil_8f90.html#a449b054fb88bdb4cdf73ef8939654bfb" target="_top" xlink:title="Compute the cylindrical components of the magnetic field due to external coils. by bi&#45;linear interpol...">
<polygon fill="white" stroke="black" points="173,-380.5 173,-399.5 215,-399.5 215,-380.5 173,-380.5"/>
<text text-anchor="middle" x="194" y="-387.5" font-family="Helvetica,sans-Serif" font-size="10.00">becoil</text>
</a>
</g>
</g>
<!-- Node2&#45;&gt;Node3 -->
<g id="edge2" class="edge">
<title>Node2&#45;&gt;Node3</title>
<path fill="none" stroke="midnightblue" d="M132.81,-361.59C142.23,-366.03 153.59,-371.4 163.89,-376.26"/>
<polygon fill="midnightblue" stroke="midnightblue" points="162.43,-379.44 172.97,-380.55 165.42,-373.11 162.43,-379.44"/>
</g>
<!-- Node4 -->
<g id="node4" class="node">
<title>Node4</title>
<g id="a_node4"><a xlink:href="../../d9/dda/belicu_8f90.html#a53e6f162ca96069b8d93e131069ddf5d" target="_top" xlink:title="Magnetic field due to net toroidal current modeled by a filament along the magnetic axis.">
<polygon fill="white" stroke="black" points="173,-418.5 173,-437.5 215,-437.5 215,-418.5 173,-418.5"/>
<text text-anchor="middle" x="194" y="-425.5" font-family="Helvetica,sans-Serif" font-size="10.00">belicu</text>
</a>
</g>
</g>
<!-- Node2&#45;&gt;Node4 -->
<g id="edge3" class="edge">
<title>Node2&#45;&gt;Node4</title>
<path fill="none" stroke="midnightblue" d="M122.52,-361.77C134.28,-373.19 154.41,-392.62 172,-409 172.93,-409.87 173.89,-410.75 174.86,-411.64"/>
<polygon fill="midnightblue" stroke="midnightblue" points="172.51,-414.24 182.26,-418.39 177.23,-409.07 172.51,-414.24"/>
</g>
<!-- Node2&#45;&gt;Node5 -->
<g id="edge4" class="edge">
<title>Node2&#45;&gt;Node5</title>
<path fill="none" stroke="midnightblue" d="M134.88,-342.47C156.83,-332.5 190.6,-315.47 216,-295 252.09,-265.91 285.7,-222.76 303.11,-198.75"/>
<polygon fill="midnightblue" stroke="midnightblue" points="305.99,-200.73 308.95,-190.56 300.29,-196.67 305.99,-200.73"/>
</g>
<!-- Node5&#45;&gt;Node5 -->
<g id="edge5" class="edge">
<title>Node5&#45;&gt;Node5</title>
<path fill="none" stroke="midnightblue" d="M297.7,-190.76C288.55,-199.57 294.82,-209 316.5,-209 330.39,-209 337.96,-205.13 339.19,-200.03"/>
<polygon fill="midnightblue" stroke="midnightblue" points="342.4,-198.62 335.3,-190.76 335.94,-201.33 342.4,-198.62"/>
</g>
<!-- Node6&#45;&gt;Node5 -->
<g id="edge8" class="edge">
<title>Node6&#45;&gt;Node5</title>
<path fill="none" stroke="midnightblue" d="M133.28,-49.19C155.19,-51.24 190.05,-56.82 216,-72 255.22,-94.95 287.85,-138.41 304.2,-162.95"/>
<polygon fill="midnightblue" stroke="midnightblue" points="301.27,-164.87 309.65,-171.35 307.14,-161.06 301.27,-164.87"/>
</g>
<!-- Node7&#45;&gt;Node5 -->
<g id="edge19" class="edge">
<title>Node7&#45;&gt;Node5</title>
<path fill="none" stroke="midnightblue" d="M135.79,-214.64C164.59,-209.25 214.71,-199.87 254.72,-192.38"/>
<polygon fill="midnightblue" stroke="midnightblue" points="255.47,-195.8 264.65,-190.52 254.18,-188.92 255.47,-195.8"/>
</g>
<!-- Node8 -->
<g id="node8" class="node">
<title>Node8</title>
<g id="a_node8"><a xlink:href="../../da/d73/analyt_8f90.html#a60edcf4884aa60f6d96c258a97255756" target="_top" xlink:title="Compute the analytical&#45;and&#45;numerical 4D Fourier integrals over the equivalently&#45;singular functions.">
<polygon fill="white" stroke="black" points="173,-342.5 173,-361.5 215,-361.5 215,-342.5 173,-342.5"/>
<text text-anchor="middle" x="194" y="-349.5" font-family="Helvetica,sans-Serif" font-size="10.00">analyt</text>
</a>
</g>
</g>
<!-- Node7&#45;&gt;Node8 -->
<g id="edge10" class="edge">
<title>Node7&#45;&gt;Node8</title>
<path fill="none" stroke="midnightblue" d="M118.29,-228.57C131.57,-250.51 164.41,-304.77 181.79,-333.49"/>
<polygon fill="midnightblue" stroke="midnightblue" points="178.87,-335.42 187.05,-342.16 184.86,-331.8 178.87,-335.42"/>
</g>
<!-- Node11 -->
<g id="node11" class="node">
<title>Node11</title>
<g id="a_node11"><a xlink:href="../../d6/d77/fouri_8f90.html#a0f902f8d584a395f9db7175079d273c7" target="_top" xlink:title="Compute Fourier integrals and build amatrix.">
<polygon fill="white" stroke="black" points="176.5,-152.5 176.5,-171.5 211.5,-171.5 211.5,-152.5 176.5,-152.5"/>
<text text-anchor="middle" x="194" y="-159.5" font-family="Helvetica,sans-Serif" font-size="10.00">fouri</text>
</a>
</g>
</g>
<!-- Node7&#45;&gt;Node11 -->
<g id="edge14" class="edge">
<title>Node7&#45;&gt;Node11</title>
<path fill="none" stroke="midnightblue" d="M126.16,-209.33C138.49,-200.6 156.85,-187.6 171.21,-177.43"/>
<polygon fill="midnightblue" stroke="midnightblue" points="173.41,-180.16 179.55,-171.53 169.36,-174.45 173.41,-180.16"/>
</g>
<!-- Node12 -->
<g id="node12" class="node">
<title>Node12</title>
<g id="a_node12"><a xlink:href="../../d0/d1c/fourp_8f90.html#add725dd420251115fd60182dc992503c" target="_top" xlink:title="Perform Fourier integrals of Green&#39;s function kernel.">
<polygon fill="white" stroke="black" points="175,-266.5 175,-285.5 213,-285.5 213,-266.5 175,-266.5"/>
<text text-anchor="middle" x="194" y="-273.5" font-family="Helvetica,sans-Serif" font-size="10.00">fourp</text>
</a>
</g>
</g>
<!-- Node7&#45;&gt;Node12 -->
<g id="edge16" class="edge">
<title>Node7&#45;&gt;Node12</title>
<path fill="none" stroke="midnightblue" d="M126.16,-228.67C138.49,-237.4 156.85,-250.4 171.21,-260.57"/>
<polygon fill="midnightblue" stroke="midnightblue" points="169.36,-263.55 179.55,-266.47 173.41,-257.84 169.36,-263.55"/>
</g>
<!-- Node13 -->
<g id="node13" class="node">
<title>Node13</title>
<g id="a_node13"><a xlink:href="../../df/d2d/greenf_8f90.html#acd9d25905cc799c9fcd4d08a3cbb1e65" target="_top" xlink:title="Compute the regularized evaluation of the Green&#39;s function and the source term.">
<polygon fill="white" stroke="black" points="172,-228.5 172,-247.5 216,-247.5 216,-228.5 172,-228.5"/>
<text text-anchor="middle" x="194" y="-235.5" font-family="Helvetica,sans-Serif" font-size="10.00">greenf</text>
</a>
</g>
</g>
<!-- Node7&#45;&gt;Node13 -->
<g id="edge18" class="edge">
<title>Node7&#45;&gt;Node13</title>
<path fill="none" stroke="midnightblue" d="M135.78,-224.5C143.99,-226.43 153.36,-228.64 162.1,-230.71"/>
<polygon fill="midnightblue" stroke="midnightblue" points="161.43,-234.14 171.97,-233.04 163.04,-227.33 161.43,-234.14"/>
</g>
<!-- Node8&#45;&gt;Node5 -->
<g id="edge13" class="edge">
<title>Node8&#45;&gt;Node5</title>
<path fill="none" stroke="midnightblue" d="M203.86,-342.42C207.72,-338.12 212.21,-332.91 216,-328 250.34,-283.47 286.28,-227.73 304.09,-199.39"/>
<polygon fill="midnightblue" stroke="midnightblue" points="307.27,-200.9 309.6,-190.57 301.34,-197.19 307.27,-200.9"/>
</g>
<!-- Node9 -->
<g id="node9" class="node">
<title>Node9</title>
<g id="a_node9"><a xlink:href="../../df/df3/analysum_8f90.html#aa51b1a5786e7b5719fe2ca679efc66b0" target="_top" xlink:title="Compute the (m=0 or n=0) part of the DFT of the analytical Fourier transforms of the equivalently&#45;sin...">
<polygon fill="white" stroke="black" points="287.5,-323.5 287.5,-342.5 345.5,-342.5 345.5,-323.5 287.5,-323.5"/>
<text text-anchor="middle" x="316.5" y="-330.5" font-family="Helvetica,sans-Serif" font-size="10.00">analysum</text>
</a>
</g>
</g>
<!-- Node8&#45;&gt;Node9 -->
<g id="edge11" class="edge">
<title>Node8&#45;&gt;Node9</title>
<path fill="none" stroke="midnightblue" d="M215.17,-348.82C232.02,-346.16 256.53,-342.3 277.1,-339.05"/>
<polygon fill="midnightblue" stroke="midnightblue" points="277.8,-342.49 287.14,-337.47 276.71,-335.57 277.8,-342.49"/>
</g>
<!-- Node10 -->
<g id="node10" class="node">
<title>Node10</title>
<g id="a_node10"><a xlink:href="../../d1/d90/analysum2_8f90.html#a47a0d185131a197c6fc62ee5d68d62fb" target="_top" xlink:title="Compute the (m&gt;0 and n&gt;0) part of the DFT of the analytical Fourier transforms of the equivalently&#45;si...">
<polygon fill="white" stroke="black" points="285,-361.5 285,-380.5 348,-380.5 348,-361.5 285,-361.5"/>
<text text-anchor="middle" x="316.5" y="-368.5" font-family="Helvetica,sans-Serif" font-size="10.00">analysum2</text>
</a>
</g>
</g>
<!-- Node8&#45;&gt;Node10 -->
<g id="edge12" class="edge">
<title>Node8&#45;&gt;Node10</title>
<path fill="none" stroke="midnightblue" d="M215.17,-355.18C231.37,-357.74 254.65,-361.41 274.71,-364.57"/>
<polygon fill="midnightblue" stroke="midnightblue" points="274.43,-368.07 284.85,-366.17 275.52,-361.15 274.43,-368.07"/>
</g>
<!-- Node11&#45;&gt;Node5 -->
<g id="edge15" class="edge">
<title>Node11&#45;&gt;Node5</title>
<path fill="none" stroke="midnightblue" d="M211.76,-164.64C220.79,-166.07 232.61,-167.93 245.03,-169.89"/>
<polygon fill="midnightblue" stroke="midnightblue" points="244.66,-173.37 255.08,-171.47 245.75,-166.46 244.66,-173.37"/>
</g>
<!-- Node12&#45;&gt;Node5 -->
<g id="edge17" class="edge">
<title>Node12&#45;&gt;Node5</title>
<path fill="none" stroke="midnightblue" d="M207.44,-266.19C228.2,-249.82 270.11,-216.79 295.2,-197.01"/>
<polygon fill="midnightblue" stroke="midnightblue" points="297.62,-199.55 303.31,-190.61 293.29,-194.06 297.62,-199.55"/>
</g>
<!-- Node15&#45;&gt;Node5 -->
<g id="edge22" class="edge">
<title>Node15&#45;&gt;Node5</title>
<path fill="none" stroke="midnightblue" d="M136.21,-127.09C157.37,-130.14 189.08,-135.46 216,-143 239.46,-149.57 265.12,-159.44 284.51,-167.48"/>
<polygon fill="midnightblue" stroke="midnightblue" points="283.18,-170.72 293.76,-171.37 285.9,-164.26 283.18,-170.72"/>
</g>
</g>
</svg>
