<?xml version="1.0" encoding="UTF-8" standalone="no"?>
<!DOCTYPE svg PUBLIC "-//W3C//DTD SVG 1.1//EN"
 "http://www.w3.org/Graphics/SVG/1.1/DTD/svg11.dtd">
<!-- Generated by graphviz version 2.47.1 (20210421.1823)
 -->
<!-- Title: vacuum Pages: 1 -->
<svg width="323pt" height="218pt"
 viewBox="0.00 0.00 323.00 218.00" xmlns="http://www.w3.org/2000/svg" xmlns:xlink="http://www.w3.org/1999/xlink">
<g id="graph0" class="graph" transform="scale(1 1) rotate(0) translate(4 214)">
<title>vacuum</title>
<polygon fill="white" stroke="transparent" points="-4,4 -4,-214 319,-214 319,4 -4,4"/>
<!-- Node1 -->
<g id="node1" class="node">
<title>Node1</title>
<g id="a_node1"><a xlink:title="Compute the vacuum contribution to the free&#45;boundary energy functional.">
<polygon fill="#bfbfbf" stroke="black" points="0,-76.5 0,-95.5 51,-95.5 51,-76.5 0,-76.5"/>
<text text-anchor="middle" x="25.5" y="-83.5" font-family="Helvetica,sans-Serif" font-size="10.00">vacuum</text>
</a>
</g>
</g>
<!-- Node2 -->
<g id="node2" class="node">
<title>Node2</title>
<g id="a_node2"><a xlink:href="../../db/d3d/bextern_8f90.html#a90228cc5f358147ae7f59953d6f9cced" target="_top" xlink:title="Compute the total magnetic field due to external coils and the net toroidal plasma current.">
<polygon fill="white" stroke="black" points="87.5,-152.5 87.5,-171.5 135.5,-171.5 135.5,-152.5 87.5,-152.5"/>
<text text-anchor="middle" x="111.5" y="-159.5" font-family="Helvetica,sans-Serif" font-size="10.00">bextern</text>
</a>
</g>
</g>
<!-- Node1&#45;&gt;Node2 -->
<g id="edge1" class="edge">
<title>Node1&#45;&gt;Node2</title>
<path fill="none" stroke="midnightblue" d="M36.14,-95.51C47.9,-107.02 68.52,-126.86 87,-143 87.98,-143.85 88.99,-144.72 90.01,-145.59"/>
<polygon fill="midnightblue" stroke="midnightblue" points="87.98,-148.45 97.91,-152.12 92.43,-143.05 87.98,-148.45"/>
</g>
<!-- Node5 -->
<g id="node5" class="node">
<title>Node5</title>
<g id="a_node5"><a xlink:href="../../dd/d98/precal_8f90.html#a0dae73e848a4757092d7e9786d073d3d" target="_top" xlink:title="Pre&#45;compute constant terms required for NESTOR.">
<polygon fill="white" stroke="black" points="90,-114.5 90,-133.5 133,-133.5 133,-114.5 90,-114.5"/>
<text text-anchor="middle" x="111.5" y="-121.5" font-family="Helvetica,sans-Serif" font-size="10.00">precal</text>
</a>
</g>
</g>
<!-- Node1&#45;&gt;Node5 -->
<g id="edge4" class="edge">
<title>Node1&#45;&gt;Node5</title>
<path fill="none" stroke="midnightblue" d="M47.7,-95.59C57.7,-100.11 69.8,-105.59 80.7,-110.52"/>
<polygon fill="midnightblue" stroke="midnightblue" points="79.34,-113.74 89.89,-114.68 82.22,-107.37 79.34,-113.74"/>
</g>
<!-- Node6 -->
<g id="node6" class="node">
<title>Node6</title>
<g id="a_node6"><a xlink:href="../../d0/d19/scalpot_8f90.html#afb9e58849c5a27e486bdf4106f8bb84e" target="_top" xlink:title="Compute all required terms for solving for the scalar magnetic potential.">
<polygon fill="white" stroke="black" points="87.5,-76.5 87.5,-95.5 135.5,-95.5 135.5,-76.5 87.5,-76.5"/>
<text text-anchor="middle" x="111.5" y="-83.5" font-family="Helvetica,sans-Serif" font-size="10.00">scalpot</text>
</a>
</g>
</g>
<!-- Node1&#45;&gt;Node6 -->
<g id="edge5" class="edge">
<title>Node1&#45;&gt;Node6</title>
<path fill="none" stroke="midnightblue" d="M51.25,-86C59.37,-86 68.53,-86 77.18,-86"/>
<polygon fill="midnightblue" stroke="midnightblue" points="77.37,-89.5 87.37,-86 77.37,-82.5 77.37,-89.5"/>
</g>
<!-- Node13 -->
<g id="node13" class="node">
<title>Node13</title>
<g id="a_node13"><a xlink:href="../../d7/d39/solver_8f90.html#a1e815013ed24a9dddc80410103f4a220" target="_top" xlink:title="Solve a linear system of equations using dgesv.">
<polygon fill="white" stroke="black" points="90,-38.5 90,-57.5 133,-57.5 133,-38.5 90,-38.5"/>
<text text-anchor="middle" x="111.5" y="-45.5" font-family="Helvetica,sans-Serif" font-size="10.00">solver</text>
</a>
</g>
</g>
<!-- Node1&#45;&gt;Node13 -->
<g id="edge12" class="edge">
<title>Node1&#45;&gt;Node13</title>
<path fill="none" stroke="midnightblue" d="M47.7,-76.41C57.7,-71.89 69.8,-66.41 80.7,-61.48"/>
<polygon fill="midnightblue" stroke="midnightblue" points="82.22,-64.63 89.89,-57.32 79.34,-58.26 82.22,-64.63"/>
</g>
<!-- Node14 -->
<g id="node14" class="node">
<title>Node14</title>
<g id="a_node14"><a xlink:href="../../d6/d03/surface_8f90.html#ad7b6446e720a806f41f10dd1eb0b6f88" target="_top" xlink:title="Evaluate the geometry of the LCFS and tangential derivatives.">
<polygon fill="white" stroke="black" points="87,-0.5 87,-19.5 136,-19.5 136,-0.5 87,-0.5"/>
<text text-anchor="middle" x="111.5" y="-7.5" font-family="Helvetica,sans-Serif" font-size="10.00">surface</text>
</a>
</g>
</g>
<!-- Node1&#45;&gt;Node14 -->
<g id="edge13" class="edge">
<title>Node1&#45;&gt;Node14</title>
<path fill="none" stroke="midnightblue" d="M36.14,-76.49C47.9,-64.98 68.52,-45.14 87,-29 87.98,-28.15 88.99,-27.28 90.01,-26.41"/>
<polygon fill="midnightblue" stroke="midnightblue" points="92.43,-28.95 97.91,-19.88 87.98,-23.55 92.43,-28.95"/>
</g>
<!-- Node3 -->
<g id="node3" class="node">
<title>Node3</title>
<g id="a_node3"><a xlink:href="../../d6/dc7/becoil_8f90.html#a449b054fb88bdb4cdf73ef8939654bfb" target="_top" xlink:title="Compute the cylindrical components of the magnetic field due to external coils. by bi&#45;linear interpol...">
<polygon fill="white" stroke="black" points="173,-190.5 173,-209.5 215,-209.5 215,-190.5 173,-190.5"/>
<text text-anchor="middle" x="194" y="-197.5" font-family="Helvetica,sans-Serif" font-size="10.00">becoil</text>
</a>
</g>
</g>
<!-- Node2&#45;&gt;Node3 -->
<g id="edge2" class="edge">
<title>Node2&#45;&gt;Node3</title>
<path fill="none" stroke="midnightblue" d="M132.81,-171.59C142.23,-176.03 153.59,-181.4 163.89,-186.26"/>
<polygon fill="midnightblue" stroke="midnightblue" points="162.43,-189.44 172.97,-190.55 165.42,-183.11 162.43,-189.44"/>
</g>
<!-- Node4 -->
<g id="node4" class="node">
<title>Node4</title>
<g id="a_node4"><a xlink:href="../../d9/dda/belicu_8f90.html#a53e6f162ca96069b8d93e131069ddf5d" target="_top" xlink:title="Magnetic field due to net toroidal current modeled by a filament along the magnetic axis.">
<polygon fill="white" stroke="black" points="173,-152.5 173,-171.5 215,-171.5 215,-152.5 173,-152.5"/>
<text text-anchor="middle" x="194" y="-159.5" font-family="Helvetica,sans-Serif" font-size="10.00">belicu</text>
</a>
</g>
</g>
<!-- Node2&#45;&gt;Node4 -->
<g id="edge3" class="edge">
<title>Node2&#45;&gt;Node4</title>
<path fill="none" stroke="midnightblue" d="M135.78,-162C144.19,-162 153.81,-162 162.74,-162"/>
<polygon fill="midnightblue" stroke="midnightblue" points="162.77,-165.5 172.77,-162 162.77,-158.5 162.77,-165.5"/>
</g>
<!-- Node7 -->
<g id="node7" class="node">
<title>Node7</title>
<g id="a_node7"><a xlink:href="../../da/d73/analyt_8f90.html#a60edcf4884aa60f6d96c258a97255756" target="_top" xlink:title="Compute the analytical&#45;and&#45;numerical 4D Fourier integrals over the equivalently&#45;singular functions.">
<polygon fill="white" stroke="black" points="173,-114.5 173,-133.5 215,-133.5 215,-114.5 173,-114.5"/>
<text text-anchor="middle" x="194" y="-121.5" font-family="Helvetica,sans-Serif" font-size="10.00">analyt</text>
</a>
</g>
</g>
<!-- Node6&#45;&gt;Node7 -->
<g id="edge6" class="edge">
<title>Node6&#45;&gt;Node7</title>
<path fill="none" stroke="midnightblue" d="M132.81,-95.59C142.23,-100.03 153.59,-105.4 163.89,-110.26"/>
<polygon fill="midnightblue" stroke="midnightblue" points="162.43,-113.44 172.97,-114.55 165.42,-107.11 162.43,-113.44"/>
</g>
<!-- Node10 -->
<g id="node10" class="node">
<title>Node10</title>
<g id="a_node10"><a xlink:href="../../d6/d77/fouri_8f90.html#a0f902f8d584a395f9db7175079d273c7" target="_top" xlink:title="Compute Fourier integrals and build amatrix.">
<polygon fill="white" stroke="black" points="176.5,-76.5 176.5,-95.5 211.5,-95.5 211.5,-76.5 176.5,-76.5"/>
<text text-anchor="middle" x="194" y="-83.5" font-family="Helvetica,sans-Serif" font-size="10.00">fouri</text>
</a>
</g>
</g>
<!-- Node6&#45;&gt;Node10 -->
<g id="edge9" class="edge">
<title>Node6&#45;&gt;Node10</title>
<path fill="none" stroke="midnightblue" d="M135.78,-86C145.33,-86 156.44,-86 166.31,-86"/>
<polygon fill="midnightblue" stroke="midnightblue" points="166.41,-89.5 176.41,-86 166.41,-82.5 166.41,-89.5"/>
</g>
<!-- Node11 -->
<g id="node11" class="node">
<title>Node11</title>
<g id="a_node11"><a xlink:href="../../d0/d1c/fourp_8f90.html#add725dd420251115fd60182dc992503c" target="_top" xlink:title="Perform Fourier integrals of Green&#39;s function kernel.">
<polygon fill="white" stroke="black" points="175,-38.5 175,-57.5 213,-57.5 213,-38.5 175,-38.5"/>
<text text-anchor="middle" x="194" y="-45.5" font-family="Helvetica,sans-Serif" font-size="10.00">fourp</text>
</a>
</g>
</g>
<!-- Node6&#45;&gt;Node11 -->
<g id="edge10" class="edge">
<title>Node6&#45;&gt;Node11</title>
<path fill="none" stroke="midnightblue" d="M132.81,-76.41C142.73,-71.73 154.8,-66.03 165.52,-60.97"/>
<polygon fill="midnightblue" stroke="midnightblue" points="167.34,-63.98 174.89,-56.55 164.35,-57.65 167.34,-63.98"/>
</g>
<!-- Node12 -->
<g id="node12" class="node">
<title>Node12</title>
<g id="a_node12"><a xlink:href="../../df/d2d/greenf_8f90.html#acd9d25905cc799c9fcd4d08a3cbb1e65" target="_top" xlink:title="Compute the regularized evaluation of the Green&#39;s function and the source term.">
<polygon fill="white" stroke="black" points="172,-0.5 172,-19.5 216,-19.5 216,-0.5 172,-0.5"/>
<text text-anchor="middle" x="194" y="-7.5" font-family="Helvetica,sans-Serif" font-size="10.00">greenf</text>
</a>
</g>
</g>
<!-- Node6&#45;&gt;Node12 -->
<g id="edge11" class="edge">
<title>Node6&#45;&gt;Node12</title>
<path fill="none" stroke="midnightblue" d="M125.2,-76.24C128.77,-73.36 132.61,-70.13 136,-67 153.08,-51.21 155.36,-45.26 172,-29 172.91,-28.11 173.85,-27.21 174.81,-26.3"/>
<polygon fill="midnightblue" stroke="midnightblue" points="177.19,-28.86 182.17,-19.51 172.45,-23.72 177.19,-28.86"/>
</g>
<!-- Node8 -->
<g id="node8" class="node">
<title>Node8</title>
<g id="a_node8"><a xlink:href="../../df/df3/analysum_8f90.html#aa51b1a5786e7b5719fe2ca679efc66b0" target="_top" xlink:title="Compute the (m=0 or n=0) part of the DFT of the analytical Fourier transforms of the equivalently&#45;sin...">
<polygon fill="white" stroke="black" points="254.5,-133.5 254.5,-152.5 312.5,-152.5 312.5,-133.5 254.5,-133.5"/>
<text text-anchor="middle" x="283.5" y="-140.5" font-family="Helvetica,sans-Serif" font-size="10.00">analysum</text>
</a>
</g>
</g>
<!-- Node7&#45;&gt;Node8 -->
<g id="edge7" class="edge">
<title>Node7&#45;&gt;Node8</title>
<path fill="none" stroke="midnightblue" d="M215.29,-128.41C224,-130.3 234.47,-132.57 244.53,-134.75"/>
<polygon fill="midnightblue" stroke="midnightblue" points="243.85,-138.19 254.36,-136.89 245.33,-131.35 243.85,-138.19"/>
</g>
<!-- Node9 -->
<g id="node9" class="node">
<title>Node9</title>
<g id="a_node9"><a xlink:href="../../d1/d90/analysum2_8f90.html#a47a0d185131a197c6fc62ee5d68d62fb" target="_top" xlink:title="Compute the (m&gt;0 and n&gt;0) part of the DFT of the analytical Fourier transforms of the equivalently&#45;si...">
<polygon fill="white" stroke="black" points="252,-95.5 252,-114.5 315,-114.5 315,-95.5 252,-95.5"/>
<text text-anchor="middle" x="283.5" y="-102.5" font-family="Helvetica,sans-Serif" font-size="10.00">analysum2</text>
</a>
</g>
</g>
<!-- Node7&#45;&gt;Node9 -->
<g id="edge8" class="edge">
<title>Node7&#45;&gt;Node9</title>
<path fill="none" stroke="midnightblue" d="M215.29,-119.59C223.23,-117.87 232.62,-115.83 241.84,-113.83"/>
<polygon fill="midnightblue" stroke="midnightblue" points="242.65,-117.23 251.68,-111.69 241.17,-110.39 242.65,-117.23"/>
</g>
</g>
</svg>
