<?xml version="1.0" encoding="UTF-8" standalone="no"?>
<!DOCTYPE svg PUBLIC "-//W3C//DTD SVG 1.1//EN"
 "http://www.w3.org/Graphics/SVG/1.1/DTD/svg11.dtd">
<!-- Generated by graphviz version 7.1.0 (20230121.1956)
 -->
<!-- Title: vacuum Pages: 1 -->
<svg width="389pt" height="441pt"
 viewBox="0.00 0.00 389.00 441.00" xmlns="http://www.w3.org/2000/svg" xmlns:xlink="http://www.w3.org/1999/xlink">
<g id="graph0" class="graph" transform="scale(1 1) rotate(0) translate(4 437)">
<title>vacuum</title>
<!-- Node1 -->
<g id="node1" class="node">
<title>Node1</title>
<g id="a_node1"><a xlink:title="Compute the vacuum contribution to the free&#45;boundary energy functional.">
<polygon fill="#999999" stroke="#666666" points="51,-113 0,-113 0,-94 51,-94 51,-113"/>
<text text-anchor="middle" x="25.5" y="-101" font-family="Helvetica,sans-Serif" font-size="10.00">vacuum</text>
</a>
</g>
</g>
<!-- Node2 -->
<g id="node2" class="node">
<title>Node2</title>
<g id="a_node2"><a xlink:href="../../db/d3d/bextern_8f90.html#a90228cc5f358147ae7f59953d6f9cced" target="_top" xlink:title="Compute the total magnetic field due to external coils and the net toroidal plasma current.">
<polygon fill="white" stroke="#666666" points="135.5,-358 87.5,-358 87.5,-339 135.5,-339 135.5,-358"/>
<text text-anchor="middle" x="111.5" y="-346" font-family="Helvetica,sans-Serif" font-size="10.00">bextern</text>
</a>
</g>
</g>
<!-- Node1&#45;&gt;Node2 -->
<g id="edge1" class="edge">
<title>Node1&#45;&gt;Node2</title>
<path fill="none" stroke="#63b8ff" d="M29.9,-113.41C42.43,-149.96 86.24,-277.74 103.47,-327.98"/>
<polygon fill="#63b8ff" stroke="#63b8ff" points="100.11,-328.98 106.66,-337.31 106.73,-326.71 100.11,-328.98"/>
</g>
<!-- Node5 -->
<g id="node5" class="node">
<title>Node5</title>
<g id="a_node5"><a xlink:href="../../d8/dfd/namespacedbgout.html#acdd1612a38e44b6469dc03d9d1c6ceed" target="_top" xlink:title="check if any output is desired for the current iteration check if the given context should be openend...">
<polygon fill="white" stroke="#666666" points="381,-189 252,-189 252,-170 381,-170 381,-189"/>
<text text-anchor="middle" x="316.5" y="-177" font-family="Helvetica,sans-Serif" font-size="10.00">dbgout::open_dbg_context</text>
</a>
</g>
</g>
<!-- Node1&#45;&gt;Node5 -->
<g id="edge6" class="edge">
<title>Node1&#45;&gt;Node5</title>
<path fill="none" stroke="#63b8ff" d="M51.45,-101.74C73.75,-100.64 107.24,-100.14 136,-104.5 194.1,-113.3 256.15,-144.79 289.93,-164.05"/>
<polygon fill="#63b8ff" stroke="#63b8ff" points="287.76,-166.84 298.17,-168.84 291.28,-160.79 287.76,-166.84"/>
</g>
<!-- Node6 -->
<g id="node6" class="node">
<title>Node6</title>
<g id="a_node6"><a xlink:href="../../dd/d98/precal_8f90.html#a0dae73e848a4757092d7e9786d073d3d" target="_top" xlink:title="Pre&#45;compute constant terms required for NESTOR.">
<polygon fill="white" stroke="#666666" points="133,-56 90,-56 90,-37 133,-37 133,-56"/>
<text text-anchor="middle" x="111.5" y="-44" font-family="Helvetica,sans-Serif" font-size="10.00">precal</text>
</a>
</g>
</g>
<!-- Node1&#45;&gt;Node6 -->
<g id="edge7" class="edge">
<title>Node1&#45;&gt;Node6</title>
<path fill="none" stroke="#63b8ff" d="M41.13,-93.57C53.66,-85.07 71.94,-72.67 86.59,-62.73"/>
<polygon fill="#63b8ff" stroke="#63b8ff" points="88.47,-65.68 94.78,-57.16 84.54,-59.88 88.47,-65.68"/>
</g>
<!-- Node7 -->
<g id="node7" class="node">
<title>Node7</title>
<g id="a_node7"><a xlink:href="../../d0/d19/scalpot_8f90.html#afb9e58849c5a27e486bdf4106f8bb84e" target="_top" xlink:title="Compute all required terms for solving for the scalar magnetic potential.">
<polygon fill="white" stroke="#666666" points="135.5,-227 87.5,-227 87.5,-208 135.5,-208 135.5,-227"/>
<text text-anchor="middle" x="111.5" y="-215" font-family="Helvetica,sans-Serif" font-size="10.00">scalpot</text>
</a>
</g>
</g>
<!-- Node1&#45;&gt;Node7 -->
<g id="edge9" class="edge">
<title>Node1&#45;&gt;Node7</title>
<path fill="none" stroke="#63b8ff" d="M33.66,-113.22C47.61,-132.15 78.63,-174.25 96.7,-198.78"/>
<polygon fill="#63b8ff" stroke="#63b8ff" points="93.71,-200.61 102.46,-206.59 99.34,-196.46 93.71,-200.61"/>
</g>
<!-- Node14 -->
<g id="node14" class="node">
<title>Node14</title>
<g id="a_node14"><a xlink:href="../../d7/d39/solver_8f90.html#a1e815013ed24a9dddc80410103f4a220" target="_top" xlink:title="Solve a linear system of equations using dgesv.">
<polygon fill="white" stroke="#666666" points="133,-19 90,-19 90,0 133,0 133,-19"/>
<text text-anchor="middle" x="111.5" y="-7" font-family="Helvetica,sans-Serif" font-size="10.00">solver</text>
</a>
</g>
</g>
<!-- Node1&#45;&gt;Node14 -->
<g id="edge20" class="edge">
<title>Node1&#45;&gt;Node14</title>
<path fill="none" stroke="#63b8ff" d="M33.25,-93.51C43.76,-78.34 65.09,-49 87,-27.5 87.28,-27.23 87.55,-26.96 87.84,-26.69"/>
<polygon fill="#63b8ff" stroke="#63b8ff" points="90.1,-29.36 95.46,-20.22 85.57,-24.03 90.1,-29.36"/>
</g>
<!-- Node15 -->
<g id="node15" class="node">
<title>Node15</title>
<g id="a_node15"><a xlink:href="../../d6/d03/surface_8f90.html#ad7b6446e720a806f41f10dd1eb0b6f88" target="_top" xlink:title="Evaluate the geometry of the LCFS and tangential derivatives.">
<polygon fill="white" stroke="#666666" points="136,-132 87,-132 87,-113 136,-113 136,-132"/>
<text text-anchor="middle" x="111.5" y="-120" font-family="Helvetica,sans-Serif" font-size="10.00">surface</text>
</a>
</g>
</g>
<!-- Node1&#45;&gt;Node15 -->
<g id="edge21" class="edge">
<title>Node1&#45;&gt;Node15</title>
<path fill="none" stroke="#63b8ff" d="M51.25,-109.1C58.81,-110.81 67.28,-112.72 75.4,-114.56"/>
<polygon fill="#63b8ff" stroke="#63b8ff" points="74.5,-117.95 85.03,-116.74 76.05,-111.12 74.5,-117.95"/>
</g>
<!-- Node3 -->
<g id="node3" class="node">
<title>Node3</title>
<g id="a_node3"><a xlink:href="../../d6/dc7/becoil_8f90.html#a449b054fb88bdb4cdf73ef8939654bfb" target="_top" xlink:title="Compute the cylindrical components of the magnetic field due to external coils. by bi&#45;linear interpol...">
<polygon fill="white" stroke="#666666" points="215,-396 173,-396 173,-377 215,-377 215,-396"/>
<text text-anchor="middle" x="194" y="-384" font-family="Helvetica,sans-Serif" font-size="10.00">becoil</text>
</a>
</g>
</g>
<!-- Node2&#45;&gt;Node3 -->
<g id="edge2" class="edge">
<title>Node2&#45;&gt;Node3</title>
<path fill="none" stroke="#63b8ff" d="M133.65,-358.48C142.38,-362.61 152.68,-367.47 162.22,-371.97"/>
<polygon fill="#63b8ff" stroke="#63b8ff" points="160.64,-375.1 171.18,-376.2 163.63,-368.76 160.64,-375.1"/>
</g>
<!-- Node4 -->
<g id="node4" class="node">
<title>Node4</title>
<g id="a_node4"><a xlink:href="../../d9/dda/belicu_8f90.html#a53e6f162ca96069b8d93e131069ddf5d" target="_top" xlink:title="Magnetic field due to net toroidal current modeled by a filament along the magnetic axis.">
<polygon fill="white" stroke="#666666" points="215,-433 173,-433 173,-414 215,-414 215,-433"/>
<text text-anchor="middle" x="194" y="-421" font-family="Helvetica,sans-Serif" font-size="10.00">belicu</text>
</a>
</g>
</g>
<!-- Node2&#45;&gt;Node4 -->
<g id="edge3" class="edge">
<title>Node2&#45;&gt;Node4</title>
<path fill="none" stroke="#63b8ff" d="M122.45,-358.35C134.13,-369.86 154.19,-389.36 172,-405.5 172.28,-405.75 172.56,-406.01 172.85,-406.27"/>
<polygon fill="#63b8ff" stroke="#63b8ff" points="170.38,-408.76 180.21,-412.71 174.99,-403.49 170.38,-408.76"/>
</g>
<!-- Node2&#45;&gt;Node5 -->
<g id="edge4" class="edge">
<title>Node2&#45;&gt;Node5</title>
<path fill="none" stroke="#63b8ff" d="M135.71,-338.82C157.66,-329.01 190.91,-312.48 216,-292.5 251.43,-264.29 284.48,-222.51 302.14,-198.45"/>
<polygon fill="#63b8ff" stroke="#63b8ff" points="304.83,-200.69 307.84,-190.54 299.15,-196.6 304.83,-200.69"/>
</g>
<!-- Node5&#45;&gt;Node5 -->
<g id="edge5" class="edge">
<title>Node5&#45;&gt;Node5</title>
<path fill="none" stroke="#63b8ff" d="M297.32,-189.37C288.57,-197.94 294.97,-207 316.5,-207 328.28,-207 335.52,-204.29 338.24,-200.43"/>
<polygon fill="#63b8ff" stroke="#63b8ff" points="341.69,-199.79 336.02,-190.84 334.87,-201.37 341.69,-199.79"/>
</g>
<!-- Node6&#45;&gt;Node5 -->
<g id="edge8" class="edge">
<title>Node6&#45;&gt;Node5</title>
<path fill="none" stroke="#63b8ff" d="M133.28,-47.69C155.19,-49.74 190.05,-55.32 216,-70.5 254.51,-93.03 286.66,-135.34 303.29,-160.1"/>
<polygon fill="#63b8ff" stroke="#63b8ff" points="300.22,-161.79 308.62,-168.26 306.08,-157.97 300.22,-161.79"/>
</g>
<!-- Node7&#45;&gt;Node5 -->
<g id="edge19" class="edge">
<title>Node7&#45;&gt;Node5</title>
<path fill="none" stroke="#63b8ff" d="M135.79,-213.14C163.71,-207.91 211.69,-198.93 251.04,-191.57"/>
<polygon fill="#63b8ff" stroke="#63b8ff" points="251.48,-195.04 260.67,-189.76 250.19,-188.16 251.48,-195.04"/>
</g>
<!-- Node8 -->
<g id="node8" class="node">
<title>Node8</title>
<g id="a_node8"><a xlink:href="../../da/d73/analyt_8f90.html#a60edcf4884aa60f6d96c258a97255756" target="_top" xlink:title="Compute the analytical&#45;and&#45;numerical 4D Fourier integrals over the equivalently&#45;singular functions.">
<polygon fill="white" stroke="#666666" points="215,-359 173,-359 173,-340 215,-340 215,-359"/>
<text text-anchor="middle" x="194" y="-347" font-family="Helvetica,sans-Serif" font-size="10.00">analyt</text>
</a>
</g>
</g>
<!-- Node7&#45;&gt;Node8 -->
<g id="edge10" class="edge">
<title>Node7&#45;&gt;Node8</title>
<path fill="none" stroke="#63b8ff" d="M118.55,-227.42C131.84,-249.22 163.8,-301.61 181.21,-330.16"/>
<polygon fill="#63b8ff" stroke="#63b8ff" points="178.12,-331.81 186.31,-338.53 184.09,-328.17 178.12,-331.81"/>
</g>
<!-- Node11 -->
<g id="node11" class="node">
<title>Node11</title>
<g id="a_node11"><a xlink:href="../../d6/d77/fouri_8f90.html#a0f902f8d584a395f9db7175079d273c7" target="_top" xlink:title="Compute Fourier integrals and build amatrix.">
<polygon fill="white" stroke="#666666" points="211.5,-170 176.5,-170 176.5,-151 211.5,-151 211.5,-170"/>
<text text-anchor="middle" x="194" y="-158" font-family="Helvetica,sans-Serif" font-size="10.00">fouri</text>
</a>
</g>
</g>
<!-- Node7&#45;&gt;Node11 -->
<g id="edge14" class="edge">
<title>Node7&#45;&gt;Node11</title>
<path fill="none" stroke="#63b8ff" d="M126.52,-207.57C138.53,-199.07 156.05,-186.67 170.09,-176.73"/>
<polygon fill="#63b8ff" stroke="#63b8ff" points="171.76,-179.82 177.9,-171.19 167.72,-174.11 171.76,-179.82"/>
</g>
<!-- Node12 -->
<g id="node12" class="node">
<title>Node12</title>
<g id="a_node12"><a xlink:href="../../d0/d1c/fourp_8f90.html#add725dd420251115fd60182dc992503c" target="_top" xlink:title="Perform Fourier integrals of Green&#39;s function kernel.">
<polygon fill="white" stroke="#666666" points="213,-283 175,-283 175,-264 213,-264 213,-283"/>
<text text-anchor="middle" x="194" y="-271" font-family="Helvetica,sans-Serif" font-size="10.00">fourp</text>
</a>
</g>
</g>
<!-- Node7&#45;&gt;Node12 -->
<g id="edge16" class="edge">
<title>Node7&#45;&gt;Node12</title>
<path fill="none" stroke="#63b8ff" d="M126.52,-227.25C138.34,-235.47 155.5,-247.41 169.42,-257.1"/>
<polygon fill="#63b8ff" stroke="#63b8ff" points="167.42,-259.97 177.63,-262.81 171.42,-254.22 167.42,-259.97"/>
</g>
<!-- Node13 -->
<g id="node13" class="node">
<title>Node13</title>
<g id="a_node13"><a xlink:href="../../df/d2d/greenf_8f90.html#acd9d25905cc799c9fcd4d08a3cbb1e65" target="_top" xlink:title="Compute the regularized evaluation of the Green&#39;s function and the source term.">
<polygon fill="white" stroke="#666666" points="216,-246 172,-246 172,-227 216,-227 216,-246"/>
<text text-anchor="middle" x="194" y="-234" font-family="Helvetica,sans-Serif" font-size="10.00">greenf</text>
</a>
</g>
</g>
<!-- Node7&#45;&gt;Node13 -->
<g id="edge18" class="edge">
<title>Node7&#45;&gt;Node13</title>
<path fill="none" stroke="#63b8ff" d="M135.78,-223C143.57,-224.83 152.4,-226.92 160.75,-228.89"/>
<polygon fill="#63b8ff" stroke="#63b8ff" points="159.69,-232.23 170.22,-231.12 161.29,-225.42 159.69,-232.23"/>
</g>
<!-- Node8&#45;&gt;Node5 -->
<g id="edge13" class="edge">
<title>Node8&#45;&gt;Node5</title>
<path fill="none" stroke="#63b8ff" d="M203.86,-339.92C207.71,-335.61 212.21,-330.4 216,-325.5 249.79,-281.83 285.25,-227.39 303.33,-198.92"/>
<polygon fill="#63b8ff" stroke="#63b8ff" points="306.19,-200.95 308.56,-190.63 300.27,-197.22 306.19,-200.95"/>
</g>
<!-- Node9 -->
<g id="node9" class="node">
<title>Node9</title>
<g id="a_node9"><a xlink:href="../../df/df3/analysum_8f90.html#aa51b1a5786e7b5719fe2ca679efc66b0" target="_top" xlink:title="Compute the (m=0 or n=0) part of the DFT of the analytical Fourier transforms of the equivalently&#45;sin...">
<polygon fill="white" stroke="#666666" points="345.5,-340 287.5,-340 287.5,-321 345.5,-321 345.5,-340"/>
<text text-anchor="middle" x="316.5" y="-328" font-family="Helvetica,sans-Serif" font-size="10.00">analysum</text>
</a>
</g>
</g>
<!-- Node8&#45;&gt;Node9 -->
<g id="edge11" class="edge">
<title>Node8&#45;&gt;Node9</title>
<path fill="none" stroke="#63b8ff" d="M215.44,-346.28C232.02,-343.66 255.88,-339.9 276.14,-336.71"/>
<polygon fill="#63b8ff" stroke="#63b8ff" points="276.44,-340.2 285.77,-335.19 275.35,-333.29 276.44,-340.2"/>
</g>
<!-- Node10 -->
<g id="node10" class="node">
<title>Node10</title>
<g id="a_node10"><a xlink:href="../../d1/d90/analysum2_8f90.html#a47a0d185131a197c6fc62ee5d68d62fb" target="_top" xlink:title="Compute the (m&gt;0 and n&gt;0) part of the DFT of the analytical Fourier transforms of the equivalently&#45;si...">
<polygon fill="white" stroke="#666666" points="348,-377 285,-377 285,-358 348,-358 348,-377"/>
<text text-anchor="middle" x="316.5" y="-365" font-family="Helvetica,sans-Serif" font-size="10.00">analysum2</text>
</a>
</g>
</g>
<!-- Node8&#45;&gt;Node10 -->
<g id="edge12" class="edge">
<title>Node8&#45;&gt;Node10</title>
<path fill="none" stroke="#63b8ff" d="M215.44,-352.55C231.27,-354.92 253.73,-358.27 273.37,-361.21"/>
<polygon fill="#63b8ff" stroke="#63b8ff" points="272.63,-364.63 283.03,-362.65 273.66,-357.71 272.63,-364.63"/>
</g>
<!-- Node11&#45;&gt;Node5 -->
<g id="edge15" class="edge">
<title>Node11&#45;&gt;Node5</title>
<path fill="none" stroke="#63b8ff" d="M211.76,-163.14C219.81,-164.41 230.08,-166.03 241.01,-167.75"/>
<polygon fill="#63b8ff" stroke="#63b8ff" points="240.19,-171.17 250.61,-169.27 241.28,-164.25 240.19,-171.17"/>
</g>
<!-- Node12&#45;&gt;Node5 -->
<g id="edge17" class="edge">
<title>Node12&#45;&gt;Node5</title>
<path fill="none" stroke="#63b8ff" d="M207.44,-263.79C227.92,-247.82 268.95,-215.81 294.14,-196.16"/>
<polygon fill="#63b8ff" stroke="#63b8ff" points="296.02,-199.13 301.75,-190.22 291.71,-193.62 296.02,-199.13"/>
</g>
<!-- Node15&#45;&gt;Node5 -->
<g id="edge22" class="edge">
<title>Node15&#45;&gt;Node5</title>
<path fill="none" stroke="#63b8ff" d="M136.19,-125.94C157.34,-129.27 189.04,-134.94 216,-142.5 238.25,-148.74 262.58,-157.74 281.6,-165.31"/>
<polygon fill="#63b8ff" stroke="#63b8ff" points="280.15,-168.5 290.74,-169 282.78,-162.01 280.15,-168.5"/>
</g>
</g>
</svg>
