<?xml version="1.0" encoding="UTF-8" standalone="no"?>
<!DOCTYPE svg PUBLIC "-//W3C//DTD SVG 1.1//EN"
 "http://www.w3.org/Graphics/SVG/1.1/DTD/svg11.dtd">
<!-- Generated by graphviz version 2.49.3 (20211027.1501)
 -->
<!-- Title: vacuum Pages: 1 -->
<svg width="408pt" height="327pt"
 viewBox="0.00 0.00 408.00 327.00" xmlns="http://www.w3.org/2000/svg" xmlns:xlink="http://www.w3.org/1999/xlink">
<g id="graph0" class="graph" transform="scale(1 1) rotate(0) translate(4 323)">
<title>vacuum</title>
<polygon fill="white" stroke="transparent" points="-4,4 -4,-323 404,-323 404,4 -4,4"/>
<!-- Node1 -->
<g id="node1" class="node">
<title>Node1</title>
<g id="a_node1"><a xlink:title="Compute the vacuum contribution to the free&#45;boundary energy functional.">
<polygon fill="#bfbfbf" stroke="black" points="0,-171.5 0,-190.5 51,-190.5 51,-171.5 0,-171.5"/>
<text text-anchor="middle" x="25.5" y="-178.5" font-family="Helvetica,sans-Serif" font-size="10.00">vacuum</text>
</a>
</g>
</g>
<!-- Node2 -->
<g id="node2" class="node">
<title>Node2</title>
<g id="a_node2"><a xlink:href="../../db/d3d/bextern_8f90.html#a90228cc5f358147ae7f59953d6f9cced" target="_top" xlink:title="Compute the total magnetic field due to external coils and the net toroidal plasma current.">
<polygon fill="white" stroke="black" points="87.5,-266.5 87.5,-285.5 135.5,-285.5 135.5,-266.5 87.5,-266.5"/>
<text text-anchor="middle" x="111.5" y="-273.5" font-family="Helvetica,sans-Serif" font-size="10.00">bextern</text>
</a>
</g>
</g>
<!-- Node1&#45;&gt;Node2 -->
<g id="edge1" class="edge">
<title>Node1&#45;&gt;Node2</title>
<path fill="none" stroke="midnightblue" d="M34.51,-190.83C45.9,-204.71 67.56,-230.72 87,-252 89.07,-254.26 91.27,-256.6 93.47,-258.9"/>
<polygon fill="midnightblue" stroke="midnightblue" points="91.25,-261.63 100.74,-266.34 96.26,-256.74 91.25,-261.63"/>
</g>
<!-- Node5 -->
<g id="node5" class="node">
<title>Node5</title>
<g id="a_node5"><a xlink:href="../../d8/dfd/namespacedbgout.html#acdd1612a38e44b6469dc03d9d1c6ceed" target="_top" xlink:title="check if any output is desired for the current iteration check if the given context should be openend...">
<polygon fill="white" stroke="black" points="172,-195.5 172,-214.5 301,-214.5 301,-195.5 172,-195.5"/>
<text text-anchor="middle" x="236.5" y="-202.5" font-family="Helvetica,sans-Serif" font-size="10.00">dbgout::open_dbg_context</text>
</a>
</g>
</g>
<!-- Node1&#45;&gt;Node5 -->
<g id="edge6" class="edge">
<title>Node1&#45;&gt;Node5</title>
<path fill="none" stroke="midnightblue" d="M37.6,-190.71C49.06,-200.04 67.93,-213.51 87,-219 122.32,-229.17 164.13,-223.76 194.37,-216.92"/>
<polygon fill="midnightblue" stroke="midnightblue" points="195.26,-220.3 204.16,-214.56 193.62,-213.5 195.26,-220.3"/>
</g>
<!-- Node6 -->
<g id="node6" class="node">
<title>Node6</title>
<g id="a_node6"><a xlink:href="../../dd/d98/precal_8f90.html#a0dae73e848a4757092d7e9786d073d3d" target="_top" xlink:title="Pre&#45;compute constant terms required for NESTOR.">
<polygon fill="white" stroke="black" points="90,-190.5 90,-209.5 133,-209.5 133,-190.5 90,-190.5"/>
<text text-anchor="middle" x="111.5" y="-197.5" font-family="Helvetica,sans-Serif" font-size="10.00">precal</text>
</a>
</g>
</g>
<!-- Node1&#45;&gt;Node6 -->
<g id="edge7" class="edge">
<title>Node1&#45;&gt;Node6</title>
<path fill="none" stroke="midnightblue" d="M51.25,-186.6C60.28,-188.64 70.59,-190.97 80.05,-193.11"/>
<polygon fill="midnightblue" stroke="midnightblue" points="79.36,-196.55 89.89,-195.34 80.91,-189.72 79.36,-196.55"/>
</g>
<!-- Node7 -->
<g id="node7" class="node">
<title>Node7</title>
<g id="a_node7"><a xlink:href="../../d0/d19/scalpot_8f90.html#afb9e58849c5a27e486bdf4106f8bb84e" target="_top" xlink:title="Compute all required terms for solving for the scalar magnetic potential.">
<polygon fill="white" stroke="black" points="87.5,-76.5 87.5,-95.5 135.5,-95.5 135.5,-76.5 87.5,-76.5"/>
<text text-anchor="middle" x="111.5" y="-83.5" font-family="Helvetica,sans-Serif" font-size="10.00">scalpot</text>
</a>
</g>
</g>
<!-- Node1&#45;&gt;Node7 -->
<g id="edge9" class="edge">
<title>Node1&#45;&gt;Node7</title>
<path fill="none" stroke="midnightblue" d="M33.15,-171.33C43.69,-156.33 65.26,-126.91 87,-105 87.91,-104.08 88.87,-103.16 89.86,-102.25"/>
<polygon fill="midnightblue" stroke="midnightblue" points="92.32,-104.74 97.62,-95.57 87.76,-99.43 92.32,-104.74"/>
</g>
<!-- Node14 -->
<g id="node14" class="node">
<title>Node14</title>
<g id="a_node14"><a xlink:href="../../d7/d39/solver_8f90.html#a1e815013ed24a9dddc80410103f4a220" target="_top" xlink:title="Solve a linear system of equations using dgesv.">
<polygon fill="white" stroke="black" points="90,-114.5 90,-133.5 133,-133.5 133,-114.5 90,-114.5"/>
<text text-anchor="middle" x="111.5" y="-121.5" font-family="Helvetica,sans-Serif" font-size="10.00">solver</text>
</a>
</g>
</g>
<!-- Node1&#45;&gt;Node14 -->
<g id="edge16" class="edge">
<title>Node1&#45;&gt;Node14</title>
<path fill="none" stroke="midnightblue" d="M40.75,-171.33C53.62,-162.6 72.78,-149.6 87.76,-139.43"/>
<polygon fill="midnightblue" stroke="midnightblue" points="90.15,-142.04 96.46,-133.53 86.22,-136.25 90.15,-142.04"/>
</g>
<!-- Node15 -->
<g id="node15" class="node">
<title>Node15</title>
<g id="a_node15"><a xlink:href="../../d6/d03/surface_8f90.html#ad7b6446e720a806f41f10dd1eb0b6f88" target="_top" xlink:title="Evaluate the geometry of the LCFS and tangential derivatives.">
<polygon fill="white" stroke="black" points="87,-152.5 87,-171.5 136,-171.5 136,-152.5 87,-152.5"/>
<text text-anchor="middle" x="111.5" y="-159.5" font-family="Helvetica,sans-Serif" font-size="10.00">surface</text>
</a>
</g>
</g>
<!-- Node1&#45;&gt;Node15 -->
<g id="edge17" class="edge">
<title>Node1&#45;&gt;Node15</title>
<path fill="none" stroke="midnightblue" d="M51.25,-175.4C59.32,-173.58 68.42,-171.52 77.02,-169.57"/>
<polygon fill="midnightblue" stroke="midnightblue" points="77.81,-172.98 86.79,-167.36 76.27,-166.15 77.81,-172.98"/>
</g>
<!-- Node3 -->
<g id="node3" class="node">
<title>Node3</title>
<g id="a_node3"><a xlink:href="../../d6/dc7/becoil_8f90.html#a449b054fb88bdb4cdf73ef8939654bfb" target="_top" xlink:title="Compute the cylindrical components of the magnetic field due to external coils. by bi&#45;linear interpol...">
<polygon fill="white" stroke="black" points="215.5,-261.5 215.5,-280.5 257.5,-280.5 257.5,-261.5 215.5,-261.5"/>
<text text-anchor="middle" x="236.5" y="-268.5" font-family="Helvetica,sans-Serif" font-size="10.00">becoil</text>
</a>
</g>
</g>
<!-- Node2&#45;&gt;Node3 -->
<g id="edge2" class="edge">
<title>Node2&#45;&gt;Node3</title>
<path fill="none" stroke="midnightblue" d="M135.64,-275.06C155.28,-274.26 183.62,-273.11 205.1,-272.24"/>
<polygon fill="midnightblue" stroke="midnightblue" points="205.47,-275.72 215.32,-271.82 205.19,-268.73 205.47,-275.72"/>
</g>
<!-- Node4 -->
<g id="node4" class="node">
<title>Node4</title>
<g id="a_node4"><a xlink:href="../../d9/dda/belicu_8f90.html#a53e6f162ca96069b8d93e131069ddf5d" target="_top" xlink:title="Magnetic field due to net toroidal current modeled by a filament along the magnetic axis.">
<polygon fill="white" stroke="black" points="215.5,-299.5 215.5,-318.5 257.5,-318.5 257.5,-299.5 215.5,-299.5"/>
<text text-anchor="middle" x="236.5" y="-306.5" font-family="Helvetica,sans-Serif" font-size="10.00">belicu</text>
</a>
</g>
</g>
<!-- Node2&#45;&gt;Node4 -->
<g id="edge3" class="edge">
<title>Node2&#45;&gt;Node4</title>
<path fill="none" stroke="midnightblue" d="M135.64,-282.21C155.37,-287.5 183.88,-295.15 205.39,-300.92"/>
<polygon fill="midnightblue" stroke="midnightblue" points="204.75,-304.38 215.32,-303.59 206.57,-297.61 204.75,-304.38"/>
</g>
<!-- Node2&#45;&gt;Node5 -->
<g id="edge4" class="edge">
<title>Node2&#45;&gt;Node5</title>
<path fill="none" stroke="midnightblue" d="M129.09,-266.42C149.9,-254.41 185.81,-233.68 210.1,-219.66"/>
<polygon fill="midnightblue" stroke="midnightblue" points="211.87,-222.68 218.78,-214.65 208.37,-216.62 211.87,-222.68"/>
</g>
<!-- Node5&#45;&gt;Node5 -->
<g id="edge5" class="edge">
<title>Node5&#45;&gt;Node5</title>
<path fill="none" stroke="midnightblue" d="M217.39,-214.76C208.09,-223.57 214.46,-233 236.5,-233 250.62,-233 258.31,-229.13 259.57,-224.03"/>
<polygon fill="midnightblue" stroke="midnightblue" points="262.75,-222.58 255.61,-214.76 256.31,-225.33 262.75,-222.58"/>
</g>
<!-- Node6&#45;&gt;Node5 -->
<g id="edge8" class="edge">
<title>Node6&#45;&gt;Node5</title>
<path fill="none" stroke="midnightblue" d="M133.09,-200.84C141.28,-201.17 151.24,-201.57 161.69,-202"/>
<polygon fill="midnightblue" stroke="midnightblue" points="161.69,-205.5 171.82,-202.41 161.97,-198.51 161.69,-205.5"/>
</g>
<!-- Node8 -->
<g id="node8" class="node">
<title>Node8</title>
<g id="a_node8"><a xlink:href="../../da/d73/analyt_8f90.html#a60edcf4884aa60f6d96c258a97255756" target="_top" xlink:title="Compute the analytical&#45;and&#45;numerical 4D Fourier integrals over the equivalently&#45;singular functions.">
<polygon fill="white" stroke="black" points="215.5,-19.5 215.5,-38.5 257.5,-38.5 257.5,-19.5 215.5,-19.5"/>
<text text-anchor="middle" x="236.5" y="-26.5" font-family="Helvetica,sans-Serif" font-size="10.00">analyt</text>
</a>
</g>
</g>
<!-- Node7&#45;&gt;Node8 -->
<g id="edge10" class="edge">
<title>Node7&#45;&gt;Node8</title>
<path fill="none" stroke="midnightblue" d="M125.14,-76.45C136.79,-68.02 154.84,-55.86 172,-48 182.54,-43.17 194.63,-39.2 205.41,-36.16"/>
<polygon fill="midnightblue" stroke="midnightblue" points="206.49,-39.49 215.25,-33.53 204.68,-32.73 206.49,-39.49"/>
</g>
<!-- Node11 -->
<g id="node11" class="node">
<title>Node11</title>
<g id="a_node11"><a xlink:href="../../d6/d77/fouri_8f90.html#a0f902f8d584a395f9db7175079d273c7" target="_top" xlink:title="Compute Fourier integrals and build amatrix.">
<polygon fill="white" stroke="black" points="219,-133.5 219,-152.5 254,-152.5 254,-133.5 219,-133.5"/>
<text text-anchor="middle" x="236.5" y="-140.5" font-family="Helvetica,sans-Serif" font-size="10.00">fouri</text>
</a>
</g>
</g>
<!-- Node7&#45;&gt;Node11 -->
<g id="edge13" class="edge">
<title>Node7&#45;&gt;Node11</title>
<path fill="none" stroke="midnightblue" d="M125.14,-95.55C136.79,-103.98 154.84,-116.14 172,-124 183.69,-129.36 197.28,-133.66 208.88,-136.8"/>
<polygon fill="midnightblue" stroke="midnightblue" points="208.31,-140.27 218.86,-139.37 210.05,-133.49 208.31,-140.27"/>
</g>
<!-- Node12 -->
<g id="node12" class="node">
<title>Node12</title>
<g id="a_node12"><a xlink:href="../../d0/d1c/fourp_8f90.html#add725dd420251115fd60182dc992503c" target="_top" xlink:title="Perform Fourier integrals of Green&#39;s function kernel.">
<polygon fill="white" stroke="black" points="217.5,-95.5 217.5,-114.5 255.5,-114.5 255.5,-95.5 217.5,-95.5"/>
<text text-anchor="middle" x="236.5" y="-102.5" font-family="Helvetica,sans-Serif" font-size="10.00">fourp</text>
</a>
</g>
</g>
<!-- Node7&#45;&gt;Node12 -->
<g id="edge14" class="edge">
<title>Node7&#45;&gt;Node12</title>
<path fill="none" stroke="midnightblue" d="M135.64,-89.57C155.97,-92.71 185.62,-97.29 207.33,-100.65"/>
<polygon fill="midnightblue" stroke="midnightblue" points="206.86,-104.12 217.27,-102.18 207.92,-97.2 206.86,-104.12"/>
</g>
<!-- Node13 -->
<g id="node13" class="node">
<title>Node13</title>
<g id="a_node13"><a xlink:href="../../df/d2d/greenf_8f90.html#acd9d25905cc799c9fcd4d08a3cbb1e65" target="_top" xlink:title="Compute the regularized evaluation of the Green&#39;s function and the source term.">
<polygon fill="white" stroke="black" points="214.5,-57.5 214.5,-76.5 258.5,-76.5 258.5,-57.5 214.5,-57.5"/>
<text text-anchor="middle" x="236.5" y="-64.5" font-family="Helvetica,sans-Serif" font-size="10.00">greenf</text>
</a>
</g>
</g>
<!-- Node7&#45;&gt;Node13 -->
<g id="edge15" class="edge">
<title>Node7&#45;&gt;Node13</title>
<path fill="none" stroke="midnightblue" d="M135.64,-82.43C155.01,-79.43 182.85,-75.13 204.21,-71.83"/>
<polygon fill="midnightblue" stroke="midnightblue" points="204.77,-75.29 214.11,-70.3 203.7,-68.37 204.77,-75.29"/>
</g>
<!-- Node9 -->
<g id="node9" class="node">
<title>Node9</title>
<g id="a_node9"><a xlink:href="../../df/df3/analysum_8f90.html#aa51b1a5786e7b5719fe2ca679efc66b0" target="_top" xlink:title="Compute the (m=0 or n=0) part of the DFT of the analytical Fourier transforms of the equivalently&#45;sin...">
<polygon fill="white" stroke="black" points="339.5,-38.5 339.5,-57.5 397.5,-57.5 397.5,-38.5 339.5,-38.5"/>
<text text-anchor="middle" x="368.5" y="-45.5" font-family="Helvetica,sans-Serif" font-size="10.00">analysum</text>
</a>
</g>
</g>
<!-- Node8&#45;&gt;Node9 -->
<g id="edge11" class="edge">
<title>Node8&#45;&gt;Node9</title>
<path fill="none" stroke="midnightblue" d="M257.53,-31.93C276.64,-34.72 305.92,-39 329.46,-42.44"/>
<polygon fill="midnightblue" stroke="midnightblue" points="329.08,-45.92 339.48,-43.91 330.1,-39 329.08,-45.92"/>
</g>
<!-- Node10 -->
<g id="node10" class="node">
<title>Node10</title>
<g id="a_node10"><a xlink:href="../../d1/d90/analysum2_8f90.html#a47a0d185131a197c6fc62ee5d68d62fb" target="_top" xlink:title="Compute the (m&gt;0 and n&gt;0) part of the DFT of the analytical Fourier transforms of the equivalently&#45;si...">
<polygon fill="white" stroke="black" points="337,-0.5 337,-19.5 400,-19.5 400,-0.5 337,-0.5"/>
<text text-anchor="middle" x="368.5" y="-7.5" font-family="Helvetica,sans-Serif" font-size="10.00">analysum2</text>
</a>
</g>
</g>
<!-- Node8&#45;&gt;Node10 -->
<g id="edge12" class="edge">
<title>Node8&#45;&gt;Node10</title>
<path fill="none" stroke="midnightblue" d="M257.53,-26.07C275.81,-23.4 303.4,-19.37 326.37,-16.01"/>
<polygon fill="midnightblue" stroke="midnightblue" points="327.16,-19.43 336.55,-14.52 326.15,-12.51 327.16,-19.43"/>
</g>
<!-- Node15&#45;&gt;Node5 -->
<g id="edge18" class="edge">
<title>Node15&#45;&gt;Node5</title>
<path fill="none" stroke="midnightblue" d="M136.22,-170.29C153.85,-176.46 178.26,-184.99 198.46,-192.05"/>
<polygon fill="midnightblue" stroke="midnightblue" points="197.4,-195.39 207.99,-195.38 199.71,-188.78 197.4,-195.39"/>
</g>
</g>
</svg>
