<?xml version="1.0" encoding="UTF-8" standalone="no"?>
<!DOCTYPE svg PUBLIC "-//W3C//DTD SVG 1.1//EN"
 "http://www.w3.org/Graphics/SVG/1.1/DTD/svg11.dtd">
<!-- Generated by graphviz version 2.49.3 (20211027.1501)
 -->
<!-- Title: vacuum Pages: 1 -->
<svg width="403pt" height="293pt"
 viewBox="0.00 0.00 403.00 293.00" xmlns="http://www.w3.org/2000/svg" xmlns:xlink="http://www.w3.org/1999/xlink">
<g id="graph0" class="graph" transform="scale(1 1) rotate(0) translate(4 289)">
<title>vacuum</title>
<polygon fill="white" stroke="transparent" points="-4,4 -4,-289 399,-289 399,4 -4,4"/>
<!-- Node1 -->
<g id="node1" class="node">
<title>Node1</title>
<g id="a_node1"><a xlink:title="Compute the vacuum contribution to the free&#45;boundary energy functional.">
<polygon fill="#bfbfbf" stroke="black" points="0,-132.5 0,-151.5 51,-151.5 51,-132.5 0,-132.5"/>
<text text-anchor="middle" x="25.5" y="-139.5" font-family="Helvetica,sans-Serif" font-size="10.00">vacuum</text>
</a>
</g>
</g>
<!-- Node2 -->
<g id="node2" class="node">
<title>Node2</title>
<g id="a_node2"><a xlink:href="../../db/d3d/bextern_8f90.html#a90228cc5f358147ae7f59953d6f9cced" target="_top" xlink:title="Compute the total magnetic field due to external coils and the net toroidal plasma current.">
<polygon fill="white" stroke="black" points="127.5,-246.5 127.5,-265.5 175.5,-265.5 175.5,-246.5 127.5,-246.5"/>
<text text-anchor="middle" x="151.5" y="-253.5" font-family="Helvetica,sans-Serif" font-size="10.00">bextern</text>
</a>
</g>
</g>
<!-- Node1&#45;&gt;Node2 -->
<g id="edge1" class="edge">
<title>Node1&#45;&gt;Node2</title>
<path fill="none" stroke="midnightblue" d="M29.99,-151.69C37.4,-170.92 56.58,-214.01 87,-237 95.83,-243.68 107,-248.02 117.5,-250.84"/>
<polygon fill="midnightblue" stroke="midnightblue" points="116.73,-254.25 127.26,-253.1 118.31,-247.43 116.73,-254.25"/>
</g>
<!-- Node5 -->
<g id="node5" class="node">
<title>Node5</title>
<g id="a_node5"><a xlink:href="../../d8/dfd/namespacedbgout.html#a0752528f123b592bc57f687438b75d9b" target="_top" xlink:title=" ">
<polygon fill="white" stroke="black" points="87,-208.5 87,-227.5 216,-227.5 216,-208.5 87,-208.5"/>
<text text-anchor="middle" x="151.5" y="-215.5" font-family="Helvetica,sans-Serif" font-size="10.00">dbgout::open_dbg_context</text>
</a>
</g>
</g>
<!-- Node1&#45;&gt;Node5 -->
<g id="edge4" class="edge">
<title>Node1&#45;&gt;Node5</title>
<path fill="none" stroke="midnightblue" d="M34.09,-151.5C44.65,-164.13 65,-186.31 87,-199 90.7,-201.13 94.66,-203.05 98.73,-204.76"/>
<polygon fill="midnightblue" stroke="midnightblue" points="97.77,-208.14 108.36,-208.41 100.25,-201.59 97.77,-208.14"/>
</g>
<!-- Node6 -->
<g id="node6" class="node">
<title>Node6</title>
<g id="a_node6"><a xlink:href="../../dd/d98/precal_8f90.html#a0dae73e848a4757092d7e9786d073d3d" target="_top" xlink:title="Pre&#45;compute constant terms required for NESTOR.">
<polygon fill="white" stroke="black" points="130,-170.5 130,-189.5 173,-189.5 173,-170.5 130,-170.5"/>
<text text-anchor="middle" x="151.5" y="-177.5" font-family="Helvetica,sans-Serif" font-size="10.00">precal</text>
</a>
</g>
</g>
<!-- Node1&#45;&gt;Node6 -->
<g id="edge5" class="edge">
<title>Node1&#45;&gt;Node6</title>
<path fill="none" stroke="midnightblue" d="M51.2,-149.84C62.16,-153.3 75.21,-157.39 87,-161 97.84,-164.32 109.74,-167.9 120.28,-171.05"/>
<polygon fill="midnightblue" stroke="midnightblue" points="119.31,-174.41 129.89,-173.91 121.3,-167.7 119.31,-174.41"/>
</g>
<!-- Node7 -->
<g id="node7" class="node">
<title>Node7</title>
<g id="a_node7"><a xlink:href="../../d0/d19/scalpot_8f90.html#afb9e58849c5a27e486bdf4106f8bb84e" target="_top" xlink:title="Compute all required terms for solving for the scalar magnetic potential.">
<polygon fill="white" stroke="black" points="127.5,-132.5 127.5,-151.5 175.5,-151.5 175.5,-132.5 127.5,-132.5"/>
<text text-anchor="middle" x="151.5" y="-139.5" font-family="Helvetica,sans-Serif" font-size="10.00">scalpot</text>
</a>
</g>
</g>
<!-- Node1&#45;&gt;Node7 -->
<g id="edge6" class="edge">
<title>Node1&#45;&gt;Node7</title>
<path fill="none" stroke="midnightblue" d="M51.3,-142C70.19,-142 96.41,-142 117.15,-142"/>
<polygon fill="midnightblue" stroke="midnightblue" points="117.42,-145.5 127.42,-142 117.42,-138.5 117.42,-145.5"/>
</g>
<!-- Node14 -->
<g id="node14" class="node">
<title>Node14</title>
<g id="a_node14"><a xlink:href="../../d8/dfd/namespacedbgout.html#a0537172e9da0db08b9d29ab8880f0559" target="_top" xlink:title=" ">
<polygon fill="white" stroke="black" points="99,-76.5 99,-95.5 204,-95.5 204,-76.5 99,-76.5"/>
<text text-anchor="middle" x="151.5" y="-83.5" font-family="Helvetica,sans-Serif" font-size="10.00">dbgout::should_write</text>
</a>
</g>
</g>
<!-- Node1&#45;&gt;Node14 -->
<g id="edge13" class="edge">
<title>Node1&#45;&gt;Node14</title>
<path fill="none" stroke="midnightblue" d="M47.82,-132.37C67.72,-123.38 97.64,-109.87 120.06,-99.75"/>
<polygon fill="midnightblue" stroke="midnightblue" points="121.79,-102.81 129.46,-95.5 118.91,-96.43 121.79,-102.81"/>
</g>
<!-- Node15 -->
<g id="node15" class="node">
<title>Node15</title>
<g id="a_node15"><a xlink:href="../../d7/d39/solver_8f90.html#a1e815013ed24a9dddc80410103f4a220" target="_top" xlink:title="Solve a linear system of equations using dgesv.">
<polygon fill="white" stroke="black" points="130,-38.5 130,-57.5 173,-57.5 173,-38.5 130,-38.5"/>
<text text-anchor="middle" x="151.5" y="-45.5" font-family="Helvetica,sans-Serif" font-size="10.00">solver</text>
</a>
</g>
</g>
<!-- Node1&#45;&gt;Node15 -->
<g id="edge15" class="edge">
<title>Node1&#45;&gt;Node15</title>
<path fill="none" stroke="midnightblue" d="M31.66,-132.39C40.72,-116.42 61.03,-84.44 87,-67 96.87,-60.37 109.13,-56 120.23,-53.14"/>
<polygon fill="midnightblue" stroke="midnightblue" points="121.02,-56.55 130,-50.92 119.47,-49.72 121.02,-56.55"/>
</g>
<!-- Node16 -->
<g id="node16" class="node">
<title>Node16</title>
<g id="a_node16"><a xlink:href="../../d6/d03/surface_8f90.html#ad7b6446e720a806f41f10dd1eb0b6f88" target="_top" xlink:title="Evaluate the geometry of the LCFS and tangential derivatives.">
<polygon fill="white" stroke="black" points="127,-0.5 127,-19.5 176,-19.5 176,-0.5 127,-0.5"/>
<text text-anchor="middle" x="151.5" y="-7.5" font-family="Helvetica,sans-Serif" font-size="10.00">surface</text>
</a>
</g>
</g>
<!-- Node1&#45;&gt;Node16 -->
<g id="edge16" class="edge">
<title>Node1&#45;&gt;Node16</title>
<path fill="none" stroke="midnightblue" d="M28.97,-132.19C34.99,-110.29 52.53,-57.16 87,-29 95.58,-21.99 106.68,-17.57 117.2,-14.78"/>
<polygon fill="midnightblue" stroke="midnightblue" points="118.01,-18.18 127,-12.57 116.47,-11.35 118.01,-18.18"/>
</g>
<!-- Node3 -->
<g id="node3" class="node">
<title>Node3</title>
<g id="a_node3"><a xlink:href="../../d6/dc7/becoil_8f90.html#a449b054fb88bdb4cdf73ef8939654bfb" target="_top" xlink:title="Compute the cylindrical components of the magnetic field due to external coils. by bi&#45;linear interpol...">
<polygon fill="white" stroke="black" points="253,-265.5 253,-284.5 295,-284.5 295,-265.5 253,-265.5"/>
<text text-anchor="middle" x="274" y="-272.5" font-family="Helvetica,sans-Serif" font-size="10.00">becoil</text>
</a>
</g>
</g>
<!-- Node2&#45;&gt;Node3 -->
<g id="edge2" class="edge">
<title>Node2&#45;&gt;Node3</title>
<path fill="none" stroke="midnightblue" d="M175.73,-259.66C194.81,-262.67 221.96,-266.95 242.73,-270.23"/>
<polygon fill="midnightblue" stroke="midnightblue" points="242.22,-273.69 252.64,-271.79 243.31,-266.78 242.22,-273.69"/>
</g>
<!-- Node4 -->
<g id="node4" class="node">
<title>Node4</title>
<g id="a_node4"><a xlink:href="../../d9/dda/belicu_8f90.html#a53e6f162ca96069b8d93e131069ddf5d" target="_top" xlink:title="Magnetic field due to net toroidal current modeled by a filament along the magnetic axis.">
<polygon fill="white" stroke="black" points="253,-227.5 253,-246.5 295,-246.5 295,-227.5 253,-227.5"/>
<text text-anchor="middle" x="274" y="-234.5" font-family="Helvetica,sans-Serif" font-size="10.00">belicu</text>
</a>
</g>
</g>
<!-- Node2&#45;&gt;Node4 -->
<g id="edge3" class="edge">
<title>Node2&#45;&gt;Node4</title>
<path fill="none" stroke="midnightblue" d="M175.73,-252.34C194.81,-249.33 221.96,-245.05 242.73,-241.77"/>
<polygon fill="midnightblue" stroke="midnightblue" points="243.31,-245.22 252.64,-240.21 242.22,-238.31 243.31,-245.22"/>
</g>
<!-- Node8 -->
<g id="node8" class="node">
<title>Node8</title>
<g id="a_node8"><a xlink:href="../../da/d73/analyt_8f90.html#a60edcf4884aa60f6d96c258a97255756" target="_top" xlink:title="Compute the analytical&#45;and&#45;numerical 4D Fourier integrals over the equivalently&#45;singular functions.">
<polygon fill="white" stroke="black" points="253,-189.5 253,-208.5 295,-208.5 295,-189.5 253,-189.5"/>
<text text-anchor="middle" x="274" y="-196.5" font-family="Helvetica,sans-Serif" font-size="10.00">analyt</text>
</a>
</g>
</g>
<!-- Node7&#45;&gt;Node8 -->
<g id="edge7" class="edge">
<title>Node7&#45;&gt;Node8</title>
<path fill="none" stroke="midnightblue" d="M175.74,-147.18C188.03,-150.36 203.19,-154.98 216,-161 228.95,-167.09 242.32,-175.85 252.85,-183.42"/>
<polygon fill="midnightblue" stroke="midnightblue" points="250.84,-186.29 260.96,-189.42 255,-180.66 250.84,-186.29"/>
</g>
<!-- Node11 -->
<g id="node11" class="node">
<title>Node11</title>
<g id="a_node11"><a xlink:href="../../d6/d77/fouri_8f90.html#a0f902f8d584a395f9db7175079d273c7" target="_top" xlink:title="Compute Fourier integrals and build amatrix.">
<polygon fill="white" stroke="black" points="256.5,-151.5 256.5,-170.5 291.5,-170.5 291.5,-151.5 256.5,-151.5"/>
<text text-anchor="middle" x="274" y="-158.5" font-family="Helvetica,sans-Serif" font-size="10.00">fouri</text>
</a>
</g>
</g>
<!-- Node7&#45;&gt;Node11 -->
<g id="edge10" class="edge">
<title>Node7&#45;&gt;Node11</title>
<path fill="none" stroke="midnightblue" d="M175.73,-145.66C195.98,-148.86 225.32,-153.48 246.48,-156.82"/>
<polygon fill="midnightblue" stroke="midnightblue" points="246,-160.29 256.42,-158.39 247.09,-153.37 246,-160.29"/>
</g>
<!-- Node12 -->
<g id="node12" class="node">
<title>Node12</title>
<g id="a_node12"><a xlink:href="../../d0/d1c/fourp_8f90.html#add725dd420251115fd60182dc992503c" target="_top" xlink:title="Perform Fourier integrals of Green&#39;s function kernel.">
<polygon fill="white" stroke="black" points="255,-113.5 255,-132.5 293,-132.5 293,-113.5 255,-113.5"/>
<text text-anchor="middle" x="274" y="-120.5" font-family="Helvetica,sans-Serif" font-size="10.00">fourp</text>
</a>
</g>
</g>
<!-- Node7&#45;&gt;Node12 -->
<g id="edge11" class="edge">
<title>Node7&#45;&gt;Node12</title>
<path fill="none" stroke="midnightblue" d="M175.73,-138.34C195.51,-135.22 223.97,-130.73 245,-127.42"/>
<polygon fill="midnightblue" stroke="midnightblue" points="245.61,-130.86 254.94,-125.85 244.52,-123.95 245.61,-130.86"/>
</g>
<!-- Node13 -->
<g id="node13" class="node">
<title>Node13</title>
<g id="a_node13"><a xlink:href="../../df/d2d/greenf_8f90.html#acd9d25905cc799c9fcd4d08a3cbb1e65" target="_top" xlink:title="Compute the regularized evaluation of the Green&#39;s function and the source term.">
<polygon fill="white" stroke="black" points="252,-75.5 252,-94.5 296,-94.5 296,-75.5 252,-75.5"/>
<text text-anchor="middle" x="274" y="-82.5" font-family="Helvetica,sans-Serif" font-size="10.00">greenf</text>
</a>
</g>
</g>
<!-- Node7&#45;&gt;Node13 -->
<g id="edge12" class="edge">
<title>Node7&#45;&gt;Node13</title>
<path fill="none" stroke="midnightblue" d="M175.74,-136.82C188.03,-133.64 203.19,-129.02 216,-123 228.95,-116.91 242.32,-108.15 252.85,-100.58"/>
<polygon fill="midnightblue" stroke="midnightblue" points="255,-103.34 260.96,-94.58 250.84,-97.71 255,-103.34"/>
</g>
<!-- Node9 -->
<g id="node9" class="node">
<title>Node9</title>
<g id="a_node9"><a xlink:href="../../df/df3/analysum_8f90.html#aa51b1a5786e7b5719fe2ca679efc66b0" target="_top" xlink:title="Compute the (m=0 or n=0) part of the DFT of the analytical Fourier transforms of the equivalently&#45;sin...">
<polygon fill="white" stroke="black" points="334.5,-208.5 334.5,-227.5 392.5,-227.5 392.5,-208.5 334.5,-208.5"/>
<text text-anchor="middle" x="363.5" y="-215.5" font-family="Helvetica,sans-Serif" font-size="10.00">analysum</text>
</a>
</g>
</g>
<!-- Node8&#45;&gt;Node9 -->
<g id="edge8" class="edge">
<title>Node8&#45;&gt;Node9</title>
<path fill="none" stroke="midnightblue" d="M295.29,-203.41C304,-205.3 314.47,-207.57 324.53,-209.75"/>
<polygon fill="midnightblue" stroke="midnightblue" points="323.85,-213.19 334.36,-211.89 325.33,-206.35 323.85,-213.19"/>
</g>
<!-- Node10 -->
<g id="node10" class="node">
<title>Node10</title>
<g id="a_node10"><a xlink:href="../../d1/d90/analysum2_8f90.html#a47a0d185131a197c6fc62ee5d68d62fb" target="_top" xlink:title="Compute the (m&gt;0 and n&gt;0) part of the DFT of the analytical Fourier transforms of the equivalently&#45;si...">
<polygon fill="white" stroke="black" points="332,-170.5 332,-189.5 395,-189.5 395,-170.5 332,-170.5"/>
<text text-anchor="middle" x="363.5" y="-177.5" font-family="Helvetica,sans-Serif" font-size="10.00">analysum2</text>
</a>
</g>
</g>
<!-- Node8&#45;&gt;Node10 -->
<g id="edge9" class="edge">
<title>Node8&#45;&gt;Node10</title>
<path fill="none" stroke="midnightblue" d="M295.29,-194.59C303.23,-192.87 312.62,-190.83 321.84,-188.83"/>
<polygon fill="midnightblue" stroke="midnightblue" points="322.65,-192.23 331.68,-186.69 321.17,-185.39 322.65,-192.23"/>
</g>
<!-- Node14&#45;&gt;Node14 -->
<g id="edge14" class="edge">
<title>Node14&#45;&gt;Node14</title>
<path fill="none" stroke="midnightblue" d="M132.7,-95.76C123.55,-104.57 129.82,-114 151.5,-114 165.39,-114 172.96,-110.13 174.19,-105.03"/>
<polygon fill="midnightblue" stroke="midnightblue" points="177.4,-103.62 170.3,-95.76 170.94,-106.33 177.4,-103.62"/>
</g>
</g>
</svg>
