<?xml version="1.0" encoding="UTF-8" standalone="no"?>
<!DOCTYPE svg PUBLIC "-//W3C//DTD SVG 1.1//EN"
 "http://www.w3.org/Graphics/SVG/1.1/DTD/svg11.dtd">
<!-- Generated by graphviz version 8.0.5 (20230430.1635)
 -->
<!-- Title: vacuum Pages: 1 -->
<svg width="386pt" height="441pt"
 viewBox="0.00 0.00 386.25 441.25" xmlns="http://www.w3.org/2000/svg" xmlns:xlink="http://www.w3.org/1999/xlink">
<g id="graph0" class="graph" transform="scale(1 1) rotate(0) translate(4 437.25)">
<title>vacuum</title>
<!-- Node1 -->
<g id="Node000001" class="node">
<title>Node1</title>
<g id="a_Node000001"><a xlink:title="Compute the vacuum contribution to the free&#45;boundary energy functional.">
<polygon fill="#999999" stroke="#666666" points="50.5,-113.25 0,-113.25 0,-94 50.5,-94 50.5,-113.25"/>
<text text-anchor="middle" x="25.25" y="-99.75" font-family="Helvetica,sans-Serif" font-size="10.00">vacuum</text>
</a>
</g>
</g>
<!-- Node2 -->
<g id="Node000002" class="node">
<title>Node2</title>
<g id="a_Node000002"><a xlink:href="../../db/d3d/bextern_8f90.html#a90228cc5f358147ae7f59953d6f9cced" target="_top" xlink:title="Compute the total magnetic field due to external coils and the net toroidal plasma current.">
<polygon fill="white" stroke="#666666" points="134.38,-358.25 86.88,-358.25 86.88,-339 134.38,-339 134.38,-358.25"/>
<text text-anchor="middle" x="110.62" y="-344.75" font-family="Helvetica,sans-Serif" font-size="10.00">bextern</text>
</a>
</g>
</g>
<!-- Node1&#45;&gt;Node2 -->
<g id="edge1_Node000001_Node000002" class="edge">
<title>Node1&#45;&gt;Node2</title>
<g id="a_edge1_Node000001_Node000002"><a xlink:title=" ">
<path fill="none" stroke="#63b8ff" d="M29.62,-113.53C42.09,-150.16 85.72,-278.37 102.74,-328.4"/>
<polygon fill="#63b8ff" stroke="#63b8ff" points="99.68,-329.25 106.21,-337.59 106.3,-327 99.68,-329.25"/>
</a>
</g>
</g>
<!-- Node5 -->
<g id="Node000005" class="node">
<title>Node5</title>
<g id="a_Node000005"><a xlink:href="../../d8/dfd/namespacedbgout.html#acdd1612a38e44b6469dc03d9d1c6ceed" target="_top" xlink:title="check if any output is desired for the current iteration check if the given context should be openend...">
<polygon fill="white" stroke="#666666" points="378.25,-189.25 249.75,-189.25 249.75,-170 378.25,-170 378.25,-189.25"/>
<text text-anchor="middle" x="314" y="-175.75" font-family="Helvetica,sans-Serif" font-size="10.00">dbgout::open_dbg_context</text>
</a>
</g>
</g>
<!-- Node1&#45;&gt;Node5 -->
<g id="edge6_Node000001_Node000005" class="edge">
<title>Node1&#45;&gt;Node5</title>
<g id="a_edge6_Node000001_Node000005"><a xlink:title=" ">
<path fill="none" stroke="#63b8ff" d="M50.96,-101.57C73.05,-100.22 106.24,-99.39 134.75,-103.62 192.9,-112.26 254.72,-144.52 288.1,-164.13"/>
<polygon fill="#63b8ff" stroke="#63b8ff" points="285.75,-167.4 296.13,-169.53 289.35,-161.39 285.75,-167.4"/>
</a>
</g>
</g>
<!-- Node6 -->
<g id="Node000006" class="node">
<title>Node6</title>
<g id="a_Node000006"><a xlink:href="../../dd/d98/precal_8f90.html#a0dae73e848a4757092d7e9786d073d3d" target="_top" xlink:title="Pre&#45;compute constant terms required for NESTOR.">
<polygon fill="white" stroke="#666666" points="131.75,-56.25 89.5,-56.25 89.5,-37 131.75,-37 131.75,-56.25"/>
<text text-anchor="middle" x="110.62" y="-42.75" font-family="Helvetica,sans-Serif" font-size="10.00">precal</text>
</a>
</g>
</g>
<!-- Node1&#45;&gt;Node6 -->
<g id="edge7_Node000001_Node000006" class="edge">
<title>Node1&#45;&gt;Node6</title>
<g id="a_edge7_Node000001_Node000006"><a xlink:title=" ">
<path fill="none" stroke="#63b8ff" d="M40.77,-93.7C53.25,-85.17 71.48,-72.71 86.04,-62.75"/>
<polygon fill="#63b8ff" stroke="#63b8ff" points="87.71,-65.16 93.99,-56.63 83.76,-59.39 87.71,-65.16"/>
</a>
</g>
</g>
<!-- Node7 -->
<g id="Node000007" class="node">
<title>Node7</title>
<g id="a_Node000007"><a xlink:href="../../d0/d19/scalpot_8f90.html#afb9e58849c5a27e486bdf4106f8bb84e" target="_top" xlink:title="Compute all required terms for solving for the scalar magnetic potential.">
<polygon fill="white" stroke="#666666" points="134.38,-227.25 86.88,-227.25 86.88,-208 134.38,-208 134.38,-227.25"/>
<text text-anchor="middle" x="110.62" y="-213.75" font-family="Helvetica,sans-Serif" font-size="10.00">scalpot</text>
</a>
</g>
</g>
<!-- Node1&#45;&gt;Node7 -->
<g id="edge9_Node000001_Node000007" class="edge">
<title>Node1&#45;&gt;Node7</title>
<g id="a_edge9_Node000001_Node000007"><a xlink:title=" ">
<path fill="none" stroke="#63b8ff" d="M33.65,-113.74C47.65,-132.89 78.22,-174.68 96.02,-199.02"/>
<polygon fill="#63b8ff" stroke="#63b8ff" points="93.63,-200.69 102.36,-206.69 99.28,-196.56 93.63,-200.69"/>
</a>
</g>
</g>
<!-- Node14 -->
<g id="Node000014" class="node">
<title>Node14</title>
<g id="a_Node000014"><a xlink:href="../../d7/d39/solver_8f90.html#a1e815013ed24a9dddc80410103f4a220" target="_top" xlink:title="Solve a linear system of equations using dgesv.">
<polygon fill="white" stroke="#666666" points="131.75,-19.25 89.5,-19.25 89.5,0 131.75,0 131.75,-19.25"/>
<text text-anchor="middle" x="110.62" y="-5.75" font-family="Helvetica,sans-Serif" font-size="10.00">solver</text>
</a>
</g>
</g>
<!-- Node1&#45;&gt;Node14 -->
<g id="edge20_Node000001_Node000014" class="edge">
<title>Node1&#45;&gt;Node14</title>
<g id="a_edge20_Node000001_Node000014"><a xlink:title=" ">
<path fill="none" stroke="#63b8ff" d="M32.99,-93.65C43.46,-78.51 64.73,-49.2 86.5,-27.62 86.95,-27.18 87.41,-26.73 87.89,-26.29"/>
<polygon fill="#63b8ff" stroke="#63b8ff" points="89.63,-28.54 94.96,-19.39 85.09,-23.22 89.63,-28.54"/>
</a>
</g>
</g>
<!-- Node15 -->
<g id="Node000015" class="node">
<title>Node15</title>
<g id="a_Node000015"><a xlink:href="../../d6/d03/surface_8f90.html#ad7b6446e720a806f41f10dd1eb0b6f88" target="_top" xlink:title="Evaluate the geometry of the LCFS and tangential derivatives.">
<polygon fill="white" stroke="#666666" points="134.75,-132.25 86.5,-132.25 86.5,-113 134.75,-113 134.75,-132.25"/>
<text text-anchor="middle" x="110.62" y="-118.75" font-family="Helvetica,sans-Serif" font-size="10.00">surface</text>
</a>
</g>
</g>
<!-- Node1&#45;&gt;Node15 -->
<g id="edge21_Node000001_Node000015" class="edge">
<title>Node1&#45;&gt;Node15</title>
<g id="a_edge21_Node000001_Node000015"><a xlink:title=" ">
<path fill="none" stroke="#63b8ff" d="M50.81,-109.22C58.56,-110.99 67.27,-112.97 75.55,-114.86"/>
<polygon fill="#63b8ff" stroke="#63b8ff" points="74.57,-118.45 85.1,-117.26 76.12,-111.63 74.57,-118.45"/>
</a>
</g>
</g>
<!-- Node3 -->
<g id="Node000003" class="node">
<title>Node3</title>
<g id="a_Node000003"><a xlink:href="../../d6/dc7/becoil_8f90.html#a449b054fb88bdb4cdf73ef8939654bfb" target="_top" xlink:title="Compute the cylindrical components of the magnetic field due to external coils. by bi&#45;linear interpol...">
<polygon fill="white" stroke="#666666" points="213,-396.25 171.5,-396.25 171.5,-377 213,-377 213,-396.25"/>
<text text-anchor="middle" x="192.25" y="-382.75" font-family="Helvetica,sans-Serif" font-size="10.00">becoil</text>
</a>
</g>
</g>
<!-- Node2&#45;&gt;Node3 -->
<g id="edge2_Node000002_Node000003" class="edge">
<title>Node2&#45;&gt;Node3</title>
<g id="a_edge2_Node000002_Node000003"><a xlink:title=" ">
<path fill="none" stroke="#63b8ff" d="M132.55,-358.61C141.28,-362.78 151.58,-367.69 161.11,-372.24"/>
<polygon fill="#63b8ff" stroke="#63b8ff" points="159.49,-375.82 170.02,-376.97 162.5,-369.5 159.49,-375.82"/>
</a>
</g>
</g>
<!-- Node4 -->
<g id="Node000004" class="node">
<title>Node4</title>
<g id="a_Node000004"><a xlink:href="../../d9/dda/belicu_8f90.html#a53e6f162ca96069b8d93e131069ddf5d" target="_top" xlink:title="Magnetic field due to net toroidal current modeled by a filament along the magnetic axis.">
<polygon fill="white" stroke="#666666" points="213,-433.25 171.5,-433.25 171.5,-414 213,-414 213,-433.25"/>
<text text-anchor="middle" x="192.25" y="-419.75" font-family="Helvetica,sans-Serif" font-size="10.00">belicu</text>
</a>
</g>
</g>
<!-- Node2&#45;&gt;Node4 -->
<g id="edge3_Node000002_Node000004" class="edge">
<title>Node2&#45;&gt;Node4</title>
<g id="a_edge3_Node000002_Node000004"><a xlink:title=" ">
<path fill="none" stroke="#63b8ff" d="M121.53,-358.45C133.17,-369.93 153.12,-389.41 170.75,-405.62 171.12,-405.96 171.49,-406.3 171.86,-406.64"/>
<polygon fill="#63b8ff" stroke="#63b8ff" points="169.1,-408.76 178.89,-412.82 173.76,-403.54 169.1,-408.76"/>
</a>
</g>
</g>
<!-- Node2&#45;&gt;Node5 -->
<g id="edge4_Node000002_Node000005" class="edge">
<title>Node2&#45;&gt;Node5</title>
<g id="a_edge4_Node000002_Node000005"><a xlink:title=" ">
<path fill="none" stroke="#63b8ff" d="M134.52,-338.89C156.18,-329.05 188.98,-312.48 213.75,-292.62 249.02,-264.34 281.98,-222.63 299.62,-198.59"/>
<polygon fill="#63b8ff" stroke="#63b8ff" points="303,-200.89 306.01,-190.74 297.32,-196.8 303,-200.89"/>
</a>
</g>
</g>
<!-- Node5&#45;&gt;Node5 -->
<g id="edge5_Node000005_Node000005" class="edge">
<title>Node5&#45;&gt;Node5</title>
<g id="a_edge5_Node000005_Node000005"><a xlink:title=" ">
<path fill="none" stroke="#63b8ff" d="M294.94,-189.54C286.25,-198.15 292.6,-207.25 314,-207.25 326.37,-207.25 333.72,-204.21 336.03,-199.98"/>
<polygon fill="#63b8ff" stroke="#63b8ff" points="339.16,-199.2 333.06,-190.54 332.43,-201.11 339.16,-199.2"/>
</a>
</g>
</g>
<!-- Node6&#45;&gt;Node5 -->
<g id="edge8_Node000006_Node000005" class="edge">
<title>Node6&#45;&gt;Node5</title>
<g id="a_edge8_Node000006_Node000005"><a xlink:title=" ">
<path fill="none" stroke="#63b8ff" d="M132.13,-47.87C153.75,-49.96 188.16,-55.58 213.75,-70.62 252.34,-93.31 284.53,-135.88 301.05,-160.57"/>
<polygon fill="#63b8ff" stroke="#63b8ff" points="298.57,-162.18 306.96,-168.66 304.44,-158.37 298.57,-162.18"/>
</a>
</g>
</g>
<!-- Node7&#45;&gt;Node5 -->
<g id="edge19_Node000007_Node000005" class="edge">
<title>Node7&#45;&gt;Node5</title>
<g id="a_edge19_Node000007_Node000005"><a xlink:title=" ">
<path fill="none" stroke="#63b8ff" d="M134.73,-213.27C162.39,-208.04 209.9,-199.08 248.91,-191.72"/>
<polygon fill="#63b8ff" stroke="#63b8ff" points="249.49,-194.98 258.67,-189.69 248.19,-188.1 249.49,-194.98"/>
</a>
</g>
</g>
<!-- Node8 -->
<g id="Node000008" class="node">
<title>Node8</title>
<g id="a_Node000008"><a xlink:href="../../da/d73/analyt_8f90.html#a60edcf4884aa60f6d96c258a97255756" target="_top" xlink:title="Compute the analytical&#45;and&#45;numerical 4D Fourier integrals over the equivalently&#45;singular functions.">
<polygon fill="white" stroke="#666666" points="213,-359.25 171.5,-359.25 171.5,-340 213,-340 213,-359.25"/>
<text text-anchor="middle" x="192.25" y="-345.75" font-family="Helvetica,sans-Serif" font-size="10.00">analyt</text>
</a>
</g>
</g>
<!-- Node7&#45;&gt;Node8 -->
<g id="edge10_Node000007_Node000008" class="edge">
<title>Node7&#45;&gt;Node8</title>
<g id="a_edge10_Node000007_Node000008"><a xlink:title=" ">
<path fill="none" stroke="#63b8ff" d="M117.61,-227.55C130.75,-249.33 162.33,-301.69 179.56,-330.24"/>
<polygon fill="#63b8ff" stroke="#63b8ff" points="177.03,-331.83 185.2,-338.59 183.03,-328.22 177.03,-331.83"/>
</a>
</g>
</g>
<!-- Node11 -->
<g id="Node000011" class="node">
<title>Node11</title>
<g id="a_Node000011"><a xlink:href="../../d6/d77/fouri_8f90.html#a0f902f8d584a395f9db7175079d273c7" target="_top" xlink:title="Compute Fourier integrals and build amatrix.">
<polygon fill="white" stroke="#666666" points="209.62,-170.25 174.88,-170.25 174.88,-151 209.62,-151 209.62,-170.25"/>
<text text-anchor="middle" x="192.25" y="-156.75" font-family="Helvetica,sans-Serif" font-size="10.00">fouri</text>
</a>
</g>
</g>
<!-- Node7&#45;&gt;Node11 -->
<g id="edge14_Node000007_Node000011" class="edge">
<title>Node7&#45;&gt;Node11</title>
<g id="a_edge14_Node000007_Node000011"><a xlink:title=" ">
<path fill="none" stroke="#63b8ff" d="M125.49,-207.7C137.3,-199.25 154.49,-186.94 168.33,-177.03"/>
<polygon fill="#63b8ff" stroke="#63b8ff" points="170.18,-179.3 176.27,-170.63 166.1,-173.61 170.18,-179.3"/>
</a>
</g>
</g>
<!-- Node12 -->
<g id="Node000012" class="node">
<title>Node12</title>
<g id="a_Node000012"><a xlink:href="../../d0/d1c/fourp_8f90.html#add725dd420251115fd60182dc992503c" target="_top" xlink:title="Perform Fourier integrals of Green&#39;s function kernel.">
<polygon fill="white" stroke="#666666" points="211.12,-283.25 173.38,-283.25 173.38,-264 211.12,-264 211.12,-283.25"/>
<text text-anchor="middle" x="192.25" y="-269.75" font-family="Helvetica,sans-Serif" font-size="10.00">fourp</text>
</a>
</g>
</g>
<!-- Node7&#45;&gt;Node12 -->
<g id="edge16_Node000007_Node000012" class="edge">
<title>Node7&#45;&gt;Node12</title>
<g id="a_edge16_Node000007_Node000012"><a xlink:title=" ">
<path fill="none" stroke="#63b8ff" d="M125.86,-227.64C137.56,-235.87 154.38,-247.69 168.03,-257.29"/>
<polygon fill="#63b8ff" stroke="#63b8ff" points="165.68,-260.62 175.87,-263.51 169.7,-254.9 165.68,-260.62"/>
</a>
</g>
</g>
<!-- Node13 -->
<g id="Node000013" class="node">
<title>Node13</title>
<g id="a_Node000013"><a xlink:href="../../df/d2d/greenf_8f90.html#acd9d25905cc799c9fcd4d08a3cbb1e65" target="_top" xlink:title="Compute the regularized evaluation of the Green&#39;s function and the source term.">
<polygon fill="white" stroke="#666666" points="213.75,-246.25 170.75,-246.25 170.75,-227 213.75,-227 213.75,-246.25"/>
<text text-anchor="middle" x="192.25" y="-232.75" font-family="Helvetica,sans-Serif" font-size="10.00">greenf</text>
</a>
</g>
</g>
<!-- Node7&#45;&gt;Node13 -->
<g id="edge18_Node000007_Node000013" class="edge">
<title>Node7&#45;&gt;Node13</title>
<g id="a_edge18_Node000007_Node000013"><a xlink:title=" ">
<path fill="none" stroke="#63b8ff" d="M134.66,-223.12C142.51,-225 151.44,-227.12 159.84,-229.13"/>
<polygon fill="#63b8ff" stroke="#63b8ff" points="158.91,-232.74 169.44,-231.66 160.53,-225.93 158.91,-232.74"/>
</a>
</g>
</g>
<!-- Node8&#45;&gt;Node5 -->
<g id="edge13_Node000008_Node000005" class="edge">
<title>Node8&#45;&gt;Node5</title>
<g id="a_edge13_Node000008_Node000005"><a xlink:title=" ">
<path fill="none" stroke="#63b8ff" d="M202.28,-339.55C205.95,-335.34 210.16,-330.33 213.75,-325.62 247.37,-281.58 283.01,-226.93 301.04,-198.62"/>
<polygon fill="#63b8ff" stroke="#63b8ff" points="304.46,-200.77 306.85,-190.45 298.54,-197.02 304.46,-200.77"/>
</a>
</g>
</g>
<!-- Node9 -->
<g id="Node000009" class="node">
<title>Node9</title>
<g id="a_Node000009"><a xlink:href="../../df/df3/analysum_8f90.html#aa51b1a5786e7b5719fe2ca679efc66b0" target="_top" xlink:title="Compute the (m=0 or n=0) part of the DFT of the analytical Fourier transforms of the equivalently&#45;sin...">
<polygon fill="white" stroke="#666666" points="342.62,-340.25 285.38,-340.25 285.38,-321 342.62,-321 342.62,-340.25"/>
<text text-anchor="middle" x="314" y="-326.75" font-family="Helvetica,sans-Serif" font-size="10.00">analysum</text>
</a>
</g>
</g>
<!-- Node8&#45;&gt;Node9 -->
<g id="edge11_Node000008_Node000009" class="edge">
<title>Node8&#45;&gt;Node9</title>
<g id="a_edge11_Node000008_Node000009"><a xlink:title=" ">
<path fill="none" stroke="#63b8ff" d="M213.29,-346.44C229.92,-343.81 254.05,-339.98 274.41,-336.75"/>
<polygon fill="#63b8ff" stroke="#63b8ff" points="274.93,-340.05 284.26,-335.03 273.83,-333.14 274.93,-340.05"/>
</a>
</g>
</g>
<!-- Node10 -->
<g id="Node000010" class="node">
<title>Node10</title>
<g id="a_Node000010"><a xlink:href="../../d1/d90/analysum2_8f90.html#a47a0d185131a197c6fc62ee5d68d62fb" target="_top" xlink:title="Compute the (m&gt;0 and n&gt;0) part of the DFT of the analytical Fourier transforms of the equivalently&#45;si...">
<polygon fill="white" stroke="#666666" points="345.25,-377.25 282.75,-377.25 282.75,-358 345.25,-358 345.25,-377.25"/>
<text text-anchor="middle" x="314" y="-363.75" font-family="Helvetica,sans-Serif" font-size="10.00">analysum2</text>
</a>
</g>
</g>
<!-- Node8&#45;&gt;Node10 -->
<g id="edge12_Node000008_Node000010" class="edge">
<title>Node8&#45;&gt;Node10</title>
<g id="a_edge12_Node000008_Node000010"><a xlink:title=" ">
<path fill="none" stroke="#63b8ff" d="M213.29,-352.64C229.25,-355.04 252.11,-358.47 271.92,-361.45"/>
<polygon fill="#63b8ff" stroke="#63b8ff" points="271.13,-365.02 281.54,-363.05 272.17,-358.1 271.13,-365.02"/>
</a>
</g>
</g>
<!-- Node11&#45;&gt;Node5 -->
<g id="edge15_Node000011_Node000005" class="edge">
<title>Node11&#45;&gt;Node5</title>
<g id="a_edge15_Node000011_Node000005"><a xlink:title=" ">
<path fill="none" stroke="#63b8ff" d="M209.9,-163.27C217.89,-164.53 228.07,-166.15 238.92,-167.87"/>
<polygon fill="#63b8ff" stroke="#63b8ff" points="238.04,-171.43 248.47,-169.54 239.14,-164.52 238.04,-171.43"/>
</a>
</g>
</g>
<!-- Node12&#45;&gt;Node5 -->
<g id="edge17_Node000012_Node000005" class="edge">
<title>Node12&#45;&gt;Node5</title>
<g id="a_edge17_Node000012_Node000005"><a xlink:title=" ">
<path fill="none" stroke="#63b8ff" d="M206.07,-263.57C226.59,-247.45 267.06,-215.69 291.9,-196.19"/>
<polygon fill="#63b8ff" stroke="#63b8ff" points="293.57,-198.54 299.28,-189.61 289.25,-193.03 293.57,-198.54"/>
</a>
</g>
</g>
<!-- Node15&#45;&gt;Node5 -->
<g id="edge22_Node000015_Node000005" class="edge">
<title>Node15&#45;&gt;Node5</title>
<g id="a_edge22_Node000015_Node000005"><a xlink:title=" ">
<path fill="none" stroke="#63b8ff" d="M135.02,-125.74C155.9,-128.81 187.19,-134.14 213.75,-141.62 236.38,-148 261.06,-157.45 280.16,-165.32"/>
<polygon fill="#63b8ff" stroke="#63b8ff" points="278.56,-168.87 289.14,-169.51 281.27,-162.41 278.56,-168.87"/>
</a>
</g>
</g>
</g>
</svg>
