<?xml version="1.0" encoding="UTF-8" standalone="no"?>
<!DOCTYPE svg PUBLIC "-//W3C//DTD SVG 1.1//EN"
 "http://www.w3.org/Graphics/SVG/1.1/DTD/svg11.dtd">
<!-- Generated by graphviz version 9.0.0 (20230911.1827)
 -->
<!-- Title: vacuum Pages: 1 -->
<svg width="386pt" height="441pt"
 viewBox="0.00 0.00 386.25 441.25" xmlns="http://www.w3.org/2000/svg" xmlns:xlink="http://www.w3.org/1999/xlink">

<svg id="main" version="1.1" xmlns="http://www.w3.org/2000/svg" xmlns:xlink="http://www.w3.org/1999/xlink" xml:space="preserve" onload="init(evt)">
<style type="text/css"><![CDATA[
.node, .edge {opacity: 0.7;}
.node.selected, .edge.selected {opacity: 1;}
.edge:hover path { stroke: red; }
.edge:hover polygon { stroke: red; fill: red; }
]]></style>
<script type="application/ecmascript" xlink:href="../../svg.min.js"/>
<svg id="graph" class="graph">
<g id="graph0" class="graph" transform="scale(1 1) rotate(0) translate(4 437.25)">
<title>vacuum</title>
<!-- Node1 -->
<g id="Node000001" class="node">
<title>Node1</title>
<g id="a_Node000001"><a xlink:title="Compute the vacuum contribution to the free&#45;boundary energy functional.">
<polygon fill="#999999" stroke="#666666" points="50.5,-113.25 0,-113.25 0,-94 50.5,-94 50.5,-113.25"/>
<text text-anchor="middle" x="25.25" y="-99.75" font-family="Helvetica,sans-Serif" font-size="10.00">vacuum</text>
</a>
</g>
</g>
<!-- Node2 -->
<g id="Node000002" class="node">
<title>Node2</title>
<g id="a_Node000002"><a xlink:href="../../db/d3d/bextern_8f90.html#a90228cc5f358147ae7f59953d6f9cced" target="_top" xlink:title="Compute the total magnetic field due to external coils and the net toroidal plasma current.">
<polygon fill="white" stroke="#666666" points="134.38,-358.25 86.88,-358.25 86.88,-339 134.38,-339 134.38,-358.25"/>
<text text-anchor="middle" x="110.62" y="-344.75" font-family="Helvetica,sans-Serif" font-size="10.00">bextern</text>
</a>
</g>
</g>
<!-- Node1&#45;&gt;Node2 -->
<g id="edge1_Node000001_Node000002" class="edge">
<title>Node1&#45;&gt;Node2</title>
<g id="a_edge1_Node000001_Node000002"><a xlink:title=" ">
<path fill="none" stroke="#63b8ff" d="M29.62,-113.53C42.03,-150 85.35,-277.29 102.53,-327.77"/>
<polygon fill="#63b8ff" stroke="#63b8ff" points="99.19,-328.82 105.72,-337.16 105.82,-326.57 99.19,-328.82"/>
</a>
</g>
</g>
<!-- Node5 -->
<g id="Node000005" class="node">
<title>Node5</title>
<g id="a_Node000005"><a xlink:href="../../d8/dfd/namespacedbgout.html#acdd1612a38e44b6469dc03d9d1c6ceed" target="_top" xlink:title="check if any output is desired for the current iteration check if the given context should be openend...">
<polygon fill="white" stroke="#666666" points="378.25,-189.25 249.75,-189.25 249.75,-170 378.25,-170 378.25,-189.25"/>
<text text-anchor="middle" x="314" y="-175.75" font-family="Helvetica,sans-Serif" font-size="10.00">dbgout::open_dbg_context</text>
</a>
</g>
</g>
<!-- Node1&#45;&gt;Node5 -->
<g id="edge6_Node000001_Node000005" class="edge">
<title>Node1&#45;&gt;Node5</title>
<g id="a_edge6_Node000001_Node000005"><a xlink:title=" ">
<path fill="none" stroke="#63b8ff" d="M50.96,-101.57C73.05,-100.22 106.24,-99.39 134.75,-103.62 192.65,-112.23 254.19,-144.25 287.67,-163.87"/>
<polygon fill="#63b8ff" stroke="#63b8ff" points="285.45,-166.62 295.83,-168.75 289.04,-160.62 285.45,-166.62"/>
</a>
</g>
</g>
<!-- Node6 -->
<g id="Node000006" class="node">
<title>Node6</title>
<g id="a_Node000006"><a xlink:href="../../dd/d98/precal_8f90.html#a0dae73e848a4757092d7e9786d073d3d" target="_top" xlink:title="Pre&#45;compute constant terms required for NESTOR.">
<polygon fill="white" stroke="#666666" points="131.75,-56.25 89.5,-56.25 89.5,-37 131.75,-37 131.75,-56.25"/>
<text text-anchor="middle" x="110.62" y="-42.75" font-family="Helvetica,sans-Serif" font-size="10.00">precal</text>
</a>
</g>
</g>
<!-- Node1&#45;&gt;Node6 -->
<g id="edge7_Node000001_Node000006" class="edge">
<title>Node1&#45;&gt;Node6</title>
<g id="a_edge7_Node000001_Node000006"><a xlink:title=" ">
<path fill="none" stroke="#63b8ff" d="M40.77,-93.7C53.13,-85.25 71.13,-72.94 85.63,-63.03"/>
<polygon fill="#63b8ff" stroke="#63b8ff" points="87.46,-66.02 93.74,-57.49 83.51,-60.24 87.46,-66.02"/>
</a>
</g>
</g>
<!-- Node7 -->
<g id="Node000007" class="node">
<title>Node7</title>
<g id="a_Node000007"><a xlink:href="../../d0/d19/scalpot_8f90.html#afb9e58849c5a27e486bdf4106f8bb84e" target="_top" xlink:title="Compute all required terms for solving for the scalar magnetic potential.">
<polygon fill="white" stroke="#666666" points="134.38,-227.25 86.88,-227.25 86.88,-208 134.38,-208 134.38,-227.25"/>
<text text-anchor="middle" x="110.62" y="-213.75" font-family="Helvetica,sans-Serif" font-size="10.00">scalpot</text>
</a>
</g>
</g>
<!-- Node1&#45;&gt;Node7 -->
<g id="edge9_Node000001_Node000007" class="edge">
<title>Node1&#45;&gt;Node7</title>
<g id="a_edge9_Node000001_Node000007"><a xlink:title=" ">
<path fill="none" stroke="#63b8ff" d="M33.65,-113.74C47.59,-132.8 77.95,-174.31 95.78,-198.69"/>
<polygon fill="#63b8ff" stroke="#63b8ff" points="92.74,-200.47 101.47,-206.47 98.39,-196.33 92.74,-200.47"/>
</a>
</g>
</g>
<!-- Node14 -->
<g id="Node000014" class="node">
<title>Node14</title>
<g id="a_Node000014"><a xlink:href="../../d7/d39/solver_8f90.html#a1e815013ed24a9dddc80410103f4a220" target="_top" xlink:title="Solve a linear system of equations using dgesv.">
<polygon fill="white" stroke="#666666" points="131.75,-19.25 89.5,-19.25 89.5,0 131.75,0 131.75,-19.25"/>
<text text-anchor="middle" x="110.62" y="-5.75" font-family="Helvetica,sans-Serif" font-size="10.00">solver</text>
</a>
</g>
</g>
<!-- Node1&#45;&gt;Node14 -->
<g id="edge20_Node000001_Node000014" class="edge">
<title>Node1&#45;&gt;Node14</title>
<g id="a_edge20_Node000001_Node000014"><a xlink:title=" ">
<path fill="none" stroke="#63b8ff" d="M32.99,-93.65C43.46,-78.51 64.73,-49.2 86.5,-27.62 86.77,-27.36 87.05,-27.09 87.32,-26.82"/>
<polygon fill="#63b8ff" stroke="#63b8ff" points="89.52,-29.55 94.82,-20.37 84.95,-24.24 89.52,-29.55"/>
</a>
</g>
</g>
<!-- Node15 -->
<g id="Node000015" class="node">
<title>Node15</title>
<g id="a_Node000015"><a xlink:href="../../d6/d03/surface_8f90.html#ad7b6446e720a806f41f10dd1eb0b6f88" target="_top" xlink:title="Evaluate the geometry of the LCFS and tangential derivatives.">
<polygon fill="white" stroke="#666666" points="134.75,-132.25 86.5,-132.25 86.5,-113 134.75,-113 134.75,-132.25"/>
<text text-anchor="middle" x="110.62" y="-118.75" font-family="Helvetica,sans-Serif" font-size="10.00">surface</text>
</a>
</g>
</g>
<!-- Node1&#45;&gt;Node15 -->
<g id="edge21_Node000001_Node000015" class="edge">
<title>Node1&#45;&gt;Node15</title>
<g id="a_edge21_Node000001_Node000015"><a xlink:title=" ">
<path fill="none" stroke="#63b8ff" d="M50.81,-109.22C58.39,-110.95 66.88,-112.88 75,-114.73"/>
<polygon fill="#63b8ff" stroke="#63b8ff" points="74.09,-118.12 84.62,-116.93 75.65,-111.29 74.09,-118.12"/>
</a>
</g>
</g>
<!-- Node3 -->
<g id="Node000003" class="node">
<title>Node3</title>
<g id="a_Node000003"><a xlink:href="../../d6/dc7/becoil_8f90.html#a449b054fb88bdb4cdf73ef8939654bfb" target="_top" xlink:title="Compute the cylindrical components of the magnetic field due to external coils. by bi&#45;linear interpol...">
<polygon fill="white" stroke="#666666" points="213,-396.25 171.5,-396.25 171.5,-377 213,-377 213,-396.25"/>
<text text-anchor="middle" x="192.25" y="-382.75" font-family="Helvetica,sans-Serif" font-size="10.00">becoil</text>
</a>
</g>
</g>
<!-- Node2&#45;&gt;Node3 -->
<g id="edge2_Node000002_Node000003" class="edge">
<title>Node2&#45;&gt;Node3</title>
<g id="a_edge2_Node000002_Node000003"><a xlink:title=" ">
<path fill="none" stroke="#63b8ff" d="M132.55,-358.61C141.18,-362.73 151.36,-367.59 160.8,-372.09"/>
<polygon fill="#63b8ff" stroke="#63b8ff" points="159.12,-375.17 169.65,-376.32 162.14,-368.85 159.12,-375.17"/>
</a>
</g>
</g>
<!-- Node4 -->
<g id="Node000004" class="node">
<title>Node4</title>
<g id="a_Node000004"><a xlink:href="../../d9/dda/belicu_8f90.html#a53e6f162ca96069b8d93e131069ddf5d" target="_top" xlink:title="Magnetic field due to net toroidal current modeled by a filament along the magnetic axis.">
<polygon fill="white" stroke="#666666" points="213,-433.25 171.5,-433.25 171.5,-414 213,-414 213,-433.25"/>
<text text-anchor="middle" x="192.25" y="-419.75" font-family="Helvetica,sans-Serif" font-size="10.00">belicu</text>
</a>
</g>
</g>
<!-- Node2&#45;&gt;Node4 -->
<g id="edge3_Node000002_Node000004" class="edge">
<title>Node2&#45;&gt;Node4</title>
<g id="a_edge3_Node000002_Node000004"><a xlink:title=" ">
<path fill="none" stroke="#63b8ff" d="M121.53,-358.45C133.17,-369.93 153.12,-389.41 170.75,-405.62 171.02,-405.88 171.3,-406.13 171.58,-406.39"/>
<polygon fill="#63b8ff" stroke="#63b8ff" points="168.97,-408.75 178.76,-412.81 173.64,-403.53 168.97,-408.75"/>
</a>
</g>
</g>
<!-- Node2&#45;&gt;Node5 -->
<g id="edge4_Node000002_Node000005" class="edge">
<title>Node2&#45;&gt;Node5</title>
<g id="a_edge4_Node000002_Node000005"><a xlink:title=" ">
<path fill="none" stroke="#63b8ff" d="M134.52,-338.89C156.18,-329.05 188.98,-312.48 213.75,-292.62 248.86,-264.47 281.69,-223 299.39,-198.91"/>
<polygon fill="#63b8ff" stroke="#63b8ff" points="302.11,-201.12 305.12,-190.96 296.43,-197.02 302.11,-201.12"/>
</a>
</g>
</g>
<!-- Node5&#45;&gt;Node5 -->
<g id="edge5_Node000005_Node000005" class="edge">
<title>Node5&#45;&gt;Node5</title>
<g id="a_edge5_Node000005_Node000005"><a xlink:title=" ">
<path fill="none" stroke="#63b8ff" d="M294.94,-189.54C286.25,-198.15 292.6,-207.25 314,-207.25 325.7,-207.25 332.91,-204.53 335.61,-200.65"/>
<polygon fill="#63b8ff" stroke="#63b8ff" points="339.05,-199.98 333.4,-191.01 332.22,-201.54 339.05,-199.98"/>
</a>
</g>
</g>
<!-- Node6&#45;&gt;Node5 -->
<g id="edge8_Node000006_Node000005" class="edge">
<title>Node6&#45;&gt;Node5</title>
<g id="a_edge8_Node000006_Node000005"><a xlink:title=" ">
<path fill="none" stroke="#63b8ff" d="M132.13,-47.87C153.75,-49.96 188.16,-55.58 213.75,-70.62 252.17,-93.21 284.24,-135.5 300.83,-160.24"/>
<polygon fill="#63b8ff" stroke="#63b8ff" points="297.74,-161.92 306.13,-168.39 303.61,-158.1 297.74,-161.92"/>
</a>
</g>
</g>
<!-- Node7&#45;&gt;Node5 -->
<g id="edge19_Node000007_Node000005" class="edge">
<title>Node7&#45;&gt;Node5</title>
<g id="a_edge19_Node000007_Node000005"><a xlink:title=" ">
<path fill="none" stroke="#63b8ff" d="M134.73,-213.27C162.28,-208.07 209.49,-199.16 248.41,-191.81"/>
<polygon fill="#63b8ff" stroke="#63b8ff" points="249,-195.26 258.18,-189.97 247.7,-188.38 249,-195.26"/>
</a>
</g>
</g>
<!-- Node8 -->
<g id="Node000008" class="node">
<title>Node8</title>
<g id="a_Node000008"><a xlink:href="../../da/d73/analyt_8f90.html#a60edcf4884aa60f6d96c258a97255756" target="_top" xlink:title="Compute the analytical&#45;and&#45;numerical 4D Fourier integrals over the equivalently&#45;singular functions.">
<polygon fill="white" stroke="#666666" points="213,-359.25 171.5,-359.25 171.5,-340 213,-340 213,-359.25"/>
<text text-anchor="middle" x="192.25" y="-345.75" font-family="Helvetica,sans-Serif" font-size="10.00">analyt</text>
</a>
</g>
</g>
<!-- Node7&#45;&gt;Node8 -->
<g id="edge10_Node000007_Node000008" class="edge">
<title>Node7&#45;&gt;Node8</title>
<g id="a_edge10_Node000007_Node000008"><a xlink:title=" ">
<path fill="none" stroke="#63b8ff" d="M117.61,-227.55C130.69,-249.24 162.06,-301.23 179.33,-329.87"/>
<polygon fill="#63b8ff" stroke="#63b8ff" points="176.25,-331.54 184.41,-338.29 182.25,-327.92 176.25,-331.54"/>
</a>
</g>
</g>
<!-- Node11 -->
<g id="Node000011" class="node">
<title>Node11</title>
<g id="a_Node000011"><a xlink:href="../../d6/d77/fouri_8f90.html#a0f902f8d584a395f9db7175079d273c7" target="_top" xlink:title="Compute Fourier integrals and build amatrix.">
<polygon fill="white" stroke="#666666" points="209.62,-170.25 174.88,-170.25 174.88,-151 209.62,-151 209.62,-170.25"/>
<text text-anchor="middle" x="192.25" y="-156.75" font-family="Helvetica,sans-Serif" font-size="10.00">fouri</text>
</a>
</g>
</g>
<!-- Node7&#45;&gt;Node11 -->
<g id="edge14_Node000007_Node000011" class="edge">
<title>Node7&#45;&gt;Node11</title>
<g id="a_edge14_Node000007_Node000011"><a xlink:title=" ">
<path fill="none" stroke="#63b8ff" d="M125.49,-207.7C137.18,-199.33 154.16,-187.18 167.93,-177.32"/>
<polygon fill="#63b8ff" stroke="#63b8ff" points="169.95,-180.18 176.04,-171.51 165.87,-174.49 169.95,-180.18"/>
</a>
</g>
</g>
<!-- Node12 -->
<g id="Node000012" class="node">
<title>Node12</title>
<g id="a_Node000012"><a xlink:href="../../d0/d1c/fourp_8f90.html#add725dd420251115fd60182dc992503c" target="_top" xlink:title="Perform Fourier integrals of Green&#39;s function kernel.">
<polygon fill="white" stroke="#666666" points="211.12,-283.25 173.38,-283.25 173.38,-264 211.12,-264 211.12,-283.25"/>
<text text-anchor="middle" x="192.25" y="-269.75" font-family="Helvetica,sans-Serif" font-size="10.00">fourp</text>
</a>
</g>
</g>
<!-- Node7&#45;&gt;Node12 -->
<g id="edge16_Node000007_Node000012" class="edge">
<title>Node7&#45;&gt;Node12</title>
<g id="a_edge16_Node000007_Node000012"><a xlink:title=" ">
<path fill="none" stroke="#63b8ff" d="M125.86,-227.64C137.45,-235.79 154.06,-247.47 167.63,-257.02"/>
<polygon fill="#63b8ff" stroke="#63b8ff" points="165.44,-259.75 175.63,-262.64 169.47,-254.02 165.44,-259.75"/>
</a>
</g>
</g>
<!-- Node13 -->
<g id="Node000013" class="node">
<title>Node13</title>
<g id="a_Node000013"><a xlink:href="../../df/d2d/greenf_8f90.html#acd9d25905cc799c9fcd4d08a3cbb1e65" target="_top" xlink:title="Compute the regularized evaluation of the Green&#39;s function and the source term.">
<polygon fill="white" stroke="#666666" points="213.75,-246.25 170.75,-246.25 170.75,-227 213.75,-227 213.75,-246.25"/>
<text text-anchor="middle" x="192.25" y="-232.75" font-family="Helvetica,sans-Serif" font-size="10.00">greenf</text>
</a>
</g>
</g>
<!-- Node7&#45;&gt;Node13 -->
<g id="edge18_Node000007_Node000013" class="edge">
<title>Node7&#45;&gt;Node13</title>
<g id="a_edge18_Node000007_Node000013"><a xlink:title=" ">
<path fill="none" stroke="#63b8ff" d="M134.66,-223.12C142.34,-224.95 151.03,-227.03 159.27,-228.99"/>
<polygon fill="#63b8ff" stroke="#63b8ff" points="158.43,-232.39 168.97,-231.31 160.06,-225.58 158.43,-232.39"/>
</a>
</g>
</g>
<!-- Node8&#45;&gt;Node5 -->
<g id="edge13_Node000008_Node000005" class="edge">
<title>Node8&#45;&gt;Node5</title>
<g id="a_edge13_Node000008_Node000005"><a xlink:title=" ">
<path fill="none" stroke="#63b8ff" d="M202.28,-339.55C205.95,-335.34 210.16,-330.33 213.75,-325.62 247.22,-281.77 282.69,-227.4 300.8,-198.99"/>
<polygon fill="#63b8ff" stroke="#63b8ff" points="303.64,-201.05 306.04,-190.73 297.73,-197.3 303.64,-201.05"/>
</a>
</g>
</g>
<!-- Node9 -->
<g id="Node000009" class="node">
<title>Node9</title>
<g id="a_Node000009"><a xlink:href="../../df/df3/analysum_8f90.html#aa51b1a5786e7b5719fe2ca679efc66b0" target="_top" xlink:title="Compute the (m=0 or n=0) part of the DFT of the analytical Fourier transforms of the equivalently&#45;sin...">
<polygon fill="white" stroke="#666666" points="342.62,-340.25 285.38,-340.25 285.38,-321 342.62,-321 342.62,-340.25"/>
<text text-anchor="middle" x="314" y="-326.75" font-family="Helvetica,sans-Serif" font-size="10.00">analysum</text>
</a>
</g>
</g>
<!-- Node8&#45;&gt;Node9 -->
<g id="edge11_Node000008_Node000009" class="edge">
<title>Node8&#45;&gt;Node9</title>
<g id="a_edge11_Node000008_Node000009"><a xlink:title=" ">
<path fill="none" stroke="#63b8ff" d="M213.29,-346.44C229.85,-343.82 253.83,-340.01 274.13,-336.79"/>
<polygon fill="#63b8ff" stroke="#63b8ff" points="274.44,-340.29 283.76,-335.26 273.34,-333.37 274.44,-340.29"/>
</a>
</g>
</g>
<!-- Node10 -->
<g id="Node000010" class="node">
<title>Node10</title>
<g id="a_Node000010"><a xlink:href="../../d1/d90/analysum2_8f90.html#a47a0d185131a197c6fc62ee5d68d62fb" target="_top" xlink:title="Compute the (m&gt;0 and n&gt;0) part of the DFT of the analytical Fourier transforms of the equivalently&#45;si...">
<polygon fill="white" stroke="#666666" points="345.25,-377.25 282.75,-377.25 282.75,-358 345.25,-358 345.25,-377.25"/>
<text text-anchor="middle" x="314" y="-363.75" font-family="Helvetica,sans-Serif" font-size="10.00">analysum2</text>
</a>
</g>
</g>
<!-- Node8&#45;&gt;Node10 -->
<g id="edge12_Node000008_Node000010" class="edge">
<title>Node8&#45;&gt;Node10</title>
<g id="a_edge12_Node000008_Node000010"><a xlink:title=" ">
<path fill="none" stroke="#63b8ff" d="M213.29,-352.64C229.1,-355.01 251.69,-358.41 271.36,-361.37"/>
<polygon fill="#63b8ff" stroke="#63b8ff" points="270.64,-364.8 281.05,-362.82 271.68,-357.87 270.64,-364.8"/>
</a>
</g>
</g>
<!-- Node11&#45;&gt;Node5 -->
<g id="edge15_Node000011_Node000005" class="edge">
<title>Node11&#45;&gt;Node5</title>
<g id="a_edge15_Node000011_Node000005"><a xlink:title=" ">
<path fill="none" stroke="#63b8ff" d="M209.9,-163.27C217.72,-164.51 227.65,-166.08 238.25,-167.76"/>
<polygon fill="#63b8ff" stroke="#63b8ff" points="237.55,-171.2 247.97,-169.31 238.64,-164.28 237.55,-171.2"/>
</a>
</g>
</g>
<!-- Node12&#45;&gt;Node5 -->
<g id="edge17_Node000012_Node000005" class="edge">
<title>Node12&#45;&gt;Node5</title>
<g id="a_edge17_Node000012_Node000005"><a xlink:title=" ">
<path fill="none" stroke="#63b8ff" d="M206.07,-263.57C226.41,-247.59 266.35,-216.25 291.24,-196.71"/>
<polygon fill="#63b8ff" stroke="#63b8ff" points="293.38,-199.47 299.09,-190.55 289.06,-193.97 293.38,-199.47"/>
</a>
</g>
</g>
<!-- Node15&#45;&gt;Node5 -->
<g id="edge22_Node000015_Node000005" class="edge">
<title>Node15&#45;&gt;Node5</title>
<g id="a_edge22_Node000015_Node000005"><a xlink:title=" ">
<path fill="none" stroke="#63b8ff" d="M135.02,-125.74C155.9,-128.81 187.19,-134.14 213.75,-141.62 236.17,-147.94 260.61,-157.27 279.62,-165.1"/>
<polygon fill="#63b8ff" stroke="#63b8ff" points="278.17,-168.29 288.74,-168.92 280.87,-161.83 278.17,-168.29"/>
</a>
</g>
</g>
</g>
</svg>
</svg>

<style type='text/css'>
<![CDATA[
[data-mouse-over-selected='false'] { opacity: 0.7; }
[data-mouse-over-selected='true']  { opacity: 1.0; }
]]>
</style>
<script type="application/ecmascript"><![CDATA[
document.addEventListener('DOMContentLoaded', (event) => {
  highlightEdges();
  highlightAdjacentNodes();
});
]]></script>
</svg>
