<?xml version="1.0" encoding="UTF-8" standalone="no"?>
<!DOCTYPE svg PUBLIC "-//W3C//DTD SVG 1.1//EN"
 "http://www.w3.org/Graphics/SVG/1.1/DTD/svg11.dtd">
<!-- Generated by graphviz version 2.49.3 (20211027.1501)
 -->
<!-- Title: vacuum Pages: 1 -->
<svg width="403pt" height="250pt"
 viewBox="0.00 0.00 403.00 250.00" xmlns="http://www.w3.org/2000/svg" xmlns:xlink="http://www.w3.org/1999/xlink">
<g id="graph0" class="graph" transform="scale(1 1) rotate(0) translate(4 246)">
<title>vacuum</title>
<polygon fill="white" stroke="transparent" points="-4,4 -4,-246 399,-246 399,4 -4,4"/>
<!-- Node1 -->
<g id="node1" class="node">
<title>Node1</title>
<g id="a_node1"><a xlink:title="Compute the vacuum contribution to the free&#45;boundary energy functional.">
<polygon fill="#bfbfbf" stroke="black" points="0,-95.5 0,-114.5 51,-114.5 51,-95.5 0,-95.5"/>
<text text-anchor="middle" x="25.5" y="-102.5" font-family="Helvetica,sans-Serif" font-size="10.00">vacuum</text>
</a>
</g>
</g>
<!-- Node2 -->
<g id="node2" class="node">
<title>Node2</title>
<g id="a_node2"><a xlink:href="../../db/d3d/bextern_8f90.html#a90228cc5f358147ae7f59953d6f9cced" target="_top" xlink:title="Compute the total magnetic field due to external coils and the net toroidal plasma current.">
<polygon fill="white" stroke="black" points="127.5,-208.5 127.5,-227.5 175.5,-227.5 175.5,-208.5 127.5,-208.5"/>
<text text-anchor="middle" x="151.5" y="-215.5" font-family="Helvetica,sans-Serif" font-size="10.00">bextern</text>
</a>
</g>
</g>
<!-- Node1&#45;&gt;Node2 -->
<g id="edge1" class="edge">
<title>Node1&#45;&gt;Node2</title>
<path fill="none" stroke="midnightblue" d="M30.02,-114.59C37.48,-133.62 56.75,-176.25 87,-199 95.85,-205.66 107.02,-209.99 117.52,-212.81"/>
<polygon fill="midnightblue" stroke="midnightblue" points="116.74,-216.23 127.28,-215.08 118.33,-209.41 116.74,-216.23"/>
</g>
<!-- Node5 -->
<g id="node5" class="node">
<title>Node5</title>
<g id="a_node5"><a xlink:href="../../d8/dfd/namespacedbgout.html#af9a9deb4fdfe84878a6e319b15221492" target="_top" xlink:title=" ">
<polygon fill="white" stroke="black" points="87,-152.5 87,-171.5 216,-171.5 216,-152.5 87,-152.5"/>
<text text-anchor="middle" x="151.5" y="-159.5" font-family="Helvetica,sans-Serif" font-size="10.00">dbgout::open_dbg_context</text>
</a>
</g>
</g>
<!-- Node1&#45;&gt;Node5 -->
<g id="edge4" class="edge">
<title>Node1&#45;&gt;Node5</title>
<path fill="none" stroke="midnightblue" d="M39.38,-114.53C51.24,-122.96 69.6,-135.11 87,-143 92.04,-145.29 97.43,-147.39 102.86,-149.29"/>
<polygon fill="midnightblue" stroke="midnightblue" points="102.02,-152.69 112.61,-152.49 104.21,-146.04 102.02,-152.69"/>
</g>
<!-- Node6 -->
<g id="node6" class="node">
<title>Node6</title>
<g id="a_node6"><a xlink:href="../../dd/d98/precal_8f90.html#a0dae73e848a4757092d7e9786d073d3d" target="_top" xlink:title="Pre&#45;compute constant terms required for NESTOR.">
<polygon fill="white" stroke="black" points="130,-114.5 130,-133.5 173,-133.5 173,-114.5 130,-114.5"/>
<text text-anchor="middle" x="151.5" y="-121.5" font-family="Helvetica,sans-Serif" font-size="10.00">precal</text>
</a>
</g>
</g>
<!-- Node1&#45;&gt;Node6 -->
<g id="edge6" class="edge">
<title>Node1&#45;&gt;Node6</title>
<path fill="none" stroke="midnightblue" d="M51.3,-108.8C71.01,-111.82 98.68,-116.06 119.79,-119.29"/>
<polygon fill="midnightblue" stroke="midnightblue" points="119.44,-122.78 129.86,-120.84 120.5,-115.86 119.44,-122.78"/>
</g>
<!-- Node7 -->
<g id="node7" class="node">
<title>Node7</title>
<g id="a_node7"><a xlink:href="../../d0/d19/scalpot_8f90.html#afb9e58849c5a27e486bdf4106f8bb84e" target="_top" xlink:title="Compute all required terms for solving for the scalar magnetic potential.">
<polygon fill="white" stroke="black" points="127.5,-76.5 127.5,-95.5 175.5,-95.5 175.5,-76.5 127.5,-76.5"/>
<text text-anchor="middle" x="151.5" y="-83.5" font-family="Helvetica,sans-Serif" font-size="10.00">scalpot</text>
</a>
</g>
</g>
<!-- Node1&#45;&gt;Node7 -->
<g id="edge7" class="edge">
<title>Node1&#45;&gt;Node7</title>
<path fill="none" stroke="midnightblue" d="M51.3,-101.2C70.28,-98.29 96.65,-94.25 117.43,-91.07"/>
<polygon fill="midnightblue" stroke="midnightblue" points="118.07,-94.51 127.42,-89.54 117.01,-87.59 118.07,-94.51"/>
</g>
<!-- Node14 -->
<g id="node14" class="node">
<title>Node14</title>
<g id="a_node14"><a xlink:href="../../d7/d39/solver_8f90.html#a1e815013ed24a9dddc80410103f4a220" target="_top" xlink:title="Solve a linear system of equations using dgesv.">
<polygon fill="white" stroke="black" points="130,-38.5 130,-57.5 173,-57.5 173,-38.5 130,-38.5"/>
<text text-anchor="middle" x="151.5" y="-45.5" font-family="Helvetica,sans-Serif" font-size="10.00">solver</text>
</a>
</g>
</g>
<!-- Node1&#45;&gt;Node14 -->
<g id="edge14" class="edge">
<title>Node1&#45;&gt;Node14</title>
<path fill="none" stroke="midnightblue" d="M39.38,-95.47C51.24,-87.04 69.6,-74.89 87,-67 97.48,-62.25 109.47,-58.31 120.18,-55.27"/>
<polygon fill="midnightblue" stroke="midnightblue" points="121.23,-58.61 129.97,-52.64 119.41,-51.85 121.23,-58.61"/>
</g>
<!-- Node15 -->
<g id="node15" class="node">
<title>Node15</title>
<g id="a_node15"><a xlink:href="../../d6/d03/surface_8f90.html#ad7b6446e720a806f41f10dd1eb0b6f88" target="_top" xlink:title="Evaluate the geometry of the LCFS and tangential derivatives.">
<polygon fill="white" stroke="black" points="127,-0.5 127,-19.5 176,-19.5 176,-0.5 127,-0.5"/>
<text text-anchor="middle" x="151.5" y="-7.5" font-family="Helvetica,sans-Serif" font-size="10.00">surface</text>
</a>
</g>
</g>
<!-- Node1&#45;&gt;Node15 -->
<g id="edge15" class="edge">
<title>Node1&#45;&gt;Node15</title>
<path fill="none" stroke="midnightblue" d="M31.62,-95.26C40.64,-79.08 60.88,-46.67 87,-29 95.94,-22.96 106.84,-18.79 117.08,-15.94"/>
<polygon fill="midnightblue" stroke="midnightblue" points="118.12,-19.29 126.99,-13.5 116.45,-12.49 118.12,-19.29"/>
</g>
<!-- Node3 -->
<g id="node3" class="node">
<title>Node3</title>
<g id="a_node3"><a xlink:href="../../d6/dc7/becoil_8f90.html#a449b054fb88bdb4cdf73ef8939654bfb" target="_top" xlink:title="Compute the cylindrical components of the magnetic field due to external coils. by bi&#45;linear interpol...">
<polygon fill="white" stroke="black" points="253,-222.5 253,-241.5 295,-241.5 295,-222.5 253,-222.5"/>
<text text-anchor="middle" x="274" y="-229.5" font-family="Helvetica,sans-Serif" font-size="10.00">becoil</text>
</a>
</g>
</g>
<!-- Node2&#45;&gt;Node3 -->
<g id="edge2" class="edge">
<title>Node2&#45;&gt;Node3</title>
<path fill="none" stroke="midnightblue" d="M175.73,-220.7C194.72,-222.91 221.71,-226.04 242.45,-228.45"/>
<polygon fill="midnightblue" stroke="midnightblue" points="242.31,-231.96 252.64,-229.63 243.11,-225 242.31,-231.96"/>
</g>
<!-- Node4 -->
<g id="node4" class="node">
<title>Node4</title>
<g id="a_node4"><a xlink:href="../../d9/dda/belicu_8f90.html#a53e6f162ca96069b8d93e131069ddf5d" target="_top" xlink:title="Magnetic field due to net toroidal current modeled by a filament along the magnetic axis.">
<polygon fill="white" stroke="black" points="253,-184.5 253,-203.5 295,-203.5 295,-184.5 253,-184.5"/>
<text text-anchor="middle" x="274" y="-191.5" font-family="Helvetica,sans-Serif" font-size="10.00">belicu</text>
</a>
</g>
</g>
<!-- Node2&#45;&gt;Node4 -->
<g id="edge3" class="edge">
<title>Node2&#45;&gt;Node4</title>
<path fill="none" stroke="midnightblue" d="M175.73,-213.37C194.81,-209.57 221.96,-204.17 242.73,-200.03"/>
<polygon fill="midnightblue" stroke="midnightblue" points="243.52,-203.44 252.64,-198.05 242.15,-196.58 243.52,-203.44"/>
</g>
<!-- Node5&#45;&gt;Node5 -->
<g id="edge5" class="edge">
<title>Node5&#45;&gt;Node5</title>
<path fill="none" stroke="midnightblue" d="M132.7,-171.76C123.55,-180.57 129.82,-190 151.5,-190 165.39,-190 172.96,-186.13 174.19,-181.03"/>
<polygon fill="midnightblue" stroke="midnightblue" points="177.4,-179.62 170.3,-171.76 170.94,-182.33 177.4,-179.62"/>
</g>
<!-- Node8 -->
<g id="node8" class="node">
<title>Node8</title>
<g id="a_node8"><a xlink:href="../../da/d73/analyt_8f90.html#a60edcf4884aa60f6d96c258a97255756" target="_top" xlink:title="Compute the analytical&#45;and&#45;numerical 4D Fourier integrals over the equivalently&#45;singular functions.">
<polygon fill="white" stroke="black" points="253,-137.5 253,-156.5 295,-156.5 295,-137.5 253,-137.5"/>
<text text-anchor="middle" x="274" y="-144.5" font-family="Helvetica,sans-Serif" font-size="10.00">analyt</text>
</a>
</g>
</g>
<!-- Node7&#45;&gt;Node8 -->
<g id="edge8" class="edge">
<title>Node7&#45;&gt;Node8</title>
<path fill="none" stroke="midnightblue" d="M175.55,-90.86C187.94,-93.97 203.23,-98.63 216,-105 229.89,-111.93 243.94,-122.24 254.62,-130.91"/>
<polygon fill="midnightblue" stroke="midnightblue" points="252.47,-133.68 262.39,-137.42 256.97,-128.31 252.47,-133.68"/>
</g>
<!-- Node11 -->
<g id="node11" class="node">
<title>Node11</title>
<g id="a_node11"><a xlink:href="../../d6/d77/fouri_8f90.html#a0f902f8d584a395f9db7175079d273c7" target="_top" xlink:title="Compute Fourier integrals and build amatrix.">
<polygon fill="white" stroke="black" points="256.5,-99.5 256.5,-118.5 291.5,-118.5 291.5,-99.5 256.5,-99.5"/>
<text text-anchor="middle" x="274" y="-106.5" font-family="Helvetica,sans-Serif" font-size="10.00">fouri</text>
</a>
</g>
</g>
<!-- Node7&#45;&gt;Node11 -->
<g id="edge11" class="edge">
<title>Node7&#45;&gt;Node11</title>
<path fill="none" stroke="midnightblue" d="M175.73,-90.43C195.98,-94.3 225.32,-99.9 246.48,-103.94"/>
<polygon fill="midnightblue" stroke="midnightblue" points="245.94,-107.4 256.42,-105.84 247.25,-100.52 245.94,-107.4"/>
</g>
<!-- Node12 -->
<g id="node12" class="node">
<title>Node12</title>
<g id="a_node12"><a xlink:href="../../d0/d1c/fourp_8f90.html#add725dd420251115fd60182dc992503c" target="_top" xlink:title="Perform Fourier integrals of Green&#39;s function kernel.">
<polygon fill="white" stroke="black" points="255,-61.5 255,-80.5 293,-80.5 293,-61.5 255,-61.5"/>
<text text-anchor="middle" x="274" y="-68.5" font-family="Helvetica,sans-Serif" font-size="10.00">fourp</text>
</a>
</g>
</g>
<!-- Node7&#45;&gt;Node12 -->
<g id="edge12" class="edge">
<title>Node7&#45;&gt;Node12</title>
<path fill="none" stroke="midnightblue" d="M175.73,-83.11C195.51,-80.65 223.97,-77.1 245,-74.49"/>
<polygon fill="midnightblue" stroke="midnightblue" points="245.45,-77.96 254.94,-73.25 244.59,-71.01 245.45,-77.96"/>
</g>
<!-- Node13 -->
<g id="node13" class="node">
<title>Node13</title>
<g id="a_node13"><a xlink:href="../../df/d2d/greenf_8f90.html#acd9d25905cc799c9fcd4d08a3cbb1e65" target="_top" xlink:title="Compute the regularized evaluation of the Green&#39;s function and the source term.">
<polygon fill="white" stroke="black" points="252,-23.5 252,-42.5 296,-42.5 296,-23.5 252,-23.5"/>
<text text-anchor="middle" x="274" y="-30.5" font-family="Helvetica,sans-Serif" font-size="10.00">greenf</text>
</a>
</g>
</g>
<!-- Node7&#45;&gt;Node13 -->
<g id="edge13" class="edge">
<title>Node7&#45;&gt;Node13</title>
<path fill="none" stroke="midnightblue" d="M175.62,-80.56C187.88,-77.31 203.04,-72.7 216,-67 227.79,-61.82 240.15,-54.68 250.34,-48.28"/>
<polygon fill="midnightblue" stroke="midnightblue" points="252.5,-51.05 259,-42.69 248.7,-45.17 252.5,-51.05"/>
</g>
<!-- Node9 -->
<g id="node9" class="node">
<title>Node9</title>
<g id="a_node9"><a xlink:href="../../df/df3/analysum_8f90.html#aa51b1a5786e7b5719fe2ca679efc66b0" target="_top" xlink:title="Compute the (m=0 or n=0) part of the DFT of the analytical Fourier transforms of the equivalently&#45;sin...">
<polygon fill="white" stroke="black" points="334.5,-156.5 334.5,-175.5 392.5,-175.5 392.5,-156.5 334.5,-156.5"/>
<text text-anchor="middle" x="363.5" y="-163.5" font-family="Helvetica,sans-Serif" font-size="10.00">analysum</text>
</a>
</g>
</g>
<!-- Node8&#45;&gt;Node9 -->
<g id="edge9" class="edge">
<title>Node8&#45;&gt;Node9</title>
<path fill="none" stroke="midnightblue" d="M295.29,-151.41C304,-153.3 314.47,-155.57 324.53,-157.75"/>
<polygon fill="midnightblue" stroke="midnightblue" points="323.85,-161.19 334.36,-159.89 325.33,-154.35 323.85,-161.19"/>
</g>
<!-- Node10 -->
<g id="node10" class="node">
<title>Node10</title>
<g id="a_node10"><a xlink:href="../../d1/d90/analysum2_8f90.html#a47a0d185131a197c6fc62ee5d68d62fb" target="_top" xlink:title="Compute the (m&gt;0 and n&gt;0) part of the DFT of the analytical Fourier transforms of the equivalently&#45;si...">
<polygon fill="white" stroke="black" points="332,-118.5 332,-137.5 395,-137.5 395,-118.5 332,-118.5"/>
<text text-anchor="middle" x="363.5" y="-125.5" font-family="Helvetica,sans-Serif" font-size="10.00">analysum2</text>
</a>
</g>
</g>
<!-- Node8&#45;&gt;Node10 -->
<g id="edge10" class="edge">
<title>Node8&#45;&gt;Node10</title>
<path fill="none" stroke="midnightblue" d="M295.29,-142.59C303.23,-140.87 312.62,-138.83 321.84,-136.83"/>
<polygon fill="midnightblue" stroke="midnightblue" points="322.65,-140.23 331.68,-134.69 321.17,-133.39 322.65,-140.23"/>
</g>
</g>
</svg>
