<?xml version="1.0" encoding="UTF-8" standalone="no"?>
<!DOCTYPE svg PUBLIC "-//W3C//DTD SVG 1.1//EN"
 "http://www.w3.org/Graphics/SVG/1.1/DTD/svg11.dtd">
<!-- Generated by graphviz version 8.0.1 (20230327.1645)
 -->
<!-- Title: residue_con Pages: 1 -->
<svg width="353pt" height="156pt"
 viewBox="0.00 0.00 353.00 156.00" xmlns="http://www.w3.org/2000/svg" xmlns:xlink="http://www.w3.org/1999/xlink">
<g id="graph0" class="graph" transform="scale(1 1) rotate(0) translate(4 152)">
<title>residue_con</title>
<!-- Node1 -->
<g id="node1" class="node">
<title>Node1</title>
<g id="a_node1"><a xlink:title="Compute invariant residuals.">
<polygon fill="#999999" stroke="#666666" points="69,-92 0,-92 0,-73 69,-73 69,-92"/>
<text text-anchor="middle" x="34.5" y="-80" font-family="Helvetica,sans-Serif" font-size="10.00">residue_con</text>
</a>
</g>
</g>
<!-- Node2 -->
<g id="node2" class="node">
<title>Node2</title>
<g id="a_node2"><a xlink:href="../../db/d5a/residue_8f90.html#a29cc4a06a22a55dc9b1bf7252ebcc9ed" target="_top" xlink:title="Compute internal gr , gz required for &#160;constraint.">
<polygon fill="white" stroke="#666666" points="180,-148 105,-148 105,-129 180,-129 180,-148"/>
<text text-anchor="middle" x="142.5" y="-136" font-family="Helvetica,sans-Serif" font-size="10.00">constrain_m1</text>
</a>
</g>
</g>
<!-- Node1&#45;&gt;Node2 -->
<g id="edge1" class="edge">
<title>Node1&#45;&gt;Node2</title>
<path fill="none" stroke="#63b8ff" d="M53.1,-92.39C67.08,-100.18 87.18,-111.24 105,-120.5 107.01,-121.54 109.09,-122.61 111.18,-123.67"/>
<polygon fill="#63b8ff" stroke="#63b8ff" points="109.45,-127.22 119.96,-128.56 112.58,-120.96 109.45,-127.22"/>
</g>
<!-- Node3 -->
<g id="node3" class="node">
<title>Node3</title>
<g id="a_node3"><a xlink:href="../../d3/d3a/getfsq_8f90.html#a7b636db95ff23aaea849bd65fba7aa2e" target="_top" xlink:title="Compute total force residual on flux surfaces.">
<polygon fill="white" stroke="#666666" points="164.5,-111 120.5,-111 120.5,-92 164.5,-92 164.5,-111"/>
<text text-anchor="middle" x="142.5" y="-99" font-family="Helvetica,sans-Serif" font-size="10.00">getfsq</text>
</a>
</g>
</g>
<!-- Node1&#45;&gt;Node3 -->
<g id="edge2" class="edge">
<title>Node1&#45;&gt;Node3</title>
<path fill="none" stroke="#63b8ff" d="M69.33,-88.56C82.26,-90.88 96.96,-93.52 109.7,-95.8"/>
<polygon fill="#63b8ff" stroke="#63b8ff" points="108.83,-99.38 119.29,-97.7 110.07,-92.49 108.83,-99.38"/>
</g>
<!-- Node4 -->
<g id="node4" class="node">
<title>Node4</title>
<g id="a_node4"><a xlink:href="../../db/d5a/residue_8f90.html#aaf8d684a58b8bf9dfdecfdb925960780" target="_top" xlink:title="Compute internal gr , gz required for &#160;constraint.">
<polygon fill="white" stroke="#666666" points="172,-74 113,-74 113,-55 172,-55 172,-74"/>
<text text-anchor="middle" x="142.5" y="-62" font-family="Helvetica,sans-Serif" font-size="10.00">scale_m1</text>
</a>
</g>
</g>
<!-- Node1&#45;&gt;Node4 -->
<g id="edge3" class="edge">
<title>Node1&#45;&gt;Node4</title>
<path fill="none" stroke="#63b8ff" d="M69.33,-76.76C79.67,-75 91.14,-73.05 101.84,-71.24"/>
<polygon fill="#63b8ff" stroke="#63b8ff" points="102.35,-74.53 111.62,-69.4 101.17,-67.63 102.35,-74.53"/>
</g>
<!-- Node5 -->
<g id="node5" class="node">
<title>Node5</title>
<g id="a_node5"><a xlink:href="../../d8/d86/scalfor_8f90.html#a2ef9c34d20ddf30cb7b15fe35066b8ca" target="_top" xlink:title="Build forces from different contributions.">
<polygon fill="white" stroke="#666666" points="165.5,-37 119.5,-37 119.5,-18 165.5,-18 165.5,-37"/>
<text text-anchor="middle" x="142.5" y="-25" font-family="Helvetica,sans-Serif" font-size="10.00">scalfor</text>
</a>
</g>
</g>
<!-- Node1&#45;&gt;Node5 -->
<g id="edge4" class="edge">
<title>Node1&#45;&gt;Node5</title>
<path fill="none" stroke="#63b8ff" d="M54.45,-72.67C70.63,-64.27 94.15,-52.07 112.66,-42.46"/>
<polygon fill="#63b8ff" stroke="#63b8ff" points="114.09,-45.15 121.36,-37.43 110.87,-38.93 114.09,-45.15"/>
</g>
<!-- Node6 -->
<g id="node6" class="node">
<title>Node6</title>
<g id="a_node6"><a xlink:href="../../d8/dfd/namespacedbgout.html#acdd1612a38e44b6469dc03d9d1c6ceed" target="_top" xlink:title="check if any output is desired for the current iteration check if the given context should be openend...">
<polygon fill="white" stroke="#666666" points="345,-56 216,-56 216,-37 345,-37 345,-56"/>
<text text-anchor="middle" x="280.5" y="-44" font-family="Helvetica,sans-Serif" font-size="10.00">dbgout::open_dbg_context</text>
</a>
</g>
</g>
<!-- Node5&#45;&gt;Node6 -->
<g id="edge5" class="edge">
<title>Node5&#45;&gt;Node6</title>
<path fill="none" stroke="#63b8ff" d="M165.96,-30.64C176.84,-32.16 190.6,-34.08 204.76,-36.06"/>
<polygon fill="#63b8ff" stroke="#63b8ff" points="204.23,-39.66 214.62,-37.58 205.2,-32.72 204.23,-39.66"/>
</g>
<!-- Node7 -->
<g id="node7" class="node">
<title>Node7</title>
<g id="a_node7"><a xlink:href="../../db/d40/tridslv_8f90.html#abf5399c0154abe7424c54d7fa9eb69db" target="_top" xlink:title="Solve a tridiagonal system of equations.">
<polygon fill="white" stroke="#666666" points="302,-19 259,-19 259,0 302,0 302,-19"/>
<text text-anchor="middle" x="280.5" y="-7" font-family="Helvetica,sans-Serif" font-size="10.00">tridslv</text>
</a>
</g>
</g>
<!-- Node5&#45;&gt;Node7 -->
<g id="edge7" class="edge">
<title>Node5&#45;&gt;Node7</title>
<path fill="none" stroke="#63b8ff" d="M165.96,-24.53C188.33,-21.57 222.88,-16.99 248,-13.67"/>
<polygon fill="#63b8ff" stroke="#63b8ff" points="248.34,-17.02 257.79,-12.24 247.42,-10.08 248.34,-17.02"/>
</g>
<!-- Node6&#45;&gt;Node6 -->
<g id="edge6" class="edge">
<title>Node6&#45;&gt;Node6</title>
<path fill="none" stroke="#63b8ff" d="M258.9,-56.37C249.04,-64.94 256.24,-74 280.5,-74 294.52,-74 302.85,-70.97 305.47,-66.76"/>
<polygon fill="#63b8ff" stroke="#63b8ff" points="308.52,-65.8 302.1,-57.37 301.86,-67.96 308.52,-65.8"/>
</g>
</g>
</svg>
