<?xml version="1.0" encoding="UTF-8" standalone="no"?>
<!DOCTYPE svg PUBLIC "-//W3C//DTD SVG 1.1//EN"
 "http://www.w3.org/Graphics/SVG/1.1/DTD/svg11.dtd">
<!-- Generated by graphviz version 12.2.1 (20241206.2353)
 -->
<!-- Title: residue_con Pages: 1 -->
<svg width="352pt" height="156pt"
 viewBox="0.00 0.00 351.50 156.25" xmlns="http://www.w3.org/2000/svg" xmlns:xlink="http://www.w3.org/1999/xlink">
<g id="graph0" class="graph" transform="scale(1 1) rotate(0) translate(4 152.25)">
<title>residue_con</title>
<!-- Node1 -->
<g id="Node000001" class="node">
<title>Node1</title>
<g id="a_Node000001"><a xlink:title="Compute invariant residuals.">
<polygon fill="#999999" stroke="#666666" points="68.5,-92.25 0,-92.25 0,-73 68.5,-73 68.5,-92.25"/>
<text text-anchor="middle" x="34.25" y="-78.75" font-family="Helvetica,sans-Serif" font-size="10.00">residue_con</text>
</a>
</g>
</g>
<!-- Node2 -->
<g id="Node000002" class="node">
<title>Node2</title>
<g id="a_Node000002"><a xlink:href="../../db/d5a/residue_8f90.html#a29cc4a06a22a55dc9b1bf7252ebcc9ed" target="_top" xlink:title="Compute internal gr , gz required for &#160;constraint.">
<polygon fill="white" stroke="#666666" points="179,-148.25 104.5,-148.25 104.5,-129 179,-129 179,-148.25"/>
<text text-anchor="middle" x="141.75" y="-134.75" font-family="Helvetica,sans-Serif" font-size="10.00">constrain_m1</text>
</a>
</g>
</g>
<!-- Node1&#45;&gt;Node2 -->
<g id="edge1_Node000001_Node000002" class="edge">
<title>Node1&#45;&gt;Node2</title>
<g id="a_edge1_Node000001_Node000002"><a xlink:title=" ">
<path fill="none" stroke="#63b8ff" d="M53.08,-92.67C67,-100.45 86.87,-111.42 104.5,-120.62 106.42,-121.63 108.39,-122.65 110.39,-123.67"/>
<polygon fill="#63b8ff" stroke="#63b8ff" points="108.5,-126.63 119,-128 111.64,-120.38 108.5,-126.63"/>
</a>
</g>
</g>
<!-- Node3 -->
<g id="Node000003" class="node">
<title>Node3</title>
<g id="a_Node000003"><a xlink:href="../../d3/d3a/getfsq_8f90.html#a7b636db95ff23aaea849bd65fba7aa2e" target="_top" xlink:title="Compute total force residual on flux surfaces.">
<polygon fill="white" stroke="#666666" points="163.25,-111.25 120.25,-111.25 120.25,-92 163.25,-92 163.25,-111.25"/>
<text text-anchor="middle" x="141.75" y="-97.75" font-family="Helvetica,sans-Serif" font-size="10.00">getfsq</text>
</a>
</g>
</g>
<!-- Node1&#45;&gt;Node3 -->
<g id="edge2_Node000001_Node000003" class="edge">
<title>Node1&#45;&gt;Node3</title>
<g id="a_edge2_Node000001_Node000003"><a xlink:title=" ">
<path fill="none" stroke="#63b8ff" d="M68.92,-88.69C81.76,-91 96.33,-93.63 108.99,-95.9"/>
<polygon fill="#63b8ff" stroke="#63b8ff" points="108.01,-99.28 118.47,-97.61 109.25,-92.4 108.01,-99.28"/>
</a>
</g>
</g>
<!-- Node4 -->
<g id="Node000004" class="node">
<title>Node4</title>
<g id="a_Node000004"><a xlink:href="../../db/d5a/residue_8f90.html#aaf8d684a58b8bf9dfdecfdb925960780" target="_top" xlink:title="Compute internal gr , gz required for &#160;constraint.">
<polygon fill="white" stroke="#666666" points="170.75,-74.25 112.75,-74.25 112.75,-55 170.75,-55 170.75,-74.25"/>
<text text-anchor="middle" x="141.75" y="-60.75" font-family="Helvetica,sans-Serif" font-size="10.00">scale_m1</text>
</a>
</g>
</g>
<!-- Node1&#45;&gt;Node4 -->
<g id="edge3_Node000001_Node000004" class="edge">
<title>Node1&#45;&gt;Node4</title>
<g id="a_edge3_Node000001_Node000004"><a xlink:title=" ">
<path fill="none" stroke="#63b8ff" d="M68.92,-76.88C79.2,-75.13 90.59,-73.18 101.21,-71.37"/>
<polygon fill="#63b8ff" stroke="#63b8ff" points="101.59,-74.86 110.86,-69.72 100.41,-67.96 101.59,-74.86"/>
</a>
</g>
</g>
<!-- Node5 -->
<g id="Node000005" class="node">
<title>Node5</title>
<g id="a_Node000005"><a xlink:href="../../d8/d86/scalfor_8f90.html#a2ef9c34d20ddf30cb7b15fe35066b8ca" target="_top" xlink:title="Build forces from different contributions.">
<polygon fill="white" stroke="#666666" points="164.38,-37.25 119.12,-37.25 119.12,-18 164.38,-18 164.38,-37.25"/>
<text text-anchor="middle" x="141.75" y="-23.75" font-family="Helvetica,sans-Serif" font-size="10.00">scalfor</text>
</a>
</g>
</g>
<!-- Node1&#45;&gt;Node5 -->
<g id="edge4_Node000001_Node000005" class="edge">
<title>Node1&#45;&gt;Node5</title>
<g id="a_edge4_Node000001_Node000005"><a xlink:title=" ">
<path fill="none" stroke="#63b8ff" d="M53.69,-72.58C67.6,-65.05 87.17,-54.55 104.5,-45.62 106.42,-44.64 108.4,-43.62 110.4,-42.61"/>
<polygon fill="#63b8ff" stroke="#63b8ff" points="111.65,-45.9 119.02,-38.29 108.51,-39.64 111.65,-45.9"/>
</a>
</g>
</g>
<!-- Node6 -->
<g id="Node000006" class="node">
<title>Node6</title>
<g id="a_Node000006"><a xlink:href="../../d8/dfd/namespacedbgout.html#acdd1612a38e44b6469dc03d9d1c6ceed" target="_top" xlink:title="check if any output is desired for the current iteration check if the given context should be openend...">
<polygon fill="white" stroke="#666666" points="343.5,-56.25 215,-56.25 215,-37 343.5,-37 343.5,-56.25"/>
<text text-anchor="middle" x="279.25" y="-42.75" font-family="Helvetica,sans-Serif" font-size="10.00">dbgout::open_dbg_context</text>
</a>
</g>
</g>
<!-- Node5&#45;&gt;Node6 -->
<g id="edge5_Node000005_Node000006" class="edge">
<title>Node5&#45;&gt;Node6</title>
<g id="a_edge5_Node000005_Node000006"><a xlink:title=" ">
<path fill="none" stroke="#63b8ff" d="M164.82,-30.72C175.59,-32.23 189.24,-34.14 203.31,-36.12"/>
<polygon fill="#63b8ff" stroke="#63b8ff" points="202.75,-39.57 213.14,-37.5 203.72,-32.64 202.75,-39.57"/>
</a>
</g>
</g>
<!-- Node7 -->
<g id="Node000007" class="node">
<title>Node7</title>
<g id="a_Node000007"><a xlink:href="../../db/d40/tridslv_8f90.html#abf5399c0154abe7424c54d7fa9eb69db" target="_top" xlink:title="Solve a tridiagonal system of equations.">
<polygon fill="white" stroke="#666666" points="300.38,-19.25 258.12,-19.25 258.12,0 300.38,0 300.38,-19.25"/>
<text text-anchor="middle" x="279.25" y="-5.75" font-family="Helvetica,sans-Serif" font-size="10.00">tridslv</text>
</a>
</g>
</g>
<!-- Node5&#45;&gt;Node7 -->
<g id="edge7_Node000005_Node000007" class="edge">
<title>Node5&#45;&gt;Node7</title>
<g id="a_edge7_Node000005_Node000007"><a xlink:title=" ">
<path fill="none" stroke="#63b8ff" d="M164.82,-24.69C187.09,-21.73 221.69,-17.14 246.82,-13.8"/>
<polygon fill="#63b8ff" stroke="#63b8ff" points="247.01,-17.31 256.46,-12.52 246.09,-10.37 247.01,-17.31"/>
</a>
</g>
</g>
<!-- Node6&#45;&gt;Node6 -->
<g id="edge6_Node000006_Node000006" class="edge">
<title>Node6&#45;&gt;Node6</title>
<g id="a_edge6_Node000006_Node000006"><a xlink:title=" ">
<path fill="none" stroke="#63b8ff" d="M257.72,-56.54C247.9,-65.15 255.08,-74.25 279.25,-74.25 292.47,-74.25 300.6,-71.53 303.66,-67.65"/>
<polygon fill="#63b8ff" stroke="#63b8ff" points="307.05,-66.81 301.16,-58 300.28,-68.56 307.05,-66.81"/>
</a>
</g>
</g>
</g>
</svg>
