<?xml version="1.0" encoding="UTF-8" standalone="no"?>
<!DOCTYPE svg PUBLIC "-//W3C//DTD SVG 1.1//EN"
 "http://www.w3.org/Graphics/SVG/1.1/DTD/svg11.dtd">
<!-- Generated by graphviz version 8.1.0 (20230707.0739)
 -->
<!-- Title: residue_con Pages: 1 -->
<svg width="352pt" height="156pt"
 viewBox="0.00 0.00 351.50 156.25" xmlns="http://www.w3.org/2000/svg" xmlns:xlink="http://www.w3.org/1999/xlink">
<g id="graph0" class="graph" transform="scale(1 1) rotate(0) translate(4 152.25)">
<title>residue_con</title>
<!-- Node1 -->
<g id="Node000001" class="node">
<title>Node1</title>
<g id="a_Node000001"><a xlink:title="Compute invariant residuals.">
<polygon fill="#999999" stroke="#666666" points="68.5,-92.25 0,-92.25 0,-73 68.5,-73 68.5,-92.25"/>
<text text-anchor="middle" x="34.25" y="-78.75" font-family="Helvetica,sans-Serif" font-size="10.00">residue_con</text>
</a>
</g>
</g>
<!-- Node2 -->
<g id="Node000002" class="node">
<title>Node2</title>
<g id="a_Node000002"><a xlink:href="../../db/d5a/residue_8f90.html#a29cc4a06a22a55dc9b1bf7252ebcc9ed" target="_top" xlink:title="Compute internal gr , gz required for &#160;constraint.">
<polygon fill="white" stroke="#666666" points="179,-148.25 104.5,-148.25 104.5,-129 179,-129 179,-148.25"/>
<text text-anchor="middle" x="141.75" y="-134.75" font-family="Helvetica,sans-Serif" font-size="10.00">constrain_m1</text>
</a>
</g>
</g>
<!-- Node1&#45;&gt;Node2 -->
<g id="edge1_Node000001_Node000002" class="edge">
<title>Node1&#45;&gt;Node2</title>
<g id="a_edge1_Node000001_Node000002"><a xlink:title=" ">
<path fill="none" stroke="#63b8ff" d="M53.08,-92.67C67,-100.45 86.87,-111.42 104.5,-120.62 106.49,-121.67 108.56,-122.73 110.64,-123.79"/>
<polygon fill="#63b8ff" stroke="#63b8ff" points="108.85,-127.31 119.35,-128.68 111.99,-121.06 108.85,-127.31"/>
</a>
</g>
</g>
<!-- Node3 -->
<g id="Node000003" class="node">
<title>Node3</title>
<g id="a_Node000003"><a xlink:href="../../d3/d3a/getfsq_8f90.html#a7b636db95ff23aaea849bd65fba7aa2e" target="_top" xlink:title="Compute total force residual on flux surfaces.">
<polygon fill="white" stroke="#666666" points="163.25,-111.25 120.25,-111.25 120.25,-92 163.25,-92 163.25,-111.25"/>
<text text-anchor="middle" x="141.75" y="-97.75" font-family="Helvetica,sans-Serif" font-size="10.00">getfsq</text>
</a>
</g>
</g>
<!-- Node1&#45;&gt;Node3 -->
<g id="edge2_Node000001_Node000003" class="edge">
<title>Node1&#45;&gt;Node3</title>
<g id="a_edge2_Node000001_Node000003"><a xlink:title=" ">
<path fill="none" stroke="#63b8ff" d="M68.92,-88.69C81.89,-91.02 96.63,-93.68 109.37,-95.97"/>
<polygon fill="#63b8ff" stroke="#63b8ff" points="108.5,-99.55 118.96,-97.88 109.74,-92.66 108.5,-99.55"/>
</a>
</g>
</g>
<!-- Node4 -->
<g id="Node000004" class="node">
<title>Node4</title>
<g id="a_Node000004"><a xlink:href="../../db/d5a/residue_8f90.html#aaf8d684a58b8bf9dfdecfdb925960780" target="_top" xlink:title="Compute internal gr , gz required for &#160;constraint.">
<polygon fill="white" stroke="#666666" points="170.75,-74.25 112.75,-74.25 112.75,-55 170.75,-55 170.75,-74.25"/>
<text text-anchor="middle" x="141.75" y="-60.75" font-family="Helvetica,sans-Serif" font-size="10.00">scale_m1</text>
</a>
</g>
</g>
<!-- Node1&#45;&gt;Node4 -->
<g id="edge3_Node000001_Node000004" class="edge">
<title>Node1&#45;&gt;Node4</title>
<g id="a_edge3_Node000001_Node000004"><a xlink:title=" ">
<path fill="none" stroke="#63b8ff" d="M68.92,-76.88C79.3,-75.11 90.83,-73.14 101.55,-71.31"/>
<polygon fill="#63b8ff" stroke="#63b8ff" points="102.08,-74.6 111.35,-69.47 100.91,-67.7 102.08,-74.6"/>
</a>
</g>
</g>
<!-- Node5 -->
<g id="Node000005" class="node">
<title>Node5</title>
<g id="a_Node000005"><a xlink:href="../../d8/d86/scalfor_8f90.html#a2ef9c34d20ddf30cb7b15fe35066b8ca" target="_top" xlink:title="Build forces from different contributions.">
<polygon fill="white" stroke="#666666" points="164.38,-37.25 119.12,-37.25 119.12,-18 164.38,-18 164.38,-37.25"/>
<text text-anchor="middle" x="141.75" y="-23.75" font-family="Helvetica,sans-Serif" font-size="10.00">scalfor</text>
</a>
</g>
</g>
<!-- Node1&#45;&gt;Node5 -->
<g id="edge4_Node000001_Node000005" class="edge">
<title>Node1&#45;&gt;Node5</title>
<g id="a_edge4_Node000001_Node000005"><a xlink:title=" ">
<path fill="none" stroke="#63b8ff" d="M53.69,-72.58C67.6,-65.05 87.17,-54.55 104.5,-45.62 106.5,-44.59 108.57,-43.54 110.65,-42.48"/>
<polygon fill="#63b8ff" stroke="#63b8ff" points="112,-45.22 119.37,-37.61 108.87,-38.96 112,-45.22"/>
</a>
</g>
</g>
<!-- Node6 -->
<g id="Node000006" class="node">
<title>Node6</title>
<g id="a_Node000006"><a xlink:href="../../d8/dfd/namespacedbgout.html#acdd1612a38e44b6469dc03d9d1c6ceed" target="_top" xlink:title="check if any output is desired for the current iteration check if the given context should be openend...">
<polygon fill="white" stroke="#666666" points="343.5,-56.25 215,-56.25 215,-37 343.5,-37 343.5,-56.25"/>
<text text-anchor="middle" x="279.25" y="-42.75" font-family="Helvetica,sans-Serif" font-size="10.00">dbgout::open_dbg_context</text>
</a>
</g>
</g>
<!-- Node5&#45;&gt;Node6 -->
<g id="edge5_Node000005_Node000006" class="edge">
<title>Node5&#45;&gt;Node6</title>
<g id="a_edge5_Node000005_Node000006"><a xlink:title=" ">
<path fill="none" stroke="#63b8ff" d="M164.82,-30.72C175.8,-32.26 189.79,-34.22 204.15,-36.23"/>
<polygon fill="#63b8ff" stroke="#63b8ff" points="203.25,-39.78 213.64,-37.71 204.22,-32.85 203.25,-39.78"/>
</a>
</g>
</g>
<!-- Node7 -->
<g id="Node000007" class="node">
<title>Node7</title>
<g id="a_Node000007"><a xlink:href="../../db/d40/tridslv_8f90.html#abf5399c0154abe7424c54d7fa9eb69db" target="_top" xlink:title="Solve a tridiagonal system of equations.">
<polygon fill="white" stroke="#666666" points="300.38,-19.25 258.12,-19.25 258.12,0 300.38,0 300.38,-19.25"/>
<text text-anchor="middle" x="279.25" y="-5.75" font-family="Helvetica,sans-Serif" font-size="10.00">tridslv</text>
</a>
</g>
</g>
<!-- Node5&#45;&gt;Node7 -->
<g id="edge7_Node000005_Node000007" class="edge">
<title>Node5&#45;&gt;Node7</title>
<g id="a_edge7_Node000005_Node000007"><a xlink:title=" ">
<path fill="none" stroke="#63b8ff" d="M164.82,-24.69C187.19,-21.72 222,-17.1 247.16,-13.76"/>
<polygon fill="#63b8ff" stroke="#63b8ff" points="247.51,-17.11 256.96,-12.32 246.59,-10.17 247.51,-17.11"/>
</a>
</g>
</g>
<!-- Node6&#45;&gt;Node6 -->
<g id="edge6_Node000006_Node000006" class="edge">
<title>Node6&#45;&gt;Node6</title>
<g id="a_edge6_Node000006_Node000006"><a xlink:title=" ">
<path fill="none" stroke="#63b8ff" d="M257.72,-56.54C247.9,-65.15 255.08,-74.25 279.25,-74.25 293.22,-74.25 301.52,-71.21 304.13,-66.98"/>
<polygon fill="#63b8ff" stroke="#63b8ff" points="307.17,-65.99 300.78,-57.54 300.5,-68.13 307.17,-65.99"/>
</a>
</g>
</g>
</g>
</svg>
