<?xml version="1.0" encoding="UTF-8" standalone="no"?>
<!DOCTYPE svg PUBLIC "-//W3C//DTD SVG 1.1//EN"
 "http://www.w3.org/Graphics/SVG/1.1/DTD/svg11.dtd">
<!-- Generated by graphviz version 7.1.0 (20230121.1956)
 -->
<!-- Title: residue_con Pages: 1 -->
<svg width="353pt" height="156pt"
 viewBox="0.00 0.00 353.00 156.00" xmlns="http://www.w3.org/2000/svg" xmlns:xlink="http://www.w3.org/1999/xlink">
<g id="graph0" class="graph" transform="scale(1 1) rotate(0) translate(4 152)">
<title>residue_con</title>
<!-- Node1 -->
<g id="node1" class="node">
<title>Node1</title>
<g id="a_node1"><a xlink:title="Compute invariant residuals.">
<polygon fill="#999999" stroke="#666666" points="69,-92 0,-92 0,-73 69,-73 69,-92"/>
<text text-anchor="middle" x="34.5" y="-80" font-family="Helvetica,sans-Serif" font-size="10.00">residue_con</text>
</a>
</g>
</g>
<!-- Node2 -->
<g id="node2" class="node">
<title>Node2</title>
<g id="a_node2"><a xlink:href="../../db/d5a/residue_8f90.html#a29cc4a06a22a55dc9b1bf7252ebcc9ed" target="_top" xlink:title="Compute internal gr , gz required for &#160;constraint.">
<polygon fill="white" stroke="#666666" points="180,-148 105,-148 105,-129 180,-129 180,-148"/>
<text text-anchor="middle" x="142.5" y="-136" font-family="Helvetica,sans-Serif" font-size="10.00">constrain_m1</text>
</a>
</g>
</g>
<!-- Node1&#45;&gt;Node2 -->
<g id="edge1" class="edge">
<title>Node1&#45;&gt;Node2</title>
<path fill="none" stroke="#63b8ff" d="M53.1,-92.39C67.08,-100.18 87.18,-111.24 105,-120.5 106.85,-121.46 108.75,-122.44 110.68,-123.42"/>
<polygon fill="#63b8ff" stroke="#63b8ff" points="109.1,-126.54 119.61,-127.88 112.23,-120.28 109.1,-126.54"/>
</g>
<!-- Node3 -->
<g id="node3" class="node">
<title>Node3</title>
<g id="a_node3"><a xlink:href="../../d3/d3a/getfsq_8f90.html#a7b636db95ff23aaea849bd65fba7aa2e" target="_top" xlink:title="Compute total force residual on flux surfaces.">
<polygon fill="white" stroke="#666666" points="164.5,-111 120.5,-111 120.5,-92 164.5,-92 164.5,-111"/>
<text text-anchor="middle" x="142.5" y="-99" font-family="Helvetica,sans-Serif" font-size="10.00">getfsq</text>
</a>
</g>
</g>
<!-- Node1&#45;&gt;Node3 -->
<g id="edge2" class="edge">
<title>Node1&#45;&gt;Node3</title>
<path fill="none" stroke="#63b8ff" d="M69.33,-88.56C82.13,-90.86 96.66,-93.46 109.31,-95.73"/>
<polygon fill="#63b8ff" stroke="#63b8ff" points="108.34,-99.11 118.8,-97.43 109.58,-92.22 108.34,-99.11"/>
</g>
<!-- Node4 -->
<g id="node4" class="node">
<title>Node4</title>
<g id="a_node4"><a xlink:href="../../db/d5a/residue_8f90.html#aaf8d684a58b8bf9dfdecfdb925960780" target="_top" xlink:title="Compute internal gr , gz required for &#160;constraint.">
<polygon fill="white" stroke="#666666" points="172,-74 113,-74 113,-55 172,-55 172,-74"/>
<text text-anchor="middle" x="142.5" y="-62" font-family="Helvetica,sans-Serif" font-size="10.00">scale_m1</text>
</a>
</g>
</g>
<!-- Node1&#45;&gt;Node4 -->
<g id="edge3" class="edge">
<title>Node1&#45;&gt;Node4</title>
<path fill="none" stroke="#63b8ff" d="M69.33,-76.76C79.56,-75.02 90.9,-73.09 101.5,-71.29"/>
<polygon fill="#63b8ff" stroke="#63b8ff" points="101.85,-74.78 111.13,-69.66 100.68,-67.88 101.85,-74.78"/>
</g>
<!-- Node5 -->
<g id="node5" class="node">
<title>Node5</title>
<g id="a_node5"><a xlink:href="../../d8/d86/scalfor_8f90.html#a2ef9c34d20ddf30cb7b15fe35066b8ca" target="_top" xlink:title="Build forces from different contributions.">
<polygon fill="white" stroke="#666666" points="165.5,-37 119.5,-37 119.5,-18 165.5,-18 165.5,-37"/>
<text text-anchor="middle" x="142.5" y="-25" font-family="Helvetica,sans-Serif" font-size="10.00">scalfor</text>
</a>
</g>
</g>
<!-- Node1&#45;&gt;Node5 -->
<g id="edge4" class="edge">
<title>Node1&#45;&gt;Node5</title>
<path fill="none" stroke="#63b8ff" d="M54.45,-72.67C70.48,-64.35 93.71,-52.29 112.15,-42.73"/>
<polygon fill="#63b8ff" stroke="#63b8ff" points="113.75,-45.84 121.01,-38.13 110.52,-39.63 113.75,-45.84"/>
</g>
<!-- Node6 -->
<g id="node6" class="node">
<title>Node6</title>
<g id="a_node6"><a xlink:href="../../d8/dfd/namespacedbgout.html#acdd1612a38e44b6469dc03d9d1c6ceed" target="_top" xlink:title="check if any output is desired for the current iteration check if the given context should be openend...">
<polygon fill="white" stroke="#666666" points="345,-56 216,-56 216,-37 345,-37 345,-56"/>
<text text-anchor="middle" x="280.5" y="-44" font-family="Helvetica,sans-Serif" font-size="10.00">dbgout::open_dbg_context</text>
</a>
</g>
</g>
<!-- Node5&#45;&gt;Node6 -->
<g id="edge5" class="edge">
<title>Node5&#45;&gt;Node6</title>
<path fill="none" stroke="#63b8ff" d="M165.96,-30.64C176.73,-32.14 190.33,-34.04 204.34,-36"/>
<polygon fill="#63b8ff" stroke="#63b8ff" points="203.73,-39.45 214.12,-37.37 204.7,-32.52 203.73,-39.45"/>
</g>
<!-- Node7 -->
<g id="node7" class="node">
<title>Node7</title>
<g id="a_node7"><a xlink:href="../../db/d40/tridslv_8f90.html#abf5399c0154abe7424c54d7fa9eb69db" target="_top" xlink:title="Solve a tridiagonal system of equations.">
<polygon fill="white" stroke="#666666" points="302,-19 259,-19 259,0 302,0 302,-19"/>
<text text-anchor="middle" x="280.5" y="-7" font-family="Helvetica,sans-Serif" font-size="10.00">tridslv</text>
</a>
</g>
</g>
<!-- Node5&#45;&gt;Node7 -->
<g id="edge7" class="edge">
<title>Node5&#45;&gt;Node7</title>
<path fill="none" stroke="#63b8ff" d="M165.96,-24.53C188.23,-21.58 222.57,-17.03 247.66,-13.71"/>
<polygon fill="#63b8ff" stroke="#63b8ff" points="247.84,-17.22 257.29,-12.44 246.92,-10.28 247.84,-17.22"/>
</g>
<!-- Node6&#45;&gt;Node6 -->
<g id="edge6" class="edge">
<title>Node6&#45;&gt;Node6</title>
<path fill="none" stroke="#63b8ff" d="M258.9,-56.37C249.04,-64.94 256.24,-74 280.5,-74 293.77,-74 301.93,-71.29 304.99,-67.43"/>
<polygon fill="#63b8ff" stroke="#63b8ff" points="308.4,-66.62 302.49,-57.83 301.63,-68.39 308.4,-66.62"/>
</g>
</g>
</svg>
