<?xml version="1.0" encoding="UTF-8" standalone="no"?>
<!DOCTYPE svg PUBLIC "-//W3C//DTD SVG 1.1//EN"
 "http://www.w3.org/Graphics/SVG/1.1/DTD/svg11.dtd">
<!-- Generated by graphviz version 2.49.3 (20211027.1501)
 -->
<!-- Title: residue_con Pages: 1 -->
<svg width="353pt" height="180pt"
 viewBox="0.00 0.00 353.00 180.00" xmlns="http://www.w3.org/2000/svg" xmlns:xlink="http://www.w3.org/1999/xlink">
<g id="graph0" class="graph" transform="scale(1 1) rotate(0) translate(4 176)">
<title>residue_con</title>
<polygon fill="white" stroke="transparent" points="-4,4 -4,-176 349,-176 349,4 -4,4"/>
<!-- Node1 -->
<g id="node1" class="node">
<title>Node1</title>
<g id="a_node1"><a xlink:title="Compute invariant residuals.">
<polygon fill="#bfbfbf" stroke="black" points="0,-95.5 0,-114.5 69,-114.5 69,-95.5 0,-95.5"/>
<text text-anchor="middle" x="34.5" y="-102.5" font-family="Helvetica,sans-Serif" font-size="10.00">residue_con</text>
</a>
</g>
</g>
<!-- Node2 -->
<g id="node2" class="node">
<title>Node2</title>
<g id="a_node2"><a xlink:href="../../db/d5a/residue_8f90.html#a29cc4a06a22a55dc9b1bf7252ebcc9ed" target="_top" xlink:title="Compute internal gr , gz required for &#160;constraint.">
<polygon fill="white" stroke="black" points="105,-152.5 105,-171.5 180,-171.5 180,-152.5 105,-152.5"/>
<text text-anchor="middle" x="142.5" y="-159.5" font-family="Helvetica,sans-Serif" font-size="10.00">constrain_m1</text>
</a>
</g>
</g>
<!-- Node1&#45;&gt;Node2 -->
<g id="edge1" class="edge">
<title>Node1&#45;&gt;Node2</title>
<path fill="none" stroke="midnightblue" d="M52.87,-114.62C66.9,-122.37 87.17,-133.48 105,-143 107.9,-144.55 110.94,-146.15 113.96,-147.74"/>
<polygon fill="midnightblue" stroke="midnightblue" points="112.41,-150.88 122.89,-152.41 115.65,-144.67 112.41,-150.88"/>
</g>
<!-- Node3 -->
<g id="node3" class="node">
<title>Node3</title>
<g id="a_node3"><a xlink:href="../../d3/d3a/getfsq_8f90.html#a7b636db95ff23aaea849bd65fba7aa2e" target="_top" xlink:title="Compute total force residual on flux surfaces.">
<polygon fill="white" stroke="black" points="120.5,-114.5 120.5,-133.5 164.5,-133.5 164.5,-114.5 120.5,-114.5"/>
<text text-anchor="middle" x="142.5" y="-121.5" font-family="Helvetica,sans-Serif" font-size="10.00">getfsq</text>
</a>
</g>
</g>
<!-- Node1&#45;&gt;Node3 -->
<g id="edge2" class="edge">
<title>Node1&#45;&gt;Node3</title>
<path fill="none" stroke="midnightblue" d="M69.04,-111.01C82.34,-113.4 97.55,-116.12 110.58,-118.46"/>
<polygon fill="midnightblue" stroke="midnightblue" points="110.03,-121.92 120.49,-120.23 111.27,-115.03 110.03,-121.92"/>
</g>
<!-- Node4 -->
<g id="node4" class="node">
<title>Node4</title>
<g id="a_node4"><a xlink:href="../../db/d5a/residue_8f90.html#aaf8d684a58b8bf9dfdecfdb925960780" target="_top" xlink:title="Compute internal gr , gz required for &#160;constraint.">
<polygon fill="white" stroke="black" points="113,-76.5 113,-95.5 172,-95.5 172,-76.5 113,-76.5"/>
<text text-anchor="middle" x="142.5" y="-83.5" font-family="Helvetica,sans-Serif" font-size="10.00">scale_m1</text>
</a>
</g>
</g>
<!-- Node1&#45;&gt;Node4 -->
<g id="edge3" class="edge">
<title>Node1&#45;&gt;Node4</title>
<path fill="none" stroke="midnightblue" d="M69.04,-98.99C79.81,-97.06 91.83,-94.9 102.94,-92.91"/>
<polygon fill="midnightblue" stroke="midnightblue" points="103.59,-96.35 112.81,-91.14 102.35,-89.46 103.59,-96.35"/>
</g>
<!-- Node5 -->
<g id="node5" class="node">
<title>Node5</title>
<g id="a_node5"><a xlink:href="../../d8/d86/scalfor_8f90.html#a20fb7039b82d05e64d01a2e50431ba5e" target="_top" xlink:title="Build forces from different contributions.">
<polygon fill="white" stroke="black" points="119.5,-38.5 119.5,-57.5 165.5,-57.5 165.5,-38.5 119.5,-38.5"/>
<text text-anchor="middle" x="142.5" y="-45.5" font-family="Helvetica,sans-Serif" font-size="10.00">scalfor</text>
</a>
</g>
</g>
<!-- Node1&#45;&gt;Node5 -->
<g id="edge4" class="edge">
<title>Node1&#45;&gt;Node5</title>
<path fill="none" stroke="midnightblue" d="M52.87,-95.38C66.9,-87.63 87.17,-76.52 105,-67 107.9,-65.45 110.94,-63.85 113.96,-62.26"/>
<polygon fill="midnightblue" stroke="midnightblue" points="115.65,-65.33 122.89,-57.59 112.41,-59.12 115.65,-65.33"/>
</g>
<!-- Node6 -->
<g id="node6" class="node">
<title>Node6</title>
<g id="a_node6"><a xlink:href="../../d8/dfd/namespacedbgout.html#a0752528f123b592bc57f687438b75d9b" target="_top" xlink:title=" ">
<polygon fill="white" stroke="black" points="216,-94.5 216,-113.5 345,-113.5 345,-94.5 216,-94.5"/>
<text text-anchor="middle" x="280.5" y="-101.5" font-family="Helvetica,sans-Serif" font-size="10.00">dbgout::open_dbg_context</text>
</a>
</g>
</g>
<!-- Node5&#45;&gt;Node6 -->
<g id="edge5" class="edge">
<title>Node5&#45;&gt;Node6</title>
<path fill="none" stroke="midnightblue" d="M161.71,-57.51C181.34,-67.73 210.52,-82.8 216,-85 221.61,-87.25 227.59,-89.38 233.56,-91.33"/>
<polygon fill="midnightblue" stroke="midnightblue" points="232.92,-94.8 243.51,-94.47 235.02,-88.13 232.92,-94.8"/>
</g>
<!-- Node7 -->
<g id="node7" class="node">
<title>Node7</title>
<g id="a_node7"><a xlink:href="../../d8/dfd/namespacedbgout.html#a0537172e9da0db08b9d29ab8880f0559" target="_top" xlink:title=" ">
<polygon fill="white" stroke="black" points="228,-38.5 228,-57.5 333,-57.5 333,-38.5 228,-38.5"/>
<text text-anchor="middle" x="280.5" y="-45.5" font-family="Helvetica,sans-Serif" font-size="10.00">dbgout::should_write</text>
</a>
</g>
</g>
<!-- Node5&#45;&gt;Node7 -->
<g id="edge6" class="edge">
<title>Node5&#45;&gt;Node7</title>
<path fill="none" stroke="midnightblue" d="M165.65,-48C179.88,-48 199.12,-48 217.72,-48"/>
<polygon fill="midnightblue" stroke="midnightblue" points="217.96,-51.5 227.96,-48 217.96,-44.5 217.96,-51.5"/>
</g>
<!-- Node8 -->
<g id="node8" class="node">
<title>Node8</title>
<g id="a_node8"><a xlink:href="../../db/d40/tridslv_8f90.html#abf5399c0154abe7424c54d7fa9eb69db" target="_top" xlink:title="Solve a tridiagonal system of equations.">
<polygon fill="white" stroke="black" points="259,-0.5 259,-19.5 302,-19.5 302,-0.5 259,-0.5"/>
<text text-anchor="middle" x="280.5" y="-7.5" font-family="Helvetica,sans-Serif" font-size="10.00">tridslv</text>
</a>
</g>
</g>
<!-- Node5&#45;&gt;Node8 -->
<g id="edge8" class="edge">
<title>Node5&#45;&gt;Node8</title>
<path fill="none" stroke="midnightblue" d="M165.65,-41.81C188.28,-35.49 223.58,-25.63 248.87,-18.56"/>
<polygon fill="midnightblue" stroke="midnightblue" points="250.01,-21.88 258.7,-15.81 248.12,-15.13 250.01,-21.88"/>
</g>
<!-- Node7&#45;&gt;Node7 -->
<g id="edge7" class="edge">
<title>Node7&#45;&gt;Node7</title>
<path fill="none" stroke="midnightblue" d="M259.23,-57.76C248.88,-66.57 255.97,-76 280.5,-76 296.21,-76 304.77,-72.13 306.17,-67.03"/>
<polygon fill="midnightblue" stroke="midnightblue" points="309.22,-65.29 301.77,-57.76 302.89,-68.29 309.22,-65.29"/>
</g>
</g>
</svg>
