<?xml version="1.0" encoding="UTF-8" standalone="no"?>
<!DOCTYPE svg PUBLIC "-//W3C//DTD SVG 1.1//EN"
 "http://www.w3.org/Graphics/SVG/1.1/DTD/svg11.dtd">
<!-- Generated by graphviz version 2.49.3 (20211027.1501)
 -->
<!-- Title: residue_con Pages: 1 -->
<svg width="353pt" height="161pt"
 viewBox="0.00 0.00 353.00 161.00" xmlns="http://www.w3.org/2000/svg" xmlns:xlink="http://www.w3.org/1999/xlink">
<g id="graph0" class="graph" transform="scale(1 1) rotate(0) translate(4 157)">
<title>residue_con</title>
<polygon fill="white" stroke="transparent" points="-4,4 -4,-157 349,-157 349,4 -4,4"/>
<!-- Node1 -->
<g id="node1" class="node">
<title>Node1</title>
<g id="a_node1"><a xlink:title="Compute invariant residuals.">
<polygon fill="#bfbfbf" stroke="black" points="0,-76.5 0,-95.5 69,-95.5 69,-76.5 0,-76.5"/>
<text text-anchor="middle" x="34.5" y="-83.5" font-family="Helvetica,sans-Serif" font-size="10.00">residue_con</text>
</a>
</g>
</g>
<!-- Node2 -->
<g id="node2" class="node">
<title>Node2</title>
<g id="a_node2"><a xlink:href="../../db/d5a/residue_8f90.html#a29cc4a06a22a55dc9b1bf7252ebcc9ed" target="_top" xlink:title="Compute internal gr , gz required for &#160;constraint.">
<polygon fill="white" stroke="black" points="105,-133.5 105,-152.5 180,-152.5 180,-133.5 105,-133.5"/>
<text text-anchor="middle" x="142.5" y="-140.5" font-family="Helvetica,sans-Serif" font-size="10.00">constrain_m1</text>
</a>
</g>
</g>
<!-- Node1&#45;&gt;Node2 -->
<g id="edge1" class="edge">
<title>Node1&#45;&gt;Node2</title>
<path fill="none" stroke="midnightblue" d="M52.87,-95.62C66.9,-103.37 87.17,-114.48 105,-124 107.9,-125.55 110.94,-127.15 113.96,-128.74"/>
<polygon fill="midnightblue" stroke="midnightblue" points="112.41,-131.88 122.89,-133.41 115.65,-125.67 112.41,-131.88"/>
</g>
<!-- Node3 -->
<g id="node3" class="node">
<title>Node3</title>
<g id="a_node3"><a xlink:href="../../d3/d3a/getfsq_8f90.html#a7b636db95ff23aaea849bd65fba7aa2e" target="_top" xlink:title="Compute total force residual on flux surfaces.">
<polygon fill="white" stroke="black" points="120.5,-95.5 120.5,-114.5 164.5,-114.5 164.5,-95.5 120.5,-95.5"/>
<text text-anchor="middle" x="142.5" y="-102.5" font-family="Helvetica,sans-Serif" font-size="10.00">getfsq</text>
</a>
</g>
</g>
<!-- Node1&#45;&gt;Node3 -->
<g id="edge2" class="edge">
<title>Node1&#45;&gt;Node3</title>
<path fill="none" stroke="midnightblue" d="M69.04,-92.01C82.34,-94.4 97.55,-97.12 110.58,-99.46"/>
<polygon fill="midnightblue" stroke="midnightblue" points="110.03,-102.92 120.49,-101.23 111.27,-96.03 110.03,-102.92"/>
</g>
<!-- Node4 -->
<g id="node4" class="node">
<title>Node4</title>
<g id="a_node4"><a xlink:href="../../db/d5a/residue_8f90.html#aaf8d684a58b8bf9dfdecfdb925960780" target="_top" xlink:title="Compute internal gr , gz required for &#160;constraint.">
<polygon fill="white" stroke="black" points="113,-57.5 113,-76.5 172,-76.5 172,-57.5 113,-57.5"/>
<text text-anchor="middle" x="142.5" y="-64.5" font-family="Helvetica,sans-Serif" font-size="10.00">scale_m1</text>
</a>
</g>
</g>
<!-- Node1&#45;&gt;Node4 -->
<g id="edge3" class="edge">
<title>Node1&#45;&gt;Node4</title>
<path fill="none" stroke="midnightblue" d="M69.04,-79.99C79.81,-78.06 91.83,-75.9 102.94,-73.91"/>
<polygon fill="midnightblue" stroke="midnightblue" points="103.59,-77.35 112.81,-72.14 102.35,-70.46 103.59,-77.35"/>
</g>
<!-- Node5 -->
<g id="node5" class="node">
<title>Node5</title>
<g id="a_node5"><a xlink:href="../../d8/d86/scalfor_8f90.html#a20fb7039b82d05e64d01a2e50431ba5e" target="_top" xlink:title="Build forces from different contributions.">
<polygon fill="white" stroke="black" points="119.5,-19.5 119.5,-38.5 165.5,-38.5 165.5,-19.5 119.5,-19.5"/>
<text text-anchor="middle" x="142.5" y="-26.5" font-family="Helvetica,sans-Serif" font-size="10.00">scalfor</text>
</a>
</g>
</g>
<!-- Node1&#45;&gt;Node5 -->
<g id="edge4" class="edge">
<title>Node1&#45;&gt;Node5</title>
<path fill="none" stroke="midnightblue" d="M52.87,-76.38C66.9,-68.63 87.17,-57.52 105,-48 107.9,-46.45 110.94,-44.85 113.96,-43.26"/>
<polygon fill="midnightblue" stroke="midnightblue" points="115.65,-46.33 122.89,-38.59 112.41,-40.12 115.65,-46.33"/>
</g>
<!-- Node6 -->
<g id="node6" class="node">
<title>Node6</title>
<g id="a_node6"><a xlink:href="../../d8/dfd/namespacedbgout.html#a1e9a1e529761acf2f036915bd6164887" target="_top" xlink:title=" ">
<polygon fill="white" stroke="black" points="216,-38.5 216,-57.5 345,-57.5 345,-38.5 216,-38.5"/>
<text text-anchor="middle" x="280.5" y="-45.5" font-family="Helvetica,sans-Serif" font-size="10.00">dbgout::open_dbg_context</text>
</a>
</g>
</g>
<!-- Node5&#45;&gt;Node6 -->
<g id="edge5" class="edge">
<title>Node5&#45;&gt;Node6</title>
<path fill="none" stroke="midnightblue" d="M165.65,-32.09C176.84,-33.66 191.14,-35.66 205.79,-37.7"/>
<polygon fill="midnightblue" stroke="midnightblue" points="205.56,-41.2 215.95,-39.12 206.53,-34.27 205.56,-41.2"/>
</g>
<!-- Node7 -->
<g id="node7" class="node">
<title>Node7</title>
<g id="a_node7"><a xlink:href="../../db/d40/tridslv_8f90.html#abf5399c0154abe7424c54d7fa9eb69db" target="_top" xlink:title="Solve a tridiagonal system of equations.">
<polygon fill="white" stroke="black" points="259,-0.5 259,-19.5 302,-19.5 302,-0.5 259,-0.5"/>
<text text-anchor="middle" x="280.5" y="-7.5" font-family="Helvetica,sans-Serif" font-size="10.00">tridslv</text>
</a>
</g>
</g>
<!-- Node5&#45;&gt;Node7 -->
<g id="edge7" class="edge">
<title>Node5&#45;&gt;Node7</title>
<path fill="none" stroke="midnightblue" d="M165.65,-25.91C188.18,-22.76 223.26,-17.86 248.53,-14.33"/>
<polygon fill="midnightblue" stroke="midnightblue" points="249.28,-17.76 258.7,-12.91 248.31,-10.82 249.28,-17.76"/>
</g>
<!-- Node6&#45;&gt;Node6 -->
<g id="edge6" class="edge">
<title>Node6&#45;&gt;Node6</title>
<path fill="none" stroke="midnightblue" d="M259.23,-57.76C248.88,-66.57 255.97,-76 280.5,-76 296.21,-76 304.77,-72.13 306.17,-67.03"/>
<polygon fill="midnightblue" stroke="midnightblue" points="309.22,-65.29 301.77,-57.76 302.89,-68.29 309.22,-65.29"/>
</g>
</g>
</svg>
