<?xml version="1.0" encoding="UTF-8" standalone="no"?>
<!DOCTYPE svg PUBLIC "-//W3C//DTD SVG 1.1//EN"
 "http://www.w3.org/Graphics/SVG/1.1/DTD/svg11.dtd">
<!-- Generated by graphviz version 2.49.3 (20211215.1918)
 -->
<!-- Title: readin Pages: 1 -->
<svg width="548pt" height="326pt"
 viewBox="0.00 0.00 548.00 326.00" xmlns="http://www.w3.org/2000/svg" xmlns:xlink="http://www.w3.org/1999/xlink">
<g id="graph0" class="graph" transform="scale(1 1) rotate(0) translate(4 322)">
<title>readin</title>
<polygon fill="white" stroke="transparent" points="-4,4 -4,-322 544,-322 544,4 -4,4"/>
<!-- Node1 -->
<g id="node1" class="node">
<title>Node1</title>
<g id="a_node1"><a xlink:title="Read the input file.">
<polygon fill="#bfbfbf" stroke="black" points="0,-185.5 0,-204.5 43,-204.5 43,-185.5 0,-185.5"/>
<text text-anchor="middle" x="21.5" y="-192.5" font-family="Helvetica,sans-Serif" font-size="10.00">readin</text>
</a>
</g>
</g>
<!-- Node2 -->
<g id="node2" class="node">
<title>Node2</title>
<g id="a_node2"><a xlink:href="../../d7/d8c/allocate__nunv_8f90.html#a1fb4098498daa9bd7a8487120397c1a7" target="_top" xlink:title="allocate arrays depending on the number of Fourier coefficients nunv">
<polygon fill="white" stroke="black" points="105,-289.5 105,-308.5 182,-308.5 182,-289.5 105,-289.5"/>
<text text-anchor="middle" x="143.5" y="-296.5" font-family="Helvetica,sans-Serif" font-size="10.00">allocate_nunv</text>
</a>
</g>
</g>
<!-- Node1&#45;&gt;Node2 -->
<g id="edge1" class="edge">
<title>Node1&#45;&gt;Node2</title>
<path fill="none" stroke="midnightblue" d="M26.32,-204.76C33.74,-222.46 51.8,-259.86 79,-280 83.86,-283.6 89.4,-286.52 95.13,-288.89"/>
<polygon fill="midnightblue" stroke="midnightblue" points="94.29,-292.31 104.88,-292.38 96.65,-285.72 94.29,-292.31"/>
</g>
<!-- Node6 -->
<g id="node6" class="node">
<title>Node6</title>
<g id="a_node6"><a xlink:href="../../d2/d33/namespacetheta__flip.html#a1177c598a2b1378ae34fecfba906634d" target="_top" xlink:title="Flip the definition of the poloidal angle in the user&#45;provided initial guess for the LCFS geometry.">
<polygon fill="white" stroke="black" points="94,-251.5 94,-270.5 193,-270.5 193,-251.5 94,-251.5"/>
<text text-anchor="middle" x="143.5" y="-258.5" font-family="Helvetica,sans-Serif" font-size="10.00">theta_flip::flip_theta</text>
</a>
</g>
</g>
<!-- Node1&#45;&gt;Node6 -->
<g id="edge5" class="edge">
<title>Node1&#45;&gt;Node6</title>
<path fill="none" stroke="midnightblue" d="M31.62,-204.63C42.12,-215.2 60.33,-231.99 79,-242 83.05,-244.17 87.37,-246.12 91.79,-247.88"/>
<polygon fill="midnightblue" stroke="midnightblue" points="90.96,-251.3 101.55,-251.4 93.34,-244.71 90.96,-251.3"/>
</g>
<!-- Node7 -->
<g id="node7" class="node">
<title>Node7</title>
<g id="a_node7"><a xlink:href="../../d0/d4c/heading_8f90.html#aacf288f9cc770199b74d2e6fcc374450" target="_top" xlink:title="Open output files and print banner message at the top.">
<polygon fill="white" stroke="black" points="118.5,-213.5 118.5,-232.5 168.5,-232.5 168.5,-213.5 118.5,-213.5"/>
<text text-anchor="middle" x="143.5" y="-220.5" font-family="Helvetica,sans-Serif" font-size="10.00">heading</text>
</a>
</g>
</g>
<!-- Node1&#45;&gt;Node7 -->
<g id="edge6" class="edge">
<title>Node1&#45;&gt;Node7</title>
<path fill="none" stroke="midnightblue" d="M43.13,-199.81C61.1,-204.01 87.5,-210.17 108.57,-215.08"/>
<polygon fill="midnightblue" stroke="midnightblue" points="107.89,-218.52 118.43,-217.38 109.49,-211.7 107.89,-218.52"/>
</g>
<!-- Node10 -->
<g id="node10" class="node">
<title>Node10</title>
<g id="a_node10"><a xlink:href="../../d8/dfd/namespacedbgout.html#acdd1612a38e44b6469dc03d9d1c6ceed" target="_top" xlink:title="check if any output is desired for the current iteration check if the given context should be openend...">
<polygon fill="white" stroke="black" points="79,-157.5 79,-176.5 208,-176.5 208,-157.5 79,-157.5"/>
<text text-anchor="middle" x="143.5" y="-164.5" font-family="Helvetica,sans-Serif" font-size="10.00">dbgout::open_dbg_context</text>
</a>
</g>
</g>
<!-- Node1&#45;&gt;Node10 -->
<g id="edge9" class="edge">
<title>Node1&#45;&gt;Node10</title>
<path fill="none" stroke="midnightblue" d="M43.13,-190.19C56.57,-187.05 74.74,-182.81 91.86,-178.82"/>
<polygon fill="midnightblue" stroke="midnightblue" points="92.84,-182.18 101.78,-176.5 91.25,-175.37 92.84,-182.18"/>
</g>
<!-- Node11 -->
<g id="node11" class="node">
<title>Node11</title>
<g id="a_node11"><a xlink:href="../../d4/dc8/read__indata_8f90.html#a93b4b27202925d5f2783e8a4da81a8d7" target="_top" xlink:title="Read the INDATA namelist from a given input file.">
<polygon fill="white" stroke="black" points="110,-119.5 110,-138.5 177,-138.5 177,-119.5 110,-119.5"/>
<text text-anchor="middle" x="143.5" y="-126.5" font-family="Helvetica,sans-Serif" font-size="10.00">read_indata</text>
</a>
</g>
</g>
<!-- Node1&#45;&gt;Node11 -->
<g id="edge11" class="edge">
<title>Node1&#45;&gt;Node11</title>
<path fill="none" stroke="midnightblue" d="M31.62,-185.37C42.12,-174.8 60.33,-158.01 79,-148 85.55,-144.49 92.84,-141.53 100.08,-139.09"/>
<polygon fill="midnightblue" stroke="midnightblue" points="101.34,-142.36 109.85,-136.05 99.26,-135.68 101.34,-142.36"/>
</g>
<!-- Node14 -->
<g id="node14" class="node">
<title>Node14</title>
<g id="a_node14"><a xlink:href="../../d1/d41/namespacemgrid__mod.html#a202373a45f0c5b1f81076da92a1123d0" target="_top" xlink:title=" ">
<polygon fill="white" stroke="black" points="85,-38.5 85,-57.5 202,-57.5 202,-38.5 85,-38.5"/>
<text text-anchor="middle" x="143.5" y="-45.5" font-family="Helvetica,sans-Serif" font-size="10.00">mgrid_mod::read_mgrid</text>
</a>
</g>
</g>
<!-- Node1&#45;&gt;Node14 -->
<g id="edge15" class="edge">
<title>Node1&#45;&gt;Node14</title>
<path fill="none" stroke="midnightblue" d="M27.99,-185.36C37.46,-169.11 57.86,-135.51 79,-110 92.68,-93.49 110.24,-76.62 123.43,-64.65"/>
<polygon fill="midnightblue" stroke="midnightblue" points="125.88,-67.15 131,-57.88 121.22,-61.93 125.88,-67.15"/>
</g>
<!-- Node3 -->
<g id="node3" class="node">
<title>Node3</title>
<g id="a_node3"><a xlink:href="../../dd/df2/namespacevacmod.html#a30b88ea77408f43e1bedf2c11c0f8d1a" target="_top" xlink:title=" ">
<polygon fill="white" stroke="black" points="245.5,-298.5 245.5,-317.5 367.5,-317.5 367.5,-298.5 245.5,-298.5"/>
<text text-anchor="middle" x="306.5" y="-305.5" font-family="Helvetica,sans-Serif" font-size="10.00">vacmod::allocate_nestor</text>
</a>
</g>
</g>
<!-- Node2&#45;&gt;Node3 -->
<g id="edge2" class="edge">
<title>Node2&#45;&gt;Node3</title>
<path fill="none" stroke="midnightblue" d="M182.25,-301.11C198.09,-302 217.04,-303.06 235.28,-304.07"/>
<polygon fill="midnightblue" stroke="midnightblue" points="235.13,-307.57 245.31,-304.64 235.52,-300.58 235.13,-307.57"/>
</g>
<!-- Node4 -->
<g id="node4" class="node">
<title>Node4</title>
<g id="a_node4"><a xlink:href="../../de/dd6/free__mem__nunv_8f90.html#af9db130c860b00078874db28a8805226" target="_top" xlink:title="Free arrays depending on the number of Fourier coefficients nunv.">
<polygon fill="white" stroke="black" points="263.5,-260.5 263.5,-279.5 349.5,-279.5 349.5,-260.5 263.5,-260.5"/>
<text text-anchor="middle" x="306.5" y="-267.5" font-family="Helvetica,sans-Serif" font-size="10.00">free_mem_nunv</text>
</a>
</g>
</g>
<!-- Node2&#45;&gt;Node4 -->
<g id="edge3" class="edge">
<title>Node2&#45;&gt;Node4</title>
<path fill="none" stroke="midnightblue" d="M182.25,-292.2C203.46,-288.38 230.25,-283.55 253.43,-279.38"/>
<polygon fill="midnightblue" stroke="midnightblue" points="254.24,-282.79 263.46,-277.57 252.99,-275.9 254.24,-282.79"/>
</g>
<!-- Node5 -->
<g id="node5" class="node">
<title>Node5</title>
<g id="a_node5"><a xlink:href="../../dd/df2/namespacevacmod.html#ade3824460b4eb61403c35f6abe95cd89" target="_top" xlink:title=" ">
<polygon fill="white" stroke="black" points="407,-260.5 407,-279.5 538,-279.5 538,-260.5 407,-260.5"/>
<text text-anchor="middle" x="472.5" y="-267.5" font-family="Helvetica,sans-Serif" font-size="10.00">vacmod::free_mem_nestor</text>
</a>
</g>
</g>
<!-- Node4&#45;&gt;Node5 -->
<g id="edge4" class="edge">
<title>Node4&#45;&gt;Node5</title>
<path fill="none" stroke="midnightblue" d="M349.73,-270C363.98,-270 380.34,-270 396.35,-270"/>
<polygon fill="midnightblue" stroke="midnightblue" points="396.8,-273.5 406.8,-270 396.8,-266.5 396.8,-273.5"/>
</g>
<!-- Node8 -->
<g id="node8" class="node">
<title>Node8</title>
<g id="a_node8"><a xlink:href="../../d2/dc3/open__output__files_8f90.html#a8e2e97aad77c7099fa003f98f48d4dfc" target="_top" xlink:title="Open output files.">
<polygon fill="white" stroke="black" points="260.5,-213.5 260.5,-232.5 352.5,-232.5 352.5,-213.5 260.5,-213.5"/>
<text text-anchor="middle" x="306.5" y="-220.5" font-family="Helvetica,sans-Serif" font-size="10.00">open_output_files</text>
</a>
</g>
</g>
<!-- Node7&#45;&gt;Node8 -->
<g id="edge7" class="edge">
<title>Node7&#45;&gt;Node8</title>
<path fill="none" stroke="midnightblue" d="M168.6,-223C190.17,-223 222.58,-223 250.45,-223"/>
<polygon fill="midnightblue" stroke="midnightblue" points="250.49,-226.5 260.49,-223 250.49,-219.5 250.49,-226.5"/>
</g>
<!-- Node9 -->
<g id="node9" class="node">
<title>Node9</title>
<g id="a_node9"><a xlink:href="../../d0/d29/namespacesafe__open__mod.html#aab207f9769415b0cccd91260a8382eeb" target="_top" xlink:title=" ">
<polygon fill="white" stroke="black" points="405,-203.5 405,-222.5 540,-222.5 540,-203.5 405,-203.5"/>
<text text-anchor="middle" x="472.5" y="-210.5" font-family="Helvetica,sans-Serif" font-size="10.00">safe_open_mod::safe_open</text>
</a>
</g>
</g>
<!-- Node8&#45;&gt;Node9 -->
<g id="edge8" class="edge">
<title>Node8&#45;&gt;Node9</title>
<path fill="none" stroke="midnightblue" d="M352.75,-220.24C365.72,-219.45 380.23,-218.56 394.54,-217.69"/>
<polygon fill="midnightblue" stroke="midnightblue" points="395.14,-221.16 404.9,-217.06 394.71,-214.18 395.14,-221.16"/>
</g>
<!-- Node10&#45;&gt;Node10 -->
<g id="edge10" class="edge">
<title>Node10&#45;&gt;Node10</title>
<path fill="none" stroke="midnightblue" d="M124.7,-176.76C115.55,-185.57 121.82,-195 143.5,-195 157.39,-195 164.96,-191.13 166.19,-186.03"/>
<polygon fill="midnightblue" stroke="midnightblue" points="169.4,-184.62 162.3,-176.76 162.94,-187.33 169.4,-184.62"/>
</g>
<!-- Node11&#45;&gt;Node9 -->
<g id="edge13" class="edge">
<title>Node11&#45;&gt;Node9</title>
<path fill="none" stroke="midnightblue" d="M177.17,-137.6C187.19,-140.55 198.16,-144.1 208,-148 224.63,-154.59 227.1,-160.14 244,-166 292.89,-182.95 349.91,-194.71 394.64,-202.23"/>
<polygon fill="midnightblue" stroke="midnightblue" points="394.14,-205.7 404.57,-203.87 395.27,-198.79 394.14,-205.7"/>
</g>
<!-- Node12 -->
<g id="node12" class="node">
<title>Node12</title>
<g id="a_node12"><a xlink:href="../../d8/dbf/namespacevmec__input.html#a02b29863a947531e6c4e8d7c66c5a5e0" target="_top" xlink:title=" ">
<polygon fill="white" stroke="black" points="245.5,-126 245.5,-156 367.5,-156 367.5,-126 245.5,-126"/>
<text text-anchor="start" x="253.5" y="-144" font-family="Helvetica,sans-Serif" font-size="10.00">vmec_input::read_indata</text>
<text text-anchor="middle" x="306.5" y="-133" font-family="Helvetica,sans-Serif" font-size="10.00">_namelist</text>
</a>
</g>
</g>
<!-- Node11&#45;&gt;Node12 -->
<g id="edge12" class="edge">
<title>Node11&#45;&gt;Node12</title>
<path fill="none" stroke="midnightblue" d="M177.08,-131.43C193.82,-132.68 214.91,-134.25 235.14,-135.76"/>
<polygon fill="midnightblue" stroke="midnightblue" points="235.06,-139.26 245.29,-136.51 235.58,-132.28 235.06,-139.26"/>
</g>
<!-- Node13 -->
<g id="node13" class="node">
<title>Node13</title>
<g id="a_node13"><a xlink:href="../../d2/d04/namespacevacmod0.html#a4be777018e003400355a27b190d7d39a" target="_top" xlink:title=" ">
<polygon fill="white" stroke="black" points="253,-77 253,-107 360,-107 360,-77 253,-77"/>
<text text-anchor="start" x="261" y="-95" font-family="Helvetica,sans-Serif" font-size="10.00">vacmod0::set_nestor</text>
<text text-anchor="middle" x="306.5" y="-84" font-family="Helvetica,sans-Serif" font-size="10.00">_sizes</text>
</a>
</g>
</g>
<!-- Node11&#45;&gt;Node13 -->
<g id="edge14" class="edge">
<title>Node11&#45;&gt;Node13</title>
<path fill="none" stroke="midnightblue" d="M177.08,-121.51C195.97,-117.17 220.39,-111.56 242.86,-106.39"/>
<polygon fill="midnightblue" stroke="midnightblue" points="243.72,-109.79 252.69,-104.14 242.16,-102.97 243.72,-109.79"/>
</g>
<!-- Node15 -->
<g id="node15" class="node">
<title>Node15</title>
<g id="a_node15"><a xlink:href="../../d1/d41/namespacemgrid__mod.html#acadb9c6d09345e3d8f91f5800ad7d452" target="_top" xlink:title=" ">
<polygon fill="white" stroke="black" points="244,-38.5 244,-57.5 369,-57.5 369,-38.5 244,-38.5"/>
<text text-anchor="middle" x="306.5" y="-45.5" font-family="Helvetica,sans-Serif" font-size="10.00">mgrid_mod::assign_bptrs</text>
</a>
</g>
</g>
<!-- Node14&#45;&gt;Node15 -->
<g id="edge16" class="edge">
<title>Node14&#45;&gt;Node15</title>
<path fill="none" stroke="midnightblue" d="M202.17,-48C212.43,-48 223.22,-48 233.81,-48"/>
<polygon fill="midnightblue" stroke="midnightblue" points="233.88,-51.5 243.88,-48 233.88,-44.5 233.88,-51.5"/>
</g>
<!-- Node16 -->
<g id="node16" class="node">
<title>Node16</title>
<g id="a_node16"><a xlink:href="../../d1/d41/namespacemgrid__mod.html#aa4818ade7a169c68f8b7c3a225fd287e" target="_top" xlink:title=" ">
<polygon fill="white" stroke="black" points="248.5,-0.5 248.5,-19.5 364.5,-19.5 364.5,-0.5 248.5,-0.5"/>
<text text-anchor="middle" x="306.5" y="-7.5" font-family="Helvetica,sans-Serif" font-size="10.00">mgrid_mod::sum_bfield</text>
</a>
</g>
</g>
<!-- Node14&#45;&gt;Node16 -->
<g id="edge17" class="edge">
<title>Node14&#45;&gt;Node16</title>
<path fill="none" stroke="midnightblue" d="M185.13,-38.41C206.47,-33.37 232.81,-27.16 255.41,-21.82"/>
<polygon fill="midnightblue" stroke="midnightblue" points="256.24,-25.22 265.17,-19.52 254.63,-18.41 256.24,-25.22"/>
</g>
</g>
</svg>
