<?xml version="1.0" encoding="UTF-8" standalone="no"?>
<!DOCTYPE svg PUBLIC "-//W3C//DTD SVG 1.1//EN"
 "http://www.w3.org/Graphics/SVG/1.1/DTD/svg11.dtd">
<!-- Generated by graphviz version 2.49.3 (20211027.1501)
 -->
<!-- Title: readin Pages: 1 -->
<svg width="536pt" height="317pt"
 viewBox="0.00 0.00 536.00 317.00" xmlns="http://www.w3.org/2000/svg" xmlns:xlink="http://www.w3.org/1999/xlink">
<g id="graph0" class="graph" transform="scale(1 1) rotate(0) translate(4 313)">
<title>readin</title>
<polygon fill="white" stroke="transparent" points="-4,4 -4,-313 532,-313 532,4 -4,4"/>
<!-- Node1 -->
<g id="node1" class="node">
<title>Node1</title>
<g id="a_node1"><a xlink:title="Read the input file.">
<polygon fill="#bfbfbf" stroke="black" points="0,-172.5 0,-191.5 43,-191.5 43,-172.5 0,-172.5"/>
<text text-anchor="middle" x="21.5" y="-179.5" font-family="Helvetica,sans-Serif" font-size="10.00">readin</text>
</a>
</g>
</g>
<!-- Node2 -->
<g id="node2" class="node">
<title>Node2</title>
<g id="a_node2"><a xlink:href="../../d7/d8c/allocate__nunv_8f90.html#a1fb4098498daa9bd7a8487120397c1a7" target="_top" xlink:title="allocate arrays depending on the number of Fourier coefficients nunv">
<polygon fill="white" stroke="black" points="99,-251.5 99,-270.5 176,-270.5 176,-251.5 99,-251.5"/>
<text text-anchor="middle" x="137.5" y="-258.5" font-family="Helvetica,sans-Serif" font-size="10.00">allocate_nunv</text>
</a>
</g>
</g>
<!-- Node1&#45;&gt;Node2 -->
<g id="edge1" class="edge">
<title>Node1&#45;&gt;Node2</title>
<path fill="none" stroke="midnightblue" d="M29.93,-191.72C39.89,-204.19 58.69,-225.76 79,-239 83.93,-242.22 89.41,-245.07 94.96,-247.56"/>
<polygon fill="midnightblue" stroke="midnightblue" points="93.72,-250.83 104.3,-251.42 96.39,-244.36 93.72,-250.83"/>
</g>
<!-- Node6 -->
<g id="node6" class="node">
<title>Node6</title>
<g id="a_node6"><a xlink:href="../../d6/d36/flip__theta_8f90.html#a16e285a484c4af6298538139aa2312b7" target="_top" xlink:title="Flip the definition of the poloidal angle in the user&#45;provided initial guess for the LCFS geometry.">
<polygon fill="white" stroke="black" points="109.5,-210.5 109.5,-229.5 165.5,-229.5 165.5,-210.5 109.5,-210.5"/>
<text text-anchor="middle" x="137.5" y="-217.5" font-family="Helvetica,sans-Serif" font-size="10.00">flip_theta</text>
</a>
</g>
</g>
<!-- Node1&#45;&gt;Node6 -->
<g id="edge5" class="edge">
<title>Node1&#45;&gt;Node6</title>
<path fill="none" stroke="midnightblue" d="M43.15,-188.97C53.85,-192.58 67.12,-197.04 79,-201 85.63,-203.21 92.7,-205.56 99.53,-207.82"/>
<polygon fill="midnightblue" stroke="midnightblue" points="98.69,-211.23 109.29,-211.04 100.89,-204.58 98.69,-211.23"/>
</g>
<!-- Node7 -->
<g id="node7" class="node">
<title>Node7</title>
<g id="a_node7"><a xlink:href="../../d0/d4c/heading_8f90.html#aacf288f9cc770199b74d2e6fcc374450" target="_top" xlink:title="Open output files and print banner message at the top.">
<polygon fill="white" stroke="black" points="112.5,-172.5 112.5,-191.5 162.5,-191.5 162.5,-172.5 112.5,-172.5"/>
<text text-anchor="middle" x="137.5" y="-179.5" font-family="Helvetica,sans-Serif" font-size="10.00">heading</text>
</a>
</g>
</g>
<!-- Node1&#45;&gt;Node7 -->
<g id="edge6" class="edge">
<title>Node1&#45;&gt;Node7</title>
<path fill="none" stroke="midnightblue" d="M43.14,-182C59.6,-182 83,-182 102.25,-182"/>
<polygon fill="midnightblue" stroke="midnightblue" points="102.45,-185.5 112.45,-182 102.45,-178.5 102.45,-185.5"/>
</g>
<!-- Node10 -->
<g id="node10" class="node">
<title>Node10</title>
<g id="a_node10"><a xlink:href="../../d4/dc8/read__indata_8f90.html#a93b4b27202925d5f2783e8a4da81a8d7" target="_top" xlink:title="Read the INDATA namelist from a given input file.">
<polygon fill="white" stroke="black" points="104,-132.5 104,-151.5 171,-151.5 171,-132.5 104,-132.5"/>
<text text-anchor="middle" x="137.5" y="-139.5" font-family="Helvetica,sans-Serif" font-size="10.00">read_indata</text>
</a>
</g>
</g>
<!-- Node1&#45;&gt;Node10 -->
<g id="edge9" class="edge">
<title>Node1&#45;&gt;Node10</title>
<path fill="none" stroke="midnightblue" d="M43.14,-174.76C58.88,-169.23 80.96,-161.49 99.7,-154.91"/>
<polygon fill="midnightblue" stroke="midnightblue" points="100.86,-158.21 109.14,-151.6 98.54,-151.61 100.86,-158.21"/>
</g>
<!-- Node13 -->
<g id="node13" class="node">
<title>Node13</title>
<g id="a_node13"><a xlink:href="../../d1/d41/namespacemgrid__mod.html#a202373a45f0c5b1f81076da92a1123d0" target="_top" xlink:title=" ">
<polygon fill="white" stroke="black" points="79,-38.5 79,-57.5 196,-57.5 196,-38.5 79,-38.5"/>
<text text-anchor="middle" x="137.5" y="-45.5" font-family="Helvetica,sans-Serif" font-size="10.00">mgrid_mod::read_mgrid</text>
</a>
</g>
</g>
<!-- Node1&#45;&gt;Node13 -->
<g id="edge13" class="edge">
<title>Node1&#45;&gt;Node13</title>
<path fill="none" stroke="midnightblue" d="M30.7,-172.36C49.76,-149.96 97.29,-94.09 121.62,-65.49"/>
<polygon fill="midnightblue" stroke="midnightblue" points="124.56,-67.43 128.38,-57.55 119.23,-62.9 124.56,-67.43"/>
</g>
<!-- Node3 -->
<g id="node3" class="node">
<title>Node3</title>
<g id="a_node3"><a xlink:href="../../dd/df2/namespacevacmod.html#a30b88ea77408f43e1bedf2c11c0f8d1a" target="_top" xlink:title=" ">
<polygon fill="white" stroke="black" points="233.5,-289.5 233.5,-308.5 355.5,-308.5 355.5,-289.5 233.5,-289.5"/>
<text text-anchor="middle" x="294.5" y="-296.5" font-family="Helvetica,sans-Serif" font-size="10.00">vacmod::allocate_nestor</text>
</a>
</g>
</g>
<!-- Node2&#45;&gt;Node3 -->
<g id="edge2" class="edge">
<title>Node2&#45;&gt;Node3</title>
<path fill="none" stroke="midnightblue" d="M176.02,-270.2C196.69,-275.27 222.58,-281.61 244.79,-287.06"/>
<polygon fill="midnightblue" stroke="midnightblue" points="244.16,-290.51 254.71,-289.49 245.83,-283.71 244.16,-290.51"/>
</g>
<!-- Node4 -->
<g id="node4" class="node">
<title>Node4</title>
<g id="a_node4"><a xlink:href="../../de/dd6/free__mem__nunv_8f90.html#af9db130c860b00078874db28a8805226" target="_top" xlink:title="Free arrays depending on the number of Fourier coefficients nunv.">
<polygon fill="white" stroke="black" points="251.5,-251.5 251.5,-270.5 337.5,-270.5 337.5,-251.5 251.5,-251.5"/>
<text text-anchor="middle" x="294.5" y="-258.5" font-family="Helvetica,sans-Serif" font-size="10.00">free_mem_nunv</text>
</a>
</g>
</g>
<!-- Node2&#45;&gt;Node4 -->
<g id="edge3" class="edge">
<title>Node2&#45;&gt;Node4</title>
<path fill="none" stroke="midnightblue" d="M176.02,-261C195.58,-261 219.81,-261 241.18,-261"/>
<polygon fill="midnightblue" stroke="midnightblue" points="241.41,-264.5 251.41,-261 241.41,-257.5 241.41,-264.5"/>
</g>
<!-- Node5 -->
<g id="node5" class="node">
<title>Node5</title>
<g id="a_node5"><a xlink:href="../../dd/df2/namespacevacmod.html#ade3824460b4eb61403c35f6abe95cd89" target="_top" xlink:title=" ">
<polygon fill="white" stroke="black" points="395,-251.5 395,-270.5 526,-270.5 526,-251.5 395,-251.5"/>
<text text-anchor="middle" x="460.5" y="-258.5" font-family="Helvetica,sans-Serif" font-size="10.00">vacmod::free_mem_nestor</text>
</a>
</g>
</g>
<!-- Node4&#45;&gt;Node5 -->
<g id="edge4" class="edge">
<title>Node4&#45;&gt;Node5</title>
<path fill="none" stroke="midnightblue" d="M337.73,-261C351.98,-261 368.34,-261 384.35,-261"/>
<polygon fill="midnightblue" stroke="midnightblue" points="384.8,-264.5 394.8,-261 384.8,-257.5 384.8,-264.5"/>
</g>
<!-- Node8 -->
<g id="node8" class="node">
<title>Node8</title>
<g id="a_node8"><a xlink:href="../../d2/dc3/open__output__files_8f90.html#a8e2e97aad77c7099fa003f98f48d4dfc" target="_top" xlink:title="Open output files.">
<polygon fill="white" stroke="black" points="248.5,-213.5 248.5,-232.5 340.5,-232.5 340.5,-213.5 248.5,-213.5"/>
<text text-anchor="middle" x="294.5" y="-220.5" font-family="Helvetica,sans-Serif" font-size="10.00">open_output_files</text>
</a>
</g>
</g>
<!-- Node7&#45;&gt;Node8 -->
<g id="edge7" class="edge">
<title>Node7&#45;&gt;Node8</title>
<path fill="none" stroke="midnightblue" d="M162.72,-188.41C185.32,-194.38 219.63,-203.46 247.44,-210.82"/>
<polygon fill="midnightblue" stroke="midnightblue" points="246.79,-214.27 257.36,-213.44 248.58,-207.5 246.79,-214.27"/>
</g>
<!-- Node9 -->
<g id="node9" class="node">
<title>Node9</title>
<g id="a_node9"><a xlink:href="../../d0/d29/namespacesafe__open__mod.html#aab207f9769415b0cccd91260a8382eeb" target="_top" xlink:title=" ">
<polygon fill="white" stroke="black" points="393,-194.5 393,-213.5 528,-213.5 528,-194.5 393,-194.5"/>
<text text-anchor="middle" x="460.5" y="-201.5" font-family="Helvetica,sans-Serif" font-size="10.00">safe_open_mod::safe_open</text>
</a>
</g>
</g>
<!-- Node8&#45;&gt;Node9 -->
<g id="edge8" class="edge">
<title>Node8&#45;&gt;Node9</title>
<path fill="none" stroke="midnightblue" d="M340.75,-217.76C353.84,-216.24 368.52,-214.54 382.96,-212.87"/>
<polygon fill="midnightblue" stroke="midnightblue" points="383.37,-216.34 392.9,-211.72 382.57,-209.39 383.37,-216.34"/>
</g>
<!-- Node10&#45;&gt;Node9 -->
<g id="edge11" class="edge">
<title>Node10&#45;&gt;Node9</title>
<path fill="none" stroke="midnightblue" d="M171.22,-151.13C189.1,-155.94 211.67,-161.7 232,-166 281.98,-176.57 338.63,-186.04 382.91,-192.88"/>
<polygon fill="midnightblue" stroke="midnightblue" points="382.6,-196.38 393.02,-194.43 383.66,-189.46 382.6,-196.38"/>
</g>
<!-- Node11 -->
<g id="node11" class="node">
<title>Node11</title>
<g id="a_node11"><a xlink:href="../../d8/dbf/namespacevmec__input.html#a02b29863a947531e6c4e8d7c66c5a5e0" target="_top" xlink:title=" ">
<polygon fill="white" stroke="black" points="233.5,-126 233.5,-156 355.5,-156 355.5,-126 233.5,-126"/>
<text text-anchor="start" x="241.5" y="-144" font-family="Helvetica,sans-Serif" font-size="10.00">vmec_input::read_indata</text>
<text text-anchor="middle" x="294.5" y="-133" font-family="Helvetica,sans-Serif" font-size="10.00">_namelist</text>
</a>
</g>
</g>
<!-- Node10&#45;&gt;Node11 -->
<g id="edge10" class="edge">
<title>Node10&#45;&gt;Node11</title>
<path fill="none" stroke="midnightblue" d="M171.37,-141.79C186.59,-141.69 205.3,-141.57 223.45,-141.45"/>
<polygon fill="midnightblue" stroke="midnightblue" points="223.48,-144.95 233.46,-141.39 223.43,-137.95 223.48,-144.95"/>
</g>
<!-- Node12 -->
<g id="node12" class="node">
<title>Node12</title>
<g id="a_node12"><a xlink:href="../../d2/d04/namespacevacmod0.html#a4be777018e003400355a27b190d7d39a" target="_top" xlink:title=" ">
<polygon fill="white" stroke="black" points="241,-77 241,-107 348,-107 348,-77 241,-77"/>
<text text-anchor="start" x="249" y="-95" font-family="Helvetica,sans-Serif" font-size="10.00">vacmod0::set_nestor</text>
<text text-anchor="middle" x="294.5" y="-84" font-family="Helvetica,sans-Serif" font-size="10.00">_sizes</text>
</a>
</g>
</g>
<!-- Node10&#45;&gt;Node12 -->
<g id="edge12" class="edge">
<title>Node10&#45;&gt;Node12</title>
<path fill="none" stroke="midnightblue" d="M168.02,-132.48C187.46,-126.21 213.55,-117.79 236.9,-110.26"/>
<polygon fill="midnightblue" stroke="midnightblue" points="238.27,-113.49 246.72,-107.09 236.12,-106.83 238.27,-113.49"/>
</g>
<!-- Node14 -->
<g id="node14" class="node">
<title>Node14</title>
<g id="a_node14"><a xlink:href="../../d1/d41/namespacemgrid__mod.html#acadb9c6d09345e3d8f91f5800ad7d452" target="_top" xlink:title=" ">
<polygon fill="white" stroke="black" points="232,-38.5 232,-57.5 357,-57.5 357,-38.5 232,-38.5"/>
<text text-anchor="middle" x="294.5" y="-45.5" font-family="Helvetica,sans-Serif" font-size="10.00">mgrid_mod::assign_bptrs</text>
</a>
</g>
</g>
<!-- Node13&#45;&gt;Node14 -->
<g id="edge14" class="edge">
<title>Node13&#45;&gt;Node14</title>
<path fill="none" stroke="midnightblue" d="M196.22,-48C204.57,-48 213.25,-48 221.83,-48"/>
<polygon fill="midnightblue" stroke="midnightblue" points="221.84,-51.5 231.84,-48 221.84,-44.5 221.84,-51.5"/>
</g>
<!-- Node15 -->
<g id="node15" class="node">
<title>Node15</title>
<g id="a_node15"><a xlink:href="../../d1/d41/namespacemgrid__mod.html#aa4818ade7a169c68f8b7c3a225fd287e" target="_top" xlink:title=" ">
<polygon fill="white" stroke="black" points="236.5,-0.5 236.5,-19.5 352.5,-19.5 352.5,-0.5 236.5,-0.5"/>
<text text-anchor="middle" x="294.5" y="-7.5" font-family="Helvetica,sans-Serif" font-size="10.00">mgrid_mod::sum_bfield</text>
</a>
</g>
</g>
<!-- Node13&#45;&gt;Node15 -->
<g id="edge15" class="edge">
<title>Node13&#45;&gt;Node15</title>
<path fill="none" stroke="midnightblue" d="M177.61,-38.41C197.97,-33.42 223.07,-27.27 244.69,-21.97"/>
<polygon fill="midnightblue" stroke="midnightblue" points="245.79,-25.3 254.67,-19.52 244.12,-18.5 245.79,-25.3"/>
</g>
</g>
</svg>
