<?xml version="1.0" encoding="UTF-8" standalone="no"?>
<!DOCTYPE svg PUBLIC "-//W3C//DTD SVG 1.1//EN"
 "http://www.w3.org/Graphics/SVG/1.1/DTD/svg11.dtd">
<!-- Generated by graphviz version 12.0.0 (20240704.0754)
 -->
<!-- Title: readin Pages: 1 -->
<!--zoomable 331 -->

<svg id="main" version="1.1" xmlns="http://www.w3.org/2000/svg" xmlns:xlink="http://www.w3.org/1999/xlink" xml:space="preserve" onload="init(evt)">

<style type="text/css"><![CDATA[
.node, .edge {opacity: 0.7;}
.node.selected, .edge.selected {opacity: 1;}
.edge:hover path { stroke: red; }
.edge:hover polygon { stroke: red; fill: red; }
]]></style>

<defs>
  <circle id="rim" cx="0" cy="0" r="7"/>
  <circle id="rim2" cx="0" cy="0" r="3.5"/>
  <g id="zoomPlus">
    <use xlink:href="#rim" fill="#404040"><set attributeName="fill" to="#808080" begin="zoomplus.mouseover" end="zoomplus.mouseout"/></use>
    <path d="M-4,0h8M0,-4v8" fill="none" stroke="white" stroke-width="1.5" pointer-events="none"/>
  </g>
  <g id="zoomMin">
    <use xlink:href="#rim" fill="#404040"><set attributeName="fill" to="#808080" begin="zoomminus.mouseover" end="zoomminus.mouseout"/></use>
    <path d="M-4,0h8" fill="none" stroke="white" stroke-width="1.5" pointer-events="none"/>
  </g>
  <g id="arrowUp" transform="translate(30 24)">
    <use xlink:href="#rim"/>
    <path pointer-events="none" fill="none" stroke="white" stroke-width="1.5" d="M0,-3.0v7 M-2.5,-0.5L0,-3.0L2.5,-0.5"/>
  </g>
  <g id="arrowRight" transform="rotate(90) translate(36 -43)">
    <use xlink:href="#rim"/>
    <path pointer-events="none" fill="none" stroke="white" stroke-width="1.5" d="M0,-3.0v7 M-2.5,-0.5L0,-3.0L2.5,-0.5"/>
  </g>
  <g id="arrowDown" transform="rotate(180) translate(-30 -48)">
    <use xlink:href="#rim"/>
    <path pointer-events="none" fill="none" stroke="white" stroke-width="1.5" d="M0,-3.0v7 M-2.5,-0.5L0,-3.0L2.5,-0.5"/>
  </g>
  <g id="arrowLeft" transform="rotate(270) translate(-36 17)">
    <use xlink:href="#rim"/>
    <path pointer-events="none" fill="none" stroke="white" stroke-width="1.5" d="M0,-3.0v7 M-2.5,-0.5L0,-3.0L2.5,-0.5"/>
  </g>
  <g id="resetDef">
    <use xlink:href="#rim2" fill="#404040"><set attributeName="fill" to="#808080" begin="reset.mouseover" end="reset.mouseout"/></use>
  </g>
</defs>
<script type="application/ecmascript">
var viewWidth = 542;
var viewHeight = 331;
var sectionId = 'dynsection-0';
</script>
<script type="application/ecmascript" xlink:href="../../svg.min.js"/>
<svg id="graph" class="graph">
<g id="viewport">
<title>readin</title>
<!-- Node1 -->
<g id="Node000001" class="node">
<title>Node1</title>
<g id="a_Node000001"><a xlink:title="Read the input file.">
<polygon fill="#999999" stroke="#666666" points="42.25,-202.25 0,-202.25 0,-183 42.25,-183 42.25,-202.25"/>
<text text-anchor="middle" x="21.12" y="-188.75" font-family="Helvetica,sans-Serif" font-size="10.00">readin</text>
</a>
</g>
</g>
<!-- Node2 -->
<g id="Node000002" class="node">
<title>Node2</title>
<g id="a_Node000002"><a xlink:href="../../d7/d8c/allocate__nunv_8f90.html#a1fb4098498daa9bd7a8487120397c1a7" target="_top" xlink:title="allocate arrays depending on the number of Fourier coefficients nunv">
<polygon fill="white" stroke="#666666" points="180.5,-304.25 104.5,-304.25 104.5,-285 180.5,-285 180.5,-304.25"/>
<text text-anchor="middle" x="142.5" y="-290.75" font-family="Helvetica,sans-Serif" font-size="10.00">allocate_nunv</text>
</a>
</g>
</g>
<!-- Node1&#45;&gt;Node2 -->
<g id="edge1_Node000001_Node000002" class="edge">
<title>Node1&#45;&gt;Node2</title>
<g id="a_edge1_Node000001_Node000002"><a xlink:title=" ">
<path fill="none" stroke="#63b8ff" d="M26.02,-202.58C33.44,-220.24 51.31,-257.01 78.25,-276.62 82.86,-279.98 88.08,-282.72 93.5,-284.94"/>
<polygon fill="#63b8ff" stroke="#63b8ff" points="92.02,-288.13 102.62,-288.12 94.33,-281.52 92.02,-288.13"/>
</a>
</g>
</g>
<!-- Node6 -->
<g id="Node000006" class="node">
<title>Node6</title>
<g id="a_Node000006"><a xlink:href="../../d2/d33/namespacetheta__flip.html#a1177c598a2b1378ae34fecfba906634d" target="_top" xlink:title="Flip the definition of the poloidal angle in the user&#45;provided initial guess for the LCFS geometry.">
<polygon fill="white" stroke="#666666" points="191.75,-267.25 93.25,-267.25 93.25,-248 191.75,-248 191.75,-267.25"/>
<text text-anchor="middle" x="142.5" y="-253.75" font-family="Helvetica,sans-Serif" font-size="10.00">theta_flip::flip_theta</text>
</a>
</g>
</g>
<!-- Node1&#45;&gt;Node6 -->
<g id="edge5_Node000001_Node000006" class="edge">
<title>Node1&#45;&gt;Node6</title>
<g id="a_edge5_Node000001_Node000006"><a xlink:title=" ">
<path fill="none" stroke="#63b8ff" d="M31.52,-202.69C41.98,-213.32 59.83,-229.87 78.25,-239.62 80.9,-241.03 83.68,-242.34 86.52,-243.55"/>
<polygon fill="#63b8ff" stroke="#63b8ff" points="85.01,-246.72 95.61,-247 87.5,-240.18 85.01,-246.72"/>
</a>
</g>
</g>
<!-- Node7 -->
<g id="Node000007" class="node">
<title>Node7</title>
<g id="a_Node000007"><a xlink:href="../../d0/d4c/heading_8f90.html#aacf288f9cc770199b74d2e6fcc374450" target="_top" xlink:title="Open output files and print banner message at the top.">
<polygon fill="white" stroke="#666666" points="167.38,-230.25 117.62,-230.25 117.62,-211 167.38,-211 167.38,-230.25"/>
<text text-anchor="middle" x="142.5" y="-216.75" font-family="Helvetica,sans-Serif" font-size="10.00">heading</text>
</a>
</g>
</g>
<!-- Node1&#45;&gt;Node7 -->
<g id="edge6_Node000001_Node000007" class="edge">
<title>Node1&#45;&gt;Node7</title>
<g id="a_edge6_Node000001_Node000007"><a xlink:title=" ">
<path fill="none" stroke="#63b8ff" d="M42.65,-197.44C60.08,-201.53 85.5,-207.49 106.2,-212.34"/>
<polygon fill="#63b8ff" stroke="#63b8ff" points="105.12,-215.69 115.66,-214.56 106.72,-208.87 105.12,-215.69"/>
</a>
</g>
</g>
<!-- Node10 -->
<g id="Node000010" class="node">
<title>Node10</title>
<g id="a_Node000010"><a xlink:href="../../d8/dfd/namespacedbgout.html#acdd1612a38e44b6469dc03d9d1c6ceed" target="_top" xlink:title="check if any output is desired for the current iteration check if the given context should be openend...">
<polygon fill="white" stroke="#666666" points="206.75,-175.25 78.25,-175.25 78.25,-156 206.75,-156 206.75,-175.25"/>
<text text-anchor="middle" x="142.5" y="-161.75" font-family="Helvetica,sans-Serif" font-size="10.00">dbgout::open_dbg_context</text>
</a>
</g>
</g>
<!-- Node1&#45;&gt;Node10 -->
<g id="edge9_Node000001_Node000010" class="edge">
<title>Node1&#45;&gt;Node10</title>
<g id="a_edge9_Node000001_Node000010"><a xlink:title=" ">
<path fill="none" stroke="#63b8ff" d="M42.65,-187.98C54.61,-185.28 70.33,-181.72 85.7,-178.25"/>
<polygon fill="#63b8ff" stroke="#63b8ff" points="86.32,-181.69 95.3,-176.07 84.78,-174.87 86.32,-181.69"/>
</a>
</g>
</g>
<!-- Node11 -->
<g id="Node000011" class="node">
<title>Node11</title>
<g id="a_Node000011"><a xlink:href="../../d4/dc8/read__indata_8f90.html#a93b4b27202925d5f2783e8a4da81a8d7" target="_top" xlink:title="Read the INDATA namelist from a given input file.">
<polygon fill="white" stroke="#666666" points="175.62,-138.25 109.38,-138.25 109.38,-119 175.62,-119 175.62,-138.25"/>
<text text-anchor="middle" x="142.5" y="-124.75" font-family="Helvetica,sans-Serif" font-size="10.00">read_indata</text>
</a>
</g>
</g>
<!-- Node1&#45;&gt;Node11 -->
<g id="edge11_Node000001_Node000011" class="edge">
<title>Node1&#45;&gt;Node11</title>
<g id="a_edge11_Node000001_Node000011"><a xlink:title=" ">
<path fill="none" stroke="#63b8ff" d="M31.57,-182.78C42.06,-172.39 59.94,-156.2 78.25,-146.62 84.49,-143.36 91.4,-140.62 98.28,-138.35"/>
<polygon fill="#63b8ff" stroke="#63b8ff" points="98.97,-141.8 107.55,-135.58 96.96,-135.09 98.97,-141.8"/>
</a>
</g>
</g>
<!-- Node14 -->
<g id="Node000014" class="node">
<title>Node14</title>
<g id="a_Node000014"><a xlink:href="../../d1/d41/namespacemgrid__mod.html#a202373a45f0c5b1f81076da92a1123d0" target="_top" xlink:title=" ">
<polygon fill="white" stroke="#666666" points="200.75,-57.25 84.25,-57.25 84.25,-38 200.75,-38 200.75,-57.25"/>
<text text-anchor="middle" x="142.5" y="-43.75" font-family="Helvetica,sans-Serif" font-size="10.00">mgrid_mod::read_mgrid</text>
</a>
</g>
</g>
<!-- Node1&#45;&gt;Node14 -->
<g id="edge15_Node000001_Node000014" class="edge">
<title>Node1&#45;&gt;Node14</title>
<g id="a_edge15_Node000001_Node000014"><a xlink:title=" ">
<path fill="none" stroke="#63b8ff" d="M27.93,-182.72C37.51,-166.68 57.64,-134.34 78.25,-109.62 91.69,-93.5 108.78,-76.95 121.81,-65"/>
<polygon fill="#63b8ff" stroke="#63b8ff" points="123.88,-67.85 128.96,-58.55 119.19,-62.65 123.88,-67.85"/>
</a>
</g>
</g>
<!-- Node3 -->
<g id="Node000003" class="node">
<title>Node3</title>
<g id="a_Node000003"><a xlink:href="../../dd/df2/namespacevacmod.html#a30b88ea77408f43e1bedf2c11c0f8d1a" target="_top" xlink:title=" ">
<polygon fill="white" stroke="#666666" points="363.75,-323.25 242.75,-323.25 242.75,-304 363.75,-304 363.75,-323.25"/>
<text text-anchor="middle" x="303.25" y="-309.75" font-family="Helvetica,sans-Serif" font-size="10.00">vacmod::allocate_nestor</text>
</a>
</g>
</g>
<!-- Node2&#45;&gt;Node3 -->
<g id="edge2_Node000002_Node000003" class="edge">
<title>Node2&#45;&gt;Node3</title>
<g id="a_edge2_Node000002_Node000003"><a xlink:title=" ">
<path fill="none" stroke="#63b8ff" d="M180.72,-299.08C195.76,-300.88 213.63,-303.02 230.99,-305.1"/>
<polygon fill="#63b8ff" stroke="#63b8ff" points="230.44,-308.55 240.78,-306.27 231.27,-301.6 230.44,-308.55"/>
</a>
</g>
</g>
<!-- Node4 -->
<g id="Node000004" class="node">
<title>Node4</title>
<g id="a_Node000004"><a xlink:href="../../de/dd6/free__mem__nunv_8f90.html#af9db130c860b00078874db28a8805226" target="_top" xlink:title="Free arrays depending on the number of Fourier coefficients nunv.">
<polygon fill="white" stroke="#666666" points="346.12,-286.25 260.38,-286.25 260.38,-267 346.12,-267 346.12,-286.25"/>
<text text-anchor="middle" x="303.25" y="-272.75" font-family="Helvetica,sans-Serif" font-size="10.00">free_mem_nunv</text>
</a>
</g>
</g>
<!-- Node2&#45;&gt;Node4 -->
<g id="edge3_Node000002_Node000004" class="edge">
<title>Node2&#45;&gt;Node4</title>
<g id="a_edge3_Node000002_Node000004"><a xlink:title=" ">
<path fill="none" stroke="#63b8ff" d="M180.72,-290.4C200.93,-288.11 226.28,-285.24 248.59,-282.71"/>
<polygon fill="#63b8ff" stroke="#63b8ff" points="248.89,-286.2 258.44,-281.59 248.11,-279.24 248.89,-286.2"/>
</a>
</g>
</g>
<!-- Node5 -->
<g id="Node000005" class="node">
<title>Node5</title>
<g id="a_Node000005"><a xlink:href="../../dd/df2/namespacevacmod.html#ade3824460b4eb61403c35f6abe95cd89" target="_top" xlink:title=" ">
<polygon fill="white" stroke="#666666" points="532.38,-286.25 401.62,-286.25 401.62,-267 532.38,-267 532.38,-286.25"/>
<text text-anchor="middle" x="467" y="-272.75" font-family="Helvetica,sans-Serif" font-size="10.00">vacmod::free_mem_nestor</text>
</a>
</g>
</g>
<!-- Node4&#45;&gt;Node5 -->
<g id="edge4_Node000004_Node000005" class="edge">
<title>Node4&#45;&gt;Node5</title>
<g id="a_edge4_Node000004_Node000005"><a xlink:title=" ">
<path fill="none" stroke="#63b8ff" d="M346.33,-276.62C359.68,-276.62 374.88,-276.62 389.86,-276.62"/>
<polygon fill="#63b8ff" stroke="#63b8ff" points="389.73,-280.13 399.73,-276.63 389.73,-273.13 389.73,-280.13"/>
</a>
</g>
</g>
<!-- Node8 -->
<g id="Node000008" class="node">
<title>Node8</title>
<g id="a_Node000008"><a xlink:href="../../d2/dc3/open__output__files_8f90.html#a8e2e97aad77c7099fa003f98f48d4dfc" target="_top" xlink:title="Open output files.">
<polygon fill="white" stroke="#666666" points="349.12,-230.25 257.38,-230.25 257.38,-211 349.12,-211 349.12,-230.25"/>
<text text-anchor="middle" x="303.25" y="-216.75" font-family="Helvetica,sans-Serif" font-size="10.00">open_output_files</text>
</a>
</g>
</g>
<!-- Node7&#45;&gt;Node8 -->
<g id="edge7_Node000007_Node000008" class="edge">
<title>Node7&#45;&gt;Node8</title>
<g id="a_edge7_Node000007_Node000008"><a xlink:title=" ">
<path fill="none" stroke="#63b8ff" d="M167.61,-220.62C188.33,-220.62 219.02,-220.62 245.87,-220.62"/>
<polygon fill="#63b8ff" stroke="#63b8ff" points="245.59,-224.13 255.59,-220.63 245.59,-217.13 245.59,-224.13"/>
</a>
</g>
</g>
<!-- Node9 -->
<g id="Node000009" class="node">
<title>Node9</title>
<g id="a_Node000009"><a xlink:href="../../d0/d29/namespacesafe__open__mod.html#aab207f9769415b0cccd91260a8382eeb" target="_top" xlink:title=" ">
<polygon fill="white" stroke="#666666" points="534.25,-192.25 399.75,-192.25 399.75,-173 534.25,-173 534.25,-192.25"/>
<text text-anchor="middle" x="467" y="-178.75" font-family="Helvetica,sans-Serif" font-size="10.00">safe_open_mod::safe_open</text>
</a>
</g>
</g>
<!-- Node8&#45;&gt;Node9 -->
<g id="edge8_Node000008_Node000009" class="edge">
<title>Node8&#45;&gt;Node9</title>
<g id="a_edge8_Node000008_Node000009"><a xlink:title=" ">
<path fill="none" stroke="#63b8ff" d="M347.17,-210.54C367.08,-205.86 390.97,-200.25 412.08,-195.29"/>
<polygon fill="#63b8ff" stroke="#63b8ff" points="412.75,-198.73 421.69,-193.04 411.15,-191.92 412.75,-198.73"/>
</a>
</g>
</g>
<!-- Node10&#45;&gt;Node10 -->
<g id="edge10_Node000010_Node000010" class="edge">
<title>Node10&#45;&gt;Node10</title>
<g id="a_edge10_Node000010_Node000010"><a xlink:title=" ">
<path fill="none" stroke="#63b8ff" d="M123.5,-175.54C114.83,-184.15 121.16,-193.25 142.5,-193.25 154.17,-193.25 161.35,-190.53 164.04,-186.65"/>
<polygon fill="#63b8ff" stroke="#63b8ff" points="167.48,-185.98 161.84,-177.01 160.66,-187.54 167.48,-185.98"/>
</a>
</g>
</g>
<!-- Node11&#45;&gt;Node9 -->
<g id="edge13_Node000011_Node000009" class="edge">
<title>Node11&#45;&gt;Node9</title>
<g id="a_edge13_Node000011_Node000009"><a xlink:title=" ">
<path fill="none" stroke="#63b8ff" d="M176.01,-136.78C185.98,-139.57 196.92,-142.93 206.75,-146.62 223.31,-152.85 225.66,-159.02 242.75,-163.62 289.99,-176.35 344.69,-181.15 388.13,-182.75"/>
<polygon fill="#63b8ff" stroke="#63b8ff" points="387.87,-186.25 397.97,-183.06 388.09,-179.25 387.87,-186.25"/>
</a>
</g>
</g>
<!-- Node12 -->
<g id="Node000012" class="node">
<title>Node12</title>
<g id="a_Node000012"><a xlink:href="../../d8/dbf/namespacevmec__input.html#a02b29863a947531e6c4e8d7c66c5a5e0" target="_top" xlink:title=" ">
<polygon fill="white" stroke="#666666" points="363.75,-154.88 242.75,-154.88 242.75,-124.38 363.75,-124.38 363.75,-154.88"/>
<text text-anchor="start" x="250.75" y="-141.38" font-family="Helvetica,sans-Serif" font-size="10.00">vmec_input::read_indata</text>
<text text-anchor="middle" x="303.25" y="-130.12" font-family="Helvetica,sans-Serif" font-size="10.00">_namelist</text>
</a>
</g>
</g>
<!-- Node11&#45;&gt;Node12 -->
<g id="edge12_Node000011_Node000012" class="edge">
<title>Node11&#45;&gt;Node12</title>
<g id="a_edge12_Node000011_Node000012"><a xlink:title=" ">
<path fill="none" stroke="#63b8ff" d="M176.01,-130.88C192.01,-131.99 211.97,-133.37 231.26,-134.71"/>
<polygon fill="#63b8ff" stroke="#63b8ff" points="230.77,-138.18 240.99,-135.38 231.26,-131.2 230.77,-138.18"/>
</a>
</g>
</g>
<!-- Node13 -->
<g id="Node000013" class="node">
<title>Node13</title>
<g id="a_Node000013"><a xlink:href="../../d2/d04/namespacevacmod0.html#a4be777018e003400355a27b190d7d39a" target="_top" xlink:title=" ">
<polygon fill="white" stroke="#666666" points="356.25,-105.88 250.25,-105.88 250.25,-75.38 356.25,-75.38 356.25,-105.88"/>
<text text-anchor="start" x="258.25" y="-92.38" font-family="Helvetica,sans-Serif" font-size="10.00">vacmod0::set_nestor</text>
<text text-anchor="middle" x="303.25" y="-81.12" font-family="Helvetica,sans-Serif" font-size="10.00">_sizes</text>
</a>
</g>
</g>
<!-- Node11&#45;&gt;Node13 -->
<g id="edge14_Node000011_Node000013" class="edge">
<title>Node11&#45;&gt;Node13</title>
<g id="a_edge14_Node000011_Node000013"><a xlink:title=" ">
<path fill="none" stroke="#63b8ff" d="M176.01,-120.84C194.08,-116.52 217.21,-110.98 238.72,-105.83"/>
<polygon fill="#63b8ff" stroke="#63b8ff" points="239.4,-109.27 248.31,-103.54 237.77,-102.46 239.4,-109.27"/>
</a>
</g>
</g>
<!-- Node14&#45;&gt;Node9 -->
<g id="edge16_Node000014_Node000009" class="edge">
<title>Node14&#45;&gt;Node9</title>
<g id="a_edge16_Node000014_Node000009"><a xlink:title=" ">
<path fill="none" stroke="#63b8ff" d="M200.95,-41.26C247.35,-38.69 313.03,-41.04 363.75,-66.62 406.3,-88.09 439.01,-135.57 455.07,-162.66"/>
<polygon fill="#63b8ff" stroke="#63b8ff" points="451.98,-164.32 459.98,-171.26 458.06,-160.85 451.98,-164.32"/>
</a>
</g>
</g>
<!-- Node15 -->
<g id="Node000015" class="node">
<title>Node15</title>
<g id="a_Node000015"><a xlink:href="../../d1/d41/namespacemgrid__mod.html#aa4818ade7a169c68f8b7c3a225fd287e" target="_top" xlink:title=" ">
<polygon fill="white" stroke="#666666" points="360.75,-19.25 245.75,-19.25 245.75,0 360.75,0 360.75,-19.25"/>
<text text-anchor="middle" x="303.25" y="-5.75" font-family="Helvetica,sans-Serif" font-size="10.00">mgrid_mod::sum_bfield</text>
</a>
</g>
</g>
<!-- Node14&#45;&gt;Node15 -->
<g id="edge17_Node000014_Node000015" class="edge">
<title>Node14&#45;&gt;Node15</title>
<g id="a_edge17_Node000014_Node000015"><a xlink:title=" ">
<path fill="none" stroke="#63b8ff" d="M185.63,-37.54C205.08,-32.88 228.39,-27.3 249.05,-22.36"/>
<polygon fill="#63b8ff" stroke="#63b8ff" points="249.82,-25.77 258.73,-20.04 248.19,-18.97 249.82,-25.77"/>
</a>
</g>
</g>
</g>
</svg>

<g id="navigator" transform="translate(0 0)" fill="#404254">
  <rect fill="#f2f5e9" fill-opacity="0.5" stroke="#606060" stroke-width=".5" x="0" y="0" width="60" height="60"/>
  <use id="zoomplus" xlink:href="#zoomPlus" x="17" y="9" onmousedown="handleZoom(evt,'in')"/>
  <use id="zoomminus" xlink:href="#zoomMin" x="42" y="9" onmousedown="handleZoom(evt,'out')"/>
  <use id="reset" xlink:href="#resetDef" x="30" y="36" onmousedown="handleReset()"/>
   <use id="arrowup" xlink:href="#arrowUp" x="0" y="0" onmousedown="handlePan(0,-1)"/>
  <use id="arrowright" xlink:href="#arrowRight" x="0" y="0" onmousedown="handlePan(1,0)"/>
  <use id="arrowdown" xlink:href="#arrowDown" x="0" y="0" onmousedown="handlePan(0,1)"/>
  <use id="arrowleft" xlink:href="#arrowLeft" x="0" y="0" onmousedown="handlePan(-1,0)"/>
</g>
<svg viewBox="0 0 15 15" width="100%" height="30px" preserveAspectRatio="xMaxYMin meet">
 <g id="arrow_out" transform="scale(0.3 0.3)">
  <a xlink:href="readin_8f90_a60f2bfd8fc6f7c3e027a8f91ef0c7b25_cgraph_org.svg" target="_base">
   <rect id="button" ry="5" rx="5" y="6" x="6" height="38" width="38"
        fill="#f2f5e9" fill-opacity="0.5" stroke="#606060" stroke-width="1.0"/>
   <path id="arrow"
     d="M 11.500037,31.436501 C 11.940474,20.09759 22.043105,11.32322 32.158766,21.979434 L 37.068811,17.246167 C 37.068811,17.246167 37.088388,32 37.088388,32 L 22.160133,31.978069 C 22.160133,31.978069 26.997745,27.140456 26.997745,27.140456 C 18.528582,18.264221 13.291696,25.230495 11.500037,31.436501 z"
     style="fill:#404040;"/>
  </a>
 </g>
</svg>

<style type='text/css'>
<![CDATA[
[data-mouse-over-selected='false'] { opacity: 0.7; }
[data-mouse-over-selected='true']  { opacity: 1.0; }
]]>
</style>
<script type="application/ecmascript"><![CDATA[
document.addEventListener('DOMContentLoaded', (event) => {
  highlightEdges();
  highlightAdjacentNodes();
});
]]></script>
</svg>
