<?xml version="1.0" encoding="UTF-8" standalone="no"?>
<!DOCTYPE svg PUBLIC "-//W3C//DTD SVG 1.1//EN"
 "http://www.w3.org/Graphics/SVG/1.1/DTD/svg11.dtd">
<!-- Generated by graphviz version 8.0.1 (20230327.1645)
 -->
<!-- Title: readin Pages: 1 -->
<svg width="545pt" height="329pt"
 viewBox="0.00 0.00 545.00 329.00" xmlns="http://www.w3.org/2000/svg" xmlns:xlink="http://www.w3.org/1999/xlink">
<g id="graph0" class="graph" transform="scale(1 1) rotate(0) translate(4 325)">
<title>readin</title>
<!-- Node1 -->
<g id="node1" class="node">
<title>Node1</title>
<g id="a_node1"><a xlink:title="Read the input file.">
<polygon fill="#999999" stroke="#666666" points="43,-201 0,-201 0,-182 43,-182 43,-201"/>
<text text-anchor="middle" x="21.5" y="-189" font-family="Helvetica,sans-Serif" font-size="10.00">readin</text>
</a>
</g>
</g>
<!-- Node2 -->
<g id="node2" class="node">
<title>Node2</title>
<g id="a_node2"><a xlink:href="../../d7/d8c/allocate__nunv_8f90.html#a1fb4098498daa9bd7a8487120397c1a7" target="_top" xlink:title="allocate arrays depending on the number of Fourier coefficients nunv">
<polygon fill="white" stroke="#666666" points="182,-303 105,-303 105,-284 182,-284 182,-303"/>
<text text-anchor="middle" x="143.5" y="-291" font-family="Helvetica,sans-Serif" font-size="10.00">allocate_nunv</text>
</a>
</g>
</g>
<!-- Node1&#45;&gt;Node2 -->
<g id="edge1" class="edge">
<title>Node1&#45;&gt;Node2</title>
<path fill="none" stroke="#63b8ff" d="M26.44,-201.46C33.94,-219.12 51.97,-255.9 79,-275.5 83.7,-278.91 89.02,-281.67 94.53,-283.91"/>
<polygon fill="#63b8ff" stroke="#63b8ff" points="92.99,-287.42 103.58,-287.4 95.29,-280.81 92.99,-287.42"/>
</g>
<!-- Node6 -->
<g id="node6" class="node">
<title>Node6</title>
<g id="a_node6"><a xlink:href="../../d2/d33/namespacetheta__flip.html#a1177c598a2b1378ae34fecfba906634d" target="_top" xlink:title="Flip the definition of the poloidal angle in the user&#45;provided initial guess for the LCFS geometry.">
<polygon fill="white" stroke="#666666" points="193,-266 94,-266 94,-247 193,-247 193,-266"/>
<text text-anchor="middle" x="143.5" y="-254" font-family="Helvetica,sans-Serif" font-size="10.00">theta_flip::flip_theta</text>
</a>
</g>
</g>
<!-- Node1&#45;&gt;Node6 -->
<g id="edge5" class="edge">
<title>Node1&#45;&gt;Node6</title>
<path fill="none" stroke="#63b8ff" d="M31.59,-201.18C42.07,-211.79 60.26,-228.62 79,-238.5 81.9,-240.03 84.94,-241.44 88.06,-242.74"/>
<polygon fill="#63b8ff" stroke="#63b8ff" points="86.6,-246.3 97.19,-246.53 89.05,-239.75 86.6,-246.3"/>
</g>
<!-- Node7 -->
<g id="node7" class="node">
<title>Node7</title>
<g id="a_node7"><a xlink:href="../../d0/d4c/heading_8f90.html#aacf288f9cc770199b74d2e6fcc374450" target="_top" xlink:title="Open output files and print banner message at the top.">
<polygon fill="white" stroke="#666666" points="168.5,-229 118.5,-229 118.5,-210 168.5,-210 168.5,-229"/>
<text text-anchor="middle" x="143.5" y="-217" font-family="Helvetica,sans-Serif" font-size="10.00">heading</text>
</a>
</g>
</g>
<!-- Node1&#45;&gt;Node7 -->
<g id="edge6" class="edge">
<title>Node1&#45;&gt;Node7</title>
<path fill="none" stroke="#63b8ff" d="M43.4,-196.38C61.05,-200.49 86.68,-206.48 107.46,-211.32"/>
<polygon fill="#63b8ff" stroke="#63b8ff" points="106.58,-214.95 117.12,-213.81 108.17,-208.13 106.58,-214.95"/>
</g>
<!-- Node10 -->
<g id="node10" class="node">
<title>Node10</title>
<g id="a_node10"><a xlink:href="../../d8/dfd/namespacedbgout.html#acdd1612a38e44b6469dc03d9d1c6ceed" target="_top" xlink:title="check if any output is desired for the current iteration check if the given context should be openend...">
<polygon fill="white" stroke="#666666" points="208,-174 79,-174 79,-155 208,-155 208,-174"/>
<text text-anchor="middle" x="143.5" y="-162" font-family="Helvetica,sans-Serif" font-size="10.00">dbgout::open_dbg_context</text>
</a>
</g>
</g>
<!-- Node1&#45;&gt;Node10 -->
<g id="edge9" class="edge">
<title>Node1&#45;&gt;Node10</title>
<path fill="none" stroke="#63b8ff" d="M43.4,-186.8C55.85,-184 72.28,-180.3 88.17,-176.72"/>
<polygon fill="#63b8ff" stroke="#63b8ff" points="88.5,-180.01 97.49,-174.4 86.96,-173.18 88.5,-180.01"/>
</g>
<!-- Node11 -->
<g id="node11" class="node">
<title>Node11</title>
<g id="a_node11"><a xlink:href="../../d4/dc8/read__indata_8f90.html#a93b4b27202925d5f2783e8a4da81a8d7" target="_top" xlink:title="Read the INDATA namelist from a given input file.">
<polygon fill="white" stroke="#666666" points="177,-137 110,-137 110,-118 177,-118 177,-137"/>
<text text-anchor="middle" x="143.5" y="-125" font-family="Helvetica,sans-Serif" font-size="10.00">read_indata</text>
</a>
</g>
</g>
<!-- Node1&#45;&gt;Node11 -->
<g id="edge11" class="edge">
<title>Node1&#45;&gt;Node11</title>
<path fill="none" stroke="#63b8ff" d="M32.48,-181.56C43.15,-171.43 61,-155.91 79,-146.5 85.37,-143.17 92.42,-140.33 99.43,-137.95"/>
<polygon fill="#63b8ff" stroke="#63b8ff" points="100.09,-141.09 108.59,-134.77 98,-134.41 100.09,-141.09"/>
</g>
<!-- Node14 -->
<g id="node14" class="node">
<title>Node14</title>
<g id="a_node14"><a xlink:href="../../d1/d41/namespacemgrid__mod.html#a202373a45f0c5b1f81076da92a1123d0" target="_top" xlink:title=" ">
<polygon fill="white" stroke="#666666" points="202,-57 85,-57 85,-38 202,-38 202,-57"/>
<text text-anchor="middle" x="143.5" y="-45" font-family="Helvetica,sans-Serif" font-size="10.00">mgrid_mod::read_mgrid</text>
</a>
</g>
</g>
<!-- Node1&#45;&gt;Node14 -->
<g id="edge15" class="edge">
<title>Node1&#45;&gt;Node14</title>
<path fill="none" stroke="#63b8ff" d="M28.37,-181.72C38.06,-165.89 58.39,-133.96 79,-109.5 92.68,-93.26 110.04,-76.54 123.14,-64.56"/>
<polygon fill="#63b8ff" stroke="#63b8ff" points="124.98,-67.72 130.06,-58.43 120.29,-62.52 124.98,-67.72"/>
</g>
<!-- Node3 -->
<g id="node3" class="node">
<title>Node3</title>
<g id="a_node3"><a xlink:href="../../dd/df2/namespacevacmod.html#a30b88ea77408f43e1bedf2c11c0f8d1a" target="_top" xlink:title=" ">
<polygon fill="white" stroke="#666666" points="366,-321 244,-321 244,-302 366,-302 366,-321"/>
<text text-anchor="middle" x="305" y="-309" font-family="Helvetica,sans-Serif" font-size="10.00">vacmod::allocate_nestor</text>
</a>
</g>
</g>
<!-- Node2&#45;&gt;Node3 -->
<g id="edge2" class="edge">
<title>Node2&#45;&gt;Node3</title>
<path fill="none" stroke="#63b8ff" d="M182.3,-297.77C197.48,-299.48 215.5,-301.51 232.95,-303.48"/>
<polygon fill="#63b8ff" stroke="#63b8ff" points="232.39,-307.05 242.72,-304.7 233.17,-300.1 232.39,-307.05"/>
</g>
<!-- Node4 -->
<g id="node4" class="node">
<title>Node4</title>
<g id="a_node4"><a xlink:href="../../de/dd6/free__mem__nunv_8f90.html#af9db130c860b00078874db28a8805226" target="_top" xlink:title="Free arrays depending on the number of Fourier coefficients nunv.">
<polygon fill="white" stroke="#666666" points="348,-284 262,-284 262,-265 348,-265 348,-284"/>
<text text-anchor="middle" x="305" y="-272" font-family="Helvetica,sans-Serif" font-size="10.00">free_mem_nunv</text>
</a>
</g>
</g>
<!-- Node2&#45;&gt;Node4 -->
<g id="edge3" class="edge">
<title>Node2&#45;&gt;Node4</title>
<path fill="none" stroke="#63b8ff" d="M182.3,-289C202.8,-286.55 228.48,-283.5 250.96,-280.82"/>
<polygon fill="#63b8ff" stroke="#63b8ff" points="251.18,-284.2 260.7,-279.54 250.35,-277.25 251.18,-284.2"/>
</g>
<!-- Node5 -->
<g id="node5" class="node">
<title>Node5</title>
<g id="a_node5"><a xlink:href="../../dd/df2/namespacevacmod.html#ade3824460b4eb61403c35f6abe95cd89" target="_top" xlink:title=" ">
<polygon fill="white" stroke="#666666" points="535,-284 404,-284 404,-265 535,-265 535,-284"/>
<text text-anchor="middle" x="469.5" y="-272" font-family="Helvetica,sans-Serif" font-size="10.00">vacmod::free_mem_nestor</text>
</a>
</g>
</g>
<!-- Node4&#45;&gt;Node5 -->
<g id="edge4" class="edge">
<title>Node4&#45;&gt;Node5</title>
<path fill="none" stroke="#63b8ff" d="M348.27,-274.5C362.02,-274.5 377.73,-274.5 393.15,-274.5"/>
<polygon fill="#63b8ff" stroke="#63b8ff" points="392.75,-278 402.75,-274.5 392.75,-271 392.75,-278"/>
</g>
<!-- Node8 -->
<g id="node8" class="node">
<title>Node8</title>
<g id="a_node8"><a xlink:href="../../d2/dc3/open__output__files_8f90.html#a8e2e97aad77c7099fa003f98f48d4dfc" target="_top" xlink:title="Open output files.">
<polygon fill="white" stroke="#666666" points="351,-229 259,-229 259,-210 351,-210 351,-229"/>
<text text-anchor="middle" x="305" y="-217" font-family="Helvetica,sans-Serif" font-size="10.00">open_output_files</text>
</a>
</g>
</g>
<!-- Node7&#45;&gt;Node8 -->
<g id="edge7" class="edge">
<title>Node7&#45;&gt;Node8</title>
<path fill="none" stroke="#63b8ff" d="M168.72,-219.5C189.63,-219.5 220.66,-219.5 247.72,-219.5"/>
<polygon fill="#63b8ff" stroke="#63b8ff" points="247.64,-223 257.64,-219.5 247.64,-216 247.64,-223"/>
</g>
<!-- Node9 -->
<g id="node9" class="node">
<title>Node9</title>
<g id="a_node9"><a xlink:href="../../d0/d29/namespacesafe__open__mod.html#aab207f9769415b0cccd91260a8382eeb" target="_top" xlink:title=" ">
<polygon fill="white" stroke="#666666" points="537,-191 402,-191 402,-172 537,-172 537,-191"/>
<text text-anchor="middle" x="469.5" y="-179" font-family="Helvetica,sans-Serif" font-size="10.00">safe_open_mod::safe_open</text>
</a>
</g>
</g>
<!-- Node8&#45;&gt;Node9 -->
<g id="edge8" class="edge">
<title>Node8&#45;&gt;Node9</title>
<path fill="none" stroke="#63b8ff" d="M348.69,-209.52C369.05,-204.76 393.6,-199.01 415.17,-193.97"/>
<polygon fill="#63b8ff" stroke="#63b8ff" points="415.87,-197.17 424.81,-191.48 414.27,-190.35 415.87,-197.17"/>
</g>
<!-- Node10&#45;&gt;Node10 -->
<g id="edge10" class="edge">
<title>Node10&#45;&gt;Node10</title>
<path fill="none" stroke="#63b8ff" d="M124.4,-174.37C115.69,-182.94 122.05,-192 143.5,-192 155.9,-192 163.26,-188.97 165.57,-184.76"/>
<polygon fill="#63b8ff" stroke="#63b8ff" points="168.72,-184.02 162.6,-175.37 161.99,-185.95 168.72,-184.02"/>
</g>
<!-- Node11&#45;&gt;Node9 -->
<g id="edge13" class="edge">
<title>Node11&#45;&gt;Node9</title>
<path fill="none" stroke="#63b8ff" d="M177.39,-136.47C187.32,-139.41 198.18,-142.87 208,-146.5 224.42,-152.58 227.04,-158.15 244,-162.5 291.85,-174.79 347.13,-179.57 390.86,-181.27"/>
<polygon fill="#63b8ff" stroke="#63b8ff" points="390.6,-184.8 400.72,-181.64 390.84,-177.8 390.6,-184.8"/>
</g>
<!-- Node12 -->
<g id="node12" class="node">
<title>Node12</title>
<g id="a_node12"><a xlink:href="../../d8/dbf/namespacevmec__input.html#a02b29863a947531e6c4e8d7c66c5a5e0" target="_top" xlink:title=" ">
<polygon fill="white" stroke="#666666" points="366,-153.5 244,-153.5 244,-123.5 366,-123.5 366,-153.5"/>
<text text-anchor="start" x="252" y="-141.5" font-family="Helvetica,sans-Serif" font-size="10.00">vmec_input::read_indata</text>
<text text-anchor="middle" x="305" y="-130.5" font-family="Helvetica,sans-Serif" font-size="10.00">_namelist</text>
</a>
</g>
</g>
<!-- Node11&#45;&gt;Node12 -->
<g id="edge12" class="edge">
<title>Node11&#45;&gt;Node12</title>
<path fill="none" stroke="#63b8ff" d="M177.16,-129.75C193.31,-130.87 213.47,-132.26 232.94,-133.6"/>
<polygon fill="#63b8ff" stroke="#63b8ff" points="232.43,-137.14 242.65,-134.34 232.91,-130.16 232.43,-137.14"/>
</g>
<!-- Node13 -->
<g id="node13" class="node">
<title>Node13</title>
<g id="a_node13"><a xlink:href="../../d2/d04/namespacevacmod0.html#a4be777018e003400355a27b190d7d39a" target="_top" xlink:title=" ">
<polygon fill="white" stroke="#666666" points="358.5,-105.5 251.5,-105.5 251.5,-75.5 358.5,-75.5 358.5,-105.5"/>
<text text-anchor="start" x="259.5" y="-93.5" font-family="Helvetica,sans-Serif" font-size="10.00">vacmod0::set_nestor</text>
<text text-anchor="middle" x="305" y="-82.5" font-family="Helvetica,sans-Serif" font-size="10.00">_sizes</text>
</a>
</g>
</g>
<!-- Node11&#45;&gt;Node13 -->
<g id="edge14" class="edge">
<title>Node11&#45;&gt;Node13</title>
<path fill="none" stroke="#63b8ff" d="M177.16,-119.92C195.49,-115.67 218.99,-110.22 240.77,-105.17"/>
<polygon fill="#63b8ff" stroke="#63b8ff" points="241.34,-108.4 250.29,-102.73 239.76,-101.58 241.34,-108.4"/>
</g>
<!-- Node14&#45;&gt;Node9 -->
<g id="edge16" class="edge">
<title>Node14&#45;&gt;Node9</title>
<path fill="none" stroke="#63b8ff" d="M202.23,-41.14C248.87,-38.57 314.92,-40.93 366,-66.5 408.65,-87.85 441.62,-135.26 457.7,-162.06"/>
<polygon fill="#63b8ff" stroke="#63b8ff" points="455.15,-163.64 463.19,-170.54 461.2,-160.13 455.15,-163.64"/>
</g>
<!-- Node15 -->
<g id="node15" class="node">
<title>Node15</title>
<g id="a_node15"><a xlink:href="../../d1/d41/namespacemgrid__mod.html#aa4818ade7a169c68f8b7c3a225fd287e" target="_top" xlink:title=" ">
<polygon fill="white" stroke="#666666" points="363,-19 247,-19 247,0 363,0 363,-19"/>
<text text-anchor="middle" x="305" y="-7" font-family="Helvetica,sans-Serif" font-size="10.00">mgrid_mod::sum_bfield</text>
</a>
</g>
</g>
<!-- Node14&#45;&gt;Node15 -->
<g id="edge17" class="edge">
<title>Node14&#45;&gt;Node15</title>
<path fill="none" stroke="#63b8ff" d="M186.41,-37.52C206.38,-32.76 230.48,-27.01 251.65,-21.97"/>
<polygon fill="#63b8ff" stroke="#63b8ff" points="252.18,-25.21 261.1,-19.48 250.56,-18.4 252.18,-25.21"/>
</g>
</g>
</svg>
