<?xml version="1.0" encoding="UTF-8" standalone="no"?>
<!DOCTYPE svg PUBLIC "-//W3C//DTD SVG 1.1//EN"
 "http://www.w3.org/Graphics/SVG/1.1/DTD/svg11.dtd">
<!-- Generated by graphviz version 2.50.0 (20220203.2022)
 -->
<!-- Title: readin Pages: 1 -->
<svg width="545pt" height="336pt"
 viewBox="0.00 0.00 545.00 336.00" xmlns="http://www.w3.org/2000/svg" xmlns:xlink="http://www.w3.org/1999/xlink">
<g id="graph0" class="graph" transform="scale(1 1) rotate(0) translate(4 332)">
<title>readin</title>
<polygon fill="white" stroke="transparent" points="-4,4 -4,-332 541,-332 541,4 -4,4"/>
<!-- Node1 -->
<g id="node1" class="node">
<title>Node1</title>
<g id="a_node1"><a xlink:title="Read the input file.">
<polygon fill="#bfbfbf" stroke="black" points="0,-185.5 0,-204.5 43,-204.5 43,-185.5 0,-185.5"/>
<text text-anchor="middle" x="21.5" y="-192.5" font-family="Helvetica,sans-Serif" font-size="10.00">readin</text>
</a>
</g>
</g>
<!-- Node2 -->
<g id="node2" class="node">
<title>Node2</title>
<g id="a_node2"><a xlink:href="../../d7/d8c/allocate__nunv_8f90.html#a1fb4098498daa9bd7a8487120397c1a7" target="_top" xlink:title="allocate arrays depending on the number of Fourier coefficients nunv">
<polygon fill="white" stroke="black" points="105,-289.5 105,-308.5 182,-308.5 182,-289.5 105,-289.5"/>
<text text-anchor="middle" x="143.5" y="-296.5" font-family="Helvetica,sans-Serif" font-size="10.00">allocate_nunv</text>
</a>
</g>
</g>
<!-- Node1&#45;&gt;Node2 -->
<g id="edge1" class="edge">
<title>Node1&#45;&gt;Node2</title>
<path fill="none" stroke="midnightblue" d="M26.32,-204.76C33.74,-222.46 51.8,-259.86 79,-280 83.86,-283.6 89.4,-286.52 95.13,-288.89"/>
<polygon fill="midnightblue" stroke="midnightblue" points="94.29,-292.31 104.88,-292.38 96.65,-285.72 94.29,-292.31"/>
</g>
<!-- Node6 -->
<g id="node6" class="node">
<title>Node6</title>
<g id="a_node6"><a xlink:href="../../d2/d33/namespacetheta__flip.html#a1177c598a2b1378ae34fecfba906634d" target="_top" xlink:title="Flip the definition of the poloidal angle in the user&#45;provided initial guess for the LCFS geometry.">
<polygon fill="white" stroke="black" points="94,-251.5 94,-270.5 193,-270.5 193,-251.5 94,-251.5"/>
<text text-anchor="middle" x="143.5" y="-258.5" font-family="Helvetica,sans-Serif" font-size="10.00">theta_flip::flip_theta</text>
</a>
</g>
</g>
<!-- Node1&#45;&gt;Node6 -->
<g id="edge5" class="edge">
<title>Node1&#45;&gt;Node6</title>
<path fill="none" stroke="midnightblue" d="M31.62,-204.63C42.12,-215.2 60.33,-231.99 79,-242 83.05,-244.17 87.37,-246.12 91.79,-247.88"/>
<polygon fill="midnightblue" stroke="midnightblue" points="90.96,-251.3 101.55,-251.4 93.34,-244.71 90.96,-251.3"/>
</g>
<!-- Node7 -->
<g id="node7" class="node">
<title>Node7</title>
<g id="a_node7"><a xlink:href="../../d0/d4c/heading_8f90.html#aacf288f9cc770199b74d2e6fcc374450" target="_top" xlink:title="Open output files and print banner message at the top.">
<polygon fill="white" stroke="black" points="118.5,-213.5 118.5,-232.5 168.5,-232.5 168.5,-213.5 118.5,-213.5"/>
<text text-anchor="middle" x="143.5" y="-220.5" font-family="Helvetica,sans-Serif" font-size="10.00">heading</text>
</a>
</g>
</g>
<!-- Node1&#45;&gt;Node7 -->
<g id="edge6" class="edge">
<title>Node1&#45;&gt;Node7</title>
<path fill="none" stroke="midnightblue" d="M43.13,-199.81C61.1,-204.01 87.5,-210.17 108.57,-215.08"/>
<polygon fill="midnightblue" stroke="midnightblue" points="107.89,-218.52 118.43,-217.38 109.49,-211.7 107.89,-218.52"/>
</g>
<!-- Node10 -->
<g id="node10" class="node">
<title>Node10</title>
<g id="a_node10"><a xlink:href="../../d8/dfd/namespacedbgout.html#acdd1612a38e44b6469dc03d9d1c6ceed" target="_top" xlink:title="check if any output is desired for the current iteration check if the given context should be openend...">
<polygon fill="white" stroke="black" points="79,-157.5 79,-176.5 208,-176.5 208,-157.5 79,-157.5"/>
<text text-anchor="middle" x="143.5" y="-164.5" font-family="Helvetica,sans-Serif" font-size="10.00">dbgout::open_dbg_context</text>
</a>
</g>
</g>
<!-- Node1&#45;&gt;Node10 -->
<g id="edge9" class="edge">
<title>Node1&#45;&gt;Node10</title>
<path fill="none" stroke="midnightblue" d="M43.13,-190.19C56.57,-187.05 74.74,-182.81 91.86,-178.82"/>
<polygon fill="midnightblue" stroke="midnightblue" points="92.84,-182.18 101.78,-176.5 91.25,-175.37 92.84,-182.18"/>
</g>
<!-- Node11 -->
<g id="node11" class="node">
<title>Node11</title>
<g id="a_node11"><a xlink:href="../../d4/dc8/read__indata_8f90.html#a93b4b27202925d5f2783e8a4da81a8d7" target="_top" xlink:title="Read the INDATA namelist from a given input file.">
<polygon fill="white" stroke="black" points="110,-119.5 110,-138.5 177,-138.5 177,-119.5 110,-119.5"/>
<text text-anchor="middle" x="143.5" y="-126.5" font-family="Helvetica,sans-Serif" font-size="10.00">read_indata</text>
</a>
</g>
</g>
<!-- Node1&#45;&gt;Node11 -->
<g id="edge11" class="edge">
<title>Node1&#45;&gt;Node11</title>
<path fill="none" stroke="midnightblue" d="M31.62,-185.37C42.12,-174.8 60.33,-158.01 79,-148 85.55,-144.49 92.84,-141.53 100.08,-139.09"/>
<polygon fill="midnightblue" stroke="midnightblue" points="101.34,-142.36 109.85,-136.05 99.26,-135.68 101.34,-142.36"/>
</g>
<!-- Node14 -->
<g id="node14" class="node">
<title>Node14</title>
<g id="a_node14"><a xlink:href="../../d1/d41/namespacemgrid__mod.html#a202373a45f0c5b1f81076da92a1123d0" target="_top" xlink:title=" ">
<polygon fill="white" stroke="black" points="85,-38.5 85,-57.5 202,-57.5 202,-38.5 85,-38.5"/>
<text text-anchor="middle" x="143.5" y="-45.5" font-family="Helvetica,sans-Serif" font-size="10.00">mgrid_mod::read_mgrid</text>
</a>
</g>
</g>
<!-- Node1&#45;&gt;Node14 -->
<g id="edge15" class="edge">
<title>Node1&#45;&gt;Node14</title>
<path fill="none" stroke="midnightblue" d="M27.99,-185.36C37.46,-169.11 57.86,-135.51 79,-110 92.68,-93.49 110.24,-76.62 123.43,-64.65"/>
<polygon fill="midnightblue" stroke="midnightblue" points="125.88,-67.15 131,-57.88 121.22,-61.93 125.88,-67.15"/>
</g>
<!-- Node3 -->
<g id="node3" class="node">
<title>Node3</title>
<g id="a_node3"><a xlink:href="../../dd/df2/namespacevacmod.html#a30b88ea77408f43e1bedf2c11c0f8d1a" target="_top" xlink:title=" ">
<polygon fill="white" stroke="black" points="244,-308.5 244,-327.5 366,-327.5 366,-308.5 244,-308.5"/>
<text text-anchor="middle" x="305" y="-315.5" font-family="Helvetica,sans-Serif" font-size="10.00">vacmod::allocate_nestor</text>
</a>
</g>
</g>
<!-- Node2&#45;&gt;Node3 -->
<g id="edge2" class="edge">
<title>Node2&#45;&gt;Node3</title>
<path fill="none" stroke="midnightblue" d="M182.3,-303.5C197.62,-305.33 215.84,-307.5 233.45,-309.6"/>
<polygon fill="midnightblue" stroke="midnightblue" points="233.37,-313.11 243.72,-310.82 234.2,-306.16 233.37,-313.11"/>
</g>
<!-- Node4 -->
<g id="node4" class="node">
<title>Node4</title>
<g id="a_node4"><a xlink:href="../../de/dd6/free__mem__nunv_8f90.html#af9db130c860b00078874db28a8805226" target="_top" xlink:title="Free arrays depending on the number of Fourier coefficients nunv.">
<polygon fill="white" stroke="black" points="262,-270.5 262,-289.5 348,-289.5 348,-270.5 262,-270.5"/>
<text text-anchor="middle" x="305" y="-277.5" font-family="Helvetica,sans-Serif" font-size="10.00">free_mem_nunv</text>
</a>
</g>
</g>
<!-- Node2&#45;&gt;Node4 -->
<g id="edge3" class="edge">
<title>Node2&#45;&gt;Node4</title>
<path fill="none" stroke="midnightblue" d="M182.3,-294.5C203.07,-292.02 229.15,-288.92 251.83,-286.21"/>
<polygon fill="midnightblue" stroke="midnightblue" points="252.47,-289.66 261.98,-285.01 251.64,-282.71 252.47,-289.66"/>
</g>
<!-- Node5 -->
<g id="node5" class="node">
<title>Node5</title>
<g id="a_node5"><a xlink:href="../../dd/df2/namespacevacmod.html#ade3824460b4eb61403c35f6abe95cd89" target="_top" xlink:title=" ">
<polygon fill="white" stroke="black" points="404,-270.5 404,-289.5 535,-289.5 535,-270.5 404,-270.5"/>
<text text-anchor="middle" x="469.5" y="-277.5" font-family="Helvetica,sans-Serif" font-size="10.00">vacmod::free_mem_nestor</text>
</a>
</g>
</g>
<!-- Node4&#45;&gt;Node5 -->
<g id="edge4" class="edge">
<title>Node4&#45;&gt;Node5</title>
<path fill="none" stroke="midnightblue" d="M348.27,-280C362.16,-280 378.03,-280 393.6,-280"/>
<polygon fill="midnightblue" stroke="midnightblue" points="393.75,-283.5 403.75,-280 393.75,-276.5 393.75,-283.5"/>
</g>
<!-- Node8 -->
<g id="node8" class="node">
<title>Node8</title>
<g id="a_node8"><a xlink:href="../../d2/dc3/open__output__files_8f90.html#a8e2e97aad77c7099fa003f98f48d4dfc" target="_top" xlink:title="Open output files.">
<polygon fill="white" stroke="black" points="259,-213.5 259,-232.5 351,-232.5 351,-213.5 259,-213.5"/>
<text text-anchor="middle" x="305" y="-220.5" font-family="Helvetica,sans-Serif" font-size="10.00">open_output_files</text>
</a>
</g>
</g>
<!-- Node7&#45;&gt;Node8 -->
<g id="edge7" class="edge">
<title>Node7&#45;&gt;Node8</title>
<path fill="none" stroke="midnightblue" d="M168.72,-223C189.9,-223 221.44,-223 248.74,-223"/>
<polygon fill="midnightblue" stroke="midnightblue" points="248.96,-226.5 258.96,-223 248.96,-219.5 248.96,-226.5"/>
</g>
<!-- Node9 -->
<g id="node9" class="node">
<title>Node9</title>
<g id="a_node9"><a xlink:href="../../d0/d29/namespacesafe__open__mod.html#aab207f9769415b0cccd91260a8382eeb" target="_top" xlink:title=" ">
<polygon fill="white" stroke="black" points="402,-175.5 402,-194.5 537,-194.5 537,-175.5 402,-175.5"/>
<text text-anchor="middle" x="469.5" y="-182.5" font-family="Helvetica,sans-Serif" font-size="10.00">safe_open_mod::safe_open</text>
</a>
</g>
</g>
<!-- Node8&#45;&gt;Node9 -->
<g id="edge8" class="edge">
<title>Node8&#45;&gt;Node9</title>
<path fill="none" stroke="midnightblue" d="M347.01,-213.41C368.55,-208.37 395.13,-202.16 417.94,-196.82"/>
<polygon fill="midnightblue" stroke="midnightblue" points="418.85,-200.21 427.79,-194.52 417.25,-193.39 418.85,-200.21"/>
</g>
<!-- Node10&#45;&gt;Node10 -->
<g id="edge10" class="edge">
<title>Node10&#45;&gt;Node10</title>
<path fill="none" stroke="midnightblue" d="M124.7,-176.76C115.55,-185.57 121.82,-195 143.5,-195 157.39,-195 164.96,-191.13 166.19,-186.03"/>
<polygon fill="midnightblue" stroke="midnightblue" points="169.4,-184.62 162.3,-176.76 162.94,-187.33 169.4,-184.62"/>
</g>
<!-- Node11&#45;&gt;Node9 -->
<g id="edge13" class="edge">
<title>Node11&#45;&gt;Node9</title>
<path fill="none" stroke="midnightblue" d="M177.17,-137.6C187.19,-140.55 198.16,-144.1 208,-148 224.63,-154.59 226.78,-161.16 244,-166 291.86,-179.45 347.53,-184.23 391.47,-185.63"/>
<polygon fill="midnightblue" stroke="midnightblue" points="391.42,-189.13 401.51,-185.9 391.61,-182.14 391.42,-189.13"/>
</g>
<!-- Node12 -->
<g id="node12" class="node">
<title>Node12</title>
<g id="a_node12"><a xlink:href="../../d8/dbf/namespacevmec__input.html#a02b29863a947531e6c4e8d7c66c5a5e0" target="_top" xlink:title=" ">
<polygon fill="white" stroke="black" points="244,-126 244,-156 366,-156 366,-126 244,-126"/>
<text text-anchor="start" x="252" y="-144" font-family="Helvetica,sans-Serif" font-size="10.00">vmec_input::read_indata</text>
<text text-anchor="middle" x="305" y="-133" font-family="Helvetica,sans-Serif" font-size="10.00">_namelist</text>
</a>
</g>
</g>
<!-- Node11&#45;&gt;Node12 -->
<g id="edge12" class="edge">
<title>Node11&#45;&gt;Node12</title>
<path fill="none" stroke="midnightblue" d="M177.16,-131.46C193.54,-132.69 214.04,-134.23 233.76,-135.72"/>
<polygon fill="midnightblue" stroke="midnightblue" points="233.74,-139.22 243.97,-136.48 234.26,-132.24 233.74,-139.22"/>
</g>
<!-- Node13 -->
<g id="node13" class="node">
<title>Node13</title>
<g id="a_node13"><a xlink:href="../../d2/d04/namespacevacmod0.html#a4be777018e003400355a27b190d7d39a" target="_top" xlink:title=" ">
<polygon fill="white" stroke="black" points="251.5,-77 251.5,-107 358.5,-107 358.5,-77 251.5,-77"/>
<text text-anchor="start" x="259.5" y="-95" font-family="Helvetica,sans-Serif" font-size="10.00">vacmod0::set_nestor</text>
<text text-anchor="middle" x="305" y="-84" font-family="Helvetica,sans-Serif" font-size="10.00">_sizes</text>
</a>
</g>
</g>
<!-- Node11&#45;&gt;Node13 -->
<g id="edge14" class="edge">
<title>Node11&#45;&gt;Node13</title>
<path fill="none" stroke="midnightblue" d="M177.16,-121.42C195.66,-117.13 219.41,-111.62 241.36,-106.53"/>
<polygon fill="midnightblue" stroke="midnightblue" points="242.34,-109.9 251.29,-104.23 240.76,-103.08 242.34,-109.9"/>
</g>
<!-- Node14&#45;&gt;Node9 -->
<g id="edge16" class="edge">
<title>Node14&#45;&gt;Node9</title>
<path fill="none" stroke="midnightblue" d="M202.31,-41.84C249,-39.45 315.07,-42.08 366,-68 409.51,-90.14 442.69,-139.37 458.43,-166.37"/>
<polygon fill="midnightblue" stroke="midnightblue" points="455.46,-168.24 463.42,-175.23 461.56,-164.8 455.46,-168.24"/>
</g>
<!-- Node15 -->
<g id="node15" class="node">
<title>Node15</title>
<g id="a_node15"><a xlink:href="../../d1/d41/namespacemgrid__mod.html#aa4818ade7a169c68f8b7c3a225fd287e" target="_top" xlink:title=" ">
<polygon fill="white" stroke="black" points="247,-0.5 247,-19.5 363,-19.5 363,-0.5 247,-0.5"/>
<text text-anchor="middle" x="305" y="-7.5" font-family="Helvetica,sans-Serif" font-size="10.00">mgrid_mod::sum_bfield</text>
</a>
</g>
</g>
<!-- Node14&#45;&gt;Node15 -->
<g id="edge17" class="edge">
<title>Node14&#45;&gt;Node15</title>
<path fill="none" stroke="midnightblue" d="M184.75,-38.41C205.8,-33.4 231.76,-27.21 254.07,-21.89"/>
<polygon fill="midnightblue" stroke="midnightblue" points="255.12,-25.24 264.04,-19.52 253.5,-18.43 255.12,-25.24"/>
</g>
</g>
</svg>
