<?xml version="1.0" encoding="UTF-8" standalone="no"?>
<!DOCTYPE svg PUBLIC "-//W3C//DTD SVG 1.1//EN"
 "http://www.w3.org/Graphics/SVG/1.1/DTD/svg11.dtd">
<!-- Generated by graphviz version 7.1.0 (20230121.1956)
 -->
<!-- Title: readin Pages: 1 -->
<!--zoomable 329 -->
<svg id="main" version="1.1" xmlns="http://www.w3.org/2000/svg" xmlns:xlink="http://www.w3.org/1999/xlink" xml:space="preserve" onload="init(evt)">
<style type="text/css"><![CDATA[
.edge:hover path { stroke: red; }
.edge:hover polygon { stroke: red; fill: red; }
]]></style>
<script type="text/javascript"><![CDATA[
var edges = document.getElementsByTagName('g');
if (edges && edges.length) {
  for (var i=0;i<edges.length;i++) {
    if (edges[i].id.substr(0,4)=='edge') {
      edges[i].setAttribute('class','edge');
    }
  }
}
]]></script>
        <defs>
                <circle id="rim" cx="0" cy="0" r="7"/>
                <circle id="rim2" cx="0" cy="0" r="3.5"/>
                <g id="zoomPlus">
                        <use xlink:href="#rim" fill="#404040">
                                <set attributeName="fill" to="#808080" begin="zoomplus.mouseover" end="zoomplus.mouseout"/>
                        </use>
                        <path d="M-4,0h8M0,-4v8" fill="none" stroke="white" stroke-width="1.5" pointer-events="none"/>
                </g>
                <g id="zoomMin">
                        <use xlink:href="#rim" fill="#404040">
                                <set attributeName="fill" to="#808080" begin="zoomminus.mouseover" end="zoomminus.mouseout"/>
                        </use>
                        <path d="M-4,0h8" fill="none" stroke="white" stroke-width="1.5" pointer-events="none"/>
                </g>
                <g id="dirArrow">
                        <path fill="none" stroke="white" stroke-width="1.5" d="M0,-3.0v7 M-2.5,-0.5L0,-3.0L2.5,-0.5"/>
                </g>
               <g id="resetDef">
                       <use xlink:href="#rim2" fill="#404040">
                               <set attributeName="fill" to="#808080" begin="reset.mouseover" end="reset.mouseout"/>
                       </use>
               </g>
        </defs>

<script type="text/javascript">
var viewWidth = 545;
var viewHeight = 329;
var sectionId = 'dynsection-0';
</script>
<script xlink:href="../../svgpan.js"/>
<svg id="graph" class="graph">
<g id="viewport">
<title>readin</title>
<!-- Node1 -->
<g id="node1" class="node">
<title>Node1</title>
<g id="a_node1"><a xlink:title="Read the input file.">
<polygon fill="#999999" stroke="#666666" points="43,-201 0,-201 0,-182 43,-182 43,-201"/>
<text text-anchor="middle" x="21.5" y="-189" font-family="Helvetica,sans-Serif" font-size="10.00">readin</text>
</a>
</g>
</g>
<!-- Node2 -->
<g id="node2" class="node">
<title>Node2</title>
<g id="a_node2"><a xlink:href="../../d7/d8c/allocate__nunv_8f90.html#a1fb4098498daa9bd7a8487120397c1a7" target="_top" xlink:title="allocate arrays depending on the number of Fourier coefficients nunv">
<polygon fill="white" stroke="#666666" points="182,-303 105,-303 105,-284 182,-284 182,-303"/>
<text text-anchor="middle" x="143.5" y="-291" font-family="Helvetica,sans-Serif" font-size="10.00">allocate_nunv</text>
</a>
</g>
</g>
<!-- Node1&#45;&gt;Node2 -->
<g id="edge1" class="edge">
<title>Node1&#45;&gt;Node2</title>
<path fill="none" stroke="#63b8ff" d="M26.44,-201.46C33.94,-219.12 51.97,-255.9 79,-275.5 83.58,-278.82 88.75,-281.53 94.12,-283.74"/>
<polygon fill="#63b8ff" stroke="#63b8ff" points="92.56,-286.9 103.15,-286.9 94.87,-280.29 92.56,-286.9"/>
</g>
<!-- Node6 -->
<g id="node6" class="node">
<title>Node6</title>
<g id="a_node6"><a xlink:href="../../d2/d33/namespacetheta__flip.html#a1177c598a2b1378ae34fecfba906634d" target="_top" xlink:title="Flip the definition of the poloidal angle in the user&#45;provided initial guess for the LCFS geometry.">
<polygon fill="white" stroke="#666666" points="193,-266 94,-266 94,-247 193,-247 193,-266"/>
<text text-anchor="middle" x="143.5" y="-254" font-family="Helvetica,sans-Serif" font-size="10.00">theta_flip::flip_theta</text>
</a>
</g>
</g>
<!-- Node1&#45;&gt;Node6 -->
<g id="edge5" class="edge">
<title>Node1&#45;&gt;Node6</title>
<path fill="none" stroke="#63b8ff" d="M31.59,-201.18C42.07,-211.79 60.26,-228.62 79,-238.5 81.71,-239.93 84.55,-241.25 87.45,-242.48"/>
<polygon fill="#63b8ff" stroke="#63b8ff" points="86.18,-245.75 96.77,-245.99 88.65,-239.19 86.18,-245.75"/>
</g>
<!-- Node7 -->
<g id="node7" class="node">
<title>Node7</title>
<g id="a_node7"><a xlink:href="../../d0/d4c/heading_8f90.html#aacf288f9cc770199b74d2e6fcc374450" target="_top" xlink:title="Open output files and print banner message at the top.">
<polygon fill="white" stroke="#666666" points="168.5,-229 118.5,-229 118.5,-210 168.5,-210 168.5,-229"/>
<text text-anchor="middle" x="143.5" y="-217" font-family="Helvetica,sans-Serif" font-size="10.00">heading</text>
</a>
</g>
</g>
<!-- Node1&#45;&gt;Node7 -->
<g id="edge6" class="edge">
<title>Node1&#45;&gt;Node7</title>
<path fill="none" stroke="#63b8ff" d="M43.4,-196.38C60.97,-200.48 86.45,-206.42 107.17,-211.26"/>
<polygon fill="#63b8ff" stroke="#63b8ff" points="106.11,-214.6 116.64,-213.47 107.7,-207.79 106.11,-214.6"/>
</g>
<!-- Node10 -->
<g id="node10" class="node">
<title>Node10</title>
<g id="a_node10"><a xlink:href="../../d8/dfd/namespacedbgout.html#acdd1612a38e44b6469dc03d9d1c6ceed" target="_top" xlink:title="check if any output is desired for the current iteration check if the given context should be openend...">
<polygon fill="white" stroke="#666666" points="208,-174 79,-174 79,-155 208,-155 208,-174"/>
<text text-anchor="middle" x="143.5" y="-162" font-family="Helvetica,sans-Serif" font-size="10.00">dbgout::open_dbg_context</text>
</a>
</g>
</g>
<!-- Node1&#45;&gt;Node10 -->
<g id="edge9" class="edge">
<title>Node1&#45;&gt;Node10</title>
<path fill="none" stroke="#63b8ff" d="M43.4,-186.8C55.61,-184.05 71.65,-180.44 87.26,-176.93"/>
<polygon fill="#63b8ff" stroke="#63b8ff" points="88.02,-180.34 97.01,-174.74 86.49,-173.52 88.02,-180.34"/>
</g>
<!-- Node11 -->
<g id="node11" class="node">
<title>Node11</title>
<g id="a_node11"><a xlink:href="../../d4/dc8/read__indata_8f90.html#a93b4b27202925d5f2783e8a4da81a8d7" target="_top" xlink:title="Read the INDATA namelist from a given input file.">
<polygon fill="white" stroke="#666666" points="177,-137 110,-137 110,-118 177,-118 177,-137"/>
<text text-anchor="middle" x="143.5" y="-125" font-family="Helvetica,sans-Serif" font-size="10.00">read_indata</text>
</a>
</g>
</g>
<!-- Node1&#45;&gt;Node11 -->
<g id="edge11" class="edge">
<title>Node1&#45;&gt;Node11</title>
<path fill="none" stroke="#63b8ff" d="M32.48,-181.56C43.15,-171.43 61,-155.91 79,-146.5 85.22,-143.25 92.09,-140.46 98.94,-138.11"/>
<polygon fill="#63b8ff" stroke="#63b8ff" points="99.65,-141.56 108.14,-135.22 97.55,-134.88 99.65,-141.56"/>
</g>
<!-- Node14 -->
<g id="node14" class="node">
<title>Node14</title>
<g id="a_node14"><a xlink:href="../../d1/d41/namespacemgrid__mod.html#a202373a45f0c5b1f81076da92a1123d0" target="_top" xlink:title=" ">
<polygon fill="white" stroke="#666666" points="202,-57 85,-57 85,-38 202,-38 202,-57"/>
<text text-anchor="middle" x="143.5" y="-45" font-family="Helvetica,sans-Serif" font-size="10.00">mgrid_mod::read_mgrid</text>
</a>
</g>
</g>
<!-- Node1&#45;&gt;Node14 -->
<g id="edge15" class="edge">
<title>Node1&#45;&gt;Node14</title>
<path fill="none" stroke="#63b8ff" d="M28.37,-181.72C38.06,-165.89 58.39,-133.96 79,-109.5 92.55,-93.42 109.71,-76.86 122.77,-64.9"/>
<polygon fill="#63b8ff" stroke="#63b8ff" points="124.86,-67.74 129.94,-58.44 120.17,-62.54 124.86,-67.74"/>
</g>
<!-- Node3 -->
<g id="node3" class="node">
<title>Node3</title>
<g id="a_node3"><a xlink:href="../../dd/df2/namespacevacmod.html#a30b88ea77408f43e1bedf2c11c0f8d1a" target="_top" xlink:title=" ">
<polygon fill="white" stroke="#666666" points="366,-321 244,-321 244,-302 366,-302 366,-321"/>
<text text-anchor="middle" x="305" y="-309" font-family="Helvetica,sans-Serif" font-size="10.00">vacmod::allocate_nestor</text>
</a>
</g>
</g>
<!-- Node2&#45;&gt;Node3 -->
<g id="edge2" class="edge">
<title>Node2&#45;&gt;Node3</title>
<path fill="none" stroke="#63b8ff" d="M182.3,-297.77C197.34,-299.46 215.16,-301.47 232.46,-303.43"/>
<polygon fill="#63b8ff" stroke="#63b8ff" points="231.88,-306.88 242.21,-304.53 232.67,-299.93 231.88,-306.88"/>
</g>
<!-- Node4 -->
<g id="node4" class="node">
<title>Node4</title>
<g id="a_node4"><a xlink:href="../../de/dd6/free__mem__nunv_8f90.html#af9db130c860b00078874db28a8805226" target="_top" xlink:title="Free arrays depending on the number of Fourier coefficients nunv.">
<polygon fill="white" stroke="#666666" points="348,-284 262,-284 262,-265 348,-265 348,-284"/>
<text text-anchor="middle" x="305" y="-272" font-family="Helvetica,sans-Serif" font-size="10.00">free_mem_nunv</text>
</a>
</g>
</g>
<!-- Node2&#45;&gt;Node4 -->
<g id="edge3" class="edge">
<title>Node2&#45;&gt;Node4</title>
<path fill="none" stroke="#63b8ff" d="M182.3,-289C202.62,-286.58 228.01,-283.55 250.34,-280.89"/>
<polygon fill="#63b8ff" stroke="#63b8ff" points="250.68,-284.38 260.19,-279.72 249.85,-277.43 250.68,-284.38"/>
</g>
<!-- Node5 -->
<g id="node5" class="node">
<title>Node5</title>
<g id="a_node5"><a xlink:href="../../dd/df2/namespacevacmod.html#ade3824460b4eb61403c35f6abe95cd89" target="_top" xlink:title=" ">
<polygon fill="white" stroke="#666666" points="535,-284 404,-284 404,-265 535,-265 535,-284"/>
<text text-anchor="middle" x="469.5" y="-272" font-family="Helvetica,sans-Serif" font-size="10.00">vacmod::free_mem_nestor</text>
</a>
</g>
</g>
<!-- Node4&#45;&gt;Node5 -->
<g id="edge4" class="edge">
<title>Node4&#45;&gt;Node5</title>
<path fill="none" stroke="#63b8ff" d="M348.27,-274.5C361.76,-274.5 377.13,-274.5 392.26,-274.5"/>
<polygon fill="#63b8ff" stroke="#63b8ff" points="392.24,-278 402.24,-274.5 392.24,-271 392.24,-278"/>
</g>
<!-- Node8 -->
<g id="node8" class="node">
<title>Node8</title>
<g id="a_node8"><a xlink:href="../../d2/dc3/open__output__files_8f90.html#a8e2e97aad77c7099fa003f98f48d4dfc" target="_top" xlink:title="Open output files.">
<polygon fill="white" stroke="#666666" points="351,-229 259,-229 259,-210 351,-210 351,-229"/>
<text text-anchor="middle" x="305" y="-217" font-family="Helvetica,sans-Serif" font-size="10.00">open_output_files</text>
</a>
</g>
</g>
<!-- Node7&#45;&gt;Node8 -->
<g id="edge7" class="edge">
<title>Node7&#45;&gt;Node8</title>
<path fill="none" stroke="#63b8ff" d="M168.72,-219.5C189.54,-219.5 220.38,-219.5 247.36,-219.5"/>
<polygon fill="#63b8ff" stroke="#63b8ff" points="247.13,-223 257.13,-219.5 247.13,-216 247.13,-223"/>
</g>
<!-- Node9 -->
<g id="node9" class="node">
<title>Node9</title>
<g id="a_node9"><a xlink:href="../../d0/d29/namespacesafe__open__mod.html#aab207f9769415b0cccd91260a8382eeb" target="_top" xlink:title=" ">
<polygon fill="white" stroke="#666666" points="537,-191 402,-191 402,-172 537,-172 537,-191"/>
<text text-anchor="middle" x="469.5" y="-179" font-family="Helvetica,sans-Serif" font-size="10.00">safe_open_mod::safe_open</text>
</a>
</g>
</g>
<!-- Node8&#45;&gt;Node9 -->
<g id="edge8" class="edge">
<title>Node8&#45;&gt;Node9</title>
<path fill="none" stroke="#63b8ff" d="M348.69,-209.52C368.95,-204.78 393.38,-199.07 414.87,-194.04"/>
<polygon fill="#63b8ff" stroke="#63b8ff" points="415.39,-197.51 424.33,-191.83 413.8,-190.7 415.39,-197.51"/>
</g>
<!-- Node10&#45;&gt;Node10 -->
<g id="edge10" class="edge">
<title>Node10&#45;&gt;Node10</title>
<path fill="none" stroke="#63b8ff" d="M124.4,-174.37C115.69,-182.94 122.05,-192 143.5,-192 155.23,-192 162.45,-189.29 165.15,-185.43"/>
<polygon fill="#63b8ff" stroke="#63b8ff" points="168.6,-184.8 162.94,-175.84 161.78,-186.37 168.6,-184.8"/>
</g>
<!-- Node11&#45;&gt;Node9 -->
<g id="edge13" class="edge">
<title>Node11&#45;&gt;Node9</title>
<path fill="none" stroke="#63b8ff" d="M177.39,-136.47C187.32,-139.41 198.18,-142.87 208,-146.5 224.42,-152.58 227.04,-158.15 244,-162.5 291.65,-174.73 346.66,-179.53 390.3,-181.25"/>
<polygon fill="#63b8ff" stroke="#63b8ff" points="390.09,-184.74 400.2,-181.59 390.33,-177.75 390.09,-184.74"/>
</g>
<!-- Node12 -->
<g id="node12" class="node">
<title>Node12</title>
<g id="a_node12"><a xlink:href="../../d8/dbf/namespacevmec__input.html#a02b29863a947531e6c4e8d7c66c5a5e0" target="_top" xlink:title=" ">
<polygon fill="white" stroke="#666666" points="366,-153.5 244,-153.5 244,-123.5 366,-123.5 366,-153.5"/>
<text text-anchor="start" x="252" y="-141.5" font-family="Helvetica,sans-Serif" font-size="10.00">vmec_input::read_indata</text>
<text text-anchor="middle" x="305" y="-130.5" font-family="Helvetica,sans-Serif" font-size="10.00">_namelist</text>
</a>
</g>
</g>
<!-- Node11&#45;&gt;Node12 -->
<g id="edge12" class="edge">
<title>Node11&#45;&gt;Node12</title>
<path fill="none" stroke="#63b8ff" d="M177.16,-129.75C193.16,-130.86 213.1,-132.23 232.4,-133.56"/>
<polygon fill="#63b8ff" stroke="#63b8ff" points="231.92,-137.04 242.14,-134.23 232.4,-130.05 231.92,-137.04"/>
</g>
<!-- Node13 -->
<g id="node13" class="node">
<title>Node13</title>
<g id="a_node13"><a xlink:href="../../d2/d04/namespacevacmod0.html#a4be777018e003400355a27b190d7d39a" target="_top" xlink:title=" ">
<polygon fill="white" stroke="#666666" points="358.5,-105.5 251.5,-105.5 251.5,-75.5 358.5,-75.5 358.5,-105.5"/>
<text text-anchor="start" x="259.5" y="-93.5" font-family="Helvetica,sans-Serif" font-size="10.00">vacmod0::set_nestor</text>
<text text-anchor="middle" x="305" y="-82.5" font-family="Helvetica,sans-Serif" font-size="10.00">_sizes</text>
</a>
</g>
</g>
<!-- Node11&#45;&gt;Node13 -->
<g id="edge14" class="edge">
<title>Node11&#45;&gt;Node13</title>
<path fill="none" stroke="#63b8ff" d="M177.16,-119.92C195.32,-115.71 218.56,-110.32 240.17,-105.31"/>
<polygon fill="#63b8ff" stroke="#63b8ff" points="240.86,-108.74 249.81,-103.07 239.28,-101.92 240.86,-108.74"/>
</g>
<!-- Node14&#45;&gt;Node9 -->
<g id="edge16" class="edge">
<title>Node14&#45;&gt;Node9</title>
<path fill="none" stroke="#63b8ff" d="M202.23,-41.14C248.87,-38.57 314.92,-40.93 366,-66.5 408.46,-87.76 441.32,-134.84 457.48,-161.7"/>
<polygon fill="#63b8ff" stroke="#63b8ff" points="454.38,-163.34 462.43,-170.23 460.44,-159.82 454.38,-163.34"/>
</g>
<!-- Node15 -->
<g id="node15" class="node">
<title>Node15</title>
<g id="a_node15"><a xlink:href="../../d1/d41/namespacemgrid__mod.html#aa4818ade7a169c68f8b7c3a225fd287e" target="_top" xlink:title=" ">
<polygon fill="white" stroke="#666666" points="363,-19 247,-19 247,0 363,0 363,-19"/>
<text text-anchor="middle" x="305" y="-7" font-family="Helvetica,sans-Serif" font-size="10.00">mgrid_mod::sum_bfield</text>
</a>
</g>
</g>
<!-- Node14&#45;&gt;Node15 -->
<g id="edge17" class="edge">
<title>Node14&#45;&gt;Node15</title>
<path fill="none" stroke="#63b8ff" d="M186.41,-37.52C206.2,-32.8 230.04,-27.12 251.07,-22.11"/>
<polygon fill="#63b8ff" stroke="#63b8ff" points="251.71,-25.56 260.62,-19.83 250.09,-18.75 251.71,-25.56"/>
</g>
</g>
</svg>
        <g id="navigator" transform="translate(0 0)" fill="#404254">
                <rect fill="#f2f5e9" fill-opacity="0.5" stroke="#606060" stroke-width=".5" x="0" y="0" width="60" height="60"/>
                <use id="zoomplus" xlink:href="#zoomPlus" x="17" y="9" onmousedown="handleZoom(evt,'in')"/>
                <use id="zoomminus" xlink:href="#zoomMin" x="42" y="9" onmousedown="handleZoom(evt,'out')"/>
                <use id="reset" xlink:href="#resetDef" x="30" y="36" onmousedown="handleReset()"/>
                <g id="arrowUp" xlink:href="#dirArrow" transform="translate(30 24)" onmousedown="handlePan(0,-1)">
                  <use xlink:href="#rim" fill="#404040">
                        <set attributeName="fill" to="#808080" begin="arrowUp.mouseover" end="arrowUp.mouseout"/>
                  </use>
                  <path fill="none" stroke="white" stroke-width="1.5" d="M0,-3.0v7 M-2.5,-0.5L0,-3.0L2.5,-0.5"/>
                </g>
                <g id="arrowRight" xlink:href="#dirArrow" transform="rotate(90) translate(36 -43)" onmousedown="handlePan(1,0)">
                  <use xlink:href="#rim" fill="#404040">
                        <set attributeName="fill" to="#808080" begin="arrowRight.mouseover" end="arrowRight.mouseout"/>
                  </use>
                  <path fill="none" stroke="white" stroke-width="1.5" d="M0,-3.0v7 M-2.5,-0.5L0,-3.0L2.5,-0.5"/>
                </g>
                <g id="arrowDown" xlink:href="#dirArrow" transform="rotate(180) translate(-30 -48)" onmousedown="handlePan(0,1)">
                  <use xlink:href="#rim" fill="#404040">
                        <set attributeName="fill" to="#808080" begin="arrowDown.mouseover" end="arrowDown.mouseout"/>
                  </use>
                  <path fill="none" stroke="white" stroke-width="1.5" d="M0,-3.0v7 M-2.5,-0.5L0,-3.0L2.5,-0.5"/>
                </g>
                <g id="arrowLeft" xlink:href="#dirArrow" transform="rotate(270) translate(-36 17)" onmousedown="handlePan(-1,0)">
                  <use xlink:href="#rim" fill="#404040">
                        <set attributeName="fill" to="#808080" begin="arrowLeft.mouseover" end="arrowLeft.mouseout"/>
                  </use>
                  <path fill="none" stroke="white" stroke-width="1.5" d="M0,-3.0v7 M-2.5,-0.5L0,-3.0L2.5,-0.5"/>
                </g>
        </g>
        <svg viewBox="0 0 15 15" width="100%" height="30px" preserveAspectRatio="xMaxYMin meet">
         <g id="arrow_out" transform="scale(0.3 0.3)">
          <a xlink:href="readin_8f90_a60f2bfd8fc6f7c3e027a8f91ef0c7b25_cgraph_org.svg" target="_base">
           <rect id="button" ry="5" rx="5" y="6" x="6" height="38" width="38"
                fill="#f2f5e9" fill-opacity="0.5" stroke="#606060" stroke-width="1.0"/>
           <path id="arrow"
             d="M 11.500037,31.436501 C 11.940474,20.09759 22.043105,11.32322 32.158766,21.979434 L 37.068811,17.246167 C 37.068811,17.246167 37.088388,32 37.088388,32 L 22.160133,31.978069 C 22.160133,31.978069 26.997745,27.140456 26.997745,27.140456 C 18.528582,18.264221 13.291696,25.230495 11.500037,31.436501 z"
             style="fill:#404040;"/>
          </a>
         </g>
        </svg>
</svg>
