<?xml version="1.0" encoding="UTF-8" standalone="no"?>
<!DOCTYPE svg PUBLIC "-//W3C//DTD SVG 1.1//EN"
 "http://www.w3.org/Graphics/SVG/1.1/DTD/svg11.dtd">
<!-- Generated by graphviz version 2.47.1 (20210421.1823)
 -->
<!-- Title: evolve Pages: 1 -->
<svg width="325pt" height="237pt"
 viewBox="0.00 0.00 325.00 237.00" xmlns="http://www.w3.org/2000/svg" xmlns:xlink="http://www.w3.org/1999/xlink">
<g id="graph0" class="graph" transform="scale(1 1) rotate(0) translate(4 233)">
<title>evolve</title>
<polygon fill="white" stroke="transparent" points="-4,4 -4,-233 321,-233 321,4 -4,4"/>
<!-- Node1 -->
<g id="node1" class="node">
<title>Node1</title>
<g id="a_node1"><a xlink:title="Take a single time step in Fourier space to evolve the Fourier coefficients describing the equilibriu...">
<polygon fill="#bfbfbf" stroke="black" points="0,-95.5 0,-114.5 45,-114.5 45,-95.5 0,-95.5"/>
<text text-anchor="middle" x="22.5" y="-102.5" font-family="Helvetica,sans-Serif" font-size="10.00">evolve</text>
</a>
</g>
</g>
<!-- Node2 -->
<g id="node2" class="node">
<title>Node2</title>
<g id="a_node2"><a xlink:href="../../d3/d4f/funct3d_8f90.html#a800bacc22176e16323899df87b55c547" target="_top" xlink:title="Evaluate the three&#45;dimensional MHD energy functional.">
<polygon fill="white" stroke="black" points="81,-95.5 81,-114.5 130,-114.5 130,-95.5 81,-95.5"/>
<text text-anchor="middle" x="105.5" y="-102.5" font-family="Helvetica,sans-Serif" font-size="10.00">funct3d</text>
</a>
</g>
</g>
<!-- Node1&#45;&gt;Node2 -->
<g id="edge1" class="edge">
<title>Node1&#45;&gt;Node2</title>
<path fill="none" stroke="midnightblue" d="M45.21,-105C53,-105 61.99,-105 70.58,-105"/>
<polygon fill="midnightblue" stroke="midnightblue" points="70.74,-108.5 80.74,-105 70.74,-101.5 70.74,-108.5"/>
</g>
<!-- Node3 -->
<g id="node3" class="node">
<title>Node3</title>
<g id="a_node3"><a xlink:href="../../d5/de7/alias_8f90.html#a971bf2e3997d8e5ed08c060b651c88c4" target="_top" xlink:title="Fourier transform alias force from ztemp to gcons and also return intermediate output in g(c,...">
<polygon fill="white" stroke="black" points="174,-190.5 174,-209.5 211,-209.5 211,-190.5 174,-190.5"/>
<text text-anchor="middle" x="192.5" y="-197.5" font-family="Helvetica,sans-Serif" font-size="10.00">alias</text>
</a>
</g>
</g>
<!-- Node2&#45;&gt;Node3 -->
<g id="edge2" class="edge">
<title>Node2&#45;&gt;Node3</title>
<path fill="none" stroke="midnightblue" d="M112.74,-114.54C122.85,-129.62 143.94,-159.46 166,-181 167.06,-182.04 168.18,-183.06 169.34,-184.08"/>
<polygon fill="midnightblue" stroke="midnightblue" points="167.2,-186.85 177.19,-190.38 171.58,-181.39 167.2,-186.85"/>
</g>
<!-- Node4 -->
<g id="node4" class="node">
<title>Node4</title>
<g id="a_node4"><a xlink:href="../../d7/d61/bcovar_8f90.html#a1e1624195f0c0c7daa9f49d83bae5ce8" target="_top" xlink:title="Compute the covariant components of the magnetic field , .">
<polygon fill="white" stroke="black" points="169.5,-152.5 169.5,-171.5 215.5,-171.5 215.5,-152.5 169.5,-152.5"/>
<text text-anchor="middle" x="192.5" y="-159.5" font-family="Helvetica,sans-Serif" font-size="10.00">bcovar</text>
</a>
</g>
</g>
<!-- Node2&#45;&gt;Node4 -->
<g id="edge3" class="edge">
<title>Node2&#45;&gt;Node4</title>
<path fill="none" stroke="midnightblue" d="M120.92,-114.67C134.06,-123.48 153.7,-136.65 168.92,-146.86"/>
<polygon fill="midnightblue" stroke="midnightblue" points="167.04,-149.81 177.29,-152.47 170.94,-144 167.04,-149.81"/>
</g>
<!-- Node9 -->
<g id="node9" class="node">
<title>Node9</title>
<g id="a_node9"><a xlink:href="../../db/d74/convert_8f90.html#ae6d3862ea21a8d39210a79c6955b5b75" target="_top" xlink:title="Convert internal mode representation to standard form for output (coefficients of cos(mu&#45;nv),...">
<polygon fill="white" stroke="black" points="168,-114.5 168,-133.5 217,-133.5 217,-114.5 168,-114.5"/>
<text text-anchor="middle" x="192.5" y="-121.5" font-family="Helvetica,sans-Serif" font-size="10.00">convert</text>
</a>
</g>
</g>
<!-- Node2&#45;&gt;Node9 -->
<g id="edge8" class="edge">
<title>Node2&#45;&gt;Node9</title>
<path fill="none" stroke="midnightblue" d="M130.18,-110.29C138.84,-112.23 148.8,-114.46 158.14,-116.54"/>
<polygon fill="midnightblue" stroke="midnightblue" points="157.43,-119.97 167.95,-118.74 158.95,-113.14 157.43,-119.97"/>
</g>
<!-- Node10 -->
<g id="node10" class="node">
<title>Node10</title>
<g id="a_node10"><a xlink:href="../../de/d0c/forces_8f90.html#a7b4708aaec3cc94526474c16bc3a16f0" target="_top" xlink:title="Compute the real&#45;space MHD forces.">
<polygon fill="white" stroke="black" points="170.5,-76.5 170.5,-95.5 214.5,-95.5 214.5,-76.5 170.5,-76.5"/>
<text text-anchor="middle" x="192.5" y="-83.5" font-family="Helvetica,sans-Serif" font-size="10.00">forces</text>
</a>
</g>
</g>
<!-- Node2&#45;&gt;Node10 -->
<g id="edge9" class="edge">
<title>Node2&#45;&gt;Node10</title>
<path fill="none" stroke="midnightblue" d="M130.18,-99.71C139.51,-97.62 150.36,-95.2 160.32,-92.97"/>
<polygon fill="midnightblue" stroke="midnightblue" points="161.27,-96.34 170.27,-90.75 159.75,-89.51 161.27,-96.34"/>
</g>
<!-- Node11 -->
<g id="node11" class="node">
<title>Node11</title>
<g id="a_node11"><a xlink:href="../../d8/dc3/jacobian_8f90.html#af346f65d2aa225d9ede6e0f23add6142" target="_top" xlink:title="Evaulate the Jacobian of the transform from flux&#45; to cylindrical coordinates.">
<polygon fill="white" stroke="black" points="166,-38.5 166,-57.5 219,-57.5 219,-38.5 166,-38.5"/>
<text text-anchor="middle" x="192.5" y="-45.5" font-family="Helvetica,sans-Serif" font-size="10.00">jacobian</text>
</a>
</g>
</g>
<!-- Node2&#45;&gt;Node11 -->
<g id="edge10" class="edge">
<title>Node2&#45;&gt;Node11</title>
<path fill="none" stroke="midnightblue" d="M120.92,-95.33C134.06,-86.52 153.7,-73.35 168.92,-63.14"/>
<polygon fill="midnightblue" stroke="midnightblue" points="170.94,-66 177.29,-57.53 167.04,-60.19 170.94,-66"/>
</g>
<!-- Node12 -->
<g id="node12" class="node">
<title>Node12</title>
<g id="a_node12"><a xlink:href="../../dc/d49/totzsp_8f90.html#ac4756c0f66a5a01d9c08334a98a61b21" target="_top" xlink:title=" ">
<polygon fill="white" stroke="black" points="168.5,-0.5 168.5,-19.5 216.5,-19.5 216.5,-0.5 168.5,-0.5"/>
<text text-anchor="middle" x="192.5" y="-7.5" font-family="Helvetica,sans-Serif" font-size="10.00">totzsps</text>
</a>
</g>
</g>
<!-- Node2&#45;&gt;Node12 -->
<g id="edge11" class="edge">
<title>Node2&#45;&gt;Node12</title>
<path fill="none" stroke="midnightblue" d="M112.74,-95.46C122.85,-80.38 143.94,-50.54 166,-29 167.06,-27.96 168.18,-26.94 169.34,-25.92"/>
<polygon fill="midnightblue" stroke="midnightblue" points="171.58,-28.61 177.19,-19.62 167.2,-23.15 171.58,-28.61"/>
</g>
<!-- Node5 -->
<g id="node5" class="node">
<title>Node5</title>
<g id="a_node5"><a xlink:href="../../d8/d7d/add__fluxes_8f90.html#a988e7013ef02301b9cfbde5b8068d5af" target="_top" xlink:title="Add the magnetic fluxes to the tangential derivatives of &#160;to arrive at the contravariant magnetic fie...">
<polygon fill="white" stroke="black" points="255,-209.5 255,-228.5 317,-228.5 317,-209.5 255,-209.5"/>
<text text-anchor="middle" x="286" y="-216.5" font-family="Helvetica,sans-Serif" font-size="10.00">add_fluxes</text>
</a>
</g>
</g>
<!-- Node4&#45;&gt;Node5 -->
<g id="edge4" class="edge">
<title>Node4&#45;&gt;Node5</title>
<path fill="none" stroke="midnightblue" d="M209.02,-171.67C223.3,-180.57 244.7,-193.9 261.15,-204.14"/>
<polygon fill="midnightblue" stroke="midnightblue" points="259.37,-207.16 269.71,-209.47 263.07,-201.22 259.37,-207.16"/>
</g>
<!-- Node6 -->
<g id="node6" class="node">
<title>Node6</title>
<g id="a_node6"><a xlink:href="../../d9/dff/calc__fbal_8f90.html#a6cdc3d21c48f66aeaff8ab5e639641b6" target="_top" xlink:title="Compute flux&#45;surface averaged radial force balance .">
<polygon fill="white" stroke="black" points="258,-171.5 258,-190.5 314,-190.5 314,-171.5 258,-171.5"/>
<text text-anchor="middle" x="286" y="-178.5" font-family="Helvetica,sans-Serif" font-size="10.00">calc_fbal</text>
</a>
</g>
</g>
<!-- Node4&#45;&gt;Node6 -->
<g id="edge5" class="edge">
<title>Node4&#45;&gt;Node6</title>
<path fill="none" stroke="midnightblue" d="M215.65,-166.6C225.37,-168.62 237.04,-171.04 248.02,-173.32"/>
<polygon fill="midnightblue" stroke="midnightblue" points="247.32,-176.75 257.83,-175.36 248.75,-169.9 247.32,-176.75"/>
</g>
<!-- Node7 -->
<g id="node7" class="node">
<title>Node7</title>
<g id="a_node7"><a xlink:href="../../d4/d51/lamcal_8f90.html#aae66bdcec0bbb969704413d933148096" target="_top" xlink:title="Normalization parameters for .">
<polygon fill="white" stroke="black" points="263.5,-133.5 263.5,-152.5 308.5,-152.5 308.5,-133.5 263.5,-133.5"/>
<text text-anchor="middle" x="286" y="-140.5" font-family="Helvetica,sans-Serif" font-size="10.00">lamcal</text>
</a>
</g>
</g>
<!-- Node4&#45;&gt;Node7 -->
<g id="edge6" class="edge">
<title>Node4&#45;&gt;Node7</title>
<path fill="none" stroke="midnightblue" d="M215.65,-157.4C226.97,-155.05 240.95,-152.15 253.38,-149.57"/>
<polygon fill="midnightblue" stroke="midnightblue" points="254.29,-152.95 263.37,-147.49 252.87,-146.1 254.29,-152.95"/>
</g>
<!-- Node8 -->
<g id="node8" class="node">
<title>Node8</title>
<g id="a_node8"><a xlink:href="../../d4/da9/precondn_8f90.html#a4c530a7978360300894520e9c5f7663c" target="_top" xlink:title="Compute preconditioning matrix elements for , &#160;force.">
<polygon fill="white" stroke="black" points="258,-95.5 258,-114.5 314,-114.5 314,-95.5 258,-95.5"/>
<text text-anchor="middle" x="286" y="-102.5" font-family="Helvetica,sans-Serif" font-size="10.00">precondn</text>
</a>
</g>
</g>
<!-- Node4&#45;&gt;Node8 -->
<g id="edge7" class="edge">
<title>Node4&#45;&gt;Node8</title>
<path fill="none" stroke="midnightblue" d="M209.02,-152.33C223.3,-143.43 244.7,-130.1 261.15,-119.86"/>
<polygon fill="midnightblue" stroke="midnightblue" points="263.07,-122.78 269.71,-114.53 259.37,-116.84 263.07,-122.78"/>
</g>
</g>
</svg>
