<?xml version="1.0" encoding="UTF-8" standalone="no"?>
<!DOCTYPE svg PUBLIC "-//W3C//DTD SVG 1.1//EN"
 "http://www.w3.org/Graphics/SVG/1.1/DTD/svg11.dtd">
<!-- Generated by graphviz version 2.48.0 (20210719.0153)
 -->
<!-- Title: evolve Pages: 1 -->
<!--zoomable 693 -->
<svg id="main" version="1.1" xmlns="http://www.w3.org/2000/svg" xmlns:xlink="http://www.w3.org/1999/xlink" xml:space="preserve" onload="init(evt)">
<style type="text/css"><![CDATA[
.edge:hover path { stroke: red; }
.edge:hover polygon { stroke: red; fill: red; }
]]></style>
<script type="text/javascript"><![CDATA[
var edges = document.getElementsByTagName('g');
if (edges && edges.length) {
  for (var i=0;i<edges.length;i++) {
    if (edges[i].id.substr(0,4)=='edge') {
      edges[i].setAttribute('class','edge');
    }
  }
}
]]></script>
        <defs>
                <circle id="rim" cx="0" cy="0" r="7"/>
                <circle id="rim2" cx="0" cy="0" r="3.5"/>
                <g id="zoomPlus">
                        <use xlink:href="#rim" fill="#404040">
                                <set attributeName="fill" to="#808080" begin="zoomplus.mouseover" end="zoomplus.mouseout"/>
                        </use>
                        <path d="M-4,0h8M0,-4v8" fill="none" stroke="white" stroke-width="1.5" pointer-events="none"/>
                </g>
                <g id="zoomMin">
                        <use xlink:href="#rim" fill="#404040">
                                <set attributeName="fill" to="#808080" begin="zoomminus.mouseover" end="zoomminus.mouseout"/>
                        </use>
                        <path d="M-4,0h8" fill="none" stroke="white" stroke-width="1.5" pointer-events="none"/>
                </g>
                <g id="dirArrow">
                        <path fill="none" stroke="white" stroke-width="1.5" d="M0,-3.0v7 M-2.5,-0.5L0,-3.0L2.5,-0.5"/>
                </g>
               <g id="resetDef">
                       <use xlink:href="#rim2" fill="#404040">
                               <set attributeName="fill" to="#808080" begin="reset.mouseover" end="reset.mouseout"/>
                       </use>
               </g>
        </defs>

<script type="text/javascript">
var viewWidth = 580;
var viewHeight = 693;
var sectionId = 'dynsection-0';
</script>
<script xlink:href="../../svgpan.js"/>
<svg id="graph" class="graph">
<g id="viewport">
<title>evolve</title>
<polygon fill="white" stroke="transparent" points="-4,4 -4,-689 576,-689 576,4 -4,4"/>
<!-- Node1 -->
<g id="node1" class="node">
<title>Node1</title>
<g id="a_node1"><a xlink:title="Take a single time step in Fourier space to evolve the Fourier coefficients describing the equilibriu...">
<polygon fill="#bfbfbf" stroke="black" points="0,-342.5 0,-361.5 45,-361.5 45,-342.5 0,-342.5"/>
<text text-anchor="middle" x="22.5" y="-349.5" font-family="Helvetica,sans-Serif" font-size="10.00">evolve</text>
</a>
</g>
</g>
<!-- Node2 -->
<g id="node2" class="node">
<title>Node2</title>
<g id="a_node2"><a xlink:href="../../d3/d4f/funct3d_8f90.html#a800bacc22176e16323899df87b55c547" target="_top" xlink:title="Evaluate the three&#45;dimensional MHD energy functional. Think of this as the &quot;forward model&quot; that tells...">
<polygon fill="white" stroke="black" points="81,-342.5 81,-361.5 130,-361.5 130,-342.5 81,-342.5"/>
<text text-anchor="middle" x="105.5" y="-349.5" font-family="Helvetica,sans-Serif" font-size="10.00">funct3d</text>
</a>
</g>
</g>
<!-- Node1&#45;&gt;Node2 -->
<g id="edge1" class="edge">
<title>Node1&#45;&gt;Node2</title>
<path fill="none" stroke="midnightblue" d="M45.21,-352C53,-352 61.99,-352 70.58,-352"/>
<polygon fill="midnightblue" stroke="midnightblue" points="70.74,-355.5 80.74,-352 70.74,-348.5 70.74,-355.5"/>
</g>
<!-- Node3 -->
<g id="node3" class="node">
<title>Node3</title>
<g id="a_node3"><a xlink:href="../../d5/de7/alias_8f90.html#a971bf2e3997d8e5ed08c060b651c88c4" target="_top" xlink:title="Fourier&#45;space bandpass filter on constraint force for spectral condensation.">
<polygon fill="white" stroke="black" points="204.5,-646.5 204.5,-665.5 241.5,-665.5 241.5,-646.5 204.5,-646.5"/>
<text text-anchor="middle" x="223" y="-653.5" font-family="Helvetica,sans-Serif" font-size="10.00">alias</text>
</a>
</g>
</g>
<!-- Node2&#45;&gt;Node3 -->
<g id="edge2" class="edge">
<title>Node2&#45;&gt;Node3</title>
<path fill="none" stroke="midnightblue" d="M107.25,-361.65C110.91,-406.53 128.3,-594.43 166,-637 173.25,-645.19 184.16,-649.85 194.43,-652.5"/>
<polygon fill="midnightblue" stroke="midnightblue" points="193.82,-655.95 204.33,-654.55 195.24,-649.1 193.82,-655.95"/>
</g>
<!-- Node4 -->
<g id="node4" class="node">
<title>Node4</title>
<g id="a_node4"><a xlink:href="../../d7/d61/bcovar_8f90.html#a1e1624195f0c0c7daa9f49d83bae5ce8" target="_top" xlink:title="Compute the covariant components of the magnetic field , .">
<polygon fill="white" stroke="black" points="200,-608.5 200,-627.5 246,-627.5 246,-608.5 200,-608.5"/>
<text text-anchor="middle" x="223" y="-615.5" font-family="Helvetica,sans-Serif" font-size="10.00">bcovar</text>
</a>
</g>
</g>
<!-- Node2&#45;&gt;Node4 -->
<g id="edge3" class="edge">
<title>Node2&#45;&gt;Node4</title>
<path fill="none" stroke="midnightblue" d="M107.59,-361.72C112.39,-402.93 132.91,-562.76 166,-599 172.29,-605.89 181.16,-610.28 190,-613.08"/>
<polygon fill="midnightblue" stroke="midnightblue" points="189.26,-616.5 199.81,-615.61 191.01,-609.72 189.26,-616.5"/>
</g>
<!-- Node9 -->
<g id="node9" class="node">
<title>Node9</title>
<g id="a_node9"><a xlink:href="../../db/d74/convert_8f90.html#ae6d3862ea21a8d39210a79c6955b5b75" target="_top" xlink:title="Convert internal mode representation to standard form for output (coefficients of cos(mu&#45;nv),...">
<polygon fill="white" stroke="black" points="198.5,-570.5 198.5,-589.5 247.5,-589.5 247.5,-570.5 198.5,-570.5"/>
<text text-anchor="middle" x="223" y="-577.5" font-family="Helvetica,sans-Serif" font-size="10.00">convert</text>
</a>
</g>
</g>
<!-- Node2&#45;&gt;Node9 -->
<g id="edge8" class="edge">
<title>Node2&#45;&gt;Node9</title>
<path fill="none" stroke="midnightblue" d="M106.29,-361.84C106.12,-394.76 110.09,-502.24 166,-561 172.05,-567.36 180.31,-571.59 188.63,-574.41"/>
<polygon fill="midnightblue" stroke="midnightblue" points="187.71,-577.79 198.29,-577.1 189.6,-571.04 187.71,-577.79"/>
</g>
<!-- Node10 -->
<g id="node10" class="node">
<title>Node10</title>
<g id="a_node10"><a xlink:href="../../de/d0c/forces_8f90.html#a7b4708aaec3cc94526474c16bc3a16f0" target="_top" xlink:title="Compute the real&#45;space MHD forces.">
<polygon fill="white" stroke="black" points="201,-532.5 201,-551.5 245,-551.5 245,-532.5 201,-532.5"/>
<text text-anchor="middle" x="223" y="-539.5" font-family="Helvetica,sans-Serif" font-size="10.00">forces</text>
</a>
</g>
</g>
<!-- Node2&#45;&gt;Node10 -->
<g id="edge9" class="edge">
<title>Node2&#45;&gt;Node10</title>
<path fill="none" stroke="midnightblue" d="M107,-361.66C109.03,-390.41 118.92,-476.28 166,-523 172.78,-529.73 182.02,-534.07 191.04,-536.88"/>
<polygon fill="midnightblue" stroke="midnightblue" points="190.44,-540.34 201,-539.44 192.18,-533.56 190.44,-540.34"/>
</g>
<!-- Node11 -->
<g id="node11" class="node">
<title>Node11</title>
<g id="a_node11"><a xlink:href="../../d8/dc3/jacobian_8f90.html#af346f65d2aa225d9ede6e0f23add6142" target="_top" xlink:title="Evaulate the Jacobian of the transform from flux&#45; to cylindrical coordinates.">
<polygon fill="white" stroke="black" points="196.5,-494.5 196.5,-513.5 249.5,-513.5 249.5,-494.5 196.5,-494.5"/>
<text text-anchor="middle" x="223" y="-501.5" font-family="Helvetica,sans-Serif" font-size="10.00">jacobian</text>
</a>
</g>
</g>
<!-- Node2&#45;&gt;Node11 -->
<g id="edge10" class="edge">
<title>Node2&#45;&gt;Node11</title>
<path fill="none" stroke="midnightblue" d="M108.08,-361.58C112.57,-385.8 127.66,-450.09 166,-485 171.81,-490.29 179.14,-494.11 186.57,-496.87"/>
<polygon fill="midnightblue" stroke="midnightblue" points="185.69,-500.26 196.28,-499.93 187.79,-493.59 185.69,-500.26"/>
</g>
<!-- Node12 -->
<g id="node12" class="node">
<title>Node12</title>
<g id="a_node12"><a xlink:href="../../db/da1/nestor__io_8f90.html#a67b1cb19f12a5860a25a89dbd3dfd9c9" target="_top" xlink:title=" ">
<polygon fill="white" stroke="black" points="170.5,-456.5 170.5,-475.5 275.5,-475.5 275.5,-456.5 170.5,-456.5"/>
<text text-anchor="middle" x="223" y="-463.5" font-family="Helvetica,sans-Serif" font-size="10.00">read_nestor_outputs</text>
</a>
</g>
</g>
<!-- Node2&#45;&gt;Node12 -->
<g id="edge11" class="edge">
<title>Node2&#45;&gt;Node12</title>
<path fill="none" stroke="midnightblue" d="M109.95,-361.6C117.29,-380.66 136.24,-423.46 166,-447 168.3,-448.82 170.79,-450.47 173.39,-451.97"/>
<polygon fill="midnightblue" stroke="midnightblue" points="172.06,-455.21 182.57,-456.48 175.14,-448.93 172.06,-455.21"/>
</g>
<!-- Node13 -->
<g id="node13" class="node">
<title>Node13</title>
<g id="a_node13"><a xlink:href="../../db/d5a/residue_8f90.html#a2d42fddb02336c3ce8846116ab5bf089" target="_top" xlink:title="Compute invariant residuals.">
<polygon fill="white" stroke="black" points="199,-418.5 199,-437.5 247,-437.5 247,-418.5 199,-418.5"/>
<text text-anchor="middle" x="223" y="-425.5" font-family="Helvetica,sans-Serif" font-size="10.00">residue</text>
</a>
</g>
</g>
<!-- Node2&#45;&gt;Node13 -->
<g id="edge12" class="edge">
<title>Node2&#45;&gt;Node13</title>
<path fill="none" stroke="midnightblue" d="M114.35,-361.82C124.88,-374.39 144.72,-396.09 166,-409 173.1,-413.31 181.3,-416.79 189.2,-419.54"/>
<polygon fill="midnightblue" stroke="midnightblue" points="188.34,-422.94 198.93,-422.63 190.46,-416.27 188.34,-422.94"/>
</g>
<!-- Node19 -->
<g id="node19" class="node">
<title>Node19</title>
<g id="a_node19"><a xlink:href="../../d5/d6e/restart__iter_8f90.html#ace7df67e039f0ebf69200f91d3cb16cc" target="_top" xlink:title="Save current or restore previous good state vector and reduce time step.">
<polygon fill="white" stroke="black" points="191.5,-380.5 191.5,-399.5 254.5,-399.5 254.5,-380.5 191.5,-380.5"/>
<text text-anchor="middle" x="223" y="-387.5" font-family="Helvetica,sans-Serif" font-size="10.00">restart_iter</text>
</a>
</g>
</g>
<!-- Node2&#45;&gt;Node19 -->
<g id="edge18" class="edge">
<title>Node2&#45;&gt;Node19</title>
<path fill="none" stroke="midnightblue" d="M130.15,-359.78C145.38,-364.79 165.53,-371.42 183.08,-377.2"/>
<polygon fill="midnightblue" stroke="midnightblue" points="182.46,-380.68 193.06,-380.48 184.65,-374.03 182.46,-380.68"/>
</g>
<!-- Node20 -->
<g id="node20" class="node">
<title>Node20</title>
<g id="a_node20"><a xlink:href="../../d4/df3/symforce_8f90.html#a169610bcc5544fc8e16ad1e10ac85dcb" target="_top" xlink:title="Symmetrize forces on restricted &#160;interval &#160;so cos, sin integrals can be performed.">
<polygon fill="white" stroke="black" points="195,-342.5 195,-361.5 251,-361.5 251,-342.5 195,-342.5"/>
<text text-anchor="middle" x="223" y="-349.5" font-family="Helvetica,sans-Serif" font-size="10.00">symforce</text>
</a>
</g>
</g>
<!-- Node2&#45;&gt;Node20 -->
<g id="edge19" class="edge">
<title>Node2&#45;&gt;Node20</title>
<path fill="none" stroke="midnightblue" d="M130.15,-352C145.82,-352 166.71,-352 184.6,-352"/>
<polygon fill="midnightblue" stroke="midnightblue" points="184.73,-355.5 194.73,-352 184.73,-348.5 184.73,-355.5"/>
</g>
<!-- Node21 -->
<g id="node21" class="node">
<title>Node21</title>
<g id="a_node21"><a xlink:href="../../da/d11/symrzl_8f90.html#ac5df1aefe2e993d4416c52c8a727b817" target="_top" xlink:title="Symmetrize , &#160;and .">
<polygon fill="white" stroke="black" points="201,-304.5 201,-323.5 245,-323.5 245,-304.5 201,-304.5"/>
<text text-anchor="middle" x="223" y="-311.5" font-family="Helvetica,sans-Serif" font-size="10.00">symrzl</text>
</a>
</g>
</g>
<!-- Node2&#45;&gt;Node21 -->
<g id="edge20" class="edge">
<title>Node2&#45;&gt;Node21</title>
<path fill="none" stroke="midnightblue" d="M130.15,-344.22C147.72,-338.44 171.84,-330.5 190.96,-324.21"/>
<polygon fill="midnightblue" stroke="midnightblue" points="192.31,-327.45 200.71,-321 190.12,-320.8 192.31,-327.45"/>
</g>
<!-- Node22 -->
<g id="node22" class="node">
<title>Node22</title>
<g id="a_node22"><a xlink:href="../../d0/d6f/tomnsp_8f90.html#a6c7345c0aa0f13f311650d9633e6ecf8" target="_top" xlink:title="Fourier&#45;transform anti&#45;symmetric forces from real space to Fourier space.">
<polygon fill="white" stroke="black" points="196,-266.5 196,-285.5 250,-285.5 250,-266.5 196,-266.5"/>
<text text-anchor="middle" x="223" y="-273.5" font-family="Helvetica,sans-Serif" font-size="10.00">tomnspa</text>
</a>
</g>
</g>
<!-- Node2&#45;&gt;Node22 -->
<g id="edge21" class="edge">
<title>Node2&#45;&gt;Node22</title>
<path fill="none" stroke="midnightblue" d="M114.35,-342.18C124.88,-329.61 144.72,-307.91 166,-295 172.13,-291.28 179.09,-288.17 185.96,-285.62"/>
<polygon fill="midnightblue" stroke="midnightblue" points="187.51,-288.79 195.87,-282.28 185.28,-282.16 187.51,-288.79"/>
</g>
<!-- Node23 -->
<g id="node23" class="node">
<title>Node23</title>
<g id="a_node23"><a xlink:href="../../d0/d6f/tomnsp_8f90.html#aec4b11e4f55e18c6bfc0348c263e31db" target="_top" xlink:title="Fourier&#45;transform symmetric forces from real space to Fourier space.">
<polygon fill="white" stroke="black" points="196,-228.5 196,-247.5 250,-247.5 250,-228.5 196,-228.5"/>
<text text-anchor="middle" x="223" y="-235.5" font-family="Helvetica,sans-Serif" font-size="10.00">tomnsps</text>
</a>
</g>
</g>
<!-- Node2&#45;&gt;Node23 -->
<g id="edge22" class="edge">
<title>Node2&#45;&gt;Node23</title>
<path fill="none" stroke="midnightblue" d="M109.95,-342.4C117.29,-323.34 136.24,-280.54 166,-257 171.92,-252.31 179.07,-248.75 186.24,-246.06"/>
<polygon fill="midnightblue" stroke="midnightblue" points="187.51,-249.32 195.93,-242.89 185.34,-242.67 187.51,-249.32"/>
</g>
<!-- Node24 -->
<g id="node24" class="node">
<title>Node24</title>
<g id="a_node24"><a xlink:href="../../dc/d49/totzsp_8f90.html#a8c3f89c23a3be79d0f993c5031f7eab5" target="_top" xlink:title="Inverse&#45;Fourier&#45;transform anti&#45;symmetric part of geometry from Fourier space to real space.">
<polygon fill="white" stroke="black" points="199,-190.5 199,-209.5 247,-209.5 247,-190.5 199,-190.5"/>
<text text-anchor="middle" x="223" y="-197.5" font-family="Helvetica,sans-Serif" font-size="10.00">totzspa</text>
</a>
</g>
</g>
<!-- Node2&#45;&gt;Node24 -->
<g id="edge23" class="edge">
<title>Node2&#45;&gt;Node24</title>
<path fill="none" stroke="midnightblue" d="M108.08,-342.42C112.57,-318.2 127.66,-253.91 166,-219 172.42,-213.15 180.72,-209.09 188.94,-206.28"/>
<polygon fill="midnightblue" stroke="midnightblue" points="190.18,-209.57 198.81,-203.43 188.23,-202.84 190.18,-209.57"/>
</g>
<!-- Node26 -->
<g id="node26" class="node">
<title>Node26</title>
<g id="a_node26"><a xlink:href="../../dc/d49/totzsp_8f90.html#ac4756c0f66a5a01d9c08334a98a61b21" target="_top" xlink:title="Inverse&#45;Fourier&#45;transform symmetric part of geometry from Fourier space to real space.">
<polygon fill="white" stroke="black" points="199,-152.5 199,-171.5 247,-171.5 247,-152.5 199,-152.5"/>
<text text-anchor="middle" x="223" y="-159.5" font-family="Helvetica,sans-Serif" font-size="10.00">totzsps</text>
</a>
</g>
</g>
<!-- Node2&#45;&gt;Node26 -->
<g id="edge25" class="edge">
<title>Node2&#45;&gt;Node26</title>
<path fill="none" stroke="midnightblue" d="M107,-342.34C109.03,-313.59 118.92,-227.72 166,-181 172.29,-174.76 180.69,-170.57 189.08,-167.76"/>
<polygon fill="midnightblue" stroke="midnightblue" points="190.09,-171.11 198.78,-165.04 188.21,-164.36 190.09,-171.11"/>
</g>
<!-- Node28 -->
<g id="node28" class="node">
<title>Node28</title>
<g id="a_node28"><a xlink:href="../../dd/d6d/vacuum_8f90.html#a0acbc18d2ab7664835d797b42ce49a35" target="_top" xlink:title="Compute the vacuum contribution to the free&#45;boundary energy functional.">
<polygon fill="white" stroke="black" points="197.5,-114.5 197.5,-133.5 248.5,-133.5 248.5,-114.5 197.5,-114.5"/>
<text text-anchor="middle" x="223" y="-121.5" font-family="Helvetica,sans-Serif" font-size="10.00">vacuum</text>
</a>
</g>
</g>
<!-- Node2&#45;&gt;Node28 -->
<g id="edge27" class="edge">
<title>Node2&#45;&gt;Node28</title>
<path fill="none" stroke="midnightblue" d="M106.29,-342.16C106.12,-309.24 110.09,-201.76 166,-143 171.84,-136.87 179.72,-132.71 187.74,-129.9"/>
<polygon fill="midnightblue" stroke="midnightblue" points="188.81,-133.23 197.44,-127.09 186.86,-126.51 188.81,-133.23"/>
</g>
<!-- Node42 -->
<g id="node42" class="node">
<title>Node42</title>
<g id="a_node42"><a xlink:href="../../db/da1/nestor__io_8f90.html#a771059753d70a579e9443aa7ca5a991e" target="_top" xlink:title=" ">
<polygon fill="white" stroke="black" points="172.5,-76.5 172.5,-95.5 273.5,-95.5 273.5,-76.5 172.5,-76.5"/>
<text text-anchor="middle" x="223" y="-83.5" font-family="Helvetica,sans-Serif" font-size="10.00">write_nestor_inputs</text>
</a>
</g>
</g>
<!-- Node2&#45;&gt;Node42 -->
<g id="edge41" class="edge">
<title>Node2&#45;&gt;Node42</title>
<path fill="none" stroke="midnightblue" d="M107.59,-342.28C112.39,-301.07 132.91,-141.24 166,-105 167.21,-103.67 168.52,-102.43 169.91,-101.29"/>
<polygon fill="midnightblue" stroke="midnightblue" points="172.13,-104.01 178.57,-95.6 168.29,-98.16 172.13,-104.01"/>
</g>
<!-- Node43 -->
<g id="node43" class="node">
<title>Node43</title>
<g id="a_node43"><a xlink:href="../../db/dc0/namespacenestor__io.html#a288cc8f23cbfe1484ec6815381cc25c8" target="_top" xlink:title=" ">
<polygon fill="white" stroke="black" points="166,-27 166,-57 280,-57 280,-27 166,-27"/>
<text text-anchor="start" x="174" y="-45" font-family="Helvetica,sans-Serif" font-size="10.00">nestor_io::write_nestor</text>
<text text-anchor="middle" x="223" y="-34" font-family="Helvetica,sans-Serif" font-size="10.00">_outputs</text>
</a>
</g>
</g>
<!-- Node2&#45;&gt;Node43 -->
<g id="edge42" class="edge">
<title>Node2&#45;&gt;Node43</title>
<path fill="none" stroke="midnightblue" d="M107.34,-342.42C111.4,-297.88 130.32,-111.27 166,-67 166.96,-65.81 167.99,-64.67 169.08,-63.59"/>
<polygon fill="midnightblue" stroke="midnightblue" points="171.42,-66.19 176.98,-57.17 167.01,-60.76 171.42,-66.19"/>
</g>
<!-- Node5 -->
<g id="node5" class="node">
<title>Node5</title>
<g id="a_node5"><a xlink:href="../../d8/d7d/add__fluxes_8f90.html#a988e7013ef02301b9cfbde5b8068d5af" target="_top" xlink:title="Add the magnetic fluxes to the tangential derivatives of &#160;to arrive at the contravariant magnetic fie...">
<polygon fill="white" stroke="black" points="323.5,-665.5 323.5,-684.5 385.5,-684.5 385.5,-665.5 323.5,-665.5"/>
<text text-anchor="middle" x="354.5" y="-672.5" font-family="Helvetica,sans-Serif" font-size="10.00">add_fluxes</text>
</a>
</g>
</g>
<!-- Node4&#45;&gt;Node5 -->
<g id="edge4" class="edge">
<title>Node4&#45;&gt;Node5</title>
<path fill="none" stroke="midnightblue" d="M246.11,-624.61C256.54,-627.95 269.06,-632.29 280,-637 296.62,-644.15 299.93,-647.69 316,-656 318.98,-657.54 322.1,-659.14 325.22,-660.73"/>
<polygon fill="midnightblue" stroke="midnightblue" points="323.89,-663.99 334.39,-665.4 327.06,-657.74 323.89,-663.99"/>
</g>
<!-- Node6 -->
<g id="node6" class="node">
<title>Node6</title>
<g id="a_node6"><a xlink:href="../../d9/dff/calc__fbal_8f90.html#a6cdc3d21c48f66aeaff8ab5e639641b6" target="_top" xlink:title="Compute flux&#45;surface averaged radial force balance .">
<polygon fill="white" stroke="black" points="326.5,-627.5 326.5,-646.5 382.5,-646.5 382.5,-627.5 326.5,-627.5"/>
<text text-anchor="middle" x="354.5" y="-634.5" font-family="Helvetica,sans-Serif" font-size="10.00">calc_fbal</text>
</a>
</g>
</g>
<!-- Node4&#45;&gt;Node6 -->
<g id="edge5" class="edge">
<title>Node4&#45;&gt;Node6</title>
<path fill="none" stroke="midnightblue" d="M246.26,-621.27C265.45,-624.08 293.56,-628.21 316.18,-631.52"/>
<polygon fill="midnightblue" stroke="midnightblue" points="315.73,-635 326.14,-632.99 316.75,-628.07 315.73,-635"/>
</g>
<!-- Node7 -->
<g id="node7" class="node">
<title>Node7</title>
<g id="a_node7"><a xlink:href="../../d4/d51/lamcal_8f90.html#aae66bdcec0bbb969704413d933148096" target="_top" xlink:title="Normalization parameters for .">
<polygon fill="white" stroke="black" points="332,-589.5 332,-608.5 377,-608.5 377,-589.5 332,-589.5"/>
<text text-anchor="middle" x="354.5" y="-596.5" font-family="Helvetica,sans-Serif" font-size="10.00">lamcal</text>
</a>
</g>
</g>
<!-- Node4&#45;&gt;Node7 -->
<g id="edge6" class="edge">
<title>Node4&#45;&gt;Node7</title>
<path fill="none" stroke="midnightblue" d="M246.26,-614.73C267.08,-611.68 298.4,-607.08 321.82,-603.65"/>
<polygon fill="midnightblue" stroke="midnightblue" points="322.57,-607.08 331.96,-602.16 321.56,-600.15 322.57,-607.08"/>
</g>
<!-- Node8 -->
<g id="node8" class="node">
<title>Node8</title>
<g id="a_node8"><a xlink:href="../../d4/da9/precondn_8f90.html#a4c530a7978360300894520e9c5f7663c" target="_top" xlink:title="Compute preconditioning matrix elements for , &#160;force.">
<polygon fill="white" stroke="black" points="326.5,-551.5 326.5,-570.5 382.5,-570.5 382.5,-551.5 326.5,-551.5"/>
<text text-anchor="middle" x="354.5" y="-558.5" font-family="Helvetica,sans-Serif" font-size="10.00">precondn</text>
</a>
</g>
</g>
<!-- Node4&#45;&gt;Node8 -->
<g id="edge7" class="edge">
<title>Node4&#45;&gt;Node8</title>
<path fill="none" stroke="midnightblue" d="M246.11,-611.39C256.54,-608.05 269.06,-603.71 280,-599 296.62,-591.85 299.93,-588.31 316,-580 318.98,-578.46 322.1,-576.86 325.22,-575.27"/>
<polygon fill="midnightblue" stroke="midnightblue" points="327.06,-578.26 334.39,-570.6 323.89,-572.01 327.06,-578.26"/>
</g>
<!-- Node14 -->
<g id="node14" class="node">
<title>Node14</title>
<g id="a_node14"><a xlink:href="../../db/d5a/residue_8f90.html#a6b8a6225e22b043a0c73e6be6c99176c" target="_top" xlink:title="Compute internal gr , gz required for &#160;constraint.">
<polygon fill="white" stroke="black" points="317,-475.5 317,-494.5 392,-494.5 392,-475.5 317,-475.5"/>
<text text-anchor="middle" x="354.5" y="-482.5" font-family="Helvetica,sans-Serif" font-size="10.00">constrain_m1</text>
</a>
</g>
</g>
<!-- Node13&#45;&gt;Node14 -->
<g id="edge13" class="edge">
<title>Node13&#45;&gt;Node14</title>
<path fill="none" stroke="midnightblue" d="M247.2,-434.96C257.4,-438.25 269.44,-442.45 280,-447 296.62,-454.15 299.93,-457.69 316,-466 318.98,-467.54 322.1,-469.14 325.22,-470.73"/>
<polygon fill="midnightblue" stroke="midnightblue" points="323.89,-473.99 334.39,-475.4 327.06,-467.74 323.89,-473.99"/>
</g>
<!-- Node15 -->
<g id="node15" class="node">
<title>Node15</title>
<g id="a_node15"><a xlink:href="../../d3/d3a/getfsq_8f90.html#a7b636db95ff23aaea849bd65fba7aa2e" target="_top" xlink:title="Compute total force residual on flux surfaces.">
<polygon fill="white" stroke="black" points="332.5,-437.5 332.5,-456.5 376.5,-456.5 376.5,-437.5 332.5,-437.5"/>
<text text-anchor="middle" x="354.5" y="-444.5" font-family="Helvetica,sans-Serif" font-size="10.00">getfsq</text>
</a>
</g>
</g>
<!-- Node13&#45;&gt;Node15 -->
<g id="edge14" class="edge">
<title>Node13&#45;&gt;Node15</title>
<path fill="none" stroke="midnightblue" d="M247.15,-431.4C268.1,-434.47 299.11,-439.02 322.25,-442.42"/>
<polygon fill="midnightblue" stroke="midnightblue" points="321.86,-445.9 332.27,-443.88 322.88,-438.97 321.86,-445.9"/>
</g>
<!-- Node16 -->
<g id="node16" class="node">
<title>Node16</title>
<g id="a_node16"><a xlink:href="../../db/d5a/residue_8f90.html#aaf8d684a58b8bf9dfdecfdb925960780" target="_top" xlink:title="Compute internal gr , gz required for &#160;constraint.">
<polygon fill="white" stroke="black" points="325,-399.5 325,-418.5 384,-418.5 384,-399.5 325,-399.5"/>
<text text-anchor="middle" x="354.5" y="-406.5" font-family="Helvetica,sans-Serif" font-size="10.00">scale_m1</text>
</a>
</g>
</g>
<!-- Node13&#45;&gt;Node16 -->
<g id="edge15" class="edge">
<title>Node13&#45;&gt;Node16</title>
<path fill="none" stroke="midnightblue" d="M247.15,-424.6C265.87,-421.86 292.62,-417.93 314.62,-414.7"/>
<polygon fill="midnightblue" stroke="midnightblue" points="315.27,-418.15 324.66,-413.23 314.25,-411.22 315.27,-418.15"/>
</g>
<!-- Node17 -->
<g id="node17" class="node">
<title>Node17</title>
<g id="a_node17"><a xlink:href="../../d8/d86/scalfor_8f90.html#a20fb7039b82d05e64d01a2e50431ba5e" target="_top" xlink:title="Build forces from different contributions.">
<polygon fill="white" stroke="black" points="331.5,-361.5 331.5,-380.5 377.5,-380.5 377.5,-361.5 331.5,-361.5"/>
<text text-anchor="middle" x="354.5" y="-368.5" font-family="Helvetica,sans-Serif" font-size="10.00">scalfor</text>
</a>
</g>
</g>
<!-- Node13&#45;&gt;Node17 -->
<g id="edge16" class="edge">
<title>Node13&#45;&gt;Node17</title>
<path fill="none" stroke="midnightblue" d="M247.2,-421.04C257.4,-417.75 269.44,-413.55 280,-409 296.62,-401.85 299.93,-398.31 316,-390 318.98,-388.46 322.1,-386.86 325.22,-385.27"/>
<polygon fill="midnightblue" stroke="midnightblue" points="327.06,-388.26 334.39,-380.6 323.89,-382.01 327.06,-388.26"/>
</g>
<!-- Node18 -->
<g id="node18" class="node">
<title>Node18</title>
<g id="a_node18"><a xlink:href="../../db/d40/tridslv_8f90.html#abf5399c0154abe7424c54d7fa9eb69db" target="_top" xlink:title="Solve a tridiagonal system of equations.">
<polygon fill="white" stroke="black" points="429.5,-361.5 429.5,-380.5 472.5,-380.5 472.5,-361.5 429.5,-361.5"/>
<text text-anchor="middle" x="451" y="-368.5" font-family="Helvetica,sans-Serif" font-size="10.00">tridslv</text>
</a>
</g>
</g>
<!-- Node17&#45;&gt;Node18 -->
<g id="edge17" class="edge">
<title>Node17&#45;&gt;Node18</title>
<path fill="none" stroke="midnightblue" d="M377.9,-371C390.21,-371 405.68,-371 419.13,-371"/>
<polygon fill="midnightblue" stroke="midnightblue" points="419.38,-374.5 429.38,-371 419.38,-367.5 419.38,-374.5"/>
</g>
<!-- Node25 -->
<g id="node25" class="node">
<title>Node25</title>
<g id="a_node25"><a xlink:href="../../dc/d49/totzsp_8f90.html#aff13f873fb632d486fdffc6ee97857c6" target="_top" xlink:title="Convert from internal representation to &quot;physical&quot; rmnsc, zmncc Fourier form.">
<polygon fill="white" stroke="black" points="316,-228.5 316,-247.5 393,-247.5 393,-228.5 316,-228.5"/>
<text text-anchor="middle" x="354.5" y="-235.5" font-family="Helvetica,sans-Serif" font-size="10.00">convert_asym</text>
</a>
</g>
</g>
<!-- Node24&#45;&gt;Node25 -->
<g id="edge24" class="edge">
<title>Node24&#45;&gt;Node25</title>
<path fill="none" stroke="midnightblue" d="M247.15,-206.79C264.86,-211.99 289.77,-219.3 311.04,-225.54"/>
<polygon fill="midnightblue" stroke="midnightblue" points="310.24,-228.95 320.82,-228.41 312.21,-222.24 310.24,-228.95"/>
</g>
<!-- Node27 -->
<g id="node27" class="node">
<title>Node27</title>
<g id="a_node27"><a xlink:href="../../dc/d49/totzsp_8f90.html#a3264ce8fefaa7ede632c4147049aadc5" target="_top" xlink:title="Convert from internal representation to &quot;physical&quot; rmnss, zmncs Fourier form.">
<polygon fill="white" stroke="black" points="318.5,-190.5 318.5,-209.5 390.5,-209.5 390.5,-190.5 318.5,-190.5"/>
<text text-anchor="middle" x="354.5" y="-197.5" font-family="Helvetica,sans-Serif" font-size="10.00">convert_sym</text>
</a>
</g>
</g>
<!-- Node26&#45;&gt;Node27 -->
<g id="edge26" class="edge">
<title>Node26&#45;&gt;Node27</title>
<path fill="none" stroke="midnightblue" d="M247.15,-168.79C264.86,-173.99 289.77,-181.3 311.04,-187.54"/>
<polygon fill="midnightblue" stroke="midnightblue" points="310.24,-190.95 320.82,-190.41 312.21,-184.24 310.24,-190.95"/>
</g>
<!-- Node29 -->
<g id="node29" class="node">
<title>Node29</title>
<g id="a_node29"><a xlink:href="../../db/d3d/bextern_8f90.html#a90228cc5f358147ae7f59953d6f9cced" target="_top" xlink:title="Compute the total magnetic field due to external coils and the net toroidal plasma current.">
<polygon fill="white" stroke="black" points="330.5,-152.5 330.5,-171.5 378.5,-171.5 378.5,-152.5 330.5,-152.5"/>
<text text-anchor="middle" x="354.5" y="-159.5" font-family="Helvetica,sans-Serif" font-size="10.00">bextern</text>
</a>
</g>
</g>
<!-- Node28&#45;&gt;Node29 -->
<g id="edge28" class="edge">
<title>Node28&#45;&gt;Node29</title>
<path fill="none" stroke="midnightblue" d="M248.66,-131.24C269.03,-137.21 298.11,-145.75 320.48,-152.31"/>
<polygon fill="midnightblue" stroke="midnightblue" points="319.65,-155.72 330.24,-155.17 321.63,-149 319.65,-155.72"/>
</g>
<!-- Node32 -->
<g id="node32" class="node">
<title>Node32</title>
<g id="a_node32"><a xlink:href="../../dd/d98/precal_8f90.html#a0dae73e848a4757092d7e9786d073d3d" target="_top" xlink:title="Pre&#45;compute constant terms required for NESTOR.">
<polygon fill="white" stroke="black" points="333,-114.5 333,-133.5 376,-133.5 376,-114.5 333,-114.5"/>
<text text-anchor="middle" x="354.5" y="-121.5" font-family="Helvetica,sans-Serif" font-size="10.00">precal</text>
</a>
</g>
</g>
<!-- Node28&#45;&gt;Node32 -->
<g id="edge31" class="edge">
<title>Node28&#45;&gt;Node32</title>
<path fill="none" stroke="midnightblue" d="M248.66,-124C269.7,-124 300.03,-124 322.67,-124"/>
<polygon fill="midnightblue" stroke="midnightblue" points="322.77,-127.5 332.77,-124 322.77,-120.5 322.77,-127.5"/>
</g>
<!-- Node33 -->
<g id="node33" class="node">
<title>Node33</title>
<g id="a_node33"><a xlink:href="../../d0/d19/scalpot_8f90.html#afb9e58849c5a27e486bdf4106f8bb84e" target="_top" xlink:title="Compute all required terms for solving for the scalar magnetic potential.">
<polygon fill="white" stroke="black" points="330.5,-76.5 330.5,-95.5 378.5,-95.5 378.5,-76.5 330.5,-76.5"/>
<text text-anchor="middle" x="354.5" y="-83.5" font-family="Helvetica,sans-Serif" font-size="10.00">scalpot</text>
</a>
</g>
</g>
<!-- Node28&#45;&gt;Node33 -->
<g id="edge32" class="edge">
<title>Node28&#45;&gt;Node33</title>
<path fill="none" stroke="midnightblue" d="M248.66,-116.76C269.03,-110.79 298.11,-102.25 320.48,-95.69"/>
<polygon fill="midnightblue" stroke="midnightblue" points="321.63,-99 330.24,-92.83 319.65,-92.28 321.63,-99"/>
</g>
<!-- Node40 -->
<g id="node40" class="node">
<title>Node40</title>
<g id="a_node40"><a xlink:href="../../d7/d39/solver_8f90.html#a1e815013ed24a9dddc80410103f4a220" target="_top" xlink:title="Solve a linear system of equations using dgesv.">
<polygon fill="white" stroke="black" points="333,-38.5 333,-57.5 376,-57.5 376,-38.5 333,-38.5"/>
<text text-anchor="middle" x="354.5" y="-45.5" font-family="Helvetica,sans-Serif" font-size="10.00">solver</text>
</a>
</g>
</g>
<!-- Node28&#45;&gt;Node40 -->
<g id="edge39" class="edge">
<title>Node28&#45;&gt;Node40</title>
<path fill="none" stroke="midnightblue" d="M248.59,-118.45C258.81,-115.46 270.49,-111.09 280,-105 299.59,-92.45 297.35,-80.91 316,-67 318.49,-65.14 321.2,-63.37 323.97,-61.72"/>
<polygon fill="midnightblue" stroke="midnightblue" points="325.8,-64.71 332.9,-56.85 322.44,-58.57 325.8,-64.71"/>
</g>
<!-- Node41 -->
<g id="node41" class="node">
<title>Node41</title>
<g id="a_node41"><a xlink:href="../../d6/d03/surface_8f90.html#ad7b6446e720a806f41f10dd1eb0b6f88" target="_top" xlink:title="Evaluate the geometry of the LCFS and tangential derivatives.">
<polygon fill="white" stroke="black" points="330,-0.5 330,-19.5 379,-19.5 379,-0.5 330,-0.5"/>
<text text-anchor="middle" x="354.5" y="-7.5" font-family="Helvetica,sans-Serif" font-size="10.00">surface</text>
</a>
</g>
</g>
<!-- Node28&#45;&gt;Node41 -->
<g id="edge40" class="edge">
<title>Node28&#45;&gt;Node41</title>
<path fill="none" stroke="midnightblue" d="M248.51,-120.13C259.2,-117.4 271.26,-112.79 280,-105 307.91,-80.14 289.93,-55.78 316,-29 317.57,-27.39 319.31,-25.88 321.15,-24.49"/>
<polygon fill="midnightblue" stroke="midnightblue" points="323.12,-27.39 329.69,-19.08 319.37,-21.48 323.12,-27.39"/>
</g>
<!-- Node30 -->
<g id="node30" class="node">
<title>Node30</title>
<g id="a_node30"><a xlink:href="../../d6/dc7/becoil_8f90.html#a449b054fb88bdb4cdf73ef8939654bfb" target="_top" xlink:title="Compute the cylindrical components of the magnetic field due to external coils. by bi&#45;linear interpol...">
<polygon fill="white" stroke="black" points="430,-190.5 430,-209.5 472,-209.5 472,-190.5 430,-190.5"/>
<text text-anchor="middle" x="451" y="-197.5" font-family="Helvetica,sans-Serif" font-size="10.00">becoil</text>
</a>
</g>
</g>
<!-- Node29&#45;&gt;Node30 -->
<g id="edge29" class="edge">
<title>Node29&#45;&gt;Node30</title>
<path fill="none" stroke="midnightblue" d="M378.86,-171.39C391.44,-176.45 407.08,-182.74 420.49,-188.14"/>
<polygon fill="midnightblue" stroke="midnightblue" points="419.21,-191.39 429.79,-191.87 421.82,-184.9 419.21,-191.39"/>
</g>
<!-- Node31 -->
<g id="node31" class="node">
<title>Node31</title>
<g id="a_node31"><a xlink:href="../../d9/dda/belicu_8f90.html#a53e6f162ca96069b8d93e131069ddf5d" target="_top" xlink:title="Magnetic field due to net toroidal current modeled by a filament along the magnetic axis.">
<polygon fill="white" stroke="black" points="430,-152.5 430,-171.5 472,-171.5 472,-152.5 430,-152.5"/>
<text text-anchor="middle" x="451" y="-159.5" font-family="Helvetica,sans-Serif" font-size="10.00">belicu</text>
</a>
</g>
</g>
<!-- Node29&#45;&gt;Node31 -->
<g id="edge30" class="edge">
<title>Node29&#45;&gt;Node31</title>
<path fill="none" stroke="midnightblue" d="M378.86,-162C391.19,-162 406.48,-162 419.71,-162"/>
<polygon fill="midnightblue" stroke="midnightblue" points="419.79,-165.5 429.79,-162 419.79,-158.5 419.79,-165.5"/>
</g>
<!-- Node34 -->
<g id="node34" class="node">
<title>Node34</title>
<g id="a_node34"><a xlink:href="../../da/d73/analyt_8f90.html#a60edcf4884aa60f6d96c258a97255756" target="_top" xlink:title="Compute the analytical&#45;and&#45;numerical 4D Fourier integrals over the equivalently&#45;singular functions.">
<polygon fill="white" stroke="black" points="430,-114.5 430,-133.5 472,-133.5 472,-114.5 430,-114.5"/>
<text text-anchor="middle" x="451" y="-121.5" font-family="Helvetica,sans-Serif" font-size="10.00">analyt</text>
</a>
</g>
</g>
<!-- Node33&#45;&gt;Node34 -->
<g id="edge33" class="edge">
<title>Node33&#45;&gt;Node34</title>
<path fill="none" stroke="midnightblue" d="M378.86,-95.39C391.44,-100.45 407.08,-106.74 420.49,-112.14"/>
<polygon fill="midnightblue" stroke="midnightblue" points="419.21,-115.39 429.79,-115.87 421.82,-108.9 419.21,-115.39"/>
</g>
<!-- Node37 -->
<g id="node37" class="node">
<title>Node37</title>
<g id="a_node37"><a xlink:href="../../d6/d77/fouri_8f90.html#a0f902f8d584a395f9db7175079d273c7" target="_top" xlink:title="Compute Fourier integrals and build amatrix.">
<polygon fill="white" stroke="black" points="433.5,-76.5 433.5,-95.5 468.5,-95.5 468.5,-76.5 433.5,-76.5"/>
<text text-anchor="middle" x="451" y="-83.5" font-family="Helvetica,sans-Serif" font-size="10.00">fouri</text>
</a>
</g>
</g>
<!-- Node33&#45;&gt;Node37 -->
<g id="edge36" class="edge">
<title>Node33&#45;&gt;Node37</title>
<path fill="none" stroke="midnightblue" d="M378.86,-86C392.36,-86 409.4,-86 423.41,-86"/>
<polygon fill="midnightblue" stroke="midnightblue" points="423.43,-89.5 433.43,-86 423.43,-82.5 423.43,-89.5"/>
</g>
<!-- Node38 -->
<g id="node38" class="node">
<title>Node38</title>
<g id="a_node38"><a xlink:href="../../d0/d1c/fourp_8f90.html#add725dd420251115fd60182dc992503c" target="_top" xlink:title="Perform Fourier integrals of Green&#39;s function kernel.">
<polygon fill="white" stroke="black" points="432,-38.5 432,-57.5 470,-57.5 470,-38.5 432,-38.5"/>
<text text-anchor="middle" x="451" y="-45.5" font-family="Helvetica,sans-Serif" font-size="10.00">fourp</text>
</a>
</g>
</g>
<!-- Node33&#45;&gt;Node38 -->
<g id="edge37" class="edge">
<title>Node33&#45;&gt;Node38</title>
<path fill="none" stroke="midnightblue" d="M378.86,-76.61C392.05,-71.3 408.62,-64.64 422.45,-59.08"/>
<polygon fill="midnightblue" stroke="midnightblue" points="423.97,-62.24 431.94,-55.26 421.36,-55.74 423.97,-62.24"/>
</g>
<!-- Node39 -->
<g id="node39" class="node">
<title>Node39</title>
<g id="a_node39"><a xlink:href="../../df/d2d/greenf_8f90.html#acd9d25905cc799c9fcd4d08a3cbb1e65" target="_top" xlink:title="Compute the regularized evaluation of the Green&#39;s function and the source term.">
<polygon fill="white" stroke="black" points="429,-0.5 429,-19.5 473,-19.5 473,-0.5 429,-0.5"/>
<text text-anchor="middle" x="451" y="-7.5" font-family="Helvetica,sans-Serif" font-size="10.00">greenf</text>
</a>
</g>
</g>
<!-- Node33&#45;&gt;Node39 -->
<g id="edge38" class="edge">
<title>Node33&#45;&gt;Node39</title>
<path fill="none" stroke="midnightblue" d="M377.67,-76.36C382.9,-73.65 388.32,-70.49 393,-67 411.65,-53.09 412.36,-45.26 429,-29 429.91,-28.11 430.85,-27.21 431.81,-26.3"/>
<polygon fill="midnightblue" stroke="midnightblue" points="434.19,-28.86 439.17,-19.51 429.45,-23.72 434.19,-28.86"/>
</g>
<!-- Node35 -->
<g id="node35" class="node">
<title>Node35</title>
<g id="a_node35"><a xlink:href="../../df/df3/analysum_8f90.html#aa51b1a5786e7b5719fe2ca679efc66b0" target="_top" xlink:title="Compute the (m=0 or n=0) part of the DFT of the analytical Fourier transforms of the equivalently&#45;sin...">
<polygon fill="white" stroke="black" points="511.5,-133.5 511.5,-152.5 569.5,-152.5 569.5,-133.5 511.5,-133.5"/>
<text text-anchor="middle" x="540.5" y="-140.5" font-family="Helvetica,sans-Serif" font-size="10.00">analysum</text>
</a>
</g>
</g>
<!-- Node34&#45;&gt;Node35 -->
<g id="edge34" class="edge">
<title>Node34&#45;&gt;Node35</title>
<path fill="none" stroke="midnightblue" d="M472.29,-128.41C481,-130.3 491.47,-132.57 501.53,-134.75"/>
<polygon fill="midnightblue" stroke="midnightblue" points="500.85,-138.19 511.36,-136.89 502.33,-131.35 500.85,-138.19"/>
</g>
<!-- Node36 -->
<g id="node36" class="node">
<title>Node36</title>
<g id="a_node36"><a xlink:href="../../d1/d90/analysum2_8f90.html#a47a0d185131a197c6fc62ee5d68d62fb" target="_top" xlink:title="Compute the (m&gt;0 and n&gt;0) part of the DFT of the analytical Fourier transforms of the equivalently&#45;si...">
<polygon fill="white" stroke="black" points="509,-95.5 509,-114.5 572,-114.5 572,-95.5 509,-95.5"/>
<text text-anchor="middle" x="540.5" y="-102.5" font-family="Helvetica,sans-Serif" font-size="10.00">analysum2</text>
</a>
</g>
</g>
<!-- Node34&#45;&gt;Node36 -->
<g id="edge35" class="edge">
<title>Node34&#45;&gt;Node36</title>
<path fill="none" stroke="midnightblue" d="M472.29,-119.59C480.23,-117.87 489.62,-115.83 498.84,-113.83"/>
<polygon fill="midnightblue" stroke="midnightblue" points="499.65,-117.23 508.68,-111.69 498.17,-110.39 499.65,-117.23"/>
</g>
</g>
</svg>
        <g id="navigator" transform="translate(0 0)" fill="#404254">
                <rect fill="#f2f5e9" fill-opacity="0.5" stroke="#606060" stroke-width=".5" x="0" y="0" width="60" height="60"/>
                <use id="zoomplus" xlink:href="#zoomPlus" x="17" y="9" onmousedown="handleZoom(evt,'in')"/>
                <use id="zoomminus" xlink:href="#zoomMin" x="42" y="9" onmousedown="handleZoom(evt,'out')"/>
                <use id="reset" xlink:href="#resetDef" x="30" y="36" onmousedown="handleReset()"/>
                <g id="arrowUp" xlink:href="#dirArrow" transform="translate(30 24)" onmousedown="handlePan(0,-1)">
                  <use xlink:href="#rim" fill="#404040">
                        <set attributeName="fill" to="#808080" begin="arrowUp.mouseover" end="arrowUp.mouseout"/>
                  </use>
                  <path fill="none" stroke="white" stroke-width="1.5" d="M0,-3.0v7 M-2.5,-0.5L0,-3.0L2.5,-0.5"/>
                </g>
                <g id="arrowRight" xlink:href="#dirArrow" transform="rotate(90) translate(36 -43)" onmousedown="handlePan(1,0)">
                  <use xlink:href="#rim" fill="#404040">
                        <set attributeName="fill" to="#808080" begin="arrowRight.mouseover" end="arrowRight.mouseout"/>
                  </use>
                  <path fill="none" stroke="white" stroke-width="1.5" d="M0,-3.0v7 M-2.5,-0.5L0,-3.0L2.5,-0.5"/>
                </g>
                <g id="arrowDown" xlink:href="#dirArrow" transform="rotate(180) translate(-30 -48)" onmousedown="handlePan(0,1)">
                  <use xlink:href="#rim" fill="#404040">
                        <set attributeName="fill" to="#808080" begin="arrowDown.mouseover" end="arrowDown.mouseout"/>
                  </use>
                  <path fill="none" stroke="white" stroke-width="1.5" d="M0,-3.0v7 M-2.5,-0.5L0,-3.0L2.5,-0.5"/>
                </g>
                <g id="arrowLeft" xlink:href="#dirArrow" transform="rotate(270) translate(-36 17)" onmousedown="handlePan(-1,0)">
                  <use xlink:href="#rim" fill="#404040">
                        <set attributeName="fill" to="#808080" begin="arrowLeft.mouseover" end="arrowLeft.mouseout"/>
                  </use>
                  <path fill="none" stroke="white" stroke-width="1.5" d="M0,-3.0v7 M-2.5,-0.5L0,-3.0L2.5,-0.5"/>
                </g>
        </g>
        <svg viewBox="0 0 15 15" width="100%" height="30px" preserveAspectRatio="xMaxYMin meet">
         <g id="arrow_out" transform="scale(0.3 0.3)">
          <a xlink:href="evolve_8f90_a8103e838be03904e03551e04f6b396e4_cgraph_org.svg" target="_base">
           <rect id="button" ry="5" rx="5" y="6" x="6" height="38" width="38"
                fill="#f2f5e9" fill-opacity="0.5" stroke="#606060" stroke-width="1.0"/>
           <path id="arrow"
             d="M 11.500037,31.436501 C 11.940474,20.09759 22.043105,11.32322 32.158766,21.979434 L 37.068811,17.246167 C 37.068811,17.246167 37.088388,32 37.088388,32 L 22.160133,31.978069 C 22.160133,31.978069 26.997745,27.140456 26.997745,27.140456 C 18.528582,18.264221 13.291696,25.230495 11.500037,31.436501 z"
             style="fill:#404040;"/>
          </a>
         </g>
        </svg>
</svg>
