<?xml version="1.0" encoding="UTF-8" standalone="no"?>
<!DOCTYPE svg PUBLIC "-//W3C//DTD SVG 1.1//EN"
 "http://www.w3.org/Graphics/SVG/1.1/DTD/svg11.dtd">
<!-- Generated by graphviz version 8.0.1 (20230327.1645)
 -->
<!-- Title: read_wout_mod::read_wout_file::readw_and_open Pages: 1 -->
<svg width="310pt" height="124pt"
 viewBox="0.00 0.00 310.00 124.00" xmlns="http://www.w3.org/2000/svg" xmlns:xlink="http://www.w3.org/1999/xlink">
<g id="graph0" class="graph" transform="scale(1 1) rotate(0) translate(4 120)">
<title>read_wout_mod::read_wout_file::readw_and_open</title>
<!-- Node1 -->
<g id="node1" class="node">
<title>Node1</title>
<g id="a_node1"><a xlink:title=" ">
<polygon fill="#999999" stroke="#666666" points="138,-73 0,-73 0,-43 138,-43 138,-73"/>
<text text-anchor="start" x="8" y="-61" font-family="Helvetica,sans-Serif" font-size="10.00">read_wout_mod::read</text>
<text text-anchor="middle" x="69" y="-50" font-family="Helvetica,sans-Serif" font-size="10.00">_wout_file::readw_and_open</text>
</a>
</g>
</g>
<!-- Node2 -->
<g id="node2" class="node">
<title>Node2</title>
<g id="a_node2"><a xlink:href="../../db/dae/namespaceread__wout__mod.html#a6dbf955bfc44315ebbc83a7c8260c72e" target="_top" xlink:title=" ">
<polygon fill="white" stroke="#666666" points="302,-116 174,-116 174,-86 302,-86 302,-116"/>
<text text-anchor="start" x="182" y="-104" font-family="Helvetica,sans-Serif" font-size="10.00">read_wout_mod::compute</text>
<text text-anchor="middle" x="238" y="-93" font-family="Helvetica,sans-Serif" font-size="10.00">_currents</text>
</a>
</g>
</g>
<!-- Node1&#45;&gt;Node2 -->
<g id="edge1" class="edge">
<title>Node1&#45;&gt;Node2</title>
<path fill="none" stroke="#63b8ff" d="M129.82,-73.4C141.69,-76.46 154.26,-79.7 166.45,-82.83"/>
<polygon fill="#63b8ff" stroke="#63b8ff" points="165.48,-86.46 176.04,-85.56 167.23,-79.68 165.48,-86.46"/>
</g>
<!-- Node3 -->
<g id="node3" class="node">
<title>Node3</title>
<g id="a_node3"><a xlink:href="../../d8/d44/parse__extension_8f.html#ad4ed46c7b1d3501caaad403df4838a0b" target="_top" xlink:title="Parse the first command&#45;line argument into a filename.">
<polygon fill="white" stroke="#666666" points="281.5,-67.5 194.5,-67.5 194.5,-48.5 281.5,-48.5 281.5,-67.5"/>
<text text-anchor="middle" x="238" y="-55.5" font-family="Helvetica,sans-Serif" font-size="10.00">parse_extension</text>
</a>
</g>
</g>
<!-- Node1&#45;&gt;Node3 -->
<g id="edge2" class="edge">
<title>Node1&#45;&gt;Node3</title>
<path fill="none" stroke="#63b8ff" d="M138.41,-58C153.48,-58 169.23,-58 183.61,-58"/>
<polygon fill="#63b8ff" stroke="#63b8ff" points="183.3,-61.5 193.3,-58 183.3,-54.5 183.3,-61.5"/>
</g>
<!-- Node4 -->
<g id="node4" class="node">
<title>Node4</title>
<g id="a_node4"><a xlink:href="../../db/dae/namespaceread__wout__mod.html#acbe60df12a5b7eb959df1b82df159382" target="_top" xlink:title=" ">
<polygon fill="white" stroke="#666666" points="292.5,-30 183.5,-30 183.5,0 292.5,0 292.5,-30"/>
<text text-anchor="start" x="191.5" y="-18" font-family="Helvetica,sans-Serif" font-size="10.00">read_wout_mod::read</text>
<text text-anchor="middle" x="238" y="-7" font-family="Helvetica,sans-Serif" font-size="10.00">_wout_deallocate</text>
</a>
</g>
</g>
<!-- Node1&#45;&gt;Node4 -->
<g id="edge3" class="edge">
<title>Node1&#45;&gt;Node4</title>
<path fill="none" stroke="#63b8ff" d="M129.82,-42.6C143.69,-39.03 158.51,-35.21 172.57,-31.59"/>
<polygon fill="#63b8ff" stroke="#63b8ff" points="173.34,-34.75 182.15,-28.87 171.59,-27.97 173.34,-34.75"/>
</g>
</g>
</svg>
