<?xml version="1.0" encoding="UTF-8" standalone="no"?>
<!DOCTYPE svg PUBLIC "-//W3C//DTD SVG 1.1//EN"
 "http://www.w3.org/Graphics/SVG/1.1/DTD/svg11.dtd">
<!-- Generated by graphviz version 2.49.3 (20211215.1918)
 -->
<!-- Title: read_wout_mod::read_wout_file::readw_and_open Pages: 1 -->
<svg width="310pt" height="127pt"
 viewBox="0.00 0.00 310.00 127.00" xmlns="http://www.w3.org/2000/svg" xmlns:xlink="http://www.w3.org/1999/xlink">
<g id="graph0" class="graph" transform="scale(1 1) rotate(0) translate(4 123)">
<title>read_wout_mod::read_wout_file::readw_and_open</title>
<polygon fill="white" stroke="transparent" points="-4,4 -4,-123 306,-123 306,4 -4,4"/>
<!-- Node1 -->
<g id="node1" class="node">
<title>Node1</title>
<g id="a_node1"><a xlink:title=" ">
<polygon fill="#bfbfbf" stroke="black" points="0,-44.5 0,-74.5 138,-74.5 138,-44.5 0,-44.5"/>
<text text-anchor="start" x="8" y="-62.5" font-family="Helvetica,sans-Serif" font-size="10.00">read_wout_mod::read</text>
<text text-anchor="middle" x="69" y="-51.5" font-family="Helvetica,sans-Serif" font-size="10.00">_wout_file::readw_and_open</text>
</a>
</g>
</g>
<!-- Node2 -->
<g id="node2" class="node">
<title>Node2</title>
<g id="a_node2"><a xlink:href="../../db/dae/namespaceread__wout__mod.html#a6dbf955bfc44315ebbc83a7c8260c72e" target="_top" xlink:title=" ">
<polygon fill="white" stroke="black" points="174,-88.5 174,-118.5 302,-118.5 302,-88.5 174,-88.5"/>
<text text-anchor="start" x="182" y="-106.5" font-family="Helvetica,sans-Serif" font-size="10.00">read_wout_mod::compute</text>
<text text-anchor="middle" x="238" y="-95.5" font-family="Helvetica,sans-Serif" font-size="10.00">_currents</text>
</a>
</g>
</g>
<!-- Node1&#45;&gt;Node2 -->
<g id="edge1" class="edge">
<title>Node1&#45;&gt;Node2</title>
<path fill="none" stroke="midnightblue" d="M127,-74.52C140.9,-78.18 155.89,-82.13 170.2,-85.9"/>
<polygon fill="midnightblue" stroke="midnightblue" points="169.41,-89.31 179.97,-88.47 171.19,-82.54 169.41,-89.31"/>
</g>
<!-- Node3 -->
<g id="node3" class="node">
<title>Node3</title>
<g id="a_node3"><a xlink:href="../../d8/d44/parse__extension_8f.html#ad4ed46c7b1d3501caaad403df4838a0b" target="_top" xlink:title="Parse the first command&#45;line argument into a filename.">
<polygon fill="white" stroke="black" points="194.5,-50 194.5,-69 281.5,-69 281.5,-50 194.5,-50"/>
<text text-anchor="middle" x="238" y="-57" font-family="Helvetica,sans-Serif" font-size="10.00">parse_extension</text>
</a>
</g>
</g>
<!-- Node1&#45;&gt;Node3 -->
<g id="edge2" class="edge">
<title>Node1&#45;&gt;Node3</title>
<path fill="none" stroke="midnightblue" d="M138.41,-59.5C153.63,-59.5 169.54,-59.5 184.03,-59.5"/>
<polygon fill="midnightblue" stroke="midnightblue" points="184.3,-63 194.3,-59.5 184.3,-56 184.3,-63"/>
</g>
<!-- Node4 -->
<g id="node4" class="node">
<title>Node4</title>
<g id="a_node4"><a xlink:href="../../db/dae/namespaceread__wout__mod.html#acbe60df12a5b7eb959df1b82df159382" target="_top" xlink:title=" ">
<polygon fill="white" stroke="black" points="183.5,-0.5 183.5,-30.5 292.5,-30.5 292.5,-0.5 183.5,-0.5"/>
<text text-anchor="start" x="191.5" y="-18.5" font-family="Helvetica,sans-Serif" font-size="10.00">read_wout_mod::read</text>
<text text-anchor="middle" x="238" y="-7.5" font-family="Helvetica,sans-Serif" font-size="10.00">_wout_deallocate</text>
</a>
</g>
</g>
<!-- Node1&#45;&gt;Node4 -->
<g id="edge3" class="edge">
<title>Node1&#45;&gt;Node4</title>
<path fill="none" stroke="midnightblue" d="M127,-44.48C141.96,-40.54 158.19,-36.26 173.47,-32.24"/>
<polygon fill="midnightblue" stroke="midnightblue" points="174.57,-35.57 183.35,-29.64 172.79,-28.8 174.57,-35.57"/>
</g>
</g>
</svg>
