<?xml version="1.0" encoding="UTF-8" standalone="no"?>
<!DOCTYPE svg PUBLIC "-//W3C//DTD SVG 1.1//EN"
 "http://www.w3.org/Graphics/SVG/1.1/DTD/svg11.dtd">
<!-- Generated by graphviz version 2.47.1 (20210421.1823)
 -->
<!-- Title: eqsolve Pages: 1 -->
<svg width="686pt" height="800pt"
 viewBox="0.00 0.00 686.00 800.00" xmlns="http://www.w3.org/2000/svg" xmlns:xlink="http://www.w3.org/1999/xlink">
<g id="graph0" class="graph" transform="scale(1 1) rotate(0) translate(4 796)">
<title>eqsolve</title>
<polygon fill="white" stroke="transparent" points="-4,4 -4,-796 682,-796 682,4 -4,4"/>
<!-- Node1 -->
<g id="node1" class="node">
<title>Node1</title>
<g id="a_node1"><a xlink:title="Iteratively evolve the Fourier coefficients that specify the equilibrium.">
<polygon fill="#bfbfbf" stroke="black" points="0,-418.5 0,-437.5 50,-437.5 50,-418.5 0,-418.5"/>
<text text-anchor="middle" x="25" y="-425.5" font-family="Helvetica,sans-Serif" font-size="10.00">eqsolve</text>
</a>
</g>
</g>
<!-- Node2 -->
<g id="node2" class="node">
<title>Node2</title>
<g id="a_node2"><a xlink:href="../../de/da9/evolve_8f90.html#a8103e838be03904e03551e04f6b396e4" target="_top" xlink:title="Take a single time step in Fourier space to evolve the Fourier coefficients describing the equilibriu...">
<polygon fill="white" stroke="black" points="96,-456.5 96,-475.5 141,-475.5 141,-456.5 96,-456.5"/>
<text text-anchor="middle" x="118.5" y="-463.5" font-family="Helvetica,sans-Serif" font-size="10.00">evolve</text>
</a>
</g>
</g>
<!-- Node1&#45;&gt;Node2 -->
<g id="edge1" class="edge">
<title>Node1&#45;&gt;Node2</title>
<path fill="none" stroke="midnightblue" d="M49.09,-437.59C60.45,-442.31 74.31,-448.06 86.57,-453.16"/>
<polygon fill="midnightblue" stroke="midnightblue" points="85.41,-456.46 95.99,-457.07 88.1,-450 85.41,-456.46"/>
</g>
<!-- Node20 -->
<g id="node20" class="node">
<title>Node20</title>
<g id="a_node20"><a xlink:href="../../d5/d6e/restart__iter_8f90.html#ace7df67e039f0ebf69200f91d3cb16cc" target="_top" xlink:title="Save current or restore previous good state vector and reduce time step.">
<polygon fill="white" stroke="black" points="297.5,-772.5 297.5,-791.5 360.5,-791.5 360.5,-772.5 297.5,-772.5"/>
<text text-anchor="middle" x="329" y="-779.5" font-family="Helvetica,sans-Serif" font-size="10.00">restart_iter</text>
</a>
</g>
</g>
<!-- Node1&#45;&gt;Node20 -->
<g id="edge50" class="edge">
<title>Node1&#45;&gt;Node20</title>
<path fill="none" stroke="midnightblue" d="M30.32,-437.62C50.66,-481.81 141.32,-667.27 272,-763 276.78,-766.5 282.24,-769.38 287.84,-771.76"/>
<polygon fill="midnightblue" stroke="midnightblue" points="286.71,-775.07 297.3,-775.28 289.15,-768.51 286.71,-775.07"/>
</g>
<!-- Node45 -->
<g id="node45" class="node">
<title>Node45</title>
<g id="a_node45"><a xlink:href="../../d5/dfd/guess__axis_8f90.html#a375e34fe4656d4c51d5013939bf5617e" target="_top" xlink:title="Computes guess for magnetic axis if user guess leads to initial sign change of Jacobian.">
<polygon fill="white" stroke="black" points="86,-380.5 86,-399.5 151,-399.5 151,-380.5 86,-380.5"/>
<text text-anchor="middle" x="118.5" y="-387.5" font-family="Helvetica,sans-Serif" font-size="10.00">guess_axis</text>
</a>
</g>
</g>
<!-- Node1&#45;&gt;Node45 -->
<g id="edge44" class="edge">
<title>Node1&#45;&gt;Node45</title>
<path fill="none" stroke="midnightblue" d="M49.09,-418.41C59.93,-413.91 73.03,-408.47 84.86,-403.56"/>
<polygon fill="midnightblue" stroke="midnightblue" points="86.53,-406.65 94.42,-399.59 83.84,-400.19 86.53,-406.65"/>
</g>
<!-- Node46 -->
<g id="node46" class="node">
<title>Node46</title>
<g id="a_node46"><a xlink:href="../../d7/dc9/printout_8f90.html#ad981fdd1d509a05592ecbea3ef831797" target="_top" xlink:title="Print iteration progress to screen and threed1 output file.">
<polygon fill="white" stroke="black" points="187,-285.5 187,-304.5 236,-304.5 236,-285.5 187,-285.5"/>
<text text-anchor="middle" x="211.5" y="-292.5" font-family="Helvetica,sans-Serif" font-size="10.00">printout</text>
</a>
</g>
</g>
<!-- Node1&#45;&gt;Node46 -->
<g id="edge45" class="edge">
<title>Node1&#45;&gt;Node46</title>
<path fill="none" stroke="midnightblue" d="M50,-430.43C77.07,-431.9 121.17,-430.31 151,-409 183.11,-386.06 199.24,-340.46 206.16,-314.42"/>
<polygon fill="midnightblue" stroke="midnightblue" points="209.59,-315.12 208.57,-304.58 202.79,-313.45 209.59,-315.12"/>
</g>
<!-- Node48 -->
<g id="node48" class="node">
<title>Node48</title>
<g id="a_node48"><a xlink:href="../../dd/d75/profil3d_8f90.html#a67d2774ceac255f1e1f75e54f4679e9c" target="_top" xlink:title="Compute three&#45;dimensional profiles of flux&#45;surface geometry etc.">
<polygon fill="white" stroke="black" points="95,-342.5 95,-361.5 142,-361.5 142,-342.5 95,-342.5"/>
<text text-anchor="middle" x="118.5" y="-349.5" font-family="Helvetica,sans-Serif" font-size="10.00">profil3d</text>
</a>
</g>
</g>
<!-- Node1&#45;&gt;Node48 -->
<g id="edge49" class="edge">
<title>Node1&#45;&gt;Node48</title>
<path fill="none" stroke="midnightblue" d="M34.79,-418.46C46.02,-406.56 66.35,-385.98 86,-371 87.77,-369.65 89.65,-368.31 91.57,-367.01"/>
<polygon fill="midnightblue" stroke="midnightblue" points="93.5,-369.93 100.06,-361.6 89.74,-364.02 93.5,-369.93"/>
</g>
<!-- Node3 -->
<g id="node3" class="node">
<title>Node3</title>
<g id="a_node3"><a xlink:href="../../d3/d4f/funct3d_8f90.html#a800bacc22176e16323899df87b55c547" target="_top" xlink:title="Evaluate the three&#45;dimensional MHD energy functional. Think of this as the &quot;forward model&quot; that tells...">
<polygon fill="white" stroke="black" points="187,-456.5 187,-475.5 236,-475.5 236,-456.5 187,-456.5"/>
<text text-anchor="middle" x="211.5" y="-463.5" font-family="Helvetica,sans-Serif" font-size="10.00">funct3d</text>
</a>
</g>
</g>
<!-- Node2&#45;&gt;Node3 -->
<g id="edge2" class="edge">
<title>Node2&#45;&gt;Node3</title>
<path fill="none" stroke="midnightblue" d="M141.07,-466C151.72,-466 164.81,-466 176.75,-466"/>
<polygon fill="midnightblue" stroke="midnightblue" points="176.85,-469.5 186.85,-466 176.85,-462.5 176.85,-469.5"/>
</g>
<!-- Node4 -->
<g id="node4" class="node">
<title>Node4</title>
<g id="a_node4"><a xlink:href="../../d5/de7/alias_8f90.html#a971bf2e3997d8e5ed08c060b651c88c4" target="_top" xlink:title="Fourier&#45;space bandpass filter on constraint force for spectral condensation.">
<polygon fill="white" stroke="black" points="310.5,-646.5 310.5,-665.5 347.5,-665.5 347.5,-646.5 310.5,-646.5"/>
<text text-anchor="middle" x="329" y="-653.5" font-family="Helvetica,sans-Serif" font-size="10.00">alias</text>
</a>
</g>
</g>
<!-- Node3&#45;&gt;Node4 -->
<g id="edge3" class="edge">
<title>Node3&#45;&gt;Node4</title>
<path fill="none" stroke="midnightblue" d="M213,-475.66C215.03,-504.41 224.92,-590.28 272,-637 279.63,-644.57 290.38,-649.12 300.42,-651.86"/>
<polygon fill="midnightblue" stroke="midnightblue" points="299.95,-655.35 310.47,-654.12 301.48,-648.51 299.95,-655.35"/>
</g>
<!-- Node5 -->
<g id="node5" class="node">
<title>Node5</title>
<g id="a_node5"><a xlink:href="../../d7/d61/bcovar_8f90.html#a1e1624195f0c0c7daa9f49d83bae5ce8" target="_top" xlink:title="Compute the covariant components of the magnetic field , .">
<polygon fill="white" stroke="black" points="306,-608.5 306,-627.5 352,-627.5 352,-608.5 306,-608.5"/>
<text text-anchor="middle" x="329" y="-615.5" font-family="Helvetica,sans-Serif" font-size="10.00">bcovar</text>
</a>
</g>
</g>
<!-- Node3&#45;&gt;Node5 -->
<g id="edge4" class="edge">
<title>Node3&#45;&gt;Node5</title>
<path fill="none" stroke="midnightblue" d="M214.08,-475.58C218.57,-499.8 233.66,-564.09 272,-599 278.71,-605.11 287.47,-609.27 296.05,-612.09"/>
<polygon fill="midnightblue" stroke="midnightblue" points="295.35,-615.53 305.92,-614.83 297.22,-608.78 295.35,-615.53"/>
</g>
<!-- Node10 -->
<g id="node10" class="node">
<title>Node10</title>
<g id="a_node10"><a xlink:href="../../db/d74/convert_8f90.html#ae6d3862ea21a8d39210a79c6955b5b75" target="_top" xlink:title="Convert internal mode representation to standard form for output (coefficients of cos(mu&#45;nv),...">
<polygon fill="white" stroke="black" points="304.5,-570.5 304.5,-589.5 353.5,-589.5 353.5,-570.5 304.5,-570.5"/>
<text text-anchor="middle" x="329" y="-577.5" font-family="Helvetica,sans-Serif" font-size="10.00">convert</text>
</a>
</g>
</g>
<!-- Node3&#45;&gt;Node10 -->
<g id="edge9" class="edge">
<title>Node3&#45;&gt;Node10</title>
<path fill="none" stroke="midnightblue" d="M215.95,-475.6C223.29,-494.66 242.24,-537.46 272,-561 278.64,-566.25 286.81,-570.09 294.84,-572.88"/>
<polygon fill="midnightblue" stroke="midnightblue" points="293.87,-576.25 304.45,-575.8 295.9,-569.55 293.87,-576.25"/>
</g>
<!-- Node11 -->
<g id="node11" class="node">
<title>Node11</title>
<g id="a_node11"><a xlink:href="../../de/d0c/forces_8f90.html#a7b4708aaec3cc94526474c16bc3a16f0" target="_top" xlink:title="Compute the real&#45;space MHD forces.">
<polygon fill="white" stroke="black" points="307,-532.5 307,-551.5 351,-551.5 351,-532.5 307,-532.5"/>
<text text-anchor="middle" x="329" y="-539.5" font-family="Helvetica,sans-Serif" font-size="10.00">forces</text>
</a>
</g>
</g>
<!-- Node3&#45;&gt;Node11 -->
<g id="edge10" class="edge">
<title>Node3&#45;&gt;Node11</title>
<path fill="none" stroke="midnightblue" d="M220.35,-475.82C230.88,-488.39 250.72,-510.09 272,-523 279.7,-527.67 288.69,-531.37 297.19,-534.22"/>
<polygon fill="midnightblue" stroke="midnightblue" points="296.25,-537.59 306.83,-537.17 298.3,-530.9 296.25,-537.59"/>
</g>
<!-- Node12 -->
<g id="node12" class="node">
<title>Node12</title>
<g id="a_node12"><a xlink:href="../../d8/dc3/jacobian_8f90.html#af346f65d2aa225d9ede6e0f23add6142" target="_top" xlink:title="Evaulate the Jacobian of the transform from flux&#45; to cylindrical coordinates.">
<polygon fill="white" stroke="black" points="302.5,-494.5 302.5,-513.5 355.5,-513.5 355.5,-494.5 302.5,-494.5"/>
<text text-anchor="middle" x="329" y="-501.5" font-family="Helvetica,sans-Serif" font-size="10.00">jacobian</text>
</a>
</g>
</g>
<!-- Node3&#45;&gt;Node12 -->
<g id="edge11" class="edge">
<title>Node3&#45;&gt;Node12</title>
<path fill="none" stroke="midnightblue" d="M236.15,-473.78C252.49,-479.16 274.49,-486.4 292.87,-492.44"/>
<polygon fill="midnightblue" stroke="midnightblue" points="291.78,-495.77 302.37,-495.57 293.97,-489.12 291.78,-495.77"/>
</g>
<!-- Node13 -->
<g id="node13" class="node">
<title>Node13</title>
<g id="a_node13"><a xlink:href="../../db/da1/nestor__io_8f90.html#a67b1cb19f12a5860a25a89dbd3dfd9c9" target="_top" xlink:title=" ">
<polygon fill="white" stroke="black" points="276.5,-456.5 276.5,-475.5 381.5,-475.5 381.5,-456.5 276.5,-456.5"/>
<text text-anchor="middle" x="329" y="-463.5" font-family="Helvetica,sans-Serif" font-size="10.00">read_nestor_outputs</text>
</a>
</g>
</g>
<!-- Node3&#45;&gt;Node13 -->
<g id="edge12" class="edge">
<title>Node3&#45;&gt;Node13</title>
<path fill="none" stroke="midnightblue" d="M236.15,-466C244.95,-466 255.4,-466 266.04,-466"/>
<polygon fill="midnightblue" stroke="midnightblue" points="266.26,-469.5 276.26,-466 266.26,-462.5 266.26,-469.5"/>
</g>
<!-- Node14 -->
<g id="node14" class="node">
<title>Node14</title>
<g id="a_node14"><a xlink:href="../../db/d5a/residue_8f90.html#a2d42fddb02336c3ce8846116ab5bf089" target="_top" xlink:title="Compute invariant residuals.">
<polygon fill="white" stroke="black" points="305,-418.5 305,-437.5 353,-437.5 353,-418.5 305,-418.5"/>
<text text-anchor="middle" x="329" y="-425.5" font-family="Helvetica,sans-Serif" font-size="10.00">residue</text>
</a>
</g>
</g>
<!-- Node3&#45;&gt;Node14 -->
<g id="edge13" class="edge">
<title>Node3&#45;&gt;Node14</title>
<path fill="none" stroke="midnightblue" d="M236.15,-458.22C253.16,-452.62 276.31,-445.01 295.12,-438.82"/>
<polygon fill="midnightblue" stroke="midnightblue" points="296.37,-442.09 304.77,-435.64 294.18,-435.44 296.37,-442.09"/>
</g>
<!-- Node3&#45;&gt;Node20 -->
<g id="edge19" class="edge">
<title>Node3&#45;&gt;Node20</title>
<path fill="none" stroke="midnightblue" d="M213.86,-475.71C220.76,-524.4 252.31,-740.58 272,-763 276.27,-767.86 281.83,-771.48 287.78,-774.17"/>
<polygon fill="midnightblue" stroke="midnightblue" points="286.75,-777.52 297.34,-777.69 289.17,-770.95 286.75,-777.52"/>
</g>
<!-- Node21 -->
<g id="node21" class="node">
<title>Node21</title>
<g id="a_node21"><a xlink:href="../../d4/df3/symforce_8f90.html#a169610bcc5544fc8e16ad1e10ac85dcb" target="_top" xlink:title="Symmetrize forces on restricted &#160;interval &#160;so cos, sin integrals can be performed.">
<polygon fill="white" stroke="black" points="301,-380.5 301,-399.5 357,-399.5 357,-380.5 301,-380.5"/>
<text text-anchor="middle" x="329" y="-387.5" font-family="Helvetica,sans-Serif" font-size="10.00">symforce</text>
</a>
</g>
</g>
<!-- Node3&#45;&gt;Node21 -->
<g id="edge20" class="edge">
<title>Node3&#45;&gt;Node21</title>
<path fill="none" stroke="midnightblue" d="M220.35,-456.18C230.88,-443.61 250.72,-421.91 272,-409 277.9,-405.42 284.56,-402.41 291.17,-399.92"/>
<polygon fill="midnightblue" stroke="midnightblue" points="292.42,-403.19 300.74,-396.63 290.14,-396.57 292.42,-403.19"/>
</g>
<!-- Node22 -->
<g id="node22" class="node">
<title>Node22</title>
<g id="a_node22"><a xlink:href="../../da/d11/symrzl_8f90.html#ac5df1aefe2e993d4416c52c8a727b817" target="_top" xlink:title="Symmetrize , &#160;and .">
<polygon fill="white" stroke="black" points="307,-342.5 307,-361.5 351,-361.5 351,-342.5 307,-342.5"/>
<text text-anchor="middle" x="329" y="-349.5" font-family="Helvetica,sans-Serif" font-size="10.00">symrzl</text>
</a>
</g>
</g>
<!-- Node3&#45;&gt;Node22 -->
<g id="edge21" class="edge">
<title>Node3&#45;&gt;Node22</title>
<path fill="none" stroke="midnightblue" d="M215.95,-456.4C223.29,-437.34 242.24,-394.54 272,-371 279.31,-365.22 288.49,-361.14 297.28,-358.3"/>
<polygon fill="midnightblue" stroke="midnightblue" points="298.25,-361.66 306.92,-355.58 296.35,-354.92 298.25,-361.66"/>
</g>
<!-- Node23 -->
<g id="node23" class="node">
<title>Node23</title>
<g id="a_node23"><a xlink:href="../../d0/d6f/tomnsp_8f90.html#a6c7345c0aa0f13f311650d9633e6ecf8" target="_top" xlink:title="Fourier&#45;transform anti&#45;symmetric forces from real space to Fourier space.">
<polygon fill="white" stroke="black" points="302,-304.5 302,-323.5 356,-323.5 356,-304.5 302,-304.5"/>
<text text-anchor="middle" x="329" y="-311.5" font-family="Helvetica,sans-Serif" font-size="10.00">tomnspa</text>
</a>
</g>
</g>
<!-- Node3&#45;&gt;Node23 -->
<g id="edge22" class="edge">
<title>Node3&#45;&gt;Node23</title>
<path fill="none" stroke="midnightblue" d="M214.08,-456.42C218.57,-432.2 233.66,-367.91 272,-333 277.69,-327.82 284.85,-324.04 292.12,-321.3"/>
<polygon fill="midnightblue" stroke="midnightblue" points="293.53,-324.52 302,-318.15 291.41,-317.85 293.53,-324.52"/>
</g>
<!-- Node24 -->
<g id="node24" class="node">
<title>Node24</title>
<g id="a_node24"><a xlink:href="../../d0/d6f/tomnsp_8f90.html#aec4b11e4f55e18c6bfc0348c263e31db" target="_top" xlink:title="Fourier&#45;transform symmetric forces from real space to Fourier space.">
<polygon fill="white" stroke="black" points="302,-266.5 302,-285.5 356,-285.5 356,-266.5 302,-266.5"/>
<text text-anchor="middle" x="329" y="-273.5" font-family="Helvetica,sans-Serif" font-size="10.00">tomnsps</text>
</a>
</g>
</g>
<!-- Node3&#45;&gt;Node24 -->
<g id="edge23" class="edge">
<title>Node3&#45;&gt;Node24</title>
<path fill="none" stroke="midnightblue" d="M213,-456.34C215.03,-427.59 224.92,-341.72 272,-295 277.57,-289.47 284.82,-285.55 292.23,-282.77"/>
<polygon fill="midnightblue" stroke="midnightblue" points="293.45,-286.05 301.95,-279.73 291.37,-279.37 293.45,-286.05"/>
</g>
<!-- Node25 -->
<g id="node25" class="node">
<title>Node25</title>
<g id="a_node25"><a xlink:href="../../dc/d49/totzsp_8f90.html#a8c3f89c23a3be79d0f993c5031f7eab5" target="_top" xlink:title="Inverse&#45;Fourier&#45;transform anti&#45;symmetric part of geometry from Fourier space to real space.">
<polygon fill="white" stroke="black" points="305,-228.5 305,-247.5 353,-247.5 353,-228.5 305,-228.5"/>
<text text-anchor="middle" x="329" y="-235.5" font-family="Helvetica,sans-Serif" font-size="10.00">totzspa</text>
</a>
</g>
</g>
<!-- Node3&#45;&gt;Node25 -->
<g id="edge24" class="edge">
<title>Node3&#45;&gt;Node25</title>
<path fill="none" stroke="midnightblue" d="M212.29,-456.16C212.12,-423.24 216.09,-315.76 272,-257 278.15,-250.53 286.59,-246.27 295.05,-243.45"/>
<polygon fill="midnightblue" stroke="midnightblue" points="296.13,-246.78 304.85,-240.77 294.28,-240.03 296.13,-246.78"/>
</g>
<!-- Node27 -->
<g id="node27" class="node">
<title>Node27</title>
<g id="a_node27"><a xlink:href="../../dc/d49/totzsp_8f90.html#ac4756c0f66a5a01d9c08334a98a61b21" target="_top" xlink:title="Inverse&#45;Fourier&#45;transform symmetric part of geometry from Fourier space to real space.">
<polygon fill="white" stroke="black" points="305,-190.5 305,-209.5 353,-209.5 353,-190.5 305,-190.5"/>
<text text-anchor="middle" x="329" y="-197.5" font-family="Helvetica,sans-Serif" font-size="10.00">totzsps</text>
</a>
</g>
</g>
<!-- Node3&#45;&gt;Node27 -->
<g id="edge26" class="edge">
<title>Node3&#45;&gt;Node27</title>
<path fill="none" stroke="midnightblue" d="M213.59,-456.28C218.39,-415.07 238.91,-255.24 272,-219 278.07,-212.35 286.55,-208.03 295.08,-205.22"/>
<polygon fill="midnightblue" stroke="midnightblue" points="296.22,-208.54 304.97,-202.57 294.41,-201.78 296.22,-208.54"/>
</g>
<!-- Node29 -->
<g id="node29" class="node">
<title>Node29</title>
<g id="a_node29"><a xlink:href="../../dd/d6d/vacuum_8f90.html#a0acbc18d2ab7664835d797b42ce49a35" target="_top" xlink:title="Compute the vacuum contribution to the free&#45;boundary energy functional.">
<polygon fill="white" stroke="black" points="303.5,-95.5 303.5,-114.5 354.5,-114.5 354.5,-95.5 303.5,-95.5"/>
<text text-anchor="middle" x="329" y="-102.5" font-family="Helvetica,sans-Serif" font-size="10.00">vacuum</text>
</a>
</g>
</g>
<!-- Node3&#45;&gt;Node29 -->
<g id="edge28" class="edge">
<title>Node3&#45;&gt;Node29</title>
<path fill="none" stroke="midnightblue" d="M214.05,-456.44C222.51,-404.34 263.08,-156.67 272,-143 278.23,-133.46 287.78,-125.69 297.24,-119.72"/>
<polygon fill="midnightblue" stroke="midnightblue" points="299.26,-122.59 306.17,-114.56 295.76,-116.54 299.26,-122.59"/>
</g>
<!-- Node43 -->
<g id="node43" class="node">
<title>Node43</title>
<g id="a_node43"><a xlink:href="../../db/da1/nestor__io_8f90.html#a771059753d70a579e9443aa7ca5a991e" target="_top" xlink:title=" ">
<polygon fill="white" stroke="black" points="278.5,-734.5 278.5,-753.5 379.5,-753.5 379.5,-734.5 278.5,-734.5"/>
<text text-anchor="middle" x="329" y="-741.5" font-family="Helvetica,sans-Serif" font-size="10.00">write_nestor_inputs</text>
</a>
</g>
</g>
<!-- Node3&#45;&gt;Node43 -->
<g id="edge42" class="edge">
<title>Node3&#45;&gt;Node43</title>
<path fill="none" stroke="midnightblue" d="M213.46,-475.61C217.87,-517.87 237.44,-686.74 272,-725 273.21,-726.34 274.51,-727.58 275.89,-728.73"/>
<polygon fill="midnightblue" stroke="midnightblue" points="274.26,-731.85 284.53,-734.44 278.12,-726.01 274.26,-731.85"/>
</g>
<!-- Node44 -->
<g id="node44" class="node">
<title>Node44</title>
<g id="a_node44"><a xlink:href="../../db/dc0/namespacenestor__io.html#a288cc8f23cbfe1484ec6815381cc25c8" target="_top" xlink:title=" ">
<polygon fill="white" stroke="black" points="272,-685 272,-715 386,-715 386,-685 272,-685"/>
<text text-anchor="start" x="280" y="-703" font-family="Helvetica,sans-Serif" font-size="10.00">nestor_io::write_nestor</text>
<text text-anchor="middle" x="329" y="-692" font-family="Helvetica,sans-Serif" font-size="10.00">_outputs</text>
</a>
</g>
</g>
<!-- Node3&#45;&gt;Node44 -->
<g id="edge43" class="edge">
<title>Node3&#45;&gt;Node44</title>
<path fill="none" stroke="midnightblue" d="M212.5,-475.65C213.02,-507.95 218.87,-613.71 272,-675 273.15,-676.33 274.39,-677.59 275.69,-678.78"/>
<polygon fill="midnightblue" stroke="midnightblue" points="273.72,-681.68 283.8,-684.96 277.96,-676.11 273.72,-681.68"/>
</g>
<!-- Node6 -->
<g id="node6" class="node">
<title>Node6</title>
<g id="a_node6"><a xlink:href="../../d8/d7d/add__fluxes_8f90.html#a988e7013ef02301b9cfbde5b8068d5af" target="_top" xlink:title="Add the magnetic fluxes to the tangential derivatives of &#160;to arrive at the contravariant magnetic fie...">
<polygon fill="white" stroke="black" points="429.5,-551.5 429.5,-570.5 491.5,-570.5 491.5,-551.5 429.5,-551.5"/>
<text text-anchor="middle" x="460.5" y="-558.5" font-family="Helvetica,sans-Serif" font-size="10.00">add_fluxes</text>
</a>
</g>
</g>
<!-- Node5&#45;&gt;Node6 -->
<g id="edge5" class="edge">
<title>Node5&#45;&gt;Node6</title>
<path fill="none" stroke="midnightblue" d="M352.11,-611.39C362.54,-608.05 375.06,-603.71 386,-599 402.62,-591.85 405.93,-588.31 422,-580 424.98,-578.46 428.1,-576.86 431.22,-575.27"/>
<polygon fill="midnightblue" stroke="midnightblue" points="433.06,-578.26 440.39,-570.6 429.89,-572.01 433.06,-578.26"/>
</g>
<!-- Node7 -->
<g id="node7" class="node">
<title>Node7</title>
<g id="a_node7"><a xlink:href="../../d9/dff/calc__fbal_8f90.html#a6cdc3d21c48f66aeaff8ab5e639641b6" target="_top" xlink:title="Compute flux&#45;surface averaged radial force balance .">
<polygon fill="white" stroke="black" points="432.5,-665.5 432.5,-684.5 488.5,-684.5 488.5,-665.5 432.5,-665.5"/>
<text text-anchor="middle" x="460.5" y="-672.5" font-family="Helvetica,sans-Serif" font-size="10.00">calc_fbal</text>
</a>
</g>
</g>
<!-- Node5&#45;&gt;Node7 -->
<g id="edge6" class="edge">
<title>Node5&#45;&gt;Node7</title>
<path fill="none" stroke="midnightblue" d="M352.11,-624.61C362.54,-627.95 375.06,-632.29 386,-637 402.62,-644.15 405.93,-647.69 422,-656 424.98,-657.54 428.1,-659.14 431.22,-660.73"/>
<polygon fill="midnightblue" stroke="midnightblue" points="429.89,-663.99 440.39,-665.4 433.06,-657.74 429.89,-663.99"/>
</g>
<!-- Node8 -->
<g id="node8" class="node">
<title>Node8</title>
<g id="a_node8"><a xlink:href="../../d4/d51/lamcal_8f90.html#aae66bdcec0bbb969704413d933148096" target="_top" xlink:title="Normalization parameters for .">
<polygon fill="white" stroke="black" points="438,-627.5 438,-646.5 483,-646.5 483,-627.5 438,-627.5"/>
<text text-anchor="middle" x="460.5" y="-634.5" font-family="Helvetica,sans-Serif" font-size="10.00">lamcal</text>
</a>
</g>
</g>
<!-- Node5&#45;&gt;Node8 -->
<g id="edge7" class="edge">
<title>Node5&#45;&gt;Node8</title>
<path fill="none" stroke="midnightblue" d="M352.26,-621.27C373.08,-624.32 404.4,-628.92 427.82,-632.35"/>
<polygon fill="midnightblue" stroke="midnightblue" points="427.56,-635.85 437.96,-633.84 428.57,-628.92 427.56,-635.85"/>
</g>
<!-- Node9 -->
<g id="node9" class="node">
<title>Node9</title>
<g id="a_node9"><a xlink:href="../../d4/da9/precondn_8f90.html#a4c530a7978360300894520e9c5f7663c" target="_top" xlink:title="Compute preconditioning matrix elements for , &#160;force.">
<polygon fill="white" stroke="black" points="432.5,-589.5 432.5,-608.5 488.5,-608.5 488.5,-589.5 432.5,-589.5"/>
<text text-anchor="middle" x="460.5" y="-596.5" font-family="Helvetica,sans-Serif" font-size="10.00">precondn</text>
</a>
</g>
</g>
<!-- Node5&#45;&gt;Node9 -->
<g id="edge8" class="edge">
<title>Node5&#45;&gt;Node9</title>
<path fill="none" stroke="midnightblue" d="M352.26,-614.73C371.45,-611.92 399.56,-607.79 422.18,-604.48"/>
<polygon fill="midnightblue" stroke="midnightblue" points="422.75,-607.93 432.14,-603.01 421.73,-601 422.75,-607.93"/>
</g>
<!-- Node15 -->
<g id="node15" class="node">
<title>Node15</title>
<g id="a_node15"><a xlink:href="../../db/d5a/residue_8f90.html#a6b8a6225e22b043a0c73e6be6c99176c" target="_top" xlink:title="Compute internal gr , gz required for &#160;constraint.">
<polygon fill="white" stroke="black" points="423,-361.5 423,-380.5 498,-380.5 498,-361.5 423,-361.5"/>
<text text-anchor="middle" x="460.5" y="-368.5" font-family="Helvetica,sans-Serif" font-size="10.00">constrain_m1</text>
</a>
</g>
</g>
<!-- Node14&#45;&gt;Node15 -->
<g id="edge14" class="edge">
<title>Node14&#45;&gt;Node15</title>
<path fill="none" stroke="midnightblue" d="M353.2,-421.04C363.4,-417.75 375.44,-413.55 386,-409 402.62,-401.85 405.93,-398.31 422,-390 424.98,-388.46 428.1,-386.86 431.22,-385.27"/>
<polygon fill="midnightblue" stroke="midnightblue" points="433.06,-388.26 440.39,-380.6 429.89,-382.01 433.06,-388.26"/>
</g>
<!-- Node16 -->
<g id="node16" class="node">
<title>Node16</title>
<g id="a_node16"><a xlink:href="../../d3/d3a/getfsq_8f90.html#a7b636db95ff23aaea849bd65fba7aa2e" target="_top" xlink:title="Compute total force residual on flux surfaces.">
<polygon fill="white" stroke="black" points="438.5,-475.5 438.5,-494.5 482.5,-494.5 482.5,-475.5 438.5,-475.5"/>
<text text-anchor="middle" x="460.5" y="-482.5" font-family="Helvetica,sans-Serif" font-size="10.00">getfsq</text>
</a>
</g>
</g>
<!-- Node14&#45;&gt;Node16 -->
<g id="edge15" class="edge">
<title>Node14&#45;&gt;Node16</title>
<path fill="none" stroke="midnightblue" d="M353.2,-434.96C363.4,-438.25 375.44,-442.45 386,-447 402.62,-454.15 405.93,-457.69 422,-466 424.98,-467.54 428.1,-469.14 431.22,-470.73"/>
<polygon fill="midnightblue" stroke="midnightblue" points="429.89,-473.99 440.39,-475.4 433.06,-467.74 429.89,-473.99"/>
</g>
<!-- Node17 -->
<g id="node17" class="node">
<title>Node17</title>
<g id="a_node17"><a xlink:href="../../db/d5a/residue_8f90.html#aaf8d684a58b8bf9dfdecfdb925960780" target="_top" xlink:title="Compute internal gr , gz required for &#160;constraint.">
<polygon fill="white" stroke="black" points="431,-437.5 431,-456.5 490,-456.5 490,-437.5 431,-437.5"/>
<text text-anchor="middle" x="460.5" y="-444.5" font-family="Helvetica,sans-Serif" font-size="10.00">scale_m1</text>
</a>
</g>
</g>
<!-- Node14&#45;&gt;Node17 -->
<g id="edge16" class="edge">
<title>Node14&#45;&gt;Node17</title>
<path fill="none" stroke="midnightblue" d="M353.15,-431.4C371.87,-434.14 398.62,-438.07 420.62,-441.3"/>
<polygon fill="midnightblue" stroke="midnightblue" points="420.25,-444.78 430.66,-442.77 421.27,-437.85 420.25,-444.78"/>
</g>
<!-- Node18 -->
<g id="node18" class="node">
<title>Node18</title>
<g id="a_node18"><a xlink:href="../../d8/d86/scalfor_8f90.html#a20fb7039b82d05e64d01a2e50431ba5e" target="_top" xlink:title="Build forces from different contributions.">
<polygon fill="white" stroke="black" points="437.5,-399.5 437.5,-418.5 483.5,-418.5 483.5,-399.5 437.5,-399.5"/>
<text text-anchor="middle" x="460.5" y="-406.5" font-family="Helvetica,sans-Serif" font-size="10.00">scalfor</text>
</a>
</g>
</g>
<!-- Node14&#45;&gt;Node18 -->
<g id="edge17" class="edge">
<title>Node14&#45;&gt;Node18</title>
<path fill="none" stroke="midnightblue" d="M353.15,-424.6C373.85,-421.57 404.37,-417.09 427.41,-413.71"/>
<polygon fill="midnightblue" stroke="midnightblue" points="428.03,-417.16 437.41,-412.24 427.01,-410.23 428.03,-417.16"/>
</g>
<!-- Node19 -->
<g id="node19" class="node">
<title>Node19</title>
<g id="a_node19"><a xlink:href="../../db/d40/tridslv_8f90.html#abf5399c0154abe7424c54d7fa9eb69db" target="_top" xlink:title="Solve a tridiagonal system of equations.">
<polygon fill="white" stroke="black" points="535.5,-399.5 535.5,-418.5 578.5,-418.5 578.5,-399.5 535.5,-399.5"/>
<text text-anchor="middle" x="557" y="-406.5" font-family="Helvetica,sans-Serif" font-size="10.00">tridslv</text>
</a>
</g>
</g>
<!-- Node18&#45;&gt;Node19 -->
<g id="edge18" class="edge">
<title>Node18&#45;&gt;Node19</title>
<path fill="none" stroke="midnightblue" d="M483.9,-409C496.21,-409 511.68,-409 525.13,-409"/>
<polygon fill="midnightblue" stroke="midnightblue" points="525.38,-412.5 535.38,-409 525.38,-405.5 525.38,-412.5"/>
</g>
<!-- Node26 -->
<g id="node26" class="node">
<title>Node26</title>
<g id="a_node26"><a xlink:href="../../dc/d49/totzsp_8f90.html#aff13f873fb632d486fdffc6ee97857c6" target="_top" xlink:title="Convert from internal representation to &quot;physical&quot; rmnsc, zmncc Fourier form.">
<polygon fill="white" stroke="black" points="422,-228.5 422,-247.5 499,-247.5 499,-228.5 422,-228.5"/>
<text text-anchor="middle" x="460.5" y="-235.5" font-family="Helvetica,sans-Serif" font-size="10.00">convert_asym</text>
</a>
</g>
</g>
<!-- Node25&#45;&gt;Node26 -->
<g id="edge25" class="edge">
<title>Node25&#45;&gt;Node26</title>
<path fill="none" stroke="midnightblue" d="M353.15,-238C369.38,-238 391.66,-238 411.64,-238"/>
<polygon fill="midnightblue" stroke="midnightblue" points="411.83,-241.5 421.83,-238 411.83,-234.5 411.83,-241.5"/>
</g>
<!-- Node28 -->
<g id="node28" class="node">
<title>Node28</title>
<g id="a_node28"><a xlink:href="../../dc/d49/totzsp_8f90.html#a3264ce8fefaa7ede632c4147049aadc5" target="_top" xlink:title="Convert from internal representation to &quot;physical&quot; rmnss, zmncs Fourier form.">
<polygon fill="white" stroke="black" points="424.5,-190.5 424.5,-209.5 496.5,-209.5 496.5,-190.5 424.5,-190.5"/>
<text text-anchor="middle" x="460.5" y="-197.5" font-family="Helvetica,sans-Serif" font-size="10.00">convert_sym</text>
</a>
</g>
</g>
<!-- Node27&#45;&gt;Node28 -->
<g id="edge27" class="edge">
<title>Node27&#45;&gt;Node28</title>
<path fill="none" stroke="midnightblue" d="M353.15,-200C370.08,-200 393.59,-200 414.2,-200"/>
<polygon fill="midnightblue" stroke="midnightblue" points="414.35,-203.5 424.35,-200 414.35,-196.5 414.35,-203.5"/>
</g>
<!-- Node30 -->
<g id="node30" class="node">
<title>Node30</title>
<g id="a_node30"><a xlink:href="../../db/d3d/bextern_8f90.html#a90228cc5f358147ae7f59953d6f9cced" target="_top" xlink:title="Compute the total magnetic field due to external coils and the net toroidal plasma current.">
<polygon fill="white" stroke="black" points="436.5,-38.5 436.5,-57.5 484.5,-57.5 484.5,-38.5 436.5,-38.5"/>
<text text-anchor="middle" x="460.5" y="-45.5" font-family="Helvetica,sans-Serif" font-size="10.00">bextern</text>
</a>
</g>
</g>
<!-- Node29&#45;&gt;Node30 -->
<g id="edge29" class="edge">
<title>Node29&#45;&gt;Node30</title>
<path fill="none" stroke="midnightblue" d="M351.68,-95.46C372.69,-86.21 404.77,-72.09 428.48,-61.65"/>
<polygon fill="midnightblue" stroke="midnightblue" points="430.01,-64.8 437.75,-57.57 427.19,-58.4 430.01,-64.8"/>
</g>
<!-- Node33 -->
<g id="node33" class="node">
<title>Node33</title>
<g id="a_node33"><a xlink:href="../../dd/d98/precal_8f90.html#a0dae73e848a4757092d7e9786d073d3d" target="_top" xlink:title="Pre&#45;compute constant terms required for NESTOR.">
<polygon fill="white" stroke="black" points="439,-0.5 439,-19.5 482,-19.5 482,-0.5 439,-0.5"/>
<text text-anchor="middle" x="460.5" y="-7.5" font-family="Helvetica,sans-Serif" font-size="10.00">precal</text>
</a>
</g>
</g>
<!-- Node29&#45;&gt;Node33 -->
<g id="edge32" class="edge">
<title>Node29&#45;&gt;Node33</title>
<path fill="none" stroke="midnightblue" d="M340.17,-95.3C356.53,-80.01 390.11,-49.88 422,-29 424.46,-27.39 427.08,-25.81 429.74,-24.3"/>
<polygon fill="midnightblue" stroke="midnightblue" points="431.63,-27.26 438.8,-19.46 428.33,-21.09 431.63,-27.26"/>
</g>
<!-- Node34 -->
<g id="node34" class="node">
<title>Node34</title>
<g id="a_node34"><a xlink:href="../../d0/d19/scalpot_8f90.html#afb9e58849c5a27e486bdf4106f8bb84e" target="_top" xlink:title="Compute all required terms for solving for the scalar magnetic potential.">
<polygon fill="white" stroke="black" points="436.5,-152.5 436.5,-171.5 484.5,-171.5 484.5,-152.5 436.5,-152.5"/>
<text text-anchor="middle" x="460.5" y="-159.5" font-family="Helvetica,sans-Serif" font-size="10.00">scalpot</text>
</a>
</g>
</g>
<!-- Node29&#45;&gt;Node34 -->
<g id="edge33" class="edge">
<title>Node29&#45;&gt;Node34</title>
<path fill="none" stroke="midnightblue" d="M351.68,-114.54C372.69,-123.79 404.77,-137.91 428.48,-148.35"/>
<polygon fill="midnightblue" stroke="midnightblue" points="427.19,-151.6 437.75,-152.43 430.01,-145.2 427.19,-151.6"/>
</g>
<!-- Node41 -->
<g id="node41" class="node">
<title>Node41</title>
<g id="a_node41"><a xlink:href="../../d7/d39/solver_8f90.html#a1e815013ed24a9dddc80410103f4a220" target="_top" xlink:title="Solve a linear system of equations using dgesv.">
<polygon fill="white" stroke="black" points="439,-114.5 439,-133.5 482,-133.5 482,-114.5 439,-114.5"/>
<text text-anchor="middle" x="460.5" y="-121.5" font-family="Helvetica,sans-Serif" font-size="10.00">solver</text>
</a>
</g>
</g>
<!-- Node29&#45;&gt;Node41 -->
<g id="edge40" class="edge">
<title>Node29&#45;&gt;Node41</title>
<path fill="none" stroke="midnightblue" d="M354.66,-108.62C375.7,-111.7 406.03,-116.16 428.67,-119.48"/>
<polygon fill="midnightblue" stroke="midnightblue" points="428.37,-122.97 438.77,-120.96 429.39,-116.04 428.37,-122.97"/>
</g>
<!-- Node42 -->
<g id="node42" class="node">
<title>Node42</title>
<g id="a_node42"><a xlink:href="../../d6/d03/surface_8f90.html#ad7b6446e720a806f41f10dd1eb0b6f88" target="_top" xlink:title="Evaluate the geometry of the LCFS and tangential derivatives.">
<polygon fill="white" stroke="black" points="436,-76.5 436,-95.5 485,-95.5 485,-76.5 436,-76.5"/>
<text text-anchor="middle" x="460.5" y="-83.5" font-family="Helvetica,sans-Serif" font-size="10.00">surface</text>
</a>
</g>
</g>
<!-- Node29&#45;&gt;Node42 -->
<g id="edge41" class="edge">
<title>Node29&#45;&gt;Node42</title>
<path fill="none" stroke="midnightblue" d="M354.66,-101.38C374.81,-98.43 403.49,-94.22 425.76,-90.95"/>
<polygon fill="midnightblue" stroke="midnightblue" points="426.42,-94.39 435.8,-89.48 425.4,-87.47 426.42,-94.39"/>
</g>
<!-- Node31 -->
<g id="node31" class="node">
<title>Node31</title>
<g id="a_node31"><a xlink:href="../../d6/dc7/becoil_8f90.html#a449b054fb88bdb4cdf73ef8939654bfb" target="_top" xlink:title="Compute the cylindrical components of the magnetic field due to external coils. by bi&#45;linear interpol...">
<polygon fill="white" stroke="black" points="536,-19.5 536,-38.5 578,-38.5 578,-19.5 536,-19.5"/>
<text text-anchor="middle" x="557" y="-26.5" font-family="Helvetica,sans-Serif" font-size="10.00">becoil</text>
</a>
</g>
</g>
<!-- Node30&#45;&gt;Node31 -->
<g id="edge30" class="edge">
<title>Node30&#45;&gt;Node31</title>
<path fill="none" stroke="midnightblue" d="M484.86,-43.3C497.19,-40.82 512.48,-37.75 525.71,-35.09"/>
<polygon fill="midnightblue" stroke="midnightblue" points="526.68,-38.47 535.79,-33.06 525.3,-31.6 526.68,-38.47"/>
</g>
<!-- Node32 -->
<g id="node32" class="node">
<title>Node32</title>
<g id="a_node32"><a xlink:href="../../d9/dda/belicu_8f90.html#a53e6f162ca96069b8d93e131069ddf5d" target="_top" xlink:title="Magnetic field due to net toroidal current modeled by a filament along the magnetic axis.">
<polygon fill="white" stroke="black" points="536,-57.5 536,-76.5 578,-76.5 578,-57.5 536,-57.5"/>
<text text-anchor="middle" x="557" y="-64.5" font-family="Helvetica,sans-Serif" font-size="10.00">belicu</text>
</a>
</g>
</g>
<!-- Node30&#45;&gt;Node32 -->
<g id="edge31" class="edge">
<title>Node30&#45;&gt;Node32</title>
<path fill="none" stroke="midnightblue" d="M484.86,-52.7C497.19,-55.18 512.48,-58.25 525.71,-60.91"/>
<polygon fill="midnightblue" stroke="midnightblue" points="525.3,-64.4 535.79,-62.94 526.68,-57.53 525.3,-64.4"/>
</g>
<!-- Node35 -->
<g id="node35" class="node">
<title>Node35</title>
<g id="a_node35"><a xlink:href="../../da/d73/analyt_8f90.html#a60edcf4884aa60f6d96c258a97255756" target="_top" xlink:title="Compute the analytical&#45;and&#45;numerical 4D Fourier integrals over the equivalently&#45;singular functions.">
<polygon fill="white" stroke="black" points="536,-114.5 536,-133.5 578,-133.5 578,-114.5 536,-114.5"/>
<text text-anchor="middle" x="557" y="-121.5" font-family="Helvetica,sans-Serif" font-size="10.00">analyt</text>
</a>
</g>
</g>
<!-- Node34&#45;&gt;Node35 -->
<g id="edge34" class="edge">
<title>Node34&#45;&gt;Node35</title>
<path fill="none" stroke="midnightblue" d="M484.86,-152.61C497.44,-147.55 513.08,-141.26 526.49,-135.86"/>
<polygon fill="midnightblue" stroke="midnightblue" points="527.82,-139.1 535.79,-132.13 525.21,-132.61 527.82,-139.1"/>
</g>
<!-- Node38 -->
<g id="node38" class="node">
<title>Node38</title>
<g id="a_node38"><a xlink:href="../../d6/d77/fouri_8f90.html#a0f902f8d584a395f9db7175079d273c7" target="_top" xlink:title="Compute Fourier integrals and build amatrix.">
<polygon fill="white" stroke="black" points="539.5,-228.5 539.5,-247.5 574.5,-247.5 574.5,-228.5 539.5,-228.5"/>
<text text-anchor="middle" x="557" y="-235.5" font-family="Helvetica,sans-Serif" font-size="10.00">fouri</text>
</a>
</g>
</g>
<!-- Node34&#45;&gt;Node38 -->
<g id="edge37" class="edge">
<title>Node34&#45;&gt;Node38</title>
<path fill="none" stroke="midnightblue" d="M483.67,-171.64C488.9,-174.35 494.32,-177.51 499,-181 517.65,-194.91 518.36,-202.74 535,-219 535.91,-219.89 536.85,-220.79 537.81,-221.7"/>
<polygon fill="midnightblue" stroke="midnightblue" points="535.45,-224.28 545.17,-228.49 540.19,-219.14 535.45,-224.28"/>
</g>
<!-- Node39 -->
<g id="node39" class="node">
<title>Node39</title>
<g id="a_node39"><a xlink:href="../../d0/d1c/fourp_8f90.html#add725dd420251115fd60182dc992503c" target="_top" xlink:title="Perform Fourier integrals of Green&#39;s function kernel.">
<polygon fill="white" stroke="black" points="538,-190.5 538,-209.5 576,-209.5 576,-190.5 538,-190.5"/>
<text text-anchor="middle" x="557" y="-197.5" font-family="Helvetica,sans-Serif" font-size="10.00">fourp</text>
</a>
</g>
</g>
<!-- Node34&#45;&gt;Node39 -->
<g id="edge38" class="edge">
<title>Node34&#45;&gt;Node39</title>
<path fill="none" stroke="midnightblue" d="M484.86,-171.39C498.05,-176.7 514.62,-183.36 528.45,-188.92"/>
<polygon fill="midnightblue" stroke="midnightblue" points="527.36,-192.26 537.94,-192.74 529.97,-185.76 527.36,-192.26"/>
</g>
<!-- Node40 -->
<g id="node40" class="node">
<title>Node40</title>
<g id="a_node40"><a xlink:href="../../df/d2d/greenf_8f90.html#acd9d25905cc799c9fcd4d08a3cbb1e65" target="_top" xlink:title="Compute the regularized evaluation of the Green&#39;s function and the source term.">
<polygon fill="white" stroke="black" points="535,-152.5 535,-171.5 579,-171.5 579,-152.5 535,-152.5"/>
<text text-anchor="middle" x="557" y="-159.5" font-family="Helvetica,sans-Serif" font-size="10.00">greenf</text>
</a>
</g>
</g>
<!-- Node34&#45;&gt;Node40 -->
<g id="edge39" class="edge">
<title>Node34&#45;&gt;Node40</title>
<path fill="none" stroke="midnightblue" d="M484.86,-162C496.82,-162 511.54,-162 524.49,-162"/>
<polygon fill="midnightblue" stroke="midnightblue" points="524.84,-165.5 534.84,-162 524.84,-158.5 524.84,-165.5"/>
</g>
<!-- Node36 -->
<g id="node36" class="node">
<title>Node36</title>
<g id="a_node36"><a xlink:href="../../df/df3/analysum_8f90.html#aa51b1a5786e7b5719fe2ca679efc66b0" target="_top" xlink:title="Compute the (m=0 or n=0) part of the DFT of the analytical Fourier transforms of the equivalently&#45;sin...">
<polygon fill="white" stroke="black" points="617.5,-133.5 617.5,-152.5 675.5,-152.5 675.5,-133.5 617.5,-133.5"/>
<text text-anchor="middle" x="646.5" y="-140.5" font-family="Helvetica,sans-Serif" font-size="10.00">analysum</text>
</a>
</g>
</g>
<!-- Node35&#45;&gt;Node36 -->
<g id="edge35" class="edge">
<title>Node35&#45;&gt;Node36</title>
<path fill="none" stroke="midnightblue" d="M578.29,-128.41C587,-130.3 597.47,-132.57 607.53,-134.75"/>
<polygon fill="midnightblue" stroke="midnightblue" points="606.85,-138.19 617.36,-136.89 608.33,-131.35 606.85,-138.19"/>
</g>
<!-- Node37 -->
<g id="node37" class="node">
<title>Node37</title>
<g id="a_node37"><a xlink:href="../../d1/d90/analysum2_8f90.html#a47a0d185131a197c6fc62ee5d68d62fb" target="_top" xlink:title="Compute the (m&gt;0 and n&gt;0) part of the DFT of the analytical Fourier transforms of the equivalently&#45;si...">
<polygon fill="white" stroke="black" points="615,-95.5 615,-114.5 678,-114.5 678,-95.5 615,-95.5"/>
<text text-anchor="middle" x="646.5" y="-102.5" font-family="Helvetica,sans-Serif" font-size="10.00">analysum2</text>
</a>
</g>
</g>
<!-- Node35&#45;&gt;Node37 -->
<g id="edge36" class="edge">
<title>Node35&#45;&gt;Node37</title>
<path fill="none" stroke="midnightblue" d="M578.29,-119.59C586.23,-117.87 595.62,-115.83 604.84,-113.83"/>
<polygon fill="midnightblue" stroke="midnightblue" points="605.65,-117.23 614.68,-111.69 604.17,-110.39 605.65,-117.23"/>
</g>
<!-- Node47 -->
<g id="node47" class="node">
<title>Node47</title>
<g id="a_node47"><a xlink:href="../../de/daf/spectrum_8f90.html#afecccf953acda8cefc93e3f955198fcc" target="_top" xlink:title="Compute the spectral width of the surface geometry Fourier coefficients.">
<polygon fill="white" stroke="black" points="300.5,-152.5 300.5,-171.5 357.5,-171.5 357.5,-152.5 300.5,-152.5"/>
<text text-anchor="middle" x="329" y="-159.5" font-family="Helvetica,sans-Serif" font-size="10.00">spectrum</text>
</a>
</g>
</g>
<!-- Node46&#45;&gt;Node47 -->
<g id="edge46" class="edge">
<title>Node46&#45;&gt;Node47</title>
<path fill="none" stroke="midnightblue" d="M214.93,-285.19C220.85,-263.29 238.09,-210.05 272,-181 277.34,-176.42 283.84,-172.93 290.49,-170.28"/>
<polygon fill="midnightblue" stroke="midnightblue" points="291.89,-173.5 300.22,-166.96 289.62,-166.88 291.89,-173.5"/>
</g>
<!-- Node47&#45;&gt;Node26 -->
<g id="edge47" class="edge">
<title>Node47&#45;&gt;Node26</title>
<path fill="none" stroke="midnightblue" d="M357.7,-168.49C367.13,-171.43 377.44,-175.52 386,-181 405.59,-193.55 403.35,-205.09 422,-219 424.05,-220.53 426.24,-221.99 428.49,-223.38"/>
<polygon fill="midnightblue" stroke="midnightblue" points="426.9,-226.51 437.33,-228.36 430.33,-220.4 426.9,-226.51"/>
</g>
<!-- Node47&#45;&gt;Node28 -->
<g id="edge48" class="edge">
<title>Node47&#45;&gt;Node28</title>
<path fill="none" stroke="midnightblue" d="M357.78,-170.15C375,-175.2 397.45,-181.79 416.88,-187.5"/>
<polygon fill="midnightblue" stroke="midnightblue" points="416.15,-190.93 426.73,-190.38 418.12,-184.21 416.15,-190.93"/>
</g>
</g>
</svg>
