<?xml version="1.0" encoding="UTF-8" standalone="no"?>
<!DOCTYPE svg PUBLIC "-//W3C//DTD SVG 1.1//EN"
 "http://www.w3.org/Graphics/SVG/1.1/DTD/svg11.dtd">
<!-- Generated by graphviz version 2.47.1 (20210421.1823)
 -->
<!-- Title: eqsolve Pages: 1 -->
<svg width="431pt" height="237pt"
 viewBox="0.00 0.00 431.00 237.00" xmlns="http://www.w3.org/2000/svg" xmlns:xlink="http://www.w3.org/1999/xlink">
<g id="graph0" class="graph" transform="scale(1 1) rotate(0) translate(4 233)">
<title>eqsolve</title>
<polygon fill="white" stroke="transparent" points="-4,4 -4,-233 427,-233 427,4 -4,4"/>
<!-- Node1 -->
<g id="node1" class="node">
<title>Node1</title>
<g id="a_node1"><a xlink:title="Iteratively evolve the Fourier coefficients that specify the equilibrium.">
<polygon fill="#bfbfbf" stroke="black" points="0,-57.5 0,-76.5 50,-76.5 50,-57.5 0,-57.5"/>
<text text-anchor="middle" x="25" y="-64.5" font-family="Helvetica,sans-Serif" font-size="10.00">eqsolve</text>
</a>
</g>
</g>
<!-- Node2 -->
<g id="node2" class="node">
<title>Node2</title>
<g id="a_node2"><a xlink:href="../../de/da9/evolve_8f90.html#a8103e838be03904e03551e04f6b396e4" target="_top" xlink:title="Take a single time step in Fourier space to evolve the Fourier coefficients describing the equilibriu...">
<polygon fill="white" stroke="black" points="96,-95.5 96,-114.5 141,-114.5 141,-95.5 96,-95.5"/>
<text text-anchor="middle" x="118.5" y="-102.5" font-family="Helvetica,sans-Serif" font-size="10.00">evolve</text>
</a>
</g>
</g>
<!-- Node1&#45;&gt;Node2 -->
<g id="edge1" class="edge">
<title>Node1&#45;&gt;Node2</title>
<path fill="none" stroke="midnightblue" d="M49.09,-76.59C60.45,-81.31 74.31,-87.06 86.57,-92.16"/>
<polygon fill="midnightblue" stroke="midnightblue" points="85.41,-95.46 95.99,-96.07 88.1,-89 85.41,-95.46"/>
</g>
<!-- Node14 -->
<g id="node14" class="node">
<title>Node14</title>
<g id="a_node14"><a xlink:href="../../d5/dfd/guess__axis_8f90.html#a375e34fe4656d4c51d5013939bf5617e" target="_top" xlink:title="Computes guess for magnetic axis if user guess leads to initial sign change of Jacobian.">
<polygon fill="white" stroke="black" points="86,-57.5 86,-76.5 151,-76.5 151,-57.5 86,-57.5"/>
<text text-anchor="middle" x="118.5" y="-64.5" font-family="Helvetica,sans-Serif" font-size="10.00">guess_axis</text>
</a>
</g>
</g>
<!-- Node1&#45;&gt;Node14 -->
<g id="edge13" class="edge">
<title>Node1&#45;&gt;Node14</title>
<path fill="none" stroke="midnightblue" d="M50.04,-67C57.88,-67 66.83,-67 75.59,-67"/>
<polygon fill="midnightblue" stroke="midnightblue" points="75.7,-70.5 85.7,-67 75.7,-63.5 75.7,-70.5"/>
</g>
<!-- Node15 -->
<g id="node15" class="node">
<title>Node15</title>
<g id="a_node15"><a xlink:href="../../d7/dc9/printout_8f90.html#ad981fdd1d509a05592ecbea3ef831797" target="_top" xlink:title="Print iteration progress to screen and threed1 output file.">
<polygon fill="white" stroke="black" points="94,-19.5 94,-38.5 143,-38.5 143,-19.5 94,-19.5"/>
<text text-anchor="middle" x="118.5" y="-26.5" font-family="Helvetica,sans-Serif" font-size="10.00">printout</text>
</a>
</g>
</g>
<!-- Node1&#45;&gt;Node15 -->
<g id="edge14" class="edge">
<title>Node1&#45;&gt;Node15</title>
<path fill="none" stroke="midnightblue" d="M49.09,-57.41C59.93,-52.91 73.03,-47.47 84.86,-42.56"/>
<polygon fill="midnightblue" stroke="midnightblue" points="86.53,-45.65 94.42,-38.59 83.84,-39.19 86.53,-45.65"/>
</g>
<!-- Node3 -->
<g id="node3" class="node">
<title>Node3</title>
<g id="a_node3"><a xlink:href="../../d3/d4f/funct3d_8f90.html#a800bacc22176e16323899df87b55c547" target="_top" xlink:title="Evaluate the three&#45;dimensional MHD energy functional.">
<polygon fill="white" stroke="black" points="187,-95.5 187,-114.5 236,-114.5 236,-95.5 187,-95.5"/>
<text text-anchor="middle" x="211.5" y="-102.5" font-family="Helvetica,sans-Serif" font-size="10.00">funct3d</text>
</a>
</g>
</g>
<!-- Node2&#45;&gt;Node3 -->
<g id="edge2" class="edge">
<title>Node2&#45;&gt;Node3</title>
<path fill="none" stroke="midnightblue" d="M141.07,-105C151.72,-105 164.81,-105 176.75,-105"/>
<polygon fill="midnightblue" stroke="midnightblue" points="176.85,-108.5 186.85,-105 176.85,-101.5 176.85,-108.5"/>
</g>
<!-- Node4 -->
<g id="node4" class="node">
<title>Node4</title>
<g id="a_node4"><a xlink:href="../../d5/de7/alias_8f90.html#a971bf2e3997d8e5ed08c060b651c88c4" target="_top" xlink:title="Fourier transform alias force from ztemp to gcons and also return intermediate output in g(c,...">
<polygon fill="white" stroke="black" points="280,-190.5 280,-209.5 317,-209.5 317,-190.5 280,-190.5"/>
<text text-anchor="middle" x="298.5" y="-197.5" font-family="Helvetica,sans-Serif" font-size="10.00">alias</text>
</a>
</g>
</g>
<!-- Node3&#45;&gt;Node4 -->
<g id="edge3" class="edge">
<title>Node3&#45;&gt;Node4</title>
<path fill="none" stroke="midnightblue" d="M218.74,-114.54C228.85,-129.62 249.94,-159.46 272,-181 273.06,-182.04 274.18,-183.06 275.34,-184.08"/>
<polygon fill="midnightblue" stroke="midnightblue" points="273.2,-186.85 283.19,-190.38 277.58,-181.39 273.2,-186.85"/>
</g>
<!-- Node5 -->
<g id="node5" class="node">
<title>Node5</title>
<g id="a_node5"><a xlink:href="../../d7/d61/bcovar_8f90.html#a1e1624195f0c0c7daa9f49d83bae5ce8" target="_top" xlink:title="Compute the covariant components of the magnetic field , .">
<polygon fill="white" stroke="black" points="275.5,-152.5 275.5,-171.5 321.5,-171.5 321.5,-152.5 275.5,-152.5"/>
<text text-anchor="middle" x="298.5" y="-159.5" font-family="Helvetica,sans-Serif" font-size="10.00">bcovar</text>
</a>
</g>
</g>
<!-- Node3&#45;&gt;Node5 -->
<g id="edge4" class="edge">
<title>Node3&#45;&gt;Node5</title>
<path fill="none" stroke="midnightblue" d="M226.92,-114.67C240.06,-123.48 259.7,-136.65 274.92,-146.86"/>
<polygon fill="midnightblue" stroke="midnightblue" points="273.04,-149.81 283.29,-152.47 276.94,-144 273.04,-149.81"/>
</g>
<!-- Node10 -->
<g id="node10" class="node">
<title>Node10</title>
<g id="a_node10"><a xlink:href="../../db/d74/convert_8f90.html#ae6d3862ea21a8d39210a79c6955b5b75" target="_top" xlink:title="Convert internal mode representation to standard form for output (coefficients of cos(mu&#45;nv),...">
<polygon fill="white" stroke="black" points="274,-114.5 274,-133.5 323,-133.5 323,-114.5 274,-114.5"/>
<text text-anchor="middle" x="298.5" y="-121.5" font-family="Helvetica,sans-Serif" font-size="10.00">convert</text>
</a>
</g>
</g>
<!-- Node3&#45;&gt;Node10 -->
<g id="edge9" class="edge">
<title>Node3&#45;&gt;Node10</title>
<path fill="none" stroke="midnightblue" d="M236.18,-110.29C244.84,-112.23 254.8,-114.46 264.14,-116.54"/>
<polygon fill="midnightblue" stroke="midnightblue" points="263.43,-119.97 273.95,-118.74 264.95,-113.14 263.43,-119.97"/>
</g>
<!-- Node11 -->
<g id="node11" class="node">
<title>Node11</title>
<g id="a_node11"><a xlink:href="../../de/d0c/forces_8f90.html#a7b4708aaec3cc94526474c16bc3a16f0" target="_top" xlink:title="Compute the real&#45;space MHD forces.">
<polygon fill="white" stroke="black" points="276.5,-76.5 276.5,-95.5 320.5,-95.5 320.5,-76.5 276.5,-76.5"/>
<text text-anchor="middle" x="298.5" y="-83.5" font-family="Helvetica,sans-Serif" font-size="10.00">forces</text>
</a>
</g>
</g>
<!-- Node3&#45;&gt;Node11 -->
<g id="edge10" class="edge">
<title>Node3&#45;&gt;Node11</title>
<path fill="none" stroke="midnightblue" d="M236.18,-99.71C245.51,-97.62 256.36,-95.2 266.32,-92.97"/>
<polygon fill="midnightblue" stroke="midnightblue" points="267.27,-96.34 276.27,-90.75 265.75,-89.51 267.27,-96.34"/>
</g>
<!-- Node12 -->
<g id="node12" class="node">
<title>Node12</title>
<g id="a_node12"><a xlink:href="../../d8/dc3/jacobian_8f90.html#af346f65d2aa225d9ede6e0f23add6142" target="_top" xlink:title="Evaulate the Jacobian of the transform from flux&#45; to cylindrical coordinates.">
<polygon fill="white" stroke="black" points="272,-38.5 272,-57.5 325,-57.5 325,-38.5 272,-38.5"/>
<text text-anchor="middle" x="298.5" y="-45.5" font-family="Helvetica,sans-Serif" font-size="10.00">jacobian</text>
</a>
</g>
</g>
<!-- Node3&#45;&gt;Node12 -->
<g id="edge11" class="edge">
<title>Node3&#45;&gt;Node12</title>
<path fill="none" stroke="midnightblue" d="M226.92,-95.33C240.06,-86.52 259.7,-73.35 274.92,-63.14"/>
<polygon fill="midnightblue" stroke="midnightblue" points="276.94,-66 283.29,-57.53 273.04,-60.19 276.94,-66"/>
</g>
<!-- Node13 -->
<g id="node13" class="node">
<title>Node13</title>
<g id="a_node13"><a xlink:href="../../dc/d49/totzsp_8f90.html#ac4756c0f66a5a01d9c08334a98a61b21" target="_top" xlink:title=" ">
<polygon fill="white" stroke="black" points="274.5,-0.5 274.5,-19.5 322.5,-19.5 322.5,-0.5 274.5,-0.5"/>
<text text-anchor="middle" x="298.5" y="-7.5" font-family="Helvetica,sans-Serif" font-size="10.00">totzsps</text>
</a>
</g>
</g>
<!-- Node3&#45;&gt;Node13 -->
<g id="edge12" class="edge">
<title>Node3&#45;&gt;Node13</title>
<path fill="none" stroke="midnightblue" d="M218.74,-95.46C228.85,-80.38 249.94,-50.54 272,-29 273.06,-27.96 274.18,-26.94 275.34,-25.92"/>
<polygon fill="midnightblue" stroke="midnightblue" points="277.58,-28.61 283.19,-19.62 273.2,-23.15 277.58,-28.61"/>
</g>
<!-- Node6 -->
<g id="node6" class="node">
<title>Node6</title>
<g id="a_node6"><a xlink:href="../../d8/d7d/add__fluxes_8f90.html#a988e7013ef02301b9cfbde5b8068d5af" target="_top" xlink:title="Add the magnetic fluxes to the tangential derivatives of &#160;to arrive at the contravariant magnetic fie...">
<polygon fill="white" stroke="black" points="361,-209.5 361,-228.5 423,-228.5 423,-209.5 361,-209.5"/>
<text text-anchor="middle" x="392" y="-216.5" font-family="Helvetica,sans-Serif" font-size="10.00">add_fluxes</text>
</a>
</g>
</g>
<!-- Node5&#45;&gt;Node6 -->
<g id="edge5" class="edge">
<title>Node5&#45;&gt;Node6</title>
<path fill="none" stroke="midnightblue" d="M315.02,-171.67C329.3,-180.57 350.7,-193.9 367.15,-204.14"/>
<polygon fill="midnightblue" stroke="midnightblue" points="365.37,-207.16 375.71,-209.47 369.07,-201.22 365.37,-207.16"/>
</g>
<!-- Node7 -->
<g id="node7" class="node">
<title>Node7</title>
<g id="a_node7"><a xlink:href="../../d9/dff/calc__fbal_8f90.html#a6cdc3d21c48f66aeaff8ab5e639641b6" target="_top" xlink:title="Compute flux&#45;surface averaged radial force balance .">
<polygon fill="white" stroke="black" points="364,-171.5 364,-190.5 420,-190.5 420,-171.5 364,-171.5"/>
<text text-anchor="middle" x="392" y="-178.5" font-family="Helvetica,sans-Serif" font-size="10.00">calc_fbal</text>
</a>
</g>
</g>
<!-- Node5&#45;&gt;Node7 -->
<g id="edge6" class="edge">
<title>Node5&#45;&gt;Node7</title>
<path fill="none" stroke="midnightblue" d="M321.65,-166.6C331.37,-168.62 343.04,-171.04 354.02,-173.32"/>
<polygon fill="midnightblue" stroke="midnightblue" points="353.32,-176.75 363.83,-175.36 354.75,-169.9 353.32,-176.75"/>
</g>
<!-- Node8 -->
<g id="node8" class="node">
<title>Node8</title>
<g id="a_node8"><a xlink:href="../../d4/d51/lamcal_8f90.html#aae66bdcec0bbb969704413d933148096" target="_top" xlink:title="Normalization parameters for .">
<polygon fill="white" stroke="black" points="369.5,-133.5 369.5,-152.5 414.5,-152.5 414.5,-133.5 369.5,-133.5"/>
<text text-anchor="middle" x="392" y="-140.5" font-family="Helvetica,sans-Serif" font-size="10.00">lamcal</text>
</a>
</g>
</g>
<!-- Node5&#45;&gt;Node8 -->
<g id="edge7" class="edge">
<title>Node5&#45;&gt;Node8</title>
<path fill="none" stroke="midnightblue" d="M321.65,-157.4C332.97,-155.05 346.95,-152.15 359.38,-149.57"/>
<polygon fill="midnightblue" stroke="midnightblue" points="360.29,-152.95 369.37,-147.49 358.87,-146.1 360.29,-152.95"/>
</g>
<!-- Node9 -->
<g id="node9" class="node">
<title>Node9</title>
<g id="a_node9"><a xlink:href="../../d4/da9/precondn_8f90.html#a4c530a7978360300894520e9c5f7663c" target="_top" xlink:title="Compute preconditioning matrix elements for , &#160;force.">
<polygon fill="white" stroke="black" points="364,-95.5 364,-114.5 420,-114.5 420,-95.5 364,-95.5"/>
<text text-anchor="middle" x="392" y="-102.5" font-family="Helvetica,sans-Serif" font-size="10.00">precondn</text>
</a>
</g>
</g>
<!-- Node5&#45;&gt;Node9 -->
<g id="edge8" class="edge">
<title>Node5&#45;&gt;Node9</title>
<path fill="none" stroke="midnightblue" d="M315.02,-152.33C329.3,-143.43 350.7,-130.1 367.15,-119.86"/>
<polygon fill="midnightblue" stroke="midnightblue" points="369.07,-122.78 375.71,-114.53 365.37,-116.84 369.07,-122.78"/>
</g>
</g>
</svg>
