<?xml version="1.0" encoding="UTF-8" standalone="no"?>
<!DOCTYPE svg PUBLIC "-//W3C//DTD SVG 1.1//EN"
 "http://www.w3.org/Graphics/SVG/1.1/DTD/svg11.dtd">
<!-- Generated by graphviz version 2.49.3 (20211027.1501)
 -->
<!-- Title: eqsolve Pages: 1 -->
<svg width="686pt" height="1037pt"
 viewBox="0.00 0.00 686.00 1037.00" xmlns="http://www.w3.org/2000/svg" xmlns:xlink="http://www.w3.org/1999/xlink">
<g id="graph0" class="graph" transform="scale(1 1) rotate(0) translate(4 1033)">
<title>eqsolve</title>
<polygon fill="white" stroke="transparent" points="-4,4 -4,-1033 682,-1033 682,4 -4,4"/>
<!-- Node1 -->
<g id="node1" class="node">
<title>Node1</title>
<g id="a_node1"><a xlink:title="Iteratively evolve the Fourier coefficients that specify the equilibrium.">
<polygon fill="#bfbfbf" stroke="black" points="0,-386.5 0,-405.5 50,-405.5 50,-386.5 0,-386.5"/>
<text text-anchor="middle" x="25" y="-393.5" font-family="Helvetica,sans-Serif" font-size="10.00">eqsolve</text>
</a>
</g>
</g>
<!-- Node2 -->
<g id="node2" class="node">
<title>Node2</title>
<g id="a_node2"><a xlink:href="../../de/da9/evolve_8f90.html#a8103e838be03904e03551e04f6b396e4" target="_top" xlink:title="Take a single time step in Fourier space to evolve the Fourier coefficients describing the equilibriu...">
<polygon fill="white" stroke="black" points="96,-424.5 96,-443.5 141,-443.5 141,-424.5 96,-424.5"/>
<text text-anchor="middle" x="118.5" y="-431.5" font-family="Helvetica,sans-Serif" font-size="10.00">evolve</text>
</a>
</g>
</g>
<!-- Node1&#45;&gt;Node2 -->
<g id="edge1" class="edge">
<title>Node1&#45;&gt;Node2</title>
<path fill="none" stroke="midnightblue" d="M49.09,-405.59C60.45,-410.31 74.31,-416.06 86.57,-421.16"/>
<polygon fill="midnightblue" stroke="midnightblue" points="85.41,-424.46 95.99,-425.07 88.1,-418 85.41,-424.46"/>
</g>
<!-- Node22 -->
<g id="node22" class="node">
<title>Node22</title>
<g id="a_node22"><a xlink:href="../../d5/d6e/restart__iter_8f90.html#ace7df67e039f0ebf69200f91d3cb16cc" target="_top" xlink:title="Save current or restore previous good state vector and reduce time step.">
<polygon fill="white" stroke="black" points="297.5,-876.5 297.5,-895.5 360.5,-895.5 360.5,-876.5 297.5,-876.5"/>
<text text-anchor="middle" x="329" y="-883.5" font-family="Helvetica,sans-Serif" font-size="10.00">restart_iter</text>
</a>
</g>
</g>
<!-- Node1&#45;&gt;Node22 -->
<g id="edge62" class="edge">
<title>Node1&#45;&gt;Node22</title>
<path fill="none" stroke="midnightblue" d="M28.19,-405.67C41,-459.95 111.2,-729.27 272,-867 276.6,-870.94 282.04,-874.07 287.71,-876.55"/>
<polygon fill="midnightblue" stroke="midnightblue" points="286.74,-879.93 297.33,-880.16 289.2,-873.38 286.74,-879.93"/>
</g>
<!-- Node49 -->
<g id="node49" class="node">
<title>Node49</title>
<g id="a_node49"><a xlink:href="../../d5/dfd/guess__axis_8f90.html#a375e34fe4656d4c51d5013939bf5617e" target="_top" xlink:title="Computes guess for magnetic axis if user guess leads to initial sign change of Jacobian.">
<polygon fill="white" stroke="black" points="86,-348.5 86,-367.5 151,-367.5 151,-348.5 86,-348.5"/>
<text text-anchor="middle" x="118.5" y="-355.5" font-family="Helvetica,sans-Serif" font-size="10.00">guess_axis</text>
</a>
</g>
</g>
<!-- Node1&#45;&gt;Node49 -->
<g id="edge56" class="edge">
<title>Node1&#45;&gt;Node49</title>
<path fill="none" stroke="midnightblue" d="M49.09,-386.41C59.93,-381.91 73.03,-376.47 84.86,-371.56"/>
<polygon fill="midnightblue" stroke="midnightblue" points="86.53,-374.65 94.42,-367.59 83.84,-368.19 86.53,-374.65"/>
</g>
<!-- Node50 -->
<g id="node50" class="node">
<title>Node50</title>
<g id="a_node50"><a xlink:href="../../d7/dc9/printout_8f90.html#ad981fdd1d509a05592ecbea3ef831797" target="_top" xlink:title="Print iteration progress to screen and threed1 output file.">
<polygon fill="white" stroke="black" points="187,-212.5 187,-231.5 236,-231.5 236,-212.5 187,-212.5"/>
<text text-anchor="middle" x="211.5" y="-219.5" font-family="Helvetica,sans-Serif" font-size="10.00">printout</text>
</a>
</g>
</g>
<!-- Node1&#45;&gt;Node50 -->
<g id="edge57" class="edge">
<title>Node1&#45;&gt;Node50</title>
<path fill="none" stroke="midnightblue" d="M50.46,-399.04C77.95,-401.06 122.44,-399.98 151,-377 193.19,-343.06 205.5,-275.47 209.06,-241.89"/>
<polygon fill="midnightblue" stroke="midnightblue" points="212.58,-241.81 210,-231.54 205.61,-241.19 212.58,-241.81"/>
</g>
<!-- Node52 -->
<g id="node52" class="node">
<title>Node52</title>
<g id="a_node52"><a xlink:href="../../dd/d75/profil3d_8f90.html#a67d2774ceac255f1e1f75e54f4679e9c" target="_top" xlink:title="Compute three&#45;dimensional profiles of flux&#45;surface geometry etc.">
<polygon fill="white" stroke="black" points="95,-310.5 95,-329.5 142,-329.5 142,-310.5 95,-310.5"/>
<text text-anchor="middle" x="118.5" y="-317.5" font-family="Helvetica,sans-Serif" font-size="10.00">profil3d</text>
</a>
</g>
</g>
<!-- Node1&#45;&gt;Node52 -->
<g id="edge61" class="edge">
<title>Node1&#45;&gt;Node52</title>
<path fill="none" stroke="midnightblue" d="M34.79,-386.46C46.02,-374.56 66.35,-353.98 86,-339 87.77,-337.65 89.65,-336.31 91.57,-335.01"/>
<polygon fill="midnightblue" stroke="midnightblue" points="93.5,-337.93 100.06,-329.6 89.74,-332.02 93.5,-337.93"/>
</g>
<!-- Node3 -->
<g id="node3" class="node">
<title>Node3</title>
<g id="a_node3"><a xlink:href="../../d3/d4f/funct3d_8f90.html#a800bacc22176e16323899df87b55c547" target="_top" xlink:title="Evaluate the three&#45;dimensional MHD energy functional. Think of this as the &quot;forward model&quot; that tells...">
<polygon fill="white" stroke="black" points="187,-424.5 187,-443.5 236,-443.5 236,-424.5 187,-424.5"/>
<text text-anchor="middle" x="211.5" y="-431.5" font-family="Helvetica,sans-Serif" font-size="10.00">funct3d</text>
</a>
</g>
</g>
<!-- Node2&#45;&gt;Node3 -->
<g id="edge2" class="edge">
<title>Node2&#45;&gt;Node3</title>
<path fill="none" stroke="midnightblue" d="M141.07,-434C151.72,-434 164.81,-434 176.75,-434"/>
<polygon fill="midnightblue" stroke="midnightblue" points="176.85,-437.5 186.85,-434 176.85,-430.5 176.85,-437.5"/>
</g>
<!-- Node4 -->
<g id="node4" class="node">
<title>Node4</title>
<g id="a_node4"><a xlink:href="../../d5/de7/alias_8f90.html#a971bf2e3997d8e5ed08c060b651c88c4" target="_top" xlink:title="Fourier&#45;space bandpass filter on constraint force for spectral condensation.">
<polygon fill="white" stroke="black" points="310.5,-380.5 310.5,-399.5 347.5,-399.5 347.5,-380.5 310.5,-380.5"/>
<text text-anchor="middle" x="329" y="-387.5" font-family="Helvetica,sans-Serif" font-size="10.00">alias</text>
</a>
</g>
</g>
<!-- Node3&#45;&gt;Node4 -->
<g id="edge3" class="edge">
<title>Node3&#45;&gt;Node4</title>
<path fill="none" stroke="midnightblue" d="M234.11,-424.49C245.34,-419.65 259.32,-413.81 272,-409 281.28,-405.48 291.53,-401.91 300.7,-398.83"/>
<polygon fill="midnightblue" stroke="midnightblue" points="302.09,-402.06 310.48,-395.59 299.89,-395.41 302.09,-402.06"/>
</g>
<!-- Node5 -->
<g id="node5" class="node">
<title>Node5</title>
<g id="a_node5"><a xlink:href="../../d7/d61/bcovar_8f90.html#a1e1624195f0c0c7daa9f49d83bae5ce8" target="_top" xlink:title="Compute the covariant components of the magnetic field , .">
<polygon fill="white" stroke="black" points="306,-677.5 306,-696.5 352,-696.5 352,-677.5 306,-677.5"/>
<text text-anchor="middle" x="329" y="-684.5" font-family="Helvetica,sans-Serif" font-size="10.00">bcovar</text>
</a>
</g>
</g>
<!-- Node3&#45;&gt;Node5 -->
<g id="edge4" class="edge">
<title>Node3&#45;&gt;Node5</title>
<path fill="none" stroke="midnightblue" d="M212.85,-443.57C214.49,-475.68 223.46,-581.34 272,-649 278.82,-658.5 288.8,-666.36 298.45,-672.41"/>
<polygon fill="midnightblue" stroke="midnightblue" points="296.72,-675.46 307.13,-677.46 300.25,-669.41 296.72,-675.46"/>
</g>
<!-- Node10 -->
<g id="node10" class="node">
<title>Node10</title>
<g id="a_node10"><a xlink:href="../../db/d74/convert_8f90.html#ae6d3862ea21a8d39210a79c6955b5b75" target="_top" xlink:title="Convert internal mode representation to standard form for output (coefficients of cos(mu&#45;nv),...">
<polygon fill="white" stroke="black" points="304.5,-342.5 304.5,-361.5 353.5,-361.5 353.5,-342.5 304.5,-342.5"/>
<text text-anchor="middle" x="329" y="-349.5" font-family="Helvetica,sans-Serif" font-size="10.00">convert</text>
</a>
</g>
</g>
<!-- Node3&#45;&gt;Node10 -->
<g id="edge9" class="edge">
<title>Node3&#45;&gt;Node10</title>
<path fill="none" stroke="midnightblue" d="M219.43,-424.05C229.5,-410.27 249.46,-385.46 272,-371 278.87,-366.59 286.86,-363.09 294.63,-360.36"/>
<polygon fill="midnightblue" stroke="midnightblue" points="295.78,-363.67 304.24,-357.3 293.65,-357 295.78,-363.67"/>
</g>
<!-- Node11 -->
<g id="node11" class="node">
<title>Node11</title>
<g id="a_node11"><a xlink:href="../../de/d0c/forces_8f90.html#a7b4708aaec3cc94526474c16bc3a16f0" target="_top" xlink:title="Compute the real&#45;space MHD forces.">
<polygon fill="white" stroke="black" points="307,-304.5 307,-323.5 351,-323.5 351,-304.5 307,-304.5"/>
<text text-anchor="middle" x="329" y="-311.5" font-family="Helvetica,sans-Serif" font-size="10.00">forces</text>
</a>
</g>
</g>
<!-- Node3&#45;&gt;Node11 -->
<g id="edge10" class="edge">
<title>Node3&#45;&gt;Node11</title>
<path fill="none" stroke="midnightblue" d="M215.57,-424.41C222.43,-404.47 240.9,-358.3 272,-333 279.23,-327.12 288.38,-323.02 297.18,-320.18"/>
<polygon fill="midnightblue" stroke="midnightblue" points="298.15,-323.54 306.84,-317.47 296.26,-316.8 298.15,-323.54"/>
</g>
<!-- Node12 -->
<g id="node12" class="node">
<title>Node12</title>
<g id="a_node12"><a xlink:href="../../d8/dc3/jacobian_8f90.html#af346f65d2aa225d9ede6e0f23add6142" target="_top" xlink:title="Evaulate the Jacobian of the transform from flux&#45; to cylindrical coordinates.">
<polygon fill="white" stroke="black" points="302.5,-266.5 302.5,-285.5 355.5,-285.5 355.5,-266.5 302.5,-266.5"/>
<text text-anchor="middle" x="329" y="-273.5" font-family="Helvetica,sans-Serif" font-size="10.00">jacobian</text>
</a>
</g>
</g>
<!-- Node3&#45;&gt;Node12 -->
<g id="edge11" class="edge">
<title>Node3&#45;&gt;Node12</title>
<path fill="none" stroke="midnightblue" d="M213.88,-424.37C217.97,-399.35 232.31,-331.73 272,-295 277.76,-289.67 285.08,-285.82 292.51,-283.06"/>
<polygon fill="midnightblue" stroke="midnightblue" points="293.73,-286.34 302.22,-280.01 291.63,-279.67 293.73,-286.34"/>
</g>
<!-- Node13 -->
<g id="node13" class="node">
<title>Node13</title>
<g id="a_node13"><a xlink:href="../../db/da1/nestor__io_8f90.html#a67b1cb19f12a5860a25a89dbd3dfd9c9" target="_top" xlink:title=" ">
<polygon fill="white" stroke="black" points="276.5,-228.5 276.5,-247.5 381.5,-247.5 381.5,-228.5 276.5,-228.5"/>
<text text-anchor="middle" x="329" y="-235.5" font-family="Helvetica,sans-Serif" font-size="10.00">read_nestor_outputs</text>
</a>
</g>
</g>
<!-- Node3&#45;&gt;Node13 -->
<g id="edge12" class="edge">
<title>Node3&#45;&gt;Node13</title>
<path fill="none" stroke="midnightblue" d="M212.87,-424.42C214.51,-395.11 223.47,-305.67 272,-257 273.44,-255.56 275,-254.22 276.64,-252.99"/>
<polygon fill="midnightblue" stroke="midnightblue" points="278.73,-255.81 285.45,-247.63 275.09,-249.83 278.73,-255.81"/>
</g>
<!-- Node14 -->
<g id="node14" class="node">
<title>Node14</title>
<g id="a_node14"><a xlink:href="../../db/d5a/residue_8f90.html#a2390b3cf93196383bbe960acb85b3e32" target="_top" xlink:title="Compute invariant residuals.">
<polygon fill="white" stroke="black" points="305,-544.5 305,-563.5 353,-563.5 353,-544.5 305,-544.5"/>
<text text-anchor="middle" x="329" y="-551.5" font-family="Helvetica,sans-Serif" font-size="10.00">residue</text>
</a>
</g>
</g>
<!-- Node3&#45;&gt;Node14 -->
<g id="edge13" class="edge">
<title>Node3&#45;&gt;Node14</title>
<path fill="none" stroke="midnightblue" d="M215.57,-443.59C222.43,-463.53 240.9,-509.7 272,-535 278.68,-540.43 287,-544.35 295.16,-547.15"/>
<polygon fill="midnightblue" stroke="midnightblue" points="294.34,-550.56 304.92,-550.05 296.33,-543.85 294.34,-550.56"/>
</g>
<!-- Node20 -->
<g id="node20" class="node">
<title>Node20</title>
<g id="a_node20"><a xlink:href="../../d3/d96/residue__con_8f90.html#a412d6d3c67bc4020bcfc3bcf83718b98" target="_top" xlink:title="Compute invariant residuals.">
<polygon fill="white" stroke="black" points="294.5,-620.5 294.5,-639.5 363.5,-639.5 363.5,-620.5 294.5,-620.5"/>
<text text-anchor="middle" x="329" y="-627.5" font-family="Helvetica,sans-Serif" font-size="10.00">residue_con</text>
</a>
</g>
</g>
<!-- Node3&#45;&gt;Node20 -->
<g id="edge19" class="edge">
<title>Node3&#45;&gt;Node20</title>
<path fill="none" stroke="midnightblue" d="M212.87,-443.58C214.51,-472.89 223.47,-562.33 272,-611 275.71,-614.72 280.18,-617.71 284.95,-620.12"/>
<polygon fill="midnightblue" stroke="midnightblue" points="283.8,-623.44 294.38,-624.06 286.5,-616.98 283.8,-623.44"/>
</g>
<!-- Node21 -->
<g id="node21" class="node">
<title>Node21</title>
<g id="a_node21"><a xlink:href="../../d5/d62/residue__mhd_8f90.html#a3ed729a2f8c8d70e4d2fef05c9dfc4c8" target="_top" xlink:title="Compute invariant residuals.">
<polygon fill="white" stroke="black" points="293,-582.5 293,-601.5 365,-601.5 365,-582.5 293,-582.5"/>
<text text-anchor="middle" x="329" y="-589.5" font-family="Helvetica,sans-Serif" font-size="10.00">residue_mhd</text>
</a>
</g>
</g>
<!-- Node3&#45;&gt;Node21 -->
<g id="edge24" class="edge">
<title>Node3&#45;&gt;Node21</title>
<path fill="none" stroke="midnightblue" d="M213.88,-443.63C217.97,-468.65 232.31,-536.27 272,-573 275.4,-576.14 279.34,-578.77 283.52,-580.96"/>
<polygon fill="midnightblue" stroke="midnightblue" points="282.39,-584.29 292.95,-585.11 285.2,-577.88 282.39,-584.29"/>
</g>
<!-- Node3&#45;&gt;Node22 -->
<g id="edge29" class="edge">
<title>Node3&#45;&gt;Node22</title>
<path fill="none" stroke="midnightblue" d="M213.56,-443.85C220.34,-506.73 257.96,-849.99 272,-867 276.16,-872.04 281.71,-875.75 287.71,-878.48"/>
<polygon fill="midnightblue" stroke="midnightblue" points="286.77,-881.86 297.36,-882 289.17,-875.28 286.77,-881.86"/>
</g>
<!-- Node23 -->
<g id="node23" class="node">
<title>Node23</title>
<g id="a_node23"><a xlink:href="../../d4/df3/symforce_8f90.html#a169610bcc5544fc8e16ad1e10ac85dcb" target="_top" xlink:title="Symmetrize forces on restricted &#160;interval &#160;so cos, sin integrals can be performed.">
<polygon fill="white" stroke="black" points="301,-190.5 301,-209.5 357,-209.5 357,-190.5 301,-190.5"/>
<text text-anchor="middle" x="329" y="-197.5" font-family="Helvetica,sans-Serif" font-size="10.00">symforce</text>
</a>
</g>
</g>
<!-- Node3&#45;&gt;Node23 -->
<g id="edge30" class="edge">
<title>Node3&#45;&gt;Node23</title>
<path fill="none" stroke="midnightblue" d="M212.2,-424.35C211.69,-391.07 214.56,-279.82 272,-219 277.19,-213.51 284.02,-209.61 291.12,-206.83"/>
<polygon fill="midnightblue" stroke="midnightblue" points="292.39,-210.1 300.84,-203.7 290.25,-203.43 292.39,-210.1"/>
</g>
<!-- Node24 -->
<g id="node24" class="node">
<title>Node24</title>
<g id="a_node24"><a xlink:href="../../da/d11/symrzl_8f90.html#ac5df1aefe2e993d4416c52c8a727b817" target="_top" xlink:title="Symmetrize , &#160;and .">
<polygon fill="white" stroke="black" points="307,-152.5 307,-171.5 351,-171.5 351,-152.5 307,-152.5"/>
<text text-anchor="middle" x="329" y="-159.5" font-family="Helvetica,sans-Serif" font-size="10.00">symrzl</text>
</a>
</g>
</g>
<!-- Node3&#45;&gt;Node24 -->
<g id="edge31" class="edge">
<title>Node3&#45;&gt;Node24</title>
<path fill="none" stroke="midnightblue" d="M213.53,-424.33C218.13,-382.58 238.17,-218.24 272,-181 278.54,-173.8 287.91,-169.33 297.12,-166.55"/>
<polygon fill="midnightblue" stroke="midnightblue" points="298.02,-169.93 306.9,-164.15 296.36,-163.13 298.02,-169.93"/>
</g>
<!-- Node25 -->
<g id="node25" class="node">
<title>Node25</title>
<g id="a_node25"><a xlink:href="../../d0/d6f/tomnsp_8f90.html#a6c7345c0aa0f13f311650d9633e6ecf8" target="_top" xlink:title="Fourier&#45;transform anti&#45;symmetric forces from real space to Fourier space.">
<polygon fill="white" stroke="black" points="302,-114.5 302,-133.5 356,-133.5 356,-114.5 302,-114.5"/>
<text text-anchor="middle" x="329" y="-121.5" font-family="Helvetica,sans-Serif" font-size="10.00">tomnspa</text>
</a>
</g>
</g>
<!-- Node3&#45;&gt;Node25 -->
<g id="edge32" class="edge">
<title>Node3&#45;&gt;Node25</title>
<path fill="none" stroke="midnightblue" d="M213.19,-424.45C216.67,-379.18 233.55,-186.61 272,-143 277.35,-136.94 284.7,-132.8 292.33,-129.99"/>
<polygon fill="midnightblue" stroke="midnightblue" points="293.43,-133.32 302,-127.09 291.41,-126.61 293.43,-133.32"/>
</g>
<!-- Node26 -->
<g id="node26" class="node">
<title>Node26</title>
<g id="a_node26"><a xlink:href="../../d8/db9/tomnsp__con_8f90.html#a2e8c98805decf1c832d812e19d9577dd" target="_top" xlink:title="Fourier&#45;transform anti&#45;symmetric forces from real space to Fourier space.">
<polygon fill="white" stroke="black" points="291.5,-76.5 291.5,-95.5 366.5,-95.5 366.5,-76.5 291.5,-76.5"/>
<text text-anchor="middle" x="329" y="-83.5" font-family="Helvetica,sans-Serif" font-size="10.00">tomnspa_con</text>
</a>
</g>
</g>
<!-- Node3&#45;&gt;Node26 -->
<g id="edge33" class="edge">
<title>Node3&#45;&gt;Node26</title>
<path fill="none" stroke="midnightblue" d="M213.66,-424.3C219.95,-372.51 250.35,-130.12 272,-105 274.87,-101.68 278.34,-98.93 282.13,-96.67"/>
<polygon fill="midnightblue" stroke="midnightblue" points="283.93,-99.68 291.43,-92.2 280.9,-93.37 283.93,-99.68"/>
</g>
<!-- Node27 -->
<g id="node27" class="node">
<title>Node27</title>
<g id="a_node27"><a xlink:href="../../d0/d6f/tomnsp_8f90.html#aec4b11e4f55e18c6bfc0348c263e31db" target="_top" xlink:title="Fourier&#45;transform symmetric forces from real space to Fourier space.">
<polygon fill="white" stroke="black" points="302,-838.5 302,-857.5 356,-857.5 356,-838.5 302,-838.5"/>
<text text-anchor="middle" x="329" y="-845.5" font-family="Helvetica,sans-Serif" font-size="10.00">tomnsps</text>
</a>
</g>
</g>
<!-- Node3&#45;&gt;Node27 -->
<g id="edge34" class="edge">
<title>Node3&#45;&gt;Node27</title>
<path fill="none" stroke="midnightblue" d="M213.36,-443.69C218.53,-501.38 246.3,-798.28 272,-829 277.19,-835.2 284.48,-839.39 292.1,-842.21"/>
<polygon fill="midnightblue" stroke="midnightblue" points="291.2,-845.59 301.78,-845.1 293.2,-838.88 291.2,-845.59"/>
</g>
<!-- Node28 -->
<g id="node28" class="node">
<title>Node28</title>
<g id="a_node28"><a xlink:href="../../d8/db9/tomnsp__con_8f90.html#ac9e62cd03062ffcb2abc0d0ff59503e3" target="_top" xlink:title="Fourier&#45;transform symmetric forces from real space to Fourier space.">
<polygon fill="white" stroke="black" points="291.5,-715.5 291.5,-734.5 366.5,-734.5 366.5,-715.5 291.5,-715.5"/>
<text text-anchor="middle" x="329" y="-722.5" font-family="Helvetica,sans-Serif" font-size="10.00">tomnsps_con</text>
</a>
</g>
</g>
<!-- Node3&#45;&gt;Node28 -->
<g id="edge35" class="edge">
<title>Node3&#45;&gt;Node28</title>
<path fill="none" stroke="midnightblue" d="M213.34,-443.5C217.34,-486.86 235.83,-665.55 272,-706 274.89,-709.23 278.34,-711.91 282.1,-714.13"/>
<polygon fill="midnightblue" stroke="midnightblue" points="280.77,-717.38 291.3,-718.55 283.8,-711.07 280.77,-717.38"/>
</g>
<!-- Node29 -->
<g id="node29" class="node">
<title>Node29</title>
<g id="a_node29"><a xlink:href="../../dc/d49/totzsp_8f90.html#a8c3f89c23a3be79d0f993c5031f7eab5" target="_top" xlink:title="Inverse&#45;Fourier&#45;transform anti&#45;symmetric part of geometry from Fourier space to real space.">
<polygon fill="white" stroke="black" points="305,-506.5 305,-525.5 353,-525.5 353,-506.5 305,-506.5"/>
<text text-anchor="middle" x="329" y="-513.5" font-family="Helvetica,sans-Serif" font-size="10.00">totzspa</text>
</a>
</g>
</g>
<!-- Node3&#45;&gt;Node29 -->
<g id="edge36" class="edge">
<title>Node3&#45;&gt;Node29</title>
<path fill="none" stroke="midnightblue" d="M219.43,-443.95C229.5,-457.73 249.46,-482.54 272,-497 278.99,-501.48 287.15,-505.03 295.04,-507.78"/>
<polygon fill="midnightblue" stroke="midnightblue" points="294.2,-511.19 304.79,-510.86 296.31,-504.51 294.2,-511.19"/>
</g>
<!-- Node31 -->
<g id="node31" class="node">
<title>Node31</title>
<g id="a_node31"><a xlink:href="../../dc/d49/totzsp_8f90.html#ac4756c0f66a5a01d9c08334a98a61b21" target="_top" xlink:title="Inverse&#45;Fourier&#45;transform symmetric part of geometry from Fourier space to real space.">
<polygon fill="white" stroke="black" points="305,-0.5 305,-19.5 353,-19.5 353,-0.5 305,-0.5"/>
<text text-anchor="middle" x="329" y="-7.5" font-family="Helvetica,sans-Serif" font-size="10.00">totzsps</text>
</a>
</g>
</g>
<!-- Node3&#45;&gt;Node31 -->
<g id="edge38" class="edge">
<title>Node3&#45;&gt;Node31</title>
<path fill="none" stroke="midnightblue" d="M213.62,-424.41C220.66,-364.59 258.81,-44.83 272,-29 277.87,-21.95 286.47,-17.51 295.17,-14.71"/>
<polygon fill="midnightblue" stroke="midnightblue" points="296.1,-18.09 304.91,-12.2 294.35,-11.31 296.1,-18.09"/>
</g>
<!-- Node33 -->
<g id="node33" class="node">
<title>Node33</title>
<g id="a_node33"><a xlink:href="../../dd/d6d/vacuum_8f90.html#a0acbc18d2ab7664835d797b42ce49a35" target="_top" xlink:title="Compute the vacuum contribution to the free&#45;boundary energy functional.">
<polygon fill="white" stroke="black" points="303.5,-800.5 303.5,-819.5 354.5,-819.5 354.5,-800.5 303.5,-800.5"/>
<text text-anchor="middle" x="329" y="-807.5" font-family="Helvetica,sans-Serif" font-size="10.00">vacuum</text>
</a>
</g>
</g>
<!-- Node3&#45;&gt;Node33 -->
<g id="edge40" class="edge">
<title>Node3&#45;&gt;Node33</title>
<path fill="none" stroke="midnightblue" d="M212.6,-443.67C213.35,-483.1 219.69,-634.77 272,-744 281.14,-763.08 297.16,-781.13 309.73,-793.52"/>
<polygon fill="midnightblue" stroke="midnightblue" points="307.37,-796.1 317.02,-800.46 312.19,-791.03 307.37,-796.1"/>
</g>
<!-- Node47 -->
<g id="node47" class="node">
<title>Node47</title>
<g id="a_node47"><a xlink:href="../../db/da1/nestor__io_8f90.html#a771059753d70a579e9443aa7ca5a991e" target="_top" xlink:title=" ">
<polygon fill="white" stroke="black" points="278.5,-468.5 278.5,-487.5 379.5,-487.5 379.5,-468.5 278.5,-468.5"/>
<text text-anchor="middle" x="329" y="-475.5" font-family="Helvetica,sans-Serif" font-size="10.00">write_nestor_inputs</text>
</a>
</g>
</g>
<!-- Node3&#45;&gt;Node47 -->
<g id="edge54" class="edge">
<title>Node3&#45;&gt;Node47</title>
<path fill="none" stroke="midnightblue" d="M235.58,-443.56C246.57,-448.05 259.92,-453.41 272,-458 278.08,-460.31 284.56,-462.7 290.87,-464.98"/>
<polygon fill="midnightblue" stroke="midnightblue" points="289.98,-468.38 300.58,-468.45 292.34,-461.79 289.98,-468.38"/>
</g>
<!-- Node48 -->
<g id="node48" class="node">
<title>Node48</title>
<g id="a_node48"><a xlink:href="../../db/dc0/namespacenestor__io.html#a288cc8f23cbfe1484ec6815381cc25c8" target="_top" xlink:title=" ">
<polygon fill="white" stroke="black" points="272,-419 272,-449 386,-449 386,-419 272,-419"/>
<text text-anchor="start" x="280" y="-437" font-family="Helvetica,sans-Serif" font-size="10.00">nestor_io::write_nestor</text>
<text text-anchor="middle" x="329" y="-426" font-family="Helvetica,sans-Serif" font-size="10.00">_outputs</text>
</a>
</g>
</g>
<!-- Node3&#45;&gt;Node48 -->
<g id="edge55" class="edge">
<title>Node3&#45;&gt;Node48</title>
<path fill="none" stroke="midnightblue" d="M236.15,-434C243.81,-434 252.71,-434 261.91,-434"/>
<polygon fill="midnightblue" stroke="midnightblue" points="261.95,-437.5 271.95,-434 261.95,-430.5 261.95,-437.5"/>
</g>
<!-- Node6 -->
<g id="node6" class="node">
<title>Node6</title>
<g id="a_node6"><a xlink:href="../../d8/d7d/add__fluxes_8f90.html#a988e7013ef02301b9cfbde5b8068d5af" target="_top" xlink:title="Add the magnetic fluxes to the tangential derivatives of &#160;to arrive at the contravariant magnetic fie...">
<polygon fill="white" stroke="black" points="429.5,-686.5 429.5,-705.5 491.5,-705.5 491.5,-686.5 429.5,-686.5"/>
<text text-anchor="middle" x="460.5" y="-693.5" font-family="Helvetica,sans-Serif" font-size="10.00">add_fluxes</text>
</a>
</g>
</g>
<!-- Node5&#45;&gt;Node6 -->
<g id="edge5" class="edge">
<title>Node5&#45;&gt;Node6</title>
<path fill="none" stroke="midnightblue" d="M352.26,-688.55C370.62,-689.82 397.13,-691.67 419.19,-693.2"/>
<polygon fill="midnightblue" stroke="midnightblue" points="419.08,-696.7 429.3,-693.9 419.56,-689.72 419.08,-696.7"/>
</g>
<!-- Node7 -->
<g id="node7" class="node">
<title>Node7</title>
<g id="a_node7"><a xlink:href="../../d9/dff/calc__fbal_8f90.html#a6cdc3d21c48f66aeaff8ab5e639641b6" target="_top" xlink:title="Compute flux&#45;surface averaged radial force balance .">
<polygon fill="white" stroke="black" points="432.5,-648.5 432.5,-667.5 488.5,-667.5 488.5,-648.5 432.5,-648.5"/>
<text text-anchor="middle" x="460.5" y="-655.5" font-family="Helvetica,sans-Serif" font-size="10.00">calc_fbal</text>
</a>
</g>
</g>
<!-- Node5&#45;&gt;Node7 -->
<g id="edge6" class="edge">
<title>Node5&#45;&gt;Node7</title>
<path fill="none" stroke="midnightblue" d="M352.26,-682.01C371.45,-677.72 399.56,-671.42 422.18,-666.36"/>
<polygon fill="midnightblue" stroke="midnightblue" points="423.14,-669.73 432.14,-664.13 421.61,-662.9 423.14,-669.73"/>
</g>
<!-- Node8 -->
<g id="node8" class="node">
<title>Node8</title>
<g id="a_node8"><a xlink:href="../../d4/d51/lamcal_8f90.html#aae66bdcec0bbb969704413d933148096" target="_top" xlink:title="Normalization parameters for .">
<polygon fill="white" stroke="black" points="438,-762.5 438,-781.5 483,-781.5 483,-762.5 438,-762.5"/>
<text text-anchor="middle" x="460.5" y="-769.5" font-family="Helvetica,sans-Serif" font-size="10.00">lamcal</text>
</a>
</g>
</g>
<!-- Node5&#45;&gt;Node8 -->
<g id="edge7" class="edge">
<title>Node5&#45;&gt;Node8</title>
<path fill="none" stroke="midnightblue" d="M352.14,-691.31C363.06,-694.2 375.99,-698.82 386,-706 407.38,-721.33 401.76,-736.19 422,-753 424.21,-754.84 426.63,-756.56 429.14,-758.15"/>
<polygon fill="midnightblue" stroke="midnightblue" points="427.43,-761.21 437.85,-763.1 430.88,-755.12 427.43,-761.21"/>
</g>
<!-- Node9 -->
<g id="node9" class="node">
<title>Node9</title>
<g id="a_node9"><a xlink:href="../../d4/da9/precondn_8f90.html#a4c530a7978360300894520e9c5f7663c" target="_top" xlink:title="Compute preconditioning matrix elements for , &#160;force.">
<polygon fill="white" stroke="black" points="432.5,-724.5 432.5,-743.5 488.5,-743.5 488.5,-724.5 432.5,-724.5"/>
<text text-anchor="middle" x="460.5" y="-731.5" font-family="Helvetica,sans-Serif" font-size="10.00">precondn</text>
</a>
</g>
</g>
<!-- Node5&#45;&gt;Node9 -->
<g id="edge8" class="edge">
<title>Node5&#45;&gt;Node9</title>
<path fill="none" stroke="midnightblue" d="M352.14,-694.3C362.46,-697.76 374.89,-702 386,-706 398.98,-710.67 413.15,-716.01 425.57,-720.77"/>
<polygon fill="midnightblue" stroke="midnightblue" points="424.49,-724.11 435.08,-724.44 427.01,-717.58 424.49,-724.11"/>
</g>
<!-- Node15 -->
<g id="node15" class="node">
<title>Node15</title>
<g id="a_node15"><a xlink:href="../../db/d5a/residue_8f90.html#a29cc4a06a22a55dc9b1bf7252ebcc9ed" target="_top" xlink:title="Compute internal gr , gz required for &#160;constraint.">
<polygon fill="white" stroke="black" points="423,-610.5 423,-629.5 498,-629.5 498,-610.5 423,-610.5"/>
<text text-anchor="middle" x="460.5" y="-617.5" font-family="Helvetica,sans-Serif" font-size="10.00">constrain_m1</text>
</a>
</g>
</g>
<!-- Node14&#45;&gt;Node15 -->
<g id="edge14" class="edge">
<title>Node14&#45;&gt;Node15</title>
<path fill="none" stroke="midnightblue" d="M353.06,-559.93C363.46,-563.08 375.7,-567.45 386,-573 403.85,-582.61 404.88,-590.15 422,-601 424.48,-602.58 427.12,-604.13 429.79,-605.62"/>
<polygon fill="midnightblue" stroke="midnightblue" points="428.39,-608.84 438.87,-610.44 431.67,-602.66 428.39,-608.84"/>
</g>
<!-- Node16 -->
<g id="node16" class="node">
<title>Node16</title>
<g id="a_node16"><a xlink:href="../../d3/d3a/getfsq_8f90.html#a7b636db95ff23aaea849bd65fba7aa2e" target="_top" xlink:title="Compute total force residual on flux surfaces.">
<polygon fill="white" stroke="black" points="438.5,-572.5 438.5,-591.5 482.5,-591.5 482.5,-572.5 438.5,-572.5"/>
<text text-anchor="middle" x="460.5" y="-579.5" font-family="Helvetica,sans-Serif" font-size="10.00">getfsq</text>
</a>
</g>
</g>
<!-- Node14&#45;&gt;Node16 -->
<g id="edge15" class="edge">
<title>Node14&#45;&gt;Node16</title>
<path fill="none" stroke="midnightblue" d="M353.15,-559.01C374.1,-563.53 405.11,-570.24 428.25,-575.24"/>
<polygon fill="midnightblue" stroke="midnightblue" points="427.75,-578.72 438.27,-577.41 429.23,-571.87 427.75,-578.72"/>
</g>
<!-- Node17 -->
<g id="node17" class="node">
<title>Node17</title>
<g id="a_node17"><a xlink:href="../../db/d5a/residue_8f90.html#aaf8d684a58b8bf9dfdecfdb925960780" target="_top" xlink:title="Compute internal gr , gz required for &#160;constraint.">
<polygon fill="white" stroke="black" points="431,-534.5 431,-553.5 490,-553.5 490,-534.5 431,-534.5"/>
<text text-anchor="middle" x="460.5" y="-541.5" font-family="Helvetica,sans-Serif" font-size="10.00">scale_m1</text>
</a>
</g>
</g>
<!-- Node14&#45;&gt;Node17 -->
<g id="edge16" class="edge">
<title>Node14&#45;&gt;Node17</title>
<path fill="none" stroke="midnightblue" d="M353.15,-552.21C371.87,-550.77 398.62,-548.7 420.62,-547"/>
<polygon fill="midnightblue" stroke="midnightblue" points="420.96,-550.49 430.66,-546.23 420.42,-543.51 420.96,-550.49"/>
</g>
<!-- Node18 -->
<g id="node18" class="node">
<title>Node18</title>
<g id="a_node18"><a xlink:href="../../d8/d86/scalfor_8f90.html#a20fb7039b82d05e64d01a2e50431ba5e" target="_top" xlink:title="Build forces from different contributions.">
<polygon fill="white" stroke="black" points="437.5,-496.5 437.5,-515.5 483.5,-515.5 483.5,-496.5 437.5,-496.5"/>
<text text-anchor="middle" x="460.5" y="-503.5" font-family="Helvetica,sans-Serif" font-size="10.00">scalfor</text>
</a>
</g>
</g>
<!-- Node14&#45;&gt;Node18 -->
<g id="edge17" class="edge">
<title>Node14&#45;&gt;Node18</title>
<path fill="none" stroke="midnightblue" d="M353.25,-546.39C363.35,-543.02 375.3,-538.92 386,-535 399.86,-529.92 415.05,-523.99 428,-518.82"/>
<polygon fill="midnightblue" stroke="midnightblue" points="429.44,-522.01 437.41,-515.04 426.83,-515.52 429.44,-522.01"/>
</g>
<!-- Node19 -->
<g id="node19" class="node">
<title>Node19</title>
<g id="a_node19"><a xlink:href="../../db/d40/tridslv_8f90.html#abf5399c0154abe7424c54d7fa9eb69db" target="_top" xlink:title="Solve a tridiagonal system of equations.">
<polygon fill="white" stroke="black" points="535.5,-496.5 535.5,-515.5 578.5,-515.5 578.5,-496.5 535.5,-496.5"/>
<text text-anchor="middle" x="557" y="-503.5" font-family="Helvetica,sans-Serif" font-size="10.00">tridslv</text>
</a>
</g>
</g>
<!-- Node18&#45;&gt;Node19 -->
<g id="edge18" class="edge">
<title>Node18&#45;&gt;Node19</title>
<path fill="none" stroke="midnightblue" d="M483.9,-506C496.21,-506 511.68,-506 525.13,-506"/>
<polygon fill="midnightblue" stroke="midnightblue" points="525.38,-509.5 535.38,-506 525.38,-502.5 525.38,-509.5"/>
</g>
<!-- Node20&#45;&gt;Node15 -->
<g id="edge20" class="edge">
<title>Node20&#45;&gt;Node15</title>
<path fill="none" stroke="midnightblue" d="M363.69,-627.4C378.56,-626.25 396.31,-624.88 412.46,-623.63"/>
<polygon fill="midnightblue" stroke="midnightblue" points="413.1,-627.09 422.8,-622.83 412.56,-620.11 413.1,-627.09"/>
</g>
<!-- Node20&#45;&gt;Node16 -->
<g id="edge21" class="edge">
<title>Node20&#45;&gt;Node16</title>
<path fill="none" stroke="midnightblue" d="M359.16,-620.41C367.83,-617.47 377.32,-614.18 386,-611 400.16,-605.81 415.72,-599.72 428.86,-594.47"/>
<polygon fill="midnightblue" stroke="midnightblue" points="430.4,-597.63 438.38,-590.65 427.79,-591.13 430.4,-597.63"/>
</g>
<!-- Node20&#45;&gt;Node17 -->
<g id="edge22" class="edge">
<title>Node20&#45;&gt;Node17</title>
<path fill="none" stroke="midnightblue" d="M363.58,-622.24C371.39,-619.48 379.35,-615.82 386,-611 407.59,-595.35 401.57,-580.14 422,-563 423.73,-561.55 425.58,-560.18 427.51,-558.88"/>
<polygon fill="midnightblue" stroke="midnightblue" points="429.44,-561.8 436.25,-553.68 425.87,-555.78 429.44,-561.8"/>
</g>
<!-- Node20&#45;&gt;Node18 -->
<g id="edge23" class="edge">
<title>Node20&#45;&gt;Node18</title>
<path fill="none" stroke="midnightblue" d="M363.62,-623.66C371.69,-620.85 379.77,-616.81 386,-611 416.3,-582.73 393.78,-555.34 422,-525 423.83,-523.04 425.9,-521.24 428.12,-519.62"/>
<polygon fill="midnightblue" stroke="midnightblue" points="430.4,-522.32 437.12,-514.13 426.76,-516.34 430.4,-522.32"/>
</g>
<!-- Node21&#45;&gt;Node15 -->
<g id="edge25" class="edge">
<title>Node21&#45;&gt;Node15</title>
<path fill="none" stroke="midnightblue" d="M365.04,-599.58C379.67,-602.74 396.87,-606.46 412.57,-609.85"/>
<polygon fill="midnightblue" stroke="midnightblue" points="412.1,-613.33 422.62,-612.03 413.58,-606.49 412.1,-613.33"/>
</g>
<!-- Node21&#45;&gt;Node16 -->
<g id="edge26" class="edge">
<title>Node21&#45;&gt;Node16</title>
<path fill="none" stroke="midnightblue" d="M365.04,-589.29C384.76,-587.77 409.18,-585.89 428.24,-584.41"/>
<polygon fill="midnightblue" stroke="midnightblue" points="428.52,-587.9 438.22,-583.64 427.98,-580.92 428.52,-587.9"/>
</g>
<!-- Node21&#45;&gt;Node17 -->
<g id="edge27" class="edge">
<title>Node21&#45;&gt;Node17</title>
<path fill="none" stroke="midnightblue" d="M359.16,-582.41C367.83,-579.47 377.32,-576.18 386,-573 399.31,-568.12 413.86,-562.45 426.47,-557.43"/>
<polygon fill="midnightblue" stroke="midnightblue" points="428.13,-560.53 436.11,-553.57 425.53,-554.04 428.13,-560.53"/>
</g>
<!-- Node21&#45;&gt;Node18 -->
<g id="edge28" class="edge">
<title>Node21&#45;&gt;Node18</title>
<path fill="none" stroke="midnightblue" d="M365.05,-583.71C372.38,-581.02 379.77,-577.52 386,-573 407.59,-557.35 401.57,-542.14 422,-525 424.01,-523.32 426.19,-521.73 428.45,-520.25"/>
<polygon fill="midnightblue" stroke="midnightblue" points="430.52,-523.1 437.43,-515.07 427.02,-517.04 430.52,-523.1"/>
</g>
<!-- Node30 -->
<g id="node30" class="node">
<title>Node30</title>
<g id="a_node30"><a xlink:href="../../dc/d49/totzsp_8f90.html#aff13f873fb632d486fdffc6ee97857c6" target="_top" xlink:title="Convert from internal representation to &quot;physical&quot; rmnsc, zmncc Fourier form.">
<polygon fill="white" stroke="black" points="422,-262.5 422,-281.5 499,-281.5 499,-262.5 422,-262.5"/>
<text text-anchor="middle" x="460.5" y="-269.5" font-family="Helvetica,sans-Serif" font-size="10.00">convert_asym</text>
</a>
</g>
</g>
<!-- Node29&#45;&gt;Node30 -->
<g id="edge37" class="edge">
<title>Node29&#45;&gt;Node30</title>
<path fill="none" stroke="midnightblue" d="M353.01,-513.09C364.28,-510.56 377.27,-505.83 386,-497 443.55,-438.79 456.04,-334.94 458.75,-291.72"/>
<polygon fill="midnightblue" stroke="midnightblue" points="462.25,-291.83 459.27,-281.66 455.26,-291.47 462.25,-291.83"/>
</g>
<!-- Node32 -->
<g id="node32" class="node">
<title>Node32</title>
<g id="a_node32"><a xlink:href="../../dc/d49/totzsp_8f90.html#a3264ce8fefaa7ede632c4147049aadc5" target="_top" xlink:title="Convert from internal representation to &quot;physical&quot; rmnss, zmncs Fourier form.">
<polygon fill="white" stroke="black" points="424.5,-19.5 424.5,-38.5 496.5,-38.5 496.5,-19.5 424.5,-19.5"/>
<text text-anchor="middle" x="460.5" y="-26.5" font-family="Helvetica,sans-Serif" font-size="10.00">convert_sym</text>
</a>
</g>
</g>
<!-- Node31&#45;&gt;Node32 -->
<g id="edge39" class="edge">
<title>Node31&#45;&gt;Node32</title>
<path fill="none" stroke="midnightblue" d="M353.15,-13.4C370.08,-15.88 393.59,-19.33 414.2,-22.35"/>
<polygon fill="midnightblue" stroke="midnightblue" points="413.95,-25.85 424.35,-23.84 414.96,-18.93 413.95,-25.85"/>
</g>
<!-- Node34 -->
<g id="node34" class="node">
<title>Node34</title>
<g id="a_node34"><a xlink:href="../../db/d3d/bextern_8f90.html#a90228cc5f358147ae7f59953d6f9cced" target="_top" xlink:title="Compute the total magnetic field due to external coils and the net toroidal plasma current.">
<polygon fill="white" stroke="black" points="436.5,-838.5 436.5,-857.5 484.5,-857.5 484.5,-838.5 436.5,-838.5"/>
<text text-anchor="middle" x="460.5" y="-845.5" font-family="Helvetica,sans-Serif" font-size="10.00">bextern</text>
</a>
</g>
</g>
<!-- Node33&#45;&gt;Node34 -->
<g id="edge41" class="edge">
<title>Node33&#45;&gt;Node34</title>
<path fill="none" stroke="midnightblue" d="M354.66,-817.24C375.03,-823.21 404.11,-831.75 426.48,-838.31"/>
<polygon fill="midnightblue" stroke="midnightblue" points="425.65,-841.72 436.24,-841.17 427.63,-835 425.65,-841.72"/>
</g>
<!-- Node37 -->
<g id="node37" class="node">
<title>Node37</title>
<g id="a_node37"><a xlink:href="../../dd/d98/precal_8f90.html#a0dae73e848a4757092d7e9786d073d3d" target="_top" xlink:title="Pre&#45;compute constant terms required for NESTOR.">
<polygon fill="white" stroke="black" points="439,-800.5 439,-819.5 482,-819.5 482,-800.5 439,-800.5"/>
<text text-anchor="middle" x="460.5" y="-807.5" font-family="Helvetica,sans-Serif" font-size="10.00">precal</text>
</a>
</g>
</g>
<!-- Node33&#45;&gt;Node37 -->
<g id="edge44" class="edge">
<title>Node33&#45;&gt;Node37</title>
<path fill="none" stroke="midnightblue" d="M354.66,-810C375.7,-810 406.03,-810 428.67,-810"/>
<polygon fill="midnightblue" stroke="midnightblue" points="428.77,-813.5 438.77,-810 428.77,-806.5 428.77,-813.5"/>
</g>
<!-- Node38 -->
<g id="node38" class="node">
<title>Node38</title>
<g id="a_node38"><a xlink:href="../../d0/d19/scalpot_8f90.html#afb9e58849c5a27e486bdf4106f8bb84e" target="_top" xlink:title="Compute all required terms for solving for the scalar magnetic potential.">
<polygon fill="white" stroke="black" points="436.5,-952.5 436.5,-971.5 484.5,-971.5 484.5,-952.5 436.5,-952.5"/>
<text text-anchor="middle" x="460.5" y="-959.5" font-family="Helvetica,sans-Serif" font-size="10.00">scalpot</text>
</a>
</g>
</g>
<!-- Node33&#45;&gt;Node38 -->
<g id="edge45" class="edge">
<title>Node33&#45;&gt;Node38</title>
<path fill="none" stroke="midnightblue" d="M354.73,-813.26C365.6,-815.87 377.74,-820.56 386,-829 423.17,-866.97 387.61,-902.49 422,-943 423.69,-945 425.65,-946.81 427.76,-948.44"/>
<polygon fill="midnightblue" stroke="midnightblue" points="426.12,-951.55 436.45,-953.92 429.86,-945.63 426.12,-951.55"/>
</g>
<!-- Node45 -->
<g id="node45" class="node">
<title>Node45</title>
<g id="a_node45"><a xlink:href="../../d7/d39/solver_8f90.html#a1e815013ed24a9dddc80410103f4a220" target="_top" xlink:title="Solve a linear system of equations using dgesv.">
<polygon fill="white" stroke="black" points="439,-914.5 439,-933.5 482,-933.5 482,-914.5 439,-914.5"/>
<text text-anchor="middle" x="460.5" y="-921.5" font-family="Helvetica,sans-Serif" font-size="10.00">solver</text>
</a>
</g>
</g>
<!-- Node33&#45;&gt;Node45 -->
<g id="edge52" class="edge">
<title>Node33&#45;&gt;Node45</title>
<path fill="none" stroke="midnightblue" d="M354.51,-813.87C365.2,-816.6 377.26,-821.21 386,-829 413.91,-853.86 395.93,-878.22 422,-905 424.34,-907.41 427.05,-909.56 429.93,-911.48"/>
<polygon fill="midnightblue" stroke="midnightblue" points="428.39,-914.63 438.82,-916.52 431.85,-908.54 428.39,-914.63"/>
</g>
<!-- Node46 -->
<g id="node46" class="node">
<title>Node46</title>
<g id="a_node46"><a xlink:href="../../d6/d03/surface_8f90.html#ad7b6446e720a806f41f10dd1eb0b6f88" target="_top" xlink:title="Evaluate the geometry of the LCFS and tangential derivatives.">
<polygon fill="white" stroke="black" points="436,-876.5 436,-895.5 485,-895.5 485,-876.5 436,-876.5"/>
<text text-anchor="middle" x="460.5" y="-883.5" font-family="Helvetica,sans-Serif" font-size="10.00">surface</text>
</a>
</g>
</g>
<!-- Node33&#45;&gt;Node46 -->
<g id="edge53" class="edge">
<title>Node33&#45;&gt;Node46</title>
<path fill="none" stroke="midnightblue" d="M354.59,-815.55C364.81,-818.54 376.49,-822.91 386,-829 405.59,-841.55 403.35,-853.09 422,-867 424.05,-868.53 426.24,-869.99 428.49,-871.38"/>
<polygon fill="midnightblue" stroke="midnightblue" points="426.9,-874.51 437.33,-876.36 430.33,-868.4 426.9,-874.51"/>
</g>
<!-- Node35 -->
<g id="node35" class="node">
<title>Node35</title>
<g id="a_node35"><a xlink:href="../../d6/dc7/becoil_8f90.html#a449b054fb88bdb4cdf73ef8939654bfb" target="_top" xlink:title="Compute the cylindrical components of the magnetic field due to external coils. by bi&#45;linear interpol...">
<polygon fill="white" stroke="black" points="536,-800.5 536,-819.5 578,-819.5 578,-800.5 536,-800.5"/>
<text text-anchor="middle" x="557" y="-807.5" font-family="Helvetica,sans-Serif" font-size="10.00">becoil</text>
</a>
</g>
</g>
<!-- Node34&#45;&gt;Node35 -->
<g id="edge42" class="edge">
<title>Node34&#45;&gt;Node35</title>
<path fill="none" stroke="midnightblue" d="M484.86,-838.61C497.44,-833.55 513.08,-827.26 526.49,-821.86"/>
<polygon fill="midnightblue" stroke="midnightblue" points="527.82,-825.1 535.79,-818.13 525.21,-818.61 527.82,-825.1"/>
</g>
<!-- Node36 -->
<g id="node36" class="node">
<title>Node36</title>
<g id="a_node36"><a xlink:href="../../d9/dda/belicu_8f90.html#a53e6f162ca96069b8d93e131069ddf5d" target="_top" xlink:title="Magnetic field due to net toroidal current modeled by a filament along the magnetic axis.">
<polygon fill="white" stroke="black" points="536,-838.5 536,-857.5 578,-857.5 578,-838.5 536,-838.5"/>
<text text-anchor="middle" x="557" y="-845.5" font-family="Helvetica,sans-Serif" font-size="10.00">belicu</text>
</a>
</g>
</g>
<!-- Node34&#45;&gt;Node36 -->
<g id="edge43" class="edge">
<title>Node34&#45;&gt;Node36</title>
<path fill="none" stroke="midnightblue" d="M484.86,-848C497.19,-848 512.48,-848 525.71,-848"/>
<polygon fill="midnightblue" stroke="midnightblue" points="525.79,-851.5 535.79,-848 525.79,-844.5 525.79,-851.5"/>
</g>
<!-- Node39 -->
<g id="node39" class="node">
<title>Node39</title>
<g id="a_node39"><a xlink:href="../../da/d73/analyt_8f90.html#a60edcf4884aa60f6d96c258a97255756" target="_top" xlink:title="Compute the analytical&#45;and&#45;numerical 4D Fourier integrals over the equivalently&#45;singular functions.">
<polygon fill="white" stroke="black" points="536,-895.5 536,-914.5 578,-914.5 578,-895.5 536,-895.5"/>
<text text-anchor="middle" x="557" y="-902.5" font-family="Helvetica,sans-Serif" font-size="10.00">analyt</text>
</a>
</g>
</g>
<!-- Node38&#45;&gt;Node39 -->
<g id="edge46" class="edge">
<title>Node38&#45;&gt;Node39</title>
<path fill="none" stroke="midnightblue" d="M481.59,-952.38C487.29,-949.5 493.45,-946.24 499,-943 510.92,-936.04 523.74,-927.59 534.2,-920.42"/>
<polygon fill="midnightblue" stroke="midnightblue" points="536.48,-923.1 542.7,-914.52 532.49,-917.35 536.48,-923.1"/>
</g>
<!-- Node42 -->
<g id="node42" class="node">
<title>Node42</title>
<g id="a_node42"><a xlink:href="../../d6/d77/fouri_8f90.html#a0f902f8d584a395f9db7175079d273c7" target="_top" xlink:title="Compute Fourier integrals and build amatrix.">
<polygon fill="white" stroke="black" points="539.5,-1009.5 539.5,-1028.5 574.5,-1028.5 574.5,-1009.5 539.5,-1009.5"/>
<text text-anchor="middle" x="557" y="-1016.5" font-family="Helvetica,sans-Serif" font-size="10.00">fouri</text>
</a>
</g>
</g>
<!-- Node38&#45;&gt;Node42 -->
<g id="edge49" class="edge">
<title>Node38&#45;&gt;Node42</title>
<path fill="none" stroke="midnightblue" d="M477.53,-971.67C492.28,-980.57 514.38,-993.9 531.37,-1004.14"/>
<polygon fill="midnightblue" stroke="midnightblue" points="529.84,-1007.31 540.21,-1009.47 533.45,-1001.31 529.84,-1007.31"/>
</g>
<!-- Node43 -->
<g id="node43" class="node">
<title>Node43</title>
<g id="a_node43"><a xlink:href="../../d0/d1c/fourp_8f90.html#add725dd420251115fd60182dc992503c" target="_top" xlink:title="Perform Fourier integrals of Green&#39;s function kernel.">
<polygon fill="white" stroke="black" points="538,-971.5 538,-990.5 576,-990.5 576,-971.5 538,-971.5"/>
<text text-anchor="middle" x="557" y="-978.5" font-family="Helvetica,sans-Serif" font-size="10.00">fourp</text>
</a>
</g>
</g>
<!-- Node38&#45;&gt;Node43 -->
<g id="edge50" class="edge">
<title>Node38&#45;&gt;Node43</title>
<path fill="none" stroke="midnightblue" d="M484.86,-966.7C497.93,-969.32 514.3,-972.62 528.04,-975.38"/>
<polygon fill="midnightblue" stroke="midnightblue" points="527.45,-978.83 537.94,-977.37 528.83,-971.97 527.45,-978.83"/>
</g>
<!-- Node44 -->
<g id="node44" class="node">
<title>Node44</title>
<g id="a_node44"><a xlink:href="../../df/d2d/greenf_8f90.html#acd9d25905cc799c9fcd4d08a3cbb1e65" target="_top" xlink:title="Compute the regularized evaluation of the Green&#39;s function and the source term.">
<polygon fill="white" stroke="black" points="535,-933.5 535,-952.5 579,-952.5 579,-933.5 535,-933.5"/>
<text text-anchor="middle" x="557" y="-940.5" font-family="Helvetica,sans-Serif" font-size="10.00">greenf</text>
</a>
</g>
</g>
<!-- Node38&#45;&gt;Node44 -->
<g id="edge51" class="edge">
<title>Node38&#45;&gt;Node44</title>
<path fill="none" stroke="midnightblue" d="M484.86,-957.3C496.94,-954.88 511.84,-951.88 524.88,-949.26"/>
<polygon fill="midnightblue" stroke="midnightblue" points="525.73,-952.66 534.84,-947.25 524.35,-945.79 525.73,-952.66"/>
</g>
<!-- Node40 -->
<g id="node40" class="node">
<title>Node40</title>
<g id="a_node40"><a xlink:href="../../df/df3/analysum_8f90.html#aa51b1a5786e7b5719fe2ca679efc66b0" target="_top" xlink:title="Compute the (m=0 or n=0) part of the DFT of the analytical Fourier transforms of the equivalently&#45;sin...">
<polygon fill="white" stroke="black" points="617.5,-914.5 617.5,-933.5 675.5,-933.5 675.5,-914.5 617.5,-914.5"/>
<text text-anchor="middle" x="646.5" y="-921.5" font-family="Helvetica,sans-Serif" font-size="10.00">analysum</text>
</a>
</g>
</g>
<!-- Node39&#45;&gt;Node40 -->
<g id="edge47" class="edge">
<title>Node39&#45;&gt;Node40</title>
<path fill="none" stroke="midnightblue" d="M578.29,-909.41C587,-911.3 597.47,-913.57 607.53,-915.75"/>
<polygon fill="midnightblue" stroke="midnightblue" points="606.85,-919.19 617.36,-917.89 608.33,-912.35 606.85,-919.19"/>
</g>
<!-- Node41 -->
<g id="node41" class="node">
<title>Node41</title>
<g id="a_node41"><a xlink:href="../../d1/d90/analysum2_8f90.html#a47a0d185131a197c6fc62ee5d68d62fb" target="_top" xlink:title="Compute the (m&gt;0 and n&gt;0) part of the DFT of the analytical Fourier transforms of the equivalently&#45;si...">
<polygon fill="white" stroke="black" points="615,-876.5 615,-895.5 678,-895.5 678,-876.5 615,-876.5"/>
<text text-anchor="middle" x="646.5" y="-883.5" font-family="Helvetica,sans-Serif" font-size="10.00">analysum2</text>
</a>
</g>
</g>
<!-- Node39&#45;&gt;Node41 -->
<g id="edge48" class="edge">
<title>Node39&#45;&gt;Node41</title>
<path fill="none" stroke="midnightblue" d="M578.29,-900.59C586.23,-898.87 595.62,-896.83 604.84,-894.83"/>
<polygon fill="midnightblue" stroke="midnightblue" points="605.65,-898.23 614.68,-892.69 604.17,-891.39 605.65,-898.23"/>
</g>
<!-- Node51 -->
<g id="node51" class="node">
<title>Node51</title>
<g id="a_node51"><a xlink:href="../../de/daf/spectrum_8f90.html#afecccf953acda8cefc93e3f955198fcc" target="_top" xlink:title="Compute the spectral width of the surface geometry Fourier coefficients.">
<polygon fill="white" stroke="black" points="300.5,-38.5 300.5,-57.5 357.5,-57.5 357.5,-38.5 300.5,-38.5"/>
<text text-anchor="middle" x="329" y="-45.5" font-family="Helvetica,sans-Serif" font-size="10.00">spectrum</text>
</a>
</g>
</g>
<!-- Node50&#45;&gt;Node51 -->
<g id="edge58" class="edge">
<title>Node50&#45;&gt;Node51</title>
<path fill="none" stroke="midnightblue" d="M213.39,-212.47C216.4,-185.64 228.57,-108.75 272,-67 277.17,-62.03 283.69,-58.36 290.44,-55.64"/>
<polygon fill="midnightblue" stroke="midnightblue" points="291.99,-58.81 300.36,-52.31 289.76,-52.18 291.99,-58.81"/>
</g>
<!-- Node51&#45;&gt;Node30 -->
<g id="edge59" class="edge">
<title>Node51&#45;&gt;Node30</title>
<path fill="none" stroke="midnightblue" d="M357.73,-52.22C367.72,-54.98 378.39,-59.52 386,-67 438.88,-118.98 453.87,-211.62 458,-252.12"/>
<polygon fill="midnightblue" stroke="midnightblue" points="454.53,-252.65 458.91,-262.29 461.5,-252.02 454.53,-252.65"/>
</g>
<!-- Node51&#45;&gt;Node32 -->
<g id="edge60" class="edge">
<title>Node51&#45;&gt;Node32</title>
<path fill="none" stroke="midnightblue" d="M357.78,-43.92C374.21,-41.51 395.41,-38.4 414.21,-35.65"/>
<polygon fill="midnightblue" stroke="midnightblue" points="414.97,-39.07 424.36,-34.16 413.95,-32.15 414.97,-39.07"/>
</g>
</g>
</svg>
