<?xml version="1.0" encoding="UTF-8" standalone="no"?>
<!DOCTYPE svg PUBLIC "-//W3C//DTD SVG 1.1//EN"
 "http://www.w3.org/Graphics/SVG/1.1/DTD/svg11.dtd">
<!-- Generated by graphviz version 2.47.1 (20210421.1823)
 -->
<!-- Title: fouri Pages: 1 -->
<svg width="543pt" height="85pt"
 viewBox="0.00 0.00 543.00 85.00" xmlns="http://www.w3.org/2000/svg" xmlns:xlink="http://www.w3.org/1999/xlink">
<g id="graph0" class="graph" transform="scale(1 1) rotate(0) translate(4 81)">
<title>fouri</title>
<polygon fill="white" stroke="transparent" points="-4,4 -4,-81 539,-81 539,4 -4,4"/>
<!-- Node1 -->
<g id="node1" class="node">
<title>Node1</title>
<g id="a_node1"><a xlink:title="Compute Fourier integrals and build amatrix.">
<polygon fill="#bfbfbf" stroke="black" points="500,-19.5 500,-38.5 535,-38.5 535,-19.5 500,-19.5"/>
<text text-anchor="middle" x="517.5" y="-26.5" font-family="Helvetica,sans-Serif" font-size="10.00">fouri</text>
</a>
</g>
</g>
<!-- Node2 -->
<g id="node2" class="node">
<title>Node2</title>
<g id="a_node2"><a xlink:href="../../d0/d19/scalpot_8f90.html#afb9e58849c5a27e486bdf4106f8bb84e" target="_top" xlink:title="Compute all required terms for solving for the scalar magnetic potential.">
<polygon fill="white" stroke="black" points="416,-19.5 416,-38.5 464,-38.5 464,-19.5 416,-19.5"/>
<text text-anchor="middle" x="440" y="-26.5" font-family="Helvetica,sans-Serif" font-size="10.00">scalpot</text>
</a>
</g>
</g>
<!-- Node1&#45;&gt;Node2 -->
<g id="edge1" class="edge">
<title>Node1&#45;&gt;Node2</title>
<path fill="none" stroke="midnightblue" d="M489.68,-29C481.29,-29 472.11,-29 464.01,-29"/>
<polygon fill="midnightblue" stroke="midnightblue" points="489.74,-32.5 499.74,-29 489.74,-25.5 489.74,-32.5"/>
</g>
<!-- Node3 -->
<g id="node3" class="node">
<title>Node3</title>
<g id="a_node3"><a xlink:href="../../dd/d6d/vacuum_8f90.html#a0acbc18d2ab7664835d797b42ce49a35" target="_top" xlink:title="Compute the vacuum contribution to the free&#45;boundary energy functional.">
<polygon fill="white" stroke="black" points="329,-19.5 329,-38.5 380,-38.5 380,-19.5 329,-19.5"/>
<text text-anchor="middle" x="354.5" y="-26.5" font-family="Helvetica,sans-Serif" font-size="10.00">vacuum</text>
</a>
</g>
</g>
<!-- Node2&#45;&gt;Node3 -->
<g id="edge2" class="edge">
<title>Node2&#45;&gt;Node3</title>
<path fill="none" stroke="midnightblue" d="M405.67,-29C397.13,-29 388.1,-29 380.09,-29"/>
<polygon fill="midnightblue" stroke="midnightblue" points="405.74,-32.5 415.74,-29 405.74,-25.5 405.74,-32.5"/>
</g>
<!-- Node4 -->
<g id="node4" class="node">
<title>Node4</title>
<g id="a_node4"><a xlink:href="../../d3/d4f/funct3d_8f90.html#a800bacc22176e16323899df87b55c547" target="_top" xlink:title="Evaluate the three&#45;dimensional MHD energy functional.">
<polygon fill="white" stroke="black" points="244,-38.5 244,-57.5 293,-57.5 293,-38.5 244,-38.5"/>
<text text-anchor="middle" x="268.5" y="-45.5" font-family="Helvetica,sans-Serif" font-size="10.00">funct3d</text>
</a>
</g>
</g>
<!-- Node3&#45;&gt;Node4 -->
<g id="edge3" class="edge">
<title>Node3&#45;&gt;Node4</title>
<path fill="none" stroke="midnightblue" d="M318.9,-36.83C310.26,-38.78 301.18,-40.83 293.21,-42.64"/>
<polygon fill="midnightblue" stroke="midnightblue" points="319.77,-40.22 328.75,-34.6 318.23,-33.39 319.77,-40.22"/>
</g>
<!-- Node9 -->
<g id="node9" class="node">
<title>Node9</title>
<g id="a_node9"><a xlink:href="../../d4/d69/nestor__main_8f90.html#a1b0fd336e80285a96925333daa2ee8f0" target="_top" xlink:title="Main program of stand&#45;alone version of NESTOR.">
<polygon fill="white" stroke="black" points="246.5,-0.5 246.5,-19.5 290.5,-19.5 290.5,-0.5 246.5,-0.5"/>
<text text-anchor="middle" x="268.5" y="-7.5" font-family="Helvetica,sans-Serif" font-size="10.00">nestor</text>
</a>
</g>
</g>
<!-- Node3&#45;&gt;Node9 -->
<g id="edge9" class="edge">
<title>Node3&#45;&gt;Node9</title>
<path fill="none" stroke="midnightblue" d="M318.72,-21.13C309.2,-18.98 299.17,-16.71 290.66,-14.79"/>
<polygon fill="midnightblue" stroke="midnightblue" points="318.23,-24.61 328.75,-23.4 319.77,-17.78 318.23,-24.61"/>
</g>
<!-- Node5 -->
<g id="node5" class="node">
<title>Node5</title>
<g id="a_node5"><a xlink:href="../../de/da9/evolve_8f90.html#a8103e838be03904e03551e04f6b396e4" target="_top" xlink:title="Take a single time step in Fourier space to evolve the Fourier coefficients describing the equilibriu...">
<polygon fill="white" stroke="black" points="163,-57.5 163,-76.5 208,-76.5 208,-57.5 163,-57.5"/>
<text text-anchor="middle" x="185.5" y="-64.5" font-family="Helvetica,sans-Serif" font-size="10.00">evolve</text>
</a>
</g>
</g>
<!-- Node4&#45;&gt;Node5 -->
<g id="edge4" class="edge">
<title>Node4&#45;&gt;Node5</title>
<path fill="none" stroke="midnightblue" d="M233.8,-55.91C225.16,-57.93 216.11,-60.05 208.26,-61.9"/>
<polygon fill="midnightblue" stroke="midnightblue" points="234.7,-59.29 243.64,-53.6 233.1,-52.47 234.7,-59.29"/>
</g>
<!-- Node8 -->
<g id="node8" class="node">
<title>Node8</title>
<g id="a_node8"><a xlink:href="../../d0/d71/fileout_8f90.html#a7228e984aaf2c38bd772e3d846fab7af" target="_top" xlink:title="Write the output files.">
<polygon fill="white" stroke="black" points="81,-19.5 81,-38.5 123,-38.5 123,-19.5 81,-19.5"/>
<text text-anchor="middle" x="102" y="-26.5" font-family="Helvetica,sans-Serif" font-size="10.00">fileout</text>
</a>
</g>
</g>
<!-- Node4&#45;&gt;Node8 -->
<g id="edge7" class="edge">
<title>Node4&#45;&gt;Node8</title>
<path fill="none" stroke="midnightblue" d="M233.75,-44.1C200.47,-40.26 150.71,-34.51 123.16,-31.33"/>
<polygon fill="midnightblue" stroke="midnightblue" points="233.6,-47.61 243.93,-45.28 234.4,-40.65 233.6,-47.61"/>
</g>
<!-- Node6 -->
<g id="node6" class="node">
<title>Node6</title>
<g id="a_node6"><a xlink:href="../../d7/d46/eqsolve_8f90.html#ab740b09d1b651e2ab8a60c5d552df0c2" target="_top" xlink:title="Iteratively evolve the Fourier coefficients that specify the equilibrium.">
<polygon fill="white" stroke="black" points="77,-57.5 77,-76.5 127,-76.5 127,-57.5 77,-57.5"/>
<text text-anchor="middle" x="102" y="-64.5" font-family="Helvetica,sans-Serif" font-size="10.00">eqsolve</text>
</a>
</g>
</g>
<!-- Node5&#45;&gt;Node6 -->
<g id="edge5" class="edge">
<title>Node5&#45;&gt;Node6</title>
<path fill="none" stroke="midnightblue" d="M152.41,-67C144.02,-67 135.11,-67 127.2,-67"/>
<polygon fill="midnightblue" stroke="midnightblue" points="152.66,-70.5 162.66,-67 152.66,-63.5 152.66,-70.5"/>
</g>
<!-- Node7 -->
<g id="node7" class="node">
<title>Node7</title>
<g id="a_node7"><a xlink:href="../../db/d61/vmec_8f90.html#a6d38ab7be2f9d818da4541e1d352ea23" target="_top" xlink:title="Main driver for VMEC.">
<polygon fill="white" stroke="black" points="0,-38.5 0,-57.5 41,-57.5 41,-38.5 0,-38.5"/>
<text text-anchor="middle" x="20.5" y="-45.5" font-family="Helvetica,sans-Serif" font-size="10.00">vmec</text>
</a>
</g>
</g>
<!-- Node6&#45;&gt;Node7 -->
<g id="edge6" class="edge">
<title>Node6&#45;&gt;Node7</title>
<path fill="none" stroke="midnightblue" d="M66.71,-58.8C57.96,-56.71 48.84,-54.53 41.11,-52.69"/>
<polygon fill="midnightblue" stroke="midnightblue" points="66.18,-62.28 76.72,-61.2 67.8,-55.47 66.18,-62.28"/>
</g>
<!-- Node8&#45;&gt;Node7 -->
<g id="edge8" class="edge">
<title>Node8&#45;&gt;Node7</title>
<path fill="none" stroke="midnightblue" d="M70.93,-36.19C60.91,-38.58 50.01,-41.19 41.01,-43.34"/>
<polygon fill="midnightblue" stroke="midnightblue" points="72.03,-39.52 80.94,-33.79 70.4,-32.71 72.03,-39.52"/>
</g>
</g>
</svg>
