<?xml version="1.0" encoding="UTF-8" standalone="no"?>
<!DOCTYPE svg PUBLIC "-//W3C//DTD SVG 1.1//EN"
 "http://www.w3.org/Graphics/SVG/1.1/DTD/svg11.dtd">
<!-- Generated by graphviz version 8.0.1 (20230327.1645)
 -->
<!-- Title: fouri Pages: 1 -->
<svg width="624pt" height="83pt"
 viewBox="0.00 0.00 624.00 83.00" xmlns="http://www.w3.org/2000/svg" xmlns:xlink="http://www.w3.org/1999/xlink">
<g id="graph0" class="graph" transform="scale(1 1) rotate(0) translate(4 79)">
<title>fouri</title>
<!-- Node1 -->
<g id="node1" class="node">
<title>Node1</title>
<g id="a_node1"><a xlink:title="Compute Fourier integrals and build amatrix.">
<polygon fill="#999999" stroke="#666666" points="616,-37 581,-37 581,-18 616,-18 616,-37"/>
<text text-anchor="middle" x="598.5" y="-25" font-family="Helvetica,sans-Serif" font-size="10.00">fouri</text>
</a>
</g>
</g>
<!-- Node2 -->
<g id="node2" class="node">
<title>Node2</title>
<g id="a_node2"><a xlink:href="../../d0/d19/scalpot_8f90.html#afb9e58849c5a27e486bdf4106f8bb84e" target="_top" xlink:title="Compute all required terms for solving for the scalar magnetic potential.">
<polygon fill="white" stroke="#666666" points="545,-37 497,-37 497,-18 545,-18 545,-37"/>
<text text-anchor="middle" x="521" y="-25" font-family="Helvetica,sans-Serif" font-size="10.00">scalpot</text>
</a>
</g>
</g>
<!-- Node1&#45;&gt;Node2 -->
<g id="edge1" class="edge">
<title>Node1&#45;&gt;Node2</title>
<path fill="none" stroke="#63b8ff" d="M569.93,-27.5C561.85,-27.5 553.09,-27.5 545.29,-27.5"/>
<polygon fill="#63b8ff" stroke="#63b8ff" points="569.74,-31 579.74,-27.5 569.74,-24 569.74,-31"/>
</g>
<!-- Node3 -->
<g id="node3" class="node">
<title>Node3</title>
<g id="a_node3"><a xlink:href="../../dd/d6d/vacuum_8f90.html#a0acbc18d2ab7664835d797b42ce49a35" target="_top" xlink:title="Compute the vacuum contribution to the free&#45;boundary energy functional.">
<polygon fill="white" stroke="#666666" points="461,-37 410,-37 410,-18 461,-18 461,-37"/>
<text text-anchor="middle" x="435.5" y="-25" font-family="Helvetica,sans-Serif" font-size="10.00">vacuum</text>
</a>
</g>
</g>
<!-- Node2&#45;&gt;Node3 -->
<g id="edge2" class="edge">
<title>Node2&#45;&gt;Node3</title>
<path fill="none" stroke="#63b8ff" d="M485.92,-27.5C477.71,-27.5 469.09,-27.5 461.39,-27.5"/>
<polygon fill="#63b8ff" stroke="#63b8ff" points="485.74,-31 495.74,-27.5 485.74,-24 485.74,-31"/>
</g>
<!-- Node4 -->
<g id="node4" class="node">
<title>Node4</title>
<g id="a_node4"><a xlink:href="../../d3/d4f/funct3d_8f90.html#a800bacc22176e16323899df87b55c547" target="_top" xlink:title="Evaluate the three&#45;dimensional MHD energy functional. Think of this as the &quot;forward model&quot; that tells...">
<polygon fill="white" stroke="#666666" points="374,-56 325,-56 325,-37 374,-37 374,-56"/>
<text text-anchor="middle" x="349.5" y="-44" font-family="Helvetica,sans-Serif" font-size="10.00">funct3d</text>
</a>
</g>
</g>
<!-- Node3&#45;&gt;Node4 -->
<g id="edge3" class="edge">
<title>Node3&#45;&gt;Node4</title>
<path fill="none" stroke="#63b8ff" d="M399.15,-35.5C390.84,-37.38 382.17,-39.34 374.49,-41.07"/>
<polygon fill="#63b8ff" stroke="#63b8ff" points="399.77,-38.72 408.75,-33.1 398.23,-31.89 399.77,-38.72"/>
</g>
<!-- Node10 -->
<g id="node10" class="node">
<title>Node10</title>
<g id="a_node10"><a xlink:href="../../d4/d69/nestor__main_8f90.html#a1b0fd336e80285a96925333daa2ee8f0" target="_top" xlink:title="Main program of stand&#45;alone version of NESTOR.">
<polygon fill="white" stroke="#666666" points="371.5,-19 327.5,-19 327.5,0 371.5,0 371.5,-19"/>
<text text-anchor="middle" x="349.5" y="-7" font-family="Helvetica,sans-Serif" font-size="10.00">nestor</text>
</a>
</g>
</g>
<!-- Node3&#45;&gt;Node10 -->
<g id="edge10" class="edge">
<title>Node3&#45;&gt;Node10</title>
<path fill="none" stroke="#63b8ff" d="M399.2,-19.94C389.94,-17.95 380.23,-15.87 371.94,-14.09"/>
<polygon fill="#63b8ff" stroke="#63b8ff" points="398.24,-23.52 408.75,-22.2 399.71,-16.68 398.24,-23.52"/>
</g>
<!-- Node5 -->
<g id="node5" class="node">
<title>Node5</title>
<g id="a_node5"><a xlink:href="../../de/da9/evolve_8f90.html#a8103e838be03904e03551e04f6b396e4" target="_top" xlink:title="Take a single time step in Fourier space to evolve the Fourier coefficients describing the equilibriu...">
<polygon fill="white" stroke="#666666" points="289,-75 244,-75 244,-56 289,-56 289,-75"/>
<text text-anchor="middle" x="266.5" y="-63" font-family="Helvetica,sans-Serif" font-size="10.00">evolve</text>
</a>
</g>
</g>
<!-- Node4&#45;&gt;Node5 -->
<g id="edge4" class="edge">
<title>Node4&#45;&gt;Node5</title>
<path fill="none" stroke="#63b8ff" d="M313.95,-54.6C305.58,-56.57 296.85,-58.61 289.26,-60.4"/>
<polygon fill="#63b8ff" stroke="#63b8ff" points="314.7,-57.79 323.64,-52.1 313.1,-50.97 314.7,-57.79"/>
</g>
<!-- Node9 -->
<g id="node9" class="node">
<title>Node9</title>
<g id="a_node9"><a xlink:href="../../d0/d71/fileout_8f90.html#a7228e984aaf2c38bd772e3d846fab7af" target="_top" xlink:title="Write the output files.">
<polygon fill="white" stroke="#666666" points="204,-37 162,-37 162,-18 204,-18 204,-37"/>
<text text-anchor="middle" x="183" y="-25" font-family="Helvetica,sans-Serif" font-size="10.00">fileout</text>
</a>
</g>
</g>
<!-- Node4&#45;&gt;Node9 -->
<g id="edge8" class="edge">
<title>Node4&#45;&gt;Node9</title>
<path fill="none" stroke="#63b8ff" d="M313.98,-42.51C280.77,-38.68 231.68,-33.01 204.32,-29.85"/>
<polygon fill="#63b8ff" stroke="#63b8ff" points="313.24,-46.07 323.58,-43.74 314.05,-39.11 313.24,-46.07"/>
</g>
<!-- Node6 -->
<g id="node6" class="node">
<title>Node6</title>
<g id="a_node6"><a xlink:href="../../d7/d46/eqsolve_8f90.html#ab740b09d1b651e2ab8a60c5d552df0c2" target="_top" xlink:title="Iteratively evolve the Fourier coefficients that specify the equilibrium.">
<polygon fill="white" stroke="#666666" points="208,-74 158,-74 158,-55 208,-55 208,-74"/>
<text text-anchor="middle" x="183" y="-62" font-family="Helvetica,sans-Serif" font-size="10.00">eqsolve</text>
</a>
</g>
</g>
<!-- Node5&#45;&gt;Node6 -->
<g id="edge5" class="edge">
<title>Node5&#45;&gt;Node6</title>
<path fill="none" stroke="#63b8ff" d="M232.67,-65.1C224.6,-65 216.09,-64.89 208.49,-64.8"/>
<polygon fill="#63b8ff" stroke="#63b8ff" points="232.62,-68.61 242.66,-65.23 232.7,-61.61 232.62,-68.61"/>
</g>
<!-- Node7 -->
<g id="node7" class="node">
<title>Node7</title>
<g id="a_node7"><a xlink:href="../../db/d61/vmec_8f90.html#a6d38ab7be2f9d818da4541e1d352ea23" target="_top" xlink:title="Main driver for VMEC.">
<polygon fill="white" stroke="#666666" points="122,-55 81,-55 81,-36 122,-36 122,-55"/>
<text text-anchor="middle" x="101.5" y="-43" font-family="Helvetica,sans-Serif" font-size="10.00">vmec</text>
</a>
</g>
</g>
<!-- Node6&#45;&gt;Node7 -->
<g id="edge6" class="edge">
<title>Node6&#45;&gt;Node7</title>
<path fill="none" stroke="#63b8ff" d="M147.22,-56.19C138.72,-54.16 129.9,-52.05 122.37,-50.25"/>
<polygon fill="#63b8ff" stroke="#63b8ff" points="146.18,-59.78 156.72,-58.7 147.8,-52.97 146.18,-59.78"/>
</g>
<!-- Node8 -->
<g id="node8" class="node">
<title>Node8</title>
<g id="a_node8"><a xlink:href="../../db/d61/vmec_8f90.html#ace5bdf043bb85c8f0a9fc582bdb55725" target="_top" xlink:title="Main program of VMEC.">
<polygon fill="white" stroke="#666666" points="45,-55 0,-55 0,-36 45,-36 45,-55"/>
<text text-anchor="middle" x="22.5" y="-43" font-family="Helvetica,sans-Serif" font-size="10.00">xvmec</text>
</a>
</g>
</g>
<!-- Node7&#45;&gt;Node8 -->
<g id="edge7" class="edge">
<title>Node7&#45;&gt;Node8</title>
<path fill="none" stroke="#63b8ff" d="M69.67,-45.5C61.56,-45.5 52.97,-45.5 45.43,-45.5"/>
<polygon fill="#63b8ff" stroke="#63b8ff" points="69.67,-49 79.67,-45.5 69.67,-42 69.67,-49"/>
</g>
<!-- Node9&#45;&gt;Node7 -->
<g id="edge9" class="edge">
<title>Node9&#45;&gt;Node7</title>
<path fill="none" stroke="#63b8ff" d="M151.07,-34.5C141.42,-36.69 131.03,-39.04 122.35,-41"/>
<polygon fill="#63b8ff" stroke="#63b8ff" points="151.55,-37.76 160.53,-32.14 150,-30.93 151.55,-37.76"/>
</g>
</g>
</svg>
