<?xml version="1.0" encoding="UTF-8" standalone="no"?>
<!DOCTYPE svg PUBLIC "-//W3C//DTD SVG 1.1//EN"
 "http://www.w3.org/Graphics/SVG/1.1/DTD/svg11.dtd">
<!-- Generated by graphviz version 2.49.3 (20211215.1918)
 -->
<!-- Title: spline_cubic Pages: 1 -->
<svg width="171pt" height="66pt"
 viewBox="0.00 0.00 171.00 66.00" xmlns="http://www.w3.org/2000/svg" xmlns:xlink="http://www.w3.org/1999/xlink">
<g id="graph0" class="graph" transform="scale(1 1) rotate(0) translate(4 62)">
<title>spline_cubic</title>
<polygon fill="white" stroke="transparent" points="-4,4 -4,-62 167,-62 167,4 -4,4"/>
<!-- Node1 -->
<g id="node1" class="node">
<title>Node1</title>
<g id="a_node1"><a xlink:title=" ">
<polygon fill="#bfbfbf" stroke="black" points="0,-19.5 0,-38.5 71,-38.5 71,-19.5 0,-19.5"/>
<text text-anchor="middle" x="35.5" y="-26.5" font-family="Helvetica,sans-Serif" font-size="10.00">spline_cubic</text>
</a>
</g>
</g>
<!-- Node2 -->
<g id="node2" class="node">
<title>Node2</title>
<g id="a_node2"><a xlink:href="../../d8/d60/spline__cubic_8f.html#a83fa704212982fff74dee5f6c68b241f" target="_top" xlink:title=" ">
<polygon fill="white" stroke="black" points="107,-38.5 107,-57.5 163,-57.5 163,-38.5 107,-38.5"/>
<text text-anchor="middle" x="135" y="-45.5" font-family="Helvetica,sans-Serif" font-size="10.00">spline_nr</text>
</a>
</g>
</g>
<!-- Node1&#45;&gt;Node2 -->
<g id="edge1" class="edge">
<title>Node1&#45;&gt;Node2</title>
<path fill="none" stroke="midnightblue" d="M71.15,-35.75C79.48,-37.37 88.4,-39.11 96.84,-40.76"/>
<polygon fill="midnightblue" stroke="midnightblue" points="96.33,-44.22 106.81,-42.7 97.67,-37.35 96.33,-44.22"/>
</g>
<!-- Node3 -->
<g id="node3" class="node">
<title>Node3</title>
<g id="a_node3"><a xlink:href="../../d8/d60/spline__cubic_8f.html#a1d13bcd91bd68259f6dbd2deb9919e6d" target="_top" xlink:title=" ">
<polygon fill="white" stroke="black" points="108.5,-0.5 108.5,-19.5 161.5,-19.5 161.5,-0.5 108.5,-0.5"/>
<text text-anchor="middle" x="135" y="-7.5" font-family="Helvetica,sans-Serif" font-size="10.00">splint_nr</text>
</a>
</g>
</g>
<!-- Node1&#45;&gt;Node3 -->
<g id="edge2" class="edge">
<title>Node1&#45;&gt;Node3</title>
<path fill="none" stroke="midnightblue" d="M71.15,-22.25C79.96,-20.53 89.45,-18.68 98.31,-16.96"/>
<polygon fill="midnightblue" stroke="midnightblue" points="99.21,-20.35 108.35,-15 97.87,-13.48 99.21,-20.35"/>
</g>
</g>
</svg>
