<?xml version="1.0" encoding="UTF-8" standalone="no"?>
<!DOCTYPE svg PUBLIC "-//W3C//DTD SVG 1.1//EN"
 "http://www.w3.org/Graphics/SVG/1.1/DTD/svg11.dtd">
<!-- Generated by graphviz version 8.0.1 (20230327.1645)
 -->
<!-- Title: spline_nr Pages: 1 -->
<svg width="439pt" height="155pt"
 viewBox="0.00 0.00 439.00 155.00" xmlns="http://www.w3.org/2000/svg" xmlns:xlink="http://www.w3.org/1999/xlink">
<g id="graph0" class="graph" transform="scale(1 1) rotate(0) translate(4 151)">
<title>spline_nr</title>
<!-- Node1 -->
<g id="node1" class="node">
<title>Node1</title>
<g id="a_node1"><a xlink:title=" ">
<polygon fill="#999999" stroke="#666666" points="431,-74 375,-74 375,-55 431,-55 431,-74"/>
<text text-anchor="middle" x="403" y="-62" font-family="Helvetica,sans-Serif" font-size="10.00">spline_nr</text>
</a>
</g>
</g>
<!-- Node2 -->
<g id="node2" class="node">
<title>Node2</title>
<g id="a_node2"><a xlink:href="../../d8/d60/spline__cubic_8f.html#a60e9606a5fa1dcb7f79f9259b8e0d067" target="_top" xlink:title=" ">
<polygon fill="white" stroke="#666666" points="339,-74 268,-74 268,-55 339,-55 339,-74"/>
<text text-anchor="middle" x="303.5" y="-62" font-family="Helvetica,sans-Serif" font-size="10.00">spline_cubic</text>
</a>
</g>
</g>
<!-- Node1&#45;&gt;Node2 -->
<g id="edge1" class="edge">
<title>Node1&#45;&gt;Node2</title>
<path fill="none" stroke="#63b8ff" d="M363.63,-64.5C355.63,-64.5 347.24,-64.5 339.38,-64.5"/>
<polygon fill="#63b8ff" stroke="#63b8ff" points="363.58,-68 373.58,-64.5 363.58,-61 363.58,-68"/>
</g>
<!-- Node3 -->
<g id="node3" class="node">
<title>Node3</title>
<g id="a_node3"><a xlink:href="../../da/dc8/profile__functions_8f.html#a5bfa30ed89583073252fb965b7cf69e0" target="_top" xlink:title=" ">
<polygon fill="white" stroke="#666666" points="228,-129 190,-129 190,-110 228,-110 228,-129"/>
<text text-anchor="middle" x="209" y="-117" font-family="Helvetica,sans-Serif" font-size="10.00">pcurr</text>
</a>
</g>
</g>
<!-- Node2&#45;&gt;Node3 -->
<g id="edge2" class="edge">
<title>Node2&#45;&gt;Node3</title>
<path fill="none" stroke="#63b8ff" d="M276.63,-79.88C260.65,-89.38 240.61,-101.3 226.71,-109.57"/>
<polygon fill="#63b8ff" stroke="#63b8ff" points="278.16,-82.45 284.96,-74.33 274.58,-76.44 278.16,-82.45"/>
</g>
<!-- Node4 -->
<g id="node4" class="node">
<title>Node4</title>
<g id="a_node4"><a xlink:href="../../da/dc8/profile__functions_8f.html#a437348e2a0ee2ababaeca2205a78b85c" target="_top" xlink:title=" ">
<polygon fill="white" stroke="#666666" points="228,-74 190,-74 190,-55 228,-55 228,-74"/>
<text text-anchor="middle" x="209" y="-62" font-family="Helvetica,sans-Serif" font-size="10.00">piota</text>
</a>
</g>
</g>
<!-- Node2&#45;&gt;Node4 -->
<g id="edge4" class="edge">
<title>Node2&#45;&gt;Node4</title>
<path fill="none" stroke="#63b8ff" d="M256.74,-64.5C246.7,-64.5 236.63,-64.5 228.42,-64.5"/>
<polygon fill="#63b8ff" stroke="#63b8ff" points="256.53,-68 266.53,-64.5 256.53,-61 256.53,-68"/>
</g>
<!-- Node7 -->
<g id="node7" class="node">
<title>Node7</title>
<g id="a_node7"><a xlink:href="../../da/dc8/profile__functions_8f.html#aba5b7c2601ef5c209acc084c9a42ff6d" target="_top" xlink:title=" ">
<polygon fill="white" stroke="#666666" points="232,-19 186,-19 186,0 232,0 232,-19"/>
<text text-anchor="middle" x="209" y="-7" font-family="Helvetica,sans-Serif" font-size="10.00">pmass</text>
</a>
</g>
</g>
<!-- Node2&#45;&gt;Node7 -->
<g id="edge10" class="edge">
<title>Node2&#45;&gt;Node7</title>
<path fill="none" stroke="#63b8ff" d="M276.63,-49.12C260.65,-39.62 240.61,-27.7 226.71,-19.43"/>
<polygon fill="#63b8ff" stroke="#63b8ff" points="274.58,-52.56 284.96,-54.67 278.16,-46.55 274.58,-52.56"/>
</g>
<!-- Node3&#45;&gt;Node3 -->
<g id="edge3" class="edge">
<title>Node3&#45;&gt;Node3</title>
<path fill="none" stroke="#63b8ff" d="M225.86,-140.1C223.91,-144.13 218.29,-147 209,-147 192.48,-147 187.57,-137.94 194.28,-129.37"/>
<polygon fill="#63b8ff" stroke="#63b8ff" points="229.1,-139.49 223.72,-130.37 222.24,-140.86 229.1,-139.49"/>
</g>
<!-- Node4&#45;&gt;Node4 -->
<g id="edge5" class="edge">
<title>Node4&#45;&gt;Node4</title>
<path fill="none" stroke="#63b8ff" d="M225.86,-85.1C223.91,-89.13 218.29,-92 209,-92 192.48,-92 187.57,-82.94 194.28,-74.37"/>
<polygon fill="#63b8ff" stroke="#63b8ff" points="229.1,-84.49 223.72,-75.37 222.24,-85.86 229.1,-84.49"/>
</g>
<!-- Node5 -->
<g id="node5" class="node">
<title>Node5</title>
<g id="a_node5"><a xlink:href="../../d5/d26/magnetic__fluxes_8f90.html#ad5e5642d688664c85a181c2d1fd6497f" target="_top" xlink:title="Compute the radial derivative of the enclosed poloidal magnetic flux.">
<polygon fill="white" stroke="#666666" points="150,-74 80,-74 80,-55 150,-55 150,-74"/>
<text text-anchor="middle" x="115" y="-62" font-family="Helvetica,sans-Serif" font-size="10.00">polflux_deriv</text>
</a>
</g>
</g>
<!-- Node4&#45;&gt;Node5 -->
<g id="edge6" class="edge">
<title>Node4&#45;&gt;Node5</title>
<path fill="none" stroke="#63b8ff" d="M178.93,-64.5C169.79,-64.5 159.61,-64.5 150.15,-64.5"/>
<polygon fill="#63b8ff" stroke="#63b8ff" points="178.82,-68 188.82,-64.5 178.82,-61 178.82,-68"/>
</g>
<!-- Node5&#45;&gt;Node5 -->
<g id="edge9" class="edge">
<title>Node5&#45;&gt;Node5</title>
<path fill="none" stroke="#63b8ff" d="M131.68,-85.1C129.75,-89.13 124.2,-92 115,-92 98.65,-92 93.8,-82.94 100.44,-74.37"/>
<polygon fill="#63b8ff" stroke="#63b8ff" points="134.93,-84.5 129.56,-75.37 128.06,-85.86 134.93,-84.5"/>
</g>
<!-- Node6 -->
<g id="node6" class="node">
<title>Node6</title>
<g id="a_node6"><a xlink:href="../../d5/d26/magnetic__fluxes_8f90.html#a9d78c3bac80a4d14cc82a93bc79e7dcd" target="_top" xlink:title="Compute the enclosed poloidal magnetic flux.">
<polygon fill="white" stroke="#666666" points="44,-74 0,-74 0,-55 44,-55 44,-74"/>
<text text-anchor="middle" x="22" y="-62" font-family="Helvetica,sans-Serif" font-size="10.00">polflux</text>
</a>
</g>
</g>
<!-- Node5&#45;&gt;Node6 -->
<g id="edge7" class="edge">
<title>Node5&#45;&gt;Node6</title>
<path fill="none" stroke="#63b8ff" d="M68.83,-64.5C60.24,-64.5 51.64,-64.5 44.25,-64.5"/>
<polygon fill="#63b8ff" stroke="#63b8ff" points="68.6,-68 78.6,-64.5 68.6,-61 68.6,-68"/>
</g>
<!-- Node6&#45;&gt;Node6 -->
<g id="edge8" class="edge">
<title>Node6&#45;&gt;Node6</title>
<path fill="none" stroke="#63b8ff" d="M38.68,-85.1C36.75,-89.13 31.2,-92 22,-92 5.65,-92 0.8,-82.94 7.44,-74.37"/>
<polygon fill="#63b8ff" stroke="#63b8ff" points="41.93,-84.5 36.56,-75.37 35.06,-85.86 41.93,-84.5"/>
</g>
<!-- Node7&#45;&gt;Node7 -->
<g id="edge11" class="edge">
<title>Node7&#45;&gt;Node7</title>
<path fill="none" stroke="#63b8ff" d="M225.86,-30.1C223.91,-34.13 218.29,-37 209,-37 192.48,-37 187.57,-27.94 194.28,-19.37"/>
<polygon fill="#63b8ff" stroke="#63b8ff" points="229.1,-29.49 223.72,-20.37 222.24,-30.86 229.1,-29.49"/>
</g>
</g>
</svg>
