<?xml version="1.0" encoding="UTF-8" standalone="no"?>
<!DOCTYPE svg PUBLIC "-//W3C//DTD SVG 1.1//EN"
 "http://www.w3.org/Graphics/SVG/1.1/DTD/svg11.dtd">
<!-- Generated by graphviz version 7.1.0 (20230121.1956)
 -->
<!-- Title: spline_nr Pages: 1 -->
<svg width="439pt" height="155pt"
 viewBox="0.00 0.00 439.00 155.00" xmlns="http://www.w3.org/2000/svg" xmlns:xlink="http://www.w3.org/1999/xlink">
<g id="graph0" class="graph" transform="scale(1 1) rotate(0) translate(4 151)">
<title>spline_nr</title>
<!-- Node1 -->
<g id="node1" class="node">
<title>Node1</title>
<g id="a_node1"><a xlink:title=" ">
<polygon fill="#999999" stroke="#666666" points="431,-74 375,-74 375,-55 431,-55 431,-74"/>
<text text-anchor="middle" x="403" y="-62" font-family="Helvetica,sans-Serif" font-size="10.00">spline_nr</text>
</a>
</g>
</g>
<!-- Node2 -->
<g id="node2" class="node">
<title>Node2</title>
<g id="a_node2"><a xlink:href="../../d8/d60/spline__cubic_8f.html#a60e9606a5fa1dcb7f79f9259b8e0d067" target="_top" xlink:title=" ">
<polygon fill="white" stroke="#666666" points="339,-74 268,-74 268,-55 339,-55 339,-74"/>
<text text-anchor="middle" x="303.5" y="-62" font-family="Helvetica,sans-Serif" font-size="10.00">spline_cubic</text>
</a>
</g>
</g>
<!-- Node1&#45;&gt;Node2 -->
<g id="edge1" class="edge">
<title>Node1&#45;&gt;Node2</title>
<path fill="none" stroke="#63b8ff" d="M363.08,-64.5C355.24,-64.5 347.06,-64.5 339.38,-64.5"/>
<polygon fill="#63b8ff" stroke="#63b8ff" points="363.07,-68 373.07,-64.5 363.07,-61 363.07,-68"/>
</g>
<!-- Node3 -->
<g id="node3" class="node">
<title>Node3</title>
<g id="a_node3"><a xlink:href="../../da/dc8/profile__functions_8f.html#a5bfa30ed89583073252fb965b7cf69e0" target="_top" xlink:title=" ">
<polygon fill="white" stroke="#666666" points="228,-129 190,-129 190,-110 228,-110 228,-129"/>
<text text-anchor="middle" x="209" y="-117" font-family="Helvetica,sans-Serif" font-size="10.00">pcurr</text>
</a>
</g>
</g>
<!-- Node2&#45;&gt;Node3 -->
<g id="edge2" class="edge">
<title>Node2&#45;&gt;Node3</title>
<path fill="none" stroke="#63b8ff" d="M276.18,-80.15C260.27,-89.61 240.48,-101.38 226.71,-109.57"/>
<polygon fill="#63b8ff" stroke="#63b8ff" points="277.86,-83.23 284.66,-75.11 274.28,-77.21 277.86,-83.23"/>
</g>
<!-- Node4 -->
<g id="node4" class="node">
<title>Node4</title>
<g id="a_node4"><a xlink:href="../../da/dc8/profile__functions_8f.html#a437348e2a0ee2ababaeca2205a78b85c" target="_top" xlink:title=" ">
<polygon fill="white" stroke="#666666" points="228,-74 190,-74 190,-55 228,-55 228,-74"/>
<text text-anchor="middle" x="209" y="-62" font-family="Helvetica,sans-Serif" font-size="10.00">piota</text>
</a>
</g>
</g>
<!-- Node2&#45;&gt;Node4 -->
<g id="edge4" class="edge">
<title>Node2&#45;&gt;Node4</title>
<path fill="none" stroke="#63b8ff" d="M256.1,-64.5C246.27,-64.5 236.46,-64.5 228.42,-64.5"/>
<polygon fill="#63b8ff" stroke="#63b8ff" points="256.02,-68 266.02,-64.5 256.02,-61 256.02,-68"/>
</g>
<!-- Node7 -->
<g id="node7" class="node">
<title>Node7</title>
<g id="a_node7"><a xlink:href="../../da/dc8/profile__functions_8f.html#aba5b7c2601ef5c209acc084c9a42ff6d" target="_top" xlink:title=" ">
<polygon fill="white" stroke="#666666" points="232,-19 186,-19 186,0 232,0 232,-19"/>
<text text-anchor="middle" x="209" y="-7" font-family="Helvetica,sans-Serif" font-size="10.00">pmass</text>
</a>
</g>
</g>
<!-- Node2&#45;&gt;Node7 -->
<g id="edge10" class="edge">
<title>Node2&#45;&gt;Node7</title>
<path fill="none" stroke="#63b8ff" d="M276.18,-48.85C260.27,-39.39 240.48,-27.62 226.71,-19.43"/>
<polygon fill="#63b8ff" stroke="#63b8ff" points="274.28,-51.79 284.66,-53.89 277.86,-45.77 274.28,-51.79"/>
</g>
<!-- Node3&#45;&gt;Node3 -->
<g id="edge3" class="edge">
<title>Node3&#45;&gt;Node3</title>
<path fill="none" stroke="#63b8ff" d="M225.68,-140.43C223.6,-144.29 218.04,-147 209,-147 192.48,-147 187.57,-137.94 194.28,-129.37"/>
<polygon fill="#63b8ff" stroke="#63b8ff" points="229.18,-140.09 223.98,-130.86 222.29,-141.32 229.18,-140.09"/>
</g>
<!-- Node4&#45;&gt;Node4 -->
<g id="edge5" class="edge">
<title>Node4&#45;&gt;Node4</title>
<path fill="none" stroke="#63b8ff" d="M225.68,-85.43C223.6,-89.29 218.04,-92 209,-92 192.48,-92 187.57,-82.94 194.28,-74.37"/>
<polygon fill="#63b8ff" stroke="#63b8ff" points="229.18,-85.09 223.98,-75.86 222.29,-86.32 229.18,-85.09"/>
</g>
<!-- Node5 -->
<g id="node5" class="node">
<title>Node5</title>
<g id="a_node5"><a xlink:href="../../d5/d26/magnetic__fluxes_8f90.html#ad5e5642d688664c85a181c2d1fd6497f" target="_top" xlink:title="Compute the radial derivative of the enclosed poloidal magnetic flux.">
<polygon fill="white" stroke="#666666" points="150,-74 80,-74 80,-55 150,-55 150,-74"/>
<text text-anchor="middle" x="115" y="-62" font-family="Helvetica,sans-Serif" font-size="10.00">polflux_deriv</text>
</a>
</g>
</g>
<!-- Node4&#45;&gt;Node5 -->
<g id="edge6" class="edge">
<title>Node4&#45;&gt;Node5</title>
<path fill="none" stroke="#63b8ff" d="M178.32,-64.5C169.34,-64.5 159.4,-64.5 150.15,-64.5"/>
<polygon fill="#63b8ff" stroke="#63b8ff" points="178.31,-68 188.31,-64.5 178.31,-61 178.31,-68"/>
</g>
<!-- Node5&#45;&gt;Node5 -->
<g id="edge9" class="edge">
<title>Node5&#45;&gt;Node5</title>
<path fill="none" stroke="#63b8ff" d="M131.51,-85.43C129.44,-89.29 123.94,-92 115,-92 98.65,-92 93.8,-82.94 100.44,-74.37"/>
<polygon fill="#63b8ff" stroke="#63b8ff" points="135,-85.1 129.82,-75.86 128.11,-86.31 135,-85.1"/>
</g>
<!-- Node6 -->
<g id="node6" class="node">
<title>Node6</title>
<g id="a_node6"><a xlink:href="../../d5/d26/magnetic__fluxes_8f90.html#a9d78c3bac80a4d14cc82a93bc79e7dcd" target="_top" xlink:title="Compute the enclosed poloidal magnetic flux.">
<polygon fill="white" stroke="#666666" points="44,-74 0,-74 0,-55 44,-55 44,-74"/>
<text text-anchor="middle" x="22" y="-62" font-family="Helvetica,sans-Serif" font-size="10.00">polflux</text>
</a>
</g>
</g>
<!-- Node5&#45;&gt;Node6 -->
<g id="edge7" class="edge">
<title>Node5&#45;&gt;Node6</title>
<path fill="none" stroke="#63b8ff" d="M68.25,-64.5C59.86,-64.5 51.48,-64.5 44.25,-64.5"/>
<polygon fill="#63b8ff" stroke="#63b8ff" points="68.08,-68 78.08,-64.5 68.08,-61 68.08,-68"/>
</g>
<!-- Node6&#45;&gt;Node6 -->
<g id="edge8" class="edge">
<title>Node6&#45;&gt;Node6</title>
<path fill="none" stroke="#63b8ff" d="M38.51,-85.43C36.44,-89.29 30.94,-92 22,-92 5.65,-92 0.8,-82.94 7.44,-74.37"/>
<polygon fill="#63b8ff" stroke="#63b8ff" points="42,-85.1 36.82,-75.86 35.11,-86.31 42,-85.1"/>
</g>
<!-- Node7&#45;&gt;Node7 -->
<g id="edge11" class="edge">
<title>Node7&#45;&gt;Node7</title>
<path fill="none" stroke="#63b8ff" d="M225.68,-30.43C223.6,-34.29 218.04,-37 209,-37 192.48,-37 187.57,-27.94 194.28,-19.37"/>
<polygon fill="#63b8ff" stroke="#63b8ff" points="229.18,-30.09 223.98,-20.86 222.29,-31.32 229.18,-30.09"/>
</g>
</g>
</svg>
