<?xml version="1.0" encoding="UTF-8" standalone="no"?>
<!DOCTYPE svg PUBLIC "-//W3C//DTD SVG 1.1//EN"
 "http://www.w3.org/Graphics/SVG/1.1/DTD/svg11.dtd">
<!-- Generated by graphviz version 8.0.1 (20230327.1645)
 -->
<!-- Title: torflux_deriv Pages: 1 -->
<svg width="340pt" height="73pt"
 viewBox="0.00 0.00 340.00 73.00" xmlns="http://www.w3.org/2000/svg" xmlns:xlink="http://www.w3.org/1999/xlink">
<g id="graph0" class="graph" transform="scale(1 1) rotate(0) translate(4 69)">
<title>torflux_deriv</title>
<!-- Node1 -->
<g id="node1" class="node">
<title>Node1</title>
<g id="a_node1"><a xlink:title="Compute the radial derivative of the enclosed toroidal magnetic flux.">
<polygon fill="#999999" stroke="#666666" points="332,-47 264,-47 264,-28 332,-28 332,-47"/>
<text text-anchor="middle" x="298" y="-35" font-family="Helvetica,sans-Serif" font-size="10.00">torflux_deriv</text>
</a>
</g>
</g>
<!-- Node1&#45;&gt;Node1 -->
<g id="edge8" class="edge">
<title>Node1&#45;&gt;Node1</title>
<path fill="none" stroke="#63b8ff" d="M314.32,-58.1C312.44,-62.13 307,-65 298,-65 282,-65 277.26,-55.94 283.75,-47.37"/>
<polygon fill="#63b8ff" stroke="#63b8ff" points="317.58,-57.52 312.25,-48.37 310.71,-58.85 317.58,-57.52"/>
</g>
<!-- Node2 -->
<g id="node2" class="node">
<title>Node2</title>
<g id="a_node2"><a xlink:href="../../d5/d26/magnetic__fluxes_8f90.html#ad5e5642d688664c85a181c2d1fd6497f" target="_top" xlink:title="Compute the radial derivative of the enclosed poloidal magnetic flux.">
<polygon fill="white" stroke="#666666" points="150,-47 80,-47 80,-28 150,-28 150,-47"/>
<text text-anchor="middle" x="115" y="-35" font-family="Helvetica,sans-Serif" font-size="10.00">polflux_deriv</text>
</a>
</g>
</g>
<!-- Node1&#45;&gt;Node2 -->
<g id="edge1" class="edge">
<title>Node1&#45;&gt;Node2</title>
<path fill="none" stroke="#63b8ff" d="M253.08,-44.1C244.77,-45.1 236.13,-45.97 228,-46.5 209.37,-47.71 204.63,-47.69 186,-46.5 174.38,-45.76 161.75,-44.33 150.45,-42.82"/>
<polygon fill="#63b8ff" stroke="#63b8ff" points="253.27,-47.47 262.74,-42.72 252.38,-40.53 253.27,-47.47"/>
</g>
<!-- Node4 -->
<g id="node4" class="node">
<title>Node4</title>
<g id="a_node4"><a xlink:href="../../d5/d26/magnetic__fluxes_8f90.html#a017a13ebb77985454dd008ccdb9f4402" target="_top" xlink:title="Compute the enclosed toroidal magnetic flux.">
<polygon fill="white" stroke="#666666" points="228,-19 186,-19 186,0 228,0 228,-19"/>
<text text-anchor="middle" x="207" y="-7" font-family="Helvetica,sans-Serif" font-size="10.00">torflux</text>
</a>
</g>
</g>
<!-- Node1&#45;&gt;Node4 -->
<g id="edge5" class="edge">
<title>Node1&#45;&gt;Node4</title>
<path fill="none" stroke="#63b8ff" d="M255.05,-24.3C245.78,-21.39 236.36,-18.42 228.41,-15.92"/>
<polygon fill="#63b8ff" stroke="#63b8ff" points="253.78,-27.89 264.37,-27.55 255.88,-21.21 253.78,-27.89"/>
</g>
<!-- Node2&#45;&gt;Node2 -->
<g id="edge4" class="edge">
<title>Node2&#45;&gt;Node2</title>
<path fill="none" stroke="#63b8ff" d="M131.5,-58.1C129.6,-62.13 124.1,-65 115,-65 98.83,-65 94.03,-55.94 100.6,-47.37"/>
<polygon fill="#63b8ff" stroke="#63b8ff" points="134.75,-57.51 129.4,-48.37 127.88,-58.85 134.75,-57.51"/>
</g>
<!-- Node3 -->
<g id="node3" class="node">
<title>Node3</title>
<g id="a_node3"><a xlink:href="../../d5/d26/magnetic__fluxes_8f90.html#a9d78c3bac80a4d14cc82a93bc79e7dcd" target="_top" xlink:title="Compute the enclosed poloidal magnetic flux.">
<polygon fill="white" stroke="#666666" points="44,-47 0,-47 0,-28 44,-28 44,-47"/>
<text text-anchor="middle" x="22" y="-35" font-family="Helvetica,sans-Serif" font-size="10.00">polflux</text>
</a>
</g>
</g>
<!-- Node2&#45;&gt;Node3 -->
<g id="edge2" class="edge">
<title>Node2&#45;&gt;Node3</title>
<path fill="none" stroke="#63b8ff" d="M68.83,-37.5C60.24,-37.5 51.64,-37.5 44.25,-37.5"/>
<polygon fill="#63b8ff" stroke="#63b8ff" points="68.6,-41 78.6,-37.5 68.6,-34 68.6,-41"/>
</g>
<!-- Node3&#45;&gt;Node3 -->
<g id="edge3" class="edge">
<title>Node3&#45;&gt;Node3</title>
<path fill="none" stroke="#63b8ff" d="M38.68,-58.1C36.75,-62.13 31.2,-65 22,-65 5.65,-65 0.8,-55.94 7.44,-47.37"/>
<polygon fill="#63b8ff" stroke="#63b8ff" points="41.93,-57.5 36.56,-48.37 35.06,-58.86 41.93,-57.5"/>
</g>
<!-- Node4&#45;&gt;Node2 -->
<g id="edge6" class="edge">
<title>Node4&#45;&gt;Node2</title>
<path fill="none" stroke="#63b8ff" d="M175.34,-19.04C166.52,-21.78 156.89,-24.78 147.99,-27.55"/>
<polygon fill="#63b8ff" stroke="#63b8ff" points="176.07,-22.17 184.58,-15.85 173.99,-15.48 176.07,-22.17"/>
</g>
<!-- Node4&#45;&gt;Node4 -->
<g id="edge7" class="edge">
<title>Node4&#45;&gt;Node4</title>
<path fill="none" stroke="#63b8ff" d="M223.32,-30.1C221.44,-34.13 216,-37 207,-37 191,-37 186.26,-27.94 192.75,-19.37"/>
<polygon fill="#63b8ff" stroke="#63b8ff" points="226.58,-29.52 221.25,-20.37 219.71,-30.85 226.58,-29.52"/>
</g>
</g>
</svg>
