<?xml version="1.0" encoding="UTF-8" standalone="no"?>
<!DOCTYPE svg PUBLIC "-//W3C//DTD SVG 1.1//EN"
 "http://www.w3.org/Graphics/SVG/1.1/DTD/svg11.dtd">
<!-- Generated by graphviz version 12.0.0 (20240704.0754)
 -->
<!-- Title: polflux Pages: 1 -->
<svg width="475pt" height="193pt"
 viewBox="0.00 0.00 475.00 193.25" xmlns="http://www.w3.org/2000/svg" xmlns:xlink="http://www.w3.org/1999/xlink">

<svg id="main" version="1.1" xmlns="http://www.w3.org/2000/svg" xmlns:xlink="http://www.w3.org/1999/xlink" xml:space="preserve">

<style type="text/css"><![CDATA[
.node, .edge {opacity: 0.7;}
.node.selected, .edge.selected {opacity: 1;}
.edge:hover path { stroke: red; }
.edge:hover polygon { stroke: red; fill: red; }
]]></style>
<script type="application/ecmascript" xlink:href="../../svg.min.js"/>
<svg id="graph" class="graph">
<g id="graph0" class="graph" transform="scale(1 1) rotate(0) translate(4 189.25)">
<title>polflux</title>
<!-- Node1 -->
<g id="Node000001" class="node">
<title>Node1</title>
<g id="a_Node000001"><a xlink:title="Compute the enclosed poloidal magnetic flux.">
<polygon fill="#999999" stroke="#666666" points="43,-57.25 0,-57.25 0,-38 43,-38 43,-57.25"/>
<text text-anchor="middle" x="21.5" y="-43.75" font-family="Helvetica,sans-Serif" font-size="10.00">polflux</text>
</a>
</g>
</g>
<!-- Node1&#45;&gt;Node1 -->
<g id="edge1_Node000001_Node000001" class="edge">
<title>Node1&#45;&gt;Node1</title>
<g id="a_edge1_Node000001_Node000001"><a xlink:title=" ">
<path fill="none" stroke="#63b8ff" d="M7.08,-57.54C0.5,-66.15 5.31,-75.25 21.5,-75.25 30.36,-75.25 35.81,-72.53 37.85,-68.65"/>
<polygon fill="#63b8ff" stroke="#63b8ff" points="41.34,-68.28 36.18,-59.03 34.44,-69.48 41.34,-68.28"/>
</a>
</g>
</g>
<!-- Node2 -->
<g id="Node000002" class="node">
<title>Node2</title>
<g id="a_Node000002"><a xlink:href="../../d5/d26/magnetic__fluxes_8f90.html#ad5e5642d688664c85a181c2d1fd6497f" target="_top" xlink:title="Compute the radial derivative of the enclosed poloidal magnetic flux.">
<polygon fill="white" stroke="#666666" points="148.25,-57.25 79,-57.25 79,-38 148.25,-38 148.25,-57.25"/>
<text text-anchor="middle" x="113.62" y="-43.75" font-family="Helvetica,sans-Serif" font-size="10.00">polflux_deriv</text>
</a>
</g>
</g>
<!-- Node1&#45;&gt;Node2 -->
<g id="edge2_Node000001_Node000002" class="edge">
<title>Node1&#45;&gt;Node2</title>
<g id="a_edge2_Node000001_Node000002"><a xlink:title=" ">
<path fill="none" stroke="#63b8ff" d="M43.4,-47.62C50.62,-47.62 59.02,-47.62 67.42,-47.62"/>
<polygon fill="#63b8ff" stroke="#63b8ff" points="67.26,-51.13 77.26,-47.63 67.26,-44.13 67.26,-51.13"/>
</a>
</g>
</g>
<!-- Node2&#45;&gt;Node2 -->
<g id="edge10_Node000002_Node000002" class="edge">
<title>Node2&#45;&gt;Node2</title>
<g id="a_edge10_Node000002_Node000002"><a xlink:title=" ">
<path fill="none" stroke="#63b8ff" d="M99.32,-57.54C92.79,-66.15 97.56,-75.25 113.62,-75.25 122.41,-75.25 127.82,-72.53 129.84,-68.65"/>
<polygon fill="#63b8ff" stroke="#63b8ff" points="133.33,-68.29 128.19,-59.03 126.43,-69.48 133.33,-68.29"/>
</a>
</g>
</g>
<!-- Node3 -->
<g id="Node000003" class="node">
<title>Node3</title>
<g id="a_Node000003"><a xlink:href="../../da/dc8/profile__functions_8f.html#a437348e2a0ee2ababaeca2205a78b85c" target="_top" xlink:title=" ">
<polygon fill="white" stroke="#666666" points="223.5,-112.25 186.5,-112.25 186.5,-93 223.5,-93 223.5,-112.25"/>
<text text-anchor="middle" x="205" y="-98.75" font-family="Helvetica,sans-Serif" font-size="10.00">piota</text>
</a>
</g>
</g>
<!-- Node2&#45;&gt;Node3 -->
<g id="edge3_Node000002_Node000003" class="edge">
<title>Node2&#45;&gt;Node3</title>
<g id="a_edge3_Node000002_Node000003"><a xlink:title=" ">
<path fill="none" stroke="#63b8ff" d="M131.02,-57.71C144.25,-65.85 163.09,-77.45 178.32,-86.82"/>
<polygon fill="#63b8ff" stroke="#63b8ff" points="176.07,-89.55 186.42,-91.81 179.74,-83.59 176.07,-89.55"/>
</a>
</g>
</g>
<!-- Node9 -->
<g id="Node000009" class="node">
<title>Node9</title>
<g id="a_Node000009"><a xlink:href="../../d5/d26/magnetic__fluxes_8f90.html#a017a13ebb77985454dd008ccdb9f4402" target="_top" xlink:title="Compute the enclosed toroidal magnetic flux.">
<polygon fill="white" stroke="#666666" points="225.75,-57.25 184.25,-57.25 184.25,-38 225.75,-38 225.75,-57.25"/>
<text text-anchor="middle" x="205" y="-43.75" font-family="Helvetica,sans-Serif" font-size="10.00">torflux</text>
</a>
</g>
</g>
<!-- Node2&#45;&gt;Node9 -->
<g id="edge11_Node000002_Node000009" class="edge">
<title>Node2&#45;&gt;Node9</title>
<g id="a_edge11_Node000002_Node000009"><a xlink:title=" ">
<path fill="none" stroke="#63b8ff" d="M148.67,-47.62C156.44,-47.62 164.66,-47.62 172.33,-47.62"/>
<polygon fill="#63b8ff" stroke="#63b8ff" points="172.25,-51.13 182.25,-47.63 172.25,-44.13 172.25,-51.13"/>
</a>
</g>
</g>
<!-- Node10 -->
<g id="Node000010" class="node">
<title>Node10</title>
<g id="a_Node000010"><a xlink:href="../../d5/d26/magnetic__fluxes_8f90.html#a909f811a00045c6fef3c379defc1ed09" target="_top" xlink:title="Compute the radial derivative of the enclosed toroidal magnetic flux.">
<polygon fill="white" stroke="#666666" points="352.75,-19.25 285,-19.25 285,0 352.75,0 352.75,-19.25"/>
<text text-anchor="middle" x="318.88" y="-5.75" font-family="Helvetica,sans-Serif" font-size="10.00">torflux_deriv</text>
</a>
</g>
</g>
<!-- Node2&#45;&gt;Node10 -->
<g id="edge15_Node000002_Node000010" class="edge">
<title>Node2&#45;&gt;Node10</title>
<g id="a_edge15_Node000002_Node000010"><a xlink:title=" ">
<path fill="none" stroke="#63b8ff" d="M148.06,-37.59C159.47,-34.41 172.35,-31.09 184.25,-28.62 213.7,-22.54 247.21,-17.78 273.3,-14.55"/>
<polygon fill="#63b8ff" stroke="#63b8ff" points="273.72,-18.02 283.22,-13.35 272.88,-11.07 273.72,-18.02"/>
</a>
</g>
</g>
<!-- Node3&#45;&gt;Node3 -->
<g id="edge5_Node000003_Node000003" class="edge">
<title>Node3&#45;&gt;Node3</title>
<g id="a_edge5_Node000003_Node000003"><a xlink:title=" ">
<path fill="none" stroke="#63b8ff" d="M190.69,-112.54C184.17,-121.15 188.94,-130.25 205,-130.25 213.78,-130.25 219.19,-127.53 221.22,-123.65"/>
<polygon fill="#63b8ff" stroke="#63b8ff" points="224.71,-123.29 219.56,-114.03 217.81,-124.48 224.71,-123.29"/>
</a>
</g>
</g>
<!-- Node4 -->
<g id="Node000004" class="node">
<title>Node4</title>
<g id="a_Node000004"><a xlink:href="../../d2/dcb/namespaceline__segment.html#aa63bfde0ff39e19622f7f5fe150e8b59" target="_top" xlink:title=" ">
<polygon fill="white" stroke="#666666" points="376,-185.25 261.75,-185.25 261.75,-166 376,-166 376,-185.25"/>
<text text-anchor="middle" x="318.88" y="-171.75" font-family="Helvetica,sans-Serif" font-size="10.00">line_segment::line_seg</text>
</a>
</g>
</g>
<!-- Node3&#45;&gt;Node4 -->
<g id="edge4_Node000003_Node000004" class="edge">
<title>Node3&#45;&gt;Node4</title>
<g id="a_edge4_Node000003_Node000004"><a xlink:title=" ">
<path fill="none" stroke="#63b8ff" d="M213.61,-112.59C223.46,-124.85 241.75,-145.51 261.75,-157.62 263.77,-158.85 265.88,-159.99 268.04,-161.07"/>
<polygon fill="#63b8ff" stroke="#63b8ff" points="266.54,-164.23 277.11,-165.01 269.33,-157.81 266.54,-164.23"/>
</a>
</g>
</g>
<!-- Node5 -->
<g id="Node000005" class="node">
<title>Node5</title>
<g id="a_Node000005"><a xlink:href="../../de/de4/explore__spline__akima_8f90.html#a7517a5f00e408c447a9dd0e438f60e52" target="_top" xlink:title=" ">
<polygon fill="white" stroke="#666666" points="355.38,-148.25 282.38,-148.25 282.38,-129 355.38,-129 355.38,-148.25"/>
<text text-anchor="middle" x="318.88" y="-134.75" font-family="Helvetica,sans-Serif" font-size="10.00">spline_akima</text>
</a>
</g>
</g>
<!-- Node3&#45;&gt;Node5 -->
<g id="edge6_Node000003_Node000005" class="edge">
<title>Node3&#45;&gt;Node5</title>
<g id="a_edge6_Node000003_Node000005"><a xlink:title=" ">
<path fill="none" stroke="#63b8ff" d="M223.82,-108.39C234.77,-111.93 249.07,-116.54 261.75,-120.62 266.24,-122.07 270.94,-123.58 275.62,-125.08"/>
<polygon fill="#63b8ff" stroke="#63b8ff" points="274.37,-128.36 284.97,-128.08 276.51,-121.69 274.37,-128.36"/>
</a>
</g>
</g>
<!-- Node6 -->
<g id="Node000006" class="node">
<title>Node6</title>
<g id="a_Node000006"><a xlink:href="../../d8/d60/spline__cubic_8f.html#a60e9606a5fa1dcb7f79f9259b8e0d067" target="_top" xlink:title=" ">
<polygon fill="white" stroke="#666666" points="353.88,-111.25 283.88,-111.25 283.88,-92 353.88,-92 353.88,-111.25"/>
<text text-anchor="middle" x="318.88" y="-97.75" font-family="Helvetica,sans-Serif" font-size="10.00">spline_cubic</text>
</a>
</g>
</g>
<!-- Node3&#45;&gt;Node6 -->
<g id="edge7_Node000003_Node000006" class="edge">
<title>Node3&#45;&gt;Node6</title>
<g id="a_edge7_Node000003_Node000006"><a xlink:title=" ">
<path fill="none" stroke="#63b8ff" d="M223.97,-102.46C237.02,-102.35 255.29,-102.18 272.25,-102.03"/>
<polygon fill="#63b8ff" stroke="#63b8ff" points="272.21,-105.53 282.18,-101.94 272.15,-98.53 272.21,-105.53"/>
</a>
</g>
</g>
<!-- Node8 -->
<g id="Node000008" class="node">
<title>Node8</title>
<g id="a_Node000008"><a xlink:href="../../d1/d4a/tolower_8f90.html#af0b4b410165cce4c9f0e5e6d82d21571" target="_top" xlink:title="Convert a string to lower case.">
<polygon fill="white" stroke="#666666" points="342.62,-74.25 295.12,-74.25 295.12,-55 342.62,-55 342.62,-74.25"/>
<text text-anchor="middle" x="318.88" y="-60.75" font-family="Helvetica,sans-Serif" font-size="10.00">tolower</text>
</a>
</g>
</g>
<!-- Node3&#45;&gt;Node8 -->
<g id="edge9_Node000003_Node000008" class="edge">
<title>Node3&#45;&gt;Node8</title>
<g id="a_edge9_Node000003_Node000008"><a xlink:title=" ">
<path fill="none" stroke="#63b8ff" d="M223.77,-96.07C234.7,-92.09 249,-86.96 261.75,-82.62 268.96,-80.18 276.71,-77.63 284.09,-75.25"/>
<polygon fill="#63b8ff" stroke="#63b8ff" points="284.98,-78.65 293.44,-72.27 282.85,-71.98 284.98,-78.65"/>
</a>
</g>
</g>
<!-- Node7 -->
<g id="Node000007" class="node">
<title>Node7</title>
<g id="a_Node000007"><a xlink:href="../../d8/d60/spline__cubic_8f.html#a83fa704212982fff74dee5f6c68b241f" target="_top" xlink:title=" ">
<polygon fill="white" stroke="#666666" points="467,-111.25 412,-111.25 412,-92 467,-92 467,-111.25"/>
<text text-anchor="middle" x="439.5" y="-97.75" font-family="Helvetica,sans-Serif" font-size="10.00">spline_nr</text>
</a>
</g>
</g>
<!-- Node6&#45;&gt;Node7 -->
<g id="edge8_Node000006_Node000007" class="edge">
<title>Node6&#45;&gt;Node7</title>
<g id="a_edge8_Node000006_Node000007"><a xlink:title=" ">
<path fill="none" stroke="#63b8ff" d="M354.19,-101.62C368.66,-101.62 385.56,-101.62 400.41,-101.62"/>
<polygon fill="#63b8ff" stroke="#63b8ff" points="400.29,-105.13 410.29,-101.63 400.29,-98.13 400.29,-105.13"/>
</a>
</g>
</g>
<!-- Node9&#45;&gt;Node9 -->
<g id="edge12_Node000009_Node000009" class="edge">
<title>Node9&#45;&gt;Node9</title>
<g id="a_edge12_Node000009_Node000009"><a xlink:title=" ">
<path fill="none" stroke="#63b8ff" d="M190.69,-57.54C184.17,-66.15 188.94,-75.25 205,-75.25 213.78,-75.25 219.19,-72.53 221.22,-68.65"/>
<polygon fill="#63b8ff" stroke="#63b8ff" points="224.71,-68.29 219.56,-59.03 217.81,-69.48 224.71,-68.29"/>
</a>
</g>
</g>
<!-- Node9&#45;&gt;Node10 -->
<g id="edge13_Node000009_Node000010" class="edge">
<title>Node9&#45;&gt;Node10</title>
<g id="a_edge13_Node000009_Node000010"><a xlink:title=" ">
<path fill="none" stroke="#63b8ff" d="M226,-40.83C240.37,-35.95 260.21,-29.21 277.79,-23.24"/>
<polygon fill="#63b8ff" stroke="#63b8ff" points="278.59,-26.66 286.93,-20.13 276.34,-20.04 278.59,-26.66"/>
</a>
</g>
</g>
<!-- Node10&#45;&gt;Node10 -->
<g id="edge14_Node000010_Node000010" class="edge">
<title>Node10&#45;&gt;Node10</title>
<g id="a_edge14_Node000010_Node000010"><a xlink:title=" ">
<path fill="none" stroke="#63b8ff" d="M301.05,-19.54C292.92,-28.15 298.86,-37.25 318.88,-37.25 329.82,-37.25 336.56,-34.53 339.09,-30.65"/>
<polygon fill="#63b8ff" stroke="#63b8ff" points="342.54,-30.06 337.02,-21.02 335.7,-31.53 342.54,-30.06"/>
</a>
</g>
</g>
</g>
</svg>
</svg>

<style type='text/css'>
<![CDATA[
[data-mouse-over-selected='false'] { opacity: 0.7; }
[data-mouse-over-selected='true']  { opacity: 1.0; }
]]>
</style>
<script type="application/ecmascript"><![CDATA[
document.addEventListener('DOMContentLoaded', (event) => {
  highlightEdges();
  highlightAdjacentNodes();
});
]]></script>
</svg>
