<?xml version="1.0" encoding="UTF-8" standalone="no"?>
<!DOCTYPE svg PUBLIC "-//W3C//DTD SVG 1.1//EN"
 "http://www.w3.org/Graphics/SVG/1.1/DTD/svg11.dtd">
<!-- Generated by graphviz version 8.1.0 (20230707.0739)
 -->
<!-- Title: torflux_deriv Pages: 1 -->
<svg width="338pt" height="73pt"
 viewBox="0.00 0.00 337.50 73.25" xmlns="http://www.w3.org/2000/svg" xmlns:xlink="http://www.w3.org/1999/xlink">
<g id="graph0" class="graph" transform="scale(1 1) rotate(0) translate(4 69.25)">
<title>torflux_deriv</title>
<!-- Node1 -->
<g id="Node000001" class="node">
<title>Node1</title>
<g id="a_Node000001"><a xlink:title="Compute the radial derivative of the enclosed toroidal magnetic flux.">
<polygon fill="#999999" stroke="#666666" points="329.5,-47.25 261.75,-47.25 261.75,-28 329.5,-28 329.5,-47.25"/>
<text text-anchor="middle" x="295.62" y="-33.75" font-family="Helvetica,sans-Serif" font-size="10.00">torflux_deriv</text>
</a>
</g>
</g>
<!-- Node1&#45;&gt;Node1 -->
<g id="edge8_Node000001_Node000001" class="edge">
<title>Node1&#45;&gt;Node1</title>
<g id="a_edge8_Node000001_Node000001"><a xlink:title=" ">
<path fill="none" stroke="#63b8ff" d="M311.88,-58.32C310,-62.37 304.59,-65.25 295.62,-65.25 279.69,-65.25 274.97,-56.15 281.44,-47.54"/>
<polygon fill="#63b8ff" stroke="#63b8ff" points="315.13,-57.7 309.81,-48.54 308.25,-59.02 315.13,-57.7"/>
</a>
</g>
</g>
<!-- Node2 -->
<g id="Node000002" class="node">
<title>Node2</title>
<g id="a_Node000002"><a xlink:href="../../d5/d26/magnetic__fluxes_8f90.html#ad5e5642d688664c85a181c2d1fd6497f" target="_top" xlink:title="Compute the radial derivative of the enclosed poloidal magnetic flux.">
<polygon fill="white" stroke="#666666" points="148.25,-47.25 79,-47.25 79,-28 148.25,-28 148.25,-47.25"/>
<text text-anchor="middle" x="113.62" y="-33.75" font-family="Helvetica,sans-Serif" font-size="10.00">polflux_deriv</text>
</a>
</g>
</g>
<!-- Node1&#45;&gt;Node2 -->
<g id="edge1_Node000001_Node000002" class="edge">
<title>Node1&#45;&gt;Node2</title>
<g id="a_edge1_Node000001_Node000002"><a xlink:title=" ">
<path fill="none" stroke="#63b8ff" d="M250.78,-44.22C242.49,-45.22 233.87,-46.1 225.75,-46.62 207.34,-47.82 202.66,-47.81 184.25,-46.62 172.57,-45.87 159.86,-44.42 148.54,-42.9"/>
<polygon fill="#63b8ff" stroke="#63b8ff" points="250.96,-47.6 260.43,-42.85 250.06,-40.66 250.96,-47.6"/>
</a>
</g>
</g>
<!-- Node4 -->
<g id="Node000004" class="node">
<title>Node4</title>
<g id="a_Node000004"><a xlink:href="../../d5/d26/magnetic__fluxes_8f90.html#a017a13ebb77985454dd008ccdb9f4402" target="_top" xlink:title="Compute the enclosed toroidal magnetic flux.">
<polygon fill="white" stroke="#666666" points="225.75,-19.25 184.25,-19.25 184.25,0 225.75,0 225.75,-19.25"/>
<text text-anchor="middle" x="205" y="-5.75" font-family="Helvetica,sans-Serif" font-size="10.00">torflux</text>
</a>
</g>
</g>
<!-- Node1&#45;&gt;Node4 -->
<g id="edge5_Node000001_Node000004" class="edge">
<title>Node1&#45;&gt;Node4</title>
<g id="a_edge5_Node000001_Node000004"><a xlink:title=" ">
<path fill="none" stroke="#63b8ff" d="M252.4,-24.29C243.23,-21.39 233.93,-18.45 226.1,-15.97"/>
<polygon fill="#63b8ff" stroke="#63b8ff" points="251.04,-27.84 261.63,-27.52 253.15,-21.17 251.04,-27.84"/>
</a>
</g>
</g>
<!-- Node2&#45;&gt;Node2 -->
<g id="edge4_Node000002_Node000002" class="edge">
<title>Node2&#45;&gt;Node2</title>
<g id="a_edge4_Node000002_Node000002"><a xlink:title=" ">
<path fill="none" stroke="#63b8ff" d="M130.01,-58.32C128.12,-62.37 122.66,-65.25 113.62,-65.25 97.56,-65.25 92.79,-56.15 99.32,-47.54"/>
<polygon fill="#63b8ff" stroke="#63b8ff" points="133.26,-57.69 127.93,-48.54 126.39,-59.02 133.26,-57.69"/>
</a>
</g>
</g>
<!-- Node3 -->
<g id="Node000003" class="node">
<title>Node3</title>
<g id="a_Node000003"><a xlink:href="../../d5/d26/magnetic__fluxes_8f90.html#a9d78c3bac80a4d14cc82a93bc79e7dcd" target="_top" xlink:title="Compute the enclosed poloidal magnetic flux.">
<polygon fill="white" stroke="#666666" points="43,-47.25 0,-47.25 0,-28 43,-28 43,-47.25"/>
<text text-anchor="middle" x="21.5" y="-33.75" font-family="Helvetica,sans-Serif" font-size="10.00">polflux</text>
</a>
</g>
</g>
<!-- Node2&#45;&gt;Node3 -->
<g id="edge2_Node000002_Node000003" class="edge">
<title>Node2&#45;&gt;Node3</title>
<g id="a_edge2_Node000002_Node000003"><a xlink:title=" ">
<path fill="none" stroke="#63b8ff" d="M67.79,-37.62C59.22,-37.62 50.64,-37.62 43.28,-37.62"/>
<polygon fill="#63b8ff" stroke="#63b8ff" points="67.55,-41.13 77.55,-37.62 67.55,-34.13 67.55,-41.13"/>
</a>
</g>
</g>
<!-- Node3&#45;&gt;Node3 -->
<g id="edge3_Node000003_Node000003" class="edge">
<title>Node3&#45;&gt;Node3</title>
<g id="a_edge3_Node000003_Node000003"><a xlink:title=" ">
<path fill="none" stroke="#63b8ff" d="M38.02,-58.32C36.12,-62.37 30.61,-65.25 21.5,-65.25 5.31,-65.25 0.5,-56.15 7.08,-47.54"/>
<polygon fill="#63b8ff" stroke="#63b8ff" points="41.27,-57.69 35.92,-48.54 34.4,-59.02 41.27,-57.69"/>
</a>
</g>
</g>
<!-- Node4&#45;&gt;Node2 -->
<g id="edge6_Node000004_Node000002" class="edge">
<title>Node4&#45;&gt;Node2</title>
<g id="a_edge6_Node000004_Node000002"><a xlink:title=" ">
<path fill="none" stroke="#63b8ff" d="M173.7,-19.12C165,-21.84 155.49,-24.82 146.69,-27.58"/>
<polygon fill="#63b8ff" stroke="#63b8ff" points="174.67,-22.17 183.16,-15.84 172.58,-15.49 174.67,-22.17"/>
</a>
</g>
</g>
<!-- Node4&#45;&gt;Node4 -->
<g id="edge7_Node000004_Node000004" class="edge">
<title>Node4&#45;&gt;Node4</title>
<g id="a_edge7_Node000004_Node000004"><a xlink:title=" ">
<path fill="none" stroke="#63b8ff" d="M221.25,-30.32C219.38,-34.37 213.96,-37.25 205,-37.25 189.07,-37.25 184.34,-28.15 190.81,-19.54"/>
<polygon fill="#63b8ff" stroke="#63b8ff" points="224.5,-29.7 219.19,-20.54 217.63,-31.02 224.5,-29.7"/>
</a>
</g>
</g>
</g>
</svg>
