<?xml version="1.0" encoding="UTF-8" standalone="no"?>
<!DOCTYPE svg PUBLIC "-//W3C//DTD SVG 1.1//EN"
 "http://www.w3.org/Graphics/SVG/1.1/DTD/svg11.dtd">
<!-- Generated by graphviz version 12.2.1 (20241206.2353)
 -->
<!-- Title: polflux_deriv Pages: 1 -->
<svg width="156pt" height="45pt"
 viewBox="0.00 0.00 156.25 45.25" xmlns="http://www.w3.org/2000/svg" xmlns:xlink="http://www.w3.org/1999/xlink">
<g id="graph0" class="graph" transform="scale(1 1) rotate(0) translate(4 41.25)">
<title>polflux_deriv</title>
<!-- Node1 -->
<g id="Node000001" class="node">
<title>Node1</title>
<g id="a_Node000001"><a xlink:title="Compute the radial derivative of the enclosed poloidal magnetic flux.">
<polygon fill="#999999" stroke="#666666" points="148.25,-19.25 79,-19.25 79,0 148.25,0 148.25,-19.25"/>
<text text-anchor="middle" x="113.62" y="-5.75" font-family="Helvetica,sans-Serif" font-size="10.00">polflux_deriv</text>
</a>
</g>
</g>
<!-- Node1&#45;&gt;Node1 -->
<g id="edge3_Node000001_Node000001" class="edge">
<title>Node1&#45;&gt;Node1</title>
<g id="a_edge3_Node000001_Node000001"><a xlink:title=" ">
<path fill="none" stroke="#63b8ff" d="M129.98,-30.65C127.93,-34.53 122.48,-37.25 113.62,-37.25 97.43,-37.25 92.62,-28.15 99.2,-19.54"/>
<polygon fill="#63b8ff" stroke="#63b8ff" points="133.47,-30.28 128.31,-21.03 126.57,-31.48 133.47,-30.28"/>
</a>
</g>
</g>
<!-- Node2 -->
<g id="Node000002" class="node">
<title>Node2</title>
<g id="a_Node000002"><a xlink:href="../../d5/d26/magnetic__fluxes_8f90.html#a9d78c3bac80a4d14cc82a93bc79e7dcd" target="_top" xlink:title="Compute the enclosed poloidal magnetic flux.">
<polygon fill="white" stroke="#666666" points="43,-19.25 0,-19.25 0,0 43,0 43,-19.25"/>
<text text-anchor="middle" x="21.5" y="-5.75" font-family="Helvetica,sans-Serif" font-size="10.00">polflux</text>
</a>
</g>
</g>
<!-- Node1&#45;&gt;Node2 -->
<g id="edge1_Node000001_Node000002" class="edge">
<title>Node1&#45;&gt;Node2</title>
<g id="a_edge1_Node000001_Node000002"><a xlink:title=" ">
<path fill="none" stroke="#63b8ff" d="M67.22,-9.62C58.84,-9.62 50.47,-9.62 43.28,-9.62"/>
<polygon fill="#63b8ff" stroke="#63b8ff" points="67.04,-13.13 77.04,-9.63 67.04,-6.13 67.04,-13.13"/>
</a>
</g>
</g>
<!-- Node2&#45;&gt;Node2 -->
<g id="edge2_Node000002_Node000002" class="edge">
<title>Node2&#45;&gt;Node2</title>
<g id="a_edge2_Node000002_Node000002"><a xlink:title=" ">
<path fill="none" stroke="#63b8ff" d="M37.85,-30.65C35.81,-34.53 30.36,-37.25 21.5,-37.25 5.31,-37.25 0.5,-28.15 7.08,-19.54"/>
<polygon fill="#63b8ff" stroke="#63b8ff" points="41.34,-30.28 36.18,-21.03 34.44,-31.48 41.34,-30.28"/>
</a>
</g>
</g>
</g>
</svg>
