<?xml version="1.0" encoding="UTF-8" standalone="no"?>
<!DOCTYPE svg PUBLIC "-//W3C//DTD SVG 1.1//EN"
 "http://www.w3.org/Graphics/SVG/1.1/DTD/svg11.dtd">
<!-- Generated by graphviz version 7.1.0 (20230121.1956)
 -->
<!-- Title: polflux Pages: 1 -->
<svg width="479pt" height="193pt"
 viewBox="0.00 0.00 479.00 193.00" xmlns="http://www.w3.org/2000/svg" xmlns:xlink="http://www.w3.org/1999/xlink">
<g id="graph0" class="graph" transform="scale(1 1) rotate(0) translate(4 189)">
<title>polflux</title>
<!-- Node1 -->
<g id="node1" class="node">
<title>Node1</title>
<g id="a_node1"><a xlink:title="Compute the enclosed poloidal magnetic flux.">
<polygon fill="#999999" stroke="#666666" points="44,-57 0,-57 0,-38 44,-38 44,-57"/>
<text text-anchor="middle" x="22" y="-45" font-family="Helvetica,sans-Serif" font-size="10.00">polflux</text>
</a>
</g>
</g>
<!-- Node1&#45;&gt;Node1 -->
<g id="edge1" class="edge">
<title>Node1&#45;&gt;Node1</title>
<path fill="none" stroke="#63b8ff" d="M7.44,-57.37C0.8,-65.94 5.65,-75 22,-75 30.94,-75 36.44,-72.29 38.51,-68.43"/>
<polygon fill="#63b8ff" stroke="#63b8ff" points="42,-68.1 36.82,-58.86 35.11,-69.31 42,-68.1"/>
</g>
<!-- Node2 -->
<g id="node2" class="node">
<title>Node2</title>
<g id="a_node2"><a xlink:href="../../d5/d26/magnetic__fluxes_8f90.html#ad5e5642d688664c85a181c2d1fd6497f" target="_top" xlink:title="Compute the radial derivative of the enclosed poloidal magnetic flux.">
<polygon fill="white" stroke="#666666" points="150,-57 80,-57 80,-38 150,-38 150,-57"/>
<text text-anchor="middle" x="115" y="-45" font-family="Helvetica,sans-Serif" font-size="10.00">polflux_deriv</text>
</a>
</g>
</g>
<!-- Node1&#45;&gt;Node2 -->
<g id="edge2" class="edge">
<title>Node1&#45;&gt;Node2</title>
<path fill="none" stroke="#63b8ff" d="M44.11,-47.5C51.4,-47.5 59.88,-47.5 68.36,-47.5"/>
<polygon fill="#63b8ff" stroke="#63b8ff" points="68.31,-51 78.31,-47.5 68.31,-44 68.31,-51"/>
</g>
<!-- Node2&#45;&gt;Node2 -->
<g id="edge10" class="edge">
<title>Node2&#45;&gt;Node2</title>
<path fill="none" stroke="#63b8ff" d="M100.6,-57.37C94.03,-65.94 98.83,-75 115,-75 123.84,-75 129.29,-72.29 131.33,-68.43"/>
<polygon fill="#63b8ff" stroke="#63b8ff" points="134.83,-68.11 129.66,-58.86 127.93,-69.31 134.83,-68.11"/>
</g>
<!-- Node3 -->
<g id="node3" class="node">
<title>Node3</title>
<g id="a_node3"><a xlink:href="../../da/dc8/profile__functions_8f.html#a437348e2a0ee2ababaeca2205a78b85c" target="_top" xlink:title=" ">
<polygon fill="white" stroke="#666666" points="226,-112 188,-112 188,-93 226,-93 226,-112"/>
<text text-anchor="middle" x="207" y="-100" font-family="Helvetica,sans-Serif" font-size="10.00">piota</text>
</a>
</g>
</g>
<!-- Node2&#45;&gt;Node3 -->
<g id="edge3" class="edge">
<title>Node2&#45;&gt;Node3</title>
<path fill="none" stroke="#63b8ff" d="M132.09,-57.33C145.45,-65.49 164.69,-77.26 180.2,-86.73"/>
<polygon fill="#63b8ff" stroke="#63b8ff" points="178.1,-89.55 188.45,-91.78 181.75,-83.58 178.1,-89.55"/>
</g>
<!-- Node9 -->
<g id="node9" class="node">
<title>Node9</title>
<g id="a_node9"><a xlink:href="../../d5/d26/magnetic__fluxes_8f90.html#a017a13ebb77985454dd008ccdb9f4402" target="_top" xlink:title="Compute the enclosed toroidal magnetic flux.">
<polygon fill="white" stroke="#666666" points="228,-57 186,-57 186,-38 228,-38 228,-57"/>
<text text-anchor="middle" x="207" y="-45" font-family="Helvetica,sans-Serif" font-size="10.00">torflux</text>
</a>
</g>
</g>
<!-- Node2&#45;&gt;Node9 -->
<g id="edge11" class="edge">
<title>Node2&#45;&gt;Node9</title>
<path fill="none" stroke="#63b8ff" d="M150.28,-47.5C158.2,-47.5 166.59,-47.5 174.38,-47.5"/>
<polygon fill="#63b8ff" stroke="#63b8ff" points="174.11,-51 184.11,-47.5 174.11,-44 174.11,-51"/>
</g>
<!-- Node10 -->
<g id="node10" class="node">
<title>Node10</title>
<g id="a_node10"><a xlink:href="../../d5/d26/magnetic__fluxes_8f90.html#a909f811a00045c6fef3c379defc1ed09" target="_top" xlink:title="Compute the radial derivative of the enclosed toroidal magnetic flux.">
<polygon fill="white" stroke="#666666" points="355.5,-19 287.5,-19 287.5,0 355.5,0 355.5,-19"/>
<text text-anchor="middle" x="321.5" y="-7" font-family="Helvetica,sans-Serif" font-size="10.00">torflux_deriv</text>
</a>
</g>
</g>
<!-- Node2&#45;&gt;Node10 -->
<g id="edge15" class="edge">
<title>Node2&#45;&gt;Node10</title>
<path fill="none" stroke="#63b8ff" d="M149.27,-37.56C160.82,-34.35 173.91,-30.98 186,-28.5 215.78,-22.38 249.68,-17.61 275.99,-14.37"/>
<polygon fill="#63b8ff" stroke="#63b8ff" points="276.12,-17.88 285.63,-13.22 275.29,-10.93 276.12,-17.88"/>
</g>
<!-- Node3&#45;&gt;Node3 -->
<g id="edge5" class="edge">
<title>Node3&#45;&gt;Node3</title>
<path fill="none" stroke="#63b8ff" d="M192.6,-112.37C186.03,-120.94 190.83,-130 207,-130 215.84,-130 221.29,-127.29 223.33,-123.43"/>
<polygon fill="#63b8ff" stroke="#63b8ff" points="226.83,-123.11 221.66,-113.86 219.93,-124.31 226.83,-123.11"/>
</g>
<!-- Node4 -->
<g id="node4" class="node">
<title>Node4</title>
<g id="a_node4"><a xlink:href="../../d2/dcb/namespaceline__segment.html#aa63bfde0ff39e19622f7f5fe150e8b59" target="_top" xlink:title=" ">
<polygon fill="white" stroke="#666666" points="379,-185 264,-185 264,-166 379,-166 379,-185"/>
<text text-anchor="middle" x="321.5" y="-173" font-family="Helvetica,sans-Serif" font-size="10.00">line_segment::line_seg</text>
</a>
</g>
</g>
<!-- Node3&#45;&gt;Node4 -->
<g id="edge4" class="edge">
<title>Node3&#45;&gt;Node4</title>
<path fill="none" stroke="#63b8ff" d="M215.65,-112.47C225.55,-124.73 243.93,-145.4 264,-157.5 266.15,-158.8 268.4,-160.01 270.72,-161.14"/>
<polygon fill="#63b8ff" stroke="#63b8ff" points="269.2,-164.3 279.77,-165.01 271.95,-157.86 269.2,-164.3"/>
</g>
<!-- Node5 -->
<g id="node5" class="node">
<title>Node5</title>
<g id="a_node5"><a xlink:href="../../de/de4/explore__spline__akima_8f90.html#a7517a5f00e408c447a9dd0e438f60e52" target="_top" xlink:title=" ">
<polygon fill="white" stroke="#666666" points="358.5,-148 284.5,-148 284.5,-129 358.5,-129 358.5,-148"/>
<text text-anchor="middle" x="321.5" y="-136" font-family="Helvetica,sans-Serif" font-size="10.00">spline_akima</text>
</a>
</g>
</g>
<!-- Node3&#45;&gt;Node5 -->
<g id="edge6" class="edge">
<title>Node3&#45;&gt;Node5</title>
<path fill="none" stroke="#63b8ff" d="M226.41,-108.43C237.33,-111.95 251.45,-116.48 264,-120.5 268.7,-122.01 273.63,-123.58 278.53,-125.14"/>
<polygon fill="#63b8ff" stroke="#63b8ff" points="277.08,-128.35 287.67,-128.06 279.21,-121.69 277.08,-128.35"/>
</g>
<!-- Node6 -->
<g id="node6" class="node">
<title>Node6</title>
<g id="a_node6"><a xlink:href="../../d8/d60/spline__cubic_8f.html#a60e9606a5fa1dcb7f79f9259b8e0d067" target="_top" xlink:title=" ">
<polygon fill="white" stroke="#666666" points="357,-111 286,-111 286,-92 357,-92 357,-111"/>
<text text-anchor="middle" x="321.5" y="-99" font-family="Helvetica,sans-Serif" font-size="10.00">spline_cubic</text>
</a>
</g>
</g>
<!-- Node3&#45;&gt;Node6 -->
<g id="edge7" class="edge">
<title>Node3&#45;&gt;Node6</title>
<path fill="none" stroke="#63b8ff" d="M226.33,-102.34C239.38,-102.22 257.53,-102.06 274.41,-101.91"/>
<polygon fill="#63b8ff" stroke="#63b8ff" points="274.34,-105.41 284.31,-101.82 274.28,-98.41 274.34,-105.41"/>
</g>
<!-- Node8 -->
<g id="node8" class="node">
<title>Node8</title>
<g id="a_node8"><a xlink:href="../../d1/d4a/tolower_8f90.html#af0b4b410165cce4c9f0e5e6d82d21571" target="_top" xlink:title="Convert a string to lower case.">
<polygon fill="white" stroke="#666666" points="345.5,-74 297.5,-74 297.5,-55 345.5,-55 345.5,-74"/>
<text text-anchor="middle" x="321.5" y="-62" font-family="Helvetica,sans-Serif" font-size="10.00">tolower</text>
</a>
</g>
</g>
<!-- Node3&#45;&gt;Node8 -->
<g id="edge9" class="edge">
<title>Node3&#45;&gt;Node8</title>
<path fill="none" stroke="#63b8ff" d="M226.36,-95.76C237.26,-91.81 251.38,-86.76 264,-82.5 271.19,-80.07 278.92,-77.55 286.29,-75.19"/>
<polygon fill="#63b8ff" stroke="#63b8ff" points="287.16,-78.58 295.63,-72.22 285.04,-71.91 287.16,-78.58"/>
</g>
<!-- Node7 -->
<g id="node7" class="node">
<title>Node7</title>
<g id="a_node7"><a xlink:href="../../d8/d60/spline__cubic_8f.html#a83fa704212982fff74dee5f6c68b241f" target="_top" xlink:title=" ">
<polygon fill="white" stroke="#666666" points="471,-111 415,-111 415,-92 471,-92 471,-111"/>
<text text-anchor="middle" x="443" y="-99" font-family="Helvetica,sans-Serif" font-size="10.00">spline_nr</text>
</a>
</g>
</g>
<!-- Node6&#45;&gt;Node7 -->
<g id="edge8" class="edge">
<title>Node6&#45;&gt;Node7</title>
<path fill="none" stroke="#63b8ff" d="M357.39,-101.5C371.85,-101.5 388.67,-101.5 403.49,-101.5"/>
<polygon fill="#63b8ff" stroke="#63b8ff" points="403.35,-105 413.35,-101.5 403.35,-98 403.35,-105"/>
</g>
<!-- Node9&#45;&gt;Node9 -->
<g id="edge12" class="edge">
<title>Node9&#45;&gt;Node9</title>
<path fill="none" stroke="#63b8ff" d="M192.6,-57.37C186.03,-65.94 190.83,-75 207,-75 215.84,-75 221.29,-72.29 223.33,-68.43"/>
<polygon fill="#63b8ff" stroke="#63b8ff" points="226.83,-68.11 221.66,-58.86 219.93,-69.31 226.83,-68.11"/>
</g>
<!-- Node9&#45;&gt;Node10 -->
<g id="edge13" class="edge">
<title>Node9&#45;&gt;Node10</title>
<path fill="none" stroke="#63b8ff" d="M228.37,-40.62C242.85,-35.73 262.76,-29 280.36,-23.06"/>
<polygon fill="#63b8ff" stroke="#63b8ff" points="281.17,-26.48 289.53,-19.96 278.93,-19.85 281.17,-26.48"/>
</g>
<!-- Node10&#45;&gt;Node10 -->
<g id="edge14" class="edge">
<title>Node10&#45;&gt;Node10</title>
<path fill="none" stroke="#63b8ff" d="M303.57,-19.37C295.4,-27.94 301.37,-37 321.5,-37 332.51,-37 339.28,-34.29 341.82,-30.43"/>
<polygon fill="#63b8ff" stroke="#63b8ff" points="345.29,-29.88 339.75,-20.85 338.44,-31.36 345.29,-29.88"/>
</g>
</g>
</svg>
