<?xml version="1.0" encoding="UTF-8" standalone="no"?>
<!DOCTYPE svg PUBLIC "-//W3C//DTD SVG 1.1//EN"
 "http://www.w3.org/Graphics/SVG/1.1/DTD/svg11.dtd">
<!-- Generated by graphviz version 2.47.1 (20210421.1823)
 -->
<!-- Title: polflux_deriv Pages: 1 -->
<svg width="399pt" height="180pt"
 viewBox="0.00 0.00 399.00 180.00" xmlns="http://www.w3.org/2000/svg" xmlns:xlink="http://www.w3.org/1999/xlink">
<g id="graph0" class="graph" transform="scale(1 1) rotate(0) translate(4 176)">
<title>polflux_deriv</title>
<polygon fill="white" stroke="transparent" points="-4,4 -4,-176 395,-176 395,4 -4,4"/>
<!-- Node1 -->
<g id="node1" class="node">
<title>Node1</title>
<g id="a_node1"><a xlink:title="Compute the radial derivative of the enclosed poloidal magnetic flux.">
<polygon fill="#bfbfbf" stroke="black" points="0,-38.5 0,-57.5 70,-57.5 70,-38.5 0,-38.5"/>
<text text-anchor="middle" x="35" y="-45.5" font-family="Helvetica,sans-Serif" font-size="10.00">polflux_deriv</text>
</a>
</g>
</g>
<!-- Node2 -->
<g id="node2" class="node">
<title>Node2</title>
<g id="a_node2"><a xlink:href="../../da/dc8/profile__functions_8f.html#a437348e2a0ee2ababaeca2205a78b85c" target="_top" xlink:title=" ">
<polygon fill="white" stroke="black" points="108,-76.5 108,-95.5 146,-95.5 146,-76.5 108,-76.5"/>
<text text-anchor="middle" x="127" y="-83.5" font-family="Helvetica,sans-Serif" font-size="10.00">piota</text>
</a>
</g>
</g>
<!-- Node1&#45;&gt;Node2 -->
<g id="edge1" class="edge">
<title>Node1&#45;&gt;Node2</title>
<path fill="none" stroke="midnightblue" d="M58.71,-57.59C70.83,-62.71 85.83,-69.04 98.59,-74.43"/>
<polygon fill="midnightblue" stroke="midnightblue" points="97.25,-77.66 107.83,-78.33 99.98,-71.21 97.25,-77.66"/>
</g>
<!-- Node9 -->
<g id="node9" class="node">
<title>Node9</title>
<g id="a_node9"><a xlink:href="../../d5/d26/magnetic__fluxes_8f90.html#a017a13ebb77985454dd008ccdb9f4402" target="_top" xlink:title="Compute the enclosed toroidal magnetic flux.">
<polygon fill="white" stroke="black" points="106,-38.5 106,-57.5 148,-57.5 148,-38.5 106,-38.5"/>
<text text-anchor="middle" x="127" y="-45.5" font-family="Helvetica,sans-Serif" font-size="10.00">torflux</text>
</a>
</g>
</g>
<!-- Node1&#45;&gt;Node9 -->
<g id="edge8" class="edge">
<title>Node1&#45;&gt;Node9</title>
<path fill="none" stroke="midnightblue" d="M70.03,-48C78.4,-48 87.32,-48 95.51,-48"/>
<polygon fill="midnightblue" stroke="midnightblue" points="95.77,-51.5 105.77,-48 95.77,-44.5 95.77,-51.5"/>
</g>
<!-- Node10 -->
<g id="node10" class="node">
<title>Node10</title>
<g id="a_node10"><a xlink:href="../../d5/d26/magnetic__fluxes_8f90.html#a909f811a00045c6fef3c379defc1ed09" target="_top" xlink:title="Compute the radial derivative of the enclosed toroidal magnetic flux.">
<polygon fill="white" stroke="black" points="207.5,-0.5 207.5,-19.5 275.5,-19.5 275.5,-0.5 207.5,-0.5"/>
<text text-anchor="middle" x="241.5" y="-7.5" font-family="Helvetica,sans-Serif" font-size="10.00">torflux_deriv</text>
</a>
</g>
</g>
<!-- Node1&#45;&gt;Node10 -->
<g id="edge10" class="edge">
<title>Node1&#45;&gt;Node10</title>
<path fill="none" stroke="midnightblue" d="M67.86,-38.45C79.75,-35.13 93.42,-31.59 106,-29 136.28,-22.78 170.82,-17.94 197.32,-14.71"/>
<polygon fill="midnightblue" stroke="midnightblue" points="197.9,-18.17 207.41,-13.51 197.07,-11.22 197.9,-18.17"/>
</g>
<!-- Node3 -->
<g id="node3" class="node">
<title>Node3</title>
<g id="a_node3"><a xlink:href="../../d2/dcb/namespaceline__segment.html#aa63bfde0ff39e19622f7f5fe150e8b59" target="_top" xlink:title=" ">
<polygon fill="white" stroke="black" points="184,-152.5 184,-171.5 299,-171.5 299,-152.5 184,-152.5"/>
<text text-anchor="middle" x="241.5" y="-159.5" font-family="Helvetica,sans-Serif" font-size="10.00">line_segment::line_seg</text>
</a>
</g>
</g>
<!-- Node2&#45;&gt;Node3 -->
<g id="edge2" class="edge">
<title>Node2&#45;&gt;Node3</title>
<path fill="none" stroke="midnightblue" d="M135.26,-95.86C145.02,-108.46 163.54,-130.19 184,-143 187.31,-145.07 190.87,-146.95 194.54,-148.64"/>
<polygon fill="midnightblue" stroke="midnightblue" points="193.21,-151.87 203.79,-152.46 195.89,-145.41 193.21,-151.87"/>
</g>
<!-- Node4 -->
<g id="node4" class="node">
<title>Node4</title>
<g id="a_node4"><a xlink:href="../../d6/dec/spline__akima_8f.html#a7517a5f00e408c447a9dd0e438f60e52" target="_top" xlink:title=" ">
<polygon fill="white" stroke="black" points="204.5,-114.5 204.5,-133.5 278.5,-133.5 278.5,-114.5 204.5,-114.5"/>
<text text-anchor="middle" x="241.5" y="-121.5" font-family="Helvetica,sans-Serif" font-size="10.00">spline_akima</text>
</a>
</g>
</g>
<!-- Node2&#45;&gt;Node4 -->
<g id="edge3" class="edge">
<title>Node2&#45;&gt;Node4</title>
<path fill="none" stroke="midnightblue" d="M146.15,-92.17C157.11,-95.9 171.36,-100.73 184,-105 189.98,-107.02 196.33,-109.16 202.52,-111.24"/>
<polygon fill="midnightblue" stroke="midnightblue" points="201.45,-114.58 212.04,-114.45 203.68,-107.94 201.45,-114.58"/>
</g>
<!-- Node5 -->
<g id="node5" class="node">
<title>Node5</title>
<g id="a_node5"><a xlink:href="../../d8/d60/spline__cubic_8f.html#a60e9606a5fa1dcb7f79f9259b8e0d067" target="_top" xlink:title=" ">
<polygon fill="white" stroke="black" points="206,-76.5 206,-95.5 277,-95.5 277,-76.5 206,-76.5"/>
<text text-anchor="middle" x="241.5" y="-83.5" font-family="Helvetica,sans-Serif" font-size="10.00">spline_cubic</text>
</a>
</g>
</g>
<!-- Node2&#45;&gt;Node5 -->
<g id="edge4" class="edge">
<title>Node2&#45;&gt;Node5</title>
<path fill="none" stroke="midnightblue" d="M146.08,-86C159.35,-86 177.98,-86 195.2,-86"/>
<polygon fill="midnightblue" stroke="midnightblue" points="195.67,-89.5 205.67,-86 195.67,-82.5 195.67,-89.5"/>
</g>
<!-- Node8 -->
<g id="node8" class="node">
<title>Node8</title>
<g id="a_node8"><a xlink:href="../../d1/d4a/tolower_8f90.html#af0b4b410165cce4c9f0e5e6d82d21571" target="_top" xlink:title="Convert a string to lower case.">
<polygon fill="white" stroke="black" points="217.5,-38.5 217.5,-57.5 265.5,-57.5 265.5,-38.5 217.5,-38.5"/>
<text text-anchor="middle" x="241.5" y="-45.5" font-family="Helvetica,sans-Serif" font-size="10.00">tolower</text>
</a>
</g>
</g>
<!-- Node2&#45;&gt;Node8 -->
<g id="edge7" class="edge">
<title>Node2&#45;&gt;Node8</title>
<path fill="none" stroke="midnightblue" d="M146.15,-79.83C157.11,-76.1 171.36,-71.27 184,-67 191.72,-64.39 200.04,-61.59 207.85,-58.96"/>
<polygon fill="midnightblue" stroke="midnightblue" points="209.04,-62.26 217.4,-55.75 206.81,-55.62 209.04,-62.26"/>
</g>
<!-- Node6 -->
<g id="node6" class="node">
<title>Node6</title>
<g id="a_node6"><a xlink:href="../../d8/d60/spline__cubic_8f.html#a83fa704212982fff74dee5f6c68b241f" target="_top" xlink:title=" ">
<polygon fill="white" stroke="black" points="335,-95.5 335,-114.5 391,-114.5 391,-95.5 335,-95.5"/>
<text text-anchor="middle" x="363" y="-102.5" font-family="Helvetica,sans-Serif" font-size="10.00">spline_nr</text>
</a>
</g>
</g>
<!-- Node5&#45;&gt;Node6 -->
<g id="edge5" class="edge">
<title>Node5&#45;&gt;Node6</title>
<path fill="none" stroke="midnightblue" d="M277.06,-91.5C291.96,-93.86 309.42,-96.64 324.62,-99.06"/>
<polygon fill="midnightblue" stroke="midnightblue" points="324.29,-102.55 334.72,-100.66 325.39,-95.64 324.29,-102.55"/>
</g>
<!-- Node7 -->
<g id="node7" class="node">
<title>Node7</title>
<g id="a_node7"><a xlink:href="../../d8/d60/spline__cubic_8f.html#a1d13bcd91bd68259f6dbd2deb9919e6d" target="_top" xlink:title=" ">
<polygon fill="white" stroke="black" points="336.5,-57.5 336.5,-76.5 389.5,-76.5 389.5,-57.5 336.5,-57.5"/>
<text text-anchor="middle" x="363" y="-64.5" font-family="Helvetica,sans-Serif" font-size="10.00">splint_nr</text>
</a>
</g>
</g>
<!-- Node5&#45;&gt;Node7 -->
<g id="edge6" class="edge">
<title>Node5&#45;&gt;Node7</title>
<path fill="none" stroke="midnightblue" d="M277.06,-80.5C292.41,-78.06 310.47,-75.19 325.98,-72.73"/>
<polygon fill="midnightblue" stroke="midnightblue" points="326.92,-76.12 336.25,-71.09 325.82,-69.21 326.92,-76.12"/>
</g>
<!-- Node9&#45;&gt;Node10 -->
<g id="edge9" class="edge">
<title>Node9&#45;&gt;Node10</title>
<path fill="none" stroke="midnightblue" d="M148.21,-41.13C158.86,-37.51 172.13,-33.01 184,-29 189.98,-26.98 196.33,-24.84 202.52,-22.76"/>
<polygon fill="midnightblue" stroke="midnightblue" points="203.68,-26.06 212.04,-19.55 201.45,-19.42 203.68,-26.06"/>
</g>
</g>
</svg>
