<?xml version="1.0" encoding="UTF-8" standalone="no"?>
<!DOCTYPE svg PUBLIC "-//W3C//DTD SVG 1.1//EN"
 "http://www.w3.org/Graphics/SVG/1.1/DTD/svg11.dtd">
<!-- Generated by graphviz version 8.1.0 (20230707.0739)
 -->
<!-- Title: polflux_deriv Pages: 1 -->
<svg width="396pt" height="193pt"
 viewBox="0.00 0.00 396.00 193.25" xmlns="http://www.w3.org/2000/svg" xmlns:xlink="http://www.w3.org/1999/xlink">

<svg id="main" version="1.1" xmlns="http://www.w3.org/2000/svg" xmlns:xlink="http://www.w3.org/1999/xlink" xml:space="preserve" onload="init(evt)">
<style type="text/css"><![CDATA[
.node, .edge {opacity: 0.7;}
.node.selected, .edge.selected {opacity: 1;}
.edge:hover path { stroke: red; }
.edge:hover polygon { stroke: red; fill: red; }
]]></style>
<script type="application/ecmascript" xlink:href="../../svg.min.js"/>
<svg id="graph" class="graph">
<g id="graph0" class="graph" transform="scale(1 1) rotate(0) translate(4 189.25)">
<title>polflux_deriv</title>
<!-- Node1 -->
<g id="Node000001" class="node">
<title>Node1</title>
<g id="a_Node000001"><a xlink:title="Compute the radial derivative of the enclosed poloidal magnetic flux.">
<polygon fill="#999999" stroke="#666666" points="69.25,-57.25 0,-57.25 0,-38 69.25,-38 69.25,-57.25"/>
<text text-anchor="middle" x="34.62" y="-43.75" font-family="Helvetica,sans-Serif" font-size="10.00">polflux_deriv</text>
</a>
</g>
</g>
<!-- Node1&#45;&gt;Node1 -->
<g id="edge8_Node000001_Node000001" class="edge">
<title>Node1&#45;&gt;Node1</title>
<g id="a_edge8_Node000001_Node000001"><a xlink:title=" ">
<path fill="none" stroke="#63b8ff" d="M20.32,-57.54C13.79,-66.15 18.56,-75.25 34.62,-75.25 43.66,-75.25 49.12,-72.37 51.01,-68.32"/>
<polygon fill="#63b8ff" stroke="#63b8ff" points="54.26,-67.69 48.93,-58.54 47.39,-69.02 54.26,-67.69"/>
</a>
</g>
</g>
<!-- Node2 -->
<g id="Node000002" class="node">
<title>Node2</title>
<g id="a_Node000002"><a xlink:href="../../da/dc8/profile__functions_8f.html#a437348e2a0ee2ababaeca2205a78b85c" target="_top" xlink:title=" ">
<polygon fill="white" stroke="#666666" points="144.5,-112.25 107.5,-112.25 107.5,-93 144.5,-93 144.5,-112.25"/>
<text text-anchor="middle" x="126" y="-98.75" font-family="Helvetica,sans-Serif" font-size="10.00">piota</text>
</a>
</g>
</g>
<!-- Node1&#45;&gt;Node2 -->
<g id="edge1_Node000001_Node000002" class="edge">
<title>Node1&#45;&gt;Node2</title>
<g id="a_edge1_Node000001_Node000002"><a xlink:title=" ">
<path fill="none" stroke="#63b8ff" d="M52.02,-57.71C65.37,-65.93 84.45,-77.67 99.76,-87.09"/>
<polygon fill="#63b8ff" stroke="#63b8ff" points="97.36,-90.34 107.71,-92.6 101.03,-84.38 97.36,-90.34"/>
</a>
</g>
</g>
<!-- Node8 -->
<g id="Node000008" class="node">
<title>Node8</title>
<g id="a_Node000008"><a xlink:href="../../d5/d26/magnetic__fluxes_8f90.html#a017a13ebb77985454dd008ccdb9f4402" target="_top" xlink:title="Compute the enclosed toroidal magnetic flux.">
<polygon fill="white" stroke="#666666" points="146.75,-57.25 105.25,-57.25 105.25,-38 146.75,-38 146.75,-57.25"/>
<text text-anchor="middle" x="126" y="-43.75" font-family="Helvetica,sans-Serif" font-size="10.00">torflux</text>
</a>
</g>
</g>
<!-- Node1&#45;&gt;Node8 -->
<g id="edge9_Node000001_Node000008" class="edge">
<title>Node1&#45;&gt;Node8</title>
<g id="a_edge9_Node000001_Node000008"><a xlink:title=" ">
<path fill="none" stroke="#63b8ff" d="M69.67,-47.62C77.62,-47.62 86.06,-47.62 93.88,-47.62"/>
<polygon fill="#63b8ff" stroke="#63b8ff" points="93.77,-51.13 103.77,-47.62 93.77,-44.13 93.77,-51.13"/>
</a>
</g>
</g>
<!-- Node9 -->
<g id="Node000009" class="node">
<title>Node9</title>
<g id="a_Node000009"><a xlink:href="../../d5/d26/magnetic__fluxes_8f90.html#a909f811a00045c6fef3c379defc1ed09" target="_top" xlink:title="Compute the radial derivative of the enclosed toroidal magnetic flux.">
<polygon fill="white" stroke="#666666" points="273.75,-19.25 206,-19.25 206,0 273.75,0 273.75,-19.25"/>
<text text-anchor="middle" x="239.88" y="-5.75" font-family="Helvetica,sans-Serif" font-size="10.00">torflux_deriv</text>
</a>
</g>
</g>
<!-- Node1&#45;&gt;Node9 -->
<g id="edge13_Node000001_Node000009" class="edge">
<title>Node1&#45;&gt;Node9</title>
<g id="a_edge13_Node000001_Node000009"><a xlink:title=" ">
<path fill="none" stroke="#63b8ff" d="M69.06,-37.59C80.47,-34.41 93.35,-31.09 105.25,-28.62 134.97,-22.48 168.81,-17.69 195,-14.46"/>
<polygon fill="#63b8ff" stroke="#63b8ff" points="195.22,-17.84 204.73,-13.17 194.38,-10.89 195.22,-17.84"/>
</a>
</g>
</g>
<!-- Node2&#45;&gt;Node2 -->
<g id="edge3_Node000002_Node000002" class="edge">
<title>Node2&#45;&gt;Node2</title>
<g id="a_edge3_Node000002_Node000002"><a xlink:title=" ">
<path fill="none" stroke="#63b8ff" d="M111.69,-112.54C105.17,-121.15 109.94,-130.25 126,-130.25 135.03,-130.25 140.5,-127.37 142.38,-123.32"/>
<polygon fill="#63b8ff" stroke="#63b8ff" points="145.64,-122.69 140.31,-113.54 138.76,-124.02 145.64,-122.69"/>
</a>
</g>
</g>
<!-- Node3 -->
<g id="Node000003" class="node">
<title>Node3</title>
<g id="a_Node000003"><a xlink:href="../../d2/dcb/namespaceline__segment.html#aa63bfde0ff39e19622f7f5fe150e8b59" target="_top" xlink:title=" ">
<polygon fill="white" stroke="#666666" points="297,-185.25 182.75,-185.25 182.75,-166 297,-166 297,-185.25"/>
<text text-anchor="middle" x="239.88" y="-171.75" font-family="Helvetica,sans-Serif" font-size="10.00">line_segment::line_seg</text>
</a>
</g>
</g>
<!-- Node2&#45;&gt;Node3 -->
<g id="edge2_Node000002_Node000003" class="edge">
<title>Node2&#45;&gt;Node3</title>
<g id="a_edge2_Node000002_Node000003"><a xlink:title=" ">
<path fill="none" stroke="#63b8ff" d="M134.61,-112.59C144.46,-124.85 162.75,-145.51 182.75,-157.62 184.93,-158.94 187.21,-160.18 189.57,-161.33"/>
<polygon fill="#63b8ff" stroke="#63b8ff" points="187.93,-164.86 198.49,-165.61 190.7,-158.44 187.93,-164.86"/>
</a>
</g>
</g>
<!-- Node4 -->
<g id="Node000004" class="node">
<title>Node4</title>
<g id="a_Node000004"><a xlink:href="../../de/de4/explore__spline__akima_8f90.html#a7517a5f00e408c447a9dd0e438f60e52" target="_top" xlink:title=" ">
<polygon fill="white" stroke="#666666" points="276.38,-148.25 203.38,-148.25 203.38,-129 276.38,-129 276.38,-148.25"/>
<text text-anchor="middle" x="239.88" y="-134.75" font-family="Helvetica,sans-Serif" font-size="10.00">spline_akima</text>
</a>
</g>
</g>
<!-- Node2&#45;&gt;Node4 -->
<g id="edge4_Node000002_Node000004" class="edge">
<title>Node2&#45;&gt;Node4</title>
<g id="a_edge4_Node000002_Node000004"><a xlink:title=" ">
<path fill="none" stroke="#63b8ff" d="M144.82,-108.39C155.77,-111.93 170.07,-116.54 182.75,-120.62 187.37,-122.11 192.2,-123.66 197.01,-125.21"/>
<polygon fill="#63b8ff" stroke="#63b8ff" points="195.82,-128.82 206.41,-128.54 197.95,-122.16 195.82,-128.82"/>
</a>
</g>
</g>
<!-- Node5 -->
<g id="Node000005" class="node">
<title>Node5</title>
<g id="a_Node000005"><a xlink:href="../../d8/d60/spline__cubic_8f.html#a60e9606a5fa1dcb7f79f9259b8e0d067" target="_top" xlink:title=" ">
<polygon fill="white" stroke="#666666" points="274.88,-111.25 204.88,-111.25 204.88,-92 274.88,-92 274.88,-111.25"/>
<text text-anchor="middle" x="239.88" y="-97.75" font-family="Helvetica,sans-Serif" font-size="10.00">spline_cubic</text>
</a>
</g>
</g>
<!-- Node2&#45;&gt;Node5 -->
<g id="edge5_Node000002_Node000005" class="edge">
<title>Node2&#45;&gt;Node5</title>
<g id="a_edge5_Node000002_Node000005"><a xlink:title=" ">
<path fill="none" stroke="#63b8ff" d="M144.97,-102.46C158.15,-102.35 176.64,-102.18 193.73,-102.03"/>
<polygon fill="#63b8ff" stroke="#63b8ff" points="193.73,-105.52 203.7,-101.93 193.67,-98.52 193.73,-105.52"/>
</a>
</g>
</g>
<!-- Node7 -->
<g id="Node000007" class="node">
<title>Node7</title>
<g id="a_Node000007"><a xlink:href="../../d1/d4a/tolower_8f90.html#af0b4b410165cce4c9f0e5e6d82d21571" target="_top" xlink:title="Convert a string to lower case.">
<polygon fill="white" stroke="#666666" points="263.62,-74.25 216.12,-74.25 216.12,-55 263.62,-55 263.62,-74.25"/>
<text text-anchor="middle" x="239.88" y="-60.75" font-family="Helvetica,sans-Serif" font-size="10.00">tolower</text>
</a>
</g>
</g>
<!-- Node2&#45;&gt;Node7 -->
<g id="edge7_Node000002_Node000007" class="edge">
<title>Node2&#45;&gt;Node7</title>
<g id="a_edge7_Node000002_Node000007"><a xlink:title=" ">
<path fill="none" stroke="#63b8ff" d="M144.77,-96.07C155.7,-92.09 170,-86.96 182.75,-82.62 190.13,-80.12 198.08,-77.51 205.61,-75.09"/>
<polygon fill="#63b8ff" stroke="#63b8ff" points="206.42,-78.18 214.88,-71.81 204.29,-71.52 206.42,-78.18"/>
</a>
</g>
</g>
<!-- Node6 -->
<g id="Node000006" class="node">
<title>Node6</title>
<g id="a_Node000006"><a xlink:href="../../d8/d60/spline__cubic_8f.html#a83fa704212982fff74dee5f6c68b241f" target="_top" xlink:title=" ">
<polygon fill="white" stroke="#666666" points="388,-111.25 333,-111.25 333,-92 388,-92 388,-111.25"/>
<text text-anchor="middle" x="360.5" y="-97.75" font-family="Helvetica,sans-Serif" font-size="10.00">spline_nr</text>
</a>
</g>
</g>
<!-- Node5&#45;&gt;Node6 -->
<g id="edge6_Node000005_Node000006" class="edge">
<title>Node5&#45;&gt;Node6</title>
<g id="a_edge6_Node000005_Node000006"><a xlink:title=" ">
<path fill="none" stroke="#63b8ff" d="M275.19,-101.62C289.8,-101.62 306.89,-101.62 321.85,-101.62"/>
<polygon fill="#63b8ff" stroke="#63b8ff" points="321.8,-105.13 331.8,-101.62 321.8,-98.13 321.8,-105.13"/>
</a>
</g>
</g>
<!-- Node8&#45;&gt;Node8 -->
<g id="edge10_Node000008_Node000008" class="edge">
<title>Node8&#45;&gt;Node8</title>
<g id="a_edge10_Node000008_Node000008"><a xlink:title=" ">
<path fill="none" stroke="#63b8ff" d="M111.69,-57.54C105.17,-66.15 109.94,-75.25 126,-75.25 135.03,-75.25 140.5,-72.37 142.38,-68.32"/>
<polygon fill="#63b8ff" stroke="#63b8ff" points="145.64,-67.69 140.31,-58.54 138.76,-69.02 145.64,-67.69"/>
</a>
</g>
</g>
<!-- Node8&#45;&gt;Node9 -->
<g id="edge11_Node000008_Node000009" class="edge">
<title>Node8&#45;&gt;Node9</title>
<g id="a_edge11_Node000008_Node000009"><a xlink:title=" ">
<path fill="none" stroke="#63b8ff" d="M147,-40.83C161.5,-35.91 181.59,-29.08 199.28,-23.07"/>
<polygon fill="#63b8ff" stroke="#63b8ff" points="200.02,-26.18 208.37,-19.65 197.77,-19.55 200.02,-26.18"/>
</a>
</g>
</g>
<!-- Node9&#45;&gt;Node9 -->
<g id="edge12_Node000009_Node000009" class="edge">
<title>Node9&#45;&gt;Node9</title>
<g id="a_edge12_Node000009_Node000009"><a xlink:title=" ">
<path fill="none" stroke="#63b8ff" d="M222.05,-19.54C213.92,-28.15 219.86,-37.25 239.88,-37.25 251.45,-37.25 258.32,-34.21 260.48,-29.98"/>
<polygon fill="#63b8ff" stroke="#63b8ff" points="263.66,-29.3 257.7,-20.54 256.89,-31.1 263.66,-29.3"/>
</a>
</g>
</g>
</g>
</svg>
</svg>

<style type='text/css'>
<![CDATA[
[data-mouse-over-selected='false'] { opacity: 0.7; }
[data-mouse-over-selected='true']  { opacity: 1.0; }
]]>
</style>
<script type="application/ecmascript"><![CDATA[
document.addEventListener('DOMContentLoaded', (event) => {
  highlightEdges();
  highlightAdjacentNodes();
});
]]></script>
</svg>
