<?xml version="1.0" encoding="UTF-8" standalone="no"?>
<!DOCTYPE svg PUBLIC "-//W3C//DTD SVG 1.1//EN"
 "http://www.w3.org/Graphics/SVG/1.1/DTD/svg11.dtd">
<!-- Generated by graphviz version 12.2.1 (20241206.2353)
 -->
<!-- Title: torflux Pages: 1 -->
<svg width="153pt" height="45pt"
 viewBox="0.00 0.00 153.25 45.25" xmlns="http://www.w3.org/2000/svg" xmlns:xlink="http://www.w3.org/1999/xlink">
<g id="graph0" class="graph" transform="scale(1 1) rotate(0) translate(4 41.25)">
<title>torflux</title>
<!-- Node1 -->
<g id="Node000001" class="node">
<title>Node1</title>
<g id="a_Node000001"><a xlink:title="Compute the enclosed toroidal magnetic flux.">
<polygon fill="#999999" stroke="#666666" points="41.5,-19.25 0,-19.25 0,0 41.5,0 41.5,-19.25"/>
<text text-anchor="middle" x="20.75" y="-5.75" font-family="Helvetica,sans-Serif" font-size="10.00">torflux</text>
</a>
</g>
</g>
<!-- Node1&#45;&gt;Node1 -->
<g id="edge1_Node000001_Node000001" class="edge">
<title>Node1&#45;&gt;Node1</title>
<g id="a_edge1_Node000001_Node000001"><a xlink:title=" ">
<path fill="none" stroke="#63b8ff" d="M6.56,-19.54C0.09,-28.15 4.82,-37.25 20.75,-37.25 29.46,-37.25 34.82,-34.53 36.84,-30.65"/>
<polygon fill="#63b8ff" stroke="#63b8ff" points="40.33,-30.3 35.19,-21.03 33.43,-31.48 40.33,-30.3"/>
</a>
</g>
</g>
<!-- Node2 -->
<g id="Node000002" class="node">
<title>Node2</title>
<g id="a_Node000002"><a xlink:href="../../d5/d26/magnetic__fluxes_8f90.html#a909f811a00045c6fef3c379defc1ed09" target="_top" xlink:title="Compute the radial derivative of the enclosed toroidal magnetic flux.">
<polygon fill="white" stroke="#666666" points="145.25,-19.25 77.5,-19.25 77.5,0 145.25,0 145.25,-19.25"/>
<text text-anchor="middle" x="111.38" y="-5.75" font-family="Helvetica,sans-Serif" font-size="10.00">torflux_deriv</text>
</a>
</g>
</g>
<!-- Node1&#45;&gt;Node2 -->
<g id="edge2_Node000001_Node000002" class="edge">
<title>Node1&#45;&gt;Node2</title>
<g id="a_edge2_Node000001_Node000002"><a xlink:title=" ">
<path fill="none" stroke="#63b8ff" d="M41.86,-9.62C49.02,-9.62 57.4,-9.62 65.79,-9.62"/>
<polygon fill="#63b8ff" stroke="#63b8ff" points="65.62,-13.13 75.62,-9.63 65.62,-6.13 65.62,-13.13"/>
</a>
</g>
</g>
<!-- Node2&#45;&gt;Node2 -->
<g id="edge3_Node000002_Node000002" class="edge">
<title>Node2&#45;&gt;Node2</title>
<g id="a_edge3_Node000002_Node000002"><a xlink:title=" ">
<path fill="none" stroke="#63b8ff" d="M97.19,-19.54C90.72,-28.15 95.44,-37.25 111.38,-37.25 120.09,-37.25 125.45,-34.53 127.46,-30.65"/>
<polygon fill="#63b8ff" stroke="#63b8ff" points="130.95,-30.3 125.82,-21.03 124.05,-31.48 130.95,-30.3"/>
</a>
</g>
</g>
</g>
</svg>
