<?xml version="1.0" encoding="UTF-8" standalone="no"?>
<!DOCTYPE svg PUBLIC "-//W3C//DTD SVG 1.1//EN"
 "http://www.w3.org/Graphics/SVG/1.1/DTD/svg11.dtd">
<!-- Generated by graphviz version 8.0.5 (20230430.1635)
 -->
<!-- Title: polflux Pages: 1 -->
<svg width="475pt" height="193pt"
 viewBox="0.00 0.00 475.00 193.25" xmlns="http://www.w3.org/2000/svg" xmlns:xlink="http://www.w3.org/1999/xlink">

<svg id="main" version="1.1" xmlns="http://www.w3.org/2000/svg" xmlns:xlink="http://www.w3.org/1999/xlink" xml:space="preserve" onload="init(evt)">
<style type="text/css"><![CDATA[
.node, .edge {opacity: 0.7;}
.node.selected, .edge.selected {opacity: 1;}
.edge:hover path { stroke: red; }
.edge:hover polygon { stroke: red; fill: red; }
]]></style>
<script type="application/ecmascript" xlink:href="../../svg.min.js"/>
<svg id="graph" class="graph">
<g id="graph0" class="graph" transform="scale(1 1) rotate(0) translate(4 189.25)">
<title>polflux</title>
<!-- Node1 -->
<g id="Node000001" class="node">
<title>Node1</title>
<g id="a_Node000001"><a xlink:title="Compute the enclosed poloidal magnetic flux.">
<polygon fill="#999999" stroke="#666666" points="43,-57.25 0,-57.25 0,-38 43,-38 43,-57.25"/>
<text text-anchor="middle" x="21.5" y="-43.75" font-family="Helvetica,sans-Serif" font-size="10.00">polflux</text>
</a>
</g>
</g>
<!-- Node1&#45;&gt;Node1 -->
<g id="edge1_Node000001_Node000001" class="edge">
<title>Node1&#45;&gt;Node1</title>
<g id="a_edge1_Node000001_Node000001"><a xlink:title=" ">
<path fill="none" stroke="#63b8ff" d="M7.08,-57.54C0.5,-66.15 5.31,-75.25 21.5,-75.25 30.61,-75.25 36.12,-72.37 38.02,-68.32"/>
<polygon fill="#63b8ff" stroke="#63b8ff" points="41.27,-67.69 35.92,-58.54 34.4,-69.02 41.27,-67.69"/>
</a>
</g>
</g>
<!-- Node2 -->
<g id="Node000002" class="node">
<title>Node2</title>
<g id="a_Node000002"><a xlink:href="../../d5/d26/magnetic__fluxes_8f90.html#ad5e5642d688664c85a181c2d1fd6497f" target="_top" xlink:title="Compute the radial derivative of the enclosed poloidal magnetic flux.">
<polygon fill="white" stroke="#666666" points="148.25,-57.25 79,-57.25 79,-38 148.25,-38 148.25,-57.25"/>
<text text-anchor="middle" x="113.62" y="-43.75" font-family="Helvetica,sans-Serif" font-size="10.00">polflux_deriv</text>
</a>
</g>
</g>
<!-- Node1&#45;&gt;Node2 -->
<g id="edge2_Node000001_Node000002" class="edge">
<title>Node1&#45;&gt;Node2</title>
<g id="a_edge2_Node000001_Node000002"><a xlink:title=" ">
<path fill="none" stroke="#63b8ff" d="M43.4,-47.62C50.79,-47.62 59.4,-47.62 68,-47.62"/>
<polygon fill="#63b8ff" stroke="#63b8ff" points="67.78,-51.13 77.78,-47.62 67.78,-44.13 67.78,-51.13"/>
</a>
</g>
</g>
<!-- Node2&#45;&gt;Node2 -->
<g id="edge10_Node000002_Node000002" class="edge">
<title>Node2&#45;&gt;Node2</title>
<g id="a_edge10_Node000002_Node000002"><a xlink:title=" ">
<path fill="none" stroke="#63b8ff" d="M99.32,-57.54C92.79,-66.15 97.56,-75.25 113.62,-75.25 122.66,-75.25 128.12,-72.37 130.01,-68.32"/>
<polygon fill="#63b8ff" stroke="#63b8ff" points="133.26,-67.69 127.93,-58.54 126.39,-69.02 133.26,-67.69"/>
</a>
</g>
</g>
<!-- Node3 -->
<g id="Node000003" class="node">
<title>Node3</title>
<g id="a_Node000003"><a xlink:href="../../da/dc8/profile__functions_8f.html#a437348e2a0ee2ababaeca2205a78b85c" target="_top" xlink:title=" ">
<polygon fill="white" stroke="#666666" points="223.5,-112.25 186.5,-112.25 186.5,-93 223.5,-93 223.5,-112.25"/>
<text text-anchor="middle" x="205" y="-98.75" font-family="Helvetica,sans-Serif" font-size="10.00">piota</text>
</a>
</g>
</g>
<!-- Node2&#45;&gt;Node3 -->
<g id="edge3_Node000002_Node000003" class="edge">
<title>Node2&#45;&gt;Node3</title>
<g id="a_edge3_Node000002_Node000003"><a xlink:title=" ">
<path fill="none" stroke="#63b8ff" d="M131.02,-57.71C144.37,-65.93 163.45,-77.67 178.76,-87.09"/>
<polygon fill="#63b8ff" stroke="#63b8ff" points="176.36,-90.34 186.71,-92.6 180.03,-84.38 176.36,-90.34"/>
</a>
</g>
</g>
<!-- Node9 -->
<g id="Node000009" class="node">
<title>Node9</title>
<g id="a_Node000009"><a xlink:href="../../d5/d26/magnetic__fluxes_8f90.html#a017a13ebb77985454dd008ccdb9f4402" target="_top" xlink:title="Compute the enclosed toroidal magnetic flux.">
<polygon fill="white" stroke="#666666" points="225.75,-57.25 184.25,-57.25 184.25,-38 225.75,-38 225.75,-57.25"/>
<text text-anchor="middle" x="205" y="-43.75" font-family="Helvetica,sans-Serif" font-size="10.00">torflux</text>
</a>
</g>
</g>
<!-- Node2&#45;&gt;Node9 -->
<g id="edge11_Node000002_Node000009" class="edge">
<title>Node2&#45;&gt;Node9</title>
<g id="a_edge11_Node000002_Node000009"><a xlink:title=" ">
<path fill="none" stroke="#63b8ff" d="M148.67,-47.62C156.62,-47.62 165.06,-47.62 172.88,-47.62"/>
<polygon fill="#63b8ff" stroke="#63b8ff" points="172.77,-51.13 182.77,-47.62 172.77,-44.13 172.77,-51.13"/>
</a>
</g>
</g>
<!-- Node10 -->
<g id="Node000010" class="node">
<title>Node10</title>
<g id="a_Node000010"><a xlink:href="../../d5/d26/magnetic__fluxes_8f90.html#a909f811a00045c6fef3c379defc1ed09" target="_top" xlink:title="Compute the radial derivative of the enclosed toroidal magnetic flux.">
<polygon fill="white" stroke="#666666" points="352.75,-19.25 285,-19.25 285,0 352.75,0 352.75,-19.25"/>
<text text-anchor="middle" x="318.88" y="-5.75" font-family="Helvetica,sans-Serif" font-size="10.00">torflux_deriv</text>
</a>
</g>
</g>
<!-- Node2&#45;&gt;Node10 -->
<g id="edge15_Node000002_Node000010" class="edge">
<title>Node2&#45;&gt;Node10</title>
<g id="a_edge15_Node000002_Node000010"><a xlink:title=" ">
<path fill="none" stroke="#63b8ff" d="M148.06,-37.59C159.47,-34.41 172.35,-31.09 184.25,-28.62 213.97,-22.48 247.81,-17.69 274,-14.46"/>
<polygon fill="#63b8ff" stroke="#63b8ff" points="274.22,-17.84 283.73,-13.17 273.38,-10.89 274.22,-17.84"/>
</a>
</g>
</g>
<!-- Node3&#45;&gt;Node3 -->
<g id="edge5_Node000003_Node000003" class="edge">
<title>Node3&#45;&gt;Node3</title>
<g id="a_edge5_Node000003_Node000003"><a xlink:title=" ">
<path fill="none" stroke="#63b8ff" d="M190.69,-112.54C184.17,-121.15 188.94,-130.25 205,-130.25 214.03,-130.25 219.5,-127.37 221.38,-123.32"/>
<polygon fill="#63b8ff" stroke="#63b8ff" points="224.64,-122.69 219.31,-113.54 217.76,-124.02 224.64,-122.69"/>
</a>
</g>
</g>
<!-- Node4 -->
<g id="Node000004" class="node">
<title>Node4</title>
<g id="a_Node000004"><a xlink:href="../../d2/dcb/namespaceline__segment.html#aa63bfde0ff39e19622f7f5fe150e8b59" target="_top" xlink:title=" ">
<polygon fill="white" stroke="#666666" points="376,-185.25 261.75,-185.25 261.75,-166 376,-166 376,-185.25"/>
<text text-anchor="middle" x="318.88" y="-171.75" font-family="Helvetica,sans-Serif" font-size="10.00">line_segment::line_seg</text>
</a>
</g>
</g>
<!-- Node3&#45;&gt;Node4 -->
<g id="edge4_Node000003_Node000004" class="edge">
<title>Node3&#45;&gt;Node4</title>
<g id="a_edge4_Node000003_Node000004"><a xlink:title=" ">
<path fill="none" stroke="#63b8ff" d="M213.61,-112.59C223.46,-124.85 241.75,-145.51 261.75,-157.62 263.93,-158.94 266.21,-160.18 268.57,-161.33"/>
<polygon fill="#63b8ff" stroke="#63b8ff" points="266.93,-164.86 277.49,-165.61 269.7,-158.44 266.93,-164.86"/>
</a>
</g>
</g>
<!-- Node5 -->
<g id="Node000005" class="node">
<title>Node5</title>
<g id="a_Node000005"><a xlink:href="../../de/de4/explore__spline__akima_8f90.html#a7517a5f00e408c447a9dd0e438f60e52" target="_top" xlink:title=" ">
<polygon fill="white" stroke="#666666" points="355.38,-148.25 282.38,-148.25 282.38,-129 355.38,-129 355.38,-148.25"/>
<text text-anchor="middle" x="318.88" y="-134.75" font-family="Helvetica,sans-Serif" font-size="10.00">spline_akima</text>
</a>
</g>
</g>
<!-- Node3&#45;&gt;Node5 -->
<g id="edge6_Node000003_Node000005" class="edge">
<title>Node3&#45;&gt;Node5</title>
<g id="a_edge6_Node000003_Node000005"><a xlink:title=" ">
<path fill="none" stroke="#63b8ff" d="M223.82,-108.39C234.77,-111.93 249.07,-116.54 261.75,-120.62 266.37,-122.11 271.2,-123.66 276.01,-125.21"/>
<polygon fill="#63b8ff" stroke="#63b8ff" points="274.82,-128.82 285.41,-128.54 276.95,-122.16 274.82,-128.82"/>
</a>
</g>
</g>
<!-- Node6 -->
<g id="Node000006" class="node">
<title>Node6</title>
<g id="a_Node000006"><a xlink:href="../../d8/d60/spline__cubic_8f.html#a60e9606a5fa1dcb7f79f9259b8e0d067" target="_top" xlink:title=" ">
<polygon fill="white" stroke="#666666" points="353.88,-111.25 283.88,-111.25 283.88,-92 353.88,-92 353.88,-111.25"/>
<text text-anchor="middle" x="318.88" y="-97.75" font-family="Helvetica,sans-Serif" font-size="10.00">spline_cubic</text>
</a>
</g>
</g>
<!-- Node3&#45;&gt;Node6 -->
<g id="edge7_Node000003_Node000006" class="edge">
<title>Node3&#45;&gt;Node6</title>
<g id="a_edge7_Node000003_Node000006"><a xlink:title=" ">
<path fill="none" stroke="#63b8ff" d="M223.97,-102.46C237.15,-102.35 255.64,-102.18 272.73,-102.03"/>
<polygon fill="#63b8ff" stroke="#63b8ff" points="272.73,-105.52 282.7,-101.93 272.67,-98.52 272.73,-105.52"/>
</a>
</g>
</g>
<!-- Node8 -->
<g id="Node000008" class="node">
<title>Node8</title>
<g id="a_Node000008"><a xlink:href="../../d1/d4a/tolower_8f90.html#af0b4b410165cce4c9f0e5e6d82d21571" target="_top" xlink:title="Convert a string to lower case.">
<polygon fill="white" stroke="#666666" points="342.62,-74.25 295.12,-74.25 295.12,-55 342.62,-55 342.62,-74.25"/>
<text text-anchor="middle" x="318.88" y="-60.75" font-family="Helvetica,sans-Serif" font-size="10.00">tolower</text>
</a>
</g>
</g>
<!-- Node3&#45;&gt;Node8 -->
<g id="edge9_Node000003_Node000008" class="edge">
<title>Node3&#45;&gt;Node8</title>
<g id="a_edge9_Node000003_Node000008"><a xlink:title=" ">
<path fill="none" stroke="#63b8ff" d="M223.77,-96.07C234.7,-92.09 249,-86.96 261.75,-82.62 269.13,-80.12 277.08,-77.51 284.61,-75.09"/>
<polygon fill="#63b8ff" stroke="#63b8ff" points="285.42,-78.18 293.88,-71.81 283.29,-71.52 285.42,-78.18"/>
</a>
</g>
</g>
<!-- Node7 -->
<g id="Node000007" class="node">
<title>Node7</title>
<g id="a_Node000007"><a xlink:href="../../d8/d60/spline__cubic_8f.html#a83fa704212982fff74dee5f6c68b241f" target="_top" xlink:title=" ">
<polygon fill="white" stroke="#666666" points="467,-111.25 412,-111.25 412,-92 467,-92 467,-111.25"/>
<text text-anchor="middle" x="439.5" y="-97.75" font-family="Helvetica,sans-Serif" font-size="10.00">spline_nr</text>
</a>
</g>
</g>
<!-- Node6&#45;&gt;Node7 -->
<g id="edge8_Node000006_Node000007" class="edge">
<title>Node6&#45;&gt;Node7</title>
<g id="a_edge8_Node000006_Node000007"><a xlink:title=" ">
<path fill="none" stroke="#63b8ff" d="M354.19,-101.62C368.8,-101.62 385.89,-101.62 400.85,-101.62"/>
<polygon fill="#63b8ff" stroke="#63b8ff" points="400.8,-105.13 410.8,-101.62 400.8,-98.13 400.8,-105.13"/>
</a>
</g>
</g>
<!-- Node9&#45;&gt;Node9 -->
<g id="edge12_Node000009_Node000009" class="edge">
<title>Node9&#45;&gt;Node9</title>
<g id="a_edge12_Node000009_Node000009"><a xlink:title=" ">
<path fill="none" stroke="#63b8ff" d="M190.69,-57.54C184.17,-66.15 188.94,-75.25 205,-75.25 214.03,-75.25 219.5,-72.37 221.38,-68.32"/>
<polygon fill="#63b8ff" stroke="#63b8ff" points="224.64,-67.69 219.31,-58.54 217.76,-69.02 224.64,-67.69"/>
</a>
</g>
</g>
<!-- Node9&#45;&gt;Node10 -->
<g id="edge13_Node000009_Node000010" class="edge">
<title>Node9&#45;&gt;Node10</title>
<g id="a_edge13_Node000009_Node000010"><a xlink:title=" ">
<path fill="none" stroke="#63b8ff" d="M226,-40.83C240.5,-35.91 260.59,-29.08 278.28,-23.07"/>
<polygon fill="#63b8ff" stroke="#63b8ff" points="279.02,-26.18 287.37,-19.65 276.77,-19.55 279.02,-26.18"/>
</a>
</g>
</g>
<!-- Node10&#45;&gt;Node10 -->
<g id="edge14_Node000010_Node000010" class="edge">
<title>Node10&#45;&gt;Node10</title>
<g id="a_edge14_Node000010_Node000010"><a xlink:title=" ">
<path fill="none" stroke="#63b8ff" d="M301.05,-19.54C292.92,-28.15 298.86,-37.25 318.88,-37.25 330.45,-37.25 337.32,-34.21 339.48,-29.98"/>
<polygon fill="#63b8ff" stroke="#63b8ff" points="342.66,-29.3 336.7,-20.54 335.89,-31.1 342.66,-29.3"/>
</a>
</g>
</g>
</g>
</svg>
</svg>

<style type='text/css'>
<![CDATA[
[data-mouse-over-selected='false'] { opacity: 0.7; }
[data-mouse-over-selected='true']  { opacity: 1.0; }
]]>
</style>
<script type="application/ecmascript"><![CDATA[
document.addEventListener('DOMContentLoaded', (event) => {
  highlightEdges();
  highlightAdjacentNodes();
});
]]></script>
</svg>
