<?xml version="1.0" encoding="UTF-8" standalone="no"?>
<!DOCTYPE svg PUBLIC "-//W3C//DTD SVG 1.1//EN"
 "http://www.w3.org/Graphics/SVG/1.1/DTD/svg11.dtd">
<!-- Generated by graphviz version 12.2.1 (20241206.2353)
 -->
<!-- Title: polflux_deriv Pages: 1 -->
<svg width="396pt" height="193pt"
 viewBox="0.00 0.00 396.00 193.25" xmlns="http://www.w3.org/2000/svg" xmlns:xlink="http://www.w3.org/1999/xlink">

<svg id="main" version="1.1" xmlns="http://www.w3.org/2000/svg" xmlns:xlink="http://www.w3.org/1999/xlink" xml:space="preserve">

<style type="text/css"><![CDATA[
.node, .edge {opacity: 0.7;}
.node.selected, .edge.selected {opacity: 1;}
.edge:hover path { stroke: red; }
.edge:hover polygon { stroke: red; fill: red; }
]]></style>
<script type="application/ecmascript" xlink:href="../../svg.min.js"/>
<svg id="graph" class="graph">
<g id="graph0" class="graph" transform="scale(1 1) rotate(0) translate(4 189.25)">
<title>polflux_deriv</title>
<!-- Node1 -->
<g id="Node000001" class="node">
<title>Node1</title>
<g id="a_Node000001"><a xlink:title="Compute the radial derivative of the enclosed poloidal magnetic flux.">
<polygon fill="#999999" stroke="#666666" points="69.25,-57.25 0,-57.25 0,-38 69.25,-38 69.25,-57.25"/>
<text text-anchor="middle" x="34.62" y="-43.75" font-family="Helvetica,sans-Serif" font-size="10.00">polflux_deriv</text>
</a>
</g>
</g>
<!-- Node1&#45;&gt;Node1 -->
<g id="edge8_Node000001_Node000001" class="edge">
<title>Node1&#45;&gt;Node1</title>
<g id="a_edge8_Node000001_Node000001"><a xlink:title=" ">
<path fill="none" stroke="#63b8ff" d="M20.32,-57.54C13.79,-66.15 18.56,-75.25 34.62,-75.25 43.41,-75.25 48.82,-72.53 50.84,-68.65"/>
<polygon fill="#63b8ff" stroke="#63b8ff" points="54.33,-68.29 49.19,-59.03 47.43,-69.48 54.33,-68.29"/>
</a>
</g>
</g>
<!-- Node2 -->
<g id="Node000002" class="node">
<title>Node2</title>
<g id="a_Node000002"><a xlink:href="../../da/dc8/profile__functions_8f.html#a437348e2a0ee2ababaeca2205a78b85c" target="_top" xlink:title=" ">
<polygon fill="white" stroke="#666666" points="144.5,-112.25 107.5,-112.25 107.5,-93 144.5,-93 144.5,-112.25"/>
<text text-anchor="middle" x="126" y="-98.75" font-family="Helvetica,sans-Serif" font-size="10.00">piota</text>
</a>
</g>
</g>
<!-- Node1&#45;&gt;Node2 -->
<g id="edge1_Node000001_Node000002" class="edge">
<title>Node1&#45;&gt;Node2</title>
<g id="a_edge1_Node000001_Node000002"><a xlink:title=" ">
<path fill="none" stroke="#63b8ff" d="M52.02,-57.71C65.25,-65.85 84.09,-77.45 99.32,-86.82"/>
<polygon fill="#63b8ff" stroke="#63b8ff" points="97.07,-89.55 107.42,-91.81 100.74,-83.59 97.07,-89.55"/>
</a>
</g>
</g>
<!-- Node8 -->
<g id="Node000008" class="node">
<title>Node8</title>
<g id="a_Node000008"><a xlink:href="../../d5/d26/magnetic__fluxes_8f90.html#a017a13ebb77985454dd008ccdb9f4402" target="_top" xlink:title="Compute the enclosed toroidal magnetic flux.">
<polygon fill="white" stroke="#666666" points="146.75,-57.25 105.25,-57.25 105.25,-38 146.75,-38 146.75,-57.25"/>
<text text-anchor="middle" x="126" y="-43.75" font-family="Helvetica,sans-Serif" font-size="10.00">torflux</text>
</a>
</g>
</g>
<!-- Node1&#45;&gt;Node8 -->
<g id="edge9_Node000001_Node000008" class="edge">
<title>Node1&#45;&gt;Node8</title>
<g id="a_edge9_Node000001_Node000008"><a xlink:title=" ">
<path fill="none" stroke="#63b8ff" d="M69.67,-47.62C77.44,-47.62 85.66,-47.62 93.33,-47.62"/>
<polygon fill="#63b8ff" stroke="#63b8ff" points="93.25,-51.13 103.25,-47.63 93.25,-44.13 93.25,-51.13"/>
</a>
</g>
</g>
<!-- Node9 -->
<g id="Node000009" class="node">
<title>Node9</title>
<g id="a_Node000009"><a xlink:href="../../d5/d26/magnetic__fluxes_8f90.html#a909f811a00045c6fef3c379defc1ed09" target="_top" xlink:title="Compute the radial derivative of the enclosed toroidal magnetic flux.">
<polygon fill="white" stroke="#666666" points="273.75,-19.25 206,-19.25 206,0 273.75,0 273.75,-19.25"/>
<text text-anchor="middle" x="239.88" y="-5.75" font-family="Helvetica,sans-Serif" font-size="10.00">torflux_deriv</text>
</a>
</g>
</g>
<!-- Node1&#45;&gt;Node9 -->
<g id="edge13_Node000001_Node000009" class="edge">
<title>Node1&#45;&gt;Node9</title>
<g id="a_edge13_Node000001_Node000009"><a xlink:title=" ">
<path fill="none" stroke="#63b8ff" d="M69.06,-37.59C80.47,-34.41 93.35,-31.09 105.25,-28.62 134.7,-22.54 168.21,-17.78 194.3,-14.55"/>
<polygon fill="#63b8ff" stroke="#63b8ff" points="194.72,-18.02 204.22,-13.35 193.88,-11.07 194.72,-18.02"/>
</a>
</g>
</g>
<!-- Node2&#45;&gt;Node2 -->
<g id="edge3_Node000002_Node000002" class="edge">
<title>Node2&#45;&gt;Node2</title>
<g id="a_edge3_Node000002_Node000002"><a xlink:title=" ">
<path fill="none" stroke="#63b8ff" d="M111.69,-112.54C105.17,-121.15 109.94,-130.25 126,-130.25 134.78,-130.25 140.19,-127.53 142.22,-123.65"/>
<polygon fill="#63b8ff" stroke="#63b8ff" points="145.71,-123.29 140.56,-114.03 138.81,-124.48 145.71,-123.29"/>
</a>
</g>
</g>
<!-- Node3 -->
<g id="Node000003" class="node">
<title>Node3</title>
<g id="a_Node000003"><a xlink:href="../../d2/dcb/namespaceline__segment.html#aa63bfde0ff39e19622f7f5fe150e8b59" target="_top" xlink:title=" ">
<polygon fill="white" stroke="#666666" points="297,-185.25 182.75,-185.25 182.75,-166 297,-166 297,-185.25"/>
<text text-anchor="middle" x="239.88" y="-171.75" font-family="Helvetica,sans-Serif" font-size="10.00">line_segment::line_seg</text>
</a>
</g>
</g>
<!-- Node2&#45;&gt;Node3 -->
<g id="edge2_Node000002_Node000003" class="edge">
<title>Node2&#45;&gt;Node3</title>
<g id="a_edge2_Node000002_Node000003"><a xlink:title=" ">
<path fill="none" stroke="#63b8ff" d="M134.61,-112.59C144.46,-124.85 162.75,-145.51 182.75,-157.62 184.77,-158.85 186.88,-159.99 189.04,-161.07"/>
<polygon fill="#63b8ff" stroke="#63b8ff" points="187.54,-164.23 198.11,-165.01 190.33,-157.81 187.54,-164.23"/>
</a>
</g>
</g>
<!-- Node4 -->
<g id="Node000004" class="node">
<title>Node4</title>
<g id="a_Node000004"><a xlink:href="../../de/de4/explore__spline__akima_8f90.html#a7517a5f00e408c447a9dd0e438f60e52" target="_top" xlink:title=" ">
<polygon fill="white" stroke="#666666" points="276.38,-148.25 203.38,-148.25 203.38,-129 276.38,-129 276.38,-148.25"/>
<text text-anchor="middle" x="239.88" y="-134.75" font-family="Helvetica,sans-Serif" font-size="10.00">spline_akima</text>
</a>
</g>
</g>
<!-- Node2&#45;&gt;Node4 -->
<g id="edge4_Node000002_Node000004" class="edge">
<title>Node2&#45;&gt;Node4</title>
<g id="a_edge4_Node000002_Node000004"><a xlink:title=" ">
<path fill="none" stroke="#63b8ff" d="M144.82,-108.39C155.77,-111.93 170.07,-116.54 182.75,-120.62 187.24,-122.07 191.94,-123.58 196.62,-125.08"/>
<polygon fill="#63b8ff" stroke="#63b8ff" points="195.37,-128.36 205.97,-128.08 197.51,-121.69 195.37,-128.36"/>
</a>
</g>
</g>
<!-- Node5 -->
<g id="Node000005" class="node">
<title>Node5</title>
<g id="a_Node000005"><a xlink:href="../../d8/d60/spline__cubic_8f.html#a60e9606a5fa1dcb7f79f9259b8e0d067" target="_top" xlink:title=" ">
<polygon fill="white" stroke="#666666" points="274.88,-111.25 204.88,-111.25 204.88,-92 274.88,-92 274.88,-111.25"/>
<text text-anchor="middle" x="239.88" y="-97.75" font-family="Helvetica,sans-Serif" font-size="10.00">spline_cubic</text>
</a>
</g>
</g>
<!-- Node2&#45;&gt;Node5 -->
<g id="edge5_Node000002_Node000005" class="edge">
<title>Node2&#45;&gt;Node5</title>
<g id="a_edge5_Node000002_Node000005"><a xlink:title=" ">
<path fill="none" stroke="#63b8ff" d="M144.97,-102.46C158.02,-102.35 176.29,-102.18 193.25,-102.03"/>
<polygon fill="#63b8ff" stroke="#63b8ff" points="193.21,-105.53 203.18,-101.94 193.15,-98.53 193.21,-105.53"/>
</a>
</g>
</g>
<!-- Node7 -->
<g id="Node000007" class="node">
<title>Node7</title>
<g id="a_Node000007"><a xlink:href="../../d1/d4a/tolower_8f90.html#af0b4b410165cce4c9f0e5e6d82d21571" target="_top" xlink:title="Convert a string to lower case.">
<polygon fill="white" stroke="#666666" points="263.62,-74.25 216.12,-74.25 216.12,-55 263.62,-55 263.62,-74.25"/>
<text text-anchor="middle" x="239.88" y="-60.75" font-family="Helvetica,sans-Serif" font-size="10.00">tolower</text>
</a>
</g>
</g>
<!-- Node2&#45;&gt;Node7 -->
<g id="edge7_Node000002_Node000007" class="edge">
<title>Node2&#45;&gt;Node7</title>
<g id="a_edge7_Node000002_Node000007"><a xlink:title=" ">
<path fill="none" stroke="#63b8ff" d="M144.77,-96.07C155.7,-92.09 170,-86.96 182.75,-82.62 189.96,-80.18 197.71,-77.63 205.09,-75.25"/>
<polygon fill="#63b8ff" stroke="#63b8ff" points="205.98,-78.65 214.44,-72.27 203.85,-71.98 205.98,-78.65"/>
</a>
</g>
</g>
<!-- Node6 -->
<g id="Node000006" class="node">
<title>Node6</title>
<g id="a_Node000006"><a xlink:href="../../d8/d60/spline__cubic_8f.html#a83fa704212982fff74dee5f6c68b241f" target="_top" xlink:title=" ">
<polygon fill="white" stroke="#666666" points="388,-111.25 333,-111.25 333,-92 388,-92 388,-111.25"/>
<text text-anchor="middle" x="360.5" y="-97.75" font-family="Helvetica,sans-Serif" font-size="10.00">spline_nr</text>
</a>
</g>
</g>
<!-- Node5&#45;&gt;Node6 -->
<g id="edge6_Node000005_Node000006" class="edge">
<title>Node5&#45;&gt;Node6</title>
<g id="a_edge6_Node000005_Node000006"><a xlink:title=" ">
<path fill="none" stroke="#63b8ff" d="M275.19,-101.62C289.66,-101.62 306.56,-101.62 321.41,-101.62"/>
<polygon fill="#63b8ff" stroke="#63b8ff" points="321.29,-105.13 331.29,-101.63 321.29,-98.13 321.29,-105.13"/>
</a>
</g>
</g>
<!-- Node8&#45;&gt;Node8 -->
<g id="edge10_Node000008_Node000008" class="edge">
<title>Node8&#45;&gt;Node8</title>
<g id="a_edge10_Node000008_Node000008"><a xlink:title=" ">
<path fill="none" stroke="#63b8ff" d="M111.69,-57.54C105.17,-66.15 109.94,-75.25 126,-75.25 134.78,-75.25 140.19,-72.53 142.22,-68.65"/>
<polygon fill="#63b8ff" stroke="#63b8ff" points="145.71,-68.29 140.56,-59.03 138.81,-69.48 145.71,-68.29"/>
</a>
</g>
</g>
<!-- Node8&#45;&gt;Node9 -->
<g id="edge11_Node000008_Node000009" class="edge">
<title>Node8&#45;&gt;Node9</title>
<g id="a_edge11_Node000008_Node000009"><a xlink:title=" ">
<path fill="none" stroke="#63b8ff" d="M147,-40.83C161.37,-35.95 181.21,-29.21 198.79,-23.24"/>
<polygon fill="#63b8ff" stroke="#63b8ff" points="199.59,-26.66 207.93,-20.13 197.34,-20.04 199.59,-26.66"/>
</a>
</g>
</g>
<!-- Node9&#45;&gt;Node9 -->
<g id="edge12_Node000009_Node000009" class="edge">
<title>Node9&#45;&gt;Node9</title>
<g id="a_edge12_Node000009_Node000009"><a xlink:title=" ">
<path fill="none" stroke="#63b8ff" d="M222.05,-19.54C213.92,-28.15 219.86,-37.25 239.88,-37.25 250.82,-37.25 257.56,-34.53 260.09,-30.65"/>
<polygon fill="#63b8ff" stroke="#63b8ff" points="263.54,-30.06 258.02,-21.02 256.7,-31.53 263.54,-30.06"/>
</a>
</g>
</g>
</g>
</svg>
</svg>

<style type='text/css'>
<![CDATA[
[data-mouse-over-selected='false'] { opacity: 0.7; }
[data-mouse-over-selected='true']  { opacity: 1.0; }
]]>
</style>
<script type="application/ecmascript"><![CDATA[
document.addEventListener('DOMContentLoaded', (event) => {
  highlightEdges();
  highlightAdjacentNodes();
});
]]></script>
</svg>
