<?xml version="1.0" encoding="UTF-8" standalone="no"?>
<!DOCTYPE svg PUBLIC "-//W3C//DTD SVG 1.1//EN"
 "http://www.w3.org/Graphics/SVG/1.1/DTD/svg11.dtd">
<!-- Generated by graphviz version 7.1.0 (20230121.1956)
 -->
<!-- Title: torflux_deriv Pages: 1 -->
<svg width="340pt" height="73pt"
 viewBox="0.00 0.00 340.00 73.00" xmlns="http://www.w3.org/2000/svg" xmlns:xlink="http://www.w3.org/1999/xlink">
<g id="graph0" class="graph" transform="scale(1 1) rotate(0) translate(4 69)">
<title>torflux_deriv</title>
<!-- Node1 -->
<g id="node1" class="node">
<title>Node1</title>
<g id="a_node1"><a xlink:title="Compute the radial derivative of the enclosed toroidal magnetic flux.">
<polygon fill="#999999" stroke="#666666" points="332,-47 264,-47 264,-28 332,-28 332,-47"/>
<text text-anchor="middle" x="298" y="-35" font-family="Helvetica,sans-Serif" font-size="10.00">torflux_deriv</text>
</a>
</g>
</g>
<!-- Node1&#45;&gt;Node1 -->
<g id="edge8" class="edge">
<title>Node1&#45;&gt;Node1</title>
<path fill="none" stroke="#63b8ff" d="M314.15,-58.43C312.13,-62.29 306.75,-65 298,-65 282,-65 277.26,-55.94 283.75,-47.37"/>
<polygon fill="#63b8ff" stroke="#63b8ff" points="317.65,-58.12 312.5,-48.86 310.75,-59.31 317.65,-58.12"/>
</g>
<!-- Node2 -->
<g id="node2" class="node">
<title>Node2</title>
<g id="a_node2"><a xlink:href="../../d5/d26/magnetic__fluxes_8f90.html#ad5e5642d688664c85a181c2d1fd6497f" target="_top" xlink:title="Compute the radial derivative of the enclosed poloidal magnetic flux.">
<polygon fill="white" stroke="#666666" points="150,-47 80,-47 80,-28 150,-28 150,-47"/>
<text text-anchor="middle" x="115" y="-35" font-family="Helvetica,sans-Serif" font-size="10.00">polflux_deriv</text>
</a>
</g>
</g>
<!-- Node1&#45;&gt;Node2 -->
<g id="edge1" class="edge">
<title>Node1&#45;&gt;Node2</title>
<path fill="none" stroke="#63b8ff" d="M252.52,-44.16C244.38,-45.14 235.95,-45.98 228,-46.5 209.37,-47.71 204.63,-47.69 186,-46.5 174.38,-45.76 161.75,-44.33 150.45,-42.82"/>
<polygon fill="#63b8ff" stroke="#63b8ff" points="252.77,-47.66 262.24,-42.92 251.88,-40.72 252.77,-47.66"/>
</g>
<!-- Node4 -->
<g id="node4" class="node">
<title>Node4</title>
<g id="a_node4"><a xlink:href="../../d5/d26/magnetic__fluxes_8f90.html#a017a13ebb77985454dd008ccdb9f4402" target="_top" xlink:title="Compute the enclosed toroidal magnetic flux.">
<polygon fill="white" stroke="#666666" points="228,-19 186,-19 186,0 228,0 228,-19"/>
<text text-anchor="middle" x="207" y="-7" font-family="Helvetica,sans-Serif" font-size="10.00">torflux</text>
</a>
</g>
</g>
<!-- Node1&#45;&gt;Node4 -->
<g id="edge5" class="edge">
<title>Node1&#45;&gt;Node4</title>
<path fill="none" stroke="#63b8ff" d="M254.46,-24.12C245.38,-21.26 236.19,-18.37 228.41,-15.92"/>
<polygon fill="#63b8ff" stroke="#63b8ff" points="253.34,-27.43 263.93,-27.1 255.44,-20.76 253.34,-27.43"/>
</g>
<!-- Node2&#45;&gt;Node2 -->
<g id="edge4" class="edge">
<title>Node2&#45;&gt;Node2</title>
<path fill="none" stroke="#63b8ff" d="M131.33,-58.43C129.29,-62.29 123.84,-65 115,-65 98.83,-65 94.03,-55.94 100.6,-47.37"/>
<polygon fill="#63b8ff" stroke="#63b8ff" points="134.83,-58.11 129.66,-48.86 127.93,-59.31 134.83,-58.11"/>
</g>
<!-- Node3 -->
<g id="node3" class="node">
<title>Node3</title>
<g id="a_node3"><a xlink:href="../../d5/d26/magnetic__fluxes_8f90.html#a9d78c3bac80a4d14cc82a93bc79e7dcd" target="_top" xlink:title="Compute the enclosed poloidal magnetic flux.">
<polygon fill="white" stroke="#666666" points="44,-47 0,-47 0,-28 44,-28 44,-47"/>
<text text-anchor="middle" x="22" y="-35" font-family="Helvetica,sans-Serif" font-size="10.00">polflux</text>
</a>
</g>
</g>
<!-- Node2&#45;&gt;Node3 -->
<g id="edge2" class="edge">
<title>Node2&#45;&gt;Node3</title>
<path fill="none" stroke="#63b8ff" d="M68.25,-37.5C59.86,-37.5 51.48,-37.5 44.25,-37.5"/>
<polygon fill="#63b8ff" stroke="#63b8ff" points="68.08,-41 78.08,-37.5 68.08,-34 68.08,-41"/>
</g>
<!-- Node3&#45;&gt;Node3 -->
<g id="edge3" class="edge">
<title>Node3&#45;&gt;Node3</title>
<path fill="none" stroke="#63b8ff" d="M38.51,-58.43C36.44,-62.29 30.94,-65 22,-65 5.65,-65 0.8,-55.94 7.44,-47.37"/>
<polygon fill="#63b8ff" stroke="#63b8ff" points="42,-58.1 36.82,-48.86 35.11,-59.31 42,-58.1"/>
</g>
<!-- Node4&#45;&gt;Node2 -->
<g id="edge6" class="edge">
<title>Node4&#45;&gt;Node2</title>
<path fill="none" stroke="#63b8ff" d="M174.75,-19.22C166.1,-21.91 156.69,-24.84 147.99,-27.55"/>
<polygon fill="#63b8ff" stroke="#63b8ff" points="175.62,-22.62 184.13,-16.3 173.54,-15.93 175.62,-22.62"/>
</g>
<!-- Node4&#45;&gt;Node4 -->
<g id="edge7" class="edge">
<title>Node4&#45;&gt;Node4</title>
<path fill="none" stroke="#63b8ff" d="M223.15,-30.43C221.13,-34.29 215.75,-37 207,-37 191,-37 186.26,-27.94 192.75,-19.37"/>
<polygon fill="#63b8ff" stroke="#63b8ff" points="226.65,-30.12 221.5,-20.86 219.75,-31.31 226.65,-30.12"/>
</g>
</g>
</svg>
