<?xml version="1.0" encoding="UTF-8" standalone="no"?>
<!DOCTYPE svg PUBLIC "-//W3C//DTD SVG 1.1//EN"
 "http://www.w3.org/Graphics/SVG/1.1/DTD/svg11.dtd">
<!-- Generated by graphviz version 8.0.1 (20230327.1645)
 -->
<!-- Title: torflux Pages: 1 -->
<svg width="236pt" height="45pt"
 viewBox="0.00 0.00 236.00 45.00" xmlns="http://www.w3.org/2000/svg" xmlns:xlink="http://www.w3.org/1999/xlink">
<g id="graph0" class="graph" transform="scale(1 1) rotate(0) translate(4 41)">
<title>torflux</title>
<!-- Node1 -->
<g id="node1" class="node">
<title>Node1</title>
<g id="a_node1"><a xlink:title="Compute the enclosed toroidal magnetic flux.">
<polygon fill="#999999" stroke="#666666" points="228,-19 186,-19 186,0 228,0 228,-19"/>
<text text-anchor="middle" x="207" y="-7" font-family="Helvetica,sans-Serif" font-size="10.00">torflux</text>
</a>
</g>
</g>
<!-- Node1&#45;&gt;Node1 -->
<g id="edge5" class="edge">
<title>Node1&#45;&gt;Node1</title>
<path fill="none" stroke="#63b8ff" d="M223.5,-30.1C221.6,-34.13 216.1,-37 207,-37 190.83,-37 186.03,-27.94 192.6,-19.37"/>
<polygon fill="#63b8ff" stroke="#63b8ff" points="226.75,-29.51 221.4,-20.37 219.88,-30.85 226.75,-29.51"/>
</g>
<!-- Node2 -->
<g id="node2" class="node">
<title>Node2</title>
<g id="a_node2"><a xlink:href="../../d5/d26/magnetic__fluxes_8f90.html#ad5e5642d688664c85a181c2d1fd6497f" target="_top" xlink:title="Compute the radial derivative of the enclosed poloidal magnetic flux.">
<polygon fill="white" stroke="#666666" points="150,-19 80,-19 80,0 150,0 150,-19"/>
<text text-anchor="middle" x="115" y="-7" font-family="Helvetica,sans-Serif" font-size="10.00">polflux_deriv</text>
</a>
</g>
</g>
<!-- Node1&#45;&gt;Node2 -->
<g id="edge1" class="edge">
<title>Node1&#45;&gt;Node2</title>
<path fill="none" stroke="#63b8ff" d="M174.68,-9.5C166.86,-9.5 158.43,-9.5 150.47,-9.5"/>
<polygon fill="#63b8ff" stroke="#63b8ff" points="174.58,-13 184.58,-9.5 174.58,-6 174.58,-13"/>
</g>
<!-- Node2&#45;&gt;Node2 -->
<g id="edge4" class="edge">
<title>Node2&#45;&gt;Node2</title>
<path fill="none" stroke="#63b8ff" d="M131.5,-30.1C129.6,-34.13 124.1,-37 115,-37 98.83,-37 94.03,-27.94 100.6,-19.37"/>
<polygon fill="#63b8ff" stroke="#63b8ff" points="134.75,-29.51 129.4,-20.37 127.88,-30.85 134.75,-29.51"/>
</g>
<!-- Node3 -->
<g id="node3" class="node">
<title>Node3</title>
<g id="a_node3"><a xlink:href="../../d5/d26/magnetic__fluxes_8f90.html#a9d78c3bac80a4d14cc82a93bc79e7dcd" target="_top" xlink:title="Compute the enclosed poloidal magnetic flux.">
<polygon fill="white" stroke="#666666" points="44,-19 0,-19 0,0 44,0 44,-19"/>
<text text-anchor="middle" x="22" y="-7" font-family="Helvetica,sans-Serif" font-size="10.00">polflux</text>
</a>
</g>
</g>
<!-- Node2&#45;&gt;Node3 -->
<g id="edge2" class="edge">
<title>Node2&#45;&gt;Node3</title>
<path fill="none" stroke="#63b8ff" d="M68.83,-9.5C60.24,-9.5 51.64,-9.5 44.25,-9.5"/>
<polygon fill="#63b8ff" stroke="#63b8ff" points="68.6,-13 78.6,-9.5 68.6,-6 68.6,-13"/>
</g>
<!-- Node3&#45;&gt;Node3 -->
<g id="edge3" class="edge">
<title>Node3&#45;&gt;Node3</title>
<path fill="none" stroke="#63b8ff" d="M38.68,-30.1C36.75,-34.13 31.2,-37 22,-37 5.65,-37 0.8,-27.94 7.44,-19.37"/>
<polygon fill="#63b8ff" stroke="#63b8ff" points="41.93,-29.5 36.56,-20.37 35.06,-30.86 41.93,-29.5"/>
</g>
</g>
</svg>
