<?xml version="1.0" encoding="UTF-8" standalone="no"?>
<!DOCTYPE svg PUBLIC "-//W3C//DTD SVG 1.1//EN"
 "http://www.w3.org/Graphics/SVG/1.1/DTD/svg11.dtd">
<!-- Generated by graphviz version 2.50.0 (20220203.2022)
 -->
<!-- Title: polflux_deriv Pages: 1 -->
<svg width="399pt" height="198pt"
 viewBox="0.00 0.00 399.00 198.00" xmlns="http://www.w3.org/2000/svg" xmlns:xlink="http://www.w3.org/1999/xlink">
<g id="graph0" class="graph" transform="scale(1 1) rotate(0) translate(4 194)">
<title>polflux_deriv</title>
<polygon fill="white" stroke="transparent" points="-4,4 -4,-194 395,-194 395,4 -4,4"/>
<!-- Node1 -->
<g id="node1" class="node">
<title>Node1</title>
<g id="a_node1"><a xlink:title="Compute the radial derivative of the enclosed poloidal magnetic flux.">
<polygon fill="#bfbfbf" stroke="black" points="0,-38.5 0,-57.5 70,-57.5 70,-38.5 0,-38.5"/>
<text text-anchor="middle" x="35" y="-45.5" font-family="Helvetica,sans-Serif" font-size="10.00">polflux_deriv</text>
</a>
</g>
</g>
<!-- Node1&#45;&gt;Node1 -->
<g id="edge9" class="edge">
<title>Node1&#45;&gt;Node1</title>
<path fill="none" stroke="midnightblue" d="M20.82,-57.76C13.92,-66.57 18.65,-76 35,-76 45.22,-76 50.9,-72.31 52.04,-67.4"/>
<polygon fill="midnightblue" stroke="midnightblue" points="55.38,-66.35 49.18,-57.76 48.66,-68.34 55.38,-66.35"/>
</g>
<!-- Node2 -->
<g id="node2" class="node">
<title>Node2</title>
<g id="a_node2"><a xlink:href="../../da/dc8/profile__functions_8f.html#a437348e2a0ee2ababaeca2205a78b85c" target="_top" xlink:title=" ">
<polygon fill="white" stroke="black" points="108,-94.5 108,-113.5 146,-113.5 146,-94.5 108,-94.5"/>
<text text-anchor="middle" x="127" y="-101.5" font-family="Helvetica,sans-Serif" font-size="10.00">piota</text>
</a>
</g>
</g>
<!-- Node1&#45;&gt;Node2 -->
<g id="edge1" class="edge">
<title>Node1&#45;&gt;Node2</title>
<path fill="none" stroke="midnightblue" d="M51.68,-57.75C65.49,-66.35 85.82,-79 101.73,-88.9"/>
<polygon fill="midnightblue" stroke="midnightblue" points="100.16,-92.05 110.5,-94.36 103.86,-86.1 100.16,-92.05"/>
</g>
<!-- Node9 -->
<g id="node9" class="node">
<title>Node9</title>
<g id="a_node9"><a xlink:href="../../d5/d26/magnetic__fluxes_8f90.html#a017a13ebb77985454dd008ccdb9f4402" target="_top" xlink:title="Compute the enclosed toroidal magnetic flux.">
<polygon fill="white" stroke="black" points="106,-38.5 106,-57.5 148,-57.5 148,-38.5 106,-38.5"/>
<text text-anchor="middle" x="127" y="-45.5" font-family="Helvetica,sans-Serif" font-size="10.00">torflux</text>
</a>
</g>
</g>
<!-- Node1&#45;&gt;Node9 -->
<g id="edge10" class="edge">
<title>Node1&#45;&gt;Node9</title>
<path fill="none" stroke="midnightblue" d="M70.03,-48C78.4,-48 87.32,-48 95.51,-48"/>
<polygon fill="midnightblue" stroke="midnightblue" points="95.77,-51.5 105.77,-48 95.77,-44.5 95.77,-51.5"/>
</g>
<!-- Node10 -->
<g id="node10" class="node">
<title>Node10</title>
<g id="a_node10"><a xlink:href="../../d5/d26/magnetic__fluxes_8f90.html#a909f811a00045c6fef3c379defc1ed09" target="_top" xlink:title="Compute the radial derivative of the enclosed toroidal magnetic flux.">
<polygon fill="white" stroke="black" points="207.5,-0.5 207.5,-19.5 275.5,-19.5 275.5,-0.5 207.5,-0.5"/>
<text text-anchor="middle" x="241.5" y="-7.5" font-family="Helvetica,sans-Serif" font-size="10.00">torflux_deriv</text>
</a>
</g>
</g>
<!-- Node1&#45;&gt;Node10 -->
<g id="edge14" class="edge">
<title>Node1&#45;&gt;Node10</title>
<path fill="none" stroke="midnightblue" d="M67.86,-38.45C79.75,-35.13 93.42,-31.59 106,-29 136.28,-22.78 170.82,-17.94 197.32,-14.71"/>
<polygon fill="midnightblue" stroke="midnightblue" points="197.9,-18.17 207.41,-13.51 197.07,-11.22 197.9,-18.17"/>
</g>
<!-- Node2&#45;&gt;Node2 -->
<g id="edge3" class="edge">
<title>Node2&#45;&gt;Node2</title>
<path fill="none" stroke="midnightblue" d="M112.82,-113.76C105.92,-122.57 110.65,-132 127,-132 137.22,-132 142.9,-128.31 144.04,-123.4"/>
<polygon fill="midnightblue" stroke="midnightblue" points="147.38,-122.35 141.18,-113.76 140.66,-124.34 147.38,-122.35"/>
</g>
<!-- Node3 -->
<g id="node3" class="node">
<title>Node3</title>
<g id="a_node3"><a xlink:href="../../d2/dcb/namespaceline__segment.html#aa63bfde0ff39e19622f7f5fe150e8b59" target="_top" xlink:title=" ">
<polygon fill="white" stroke="black" points="184,-170.5 184,-189.5 299,-189.5 299,-170.5 184,-170.5"/>
<text text-anchor="middle" x="241.5" y="-177.5" font-family="Helvetica,sans-Serif" font-size="10.00">line_segment::line_seg</text>
</a>
</g>
</g>
<!-- Node2&#45;&gt;Node3 -->
<g id="edge2" class="edge">
<title>Node2&#45;&gt;Node3</title>
<path fill="none" stroke="midnightblue" d="M135.26,-113.86C145.02,-126.46 163.54,-148.19 184,-161 187.31,-163.07 190.87,-164.95 194.54,-166.64"/>
<polygon fill="midnightblue" stroke="midnightblue" points="193.21,-169.87 203.79,-170.46 195.89,-163.41 193.21,-169.87"/>
</g>
<!-- Node4 -->
<g id="node4" class="node">
<title>Node4</title>
<g id="a_node4"><a xlink:href="../../de/de4/explore__spline__akima_8f90.html#a7517a5f00e408c447a9dd0e438f60e52" target="_top" xlink:title=" ">
<polygon fill="white" stroke="black" points="204.5,-132.5 204.5,-151.5 278.5,-151.5 278.5,-132.5 204.5,-132.5"/>
<text text-anchor="middle" x="241.5" y="-139.5" font-family="Helvetica,sans-Serif" font-size="10.00">spline_akima</text>
</a>
</g>
</g>
<!-- Node2&#45;&gt;Node4 -->
<g id="edge4" class="edge">
<title>Node2&#45;&gt;Node4</title>
<path fill="none" stroke="midnightblue" d="M146.15,-110.17C157.11,-113.9 171.36,-118.73 184,-123 189.98,-125.02 196.33,-127.16 202.52,-129.24"/>
<polygon fill="midnightblue" stroke="midnightblue" points="201.45,-132.58 212.04,-132.45 203.68,-125.94 201.45,-132.58"/>
</g>
<!-- Node5 -->
<g id="node5" class="node">
<title>Node5</title>
<g id="a_node5"><a xlink:href="../../d8/d60/spline__cubic_8f.html#a60e9606a5fa1dcb7f79f9259b8e0d067" target="_top" xlink:title=" ">
<polygon fill="white" stroke="black" points="206,-94.5 206,-113.5 277,-113.5 277,-94.5 206,-94.5"/>
<text text-anchor="middle" x="241.5" y="-101.5" font-family="Helvetica,sans-Serif" font-size="10.00">spline_cubic</text>
</a>
</g>
</g>
<!-- Node2&#45;&gt;Node5 -->
<g id="edge5" class="edge">
<title>Node2&#45;&gt;Node5</title>
<path fill="none" stroke="midnightblue" d="M146.08,-104C159.35,-104 177.98,-104 195.2,-104"/>
<polygon fill="midnightblue" stroke="midnightblue" points="195.67,-107.5 205.67,-104 195.67,-100.5 195.67,-107.5"/>
</g>
<!-- Node8 -->
<g id="node8" class="node">
<title>Node8</title>
<g id="a_node8"><a xlink:href="../../d1/d4a/tolower_8f90.html#af0b4b410165cce4c9f0e5e6d82d21571" target="_top" xlink:title="Convert a string to lower case.">
<polygon fill="white" stroke="black" points="217.5,-56.5 217.5,-75.5 265.5,-75.5 265.5,-56.5 217.5,-56.5"/>
<text text-anchor="middle" x="241.5" y="-63.5" font-family="Helvetica,sans-Serif" font-size="10.00">tolower</text>
</a>
</g>
</g>
<!-- Node2&#45;&gt;Node8 -->
<g id="edge8" class="edge">
<title>Node2&#45;&gt;Node8</title>
<path fill="none" stroke="midnightblue" d="M146.15,-97.83C157.11,-94.1 171.36,-89.27 184,-85 191.72,-82.39 200.04,-79.59 207.85,-76.96"/>
<polygon fill="midnightblue" stroke="midnightblue" points="209.04,-80.26 217.4,-73.75 206.81,-73.62 209.04,-80.26"/>
</g>
<!-- Node6 -->
<g id="node6" class="node">
<title>Node6</title>
<g id="a_node6"><a xlink:href="../../d8/d60/spline__cubic_8f.html#a83fa704212982fff74dee5f6c68b241f" target="_top" xlink:title=" ">
<polygon fill="white" stroke="black" points="335,-113.5 335,-132.5 391,-132.5 391,-113.5 335,-113.5"/>
<text text-anchor="middle" x="363" y="-120.5" font-family="Helvetica,sans-Serif" font-size="10.00">spline_nr</text>
</a>
</g>
</g>
<!-- Node5&#45;&gt;Node6 -->
<g id="edge6" class="edge">
<title>Node5&#45;&gt;Node6</title>
<path fill="none" stroke="midnightblue" d="M277.06,-109.5C291.96,-111.86 309.42,-114.64 324.62,-117.06"/>
<polygon fill="midnightblue" stroke="midnightblue" points="324.29,-120.55 334.72,-118.66 325.39,-113.64 324.29,-120.55"/>
</g>
<!-- Node7 -->
<g id="node7" class="node">
<title>Node7</title>
<g id="a_node7"><a xlink:href="../../d8/d60/spline__cubic_8f.html#a1d13bcd91bd68259f6dbd2deb9919e6d" target="_top" xlink:title=" ">
<polygon fill="white" stroke="black" points="336.5,-75.5 336.5,-94.5 389.5,-94.5 389.5,-75.5 336.5,-75.5"/>
<text text-anchor="middle" x="363" y="-82.5" font-family="Helvetica,sans-Serif" font-size="10.00">splint_nr</text>
</a>
</g>
</g>
<!-- Node5&#45;&gt;Node7 -->
<g id="edge7" class="edge">
<title>Node5&#45;&gt;Node7</title>
<path fill="none" stroke="midnightblue" d="M277.06,-98.5C292.41,-96.06 310.47,-93.19 325.98,-90.73"/>
<polygon fill="midnightblue" stroke="midnightblue" points="326.92,-94.12 336.25,-89.09 325.82,-87.21 326.92,-94.12"/>
</g>
<!-- Node9&#45;&gt;Node9 -->
<g id="edge11" class="edge">
<title>Node9&#45;&gt;Node9</title>
<path fill="none" stroke="midnightblue" d="M112.82,-57.76C105.92,-66.57 110.65,-76 127,-76 137.22,-76 142.9,-72.31 144.04,-67.4"/>
<polygon fill="midnightblue" stroke="midnightblue" points="147.38,-66.35 141.18,-57.76 140.66,-68.34 147.38,-66.35"/>
</g>
<!-- Node9&#45;&gt;Node10 -->
<g id="edge12" class="edge">
<title>Node9&#45;&gt;Node10</title>
<path fill="none" stroke="midnightblue" d="M148.11,-41.21C163.22,-36.1 184.36,-28.96 202.6,-22.8"/>
<polygon fill="midnightblue" stroke="midnightblue" points="203.76,-26.11 212.11,-19.59 201.52,-19.47 203.76,-26.11"/>
</g>
<!-- Node10&#45;&gt;Node10 -->
<g id="edge13" class="edge">
<title>Node10&#45;&gt;Node10</title>
<path fill="none" stroke="midnightblue" d="M223.93,-19.76C215.38,-28.57 221.24,-38 241.5,-38 254.16,-38 261.2,-34.31 262.61,-29.4"/>
<polygon fill="midnightblue" stroke="midnightblue" points="265.8,-27.94 259.07,-19.76 259.23,-30.35 265.8,-27.94"/>
</g>
</g>
</svg>
