<?xml version="1.0" encoding="UTF-8" standalone="no"?>
<!DOCTYPE svg PUBLIC "-//W3C//DTD SVG 1.1//EN"
 "http://www.w3.org/Graphics/SVG/1.1/DTD/svg11.dtd">
<!-- Generated by graphviz version 12.2.1 (20241206.2353)
 -->
<!-- Title: torflux_deriv Pages: 1 -->
<svg width="338pt" height="73pt"
 viewBox="0.00 0.00 337.50 73.25" xmlns="http://www.w3.org/2000/svg" xmlns:xlink="http://www.w3.org/1999/xlink">

<svg id="main" version="1.1" xmlns="http://www.w3.org/2000/svg" xmlns:xlink="http://www.w3.org/1999/xlink" xml:space="preserve">

<style type="text/css"><![CDATA[
.node, .edge {opacity: 0.7;}
.node.selected, .edge.selected {opacity: 1;}
.edge:hover path { stroke: red; }
.edge:hover polygon { stroke: red; fill: red; }
]]></style>
<script type="application/ecmascript" xlink:href="../../svg.min.js"/>
<svg id="graph" class="graph">
<g id="graph0" class="graph" transform="scale(1 1) rotate(0) translate(4 69.25)">
<title>torflux_deriv</title>
<!-- Node1 -->
<g id="Node000001" class="node">
<title>Node1</title>
<g id="a_Node000001"><a xlink:title="Compute the radial derivative of the enclosed toroidal magnetic flux.">
<polygon fill="#999999" stroke="#666666" points="329.5,-47.25 261.75,-47.25 261.75,-28 329.5,-28 329.5,-47.25"/>
<text text-anchor="middle" x="295.62" y="-33.75" font-family="Helvetica,sans-Serif" font-size="10.00">torflux_deriv</text>
</a>
</g>
</g>
<!-- Node1&#45;&gt;Node1 -->
<g id="edge8_Node000001_Node000001" class="edge">
<title>Node1&#45;&gt;Node1</title>
<g id="a_edge8_Node000001_Node000001"><a xlink:title=" ">
<path fill="none" stroke="#63b8ff" d="M311.71,-58.65C309.7,-62.53 304.34,-65.25 295.62,-65.25 279.69,-65.25 274.97,-56.15 281.44,-47.54"/>
<polygon fill="#63b8ff" stroke="#63b8ff" points="315.2,-58.3 310.07,-49.03 308.3,-59.48 315.2,-58.3"/>
</a>
</g>
</g>
<!-- Node2 -->
<g id="Node000002" class="node">
<title>Node2</title>
<g id="a_Node000002"><a xlink:href="../../d5/d26/magnetic__fluxes_8f90.html#ad5e5642d688664c85a181c2d1fd6497f" target="_top" xlink:title="Compute the radial derivative of the enclosed poloidal magnetic flux.">
<polygon fill="white" stroke="#666666" points="148.25,-47.25 79,-47.25 79,-28 148.25,-28 148.25,-47.25"/>
<text text-anchor="middle" x="113.62" y="-33.75" font-family="Helvetica,sans-Serif" font-size="10.00">polflux_deriv</text>
</a>
</g>
</g>
<!-- Node1&#45;&gt;Node2 -->
<g id="edge1_Node000001_Node000002" class="edge">
<title>Node1&#45;&gt;Node2</title>
<g id="a_edge1_Node000001_Node000002"><a xlink:title=" ">
<path fill="none" stroke="#63b8ff" d="M250.22,-44.29C242.1,-45.26 233.68,-46.11 225.75,-46.62 207.34,-47.82 202.66,-47.81 184.25,-46.62 172.57,-45.87 159.86,-44.42 148.54,-42.9"/>
<polygon fill="#63b8ff" stroke="#63b8ff" points="250.46,-47.79 259.93,-43.04 249.56,-40.84 250.46,-47.79"/>
</a>
</g>
</g>
<!-- Node4 -->
<g id="Node000004" class="node">
<title>Node4</title>
<g id="a_Node000004"><a xlink:href="../../d5/d26/magnetic__fluxes_8f90.html#a017a13ebb77985454dd008ccdb9f4402" target="_top" xlink:title="Compute the enclosed toroidal magnetic flux.">
<polygon fill="white" stroke="#666666" points="225.75,-19.25 184.25,-19.25 184.25,0 225.75,0 225.75,-19.25"/>
<text text-anchor="middle" x="205" y="-5.75" font-family="Helvetica,sans-Serif" font-size="10.00">torflux</text>
</a>
</g>
</g>
<!-- Node1&#45;&gt;Node4 -->
<g id="edge5_Node000001_Node000004" class="edge">
<title>Node1&#45;&gt;Node4</title>
<g id="a_edge5_Node000001_Node000004"><a xlink:title=" ">
<path fill="none" stroke="#63b8ff" d="M251.81,-24.1C242.83,-21.26 233.77,-18.4 226.1,-15.97"/>
<polygon fill="#63b8ff" stroke="#63b8ff" points="250.6,-27.39 261.19,-27.06 252.71,-20.71 250.6,-27.39"/>
</a>
</g>
</g>
<!-- Node2&#45;&gt;Node2 -->
<g id="edge4_Node000002_Node000002" class="edge">
<title>Node2&#45;&gt;Node2</title>
<g id="a_edge4_Node000002_Node000002"><a xlink:title=" ">
<path fill="none" stroke="#63b8ff" d="M129.84,-58.65C127.82,-62.53 122.41,-65.25 113.62,-65.25 97.56,-65.25 92.79,-56.15 99.32,-47.54"/>
<polygon fill="#63b8ff" stroke="#63b8ff" points="133.33,-58.29 128.19,-49.03 126.43,-59.48 133.33,-58.29"/>
</a>
</g>
</g>
<!-- Node3 -->
<g id="Node000003" class="node">
<title>Node3</title>
<g id="a_Node000003"><a xlink:href="../../d5/d26/magnetic__fluxes_8f90.html#a9d78c3bac80a4d14cc82a93bc79e7dcd" target="_top" xlink:title="Compute the enclosed poloidal magnetic flux.">
<polygon fill="white" stroke="#666666" points="43,-47.25 0,-47.25 0,-28 43,-28 43,-47.25"/>
<text text-anchor="middle" x="21.5" y="-33.75" font-family="Helvetica,sans-Serif" font-size="10.00">polflux</text>
</a>
</g>
</g>
<!-- Node2&#45;&gt;Node3 -->
<g id="edge2_Node000002_Node000003" class="edge">
<title>Node2&#45;&gt;Node3</title>
<g id="a_edge2_Node000002_Node000003"><a xlink:title=" ">
<path fill="none" stroke="#63b8ff" d="M67.22,-37.62C58.84,-37.62 50.47,-37.62 43.28,-37.62"/>
<polygon fill="#63b8ff" stroke="#63b8ff" points="67.04,-41.13 77.04,-37.63 67.04,-34.13 67.04,-41.13"/>
</a>
</g>
</g>
<!-- Node3&#45;&gt;Node3 -->
<g id="edge3_Node000003_Node000003" class="edge">
<title>Node3&#45;&gt;Node3</title>
<g id="a_edge3_Node000003_Node000003"><a xlink:title=" ">
<path fill="none" stroke="#63b8ff" d="M37.85,-58.65C35.81,-62.53 30.36,-65.25 21.5,-65.25 5.31,-65.25 0.5,-56.15 7.08,-47.54"/>
<polygon fill="#63b8ff" stroke="#63b8ff" points="41.34,-58.28 36.18,-49.03 34.44,-59.48 41.34,-58.28"/>
</a>
</g>
</g>
<!-- Node4&#45;&gt;Node2 -->
<g id="edge6_Node000004_Node000002" class="edge">
<title>Node4&#45;&gt;Node2</title>
<g id="a_edge6_Node000004_Node000002"><a xlink:title=" ">
<path fill="none" stroke="#63b8ff" d="M173.41,-19.21C164.79,-21.91 155.39,-24.85 146.69,-27.58"/>
<polygon fill="#63b8ff" stroke="#63b8ff" points="174.22,-22.62 182.72,-16.29 172.13,-15.94 174.22,-22.62"/>
</a>
</g>
</g>
<!-- Node4&#45;&gt;Node4 -->
<g id="edge7_Node000004_Node000004" class="edge">
<title>Node4&#45;&gt;Node4</title>
<g id="a_edge7_Node000004_Node000004"><a xlink:title=" ">
<path fill="none" stroke="#63b8ff" d="M221.09,-30.65C219.07,-34.53 213.71,-37.25 205,-37.25 189.07,-37.25 184.34,-28.15 190.81,-19.54"/>
<polygon fill="#63b8ff" stroke="#63b8ff" points="224.58,-30.3 219.44,-21.03 217.68,-31.48 224.58,-30.3"/>
</a>
</g>
</g>
</g>
</svg>
</svg>

<style type='text/css'>
<![CDATA[
[data-mouse-over-selected='false'] { opacity: 0.7; }
[data-mouse-over-selected='true']  { opacity: 1.0; }
]]>
</style>
<script type="application/ecmascript"><![CDATA[
document.addEventListener('DOMContentLoaded', (event) => {
  highlightEdges();
  highlightAdjacentNodes();
});
]]></script>
</svg>
