<?xml version="1.0" encoding="UTF-8" standalone="no"?>
<!DOCTYPE svg PUBLIC "-//W3C//DTD SVG 1.1//EN"
 "http://www.w3.org/Graphics/SVG/1.1/DTD/svg11.dtd">
<!-- Generated by graphviz version 7.1.0 (20230121.1956)
 -->
<!-- Title: polflux_deriv Pages: 1 -->
<svg width="399pt" height="193pt"
 viewBox="0.00 0.00 399.00 193.00" xmlns="http://www.w3.org/2000/svg" xmlns:xlink="http://www.w3.org/1999/xlink">
<g id="graph0" class="graph" transform="scale(1 1) rotate(0) translate(4 189)">
<title>polflux_deriv</title>
<!-- Node1 -->
<g id="node1" class="node">
<title>Node1</title>
<g id="a_node1"><a xlink:title="Compute the radial derivative of the enclosed poloidal magnetic flux.">
<polygon fill="#999999" stroke="#666666" points="70,-57 0,-57 0,-38 70,-38 70,-57"/>
<text text-anchor="middle" x="35" y="-45" font-family="Helvetica,sans-Serif" font-size="10.00">polflux_deriv</text>
</a>
</g>
</g>
<!-- Node1&#45;&gt;Node1 -->
<g id="edge8" class="edge">
<title>Node1&#45;&gt;Node1</title>
<path fill="none" stroke="#63b8ff" d="M20.6,-57.37C14.03,-65.94 18.83,-75 35,-75 43.84,-75 49.29,-72.29 51.33,-68.43"/>
<polygon fill="#63b8ff" stroke="#63b8ff" points="54.83,-68.11 49.66,-58.86 47.93,-69.31 54.83,-68.11"/>
</g>
<!-- Node2 -->
<g id="node2" class="node">
<title>Node2</title>
<g id="a_node2"><a xlink:href="../../da/dc8/profile__functions_8f.html#a437348e2a0ee2ababaeca2205a78b85c" target="_top" xlink:title=" ">
<polygon fill="white" stroke="#666666" points="146,-112 108,-112 108,-93 146,-93 146,-112"/>
<text text-anchor="middle" x="127" y="-100" font-family="Helvetica,sans-Serif" font-size="10.00">piota</text>
</a>
</g>
</g>
<!-- Node1&#45;&gt;Node2 -->
<g id="edge1" class="edge">
<title>Node1&#45;&gt;Node2</title>
<path fill="none" stroke="#63b8ff" d="M52.09,-57.33C65.45,-65.49 84.69,-77.26 100.2,-86.73"/>
<polygon fill="#63b8ff" stroke="#63b8ff" points="98.1,-89.55 108.45,-91.78 101.75,-83.58 98.1,-89.55"/>
</g>
<!-- Node8 -->
<g id="node8" class="node">
<title>Node8</title>
<g id="a_node8"><a xlink:href="../../d5/d26/magnetic__fluxes_8f90.html#a017a13ebb77985454dd008ccdb9f4402" target="_top" xlink:title="Compute the enclosed toroidal magnetic flux.">
<polygon fill="white" stroke="#666666" points="148,-57 106,-57 106,-38 148,-38 148,-57"/>
<text text-anchor="middle" x="127" y="-45" font-family="Helvetica,sans-Serif" font-size="10.00">torflux</text>
</a>
</g>
</g>
<!-- Node1&#45;&gt;Node8 -->
<g id="edge9" class="edge">
<title>Node1&#45;&gt;Node8</title>
<path fill="none" stroke="#63b8ff" d="M70.28,-47.5C78.2,-47.5 86.59,-47.5 94.38,-47.5"/>
<polygon fill="#63b8ff" stroke="#63b8ff" points="94.11,-51 104.11,-47.5 94.11,-44 94.11,-51"/>
</g>
<!-- Node9 -->
<g id="node9" class="node">
<title>Node9</title>
<g id="a_node9"><a xlink:href="../../d5/d26/magnetic__fluxes_8f90.html#a909f811a00045c6fef3c379defc1ed09" target="_top" xlink:title="Compute the radial derivative of the enclosed toroidal magnetic flux.">
<polygon fill="white" stroke="#666666" points="275.5,-19 207.5,-19 207.5,0 275.5,0 275.5,-19"/>
<text text-anchor="middle" x="241.5" y="-7" font-family="Helvetica,sans-Serif" font-size="10.00">torflux_deriv</text>
</a>
</g>
</g>
<!-- Node1&#45;&gt;Node9 -->
<g id="edge13" class="edge">
<title>Node1&#45;&gt;Node9</title>
<path fill="none" stroke="#63b8ff" d="M69.27,-37.56C80.82,-34.35 93.91,-30.98 106,-28.5 135.78,-22.38 169.68,-17.61 195.99,-14.37"/>
<polygon fill="#63b8ff" stroke="#63b8ff" points="196.12,-17.88 205.63,-13.22 195.29,-10.93 196.12,-17.88"/>
</g>
<!-- Node2&#45;&gt;Node2 -->
<g id="edge3" class="edge">
<title>Node2&#45;&gt;Node2</title>
<path fill="none" stroke="#63b8ff" d="M112.6,-112.37C106.03,-120.94 110.83,-130 127,-130 135.84,-130 141.29,-127.29 143.33,-123.43"/>
<polygon fill="#63b8ff" stroke="#63b8ff" points="146.83,-123.11 141.66,-113.86 139.93,-124.31 146.83,-123.11"/>
</g>
<!-- Node3 -->
<g id="node3" class="node">
<title>Node3</title>
<g id="a_node3"><a xlink:href="../../d2/dcb/namespaceline__segment.html#aa63bfde0ff39e19622f7f5fe150e8b59" target="_top" xlink:title=" ">
<polygon fill="white" stroke="#666666" points="299,-185 184,-185 184,-166 299,-166 299,-185"/>
<text text-anchor="middle" x="241.5" y="-173" font-family="Helvetica,sans-Serif" font-size="10.00">line_segment::line_seg</text>
</a>
</g>
</g>
<!-- Node2&#45;&gt;Node3 -->
<g id="edge2" class="edge">
<title>Node2&#45;&gt;Node3</title>
<path fill="none" stroke="#63b8ff" d="M135.65,-112.47C145.55,-124.73 163.93,-145.4 184,-157.5 186.15,-158.8 188.4,-160.01 190.72,-161.14"/>
<polygon fill="#63b8ff" stroke="#63b8ff" points="189.2,-164.3 199.77,-165.01 191.95,-157.86 189.2,-164.3"/>
</g>
<!-- Node4 -->
<g id="node4" class="node">
<title>Node4</title>
<g id="a_node4"><a xlink:href="../../de/de4/explore__spline__akima_8f90.html#a7517a5f00e408c447a9dd0e438f60e52" target="_top" xlink:title=" ">
<polygon fill="white" stroke="#666666" points="278.5,-148 204.5,-148 204.5,-129 278.5,-129 278.5,-148"/>
<text text-anchor="middle" x="241.5" y="-136" font-family="Helvetica,sans-Serif" font-size="10.00">spline_akima</text>
</a>
</g>
</g>
<!-- Node2&#45;&gt;Node4 -->
<g id="edge4" class="edge">
<title>Node2&#45;&gt;Node4</title>
<path fill="none" stroke="#63b8ff" d="M146.41,-108.43C157.33,-111.95 171.45,-116.48 184,-120.5 188.7,-122.01 193.63,-123.58 198.53,-125.14"/>
<polygon fill="#63b8ff" stroke="#63b8ff" points="197.08,-128.35 207.67,-128.06 199.21,-121.69 197.08,-128.35"/>
</g>
<!-- Node5 -->
<g id="node5" class="node">
<title>Node5</title>
<g id="a_node5"><a xlink:href="../../d8/d60/spline__cubic_8f.html#a60e9606a5fa1dcb7f79f9259b8e0d067" target="_top" xlink:title=" ">
<polygon fill="white" stroke="#666666" points="277,-111 206,-111 206,-92 277,-92 277,-111"/>
<text text-anchor="middle" x="241.5" y="-99" font-family="Helvetica,sans-Serif" font-size="10.00">spline_cubic</text>
</a>
</g>
</g>
<!-- Node2&#45;&gt;Node5 -->
<g id="edge5" class="edge">
<title>Node2&#45;&gt;Node5</title>
<path fill="none" stroke="#63b8ff" d="M146.33,-102.34C159.38,-102.22 177.53,-102.06 194.41,-101.91"/>
<polygon fill="#63b8ff" stroke="#63b8ff" points="194.34,-105.41 204.31,-101.82 194.28,-98.41 194.34,-105.41"/>
</g>
<!-- Node7 -->
<g id="node7" class="node">
<title>Node7</title>
<g id="a_node7"><a xlink:href="../../d1/d4a/tolower_8f90.html#af0b4b410165cce4c9f0e5e6d82d21571" target="_top" xlink:title="Convert a string to lower case.">
<polygon fill="white" stroke="#666666" points="265.5,-74 217.5,-74 217.5,-55 265.5,-55 265.5,-74"/>
<text text-anchor="middle" x="241.5" y="-62" font-family="Helvetica,sans-Serif" font-size="10.00">tolower</text>
</a>
</g>
</g>
<!-- Node2&#45;&gt;Node7 -->
<g id="edge7" class="edge">
<title>Node2&#45;&gt;Node7</title>
<path fill="none" stroke="#63b8ff" d="M146.36,-95.76C157.26,-91.81 171.38,-86.76 184,-82.5 191.19,-80.07 198.92,-77.55 206.29,-75.19"/>
<polygon fill="#63b8ff" stroke="#63b8ff" points="207.16,-78.58 215.63,-72.22 205.04,-71.91 207.16,-78.58"/>
</g>
<!-- Node6 -->
<g id="node6" class="node">
<title>Node6</title>
<g id="a_node6"><a xlink:href="../../d8/d60/spline__cubic_8f.html#a83fa704212982fff74dee5f6c68b241f" target="_top" xlink:title=" ">
<polygon fill="white" stroke="#666666" points="391,-111 335,-111 335,-92 391,-92 391,-111"/>
<text text-anchor="middle" x="363" y="-99" font-family="Helvetica,sans-Serif" font-size="10.00">spline_nr</text>
</a>
</g>
</g>
<!-- Node5&#45;&gt;Node6 -->
<g id="edge6" class="edge">
<title>Node5&#45;&gt;Node6</title>
<path fill="none" stroke="#63b8ff" d="M277.39,-101.5C291.85,-101.5 308.67,-101.5 323.49,-101.5"/>
<polygon fill="#63b8ff" stroke="#63b8ff" points="323.35,-105 333.35,-101.5 323.35,-98 323.35,-105"/>
</g>
<!-- Node8&#45;&gt;Node8 -->
<g id="edge10" class="edge">
<title>Node8&#45;&gt;Node8</title>
<path fill="none" stroke="#63b8ff" d="M112.6,-57.37C106.03,-65.94 110.83,-75 127,-75 135.84,-75 141.29,-72.29 143.33,-68.43"/>
<polygon fill="#63b8ff" stroke="#63b8ff" points="146.83,-68.11 141.66,-58.86 139.93,-69.31 146.83,-68.11"/>
</g>
<!-- Node8&#45;&gt;Node9 -->
<g id="edge11" class="edge">
<title>Node8&#45;&gt;Node9</title>
<path fill="none" stroke="#63b8ff" d="M148.37,-40.62C162.85,-35.73 182.76,-29 200.36,-23.06"/>
<polygon fill="#63b8ff" stroke="#63b8ff" points="201.17,-26.48 209.53,-19.96 198.93,-19.85 201.17,-26.48"/>
</g>
<!-- Node9&#45;&gt;Node9 -->
<g id="edge12" class="edge">
<title>Node9&#45;&gt;Node9</title>
<path fill="none" stroke="#63b8ff" d="M223.57,-19.37C215.4,-27.94 221.37,-37 241.5,-37 252.51,-37 259.28,-34.29 261.82,-30.43"/>
<polygon fill="#63b8ff" stroke="#63b8ff" points="265.29,-29.88 259.75,-20.85 258.44,-31.36 265.29,-29.88"/>
</g>
</g>
</svg>
