<?xml version="1.0" encoding="UTF-8" standalone="no"?>
<!DOCTYPE svg PUBLIC "-//W3C//DTD SVG 1.1//EN"
 "http://www.w3.org/Graphics/SVG/1.1/DTD/svg11.dtd">
<!-- Generated by graphviz version 7.1.0 (20230121.1956)
 -->
<!-- Title: torflux Pages: 1 -->
<svg width="154pt" height="45pt"
 viewBox="0.00 0.00 154.00 45.00" xmlns="http://www.w3.org/2000/svg" xmlns:xlink="http://www.w3.org/1999/xlink">
<g id="graph0" class="graph" transform="scale(1 1) rotate(0) translate(4 41)">
<title>torflux</title>
<!-- Node1 -->
<g id="node1" class="node">
<title>Node1</title>
<g id="a_node1"><a xlink:title="Compute the enclosed toroidal magnetic flux.">
<polygon fill="#999999" stroke="#666666" points="42,-19 0,-19 0,0 42,0 42,-19"/>
<text text-anchor="middle" x="21" y="-7" font-family="Helvetica,sans-Serif" font-size="10.00">torflux</text>
</a>
</g>
</g>
<!-- Node1&#45;&gt;Node1 -->
<g id="edge1" class="edge">
<title>Node1&#45;&gt;Node1</title>
<path fill="none" stroke="#63b8ff" d="M6.75,-19.37C0.26,-27.94 5,-37 21,-37 29.75,-37 35.13,-34.29 37.15,-30.43"/>
<polygon fill="#63b8ff" stroke="#63b8ff" points="40.65,-30.12 35.5,-20.86 33.75,-31.31 40.65,-30.12"/>
</g>
<!-- Node2 -->
<g id="node2" class="node">
<title>Node2</title>
<g id="a_node2"><a xlink:href="../../d5/d26/magnetic__fluxes_8f90.html#a909f811a00045c6fef3c379defc1ed09" target="_top" xlink:title="Compute the radial derivative of the enclosed toroidal magnetic flux.">
<polygon fill="white" stroke="#666666" points="146,-19 78,-19 78,0 146,0 146,-19"/>
<text text-anchor="middle" x="112" y="-7" font-family="Helvetica,sans-Serif" font-size="10.00">torflux_deriv</text>
</a>
</g>
</g>
<!-- Node1&#45;&gt;Node2 -->
<g id="edge2" class="edge">
<title>Node1&#45;&gt;Node2</title>
<path fill="none" stroke="#63b8ff" d="M42.2,-9.5C49.39,-9.5 57.8,-9.5 66.23,-9.5"/>
<polygon fill="#63b8ff" stroke="#63b8ff" points="66.1,-13 76.1,-9.5 66.1,-6 66.1,-13"/>
</g>
<!-- Node2&#45;&gt;Node2 -->
<g id="edge3" class="edge">
<title>Node2&#45;&gt;Node2</title>
<path fill="none" stroke="#63b8ff" d="M97.75,-19.37C91.26,-27.94 96,-37 112,-37 120.75,-37 126.13,-34.29 128.15,-30.43"/>
<polygon fill="#63b8ff" stroke="#63b8ff" points="131.65,-30.12 126.5,-20.86 124.75,-31.31 131.65,-30.12"/>
</g>
</g>
</svg>
