<?xml version="1.0" encoding="UTF-8" standalone="no"?>
<!DOCTYPE svg PUBLIC "-//W3C//DTD SVG 1.1//EN"
 "http://www.w3.org/Graphics/SVG/1.1/DTD/svg11.dtd">
<!-- Generated by graphviz version 2.48.0 (20210719.0153)
 -->
<!-- Title: polflux Pages: 1 -->
<svg width="479pt" height="180pt"
 viewBox="0.00 0.00 479.00 180.00" xmlns="http://www.w3.org/2000/svg" xmlns:xlink="http://www.w3.org/1999/xlink">
<g id="graph0" class="graph" transform="scale(1 1) rotate(0) translate(4 176)">
<title>polflux</title>
<polygon fill="white" stroke="transparent" points="-4,4 -4,-176 475,-176 475,4 -4,4"/>
<!-- Node1 -->
<g id="node1" class="node">
<title>Node1</title>
<g id="a_node1"><a xlink:title="Compute the enclosed poloidal magnetic flux.">
<polygon fill="#bfbfbf" stroke="black" points="0,-38.5 0,-57.5 44,-57.5 44,-38.5 0,-38.5"/>
<text text-anchor="middle" x="22" y="-45.5" font-family="Helvetica,sans-Serif" font-size="10.00">polflux</text>
</a>
</g>
</g>
<!-- Node2 -->
<g id="node2" class="node">
<title>Node2</title>
<g id="a_node2"><a xlink:href="../../d5/d26/magnetic__fluxes_8f90.html#ad5e5642d688664c85a181c2d1fd6497f" target="_top" xlink:title="Compute the radial derivative of the enclosed poloidal magnetic flux.">
<polygon fill="white" stroke="black" points="80,-38.5 80,-57.5 150,-57.5 150,-38.5 80,-38.5"/>
<text text-anchor="middle" x="115" y="-45.5" font-family="Helvetica,sans-Serif" font-size="10.00">polflux_deriv</text>
</a>
</g>
</g>
<!-- Node1&#45;&gt;Node2 -->
<g id="edge1" class="edge">
<title>Node1&#45;&gt;Node2</title>
<path fill="none" stroke="midnightblue" d="M44.11,-48C51.81,-48 60.84,-48 69.81,-48"/>
<polygon fill="midnightblue" stroke="midnightblue" points="69.82,-51.5 79.82,-48 69.82,-44.5 69.82,-51.5"/>
</g>
<!-- Node3 -->
<g id="node3" class="node">
<title>Node3</title>
<g id="a_node3"><a xlink:href="../../da/dc8/profile__functions_8f.html#a437348e2a0ee2ababaeca2205a78b85c" target="_top" xlink:title=" ">
<polygon fill="white" stroke="black" points="188,-76.5 188,-95.5 226,-95.5 226,-76.5 188,-76.5"/>
<text text-anchor="middle" x="207" y="-83.5" font-family="Helvetica,sans-Serif" font-size="10.00">piota</text>
</a>
</g>
</g>
<!-- Node2&#45;&gt;Node3 -->
<g id="edge2" class="edge">
<title>Node2&#45;&gt;Node3</title>
<path fill="none" stroke="midnightblue" d="M138.71,-57.59C150.83,-62.71 165.83,-69.04 178.59,-74.43"/>
<polygon fill="midnightblue" stroke="midnightblue" points="177.25,-77.66 187.83,-78.33 179.98,-71.21 177.25,-77.66"/>
</g>
<!-- Node10 -->
<g id="node10" class="node">
<title>Node10</title>
<g id="a_node10"><a xlink:href="../../d5/d26/magnetic__fluxes_8f90.html#a017a13ebb77985454dd008ccdb9f4402" target="_top" xlink:title="Compute the enclosed toroidal magnetic flux.">
<polygon fill="white" stroke="black" points="186,-38.5 186,-57.5 228,-57.5 228,-38.5 186,-38.5"/>
<text text-anchor="middle" x="207" y="-45.5" font-family="Helvetica,sans-Serif" font-size="10.00">torflux</text>
</a>
</g>
</g>
<!-- Node2&#45;&gt;Node10 -->
<g id="edge9" class="edge">
<title>Node2&#45;&gt;Node10</title>
<path fill="none" stroke="midnightblue" d="M150.03,-48C158.4,-48 167.32,-48 175.51,-48"/>
<polygon fill="midnightblue" stroke="midnightblue" points="175.77,-51.5 185.77,-48 175.77,-44.5 175.77,-51.5"/>
</g>
<!-- Node11 -->
<g id="node11" class="node">
<title>Node11</title>
<g id="a_node11"><a xlink:href="../../d5/d26/magnetic__fluxes_8f90.html#a909f811a00045c6fef3c379defc1ed09" target="_top" xlink:title="Compute the radial derivative of the enclosed toroidal magnetic flux.">
<polygon fill="white" stroke="black" points="287.5,-0.5 287.5,-19.5 355.5,-19.5 355.5,-0.5 287.5,-0.5"/>
<text text-anchor="middle" x="321.5" y="-7.5" font-family="Helvetica,sans-Serif" font-size="10.00">torflux_deriv</text>
</a>
</g>
</g>
<!-- Node2&#45;&gt;Node11 -->
<g id="edge11" class="edge">
<title>Node2&#45;&gt;Node11</title>
<path fill="none" stroke="midnightblue" d="M147.86,-38.45C159.75,-35.13 173.42,-31.59 186,-29 216.28,-22.78 250.82,-17.94 277.32,-14.71"/>
<polygon fill="midnightblue" stroke="midnightblue" points="277.9,-18.17 287.41,-13.51 277.07,-11.22 277.9,-18.17"/>
</g>
<!-- Node4 -->
<g id="node4" class="node">
<title>Node4</title>
<g id="a_node4"><a xlink:href="../../d2/dcb/namespaceline__segment.html#aa63bfde0ff39e19622f7f5fe150e8b59" target="_top" xlink:title=" ">
<polygon fill="white" stroke="black" points="264,-152.5 264,-171.5 379,-171.5 379,-152.5 264,-152.5"/>
<text text-anchor="middle" x="321.5" y="-159.5" font-family="Helvetica,sans-Serif" font-size="10.00">line_segment::line_seg</text>
</a>
</g>
</g>
<!-- Node3&#45;&gt;Node4 -->
<g id="edge3" class="edge">
<title>Node3&#45;&gt;Node4</title>
<path fill="none" stroke="midnightblue" d="M215.26,-95.86C225.02,-108.46 243.54,-130.19 264,-143 267.31,-145.07 270.87,-146.95 274.54,-148.64"/>
<polygon fill="midnightblue" stroke="midnightblue" points="273.21,-151.87 283.79,-152.46 275.89,-145.41 273.21,-151.87"/>
</g>
<!-- Node5 -->
<g id="node5" class="node">
<title>Node5</title>
<g id="a_node5"><a xlink:href="../../d6/dec/spline__akima_8f.html#a7517a5f00e408c447a9dd0e438f60e52" target="_top" xlink:title=" ">
<polygon fill="white" stroke="black" points="284.5,-114.5 284.5,-133.5 358.5,-133.5 358.5,-114.5 284.5,-114.5"/>
<text text-anchor="middle" x="321.5" y="-121.5" font-family="Helvetica,sans-Serif" font-size="10.00">spline_akima</text>
</a>
</g>
</g>
<!-- Node3&#45;&gt;Node5 -->
<g id="edge4" class="edge">
<title>Node3&#45;&gt;Node5</title>
<path fill="none" stroke="midnightblue" d="M226.15,-92.17C237.11,-95.9 251.36,-100.73 264,-105 269.98,-107.02 276.33,-109.16 282.52,-111.24"/>
<polygon fill="midnightblue" stroke="midnightblue" points="281.45,-114.58 292.04,-114.45 283.68,-107.94 281.45,-114.58"/>
</g>
<!-- Node6 -->
<g id="node6" class="node">
<title>Node6</title>
<g id="a_node6"><a xlink:href="../../d8/d60/spline__cubic_8f.html#a60e9606a5fa1dcb7f79f9259b8e0d067" target="_top" xlink:title=" ">
<polygon fill="white" stroke="black" points="286,-76.5 286,-95.5 357,-95.5 357,-76.5 286,-76.5"/>
<text text-anchor="middle" x="321.5" y="-83.5" font-family="Helvetica,sans-Serif" font-size="10.00">spline_cubic</text>
</a>
</g>
</g>
<!-- Node3&#45;&gt;Node6 -->
<g id="edge5" class="edge">
<title>Node3&#45;&gt;Node6</title>
<path fill="none" stroke="midnightblue" d="M226.08,-86C239.35,-86 257.98,-86 275.2,-86"/>
<polygon fill="midnightblue" stroke="midnightblue" points="275.67,-89.5 285.67,-86 275.67,-82.5 275.67,-89.5"/>
</g>
<!-- Node9 -->
<g id="node9" class="node">
<title>Node9</title>
<g id="a_node9"><a xlink:href="../../d1/d4a/tolower_8f90.html#af0b4b410165cce4c9f0e5e6d82d21571" target="_top" xlink:title="Convert a string to lower case.">
<polygon fill="white" stroke="black" points="297.5,-38.5 297.5,-57.5 345.5,-57.5 345.5,-38.5 297.5,-38.5"/>
<text text-anchor="middle" x="321.5" y="-45.5" font-family="Helvetica,sans-Serif" font-size="10.00">tolower</text>
</a>
</g>
</g>
<!-- Node3&#45;&gt;Node9 -->
<g id="edge8" class="edge">
<title>Node3&#45;&gt;Node9</title>
<path fill="none" stroke="midnightblue" d="M226.15,-79.83C237.11,-76.1 251.36,-71.27 264,-67 271.72,-64.39 280.04,-61.59 287.85,-58.96"/>
<polygon fill="midnightblue" stroke="midnightblue" points="289.04,-62.26 297.4,-55.75 286.81,-55.62 289.04,-62.26"/>
</g>
<!-- Node7 -->
<g id="node7" class="node">
<title>Node7</title>
<g id="a_node7"><a xlink:href="../../d8/d60/spline__cubic_8f.html#a83fa704212982fff74dee5f6c68b241f" target="_top" xlink:title=" ">
<polygon fill="white" stroke="black" points="415,-95.5 415,-114.5 471,-114.5 471,-95.5 415,-95.5"/>
<text text-anchor="middle" x="443" y="-102.5" font-family="Helvetica,sans-Serif" font-size="10.00">spline_nr</text>
</a>
</g>
</g>
<!-- Node6&#45;&gt;Node7 -->
<g id="edge6" class="edge">
<title>Node6&#45;&gt;Node7</title>
<path fill="none" stroke="midnightblue" d="M357.06,-91.5C371.96,-93.86 389.42,-96.64 404.62,-99.06"/>
<polygon fill="midnightblue" stroke="midnightblue" points="404.29,-102.55 414.72,-100.66 405.39,-95.64 404.29,-102.55"/>
</g>
<!-- Node8 -->
<g id="node8" class="node">
<title>Node8</title>
<g id="a_node8"><a xlink:href="../../d8/d60/spline__cubic_8f.html#a1d13bcd91bd68259f6dbd2deb9919e6d" target="_top" xlink:title=" ">
<polygon fill="white" stroke="black" points="416.5,-57.5 416.5,-76.5 469.5,-76.5 469.5,-57.5 416.5,-57.5"/>
<text text-anchor="middle" x="443" y="-64.5" font-family="Helvetica,sans-Serif" font-size="10.00">splint_nr</text>
</a>
</g>
</g>
<!-- Node6&#45;&gt;Node8 -->
<g id="edge7" class="edge">
<title>Node6&#45;&gt;Node8</title>
<path fill="none" stroke="midnightblue" d="M357.06,-80.5C372.41,-78.06 390.47,-75.19 405.98,-72.73"/>
<polygon fill="midnightblue" stroke="midnightblue" points="406.92,-76.12 416.25,-71.09 405.82,-69.21 406.92,-76.12"/>
</g>
<!-- Node10&#45;&gt;Node11 -->
<g id="edge10" class="edge">
<title>Node10&#45;&gt;Node11</title>
<path fill="none" stroke="midnightblue" d="M228.21,-41.13C238.86,-37.51 252.13,-33.01 264,-29 269.98,-26.98 276.33,-24.84 282.52,-22.76"/>
<polygon fill="midnightblue" stroke="midnightblue" points="283.68,-26.06 292.04,-19.55 281.45,-19.42 283.68,-26.06"/>
</g>
</g>
</svg>
