<?xml version="1.0" encoding="UTF-8" standalone="no"?>
<!DOCTYPE svg PUBLIC "-//W3C//DTD SVG 1.1//EN"
 "http://www.w3.org/Graphics/SVG/1.1/DTD/svg11.dtd">
<!-- Generated by graphviz version 8.0.1 (20230327.1645)
 -->
<!-- Title: polflux_deriv Pages: 1 -->
<svg width="158pt" height="45pt"
 viewBox="0.00 0.00 158.00 45.00" xmlns="http://www.w3.org/2000/svg" xmlns:xlink="http://www.w3.org/1999/xlink">
<g id="graph0" class="graph" transform="scale(1 1) rotate(0) translate(4 41)">
<title>polflux_deriv</title>
<!-- Node1 -->
<g id="node1" class="node">
<title>Node1</title>
<g id="a_node1"><a xlink:title="Compute the radial derivative of the enclosed poloidal magnetic flux.">
<polygon fill="#999999" stroke="#666666" points="150,-19 80,-19 80,0 150,0 150,-19"/>
<text text-anchor="middle" x="115" y="-7" font-family="Helvetica,sans-Serif" font-size="10.00">polflux_deriv</text>
</a>
</g>
</g>
<!-- Node1&#45;&gt;Node1 -->
<g id="edge3" class="edge">
<title>Node1&#45;&gt;Node1</title>
<path fill="none" stroke="#63b8ff" d="M131.68,-30.1C129.75,-34.13 124.2,-37 115,-37 98.65,-37 93.8,-27.94 100.44,-19.37"/>
<polygon fill="#63b8ff" stroke="#63b8ff" points="134.93,-29.5 129.56,-20.37 128.06,-30.86 134.93,-29.5"/>
</g>
<!-- Node2 -->
<g id="node2" class="node">
<title>Node2</title>
<g id="a_node2"><a xlink:href="../../d5/d26/magnetic__fluxes_8f90.html#a9d78c3bac80a4d14cc82a93bc79e7dcd" target="_top" xlink:title="Compute the enclosed poloidal magnetic flux.">
<polygon fill="white" stroke="#666666" points="44,-19 0,-19 0,0 44,0 44,-19"/>
<text text-anchor="middle" x="22" y="-7" font-family="Helvetica,sans-Serif" font-size="10.00">polflux</text>
</a>
</g>
</g>
<!-- Node1&#45;&gt;Node2 -->
<g id="edge1" class="edge">
<title>Node1&#45;&gt;Node2</title>
<path fill="none" stroke="#63b8ff" d="M68.83,-9.5C60.24,-9.5 51.64,-9.5 44.25,-9.5"/>
<polygon fill="#63b8ff" stroke="#63b8ff" points="68.6,-13 78.6,-9.5 68.6,-6 68.6,-13"/>
</g>
<!-- Node2&#45;&gt;Node2 -->
<g id="edge2" class="edge">
<title>Node2&#45;&gt;Node2</title>
<path fill="none" stroke="#63b8ff" d="M38.68,-30.1C36.75,-34.13 31.2,-37 22,-37 5.65,-37 0.8,-27.94 7.44,-19.37"/>
<polygon fill="#63b8ff" stroke="#63b8ff" points="41.93,-29.5 36.56,-20.37 35.06,-30.86 41.93,-29.5"/>
</g>
</g>
</svg>
