<?xml version="1.0" encoding="UTF-8" standalone="no"?>
<!DOCTYPE svg PUBLIC "-//W3C//DTD SVG 1.1//EN"
 "http://www.w3.org/Graphics/SVG/1.1/DTD/svg11.dtd">
<!-- Generated by graphviz version 2.50.0 (20220203.2022)
 -->
<!-- Title: torflux_deriv Pages: 1 -->
<svg width="340pt" height="74pt"
 viewBox="0.00 0.00 340.00 74.00" xmlns="http://www.w3.org/2000/svg" xmlns:xlink="http://www.w3.org/1999/xlink">
<g id="graph0" class="graph" transform="scale(1 1) rotate(0) translate(4 70)">
<title>torflux_deriv</title>
<polygon fill="white" stroke="transparent" points="-4,4 -4,-70 336,-70 336,4 -4,4"/>
<!-- Node1 -->
<g id="node1" class="node">
<title>Node1</title>
<g id="a_node1"><a xlink:title="Compute the radial derivative of the enclosed toroidal magnetic flux.">
<polygon fill="#bfbfbf" stroke="black" points="264,-28.5 264,-47.5 332,-47.5 332,-28.5 264,-28.5"/>
<text text-anchor="middle" x="298" y="-35.5" font-family="Helvetica,sans-Serif" font-size="10.00">torflux_deriv</text>
</a>
</g>
</g>
<!-- Node1&#45;&gt;Node1 -->
<g id="edge8" class="edge">
<title>Node1&#45;&gt;Node1</title>
<path fill="none" stroke="midnightblue" d="M314.67,-57.4C313.55,-62.31 308,-66 298,-66 282,-66 277.38,-56.57 284.13,-47.76"/>
<polygon fill="midnightblue" stroke="midnightblue" points="318.02,-56.39 311.87,-47.76 311.29,-58.34 318.02,-56.39"/>
</g>
<!-- Node2 -->
<g id="node2" class="node">
<title>Node2</title>
<g id="a_node2"><a xlink:href="../../d5/d26/magnetic__fluxes_8f90.html#ad5e5642d688664c85a181c2d1fd6497f" target="_top" xlink:title="Compute the radial derivative of the enclosed poloidal magnetic flux.">
<polygon fill="white" stroke="black" points="80,-28.5 80,-47.5 150,-47.5 150,-28.5 80,-28.5"/>
<text text-anchor="middle" x="115" y="-35.5" font-family="Helvetica,sans-Serif" font-size="10.00">polflux_deriv</text>
</a>
</g>
</g>
<!-- Node1&#45;&gt;Node2 -->
<g id="edge1" class="edge">
<title>Node1&#45;&gt;Node2</title>
<path fill="none" stroke="midnightblue" d="M253.64,-44.53C245.15,-45.56 236.31,-46.46 228,-47 209.37,-48.21 204.63,-48.19 186,-47 174.26,-46.25 161.48,-44.79 150.1,-43.27"/>
<polygon fill="midnightblue" stroke="midnightblue" points="254.27,-47.97 263.74,-43.22 253.38,-41.03 254.27,-47.97"/>
</g>
<!-- Node4 -->
<g id="node4" class="node">
<title>Node4</title>
<g id="a_node4"><a xlink:href="../../d5/d26/magnetic__fluxes_8f90.html#a017a13ebb77985454dd008ccdb9f4402" target="_top" xlink:title="Compute the enclosed toroidal magnetic flux.">
<polygon fill="white" stroke="black" points="186,-0.5 186,-19.5 228,-19.5 228,-0.5 186,-0.5"/>
<text text-anchor="middle" x="207" y="-7.5" font-family="Helvetica,sans-Serif" font-size="10.00">torflux</text>
</a>
</g>
</g>
<!-- Node1&#45;&gt;Node4 -->
<g id="edge5" class="edge">
<title>Node1&#45;&gt;Node4</title>
<path fill="none" stroke="midnightblue" d="M256.63,-25.3C246.72,-22.18 236.54,-18.98 228.07,-16.31"/>
<polygon fill="midnightblue" stroke="midnightblue" points="255.78,-28.7 266.37,-28.36 257.88,-22.02 255.78,-28.7"/>
</g>
<!-- Node2&#45;&gt;Node2 -->
<g id="edge4" class="edge">
<title>Node2&#45;&gt;Node2</title>
<path fill="none" stroke="midnightblue" d="M132.04,-57.4C130.9,-62.31 125.22,-66 115,-66 98.65,-66 93.92,-56.57 100.82,-47.76"/>
<polygon fill="midnightblue" stroke="midnightblue" points="135.38,-56.35 129.18,-47.76 128.66,-58.34 135.38,-56.35"/>
</g>
<!-- Node3 -->
<g id="node3" class="node">
<title>Node3</title>
<g id="a_node3"><a xlink:href="../../d5/d26/magnetic__fluxes_8f90.html#a9d78c3bac80a4d14cc82a93bc79e7dcd" target="_top" xlink:title="Compute the enclosed poloidal magnetic flux.">
<polygon fill="white" stroke="black" points="0,-28.5 0,-47.5 44,-47.5 44,-28.5 0,-28.5"/>
<text text-anchor="middle" x="22" y="-35.5" font-family="Helvetica,sans-Serif" font-size="10.00">polflux</text>
</a>
</g>
</g>
<!-- Node2&#45;&gt;Node3 -->
<g id="edge2" class="edge">
<title>Node2&#45;&gt;Node3</title>
<path fill="none" stroke="midnightblue" d="M69.83,-38C60.86,-38 51.82,-38 44.11,-38"/>
<polygon fill="midnightblue" stroke="midnightblue" points="69.86,-41.5 79.86,-38 69.86,-34.5 69.86,-41.5"/>
</g>
<!-- Node3&#45;&gt;Node3 -->
<g id="edge3" class="edge">
<title>Node3&#45;&gt;Node3</title>
<path fill="none" stroke="midnightblue" d="M39.04,-57.4C37.9,-62.31 32.22,-66 22,-66 5.65,-66 0.92,-56.57 7.82,-47.76"/>
<polygon fill="midnightblue" stroke="midnightblue" points="42.38,-56.35 36.18,-47.76 35.66,-58.34 42.38,-56.35"/>
</g>
<!-- Node4&#45;&gt;Node2 -->
<g id="edge6" class="edge">
<title>Node4&#45;&gt;Node2</title>
<path fill="none" stroke="midnightblue" d="M175.84,-19.38C166.43,-22.31 156.04,-25.54 146.6,-28.48"/>
<polygon fill="midnightblue" stroke="midnightblue" points="177.07,-22.67 185.58,-16.35 174.99,-15.98 177.07,-22.67"/>
</g>
<!-- Node4&#45;&gt;Node4 -->
<g id="edge7" class="edge">
<title>Node4&#45;&gt;Node4</title>
<path fill="none" stroke="midnightblue" d="M223.67,-29.4C222.55,-34.31 217,-38 207,-38 191,-38 186.38,-28.57 193.13,-19.76"/>
<polygon fill="midnightblue" stroke="midnightblue" points="227.02,-28.39 220.87,-19.76 220.29,-30.34 227.02,-28.39"/>
</g>
</g>
</svg>
