<?xml version="1.0" encoding="UTF-8" standalone="no"?>
<!DOCTYPE svg PUBLIC "-//W3C//DTD SVG 1.1//EN"
 "http://www.w3.org/Graphics/SVG/1.1/DTD/svg11.dtd">
<!-- Generated by graphviz version 2.47.1 (20210421.1823)
 -->
<!-- Title: polflux_deriv Pages: 1 -->
<svg width="260pt" height="47pt"
 viewBox="0.00 0.00 260.00 47.00" xmlns="http://www.w3.org/2000/svg" xmlns:xlink="http://www.w3.org/1999/xlink">
<g id="graph0" class="graph" transform="scale(1 1) rotate(0) translate(4 43)">
<title>polflux_deriv</title>
<polygon fill="white" stroke="transparent" points="-4,4 -4,-43 256,-43 256,4 -4,4"/>
<!-- Node1 -->
<g id="node1" class="node">
<title>Node1</title>
<g id="a_node1"><a xlink:title=" ">
<polygon fill="#bfbfbf" stroke="black" points="0,-0.5 0,-19.5 70,-19.5 70,-0.5 0,-0.5"/>
<text text-anchor="middle" x="35" y="-7.5" font-family="Helvetica,sans-Serif" font-size="10.00">polflux_deriv</text>
</a>
</g>
</g>
<!-- Node2 -->
<g id="node2" class="node">
<title>Node2</title>
<g id="a_node2"><a xlink:href="../../d5/d26/magnetic__fluxes_8f90.html#a017a13ebb77985454dd008ccdb9f4402" target="_top" xlink:title=" ">
<polygon fill="white" stroke="black" points="106,-19.5 106,-38.5 148,-38.5 148,-19.5 106,-19.5"/>
<text text-anchor="middle" x="127" y="-26.5" font-family="Helvetica,sans-Serif" font-size="10.00">torflux</text>
</a>
</g>
</g>
<!-- Node1&#45;&gt;Node2 -->
<g id="edge1" class="edge">
<title>Node1&#45;&gt;Node2</title>
<path fill="none" stroke="midnightblue" d="M70.03,-17.18C78.5,-18.97 87.52,-20.88 95.79,-22.62"/>
<polygon fill="midnightblue" stroke="midnightblue" points="95.26,-26.09 105.77,-24.73 96.71,-19.24 95.26,-26.09"/>
</g>
<!-- Node3 -->
<g id="node3" class="node">
<title>Node3</title>
<g id="a_node3"><a xlink:href="../../d5/d26/magnetic__fluxes_8f90.html#a909f811a00045c6fef3c379defc1ed09" target="_top" xlink:title=" ">
<polygon fill="white" stroke="black" points="184,-0.5 184,-19.5 252,-19.5 252,-0.5 184,-0.5"/>
<text text-anchor="middle" x="218" y="-7.5" font-family="Helvetica,sans-Serif" font-size="10.00">torflux_deriv</text>
</a>
</g>
</g>
<!-- Node1&#45;&gt;Node3 -->
<g id="edge3" class="edge">
<title>Node1&#45;&gt;Node3</title>
<path fill="none" stroke="midnightblue" d="M70.04,-10C99.3,-10 141.67,-10 173.4,-10"/>
<polygon fill="midnightblue" stroke="midnightblue" points="173.72,-13.5 183.72,-10 173.72,-6.5 173.72,-13.5"/>
</g>
<!-- Node2&#45;&gt;Node3 -->
<g id="edge2" class="edge">
<title>Node2&#45;&gt;Node3</title>
<path fill="none" stroke="midnightblue" d="M148.2,-24.69C155.87,-23.05 164.94,-21.11 173.93,-19.19"/>
<polygon fill="midnightblue" stroke="midnightblue" points="174.92,-22.56 183.97,-17.05 173.46,-15.72 174.92,-22.56"/>
</g>
</g>
</svg>
