<?xml version="1.0" encoding="UTF-8" standalone="no"?>
<!DOCTYPE svg PUBLIC "-//W3C//DTD SVG 1.1//EN"
 "http://www.w3.org/Graphics/SVG/1.1/DTD/svg11.dtd">
<!-- Generated by graphviz version 2.49.3 (20211027.1501)
 -->
<!-- Title: torflux Pages: 1 -->
<svg width="154pt" height="46pt"
 viewBox="0.00 0.00 154.00 46.00" xmlns="http://www.w3.org/2000/svg" xmlns:xlink="http://www.w3.org/1999/xlink">
<g id="graph0" class="graph" transform="scale(1 1) rotate(0) translate(4 42)">
<title>torflux</title>
<polygon fill="white" stroke="transparent" points="-4,4 -4,-42 150,-42 150,4 -4,4"/>
<!-- Node1 -->
<g id="node1" class="node">
<title>Node1</title>
<g id="a_node1"><a xlink:title="Compute the enclosed toroidal magnetic flux.">
<polygon fill="#bfbfbf" stroke="black" points="0,-0.5 0,-19.5 42,-19.5 42,-0.5 0,-0.5"/>
<text text-anchor="middle" x="21" y="-7.5" font-family="Helvetica,sans-Serif" font-size="10.00">torflux</text>
</a>
</g>
</g>
<!-- Node1&#45;&gt;Node1 -->
<g id="edge1" class="edge">
<title>Node1&#45;&gt;Node1</title>
<path fill="none" stroke="midnightblue" d="M7.13,-19.76C0.38,-28.57 5,-38 21,-38 31,-38 36.55,-34.31 37.67,-29.4"/>
<polygon fill="midnightblue" stroke="midnightblue" points="41.02,-28.39 34.87,-19.76 34.29,-30.34 41.02,-28.39"/>
</g>
<!-- Node2 -->
<g id="node2" class="node">
<title>Node2</title>
<g id="a_node2"><a xlink:href="../../d5/d26/magnetic__fluxes_8f90.html#a909f811a00045c6fef3c379defc1ed09" target="_top" xlink:title="Compute the radial derivative of the enclosed toroidal magnetic flux.">
<polygon fill="white" stroke="black" points="78,-0.5 78,-19.5 146,-19.5 146,-0.5 78,-0.5"/>
<text text-anchor="middle" x="112" y="-7.5" font-family="Helvetica,sans-Serif" font-size="10.00">torflux_deriv</text>
</a>
</g>
</g>
<!-- Node1&#45;&gt;Node2 -->
<g id="edge2" class="edge">
<title>Node1&#45;&gt;Node2</title>
<path fill="none" stroke="midnightblue" d="M42.2,-10C49.87,-10 58.94,-10 67.93,-10"/>
<polygon fill="midnightblue" stroke="midnightblue" points="67.97,-13.5 77.97,-10 67.97,-6.5 67.97,-13.5"/>
</g>
<!-- Node2&#45;&gt;Node2 -->
<g id="edge3" class="edge">
<title>Node2&#45;&gt;Node2</title>
<path fill="none" stroke="midnightblue" d="M98.13,-19.76C91.38,-28.57 96,-38 112,-38 122,-38 127.55,-34.31 128.67,-29.4"/>
<polygon fill="midnightblue" stroke="midnightblue" points="132.02,-28.39 125.87,-19.76 125.29,-30.34 132.02,-28.39"/>
</g>
</g>
</svg>
