<?xml version="1.0" encoding="UTF-8" standalone="no"?>
<!DOCTYPE svg PUBLIC "-//W3C//DTD SVG 1.1//EN"
 "http://www.w3.org/Graphics/SVG/1.1/DTD/svg11.dtd">
<!-- Generated by graphviz version 8.0.1 (20230327.1645)
 -->
<!-- Title: tridslv Pages: 1 -->
<svg width="651pt" height="101pt"
 viewBox="0.00 0.00 651.00 101.00" xmlns="http://www.w3.org/2000/svg" xmlns:xlink="http://www.w3.org/1999/xlink">
<g id="graph0" class="graph" transform="scale(1 1) rotate(0) translate(4 97)">
<title>tridslv</title>
<!-- Node1 -->
<g id="node1" class="node">
<title>Node1</title>
<g id="a_node1"><a xlink:title="Solve a tridiagonal system of equations.">
<polygon fill="#999999" stroke="#666666" points="643,-56 600,-56 600,-37 643,-37 643,-56"/>
<text text-anchor="middle" x="621.5" y="-44" font-family="Helvetica,sans-Serif" font-size="10.00">tridslv</text>
</a>
</g>
</g>
<!-- Node2 -->
<g id="node2" class="node">
<title>Node2</title>
<g id="a_node2"><a xlink:href="../../d8/d86/scalfor_8f90.html#a2ef9c34d20ddf30cb7b15fe35066b8ca" target="_top" xlink:title="Build forces from different contributions.">
<polygon fill="white" stroke="#666666" points="564,-56 518,-56 518,-37 564,-37 564,-56"/>
<text text-anchor="middle" x="541" y="-44" font-family="Helvetica,sans-Serif" font-size="10.00">scalfor</text>
</a>
</g>
</g>
<!-- Node1&#45;&gt;Node2 -->
<g id="edge1" class="edge">
<title>Node1&#45;&gt;Node2</title>
<path fill="none" stroke="#63b8ff" d="M589.07,-46.5C580.82,-46.5 572.09,-46.5 564.42,-46.5"/>
<polygon fill="#63b8ff" stroke="#63b8ff" points="588.88,-50 598.88,-46.5 588.88,-43 588.88,-50"/>
</g>
<!-- Node3 -->
<g id="node3" class="node">
<title>Node3</title>
<g id="a_node3"><a xlink:href="../../db/d5a/residue_8f90.html#a2390b3cf93196383bbe960acb85b3e32" target="_top" xlink:title="Compute invariant residuals.">
<polygon fill="white" stroke="#666666" points="470,-93 422,-93 422,-74 470,-74 470,-93"/>
<text text-anchor="middle" x="446" y="-81" font-family="Helvetica,sans-Serif" font-size="10.00">residue</text>
</a>
</g>
</g>
<!-- Node2&#45;&gt;Node3 -->
<g id="edge2" class="edge">
<title>Node2&#45;&gt;Node3</title>
<path fill="none" stroke="#63b8ff" d="M507.97,-59.24C495.55,-64.18 481.6,-69.73 470.18,-74.28"/>
<polygon fill="#63b8ff" stroke="#63b8ff" points="508.96,-62.22 516.96,-55.27 506.37,-55.71 508.96,-62.22"/>
</g>
<!-- Node10 -->
<g id="node10" class="node">
<title>Node10</title>
<g id="a_node10"><a xlink:href="../../d3/d96/residue__con_8f90.html#a8b2d4eb1bd167c336b39b899858e7bfb" target="_top" xlink:title="Compute invariant residuals.">
<polygon fill="white" stroke="#666666" points="480.5,-56 411.5,-56 411.5,-37 480.5,-37 480.5,-56"/>
<text text-anchor="middle" x="446" y="-44" font-family="Helvetica,sans-Serif" font-size="10.00">residue_con</text>
</a>
</g>
</g>
<!-- Node2&#45;&gt;Node10 -->
<g id="edge10" class="edge">
<title>Node2&#45;&gt;Node10</title>
<path fill="none" stroke="#63b8ff" d="M507.24,-46.5C498.7,-46.5 489.48,-46.5 480.89,-46.5"/>
<polygon fill="#63b8ff" stroke="#63b8ff" points="506.96,-50 516.96,-46.5 506.96,-43 506.96,-50"/>
</g>
<!-- Node11 -->
<g id="node11" class="node">
<title>Node11</title>
<g id="a_node11"><a xlink:href="../../d5/d62/residue__mhd_8f90.html#a3ed729a2f8c8d70e4d2fef05c9dfc4c8" target="_top" xlink:title="Compute invariant residuals.">
<polygon fill="white" stroke="#666666" points="482,-19 410,-19 410,0 482,0 482,-19"/>
<text text-anchor="middle" x="446" y="-7" font-family="Helvetica,sans-Serif" font-size="10.00">residue_mhd</text>
</a>
</g>
</g>
<!-- Node2&#45;&gt;Node11 -->
<g id="edge12" class="edge">
<title>Node2&#45;&gt;Node11</title>
<path fill="none" stroke="#63b8ff" d="M508.01,-33.77C496.17,-29.06 482.94,-23.8 471.83,-19.38"/>
<polygon fill="#63b8ff" stroke="#63b8ff" points="506.37,-37.29 516.96,-37.73 508.96,-30.78 506.37,-37.29"/>
</g>
<!-- Node4 -->
<g id="node4" class="node">
<title>Node4</title>
<g id="a_node4"><a xlink:href="../../d3/d4f/funct3d_8f90.html#a800bacc22176e16323899df87b55c547" target="_top" xlink:title="Evaluate the three&#45;dimensional MHD energy functional. Think of this as the &quot;forward model&quot; that tells...">
<polygon fill="white" stroke="#666666" points="374,-56 325,-56 325,-37 374,-37 374,-56"/>
<text text-anchor="middle" x="349.5" y="-44" font-family="Helvetica,sans-Serif" font-size="10.00">funct3d</text>
</a>
</g>
</g>
<!-- Node3&#45;&gt;Node4 -->
<g id="edge3" class="edge">
<title>Node3&#45;&gt;Node4</title>
<path fill="none" stroke="#63b8ff" d="M411.68,-70.45C399.32,-65.62 385.58,-60.23 374.25,-55.8"/>
<polygon fill="#63b8ff" stroke="#63b8ff" points="410.05,-73.97 420.64,-74.35 412.6,-67.45 410.05,-73.97"/>
</g>
<!-- Node5 -->
<g id="node5" class="node">
<title>Node5</title>
<g id="a_node5"><a xlink:href="../../de/da9/evolve_8f90.html#a8103e838be03904e03551e04f6b396e4" target="_top" xlink:title="Take a single time step in Fourier space to evolve the Fourier coefficients describing the equilibriu...">
<polygon fill="white" stroke="#666666" points="289,-75 244,-75 244,-56 289,-56 289,-75"/>
<text text-anchor="middle" x="266.5" y="-63" font-family="Helvetica,sans-Serif" font-size="10.00">evolve</text>
</a>
</g>
</g>
<!-- Node4&#45;&gt;Node5 -->
<g id="edge4" class="edge">
<title>Node4&#45;&gt;Node5</title>
<path fill="none" stroke="#63b8ff" d="M313.95,-54.6C305.58,-56.57 296.85,-58.61 289.26,-60.4"/>
<polygon fill="#63b8ff" stroke="#63b8ff" points="314.7,-57.79 323.64,-52.1 313.1,-50.97 314.7,-57.79"/>
</g>
<!-- Node9 -->
<g id="node9" class="node">
<title>Node9</title>
<g id="a_node9"><a xlink:href="../../d0/d71/fileout_8f90.html#a7228e984aaf2c38bd772e3d846fab7af" target="_top" xlink:title="Write the output files.">
<polygon fill="white" stroke="#666666" points="204,-37 162,-37 162,-18 204,-18 204,-37"/>
<text text-anchor="middle" x="183" y="-25" font-family="Helvetica,sans-Serif" font-size="10.00">fileout</text>
</a>
</g>
</g>
<!-- Node4&#45;&gt;Node9 -->
<g id="edge8" class="edge">
<title>Node4&#45;&gt;Node9</title>
<path fill="none" stroke="#63b8ff" d="M313.98,-42.51C280.77,-38.68 231.68,-33.01 204.32,-29.85"/>
<polygon fill="#63b8ff" stroke="#63b8ff" points="313.24,-46.07 323.58,-43.74 314.05,-39.11 313.24,-46.07"/>
</g>
<!-- Node6 -->
<g id="node6" class="node">
<title>Node6</title>
<g id="a_node6"><a xlink:href="../../d7/d46/eqsolve_8f90.html#ab740b09d1b651e2ab8a60c5d552df0c2" target="_top" xlink:title="Iteratively evolve the Fourier coefficients that specify the equilibrium.">
<polygon fill="white" stroke="#666666" points="208,-74 158,-74 158,-55 208,-55 208,-74"/>
<text text-anchor="middle" x="183" y="-62" font-family="Helvetica,sans-Serif" font-size="10.00">eqsolve</text>
</a>
</g>
</g>
<!-- Node5&#45;&gt;Node6 -->
<g id="edge5" class="edge">
<title>Node5&#45;&gt;Node6</title>
<path fill="none" stroke="#63b8ff" d="M232.67,-65.1C224.6,-65 216.09,-64.89 208.49,-64.8"/>
<polygon fill="#63b8ff" stroke="#63b8ff" points="232.62,-68.61 242.66,-65.23 232.7,-61.61 232.62,-68.61"/>
</g>
<!-- Node7 -->
<g id="node7" class="node">
<title>Node7</title>
<g id="a_node7"><a xlink:href="../../db/d61/vmec_8f90.html#a6d38ab7be2f9d818da4541e1d352ea23" target="_top" xlink:title="Main driver for VMEC.">
<polygon fill="white" stroke="#666666" points="122,-55 81,-55 81,-36 122,-36 122,-55"/>
<text text-anchor="middle" x="101.5" y="-43" font-family="Helvetica,sans-Serif" font-size="10.00">vmec</text>
</a>
</g>
</g>
<!-- Node6&#45;&gt;Node7 -->
<g id="edge6" class="edge">
<title>Node6&#45;&gt;Node7</title>
<path fill="none" stroke="#63b8ff" d="M147.22,-56.19C138.72,-54.16 129.9,-52.05 122.37,-50.25"/>
<polygon fill="#63b8ff" stroke="#63b8ff" points="146.18,-59.78 156.72,-58.7 147.8,-52.97 146.18,-59.78"/>
</g>
<!-- Node8 -->
<g id="node8" class="node">
<title>Node8</title>
<g id="a_node8"><a xlink:href="../../db/d61/vmec_8f90.html#ace5bdf043bb85c8f0a9fc582bdb55725" target="_top" xlink:title="Main program of VMEC.">
<polygon fill="white" stroke="#666666" points="45,-55 0,-55 0,-36 45,-36 45,-55"/>
<text text-anchor="middle" x="22.5" y="-43" font-family="Helvetica,sans-Serif" font-size="10.00">xvmec</text>
</a>
</g>
</g>
<!-- Node7&#45;&gt;Node8 -->
<g id="edge7" class="edge">
<title>Node7&#45;&gt;Node8</title>
<path fill="none" stroke="#63b8ff" d="M69.67,-45.5C61.56,-45.5 52.97,-45.5 45.43,-45.5"/>
<polygon fill="#63b8ff" stroke="#63b8ff" points="69.67,-49 79.67,-45.5 69.67,-42 69.67,-49"/>
</g>
<!-- Node9&#45;&gt;Node7 -->
<g id="edge9" class="edge">
<title>Node9&#45;&gt;Node7</title>
<path fill="none" stroke="#63b8ff" d="M151.07,-34.5C141.42,-36.69 131.03,-39.04 122.35,-41"/>
<polygon fill="#63b8ff" stroke="#63b8ff" points="151.55,-37.76 160.53,-32.14 150,-30.93 151.55,-37.76"/>
</g>
<!-- Node10&#45;&gt;Node4 -->
<g id="edge11" class="edge">
<title>Node10&#45;&gt;Node4</title>
<path fill="none" stroke="#63b8ff" d="M400.35,-46.5C391.37,-46.5 382.27,-46.5 374.34,-46.5"/>
<polygon fill="#63b8ff" stroke="#63b8ff" points="400.15,-50 410.15,-46.5 400.15,-43 400.15,-50"/>
</g>
<!-- Node11&#45;&gt;Node4 -->
<g id="edge13" class="edge">
<title>Node11&#45;&gt;Node4</title>
<path fill="none" stroke="#63b8ff" d="M409.65,-23.34C397.85,-27.96 384.98,-33 374.27,-37.19"/>
<polygon fill="#63b8ff" stroke="#63b8ff" points="410.64,-26.32 418.68,-19.42 408.09,-19.8 410.64,-26.32"/>
</g>
</g>
</svg>
