<?xml version="1.0" encoding="UTF-8" standalone="no"?>
<!DOCTYPE svg PUBLIC "-//W3C//DTD SVG 1.1//EN"
 "http://www.w3.org/Graphics/SVG/1.1/DTD/svg11.dtd">
<!-- Generated by graphviz version 8.0.5 (20230430.1635)
 -->
<!-- Title: tridslv Pages: 1 -->
<svg width="646pt" height="101pt"
 viewBox="0.00 0.00 646.00 101.25" xmlns="http://www.w3.org/2000/svg" xmlns:xlink="http://www.w3.org/1999/xlink">
<g id="graph0" class="graph" transform="scale(1 1) rotate(0) translate(4 97.25)">
<title>tridslv</title>
<!-- Node1 -->
<g id="Node000001" class="node">
<title>Node1</title>
<g id="a_Node000001"><a xlink:title="Solve a tridiagonal system of equations.">
<polygon fill="#999999" stroke="#666666" points="638,-56.25 595.75,-56.25 595.75,-37 638,-37 638,-56.25"/>
<text text-anchor="middle" x="616.88" y="-42.75" font-family="Helvetica,sans-Serif" font-size="10.00">tridslv</text>
</a>
</g>
</g>
<!-- Node2 -->
<g id="Node000002" class="node">
<title>Node2</title>
<g id="a_Node000002"><a xlink:href="../../d8/d86/scalfor_8f90.html#a2ef9c34d20ddf30cb7b15fe35066b8ca" target="_top" xlink:title="Build forces from different contributions.">
<polygon fill="white" stroke="#666666" points="559.75,-56.25 514.5,-56.25 514.5,-37 559.75,-37 559.75,-56.25"/>
<text text-anchor="middle" x="537.12" y="-42.75" font-family="Helvetica,sans-Serif" font-size="10.00">scalfor</text>
</a>
</g>
</g>
<!-- Node1&#45;&gt;Node2 -->
<g id="edge1_Node000001_Node000002" class="edge">
<title>Node1&#45;&gt;Node2</title>
<g id="a_edge1_Node000001_Node000002"><a xlink:title=" ">
<path fill="none" stroke="#63b8ff" d="M584.65,-46.62C576.41,-46.62 567.69,-46.62 560.05,-46.62"/>
<polygon fill="#63b8ff" stroke="#63b8ff" points="584.45,-50.13 594.45,-46.62 584.45,-43.13 584.45,-50.13"/>
</a>
</g>
</g>
<!-- Node3 -->
<g id="Node000003" class="node">
<title>Node3</title>
<g id="a_Node000003"><a xlink:href="../../db/d5a/residue_8f90.html#a2390b3cf93196383bbe960acb85b3e32" target="_top" xlink:title="Compute invariant residuals.">
<polygon fill="white" stroke="#666666" points="466.5,-93.25 419,-93.25 419,-74 466.5,-74 466.5,-93.25"/>
<text text-anchor="middle" x="442.75" y="-79.75" font-family="Helvetica,sans-Serif" font-size="10.00">residue</text>
</a>
</g>
</g>
<!-- Node2&#45;&gt;Node3 -->
<g id="edge2_Node000002_Node000003" class="edge">
<title>Node2&#45;&gt;Node3</title>
<g id="a_edge2_Node000002_Node000003"><a xlink:title=" ">
<path fill="none" stroke="#63b8ff" d="M504.32,-59.37C491.98,-64.31 478.12,-69.86 466.77,-74.4"/>
<polygon fill="#63b8ff" stroke="#63b8ff" points="505.25,-62.36 513.23,-55.39 502.65,-55.86 505.25,-62.36"/>
</a>
</g>
</g>
<!-- Node10 -->
<g id="Node000010" class="node">
<title>Node10</title>
<g id="a_Node000010"><a xlink:href="../../d3/d96/residue__con_8f90.html#a8b2d4eb1bd167c336b39b899858e7bfb" target="_top" xlink:title="Compute invariant residuals.">
<polygon fill="white" stroke="#666666" points="477,-56.25 408.5,-56.25 408.5,-37 477,-37 477,-56.25"/>
<text text-anchor="middle" x="442.75" y="-42.75" font-family="Helvetica,sans-Serif" font-size="10.00">residue_con</text>
</a>
</g>
</g>
<!-- Node2&#45;&gt;Node10 -->
<g id="edge10_Node000002_Node000010" class="edge">
<title>Node2&#45;&gt;Node10</title>
<g id="a_edge10_Node000002_Node000010"><a xlink:title=" ">
<path fill="none" stroke="#63b8ff" d="M503.3,-46.62C494.89,-46.62 485.85,-46.62 477.41,-46.62"/>
<polygon fill="#63b8ff" stroke="#63b8ff" points="503.23,-50.13 513.23,-46.62 503.23,-43.13 503.23,-50.13"/>
</a>
</g>
</g>
<!-- Node11 -->
<g id="Node000011" class="node">
<title>Node11</title>
<g id="a_Node000011"><a xlink:href="../../d5/d62/residue__mhd_8f90.html#a3ed729a2f8c8d70e4d2fef05c9dfc4c8" target="_top" xlink:title="Compute invariant residuals.">
<polygon fill="white" stroke="#666666" points="478.5,-19.25 407,-19.25 407,0 478.5,0 478.5,-19.25"/>
<text text-anchor="middle" x="442.75" y="-5.75" font-family="Helvetica,sans-Serif" font-size="10.00">residue_mhd</text>
</a>
</g>
</g>
<!-- Node2&#45;&gt;Node11 -->
<g id="edge12_Node000002_Node000011" class="edge">
<title>Node2&#45;&gt;Node11</title>
<g id="a_edge12_Node000002_Node000011"><a xlink:title=" ">
<path fill="none" stroke="#63b8ff" d="M504.07,-33.79C492.5,-29.15 479.62,-23.99 468.75,-19.64"/>
<polygon fill="#63b8ff" stroke="#63b8ff" points="502.65,-37.39 513.23,-37.86 505.25,-30.89 502.65,-37.39"/>
</a>
</g>
</g>
<!-- Node4 -->
<g id="Node000004" class="node">
<title>Node4</title>
<g id="a_Node000004"><a xlink:href="../../d3/d4f/funct3d_8f90.html#a800bacc22176e16323899df87b55c547" target="_top" xlink:title="Evaluate the three&#45;dimensional MHD energy functional. Think of this as the &quot;forward model&quot; that tells...">
<polygon fill="white" stroke="#666666" points="371,-56.25 322.75,-56.25 322.75,-37 371,-37 371,-56.25"/>
<text text-anchor="middle" x="346.88" y="-42.75" font-family="Helvetica,sans-Serif" font-size="10.00">funct3d</text>
</a>
</g>
</g>
<!-- Node3&#45;&gt;Node4 -->
<g id="edge3_Node000003_Node000004" class="edge">
<title>Node3&#45;&gt;Node4</title>
<g id="a_edge3_Node000003_Node000004"><a xlink:title=" ">
<path fill="none" stroke="#63b8ff" d="M408.65,-70.58C396.38,-65.74 382.72,-60.36 371.47,-55.92"/>
<polygon fill="#63b8ff" stroke="#63b8ff" points="406.96,-74.07 417.54,-74.48 409.52,-67.56 406.96,-74.07"/>
</a>
</g>
</g>
<!-- Node5 -->
<g id="Node000005" class="node">
<title>Node5</title>
<g id="a_Node000005"><a xlink:href="../../de/da9/evolve_8f90.html#a8103e838be03904e03551e04f6b396e4" target="_top" xlink:title="Take a single time step in Fourier space to evolve the Fourier coefficients describing the equilibriu...">
<polygon fill="white" stroke="#666666" points="286.75,-75.25 242.25,-75.25 242.25,-56 286.75,-56 286.75,-75.25"/>
<text text-anchor="middle" x="264.5" y="-61.75" font-family="Helvetica,sans-Serif" font-size="10.00">evolve</text>
</a>
</g>
</g>
<!-- Node4&#45;&gt;Node5 -->
<g id="edge4_Node000004_Node000005" class="edge">
<title>Node4&#45;&gt;Node5</title>
<g id="a_edge4_Node000004_Node000005"><a xlink:title=" ">
<path fill="none" stroke="#63b8ff" d="M312.18,-54.59C303.68,-56.6 294.77,-58.71 287.04,-60.53"/>
<polygon fill="#63b8ff" stroke="#63b8ff" points="312.7,-57.83 321.63,-52.12 311.09,-51.02 312.7,-57.83"/>
</a>
</g>
</g>
<!-- Node9 -->
<g id="Node000009" class="node">
<title>Node9</title>
<g id="a_Node000009"><a xlink:href="../../d0/d71/fileout_8f90.html#a7228e984aaf2c38bd772e3d846fab7af" target="_top" xlink:title="Write the output files.">
<polygon fill="white" stroke="#666666" points="202.12,-37.25 160.62,-37.25 160.62,-18 202.12,-18 202.12,-37.25"/>
<text text-anchor="middle" x="181.38" y="-23.75" font-family="Helvetica,sans-Serif" font-size="10.00">fileout</text>
</a>
</g>
</g>
<!-- Node4&#45;&gt;Node9 -->
<g id="edge8_Node000004_Node000009" class="edge">
<title>Node4&#45;&gt;Node9</title>
<g id="a_edge8_Node000004_Node000009"><a xlink:title=" ">
<path fill="none" stroke="#63b8ff" d="M311.87,-42.67C278.7,-38.82 229.37,-33.09 202.17,-29.92"/>
<polygon fill="#63b8ff" stroke="#63b8ff" points="311.11,-46.22 321.45,-43.9 311.92,-39.27 311.11,-46.22"/>
</a>
</g>
</g>
<!-- Node6 -->
<g id="Node000006" class="node">
<title>Node6</title>
<g id="a_Node000006"><a xlink:href="../../d7/d46/eqsolve_8f90.html#ab740b09d1b651e2ab8a60c5d552df0c2" target="_top" xlink:title="Iteratively evolve the Fourier coefficients that specify the equilibrium.">
<polygon fill="white" stroke="#666666" points="206.25,-74.25 156.5,-74.25 156.5,-55 206.25,-55 206.25,-74.25"/>
<text text-anchor="middle" x="181.38" y="-60.75" font-family="Helvetica,sans-Serif" font-size="10.00">eqsolve</text>
</a>
</g>
</g>
<!-- Node5&#45;&gt;Node6 -->
<g id="edge5_Node000005_Node000006" class="edge">
<title>Node5&#45;&gt;Node6</title>
<g id="a_edge5_Node000005_Node000006"><a xlink:title=" ">
<path fill="none" stroke="#63b8ff" d="M231,-65.22C222.81,-65.12 214.16,-65.02 206.46,-64.92"/>
<polygon fill="#63b8ff" stroke="#63b8ff" points="230.72,-68.73 240.76,-65.36 230.8,-61.73 230.72,-68.73"/>
</a>
</g>
</g>
<!-- Node7 -->
<g id="Node000007" class="node">
<title>Node7</title>
<g id="a_Node000007"><a xlink:href="../../db/d61/vmec_8f90.html#a6d38ab7be2f9d818da4541e1d352ea23" target="_top" xlink:title="Main driver for VMEC.">
<polygon fill="white" stroke="#666666" points="120.5,-55.25 80.5,-55.25 80.5,-36 120.5,-36 120.5,-55.25"/>
<text text-anchor="middle" x="100.5" y="-41.75" font-family="Helvetica,sans-Serif" font-size="10.00">vmec</text>
</a>
</g>
</g>
<!-- Node6&#45;&gt;Node7 -->
<g id="edge6_Node000006_Node000007" class="edge">
<title>Node6&#45;&gt;Node7</title>
<g id="a_edge6_Node000006_Node000007"><a xlink:title=" ">
<path fill="none" stroke="#63b8ff" d="M145.79,-56.29C137.28,-54.24 128.46,-52.12 120.96,-50.31"/>
<polygon fill="#63b8ff" stroke="#63b8ff" points="144.74,-59.88 155.28,-58.82 146.38,-53.08 144.74,-59.88"/>
</a>
</g>
</g>
<!-- Node8 -->
<g id="Node000008" class="node">
<title>Node8</title>
<g id="a_Node000008"><a xlink:href="../../db/d61/vmec_8f90.html#ace5bdf043bb85c8f0a9fc582bdb55725" target="_top" xlink:title="Main program of VMEC.">
<polygon fill="white" stroke="#666666" points="44.5,-55.25 0,-55.25 0,-36 44.5,-36 44.5,-55.25"/>
<text text-anchor="middle" x="22.25" y="-41.75" font-family="Helvetica,sans-Serif" font-size="10.00">xvmec</text>
</a>
</g>
</g>
<!-- Node7&#45;&gt;Node8 -->
<g id="edge7_Node000007_Node000008" class="edge">
<title>Node7&#45;&gt;Node8</title>
<g id="a_edge7_Node000007_Node000008"><a xlink:title=" ">
<path fill="none" stroke="#63b8ff" d="M69.53,-45.62C61.31,-45.62 52.56,-45.62 44.91,-45.62"/>
<polygon fill="#63b8ff" stroke="#63b8ff" points="69.26,-49.13 79.26,-45.62 69.26,-42.13 69.26,-49.13"/>
</a>
</g>
</g>
<!-- Node9&#45;&gt;Node7 -->
<g id="edge9_Node000009_Node000007" class="edge">
<title>Node9&#45;&gt;Node7</title>
<g id="a_edge9_Node000009_Node000007"><a xlink:title=" ">
<path fill="none" stroke="#63b8ff" d="M149.91,-34.58C140.14,-36.81 129.6,-39.21 120.85,-41.21"/>
<polygon fill="#63b8ff" stroke="#63b8ff" points="150.5,-37.8 159.47,-32.17 148.94,-30.98 150.5,-37.8"/>
</a>
</g>
</g>
<!-- Node10&#45;&gt;Node4 -->
<g id="edge11_Node000010_Node000004" class="edge">
<title>Node10&#45;&gt;Node4</title>
<g id="a_edge11_Node000010_Node000004"><a xlink:title=" ">
<path fill="none" stroke="#63b8ff" d="M397.3,-46.62C388.3,-46.62 379.19,-46.62 371.27,-46.62"/>
<polygon fill="#63b8ff" stroke="#63b8ff" points="397.12,-50.13 407.12,-46.62 397.12,-43.13 397.12,-50.13"/>
</a>
</g>
</g>
<!-- Node11&#45;&gt;Node4 -->
<g id="edge13_Node000011_Node000004" class="edge">
<title>Node11&#45;&gt;Node4</title>
<g id="a_edge13_Node000011_Node000004"><a xlink:title=" ">
<path fill="none" stroke="#63b8ff" d="M406.16,-23.65C394.48,-28.26 381.79,-33.26 371.25,-37.41"/>
<polygon fill="#63b8ff" stroke="#63b8ff" points="407.08,-26.66 415.1,-19.74 404.51,-20.15 407.08,-26.66"/>
</a>
</g>
</g>
</g>
</svg>
