<?xml version="1.0" encoding="UTF-8" standalone="no"?>
<!DOCTYPE svg PUBLIC "-//W3C//DTD SVG 1.1//EN"
 "http://www.w3.org/Graphics/SVG/1.1/DTD/svg11.dtd">
<!-- Generated by graphviz version 2.47.1 (20210421.1823)
 -->
<!-- Title: convert_asym Pages: 1 -->
<svg width="511pt" height="104pt"
 viewBox="0.00 0.00 511.00 104.00" xmlns="http://www.w3.org/2000/svg" xmlns:xlink="http://www.w3.org/1999/xlink">
<g id="graph0" class="graph" transform="scale(1 1) rotate(0) translate(4 100)">
<title>convert_asym</title>
<polygon fill="white" stroke="transparent" points="-4,4 -4,-100 507,-100 507,4 -4,4"/>
<!-- Node1 -->
<g id="node1" class="node">
<title>Node1</title>
<g id="a_node1"><a xlink:title=" ">
<polygon fill="#bfbfbf" stroke="black" points="426,-38.5 426,-57.5 503,-57.5 503,-38.5 426,-38.5"/>
<text text-anchor="middle" x="464.5" y="-45.5" font-family="Helvetica,sans-Serif" font-size="10.00">convert_asym</text>
</a>
</g>
</g>
<!-- Node2 -->
<g id="node2" class="node">
<title>Node2</title>
<g id="a_node2"><a xlink:href="../../de/daf/spectrum_8f90.html#afecccf953acda8cefc93e3f955198fcc" target="_top" xlink:title=" ">
<polygon fill="white" stroke="black" points="333,-76.5 333,-95.5 390,-95.5 390,-76.5 333,-76.5"/>
<text text-anchor="middle" x="361.5" y="-83.5" font-family="Helvetica,sans-Serif" font-size="10.00">spectrum</text>
</a>
</g>
</g>
<!-- Node1&#45;&gt;Node2 -->
<g id="edge1" class="edge">
<title>Node1&#45;&gt;Node2</title>
<path fill="none" stroke="midnightblue" d="M428.63,-61.12C415.28,-66.14 400.3,-71.78 387.98,-76.41"/>
<polygon fill="midnightblue" stroke="midnightblue" points="429.89,-64.39 438.01,-57.59 427.42,-57.83 429.89,-64.39"/>
</g>
<!-- Node6 -->
<g id="node6" class="node">
<title>Node6</title>
<g id="a_node6"><a xlink:href="../../dc/d49/totzsp_8f90.html#a8c3f89c23a3be79d0f993c5031f7eab5" target="_top" xlink:title=" ">
<polygon fill="white" stroke="black" points="337.5,-38.5 337.5,-57.5 385.5,-57.5 385.5,-38.5 337.5,-38.5"/>
<text text-anchor="middle" x="361.5" y="-45.5" font-family="Helvetica,sans-Serif" font-size="10.00">totzspa</text>
</a>
</g>
</g>
<!-- Node1&#45;&gt;Node6 -->
<g id="edge5" class="edge">
<title>Node1&#45;&gt;Node6</title>
<path fill="none" stroke="midnightblue" d="M415.62,-48C405.23,-48 394.69,-48 385.77,-48"/>
<polygon fill="midnightblue" stroke="midnightblue" points="415.89,-51.5 425.89,-48 415.89,-44.5 415.89,-51.5"/>
</g>
<!-- Node10 -->
<g id="node10" class="node">
<title>Node10</title>
<g id="a_node10"><a xlink:href="../../de/d3f/wrout_8f90.html#acfcf1bded82176b6a4a4a4ca430d75a9" target="_top" xlink:title=" ">
<polygon fill="white" stroke="black" points="252,-0.5 252,-19.5 293,-19.5 293,-0.5 252,-0.5"/>
<text text-anchor="middle" x="272.5" y="-7.5" font-family="Helvetica,sans-Serif" font-size="10.00">wrout</text>
</a>
</g>
</g>
<!-- Node1&#45;&gt;Node10 -->
<g id="edge11" class="edge">
<title>Node1&#45;&gt;Node10</title>
<path fill="none" stroke="midnightblue" d="M419.43,-35.91C409.77,-33.46 399.57,-31.01 390,-29 356.31,-21.91 316.67,-15.95 293.39,-12.68"/>
<polygon fill="midnightblue" stroke="midnightblue" points="418.69,-39.34 429.25,-38.45 420.45,-32.56 418.69,-39.34"/>
</g>
<!-- Node3 -->
<g id="node3" class="node">
<title>Node3</title>
<g id="a_node3"><a xlink:href="../../d7/dc9/printout_8f90.html#ad981fdd1d509a05592ecbea3ef831797" target="_top" xlink:title="Print iteration progress to screen and threed1 output file.">
<polygon fill="white" stroke="black" points="163,-76.5 163,-95.5 212,-95.5 212,-76.5 163,-76.5"/>
<text text-anchor="middle" x="187.5" y="-83.5" font-family="Helvetica,sans-Serif" font-size="10.00">printout</text>
</a>
</g>
</g>
<!-- Node2&#45;&gt;Node3 -->
<g id="edge2" class="edge">
<title>Node2&#45;&gt;Node3</title>
<path fill="none" stroke="midnightblue" d="M322.48,-86C288.79,-86 240.66,-86 212.19,-86"/>
<polygon fill="midnightblue" stroke="midnightblue" points="322.87,-89.5 332.87,-86 322.87,-82.5 322.87,-89.5"/>
</g>
<!-- Node4 -->
<g id="node4" class="node">
<title>Node4</title>
<g id="a_node4"><a xlink:href="../../d7/d46/eqsolve_8f90.html#ab740b09d1b651e2ab8a60c5d552df0c2" target="_top" xlink:title="Iteratively evolve the Fourier coefficients that specify the equilibrium.">
<polygon fill="white" stroke="black" points="77,-38.5 77,-57.5 127,-57.5 127,-38.5 77,-38.5"/>
<text text-anchor="middle" x="102" y="-45.5" font-family="Helvetica,sans-Serif" font-size="10.00">eqsolve</text>
</a>
</g>
</g>
<!-- Node3&#45;&gt;Node4 -->
<g id="edge3" class="edge">
<title>Node3&#45;&gt;Node4</title>
<path fill="none" stroke="midnightblue" d="M156.06,-72.15C145.43,-67.31 133.75,-62 124.06,-57.59"/>
<polygon fill="midnightblue" stroke="midnightblue" points="154.88,-75.45 165.43,-76.41 157.78,-69.08 154.88,-75.45"/>
</g>
<!-- Node5 -->
<g id="node5" class="node">
<title>Node5</title>
<g id="a_node5"><a xlink:href="../../db/d61/vmec_8f90.html#a6d38ab7be2f9d818da4541e1d352ea23" target="_top" xlink:title="Main driver for VMEC.">
<polygon fill="white" stroke="black" points="0,-19.5 0,-38.5 41,-38.5 41,-19.5 0,-19.5"/>
<text text-anchor="middle" x="20.5" y="-26.5" font-family="Helvetica,sans-Serif" font-size="10.00">vmec</text>
</a>
</g>
</g>
<!-- Node4&#45;&gt;Node5 -->
<g id="edge4" class="edge">
<title>Node4&#45;&gt;Node5</title>
<path fill="none" stroke="midnightblue" d="M66.71,-39.8C57.96,-37.71 48.84,-35.53 41.11,-33.69"/>
<polygon fill="midnightblue" stroke="midnightblue" points="66.18,-43.28 76.72,-42.2 67.8,-36.47 66.18,-43.28"/>
</g>
<!-- Node7 -->
<g id="node7" class="node">
<title>Node7</title>
<g id="a_node7"><a xlink:href="../../d3/d4f/funct3d_8f90.html#a800bacc22176e16323899df87b55c547" target="_top" xlink:title="Evaluate the three&#45;dimensional MHD energy functional.">
<polygon fill="white" stroke="black" points="248,-38.5 248,-57.5 297,-57.5 297,-38.5 248,-38.5"/>
<text text-anchor="middle" x="272.5" y="-45.5" font-family="Helvetica,sans-Serif" font-size="10.00">funct3d</text>
</a>
</g>
</g>
<!-- Node6&#45;&gt;Node7 -->
<g id="edge6" class="edge">
<title>Node6&#45;&gt;Node7</title>
<path fill="none" stroke="midnightblue" d="M327.15,-48C317.16,-48 306.41,-48 297.18,-48"/>
<polygon fill="midnightblue" stroke="midnightblue" points="327.19,-51.5 337.19,-48 327.19,-44.5 327.19,-51.5"/>
</g>
<!-- Node8 -->
<g id="node8" class="node">
<title>Node8</title>
<g id="a_node8"><a xlink:href="../../de/da9/evolve_8f90.html#a8103e838be03904e03551e04f6b396e4" target="_top" xlink:title="Take a single time step in Fourier space to evolve the Fourier coefficients describing the equilibriu...">
<polygon fill="white" stroke="black" points="165,-38.5 165,-57.5 210,-57.5 210,-38.5 165,-38.5"/>
<text text-anchor="middle" x="187.5" y="-45.5" font-family="Helvetica,sans-Serif" font-size="10.00">evolve</text>
</a>
</g>
</g>
<!-- Node7&#45;&gt;Node8 -->
<g id="edge7" class="edge">
<title>Node7&#45;&gt;Node8</title>
<path fill="none" stroke="midnightblue" d="M237.75,-48C228.43,-48 218.56,-48 210.13,-48"/>
<polygon fill="midnightblue" stroke="midnightblue" points="237.94,-51.5 247.94,-48 237.94,-44.5 237.94,-51.5"/>
</g>
<!-- Node9 -->
<g id="node9" class="node">
<title>Node9</title>
<g id="a_node9"><a xlink:href="../../d0/d71/fileout_8f90.html#a7228e984aaf2c38bd772e3d846fab7af" target="_top" xlink:title="Write the output files.">
<polygon fill="white" stroke="black" points="166.5,-0.5 166.5,-19.5 208.5,-19.5 208.5,-0.5 166.5,-0.5"/>
<text text-anchor="middle" x="187.5" y="-7.5" font-family="Helvetica,sans-Serif" font-size="10.00">fileout</text>
</a>
</g>
</g>
<!-- Node7&#45;&gt;Node9 -->
<g id="edge9" class="edge">
<title>Node7&#45;&gt;Node9</title>
<path fill="none" stroke="midnightblue" d="M241.35,-34.2C230.44,-29.2 218.41,-23.69 208.58,-19.19"/>
<polygon fill="midnightblue" stroke="midnightblue" points="240.01,-37.43 250.56,-38.41 242.92,-31.07 240.01,-37.43"/>
</g>
<!-- Node8&#45;&gt;Node4 -->
<g id="edge8" class="edge">
<title>Node8&#45;&gt;Node4</title>
<path fill="none" stroke="midnightblue" d="M154.97,-48C145.73,-48 135.78,-48 127.08,-48"/>
<polygon fill="midnightblue" stroke="midnightblue" points="155,-51.5 165,-48 155,-44.5 155,-51.5"/>
</g>
<!-- Node9&#45;&gt;Node5 -->
<g id="edge10" class="edge">
<title>Node9&#45;&gt;Node5</title>
<path fill="none" stroke="midnightblue" d="M156.12,-13.5C122.58,-17.36 69.59,-23.46 41.13,-26.74"/>
<polygon fill="midnightblue" stroke="midnightblue" points="156.73,-16.95 166.27,-12.33 155.93,-10 156.73,-16.95"/>
</g>
<!-- Node10&#45;&gt;Node9 -->
<g id="edge12" class="edge">
<title>Node10&#45;&gt;Node9</title>
<path fill="none" stroke="midnightblue" d="M241.76,-10C230.76,-10 218.55,-10 208.61,-10"/>
<polygon fill="midnightblue" stroke="midnightblue" points="241.83,-13.5 251.83,-10 241.83,-6.5 241.83,-13.5"/>
</g>
</g>
</svg>
