<?xml version="1.0" encoding="UTF-8" standalone="no"?>
<!DOCTYPE svg PUBLIC "-//W3C//DTD SVG 1.1//EN"
 "http://www.w3.org/Graphics/SVG/1.1/DTD/svg11.dtd">
<!-- Generated by graphviz version 8.0.1 (20230327.1645)
 -->
<!-- Title: convert_asym Pages: 1 -->
<svg width="592pt" height="102pt"
 viewBox="0.00 0.00 592.00 102.00" xmlns="http://www.w3.org/2000/svg" xmlns:xlink="http://www.w3.org/1999/xlink">
<g id="graph0" class="graph" transform="scale(1 1) rotate(0) translate(4 98)">
<title>convert_asym</title>
<!-- Node1 -->
<g id="node1" class="node">
<title>Node1</title>
<g id="a_node1"><a xlink:title="Convert from internal representation to &quot;physical&quot; rmnsc, zmncc Fourier form.">
<polygon fill="#999999" stroke="#666666" points="584,-57 507,-57 507,-38 584,-38 584,-57"/>
<text text-anchor="middle" x="545.5" y="-45" font-family="Helvetica,sans-Serif" font-size="10.00">convert_asym</text>
</a>
</g>
</g>
<!-- Node2 -->
<g id="node2" class="node">
<title>Node2</title>
<g id="a_node2"><a xlink:href="../../de/daf/spectrum_8f90.html#afecccf953acda8cefc93e3f955198fcc" target="_top" xlink:title="Compute the spectral width of the surface geometry Fourier coefficients.">
<polygon fill="white" stroke="#666666" points="471,-94 414,-94 414,-75 471,-75 471,-94"/>
<text text-anchor="middle" x="442.5" y="-82" font-family="Helvetica,sans-Serif" font-size="10.00">spectrum</text>
</a>
</g>
</g>
<!-- Node1&#45;&gt;Node2 -->
<g id="edge1" class="edge">
<title>Node1&#45;&gt;Node2</title>
<path fill="none" stroke="#63b8ff" d="M507.15,-61.18C495.05,-65.62 481.86,-70.45 470.64,-74.56"/>
<polygon fill="#63b8ff" stroke="#63b8ff" points="508.25,-64.14 516.43,-57.42 505.84,-57.57 508.25,-64.14"/>
</g>
<!-- Node7 -->
<g id="node7" class="node">
<title>Node7</title>
<g id="a_node7"><a xlink:href="../../dc/d49/totzsp_8f90.html#a8c3f89c23a3be79d0f993c5031f7eab5" target="_top" xlink:title="Inverse&#45;Fourier&#45;transform anti&#45;symmetric part of geometry from Fourier space to real space.">
<polygon fill="white" stroke="#666666" points="466.5,-57 418.5,-57 418.5,-38 466.5,-38 466.5,-57"/>
<text text-anchor="middle" x="442.5" y="-45" font-family="Helvetica,sans-Serif" font-size="10.00">totzspa</text>
</a>
</g>
</g>
<!-- Node1&#45;&gt;Node7 -->
<g id="edge6" class="edge">
<title>Node1&#45;&gt;Node7</title>
<path fill="none" stroke="#63b8ff" d="M495.8,-47.5C485.74,-47.5 475.58,-47.5 466.93,-47.5"/>
<polygon fill="#63b8ff" stroke="#63b8ff" points="495.6,-51 505.6,-47.5 495.6,-44 495.6,-51"/>
</g>
<!-- Node11 -->
<g id="node11" class="node">
<title>Node11</title>
<g id="a_node11"><a xlink:href="../../de/d3f/wrout_8f90.html#acfcf1bded82176b6a4a4a4ca430d75a9" target="_top" xlink:title="Write the output files of VMEC.">
<polygon fill="white" stroke="#666666" points="374,-19 333,-19 333,0 374,0 374,-19"/>
<text text-anchor="middle" x="353.5" y="-7" font-family="Helvetica,sans-Serif" font-size="10.00">wrout</text>
</a>
</g>
</g>
<!-- Node1&#45;&gt;Node11 -->
<g id="edge12" class="edge">
<title>Node1&#45;&gt;Node11</title>
<path fill="none" stroke="#63b8ff" d="M498.39,-34.89C489.34,-32.61 479.9,-30.37 471,-28.5 437.31,-21.41 397.67,-15.45 374.39,-12.18"/>
<polygon fill="#63b8ff" stroke="#63b8ff" points="497.21,-38.46 507.77,-37.56 498.95,-31.68 497.21,-38.46"/>
</g>
<!-- Node3 -->
<g id="node3" class="node">
<title>Node3</title>
<g id="a_node3"><a xlink:href="../../d7/dc9/printout_8f90.html#ad981fdd1d509a05592ecbea3ef831797" target="_top" xlink:title="Print iteration progress to screen and threed1 output file.">
<polygon fill="white" stroke="#666666" points="293,-93 244,-93 244,-74 293,-74 293,-93"/>
<text text-anchor="middle" x="268.5" y="-81" font-family="Helvetica,sans-Serif" font-size="10.00">printout</text>
</a>
</g>
</g>
<!-- Node2&#45;&gt;Node3 -->
<g id="edge2" class="edge">
<title>Node2&#45;&gt;Node3</title>
<path fill="none" stroke="#63b8ff" d="M403.07,-84.28C369.51,-84.08 321.85,-83.8 293.46,-83.64"/>
<polygon fill="#63b8ff" stroke="#63b8ff" points="402.85,-87.78 412.87,-84.34 402.89,-80.78 402.85,-87.78"/>
</g>
<!-- Node4 -->
<g id="node4" class="node">
<title>Node4</title>
<g id="a_node4"><a xlink:href="../../d7/d46/eqsolve_8f90.html#ab740b09d1b651e2ab8a60c5d552df0c2" target="_top" xlink:title="Iteratively evolve the Fourier coefficients that specify the equilibrium.">
<polygon fill="white" stroke="#666666" points="208,-57 158,-57 158,-38 208,-38 208,-57"/>
<text text-anchor="middle" x="183" y="-45" font-family="Helvetica,sans-Serif" font-size="10.00">eqsolve</text>
</a>
</g>
</g>
<!-- Node3&#45;&gt;Node4 -->
<g id="edge3" class="edge">
<title>Node3&#45;&gt;Node4</title>
<path fill="none" stroke="#63b8ff" d="M234.64,-69.33C225.42,-65.36 215.6,-61.12 207.08,-57.45"/>
<polygon fill="#63b8ff" stroke="#63b8ff" points="233.11,-72.92 243.68,-73.66 235.89,-66.49 233.11,-72.92"/>
</g>
<!-- Node5 -->
<g id="node5" class="node">
<title>Node5</title>
<g id="a_node5"><a xlink:href="../../db/d61/vmec_8f90.html#a6d38ab7be2f9d818da4541e1d352ea23" target="_top" xlink:title="Main driver for VMEC.">
<polygon fill="white" stroke="#666666" points="122,-38 81,-38 81,-19 122,-19 122,-38"/>
<text text-anchor="middle" x="101.5" y="-26" font-family="Helvetica,sans-Serif" font-size="10.00">vmec</text>
</a>
</g>
</g>
<!-- Node4&#45;&gt;Node5 -->
<g id="edge4" class="edge">
<title>Node4&#45;&gt;Node5</title>
<path fill="none" stroke="#63b8ff" d="M147.22,-39.19C138.72,-37.16 129.9,-35.05 122.37,-33.25"/>
<polygon fill="#63b8ff" stroke="#63b8ff" points="146.18,-42.78 156.72,-41.7 147.8,-35.97 146.18,-42.78"/>
</g>
<!-- Node6 -->
<g id="node6" class="node">
<title>Node6</title>
<g id="a_node6"><a xlink:href="../../db/d61/vmec_8f90.html#ace5bdf043bb85c8f0a9fc582bdb55725" target="_top" xlink:title="Main program of VMEC.">
<polygon fill="white" stroke="#666666" points="45,-38 0,-38 0,-19 45,-19 45,-38"/>
<text text-anchor="middle" x="22.5" y="-26" font-family="Helvetica,sans-Serif" font-size="10.00">xvmec</text>
</a>
</g>
</g>
<!-- Node5&#45;&gt;Node6 -->
<g id="edge5" class="edge">
<title>Node5&#45;&gt;Node6</title>
<path fill="none" stroke="#63b8ff" d="M69.67,-28.5C61.56,-28.5 52.97,-28.5 45.43,-28.5"/>
<polygon fill="#63b8ff" stroke="#63b8ff" points="69.67,-32 79.67,-28.5 69.67,-25 69.67,-32"/>
</g>
<!-- Node8 -->
<g id="node8" class="node">
<title>Node8</title>
<g id="a_node8"><a xlink:href="../../d3/d4f/funct3d_8f90.html#a800bacc22176e16323899df87b55c547" target="_top" xlink:title="Evaluate the three&#45;dimensional MHD energy functional. Think of this as the &quot;forward model&quot; that tells...">
<polygon fill="white" stroke="#666666" points="378,-56 329,-56 329,-37 378,-37 378,-56"/>
<text text-anchor="middle" x="353.5" y="-44" font-family="Helvetica,sans-Serif" font-size="10.00">funct3d</text>
</a>
</g>
</g>
<!-- Node7&#45;&gt;Node8 -->
<g id="edge7" class="edge">
<title>Node7&#45;&gt;Node8</title>
<path fill="none" stroke="#63b8ff" d="M407.29,-47.11C397.66,-47 387.38,-46.88 378.49,-46.78"/>
<polygon fill="#63b8ff" stroke="#63b8ff" points="407.15,-50.62 417.19,-47.23 407.23,-43.62 407.15,-50.62"/>
</g>
<!-- Node9 -->
<g id="node9" class="node">
<title>Node9</title>
<g id="a_node9"><a xlink:href="../../de/da9/evolve_8f90.html#a8103e838be03904e03551e04f6b396e4" target="_top" xlink:title="Take a single time step in Fourier space to evolve the Fourier coefficients describing the equilibriu...">
<polygon fill="white" stroke="#666666" points="291,-56 246,-56 246,-37 291,-37 291,-56"/>
<text text-anchor="middle" x="268.5" y="-44" font-family="Helvetica,sans-Serif" font-size="10.00">evolve</text>
</a>
</g>
</g>
<!-- Node8&#45;&gt;Node9 -->
<g id="edge8" class="edge">
<title>Node8&#45;&gt;Node9</title>
<path fill="none" stroke="#63b8ff" d="M318.24,-46.5C309.17,-46.5 299.63,-46.5 291.41,-46.5"/>
<polygon fill="#63b8ff" stroke="#63b8ff" points="317.94,-50 327.94,-46.5 317.94,-43 317.94,-50"/>
</g>
<!-- Node10 -->
<g id="node10" class="node">
<title>Node10</title>
<g id="a_node10"><a xlink:href="../../d0/d71/fileout_8f90.html#a7228e984aaf2c38bd772e3d846fab7af" target="_top" xlink:title="Write the output files.">
<polygon fill="white" stroke="#666666" points="289.5,-19 247.5,-19 247.5,0 289.5,0 289.5,-19"/>
<text text-anchor="middle" x="268.5" y="-7" font-family="Helvetica,sans-Serif" font-size="10.00">fileout</text>
</a>
</g>
</g>
<!-- Node8&#45;&gt;Node10 -->
<g id="edge10" class="edge">
<title>Node8&#45;&gt;Node10</title>
<path fill="none" stroke="#63b8ff" d="M320.35,-32.17C310.08,-27.59 299,-22.65 289.81,-18.55"/>
<polygon fill="#63b8ff" stroke="#63b8ff" points="318.7,-35.71 329.26,-36.58 321.55,-29.32 318.7,-35.71"/>
</g>
<!-- Node9&#45;&gt;Node4 -->
<g id="edge9" class="edge">
<title>Node9&#45;&gt;Node4</title>
<path fill="none" stroke="#63b8ff" d="M234.85,-46.89C226.06,-47 216.7,-47.11 208.44,-47.21"/>
<polygon fill="#63b8ff" stroke="#63b8ff" points="234.6,-50.38 244.56,-46.76 234.52,-43.38 234.6,-50.38"/>
</g>
<!-- Node10&#45;&gt;Node5 -->
<g id="edge11" class="edge">
<title>Node10&#45;&gt;Node5</title>
<path fill="none" stroke="#63b8ff" d="M236.71,-13.05C203.26,-16.9 150.79,-22.94 122.38,-26.21"/>
<polygon fill="#63b8ff" stroke="#63b8ff" points="236.73,-16.45 246.27,-11.83 235.93,-9.5 236.73,-16.45"/>
</g>
<!-- Node11&#45;&gt;Node10 -->
<g id="edge13" class="edge">
<title>Node11&#45;&gt;Node10</title>
<path fill="none" stroke="#63b8ff" d="M322.16,-9.5C311.42,-9.5 299.61,-9.5 289.9,-9.5"/>
<polygon fill="#63b8ff" stroke="#63b8ff" points="321.83,-13 331.83,-9.5 321.83,-6 321.83,-13"/>
</g>
</g>
</svg>
