<?xml version="1.0" encoding="UTF-8" standalone="no"?>
<!DOCTYPE svg PUBLIC "-//W3C//DTD SVG 1.1//EN"
 "http://www.w3.org/Graphics/SVG/1.1/DTD/svg11.dtd">
<!-- Generated by graphviz version 8.0.5 (20230430.1635)
 -->
<!-- Title: convert_asym Pages: 1 -->
<svg width="588pt" height="102pt"
 viewBox="0.00 0.00 588.00 102.25" xmlns="http://www.w3.org/2000/svg" xmlns:xlink="http://www.w3.org/1999/xlink">
<g id="graph0" class="graph" transform="scale(1 1) rotate(0) translate(4 98.25)">
<title>convert_asym</title>
<!-- Node1 -->
<g id="Node000001" class="node">
<title>Node1</title>
<g id="a_Node000001"><a xlink:title="Convert from internal representation to &quot;physical&quot; rmnsc, zmncc Fourier form.">
<polygon fill="#999999" stroke="#666666" points="580,-57.25 503.25,-57.25 503.25,-38 580,-38 580,-57.25"/>
<text text-anchor="middle" x="541.62" y="-43.75" font-family="Helvetica,sans-Serif" font-size="10.00">convert_asym</text>
</a>
</g>
</g>
<!-- Node2 -->
<g id="Node000002" class="node">
<title>Node2</title>
<g id="a_Node000002"><a xlink:href="../../de/daf/spectrum_8f90.html#afecccf953acda8cefc93e3f955198fcc" target="_top" xlink:title="Compute the spectral width of the surface geometry Fourier coefficients.">
<polygon fill="white" stroke="#666666" points="467.25,-94.25 410.75,-94.25 410.75,-75 467.25,-75 467.25,-94.25"/>
<text text-anchor="middle" x="439" y="-80.75" font-family="Helvetica,sans-Serif" font-size="10.00">spectrum</text>
</a>
</g>
</g>
<!-- Node1&#45;&gt;Node2 -->
<g id="edge1_Node000001_Node000002" class="edge">
<title>Node1&#45;&gt;Node2</title>
<g id="a_edge1_Node000001_Node000002"><a xlink:title=" ">
<path fill="none" stroke="#63b8ff" d="M503.08,-61.43C491.26,-65.78 478.44,-70.49 467.46,-74.53"/>
<polygon fill="#63b8ff" stroke="#63b8ff" points="503.95,-64.47 512.13,-57.74 501.54,-57.9 503.95,-64.47"/>
</a>
</g>
</g>
<!-- Node7 -->
<g id="Node000007" class="node">
<title>Node7</title>
<g id="a_Node000007"><a xlink:href="../../dc/d49/totzsp_8f90.html#a8c3f89c23a3be79d0f993c5031f7eab5" target="_top" xlink:title="Inverse&#45;Fourier&#45;transform anti&#45;symmetric part of geometry from Fourier space to real space.">
<polygon fill="white" stroke="#666666" points="462.75,-57.25 415.25,-57.25 415.25,-38 462.75,-38 462.75,-57.25"/>
<text text-anchor="middle" x="439" y="-43.75" font-family="Helvetica,sans-Serif" font-size="10.00">totzspa</text>
</a>
</g>
</g>
<!-- Node1&#45;&gt;Node7 -->
<g id="edge6_Node000001_Node000007" class="edge">
<title>Node1&#45;&gt;Node7</title>
<g id="a_edge6_Node000001_Node000007"><a xlink:title=" ">
<path fill="none" stroke="#63b8ff" d="M492.01,-47.62C481.9,-47.62 471.7,-47.62 463.05,-47.62"/>
<polygon fill="#63b8ff" stroke="#63b8ff" points="491.87,-51.13 501.87,-47.62 491.87,-44.13 491.87,-51.13"/>
</a>
</g>
</g>
<!-- Node11 -->
<g id="Node000011" class="node">
<title>Node11</title>
<g id="a_Node000011"><a xlink:href="../../de/d3f/wrout_8f90.html#acfcf1bded82176b6a4a4a4ca430d75a9" target="_top" xlink:title="Write the output files of VMEC.">
<polygon fill="white" stroke="#666666" points="370.62,-19.25 330.62,-19.25 330.62,0 370.62,0 370.62,-19.25"/>
<text text-anchor="middle" x="350.62" y="-5.75" font-family="Helvetica,sans-Serif" font-size="10.00">wrout</text>
</a>
</g>
</g>
<!-- Node1&#45;&gt;Node11 -->
<g id="edge12_Node000001_Node000011" class="edge">
<title>Node1&#45;&gt;Node11</title>
<g id="a_edge12_Node000001_Node000011"><a xlink:title=" ">
<path fill="none" stroke="#63b8ff" d="M494.01,-34.88C485.16,-32.65 475.95,-30.46 467.25,-28.62 433.61,-21.52 394,-15.52 370.96,-12.26"/>
<polygon fill="#63b8ff" stroke="#63b8ff" points="493.02,-38.5 503.58,-37.6 494.76,-31.72 493.02,-38.5"/>
</a>
</g>
</g>
<!-- Node3 -->
<g id="Node000003" class="node">
<title>Node3</title>
<g id="a_Node000003"><a xlink:href="../../d7/dc9/printout_8f90.html#ad981fdd1d509a05592ecbea3ef831797" target="_top" xlink:title="Print iteration progress to screen and threed1 output file.">
<polygon fill="white" stroke="#666666" points="290.5,-93.25 242.25,-93.25 242.25,-74 290.5,-74 290.5,-93.25"/>
<text text-anchor="middle" x="266.38" y="-79.75" font-family="Helvetica,sans-Serif" font-size="10.00">printout</text>
</a>
</g>
</g>
<!-- Node2&#45;&gt;Node3 -->
<g id="edge2_Node000002_Node000003" class="edge">
<title>Node2&#45;&gt;Node3</title>
<g id="a_edge2_Node000002_Node000003"><a xlink:title=" ">
<path fill="none" stroke="#63b8ff" d="M399.85,-84.4C366.45,-84.21 318.99,-83.93 290.88,-83.76"/>
<polygon fill="#63b8ff" stroke="#63b8ff" points="399.57,-87.91 409.59,-84.46 399.61,-80.91 399.57,-87.91"/>
</a>
</g>
</g>
<!-- Node4 -->
<g id="Node000004" class="node">
<title>Node4</title>
<g id="a_Node000004"><a xlink:href="../../d7/d46/eqsolve_8f90.html#ab740b09d1b651e2ab8a60c5d552df0c2" target="_top" xlink:title="Iteratively evolve the Fourier coefficients that specify the equilibrium.">
<polygon fill="white" stroke="#666666" points="206.25,-57.25 156.5,-57.25 156.5,-38 206.25,-38 206.25,-57.25"/>
<text text-anchor="middle" x="181.38" y="-43.75" font-family="Helvetica,sans-Serif" font-size="10.00">eqsolve</text>
</a>
</g>
</g>
<!-- Node3&#45;&gt;Node4 -->
<g id="edge3_Node000003_Node000004" class="edge">
<title>Node3&#45;&gt;Node4</title>
<g id="a_edge3_Node000003_Node000004"><a xlink:title=" ">
<path fill="none" stroke="#63b8ff" d="M232.17,-69.22C223.29,-65.37 213.88,-61.29 205.66,-57.72"/>
<polygon fill="#63b8ff" stroke="#63b8ff" points="230.69,-72.83 241.25,-73.6 233.47,-66.41 230.69,-72.83"/>
</a>
</g>
</g>
<!-- Node5 -->
<g id="Node000005" class="node">
<title>Node5</title>
<g id="a_Node000005"><a xlink:href="../../db/d61/vmec_8f90.html#a6d38ab7be2f9d818da4541e1d352ea23" target="_top" xlink:title="Main driver for VMEC.">
<polygon fill="white" stroke="#666666" points="120.5,-38.25 80.5,-38.25 80.5,-19 120.5,-19 120.5,-38.25"/>
<text text-anchor="middle" x="100.5" y="-24.75" font-family="Helvetica,sans-Serif" font-size="10.00">vmec</text>
</a>
</g>
</g>
<!-- Node4&#45;&gt;Node5 -->
<g id="edge4_Node000004_Node000005" class="edge">
<title>Node4&#45;&gt;Node5</title>
<g id="a_edge4_Node000004_Node000005"><a xlink:title=" ">
<path fill="none" stroke="#63b8ff" d="M145.79,-39.29C137.28,-37.24 128.46,-35.12 120.96,-33.31"/>
<polygon fill="#63b8ff" stroke="#63b8ff" points="144.74,-42.88 155.28,-41.82 146.38,-36.08 144.74,-42.88"/>
</a>
</g>
</g>
<!-- Node6 -->
<g id="Node000006" class="node">
<title>Node6</title>
<g id="a_Node000006"><a xlink:href="../../db/d61/vmec_8f90.html#ace5bdf043bb85c8f0a9fc582bdb55725" target="_top" xlink:title="Main program of VMEC.">
<polygon fill="white" stroke="#666666" points="44.5,-38.25 0,-38.25 0,-19 44.5,-19 44.5,-38.25"/>
<text text-anchor="middle" x="22.25" y="-24.75" font-family="Helvetica,sans-Serif" font-size="10.00">xvmec</text>
</a>
</g>
</g>
<!-- Node5&#45;&gt;Node6 -->
<g id="edge5_Node000005_Node000006" class="edge">
<title>Node5&#45;&gt;Node6</title>
<g id="a_edge5_Node000005_Node000006"><a xlink:title=" ">
<path fill="none" stroke="#63b8ff" d="M69.53,-28.62C61.31,-28.62 52.56,-28.62 44.91,-28.62"/>
<polygon fill="#63b8ff" stroke="#63b8ff" points="69.26,-32.13 79.26,-28.62 69.26,-25.13 69.26,-32.13"/>
</a>
</g>
</g>
<!-- Node8 -->
<g id="Node000008" class="node">
<title>Node8</title>
<g id="a_Node000008"><a xlink:href="../../d3/d4f/funct3d_8f90.html#a800bacc22176e16323899df87b55c547" target="_top" xlink:title="Evaluate the three&#45;dimensional MHD energy functional. Think of this as the &quot;forward model&quot; that tells...">
<polygon fill="white" stroke="#666666" points="374.75,-56.25 326.5,-56.25 326.5,-37 374.75,-37 374.75,-56.25"/>
<text text-anchor="middle" x="350.62" y="-42.75" font-family="Helvetica,sans-Serif" font-size="10.00">funct3d</text>
</a>
</g>
</g>
<!-- Node7&#45;&gt;Node8 -->
<g id="edge7_Node000007_Node000008" class="edge">
<title>Node7&#45;&gt;Node8</title>
<g id="a_edge7_Node000007_Node000008"><a xlink:title=" ">
<path fill="none" stroke="#63b8ff" d="M403.94,-47.23C394.3,-47.12 384.01,-47 375.14,-46.9"/>
<polygon fill="#63b8ff" stroke="#63b8ff" points="403.81,-50.74 413.85,-47.36 403.89,-43.74 403.81,-50.74"/>
</a>
</g>
</g>
<!-- Node9 -->
<g id="Node000009" class="node">
<title>Node9</title>
<g id="a_Node000009"><a xlink:href="../../de/da9/evolve_8f90.html#a8103e838be03904e03551e04f6b396e4" target="_top" xlink:title="Take a single time step in Fourier space to evolve the Fourier coefficients describing the equilibriu...">
<polygon fill="white" stroke="#666666" points="288.62,-56.25 244.12,-56.25 244.12,-37 288.62,-37 288.62,-56.25"/>
<text text-anchor="middle" x="266.38" y="-42.75" font-family="Helvetica,sans-Serif" font-size="10.00">evolve</text>
</a>
</g>
</g>
<!-- Node8&#45;&gt;Node9 -->
<g id="edge8_Node000008_Node000009" class="edge">
<title>Node8&#45;&gt;Node9</title>
<g id="a_edge8_Node000008_Node000009"><a xlink:title=" ">
<path fill="none" stroke="#63b8ff" d="M315.37,-46.62C306.48,-46.62 297.14,-46.62 289.09,-46.62"/>
<polygon fill="#63b8ff" stroke="#63b8ff" points="315.28,-50.13 325.28,-46.62 315.28,-43.13 315.28,-50.13"/>
</a>
</g>
</g>
<!-- Node10 -->
<g id="Node000010" class="node">
<title>Node10</title>
<g id="a_Node000010"><a xlink:href="../../d0/d71/fileout_8f90.html#a7228e984aaf2c38bd772e3d846fab7af" target="_top" xlink:title="Write the output files.">
<polygon fill="white" stroke="#666666" points="287.12,-19.25 245.62,-19.25 245.62,0 287.12,0 287.12,-19.25"/>
<text text-anchor="middle" x="266.38" y="-5.75" font-family="Helvetica,sans-Serif" font-size="10.00">fileout</text>
</a>
</g>
</g>
<!-- Node8&#45;&gt;Node10 -->
<g id="edge10_Node000008_Node000010" class="edge">
<title>Node8&#45;&gt;Node10</title>
<g id="a_edge10_Node000008_Node000010"><a xlink:title=" ">
<path fill="none" stroke="#63b8ff" d="M317.12,-32C307.15,-27.52 296.47,-22.71 287.57,-18.71"/>
<polygon fill="#63b8ff" stroke="#63b8ff" points="315.59,-35.6 326.15,-36.51 318.47,-29.22 315.59,-35.6"/>
</a>
</g>
</g>
<!-- Node9&#45;&gt;Node4 -->
<g id="edge9_Node000009_Node000004" class="edge">
<title>Node9&#45;&gt;Node4</title>
<g id="a_edge9_Node000009_Node000004"><a xlink:title=" ">
<path fill="none" stroke="#63b8ff" d="M233.24,-47.01C224.39,-47.12 214.93,-47.23 206.61,-47.33"/>
<polygon fill="#63b8ff" stroke="#63b8ff" points="233.04,-50.5 243,-46.88 232.96,-43.5 233.04,-50.5"/>
</a>
</g>
</g>
<!-- Node10&#45;&gt;Node5 -->
<g id="edge11_Node000010_Node000005" class="edge">
<title>Node10&#45;&gt;Node5</title>
<g id="a_edge11_Node000010_Node000005"><a xlink:title=" ">
<path fill="none" stroke="#63b8ff" d="M234.77,-13.17C201.44,-17.04 149.14,-23.1 120.99,-26.36"/>
<polygon fill="#63b8ff" stroke="#63b8ff" points="234.75,-16.58 244.28,-11.95 233.94,-9.63 234.75,-16.58"/>
</a>
</g>
</g>
<!-- Node11&#45;&gt;Node10 -->
<g id="edge13_Node000011_Node000010" class="edge">
<title>Node11&#45;&gt;Node10</title>
<g id="a_edge13_Node000011_Node000010"><a xlink:title=" ">
<path fill="none" stroke="#63b8ff" d="M319.23,-9.62C308.67,-9.62 297.11,-9.62 287.59,-9.62"/>
<polygon fill="#63b8ff" stroke="#63b8ff" points="319.13,-13.13 329.13,-9.62 319.13,-6.13 319.13,-13.13"/>
</a>
</g>
</g>
</g>
</svg>
