<?xml version="1.0" encoding="UTF-8" standalone="no"?>
<!DOCTYPE svg PUBLIC "-//W3C//DTD SVG 1.1//EN"
 "http://www.w3.org/Graphics/SVG/1.1/DTD/svg11.dtd">
<!-- Generated by graphviz version 2.49.3 (20211027.1501)
 -->
<!-- Title: bcovar Pages: 1 -->
<svg width="317pt" height="200pt"
 viewBox="0.00 0.00 317.00 199.51" xmlns="http://www.w3.org/2000/svg" xmlns:xlink="http://www.w3.org/1999/xlink">
<g id="graph0" class="graph" transform="scale(1 1) rotate(0) translate(4 195.51)">
<title>bcovar</title>
<polygon fill="white" stroke="transparent" points="-4,4 -4,-195.51 313,-195.51 313,4 -4,4"/>
<!-- Node1 -->
<g id="node1" class="node">
<title>Node1</title>
<g id="a_node1"><a xlink:title="Compute the covariant components of the magnetic field , .">
<polygon fill="#bfbfbf" stroke="black" points="0,-95.5 0,-114.5 46,-114.5 46,-95.5 0,-95.5"/>
<text text-anchor="middle" x="23" y="-102.5" font-family="Helvetica,sans-Serif" font-size="10.00">bcovar</text>
</a>
</g>
</g>
<!-- Node2 -->
<g id="node2" class="node">
<title>Node2</title>
<g id="a_node2"><a xlink:href="../../d8/d7d/add__fluxes_8f90.html#a988e7013ef02301b9cfbde5b8068d5af" target="_top" xlink:title="Add the magnetic fluxes to the tangential derivatives of &#160;to arrive at the contravariant magnetic fie...">
<polygon fill="white" stroke="black" points="82,-152.5 82,-171.5 144,-171.5 144,-152.5 82,-152.5"/>
<text text-anchor="middle" x="113" y="-159.5" font-family="Helvetica,sans-Serif" font-size="10.00">add_fluxes</text>
</a>
</g>
</g>
<!-- Node1&#45;&gt;Node2 -->
<g id="edge1" class="edge">
<title>Node1&#45;&gt;Node2</title>
<path fill="none" stroke="midnightblue" d="M38.74,-114.75C50.44,-122.46 67.22,-133.48 82,-143 83.94,-144.25 85.95,-145.54 87.97,-146.83"/>
<polygon fill="midnightblue" stroke="midnightblue" points="86.39,-149.97 96.71,-152.38 90.15,-144.06 86.39,-149.97"/>
</g>
<!-- Node3 -->
<g id="node3" class="node">
<title>Node3</title>
<g id="a_node3"><a xlink:href="../../d8/dfd/namespacedbgout.html#a0752528f123b592bc57f687438b75d9b" target="_top" xlink:title=" ">
<polygon fill="white" stroke="black" points="180,-147.5 180,-166.5 309,-166.5 309,-147.5 180,-147.5"/>
<text text-anchor="middle" x="244.5" y="-154.5" font-family="Helvetica,sans-Serif" font-size="10.00">dbgout::open_dbg_context</text>
</a>
</g>
</g>
<!-- Node1&#45;&gt;Node3 -->
<g id="edge11" class="edge">
<title>Node1&#45;&gt;Node3</title>
<path fill="none" stroke="midnightblue" d="M27.94,-114.76C35.48,-131.92 53.73,-167.01 82,-181 125.13,-202.34 182.07,-184.83 215.54,-170.61"/>
<polygon fill="midnightblue" stroke="midnightblue" points="217.01,-173.78 224.73,-166.53 214.17,-167.38 217.01,-173.78"/>
</g>
<!-- Node4 -->
<g id="node4" class="node">
<title>Node4</title>
<g id="a_node4"><a xlink:href="../../d8/dfd/namespacedbgout.html#a0537172e9da0db08b9d29ab8880f0559" target="_top" xlink:title=" ">
<polygon fill="white" stroke="black" points="192,-86.5 192,-105.5 297,-105.5 297,-86.5 192,-86.5"/>
<text text-anchor="middle" x="244.5" y="-93.5" font-family="Helvetica,sans-Serif" font-size="10.00">dbgout::should_write</text>
</a>
</g>
</g>
<!-- Node1&#45;&gt;Node4 -->
<g id="edge13" class="edge">
<title>Node1&#45;&gt;Node4</title>
<path fill="none" stroke="midnightblue" d="M34.57,-95.3C45.5,-85.97 63.54,-72.51 82,-67 127.02,-53.56 181.07,-69.48 213.82,-82.5"/>
<polygon fill="midnightblue" stroke="midnightblue" points="212.69,-85.82 223.27,-86.42 215.37,-79.35 212.69,-85.82"/>
</g>
<!-- Node5 -->
<g id="node5" class="node">
<title>Node5</title>
<g id="a_node5"><a xlink:href="../../d9/dff/calc__fbal_8f90.html#a6cdc3d21c48f66aeaff8ab5e639641b6" target="_top" xlink:title="Compute flux&#45;surface averaged radial force balance .">
<polygon fill="white" stroke="black" points="85,-114.5 85,-133.5 141,-133.5 141,-114.5 85,-114.5"/>
<text text-anchor="middle" x="113" y="-121.5" font-family="Helvetica,sans-Serif" font-size="10.00">calc_fbal</text>
</a>
</g>
</g>
<!-- Node1&#45;&gt;Node5 -->
<g id="edge5" class="edge">
<title>Node1&#45;&gt;Node5</title>
<path fill="none" stroke="midnightblue" d="M46.21,-109.79C54.9,-111.67 65.11,-113.88 74.86,-115.98"/>
<polygon fill="midnightblue" stroke="midnightblue" points="74.25,-119.43 84.77,-118.12 75.73,-112.59 74.25,-119.43"/>
</g>
<!-- Node6 -->
<g id="node6" class="node">
<title>Node6</title>
<g id="a_node6"><a xlink:href="../../d4/d51/lamcal_8f90.html#aae66bdcec0bbb969704413d933148096" target="_top" xlink:title="Normalization parameters for .">
<polygon fill="white" stroke="black" points="90.5,-76.5 90.5,-95.5 135.5,-95.5 135.5,-76.5 90.5,-76.5"/>
<text text-anchor="middle" x="113" y="-83.5" font-family="Helvetica,sans-Serif" font-size="10.00">lamcal</text>
</a>
</g>
</g>
<!-- Node1&#45;&gt;Node6 -->
<g id="edge8" class="edge">
<title>Node1&#45;&gt;Node6</title>
<path fill="none" stroke="midnightblue" d="M46.21,-100.21C56.58,-97.97 69.11,-95.26 80.44,-92.81"/>
<polygon fill="midnightblue" stroke="midnightblue" points="81.37,-96.19 90.41,-90.66 79.9,-89.35 81.37,-96.19"/>
</g>
<!-- Node7 -->
<g id="node7" class="node">
<title>Node7</title>
<g id="a_node7"><a xlink:href="../../d4/da9/precondn_8f90.html#a4c530a7978360300894520e9c5f7663c" target="_top" xlink:title="Compute preconditioning matrix elements for , &#160;force.">
<polygon fill="white" stroke="black" points="85,-0.5 85,-19.5 141,-19.5 141,-0.5 85,-0.5"/>
<text text-anchor="middle" x="113" y="-7.5" font-family="Helvetica,sans-Serif" font-size="10.00">precondn</text>
</a>
</g>
</g>
<!-- Node1&#45;&gt;Node7 -->
<g id="edge12" class="edge">
<title>Node1&#45;&gt;Node7</title>
<path fill="none" stroke="midnightblue" d="M30.92,-95.27C41.24,-81.07 61.64,-54.15 82,-34 84.72,-31.31 87.73,-28.62 90.76,-26.06"/>
<polygon fill="midnightblue" stroke="midnightblue" points="93.05,-28.71 98.65,-19.71 88.66,-23.25 93.05,-28.71"/>
</g>
<!-- Node2&#45;&gt;Node3 -->
<g id="edge2" class="edge">
<title>Node2&#45;&gt;Node3</title>
<path fill="none" stroke="midnightblue" d="M144.04,-160.84C151.85,-160.54 160.63,-160.2 169.64,-159.85"/>
<polygon fill="midnightblue" stroke="midnightblue" points="170.03,-163.34 179.89,-159.46 169.76,-156.34 170.03,-163.34"/>
</g>
<!-- Node2&#45;&gt;Node4 -->
<g id="edge3" class="edge">
<title>Node2&#45;&gt;Node4</title>
<path fill="none" stroke="midnightblue" d="M132.83,-152.4C154.6,-141.31 190.64,-122.94 215.65,-110.19"/>
<polygon fill="midnightblue" stroke="midnightblue" points="217.33,-113.27 224.65,-105.61 214.15,-107.03 217.33,-113.27"/>
</g>
<!-- Node4&#45;&gt;Node4 -->
<g id="edge4" class="edge">
<title>Node4&#45;&gt;Node4</title>
<path fill="none" stroke="midnightblue" d="M224.46,-105.76C214.72,-114.57 221.39,-124 244.5,-124 259.3,-124 267.36,-120.13 268.68,-115.03"/>
<polygon fill="midnightblue" stroke="midnightblue" points="271.81,-113.46 264.54,-105.76 265.42,-116.31 271.81,-113.46"/>
</g>
<!-- Node5&#45;&gt;Node3 -->
<g id="edge6" class="edge">
<title>Node5&#45;&gt;Node3</title>
<path fill="none" stroke="midnightblue" d="M141.15,-130.92C157.12,-134.99 177.75,-140.25 196.31,-144.97"/>
<polygon fill="midnightblue" stroke="midnightblue" points="195.52,-148.39 206.07,-147.46 197.25,-141.6 195.52,-148.39"/>
</g>
<!-- Node5&#45;&gt;Node4 -->
<g id="edge7" class="edge">
<title>Node5&#45;&gt;Node4</title>
<path fill="none" stroke="midnightblue" d="M141.15,-118.13C155.09,-115.12 172.59,-111.33 189.16,-107.75"/>
<polygon fill="midnightblue" stroke="midnightblue" points="190.28,-111.09 199.31,-105.55 188.8,-104.25 190.28,-111.09"/>
</g>
<!-- Node6&#45;&gt;Node3 -->
<g id="edge9" class="edge">
<title>Node6&#45;&gt;Node3</title>
<path fill="none" stroke="midnightblue" d="M129.76,-95.58C134.41,-98.51 139.46,-101.81 144,-105 160.58,-116.66 162.32,-123.08 180,-133 187.23,-137.06 195.29,-140.7 203.17,-143.85"/>
<polygon fill="midnightblue" stroke="midnightblue" points="202.04,-147.16 212.63,-147.43 204.52,-140.61 202.04,-147.16"/>
</g>
<!-- Node6&#45;&gt;Node4 -->
<g id="edge10" class="edge">
<title>Node6&#45;&gt;Node4</title>
<path fill="none" stroke="midnightblue" d="M135.68,-87.67C148.38,-88.65 165.12,-89.95 181.62,-91.22"/>
<polygon fill="midnightblue" stroke="midnightblue" points="181.58,-94.73 191.82,-92.01 182.12,-87.75 181.58,-94.73"/>
</g>
</g>
</svg>
