<?xml version="1.0" encoding="UTF-8" standalone="no"?>
<!DOCTYPE svg PUBLIC "-//W3C//DTD SVG 1.1//EN"
 "http://www.w3.org/Graphics/SVG/1.1/DTD/svg11.dtd">
<!-- Generated by graphviz version 7.1.0 (20230121.1956)
 -->
<!-- Title: bcovar Pages: 1 -->
<svg width="317pt" height="177pt"
 viewBox="0.00 0.00 317.00 177.00" xmlns="http://www.w3.org/2000/svg" xmlns:xlink="http://www.w3.org/1999/xlink">
<g id="graph0" class="graph" transform="scale(1 1) rotate(0) translate(4 173)">
<title>bcovar</title>
<!-- Node1 -->
<g id="node1" class="node">
<title>Node1</title>
<g id="a_node1"><a xlink:title="Compute the covariant components of the magnetic field , .">
<polygon fill="#999999" stroke="#666666" points="46,-93 0,-93 0,-74 46,-74 46,-93"/>
<text text-anchor="middle" x="23" y="-81" font-family="Helvetica,sans-Serif" font-size="10.00">bcovar</text>
</a>
</g>
</g>
<!-- Node2 -->
<g id="node2" class="node">
<title>Node2</title>
<g id="a_node2"><a xlink:href="../../d8/d7d/add__fluxes_8f90.html#a988e7013ef02301b9cfbde5b8068d5af" target="_top" xlink:title="Add the magnetic fluxes to the tangential derivatives of &#160;to arrive at the contravariant magnetic fie...">
<polygon fill="white" stroke="#666666" points="144,-169 82,-169 82,-150 144,-150 144,-169"/>
<text text-anchor="middle" x="113" y="-157" font-family="Helvetica,sans-Serif" font-size="10.00">add_fluxes</text>
</a>
</g>
</g>
<!-- Node1&#45;&gt;Node2 -->
<g id="edge1" class="edge">
<title>Node1&#45;&gt;Node2</title>
<path fill="none" stroke="#63b8ff" d="M34.53,-93.27C46.03,-103.86 65.08,-121.16 82,-135.5 84.71,-137.8 87.59,-140.18 90.46,-142.51"/>
<polygon fill="#63b8ff" stroke="#63b8ff" points="88.15,-145.14 98.14,-148.67 92.53,-139.68 88.15,-145.14"/>
</g>
<!-- Node3 -->
<g id="node3" class="node">
<title>Node3</title>
<g id="a_node3"><a xlink:href="../../d8/dfd/namespacedbgout.html#acdd1612a38e44b6469dc03d9d1c6ceed" target="_top" xlink:title="check if any output is desired for the current iteration check if the given context should be openend...">
<polygon fill="white" stroke="#666666" points="309,-112 180,-112 180,-93 309,-93 309,-112"/>
<text text-anchor="middle" x="244.5" y="-100" font-family="Helvetica,sans-Serif" font-size="10.00">dbgout::open_dbg_context</text>
</a>
</g>
</g>
<!-- Node1&#45;&gt;Node3 -->
<g id="edge8" class="edge">
<title>Node1&#45;&gt;Node3</title>
<path fill="none" stroke="#63b8ff" d="M46.45,-92.69C57.04,-96.55 69.97,-100.58 82,-102.5 109.98,-106.97 141.04,-107.91 168.38,-107.41"/>
<polygon fill="#63b8ff" stroke="#63b8ff" points="168.44,-110.91 178.34,-107.15 168.26,-103.91 168.44,-110.91"/>
</g>
<!-- Node4 -->
<g id="node4" class="node">
<title>Node4</title>
<g id="a_node4"><a xlink:href="../../d9/dff/calc__fbal_8f90.html#a6cdc3d21c48f66aeaff8ab5e639641b6" target="_top" xlink:title="Compute flux&#45;surface averaged radial force balance .">
<polygon fill="white" stroke="#666666" points="141,-93 85,-93 85,-74 141,-74 141,-93"/>
<text text-anchor="middle" x="113" y="-81" font-family="Helvetica,sans-Serif" font-size="10.00">calc_fbal</text>
</a>
</g>
</g>
<!-- Node1&#45;&gt;Node4 -->
<g id="edge4" class="edge">
<title>Node1&#45;&gt;Node4</title>
<path fill="none" stroke="#63b8ff" d="M46.21,-83.5C54.44,-83.5 64.04,-83.5 73.31,-83.5"/>
<polygon fill="#63b8ff" stroke="#63b8ff" points="73.25,-87 83.25,-83.5 73.25,-80 73.25,-87"/>
</g>
<!-- Node5 -->
<g id="node5" class="node">
<title>Node5</title>
<g id="a_node5"><a xlink:href="../../d4/d51/lamcal_8f90.html#aae66bdcec0bbb969704413d933148096" target="_top" xlink:title="Normalization parameters for .">
<polygon fill="white" stroke="#666666" points="135.5,-56 90.5,-56 90.5,-37 135.5,-37 135.5,-56"/>
<text text-anchor="middle" x="113" y="-44" font-family="Helvetica,sans-Serif" font-size="10.00">lamcal</text>
</a>
</g>
</g>
<!-- Node1&#45;&gt;Node5 -->
<g id="edge6" class="edge">
<title>Node1&#45;&gt;Node5</title>
<path fill="none" stroke="#63b8ff" d="M46.21,-74.16C56.39,-69.88 68.66,-64.72 79.84,-60.02"/>
<polygon fill="#63b8ff" stroke="#63b8ff" points="80.85,-63.39 88.71,-56.29 78.14,-56.94 80.85,-63.39"/>
</g>
<!-- Node6 -->
<g id="node6" class="node">
<title>Node6</title>
<g id="a_node6"><a xlink:href="../../d4/da9/precondn_8f90.html#a54a485235e0627efdd733b95d2c8f328" target="_top" xlink:title="Compute preconditioning matrix elements for , &#160;force.">
<polygon fill="white" stroke="#666666" points="141,-19 85,-19 85,0 141,0 141,-19"/>
<text text-anchor="middle" x="113" y="-7" font-family="Helvetica,sans-Serif" font-size="10.00">precondn</text>
</a>
</g>
</g>
<!-- Node1&#45;&gt;Node6 -->
<g id="edge9" class="edge">
<title>Node1&#45;&gt;Node6</title>
<path fill="none" stroke="#63b8ff" d="M33.33,-73.55C44.38,-62.04 63.61,-42.83 82,-28.5 83.15,-27.61 84.34,-26.71 85.56,-25.83"/>
<polygon fill="#63b8ff" stroke="#63b8ff" points="87.51,-28.74 93.85,-20.24 83.6,-22.93 87.51,-28.74"/>
</g>
<!-- Node2&#45;&gt;Node3 -->
<g id="edge2" class="edge">
<title>Node2&#45;&gt;Node3</title>
<path fill="none" stroke="#63b8ff" d="M136.56,-149.57C157.08,-140.54 187.61,-127.1 210.8,-116.89"/>
<polygon fill="#63b8ff" stroke="#63b8ff" points="212.07,-120.16 219.82,-112.92 209.25,-113.75 212.07,-120.16"/>
</g>
<!-- Node3&#45;&gt;Node3 -->
<g id="edge3" class="edge">
<title>Node3&#45;&gt;Node3</title>
<path fill="none" stroke="#63b8ff" d="M223.91,-112.37C214.52,-120.94 221.38,-130 244.5,-130 257.14,-130 264.92,-127.29 267.84,-123.43"/>
<polygon fill="#63b8ff" stroke="#63b8ff" points="271.26,-122.7 265.45,-113.84 264.47,-124.39 271.26,-122.7"/>
</g>
<!-- Node4&#45;&gt;Node3 -->
<g id="edge5" class="edge">
<title>Node4&#45;&gt;Node3</title>
<path fill="none" stroke="#63b8ff" d="M141.46,-87.53C149.52,-88.71 158.75,-90.07 168.29,-91.46"/>
<polygon fill="#63b8ff" stroke="#63b8ff" points="167.67,-94.91 178.08,-92.9 168.69,-87.99 167.67,-94.91"/>
</g>
<!-- Node5&#45;&gt;Node3 -->
<g id="edge7" class="edge">
<title>Node5&#45;&gt;Node3</title>
<path fill="none" stroke="#63b8ff" d="M135.97,-56C156.28,-64.78 186.75,-77.96 210.07,-88.05"/>
<polygon fill="#63b8ff" stroke="#63b8ff" points="208.59,-91.22 219.16,-91.98 211.37,-84.79 208.59,-91.22"/>
</g>
</g>
</svg>
