<?xml version="1.0" encoding="UTF-8" standalone="no"?>
<!DOCTYPE svg PUBLIC "-//W3C//DTD SVG 1.1//EN"
 "http://www.w3.org/Graphics/SVG/1.1/DTD/svg11.dtd">
<!-- Generated by graphviz version 12.2.1 (20241206.2353)
 -->
<!-- Title: bcovar Pages: 1 -->
<svg width="316pt" height="177pt"
 viewBox="0.00 0.00 315.50 177.25" xmlns="http://www.w3.org/2000/svg" xmlns:xlink="http://www.w3.org/1999/xlink">

<svg id="main" version="1.1" xmlns="http://www.w3.org/2000/svg" xmlns:xlink="http://www.w3.org/1999/xlink" xml:space="preserve">

<style type="text/css"><![CDATA[
.node, .edge {opacity: 0.7;}
.node.selected, .edge.selected {opacity: 1;}
.edge:hover path { stroke: red; }
.edge:hover polygon { stroke: red; fill: red; }
]]></style>
<script type="application/ecmascript" xlink:href="../../svg.min.js"/>
<svg id="graph" class="graph">
<g id="graph0" class="graph" transform="scale(1 1) rotate(0) translate(4 173.25)">
<title>bcovar</title>
<!-- Node1 -->
<g id="Node000001" class="node">
<title>Node1</title>
<g id="a_Node000001"><a xlink:title="Compute the covariant components of the magnetic field , .">
<polygon fill="#999999" stroke="#666666" points="45.25,-93.25 0,-93.25 0,-74 45.25,-74 45.25,-93.25"/>
<text text-anchor="middle" x="22.62" y="-79.75" font-family="Helvetica,sans-Serif" font-size="10.00">bcovar</text>
</a>
</g>
</g>
<!-- Node2 -->
<g id="Node000002" class="node">
<title>Node2</title>
<g id="a_Node000002"><a xlink:href="../../d8/d7d/add__fluxes_8f90.html#a988e7013ef02301b9cfbde5b8068d5af" target="_top" xlink:title="Add the magnetic fluxes to the tangential derivatives of &#160;to arrive at the contravariant magnetic fie...">
<polygon fill="white" stroke="#666666" points="143,-169.25 81.25,-169.25 81.25,-150 143,-150 143,-169.25"/>
<text text-anchor="middle" x="112.12" y="-155.75" font-family="Helvetica,sans-Serif" font-size="10.00">add_fluxes</text>
</a>
</g>
</g>
<!-- Node1&#45;&gt;Node2 -->
<g id="edge1_Node000001_Node000002" class="edge">
<title>Node1&#45;&gt;Node2</title>
<g id="a_edge1_Node000001_Node000002"><a xlink:title=" ">
<path fill="none" stroke="#63b8ff" d="M34.08,-93.39C45.51,-103.99 64.43,-121.3 81.25,-135.62 83.81,-137.81 86.53,-140.07 89.24,-142.29"/>
<polygon fill="#63b8ff" stroke="#63b8ff" points="87.04,-145 97.02,-148.56 91.43,-139.56 87.04,-145"/>
</a>
</g>
</g>
<!-- Node3 -->
<g id="Node000003" class="node">
<title>Node3</title>
<g id="a_Node000003"><a xlink:href="../../d8/dfd/namespacedbgout.html#acdd1612a38e44b6469dc03d9d1c6ceed" target="_top" xlink:title="check if any output is desired for the current iteration check if the given context should be openend...">
<polygon fill="white" stroke="#666666" points="307.5,-112.25 179,-112.25 179,-93 307.5,-93 307.5,-112.25"/>
<text text-anchor="middle" x="243.25" y="-98.75" font-family="Helvetica,sans-Serif" font-size="10.00">dbgout::open_dbg_context</text>
</a>
</g>
</g>
<!-- Node1&#45;&gt;Node3 -->
<g id="edge8_Node000001_Node000003" class="edge">
<title>Node1&#45;&gt;Node3</title>
<g id="a_edge8_Node000001_Node000003"><a xlink:title=" ">
<path fill="none" stroke="#63b8ff" d="M45.65,-92.72C56.22,-96.6 69.19,-100.69 81.25,-102.62 109.14,-107.1 140.1,-108.05 167.36,-107.55"/>
<polygon fill="#63b8ff" stroke="#63b8ff" points="167.38,-111.05 177.29,-107.29 167.2,-104.05 167.38,-111.05"/>
</a>
</g>
</g>
<!-- Node4 -->
<g id="Node000004" class="node">
<title>Node4</title>
<g id="a_Node000004"><a xlink:href="../../d9/dff/calc__fbal_8f90.html#a6cdc3d21c48f66aeaff8ab5e639641b6" target="_top" xlink:title="Compute flux&#45;surface averaged radial force balance .">
<polygon fill="white" stroke="#666666" points="139.62,-93.25 84.62,-93.25 84.62,-74 139.62,-74 139.62,-93.25"/>
<text text-anchor="middle" x="112.12" y="-79.75" font-family="Helvetica,sans-Serif" font-size="10.00">calc_fbal</text>
</a>
</g>
</g>
<!-- Node1&#45;&gt;Node4 -->
<g id="edge4_Node000001_Node000004" class="edge">
<title>Node1&#45;&gt;Node4</title>
<g id="a_edge4_Node000001_Node000004"><a xlink:title=" ">
<path fill="none" stroke="#63b8ff" d="M45.7,-83.62C53.96,-83.62 63.6,-83.62 72.9,-83.62"/>
<polygon fill="#63b8ff" stroke="#63b8ff" points="72.85,-87.13 82.85,-83.63 72.85,-80.13 72.85,-87.13"/>
</a>
</g>
</g>
<!-- Node5 -->
<g id="Node000005" class="node">
<title>Node5</title>
<g id="a_Node000005"><a xlink:href="../../d4/d51/lamcal_8f90.html#aae66bdcec0bbb969704413d933148096" target="_top" xlink:title="Normalization parameters for .">
<polygon fill="white" stroke="#666666" points="134.38,-56.25 89.88,-56.25 89.88,-37 134.38,-37 134.38,-56.25"/>
<text text-anchor="middle" x="112.12" y="-42.75" font-family="Helvetica,sans-Serif" font-size="10.00">lamcal</text>
</a>
</g>
</g>
<!-- Node1&#45;&gt;Node5 -->
<g id="edge6_Node000001_Node000005" class="edge">
<title>Node1&#45;&gt;Node5</title>
<g id="a_edge6_Node000001_Node000005"><a xlink:title=" ">
<path fill="none" stroke="#63b8ff" d="M45.7,-74.29C55.91,-69.97 68.22,-64.77 79.4,-60.04"/>
<polygon fill="#63b8ff" stroke="#63b8ff" points="80.42,-63.41 88.26,-56.29 77.69,-56.96 80.42,-63.41"/>
</a>
</g>
</g>
<!-- Node6 -->
<g id="Node000006" class="node">
<title>Node6</title>
<g id="a_Node000006"><a xlink:href="../../d4/da9/precondn_8f90.html#a54a485235e0627efdd733b95d2c8f328" target="_top" xlink:title="Compute preconditioning matrix elements for , &#160;force.">
<polygon fill="white" stroke="#666666" points="140,-19.25 84.25,-19.25 84.25,0 140,0 140,-19.25"/>
<text text-anchor="middle" x="112.12" y="-5.75" font-family="Helvetica,sans-Serif" font-size="10.00">precondn</text>
</a>
</g>
</g>
<!-- Node1&#45;&gt;Node6 -->
<g id="edge9_Node000001_Node000006" class="edge">
<title>Node1&#45;&gt;Node6</title>
<g id="a_edge9_Node000001_Node000006"><a xlink:title=" ">
<path fill="none" stroke="#63b8ff" d="M32.41,-73.81C43.22,-62.05 62.47,-42.1 81.25,-27.62 82.05,-27.01 82.87,-26.4 83.7,-25.8"/>
<polygon fill="#63b8ff" stroke="#63b8ff" points="85.33,-28.92 91.73,-20.48 81.46,-23.08 85.33,-28.92"/>
</a>
</g>
</g>
<!-- Node2&#45;&gt;Node3 -->
<g id="edge2_Node000002_Node000003" class="edge">
<title>Node2&#45;&gt;Node3</title>
<g id="a_edge2_Node000002_Node000003"><a xlink:title=" ">
<path fill="none" stroke="#63b8ff" d="M135.91,-149.57C156.29,-140.57 186.39,-127.28 209.37,-117.14"/>
<polygon fill="#63b8ff" stroke="#63b8ff" points="210.57,-120.44 218.31,-113.19 207.74,-114.03 210.57,-120.44"/>
</a>
</g>
</g>
<!-- Node3&#45;&gt;Node3 -->
<g id="edge3_Node000003_Node000003" class="edge">
<title>Node3&#45;&gt;Node3</title>
<g id="a_edge3_Node000003_Node000003"><a xlink:title=" ">
<path fill="none" stroke="#63b8ff" d="M222.72,-112.54C213.36,-121.15 220.2,-130.25 243.25,-130.25 255.86,-130.25 263.61,-127.53 266.52,-123.65"/>
<polygon fill="#63b8ff" stroke="#63b8ff" points="269.94,-122.88 264.14,-114.01 263.14,-124.56 269.94,-122.88"/>
</a>
</g>
</g>
<!-- Node4&#45;&gt;Node3 -->
<g id="edge5_Node000004_Node000003" class="edge">
<title>Node4&#45;&gt;Node3</title>
<g id="a_edge5_Node000004_Node000003"><a xlink:title=" ">
<path fill="none" stroke="#63b8ff" d="M139.88,-87.56C148.09,-88.77 157.56,-90.16 167.36,-91.61"/>
<polygon fill="#63b8ff" stroke="#63b8ff" points="166.61,-95.03 177.01,-93.03 167.63,-88.11 166.61,-95.03"/>
</a>
</g>
</g>
<!-- Node5&#45;&gt;Node3 -->
<g id="edge7_Node000005_Node000003" class="edge">
<title>Node5&#45;&gt;Node3</title>
<g id="a_edge7_Node000005_Node000003"><a xlink:title=" ">
<path fill="none" stroke="#63b8ff" d="M134.74,-56C154.94,-64.76 185.42,-77.98 208.77,-88.11"/>
<polygon fill="#63b8ff" stroke="#63b8ff" points="207.3,-91.28 217.87,-92.05 210.09,-84.86 207.3,-91.28"/>
</a>
</g>
</g>
</g>
</svg>
</svg>

<style type='text/css'>
<![CDATA[
[data-mouse-over-selected='false'] { opacity: 0.7; }
[data-mouse-over-selected='true']  { opacity: 1.0; }
]]>
</style>
<script type="application/ecmascript"><![CDATA[
document.addEventListener('DOMContentLoaded', (event) => {
  highlightEdges();
  highlightAdjacentNodes();
});
]]></script>
</svg>
