<?xml version="1.0" encoding="UTF-8" standalone="no"?>
<!DOCTYPE svg PUBLIC "-//W3C//DTD SVG 1.1//EN"
 "http://www.w3.org/Graphics/SVG/1.1/DTD/svg11.dtd">
<!-- Generated by graphviz version 8.0.5 (20230430.1635)
 -->
<!-- Title: bcovar Pages: 1 -->
<svg width="316pt" height="177pt"
 viewBox="0.00 0.00 315.50 177.25" xmlns="http://www.w3.org/2000/svg" xmlns:xlink="http://www.w3.org/1999/xlink">

<svg id="main" version="1.1" xmlns="http://www.w3.org/2000/svg" xmlns:xlink="http://www.w3.org/1999/xlink" xml:space="preserve" onload="init(evt)">
<style type="text/css"><![CDATA[
.node, .edge {opacity: 0.7;}
.node.selected, .edge.selected {opacity: 1;}
.edge:hover path { stroke: red; }
.edge:hover polygon { stroke: red; fill: red; }
]]></style>
<script type="application/ecmascript" xlink:href="../../svg.min.js"/>
<svg id="graph" class="graph">
<g id="graph0" class="graph" transform="scale(1 1) rotate(0) translate(4 173.25)">
<title>bcovar</title>
<!-- Node1 -->
<g id="Node000001" class="node">
<title>Node1</title>
<g id="a_Node000001"><a xlink:title="Compute the covariant components of the magnetic field , .">
<polygon fill="#999999" stroke="#666666" points="45.25,-93.25 0,-93.25 0,-74 45.25,-74 45.25,-93.25"/>
<text text-anchor="middle" x="22.62" y="-79.75" font-family="Helvetica,sans-Serif" font-size="10.00">bcovar</text>
</a>
</g>
</g>
<!-- Node2 -->
<g id="Node000002" class="node">
<title>Node2</title>
<g id="a_Node000002"><a xlink:href="../../d8/d7d/add__fluxes_8f90.html#a988e7013ef02301b9cfbde5b8068d5af" target="_top" xlink:title="Add the magnetic fluxes to the tangential derivatives of &#160;to arrive at the contravariant magnetic fie...">
<polygon fill="white" stroke="#666666" points="143,-169.25 81.25,-169.25 81.25,-150 143,-150 143,-169.25"/>
<text text-anchor="middle" x="112.12" y="-155.75" font-family="Helvetica,sans-Serif" font-size="10.00">add_fluxes</text>
</a>
</g>
</g>
<!-- Node1&#45;&gt;Node2 -->
<g id="edge1_Node000001_Node000002" class="edge">
<title>Node1&#45;&gt;Node2</title>
<g id="a_edge1_Node000001_Node000002"><a xlink:title=" ">
<path fill="none" stroke="#63b8ff" d="M34.08,-93.39C45.51,-103.99 64.43,-121.3 81.25,-135.62 83.99,-137.95 86.9,-140.37 89.79,-142.73"/>
<polygon fill="#63b8ff" stroke="#63b8ff" points="87.22,-145.96 97.2,-149.51 91.61,-140.51 87.22,-145.96"/>
</a>
</g>
</g>
<!-- Node3 -->
<g id="Node000003" class="node">
<title>Node3</title>
<g id="a_Node000003"><a xlink:href="../../d8/dfd/namespacedbgout.html#acdd1612a38e44b6469dc03d9d1c6ceed" target="_top" xlink:title="check if any output is desired for the current iteration check if the given context should be openend...">
<polygon fill="white" stroke="#666666" points="307.5,-112.25 179,-112.25 179,-93 307.5,-93 307.5,-112.25"/>
<text text-anchor="middle" x="243.25" y="-98.75" font-family="Helvetica,sans-Serif" font-size="10.00">dbgout::open_dbg_context</text>
</a>
</g>
</g>
<!-- Node1&#45;&gt;Node3 -->
<g id="edge8_Node000001_Node000003" class="edge">
<title>Node1&#45;&gt;Node3</title>
<g id="a_edge8_Node000001_Node000003"><a xlink:title=" ">
<path fill="none" stroke="#63b8ff" d="M45.65,-92.72C56.22,-96.6 69.19,-100.69 81.25,-102.62 109.39,-107.14 140.66,-108.06 168.09,-107.53"/>
<polygon fill="#63b8ff" stroke="#63b8ff" points="167.9,-111.01 177.8,-107.25 167.71,-104.02 167.9,-111.01"/>
</a>
</g>
</g>
<!-- Node4 -->
<g id="Node000004" class="node">
<title>Node4</title>
<g id="a_Node000004"><a xlink:href="../../d9/dff/calc__fbal_8f90.html#a6cdc3d21c48f66aeaff8ab5e639641b6" target="_top" xlink:title="Compute flux&#45;surface averaged radial force balance .">
<polygon fill="white" stroke="#666666" points="139.62,-93.25 84.62,-93.25 84.62,-74 139.62,-74 139.62,-93.25"/>
<text text-anchor="middle" x="112.12" y="-79.75" font-family="Helvetica,sans-Serif" font-size="10.00">calc_fbal</text>
</a>
</g>
</g>
<!-- Node1&#45;&gt;Node4 -->
<g id="edge4_Node000001_Node000004" class="edge">
<title>Node1&#45;&gt;Node4</title>
<g id="a_edge4_Node000001_Node000004"><a xlink:title=" ">
<path fill="none" stroke="#63b8ff" d="M45.7,-83.62C54.15,-83.62 64.03,-83.62 73.52,-83.62"/>
<polygon fill="#63b8ff" stroke="#63b8ff" points="73.37,-87.13 83.37,-83.62 73.37,-80.13 73.37,-87.13"/>
</a>
</g>
</g>
<!-- Node5 -->
<g id="Node000005" class="node">
<title>Node5</title>
<g id="a_Node000005"><a xlink:href="../../d4/d51/lamcal_8f90.html#aae66bdcec0bbb969704413d933148096" target="_top" xlink:title="Normalization parameters for .">
<polygon fill="white" stroke="#666666" points="134.38,-56.25 89.88,-56.25 89.88,-37 134.38,-37 134.38,-56.25"/>
<text text-anchor="middle" x="112.12" y="-42.75" font-family="Helvetica,sans-Serif" font-size="10.00">lamcal</text>
</a>
</g>
</g>
<!-- Node1&#45;&gt;Node5 -->
<g id="edge6_Node000001_Node000005" class="edge">
<title>Node1&#45;&gt;Node5</title>
<g id="a_edge6_Node000001_Node000005"><a xlink:title=" ">
<path fill="none" stroke="#63b8ff" d="M45.7,-74.29C56.02,-69.93 68.47,-64.66 79.74,-59.9"/>
<polygon fill="#63b8ff" stroke="#63b8ff" points="80.81,-62.82 88.66,-55.7 78.08,-56.37 80.81,-62.82"/>
</a>
</g>
</g>
<!-- Node6 -->
<g id="Node000006" class="node">
<title>Node6</title>
<g id="a_Node000006"><a xlink:href="../../d4/da9/precondn_8f90.html#a54a485235e0627efdd733b95d2c8f328" target="_top" xlink:title="Compute preconditioning matrix elements for , &#160;force.">
<polygon fill="white" stroke="#666666" points="140,-19.25 84.25,-19.25 84.25,0 140,0 140,-19.25"/>
<text text-anchor="middle" x="112.12" y="-5.75" font-family="Helvetica,sans-Serif" font-size="10.00">precondn</text>
</a>
</g>
</g>
<!-- Node1&#45;&gt;Node6 -->
<g id="edge9_Node000001_Node000006" class="edge">
<title>Node1&#45;&gt;Node6</title>
<g id="a_edge9_Node000001_Node000006"><a xlink:title=" ">
<path fill="none" stroke="#63b8ff" d="M32.41,-73.81C43.22,-62.05 62.47,-42.1 81.25,-27.62 82.16,-26.92 83.1,-26.23 84.06,-25.54"/>
<polygon fill="#63b8ff" stroke="#63b8ff" points="85.57,-28.07 91.99,-19.64 81.72,-22.23 85.57,-28.07"/>
</a>
</g>
</g>
<!-- Node2&#45;&gt;Node3 -->
<g id="edge2_Node000002_Node000003" class="edge">
<title>Node2&#45;&gt;Node3</title>
<g id="a_edge2_Node000002_Node000003"><a xlink:title=" ">
<path fill="none" stroke="#63b8ff" d="M135.91,-149.57C156.38,-140.53 186.67,-127.16 209.69,-117"/>
<polygon fill="#63b8ff" stroke="#63b8ff" points="210.96,-119.82 218.69,-112.58 208.13,-113.42 210.96,-119.82"/>
</a>
</g>
</g>
<!-- Node3&#45;&gt;Node3 -->
<g id="edge3_Node000003_Node000003" class="edge">
<title>Node3&#45;&gt;Node3</title>
<g id="a_edge3_Node000003_Node000003"><a xlink:title=" ">
<path fill="none" stroke="#63b8ff" d="M222.72,-112.54C213.36,-121.15 220.2,-130.25 243.25,-130.25 256.58,-130.25 264.48,-127.21 266.98,-122.98"/>
<polygon fill="#63b8ff" stroke="#63b8ff" points="270.05,-122.07 263.78,-113.54 263.36,-124.12 270.05,-122.07"/>
</a>
</g>
</g>
<!-- Node4&#45;&gt;Node3 -->
<g id="edge5_Node000004_Node000003" class="edge">
<title>Node4&#45;&gt;Node3</title>
<g id="a_edge5_Node000004_Node000003"><a xlink:title=" ">
<path fill="none" stroke="#63b8ff" d="M139.88,-87.56C148.18,-88.78 157.77,-90.19 167.68,-91.65"/>
<polygon fill="#63b8ff" stroke="#63b8ff" points="167.11,-95.25 177.51,-93.25 168.13,-88.33 167.11,-95.25"/>
</a>
</g>
</g>
<!-- Node5&#45;&gt;Node3 -->
<g id="edge7_Node000005_Node000003" class="edge">
<title>Node5&#45;&gt;Node3</title>
<g id="a_edge7_Node000005_Node000003"><a xlink:title=" ">
<path fill="none" stroke="#63b8ff" d="M134.74,-56C155.13,-64.84 185.97,-78.22 209.4,-88.38"/>
<polygon fill="#63b8ff" stroke="#63b8ff" points="207.69,-91.89 218.26,-92.65 210.48,-85.46 207.69,-91.89"/>
</a>
</g>
</g>
</g>
</svg>
</svg>

<style type='text/css'>
<![CDATA[
[data-mouse-over-selected='false'] { opacity: 0.7; }
[data-mouse-over-selected='true']  { opacity: 1.0; }
]]>
</style>
<script type="application/ecmascript"><![CDATA[
document.addEventListener('DOMContentLoaded', (event) => {
  highlightEdges();
  highlightAdjacentNodes();
});
]]></script>
</svg>
