<?xml version="1.0" encoding="UTF-8" standalone="no"?>
<!DOCTYPE svg PUBLIC "-//W3C//DTD SVG 1.1//EN"
 "http://www.w3.org/Graphics/SVG/1.1/DTD/svg11.dtd">
<!-- Generated by graphviz version 2.49.2 (20211018.0330)
 -->
<!-- Title: bcovar Pages: 1 -->
<svg width="152pt" height="142pt"
 viewBox="0.00 0.00 152.00 142.00" xmlns="http://www.w3.org/2000/svg" xmlns:xlink="http://www.w3.org/1999/xlink">
<g id="graph0" class="graph" transform="scale(1 1) rotate(0) translate(4 138)">
<title>bcovar</title>
<polygon fill="white" stroke="transparent" points="-4,4 -4,-138 148,-138 148,4 -4,4"/>
<!-- Node1 -->
<g id="node1" class="node">
<title>Node1</title>
<g id="a_node1"><a xlink:title="Compute the covariant components of the magnetic field , .">
<polygon fill="#bfbfbf" stroke="black" points="0,-57.5 0,-76.5 46,-76.5 46,-57.5 0,-57.5"/>
<text text-anchor="middle" x="23" y="-64.5" font-family="Helvetica,sans-Serif" font-size="10.00">bcovar</text>
</a>
</g>
</g>
<!-- Node2 -->
<g id="node2" class="node">
<title>Node2</title>
<g id="a_node2"><a xlink:href="../../d8/d7d/add__fluxes_8f90.html#a988e7013ef02301b9cfbde5b8068d5af" target="_top" xlink:title="Add the magnetic fluxes to the tangential derivatives of &#160;to arrive at the contravariant magnetic fie...">
<polygon fill="white" stroke="black" points="82,-114.5 82,-133.5 144,-133.5 144,-114.5 82,-114.5"/>
<text text-anchor="middle" x="113" y="-121.5" font-family="Helvetica,sans-Serif" font-size="10.00">add_fluxes</text>
</a>
</g>
</g>
<!-- Node1&#45;&gt;Node2 -->
<g id="edge1" class="edge">
<title>Node1&#45;&gt;Node2</title>
<path fill="none" stroke="midnightblue" d="M38.74,-76.75C50.44,-84.46 67.22,-95.48 82,-105 83.94,-106.25 85.95,-107.54 87.97,-108.83"/>
<polygon fill="midnightblue" stroke="midnightblue" points="86.39,-111.97 96.71,-114.38 90.15,-106.06 86.39,-111.97"/>
</g>
<!-- Node3 -->
<g id="node3" class="node">
<title>Node3</title>
<g id="a_node3"><a xlink:href="../../d9/dff/calc__fbal_8f90.html#a6cdc3d21c48f66aeaff8ab5e639641b6" target="_top" xlink:title="Compute flux&#45;surface averaged radial force balance .">
<polygon fill="white" stroke="black" points="85,-76.5 85,-95.5 141,-95.5 141,-76.5 85,-76.5"/>
<text text-anchor="middle" x="113" y="-83.5" font-family="Helvetica,sans-Serif" font-size="10.00">calc_fbal</text>
</a>
</g>
</g>
<!-- Node1&#45;&gt;Node3 -->
<g id="edge2" class="edge">
<title>Node1&#45;&gt;Node3</title>
<path fill="none" stroke="midnightblue" d="M46.21,-71.79C54.9,-73.67 65.11,-75.88 74.86,-77.98"/>
<polygon fill="midnightblue" stroke="midnightblue" points="74.25,-81.43 84.77,-80.12 75.73,-74.59 74.25,-81.43"/>
</g>
<!-- Node4 -->
<g id="node4" class="node">
<title>Node4</title>
<g id="a_node4"><a xlink:href="../../d4/d51/lamcal_8f90.html#aae66bdcec0bbb969704413d933148096" target="_top" xlink:title="Normalization parameters for .">
<polygon fill="white" stroke="black" points="90.5,-38.5 90.5,-57.5 135.5,-57.5 135.5,-38.5 90.5,-38.5"/>
<text text-anchor="middle" x="113" y="-45.5" font-family="Helvetica,sans-Serif" font-size="10.00">lamcal</text>
</a>
</g>
</g>
<!-- Node1&#45;&gt;Node4 -->
<g id="edge3" class="edge">
<title>Node1&#45;&gt;Node4</title>
<path fill="none" stroke="midnightblue" d="M46.21,-62.21C56.58,-59.97 69.11,-57.26 80.44,-54.81"/>
<polygon fill="midnightblue" stroke="midnightblue" points="81.37,-58.19 90.41,-52.66 79.9,-51.35 81.37,-58.19"/>
</g>
<!-- Node5 -->
<g id="node5" class="node">
<title>Node5</title>
<g id="a_node5"><a xlink:href="../../d4/da9/precondn_8f90.html#a4c530a7978360300894520e9c5f7663c" target="_top" xlink:title="Compute preconditioning matrix elements for , &#160;force.">
<polygon fill="white" stroke="black" points="85,-0.5 85,-19.5 141,-19.5 141,-0.5 85,-0.5"/>
<text text-anchor="middle" x="113" y="-7.5" font-family="Helvetica,sans-Serif" font-size="10.00">precondn</text>
</a>
</g>
</g>
<!-- Node1&#45;&gt;Node5 -->
<g id="edge4" class="edge">
<title>Node1&#45;&gt;Node5</title>
<path fill="none" stroke="midnightblue" d="M38.74,-57.25C50.44,-49.54 67.22,-38.52 82,-29 83.94,-27.75 85.95,-26.46 87.97,-25.17"/>
<polygon fill="midnightblue" stroke="midnightblue" points="90.15,-27.94 96.71,-19.62 86.39,-22.03 90.15,-27.94"/>
</g>
</g>
</svg>
