<?xml version="1.0" encoding="UTF-8" standalone="no"?>
<!DOCTYPE svg PUBLIC "-//W3C//DTD SVG 1.1//EN"
 "http://www.w3.org/Graphics/SVG/1.1/DTD/svg11.dtd">
<!-- Generated by graphviz version 2.47.1 (20210421.1823)
 -->
<!-- Title: profil1d Pages: 1 -->
<svg width="248pt" height="28pt"
 viewBox="0.00 0.00 248.00 28.00" xmlns="http://www.w3.org/2000/svg" xmlns:xlink="http://www.w3.org/1999/xlink">
<g id="graph0" class="graph" transform="scale(1 1) rotate(0) translate(4 24)">
<title>profil1d</title>
<polygon fill="white" stroke="transparent" points="-4,4 -4,-24 244,-24 244,4 -4,4"/>
<!-- Node1 -->
<g id="node1" class="node">
<title>Node1</title>
<g id="a_node1"><a xlink:title="Compute phip and iota profiles on full grid.">
<polygon fill="#bfbfbf" stroke="black" points="193,-0.5 193,-19.5 240,-19.5 240,-0.5 193,-0.5"/>
<text text-anchor="middle" x="216.5" y="-7.5" font-family="Helvetica,sans-Serif" font-size="10.00">profil1d</text>
</a>
</g>
</g>
<!-- Node2 -->
<g id="node2" class="node">
<title>Node2</title>
<g id="a_node2"><a xlink:href="../../d9/da6/initialize__radial_8f90.html#a187faea543d3a42bc748511f04b5b7d5" target="_top" xlink:title="Allocates memory for radial arrays and initializes radial profiles.">
<polygon fill="white" stroke="black" points="77,-0.5 77,-19.5 157,-19.5 157,-0.5 77,-0.5"/>
<text text-anchor="middle" x="117" y="-7.5" font-family="Helvetica,sans-Serif" font-size="10.00">initialize_radial</text>
</a>
</g>
</g>
<!-- Node1&#45;&gt;Node2 -->
<g id="edge1" class="edge">
<title>Node1&#45;&gt;Node2</title>
<path fill="none" stroke="midnightblue" d="M182.66,-10C174.52,-10 165.72,-10 157.31,-10"/>
<polygon fill="midnightblue" stroke="midnightblue" points="182.89,-13.5 192.89,-10 182.89,-6.5 182.89,-13.5"/>
</g>
<!-- Node3 -->
<g id="node3" class="node">
<title>Node3</title>
<g id="a_node3"><a xlink:href="../../db/d61/vmec_8f90.html#a6d38ab7be2f9d818da4541e1d352ea23" target="_top" xlink:title="Main driver for VMEC.">
<polygon fill="white" stroke="black" points="0,-0.5 0,-19.5 41,-19.5 41,-0.5 0,-0.5"/>
<text text-anchor="middle" x="20.5" y="-7.5" font-family="Helvetica,sans-Serif" font-size="10.00">vmec</text>
</a>
</g>
</g>
<!-- Node2&#45;&gt;Node3 -->
<g id="edge2" class="edge">
<title>Node2&#45;&gt;Node3</title>
<path fill="none" stroke="midnightblue" d="M66.58,-10C57.56,-10 48.64,-10 41.15,-10"/>
<polygon fill="midnightblue" stroke="midnightblue" points="66.74,-13.5 76.74,-10 66.74,-6.5 66.74,-13.5"/>
</g>
</g>
</svg>
