<?xml version="1.0" encoding="UTF-8" standalone="no"?>
<!DOCTYPE svg PUBLIC "-//W3C//DTD SVG 1.1//EN"
 "http://www.w3.org/Graphics/SVG/1.1/DTD/svg11.dtd">
<!-- Generated by graphviz version 2.49.3 (20211027.1501)
 -->
<!-- Title: profil1d Pages: 1 -->
<svg width="220pt" height="84pt"
 viewBox="0.00 0.00 220.00 84.00" xmlns="http://www.w3.org/2000/svg" xmlns:xlink="http://www.w3.org/1999/xlink">
<g id="graph0" class="graph" transform="scale(1 1) rotate(0) translate(4 80)">
<title>profil1d</title>
<polygon fill="white" stroke="transparent" points="-4,4 -4,-80 216,-80 216,4 -4,4"/>
<!-- Node1 -->
<g id="node1" class="node">
<title>Node1</title>
<g id="a_node1"><a xlink:title="Compute phip and iota profiles on full grid.">
<polygon fill="#bfbfbf" stroke="black" points="0,-28.5 0,-47.5 47,-47.5 47,-28.5 0,-28.5"/>
<text text-anchor="middle" x="23.5" y="-35.5" font-family="Helvetica,sans-Serif" font-size="10.00">profil1d</text>
</a>
</g>
</g>
<!-- Node2 -->
<g id="node2" class="node">
<title>Node2</title>
<g id="a_node2"><a xlink:href="../../d8/dfd/namespacedbgout.html#a0752528f123b592bc57f687438b75d9b" target="_top" xlink:title=" ">
<polygon fill="white" stroke="black" points="83,-56.5 83,-75.5 212,-75.5 212,-56.5 83,-56.5"/>
<text text-anchor="middle" x="147.5" y="-63.5" font-family="Helvetica,sans-Serif" font-size="10.00">dbgout::open_dbg_context</text>
</a>
</g>
</g>
<!-- Node1&#45;&gt;Node2 -->
<g id="edge1" class="edge">
<title>Node1&#45;&gt;Node2</title>
<path fill="none" stroke="midnightblue" d="M47.16,-43.2C60.51,-46.27 77.99,-50.28 94.55,-54.08"/>
<polygon fill="midnightblue" stroke="midnightblue" points="94.18,-57.58 104.71,-56.41 95.74,-50.76 94.18,-57.58"/>
</g>
<!-- Node3 -->
<g id="node3" class="node">
<title>Node3</title>
<g id="a_node3"><a xlink:href="../../d8/dfd/namespacedbgout.html#a0537172e9da0db08b9d29ab8880f0559" target="_top" xlink:title=" ">
<polygon fill="white" stroke="black" points="95,-0.5 95,-19.5 200,-19.5 200,-0.5 95,-0.5"/>
<text text-anchor="middle" x="147.5" y="-7.5" font-family="Helvetica,sans-Serif" font-size="10.00">dbgout::should_write</text>
</a>
</g>
</g>
<!-- Node1&#45;&gt;Node3 -->
<g id="edge2" class="edge">
<title>Node1&#45;&gt;Node3</title>
<path fill="none" stroke="midnightblue" d="M47.16,-32.8C60.51,-29.73 77.99,-25.72 94.55,-21.92"/>
<polygon fill="midnightblue" stroke="midnightblue" points="95.74,-25.24 104.71,-19.59 94.18,-18.42 95.74,-25.24"/>
</g>
<!-- Node3&#45;&gt;Node3 -->
<g id="edge3" class="edge">
<title>Node3&#45;&gt;Node3</title>
<path fill="none" stroke="midnightblue" d="M128.39,-19.76C119.09,-28.57 125.46,-38 147.5,-38 161.62,-38 169.31,-34.13 170.57,-29.03"/>
<polygon fill="midnightblue" stroke="midnightblue" points="173.75,-27.58 166.61,-19.76 167.31,-30.33 173.75,-27.58"/>
</g>
</g>
</svg>
