<?xml version="1.0" encoding="UTF-8" standalone="no"?>
<!DOCTYPE svg PUBLIC "-//W3C//DTD SVG 1.1//EN"
 "http://www.w3.org/Graphics/SVG/1.1/DTD/svg11.dtd">
<!-- Generated by graphviz version 2.49.3 (20211027.1501)
 -->
<!-- Title: forces Pages: 1 -->
<svg width="217pt" height="84pt"
 viewBox="0.00 0.00 217.00 84.00" xmlns="http://www.w3.org/2000/svg" xmlns:xlink="http://www.w3.org/1999/xlink">
<g id="graph0" class="graph" transform="scale(1 1) rotate(0) translate(4 80)">
<title>forces</title>
<polygon fill="white" stroke="transparent" points="-4,4 -4,-80 213,-80 213,4 -4,4"/>
<!-- Node1 -->
<g id="node1" class="node">
<title>Node1</title>
<g id="a_node1"><a xlink:title="Compute the real&#45;space MHD forces.">
<polygon fill="#bfbfbf" stroke="black" points="0,-28.5 0,-47.5 44,-47.5 44,-28.5 0,-28.5"/>
<text text-anchor="middle" x="22" y="-35.5" font-family="Helvetica,sans-Serif" font-size="10.00">forces</text>
</a>
</g>
</g>
<!-- Node2 -->
<g id="node2" class="node">
<title>Node2</title>
<g id="a_node2"><a xlink:href="../../d8/dfd/namespacedbgout.html#a0752528f123b592bc57f687438b75d9b" target="_top" xlink:title=" ">
<polygon fill="white" stroke="black" points="80,-56.5 80,-75.5 209,-75.5 209,-56.5 80,-56.5"/>
<text text-anchor="middle" x="144.5" y="-63.5" font-family="Helvetica,sans-Serif" font-size="10.00">dbgout::open_dbg_context</text>
</a>
</g>
</g>
<!-- Node1&#45;&gt;Node2 -->
<g id="edge1" class="edge">
<title>Node1&#45;&gt;Node2</title>
<path fill="none" stroke="midnightblue" d="M44.27,-42.94C57.71,-46.06 75.69,-50.24 92.65,-54.18"/>
<polygon fill="midnightblue" stroke="midnightblue" points="91.94,-57.61 102.47,-56.47 93.53,-50.79 91.94,-57.61"/>
</g>
<!-- Node3 -->
<g id="node3" class="node">
<title>Node3</title>
<g id="a_node3"><a xlink:href="../../d8/dfd/namespacedbgout.html#a0537172e9da0db08b9d29ab8880f0559" target="_top" xlink:title=" ">
<polygon fill="white" stroke="black" points="92,-0.5 92,-19.5 197,-19.5 197,-0.5 92,-0.5"/>
<text text-anchor="middle" x="144.5" y="-7.5" font-family="Helvetica,sans-Serif" font-size="10.00">dbgout::should_write</text>
</a>
</g>
</g>
<!-- Node1&#45;&gt;Node3 -->
<g id="edge2" class="edge">
<title>Node1&#45;&gt;Node3</title>
<path fill="none" stroke="midnightblue" d="M44.27,-33.06C57.71,-29.94 75.69,-25.76 92.65,-21.82"/>
<polygon fill="midnightblue" stroke="midnightblue" points="93.53,-25.21 102.47,-19.53 91.94,-18.39 93.53,-25.21"/>
</g>
<!-- Node3&#45;&gt;Node3 -->
<g id="edge3" class="edge">
<title>Node3&#45;&gt;Node3</title>
<path fill="none" stroke="midnightblue" d="M125.7,-19.76C116.55,-28.57 122.82,-38 144.5,-38 158.39,-38 165.96,-34.13 167.19,-29.03"/>
<polygon fill="midnightblue" stroke="midnightblue" points="170.4,-27.62 163.3,-19.76 163.94,-30.33 170.4,-27.62"/>
</g>
</g>
</svg>
