<?xml version="1.0" encoding="UTF-8" standalone="no"?>
<!DOCTYPE svg PUBLIC "-//W3C//DTD SVG 1.1//EN"
 "http://www.w3.org/Graphics/SVG/1.1/DTD/svg11.dtd">
<!-- Generated by graphviz version 7.1.0 (20230121.1956)
 -->
<!-- Title: nestor Pages: 1 -->
<svg width="708pt" height="550pt"
 viewBox="0.00 0.00 708.00 550.00" xmlns="http://www.w3.org/2000/svg" xmlns:xlink="http://www.w3.org/1999/xlink">
<g id="graph0" class="graph" transform="scale(1 1) rotate(0) translate(4 546)">
<title>nestor</title>
<!-- Node1 -->
<g id="node1" class="node">
<title>Node1</title>
<g id="a_node1"><a xlink:title="Main program of stand&#45;alone version of NESTOR.">
<polygon fill="#999999" stroke="#666666" points="44,-438 0,-438 0,-419 44,-419 44,-438"/>
<text text-anchor="middle" x="22" y="-426" font-family="Helvetica,sans-Serif" font-size="10.00">nestor</text>
</a>
</g>
</g>
<!-- Node2 -->
<g id="node2" class="node">
<title>Node2</title>
<g id="a_node2"><a xlink:href="../../dd/df2/namespacevacmod.html#a30b88ea77408f43e1bedf2c11c0f8d1a" target="_top" xlink:title=" ">
<polygon fill="white" stroke="#666666" points="206.5,-542 84.5,-542 84.5,-523 206.5,-523 206.5,-542"/>
<text text-anchor="middle" x="145.5" y="-530" font-family="Helvetica,sans-Serif" font-size="10.00">vacmod::allocate_nestor</text>
</a>
</g>
</g>
<!-- Node1&#45;&gt;Node2 -->
<g id="edge1" class="edge">
<title>Node1&#45;&gt;Node2</title>
<path fill="none" stroke="#63b8ff" d="M26.81,-438.43C34.22,-456.41 52.33,-494.38 80,-514.5 81.38,-515.5 82.82,-516.45 84.29,-517.35"/>
<polygon fill="#63b8ff" stroke="#63b8ff" points="82.7,-520.47 93.21,-521.84 85.85,-514.22 82.7,-520.47"/>
</g>
<!-- Node3 -->
<g id="node3" class="node">
<title>Node3</title>
<g id="a_node3"><a xlink:href="../../dd/df2/namespacevacmod.html#ade3824460b4eb61403c35f6abe95cd89" target="_top" xlink:title=" ">
<polygon fill="white" stroke="#666666" points="211,-505 80,-505 80,-486 211,-486 211,-505"/>
<text text-anchor="middle" x="145.5" y="-493" font-family="Helvetica,sans-Serif" font-size="10.00">vacmod::free_mem_nestor</text>
</a>
</g>
</g>
<!-- Node1&#45;&gt;Node3 -->
<g id="edge2" class="edge">
<title>Node1&#45;&gt;Node3</title>
<path fill="none" stroke="#63b8ff" d="M32.17,-438.36C42.73,-449.17 61.08,-466.33 80,-476.5 83.45,-478.35 87.1,-480.05 90.84,-481.59"/>
<polygon fill="#63b8ff" stroke="#63b8ff" points="89.51,-484.83 100.11,-485.03 91.95,-478.27 89.51,-484.83"/>
</g>
<!-- Node4 -->
<g id="node4" class="node">
<title>Node4</title>
<g id="a_node4"><a xlink:href="../../db/dc0/namespacenestor__io.html#a84f85fce5232fbd8ee9eca2f2b5adb0c" target="_top" xlink:title=" ">
<polygon fill="white" stroke="#666666" points="201.5,-467.5 89.5,-467.5 89.5,-437.5 201.5,-437.5 201.5,-467.5"/>
<text text-anchor="start" x="97.5" y="-455.5" font-family="Helvetica,sans-Serif" font-size="10.00">nestor_io::read_nestor</text>
<text text-anchor="middle" x="145.5" y="-444.5" font-family="Helvetica,sans-Serif" font-size="10.00">_inputs</text>
</a>
</g>
</g>
<!-- Node1&#45;&gt;Node4 -->
<g id="edge3" class="edge">
<title>Node1&#45;&gt;Node4</title>
<path fill="none" stroke="#63b8ff" d="M44.44,-432.74C53.99,-434.62 65.8,-436.95 77.93,-439.35"/>
<polygon fill="#63b8ff" stroke="#63b8ff" points="77.12,-442.76 87.61,-441.26 78.48,-435.89 77.12,-442.76"/>
</g>
<!-- Node8 -->
<g id="node8" class="node">
<title>Node8</title>
<g id="a_node8"><a xlink:href="../../d2/d04/namespacevacmod0.html#a4be777018e003400355a27b190d7d39a" target="_top" xlink:title=" ">
<polygon fill="white" stroke="#666666" points="199,-419.5 92,-419.5 92,-389.5 199,-389.5 199,-419.5"/>
<text text-anchor="start" x="100" y="-407.5" font-family="Helvetica,sans-Serif" font-size="10.00">vacmod0::set_nestor</text>
<text text-anchor="middle" x="145.5" y="-396.5" font-family="Helvetica,sans-Serif" font-size="10.00">_sizes</text>
</a>
</g>
</g>
<!-- Node1&#45;&gt;Node8 -->
<g id="edge7" class="edge">
<title>Node1&#45;&gt;Node8</title>
<path fill="none" stroke="#63b8ff" d="M44.44,-424.26C54.71,-422.24 67.61,-419.69 80.7,-417.1"/>
<polygon fill="#63b8ff" stroke="#63b8ff" points="81.07,-420.6 90.2,-415.23 79.71,-413.73 81.07,-420.6"/>
</g>
<!-- Node9 -->
<g id="node9" class="node">
<title>Node9</title>
<g id="a_node9"><a xlink:href="../../dd/d6d/vacuum_8f90.html#a0acbc18d2ab7664835d797b42ce49a35" target="_top" xlink:title="Compute the vacuum contribution to the free&#45;boundary energy functional.">
<polygon fill="white" stroke="#666666" points="171,-371 120,-371 120,-352 171,-352 171,-371"/>
<text text-anchor="middle" x="145.5" y="-359" font-family="Helvetica,sans-Serif" font-size="10.00">vacuum</text>
</a>
</g>
</g>
<!-- Node1&#45;&gt;Node9 -->
<g id="edge8" class="edge">
<title>Node1&#45;&gt;Node9</title>
<path fill="none" stroke="#63b8ff" d="M32.17,-418.64C42.73,-407.83 61.08,-390.67 80,-380.5 88.87,-375.73 99.08,-372.02 108.73,-369.2"/>
<polygon fill="#63b8ff" stroke="#63b8ff" points="109.46,-372.62 118.22,-366.66 107.65,-365.86 109.46,-372.62"/>
</g>
<!-- Node24 -->
<g id="node24" class="node">
<title>Node24</title>
<g id="a_node24"><a xlink:href="../../db/dc0/namespacenestor__io.html#a288cc8f23cbfe1484ec6815381cc25c8" target="_top" xlink:title=" ">
<polygon fill="white" stroke="#666666" points="202.5,-333.5 88.5,-333.5 88.5,-303.5 202.5,-303.5 202.5,-333.5"/>
<text text-anchor="start" x="96.5" y="-321.5" font-family="Helvetica,sans-Serif" font-size="10.00">nestor_io::write_nestor</text>
<text text-anchor="middle" x="145.5" y="-310.5" font-family="Helvetica,sans-Serif" font-size="10.00">_outputs</text>
</a>
</g>
</g>
<!-- Node1&#45;&gt;Node24 -->
<g id="edge31" class="edge">
<title>Node1&#45;&gt;Node24</title>
<path fill="none" stroke="#63b8ff" d="M27.16,-418.67C35.01,-401.2 53.64,-364.59 80,-343.5 81.72,-342.12 83.53,-340.81 85.4,-339.57"/>
<polygon fill="#63b8ff" stroke="#63b8ff" points="86.99,-342.69 93.89,-334.65 83.48,-336.64 86.99,-342.69"/>
</g>
<!-- Node5 -->
<g id="node5" class="node">
<title>Node5</title>
<g id="a_node5"><a xlink:href="../../d1/d41/namespacemgrid__mod.html#a202373a45f0c5b1f81076da92a1123d0" target="_top" xlink:title=" ">
<polygon fill="white" stroke="#666666" points="364,-483 247,-483 247,-464 364,-464 364,-483"/>
<text text-anchor="middle" x="305.5" y="-471" font-family="Helvetica,sans-Serif" font-size="10.00">mgrid_mod::read_mgrid</text>
</a>
</g>
</g>
<!-- Node4&#45;&gt;Node5 -->
<g id="edge4" class="edge">
<title>Node4&#45;&gt;Node5</title>
<path fill="none" stroke="#63b8ff" d="M201.76,-459.84C212.64,-461.29 224.18,-462.82 235.45,-464.32"/>
<polygon fill="#63b8ff" stroke="#63b8ff" points="234.71,-467.76 245.09,-465.6 235.64,-460.82 234.71,-467.76"/>
</g>
<!-- Node6 -->
<g id="node6" class="node">
<title>Node6</title>
<g id="a_node6"><a xlink:href="../../d0/d29/namespacesafe__open__mod.html#aab207f9769415b0cccd91260a8382eeb" target="_top" xlink:title=" ">
<polygon fill="white" stroke="#666666" points="535,-516 400,-516 400,-497 535,-497 535,-516"/>
<text text-anchor="middle" x="467.5" y="-504" font-family="Helvetica,sans-Serif" font-size="10.00">safe_open_mod::safe_open</text>
</a>
</g>
</g>
<!-- Node5&#45;&gt;Node6 -->
<g id="edge5" class="edge">
<title>Node5&#45;&gt;Node6</title>
<path fill="none" stroke="#63b8ff" d="M354.94,-483.49C371.39,-486.88 389.96,-490.71 407.16,-494.26"/>
<polygon fill="#63b8ff" stroke="#63b8ff" points="406.24,-497.65 416.74,-496.24 407.66,-490.79 406.24,-497.65"/>
</g>
<!-- Node7 -->
<g id="node7" class="node">
<title>Node7</title>
<g id="a_node7"><a xlink:href="../../d1/d41/namespacemgrid__mod.html#aa4818ade7a169c68f8b7c3a225fd287e" target="_top" xlink:title=" ">
<polygon fill="white" stroke="#666666" points="525.5,-479 409.5,-479 409.5,-460 525.5,-460 525.5,-479"/>
<text text-anchor="middle" x="467.5" y="-467" font-family="Helvetica,sans-Serif" font-size="10.00">mgrid_mod::sum_bfield</text>
</a>
</g>
</g>
<!-- Node5&#45;&gt;Node7 -->
<g id="edge6" class="edge">
<title>Node5&#45;&gt;Node7</title>
<path fill="none" stroke="#63b8ff" d="M364.26,-472.06C375.09,-471.79 386.51,-471.5 397.64,-471.22"/>
<polygon fill="#63b8ff" stroke="#63b8ff" points="397.67,-474.72 407.58,-470.97 397.49,-467.72 397.67,-474.72"/>
</g>
<!-- Node10 -->
<g id="node10" class="node">
<title>Node10</title>
<g id="a_node10"><a xlink:href="../../db/d3d/bextern_8f90.html#a90228cc5f358147ae7f59953d6f9cced" target="_top" xlink:title="Compute the total magnetic field due to external coils and the net toroidal plasma current.">
<polygon fill="white" stroke="#666666" points="329.5,-317 281.5,-317 281.5,-298 329.5,-298 329.5,-317"/>
<text text-anchor="middle" x="305.5" y="-305" font-family="Helvetica,sans-Serif" font-size="10.00">bextern</text>
</a>
</g>
</g>
<!-- Node9&#45;&gt;Node10 -->
<g id="edge9" class="edge">
<title>Node9&#45;&gt;Node10</title>
<path fill="none" stroke="#63b8ff" d="M171.44,-354.61C183.46,-351.17 198.05,-346.83 211,-342.5 230.92,-335.85 252.93,-327.65 270.58,-320.86"/>
<polygon fill="#63b8ff" stroke="#63b8ff" points="271.75,-324.17 279.81,-317.29 269.23,-317.64 271.75,-324.17"/>
</g>
<!-- Node13 -->
<g id="node13" class="node">
<title>Node13</title>
<g id="a_node13"><a xlink:href="../../d8/dfd/namespacedbgout.html#acdd1612a38e44b6469dc03d9d1c6ceed" target="_top" xlink:title="check if any output is desired for the current iteration check if the given context should be openend...">
<polygon fill="white" stroke="#666666" points="700,-187 571,-187 571,-168 700,-168 700,-187"/>
<text text-anchor="middle" x="635.5" y="-175" font-family="Helvetica,sans-Serif" font-size="10.00">dbgout::open_dbg_context</text>
</a>
</g>
</g>
<!-- Node9&#45;&gt;Node13 -->
<g id="edge14" class="edge">
<title>Node9&#45;&gt;Node13</title>
<path fill="none" stroke="#63b8ff" d="M171.27,-363.63C246.93,-369.68 473.52,-384.24 535,-347.5 591.18,-313.93 618.97,-235.55 629.42,-198.12"/>
<polygon fill="#63b8ff" stroke="#63b8ff" points="632.77,-199.14 631.93,-188.58 626,-197.36 632.77,-199.14"/>
</g>
<!-- Node14 -->
<g id="node14" class="node">
<title>Node14</title>
<g id="a_node14"><a xlink:href="../../dd/d98/precal_8f90.html#a0dae73e848a4757092d7e9786d073d3d" target="_top" xlink:title="Pre&#45;compute constant terms required for NESTOR.">
<polygon fill="white" stroke="#666666" points="327,-252 284,-252 284,-233 327,-233 327,-252"/>
<text text-anchor="middle" x="305.5" y="-240" font-family="Helvetica,sans-Serif" font-size="10.00">precal</text>
</a>
</g>
</g>
<!-- Node9&#45;&gt;Node14 -->
<g id="edge15" class="edge">
<title>Node9&#45;&gt;Node14</title>
<path fill="none" stroke="#63b8ff" d="M171.28,-358.34C184.1,-355.73 199.44,-351.01 211,-342.5 234.23,-325.4 227.51,-309.76 247,-288.5 257.02,-277.57 269.77,-267.1 280.71,-258.91"/>
<polygon fill="#63b8ff" stroke="#63b8ff" points="282.49,-261.95 288.53,-253.25 278.38,-256.28 282.49,-261.95"/>
</g>
<!-- Node15 -->
<g id="node15" class="node">
<title>Node15</title>
<g id="a_node15"><a xlink:href="../../d0/d19/scalpot_8f90.html#afb9e58849c5a27e486bdf4106f8bb84e" target="_top" xlink:title="Compute all required terms for solving for the scalar magnetic potential.">
<polygon fill="white" stroke="#666666" points="329.5,-131 281.5,-131 281.5,-112 329.5,-112 329.5,-131"/>
<text text-anchor="middle" x="305.5" y="-119" font-family="Helvetica,sans-Serif" font-size="10.00">scalpot</text>
</a>
</g>
</g>
<!-- Node9&#45;&gt;Node15 -->
<g id="edge17" class="edge">
<title>Node9&#45;&gt;Node15</title>
<path fill="none" stroke="#63b8ff" d="M171.43,-359.79C184.77,-357.63 200.56,-352.86 211,-342.5 250.21,-303.57 225.3,-274.32 247,-223.5 259.86,-193.39 279.29,-160.79 291.94,-140.76"/>
<polygon fill="#63b8ff" stroke="#63b8ff" points="294.77,-142.84 297.21,-132.53 288.87,-139.07 294.77,-142.84"/>
</g>
<!-- Node22 -->
<g id="node22" class="node">
<title>Node22</title>
<g id="a_node22"><a xlink:href="../../d7/d39/solver_8f90.html#a1e815013ed24a9dddc80410103f4a220" target="_top" xlink:title="Solve a linear system of equations using dgesv.">
<polygon fill="white" stroke="#666666" points="327,-409 284,-409 284,-390 327,-390 327,-409"/>
<text text-anchor="middle" x="305.5" y="-397" font-family="Helvetica,sans-Serif" font-size="10.00">solver</text>
</a>
</g>
</g>
<!-- Node9&#45;&gt;Node22 -->
<g id="edge28" class="edge">
<title>Node9&#45;&gt;Node22</title>
<path fill="none" stroke="#63b8ff" d="M171.19,-367.44C198.46,-374 242.49,-384.59 272.42,-391.78"/>
<polygon fill="#63b8ff" stroke="#63b8ff" points="271.51,-395.16 282.05,-394.1 273.14,-388.36 271.51,-395.16"/>
</g>
<!-- Node23 -->
<g id="node23" class="node">
<title>Node23</title>
<g id="a_node23"><a xlink:href="../../d6/d03/surface_8f90.html#ad7b6446e720a806f41f10dd1eb0b6f88" target="_top" xlink:title="Evaluate the geometry of the LCFS and tangential derivatives.">
<polygon fill="white" stroke="#666666" points="330,-446 281,-446 281,-427 330,-427 330,-446"/>
<text text-anchor="middle" x="305.5" y="-434" font-family="Helvetica,sans-Serif" font-size="10.00">surface</text>
</a>
</g>
</g>
<!-- Node9&#45;&gt;Node23 -->
<g id="edge29" class="edge">
<title>Node9&#45;&gt;Node23</title>
<path fill="none" stroke="#63b8ff" d="M171.34,-365.62C183.89,-368.48 198.95,-373.12 211,-380.5 230.84,-392.65 227.26,-406.18 247,-418.5 253.94,-422.83 262,-426.19 269.85,-428.78"/>
<polygon fill="#63b8ff" stroke="#63b8ff" points="268.64,-432.07 279.22,-431.51 270.6,-425.35 268.64,-432.07"/>
</g>
<!-- Node11 -->
<g id="node11" class="node">
<title>Node11</title>
<g id="a_node11"><a xlink:href="../../d6/dc7/becoil_8f90.html#a449b054fb88bdb4cdf73ef8939654bfb" target="_top" xlink:title="Compute the cylindrical components of the magnetic field due to external coils. by bi&#45;linear interpol...">
<polygon fill="white" stroke="#666666" points="488.5,-338 446.5,-338 446.5,-319 488.5,-319 488.5,-338"/>
<text text-anchor="middle" x="467.5" y="-326" font-family="Helvetica,sans-Serif" font-size="10.00">becoil</text>
</a>
</g>
</g>
<!-- Node10&#45;&gt;Node11 -->
<g id="edge10" class="edge">
<title>Node10&#45;&gt;Node11</title>
<path fill="none" stroke="#63b8ff" d="M329.77,-310.55C357.59,-314.21 404.27,-320.33 435.22,-324.4"/>
<polygon fill="#63b8ff" stroke="#63b8ff" points="434.38,-327.81 444.75,-325.64 435.29,-320.87 434.38,-327.81"/>
</g>
<!-- Node12 -->
<g id="node12" class="node">
<title>Node12</title>
<g id="a_node12"><a xlink:href="../../d9/dda/belicu_8f90.html#a53e6f162ca96069b8d93e131069ddf5d" target="_top" xlink:title="Magnetic field due to net toroidal current modeled by a filament along the magnetic axis.">
<polygon fill="white" stroke="#666666" points="488.5,-301 446.5,-301 446.5,-282 488.5,-282 488.5,-301"/>
<text text-anchor="middle" x="467.5" y="-289" font-family="Helvetica,sans-Serif" font-size="10.00">belicu</text>
</a>
</g>
</g>
<!-- Node10&#45;&gt;Node12 -->
<g id="edge11" class="edge">
<title>Node10&#45;&gt;Node12</title>
<path fill="none" stroke="#63b8ff" d="M329.77,-305.17C357.46,-302.4 403.86,-297.76 434.81,-294.67"/>
<polygon fill="#63b8ff" stroke="#63b8ff" points="435.14,-298.15 444.74,-293.68 434.44,-291.19 435.14,-298.15"/>
</g>
<!-- Node10&#45;&gt;Node13 -->
<g id="edge12" class="edge">
<title>Node10&#45;&gt;Node13</title>
<path fill="none" stroke="#63b8ff" d="M329.88,-298.58C348.76,-291.41 376.04,-281.16 400,-272.5 459.75,-250.92 476.29,-249.79 535,-225.5 559.22,-215.48 585.95,-202.47 605.59,-192.53"/>
<polygon fill="#63b8ff" stroke="#63b8ff" points="607.06,-195.71 614.37,-188.05 603.87,-189.48 607.06,-195.71"/>
</g>
<!-- Node13&#45;&gt;Node13 -->
<g id="edge13" class="edge">
<title>Node13&#45;&gt;Node13</title>
<path fill="none" stroke="#63b8ff" d="M609.2,-187.37C597.2,-195.94 605.97,-205 635.5,-205 652.11,-205 662.15,-202.13 665.62,-198.1"/>
<polygon fill="#63b8ff" stroke="#63b8ff" points="668.96,-197.04 662.31,-188.79 662.37,-199.39 668.96,-197.04"/>
</g>
<!-- Node14&#45;&gt;Node13 -->
<g id="edge16" class="edge">
<title>Node14&#45;&gt;Node13</title>
<path fill="none" stroke="#63b8ff" d="M327.02,-238.43C375.38,-228.85 498.05,-204.54 573.01,-189.68"/>
<polygon fill="#63b8ff" stroke="#63b8ff" points="573.55,-193.15 582.68,-187.77 572.19,-186.28 573.55,-193.15"/>
</g>
<!-- Node15&#45;&gt;Node13 -->
<g id="edge27" class="edge">
<title>Node15&#45;&gt;Node13</title>
<path fill="none" stroke="#63b8ff" d="M329.69,-117.69C371.54,-111.65 462.09,-102.39 535,-121.5 564.06,-129.12 593.59,-147.35 612.85,-160.95"/>
<polygon fill="#63b8ff" stroke="#63b8ff" points="610.56,-163.61 620.7,-166.67 614.68,-157.95 610.56,-163.61"/>
</g>
<!-- Node16 -->
<g id="node16" class="node">
<title>Node16</title>
<g id="a_node16"><a xlink:href="../../da/d73/analyt_8f90.html#a60edcf4884aa60f6d96c258a97255756" target="_top" xlink:title="Compute the analytical&#45;and&#45;numerical 4D Fourier integrals over the equivalently&#45;singular functions.">
<polygon fill="white" stroke="#666666" points="488.5,-37 446.5,-37 446.5,-18 488.5,-18 488.5,-37"/>
<text text-anchor="middle" x="467.5" y="-25" font-family="Helvetica,sans-Serif" font-size="10.00">analyt</text>
</a>
</g>
</g>
<!-- Node15&#45;&gt;Node16 -->
<g id="edge18" class="edge">
<title>Node15&#45;&gt;Node16</title>
<path fill="none" stroke="#63b8ff" d="M315.88,-111.54C331.7,-95.32 365.37,-63.24 400,-45.5 410.94,-39.9 423.81,-35.89 435.3,-33.1"/>
<polygon fill="#63b8ff" stroke="#63b8ff" points="435.71,-36.6 444.73,-31.03 434.21,-29.76 435.71,-36.6"/>
</g>
<!-- Node19 -->
<g id="node19" class="node">
<title>Node19</title>
<g id="a_node19"><a xlink:href="../../d6/d77/fouri_8f90.html#a0f902f8d584a395f9db7175079d273c7" target="_top" xlink:title="Compute Fourier integrals and build amatrix.">
<polygon fill="white" stroke="#666666" points="485,-74 450,-74 450,-55 485,-55 485,-74"/>
<text text-anchor="middle" x="467.5" y="-62" font-family="Helvetica,sans-Serif" font-size="10.00">fouri</text>
</a>
</g>
</g>
<!-- Node15&#45;&gt;Node19 -->
<g id="edge22" class="edge">
<title>Node15&#45;&gt;Node19</title>
<path fill="none" stroke="#63b8ff" d="M329.77,-113.21C358.66,-102.92 407.91,-85.37 438.74,-74.39"/>
<polygon fill="#63b8ff" stroke="#63b8ff" points="439.91,-77.69 448.15,-71.04 437.56,-71.09 439.91,-77.69"/>
</g>
<!-- Node20 -->
<g id="node20" class="node">
<title>Node20</title>
<g id="a_node20"><a xlink:href="../../d0/d1c/fourp_8f90.html#add725dd420251115fd60182dc992503c" target="_top" xlink:title="Perform Fourier integrals of Green&#39;s function kernel.">
<polygon fill="white" stroke="#666666" points="486.5,-150 448.5,-150 448.5,-131 486.5,-131 486.5,-150"/>
<text text-anchor="middle" x="467.5" y="-138" font-family="Helvetica,sans-Serif" font-size="10.00">fourp</text>
</a>
</g>
</g>
<!-- Node15&#45;&gt;Node20 -->
<g id="edge24" class="edge">
<title>Node15&#45;&gt;Node20</title>
<path fill="none" stroke="#63b8ff" d="M329.77,-124.26C358.08,-127.62 405.92,-133.31 436.84,-136.98"/>
<polygon fill="#63b8ff" stroke="#63b8ff" points="436.34,-140.44 446.68,-138.15 437.16,-133.49 436.34,-140.44"/>
</g>
<!-- Node21 -->
<g id="node21" class="node">
<title>Node21</title>
<g id="a_node21"><a xlink:href="../../df/d2d/greenf_8f90.html#acd9d25905cc799c9fcd4d08a3cbb1e65" target="_top" xlink:title="Compute the regularized evaluation of the Green&#39;s function and the source term.">
<polygon fill="white" stroke="#666666" points="489.5,-187 445.5,-187 445.5,-168 489.5,-168 489.5,-187"/>
<text text-anchor="middle" x="467.5" y="-175" font-family="Helvetica,sans-Serif" font-size="10.00">greenf</text>
</a>
</g>
</g>
<!-- Node15&#45;&gt;Node21 -->
<g id="edge26" class="edge">
<title>Node15&#45;&gt;Node21</title>
<path fill="none" stroke="#63b8ff" d="M329.7,-131.42C348.48,-139.27 375.7,-150.24 400,-158.5 411.05,-162.26 423.3,-165.9 434.25,-168.97"/>
<polygon fill="#63b8ff" stroke="#63b8ff" points="433.04,-172.27 443.61,-171.55 434.9,-165.52 433.04,-172.27"/>
</g>
<!-- Node16&#45;&gt;Node13 -->
<g id="edge21" class="edge">
<title>Node16&#45;&gt;Node13</title>
<path fill="none" stroke="#63b8ff" d="M488.84,-29.51C502.81,-31.68 521.23,-36.19 535,-45.5 578.02,-74.59 609.94,-128.52 624.96,-157.63"/>
<polygon fill="#63b8ff" stroke="#63b8ff" points="621.76,-159.06 629.35,-166.44 628.02,-155.93 621.76,-159.06"/>
</g>
<!-- Node17 -->
<g id="node17" class="node">
<title>Node17</title>
<g id="a_node17"><a xlink:href="../../df/df3/analysum_8f90.html#aa51b1a5786e7b5719fe2ca679efc66b0" target="_top" xlink:title="Compute the (m=0 or n=0) part of the DFT of the analytical Fourier transforms of the equivalently&#45;sin...">
<polygon fill="white" stroke="#666666" points="664.5,-56 606.5,-56 606.5,-37 664.5,-37 664.5,-56"/>
<text text-anchor="middle" x="635.5" y="-44" font-family="Helvetica,sans-Serif" font-size="10.00">analysum</text>
</a>
</g>
</g>
<!-- Node16&#45;&gt;Node17 -->
<g id="edge19" class="edge">
<title>Node16&#45;&gt;Node17</title>
<path fill="none" stroke="#63b8ff" d="M488.85,-29.83C515.19,-32.84 561.63,-38.16 595,-41.98"/>
<polygon fill="#63b8ff" stroke="#63b8ff" points="594.36,-45.43 604.7,-43.09 595.16,-38.47 594.36,-45.43"/>
</g>
<!-- Node18 -->
<g id="node18" class="node">
<title>Node18</title>
<g id="a_node18"><a xlink:href="../../d1/d90/analysum2_8f90.html#a47a0d185131a197c6fc62ee5d68d62fb" target="_top" xlink:title="Compute the (m&gt;0 and n&gt;0) part of the DFT of the analytical Fourier transforms of the equivalently&#45;si...">
<polygon fill="white" stroke="#666666" points="667,-19 604,-19 604,0 667,0 667,-19"/>
<text text-anchor="middle" x="635.5" y="-7" font-family="Helvetica,sans-Serif" font-size="10.00">analysum2</text>
</a>
</g>
</g>
<!-- Node16&#45;&gt;Node18 -->
<g id="edge20" class="edge">
<title>Node16&#45;&gt;Node18</title>
<path fill="none" stroke="#63b8ff" d="M488.85,-25.29C514.49,-22.51 559.18,-17.67 592.32,-14.07"/>
<polygon fill="#63b8ff" stroke="#63b8ff" points="592.44,-17.58 602,-13.02 591.68,-10.62 592.44,-17.58"/>
</g>
<!-- Node19&#45;&gt;Node13 -->
<g id="edge23" class="edge">
<title>Node19&#45;&gt;Node13</title>
<path fill="none" stroke="#63b8ff" d="M485.41,-68.66C499.34,-72.54 519.3,-79.13 535,-88.5 567.82,-108.08 599.64,-139.36 618.13,-159.15"/>
<polygon fill="#63b8ff" stroke="#63b8ff" points="615.51,-161.46 624.84,-166.47 620.67,-156.73 615.51,-161.46"/>
</g>
<!-- Node20&#45;&gt;Node13 -->
<g id="edge25" class="edge">
<title>Node20&#45;&gt;Node13</title>
<path fill="none" stroke="#63b8ff" d="M486.9,-144.6C508.95,-149.52 546.92,-157.98 578.82,-165.09"/>
<polygon fill="#63b8ff" stroke="#63b8ff" points="577.82,-168.45 588.34,-167.21 579.34,-161.62 577.82,-168.45"/>
</g>
<!-- Node23&#45;&gt;Node13 -->
<g id="edge30" class="edge">
<title>Node23&#45;&gt;Node13</title>
<path fill="none" stroke="#63b8ff" d="M330.4,-436.97C375.41,-436.62 473.75,-429.8 535,-380.5 594.57,-332.55 621.1,-240 630.38,-198.51"/>
<polygon fill="#63b8ff" stroke="#63b8ff" points="633.77,-199.37 632.41,-188.86 626.92,-197.93 633.77,-199.37"/>
</g>
</g>
</svg>
