<?xml version="1.0" encoding="UTF-8" standalone="no"?>
<!DOCTYPE svg PUBLIC "-//W3C//DTD SVG 1.1//EN"
 "http://www.w3.org/Graphics/SVG/1.1/DTD/svg11.dtd">
<!-- Generated by graphviz version 12.2.1 (20241206.2353)
 -->
<!-- Title: nestor Pages: 1 -->
<!--zoomable 551 -->

<svg id="main" version="1.1" xmlns="http://www.w3.org/2000/svg" xmlns:xlink="http://www.w3.org/1999/xlink" xml:space="preserve" onload="init(evt)">

<style type="text/css"><![CDATA[
.node, .edge {opacity: 0.7;}
.node.selected, .edge.selected {opacity: 1;}
.edge:hover path { stroke: red; }
.edge:hover polygon { stroke: red; fill: red; }
]]></style>

<defs>
  <circle id="rim" cx="0" cy="0" r="7"/>
  <circle id="rim2" cx="0" cy="0" r="3.5"/>
  <g id="zoomPlus">
    <use xlink:href="#rim" fill="#404040"><set attributeName="fill" to="#808080" begin="zoomplus.mouseover" end="zoomplus.mouseout"/></use>
    <path d="M-4,0h8M0,-4v8" fill="none" stroke="white" stroke-width="1.5" pointer-events="none"/>
  </g>
  <g id="zoomMin">
    <use xlink:href="#rim" fill="#404040"><set attributeName="fill" to="#808080" begin="zoomminus.mouseover" end="zoomminus.mouseout"/></use>
    <path d="M-4,0h8" fill="none" stroke="white" stroke-width="1.5" pointer-events="none"/>
  </g>
  <g id="arrowUp" transform="translate(30 24)">
    <use xlink:href="#rim"/>
    <path pointer-events="none" fill="none" stroke="white" stroke-width="1.5" d="M0,-3.0v7 M-2.5,-0.5L0,-3.0L2.5,-0.5"/>
  </g>
  <g id="arrowRight" transform="rotate(90) translate(36 -43)">
    <use xlink:href="#rim"/>
    <path pointer-events="none" fill="none" stroke="white" stroke-width="1.5" d="M0,-3.0v7 M-2.5,-0.5L0,-3.0L2.5,-0.5"/>
  </g>
  <g id="arrowDown" transform="rotate(180) translate(-30 -48)">
    <use xlink:href="#rim"/>
    <path pointer-events="none" fill="none" stroke="white" stroke-width="1.5" d="M0,-3.0v7 M-2.5,-0.5L0,-3.0L2.5,-0.5"/>
  </g>
  <g id="arrowLeft" transform="rotate(270) translate(-36 17)">
    <use xlink:href="#rim"/>
    <path pointer-events="none" fill="none" stroke="white" stroke-width="1.5" d="M0,-3.0v7 M-2.5,-0.5L0,-3.0L2.5,-0.5"/>
  </g>
  <g id="resetDef">
    <use xlink:href="#rim2" fill="#404040"><set attributeName="fill" to="#808080" begin="reset.mouseover" end="reset.mouseout"/></use>
  </g>
</defs>
<script type="application/ecmascript">
var viewWidth = 705;
var viewHeight = 551;
var sectionId = 'dynsection-0';
</script>
<script type="application/ecmascript" xlink:href="../../svg.min.js"/>
<svg id="graph" class="graph">
<g id="viewport">
<title>nestor</title>
<!-- Node1 -->
<g id="Node000001" class="node">
<title>Node1</title>
<g id="a_Node000001"><a xlink:title="Main program of stand&#45;alone version of NESTOR.">
<polygon fill="#999999" stroke="#666666" points="43,-438.25 0,-438.25 0,-419 43,-419 43,-438.25"/>
<text text-anchor="middle" x="21.5" y="-424.75" font-family="Helvetica,sans-Serif" font-size="10.00">nestor</text>
</a>
</g>
</g>
<!-- Node2 -->
<g id="Node000002" class="node">
<title>Node2</title>
<g id="a_Node000002"><a xlink:href="../../dd/df2/namespacevacmod.html#a30b88ea77408f43e1bedf2c11c0f8d1a" target="_top" xlink:title=" ">
<polygon fill="white" stroke="#666666" points="204.88,-543.25 83.88,-543.25 83.88,-524 204.88,-524 204.88,-543.25"/>
<text text-anchor="middle" x="144.38" y="-529.75" font-family="Helvetica,sans-Serif" font-size="10.00">vacmod::allocate_nestor</text>
</a>
</g>
</g>
<!-- Node1&#45;&gt;Node2 -->
<g id="edge1_Node000001_Node000002" class="edge">
<title>Node1&#45;&gt;Node2</title>
<g id="a_edge1_Node000001_Node000002"><a xlink:title=" ">
<path fill="none" stroke="#63b8ff" d="M26.22,-438.66C33.47,-456.85 51.28,-495.26 79,-515.62 80.34,-516.61 81.74,-517.55 83.18,-518.43"/>
<polygon fill="#63b8ff" stroke="#63b8ff" points="81.33,-521.41 91.83,-522.85 84.52,-515.18 81.33,-521.41"/>
</a>
</g>
</g>
<!-- Node3 -->
<g id="Node000003" class="node">
<title>Node3</title>
<g id="a_Node000003"><a xlink:href="../../dd/df2/namespacevacmod.html#ade3824460b4eb61403c35f6abe95cd89" target="_top" xlink:title=" ">
<polygon fill="white" stroke="#666666" points="209.75,-506.25 79,-506.25 79,-487 209.75,-487 209.75,-506.25"/>
<text text-anchor="middle" x="144.38" y="-492.75" font-family="Helvetica,sans-Serif" font-size="10.00">vacmod::free_mem_nestor</text>
</a>
</g>
</g>
<!-- Node1&#45;&gt;Node3 -->
<g id="edge2_Node000001_Node000003" class="edge">
<title>Node1&#45;&gt;Node3</title>
<g id="a_edge2_Node000001_Node000003"><a xlink:title=" ">
<path fill="none" stroke="#63b8ff" d="M31.53,-438.7C41.95,-449.75 60.09,-467.28 79,-477.62 82.22,-479.39 85.62,-481 89.11,-482.48"/>
<polygon fill="#63b8ff" stroke="#63b8ff" points="87.75,-485.71 98.34,-485.98 90.23,-479.16 87.75,-485.71"/>
</a>
</g>
</g>
<!-- Node4 -->
<g id="Node000004" class="node">
<title>Node4</title>
<g id="a_Node000004"><a xlink:href="../../db/dc0/namespacenestor__io.html#a84f85fce5232fbd8ee9eca2f2b5adb0c" target="_top" xlink:title=" ">
<polygon fill="white" stroke="#666666" points="200,-468.88 88.75,-468.88 88.75,-438.38 200,-438.38 200,-468.88"/>
<text text-anchor="start" x="96.75" y="-455.38" font-family="Helvetica,sans-Serif" font-size="10.00">nestor_io::read_nestor</text>
<text text-anchor="middle" x="144.38" y="-444.12" font-family="Helvetica,sans-Serif" font-size="10.00">_inputs</text>
</a>
</g>
</g>
<!-- Node1&#45;&gt;Node4 -->
<g id="edge3_Node000001_Node000004" class="edge">
<title>Node1&#45;&gt;Node4</title>
<g id="a_edge3_Node000001_Node000004"><a xlink:title=" ">
<path fill="none" stroke="#63b8ff" d="M43.28,-432.92C52.94,-434.92 65.01,-437.42 77.41,-439.98"/>
<polygon fill="#63b8ff" stroke="#63b8ff" points="76.34,-443.33 86.84,-441.93 77.76,-436.48 76.34,-443.33"/>
</a>
</g>
</g>
<!-- Node8 -->
<g id="Node000008" class="node">
<title>Node8</title>
<g id="a_Node000008"><a xlink:href="../../d2/d04/namespacevacmod0.html#a4be777018e003400355a27b190d7d39a" target="_top" xlink:title=" ">
<polygon fill="white" stroke="#666666" points="197.38,-419.88 91.38,-419.88 91.38,-389.38 197.38,-389.38 197.38,-419.88"/>
<text text-anchor="start" x="99.38" y="-406.38" font-family="Helvetica,sans-Serif" font-size="10.00">vacmod0::set_nestor</text>
<text text-anchor="middle" x="144.38" y="-395.12" font-family="Helvetica,sans-Serif" font-size="10.00">_sizes</text>
</a>
</g>
</g>
<!-- Node1&#45;&gt;Node8 -->
<g id="edge7_Node000001_Node000008" class="edge">
<title>Node1&#45;&gt;Node8</title>
<g id="a_edge7_Node000001_Node000008"><a xlink:title=" ">
<path fill="none" stroke="#63b8ff" d="M43.28,-424.5C53.56,-422.46 66.59,-419.87 79.81,-417.25"/>
<polygon fill="#63b8ff" stroke="#63b8ff" points="80.3,-420.72 89.43,-415.34 78.94,-413.85 80.3,-420.72"/>
</a>
</g>
</g>
<!-- Node9 -->
<g id="Node000009" class="node">
<title>Node9</title>
<g id="a_Node000009"><a xlink:href="../../dd/d6d/vacuum_8f90.html#a0acbc18d2ab7664835d797b42ce49a35" target="_top" xlink:title="Compute the vacuum contribution to the free&#45;boundary energy functional.">
<polygon fill="white" stroke="#666666" points="169.62,-371.25 119.12,-371.25 119.12,-352 169.62,-352 169.62,-371.25"/>
<text text-anchor="middle" x="144.38" y="-357.75" font-family="Helvetica,sans-Serif" font-size="10.00">vacuum</text>
</a>
</g>
</g>
<!-- Node1&#45;&gt;Node9 -->
<g id="edge8_Node000001_Node000009" class="edge">
<title>Node1&#45;&gt;Node9</title>
<g id="a_edge8_Node000001_Node000009"><a xlink:title=" ">
<path fill="none" stroke="#63b8ff" d="M31.57,-418.77C42.03,-407.95 60.21,-390.79 79,-380.62 87.91,-375.81 98.2,-372.07 107.9,-369.23"/>
<polygon fill="#63b8ff" stroke="#63b8ff" points="108.67,-372.65 117.43,-366.7 106.87,-365.89 108.67,-372.65"/>
</a>
</g>
</g>
<!-- Node24 -->
<g id="Node000024" class="node">
<title>Node24</title>
<g id="a_Node000024"><a xlink:href="../../db/dc0/namespacenestor__io.html#a288cc8f23cbfe1484ec6815381cc25c8" target="_top" xlink:title=" ">
<polygon fill="white" stroke="#666666" points="201.12,-333.88 87.62,-333.88 87.62,-303.38 201.12,-303.38 201.12,-333.88"/>
<text text-anchor="start" x="95.62" y="-320.38" font-family="Helvetica,sans-Serif" font-size="10.00">nestor_io::write_nestor</text>
<text text-anchor="middle" x="144.38" y="-309.12" font-family="Helvetica,sans-Serif" font-size="10.00">_outputs</text>
</a>
</g>
</g>
<!-- Node1&#45;&gt;Node24 -->
<g id="edge31_Node000001_Node000024" class="edge">
<title>Node1&#45;&gt;Node24</title>
<g id="a_edge31_Node000001_Node000024"><a xlink:title=" ">
<path fill="none" stroke="#63b8ff" d="M26.54,-418.64C34.19,-400.91 52.46,-363.79 79,-342.62 79.98,-341.84 80.99,-341.09 82.02,-340.35"/>
<polygon fill="#63b8ff" stroke="#63b8ff" points="83.84,-343.34 90.55,-335.14 80.19,-337.37 83.84,-343.34"/>
</a>
</g>
</g>
<!-- Node5 -->
<g id="Node000005" class="node">
<title>Node5</title>
<g id="a_Node000005"><a xlink:href="../../d1/d41/namespacemgrid__mod.html#a202373a45f0c5b1f81076da92a1123d0" target="_top" xlink:title=" ">
<polygon fill="white" stroke="#666666" points="362.25,-483.25 245.75,-483.25 245.75,-464 362.25,-464 362.25,-483.25"/>
<text text-anchor="middle" x="304" y="-469.75" font-family="Helvetica,sans-Serif" font-size="10.00">mgrid_mod::read_mgrid</text>
</a>
</g>
</g>
<!-- Node4&#45;&gt;Node5 -->
<g id="edge4_Node000004_Node000005" class="edge">
<title>Node4&#45;&gt;Node5</title>
<g id="a_edge4_Node000004_Node000005"><a xlink:title=" ">
<path fill="none" stroke="#63b8ff" d="M200.06,-460.56C211.07,-461.96 222.76,-463.44 234.18,-464.89"/>
<polygon fill="#63b8ff" stroke="#63b8ff" points="233.6,-468.35 243.96,-466.13 234.48,-461.4 233.6,-468.35"/>
</a>
</g>
</g>
<!-- Node6 -->
<g id="Node000006" class="node">
<title>Node6</title>
<g id="a_Node000006"><a xlink:href="../../d0/d29/namespacesafe__open__mod.html#aab207f9769415b0cccd91260a8382eeb" target="_top" xlink:title=" ">
<polygon fill="white" stroke="#666666" points="532.75,-516.25 398.25,-516.25 398.25,-497 532.75,-497 532.75,-516.25"/>
<text text-anchor="middle" x="465.5" y="-502.75" font-family="Helvetica,sans-Serif" font-size="10.00">safe_open_mod::safe_open</text>
</a>
</g>
</g>
<!-- Node5&#45;&gt;Node6 -->
<g id="edge5_Node000005_Node000006" class="edge">
<title>Node5&#45;&gt;Node6</title>
<g id="a_edge5_Node000005_Node000006"><a xlink:title=" ">
<path fill="none" stroke="#63b8ff" d="M353.72,-483.71C369.88,-487.05 388.05,-490.81 404.93,-494.3"/>
<polygon fill="#63b8ff" stroke="#63b8ff" points="403.82,-497.64 414.32,-496.24 405.24,-490.79 403.82,-497.64"/>
</a>
</g>
</g>
<!-- Node7 -->
<g id="Node000007" class="node">
<title>Node7</title>
<g id="a_Node000007"><a xlink:href="../../d1/d41/namespacemgrid__mod.html#aa4818ade7a169c68f8b7c3a225fd287e" target="_top" xlink:title=" ">
<polygon fill="white" stroke="#666666" points="523,-479.25 408,-479.25 408,-460 523,-460 523,-479.25"/>
<text text-anchor="middle" x="465.5" y="-465.75" font-family="Helvetica,sans-Serif" font-size="10.00">mgrid_mod::sum_bfield</text>
</a>
</g>
</g>
<!-- Node5&#45;&gt;Node7 -->
<g id="edge6_Node000005_Node000007" class="edge">
<title>Node5&#45;&gt;Node7</title>
<g id="a_edge6_Node000005_Node000007"><a xlink:title=" ">
<path fill="none" stroke="#63b8ff" d="M362.58,-472.18C373.44,-471.91 384.9,-471.62 396.06,-471.34"/>
<polygon fill="#63b8ff" stroke="#63b8ff" points="396.11,-474.84 406.02,-471.09 395.94,-467.84 396.11,-474.84"/>
</a>
</g>
</g>
<!-- Node10 -->
<g id="Node000010" class="node">
<title>Node10</title>
<g id="a_Node000010"><a xlink:href="../../db/d3d/bextern_8f90.html#a90228cc5f358147ae7f59953d6f9cced" target="_top" xlink:title="Compute the total magnetic field due to external coils and the net toroidal plasma current.">
<polygon fill="white" stroke="#666666" points="327.75,-333.25 280.25,-333.25 280.25,-314 327.75,-314 327.75,-333.25"/>
<text text-anchor="middle" x="304" y="-319.75" font-family="Helvetica,sans-Serif" font-size="10.00">bextern</text>
</a>
</g>
</g>
<!-- Node9&#45;&gt;Node10 -->
<g id="edge9_Node000009_Node000010" class="edge">
<title>Node9&#45;&gt;Node10</title>
<g id="a_edge9_Node000009_Node000010"><a xlink:title=" ">
<path fill="none" stroke="#63b8ff" d="M170,-355.69C196.53,-349.29 238.92,-339.07 268.7,-331.89"/>
<polygon fill="#63b8ff" stroke="#63b8ff" points="269.45,-335.31 278.36,-329.57 267.81,-328.51 269.45,-335.31"/>
</a>
</g>
</g>
<!-- Node13 -->
<g id="Node000013" class="node">
<title>Node13</title>
<g id="a_Node000013"><a xlink:href="../../d8/dfd/namespacedbgout.html#acdd1612a38e44b6469dc03d9d1c6ceed" target="_top" xlink:title="check if any output is desired for the current iteration check if the given context should be openend...">
<polygon fill="white" stroke="#666666" points="697.25,-187.25 568.75,-187.25 568.75,-168 697.25,-168 697.25,-187.25"/>
<text text-anchor="middle" x="633" y="-173.75" font-family="Helvetica,sans-Serif" font-size="10.00">dbgout::open_dbg_context</text>
</a>
</g>
</g>
<!-- Node9&#45;&gt;Node13 -->
<g id="edge14_Node000009_Node000013" class="edge">
<title>Node9&#45;&gt;Node13</title>
<g id="a_edge14_Node000009_Node000013"><a xlink:title=" ">
<path fill="none" stroke="#63b8ff" d="M170.08,-363.75C245.52,-369.78 471.47,-384.3 532.75,-347.62 588.61,-314.2 616.29,-236.41 626.8,-198.77"/>
<polygon fill="#63b8ff" stroke="#63b8ff" points="630.18,-199.69 629.34,-189.13 623.41,-197.91 630.18,-199.69"/>
</a>
</g>
</g>
<!-- Node14 -->
<g id="Node000014" class="node">
<title>Node14</title>
<g id="a_Node000014"><a xlink:href="../../dd/d98/precal_8f90.html#a0dae73e848a4757092d7e9786d073d3d" target="_top" xlink:title="Pre&#45;compute constant terms required for NESTOR.">
<polygon fill="white" stroke="#666666" points="325.12,-276.25 282.88,-276.25 282.88,-257 325.12,-257 325.12,-276.25"/>
<text text-anchor="middle" x="304" y="-262.75" font-family="Helvetica,sans-Serif" font-size="10.00">precal</text>
</a>
</g>
</g>
<!-- Node9&#45;&gt;Node14 -->
<g id="edge15_Node000009_Node000014" class="edge">
<title>Node9&#45;&gt;Node14</title>
<g id="a_edge15_Node000009_Node000014"><a xlink:title=" ">
<path fill="none" stroke="#63b8ff" d="M169.86,-357.56C182.44,-354.72 197.63,-350.05 209.75,-342.62 229.59,-330.47 227.94,-319.6 245.75,-304.62 255.1,-296.76 266.13,-289.11 276.01,-282.75"/>
<polygon fill="#63b8ff" stroke="#63b8ff" points="277.85,-285.73 284.47,-277.45 274.14,-279.79 277.85,-285.73"/>
</a>
</g>
</g>
<!-- Node15 -->
<g id="Node000015" class="node">
<title>Node15</title>
<g id="a_Node000015"><a xlink:href="../../d0/d19/scalpot_8f90.html#afb9e58849c5a27e486bdf4106f8bb84e" target="_top" xlink:title="Compute all required terms for solving for the scalar magnetic potential.">
<polygon fill="white" stroke="#666666" points="327.75,-131.25 280.25,-131.25 280.25,-112 327.75,-112 327.75,-131.25"/>
<text text-anchor="middle" x="304" y="-117.75" font-family="Helvetica,sans-Serif" font-size="10.00">scalpot</text>
</a>
</g>
</g>
<!-- Node9&#45;&gt;Node15 -->
<g id="edge17_Node000009_Node000015" class="edge">
<title>Node9&#45;&gt;Node15</title>
<g id="a_edge17_Node000009_Node000015"><a xlink:title=" ">
<path fill="none" stroke="#63b8ff" d="M169.99,-359.63C183.22,-357.37 198.98,-352.61 209.75,-342.62 242.86,-311.92 228.4,-289.31 245.75,-247.62 261.45,-209.9 281.56,-166.69 293.29,-141.93"/>
<polygon fill="#63b8ff" stroke="#63b8ff" points="296.39,-143.55 297.53,-133.02 290.07,-140.55 296.39,-143.55"/>
</a>
</g>
</g>
<!-- Node22 -->
<g id="Node000022" class="node">
<title>Node22</title>
<g id="a_Node000022"><a xlink:href="../../d7/d39/solver_8f90.html#a1e815013ed24a9dddc80410103f4a220" target="_top" xlink:title="Solve a linear system of equations using dgesv.">
<polygon fill="white" stroke="#666666" points="325.12,-409.25 282.88,-409.25 282.88,-390 325.12,-390 325.12,-409.25"/>
<text text-anchor="middle" x="304" y="-395.75" font-family="Helvetica,sans-Serif" font-size="10.00">solver</text>
</a>
</g>
</g>
<!-- Node9&#45;&gt;Node22 -->
<g id="edge28_Node000009_Node000022" class="edge">
<title>Node9&#45;&gt;Node22</title>
<g id="a_edge28_Node000009_Node000022"><a xlink:title=" ">
<path fill="none" stroke="#63b8ff" d="M170,-367.56C197.37,-374.16 241.63,-384.83 271.49,-392.03"/>
<polygon fill="#63b8ff" stroke="#63b8ff" points="270.54,-395.4 281.08,-394.34 272.18,-388.6 270.54,-395.4"/>
</a>
</g>
</g>
<!-- Node23 -->
<g id="Node000023" class="node">
<title>Node23</title>
<g id="a_Node000023"><a xlink:href="../../d6/d03/surface_8f90.html#ad7b6446e720a806f41f10dd1eb0b6f88" target="_top" xlink:title="Evaluate the geometry of the LCFS and tangential derivatives.">
<polygon fill="white" stroke="#666666" points="328.12,-446.25 279.88,-446.25 279.88,-427 328.12,-427 328.12,-446.25"/>
<text text-anchor="middle" x="304" y="-432.75" font-family="Helvetica,sans-Serif" font-size="10.00">surface</text>
</a>
</g>
</g>
<!-- Node9&#45;&gt;Node23 -->
<g id="edge29_Node000009_Node000023" class="edge">
<title>Node9&#45;&gt;Node23</title>
<g id="a_edge29_Node000009_Node000023"><a xlink:title=" ">
<path fill="none" stroke="#63b8ff" d="M169.86,-365.69C182.44,-368.53 197.63,-373.2 209.75,-380.62 229.59,-392.78 226.02,-406.3 245.75,-418.62 252.72,-422.98 260.82,-426.36 268.7,-428.95"/>
<polygon fill="#63b8ff" stroke="#63b8ff" points="267.52,-432.25 278.1,-431.69 269.48,-425.53 267.52,-432.25"/>
</a>
</g>
</g>
<!-- Node11 -->
<g id="Node000011" class="node">
<title>Node11</title>
<g id="a_Node000011"><a xlink:href="../../d6/dc7/becoil_8f90.html#a449b054fb88bdb4cdf73ef8939654bfb" target="_top" xlink:title="Compute the cylindrical components of the magnetic field due to external coils. by bi&#45;linear interpol...">
<polygon fill="white" stroke="#666666" points="486.25,-338.25 444.75,-338.25 444.75,-319 486.25,-319 486.25,-338.25"/>
<text text-anchor="middle" x="465.5" y="-324.75" font-family="Helvetica,sans-Serif" font-size="10.00">becoil</text>
</a>
</g>
</g>
<!-- Node10&#45;&gt;Node11 -->
<g id="edge10_Node000010_Node000011" class="edge">
<title>Node10&#45;&gt;Node11</title>
<g id="a_edge10_Node000010_Node000011"><a xlink:title=" ">
<path fill="none" stroke="#63b8ff" d="M328.19,-324.35C355.8,-325.22 402.05,-326.67 432.91,-327.63"/>
<polygon fill="#63b8ff" stroke="#63b8ff" points="432.69,-331.13 442.8,-327.94 432.91,-324.13 432.69,-331.13"/>
</a>
</g>
</g>
<!-- Node12 -->
<g id="Node000012" class="node">
<title>Node12</title>
<g id="a_Node000012"><a xlink:href="../../d9/dda/belicu_8f90.html#a53e6f162ca96069b8d93e131069ddf5d" target="_top" xlink:title="Magnetic field due to net toroidal current modeled by a filament along the magnetic axis.">
<polygon fill="white" stroke="#666666" points="486.25,-301.25 444.75,-301.25 444.75,-282 486.25,-282 486.25,-301.25"/>
<text text-anchor="middle" x="465.5" y="-287.75" font-family="Helvetica,sans-Serif" font-size="10.00">belicu</text>
</a>
</g>
</g>
<!-- Node10&#45;&gt;Node12 -->
<g id="edge11_Node000010_Node000012" class="edge">
<title>Node10&#45;&gt;Node12</title>
<g id="a_edge11_Node000010_Node000012"><a xlink:title=" ">
<path fill="none" stroke="#63b8ff" d="M328.19,-318.97C355.93,-313.41 402.46,-304.07 433.32,-297.88"/>
<polygon fill="#63b8ff" stroke="#63b8ff" points="433.71,-301.37 442.83,-295.97 432.33,-294.51 433.71,-301.37"/>
</a>
</g>
</g>
<!-- Node10&#45;&gt;Node13 -->
<g id="edge12_Node000010_Node000013" class="edge">
<title>Node10&#45;&gt;Node13</title>
<g id="a_edge12_Node000010_Node000013"><a xlink:title=" ">
<path fill="none" stroke="#63b8ff" d="M320.62,-313.61C338.71,-302.36 369.68,-284.18 398.25,-272.62 455.72,-249.37 475.61,-259.69 532.75,-235.62 559.85,-224.21 588.62,-206.73 608.18,-193.94"/>
<polygon fill="#63b8ff" stroke="#63b8ff" points="609.85,-197.03 616.24,-188.57 605.98,-191.2 609.85,-197.03"/>
</a>
</g>
</g>
<!-- Node13&#45;&gt;Node13 -->
<g id="edge13_Node000013_Node000013" class="edge">
<title>Node13&#45;&gt;Node13</title>
<g id="a_edge13_Node000013_Node000013"><a xlink:title=" ">
<path fill="none" stroke="#63b8ff" d="M606.78,-187.54C594.82,-196.15 603.56,-205.25 633,-205.25 649.56,-205.25 659.57,-202.37 663.03,-198.32"/>
<polygon fill="#63b8ff" stroke="#63b8ff" points="666.36,-197.23 659.73,-188.97 659.76,-199.56 666.36,-197.23"/>
</a>
</g>
</g>
<!-- Node14&#45;&gt;Node13 -->
<g id="edge16_Node000014_Node000013" class="edge">
<title>Node14&#45;&gt;Node13</title>
<g id="a_edge16_Node000014_Node000013"><a xlink:title=" ">
<path fill="none" stroke="#63b8ff" d="M325.34,-260.59C344.2,-255.03 373.08,-246.61 398.25,-239.62 461.55,-222.07 534.79,-202.81 582.17,-190.49"/>
<polygon fill="#63b8ff" stroke="#63b8ff" points="582.78,-193.95 591.58,-188.05 581.03,-187.18 582.78,-193.95"/>
</a>
</g>
</g>
<!-- Node15&#45;&gt;Node13 -->
<g id="edge27_Node000015_Node000013" class="edge">
<title>Node15&#45;&gt;Node13</title>
<g id="a_edge27_Node000015_Node000013"><a xlink:title=" ">
<path fill="none" stroke="#63b8ff" d="M328.12,-117.82C369.83,-111.78 460.09,-102.54 532.75,-121.62 561.76,-129.24 591.21,-147.47 610.41,-161.08"/>
<polygon fill="#63b8ff" stroke="#63b8ff" points="608.1,-163.72 618.24,-166.8 612.23,-158.07 608.1,-163.72"/>
</a>
</g>
</g>
<!-- Node16 -->
<g id="Node000016" class="node">
<title>Node16</title>
<g id="a_Node000016"><a xlink:href="../../da/d73/analyt_8f90.html#a60edcf4884aa60f6d96c258a97255756" target="_top" xlink:title="Compute the analytical&#45;and&#45;numerical 4D Fourier integrals over the equivalently&#45;singular functions.">
<polygon fill="white" stroke="#666666" points="486.25,-37.25 444.75,-37.25 444.75,-18 486.25,-18 486.25,-37.25"/>
<text text-anchor="middle" x="465.5" y="-23.75" font-family="Helvetica,sans-Serif" font-size="10.00">analyt</text>
</a>
</g>
</g>
<!-- Node15&#45;&gt;Node16 -->
<g id="edge18_Node000015_Node000016" class="edge">
<title>Node15&#45;&gt;Node16</title>
<g id="a_edge18_Node000015_Node000016"><a xlink:title=" ">
<path fill="none" stroke="#63b8ff" d="M314.35,-111.67C330.13,-95.45 363.7,-63.38 398.25,-45.62 409.03,-40.09 421.7,-36.11 433.05,-33.32"/>
<polygon fill="#63b8ff" stroke="#63b8ff" points="433.79,-36.75 442.8,-31.17 432.28,-29.91 433.79,-36.75"/>
</a>
</g>
</g>
<!-- Node19 -->
<g id="Node000019" class="node">
<title>Node19</title>
<g id="a_Node000019"><a xlink:href="../../d6/d77/fouri_8f90.html#a0f902f8d584a395f9db7175079d273c7" target="_top" xlink:title="Compute Fourier integrals and build amatrix.">
<polygon fill="white" stroke="#666666" points="482.88,-74.25 448.12,-74.25 448.12,-55 482.88,-55 482.88,-74.25"/>
<text text-anchor="middle" x="465.5" y="-60.75" font-family="Helvetica,sans-Serif" font-size="10.00">fouri</text>
</a>
</g>
</g>
<!-- Node15&#45;&gt;Node19 -->
<g id="edge22_Node000015_Node000019" class="edge">
<title>Node15&#45;&gt;Node19</title>
<g id="a_edge22_Node000015_Node000019"><a xlink:title=" ">
<path fill="none" stroke="#63b8ff" d="M328.19,-113.34C357,-103.04 406.09,-85.5 436.83,-74.51"/>
<polygon fill="#63b8ff" stroke="#63b8ff" points="437.97,-77.82 446.21,-71.16 435.61,-71.23 437.97,-77.82"/>
</a>
</g>
</g>
<!-- Node20 -->
<g id="Node000020" class="node">
<title>Node20</title>
<g id="a_Node000020"><a xlink:href="../../d0/d1c/fourp_8f90.html#add725dd420251115fd60182dc992503c" target="_top" xlink:title="Perform Fourier integrals of Green&#39;s function kernel.">
<polygon fill="white" stroke="#666666" points="484.38,-150.25 446.62,-150.25 446.62,-131 484.38,-131 484.38,-150.25"/>
<text text-anchor="middle" x="465.5" y="-136.75" font-family="Helvetica,sans-Serif" font-size="10.00">fourp</text>
</a>
</g>
</g>
<!-- Node15&#45;&gt;Node20 -->
<g id="edge24_Node000015_Node000020" class="edge">
<title>Node15&#45;&gt;Node20</title>
<g id="a_edge24_Node000015_Node000020"><a xlink:title=" ">
<path fill="none" stroke="#63b8ff" d="M328.19,-124.39C356.41,-127.75 404.1,-133.43 434.94,-137.1"/>
<polygon fill="#63b8ff" stroke="#63b8ff" points="434.39,-140.56 444.74,-138.27 435.22,-133.61 434.39,-140.56"/>
</a>
</g>
</g>
<!-- Node21 -->
<g id="Node000021" class="node">
<title>Node21</title>
<g id="a_Node000021"><a xlink:href="../../df/d2d/greenf_8f90.html#acd9d25905cc799c9fcd4d08a3cbb1e65" target="_top" xlink:title="Compute the regularized evaluation of the Green&#39;s function and the source term.">
<polygon fill="white" stroke="#666666" points="487,-187.25 444,-187.25 444,-168 487,-168 487,-187.25"/>
<text text-anchor="middle" x="465.5" y="-173.75" font-family="Helvetica,sans-Serif" font-size="10.00">greenf</text>
</a>
</g>
</g>
<!-- Node15&#45;&gt;Node21 -->
<g id="edge26_Node000015_Node000021" class="edge">
<title>Node15&#45;&gt;Node21</title>
<g id="a_edge26_Node000015_Node000021"><a xlink:title=" ">
<path fill="none" stroke="#63b8ff" d="M327.32,-131.62C346.03,-139.78 373.58,-151.28 398.25,-159.62 409.39,-163.39 421.8,-166.93 432.83,-169.86"/>
<polygon fill="#63b8ff" stroke="#63b8ff" points="431.69,-173.18 442.25,-172.29 433.44,-166.4 431.69,-173.18"/>
</a>
</g>
</g>
<!-- Node16&#45;&gt;Node13 -->
<g id="edge21_Node000016_Node000013" class="edge">
<title>Node16&#45;&gt;Node13</title>
<g id="a_edge21_Node000016_Node000013"><a xlink:title=" ">
<path fill="none" stroke="#63b8ff" d="M486.47,-29.6C500.42,-31.76 518.94,-36.26 532.75,-45.62 575.49,-74.6 607.22,-128.13 622.27,-157.33"/>
<polygon fill="#63b8ff" stroke="#63b8ff" points="619.1,-158.82 626.7,-166.21 625.36,-155.7 619.1,-158.82"/>
</a>
</g>
</g>
<!-- Node17 -->
<g id="Node000017" class="node">
<title>Node17</title>
<g id="a_Node000017"><a xlink:href="../../df/df3/analysum_8f90.html#aa51b1a5786e7b5719fe2ca679efc66b0" target="_top" xlink:title="Compute the (m=0 or n=0) part of the DFT of the analytical Fourier transforms of the equivalently&#45;sin...">
<polygon fill="white" stroke="#666666" points="661.62,-56.25 604.38,-56.25 604.38,-37 661.62,-37 661.62,-56.25"/>
<text text-anchor="middle" x="633" y="-42.75" font-family="Helvetica,sans-Serif" font-size="10.00">analysum</text>
</a>
</g>
</g>
<!-- Node16&#45;&gt;Node17 -->
<g id="edge19_Node000016_Node000017" class="edge">
<title>Node16&#45;&gt;Node17</title>
<g id="a_edge19_Node000016_Node000017"><a xlink:title=" ">
<path fill="none" stroke="#63b8ff" d="M486.46,-29.92C512.69,-32.93 559.32,-38.28 592.74,-42.12"/>
<polygon fill="#63b8ff" stroke="#63b8ff" points="592.11,-45.57 602.45,-43.23 592.91,-38.61 592.11,-45.57"/>
</a>
</g>
</g>
<!-- Node18 -->
<g id="Node000018" class="node">
<title>Node18</title>
<g id="a_Node000018"><a xlink:href="../../d1/d90/analysum2_8f90.html#a47a0d185131a197c6fc62ee5d68d62fb" target="_top" xlink:title="Compute the (m&gt;0 and n&gt;0) part of the DFT of the analytical Fourier transforms of the equivalently&#45;si...">
<polygon fill="white" stroke="#666666" points="664.25,-19.25 601.75,-19.25 601.75,0 664.25,0 664.25,-19.25"/>
<text text-anchor="middle" x="633" y="-5.75" font-family="Helvetica,sans-Serif" font-size="10.00">analysum2</text>
</a>
</g>
</g>
<!-- Node16&#45;&gt;Node18 -->
<g id="edge20_Node000016_Node000018" class="edge">
<title>Node16&#45;&gt;Node18</title>
<g id="a_edge20_Node000016_Node000018"><a xlink:title=" ">
<path fill="none" stroke="#63b8ff" d="M486.46,-25.45C512,-22.68 556.87,-17.8 590.07,-14.19"/>
<polygon fill="#63b8ff" stroke="#63b8ff" points="590.2,-17.69 599.76,-13.13 589.44,-10.73 590.2,-17.69"/>
</a>
</g>
</g>
<!-- Node19&#45;&gt;Node13 -->
<g id="edge23_Node000019_Node000013" class="edge">
<title>Node19&#45;&gt;Node13</title>
<g id="a_edge23_Node000019_Node000013"><a xlink:title=" ">
<path fill="none" stroke="#63b8ff" d="M483.35,-68.79C497.23,-72.67 517.11,-79.26 532.75,-88.62 565.5,-108.22 597.23,-139.5 615.68,-159.28"/>
<polygon fill="#63b8ff" stroke="#63b8ff" points="613.04,-161.58 622.37,-166.6 618.21,-156.86 613.04,-161.58"/>
</a>
</g>
</g>
<!-- Node20&#45;&gt;Node13 -->
<g id="edge25_Node000020_Node000013" class="edge">
<title>Node20&#45;&gt;Node13</title>
<g id="a_edge25_Node000020_Node000013"><a xlink:title=" ">
<path fill="none" stroke="#63b8ff" d="M484.84,-144.73C506.68,-149.61 544.16,-157.99 575.83,-165.07"/>
<polygon fill="#63b8ff" stroke="#63b8ff" points="574.76,-168.41 585.28,-167.18 576.29,-161.58 574.76,-168.41"/>
</a>
</g>
</g>
<!-- Node23&#45;&gt;Node13 -->
<g id="edge30_Node000023_Node000013" class="edge">
<title>Node23&#45;&gt;Node13</title>
<g id="a_edge30_Node000023_Node000013"><a xlink:title=" ">
<path fill="none" stroke="#63b8ff" d="M328.48,-437.08C373.19,-436.73 471.57,-429.95 532.75,-380.62 592.25,-332.65 618.67,-240.11 627.9,-198.63"/>
<polygon fill="#63b8ff" stroke="#63b8ff" points="631.3,-199.49 629.92,-188.99 624.45,-198.06 631.3,-199.49"/>
</a>
</g>
</g>
</g>
</svg>

<g id="navigator" transform="translate(0 0)" fill="#404254">
  <rect fill="#f2f5e9" fill-opacity="0.5" stroke="#606060" stroke-width=".5" x="0" y="0" width="60" height="60"/>
  <use id="zoomplus" xlink:href="#zoomPlus" x="17" y="9" onmousedown="handleZoom(evt,'in')"/>
  <use id="zoomminus" xlink:href="#zoomMin" x="42" y="9" onmousedown="handleZoom(evt,'out')"/>
  <use id="reset" xlink:href="#resetDef" x="30" y="36" onmousedown="handleReset()"/>
   <use id="arrowup" xlink:href="#arrowUp" x="0" y="0" onmousedown="handlePan(0,-1)"/>
  <use id="arrowright" xlink:href="#arrowRight" x="0" y="0" onmousedown="handlePan(1,0)"/>
  <use id="arrowdown" xlink:href="#arrowDown" x="0" y="0" onmousedown="handlePan(0,1)"/>
  <use id="arrowleft" xlink:href="#arrowLeft" x="0" y="0" onmousedown="handlePan(-1,0)"/>
</g>
<svg viewBox="0 0 15 15" width="100%" height="30px" preserveAspectRatio="xMaxYMin meet">
 <g id="arrow_out" transform="scale(0.3 0.3)">
  <a xlink:href="nestor__main_8f90_a1b0fd336e80285a96925333daa2ee8f0_cgraph_org.svg" target="_base">
   <rect id="button" ry="5" rx="5" y="6" x="6" height="38" width="38"
        fill="#f2f5e9" fill-opacity="0.5" stroke="#606060" stroke-width="1.0"/>
   <path id="arrow"
     d="M 11.500037,31.436501 C 11.940474,20.09759 22.043105,11.32322 32.158766,21.979434 L 37.068811,17.246167 C 37.068811,17.246167 37.088388,32 37.088388,32 L 22.160133,31.978069 C 22.160133,31.978069 26.997745,27.140456 26.997745,27.140456 C 18.528582,18.264221 13.291696,25.230495 11.500037,31.436501 z"
     style="fill:#404040;"/>
  </a>
 </g>
</svg>

<style type='text/css'>
<![CDATA[
[data-mouse-over-selected='false'] { opacity: 0.7; }
[data-mouse-over-selected='true']  { opacity: 1.0; }
]]>
</style>
<script type="application/ecmascript"><![CDATA[
document.addEventListener('DOMContentLoaded', (event) => {
  highlightEdges();
  highlightAdjacentNodes();
});
]]></script>
</svg>
