<?xml version="1.0" encoding="UTF-8" standalone="no"?>
<!DOCTYPE svg PUBLIC "-//W3C//DTD SVG 1.1//EN"
 "http://www.w3.org/Graphics/SVG/1.1/DTD/svg11.dtd">
<!-- Generated by graphviz version 2.49.3 (20211215.1918)
 -->
<!-- Title: nestor Pages: 1 -->
<svg width="698pt" height="484pt"
 viewBox="0.00 0.00 698.00 484.00" xmlns="http://www.w3.org/2000/svg" xmlns:xlink="http://www.w3.org/1999/xlink">
<g id="graph0" class="graph" transform="scale(1 1) rotate(0) translate(4 480)">
<title>nestor</title>
<polygon fill="white" stroke="transparent" points="-4,4 -4,-480 694,-480 694,4 -4,4"/>
<!-- Node1 -->
<g id="node1" class="node">
<title>Node1</title>
<g id="a_node1"><a xlink:title="Main program of stand&#45;alone version of NESTOR.">
<polygon fill="#bfbfbf" stroke="black" points="0,-296.5 0,-315.5 44,-315.5 44,-296.5 0,-296.5"/>
<text text-anchor="middle" x="22" y="-303.5" font-family="Helvetica,sans-Serif" font-size="10.00">nestor</text>
</a>
</g>
</g>
<!-- Node2 -->
<g id="node2" class="node">
<title>Node2</title>
<g id="a_node2"><a xlink:href="../../dd/df2/namespacevacmod.html#a30b88ea77408f43e1bedf2c11c0f8d1a" target="_top" xlink:title=" ">
<polygon fill="white" stroke="black" points="84.5,-403.5 84.5,-422.5 206.5,-422.5 206.5,-403.5 84.5,-403.5"/>
<text text-anchor="middle" x="145.5" y="-410.5" font-family="Helvetica,sans-Serif" font-size="10.00">vacmod::allocate_nestor</text>
</a>
</g>
</g>
<!-- Node1&#45;&gt;Node2 -->
<g id="edge1" class="edge">
<title>Node1&#45;&gt;Node2</title>
<path fill="none" stroke="midnightblue" d="M26.54,-315.55C33.75,-333.64 51.85,-372.98 80,-394 82.62,-395.96 85.44,-397.71 88.38,-399.29"/>
<polygon fill="midnightblue" stroke="midnightblue" points="86.95,-402.48 97.5,-403.49 89.88,-396.13 86.95,-402.48"/>
</g>
<!-- Node3 -->
<g id="node3" class="node">
<title>Node3</title>
<g id="a_node3"><a xlink:href="../../dd/df2/namespacevacmod.html#ade3824460b4eb61403c35f6abe95cd89" target="_top" xlink:title=" ">
<polygon fill="white" stroke="black" points="80,-365.5 80,-384.5 211,-384.5 211,-365.5 80,-365.5"/>
<text text-anchor="middle" x="145.5" y="-372.5" font-family="Helvetica,sans-Serif" font-size="10.00">vacmod::free_mem_nestor</text>
</a>
</g>
</g>
<!-- Node1&#45;&gt;Node3 -->
<g id="edge2" class="edge">
<title>Node1&#45;&gt;Node3</title>
<path fill="none" stroke="midnightblue" d="M31.71,-315.88C42.13,-327.13 60.63,-345.33 80,-356 83.96,-358.18 88.2,-360.14 92.54,-361.89"/>
<polygon fill="midnightblue" stroke="midnightblue" points="91.55,-365.25 102.15,-365.39 93.95,-358.67 91.55,-365.25"/>
</g>
<!-- Node4 -->
<g id="node4" class="node">
<title>Node4</title>
<g id="a_node4"><a xlink:href="../../db/dc0/namespacenestor__io.html#a84f85fce5232fbd8ee9eca2f2b5adb0c" target="_top" xlink:title=" ">
<polygon fill="white" stroke="black" points="89.5,-316 89.5,-346 201.5,-346 201.5,-316 89.5,-316"/>
<text text-anchor="start" x="97.5" y="-334" font-family="Helvetica,sans-Serif" font-size="10.00">nestor_io::read_nestor</text>
<text text-anchor="middle" x="145.5" y="-323" font-family="Helvetica,sans-Serif" font-size="10.00">_inputs</text>
</a>
</g>
</g>
<!-- Node1&#45;&gt;Node4 -->
<g id="edge3" class="edge">
<title>Node1&#45;&gt;Node4</title>
<path fill="none" stroke="midnightblue" d="M44.16,-310.35C54.19,-312.42 66.76,-315 79.58,-317.64"/>
<polygon fill="midnightblue" stroke="midnightblue" points="78.89,-321.07 89.39,-319.66 80.3,-314.22 78.89,-321.07"/>
</g>
<!-- Node8 -->
<g id="node8" class="node">
<title>Node8</title>
<g id="a_node8"><a xlink:href="../../d2/d04/namespacevacmod0.html#a4be777018e003400355a27b190d7d39a" target="_top" xlink:title=" ">
<polygon fill="white" stroke="black" points="92,-267 92,-297 199,-297 199,-267 92,-267"/>
<text text-anchor="start" x="100" y="-285" font-family="Helvetica,sans-Serif" font-size="10.00">vacmod0::set_nestor</text>
<text text-anchor="middle" x="145.5" y="-274" font-family="Helvetica,sans-Serif" font-size="10.00">_sizes</text>
</a>
</g>
</g>
<!-- Node1&#45;&gt;Node8 -->
<g id="edge7" class="edge">
<title>Node1&#45;&gt;Node8</title>
<path fill="none" stroke="midnightblue" d="M44.16,-301.82C54.83,-299.71 68.39,-297.03 82.05,-294.34"/>
<polygon fill="midnightblue" stroke="midnightblue" points="82.85,-297.74 91.99,-292.37 81.5,-290.88 82.85,-297.74"/>
</g>
<!-- Node9 -->
<g id="node9" class="node">
<title>Node9</title>
<g id="a_node9"><a xlink:href="../../dd/d6d/vacuum_8f90.html#a0acbc18d2ab7664835d797b42ce49a35" target="_top" xlink:title="Compute the vacuum contribution to the free&#45;boundary energy functional.">
<polygon fill="white" stroke="black" points="120,-228.5 120,-247.5 171,-247.5 171,-228.5 120,-228.5"/>
<text text-anchor="middle" x="145.5" y="-235.5" font-family="Helvetica,sans-Serif" font-size="10.00">vacuum</text>
</a>
</g>
</g>
<!-- Node1&#45;&gt;Node9 -->
<g id="edge8" class="edge">
<title>Node1&#45;&gt;Node9</title>
<path fill="none" stroke="midnightblue" d="M31.75,-296.32C42.21,-285.31 60.74,-267.48 80,-257 89.31,-251.94 100.12,-248.08 110.2,-245.2"/>
<polygon fill="midnightblue" stroke="midnightblue" points="111.17,-248.57 119.96,-242.65 109.4,-241.79 111.17,-248.57"/>
</g>
<!-- Node24 -->
<g id="node24" class="node">
<title>Node24</title>
<g id="a_node24"><a xlink:href="../../db/dc0/namespacenestor__io.html#a288cc8f23cbfe1484ec6815381cc25c8" target="_top" xlink:title=" ">
<polygon fill="white" stroke="black" points="88.5,-179 88.5,-209 202.5,-209 202.5,-179 88.5,-179"/>
<text text-anchor="start" x="96.5" y="-197" font-family="Helvetica,sans-Serif" font-size="10.00">nestor_io::write_nestor</text>
<text text-anchor="middle" x="145.5" y="-186" font-family="Helvetica,sans-Serif" font-size="10.00">_outputs</text>
</a>
</g>
</g>
<!-- Node1&#45;&gt;Node24 -->
<g id="edge29" class="edge">
<title>Node1&#45;&gt;Node24</title>
<path fill="none" stroke="midnightblue" d="M26.85,-296.5C34.46,-278.84 53.05,-240.81 80,-219 82.23,-217.19 84.61,-215.51 87.09,-213.93"/>
<polygon fill="midnightblue" stroke="midnightblue" points="88.83,-216.97 95.82,-209.01 85.39,-210.87 88.83,-216.97"/>
</g>
<!-- Node5 -->
<g id="node5" class="node">
<title>Node5</title>
<g id="a_node5"><a xlink:href="../../d1/d41/namespacemgrid__mod.html#a202373a45f0c5b1f81076da92a1123d0" target="_top" xlink:title=" ">
<polygon fill="white" stroke="black" points="247,-418.5 247,-437.5 364,-437.5 364,-418.5 247,-418.5"/>
<text text-anchor="middle" x="305.5" y="-425.5" font-family="Helvetica,sans-Serif" font-size="10.00">mgrid_mod::read_mgrid</text>
</a>
</g>
</g>
<!-- Node4&#45;&gt;Node5 -->
<g id="edge4" class="edge">
<title>Node4&#45;&gt;Node5</title>
<path fill="none" stroke="midnightblue" d="M190.31,-346.02C197.38,-348.99 204.51,-352.35 211,-356 239.33,-371.96 268.47,-395.8 286.52,-411.62"/>
<polygon fill="midnightblue" stroke="midnightblue" points="284.2,-414.23 294,-418.26 288.85,-409 284.2,-414.23"/>
</g>
<!-- Node6 -->
<g id="node6" class="node">
<title>Node6</title>
<g id="a_node6"><a xlink:href="../../d1/d41/namespacemgrid__mod.html#acadb9c6d09345e3d8f91f5800ad7d452" target="_top" xlink:title=" ">
<polygon fill="white" stroke="black" points="400,-418.5 400,-437.5 525,-437.5 525,-418.5 400,-418.5"/>
<text text-anchor="middle" x="462.5" y="-425.5" font-family="Helvetica,sans-Serif" font-size="10.00">mgrid_mod::assign_bptrs</text>
</a>
</g>
</g>
<!-- Node5&#45;&gt;Node6 -->
<g id="edge5" class="edge">
<title>Node5&#45;&gt;Node6</title>
<path fill="none" stroke="midnightblue" d="M364.22,-428C372.57,-428 381.25,-428 389.83,-428"/>
<polygon fill="midnightblue" stroke="midnightblue" points="389.84,-431.5 399.84,-428 389.84,-424.5 389.84,-431.5"/>
</g>
<!-- Node7 -->
<g id="node7" class="node">
<title>Node7</title>
<g id="a_node7"><a xlink:href="../../d1/d41/namespacemgrid__mod.html#aa4818ade7a169c68f8b7c3a225fd287e" target="_top" xlink:title=" ">
<polygon fill="white" stroke="black" points="404.5,-456.5 404.5,-475.5 520.5,-475.5 520.5,-456.5 404.5,-456.5"/>
<text text-anchor="middle" x="462.5" y="-463.5" font-family="Helvetica,sans-Serif" font-size="10.00">mgrid_mod::sum_bfield</text>
</a>
</g>
</g>
<!-- Node5&#45;&gt;Node7 -->
<g id="edge6" class="edge">
<title>Node5&#45;&gt;Node7</title>
<path fill="none" stroke="midnightblue" d="M345.61,-437.59C365.97,-442.58 391.07,-448.73 412.69,-454.03"/>
<polygon fill="midnightblue" stroke="midnightblue" points="412.12,-457.5 422.67,-456.48 413.79,-450.7 412.12,-457.5"/>
</g>
<!-- Node10 -->
<g id="node10" class="node">
<title>Node10</title>
<g id="a_node10"><a xlink:href="../../db/d3d/bextern_8f90.html#a90228cc5f358147ae7f59953d6f9cced" target="_top" xlink:title="Compute the total magnetic field due to external coils and the net toroidal plasma current.">
<polygon fill="white" stroke="black" points="281.5,-285.5 281.5,-304.5 329.5,-304.5 329.5,-285.5 281.5,-285.5"/>
<text text-anchor="middle" x="305.5" y="-292.5" font-family="Helvetica,sans-Serif" font-size="10.00">bextern</text>
</a>
</g>
</g>
<!-- Node9&#45;&gt;Node10 -->
<g id="edge9" class="edge">
<title>Node9&#45;&gt;Node10</title>
<path fill="none" stroke="midnightblue" d="M171.19,-244.65C183.28,-248.06 198,-252.45 211,-257 232.07,-264.37 255.33,-273.81 273.38,-281.44"/>
<polygon fill="midnightblue" stroke="midnightblue" points="272.25,-284.77 282.82,-285.47 275,-278.33 272.25,-284.77"/>
</g>
<!-- Node13 -->
<g id="node13" class="node">
<title>Node13</title>
<g id="a_node13"><a xlink:href="../../d8/dfd/namespacedbgout.html#acdd1612a38e44b6469dc03d9d1c6ceed" target="_top" xlink:title="check if any output is desired for the current iteration check if the given context should be openend...">
<polygon fill="white" stroke="black" points="561,-209.5 561,-228.5 690,-228.5 690,-209.5 561,-209.5"/>
<text text-anchor="middle" x="625.5" y="-216.5" font-family="Helvetica,sans-Serif" font-size="10.00">dbgout::open_dbg_context</text>
</a>
</g>
</g>
<!-- Node9&#45;&gt;Node13 -->
<g id="edge14" class="edge">
<title>Node9&#45;&gt;Node13</title>
<path fill="none" stroke="midnightblue" d="M171.3,-237.2C231.78,-235.21 391.64,-229.82 525,-224 533.32,-223.64 542.03,-223.23 550.69,-222.82"/>
<polygon fill="midnightblue" stroke="midnightblue" points="550.99,-226.31 560.81,-222.33 550.65,-219.32 550.99,-226.31"/>
</g>
<!-- Node14 -->
<g id="node14" class="node">
<title>Node14</title>
<g id="a_node14"><a xlink:href="../../dd/d98/precal_8f90.html#a0dae73e848a4757092d7e9786d073d3d" target="_top" xlink:title="Pre&#45;compute constant terms required for NESTOR.">
<polygon fill="white" stroke="black" points="284,-190.5 284,-209.5 327,-209.5 327,-190.5 284,-190.5"/>
<text text-anchor="middle" x="305.5" y="-197.5" font-family="Helvetica,sans-Serif" font-size="10.00">precal</text>
</a>
</g>
</g>
<!-- Node9&#45;&gt;Node14 -->
<g id="edge15" class="edge">
<title>Node9&#45;&gt;Node14</title>
<path fill="none" stroke="midnightblue" d="M171.19,-232.06C198.83,-225.42 243.66,-214.63 273.6,-207.43"/>
<polygon fill="midnightblue" stroke="midnightblue" points="274.61,-210.79 283.52,-205.05 272.98,-203.98 274.61,-210.79"/>
</g>
<!-- Node15 -->
<g id="node15" class="node">
<title>Node15</title>
<g id="a_node15"><a xlink:href="../../d0/d19/scalpot_8f90.html#afb9e58849c5a27e486bdf4106f8bb84e" target="_top" xlink:title="Compute all required terms for solving for the scalar magnetic potential.">
<polygon fill="white" stroke="black" points="281.5,-114.5 281.5,-133.5 329.5,-133.5 329.5,-114.5 281.5,-114.5"/>
<text text-anchor="middle" x="305.5" y="-121.5" font-family="Helvetica,sans-Serif" font-size="10.00">scalpot</text>
</a>
</g>
</g>
<!-- Node9&#45;&gt;Node15 -->
<g id="edge17" class="edge">
<title>Node9&#45;&gt;Node15</title>
<path fill="none" stroke="midnightblue" d="M171.3,-233.37C183.83,-230.29 198.91,-225.41 211,-218 230.56,-206.01 230.85,-197.3 247,-181 260.5,-167.37 275.95,-152.07 287.44,-140.76"/>
<polygon fill="midnightblue" stroke="midnightblue" points="290.01,-143.14 294.68,-133.63 285.1,-138.15 290.01,-143.14"/>
</g>
<!-- Node22 -->
<g id="node22" class="node">
<title>Node22</title>
<g id="a_node22"><a xlink:href="../../d7/d39/solver_8f90.html#a1e815013ed24a9dddc80410103f4a220" target="_top" xlink:title="Solve a linear system of equations using dgesv.">
<polygon fill="white" stroke="black" points="284,-76.5 284,-95.5 327,-95.5 327,-76.5 284,-76.5"/>
<text text-anchor="middle" x="305.5" y="-83.5" font-family="Helvetica,sans-Serif" font-size="10.00">solver</text>
</a>
</g>
</g>
<!-- Node9&#45;&gt;Node22 -->
<g id="edge26" class="edge">
<title>Node9&#45;&gt;Node22</title>
<path fill="none" stroke="midnightblue" d="M171.08,-235.87C184.47,-233.49 200.43,-228.49 211,-218 248.42,-180.87 209.93,-142.47 247,-105 254.24,-97.68 264.36,-93.18 274.1,-90.41"/>
<polygon fill="midnightblue" stroke="midnightblue" points="275.02,-93.79 283.97,-88.11 273.43,-86.97 275.02,-93.79"/>
</g>
<!-- Node23 -->
<g id="node23" class="node">
<title>Node23</title>
<g id="a_node23"><a xlink:href="../../d6/d03/surface_8f90.html#ad7b6446e720a806f41f10dd1eb0b6f88" target="_top" xlink:title="Evaluate the geometry of the LCFS and tangential derivatives.">
<polygon fill="white" stroke="black" points="281,-342.5 281,-361.5 330,-361.5 330,-342.5 281,-342.5"/>
<text text-anchor="middle" x="305.5" y="-349.5" font-family="Helvetica,sans-Serif" font-size="10.00">surface</text>
</a>
</g>
</g>
<!-- Node9&#45;&gt;Node23 -->
<g id="edge27" class="edge">
<title>Node9&#45;&gt;Node23</title>
<path fill="none" stroke="midnightblue" d="M171.05,-240.99C183.96,-243.54 199.45,-248.27 211,-257 234.91,-275.06 226.03,-292.6 247,-314 255.81,-322.99 267.08,-331.01 277.32,-337.34"/>
<polygon fill="midnightblue" stroke="midnightblue" points="275.56,-340.36 285.95,-342.44 279.12,-334.34 275.56,-340.36"/>
</g>
<!-- Node11 -->
<g id="node11" class="node">
<title>Node11</title>
<g id="a_node11"><a xlink:href="../../d6/dc7/becoil_8f90.html#a449b054fb88bdb4cdf73ef8939654bfb" target="_top" xlink:title="Compute the cylindrical components of the magnetic field due to external coils. by bi&#45;linear interpol...">
<polygon fill="white" stroke="black" points="441.5,-342.5 441.5,-361.5 483.5,-361.5 483.5,-342.5 441.5,-342.5"/>
<text text-anchor="middle" x="462.5" y="-349.5" font-family="Helvetica,sans-Serif" font-size="10.00">becoil</text>
</a>
</g>
</g>
<!-- Node10&#45;&gt;Node11 -->
<g id="edge10" class="edge">
<title>Node10&#45;&gt;Node11</title>
<path fill="none" stroke="midnightblue" d="M328.58,-304.61C347.4,-312.64 375.25,-324.16 400,-333 410.26,-336.66 421.63,-340.29 431.77,-343.38"/>
<polygon fill="midnightblue" stroke="midnightblue" points="430.83,-346.75 441.41,-346.27 432.84,-340.05 430.83,-346.75"/>
</g>
<!-- Node12 -->
<g id="node12" class="node">
<title>Node12</title>
<g id="a_node12"><a xlink:href="../../d9/dda/belicu_8f90.html#a53e6f162ca96069b8d93e131069ddf5d" target="_top" xlink:title="Magnetic field due to net toroidal current modeled by a filament along the magnetic axis.">
<polygon fill="white" stroke="black" points="441.5,-304.5 441.5,-323.5 483.5,-323.5 483.5,-304.5 441.5,-304.5"/>
<text text-anchor="middle" x="462.5" y="-311.5" font-family="Helvetica,sans-Serif" font-size="10.00">belicu</text>
</a>
</g>
</g>
<!-- Node10&#45;&gt;Node12 -->
<g id="edge11" class="edge">
<title>Node10&#45;&gt;Node12</title>
<path fill="none" stroke="midnightblue" d="M329.71,-297.84C356.63,-301.15 401.13,-306.6 430.88,-310.25"/>
<polygon fill="midnightblue" stroke="midnightblue" points="430.76,-313.76 441.11,-311.5 431.61,-306.81 430.76,-313.76"/>
</g>
<!-- Node10&#45;&gt;Node13 -->
<g id="edge12" class="edge">
<title>Node10&#45;&gt;Node13</title>
<path fill="none" stroke="midnightblue" d="M329.68,-291.42C369.82,-285.02 454.71,-270.49 525,-252 546.48,-246.35 570.1,-238.58 588.93,-232.01"/>
<polygon fill="midnightblue" stroke="midnightblue" points="590.32,-235.23 598.58,-228.59 587.99,-228.63 590.32,-235.23"/>
</g>
<!-- Node13&#45;&gt;Node13 -->
<g id="edge13" class="edge">
<title>Node13&#45;&gt;Node13</title>
<path fill="none" stroke="midnightblue" d="M600.53,-228.76C588.38,-237.57 596.71,-247 625.5,-247 644.85,-247 654.95,-242.74 655.81,-237.27"/>
<polygon fill="midnightblue" stroke="midnightblue" points="658.75,-235.37 650.47,-228.76 652.82,-239.09 658.75,-235.37"/>
</g>
<!-- Node14&#45;&gt;Node13 -->
<g id="edge16" class="edge">
<title>Node14&#45;&gt;Node13</title>
<path fill="none" stroke="midnightblue" d="M327.36,-201.25C371.9,-203.91 478.13,-210.25 550.72,-214.59"/>
<polygon fill="midnightblue" stroke="midnightblue" points="550.54,-218.09 560.73,-215.19 550.96,-211.1 550.54,-218.09"/>
</g>
<!-- Node15&#45;&gt;Node13 -->
<g id="edge25" class="edge">
<title>Node15&#45;&gt;Node13</title>
<path fill="none" stroke="midnightblue" d="M329.74,-117.92C348.54,-113.34 375.77,-107.44 400,-105 455.28,-99.44 474.42,-82.01 525,-105 568.24,-124.65 600.03,-173.41 614.98,-200.35"/>
<polygon fill="midnightblue" stroke="midnightblue" points="611.91,-202.04 619.71,-209.2 618.08,-198.73 611.91,-202.04"/>
</g>
<!-- Node16 -->
<g id="node16" class="node">
<title>Node16</title>
<g id="a_node16"><a xlink:href="../../da/d73/analyt_8f90.html#a60edcf4884aa60f6d96c258a97255756" target="_top" xlink:title="Compute the analytical&#45;and&#45;numerical 4D Fourier integrals over the equivalently&#45;singular functions.">
<polygon fill="white" stroke="black" points="441.5,-38.5 441.5,-57.5 483.5,-57.5 483.5,-38.5 441.5,-38.5"/>
<text text-anchor="middle" x="462.5" y="-45.5" font-family="Helvetica,sans-Serif" font-size="10.00">analyt</text>
</a>
</g>
</g>
<!-- Node15&#45;&gt;Node16 -->
<g id="edge18" class="edge">
<title>Node15&#45;&gt;Node16</title>
<path fill="none" stroke="midnightblue" d="M329.56,-118.78C340.47,-115.73 353.39,-111.22 364,-105 382.72,-94.02 381.58,-83.47 400,-72 409.73,-65.94 421.25,-60.95 431.67,-57.12"/>
<polygon fill="midnightblue" stroke="midnightblue" points="432.93,-60.39 441.23,-53.81 430.64,-53.78 432.93,-60.39"/>
</g>
<!-- Node19 -->
<g id="node19" class="node">
<title>Node19</title>
<g id="a_node19"><a xlink:href="../../d6/d77/fouri_8f90.html#a0f902f8d584a395f9db7175079d273c7" target="_top" xlink:title="Compute Fourier integrals and build amatrix.">
<polygon fill="white" stroke="black" points="445,-0.5 445,-19.5 480,-19.5 480,-0.5 445,-0.5"/>
<text text-anchor="middle" x="462.5" y="-7.5" font-family="Helvetica,sans-Serif" font-size="10.00">fouri</text>
</a>
</g>
</g>
<!-- Node15&#45;&gt;Node19 -->
<g id="edge22" class="edge">
<title>Node15&#45;&gt;Node19</title>
<path fill="none" stroke="midnightblue" d="M329.65,-120.75C341.1,-118.13 354.47,-113.42 364,-105 392.01,-80.25 371.75,-53.48 400,-29 409.73,-20.57 423.17,-15.88 434.99,-13.27"/>
<polygon fill="midnightblue" stroke="midnightblue" points="435.64,-16.71 444.84,-11.47 434.38,-9.82 435.64,-16.71"/>
</g>
<!-- Node20 -->
<g id="node20" class="node">
<title>Node20</title>
<g id="a_node20"><a xlink:href="../../d0/d1c/fourp_8f90.html#add725dd420251115fd60182dc992503c" target="_top" xlink:title="Perform Fourier integrals of Green&#39;s function kernel.">
<polygon fill="white" stroke="black" points="443.5,-152.5 443.5,-171.5 481.5,-171.5 481.5,-152.5 443.5,-152.5"/>
<text text-anchor="middle" x="462.5" y="-159.5" font-family="Helvetica,sans-Serif" font-size="10.00">fourp</text>
</a>
</g>
</g>
<!-- Node15&#45;&gt;Node20 -->
<g id="edge23" class="edge">
<title>Node15&#45;&gt;Node20</title>
<path fill="none" stroke="midnightblue" d="M329.71,-129.69C357.51,-136.5 404.04,-147.91 433.72,-155.19"/>
<polygon fill="midnightblue" stroke="midnightblue" points="432.92,-158.6 443.46,-157.58 434.58,-151.8 432.92,-158.6"/>
</g>
<!-- Node21 -->
<g id="node21" class="node">
<title>Node21</title>
<g id="a_node21"><a xlink:href="../../df/d2d/greenf_8f90.html#acd9d25905cc799c9fcd4d08a3cbb1e65" target="_top" xlink:title="Compute the regularized evaluation of the Green&#39;s function and the source term.">
<polygon fill="white" stroke="black" points="440.5,-114.5 440.5,-133.5 484.5,-133.5 484.5,-114.5 440.5,-114.5"/>
<text text-anchor="middle" x="462.5" y="-121.5" font-family="Helvetica,sans-Serif" font-size="10.00">greenf</text>
</a>
</g>
</g>
<!-- Node15&#45;&gt;Node21 -->
<g id="edge24" class="edge">
<title>Node15&#45;&gt;Node21</title>
<path fill="none" stroke="midnightblue" d="M329.71,-124C356.33,-124 400.14,-124 429.87,-124"/>
<polygon fill="midnightblue" stroke="midnightblue" points="430.13,-127.5 440.13,-124 430.13,-120.5 430.13,-127.5"/>
</g>
<!-- Node16&#45;&gt;Node13 -->
<g id="edge21" class="edge">
<title>Node16&#45;&gt;Node13</title>
<path fill="none" stroke="midnightblue" d="M483.63,-52.55C496.47,-56.2 512.91,-62.34 525,-72 569.78,-107.77 602.01,-169.15 616.29,-200.05"/>
<polygon fill="midnightblue" stroke="midnightblue" points="613.15,-201.59 620.44,-209.28 619.53,-198.72 613.15,-201.59"/>
</g>
<!-- Node17 -->
<g id="node17" class="node">
<title>Node17</title>
<g id="a_node17"><a xlink:href="../../df/df3/analysum_8f90.html#aa51b1a5786e7b5719fe2ca679efc66b0" target="_top" xlink:title="Compute the (m=0 or n=0) part of the DFT of the analytical Fourier transforms of the equivalently&#45;sin...">
<polygon fill="white" stroke="black" points="596.5,-19.5 596.5,-38.5 654.5,-38.5 654.5,-19.5 596.5,-19.5"/>
<text text-anchor="middle" x="625.5" y="-26.5" font-family="Helvetica,sans-Serif" font-size="10.00">analysum</text>
</a>
</g>
</g>
<!-- Node16&#45;&gt;Node17 -->
<g id="edge19" class="edge">
<title>Node16&#45;&gt;Node17</title>
<path fill="none" stroke="midnightblue" d="M483.57,-45.63C509.2,-42.61 554.1,-37.31 586.34,-33.5"/>
<polygon fill="midnightblue" stroke="midnightblue" points="586.8,-36.97 596.32,-32.33 585.98,-30.02 586.8,-36.97"/>
</g>
<!-- Node18 -->
<g id="node18" class="node">
<title>Node18</title>
<g id="a_node18"><a xlink:href="../../d1/d90/analysum2_8f90.html#a47a0d185131a197c6fc62ee5d68d62fb" target="_top" xlink:title="Compute the (m&gt;0 and n&gt;0) part of the DFT of the analytical Fourier transforms of the equivalently&#45;si...">
<polygon fill="white" stroke="black" points="594,-57.5 594,-76.5 657,-76.5 657,-57.5 594,-57.5"/>
<text text-anchor="middle" x="625.5" y="-64.5" font-family="Helvetica,sans-Serif" font-size="10.00">analysum2</text>
</a>
</g>
</g>
<!-- Node16&#45;&gt;Node18 -->
<g id="edge20" class="edge">
<title>Node16&#45;&gt;Node18</title>
<path fill="none" stroke="midnightblue" d="M483.57,-50.37C508.59,-53.32 551.98,-58.44 584.02,-62.22"/>
<polygon fill="midnightblue" stroke="midnightblue" points="583.64,-65.7 593.99,-63.4 584.46,-58.75 583.64,-65.7"/>
</g>
<!-- Node23&#45;&gt;Node13 -->
<g id="edge28" class="edge">
<title>Node23&#45;&gt;Node13</title>
<path fill="none" stroke="midnightblue" d="M328.91,-361.61C370.41,-377.84 460.86,-405.68 525,-371 577.83,-342.44 607.11,-272.29 618.65,-238.2"/>
<polygon fill="midnightblue" stroke="midnightblue" points="622.04,-239.1 621.78,-228.51 615.38,-236.95 622.04,-239.1"/>
</g>
</g>
</svg>
