<?xml version="1.0" encoding="UTF-8" standalone="no"?>
<!DOCTYPE svg PUBLIC "-//W3C//DTD SVG 1.1//EN"
 "http://www.w3.org/Graphics/SVG/1.1/DTD/svg11.dtd">
<!-- Generated by graphviz version 8.0.1 (20230327.1645)
 -->
<!-- Title: nestor Pages: 1 -->
<svg width="708pt" height="550pt"
 viewBox="0.00 0.00 708.00 550.00" xmlns="http://www.w3.org/2000/svg" xmlns:xlink="http://www.w3.org/1999/xlink">
<g id="graph0" class="graph" transform="scale(1 1) rotate(0) translate(4 546)">
<title>nestor</title>
<!-- Node1 -->
<g id="node1" class="node">
<title>Node1</title>
<g id="a_node1"><a xlink:title="Main program of stand&#45;alone version of NESTOR.">
<polygon fill="#999999" stroke="#666666" points="44,-438 0,-438 0,-419 44,-419 44,-438"/>
<text text-anchor="middle" x="22" y="-426" font-family="Helvetica,sans-Serif" font-size="10.00">nestor</text>
</a>
</g>
</g>
<!-- Node2 -->
<g id="node2" class="node">
<title>Node2</title>
<g id="a_node2"><a xlink:href="../../dd/df2/namespacevacmod.html#a30b88ea77408f43e1bedf2c11c0f8d1a" target="_top" xlink:title=" ">
<polygon fill="white" stroke="#666666" points="206.5,-542 84.5,-542 84.5,-523 206.5,-523 206.5,-542"/>
<text text-anchor="middle" x="145.5" y="-530" font-family="Helvetica,sans-Serif" font-size="10.00">vacmod::allocate_nestor</text>
</a>
</g>
</g>
<!-- Node1&#45;&gt;Node2 -->
<g id="edge1" class="edge">
<title>Node1&#45;&gt;Node2</title>
<path fill="none" stroke="#63b8ff" d="M26.81,-438.43C34.22,-456.41 52.33,-494.38 80,-514.5 81.52,-515.6 83.1,-516.64 84.74,-517.62"/>
<polygon fill="#63b8ff" stroke="#63b8ff" points="83.05,-521.18 93.56,-522.52 86.18,-514.92 83.05,-521.18"/>
</g>
<!-- Node3 -->
<g id="node3" class="node">
<title>Node3</title>
<g id="a_node3"><a xlink:href="../../dd/df2/namespacevacmod.html#ade3824460b4eb61403c35f6abe95cd89" target="_top" xlink:title=" ">
<polygon fill="white" stroke="#666666" points="211,-505 80,-505 80,-486 211,-486 211,-505"/>
<text text-anchor="middle" x="145.5" y="-493" font-family="Helvetica,sans-Serif" font-size="10.00">vacmod::free_mem_nestor</text>
</a>
</g>
</g>
<!-- Node1&#45;&gt;Node3 -->
<g id="edge2" class="edge">
<title>Node1&#45;&gt;Node3</title>
<path fill="none" stroke="#63b8ff" d="M32.17,-438.36C42.73,-449.17 61.08,-466.33 80,-476.5 83.66,-478.46 87.54,-480.25 91.52,-481.87"/>
<polygon fill="#63b8ff" stroke="#63b8ff" points="89.93,-485.38 100.52,-485.55 92.35,-478.81 89.93,-485.38"/>
</g>
<!-- Node4 -->
<g id="node4" class="node">
<title>Node4</title>
<g id="a_node4"><a xlink:href="../../db/dc0/namespacenestor__io.html#a84f85fce5232fbd8ee9eca2f2b5adb0c" target="_top" xlink:title=" ">
<polygon fill="white" stroke="#666666" points="201.5,-467.5 89.5,-467.5 89.5,-437.5 201.5,-437.5 201.5,-467.5"/>
<text text-anchor="start" x="97.5" y="-455.5" font-family="Helvetica,sans-Serif" font-size="10.00">nestor_io::read_nestor</text>
<text text-anchor="middle" x="145.5" y="-444.5" font-family="Helvetica,sans-Serif" font-size="10.00">_inputs</text>
</a>
</g>
</g>
<!-- Node1&#45;&gt;Node4 -->
<g id="edge3" class="edge">
<title>Node1&#45;&gt;Node4</title>
<path fill="none" stroke="#63b8ff" d="M44.44,-432.74C54.18,-434.66 66.28,-437.05 78.67,-439.5"/>
<polygon fill="#63b8ff" stroke="#63b8ff" points="77.61,-443.05 88.1,-441.56 78.96,-436.18 77.61,-443.05"/>
</g>
<!-- Node8 -->
<g id="node8" class="node">
<title>Node8</title>
<g id="a_node8"><a xlink:href="../../d2/d04/namespacevacmod0.html#a4be777018e003400355a27b190d7d39a" target="_top" xlink:title=" ">
<polygon fill="white" stroke="#666666" points="199,-419.5 92,-419.5 92,-389.5 199,-389.5 199,-419.5"/>
<text text-anchor="start" x="100" y="-407.5" font-family="Helvetica,sans-Serif" font-size="10.00">vacmod0::set_nestor</text>
<text text-anchor="middle" x="145.5" y="-396.5" font-family="Helvetica,sans-Serif" font-size="10.00">_sizes</text>
</a>
</g>
</g>
<!-- Node1&#45;&gt;Node8 -->
<g id="edge7" class="edge">
<title>Node1&#45;&gt;Node8</title>
<path fill="none" stroke="#63b8ff" d="M44.44,-424.26C54.82,-422.22 67.87,-419.64 81.1,-417.02"/>
<polygon fill="#63b8ff" stroke="#63b8ff" points="81.56,-420.3 90.69,-414.93 80.2,-413.44 81.56,-420.3"/>
</g>
<!-- Node9 -->
<g id="node9" class="node">
<title>Node9</title>
<g id="a_node9"><a xlink:href="../../dd/d6d/vacuum_8f90.html#a0acbc18d2ab7664835d797b42ce49a35" target="_top" xlink:title="Compute the vacuum contribution to the free&#45;boundary energy functional.">
<polygon fill="white" stroke="#666666" points="171,-371 120,-371 120,-352 171,-352 171,-371"/>
<text text-anchor="middle" x="145.5" y="-359" font-family="Helvetica,sans-Serif" font-size="10.00">vacuum</text>
</a>
</g>
</g>
<!-- Node1&#45;&gt;Node9 -->
<g id="edge8" class="edge">
<title>Node1&#45;&gt;Node9</title>
<path fill="none" stroke="#63b8ff" d="M32.17,-418.64C42.73,-407.83 61.08,-390.67 80,-380.5 89.06,-375.63 99.53,-371.86 109.36,-369.01"/>
<polygon fill="#63b8ff" stroke="#63b8ff" points="109.91,-372.22 118.68,-366.27 108.11,-365.46 109.91,-372.22"/>
</g>
<!-- Node24 -->
<g id="node24" class="node">
<title>Node24</title>
<g id="a_node24"><a xlink:href="../../db/dc0/namespacenestor__io.html#a288cc8f23cbfe1484ec6815381cc25c8" target="_top" xlink:title=" ">
<polygon fill="white" stroke="#666666" points="202.5,-333.5 88.5,-333.5 88.5,-303.5 202.5,-303.5 202.5,-333.5"/>
<text text-anchor="start" x="96.5" y="-321.5" font-family="Helvetica,sans-Serif" font-size="10.00">nestor_io::write_nestor</text>
<text text-anchor="middle" x="145.5" y="-310.5" font-family="Helvetica,sans-Serif" font-size="10.00">_outputs</text>
</a>
</g>
</g>
<!-- Node1&#45;&gt;Node24 -->
<g id="edge31" class="edge">
<title>Node1&#45;&gt;Node24</title>
<path fill="none" stroke="#63b8ff" d="M27.16,-418.67C35.01,-401.2 53.64,-364.59 80,-343.5 81.87,-342.01 83.83,-340.59 85.87,-339.26"/>
<polygon fill="#63b8ff" stroke="#63b8ff" points="87.28,-341.91 94.2,-333.89 83.78,-335.85 87.28,-341.91"/>
</g>
<!-- Node5 -->
<g id="node5" class="node">
<title>Node5</title>
<g id="a_node5"><a xlink:href="../../d1/d41/namespacemgrid__mod.html#a202373a45f0c5b1f81076da92a1123d0" target="_top" xlink:title=" ">
<polygon fill="white" stroke="#666666" points="364,-483 247,-483 247,-464 364,-464 364,-483"/>
<text text-anchor="middle" x="305.5" y="-471" font-family="Helvetica,sans-Serif" font-size="10.00">mgrid_mod::read_mgrid</text>
</a>
</g>
</g>
<!-- Node4&#45;&gt;Node5 -->
<g id="edge4" class="edge">
<title>Node4&#45;&gt;Node5</title>
<path fill="none" stroke="#63b8ff" d="M201.76,-459.84C212.75,-461.31 224.42,-462.86 235.8,-464.37"/>
<polygon fill="#63b8ff" stroke="#63b8ff" points="235.21,-467.95 245.59,-465.8 236.14,-461.02 235.21,-467.95"/>
</g>
<!-- Node6 -->
<g id="node6" class="node">
<title>Node6</title>
<g id="a_node6"><a xlink:href="../../d0/d29/namespacesafe__open__mod.html#aab207f9769415b0cccd91260a8382eeb" target="_top" xlink:title=" ">
<polygon fill="white" stroke="#666666" points="535,-516 400,-516 400,-497 535,-497 535,-516"/>
<text text-anchor="middle" x="467.5" y="-504" font-family="Helvetica,sans-Serif" font-size="10.00">safe_open_mod::safe_open</text>
</a>
</g>
</g>
<!-- Node5&#45;&gt;Node6 -->
<g id="edge5" class="edge">
<title>Node5&#45;&gt;Node6</title>
<path fill="none" stroke="#63b8ff" d="M354.94,-483.49C371.54,-486.92 390.31,-490.79 407.65,-494.36"/>
<polygon fill="#63b8ff" stroke="#63b8ff" points="406.72,-497.95 417.23,-496.54 408.14,-491.1 406.72,-497.95"/>
</g>
<!-- Node7 -->
<g id="node7" class="node">
<title>Node7</title>
<g id="a_node7"><a xlink:href="../../d1/d41/namespacemgrid__mod.html#aa4818ade7a169c68f8b7c3a225fd287e" target="_top" xlink:title=" ">
<polygon fill="white" stroke="#666666" points="525.5,-479 409.5,-479 409.5,-460 525.5,-460 525.5,-479"/>
<text text-anchor="middle" x="467.5" y="-467" font-family="Helvetica,sans-Serif" font-size="10.00">mgrid_mod::sum_bfield</text>
</a>
</g>
</g>
<!-- Node5&#45;&gt;Node7 -->
<g id="edge6" class="edge">
<title>Node5&#45;&gt;Node7</title>
<path fill="none" stroke="#63b8ff" d="M364.26,-472.06C375.32,-471.78 386.99,-471.49 398.34,-471.2"/>
<polygon fill="#63b8ff" stroke="#63b8ff" points="398.18,-474.68 408.09,-470.94 398.01,-467.69 398.18,-474.68"/>
</g>
<!-- Node10 -->
<g id="node10" class="node">
<title>Node10</title>
<g id="a_node10"><a xlink:href="../../db/d3d/bextern_8f90.html#a90228cc5f358147ae7f59953d6f9cced" target="_top" xlink:title="Compute the total magnetic field due to external coils and the net toroidal plasma current.">
<polygon fill="white" stroke="#666666" points="329.5,-317 281.5,-317 281.5,-298 329.5,-298 329.5,-317"/>
<text text-anchor="middle" x="305.5" y="-305" font-family="Helvetica,sans-Serif" font-size="10.00">bextern</text>
</a>
</g>
</g>
<!-- Node9&#45;&gt;Node10 -->
<g id="edge9" class="edge">
<title>Node9&#45;&gt;Node10</title>
<path fill="none" stroke="#63b8ff" d="M171.44,-354.61C183.46,-351.17 198.05,-346.83 211,-342.5 231.2,-335.75 253.55,-327.42 271.34,-320.58"/>
<polygon fill="#63b8ff" stroke="#63b8ff" points="272.17,-323.62 280.23,-316.74 269.64,-317.09 272.17,-323.62"/>
</g>
<!-- Node13 -->
<g id="node13" class="node">
<title>Node13</title>
<g id="a_node13"><a xlink:href="../../d8/dfd/namespacedbgout.html#acdd1612a38e44b6469dc03d9d1c6ceed" target="_top" xlink:title="check if any output is desired for the current iteration check if the given context should be openend...">
<polygon fill="white" stroke="#666666" points="700,-187 571,-187 571,-168 700,-168 700,-187"/>
<text text-anchor="middle" x="635.5" y="-175" font-family="Helvetica,sans-Serif" font-size="10.00">dbgout::open_dbg_context</text>
</a>
</g>
</g>
<!-- Node9&#45;&gt;Node13 -->
<g id="edge14" class="edge">
<title>Node9&#45;&gt;Node13</title>
<path fill="none" stroke="#63b8ff" d="M171.27,-363.63C246.93,-369.68 473.52,-384.24 535,-347.5 591.42,-313.78 619.21,-234.87 629.55,-197.63"/>
<polygon fill="#63b8ff" stroke="#63b8ff" points="633.16,-198.68 632.31,-188.12 626.39,-196.9 633.16,-198.68"/>
</g>
<!-- Node14 -->
<g id="node14" class="node">
<title>Node14</title>
<g id="a_node14"><a xlink:href="../../dd/d98/precal_8f90.html#a0dae73e848a4757092d7e9786d073d3d" target="_top" xlink:title="Pre&#45;compute constant terms required for NESTOR.">
<polygon fill="white" stroke="#666666" points="327,-252 284,-252 284,-233 327,-233 327,-252"/>
<text text-anchor="middle" x="305.5" y="-240" font-family="Helvetica,sans-Serif" font-size="10.00">precal</text>
</a>
</g>
</g>
<!-- Node9&#45;&gt;Node14 -->
<g id="edge15" class="edge">
<title>Node9&#45;&gt;Node14</title>
<path fill="none" stroke="#63b8ff" d="M171.28,-358.34C184.1,-355.73 199.44,-351.01 211,-342.5 234.23,-325.4 227.51,-309.76 247,-288.5 257.12,-277.46 270.03,-266.89 281.05,-258.67"/>
<polygon fill="#63b8ff" stroke="#63b8ff" points="282.71,-261.06 288.75,-252.36 278.6,-255.39 282.71,-261.06"/>
</g>
<!-- Node15 -->
<g id="node15" class="node">
<title>Node15</title>
<g id="a_node15"><a xlink:href="../../d0/d19/scalpot_8f90.html#afb9e58849c5a27e486bdf4106f8bb84e" target="_top" xlink:title="Compute all required terms for solving for the scalar magnetic potential.">
<polygon fill="white" stroke="#666666" points="329.5,-131 281.5,-131 281.5,-112 329.5,-112 329.5,-131"/>
<text text-anchor="middle" x="305.5" y="-119" font-family="Helvetica,sans-Serif" font-size="10.00">scalpot</text>
</a>
</g>
</g>
<!-- Node9&#45;&gt;Node15 -->
<g id="edge17" class="edge">
<title>Node9&#45;&gt;Node15</title>
<path fill="none" stroke="#63b8ff" d="M171.43,-359.79C184.77,-357.63 200.56,-352.86 211,-342.5 250.21,-303.57 225.3,-274.32 247,-223.5 259.92,-193.25 279.47,-160.49 292.12,-140.48"/>
<polygon fill="#63b8ff" stroke="#63b8ff" points="295.58,-142.57 298.03,-132.26 289.69,-138.79 295.58,-142.57"/>
</g>
<!-- Node22 -->
<g id="node22" class="node">
<title>Node22</title>
<g id="a_node22"><a xlink:href="../../d7/d39/solver_8f90.html#a1e815013ed24a9dddc80410103f4a220" target="_top" xlink:title="Solve a linear system of equations using dgesv.">
<polygon fill="white" stroke="#666666" points="327,-409 284,-409 284,-390 327,-390 327,-409"/>
<text text-anchor="middle" x="305.5" y="-397" font-family="Helvetica,sans-Serif" font-size="10.00">solver</text>
</a>
</g>
</g>
<!-- Node9&#45;&gt;Node22 -->
<g id="edge28" class="edge">
<title>Node9&#45;&gt;Node22</title>
<path fill="none" stroke="#63b8ff" d="M171.19,-367.44C198.71,-374.06 243.27,-384.77 273.21,-391.97"/>
<polygon fill="#63b8ff" stroke="#63b8ff" points="271.98,-395.52 282.52,-394.45 273.61,-388.71 271.98,-395.52"/>
</g>
<!-- Node23 -->
<g id="node23" class="node">
<title>Node23</title>
<g id="a_node23"><a xlink:href="../../d6/d03/surface_8f90.html#ad7b6446e720a806f41f10dd1eb0b6f88" target="_top" xlink:title="Evaluate the geometry of the LCFS and tangential derivatives.">
<polygon fill="white" stroke="#666666" points="330,-446 281,-446 281,-427 330,-427 330,-446"/>
<text text-anchor="middle" x="305.5" y="-434" font-family="Helvetica,sans-Serif" font-size="10.00">surface</text>
</a>
</g>
</g>
<!-- Node9&#45;&gt;Node23 -->
<g id="edge29" class="edge">
<title>Node9&#45;&gt;Node23</title>
<path fill="none" stroke="#63b8ff" d="M171.34,-365.62C183.89,-368.48 198.95,-373.12 211,-380.5 230.84,-392.65 227.26,-406.18 247,-418.5 254.02,-422.88 262.18,-426.27 270.12,-428.86"/>
<polygon fill="#63b8ff" stroke="#63b8ff" points="269.09,-432.5 279.67,-431.93 271.05,-425.78 269.09,-432.5"/>
</g>
<!-- Node11 -->
<g id="node11" class="node">
<title>Node11</title>
<g id="a_node11"><a xlink:href="../../d6/dc7/becoil_8f90.html#a449b054fb88bdb4cdf73ef8939654bfb" target="_top" xlink:title="Compute the cylindrical components of the magnetic field due to external coils. by bi&#45;linear interpol...">
<polygon fill="white" stroke="#666666" points="488.5,-338 446.5,-338 446.5,-319 488.5,-319 488.5,-338"/>
<text text-anchor="middle" x="467.5" y="-326" font-family="Helvetica,sans-Serif" font-size="10.00">becoil</text>
</a>
</g>
</g>
<!-- Node10&#45;&gt;Node11 -->
<g id="edge10" class="edge">
<title>Node10&#45;&gt;Node11</title>
<path fill="none" stroke="#63b8ff" d="M329.77,-310.55C357.71,-314.22 404.68,-320.39 435.63,-324.45"/>
<polygon fill="#63b8ff" stroke="#63b8ff" points="434.88,-328.01 445.25,-325.84 435.79,-321.07 434.88,-328.01"/>
</g>
<!-- Node12 -->
<g id="node12" class="node">
<title>Node12</title>
<g id="a_node12"><a xlink:href="../../d9/dda/belicu_8f90.html#a53e6f162ca96069b8d93e131069ddf5d" target="_top" xlink:title="Magnetic field due to net toroidal current modeled by a filament along the magnetic axis.">
<polygon fill="white" stroke="#666666" points="488.5,-301 446.5,-301 446.5,-282 488.5,-282 488.5,-301"/>
<text text-anchor="middle" x="467.5" y="-289" font-family="Helvetica,sans-Serif" font-size="10.00">belicu</text>
</a>
</g>
</g>
<!-- Node10&#45;&gt;Node12 -->
<g id="edge11" class="edge">
<title>Node10&#45;&gt;Node12</title>
<path fill="none" stroke="#63b8ff" d="M329.77,-305.17C357.71,-302.38 404.68,-297.68 435.63,-294.59"/>
<polygon fill="#63b8ff" stroke="#63b8ff" points="435.65,-298 445.25,-293.53 434.95,-291.04 435.65,-298"/>
</g>
<!-- Node10&#45;&gt;Node13 -->
<g id="edge12" class="edge">
<title>Node10&#45;&gt;Node13</title>
<path fill="none" stroke="#63b8ff" d="M329.88,-298.58C348.76,-291.41 376.04,-281.16 400,-272.5 459.75,-250.92 476.29,-249.79 535,-225.5 559.45,-215.39 586.44,-202.23 606.14,-192.25"/>
<polygon fill="#63b8ff" stroke="#63b8ff" points="607.41,-195.03 614.72,-187.36 604.22,-188.79 607.41,-195.03"/>
</g>
<!-- Node13&#45;&gt;Node13 -->
<g id="edge13" class="edge">
<title>Node13&#45;&gt;Node13</title>
<path fill="none" stroke="#63b8ff" d="M609.2,-187.37C597.2,-195.94 605.97,-205 635.5,-205 653.03,-205 663.25,-201.8 666.14,-197.42"/>
<polygon fill="#63b8ff" stroke="#63b8ff" points="668.98,-196.16 661.8,-188.37 662.55,-198.94 668.98,-196.16"/>
</g>
<!-- Node14&#45;&gt;Node13 -->
<g id="edge16" class="edge">
<title>Node14&#45;&gt;Node13</title>
<path fill="none" stroke="#63b8ff" d="M327.02,-238.43C375.47,-228.83 498.55,-204.44 573.48,-189.59"/>
<polygon fill="#63b8ff" stroke="#63b8ff" points="574.04,-192.85 583.17,-187.47 572.68,-185.99 574.04,-192.85"/>
</g>
<!-- Node15&#45;&gt;Node13 -->
<g id="edge27" class="edge">
<title>Node15&#45;&gt;Node13</title>
<path fill="none" stroke="#63b8ff" d="M329.69,-117.69C371.54,-111.65 462.09,-102.39 535,-121.5 564.2,-129.15 593.86,-147.51 613.11,-161.14"/>
<polygon fill="#63b8ff" stroke="#63b8ff" points="610.78,-164.5 620.92,-167.56 614.91,-158.84 610.78,-164.5"/>
</g>
<!-- Node16 -->
<g id="node16" class="node">
<title>Node16</title>
<g id="a_node16"><a xlink:href="../../da/d73/analyt_8f90.html#a60edcf4884aa60f6d96c258a97255756" target="_top" xlink:title="Compute the analytical&#45;and&#45;numerical 4D Fourier integrals over the equivalently&#45;singular functions.">
<polygon fill="white" stroke="#666666" points="488.5,-37 446.5,-37 446.5,-18 488.5,-18 488.5,-37"/>
<text text-anchor="middle" x="467.5" y="-25" font-family="Helvetica,sans-Serif" font-size="10.00">analyt</text>
</a>
</g>
</g>
<!-- Node15&#45;&gt;Node16 -->
<g id="edge18" class="edge">
<title>Node15&#45;&gt;Node16</title>
<path fill="none" stroke="#63b8ff" d="M315.88,-111.54C331.7,-95.32 365.37,-63.24 400,-45.5 411.05,-39.84 424.08,-35.81 435.66,-33.02"/>
<polygon fill="#63b8ff" stroke="#63b8ff" points="436.18,-36.27 445.2,-30.71 434.69,-29.43 436.18,-36.27"/>
</g>
<!-- Node19 -->
<g id="node19" class="node">
<title>Node19</title>
<g id="a_node19"><a xlink:href="../../d6/d77/fouri_8f90.html#a0f902f8d584a395f9db7175079d273c7" target="_top" xlink:title="Compute Fourier integrals and build amatrix.">
<polygon fill="white" stroke="#666666" points="485,-74 450,-74 450,-55 485,-55 485,-74"/>
<text text-anchor="middle" x="467.5" y="-62" font-family="Helvetica,sans-Serif" font-size="10.00">fouri</text>
</a>
</g>
</g>
<!-- Node15&#45;&gt;Node19 -->
<g id="edge22" class="edge">
<title>Node15&#45;&gt;Node19</title>
<path fill="none" stroke="#63b8ff" d="M329.77,-113.21C358.92,-102.83 408.77,-85.06 439.55,-74.1"/>
<polygon fill="#63b8ff" stroke="#63b8ff" points="440.34,-77.18 448.58,-70.53 437.99,-70.59 440.34,-77.18"/>
</g>
<!-- Node20 -->
<g id="node20" class="node">
<title>Node20</title>
<g id="a_node20"><a xlink:href="../../d0/d1c/fourp_8f90.html#add725dd420251115fd60182dc992503c" target="_top" xlink:title="Perform Fourier integrals of Green&#39;s function kernel.">
<polygon fill="white" stroke="#666666" points="486.5,-150 448.5,-150 448.5,-131 486.5,-131 486.5,-150"/>
<text text-anchor="middle" x="467.5" y="-138" font-family="Helvetica,sans-Serif" font-size="10.00">fourp</text>
</a>
</g>
</g>
<!-- Node15&#45;&gt;Node20 -->
<g id="edge24" class="edge">
<title>Node15&#45;&gt;Node20</title>
<path fill="none" stroke="#63b8ff" d="M329.77,-124.26C358.33,-127.65 406.76,-133.41 437.66,-137.08"/>
<polygon fill="#63b8ff" stroke="#63b8ff" points="436.84,-140.62 447.18,-138.32 437.66,-133.67 436.84,-140.62"/>
</g>
<!-- Node21 -->
<g id="node21" class="node">
<title>Node21</title>
<g id="a_node21"><a xlink:href="../../df/d2d/greenf_8f90.html#acd9d25905cc799c9fcd4d08a3cbb1e65" target="_top" xlink:title="Compute the regularized evaluation of the Green&#39;s function and the source term.">
<polygon fill="white" stroke="#666666" points="489.5,-187 445.5,-187 445.5,-168 489.5,-168 489.5,-187"/>
<text text-anchor="middle" x="467.5" y="-175" font-family="Helvetica,sans-Serif" font-size="10.00">greenf</text>
</a>
</g>
</g>
<!-- Node15&#45;&gt;Node21 -->
<g id="edge26" class="edge">
<title>Node15&#45;&gt;Node21</title>
<path fill="none" stroke="#63b8ff" d="M329.7,-131.42C348.48,-139.27 375.7,-150.24 400,-158.5 411.17,-162.3 423.56,-165.98 434.59,-169.07"/>
<polygon fill="#63b8ff" stroke="#63b8ff" points="433.5,-172.68 444.07,-171.95 435.36,-165.93 433.5,-172.68"/>
</g>
<!-- Node16&#45;&gt;Node13 -->
<g id="edge21" class="edge">
<title>Node16&#45;&gt;Node13</title>
<path fill="none" stroke="#63b8ff" d="M488.84,-29.51C502.81,-31.68 521.23,-36.19 535,-45.5 578.21,-74.72 610.23,-129 625.16,-158.02"/>
<polygon fill="#63b8ff" stroke="#63b8ff" points="622.44,-159.41 630.03,-166.79 628.7,-156.28 622.44,-159.41"/>
</g>
<!-- Node17 -->
<g id="node17" class="node">
<title>Node17</title>
<g id="a_node17"><a xlink:href="../../df/df3/analysum_8f90.html#aa51b1a5786e7b5719fe2ca679efc66b0" target="_top" xlink:title="Compute the (m=0 or n=0) part of the DFT of the analytical Fourier transforms of the equivalently&#45;sin...">
<polygon fill="white" stroke="#666666" points="664.5,-56 606.5,-56 606.5,-37 664.5,-37 664.5,-56"/>
<text text-anchor="middle" x="635.5" y="-44" font-family="Helvetica,sans-Serif" font-size="10.00">analysum</text>
</a>
</g>
</g>
<!-- Node16&#45;&gt;Node17 -->
<g id="edge19" class="edge">
<title>Node16&#45;&gt;Node17</title>
<path fill="none" stroke="#63b8ff" d="M488.85,-29.83C515.3,-32.86 562.03,-38.21 595.43,-42.03"/>
<polygon fill="#63b8ff" stroke="#63b8ff" points="594.87,-45.6 605.2,-43.26 595.66,-38.65 594.87,-45.6"/>
</g>
<!-- Node18 -->
<g id="node18" class="node">
<title>Node18</title>
<g id="a_node18"><a xlink:href="../../d1/d90/analysum2_8f90.html#a47a0d185131a197c6fc62ee5d68d62fb" target="_top" xlink:title="Compute the (m&gt;0 and n&gt;0) part of the DFT of the analytical Fourier transforms of the equivalently&#45;si...">
<polygon fill="white" stroke="#666666" points="667,-19 604,-19 604,0 667,0 667,-19"/>
<text text-anchor="middle" x="635.5" y="-7" font-family="Helvetica,sans-Serif" font-size="10.00">analysum2</text>
</a>
</g>
</g>
<!-- Node16&#45;&gt;Node18 -->
<g id="edge20" class="edge">
<title>Node16&#45;&gt;Node18</title>
<path fill="none" stroke="#63b8ff" d="M488.85,-25.29C514.6,-22.5 559.57,-17.62 592.75,-14.03"/>
<polygon fill="#63b8ff" stroke="#63b8ff" points="592.94,-17.42 602.51,-12.86 592.19,-10.46 592.94,-17.42"/>
</g>
<!-- Node19&#45;&gt;Node13 -->
<g id="edge23" class="edge">
<title>Node19&#45;&gt;Node13</title>
<path fill="none" stroke="#63b8ff" d="M485.41,-68.66C499.34,-72.54 519.3,-79.13 535,-88.5 568.11,-108.26 600.21,-139.93 618.63,-159.68"/>
<polygon fill="#63b8ff" stroke="#63b8ff" points="615.53,-161.57 624.87,-166.59 620.7,-156.85 615.53,-161.57"/>
</g>
<!-- Node20&#45;&gt;Node13 -->
<g id="edge25" class="edge">
<title>Node20&#45;&gt;Node13</title>
<path fill="none" stroke="#63b8ff" d="M486.9,-144.6C509.04,-149.54 547.25,-158.05 579.24,-165.18"/>
<polygon fill="#63b8ff" stroke="#63b8ff" points="578.3,-168.78 588.82,-167.54 579.82,-161.95 578.3,-168.78"/>
</g>
<!-- Node23&#45;&gt;Node13 -->
<g id="edge30" class="edge">
<title>Node23&#45;&gt;Node13</title>
<path fill="none" stroke="#63b8ff" d="M330.4,-436.97C375.41,-436.62 473.75,-429.8 535,-380.5 594.83,-332.34 621.33,-239.2 630.5,-197.98"/>
<polygon fill="#63b8ff" stroke="#63b8ff" points="634.09,-198.89 632.72,-188.38 627.24,-197.45 634.09,-198.89"/>
</g>
</g>
</svg>
