<?xml version="1.0" encoding="UTF-8" standalone="no"?>
<!DOCTYPE svg PUBLIC "-//W3C//DTD SVG 1.1//EN"
 "http://www.w3.org/Graphics/SVG/1.1/DTD/svg11.dtd">
<!-- Generated by graphviz version 2.49.3 (20211027.1501)
 -->
<!-- Title: nestor Pages: 1 -->
<!--zoomable 354 -->
<svg id="main" version="1.1" xmlns="http://www.w3.org/2000/svg" xmlns:xlink="http://www.w3.org/1999/xlink" xml:space="preserve" onload="init(evt)">
<style type="text/css"><![CDATA[
.edge:hover path { stroke: red; }
.edge:hover polygon { stroke: red; fill: red; }
]]></style>
<script type="text/javascript"><![CDATA[
var edges = document.getElementsByTagName('g');
if (edges && edges.length) {
  for (var i=0;i<edges.length;i++) {
    if (edges[i].id.substr(0,4)=='edge') {
      edges[i].setAttribute('class','edge');
    }
  }
}
]]></script>
        <defs>
                <circle id="rim" cx="0" cy="0" r="7"/>
                <circle id="rim2" cx="0" cy="0" r="3.5"/>
                <g id="zoomPlus">
                        <use xlink:href="#rim" fill="#404040">
                                <set attributeName="fill" to="#808080" begin="zoomplus.mouseover" end="zoomplus.mouseout"/>
                        </use>
                        <path d="M-4,0h8M0,-4v8" fill="none" stroke="white" stroke-width="1.5" pointer-events="none"/>
                </g>
                <g id="zoomMin">
                        <use xlink:href="#rim" fill="#404040">
                                <set attributeName="fill" to="#808080" begin="zoomminus.mouseover" end="zoomminus.mouseout"/>
                        </use>
                        <path d="M-4,0h8" fill="none" stroke="white" stroke-width="1.5" pointer-events="none"/>
                </g>
                <g id="dirArrow">
                        <path fill="none" stroke="white" stroke-width="1.5" d="M0,-3.0v7 M-2.5,-0.5L0,-3.0L2.5,-0.5"/>
                </g>
               <g id="resetDef">
                       <use xlink:href="#rim2" fill="#404040">
                               <set attributeName="fill" to="#808080" begin="reset.mouseover" end="reset.mouseout"/>
                       </use>
               </g>
        </defs>

<script type="text/javascript">
var viewWidth = 644;
var viewHeight = 354;
var sectionId = 'dynsection-0';
</script>
<script xlink:href="../../svgpan.js"/>
<svg id="graph" class="graph">
<g id="viewport">
<title>nestor</title>
<polygon fill="white" stroke="transparent" points="-4,4 -4,-350 640,-350 640,4 -4,4"/>
<!-- Node1 -->
<g id="node1" class="node">
<title>Node1</title>
<g id="a_node1"><a xlink:title="Main program of stand&#45;alone version of NESTOR.">
<polygon fill="#bfbfbf" stroke="black" points="0,-219.5 0,-238.5 44,-238.5 44,-219.5 0,-219.5"/>
<text text-anchor="middle" x="22" y="-226.5" font-family="Helvetica,sans-Serif" font-size="10.00">nestor</text>
</a>
</g>
</g>
<!-- Node2 -->
<g id="node2" class="node">
<title>Node2</title>
<g id="a_node2"><a xlink:href="../../dd/df2/namespacevacmod.html#a30b88ea77408f43e1bedf2c11c0f8d1a" target="_top" xlink:title=" ">
<polygon fill="white" stroke="black" points="84.5,-326.5 84.5,-345.5 206.5,-345.5 206.5,-326.5 84.5,-326.5"/>
<text text-anchor="middle" x="145.5" y="-333.5" font-family="Helvetica,sans-Serif" font-size="10.00">vacmod::allocate_nestor</text>
</a>
</g>
</g>
<!-- Node1&#45;&gt;Node2 -->
<g id="edge1" class="edge">
<title>Node1&#45;&gt;Node2</title>
<path fill="none" stroke="midnightblue" d="M26.54,-238.55C33.75,-256.64 51.85,-295.98 80,-317 82.62,-318.96 85.44,-320.71 88.38,-322.29"/>
<polygon fill="midnightblue" stroke="midnightblue" points="86.95,-325.48 97.5,-326.49 89.88,-319.13 86.95,-325.48"/>
</g>
<!-- Node3 -->
<g id="node3" class="node">
<title>Node3</title>
<g id="a_node3"><a xlink:href="../../dd/df2/namespacevacmod.html#ade3824460b4eb61403c35f6abe95cd89" target="_top" xlink:title=" ">
<polygon fill="white" stroke="black" points="80,-288.5 80,-307.5 211,-307.5 211,-288.5 80,-288.5"/>
<text text-anchor="middle" x="145.5" y="-295.5" font-family="Helvetica,sans-Serif" font-size="10.00">vacmod::free_mem_nestor</text>
</a>
</g>
</g>
<!-- Node1&#45;&gt;Node3 -->
<g id="edge2" class="edge">
<title>Node1&#45;&gt;Node3</title>
<path fill="none" stroke="midnightblue" d="M31.71,-238.88C42.13,-250.13 60.63,-268.33 80,-279 83.96,-281.18 88.2,-283.14 92.54,-284.89"/>
<polygon fill="midnightblue" stroke="midnightblue" points="91.55,-288.25 102.15,-288.39 93.95,-281.67 91.55,-288.25"/>
</g>
<!-- Node4 -->
<g id="node4" class="node">
<title>Node4</title>
<g id="a_node4"><a xlink:href="../../db/dc0/namespacenestor__io.html#a84f85fce5232fbd8ee9eca2f2b5adb0c" target="_top" xlink:title=" ">
<polygon fill="white" stroke="black" points="89.5,-239 89.5,-269 201.5,-269 201.5,-239 89.5,-239"/>
<text text-anchor="start" x="97.5" y="-257" font-family="Helvetica,sans-Serif" font-size="10.00">nestor_io::read_nestor</text>
<text text-anchor="middle" x="145.5" y="-246" font-family="Helvetica,sans-Serif" font-size="10.00">_inputs</text>
</a>
</g>
</g>
<!-- Node1&#45;&gt;Node4 -->
<g id="edge3" class="edge">
<title>Node1&#45;&gt;Node4</title>
<path fill="none" stroke="midnightblue" d="M44.16,-233.35C54.19,-235.42 66.76,-238 79.58,-240.64"/>
<polygon fill="midnightblue" stroke="midnightblue" points="78.89,-244.07 89.39,-242.66 80.3,-237.22 78.89,-244.07"/>
</g>
<!-- Node8 -->
<g id="node8" class="node">
<title>Node8</title>
<g id="a_node8"><a xlink:href="../../d2/d04/namespacevacmod0.html#a4be777018e003400355a27b190d7d39a" target="_top" xlink:title=" ">
<polygon fill="white" stroke="black" points="92,-190 92,-220 199,-220 199,-190 92,-190"/>
<text text-anchor="start" x="100" y="-208" font-family="Helvetica,sans-Serif" font-size="10.00">vacmod0::set_nestor</text>
<text text-anchor="middle" x="145.5" y="-197" font-family="Helvetica,sans-Serif" font-size="10.00">_sizes</text>
</a>
</g>
</g>
<!-- Node1&#45;&gt;Node8 -->
<g id="edge7" class="edge">
<title>Node1&#45;&gt;Node8</title>
<path fill="none" stroke="midnightblue" d="M44.16,-224.82C54.83,-222.71 68.39,-220.03 82.05,-217.34"/>
<polygon fill="midnightblue" stroke="midnightblue" points="82.85,-220.74 91.99,-215.37 81.5,-213.88 82.85,-220.74"/>
</g>
<!-- Node9 -->
<g id="node9" class="node">
<title>Node9</title>
<g id="a_node9"><a xlink:href="../../dd/d6d/vacuum_8f90.html#a0acbc18d2ab7664835d797b42ce49a35" target="_top" xlink:title="Compute the vacuum contribution to the free&#45;boundary energy functional.">
<polygon fill="white" stroke="black" points="120,-151.5 120,-170.5 171,-170.5 171,-151.5 120,-151.5"/>
<text text-anchor="middle" x="145.5" y="-158.5" font-family="Helvetica,sans-Serif" font-size="10.00">vacuum</text>
</a>
</g>
</g>
<!-- Node1&#45;&gt;Node9 -->
<g id="edge8" class="edge">
<title>Node1&#45;&gt;Node9</title>
<path fill="none" stroke="midnightblue" d="M31.75,-219.32C42.21,-208.31 60.74,-190.48 80,-180 89.31,-174.94 100.12,-171.08 110.2,-168.2"/>
<polygon fill="midnightblue" stroke="midnightblue" points="111.17,-171.57 119.96,-165.65 109.4,-164.79 111.17,-171.57"/>
</g>
<!-- Node25 -->
<g id="node25" class="node">
<title>Node25</title>
<g id="a_node25"><a xlink:href="../../db/dc0/namespacenestor__io.html#a288cc8f23cbfe1484ec6815381cc25c8" target="_top" xlink:title=" ">
<polygon fill="white" stroke="black" points="88.5,-102 88.5,-132 202.5,-132 202.5,-102 88.5,-102"/>
<text text-anchor="start" x="96.5" y="-120" font-family="Helvetica,sans-Serif" font-size="10.00">nestor_io::write_nestor</text>
<text text-anchor="middle" x="145.5" y="-109" font-family="Helvetica,sans-Serif" font-size="10.00">_outputs</text>
</a>
</g>
</g>
<!-- Node1&#45;&gt;Node25 -->
<g id="edge25" class="edge">
<title>Node1&#45;&gt;Node25</title>
<path fill="none" stroke="midnightblue" d="M26.85,-219.5C34.46,-201.84 53.05,-163.81 80,-142 82.23,-140.19 84.61,-138.51 87.09,-136.93"/>
<polygon fill="midnightblue" stroke="midnightblue" points="88.83,-139.97 95.82,-132.01 85.39,-133.87 88.83,-139.97"/>
</g>
<!-- Node5 -->
<g id="node5" class="node">
<title>Node5</title>
<g id="a_node5"><a xlink:href="../../d1/d41/namespacemgrid__mod.html#a202373a45f0c5b1f81076da92a1123d0" target="_top" xlink:title=" ">
<polygon fill="white" stroke="black" points="253,-284.5 253,-303.5 370,-303.5 370,-284.5 253,-284.5"/>
<text text-anchor="middle" x="311.5" y="-291.5" font-family="Helvetica,sans-Serif" font-size="10.00">mgrid_mod::read_mgrid</text>
</a>
</g>
</g>
<!-- Node4&#45;&gt;Node5 -->
<g id="edge4" class="edge">
<title>Node4&#45;&gt;Node5</title>
<path fill="none" stroke="midnightblue" d="M201.57,-267.43C220.97,-272.16 242.64,-277.45 261.51,-282.05"/>
<polygon fill="midnightblue" stroke="midnightblue" points="260.83,-285.49 271.38,-284.46 262.49,-278.69 260.83,-285.49"/>
</g>
<!-- Node6 -->
<g id="node6" class="node">
<title>Node6</title>
<g id="a_node6"><a xlink:href="../../d1/d41/namespacemgrid__mod.html#acadb9c6d09345e3d8f91f5800ad7d452" target="_top" xlink:title=" ">
<polygon fill="white" stroke="black" points="412,-322.5 412,-341.5 537,-341.5 537,-322.5 412,-322.5"/>
<text text-anchor="middle" x="474.5" y="-329.5" font-family="Helvetica,sans-Serif" font-size="10.00">mgrid_mod::assign_bptrs</text>
</a>
</g>
</g>
<!-- Node5&#45;&gt;Node6 -->
<g id="edge5" class="edge">
<title>Node5&#45;&gt;Node6</title>
<path fill="none" stroke="midnightblue" d="M353.13,-303.59C374.47,-308.63 400.81,-314.84 423.41,-320.18"/>
<polygon fill="midnightblue" stroke="midnightblue" points="422.63,-323.59 433.17,-322.48 424.24,-316.78 422.63,-323.59"/>
</g>
<!-- Node7 -->
<g id="node7" class="node">
<title>Node7</title>
<g id="a_node7"><a xlink:href="../../d1/d41/namespacemgrid__mod.html#aa4818ade7a169c68f8b7c3a225fd287e" target="_top" xlink:title=" ">
<polygon fill="white" stroke="black" points="416.5,-284.5 416.5,-303.5 532.5,-303.5 532.5,-284.5 416.5,-284.5"/>
<text text-anchor="middle" x="474.5" y="-291.5" font-family="Helvetica,sans-Serif" font-size="10.00">mgrid_mod::sum_bfield</text>
</a>
</g>
</g>
<!-- Node5&#45;&gt;Node7 -->
<g id="edge6" class="edge">
<title>Node5&#45;&gt;Node7</title>
<path fill="none" stroke="midnightblue" d="M370.17,-294C381.75,-294 394.03,-294 405.91,-294"/>
<polygon fill="midnightblue" stroke="midnightblue" points="406.23,-297.5 416.23,-294 406.23,-290.5 406.23,-297.5"/>
</g>
<!-- Node10 -->
<g id="node10" class="node">
<title>Node10</title>
<g id="a_node10"><a xlink:href="../../db/d3d/bextern_8f90.html#a90228cc5f358147ae7f59953d6f9cced" target="_top" xlink:title="Compute the total magnetic field due to external coils and the net toroidal plasma current.">
<polygon fill="white" stroke="black" points="287.5,-246.5 287.5,-265.5 335.5,-265.5 335.5,-246.5 287.5,-246.5"/>
<text text-anchor="middle" x="311.5" y="-253.5" font-family="Helvetica,sans-Serif" font-size="10.00">bextern</text>
</a>
</g>
</g>
<!-- Node9&#45;&gt;Node10 -->
<g id="edge9" class="edge">
<title>Node9&#45;&gt;Node10</title>
<path fill="none" stroke="midnightblue" d="M171.05,-163.99C183.96,-166.54 199.45,-171.27 211,-180 234.91,-198.06 223.13,-218.89 247,-237 255.82,-243.69 266.99,-248.04 277.48,-250.86"/>
<polygon fill="midnightblue" stroke="midnightblue" points="276.71,-254.27 287.25,-253.12 278.29,-247.45 276.71,-254.27"/>
</g>
<!-- Node13 -->
<g id="node13" class="node">
<title>Node13</title>
<g id="a_node13"><a xlink:href="../../d8/dfd/namespacedbgout.html#a0752528f123b592bc57f687438b75d9b" target="_top" xlink:title=" ">
<polygon fill="white" stroke="black" points="247,-208.5 247,-227.5 376,-227.5 376,-208.5 247,-208.5"/>
<text text-anchor="middle" x="311.5" y="-215.5" font-family="Helvetica,sans-Serif" font-size="10.00">dbgout::open_dbg_context</text>
</a>
</g>
</g>
<!-- Node9&#45;&gt;Node13 -->
<g id="edge12" class="edge">
<title>Node9&#45;&gt;Node13</title>
<path fill="none" stroke="midnightblue" d="M171.09,-167.01C183.29,-170.3 198.13,-174.77 211,-180 227.76,-186.81 230.25,-192.15 247,-199 252.53,-201.26 258.42,-203.38 264.31,-205.34"/>
<polygon fill="midnightblue" stroke="midnightblue" points="263.55,-208.77 274.14,-208.45 265.67,-202.09 263.55,-208.77"/>
</g>
<!-- Node14 -->
<g id="node14" class="node">
<title>Node14</title>
<g id="a_node14"><a xlink:href="../../dd/d98/precal_8f90.html#a0dae73e848a4757092d7e9786d073d3d" target="_top" xlink:title="Pre&#45;compute constant terms required for NESTOR.">
<polygon fill="white" stroke="black" points="290,-170.5 290,-189.5 333,-189.5 333,-170.5 290,-170.5"/>
<text text-anchor="middle" x="311.5" y="-177.5" font-family="Helvetica,sans-Serif" font-size="10.00">precal</text>
</a>
</g>
</g>
<!-- Node9&#45;&gt;Node14 -->
<g id="edge13" class="edge">
<title>Node9&#45;&gt;Node14</title>
<path fill="none" stroke="midnightblue" d="M171.05,-163.84C200.11,-167.21 248.52,-172.82 279.97,-176.46"/>
<polygon fill="midnightblue" stroke="midnightblue" points="279.6,-179.94 289.94,-177.62 280.4,-172.99 279.6,-179.94"/>
</g>
<!-- Node15 -->
<g id="node15" class="node">
<title>Node15</title>
<g id="a_node15"><a xlink:href="../../d0/d19/scalpot_8f90.html#afb9e58849c5a27e486bdf4106f8bb84e" target="_top" xlink:title="Compute all required terms for solving for the scalar magnetic potential.">
<polygon fill="white" stroke="black" points="287.5,-132.5 287.5,-151.5 335.5,-151.5 335.5,-132.5 287.5,-132.5"/>
<text text-anchor="middle" x="311.5" y="-139.5" font-family="Helvetica,sans-Serif" font-size="10.00">scalpot</text>
</a>
</g>
</g>
<!-- Node9&#45;&gt;Node15 -->
<g id="edge14" class="edge">
<title>Node9&#45;&gt;Node15</title>
<path fill="none" stroke="midnightblue" d="M171.05,-158.16C199.31,-154.88 245.86,-149.49 277.33,-145.84"/>
<polygon fill="midnightblue" stroke="midnightblue" points="277.84,-149.31 287.37,-144.68 277.04,-142.35 277.84,-149.31"/>
</g>
<!-- Node22 -->
<g id="node22" class="node">
<title>Node22</title>
<g id="a_node22"><a xlink:href="../../d8/dfd/namespacedbgout.html#a0537172e9da0db08b9d29ab8880f0559" target="_top" xlink:title=" ">
<polygon fill="white" stroke="black" points="259,-76.5 259,-95.5 364,-95.5 364,-76.5 259,-76.5"/>
<text text-anchor="middle" x="311.5" y="-83.5" font-family="Helvetica,sans-Serif" font-size="10.00">dbgout::should_write</text>
</a>
</g>
</g>
<!-- Node9&#45;&gt;Node22 -->
<g id="edge21" class="edge">
<title>Node9&#45;&gt;Node22</title>
<path fill="none" stroke="midnightblue" d="M171.12,-154.65C183.33,-151.18 198.17,-146.47 211,-141 225.57,-134.79 260.98,-114.75 285.37,-100.66"/>
<polygon fill="midnightblue" stroke="midnightblue" points="287.22,-103.64 294.11,-95.59 283.71,-97.58 287.22,-103.64"/>
</g>
<!-- Node23 -->
<g id="node23" class="node">
<title>Node23</title>
<g id="a_node23"><a xlink:href="../../d7/d39/solver_8f90.html#a1e815013ed24a9dddc80410103f4a220" target="_top" xlink:title="Solve a linear system of equations using dgesv.">
<polygon fill="white" stroke="black" points="290,-38.5 290,-57.5 333,-57.5 333,-38.5 290,-38.5"/>
<text text-anchor="middle" x="311.5" y="-45.5" font-family="Helvetica,sans-Serif" font-size="10.00">solver</text>
</a>
</g>
</g>
<!-- Node9&#45;&gt;Node23 -->
<g id="edge23" class="edge">
<title>Node9&#45;&gt;Node23</title>
<path fill="none" stroke="midnightblue" d="M171.15,-158.15C184.24,-155.54 199.88,-150.55 211,-141 238.75,-117.18 219.13,-90.68 247,-67 256.2,-59.18 268.52,-54.58 279.86,-51.87"/>
<polygon fill="midnightblue" stroke="midnightblue" points="280.76,-55.27 289.88,-49.88 279.39,-48.4 280.76,-55.27"/>
</g>
<!-- Node24 -->
<g id="node24" class="node">
<title>Node24</title>
<g id="a_node24"><a xlink:href="../../d6/d03/surface_8f90.html#ad7b6446e720a806f41f10dd1eb0b6f88" target="_top" xlink:title="Evaluate the geometry of the LCFS and tangential derivatives.">
<polygon fill="white" stroke="black" points="287,-0.5 287,-19.5 336,-19.5 336,-0.5 287,-0.5"/>
<text text-anchor="middle" x="311.5" y="-7.5" font-family="Helvetica,sans-Serif" font-size="10.00">surface</text>
</a>
</g>
</g>
<!-- Node9&#45;&gt;Node24 -->
<g id="edge24" class="edge">
<title>Node9&#45;&gt;Node24</title>
<path fill="none" stroke="midnightblue" d="M171.07,-158.86C184.46,-156.48 200.42,-151.47 211,-141 248.16,-104.22 209.66,-65.6 247,-29 255.03,-21.13 266.19,-16.5 276.92,-13.78"/>
<polygon fill="midnightblue" stroke="midnightblue" points="277.86,-17.16 286.95,-11.72 276.45,-10.3 277.86,-17.16"/>
</g>
<!-- Node11 -->
<g id="node11" class="node">
<title>Node11</title>
<g id="a_node11"><a xlink:href="../../d6/dc7/becoil_8f90.html#a449b054fb88bdb4cdf73ef8939654bfb" target="_top" xlink:title="Compute the cylindrical components of the magnetic field due to external coils. by bi&#45;linear interpol...">
<polygon fill="white" stroke="black" points="453.5,-246.5 453.5,-265.5 495.5,-265.5 495.5,-246.5 453.5,-246.5"/>
<text text-anchor="middle" x="474.5" y="-253.5" font-family="Helvetica,sans-Serif" font-size="10.00">becoil</text>
</a>
</g>
</g>
<!-- Node10&#45;&gt;Node11 -->
<g id="edge10" class="edge">
<title>Node10&#45;&gt;Node11</title>
<path fill="none" stroke="midnightblue" d="M335.57,-256C363.72,-256 411.44,-256 442.71,-256"/>
<polygon fill="midnightblue" stroke="midnightblue" points="443.03,-259.5 453.02,-256 443.02,-252.5 443.03,-259.5"/>
</g>
<!-- Node12 -->
<g id="node12" class="node">
<title>Node12</title>
<g id="a_node12"><a xlink:href="../../d9/dda/belicu_8f90.html#a53e6f162ca96069b8d93e131069ddf5d" target="_top" xlink:title="Magnetic field due to net toroidal current modeled by a filament along the magnetic axis.">
<polygon fill="white" stroke="black" points="453.5,-208.5 453.5,-227.5 495.5,-227.5 495.5,-208.5 453.5,-208.5"/>
<text text-anchor="middle" x="474.5" y="-215.5" font-family="Helvetica,sans-Serif" font-size="10.00">belicu</text>
</a>
</g>
</g>
<!-- Node10&#45;&gt;Node12 -->
<g id="edge11" class="edge">
<title>Node10&#45;&gt;Node12</title>
<path fill="none" stroke="midnightblue" d="M335.57,-250.56C363.85,-243.88 411.86,-232.55 443.12,-225.17"/>
<polygon fill="midnightblue" stroke="midnightblue" points="444.1,-228.54 453.02,-222.83 442.49,-221.72 444.1,-228.54"/>
</g>
<!-- Node16 -->
<g id="node16" class="node">
<title>Node16</title>
<g id="a_node16"><a xlink:href="../../da/d73/analyt_8f90.html#a60edcf4884aa60f6d96c258a97255756" target="_top" xlink:title="Compute the analytical&#45;and&#45;numerical 4D Fourier integrals over the equivalently&#45;singular functions.">
<polygon fill="white" stroke="black" points="453.5,-170.5 453.5,-189.5 495.5,-189.5 495.5,-170.5 453.5,-170.5"/>
<text text-anchor="middle" x="474.5" y="-177.5" font-family="Helvetica,sans-Serif" font-size="10.00">analyt</text>
</a>
</g>
</g>
<!-- Node15&#45;&gt;Node16 -->
<g id="edge15" class="edge">
<title>Node15&#45;&gt;Node16</title>
<path fill="none" stroke="midnightblue" d="M335.57,-147.44C363.85,-154.12 411.86,-165.45 443.12,-172.83"/>
<polygon fill="midnightblue" stroke="midnightblue" points="442.49,-176.28 453.02,-175.17 444.1,-169.46 442.49,-176.28"/>
</g>
<!-- Node19 -->
<g id="node19" class="node">
<title>Node19</title>
<g id="a_node19"><a xlink:href="../../d6/d77/fouri_8f90.html#a0f902f8d584a395f9db7175079d273c7" target="_top" xlink:title="Compute Fourier integrals and build amatrix.">
<polygon fill="white" stroke="black" points="457,-132.5 457,-151.5 492,-151.5 492,-132.5 457,-132.5"/>
<text text-anchor="middle" x="474.5" y="-139.5" font-family="Helvetica,sans-Serif" font-size="10.00">fouri</text>
</a>
</g>
</g>
<!-- Node15&#45;&gt;Node19 -->
<g id="edge18" class="edge">
<title>Node15&#45;&gt;Node19</title>
<path fill="none" stroke="midnightblue" d="M335.57,-142C364.97,-142 415.69,-142 446.76,-142"/>
<polygon fill="midnightblue" stroke="midnightblue" points="446.86,-145.5 456.86,-142 446.86,-138.5 446.86,-145.5"/>
</g>
<!-- Node20 -->
<g id="node20" class="node">
<title>Node20</title>
<g id="a_node20"><a xlink:href="../../d0/d1c/fourp_8f90.html#add725dd420251115fd60182dc992503c" target="_top" xlink:title="Perform Fourier integrals of Green&#39;s function kernel.">
<polygon fill="white" stroke="black" points="455.5,-94.5 455.5,-113.5 493.5,-113.5 493.5,-94.5 455.5,-94.5"/>
<text text-anchor="middle" x="474.5" y="-101.5" font-family="Helvetica,sans-Serif" font-size="10.00">fourp</text>
</a>
</g>
</g>
<!-- Node15&#45;&gt;Node20 -->
<g id="edge19" class="edge">
<title>Node15&#45;&gt;Node20</title>
<path fill="none" stroke="midnightblue" d="M335.57,-136.56C364.63,-129.7 414.52,-117.92 445.67,-110.57"/>
<polygon fill="midnightblue" stroke="midnightblue" points="446.53,-113.96 455.46,-108.26 444.92,-107.15 446.53,-113.96"/>
</g>
<!-- Node21 -->
<g id="node21" class="node">
<title>Node21</title>
<g id="a_node21"><a xlink:href="../../df/d2d/greenf_8f90.html#acd9d25905cc799c9fcd4d08a3cbb1e65" target="_top" xlink:title="Compute the regularized evaluation of the Green&#39;s function and the source term.">
<polygon fill="white" stroke="black" points="452.5,-56.5 452.5,-75.5 496.5,-75.5 496.5,-56.5 452.5,-56.5"/>
<text text-anchor="middle" x="474.5" y="-63.5" font-family="Helvetica,sans-Serif" font-size="10.00">greenf</text>
</a>
</g>
</g>
<!-- Node15&#45;&gt;Node21 -->
<g id="edge20" class="edge">
<title>Node15&#45;&gt;Node21</title>
<path fill="none" stroke="midnightblue" d="M335.74,-138.09C348.32,-135.24 363.75,-130.54 376,-123 395.81,-110.81 392.24,-97.28 412,-85 421.25,-79.25 432.38,-75.12 442.61,-72.22"/>
<polygon fill="midnightblue" stroke="midnightblue" points="443.62,-75.57 452.44,-69.7 441.88,-68.79 443.62,-75.57"/>
</g>
<!-- Node17 -->
<g id="node17" class="node">
<title>Node17</title>
<g id="a_node17"><a xlink:href="../../df/df3/analysum_8f90.html#aa51b1a5786e7b5719fe2ca679efc66b0" target="_top" xlink:title="Compute the (m=0 or n=0) part of the DFT of the analytical Fourier transforms of the equivalently&#45;sin...">
<polygon fill="white" stroke="black" points="575.5,-189.5 575.5,-208.5 633.5,-208.5 633.5,-189.5 575.5,-189.5"/>
<text text-anchor="middle" x="604.5" y="-196.5" font-family="Helvetica,sans-Serif" font-size="10.00">analysum</text>
</a>
</g>
</g>
<!-- Node16&#45;&gt;Node17 -->
<g id="edge16" class="edge">
<title>Node16&#45;&gt;Node17</title>
<path fill="none" stroke="midnightblue" d="M495.78,-183.01C514.37,-185.77 542.37,-189.93 565.17,-193.31"/>
<polygon fill="midnightblue" stroke="midnightblue" points="564.82,-196.8 575.22,-194.8 565.84,-189.87 564.82,-196.8"/>
</g>
<!-- Node18 -->
<g id="node18" class="node">
<title>Node18</title>
<g id="a_node18"><a xlink:href="../../d1/d90/analysum2_8f90.html#a47a0d185131a197c6fc62ee5d68d62fb" target="_top" xlink:title="Compute the (m&gt;0 and n&gt;0) part of the DFT of the analytical Fourier transforms of the equivalently&#45;si...">
<polygon fill="white" stroke="black" points="573,-151.5 573,-170.5 636,-170.5 636,-151.5 573,-151.5"/>
<text text-anchor="middle" x="604.5" y="-158.5" font-family="Helvetica,sans-Serif" font-size="10.00">analysum2</text>
</a>
</g>
</g>
<!-- Node16&#45;&gt;Node18 -->
<g id="edge17" class="edge">
<title>Node16&#45;&gt;Node18</title>
<path fill="none" stroke="midnightblue" d="M495.78,-176.99C513.75,-174.32 540.54,-170.35 562.9,-167.03"/>
<polygon fill="midnightblue" stroke="midnightblue" points="563.44,-170.48 572.82,-165.55 562.41,-163.56 563.44,-170.48"/>
</g>
<!-- Node22&#45;&gt;Node22 -->
<g id="edge22" class="edge">
<title>Node22&#45;&gt;Node22</title>
<path fill="none" stroke="midnightblue" d="M286.53,-95.76C274.38,-104.57 282.71,-114 311.5,-114 330.85,-114 340.95,-109.74 341.81,-104.27"/>
<polygon fill="midnightblue" stroke="midnightblue" points="344.75,-102.37 336.47,-95.76 338.82,-106.09 344.75,-102.37"/>
</g>
</g>
</svg>
        <g id="navigator" transform="translate(0 0)" fill="#404254">
                <rect fill="#f2f5e9" fill-opacity="0.5" stroke="#606060" stroke-width=".5" x="0" y="0" width="60" height="60"/>
                <use id="zoomplus" xlink:href="#zoomPlus" x="17" y="9" onmousedown="handleZoom(evt,'in')"/>
                <use id="zoomminus" xlink:href="#zoomMin" x="42" y="9" onmousedown="handleZoom(evt,'out')"/>
                <use id="reset" xlink:href="#resetDef" x="30" y="36" onmousedown="handleReset()"/>
                <g id="arrowUp" xlink:href="#dirArrow" transform="translate(30 24)" onmousedown="handlePan(0,-1)">
                  <use xlink:href="#rim" fill="#404040">
                        <set attributeName="fill" to="#808080" begin="arrowUp.mouseover" end="arrowUp.mouseout"/>
                  </use>
                  <path fill="none" stroke="white" stroke-width="1.5" d="M0,-3.0v7 M-2.5,-0.5L0,-3.0L2.5,-0.5"/>
                </g>
                <g id="arrowRight" xlink:href="#dirArrow" transform="rotate(90) translate(36 -43)" onmousedown="handlePan(1,0)">
                  <use xlink:href="#rim" fill="#404040">
                        <set attributeName="fill" to="#808080" begin="arrowRight.mouseover" end="arrowRight.mouseout"/>
                  </use>
                  <path fill="none" stroke="white" stroke-width="1.5" d="M0,-3.0v7 M-2.5,-0.5L0,-3.0L2.5,-0.5"/>
                </g>
                <g id="arrowDown" xlink:href="#dirArrow" transform="rotate(180) translate(-30 -48)" onmousedown="handlePan(0,1)">
                  <use xlink:href="#rim" fill="#404040">
                        <set attributeName="fill" to="#808080" begin="arrowDown.mouseover" end="arrowDown.mouseout"/>
                  </use>
                  <path fill="none" stroke="white" stroke-width="1.5" d="M0,-3.0v7 M-2.5,-0.5L0,-3.0L2.5,-0.5"/>
                </g>
                <g id="arrowLeft" xlink:href="#dirArrow" transform="rotate(270) translate(-36 17)" onmousedown="handlePan(-1,0)">
                  <use xlink:href="#rim" fill="#404040">
                        <set attributeName="fill" to="#808080" begin="arrowLeft.mouseover" end="arrowLeft.mouseout"/>
                  </use>
                  <path fill="none" stroke="white" stroke-width="1.5" d="M0,-3.0v7 M-2.5,-0.5L0,-3.0L2.5,-0.5"/>
                </g>
        </g>
        <svg viewBox="0 0 15 15" width="100%" height="30px" preserveAspectRatio="xMaxYMin meet">
         <g id="arrow_out" transform="scale(0.3 0.3)">
          <a xlink:href="nestor__main_8f90_a1b0fd336e80285a96925333daa2ee8f0_cgraph_org.svg" target="_base">
           <rect id="button" ry="5" rx="5" y="6" x="6" height="38" width="38"
                fill="#f2f5e9" fill-opacity="0.5" stroke="#606060" stroke-width="1.0"/>
           <path id="arrow"
             d="M 11.500037,31.436501 C 11.940474,20.09759 22.043105,11.32322 32.158766,21.979434 L 37.068811,17.246167 C 37.068811,17.246167 37.088388,32 37.088388,32 L 22.160133,31.978069 C 22.160133,31.978069 26.997745,27.140456 26.997745,27.140456 C 18.528582,18.264221 13.291696,25.230495 11.500037,31.436501 z"
             style="fill:#404040;"/>
          </a>
         </g>
        </svg>
</svg>
