<?xml version="1.0" encoding="UTF-8" standalone="no"?>
<!DOCTYPE svg PUBLIC "-//W3C//DTD SVG 1.1//EN"
 "http://www.w3.org/Graphics/SVG/1.1/DTD/svg11.dtd">
<!-- Generated by graphviz version 2.49.3 (20211027.1501)
 -->
<!-- Title: nestor Pages: 1 -->
<svg width="636pt" height="355pt"
 viewBox="0.00 0.00 636.00 355.00" xmlns="http://www.w3.org/2000/svg" xmlns:xlink="http://www.w3.org/1999/xlink">
<g id="graph0" class="graph" transform="scale(1 1) rotate(0) translate(4 351)">
<title>nestor</title>
<polygon fill="white" stroke="transparent" points="-4,4 -4,-351 632,-351 632,4 -4,4"/>
<!-- Node1 -->
<g id="node1" class="node">
<title>Node1</title>
<g id="a_node1"><a xlink:title="Main program of stand&#45;alone version of NESTOR.">
<polygon fill="#bfbfbf" stroke="black" points="0,-220.5 0,-239.5 44,-239.5 44,-220.5 0,-220.5"/>
<text text-anchor="middle" x="22" y="-227.5" font-family="Helvetica,sans-Serif" font-size="10.00">nestor</text>
</a>
</g>
</g>
<!-- Node2 -->
<g id="node2" class="node">
<title>Node2</title>
<g id="a_node2"><a xlink:href="../../dd/df2/namespacevacmod.html#a30b88ea77408f43e1bedf2c11c0f8d1a" target="_top" xlink:title=" ">
<polygon fill="white" stroke="black" points="84.5,-327.5 84.5,-346.5 206.5,-346.5 206.5,-327.5 84.5,-327.5"/>
<text text-anchor="middle" x="145.5" y="-334.5" font-family="Helvetica,sans-Serif" font-size="10.00">vacmod::allocate_nestor</text>
</a>
</g>
</g>
<!-- Node1&#45;&gt;Node2 -->
<g id="edge1" class="edge">
<title>Node1&#45;&gt;Node2</title>
<path fill="none" stroke="midnightblue" d="M26.54,-239.55C33.75,-257.64 51.85,-296.98 80,-318 82.62,-319.96 85.44,-321.71 88.38,-323.29"/>
<polygon fill="midnightblue" stroke="midnightblue" points="86.95,-326.48 97.5,-327.49 89.88,-320.13 86.95,-326.48"/>
</g>
<!-- Node3 -->
<g id="node3" class="node">
<title>Node3</title>
<g id="a_node3"><a xlink:href="../../dd/df2/namespacevacmod.html#ade3824460b4eb61403c35f6abe95cd89" target="_top" xlink:title=" ">
<polygon fill="white" stroke="black" points="80,-289.5 80,-308.5 211,-308.5 211,-289.5 80,-289.5"/>
<text text-anchor="middle" x="145.5" y="-296.5" font-family="Helvetica,sans-Serif" font-size="10.00">vacmod::free_mem_nestor</text>
</a>
</g>
</g>
<!-- Node1&#45;&gt;Node3 -->
<g id="edge2" class="edge">
<title>Node1&#45;&gt;Node3</title>
<path fill="none" stroke="midnightblue" d="M31.71,-239.88C42.13,-251.13 60.63,-269.33 80,-280 83.96,-282.18 88.2,-284.14 92.54,-285.89"/>
<polygon fill="midnightblue" stroke="midnightblue" points="91.55,-289.25 102.15,-289.39 93.95,-282.67 91.55,-289.25"/>
</g>
<!-- Node4 -->
<g id="node4" class="node">
<title>Node4</title>
<g id="a_node4"><a xlink:href="../../db/dc0/namespacenestor__io.html#a84f85fce5232fbd8ee9eca2f2b5adb0c" target="_top" xlink:title=" ">
<polygon fill="white" stroke="black" points="89.5,-240 89.5,-270 201.5,-270 201.5,-240 89.5,-240"/>
<text text-anchor="start" x="97.5" y="-258" font-family="Helvetica,sans-Serif" font-size="10.00">nestor_io::read_nestor</text>
<text text-anchor="middle" x="145.5" y="-247" font-family="Helvetica,sans-Serif" font-size="10.00">_inputs</text>
</a>
</g>
</g>
<!-- Node1&#45;&gt;Node4 -->
<g id="edge3" class="edge">
<title>Node1&#45;&gt;Node4</title>
<path fill="none" stroke="midnightblue" d="M44.16,-234.35C54.19,-236.42 66.76,-239 79.58,-241.64"/>
<polygon fill="midnightblue" stroke="midnightblue" points="78.89,-245.07 89.39,-243.66 80.3,-238.22 78.89,-245.07"/>
</g>
<!-- Node8 -->
<g id="node8" class="node">
<title>Node8</title>
<g id="a_node8"><a xlink:href="../../d2/d04/namespacevacmod0.html#a4be777018e003400355a27b190d7d39a" target="_top" xlink:title=" ">
<polygon fill="white" stroke="black" points="92,-191 92,-221 199,-221 199,-191 92,-191"/>
<text text-anchor="start" x="100" y="-209" font-family="Helvetica,sans-Serif" font-size="10.00">vacmod0::set_nestor</text>
<text text-anchor="middle" x="145.5" y="-198" font-family="Helvetica,sans-Serif" font-size="10.00">_sizes</text>
</a>
</g>
</g>
<!-- Node1&#45;&gt;Node8 -->
<g id="edge7" class="edge">
<title>Node1&#45;&gt;Node8</title>
<path fill="none" stroke="midnightblue" d="M44.16,-225.82C54.83,-223.71 68.39,-221.03 82.05,-218.34"/>
<polygon fill="midnightblue" stroke="midnightblue" points="82.85,-221.74 91.99,-216.37 81.5,-214.88 82.85,-221.74"/>
</g>
<!-- Node9 -->
<g id="node9" class="node">
<title>Node9</title>
<g id="a_node9"><a xlink:href="../../dd/d6d/vacuum_8f90.html#a0acbc18d2ab7664835d797b42ce49a35" target="_top" xlink:title="Compute the vacuum contribution to the free&#45;boundary energy functional.">
<polygon fill="white" stroke="black" points="120,-152.5 120,-171.5 171,-171.5 171,-152.5 120,-152.5"/>
<text text-anchor="middle" x="145.5" y="-159.5" font-family="Helvetica,sans-Serif" font-size="10.00">vacuum</text>
</a>
</g>
</g>
<!-- Node1&#45;&gt;Node9 -->
<g id="edge8" class="edge">
<title>Node1&#45;&gt;Node9</title>
<path fill="none" stroke="midnightblue" d="M32.19,-220.19C42.78,-209.43 61.16,-192.3 80,-182 89.34,-176.9 100.16,-172.9 110.24,-169.86"/>
<polygon fill="midnightblue" stroke="midnightblue" points="111.3,-173.2 119.99,-167.14 109.42,-166.46 111.3,-173.2"/>
</g>
<!-- Node24 -->
<g id="node24" class="node">
<title>Node24</title>
<g id="a_node24"><a xlink:href="../../db/dc0/namespacenestor__io.html#a288cc8f23cbfe1484ec6815381cc25c8" target="_top" xlink:title=" ">
<polygon fill="white" stroke="black" points="88.5,-103 88.5,-133 202.5,-133 202.5,-103 88.5,-103"/>
<text text-anchor="start" x="96.5" y="-121" font-family="Helvetica,sans-Serif" font-size="10.00">nestor_io::write_nestor</text>
<text text-anchor="middle" x="145.5" y="-110" font-family="Helvetica,sans-Serif" font-size="10.00">_outputs</text>
</a>
</g>
</g>
<!-- Node1&#45;&gt;Node24 -->
<g id="edge27" class="edge">
<title>Node1&#45;&gt;Node24</title>
<path fill="none" stroke="midnightblue" d="M26.85,-220.5C34.46,-202.84 53.05,-164.81 80,-143 82.23,-141.19 84.61,-139.51 87.09,-137.93"/>
<polygon fill="midnightblue" stroke="midnightblue" points="88.83,-140.97 95.82,-133.01 85.39,-134.87 88.83,-140.97"/>
</g>
<!-- Node5 -->
<g id="node5" class="node">
<title>Node5</title>
<g id="a_node5"><a xlink:href="../../d1/d41/namespacemgrid__mod.html#a202373a45f0c5b1f81076da92a1123d0" target="_top" xlink:title=" ">
<polygon fill="white" stroke="black" points="247,-284.5 247,-303.5 364,-303.5 364,-284.5 247,-284.5"/>
<text text-anchor="middle" x="305.5" y="-291.5" font-family="Helvetica,sans-Serif" font-size="10.00">mgrid_mod::read_mgrid</text>
</a>
</g>
</g>
<!-- Node4&#45;&gt;Node5 -->
<g id="edge4" class="edge">
<title>Node4&#45;&gt;Node5</title>
<path fill="none" stroke="midnightblue" d="M201.76,-268.64C219.47,-273.01 238.92,-277.81 256.1,-282.05"/>
<polygon fill="midnightblue" stroke="midnightblue" points="255.37,-285.48 265.92,-284.48 257.05,-278.68 255.37,-285.48"/>
</g>
<!-- Node6 -->
<g id="node6" class="node">
<title>Node6</title>
<g id="a_node6"><a xlink:href="../../d1/d41/namespacemgrid__mod.html#acadb9c6d09345e3d8f91f5800ad7d452" target="_top" xlink:title=" ">
<polygon fill="white" stroke="black" points="402,-284.5 402,-303.5 527,-303.5 527,-284.5 402,-284.5"/>
<text text-anchor="middle" x="464.5" y="-291.5" font-family="Helvetica,sans-Serif" font-size="10.00">mgrid_mod::assign_bptrs</text>
</a>
</g>
</g>
<!-- Node5&#45;&gt;Node6 -->
<g id="edge5" class="edge">
<title>Node5&#45;&gt;Node6</title>
<path fill="none" stroke="midnightblue" d="M364.07,-294C373.13,-294 382.59,-294 391.93,-294"/>
<polygon fill="midnightblue" stroke="midnightblue" points="391.98,-297.5 401.98,-294 391.98,-290.5 391.98,-297.5"/>
</g>
<!-- Node7 -->
<g id="node7" class="node">
<title>Node7</title>
<g id="a_node7"><a xlink:href="../../d1/d41/namespacemgrid__mod.html#aa4818ade7a169c68f8b7c3a225fd287e" target="_top" xlink:title=" ">
<polygon fill="white" stroke="black" points="406.5,-322.5 406.5,-341.5 522.5,-341.5 522.5,-322.5 406.5,-322.5"/>
<text text-anchor="middle" x="464.5" y="-329.5" font-family="Helvetica,sans-Serif" font-size="10.00">mgrid_mod::sum_bfield</text>
</a>
</g>
</g>
<!-- Node5&#45;&gt;Node7 -->
<g id="edge6" class="edge">
<title>Node5&#45;&gt;Node7</title>
<path fill="none" stroke="midnightblue" d="M346.12,-303.59C366.84,-308.6 392.39,-314.79 414.36,-320.11"/>
<polygon fill="midnightblue" stroke="midnightblue" points="413.62,-323.53 424.17,-322.48 415.27,-316.73 413.62,-323.53"/>
</g>
<!-- Node10 -->
<g id="node10" class="node">
<title>Node10</title>
<g id="a_node10"><a xlink:href="../../db/d3d/bextern_8f90.html#a90228cc5f358147ae7f59953d6f9cced" target="_top" xlink:title="Compute the total magnetic field due to external coils and the net toroidal plasma current.">
<polygon fill="white" stroke="black" points="281.5,-228.5 281.5,-247.5 329.5,-247.5 329.5,-228.5 281.5,-228.5"/>
<text text-anchor="middle" x="305.5" y="-235.5" font-family="Helvetica,sans-Serif" font-size="10.00">bextern</text>
</a>
</g>
</g>
<!-- Node9&#45;&gt;Node10 -->
<g id="edge9" class="edge">
<title>Node9&#45;&gt;Node10</title>
<path fill="none" stroke="midnightblue" d="M171.3,-166.63C183.83,-169.71 198.91,-174.59 211,-182 230.56,-193.99 227.55,-206.83 247,-219 254.49,-223.69 263.27,-227.35 271.68,-230.15"/>
<polygon fill="midnightblue" stroke="midnightblue" points="270.69,-233.51 281.28,-233.05 272.72,-226.81 270.69,-233.51"/>
</g>
<!-- Node13 -->
<g id="node13" class="node">
<title>Node13</title>
<g id="a_node13"><a xlink:href="../../d8/dfd/namespacedbgout.html#acdd1612a38e44b6469dc03d9d1c6ceed" target="_top" xlink:title="check if any output is desired for the current iteration check if the given context should be openend...">
<polygon fill="white" stroke="black" points="400,-152.5 400,-171.5 529,-171.5 529,-152.5 400,-152.5"/>
<text text-anchor="middle" x="464.5" y="-159.5" font-family="Helvetica,sans-Serif" font-size="10.00">dbgout::open_dbg_context</text>
</a>
</g>
</g>
<!-- Node9&#45;&gt;Node13 -->
<g id="edge14" class="edge">
<title>Node9&#45;&gt;Node13</title>
<path fill="none" stroke="midnightblue" d="M171.11,-162C217.49,-162 319.48,-162 389.84,-162"/>
<polygon fill="midnightblue" stroke="midnightblue" points="389.99,-165.5 399.99,-162 389.99,-158.5 389.99,-165.5"/>
</g>
<!-- Node14 -->
<g id="node14" class="node">
<title>Node14</title>
<g id="a_node14"><a xlink:href="../../dd/d98/precal_8f90.html#a0dae73e848a4757092d7e9786d073d3d" target="_top" xlink:title="Pre&#45;compute constant terms required for NESTOR.">
<polygon fill="white" stroke="black" points="284,-114.5 284,-133.5 327,-133.5 327,-114.5 284,-114.5"/>
<text text-anchor="middle" x="305.5" y="-121.5" font-family="Helvetica,sans-Serif" font-size="10.00">precal</text>
</a>
</g>
</g>
<!-- Node9&#45;&gt;Node14 -->
<g id="edge15" class="edge">
<title>Node9&#45;&gt;Node14</title>
<path fill="none" stroke="midnightblue" d="M171.19,-156.06C198.83,-149.42 243.66,-138.63 273.6,-131.43"/>
<polygon fill="midnightblue" stroke="midnightblue" points="274.61,-134.79 283.52,-129.05 272.98,-127.98 274.61,-134.79"/>
</g>
<!-- Node15 -->
<g id="node15" class="node">
<title>Node15</title>
<g id="a_node15"><a xlink:href="../../d0/d19/scalpot_8f90.html#afb9e58849c5a27e486bdf4106f8bb84e" target="_top" xlink:title="Compute all required terms for solving for the scalar magnetic potential.">
<polygon fill="white" stroke="black" points="281.5,-76.5 281.5,-95.5 329.5,-95.5 329.5,-76.5 281.5,-76.5"/>
<text text-anchor="middle" x="305.5" y="-83.5" font-family="Helvetica,sans-Serif" font-size="10.00">scalpot</text>
</a>
</g>
</g>
<!-- Node9&#45;&gt;Node15 -->
<g id="edge17" class="edge">
<title>Node9&#45;&gt;Node15</title>
<path fill="none" stroke="midnightblue" d="M171.03,-157.95C183.64,-155.1 198.85,-150.44 211,-143 230.84,-130.85 227.36,-117.47 247,-105 254.46,-100.26 263.23,-96.58 271.63,-93.78"/>
<polygon fill="midnightblue" stroke="midnightblue" points="272.67,-97.13 281.24,-90.89 270.65,-90.43 272.67,-97.13"/>
</g>
<!-- Node22 -->
<g id="node22" class="node">
<title>Node22</title>
<g id="a_node22"><a xlink:href="../../d7/d39/solver_8f90.html#a1e815013ed24a9dddc80410103f4a220" target="_top" xlink:title="Solve a linear system of equations using dgesv.">
<polygon fill="white" stroke="black" points="284,-38.5 284,-57.5 327,-57.5 327,-38.5 284,-38.5"/>
<text text-anchor="middle" x="305.5" y="-45.5" font-family="Helvetica,sans-Serif" font-size="10.00">solver</text>
</a>
</g>
</g>
<!-- Node9&#45;&gt;Node22 -->
<g id="edge24" class="edge">
<title>Node9&#45;&gt;Node22</title>
<path fill="none" stroke="midnightblue" d="M171.17,-159.62C184.27,-157.24 199.91,-152.48 211,-143 239.41,-118.71 218.99,-91.75 247,-67 254.52,-60.35 264.43,-56.02 273.9,-53.2"/>
<polygon fill="midnightblue" stroke="midnightblue" points="275.02,-56.53 283.87,-50.7 273.32,-49.74 275.02,-56.53"/>
</g>
<!-- Node23 -->
<g id="node23" class="node">
<title>Node23</title>
<g id="a_node23"><a xlink:href="../../d6/d03/surface_8f90.html#ad7b6446e720a806f41f10dd1eb0b6f88" target="_top" xlink:title="Evaluate the geometry of the LCFS and tangential derivatives.">
<polygon fill="white" stroke="black" points="281,-190.5 281,-209.5 330,-209.5 330,-190.5 281,-190.5"/>
<text text-anchor="middle" x="305.5" y="-197.5" font-family="Helvetica,sans-Serif" font-size="10.00">surface</text>
</a>
</g>
</g>
<!-- Node9&#45;&gt;Node23 -->
<g id="edge25" class="edge">
<title>Node9&#45;&gt;Node23</title>
<path fill="none" stroke="midnightblue" d="M171.19,-167.94C197.97,-174.38 240.9,-184.7 270.78,-191.89"/>
<polygon fill="midnightblue" stroke="midnightblue" points="270.22,-195.35 280.76,-194.29 271.86,-188.55 270.22,-195.35"/>
</g>
<!-- Node11 -->
<g id="node11" class="node">
<title>Node11</title>
<g id="a_node11"><a xlink:href="../../d6/dc7/becoil_8f90.html#a449b054fb88bdb4cdf73ef8939654bfb" target="_top" xlink:title="Compute the cylindrical components of the magnetic field due to external coils. by bi&#45;linear interpol...">
<polygon fill="white" stroke="black" points="443.5,-208.5 443.5,-227.5 485.5,-227.5 485.5,-208.5 443.5,-208.5"/>
<text text-anchor="middle" x="464.5" y="-215.5" font-family="Helvetica,sans-Serif" font-size="10.00">becoil</text>
</a>
</g>
</g>
<!-- Node10&#45;&gt;Node11 -->
<g id="edge10" class="edge">
<title>Node10&#45;&gt;Node11</title>
<path fill="none" stroke="midnightblue" d="M329.67,-235.05C357.13,-231.55 402.99,-225.71 433.24,-221.85"/>
<polygon fill="midnightblue" stroke="midnightblue" points="433.76,-225.32 443.24,-220.58 432.87,-218.37 433.76,-225.32"/>
</g>
<!-- Node12 -->
<g id="node12" class="node">
<title>Node12</title>
<g id="a_node12"><a xlink:href="../../d9/dda/belicu_8f90.html#a53e6f162ca96069b8d93e131069ddf5d" target="_top" xlink:title="Magnetic field due to net toroidal current modeled by a filament along the magnetic axis.">
<polygon fill="white" stroke="black" points="443.5,-246.5 443.5,-265.5 485.5,-265.5 485.5,-246.5 443.5,-246.5"/>
<text text-anchor="middle" x="464.5" y="-253.5" font-family="Helvetica,sans-Serif" font-size="10.00">belicu</text>
</a>
</g>
</g>
<!-- Node10&#45;&gt;Node12 -->
<g id="edge11" class="edge">
<title>Node10&#45;&gt;Node12</title>
<path fill="none" stroke="midnightblue" d="M329.67,-240.66C357.13,-243.81 402.99,-249.06 433.24,-252.53"/>
<polygon fill="midnightblue" stroke="midnightblue" points="432.9,-256.01 443.24,-253.68 433.7,-249.06 432.9,-256.01"/>
</g>
<!-- Node10&#45;&gt;Node13 -->
<g id="edge12" class="edge">
<title>Node10&#45;&gt;Node13</title>
<path fill="none" stroke="midnightblue" d="M329.57,-231.54C340.23,-228.26 352.96,-223.93 364,-219 367.84,-217.29 409.93,-193.02 438.12,-176.71"/>
<polygon fill="midnightblue" stroke="midnightblue" points="440.17,-179.56 447.07,-171.53 436.66,-173.51 440.17,-179.56"/>
</g>
<!-- Node13&#45;&gt;Node13 -->
<g id="edge13" class="edge">
<title>Node13&#45;&gt;Node13</title>
<path fill="none" stroke="midnightblue" d="M444.15,-171.76C434.26,-180.57 441.04,-190 464.5,-190 479.53,-190 487.71,-186.13 489.05,-181.03"/>
<polygon fill="midnightblue" stroke="midnightblue" points="492.17,-179.42 484.85,-171.76 485.79,-182.31 492.17,-179.42"/>
</g>
<!-- Node14&#45;&gt;Node13 -->
<g id="edge16" class="edge">
<title>Node14&#45;&gt;Node13</title>
<path fill="none" stroke="midnightblue" d="M327.03,-128.97C348.96,-134.28 384.54,-142.89 413.87,-149.99"/>
<polygon fill="midnightblue" stroke="midnightblue" points="413.41,-153.48 423.95,-152.43 415.05,-146.67 413.41,-153.48"/>
</g>
<!-- Node16 -->
<g id="node16" class="node">
<title>Node16</title>
<g id="a_node16"><a xlink:href="../../da/d73/analyt_8f90.html#a60edcf4884aa60f6d96c258a97255756" target="_top" xlink:title="Compute the analytical&#45;and&#45;numerical 4D Fourier integrals over the equivalently&#45;singular functions.">
<polygon fill="white" stroke="black" points="443.5,-76.5 443.5,-95.5 485.5,-95.5 485.5,-76.5 443.5,-76.5"/>
<text text-anchor="middle" x="464.5" y="-83.5" font-family="Helvetica,sans-Serif" font-size="10.00">analyt</text>
</a>
</g>
</g>
<!-- Node15&#45;&gt;Node16 -->
<g id="edge18" class="edge">
<title>Node15&#45;&gt;Node16</title>
<path fill="none" stroke="midnightblue" d="M329.67,-86C357.01,-86 402.59,-86 432.85,-86"/>
<polygon fill="midnightblue" stroke="midnightblue" points="433.24,-89.5 443.24,-86 433.24,-82.5 433.24,-89.5"/>
</g>
<!-- Node19 -->
<g id="node19" class="node">
<title>Node19</title>
<g id="a_node19"><a xlink:href="../../d6/d77/fouri_8f90.html#a0f902f8d584a395f9db7175079d273c7" target="_top" xlink:title="Compute Fourier integrals and build amatrix.">
<polygon fill="white" stroke="black" points="447,-38.5 447,-57.5 482,-57.5 482,-38.5 447,-38.5"/>
<text text-anchor="middle" x="464.5" y="-45.5" font-family="Helvetica,sans-Serif" font-size="10.00">fouri</text>
</a>
</g>
</g>
<!-- Node15&#45;&gt;Node19 -->
<g id="edge21" class="edge">
<title>Node15&#45;&gt;Node19</title>
<path fill="none" stroke="midnightblue" d="M329.67,-80.39C358.36,-73.45 407.11,-61.65 437.18,-54.37"/>
<polygon fill="midnightblue" stroke="midnightblue" points="438.08,-57.75 446.98,-52 436.43,-50.95 438.08,-57.75"/>
</g>
<!-- Node20 -->
<g id="node20" class="node">
<title>Node20</title>
<g id="a_node20"><a xlink:href="../../d0/d1c/fourp_8f90.html#add725dd420251115fd60182dc992503c" target="_top" xlink:title="Perform Fourier integrals of Green&#39;s function kernel.">
<polygon fill="white" stroke="black" points="445.5,-0.5 445.5,-19.5 483.5,-19.5 483.5,-0.5 445.5,-0.5"/>
<text text-anchor="middle" x="464.5" y="-7.5" font-family="Helvetica,sans-Serif" font-size="10.00">fourp</text>
</a>
</g>
</g>
<!-- Node15&#45;&gt;Node20 -->
<g id="edge22" class="edge">
<title>Node15&#45;&gt;Node20</title>
<path fill="none" stroke="midnightblue" d="M329.76,-81.11C340.71,-78.13 353.62,-73.59 364,-67 383.64,-54.53 380.19,-41.19 400,-29 410.73,-22.4 423.9,-17.97 435.45,-15.06"/>
<polygon fill="midnightblue" stroke="midnightblue" points="436.51,-18.41 445.5,-12.8 434.97,-11.58 436.51,-18.41"/>
</g>
<!-- Node21 -->
<g id="node21" class="node">
<title>Node21</title>
<g id="a_node21"><a xlink:href="../../df/d2d/greenf_8f90.html#acd9d25905cc799c9fcd4d08a3cbb1e65" target="_top" xlink:title="Compute the regularized evaluation of the Green&#39;s function and the source term.">
<polygon fill="white" stroke="black" points="442.5,-114.5 442.5,-133.5 486.5,-133.5 486.5,-114.5 442.5,-114.5"/>
<text text-anchor="middle" x="464.5" y="-121.5" font-family="Helvetica,sans-Serif" font-size="10.00">greenf</text>
</a>
</g>
</g>
<!-- Node15&#45;&gt;Node21 -->
<g id="edge23" class="edge">
<title>Node15&#45;&gt;Node21</title>
<path fill="none" stroke="midnightblue" d="M329.67,-91.61C356.83,-98.18 401.98,-109.11 432.23,-116.43"/>
<polygon fill="midnightblue" stroke="midnightblue" points="431.71,-119.91 442.25,-118.86 433.36,-113.1 431.71,-119.91"/>
</g>
<!-- Node17 -->
<g id="node17" class="node">
<title>Node17</title>
<g id="a_node17"><a xlink:href="../../df/df3/analysum_8f90.html#aa51b1a5786e7b5719fe2ca679efc66b0" target="_top" xlink:title="Compute the (m=0 or n=0) part of the DFT of the analytical Fourier transforms of the equivalently&#45;sin...">
<polygon fill="white" stroke="black" points="567.5,-95.5 567.5,-114.5 625.5,-114.5 625.5,-95.5 567.5,-95.5"/>
<text text-anchor="middle" x="596.5" y="-102.5" font-family="Helvetica,sans-Serif" font-size="10.00">analysum</text>
</a>
</g>
</g>
<!-- Node16&#45;&gt;Node17 -->
<g id="edge19" class="edge">
<title>Node16&#45;&gt;Node17</title>
<path fill="none" stroke="midnightblue" d="M485.53,-88.93C504.64,-91.72 533.92,-96 557.46,-99.44"/>
<polygon fill="midnightblue" stroke="midnightblue" points="557.08,-102.92 567.48,-100.91 558.1,-96 557.08,-102.92"/>
</g>
<!-- Node18 -->
<g id="node18" class="node">
<title>Node18</title>
<g id="a_node18"><a xlink:href="../../d1/d90/analysum2_8f90.html#a47a0d185131a197c6fc62ee5d68d62fb" target="_top" xlink:title="Compute the (m&gt;0 and n&gt;0) part of the DFT of the analytical Fourier transforms of the equivalently&#45;si...">
<polygon fill="white" stroke="black" points="565,-57.5 565,-76.5 628,-76.5 628,-57.5 565,-57.5"/>
<text text-anchor="middle" x="596.5" y="-64.5" font-family="Helvetica,sans-Serif" font-size="10.00">analysum2</text>
</a>
</g>
</g>
<!-- Node16&#45;&gt;Node18 -->
<g id="edge20" class="edge">
<title>Node16&#45;&gt;Node18</title>
<path fill="none" stroke="midnightblue" d="M485.53,-83.07C503.81,-80.4 531.4,-76.37 554.37,-73.01"/>
<polygon fill="midnightblue" stroke="midnightblue" points="555.16,-76.43 564.55,-71.52 554.15,-69.51 555.16,-76.43"/>
</g>
<!-- Node23&#45;&gt;Node13 -->
<g id="edge26" class="edge">
<title>Node23&#45;&gt;Node13</title>
<path fill="none" stroke="midnightblue" d="M330,-194.31C352.1,-188.96 385.87,-180.79 413.92,-174"/>
<polygon fill="midnightblue" stroke="midnightblue" points="415.07,-177.32 423.96,-171.57 413.42,-170.52 415.07,-177.32"/>
</g>
</g>
</svg>
