<?xml version="1.0" encoding="UTF-8" standalone="no"?>
<!DOCTYPE svg PUBLIC "-//W3C//DTD SVG 1.1//EN"
 "http://www.w3.org/Graphics/SVG/1.1/DTD/svg11.dtd">
<!-- Generated by graphviz version 8.0.5 (20230430.1635)
 -->
<!-- Title: nestor Pages: 1 -->
<svg width="705pt" height="551pt"
 viewBox="0.00 0.00 705.25 551.25" xmlns="http://www.w3.org/2000/svg" xmlns:xlink="http://www.w3.org/1999/xlink">
<g id="graph0" class="graph" transform="scale(1 1) rotate(0) translate(4 547.25)">
<title>nestor</title>
<!-- Node1 -->
<g id="Node000001" class="node">
<title>Node1</title>
<g id="a_Node000001"><a xlink:title="Main program of stand&#45;alone version of NESTOR.">
<polygon fill="#999999" stroke="#666666" points="43,-438.25 0,-438.25 0,-419 43,-419 43,-438.25"/>
<text text-anchor="middle" x="21.5" y="-424.75" font-family="Helvetica,sans-Serif" font-size="10.00">nestor</text>
</a>
</g>
</g>
<!-- Node2 -->
<g id="Node000002" class="node">
<title>Node2</title>
<g id="a_Node000002"><a xlink:href="../../dd/df2/namespacevacmod.html#a30b88ea77408f43e1bedf2c11c0f8d1a" target="_top" xlink:title=" ">
<polygon fill="white" stroke="#666666" points="204.88,-543.25 83.88,-543.25 83.88,-524 204.88,-524 204.88,-543.25"/>
<text text-anchor="middle" x="144.38" y="-529.75" font-family="Helvetica,sans-Serif" font-size="10.00">vacmod::allocate_nestor</text>
</a>
</g>
</g>
<!-- Node1&#45;&gt;Node2 -->
<g id="edge1_Node000001_Node000002" class="edge">
<title>Node1&#45;&gt;Node2</title>
<g id="a_edge1_Node000001_Node000002"><a xlink:title=" ">
<path fill="none" stroke="#63b8ff" d="M26.22,-438.66C33.47,-456.85 51.28,-495.26 79,-515.62 80.48,-516.71 82.02,-517.73 83.61,-518.69"/>
<polygon fill="#63b8ff" stroke="#63b8ff" points="81.67,-522.14 92.17,-523.54 84.84,-515.9 81.67,-522.14"/>
</a>
</g>
</g>
<!-- Node3 -->
<g id="Node000003" class="node">
<title>Node3</title>
<g id="a_Node000003"><a xlink:href="../../dd/df2/namespacevacmod.html#ade3824460b4eb61403c35f6abe95cd89" target="_top" xlink:title=" ">
<polygon fill="white" stroke="#666666" points="209.75,-506.25 79,-506.25 79,-487 209.75,-487 209.75,-506.25"/>
<text text-anchor="middle" x="144.38" y="-492.75" font-family="Helvetica,sans-Serif" font-size="10.00">vacmod::free_mem_nestor</text>
</a>
</g>
</g>
<!-- Node1&#45;&gt;Node3 -->
<g id="edge2_Node000001_Node000003" class="edge">
<title>Node1&#45;&gt;Node3</title>
<g id="a_edge2_Node000001_Node000003"><a xlink:title=" ">
<path fill="none" stroke="#63b8ff" d="M31.53,-438.7C41.95,-449.75 60.09,-467.28 79,-477.62 82.42,-479.5 86.05,-481.2 89.77,-482.76"/>
<polygon fill="#63b8ff" stroke="#63b8ff" points="88.17,-486.27 98.76,-486.52 90.63,-479.72 88.17,-486.27"/>
</a>
</g>
</g>
<!-- Node4 -->
<g id="Node000004" class="node">
<title>Node4</title>
<g id="a_Node000004"><a xlink:href="../../db/dc0/namespacenestor__io.html#a84f85fce5232fbd8ee9eca2f2b5adb0c" target="_top" xlink:title=" ">
<polygon fill="white" stroke="#666666" points="200,-468.88 88.75,-468.88 88.75,-438.38 200,-438.38 200,-468.88"/>
<text text-anchor="start" x="96.75" y="-455.38" font-family="Helvetica,sans-Serif" font-size="10.00">nestor_io::read_nestor</text>
<text text-anchor="middle" x="144.38" y="-444.12" font-family="Helvetica,sans-Serif" font-size="10.00">_inputs</text>
</a>
</g>
</g>
<!-- Node1&#45;&gt;Node4 -->
<g id="edge3_Node000001_Node000004" class="edge">
<title>Node1&#45;&gt;Node4</title>
<g id="a_edge3_Node000001_Node000004"><a xlink:title=" ">
<path fill="none" stroke="#63b8ff" d="M43.28,-432.92C53.03,-434.94 65.26,-437.47 77.78,-440.06"/>
<polygon fill="#63b8ff" stroke="#63b8ff" points="76.82,-443.64 87.32,-442.24 78.24,-436.79 76.82,-443.64"/>
</a>
</g>
</g>
<!-- Node8 -->
<g id="Node000008" class="node">
<title>Node8</title>
<g id="a_Node000008"><a xlink:href="../../d2/d04/namespacevacmod0.html#a4be777018e003400355a27b190d7d39a" target="_top" xlink:title=" ">
<polygon fill="white" stroke="#666666" points="197.38,-419.88 91.38,-419.88 91.38,-389.38 197.38,-389.38 197.38,-419.88"/>
<text text-anchor="start" x="99.38" y="-406.38" font-family="Helvetica,sans-Serif" font-size="10.00">vacmod0::set_nestor</text>
<text text-anchor="middle" x="144.38" y="-395.12" font-family="Helvetica,sans-Serif" font-size="10.00">_sizes</text>
</a>
</g>
</g>
<!-- Node1&#45;&gt;Node8 -->
<g id="edge7_Node000001_Node000008" class="edge">
<title>Node1&#45;&gt;Node8</title>
<g id="a_edge7_Node000001_Node000008"><a xlink:title=" ">
<path fill="none" stroke="#63b8ff" d="M43.28,-424.5C53.67,-422.44 66.85,-419.82 80.21,-417.17"/>
<polygon fill="#63b8ff" stroke="#63b8ff" points="80.79,-420.42 89.91,-415.04 79.42,-413.56 80.79,-420.42"/>
</a>
</g>
</g>
<!-- Node9 -->
<g id="Node000009" class="node">
<title>Node9</title>
<g id="a_Node000009"><a xlink:href="../../dd/d6d/vacuum_8f90.html#a0acbc18d2ab7664835d797b42ce49a35" target="_top" xlink:title="Compute the vacuum contribution to the free&#45;boundary energy functional.">
<polygon fill="white" stroke="#666666" points="169.62,-371.25 119.12,-371.25 119.12,-352 169.62,-352 169.62,-371.25"/>
<text text-anchor="middle" x="144.38" y="-357.75" font-family="Helvetica,sans-Serif" font-size="10.00">vacuum</text>
</a>
</g>
</g>
<!-- Node1&#45;&gt;Node9 -->
<g id="edge8_Node000001_Node000009" class="edge">
<title>Node1&#45;&gt;Node9</title>
<g id="a_edge8_Node000001_Node000009"><a xlink:title=" ">
<path fill="none" stroke="#63b8ff" d="M31.57,-418.77C42.03,-407.95 60.21,-390.79 79,-380.62 88.11,-375.7 98.65,-371.91 108.53,-369.05"/>
<polygon fill="#63b8ff" stroke="#63b8ff" points="109.12,-372.25 117.9,-366.31 107.34,-365.48 109.12,-372.25"/>
</a>
</g>
</g>
<!-- Node24 -->
<g id="Node000024" class="node">
<title>Node24</title>
<g id="a_Node000024"><a xlink:href="../../db/dc0/namespacenestor__io.html#a288cc8f23cbfe1484ec6815381cc25c8" target="_top" xlink:title=" ">
<polygon fill="white" stroke="#666666" points="201.12,-333.88 87.62,-333.88 87.62,-303.38 201.12,-303.38 201.12,-333.88"/>
<text text-anchor="start" x="95.62" y="-320.38" font-family="Helvetica,sans-Serif" font-size="10.00">nestor_io::write_nestor</text>
<text text-anchor="middle" x="144.38" y="-309.12" font-family="Helvetica,sans-Serif" font-size="10.00">_outputs</text>
</a>
</g>
</g>
<!-- Node1&#45;&gt;Node24 -->
<g id="edge31_Node000001_Node000024" class="edge">
<title>Node1&#45;&gt;Node24</title>
<g id="a_edge31_Node000001_Node000024"><a xlink:title=" ">
<path fill="none" stroke="#63b8ff" d="M26.54,-418.64C34.19,-400.91 52.46,-363.79 79,-342.62 80.22,-341.65 81.49,-340.71 82.8,-339.81"/>
<polygon fill="#63b8ff" stroke="#63b8ff" points="84.09,-342.51 90.84,-334.35 80.47,-336.52 84.09,-342.51"/>
</a>
</g>
</g>
<!-- Node5 -->
<g id="Node000005" class="node">
<title>Node5</title>
<g id="a_Node000005"><a xlink:href="../../d1/d41/namespacemgrid__mod.html#a202373a45f0c5b1f81076da92a1123d0" target="_top" xlink:title=" ">
<polygon fill="white" stroke="#666666" points="362.25,-483.25 245.75,-483.25 245.75,-464 362.25,-464 362.25,-483.25"/>
<text text-anchor="middle" x="304" y="-469.75" font-family="Helvetica,sans-Serif" font-size="10.00">mgrid_mod::read_mgrid</text>
</a>
</g>
</g>
<!-- Node4&#45;&gt;Node5 -->
<g id="edge4_Node000004_Node000005" class="edge">
<title>Node4&#45;&gt;Node5</title>
<g id="a_edge4_Node000004_Node000005"><a xlink:title=" ">
<path fill="none" stroke="#63b8ff" d="M200.06,-460.56C211.3,-461.99 223.25,-463.51 234.89,-464.98"/>
<polygon fill="#63b8ff" stroke="#63b8ff" points="234.1,-468.54 244.46,-466.32 234.98,-461.59 234.1,-468.54"/>
</a>
</g>
</g>
<!-- Node6 -->
<g id="Node000006" class="node">
<title>Node6</title>
<g id="a_Node000006"><a xlink:href="../../d0/d29/namespacesafe__open__mod.html#aab207f9769415b0cccd91260a8382eeb" target="_top" xlink:title=" ">
<polygon fill="white" stroke="#666666" points="532.75,-516.25 398.25,-516.25 398.25,-497 532.75,-497 532.75,-516.25"/>
<text text-anchor="middle" x="465.5" y="-502.75" font-family="Helvetica,sans-Serif" font-size="10.00">safe_open_mod::safe_open</text>
</a>
</g>
</g>
<!-- Node5&#45;&gt;Node6 -->
<g id="edge5_Node000005_Node000006" class="edge">
<title>Node5&#45;&gt;Node6</title>
<g id="a_edge5_Node000005_Node000006"><a xlink:title=" ">
<path fill="none" stroke="#63b8ff" d="M353.72,-483.71C370.03,-487.08 388.4,-490.88 405.41,-494.4"/>
<polygon fill="#63b8ff" stroke="#63b8ff" points="404.3,-497.95 414.8,-496.55 405.72,-491.1 404.3,-497.95"/>
</a>
</g>
</g>
<!-- Node7 -->
<g id="Node000007" class="node">
<title>Node7</title>
<g id="a_Node000007"><a xlink:href="../../d1/d41/namespacemgrid__mod.html#aa4818ade7a169c68f8b7c3a225fd287e" target="_top" xlink:title=" ">
<polygon fill="white" stroke="#666666" points="523,-479.25 408,-479.25 408,-460 523,-460 523,-479.25"/>
<text text-anchor="middle" x="465.5" y="-465.75" font-family="Helvetica,sans-Serif" font-size="10.00">mgrid_mod::sum_bfield</text>
</a>
</g>
</g>
<!-- Node5&#45;&gt;Node7 -->
<g id="edge6_Node000005_Node000007" class="edge">
<title>Node5&#45;&gt;Node7</title>
<g id="a_edge6_Node000005_Node000007"><a xlink:title=" ">
<path fill="none" stroke="#63b8ff" d="M362.58,-472.18C373.67,-471.9 385.38,-471.61 396.76,-471.32"/>
<polygon fill="#63b8ff" stroke="#63b8ff" points="396.63,-474.8 406.54,-471.05 396.45,-467.81 396.63,-474.8"/>
</a>
</g>
</g>
<!-- Node10 -->
<g id="Node000010" class="node">
<title>Node10</title>
<g id="a_Node000010"><a xlink:href="../../db/d3d/bextern_8f90.html#a90228cc5f358147ae7f59953d6f9cced" target="_top" xlink:title="Compute the total magnetic field due to external coils and the net toroidal plasma current.">
<polygon fill="white" stroke="#666666" points="327.75,-317.25 280.25,-317.25 280.25,-298 327.75,-298 327.75,-317.25"/>
<text text-anchor="middle" x="304" y="-303.75" font-family="Helvetica,sans-Serif" font-size="10.00">bextern</text>
</a>
</g>
</g>
<!-- Node9&#45;&gt;Node10 -->
<g id="edge9_Node000009_Node000010" class="edge">
<title>Node9&#45;&gt;Node10</title>
<g id="a_edge9_Node000009_Node000010"><a xlink:title=" ">
<path fill="none" stroke="#63b8ff" d="M169.96,-354.82C182.01,-351.37 196.71,-346.99 209.75,-342.62 229.9,-335.88 252.19,-327.55 269.93,-320.7"/>
<polygon fill="#63b8ff" stroke="#63b8ff" points="270.74,-323.75 278.79,-316.87 268.2,-317.23 270.74,-323.75"/>
</a>
</g>
</g>
<!-- Node13 -->
<g id="Node000013" class="node">
<title>Node13</title>
<g id="a_Node000013"><a xlink:href="../../d8/dfd/namespacedbgout.html#acdd1612a38e44b6469dc03d9d1c6ceed" target="_top" xlink:title="check if any output is desired for the current iteration check if the given context should be openend...">
<polygon fill="white" stroke="#666666" points="697.25,-187.25 568.75,-187.25 568.75,-168 697.25,-168 697.25,-187.25"/>
<text text-anchor="middle" x="633" y="-173.75" font-family="Helvetica,sans-Serif" font-size="10.00">dbgout::open_dbg_context</text>
</a>
</g>
</g>
<!-- Node9&#45;&gt;Node13 -->
<g id="edge14_Node000009_Node000013" class="edge">
<title>Node9&#45;&gt;Node13</title>
<g id="a_edge14_Node000009_Node000013"><a xlink:title=" ">
<path fill="none" stroke="#63b8ff" d="M170.08,-363.75C245.52,-369.78 471.47,-384.3 532.75,-347.62 588.85,-314.05 616.53,-235.73 626.94,-198.28"/>
<polygon fill="#63b8ff" stroke="#63b8ff" points="630.57,-199.23 629.72,-188.67 623.8,-197.45 630.57,-199.23"/>
</a>
</g>
</g>
<!-- Node14 -->
<g id="Node000014" class="node">
<title>Node14</title>
<g id="a_Node000014"><a xlink:href="../../dd/d98/precal_8f90.html#a0dae73e848a4757092d7e9786d073d3d" target="_top" xlink:title="Pre&#45;compute constant terms required for NESTOR.">
<polygon fill="white" stroke="#666666" points="325.12,-252.25 282.88,-252.25 282.88,-233 325.12,-233 325.12,-252.25"/>
<text text-anchor="middle" x="304" y="-238.75" font-family="Helvetica,sans-Serif" font-size="10.00">precal</text>
</a>
</g>
</g>
<!-- Node9&#45;&gt;Node14 -->
<g id="edge15_Node000009_Node000014" class="edge">
<title>Node9&#45;&gt;Node14</title>
<g id="a_edge15_Node000009_Node000014"><a xlink:title=" ">
<path fill="none" stroke="#63b8ff" d="M170.1,-358.45C182.9,-355.84 198.21,-351.13 209.75,-342.62 232.97,-325.52 226.28,-309.91 245.75,-288.62 255.84,-277.6 268.68,-267.03 279.65,-258.81"/>
<polygon fill="#63b8ff" stroke="#63b8ff" points="281.3,-261.21 287.32,-252.5 277.18,-255.55 281.3,-261.21"/>
</a>
</g>
</g>
<!-- Node15 -->
<g id="Node000015" class="node">
<title>Node15</title>
<g id="a_Node000015"><a xlink:href="../../d0/d19/scalpot_8f90.html#afb9e58849c5a27e486bdf4106f8bb84e" target="_top" xlink:title="Compute all required terms for solving for the scalar magnetic potential.">
<polygon fill="white" stroke="#666666" points="327.75,-131.25 280.25,-131.25 280.25,-112 327.75,-112 327.75,-131.25"/>
<text text-anchor="middle" x="304" y="-117.75" font-family="Helvetica,sans-Serif" font-size="10.00">scalpot</text>
</a>
</g>
</g>
<!-- Node9&#45;&gt;Node15 -->
<g id="edge17_Node000009_Node000015" class="edge">
<title>Node9&#45;&gt;Node15</title>
<g id="a_edge17_Node000009_Node000015"><a xlink:title=" ">
<path fill="none" stroke="#63b8ff" d="M169.94,-359.96C183.32,-357.81 199.25,-353.05 209.75,-342.62 248.95,-303.69 224.1,-274.46 245.75,-223.62 258.56,-193.56 277.89,-160.98 290.48,-140.93"/>
<polygon fill="#63b8ff" stroke="#63b8ff" points="293.96,-142.99 296.38,-132.67 288.05,-139.23 293.96,-142.99"/>
</a>
</g>
</g>
<!-- Node22 -->
<g id="Node000022" class="node">
<title>Node22</title>
<g id="a_Node000022"><a xlink:href="../../d7/d39/solver_8f90.html#a1e815013ed24a9dddc80410103f4a220" target="_top" xlink:title="Solve a linear system of equations using dgesv.">
<polygon fill="white" stroke="#666666" points="325.12,-409.25 282.88,-409.25 282.88,-390 325.12,-390 325.12,-409.25"/>
<text text-anchor="middle" x="304" y="-395.75" font-family="Helvetica,sans-Serif" font-size="10.00">solver</text>
</a>
</g>
</g>
<!-- Node9&#45;&gt;Node22 -->
<g id="edge28_Node000009_Node000022" class="edge">
<title>Node9&#45;&gt;Node22</title>
<g id="a_edge28_Node000009_Node000022"><a xlink:title=" ">
<path fill="none" stroke="#63b8ff" d="M170,-367.56C197.49,-374.19 242.02,-384.92 271.89,-392.13"/>
<polygon fill="#63b8ff" stroke="#63b8ff" points="271.01,-395.75 281.55,-394.7 272.65,-388.95 271.01,-395.75"/>
</a>
</g>
</g>
<!-- Node23 -->
<g id="Node000023" class="node">
<title>Node23</title>
<g id="a_Node000023"><a xlink:href="../../d6/d03/surface_8f90.html#ad7b6446e720a806f41f10dd1eb0b6f88" target="_top" xlink:title="Evaluate the geometry of the LCFS and tangential derivatives.">
<polygon fill="white" stroke="#666666" points="328.12,-446.25 279.88,-446.25 279.88,-427 328.12,-427 328.12,-446.25"/>
<text text-anchor="middle" x="304" y="-432.75" font-family="Helvetica,sans-Serif" font-size="10.00">surface</text>
</a>
</g>
</g>
<!-- Node9&#45;&gt;Node23 -->
<g id="edge29_Node000009_Node000023" class="edge">
<title>Node9&#45;&gt;Node23</title>
<g id="a_edge29_Node000009_Node000023"><a xlink:title=" ">
<path fill="none" stroke="#63b8ff" d="M169.86,-365.69C182.44,-368.53 197.63,-373.2 209.75,-380.62 229.59,-392.78 226.02,-406.3 245.75,-418.62 252.88,-423.08 261.2,-426.51 269.25,-429.13"/>
<polygon fill="#63b8ff" stroke="#63b8ff" points="267.98,-432.69 278.56,-432.11 269.92,-425.97 267.98,-432.69"/>
</a>
</g>
</g>
<!-- Node11 -->
<g id="Node000011" class="node">
<title>Node11</title>
<g id="a_Node000011"><a xlink:href="../../d6/dc7/becoil_8f90.html#a449b054fb88bdb4cdf73ef8939654bfb" target="_top" xlink:title="Compute the cylindrical components of the magnetic field due to external coils. by bi&#45;linear interpol...">
<polygon fill="white" stroke="#666666" points="486.25,-338.25 444.75,-338.25 444.75,-319 486.25,-319 486.25,-338.25"/>
<text text-anchor="middle" x="465.5" y="-324.75" font-family="Helvetica,sans-Serif" font-size="10.00">becoil</text>
</a>
</g>
</g>
<!-- Node10&#45;&gt;Node11 -->
<g id="edge10_Node000010_Node000011" class="edge">
<title>Node10&#45;&gt;Node11</title>
<g id="a_edge10_Node000010_Node000011"><a xlink:title=" ">
<path fill="none" stroke="#63b8ff" d="M328.19,-310.68C356.05,-314.35 402.87,-320.51 433.73,-324.57"/>
<polygon fill="#63b8ff" stroke="#63b8ff" points="432.94,-328.13 443.31,-325.97 433.85,-321.19 432.94,-328.13"/>
</a>
</g>
</g>
<!-- Node12 -->
<g id="Node000012" class="node">
<title>Node12</title>
<g id="a_Node000012"><a xlink:href="../../d9/dda/belicu_8f90.html#a53e6f162ca96069b8d93e131069ddf5d" target="_top" xlink:title="Magnetic field due to net toroidal current modeled by a filament along the magnetic axis.">
<polygon fill="white" stroke="#666666" points="486.25,-301.25 444.75,-301.25 444.75,-282 486.25,-282 486.25,-301.25"/>
<text text-anchor="middle" x="465.5" y="-287.75" font-family="Helvetica,sans-Serif" font-size="10.00">belicu</text>
</a>
</g>
</g>
<!-- Node10&#45;&gt;Node12 -->
<g id="edge11_Node000010_Node000012" class="edge">
<title>Node10&#45;&gt;Node12</title>
<g id="a_edge11_Node000010_Node000012"><a xlink:title=" ">
<path fill="none" stroke="#63b8ff" d="M328.19,-305.3C356.05,-302.5 402.87,-297.81 433.73,-294.71"/>
<polygon fill="#63b8ff" stroke="#63b8ff" points="433.71,-298.13 443.31,-293.65 433.01,-291.17 433.71,-298.13"/>
</a>
</g>
</g>
<!-- Node10&#45;&gt;Node13 -->
<g id="edge12_Node000010_Node000013" class="edge">
<title>Node10&#45;&gt;Node13</title>
<g id="a_edge12_Node000010_Node000013"><a xlink:title=" ">
<path fill="none" stroke="#63b8ff" d="M327.94,-298.85C346.78,-291.68 374.19,-281.34 398.25,-272.62 457.78,-251.05 474.26,-249.89 532.75,-225.62 556.99,-215.57 583.73,-202.52 603.34,-192.56"/>
<polygon fill="#63b8ff" stroke="#63b8ff" points="604.59,-195.34 611.9,-187.67 601.4,-189.11 604.59,-195.34"/>
</a>
</g>
</g>
<!-- Node13&#45;&gt;Node13 -->
<g id="edge13_Node000013_Node000013" class="edge">
<title>Node13&#45;&gt;Node13</title>
<g id="a_edge13_Node000013_Node000013"><a xlink:title=" ">
<path fill="none" stroke="#63b8ff" d="M606.78,-187.54C594.82,-196.15 603.56,-205.25 633,-205.25 650.48,-205.25 660.67,-202.04 663.55,-197.63"/>
<polygon fill="#63b8ff" stroke="#63b8ff" points="666.38,-196.35 659.22,-188.54 659.95,-199.11 666.38,-196.35"/>
</a>
</g>
</g>
<!-- Node14&#45;&gt;Node13 -->
<g id="edge16_Node000014_Node000013" class="edge">
<title>Node14&#45;&gt;Node13</title>
<g id="a_edge16_Node000014_Node000013"><a xlink:title=" ">
<path fill="none" stroke="#63b8ff" d="M325.46,-238.56C373.63,-228.98 495.79,-204.7 570.54,-189.84"/>
<polygon fill="#63b8ff" stroke="#63b8ff" points="571.09,-193.1 580.21,-187.72 569.72,-186.24 571.09,-193.1"/>
</a>
</g>
</g>
<!-- Node15&#45;&gt;Node13 -->
<g id="edge27_Node000015_Node000013" class="edge">
<title>Node15&#45;&gt;Node13</title>
<g id="a_edge27_Node000015_Node000013"><a xlink:title=" ">
<path fill="none" stroke="#63b8ff" d="M328.12,-117.82C369.83,-111.78 460.09,-102.54 532.75,-121.62 561.89,-129.28 591.48,-147.64 610.67,-161.26"/>
<polygon fill="#63b8ff" stroke="#63b8ff" points="608.32,-164.61 618.46,-167.69 612.45,-158.96 608.32,-164.61"/>
</a>
</g>
</g>
<!-- Node16 -->
<g id="Node000016" class="node">
<title>Node16</title>
<g id="a_Node000016"><a xlink:href="../../da/d73/analyt_8f90.html#a60edcf4884aa60f6d96c258a97255756" target="_top" xlink:title="Compute the analytical&#45;and&#45;numerical 4D Fourier integrals over the equivalently&#45;singular functions.">
<polygon fill="white" stroke="#666666" points="486.25,-37.25 444.75,-37.25 444.75,-18 486.25,-18 486.25,-37.25"/>
<text text-anchor="middle" x="465.5" y="-23.75" font-family="Helvetica,sans-Serif" font-size="10.00">analyt</text>
</a>
</g>
</g>
<!-- Node15&#45;&gt;Node16 -->
<g id="edge18_Node000015_Node000016" class="edge">
<title>Node15&#45;&gt;Node16</title>
<g id="a_edge18_Node000015_Node000016"><a xlink:title=" ">
<path fill="none" stroke="#63b8ff" d="M314.35,-111.67C330.13,-95.45 363.7,-63.38 398.25,-45.62 409.26,-39.97 422.23,-35.94 433.77,-33.15"/>
<polygon fill="#63b8ff" stroke="#63b8ff" points="434.26,-36.41 443.28,-30.84 432.76,-29.57 434.26,-36.41"/>
</a>
</g>
</g>
<!-- Node19 -->
<g id="Node000019" class="node">
<title>Node19</title>
<g id="a_Node000019"><a xlink:href="../../d6/d77/fouri_8f90.html#a0f902f8d584a395f9db7175079d273c7" target="_top" xlink:title="Compute Fourier integrals and build amatrix.">
<polygon fill="white" stroke="#666666" points="482.88,-74.25 448.12,-74.25 448.12,-55 482.88,-55 482.88,-74.25"/>
<text text-anchor="middle" x="465.5" y="-60.75" font-family="Helvetica,sans-Serif" font-size="10.00">fouri</text>
</a>
</g>
</g>
<!-- Node15&#45;&gt;Node19 -->
<g id="edge22_Node000015_Node000019" class="edge">
<title>Node15&#45;&gt;Node19</title>
<g id="a_edge22_Node000015_Node000019"><a xlink:title=" ">
<path fill="none" stroke="#63b8ff" d="M328.19,-113.34C357.25,-102.95 406.96,-85.19 437.64,-74.22"/>
<polygon fill="#63b8ff" stroke="#63b8ff" points="438.39,-77.31 446.63,-70.65 436.04,-70.72 438.39,-77.31"/>
</a>
</g>
</g>
<!-- Node20 -->
<g id="Node000020" class="node">
<title>Node20</title>
<g id="a_Node000020"><a xlink:href="../../d0/d1c/fourp_8f90.html#add725dd420251115fd60182dc992503c" target="_top" xlink:title="Perform Fourier integrals of Green&#39;s function kernel.">
<polygon fill="white" stroke="#666666" points="484.38,-150.25 446.62,-150.25 446.62,-131 484.38,-131 484.38,-150.25"/>
<text text-anchor="middle" x="465.5" y="-136.75" font-family="Helvetica,sans-Serif" font-size="10.00">fourp</text>
</a>
</g>
</g>
<!-- Node15&#45;&gt;Node20 -->
<g id="edge24_Node000015_Node000020" class="edge">
<title>Node15&#45;&gt;Node20</title>
<g id="a_edge24_Node000015_Node000020"><a xlink:title=" ">
<path fill="none" stroke="#63b8ff" d="M328.19,-124.39C356.54,-127.76 404.53,-133.48 435.34,-137.15"/>
<polygon fill="#63b8ff" stroke="#63b8ff" points="434.89,-140.74 445.24,-138.45 435.72,-133.79 434.89,-140.74"/>
</a>
</g>
</g>
<!-- Node21 -->
<g id="Node000021" class="node">
<title>Node21</title>
<g id="a_Node000021"><a xlink:href="../../df/d2d/greenf_8f90.html#acd9d25905cc799c9fcd4d08a3cbb1e65" target="_top" xlink:title="Compute the regularized evaluation of the Green&#39;s function and the source term.">
<polygon fill="white" stroke="#666666" points="487,-187.25 444,-187.25 444,-168 487,-168 487,-187.25"/>
<text text-anchor="middle" x="465.5" y="-173.75" font-family="Helvetica,sans-Serif" font-size="10.00">greenf</text>
</a>
</g>
</g>
<!-- Node15&#45;&gt;Node21 -->
<g id="edge26_Node000015_Node000021" class="edge">
<title>Node15&#45;&gt;Node21</title>
<g id="a_edge26_Node000015_Node000021"><a xlink:title=" ">
<path fill="none" stroke="#63b8ff" d="M327.32,-131.62C346.03,-139.78 373.58,-151.28 398.25,-159.62 409.51,-163.43 422.06,-167.01 433.17,-169.95"/>
<polygon fill="#63b8ff" stroke="#63b8ff" points="432.16,-173.56 442.71,-172.67 433.91,-166.78 432.16,-173.56"/>
</a>
</g>
</g>
<!-- Node16&#45;&gt;Node13 -->
<g id="edge21_Node000016_Node000013" class="edge">
<title>Node16&#45;&gt;Node13</title>
<g id="a_edge21_Node000016_Node000013"><a xlink:title=" ">
<path fill="none" stroke="#63b8ff" d="M486.47,-29.6C500.42,-31.76 518.94,-36.26 532.75,-45.62 575.68,-74.73 607.5,-128.61 622.47,-157.72"/>
<polygon fill="#63b8ff" stroke="#63b8ff" points="619.78,-159.17 627.37,-166.56 626.05,-156.05 619.78,-159.17"/>
</a>
</g>
</g>
<!-- Node17 -->
<g id="Node000017" class="node">
<title>Node17</title>
<g id="a_Node000017"><a xlink:href="../../df/df3/analysum_8f90.html#aa51b1a5786e7b5719fe2ca679efc66b0" target="_top" xlink:title="Compute the (m=0 or n=0) part of the DFT of the analytical Fourier transforms of the equivalently&#45;sin...">
<polygon fill="white" stroke="#666666" points="661.62,-56.25 604.38,-56.25 604.38,-37 661.62,-37 661.62,-56.25"/>
<text text-anchor="middle" x="633" y="-42.75" font-family="Helvetica,sans-Serif" font-size="10.00">analysum</text>
</a>
</g>
</g>
<!-- Node16&#45;&gt;Node17 -->
<g id="edge19_Node000016_Node000017" class="edge">
<title>Node16&#45;&gt;Node17</title>
<g id="a_edge19_Node000016_Node000017"><a xlink:title=" ">
<path fill="none" stroke="#63b8ff" d="M486.46,-29.92C512.8,-32.94 559.73,-38.33 593.18,-42.17"/>
<polygon fill="#63b8ff" stroke="#63b8ff" points="592.62,-45.74 602.95,-43.41 593.42,-38.79 592.62,-45.74"/>
</a>
</g>
</g>
<!-- Node18 -->
<g id="Node000018" class="node">
<title>Node18</title>
<g id="a_Node000018"><a xlink:href="../../d1/d90/analysum2_8f90.html#a47a0d185131a197c6fc62ee5d68d62fb" target="_top" xlink:title="Compute the (m&gt;0 and n&gt;0) part of the DFT of the analytical Fourier transforms of the equivalently&#45;si...">
<polygon fill="white" stroke="#666666" points="664.25,-19.25 601.75,-19.25 601.75,0 664.25,0 664.25,-19.25"/>
<text text-anchor="middle" x="633" y="-5.75" font-family="Helvetica,sans-Serif" font-size="10.00">analysum2</text>
</a>
</g>
</g>
<!-- Node16&#45;&gt;Node18 -->
<g id="edge20_Node000016_Node000018" class="edge">
<title>Node16&#45;&gt;Node18</title>
<g id="a_edge20_Node000016_Node000018"><a xlink:title=" ">
<path fill="none" stroke="#63b8ff" d="M486.46,-25.45C512.11,-22.66 557.27,-17.75 590.5,-14.14"/>
<polygon fill="#63b8ff" stroke="#63b8ff" points="590.7,-17.53 600.27,-12.97 589.95,-10.57 590.7,-17.53"/>
</a>
</g>
</g>
<!-- Node19&#45;&gt;Node13 -->
<g id="edge23_Node000019_Node000013" class="edge">
<title>Node19&#45;&gt;Node13</title>
<g id="a_edge23_Node000019_Node000013"><a xlink:title=" ">
<path fill="none" stroke="#63b8ff" d="M483.35,-68.79C497.23,-72.67 517.11,-79.26 532.75,-88.62 565.79,-108.4 597.81,-140.06 616.17,-159.81"/>
<polygon fill="#63b8ff" stroke="#63b8ff" points="613.06,-161.69 622.39,-166.72 618.23,-156.97 613.06,-161.69"/>
</a>
</g>
</g>
<!-- Node20&#45;&gt;Node13 -->
<g id="edge25_Node000020_Node000013" class="edge">
<title>Node20&#45;&gt;Node13</title>
<g id="a_edge25_Node000020_Node000013"><a xlink:title=" ">
<path fill="none" stroke="#63b8ff" d="M484.84,-144.73C506.77,-149.63 544.49,-158.06 576.25,-165.16"/>
<polygon fill="#63b8ff" stroke="#63b8ff" points="575.24,-168.74 585.76,-167.51 576.76,-161.91 575.24,-168.74"/>
</a>
</g>
</g>
<!-- Node23&#45;&gt;Node13 -->
<g id="edge30_Node000023_Node000013" class="edge">
<title>Node23&#45;&gt;Node13</title>
<g id="a_edge30_Node000023_Node000013"><a xlink:title=" ">
<path fill="none" stroke="#63b8ff" d="M328.48,-437.08C373.19,-436.73 471.57,-429.95 532.75,-380.62 592.51,-332.44 618.9,-239.31 628.02,-198.1"/>
<polygon fill="#63b8ff" stroke="#63b8ff" points="631.61,-199.01 630.23,-188.5 624.76,-197.58 631.61,-199.01"/>
</a>
</g>
</g>
</g>
</svg>
