<?xml version="1.0" encoding="UTF-8" standalone="no"?>
<!DOCTYPE svg PUBLIC "-//W3C//DTD SVG 1.1//EN"
 "http://www.w3.org/Graphics/SVG/1.1/DTD/svg11.dtd">
<!-- Generated by graphviz version 2.49.3 (20211027.1501)
 -->
<!-- Title: nestor Pages: 1 -->
<!--zoomable 317 -->
<svg id="main" version="1.1" xmlns="http://www.w3.org/2000/svg" xmlns:xlink="http://www.w3.org/1999/xlink" xml:space="preserve" onload="init(evt)">
<style type="text/css"><![CDATA[
.edge:hover path { stroke: red; }
.edge:hover polygon { stroke: red; fill: red; }
]]></style>
<script type="text/javascript"><![CDATA[
var edges = document.getElementsByTagName('g');
if (edges && edges.length) {
  for (var i=0;i<edges.length;i++) {
    if (edges[i].id.substr(0,4)=='edge') {
      edges[i].setAttribute('class','edge');
    }
  }
}
]]></script>
        <defs>
                <circle id="rim" cx="0" cy="0" r="7"/>
                <circle id="rim2" cx="0" cy="0" r="3.5"/>
                <g id="zoomPlus">
                        <use xlink:href="#rim" fill="#404040">
                                <set attributeName="fill" to="#808080" begin="zoomplus.mouseover" end="zoomplus.mouseout"/>
                        </use>
                        <path d="M-4,0h8M0,-4v8" fill="none" stroke="white" stroke-width="1.5" pointer-events="none"/>
                </g>
                <g id="zoomMin">
                        <use xlink:href="#rim" fill="#404040">
                                <set attributeName="fill" to="#808080" begin="zoomminus.mouseover" end="zoomminus.mouseout"/>
                        </use>
                        <path d="M-4,0h8" fill="none" stroke="white" stroke-width="1.5" pointer-events="none"/>
                </g>
                <g id="dirArrow">
                        <path fill="none" stroke="white" stroke-width="1.5" d="M0,-3.0v7 M-2.5,-0.5L0,-3.0L2.5,-0.5"/>
                </g>
               <g id="resetDef">
                       <use xlink:href="#rim2" fill="#404040">
                               <set attributeName="fill" to="#808080" begin="reset.mouseover" end="reset.mouseout"/>
                       </use>
               </g>
        </defs>

<script type="text/javascript">
var viewWidth = 644;
var viewHeight = 317;
var sectionId = 'dynsection-0';
</script>
<script xlink:href="../../svgpan.js"/>
<svg id="graph" class="graph">
<g id="viewport">
<title>nestor</title>
<polygon fill="white" stroke="transparent" points="-4,4 -4,-313 640,-313 640,4 -4,4"/>
<!-- Node1 -->
<g id="node1" class="node">
<title>Node1</title>
<g id="a_node1"><a xlink:title="Main program of stand&#45;alone version of NESTOR.">
<polygon fill="#bfbfbf" stroke="black" points="0,-182.5 0,-201.5 44,-201.5 44,-182.5 0,-182.5"/>
<text text-anchor="middle" x="22" y="-189.5" font-family="Helvetica,sans-Serif" font-size="10.00">nestor</text>
</a>
</g>
</g>
<!-- Node2 -->
<g id="node2" class="node">
<title>Node2</title>
<g id="a_node2"><a xlink:href="../../dd/df2/namespacevacmod.html#a30b88ea77408f43e1bedf2c11c0f8d1a" target="_top" xlink:title=" ">
<polygon fill="white" stroke="black" points="84.5,-289.5 84.5,-308.5 206.5,-308.5 206.5,-289.5 84.5,-289.5"/>
<text text-anchor="middle" x="145.5" y="-296.5" font-family="Helvetica,sans-Serif" font-size="10.00">vacmod::allocate_nestor</text>
</a>
</g>
</g>
<!-- Node1&#45;&gt;Node2 -->
<g id="edge1" class="edge">
<title>Node1&#45;&gt;Node2</title>
<path fill="none" stroke="midnightblue" d="M26.54,-201.55C33.75,-219.64 51.85,-258.98 80,-280 82.62,-281.96 85.44,-283.71 88.38,-285.29"/>
<polygon fill="midnightblue" stroke="midnightblue" points="86.95,-288.48 97.5,-289.49 89.88,-282.13 86.95,-288.48"/>
</g>
<!-- Node3 -->
<g id="node3" class="node">
<title>Node3</title>
<g id="a_node3"><a xlink:href="../../dd/df2/namespacevacmod.html#ade3824460b4eb61403c35f6abe95cd89" target="_top" xlink:title=" ">
<polygon fill="white" stroke="black" points="80,-251.5 80,-270.5 211,-270.5 211,-251.5 80,-251.5"/>
<text text-anchor="middle" x="145.5" y="-258.5" font-family="Helvetica,sans-Serif" font-size="10.00">vacmod::free_mem_nestor</text>
</a>
</g>
</g>
<!-- Node1&#45;&gt;Node3 -->
<g id="edge2" class="edge">
<title>Node1&#45;&gt;Node3</title>
<path fill="none" stroke="midnightblue" d="M31.71,-201.88C42.13,-213.13 60.63,-231.33 80,-242 83.96,-244.18 88.2,-246.14 92.54,-247.89"/>
<polygon fill="midnightblue" stroke="midnightblue" points="91.55,-251.25 102.15,-251.39 93.95,-244.67 91.55,-251.25"/>
</g>
<!-- Node4 -->
<g id="node4" class="node">
<title>Node4</title>
<g id="a_node4"><a xlink:href="../../db/dc0/namespacenestor__io.html#a84f85fce5232fbd8ee9eca2f2b5adb0c" target="_top" xlink:title=" ">
<polygon fill="white" stroke="black" points="89.5,-202 89.5,-232 201.5,-232 201.5,-202 89.5,-202"/>
<text text-anchor="start" x="97.5" y="-220" font-family="Helvetica,sans-Serif" font-size="10.00">nestor_io::read_nestor</text>
<text text-anchor="middle" x="145.5" y="-209" font-family="Helvetica,sans-Serif" font-size="10.00">_inputs</text>
</a>
</g>
</g>
<!-- Node1&#45;&gt;Node4 -->
<g id="edge3" class="edge">
<title>Node1&#45;&gt;Node4</title>
<path fill="none" stroke="midnightblue" d="M44.16,-196.35C54.19,-198.42 66.76,-201 79.58,-203.64"/>
<polygon fill="midnightblue" stroke="midnightblue" points="78.89,-207.07 89.39,-205.66 80.3,-200.22 78.89,-207.07"/>
</g>
<!-- Node8 -->
<g id="node8" class="node">
<title>Node8</title>
<g id="a_node8"><a xlink:href="../../d2/d04/namespacevacmod0.html#a4be777018e003400355a27b190d7d39a" target="_top" xlink:title=" ">
<polygon fill="white" stroke="black" points="92,-153 92,-183 199,-183 199,-153 92,-153"/>
<text text-anchor="start" x="100" y="-171" font-family="Helvetica,sans-Serif" font-size="10.00">vacmod0::set_nestor</text>
<text text-anchor="middle" x="145.5" y="-160" font-family="Helvetica,sans-Serif" font-size="10.00">_sizes</text>
</a>
</g>
</g>
<!-- Node1&#45;&gt;Node8 -->
<g id="edge7" class="edge">
<title>Node1&#45;&gt;Node8</title>
<path fill="none" stroke="midnightblue" d="M44.16,-187.82C54.83,-185.71 68.39,-183.03 82.05,-180.34"/>
<polygon fill="midnightblue" stroke="midnightblue" points="82.85,-183.74 91.99,-178.37 81.5,-176.88 82.85,-183.74"/>
</g>
<!-- Node9 -->
<g id="node9" class="node">
<title>Node9</title>
<g id="a_node9"><a xlink:href="../../dd/d6d/vacuum_8f90.html#a0acbc18d2ab7664835d797b42ce49a35" target="_top" xlink:title="Compute the vacuum contribution to the free&#45;boundary energy functional.">
<polygon fill="white" stroke="black" points="120,-114.5 120,-133.5 171,-133.5 171,-114.5 120,-114.5"/>
<text text-anchor="middle" x="145.5" y="-121.5" font-family="Helvetica,sans-Serif" font-size="10.00">vacuum</text>
</a>
</g>
</g>
<!-- Node1&#45;&gt;Node9 -->
<g id="edge8" class="edge">
<title>Node1&#45;&gt;Node9</title>
<path fill="none" stroke="midnightblue" d="M32.19,-182.19C42.78,-171.43 61.16,-154.3 80,-144 89.34,-138.9 100.16,-134.9 110.24,-131.86"/>
<polygon fill="midnightblue" stroke="midnightblue" points="111.3,-135.2 119.99,-129.14 109.42,-128.46 111.3,-135.2"/>
</g>
<!-- Node24 -->
<g id="node24" class="node">
<title>Node24</title>
<g id="a_node24"><a xlink:href="../../db/dc0/namespacenestor__io.html#a288cc8f23cbfe1484ec6815381cc25c8" target="_top" xlink:title=" ">
<polygon fill="white" stroke="black" points="88.5,-65 88.5,-95 202.5,-95 202.5,-65 88.5,-65"/>
<text text-anchor="start" x="96.5" y="-83" font-family="Helvetica,sans-Serif" font-size="10.00">nestor_io::write_nestor</text>
<text text-anchor="middle" x="145.5" y="-72" font-family="Helvetica,sans-Serif" font-size="10.00">_outputs</text>
</a>
</g>
</g>
<!-- Node1&#45;&gt;Node24 -->
<g id="edge24" class="edge">
<title>Node1&#45;&gt;Node24</title>
<path fill="none" stroke="midnightblue" d="M26.85,-182.5C34.46,-164.84 53.05,-126.81 80,-105 82.23,-103.19 84.61,-101.51 87.09,-99.93"/>
<polygon fill="midnightblue" stroke="midnightblue" points="88.83,-102.97 95.82,-95.01 85.39,-96.87 88.83,-102.97"/>
</g>
<!-- Node5 -->
<g id="node5" class="node">
<title>Node5</title>
<g id="a_node5"><a xlink:href="../../d1/d41/namespacemgrid__mod.html#a202373a45f0c5b1f81076da92a1123d0" target="_top" xlink:title=" ">
<polygon fill="white" stroke="black" points="253,-246.5 253,-265.5 370,-265.5 370,-246.5 253,-246.5"/>
<text text-anchor="middle" x="311.5" y="-253.5" font-family="Helvetica,sans-Serif" font-size="10.00">mgrid_mod::read_mgrid</text>
</a>
</g>
</g>
<!-- Node4&#45;&gt;Node5 -->
<g id="edge4" class="edge">
<title>Node4&#45;&gt;Node5</title>
<path fill="none" stroke="midnightblue" d="M201.57,-230.09C220.65,-234.63 241.93,-239.69 260.58,-244.13"/>
<polygon fill="midnightblue" stroke="midnightblue" points="259.82,-247.55 270.36,-246.45 261.44,-240.74 259.82,-247.55"/>
</g>
<!-- Node6 -->
<g id="node6" class="node">
<title>Node6</title>
<g id="a_node6"><a xlink:href="../../d1/d41/namespacemgrid__mod.html#acadb9c6d09345e3d8f91f5800ad7d452" target="_top" xlink:title=" ">
<polygon fill="white" stroke="black" points="412,-284.5 412,-303.5 537,-303.5 537,-284.5 412,-284.5"/>
<text text-anchor="middle" x="474.5" y="-291.5" font-family="Helvetica,sans-Serif" font-size="10.00">mgrid_mod::assign_bptrs</text>
</a>
</g>
</g>
<!-- Node5&#45;&gt;Node6 -->
<g id="edge5" class="edge">
<title>Node5&#45;&gt;Node6</title>
<path fill="none" stroke="midnightblue" d="M353.13,-265.59C374.47,-270.63 400.81,-276.84 423.41,-282.18"/>
<polygon fill="midnightblue" stroke="midnightblue" points="422.63,-285.59 433.17,-284.48 424.24,-278.78 422.63,-285.59"/>
</g>
<!-- Node7 -->
<g id="node7" class="node">
<title>Node7</title>
<g id="a_node7"><a xlink:href="../../d1/d41/namespacemgrid__mod.html#aa4818ade7a169c68f8b7c3a225fd287e" target="_top" xlink:title=" ">
<polygon fill="white" stroke="black" points="416.5,-246.5 416.5,-265.5 532.5,-265.5 532.5,-246.5 416.5,-246.5"/>
<text text-anchor="middle" x="474.5" y="-253.5" font-family="Helvetica,sans-Serif" font-size="10.00">mgrid_mod::sum_bfield</text>
</a>
</g>
</g>
<!-- Node5&#45;&gt;Node7 -->
<g id="edge6" class="edge">
<title>Node5&#45;&gt;Node7</title>
<path fill="none" stroke="midnightblue" d="M370.17,-256C381.75,-256 394.03,-256 405.91,-256"/>
<polygon fill="midnightblue" stroke="midnightblue" points="406.23,-259.5 416.23,-256 406.23,-252.5 406.23,-259.5"/>
</g>
<!-- Node10 -->
<g id="node10" class="node">
<title>Node10</title>
<g id="a_node10"><a xlink:href="../../db/d3d/bextern_8f90.html#a90228cc5f358147ae7f59953d6f9cced" target="_top" xlink:title="Compute the total magnetic field due to external coils and the net toroidal plasma current.">
<polygon fill="white" stroke="black" points="287.5,-208.5 287.5,-227.5 335.5,-227.5 335.5,-208.5 287.5,-208.5"/>
<text text-anchor="middle" x="311.5" y="-215.5" font-family="Helvetica,sans-Serif" font-size="10.00">bextern</text>
</a>
</g>
</g>
<!-- Node9&#45;&gt;Node10 -->
<g id="edge9" class="edge">
<title>Node9&#45;&gt;Node10</title>
<path fill="none" stroke="midnightblue" d="M171,-127.49C183.9,-130.28 199.39,-135.25 211,-144 234.33,-161.59 223.58,-181.53 247,-199 255.88,-205.62 267.05,-209.95 277.55,-212.77"/>
<polygon fill="midnightblue" stroke="midnightblue" points="276.77,-216.19 287.3,-215.05 278.36,-209.37 276.77,-216.19"/>
</g>
<!-- Node13 -->
<g id="node13" class="node">
<title>Node13</title>
<g id="a_node13"><a xlink:href="../../d8/dfd/namespacedbgout.html#af9a9deb4fdfe84878a6e319b15221492" target="_top" xlink:title=" ">
<polygon fill="white" stroke="black" points="247,-152.5 247,-171.5 376,-171.5 376,-152.5 247,-152.5"/>
<text text-anchor="middle" x="311.5" y="-159.5" font-family="Helvetica,sans-Serif" font-size="10.00">dbgout::open_dbg_context</text>
</a>
</g>
</g>
<!-- Node9&#45;&gt;Node13 -->
<g id="edge12" class="edge">
<title>Node9&#45;&gt;Node13</title>
<path fill="none" stroke="midnightblue" d="M171.05,-129.69C194.23,-135.06 229.72,-143.28 259.1,-150.09"/>
<polygon fill="midnightblue" stroke="midnightblue" points="258.67,-153.58 269.2,-152.43 260.25,-146.76 258.67,-153.58"/>
</g>
<!-- Node14 -->
<g id="node14" class="node">
<title>Node14</title>
<g id="a_node14"><a xlink:href="../../dd/d98/precal_8f90.html#a0dae73e848a4757092d7e9786d073d3d" target="_top" xlink:title="Pre&#45;compute constant terms required for NESTOR.">
<polygon fill="white" stroke="black" points="290,-114.5 290,-133.5 333,-133.5 333,-114.5 290,-114.5"/>
<text text-anchor="middle" x="311.5" y="-121.5" font-family="Helvetica,sans-Serif" font-size="10.00">precal</text>
</a>
</g>
</g>
<!-- Node9&#45;&gt;Node14 -->
<g id="edge14" class="edge">
<title>Node9&#45;&gt;Node14</title>
<path fill="none" stroke="midnightblue" d="M171.05,-124C199.99,-124 248.1,-124 279.56,-124"/>
<polygon fill="midnightblue" stroke="midnightblue" points="279.94,-127.5 289.94,-124 279.94,-120.5 279.94,-127.5"/>
</g>
<!-- Node15 -->
<g id="node15" class="node">
<title>Node15</title>
<g id="a_node15"><a xlink:href="../../d0/d19/scalpot_8f90.html#afb9e58849c5a27e486bdf4106f8bb84e" target="_top" xlink:title="Compute all required terms for solving for the scalar magnetic potential.">
<polygon fill="white" stroke="black" points="287.5,-76.5 287.5,-95.5 335.5,-95.5 335.5,-76.5 287.5,-76.5"/>
<text text-anchor="middle" x="311.5" y="-83.5" font-family="Helvetica,sans-Serif" font-size="10.00">scalpot</text>
</a>
</g>
</g>
<!-- Node9&#45;&gt;Node15 -->
<g id="edge15" class="edge">
<title>Node9&#45;&gt;Node15</title>
<path fill="none" stroke="midnightblue" d="M171.05,-118.31C199.31,-111.76 245.86,-100.98 277.33,-93.69"/>
<polygon fill="midnightblue" stroke="midnightblue" points="278.42,-97.03 287.37,-91.36 276.84,-90.21 278.42,-97.03"/>
</g>
<!-- Node22 -->
<g id="node22" class="node">
<title>Node22</title>
<g id="a_node22"><a xlink:href="../../d7/d39/solver_8f90.html#a1e815013ed24a9dddc80410103f4a220" target="_top" xlink:title="Solve a linear system of equations using dgesv.">
<polygon fill="white" stroke="black" points="290,-38.5 290,-57.5 333,-57.5 333,-38.5 290,-38.5"/>
<text text-anchor="middle" x="311.5" y="-45.5" font-family="Helvetica,sans-Serif" font-size="10.00">solver</text>
</a>
</g>
</g>
<!-- Node9&#45;&gt;Node22 -->
<g id="edge22" class="edge">
<title>Node9&#45;&gt;Node22</title>
<path fill="none" stroke="midnightblue" d="M171.3,-119.37C183.83,-116.29 198.91,-111.41 211,-104 230.56,-92.01 227.38,-78.89 247,-67 256.99,-60.94 269.05,-56.7 279.96,-53.79"/>
<polygon fill="midnightblue" stroke="midnightblue" points="281.06,-57.12 289.97,-51.39 279.42,-50.32 281.06,-57.12"/>
</g>
<!-- Node23 -->
<g id="node23" class="node">
<title>Node23</title>
<g id="a_node23"><a xlink:href="../../d6/d03/surface_8f90.html#ad7b6446e720a806f41f10dd1eb0b6f88" target="_top" xlink:title="Evaluate the geometry of the LCFS and tangential derivatives.">
<polygon fill="white" stroke="black" points="287,-0.5 287,-19.5 336,-19.5 336,-0.5 287,-0.5"/>
<text text-anchor="middle" x="311.5" y="-7.5" font-family="Helvetica,sans-Serif" font-size="10.00">surface</text>
</a>
</g>
</g>
<!-- Node9&#45;&gt;Node23 -->
<g id="edge23" class="edge">
<title>Node9&#45;&gt;Node23</title>
<path fill="none" stroke="midnightblue" d="M171.17,-121.17C184.27,-118.57 199.91,-113.57 211,-104 238.99,-79.84 218.89,-53.02 247,-29 255.42,-21.81 266.48,-17.34 277.01,-14.56"/>
<polygon fill="midnightblue" stroke="midnightblue" points="277.84,-17.96 286.84,-12.38 276.32,-11.13 277.84,-17.96"/>
</g>
<!-- Node11 -->
<g id="node11" class="node">
<title>Node11</title>
<g id="a_node11"><a xlink:href="../../d6/dc7/becoil_8f90.html#a449b054fb88bdb4cdf73ef8939654bfb" target="_top" xlink:title="Compute the cylindrical components of the magnetic field due to external coils. by bi&#45;linear interpol...">
<polygon fill="white" stroke="black" points="453.5,-208.5 453.5,-227.5 495.5,-227.5 495.5,-208.5 453.5,-208.5"/>
<text text-anchor="middle" x="474.5" y="-215.5" font-family="Helvetica,sans-Serif" font-size="10.00">becoil</text>
</a>
</g>
</g>
<!-- Node10&#45;&gt;Node11 -->
<g id="edge10" class="edge">
<title>Node10&#45;&gt;Node11</title>
<path fill="none" stroke="midnightblue" d="M335.57,-218C363.72,-218 411.44,-218 442.71,-218"/>
<polygon fill="midnightblue" stroke="midnightblue" points="443.03,-221.5 453.02,-218 443.02,-214.5 443.03,-221.5"/>
</g>
<!-- Node12 -->
<g id="node12" class="node">
<title>Node12</title>
<g id="a_node12"><a xlink:href="../../d9/dda/belicu_8f90.html#a53e6f162ca96069b8d93e131069ddf5d" target="_top" xlink:title="Magnetic field due to net toroidal current modeled by a filament along the magnetic axis.">
<polygon fill="white" stroke="black" points="453.5,-170.5 453.5,-189.5 495.5,-189.5 495.5,-170.5 453.5,-170.5"/>
<text text-anchor="middle" x="474.5" y="-177.5" font-family="Helvetica,sans-Serif" font-size="10.00">belicu</text>
</a>
</g>
</g>
<!-- Node10&#45;&gt;Node12 -->
<g id="edge11" class="edge">
<title>Node10&#45;&gt;Node12</title>
<path fill="none" stroke="midnightblue" d="M335.57,-212.56C363.85,-205.88 411.86,-194.55 443.12,-187.17"/>
<polygon fill="midnightblue" stroke="midnightblue" points="444.1,-190.54 453.02,-184.83 442.49,-183.72 444.1,-190.54"/>
</g>
<!-- Node13&#45;&gt;Node13 -->
<g id="edge13" class="edge">
<title>Node13&#45;&gt;Node13</title>
<path fill="none" stroke="midnightblue" d="M286.53,-171.76C274.38,-180.57 282.71,-190 311.5,-190 330.85,-190 340.95,-185.74 341.81,-180.27"/>
<polygon fill="midnightblue" stroke="midnightblue" points="344.75,-178.37 336.47,-171.76 338.82,-182.09 344.75,-178.37"/>
</g>
<!-- Node16 -->
<g id="node16" class="node">
<title>Node16</title>
<g id="a_node16"><a xlink:href="../../da/d73/analyt_8f90.html#a60edcf4884aa60f6d96c258a97255756" target="_top" xlink:title="Compute the analytical&#45;and&#45;numerical 4D Fourier integrals over the equivalently&#45;singular functions.">
<polygon fill="white" stroke="black" points="453.5,-123.5 453.5,-142.5 495.5,-142.5 495.5,-123.5 453.5,-123.5"/>
<text text-anchor="middle" x="474.5" y="-130.5" font-family="Helvetica,sans-Serif" font-size="10.00">analyt</text>
</a>
</g>
</g>
<!-- Node15&#45;&gt;Node16 -->
<g id="edge16" class="edge">
<title>Node15&#45;&gt;Node16</title>
<path fill="none" stroke="midnightblue" d="M335.57,-92.73C363.85,-100.99 411.86,-115 443.12,-124.13"/>
<polygon fill="midnightblue" stroke="midnightblue" points="442.44,-127.58 453.02,-127.02 444.41,-120.86 442.44,-127.58"/>
</g>
<!-- Node19 -->
<g id="node19" class="node">
<title>Node19</title>
<g id="a_node19"><a xlink:href="../../d6/d77/fouri_8f90.html#a0f902f8d584a395f9db7175079d273c7" target="_top" xlink:title="Compute Fourier integrals and build amatrix.">
<polygon fill="white" stroke="black" points="457,-85.5 457,-104.5 492,-104.5 492,-85.5 457,-85.5"/>
<text text-anchor="middle" x="474.5" y="-92.5" font-family="Helvetica,sans-Serif" font-size="10.00">fouri</text>
</a>
</g>
</g>
<!-- Node15&#45;&gt;Node19 -->
<g id="edge19" class="edge">
<title>Node15&#45;&gt;Node19</title>
<path fill="none" stroke="midnightblue" d="M335.57,-87.29C364.97,-88.93 415.69,-91.77 446.76,-93.5"/>
<polygon fill="midnightblue" stroke="midnightblue" points="446.68,-97.01 456.86,-94.07 447.07,-90.02 446.68,-97.01"/>
</g>
<!-- Node20 -->
<g id="node20" class="node">
<title>Node20</title>
<g id="a_node20"><a xlink:href="../../d0/d1c/fourp_8f90.html#add725dd420251115fd60182dc992503c" target="_top" xlink:title="Perform Fourier integrals of Green&#39;s function kernel.">
<polygon fill="white" stroke="black" points="455.5,-47.5 455.5,-66.5 493.5,-66.5 493.5,-47.5 455.5,-47.5"/>
<text text-anchor="middle" x="474.5" y="-54.5" font-family="Helvetica,sans-Serif" font-size="10.00">fourp</text>
</a>
</g>
</g>
<!-- Node15&#45;&gt;Node20 -->
<g id="edge20" class="edge">
<title>Node15&#45;&gt;Node20</title>
<path fill="none" stroke="midnightblue" d="M335.57,-81.85C364.5,-76.63 414.09,-67.7 445.26,-62.09"/>
<polygon fill="midnightblue" stroke="midnightblue" points="446.24,-65.47 455.46,-60.25 444.99,-58.58 446.24,-65.47"/>
</g>
<!-- Node21 -->
<g id="node21" class="node">
<title>Node21</title>
<g id="a_node21"><a xlink:href="../../df/d2d/greenf_8f90.html#acd9d25905cc799c9fcd4d08a3cbb1e65" target="_top" xlink:title="Compute the regularized evaluation of the Green&#39;s function and the source term.">
<polygon fill="white" stroke="black" points="452.5,-9.5 452.5,-28.5 496.5,-28.5 496.5,-9.5 452.5,-9.5"/>
<text text-anchor="middle" x="474.5" y="-16.5" font-family="Helvetica,sans-Serif" font-size="10.00">greenf</text>
</a>
</g>
</g>
<!-- Node15&#45;&gt;Node21 -->
<g id="edge21" class="edge">
<title>Node15&#45;&gt;Node21</title>
<path fill="none" stroke="midnightblue" d="M335.67,-81.35C348.08,-78.31 363.37,-73.65 376,-67 394.18,-57.43 393.86,-47.65 412,-38 421.47,-32.96 432.49,-29.03 442.56,-26.08"/>
<polygon fill="midnightblue" stroke="midnightblue" points="443.49,-29.46 452.22,-23.46 441.65,-22.7 443.49,-29.46"/>
</g>
<!-- Node17 -->
<g id="node17" class="node">
<title>Node17</title>
<g id="a_node17"><a xlink:href="../../df/df3/analysum_8f90.html#aa51b1a5786e7b5719fe2ca679efc66b0" target="_top" xlink:title="Compute the (m=0 or n=0) part of the DFT of the analytical Fourier transforms of the equivalently&#45;sin...">
<polygon fill="white" stroke="black" points="575.5,-142.5 575.5,-161.5 633.5,-161.5 633.5,-142.5 575.5,-142.5"/>
<text text-anchor="middle" x="604.5" y="-149.5" font-family="Helvetica,sans-Serif" font-size="10.00">analysum</text>
</a>
</g>
</g>
<!-- Node16&#45;&gt;Node17 -->
<g id="edge17" class="edge">
<title>Node16&#45;&gt;Node17</title>
<path fill="none" stroke="midnightblue" d="M495.78,-136.01C514.37,-138.77 542.37,-142.93 565.17,-146.31"/>
<polygon fill="midnightblue" stroke="midnightblue" points="564.82,-149.8 575.22,-147.8 565.84,-142.87 564.82,-149.8"/>
</g>
<!-- Node18 -->
<g id="node18" class="node">
<title>Node18</title>
<g id="a_node18"><a xlink:href="../../d1/d90/analysum2_8f90.html#a47a0d185131a197c6fc62ee5d68d62fb" target="_top" xlink:title="Compute the (m&gt;0 and n&gt;0) part of the DFT of the analytical Fourier transforms of the equivalently&#45;si...">
<polygon fill="white" stroke="black" points="573,-104.5 573,-123.5 636,-123.5 636,-104.5 573,-104.5"/>
<text text-anchor="middle" x="604.5" y="-111.5" font-family="Helvetica,sans-Serif" font-size="10.00">analysum2</text>
</a>
</g>
</g>
<!-- Node16&#45;&gt;Node18 -->
<g id="edge18" class="edge">
<title>Node16&#45;&gt;Node18</title>
<path fill="none" stroke="midnightblue" d="M495.78,-129.99C513.75,-127.32 540.54,-123.35 562.9,-120.03"/>
<polygon fill="midnightblue" stroke="midnightblue" points="563.44,-123.48 572.82,-118.55 562.41,-116.56 563.44,-123.48"/>
</g>
</g>
</svg>
        <g id="navigator" transform="translate(0 0)" fill="#404254">
                <rect fill="#f2f5e9" fill-opacity="0.5" stroke="#606060" stroke-width=".5" x="0" y="0" width="60" height="60"/>
                <use id="zoomplus" xlink:href="#zoomPlus" x="17" y="9" onmousedown="handleZoom(evt,'in')"/>
                <use id="zoomminus" xlink:href="#zoomMin" x="42" y="9" onmousedown="handleZoom(evt,'out')"/>
                <use id="reset" xlink:href="#resetDef" x="30" y="36" onmousedown="handleReset()"/>
                <g id="arrowUp" xlink:href="#dirArrow" transform="translate(30 24)" onmousedown="handlePan(0,-1)">
                  <use xlink:href="#rim" fill="#404040">
                        <set attributeName="fill" to="#808080" begin="arrowUp.mouseover" end="arrowUp.mouseout"/>
                  </use>
                  <path fill="none" stroke="white" stroke-width="1.5" d="M0,-3.0v7 M-2.5,-0.5L0,-3.0L2.5,-0.5"/>
                </g>
                <g id="arrowRight" xlink:href="#dirArrow" transform="rotate(90) translate(36 -43)" onmousedown="handlePan(1,0)">
                  <use xlink:href="#rim" fill="#404040">
                        <set attributeName="fill" to="#808080" begin="arrowRight.mouseover" end="arrowRight.mouseout"/>
                  </use>
                  <path fill="none" stroke="white" stroke-width="1.5" d="M0,-3.0v7 M-2.5,-0.5L0,-3.0L2.5,-0.5"/>
                </g>
                <g id="arrowDown" xlink:href="#dirArrow" transform="rotate(180) translate(-30 -48)" onmousedown="handlePan(0,1)">
                  <use xlink:href="#rim" fill="#404040">
                        <set attributeName="fill" to="#808080" begin="arrowDown.mouseover" end="arrowDown.mouseout"/>
                  </use>
                  <path fill="none" stroke="white" stroke-width="1.5" d="M0,-3.0v7 M-2.5,-0.5L0,-3.0L2.5,-0.5"/>
                </g>
                <g id="arrowLeft" xlink:href="#dirArrow" transform="rotate(270) translate(-36 17)" onmousedown="handlePan(-1,0)">
                  <use xlink:href="#rim" fill="#404040">
                        <set attributeName="fill" to="#808080" begin="arrowLeft.mouseover" end="arrowLeft.mouseout"/>
                  </use>
                  <path fill="none" stroke="white" stroke-width="1.5" d="M0,-3.0v7 M-2.5,-0.5L0,-3.0L2.5,-0.5"/>
                </g>
        </g>
        <svg viewBox="0 0 15 15" width="100%" height="30px" preserveAspectRatio="xMaxYMin meet">
         <g id="arrow_out" transform="scale(0.3 0.3)">
          <a xlink:href="nestor__main_8f90_a1b0fd336e80285a96925333daa2ee8f0_cgraph_org.svg" target="_base">
           <rect id="button" ry="5" rx="5" y="6" x="6" height="38" width="38"
                fill="#f2f5e9" fill-opacity="0.5" stroke="#606060" stroke-width="1.0"/>
           <path id="arrow"
             d="M 11.500037,31.436501 C 11.940474,20.09759 22.043105,11.32322 32.158766,21.979434 L 37.068811,17.246167 C 37.068811,17.246167 37.088388,32 37.088388,32 L 22.160133,31.978069 C 22.160133,31.978069 26.997745,27.140456 26.997745,27.140456 C 18.528582,18.264221 13.291696,25.230495 11.500037,31.436501 z"
             style="fill:#404040;"/>
          </a>
         </g>
        </svg>
</svg>
