<?xml version="1.0" encoding="UTF-8" standalone="no"?>
<!DOCTYPE svg PUBLIC "-//W3C//DTD SVG 1.1//EN"
 "http://www.w3.org/Graphics/SVG/1.1/DTD/svg11.dtd">
<!-- Generated by graphviz version 2.50.0 (20220203.2022)
 -->
<!-- Title: nestor Pages: 1 -->
<svg width="708pt" height="554pt"
 viewBox="0.00 0.00 708.00 554.00" xmlns="http://www.w3.org/2000/svg" xmlns:xlink="http://www.w3.org/1999/xlink">
<g id="graph0" class="graph" transform="scale(1 1) rotate(0) translate(4 550)">
<title>nestor</title>
<polygon fill="white" stroke="transparent" points="-4,4 -4,-550 704,-550 704,4 -4,4"/>
<!-- Node1 -->
<g id="node1" class="node">
<title>Node1</title>
<g id="a_node1"><a xlink:title="Main program of stand&#45;alone version of NESTOR.">
<polygon fill="#bfbfbf" stroke="black" points="0,-419.5 0,-438.5 44,-438.5 44,-419.5 0,-419.5"/>
<text text-anchor="middle" x="22" y="-426.5" font-family="Helvetica,sans-Serif" font-size="10.00">nestor</text>
</a>
</g>
</g>
<!-- Node2 -->
<g id="node2" class="node">
<title>Node2</title>
<g id="a_node2"><a xlink:href="../../dd/df2/namespacevacmod.html#a30b88ea77408f43e1bedf2c11c0f8d1a" target="_top" xlink:title=" ">
<polygon fill="white" stroke="black" points="84.5,-526.5 84.5,-545.5 206.5,-545.5 206.5,-526.5 84.5,-526.5"/>
<text text-anchor="middle" x="145.5" y="-533.5" font-family="Helvetica,sans-Serif" font-size="10.00">vacmod::allocate_nestor</text>
</a>
</g>
</g>
<!-- Node1&#45;&gt;Node2 -->
<g id="edge1" class="edge">
<title>Node1&#45;&gt;Node2</title>
<path fill="none" stroke="midnightblue" d="M26.54,-438.55C33.75,-456.64 51.85,-495.98 80,-517 82.62,-518.96 85.44,-520.71 88.38,-522.29"/>
<polygon fill="midnightblue" stroke="midnightblue" points="86.95,-525.48 97.5,-526.49 89.88,-519.13 86.95,-525.48"/>
</g>
<!-- Node3 -->
<g id="node3" class="node">
<title>Node3</title>
<g id="a_node3"><a xlink:href="../../dd/df2/namespacevacmod.html#ade3824460b4eb61403c35f6abe95cd89" target="_top" xlink:title=" ">
<polygon fill="white" stroke="black" points="80,-488.5 80,-507.5 211,-507.5 211,-488.5 80,-488.5"/>
<text text-anchor="middle" x="145.5" y="-495.5" font-family="Helvetica,sans-Serif" font-size="10.00">vacmod::free_mem_nestor</text>
</a>
</g>
</g>
<!-- Node1&#45;&gt;Node3 -->
<g id="edge2" class="edge">
<title>Node1&#45;&gt;Node3</title>
<path fill="none" stroke="midnightblue" d="M31.71,-438.88C42.13,-450.13 60.63,-468.33 80,-479 83.96,-481.18 88.2,-483.14 92.54,-484.89"/>
<polygon fill="midnightblue" stroke="midnightblue" points="91.55,-488.25 102.15,-488.39 93.95,-481.67 91.55,-488.25"/>
</g>
<!-- Node4 -->
<g id="node4" class="node">
<title>Node4</title>
<g id="a_node4"><a xlink:href="../../db/dc0/namespacenestor__io.html#a84f85fce5232fbd8ee9eca2f2b5adb0c" target="_top" xlink:title=" ">
<polygon fill="white" stroke="black" points="89.5,-439 89.5,-469 201.5,-469 201.5,-439 89.5,-439"/>
<text text-anchor="start" x="97.5" y="-457" font-family="Helvetica,sans-Serif" font-size="10.00">nestor_io::read_nestor</text>
<text text-anchor="middle" x="145.5" y="-446" font-family="Helvetica,sans-Serif" font-size="10.00">_inputs</text>
</a>
</g>
</g>
<!-- Node1&#45;&gt;Node4 -->
<g id="edge3" class="edge">
<title>Node1&#45;&gt;Node4</title>
<path fill="none" stroke="midnightblue" d="M44.16,-433.35C54.19,-435.42 66.76,-438 79.58,-440.64"/>
<polygon fill="midnightblue" stroke="midnightblue" points="78.89,-444.07 89.39,-442.66 80.3,-437.22 78.89,-444.07"/>
</g>
<!-- Node8 -->
<g id="node8" class="node">
<title>Node8</title>
<g id="a_node8"><a xlink:href="../../d2/d04/namespacevacmod0.html#a4be777018e003400355a27b190d7d39a" target="_top" xlink:title=" ">
<polygon fill="white" stroke="black" points="92,-390 92,-420 199,-420 199,-390 92,-390"/>
<text text-anchor="start" x="100" y="-408" font-family="Helvetica,sans-Serif" font-size="10.00">vacmod0::set_nestor</text>
<text text-anchor="middle" x="145.5" y="-397" font-family="Helvetica,sans-Serif" font-size="10.00">_sizes</text>
</a>
</g>
</g>
<!-- Node1&#45;&gt;Node8 -->
<g id="edge7" class="edge">
<title>Node1&#45;&gt;Node8</title>
<path fill="none" stroke="midnightblue" d="M44.16,-424.82C54.83,-422.71 68.39,-420.03 82.05,-417.34"/>
<polygon fill="midnightblue" stroke="midnightblue" points="82.85,-420.74 91.99,-415.37 81.5,-413.88 82.85,-420.74"/>
</g>
<!-- Node9 -->
<g id="node9" class="node">
<title>Node9</title>
<g id="a_node9"><a xlink:href="../../dd/d6d/vacuum_8f90.html#a0acbc18d2ab7664835d797b42ce49a35" target="_top" xlink:title="Compute the vacuum contribution to the free&#45;boundary energy functional.">
<polygon fill="white" stroke="black" points="120,-351.5 120,-370.5 171,-370.5 171,-351.5 120,-351.5"/>
<text text-anchor="middle" x="145.5" y="-358.5" font-family="Helvetica,sans-Serif" font-size="10.00">vacuum</text>
</a>
</g>
</g>
<!-- Node1&#45;&gt;Node9 -->
<g id="edge8" class="edge">
<title>Node1&#45;&gt;Node9</title>
<path fill="none" stroke="midnightblue" d="M32.19,-419.19C42.78,-408.43 61.16,-391.3 80,-381 89.34,-375.9 100.16,-371.9 110.24,-368.86"/>
<polygon fill="midnightblue" stroke="midnightblue" points="111.3,-372.2 119.99,-366.14 109.42,-365.46 111.3,-372.2"/>
</g>
<!-- Node24 -->
<g id="node24" class="node">
<title>Node24</title>
<g id="a_node24"><a xlink:href="../../db/dc0/namespacenestor__io.html#a288cc8f23cbfe1484ec6815381cc25c8" target="_top" xlink:title=" ">
<polygon fill="white" stroke="black" points="88.5,-302 88.5,-332 202.5,-332 202.5,-302 88.5,-302"/>
<text text-anchor="start" x="96.5" y="-320" font-family="Helvetica,sans-Serif" font-size="10.00">nestor_io::write_nestor</text>
<text text-anchor="middle" x="145.5" y="-309" font-family="Helvetica,sans-Serif" font-size="10.00">_outputs</text>
</a>
</g>
</g>
<!-- Node1&#45;&gt;Node24 -->
<g id="edge31" class="edge">
<title>Node1&#45;&gt;Node24</title>
<path fill="none" stroke="midnightblue" d="M26.85,-419.5C34.46,-401.84 53.05,-363.81 80,-342 82.23,-340.19 84.61,-338.51 87.09,-336.93"/>
<polygon fill="midnightblue" stroke="midnightblue" points="88.83,-339.97 95.82,-332.01 85.39,-333.87 88.83,-339.97"/>
</g>
<!-- Node5 -->
<g id="node5" class="node">
<title>Node5</title>
<g id="a_node5"><a xlink:href="../../d1/d41/namespacemgrid__mod.html#a202373a45f0c5b1f81076da92a1123d0" target="_top" xlink:title=" ">
<polygon fill="white" stroke="black" points="247,-465.5 247,-484.5 364,-484.5 364,-465.5 247,-465.5"/>
<text text-anchor="middle" x="305.5" y="-472.5" font-family="Helvetica,sans-Serif" font-size="10.00">mgrid_mod::read_mgrid</text>
</a>
</g>
</g>
<!-- Node4&#45;&gt;Node5 -->
<g id="edge4" class="edge">
<title>Node4&#45;&gt;Node5</title>
<path fill="none" stroke="midnightblue" d="M201.76,-461.34C213.05,-462.85 225.05,-464.44 236.72,-465.99"/>
<polygon fill="midnightblue" stroke="midnightblue" points="236.48,-469.49 246.86,-467.34 237.41,-462.55 236.48,-469.49"/>
</g>
<!-- Node6 -->
<g id="node6" class="node">
<title>Node6</title>
<g id="a_node6"><a xlink:href="../../d0/d29/namespacesafe__open__mod.html#aab207f9769415b0cccd91260a8382eeb" target="_top" xlink:title=" ">
<polygon fill="white" stroke="black" points="400,-503.5 400,-522.5 535,-522.5 535,-503.5 400,-503.5"/>
<text text-anchor="middle" x="467.5" y="-510.5" font-family="Helvetica,sans-Serif" font-size="10.00">safe_open_mod::safe_open</text>
</a>
</g>
</g>
<!-- Node5&#45;&gt;Node6 -->
<g id="edge5" class="edge">
<title>Node5&#45;&gt;Node6</title>
<path fill="none" stroke="midnightblue" d="M346.87,-484.59C367.99,-489.6 394.03,-495.79 416.42,-501.11"/>
<polygon fill="midnightblue" stroke="midnightblue" points="415.88,-504.57 426.42,-503.48 417.49,-497.76 415.88,-504.57"/>
</g>
<!-- Node7 -->
<g id="node7" class="node">
<title>Node7</title>
<g id="a_node7"><a xlink:href="../../d1/d41/namespacemgrid__mod.html#aa4818ade7a169c68f8b7c3a225fd287e" target="_top" xlink:title=" ">
<polygon fill="white" stroke="black" points="409.5,-465.5 409.5,-484.5 525.5,-484.5 525.5,-465.5 409.5,-465.5"/>
<text text-anchor="middle" x="467.5" y="-472.5" font-family="Helvetica,sans-Serif" font-size="10.00">mgrid_mod::sum_bfield</text>
</a>
</g>
</g>
<!-- Node5&#45;&gt;Node7 -->
<g id="edge6" class="edge">
<title>Node5&#45;&gt;Node7</title>
<path fill="none" stroke="midnightblue" d="M364.26,-475C375.62,-475 387.62,-475 399.25,-475"/>
<polygon fill="midnightblue" stroke="midnightblue" points="399.36,-478.5 409.36,-475 399.36,-471.5 399.36,-478.5"/>
</g>
<!-- Node10 -->
<g id="node10" class="node">
<title>Node10</title>
<g id="a_node10"><a xlink:href="../../db/d3d/bextern_8f90.html#a90228cc5f358147ae7f59953d6f9cced" target="_top" xlink:title="Compute the total magnetic field due to external coils and the net toroidal plasma current.">
<polygon fill="white" stroke="black" points="281.5,-304.5 281.5,-323.5 329.5,-323.5 329.5,-304.5 281.5,-304.5"/>
<text text-anchor="middle" x="305.5" y="-311.5" font-family="Helvetica,sans-Serif" font-size="10.00">bextern</text>
</a>
</g>
</g>
<!-- Node9&#45;&gt;Node10 -->
<g id="edge9" class="edge">
<title>Node9&#45;&gt;Node10</title>
<path fill="none" stroke="midnightblue" d="M171.01,-353.81C183.06,-350.27 197.8,-345.92 211,-342 231.19,-336 253.82,-329.23 271.75,-323.85"/>
<polygon fill="midnightblue" stroke="midnightblue" points="272.88,-327.16 281.45,-320.93 270.87,-320.46 272.88,-327.16"/>
</g>
<!-- Node13 -->
<g id="node13" class="node">
<title>Node13</title>
<g id="a_node13"><a xlink:href="../../d8/dfd/namespacedbgout.html#acdd1612a38e44b6469dc03d9d1c6ceed" target="_top" xlink:title="check if any output is desired for the current iteration check if the given context should be openend...">
<polygon fill="white" stroke="black" points="571,-171.5 571,-190.5 700,-190.5 700,-171.5 571,-171.5"/>
<text text-anchor="middle" x="635.5" y="-178.5" font-family="Helvetica,sans-Serif" font-size="10.00">dbgout::open_dbg_context</text>
</a>
</g>
</g>
<!-- Node9&#45;&gt;Node13 -->
<g id="edge14" class="edge">
<title>Node9&#45;&gt;Node13</title>
<path fill="none" stroke="midnightblue" d="M171.26,-363.49C246.87,-370.63 473.35,-388.41 535,-352 592.09,-318.28 619.66,-238.19 629.76,-200.83"/>
<polygon fill="midnightblue" stroke="midnightblue" points="633.27,-201.26 632.35,-190.7 626.48,-199.52 633.27,-201.26"/>
</g>
<!-- Node14 -->
<g id="node14" class="node">
<title>Node14</title>
<g id="a_node14"><a xlink:href="../../dd/d98/precal_8f90.html#a0dae73e848a4757092d7e9786d073d3d" target="_top" xlink:title="Pre&#45;compute constant terms required for NESTOR.">
<polygon fill="white" stroke="black" points="284,-237.5 284,-256.5 327,-256.5 327,-237.5 284,-237.5"/>
<text text-anchor="middle" x="305.5" y="-244.5" font-family="Helvetica,sans-Serif" font-size="10.00">precal</text>
</a>
</g>
</g>
<!-- Node9&#45;&gt;Node14 -->
<g id="edge15" class="edge">
<title>Node9&#45;&gt;Node14</title>
<path fill="none" stroke="midnightblue" d="M171.05,-357.53C183.81,-354.83 199.16,-350.13 211,-342 232.69,-327.1 228.79,-313.99 247,-295 258.19,-283.33 272.07,-271.68 283.39,-262.77"/>
<polygon fill="midnightblue" stroke="midnightblue" points="285.68,-265.43 291.46,-256.55 281.4,-259.89 285.68,-265.43"/>
</g>
<!-- Node15 -->
<g id="node15" class="node">
<title>Node15</title>
<g id="a_node15"><a xlink:href="../../d0/d19/scalpot_8f90.html#afb9e58849c5a27e486bdf4106f8bb84e" target="_top" xlink:title="Compute all required terms for solving for the scalar magnetic potential.">
<polygon fill="white" stroke="black" points="281.5,-114.5 281.5,-133.5 329.5,-133.5 329.5,-114.5 281.5,-114.5"/>
<text text-anchor="middle" x="305.5" y="-121.5" font-family="Helvetica,sans-Serif" font-size="10.00">scalpot</text>
</a>
</g>
</g>
<!-- Node9&#45;&gt;Node15 -->
<g id="edge17" class="edge">
<title>Node9&#45;&gt;Node15</title>
<path fill="none" stroke="midnightblue" d="M171.07,-359.3C184.46,-357.14 200.42,-352.38 211,-342 248.93,-304.8 226.04,-276.82 247,-228 260.42,-196.74 280.41,-162.6 292.93,-142.26"/>
<polygon fill="midnightblue" stroke="midnightblue" points="295.95,-144.04 298.27,-133.71 290.01,-140.34 295.95,-144.04"/>
</g>
<!-- Node22 -->
<g id="node22" class="node">
<title>Node22</title>
<g id="a_node22"><a xlink:href="../../d7/d39/solver_8f90.html#a1e815013ed24a9dddc80410103f4a220" target="_top" xlink:title="Solve a linear system of equations using dgesv.">
<polygon fill="white" stroke="black" points="284,-389.5 284,-408.5 327,-408.5 327,-389.5 284,-389.5"/>
<text text-anchor="middle" x="305.5" y="-396.5" font-family="Helvetica,sans-Serif" font-size="10.00">solver</text>
</a>
</g>
</g>
<!-- Node9&#45;&gt;Node22 -->
<g id="edge28" class="edge">
<title>Node9&#45;&gt;Node22</title>
<path fill="none" stroke="midnightblue" d="M171.19,-366.94C198.83,-373.58 243.66,-384.37 273.6,-391.57"/>
<polygon fill="midnightblue" stroke="midnightblue" points="272.98,-395.02 283.52,-393.95 274.61,-388.21 272.98,-395.02"/>
</g>
<!-- Node23 -->
<g id="node23" class="node">
<title>Node23</title>
<g id="a_node23"><a xlink:href="../../d6/d03/surface_8f90.html#ad7b6446e720a806f41f10dd1eb0b6f88" target="_top" xlink:title="Evaluate the geometry of the LCFS and tangential derivatives.">
<polygon fill="white" stroke="black" points="281,-427.5 281,-446.5 330,-446.5 330,-427.5 281,-427.5"/>
<text text-anchor="middle" x="305.5" y="-434.5" font-family="Helvetica,sans-Serif" font-size="10.00">surface</text>
</a>
</g>
</g>
<!-- Node9&#45;&gt;Node23 -->
<g id="edge29" class="edge">
<title>Node9&#45;&gt;Node23</title>
<path fill="none" stroke="midnightblue" d="M171.3,-365.63C183.83,-368.71 198.91,-373.59 211,-381 230.56,-392.99 227.55,-405.83 247,-418 254.35,-422.6 262.93,-426.21 271.19,-428.98"/>
<polygon fill="midnightblue" stroke="midnightblue" points="270.41,-432.41 280.99,-431.97 272.45,-425.71 270.41,-432.41"/>
</g>
<!-- Node11 -->
<g id="node11" class="node">
<title>Node11</title>
<g id="a_node11"><a xlink:href="../../d6/dc7/becoil_8f90.html#a449b054fb88bdb4cdf73ef8939654bfb" target="_top" xlink:title="Compute the cylindrical components of the magnetic field due to external coils. by bi&#45;linear interpol...">
<polygon fill="white" stroke="black" points="446.5,-323.5 446.5,-342.5 488.5,-342.5 488.5,-323.5 446.5,-323.5"/>
<text text-anchor="middle" x="467.5" y="-330.5" font-family="Helvetica,sans-Serif" font-size="10.00">becoil</text>
</a>
</g>
</g>
<!-- Node10&#45;&gt;Node11 -->
<g id="edge10" class="edge">
<title>Node10&#45;&gt;Node11</title>
<path fill="none" stroke="midnightblue" d="M329.77,-316.76C357.83,-320.1 405.09,-325.71 436.04,-329.38"/>
<polygon fill="midnightblue" stroke="midnightblue" points="435.9,-332.89 446.25,-330.59 436.73,-325.94 435.9,-332.89"/>
</g>
<!-- Node12 -->
<g id="node12" class="node">
<title>Node12</title>
<g id="a_node12"><a xlink:href="../../d9/dda/belicu_8f90.html#a53e6f162ca96069b8d93e131069ddf5d" target="_top" xlink:title="Magnetic field due to net toroidal current modeled by a filament along the magnetic axis.">
<polygon fill="white" stroke="black" points="446.5,-285.5 446.5,-304.5 488.5,-304.5 488.5,-285.5 446.5,-285.5"/>
<text text-anchor="middle" x="467.5" y="-292.5" font-family="Helvetica,sans-Serif" font-size="10.00">belicu</text>
</a>
</g>
</g>
<!-- Node10&#45;&gt;Node12 -->
<g id="edge11" class="edge">
<title>Node10&#45;&gt;Node12</title>
<path fill="none" stroke="midnightblue" d="M329.77,-311.24C357.83,-307.9 405.09,-302.29 436.04,-298.62"/>
<polygon fill="midnightblue" stroke="midnightblue" points="436.73,-302.06 446.25,-297.41 435.9,-295.11 436.73,-302.06"/>
</g>
<!-- Node10&#45;&gt;Node13 -->
<g id="edge12" class="edge">
<title>Node10&#45;&gt;Node13</title>
<path fill="none" stroke="midnightblue" d="M329.05,-304.46C347.9,-296.57 375.57,-285.21 400,-276 459.45,-253.59 476.29,-253.29 535,-229 559.83,-218.73 587.27,-205.33 607.04,-195.3"/>
<polygon fill="midnightblue" stroke="midnightblue" points="608.78,-198.34 616.08,-190.67 605.59,-192.11 608.78,-198.34"/>
</g>
<!-- Node13&#45;&gt;Node13 -->
<g id="edge13" class="edge">
<title>Node13&#45;&gt;Node13</title>
<path fill="none" stroke="midnightblue" d="M609.61,-190.76C597.01,-199.57 605.64,-209 635.5,-209 655.56,-209 666.04,-204.74 666.94,-199.27"/>
<polygon fill="midnightblue" stroke="midnightblue" points="669.78,-197.23 661.39,-190.76 663.92,-201.05 669.78,-197.23"/>
</g>
<!-- Node14&#45;&gt;Node13 -->
<g id="edge16" class="edge">
<title>Node14&#45;&gt;Node13</title>
<path fill="none" stroke="midnightblue" d="M327.02,-242.87C376.24,-232.97 502.48,-207.57 577.01,-192.57"/>
<polygon fill="midnightblue" stroke="midnightblue" points="578.05,-195.93 587.17,-190.52 576.67,-189.07 578.05,-195.93"/>
</g>
<!-- Node15&#45;&gt;Node13 -->
<g id="edge27" class="edge">
<title>Node15&#45;&gt;Node13</title>
<path fill="none" stroke="midnightblue" d="M329.71,-120.13C371.58,-114 462.16,-104.61 535,-124 564.89,-131.96 595.16,-151.25 614.33,-165.2"/>
<polygon fill="midnightblue" stroke="midnightblue" points="612.45,-168.16 622.55,-171.35 616.64,-162.56 612.45,-168.16"/>
</g>
<!-- Node16 -->
<g id="node16" class="node">
<title>Node16</title>
<g id="a_node16"><a xlink:href="../../da/d73/analyt_8f90.html#a60edcf4884aa60f6d96c258a97255756" target="_top" xlink:title="Compute the analytical&#45;and&#45;numerical 4D Fourier integrals over the equivalently&#45;singular functions.">
<polygon fill="white" stroke="black" points="446.5,-19.5 446.5,-38.5 488.5,-38.5 488.5,-19.5 446.5,-19.5"/>
<text text-anchor="middle" x="467.5" y="-26.5" font-family="Helvetica,sans-Serif" font-size="10.00">analyt</text>
</a>
</g>
</g>
<!-- Node15&#45;&gt;Node16 -->
<g id="edge18" class="edge">
<title>Node15&#45;&gt;Node16</title>
<path fill="none" stroke="midnightblue" d="M315.66,-114.35C331.41,-98.3 365.31,-66.08 400,-48 411.28,-42.12 424.62,-37.85 436.37,-34.87"/>
<polygon fill="midnightblue" stroke="midnightblue" points="437.27,-38.26 446.21,-32.57 435.67,-31.44 437.27,-38.26"/>
</g>
<!-- Node19 -->
<g id="node19" class="node">
<title>Node19</title>
<g id="a_node19"><a xlink:href="../../d6/d77/fouri_8f90.html#a0f902f8d584a395f9db7175079d273c7" target="_top" xlink:title="Compute Fourier integrals and build amatrix.">
<polygon fill="white" stroke="black" points="450,-57.5 450,-76.5 485,-76.5 485,-57.5 450,-57.5"/>
<text text-anchor="middle" x="467.5" y="-64.5" font-family="Helvetica,sans-Serif" font-size="10.00">fouri</text>
</a>
</g>
</g>
<!-- Node15&#45;&gt;Node19 -->
<g id="edge22" class="edge">
<title>Node15&#45;&gt;Node19</title>
<path fill="none" stroke="midnightblue" d="M329.77,-115.71C359.04,-105.28 409.21,-87.41 439.96,-76.46"/>
<polygon fill="midnightblue" stroke="midnightblue" points="441.34,-79.68 449.58,-73.03 438.99,-73.09 441.34,-79.68"/>
</g>
<!-- Node20 -->
<g id="node20" class="node">
<title>Node20</title>
<g id="a_node20"><a xlink:href="../../d0/d1c/fourp_8f90.html#add725dd420251115fd60182dc992503c" target="_top" xlink:title="Perform Fourier integrals of Green&#39;s function kernel.">
<polygon fill="white" stroke="black" points="448.5,-133.5 448.5,-152.5 486.5,-152.5 486.5,-133.5 448.5,-133.5"/>
<text text-anchor="middle" x="467.5" y="-140.5" font-family="Helvetica,sans-Serif" font-size="10.00">fourp</text>
</a>
</g>
</g>
<!-- Node15&#45;&gt;Node20 -->
<g id="edge24" class="edge">
<title>Node15&#45;&gt;Node20</title>
<path fill="none" stroke="midnightblue" d="M329.77,-126.76C358.45,-130.17 407.19,-135.96 438.07,-139.62"/>
<polygon fill="midnightblue" stroke="midnightblue" points="437.84,-143.12 448.18,-140.82 438.66,-136.17 437.84,-143.12"/>
</g>
<!-- Node21 -->
<g id="node21" class="node">
<title>Node21</title>
<g id="a_node21"><a xlink:href="../../df/d2d/greenf_8f90.html#acd9d25905cc799c9fcd4d08a3cbb1e65" target="_top" xlink:title="Compute the regularized evaluation of the Green&#39;s function and the source term.">
<polygon fill="white" stroke="black" points="445.5,-171.5 445.5,-190.5 489.5,-190.5 489.5,-171.5 445.5,-171.5"/>
<text text-anchor="middle" x="467.5" y="-178.5" font-family="Helvetica,sans-Serif" font-size="10.00">greenf</text>
</a>
</g>
</g>
<!-- Node15&#45;&gt;Node21 -->
<g id="edge26" class="edge">
<title>Node15&#45;&gt;Node21</title>
<path fill="none" stroke="midnightblue" d="M328.16,-133.58C346.95,-141.7 374.99,-153.37 400,-162 411.47,-165.96 424.25,-169.75 435.51,-172.89"/>
<polygon fill="midnightblue" stroke="midnightblue" points="434.79,-176.32 445.35,-175.58 436.63,-169.57 434.79,-176.32"/>
</g>
<!-- Node16&#45;&gt;Node13 -->
<g id="edge21" class="edge">
<title>Node16&#45;&gt;Node13</title>
<path fill="none" stroke="midnightblue" d="M488.56,-31.29C502.57,-33.67 521.16,-38.46 535,-48 578.54,-78.01 610.76,-133.27 625.53,-162.21"/>
<polygon fill="midnightblue" stroke="midnightblue" points="622.44,-163.86 630.02,-171.26 628.72,-160.75 622.44,-163.86"/>
</g>
<!-- Node17 -->
<g id="node17" class="node">
<title>Node17</title>
<g id="a_node17"><a xlink:href="../../df/df3/analysum_8f90.html#aa51b1a5786e7b5719fe2ca679efc66b0" target="_top" xlink:title="Compute the (m=0 or n=0) part of the DFT of the analytical Fourier transforms of the equivalently&#45;sin...">
<polygon fill="white" stroke="black" points="606.5,-38.5 606.5,-57.5 664.5,-57.5 664.5,-38.5 606.5,-38.5"/>
<text text-anchor="middle" x="635.5" y="-45.5" font-family="Helvetica,sans-Serif" font-size="10.00">analysum</text>
</a>
</g>
</g>
<!-- Node16&#45;&gt;Node17 -->
<g id="edge19" class="edge">
<title>Node16&#45;&gt;Node17</title>
<path fill="none" stroke="midnightblue" d="M488.52,-31.29C515.17,-34.34 562.83,-39.8 596.43,-43.64"/>
<polygon fill="midnightblue" stroke="midnightblue" points="596.03,-47.12 606.37,-44.78 596.83,-40.17 596.03,-47.12"/>
</g>
<!-- Node18 -->
<g id="node18" class="node">
<title>Node18</title>
<g id="a_node18"><a xlink:href="../../d1/d90/analysum2_8f90.html#a47a0d185131a197c6fc62ee5d68d62fb" target="_top" xlink:title="Compute the (m&gt;0 and n&gt;0) part of the DFT of the analytical Fourier transforms of the equivalently&#45;si...">
<polygon fill="white" stroke="black" points="604,-0.5 604,-19.5 667,-19.5 667,-0.5 604,-0.5"/>
<text text-anchor="middle" x="635.5" y="-7.5" font-family="Helvetica,sans-Serif" font-size="10.00">analysum2</text>
</a>
</g>
</g>
<!-- Node16&#45;&gt;Node18 -->
<g id="edge20" class="edge">
<title>Node16&#45;&gt;Node18</title>
<path fill="none" stroke="midnightblue" d="M488.52,-26.71C514.55,-23.73 560.61,-18.46 594.04,-14.63"/>
<polygon fill="midnightblue" stroke="midnightblue" points="594.44,-18.11 603.98,-13.49 593.65,-11.15 594.44,-18.11"/>
</g>
<!-- Node19&#45;&gt;Node13 -->
<g id="edge23" class="edge">
<title>Node19&#45;&gt;Node13</title>
<path fill="none" stroke="midnightblue" d="M485.14,-71.06C499.1,-74.91 519.22,-81.52 535,-91 568.7,-111.24 601.2,-143.9 619.45,-163.82"/>
<polygon fill="midnightblue" stroke="midnightblue" points="616.85,-166.16 626.14,-171.25 622.05,-161.48 616.85,-166.16"/>
</g>
<!-- Node20&#45;&gt;Node13 -->
<g id="edge25" class="edge">
<title>Node20&#45;&gt;Node13</title>
<path fill="none" stroke="midnightblue" d="M486.58,-147.14C509.5,-152.39 549.99,-161.65 582.81,-169.17"/>
<polygon fill="midnightblue" stroke="midnightblue" points="582.2,-172.62 592.73,-171.44 583.76,-165.79 582.2,-172.62"/>
</g>
<!-- Node23&#45;&gt;Node13 -->
<g id="edge30" class="edge">
<title>Node23&#45;&gt;Node13</title>
<path fill="none" stroke="midnightblue" d="M330.03,-437.97C374.84,-438.57 473.47,-433.78 535,-385 595.96,-336.66 622.08,-241.54 630.83,-200.55"/>
<polygon fill="midnightblue" stroke="midnightblue" points="634.31,-201.01 632.86,-190.51 627.45,-199.62 634.31,-201.01"/>
</g>
</g>
</svg>
