<?xml version="1.0" encoding="UTF-8" standalone="no"?>
<!DOCTYPE svg PUBLIC "-//W3C//DTD SVG 1.1//EN"
 "http://www.w3.org/Graphics/SVG/1.1/DTD/svg11.dtd">
<!-- Generated by graphviz version 8.0.1 (20230327.1645)
 -->
<!-- Title: allocate_nunv Pages: 1 -->
<svg width="410pt" height="64pt"
 viewBox="0.00 0.00 410.00 64.00" xmlns="http://www.w3.org/2000/svg" xmlns:xlink="http://www.w3.org/1999/xlink">
<g id="graph0" class="graph" transform="scale(1 1) rotate(0) translate(4 60)">
<title>allocate_nunv</title>
<!-- Node1 -->
<g id="node1" class="node">
<title>Node1</title>
<g id="a_node1"><a xlink:title="allocate arrays depending on the number of Fourier coefficients nunv">
<polygon fill="#999999" stroke="#666666" points="77,-37 0,-37 0,-18 77,-18 77,-37"/>
<text text-anchor="middle" x="38.5" y="-25" font-family="Helvetica,sans-Serif" font-size="10.00">allocate_nunv</text>
</a>
</g>
</g>
<!-- Node2 -->
<g id="node2" class="node">
<title>Node2</title>
<g id="a_node2"><a xlink:href="../../dd/df2/namespacevacmod.html#a30b88ea77408f43e1bedf2c11c0f8d1a" target="_top" xlink:title=" ">
<polygon fill="white" stroke="#666666" points="235,-56 113,-56 113,-37 235,-37 235,-56"/>
<text text-anchor="middle" x="174" y="-44" font-family="Helvetica,sans-Serif" font-size="10.00">vacmod::allocate_nestor</text>
</a>
</g>
</g>
<!-- Node1&#45;&gt;Node2 -->
<g id="edge1" class="edge">
<title>Node1&#45;&gt;Node2</title>
<path fill="none" stroke="#63b8ff" d="M77.4,-32.89C85.1,-33.99 93.43,-35.17 101.85,-36.37"/>
<polygon fill="#63b8ff" stroke="#63b8ff" points="101.14,-39.95 111.53,-37.89 102.12,-33.02 101.14,-39.95"/>
</g>
<!-- Node3 -->
<g id="node3" class="node">
<title>Node3</title>
<g id="a_node3"><a xlink:href="../../de/dd6/free__mem__nunv_8f90.html#af9db130c860b00078874db28a8805226" target="_top" xlink:title="Free arrays depending on the number of Fourier coefficients nunv.">
<polygon fill="white" stroke="#666666" points="217,-19 131,-19 131,0 217,0 217,-19"/>
<text text-anchor="middle" x="174" y="-7" font-family="Helvetica,sans-Serif" font-size="10.00">free_mem_nunv</text>
</a>
</g>
</g>
<!-- Node1&#45;&gt;Node3 -->
<g id="edge2" class="edge">
<title>Node1&#45;&gt;Node3</title>
<path fill="none" stroke="#63b8ff" d="M77.4,-22.39C90.67,-20.6 105.82,-18.56 120.09,-16.63"/>
<polygon fill="#63b8ff" stroke="#63b8ff" points="120.34,-20 129.78,-15.19 119.4,-13.06 120.34,-20"/>
</g>
<!-- Node4 -->
<g id="node4" class="node">
<title>Node4</title>
<g id="a_node4"><a xlink:href="../../dd/df2/namespacevacmod.html#ade3824460b4eb61403c35f6abe95cd89" target="_top" xlink:title=" ">
<polygon fill="white" stroke="#666666" points="402,-19 271,-19 271,0 402,0 402,-19"/>
<text text-anchor="middle" x="336.5" y="-7" font-family="Helvetica,sans-Serif" font-size="10.00">vacmod::free_mem_nestor</text>
</a>
</g>
</g>
<!-- Node3&#45;&gt;Node4 -->
<g id="edge3" class="edge">
<title>Node3&#45;&gt;Node4</title>
<path fill="none" stroke="#63b8ff" d="M217.17,-9.5C230.32,-9.5 245.25,-9.5 259.97,-9.5"/>
<polygon fill="#63b8ff" stroke="#63b8ff" points="259.62,-13 269.62,-9.5 259.62,-6 259.62,-13"/>
</g>
</g>
</svg>
