<?xml version="1.0" encoding="UTF-8" standalone="no"?>
<!DOCTYPE svg PUBLIC "-//W3C//DTD SVG 1.1//EN"
 "http://www.w3.org/Graphics/SVG/1.1/DTD/svg11.dtd">
<!-- Generated by graphviz version 8.0.5 (20230430.1635)
 -->
<!-- Title: allocate_nunv Pages: 1 -->
<svg width="408pt" height="64pt"
 viewBox="0.00 0.00 407.75 64.25" xmlns="http://www.w3.org/2000/svg" xmlns:xlink="http://www.w3.org/1999/xlink">
<g id="graph0" class="graph" transform="scale(1 1) rotate(0) translate(4 60.25)">
<title>allocate_nunv</title>
<!-- Node1 -->
<g id="Node000001" class="node">
<title>Node1</title>
<g id="a_Node000001"><a xlink:title="allocate arrays depending on the number of Fourier coefficients nunv">
<polygon fill="#999999" stroke="#666666" points="76,-37.25 0,-37.25 0,-18 76,-18 76,-37.25"/>
<text text-anchor="middle" x="38" y="-23.75" font-family="Helvetica,sans-Serif" font-size="10.00">allocate_nunv</text>
</a>
</g>
</g>
<!-- Node2 -->
<g id="Node000002" class="node">
<title>Node2</title>
<g id="a_Node000002"><a xlink:href="../../dd/df2/namespacevacmod.html#a30b88ea77408f43e1bedf2c11c0f8d1a" target="_top" xlink:title=" ">
<polygon fill="white" stroke="#666666" points="233,-56.25 112,-56.25 112,-37 233,-37 233,-56.25"/>
<text text-anchor="middle" x="172.5" y="-42.75" font-family="Helvetica,sans-Serif" font-size="10.00">vacmod::allocate_nestor</text>
</a>
</g>
</g>
<!-- Node1&#45;&gt;Node2 -->
<g id="edge1_Node000001_Node000002" class="edge">
<title>Node1&#45;&gt;Node2</title>
<g id="a_edge1_Node000001_Node000002"><a xlink:title=" ">
<path fill="none" stroke="#63b8ff" d="M76.26,-32.97C84.01,-34.08 92.42,-35.29 100.93,-36.5"/>
<polygon fill="#63b8ff" stroke="#63b8ff" points="100.31,-40.1 110.71,-38.05 101.3,-33.17 100.31,-40.1"/>
</a>
</g>
</g>
<!-- Node3 -->
<g id="Node000003" class="node">
<title>Node3</title>
<g id="a_Node000003"><a xlink:href="../../de/dd6/free__mem__nunv_8f90.html#af9db130c860b00078874db28a8805226" target="_top" xlink:title="Free arrays depending on the number of Fourier coefficients nunv.">
<polygon fill="white" stroke="#666666" points="215.38,-19.25 129.62,-19.25 129.62,0 215.38,0 215.38,-19.25"/>
<text text-anchor="middle" x="172.5" y="-5.75" font-family="Helvetica,sans-Serif" font-size="10.00">free_mem_nunv</text>
</a>
</g>
</g>
<!-- Node1&#45;&gt;Node3 -->
<g id="edge2_Node000001_Node000003" class="edge">
<title>Node1&#45;&gt;Node3</title>
<g id="a_edge2_Node000001_Node000003"><a xlink:title=" ">
<path fill="none" stroke="#63b8ff" d="M76.26,-22.56C89.44,-20.77 104.52,-18.72 118.73,-16.79"/>
<polygon fill="#63b8ff" stroke="#63b8ff" points="118.95,-20.16 128.39,-15.35 118.01,-13.22 118.95,-20.16"/>
</a>
</g>
</g>
<!-- Node4 -->
<g id="Node000004" class="node">
<title>Node4</title>
<g id="a_Node000004"><a xlink:href="../../dd/df2/namespacevacmod.html#ade3824460b4eb61403c35f6abe95cd89" target="_top" xlink:title=" ">
<polygon fill="white" stroke="#666666" points="399.75,-19.25 269,-19.25 269,0 399.75,0 399.75,-19.25"/>
<text text-anchor="middle" x="334.38" y="-5.75" font-family="Helvetica,sans-Serif" font-size="10.00">vacmod::free_mem_nestor</text>
</a>
</g>
</g>
<!-- Node3&#45;&gt;Node4 -->
<g id="edge3_Node000003_Node000004" class="edge">
<title>Node3&#45;&gt;Node4</title>
<g id="a_edge3_Node000003_Node000004"><a xlink:title=" ">
<path fill="none" stroke="#63b8ff" d="M215.51,-9.62C228.61,-9.62 243.48,-9.62 258.14,-9.62"/>
<polygon fill="#63b8ff" stroke="#63b8ff" points="257.75,-13.13 267.75,-9.62 257.75,-6.13 257.75,-13.13"/>
</a>
</g>
</g>
</g>
</svg>
