<?xml version="1.0" encoding="UTF-8" standalone="no"?>
<!DOCTYPE svg PUBLIC "-//W3C//DTD SVG 1.1//EN"
 "http://www.w3.org/Graphics/SVG/1.1/DTD/svg11.dtd">
<!-- Generated by graphviz version 2.49.3 (20211215.1918)
 -->
<!-- Title: allocate_nunv Pages: 1 -->
<svg width="410pt" height="66pt"
 viewBox="0.00 0.00 410.00 66.00" xmlns="http://www.w3.org/2000/svg" xmlns:xlink="http://www.w3.org/1999/xlink">
<g id="graph0" class="graph" transform="scale(1 1) rotate(0) translate(4 62)">
<title>allocate_nunv</title>
<polygon fill="white" stroke="transparent" points="-4,4 -4,-62 406,-62 406,4 -4,4"/>
<!-- Node1 -->
<g id="node1" class="node">
<title>Node1</title>
<g id="a_node1"><a xlink:title="allocate arrays depending on the number of Fourier coefficients nunv">
<polygon fill="#bfbfbf" stroke="black" points="0,-19.5 0,-38.5 77,-38.5 77,-19.5 0,-19.5"/>
<text text-anchor="middle" x="38.5" y="-26.5" font-family="Helvetica,sans-Serif" font-size="10.00">allocate_nunv</text>
</a>
</g>
</g>
<!-- Node2 -->
<g id="node2" class="node">
<title>Node2</title>
<g id="a_node2"><a xlink:href="../../dd/df2/namespacevacmod.html#a30b88ea77408f43e1bedf2c11c0f8d1a" target="_top" xlink:title=" ">
<polygon fill="white" stroke="black" points="113,-38.5 113,-57.5 235,-57.5 235,-38.5 113,-38.5"/>
<text text-anchor="middle" x="174" y="-45.5" font-family="Helvetica,sans-Serif" font-size="10.00">vacmod::allocate_nestor</text>
</a>
</g>
</g>
<!-- Node1&#45;&gt;Node2 -->
<g id="edge1" class="edge">
<title>Node1&#45;&gt;Node2</title>
<path fill="none" stroke="midnightblue" d="M77.04,-34.34C85.11,-35.49 93.89,-36.74 102.75,-38"/>
<polygon fill="midnightblue" stroke="midnightblue" points="102.36,-41.48 112.76,-39.43 103.35,-34.55 102.36,-41.48"/>
</g>
<!-- Node3 -->
<g id="node3" class="node">
<title>Node3</title>
<g id="a_node3"><a xlink:href="../../de/dd6/free__mem__nunv_8f90.html#af9db130c860b00078874db28a8805226" target="_top" xlink:title="Free arrays depending on the number of Fourier coefficients nunv.">
<polygon fill="white" stroke="black" points="131,-0.5 131,-19.5 217,-19.5 217,-0.5 131,-0.5"/>
<text text-anchor="middle" x="174" y="-7.5" font-family="Helvetica,sans-Serif" font-size="10.00">free_mem_nunv</text>
</a>
</g>
</g>
<!-- Node1&#45;&gt;Node3 -->
<g id="edge2" class="edge">
<title>Node1&#45;&gt;Node3</title>
<path fill="none" stroke="midnightblue" d="M77.04,-23.66C90.45,-21.75 105.81,-19.56 120.25,-17.51"/>
<polygon fill="midnightblue" stroke="midnightblue" points="121.16,-20.91 130.57,-16.04 120.18,-13.98 121.16,-20.91"/>
</g>
<!-- Node4 -->
<g id="node4" class="node">
<title>Node4</title>
<g id="a_node4"><a xlink:href="../../dd/df2/namespacevacmod.html#ade3824460b4eb61403c35f6abe95cd89" target="_top" xlink:title=" ">
<polygon fill="white" stroke="black" points="271,-0.5 271,-19.5 402,-19.5 402,-0.5 271,-0.5"/>
<text text-anchor="middle" x="336.5" y="-7.5" font-family="Helvetica,sans-Serif" font-size="10.00">vacmod::free_mem_nestor</text>
</a>
</g>
</g>
<!-- Node3&#45;&gt;Node4 -->
<g id="edge3" class="edge">
<title>Node3&#45;&gt;Node4</title>
<path fill="none" stroke="midnightblue" d="M217.17,-10C230.53,-10 245.72,-10 260.65,-10"/>
<polygon fill="midnightblue" stroke="midnightblue" points="260.93,-13.5 270.93,-10 260.93,-6.5 260.93,-13.5"/>
</g>
</g>
</svg>
