<?xml version="1.0" encoding="UTF-8" standalone="no"?>
<!DOCTYPE svg PUBLIC "-//W3C//DTD SVG 1.1//EN"
 "http://www.w3.org/Graphics/SVG/1.1/DTD/svg11.dtd">
<!-- Generated by graphviz version 2.48.0 (20210719.0153)
 -->
<!-- Title: profil3d Pages: 1 -->
<svg width="329pt" height="66pt"
 viewBox="0.00 0.00 329.00 66.00" xmlns="http://www.w3.org/2000/svg" xmlns:xlink="http://www.w3.org/1999/xlink">
<g id="graph0" class="graph" transform="scale(1 1) rotate(0) translate(4 62)">
<title>profil3d</title>
<polygon fill="white" stroke="transparent" points="-4,4 -4,-62 325,-62 325,4 -4,4"/>
<!-- Node1 -->
<g id="node1" class="node">
<title>Node1</title>
<g id="a_node1"><a xlink:title="Compute three&#45;dimensional profiles of flux&#45;surface geometry etc.">
<polygon fill="#bfbfbf" stroke="black" points="274,-19.5 274,-38.5 321,-38.5 321,-19.5 274,-19.5"/>
<text text-anchor="middle" x="297.5" y="-26.5" font-family="Helvetica,sans-Serif" font-size="10.00">profil3d</text>
</a>
</g>
</g>
<!-- Node2 -->
<g id="node2" class="node">
<title>Node2</title>
<g id="a_node2"><a xlink:href="../../d7/d46/eqsolve_8f90.html#ab740b09d1b651e2ab8a60c5d552df0c2" target="_top" xlink:title="Iteratively evolve the Fourier coefficients that specify the equilibrium.">
<polygon fill="white" stroke="black" points="173,-38.5 173,-57.5 223,-57.5 223,-38.5 173,-38.5"/>
<text text-anchor="middle" x="198" y="-45.5" font-family="Helvetica,sans-Serif" font-size="10.00">eqsolve</text>
</a>
</g>
</g>
<!-- Node1&#45;&gt;Node2 -->
<g id="edge1" class="edge">
<title>Node1&#45;&gt;Node2</title>
<path fill="none" stroke="midnightblue" d="M263.72,-35.39C250.46,-37.97 235.43,-40.9 223.2,-43.29"/>
<polygon fill="midnightblue" stroke="midnightblue" points="264.74,-38.75 273.89,-33.41 263.4,-31.88 264.74,-38.75"/>
</g>
<!-- Node5 -->
<g id="node5" class="node">
<title>Node5</title>
<g id="a_node5"><a xlink:href="../../d9/da6/initialize__radial_8f90.html#a187faea543d3a42bc748511f04b5b7d5" target="_top" xlink:title="Allocates memory for radial arrays and initializes radial profiles.">
<polygon fill="white" stroke="black" points="158,-0.5 158,-19.5 238,-19.5 238,-0.5 158,-0.5"/>
<text text-anchor="middle" x="198" y="-7.5" font-family="Helvetica,sans-Serif" font-size="10.00">initialize_radial</text>
</a>
</g>
</g>
<!-- Node1&#45;&gt;Node5 -->
<g id="edge4" class="edge">
<title>Node1&#45;&gt;Node5</title>
<path fill="none" stroke="midnightblue" d="M263.93,-22.65C255.72,-21.05 246.81,-19.32 238.31,-17.66"/>
<polygon fill="midnightblue" stroke="midnightblue" points="263.4,-26.12 273.89,-24.59 264.74,-19.25 263.4,-26.12"/>
</g>
<!-- Node3 -->
<g id="node3" class="node">
<title>Node3</title>
<g id="a_node3"><a xlink:href="../../db/d61/vmec_8f90.html#a6d38ab7be2f9d818da4541e1d352ea23" target="_top" xlink:title="Main driver for VMEC.">
<polygon fill="white" stroke="black" points="81,-19.5 81,-38.5 122,-38.5 122,-19.5 81,-19.5"/>
<text text-anchor="middle" x="101.5" y="-26.5" font-family="Helvetica,sans-Serif" font-size="10.00">vmec</text>
</a>
</g>
</g>
<!-- Node2&#45;&gt;Node3 -->
<g id="edge2" class="edge">
<title>Node2&#45;&gt;Node3</title>
<path fill="none" stroke="midnightblue" d="M162.67,-41.1C149.1,-38.37 133.99,-35.33 122.3,-32.98"/>
<polygon fill="midnightblue" stroke="midnightblue" points="162.17,-44.57 172.66,-43.11 163.55,-37.7 162.17,-44.57"/>
</g>
<!-- Node4 -->
<g id="node4" class="node">
<title>Node4</title>
<g id="a_node4"><a xlink:href="../../db/d61/vmec_8f90.html#ace5bdf043bb85c8f0a9fc582bdb55725" target="_top" xlink:title="Main program of VMEC.">
<polygon fill="white" stroke="black" points="0,-19.5 0,-38.5 45,-38.5 45,-19.5 0,-19.5"/>
<text text-anchor="middle" x="22.5" y="-26.5" font-family="Helvetica,sans-Serif" font-size="10.00">xvmec</text>
</a>
</g>
</g>
<!-- Node3&#45;&gt;Node4 -->
<g id="edge3" class="edge">
<title>Node3&#45;&gt;Node4</title>
<path fill="none" stroke="midnightblue" d="M70.42,-29C61.99,-29 52.99,-29 45.16,-29"/>
<polygon fill="midnightblue" stroke="midnightblue" points="70.67,-32.5 80.67,-29 70.67,-25.5 70.67,-32.5"/>
</g>
<!-- Node5&#45;&gt;Node3 -->
<g id="edge5" class="edge">
<title>Node5&#45;&gt;Node3</title>
<path fill="none" stroke="midnightblue" d="M147.87,-19.88C138.75,-21.71 129.72,-23.53 122.15,-25.05"/>
<polygon fill="midnightblue" stroke="midnightblue" points="148.63,-23.3 157.74,-17.89 147.25,-16.43 148.63,-23.3"/>
</g>
</g>
</svg>
