<?xml version="1.0" encoding="UTF-8" standalone="no"?>
<!DOCTYPE svg PUBLIC "-//W3C//DTD SVG 1.1//EN"
 "http://www.w3.org/Graphics/SVG/1.1/DTD/svg11.dtd">
<!-- Generated by graphviz version 12.0.0 (20240704.0754)
 -->
<!-- Title: bss Pages: 1 -->
<svg width="204pt" height="45pt"
 viewBox="0.00 0.00 204.25 45.25" xmlns="http://www.w3.org/2000/svg" xmlns:xlink="http://www.w3.org/1999/xlink">
<g id="graph0" class="graph" transform="scale(1 1) rotate(0) translate(4 41.25)">
<title>bss</title>
<!-- Node1 -->
<g id="Node000001" class="node">
<title>Node1</title>
<g id="a_Node000001"><a xlink:title="Computes br, bphi, bz, bsubs on half&#45;radial mesh.">
<polygon fill="#999999" stroke="#666666" points="31.75,-19.25 0,-19.25 0,0 31.75,0 31.75,-19.25"/>
<text text-anchor="middle" x="15.88" y="-5.75" font-family="Helvetica,sans-Serif" font-size="10.00">bss</text>
</a>
</g>
</g>
<!-- Node2 -->
<g id="Node000002" class="node">
<title>Node2</title>
<g id="a_Node000002"><a xlink:href="../../d8/dfd/namespacedbgout.html#acdd1612a38e44b6469dc03d9d1c6ceed" target="_top" xlink:title="check if any output is desired for the current iteration check if the given context should be openend...">
<polygon fill="white" stroke="#666666" points="196.25,-19.25 67.75,-19.25 67.75,0 196.25,0 196.25,-19.25"/>
<text text-anchor="middle" x="132" y="-5.75" font-family="Helvetica,sans-Serif" font-size="10.00">dbgout::open_dbg_context</text>
</a>
</g>
</g>
<!-- Node1&#45;&gt;Node2 -->
<g id="edge1_Node000001_Node000002" class="edge">
<title>Node1&#45;&gt;Node2</title>
<g id="a_edge1_Node000001_Node000002"><a xlink:title=" ">
<path fill="none" stroke="#63b8ff" d="M31.79,-9.62C38.5,-9.62 46.95,-9.62 56.08,-9.62"/>
<polygon fill="#63b8ff" stroke="#63b8ff" points="55.97,-13.13 65.97,-9.63 55.97,-6.13 55.97,-13.13"/>
</a>
</g>
</g>
<!-- Node2&#45;&gt;Node2 -->
<g id="edge2_Node000002_Node000002" class="edge">
<title>Node2&#45;&gt;Node2</title>
<g id="a_edge2_Node000002_Node000002"><a xlink:title=" ">
<path fill="none" stroke="#63b8ff" d="M113.82,-19.54C105.53,-28.15 111.59,-37.25 132,-37.25 143.16,-37.25 150.03,-34.53 152.61,-30.65"/>
<polygon fill="#63b8ff" stroke="#63b8ff" points="156.06,-30.04 150.5,-21.02 149.22,-31.53 156.06,-30.04"/>
</a>
</g>
</g>
</g>
</svg>
