<?xml version="1.0" encoding="UTF-8" standalone="no"?>
<!DOCTYPE svg PUBLIC "-//W3C//DTD SVG 1.1//EN"
 "http://www.w3.org/Graphics/SVG/1.1/DTD/svg11.dtd">
<!-- Generated by graphviz version 7.1.0 (20230121.1956)
 -->
<!-- Title: nestor_io::write_nestor_outputs Pages: 1 -->
<svg width="532pt" height="83pt"
 viewBox="0.00 0.00 532.00 83.00" xmlns="http://www.w3.org/2000/svg" xmlns:xlink="http://www.w3.org/1999/xlink">
<g id="graph0" class="graph" transform="scale(1 1) rotate(0) translate(4 79)">
<title>nestor_io::write_nestor_outputs</title>
<!-- Node1 -->
<g id="node1" class="node">
<title>Node1</title>
<g id="a_node1"><a xlink:title=" ">
<polygon fill="#999999" stroke="#666666" points="524,-42.5 410,-42.5 410,-12.5 524,-12.5 524,-42.5"/>
<text text-anchor="start" x="418" y="-30.5" font-family="Helvetica,sans-Serif" font-size="10.00">nestor_io::write_nestor</text>
<text text-anchor="middle" x="467" y="-19.5" font-family="Helvetica,sans-Serif" font-size="10.00">_outputs</text>
</a>
</g>
</g>
<!-- Node2 -->
<g id="node2" class="node">
<title>Node2</title>
<g id="a_node2"><a xlink:href="../../d3/d4f/funct3d_8f90.html#a800bacc22176e16323899df87b55c547" target="_top" xlink:title="Evaluate the three&#45;dimensional MHD energy functional. Think of this as the &quot;forward model&quot; that tells...">
<polygon fill="white" stroke="#666666" points="374,-56 325,-56 325,-37 374,-37 374,-56"/>
<text text-anchor="middle" x="349.5" y="-44" font-family="Helvetica,sans-Serif" font-size="10.00">funct3d</text>
</a>
</g>
</g>
<!-- Node1&#45;&gt;Node2 -->
<g id="edge1" class="edge">
<title>Node1&#45;&gt;Node2</title>
<path fill="none" stroke="#63b8ff" d="M398.52,-38.6C389.86,-40.03 381.49,-41.4 374.23,-42.6"/>
<polygon fill="#63b8ff" stroke="#63b8ff" points="398.81,-42.1 408.11,-37.02 397.67,-35.19 398.81,-42.1"/>
</g>
<!-- Node8 -->
<g id="node8" class="node">
<title>Node8</title>
<g id="a_node8"><a xlink:href="../../d4/d69/nestor__main_8f90.html#a1b0fd336e80285a96925333daa2ee8f0" target="_top" xlink:title="Main program of stand&#45;alone version of NESTOR.">
<polygon fill="white" stroke="#666666" points="371.5,-19 327.5,-19 327.5,0 371.5,0 371.5,-19"/>
<text text-anchor="middle" x="349.5" y="-7" font-family="Helvetica,sans-Serif" font-size="10.00">nestor</text>
</a>
</g>
</g>
<!-- Node1&#45;&gt;Node8 -->
<g id="edge8" class="edge">
<title>Node1&#45;&gt;Node8</title>
<path fill="none" stroke="#63b8ff" d="M398.24,-16.94C388.66,-15.45 379.45,-14.01 371.73,-12.81"/>
<polygon fill="#63b8ff" stroke="#63b8ff" points="397.69,-20.4 408.11,-18.48 398.77,-13.48 397.69,-20.4"/>
</g>
<!-- Node3 -->
<g id="node3" class="node">
<title>Node3</title>
<g id="a_node3"><a xlink:href="../../de/da9/evolve_8f90.html#a8103e838be03904e03551e04f6b396e4" target="_top" xlink:title="Take a single time step in Fourier space to evolve the Fourier coefficients describing the equilibriu...">
<polygon fill="white" stroke="#666666" points="289,-75 244,-75 244,-56 289,-56 289,-75"/>
<text text-anchor="middle" x="266.5" y="-63" font-family="Helvetica,sans-Serif" font-size="10.00">evolve</text>
</a>
</g>
</g>
<!-- Node2&#45;&gt;Node3 -->
<g id="edge2" class="edge">
<title>Node2&#45;&gt;Node3</title>
<path fill="none" stroke="#63b8ff" d="M313.67,-54.67C305.38,-56.61 296.77,-58.63 289.26,-60.4"/>
<polygon fill="#63b8ff" stroke="#63b8ff" points="314.23,-58.13 323.16,-52.44 312.63,-51.32 314.23,-58.13"/>
</g>
<!-- Node7 -->
<g id="node7" class="node">
<title>Node7</title>
<g id="a_node7"><a xlink:href="../../d0/d71/fileout_8f90.html#a7228e984aaf2c38bd772e3d846fab7af" target="_top" xlink:title="Write the output files.">
<polygon fill="white" stroke="#666666" points="204,-37 162,-37 162,-18 204,-18 204,-37"/>
<text text-anchor="middle" x="183" y="-25" font-family="Helvetica,sans-Serif" font-size="10.00">fileout</text>
</a>
</g>
</g>
<!-- Node2&#45;&gt;Node7 -->
<g id="edge6" class="edge">
<title>Node2&#45;&gt;Node7</title>
<path fill="none" stroke="#63b8ff" d="M313.55,-42.46C280.34,-38.63 231.56,-32.99 204.32,-29.85"/>
<polygon fill="#63b8ff" stroke="#63b8ff" points="312.74,-45.89 323.08,-43.56 313.54,-38.94 312.74,-45.89"/>
</g>
<!-- Node4 -->
<g id="node4" class="node">
<title>Node4</title>
<g id="a_node4"><a xlink:href="../../d7/d46/eqsolve_8f90.html#ab740b09d1b651e2ab8a60c5d552df0c2" target="_top" xlink:title="Iteratively evolve the Fourier coefficients that specify the equilibrium.">
<polygon fill="white" stroke="#666666" points="208,-74 158,-74 158,-55 208,-55 208,-74"/>
<text text-anchor="middle" x="183" y="-62" font-family="Helvetica,sans-Serif" font-size="10.00">eqsolve</text>
</a>
</g>
</g>
<!-- Node3&#45;&gt;Node4 -->
<g id="edge3" class="edge">
<title>Node3&#45;&gt;Node4</title>
<path fill="none" stroke="#63b8ff" d="M232.39,-65.09C224.4,-65 216,-64.89 208.49,-64.8"/>
<polygon fill="#63b8ff" stroke="#63b8ff" points="232.1,-68.59 242.15,-65.21 232.19,-61.59 232.1,-68.59"/>
</g>
<!-- Node5 -->
<g id="node5" class="node">
<title>Node5</title>
<g id="a_node5"><a xlink:href="../../db/d61/vmec_8f90.html#a6d38ab7be2f9d818da4541e1d352ea23" target="_top" xlink:title="Main driver for VMEC.">
<polygon fill="white" stroke="#666666" points="122,-55 81,-55 81,-36 122,-36 122,-55"/>
<text text-anchor="middle" x="101.5" y="-43" font-family="Helvetica,sans-Serif" font-size="10.00">vmec</text>
</a>
</g>
</g>
<!-- Node4&#45;&gt;Node5 -->
<g id="edge4" class="edge">
<title>Node4&#45;&gt;Node5</title>
<path fill="none" stroke="#63b8ff" d="M146.66,-56.05C138.33,-54.06 129.73,-52.01 122.37,-50.25"/>
<polygon fill="#63b8ff" stroke="#63b8ff" points="145.7,-59.42 156.24,-58.34 147.33,-52.62 145.7,-59.42"/>
</g>
<!-- Node6 -->
<g id="node6" class="node">
<title>Node6</title>
<g id="a_node6"><a xlink:href="../../db/d61/vmec_8f90.html#ace5bdf043bb85c8f0a9fc582bdb55725" target="_top" xlink:title="Main program of VMEC.">
<polygon fill="white" stroke="#666666" points="45,-55 0,-55 0,-36 45,-36 45,-55"/>
<text text-anchor="middle" x="22.5" y="-43" font-family="Helvetica,sans-Serif" font-size="10.00">xvmec</text>
</a>
</g>
</g>
<!-- Node5&#45;&gt;Node6 -->
<g id="edge5" class="edge">
<title>Node5&#45;&gt;Node6</title>
<path fill="none" stroke="#63b8ff" d="M69.39,-45.5C61.36,-45.5 52.89,-45.5 45.43,-45.5"/>
<polygon fill="#63b8ff" stroke="#63b8ff" points="69.16,-49 79.16,-45.5 69.16,-42 69.16,-49"/>
</g>
<!-- Node7&#45;&gt;Node5 -->
<g id="edge7" class="edge">
<title>Node7&#45;&gt;Node5</title>
<path fill="none" stroke="#63b8ff" d="M150.45,-34.64C140.97,-36.79 130.85,-39.08 122.35,-41"/>
<polygon fill="#63b8ff" stroke="#63b8ff" points="151.07,-38.09 160.05,-32.47 149.52,-31.26 151.07,-38.09"/>
</g>
</g>
</svg>
