<?xml version="1.0" encoding="UTF-8" standalone="no"?>
<!DOCTYPE svg PUBLIC "-//W3C//DTD SVG 1.1//EN"
 "http://www.w3.org/Graphics/SVG/1.1/DTD/svg11.dtd">
<!-- Generated by graphviz version 2.50.0 (20220203.2022)
 -->
<!-- Title: nestor_io::read_nestor_inputs Pages: 1 -->
<svg width="444pt" height="66pt"
 viewBox="0.00 0.00 444.00 66.00" xmlns="http://www.w3.org/2000/svg" xmlns:xlink="http://www.w3.org/1999/xlink">
<g id="graph0" class="graph" transform="scale(1 1) rotate(0) translate(4 62)">
<title>nestor_io::read_nestor_inputs</title>
<polygon fill="white" stroke="transparent" points="-4,4 -4,-62 440,-62 440,4 -4,4"/>
<!-- Node1 -->
<g id="node1" class="node">
<title>Node1</title>
<g id="a_node1"><a xlink:title=" ">
<polygon fill="#bfbfbf" stroke="black" points="0,-14 0,-44 112,-44 112,-14 0,-14"/>
<text text-anchor="start" x="8" y="-32" font-family="Helvetica,sans-Serif" font-size="10.00">nestor_io::read_nestor</text>
<text text-anchor="middle" x="56" y="-21" font-family="Helvetica,sans-Serif" font-size="10.00">_inputs</text>
</a>
</g>
</g>
<!-- Node2 -->
<g id="node2" class="node">
<title>Node2</title>
<g id="a_node2"><a xlink:href="../../d1/d41/namespacemgrid__mod.html#a202373a45f0c5b1f81076da92a1123d0" target="_top" xlink:title=" ">
<polygon fill="white" stroke="black" points="148,-19.5 148,-38.5 265,-38.5 265,-19.5 148,-19.5"/>
<text text-anchor="middle" x="206.5" y="-26.5" font-family="Helvetica,sans-Serif" font-size="10.00">mgrid_mod::read_mgrid</text>
</a>
</g>
</g>
<!-- Node1&#45;&gt;Node2 -->
<g id="edge1" class="edge">
<title>Node1&#45;&gt;Node2</title>
<path fill="none" stroke="midnightblue" d="M112.3,-29C120.5,-29 129.04,-29 137.47,-29"/>
<polygon fill="midnightblue" stroke="midnightblue" points="137.67,-32.5 147.67,-29 137.67,-25.5 137.67,-32.5"/>
</g>
<!-- Node3 -->
<g id="node3" class="node">
<title>Node3</title>
<g id="a_node3"><a xlink:href="../../d0/d29/namespacesafe__open__mod.html#aab207f9769415b0cccd91260a8382eeb" target="_top" xlink:title=" ">
<polygon fill="white" stroke="black" points="301,-38.5 301,-57.5 436,-57.5 436,-38.5 301,-38.5"/>
<text text-anchor="middle" x="368.5" y="-45.5" font-family="Helvetica,sans-Serif" font-size="10.00">safe_open_mod::safe_open</text>
</a>
</g>
</g>
<!-- Node2&#45;&gt;Node3 -->
<g id="edge2" class="edge">
<title>Node2&#45;&gt;Node3</title>
<path fill="none" stroke="midnightblue" d="M265.26,-35.86C273.56,-36.84 282.21,-37.87 290.8,-38.89"/>
<polygon fill="midnightblue" stroke="midnightblue" points="290.5,-42.38 300.85,-40.09 291.33,-35.43 290.5,-42.38"/>
</g>
<!-- Node4 -->
<g id="node4" class="node">
<title>Node4</title>
<g id="a_node4"><a xlink:href="../../d1/d41/namespacemgrid__mod.html#aa4818ade7a169c68f8b7c3a225fd287e" target="_top" xlink:title=" ">
<polygon fill="white" stroke="black" points="310.5,-0.5 310.5,-19.5 426.5,-19.5 426.5,-0.5 310.5,-0.5"/>
<text text-anchor="middle" x="368.5" y="-7.5" font-family="Helvetica,sans-Serif" font-size="10.00">mgrid_mod::sum_bfield</text>
</a>
</g>
</g>
<!-- Node2&#45;&gt;Node4 -->
<g id="edge3" class="edge">
<title>Node2&#45;&gt;Node4</title>
<path fill="none" stroke="midnightblue" d="M265.26,-22.14C276.62,-20.79 288.62,-19.37 300.25,-17.99"/>
<polygon fill="midnightblue" stroke="midnightblue" points="300.84,-21.44 310.36,-16.79 300.01,-14.49 300.84,-21.44"/>
</g>
</g>
</svg>
