<?xml version="1.0" encoding="UTF-8" standalone="no"?>
<!DOCTYPE svg PUBLIC "-//W3C//DTD SVG 1.1//EN"
 "http://www.w3.org/Graphics/SVG/1.1/DTD/svg11.dtd">
<!-- Generated by graphviz version 9.0.0 (20230911.1827)
 -->
<!-- Title: nestor_io::write_nestor_outputs Pages: 1 -->
<svg width="529pt" height="83pt"
 viewBox="0.00 0.00 528.50 83.25" xmlns="http://www.w3.org/2000/svg" xmlns:xlink="http://www.w3.org/1999/xlink">
<g id="graph0" class="graph" transform="scale(1 1) rotate(0) translate(4 79.25)">
<title>nestor_io::write_nestor_outputs</title>
<!-- Node1 -->
<g id="Node000001" class="node">
<title>Node1</title>
<g id="a_Node000001"><a xlink:title=" ">
<polygon fill="#999999" stroke="#666666" points="520.5,-42.88 407,-42.88 407,-12.37 520.5,-12.37 520.5,-42.88"/>
<text text-anchor="start" x="415" y="-29.38" font-family="Helvetica,sans-Serif" font-size="10.00">nestor_io::write_nestor</text>
<text text-anchor="middle" x="463.75" y="-18.12" font-family="Helvetica,sans-Serif" font-size="10.00">_outputs</text>
</a>
</g>
</g>
<!-- Node2 -->
<g id="Node000002" class="node">
<title>Node2</title>
<g id="a_Node000002"><a xlink:href="../../d3/d4f/funct3d_8f90.html#a800bacc22176e16323899df87b55c547" target="_top" xlink:title="Evaluate the three&#45;dimensional MHD energy functional. Think of this as the &quot;forward model&quot; that tells...">
<polygon fill="white" stroke="#666666" points="371,-56.25 322.75,-56.25 322.75,-37 371,-37 371,-56.25"/>
<text text-anchor="middle" x="346.88" y="-42.75" font-family="Helvetica,sans-Serif" font-size="10.00">funct3d</text>
</a>
</g>
</g>
<!-- Node1&#45;&gt;Node2 -->
<g id="edge1_Node000001_Node000002" class="edge">
<title>Node1&#45;&gt;Node2</title>
<g id="a_edge1_Node000001_Node000002"><a xlink:title=" ">
<path fill="none" stroke="#63b8ff" d="M395.35,-38.77C386.83,-40.18 378.62,-41.54 371.48,-42.72"/>
<polygon fill="#63b8ff" stroke="#63b8ff" points="395.87,-42.23 405.17,-37.15 394.73,-35.33 395.87,-42.23"/>
</a>
</g>
</g>
<!-- Node8 -->
<g id="Node000008" class="node">
<title>Node8</title>
<g id="a_Node000008"><a xlink:href="../../d4/d69/nestor__main_8f90.html#a1b0fd336e80285a96925333daa2ee8f0" target="_top" xlink:title="Main program of stand&#45;alone version of NESTOR.">
<polygon fill="white" stroke="#666666" points="368.38,-19.25 325.38,-19.25 325.38,0 368.38,0 368.38,-19.25"/>
<text text-anchor="middle" x="346.88" y="-5.75" font-family="Helvetica,sans-Serif" font-size="10.00">nestor</text>
</a>
</g>
</g>
<!-- Node1&#45;&gt;Node8 -->
<g id="edge8_Node000001_Node000008" class="edge">
<title>Node1&#45;&gt;Node8</title>
<g id="a_edge8_Node000001_Node000008"><a xlink:title=" ">
<path fill="none" stroke="#63b8ff" d="M395.58,-17.1C385.85,-15.58 376.51,-14.11 368.72,-12.89"/>
<polygon fill="#63b8ff" stroke="#63b8ff" points="394.74,-20.51 405.16,-18.6 395.83,-13.6 394.74,-20.51"/>
</a>
</g>
</g>
<!-- Node3 -->
<g id="Node000003" class="node">
<title>Node3</title>
<g id="a_Node000003"><a xlink:href="../../de/da9/evolve_8f90.html#a8103e838be03904e03551e04f6b396e4" target="_top" xlink:title="Take a single time step in Fourier space to evolve the Fourier coefficients describing the equilibriu...">
<polygon fill="white" stroke="#666666" points="286.75,-75.25 242.25,-75.25 242.25,-56 286.75,-56 286.75,-75.25"/>
<text text-anchor="middle" x="264.5" y="-61.75" font-family="Helvetica,sans-Serif" font-size="10.00">evolve</text>
</a>
</g>
</g>
<!-- Node2&#45;&gt;Node3 -->
<g id="edge2_Node000002_Node000003" class="edge">
<title>Node2&#45;&gt;Node3</title>
<g id="a_edge2_Node000002_Node000003"><a xlink:title=" ">
<path fill="none" stroke="#63b8ff" d="M311.62,-54.72C303.28,-56.69 294.6,-58.75 287.04,-60.53"/>
<polygon fill="#63b8ff" stroke="#63b8ff" points="312.23,-58.18 321.15,-52.47 310.62,-51.36 312.23,-58.18"/>
</a>
</g>
</g>
<!-- Node7 -->
<g id="Node000007" class="node">
<title>Node7</title>
<g id="a_Node000007"><a xlink:href="../../d0/d71/fileout_8f90.html#a7228e984aaf2c38bd772e3d846fab7af" target="_top" xlink:title="Write the output files.">
<polygon fill="white" stroke="#666666" points="202.12,-37.25 160.62,-37.25 160.62,-18 202.12,-18 202.12,-37.25"/>
<text text-anchor="middle" x="181.38" y="-23.75" font-family="Helvetica,sans-Serif" font-size="10.00">fileout</text>
</a>
</g>
</g>
<!-- Node2&#45;&gt;Node7 -->
<g id="edge6_Node000002_Node000007" class="edge">
<title>Node2&#45;&gt;Node7</title>
<g id="a_edge6_Node000002_Node000007"><a xlink:title=" ">
<path fill="none" stroke="#63b8ff" d="M311.44,-42.62C278.27,-38.77 229.25,-33.07 202.17,-29.92"/>
<polygon fill="#63b8ff" stroke="#63b8ff" points="310.61,-46.05 320.95,-43.73 311.42,-39.1 310.61,-46.05"/>
</a>
</g>
</g>
<!-- Node4 -->
<g id="Node000004" class="node">
<title>Node4</title>
<g id="a_Node000004"><a xlink:href="../../d7/d46/eqsolve_8f90.html#ab740b09d1b651e2ab8a60c5d552df0c2" target="_top" xlink:title="Iteratively evolve the Fourier coefficients that specify the equilibrium.">
<polygon fill="white" stroke="#666666" points="206.25,-74.25 156.5,-74.25 156.5,-55 206.25,-55 206.25,-74.25"/>
<text text-anchor="middle" x="181.38" y="-60.75" font-family="Helvetica,sans-Serif" font-size="10.00">eqsolve</text>
</a>
</g>
</g>
<!-- Node3&#45;&gt;Node4 -->
<g id="edge3_Node000003_Node000004" class="edge">
<title>Node3&#45;&gt;Node4</title>
<g id="a_edge3_Node000003_Node000004"><a xlink:title=" ">
<path fill="none" stroke="#63b8ff" d="M230.44,-65.22C222.42,-65.12 213.98,-65.01 206.46,-64.92"/>
<polygon fill="#63b8ff" stroke="#63b8ff" points="230.2,-68.71 240.25,-65.34 230.29,-61.72 230.2,-68.71"/>
</a>
</g>
</g>
<!-- Node5 -->
<g id="Node000005" class="node">
<title>Node5</title>
<g id="a_Node000005"><a xlink:href="../../db/d61/vmec_8f90.html#a6d38ab7be2f9d818da4541e1d352ea23" target="_top" xlink:title="Main driver for VMEC.">
<polygon fill="white" stroke="#666666" points="120.5,-55.25 80.5,-55.25 80.5,-36 120.5,-36 120.5,-55.25"/>
<text text-anchor="middle" x="100.5" y="-41.75" font-family="Helvetica,sans-Serif" font-size="10.00">vmec</text>
</a>
</g>
</g>
<!-- Node4&#45;&gt;Node5 -->
<g id="edge4_Node000004_Node000005" class="edge">
<title>Node4&#45;&gt;Node5</title>
<g id="a_edge4_Node000004_Node000005"><a xlink:title=" ">
<path fill="none" stroke="#63b8ff" d="M145.22,-56.16C136.89,-54.15 128.29,-52.08 120.96,-50.31"/>
<polygon fill="#63b8ff" stroke="#63b8ff" points="144.27,-59.53 154.81,-58.47 145.91,-52.72 144.27,-59.53"/>
</a>
</g>
</g>
<!-- Node6 -->
<g id="Node000006" class="node">
<title>Node6</title>
<g id="a_Node000006"><a xlink:href="../../db/d61/vmec_8f90.html#ace5bdf043bb85c8f0a9fc582bdb55725" target="_top" xlink:title="Main program of VMEC.">
<polygon fill="white" stroke="#666666" points="44.5,-55.25 0,-55.25 0,-36 44.5,-36 44.5,-55.25"/>
<text text-anchor="middle" x="22.25" y="-41.75" font-family="Helvetica,sans-Serif" font-size="10.00">xvmec</text>
</a>
</g>
</g>
<!-- Node5&#45;&gt;Node6 -->
<g id="edge5_Node000005_Node000006" class="edge">
<title>Node5&#45;&gt;Node6</title>
<g id="a_edge5_Node000005_Node000006"><a xlink:title=" ">
<path fill="none" stroke="#63b8ff" d="M68.97,-45.62C60.92,-45.62 52.39,-45.62 44.91,-45.62"/>
<polygon fill="#63b8ff" stroke="#63b8ff" points="68.75,-49.13 78.75,-45.63 68.75,-42.13 68.75,-49.13"/>
</a>
</g>
</g>
<!-- Node7&#45;&gt;Node5 -->
<g id="edge7_Node000007_Node000005" class="edge">
<title>Node7&#45;&gt;Node5</title>
<g id="a_edge7_Node000007_Node000005"><a xlink:title=" ">
<path fill="none" stroke="#63b8ff" d="M149.28,-34.72C139.69,-36.91 129.41,-39.26 120.85,-41.21"/>
<polygon fill="#63b8ff" stroke="#63b8ff" points="150.03,-38.14 159,-32.5 148.47,-31.32 150.03,-38.14"/>
</a>
</g>
</g>
</g>
</svg>
