<?xml version="1.0" encoding="UTF-8" standalone="no"?>
<!DOCTYPE svg PUBLIC "-//W3C//DTD SVG 1.1//EN"
 "http://www.w3.org/Graphics/SVG/1.1/DTD/svg11.dtd">
<!-- Generated by graphviz version 8.0.1 (20230327.1645)
 -->
<!-- Title: spectrum Pages: 1 -->
<svg width="178pt" height="64pt"
 viewBox="0.00 0.00 178.00 64.00" xmlns="http://www.w3.org/2000/svg" xmlns:xlink="http://www.w3.org/1999/xlink">
<g id="graph0" class="graph" transform="scale(1 1) rotate(0) translate(4 60)">
<title>spectrum</title>
<!-- Node1 -->
<g id="node1" class="node">
<title>Node1</title>
<g id="a_node1"><a xlink:title="Compute the spectral width of the surface geometry Fourier coefficients.">
<polygon fill="#999999" stroke="#666666" points="57,-37 0,-37 0,-18 57,-18 57,-37"/>
<text text-anchor="middle" x="28.5" y="-25" font-family="Helvetica,sans-Serif" font-size="10.00">spectrum</text>
</a>
</g>
</g>
<!-- Node2 -->
<g id="node2" class="node">
<title>Node2</title>
<g id="a_node2"><a xlink:href="../../dc/d49/totzsp_8f90.html#aff13f873fb632d486fdffc6ee97857c6" target="_top" xlink:title="Convert from internal representation to &quot;physical&quot; rmnsc, zmncc Fourier form.">
<polygon fill="white" stroke="#666666" points="170,-56 93,-56 93,-37 170,-37 170,-56"/>
<text text-anchor="middle" x="131.5" y="-44" font-family="Helvetica,sans-Serif" font-size="10.00">convert_asym</text>
</a>
</g>
</g>
<!-- Node1&#45;&gt;Node2 -->
<g id="edge1" class="edge">
<title>Node1&#45;&gt;Node2</title>
<path fill="none" stroke="#63b8ff" d="M57.37,-32.74C65,-34.18 73.51,-35.78 81.94,-37.37"/>
<polygon fill="#63b8ff" stroke="#63b8ff" points="81.04,-40.95 91.52,-39.35 82.34,-34.07 81.04,-40.95"/>
</g>
<!-- Node3 -->
<g id="node3" class="node">
<title>Node3</title>
<g id="a_node3"><a xlink:href="../../dc/d49/totzsp_8f90.html#a3264ce8fefaa7ede632c4147049aadc5" target="_top" xlink:title="Convert from internal representation to &quot;physical&quot; rmnss, zmncs Fourier form.">
<polygon fill="white" stroke="#666666" points="167.5,-19 95.5,-19 95.5,0 167.5,0 167.5,-19"/>
<text text-anchor="middle" x="131.5" y="-7" font-family="Helvetica,sans-Serif" font-size="10.00">convert_sym</text>
</a>
</g>
</g>
<!-- Node1&#45;&gt;Node3 -->
<g id="edge2" class="edge">
<title>Node1&#45;&gt;Node3</title>
<path fill="none" stroke="#63b8ff" d="M57.37,-22.53C65.76,-21.04 75.2,-19.35 84.45,-17.71"/>
<polygon fill="#63b8ff" stroke="#63b8ff" points="84.9,-21 94.14,-15.8 83.68,-14.11 84.9,-21"/>
</g>
</g>
</svg>
