<?xml version="1.0" encoding="UTF-8" standalone="no"?>
<!DOCTYPE svg PUBLIC "-//W3C//DTD SVG 1.1//EN"
 "http://www.w3.org/Graphics/SVG/1.1/DTD/svg11.dtd">
<!-- Generated by graphviz version 2.49.2 (20211018.0330)
 -->
<!-- Title: heading Pages: 1 -->
<svg width="357pt" height="28pt"
 viewBox="0.00 0.00 357.00 28.00" xmlns="http://www.w3.org/2000/svg" xmlns:xlink="http://www.w3.org/1999/xlink">
<g id="graph0" class="graph" transform="scale(1 1) rotate(0) translate(4 24)">
<title>heading</title>
<polygon fill="white" stroke="transparent" points="-4,4 -4,-24 353,-24 353,4 -4,4"/>
<!-- Node1 -->
<g id="node1" class="node">
<title>Node1</title>
<g id="a_node1"><a xlink:title="Open output files and print banner message at the top.">
<polygon fill="#bfbfbf" stroke="black" points="0,-0.5 0,-19.5 50,-19.5 50,-0.5 0,-0.5"/>
<text text-anchor="middle" x="25" y="-7.5" font-family="Helvetica,sans-Serif" font-size="10.00">heading</text>
</a>
</g>
</g>
<!-- Node2 -->
<g id="node2" class="node">
<title>Node2</title>
<g id="a_node2"><a xlink:href="../../d2/dc3/open__output__files_8f90.html#a8e2e97aad77c7099fa003f98f48d4dfc" target="_top" xlink:title="Open output files.">
<polygon fill="white" stroke="black" points="86,-0.5 86,-19.5 178,-19.5 178,-0.5 86,-0.5"/>
<text text-anchor="middle" x="132" y="-7.5" font-family="Helvetica,sans-Serif" font-size="10.00">open_output_files</text>
</a>
</g>
</g>
<!-- Node1&#45;&gt;Node2 -->
<g id="edge1" class="edge">
<title>Node1&#45;&gt;Node2</title>
<path fill="none" stroke="midnightblue" d="M50.09,-10C57.83,-10 66.75,-10 75.78,-10"/>
<polygon fill="midnightblue" stroke="midnightblue" points="75.97,-13.5 85.97,-10 75.97,-6.5 75.97,-13.5"/>
</g>
<!-- Node3 -->
<g id="node3" class="node">
<title>Node3</title>
<g id="a_node3"><a xlink:href="../../d0/d29/namespacesafe__open__mod.html#aab207f9769415b0cccd91260a8382eeb" target="_top" xlink:title=" ">
<polygon fill="white" stroke="black" points="214,-0.5 214,-19.5 349,-19.5 349,-0.5 214,-0.5"/>
<text text-anchor="middle" x="281.5" y="-7.5" font-family="Helvetica,sans-Serif" font-size="10.00">safe_open_mod::safe_open</text>
</a>
</g>
</g>
<!-- Node2&#45;&gt;Node3 -->
<g id="edge2" class="edge">
<title>Node2&#45;&gt;Node3</title>
<path fill="none" stroke="midnightblue" d="M178.06,-10C186.3,-10 195.12,-10 203.99,-10"/>
<polygon fill="midnightblue" stroke="midnightblue" points="204,-13.5 214,-10 204,-6.5 204,-13.5"/>
</g>
</g>
</svg>
