<?xml version="1.0" encoding="UTF-8" standalone="no"?>
<!DOCTYPE svg PUBLIC "-//W3C//DTD SVG 1.1//EN"
 "http://www.w3.org/Graphics/SVG/1.1/DTD/svg11.dtd">
<!-- Generated by graphviz version 8.0.1 (20230327.1645)
 -->
<!-- Title: heading Pages: 1 -->
<svg width="357pt" height="27pt"
 viewBox="0.00 0.00 357.00 27.00" xmlns="http://www.w3.org/2000/svg" xmlns:xlink="http://www.w3.org/1999/xlink">
<g id="graph0" class="graph" transform="scale(1 1) rotate(0) translate(4 23)">
<title>heading</title>
<!-- Node1 -->
<g id="node1" class="node">
<title>Node1</title>
<g id="a_node1"><a xlink:title="Open output files and print banner message at the top.">
<polygon fill="#999999" stroke="#666666" points="50,-19 0,-19 0,0 50,0 50,-19"/>
<text text-anchor="middle" x="25" y="-7" font-family="Helvetica,sans-Serif" font-size="10.00">heading</text>
</a>
</g>
</g>
<!-- Node2 -->
<g id="node2" class="node">
<title>Node2</title>
<g id="a_node2"><a xlink:href="../../d2/dc3/open__output__files_8f90.html#a8e2e97aad77c7099fa003f98f48d4dfc" target="_top" xlink:title="Open output files.">
<polygon fill="white" stroke="#666666" points="178,-19 86,-19 86,0 178,0 178,-19"/>
<text text-anchor="middle" x="132" y="-7" font-family="Helvetica,sans-Serif" font-size="10.00">open_output_files</text>
</a>
</g>
</g>
<!-- Node1&#45;&gt;Node2 -->
<g id="edge1" class="edge">
<title>Node1&#45;&gt;Node2</title>
<path fill="none" stroke="#63b8ff" d="M50.35,-9.5C57.76,-9.5 66.24,-9.5 74.85,-9.5"/>
<polygon fill="#63b8ff" stroke="#63b8ff" points="74.75,-13 84.75,-9.5 74.75,-6 74.75,-13"/>
</g>
<!-- Node3 -->
<g id="node3" class="node">
<title>Node3</title>
<g id="a_node3"><a xlink:href="../../d0/d29/namespacesafe__open__mod.html#aab207f9769415b0cccd91260a8382eeb" target="_top" xlink:title=" ">
<polygon fill="white" stroke="#666666" points="349,-19 214,-19 214,0 349,0 349,-19"/>
<text text-anchor="middle" x="281.5" y="-7" font-family="Helvetica,sans-Serif" font-size="10.00">safe_open_mod::safe_open</text>
</a>
</g>
</g>
<!-- Node2&#45;&gt;Node3 -->
<g id="edge2" class="edge">
<title>Node2&#45;&gt;Node3</title>
<path fill="none" stroke="#63b8ff" d="M178.46,-9.5C186.17,-9.5 194.36,-9.5 202.63,-9.5"/>
<polygon fill="#63b8ff" stroke="#63b8ff" points="202.5,-13 212.5,-9.5 202.5,-6 202.5,-13"/>
</g>
</g>
</svg>
