<?xml version="1.0" encoding="UTF-8" standalone="no"?>
<!DOCTYPE svg PUBLIC "-//W3C//DTD SVG 1.1//EN"
 "http://www.w3.org/Graphics/SVG/1.1/DTD/svg11.dtd">
<!-- Generated by graphviz version 2.48.0 (20210719.0153)
 -->
<!-- Title: becoil Pages: 1 -->
<svg width="631pt" height="85pt"
 viewBox="0.00 0.00 631.00 85.00" xmlns="http://www.w3.org/2000/svg" xmlns:xlink="http://www.w3.org/1999/xlink">
<g id="graph0" class="graph" transform="scale(1 1) rotate(0) translate(4 81)">
<title>becoil</title>
<polygon fill="white" stroke="transparent" points="-4,4 -4,-81 627,-81 627,4 -4,4"/>
<!-- Node1 -->
<g id="node1" class="node">
<title>Node1</title>
<g id="a_node1"><a xlink:title="Compute the cylindrical components of the magnetic field due to external coils. by bi&#45;linear interpol...">
<polygon fill="#bfbfbf" stroke="black" points="581,-19.5 581,-38.5 623,-38.5 623,-19.5 581,-19.5"/>
<text text-anchor="middle" x="602" y="-26.5" font-family="Helvetica,sans-Serif" font-size="10.00">becoil</text>
</a>
</g>
</g>
<!-- Node2 -->
<g id="node2" class="node">
<title>Node2</title>
<g id="a_node2"><a xlink:href="../../db/d3d/bextern_8f90.html#a90228cc5f358147ae7f59953d6f9cced" target="_top" xlink:title="Compute the total magnetic field due to external coils and the net toroidal plasma current.">
<polygon fill="white" stroke="black" points="497,-19.5 497,-38.5 545,-38.5 545,-19.5 497,-19.5"/>
<text text-anchor="middle" x="521" y="-26.5" font-family="Helvetica,sans-Serif" font-size="10.00">bextern</text>
</a>
</g>
</g>
<!-- Node1&#45;&gt;Node2 -->
<g id="edge1" class="edge">
<title>Node1&#45;&gt;Node2</title>
<path fill="none" stroke="midnightblue" d="M570.41,-29C561.99,-29 552.99,-29 545.07,-29"/>
<polygon fill="midnightblue" stroke="midnightblue" points="570.66,-32.5 580.66,-29 570.66,-25.5 570.66,-32.5"/>
</g>
<!-- Node3 -->
<g id="node3" class="node">
<title>Node3</title>
<g id="a_node3"><a xlink:href="../../dd/d6d/vacuum_8f90.html#a0acbc18d2ab7664835d797b42ce49a35" target="_top" xlink:title="Compute the vacuum contribution to the free&#45;boundary energy functional.">
<polygon fill="white" stroke="black" points="410,-19.5 410,-38.5 461,-38.5 461,-19.5 410,-19.5"/>
<text text-anchor="middle" x="435.5" y="-26.5" font-family="Helvetica,sans-Serif" font-size="10.00">vacuum</text>
</a>
</g>
</g>
<!-- Node2&#45;&gt;Node3 -->
<g id="edge2" class="edge">
<title>Node2&#45;&gt;Node3</title>
<path fill="none" stroke="midnightblue" d="M486.67,-29C478.13,-29 469.1,-29 461.09,-29"/>
<polygon fill="midnightblue" stroke="midnightblue" points="486.74,-32.5 496.74,-29 486.74,-25.5 486.74,-32.5"/>
</g>
<!-- Node4 -->
<g id="node4" class="node">
<title>Node4</title>
<g id="a_node4"><a xlink:href="../../d3/d4f/funct3d_8f90.html#a800bacc22176e16323899df87b55c547" target="_top" xlink:title="Evaluate the three&#45;dimensional MHD energy functional. Think of this as the &quot;forward model&quot; that tells...">
<polygon fill="white" stroke="black" points="325,-38.5 325,-57.5 374,-57.5 374,-38.5 325,-38.5"/>
<text text-anchor="middle" x="349.5" y="-45.5" font-family="Helvetica,sans-Serif" font-size="10.00">funct3d</text>
</a>
</g>
</g>
<!-- Node3&#45;&gt;Node4 -->
<g id="edge3" class="edge">
<title>Node3&#45;&gt;Node4</title>
<path fill="none" stroke="midnightblue" d="M399.9,-36.83C391.26,-38.78 382.18,-40.83 374.21,-42.64"/>
<polygon fill="midnightblue" stroke="midnightblue" points="400.77,-40.22 409.75,-34.6 399.23,-33.39 400.77,-40.22"/>
</g>
<!-- Node10 -->
<g id="node10" class="node">
<title>Node10</title>
<g id="a_node10"><a xlink:href="../../d4/d69/nestor__main_8f90.html#a1b0fd336e80285a96925333daa2ee8f0" target="_top" xlink:title="Main program of stand&#45;alone version of NESTOR.">
<polygon fill="white" stroke="black" points="327.5,-0.5 327.5,-19.5 371.5,-19.5 371.5,-0.5 327.5,-0.5"/>
<text text-anchor="middle" x="349.5" y="-7.5" font-family="Helvetica,sans-Serif" font-size="10.00">nestor</text>
</a>
</g>
</g>
<!-- Node3&#45;&gt;Node10 -->
<g id="edge10" class="edge">
<title>Node3&#45;&gt;Node10</title>
<path fill="none" stroke="midnightblue" d="M399.72,-21.13C390.2,-18.98 380.17,-16.71 371.66,-14.79"/>
<polygon fill="midnightblue" stroke="midnightblue" points="399.23,-24.61 409.75,-23.4 400.77,-17.78 399.23,-24.61"/>
</g>
<!-- Node5 -->
<g id="node5" class="node">
<title>Node5</title>
<g id="a_node5"><a xlink:href="../../de/da9/evolve_8f90.html#a8103e838be03904e03551e04f6b396e4" target="_top" xlink:title="Take a single time step in Fourier space to evolve the Fourier coefficients describing the equilibriu...">
<polygon fill="white" stroke="black" points="244,-57.5 244,-76.5 289,-76.5 289,-57.5 244,-57.5"/>
<text text-anchor="middle" x="266.5" y="-64.5" font-family="Helvetica,sans-Serif" font-size="10.00">evolve</text>
</a>
</g>
</g>
<!-- Node4&#45;&gt;Node5 -->
<g id="edge4" class="edge">
<title>Node4&#45;&gt;Node5</title>
<path fill="none" stroke="midnightblue" d="M314.8,-55.91C306.16,-57.93 297.11,-60.05 289.26,-61.9"/>
<polygon fill="midnightblue" stroke="midnightblue" points="315.7,-59.29 324.64,-53.6 314.1,-52.47 315.7,-59.29"/>
</g>
<!-- Node9 -->
<g id="node9" class="node">
<title>Node9</title>
<g id="a_node9"><a xlink:href="../../d0/d71/fileout_8f90.html#a7228e984aaf2c38bd772e3d846fab7af" target="_top" xlink:title="Write the output files.">
<polygon fill="white" stroke="black" points="162,-19.5 162,-38.5 204,-38.5 204,-19.5 162,-19.5"/>
<text text-anchor="middle" x="183" y="-26.5" font-family="Helvetica,sans-Serif" font-size="10.00">fileout</text>
</a>
</g>
</g>
<!-- Node4&#45;&gt;Node9 -->
<g id="edge8" class="edge">
<title>Node4&#45;&gt;Node9</title>
<path fill="none" stroke="midnightblue" d="M314.75,-44.1C281.47,-40.26 231.71,-34.51 204.16,-31.33"/>
<polygon fill="midnightblue" stroke="midnightblue" points="314.6,-47.61 324.93,-45.28 315.4,-40.65 314.6,-47.61"/>
</g>
<!-- Node6 -->
<g id="node6" class="node">
<title>Node6</title>
<g id="a_node6"><a xlink:href="../../d7/d46/eqsolve_8f90.html#ab740b09d1b651e2ab8a60c5d552df0c2" target="_top" xlink:title="Iteratively evolve the Fourier coefficients that specify the equilibrium.">
<polygon fill="white" stroke="black" points="158,-57.5 158,-76.5 208,-76.5 208,-57.5 158,-57.5"/>
<text text-anchor="middle" x="183" y="-64.5" font-family="Helvetica,sans-Serif" font-size="10.00">eqsolve</text>
</a>
</g>
</g>
<!-- Node5&#45;&gt;Node6 -->
<g id="edge5" class="edge">
<title>Node5&#45;&gt;Node6</title>
<path fill="none" stroke="midnightblue" d="M233.41,-67C225.02,-67 216.11,-67 208.2,-67"/>
<polygon fill="midnightblue" stroke="midnightblue" points="233.66,-70.5 243.66,-67 233.66,-63.5 233.66,-70.5"/>
</g>
<!-- Node7 -->
<g id="node7" class="node">
<title>Node7</title>
<g id="a_node7"><a xlink:href="../../db/d61/vmec_8f90.html#a6d38ab7be2f9d818da4541e1d352ea23" target="_top" xlink:title="Main driver for VMEC.">
<polygon fill="white" stroke="black" points="81,-38.5 81,-57.5 122,-57.5 122,-38.5 81,-38.5"/>
<text text-anchor="middle" x="101.5" y="-45.5" font-family="Helvetica,sans-Serif" font-size="10.00">vmec</text>
</a>
</g>
</g>
<!-- Node6&#45;&gt;Node7 -->
<g id="edge6" class="edge">
<title>Node6&#45;&gt;Node7</title>
<path fill="none" stroke="midnightblue" d="M147.71,-58.8C138.96,-56.71 129.84,-54.53 122.11,-52.69"/>
<polygon fill="midnightblue" stroke="midnightblue" points="147.18,-62.28 157.72,-61.2 148.8,-55.47 147.18,-62.28"/>
</g>
<!-- Node8 -->
<g id="node8" class="node">
<title>Node8</title>
<g id="a_node8"><a xlink:href="../../db/d61/vmec_8f90.html#ace5bdf043bb85c8f0a9fc582bdb55725" target="_top" xlink:title="Main program of VMEC.">
<polygon fill="white" stroke="black" points="0,-38.5 0,-57.5 45,-57.5 45,-38.5 0,-38.5"/>
<text text-anchor="middle" x="22.5" y="-45.5" font-family="Helvetica,sans-Serif" font-size="10.00">xvmec</text>
</a>
</g>
</g>
<!-- Node7&#45;&gt;Node8 -->
<g id="edge7" class="edge">
<title>Node7&#45;&gt;Node8</title>
<path fill="none" stroke="midnightblue" d="M70.42,-48C61.99,-48 52.99,-48 45.16,-48"/>
<polygon fill="midnightblue" stroke="midnightblue" points="70.67,-51.5 80.67,-48 70.67,-44.5 70.67,-51.5"/>
</g>
<!-- Node9&#45;&gt;Node7 -->
<g id="edge9" class="edge">
<title>Node9&#45;&gt;Node7</title>
<path fill="none" stroke="midnightblue" d="M151.93,-36.19C141.91,-38.58 131.01,-41.19 122.01,-43.34"/>
<polygon fill="midnightblue" stroke="midnightblue" points="153.03,-39.52 161.94,-33.79 151.4,-32.71 153.03,-39.52"/>
</g>
</g>
</svg>
