<?xml version="1.0" encoding="UTF-8" standalone="no"?>
<!DOCTYPE svg PUBLIC "-//W3C//DTD SVG 1.1//EN"
 "http://www.w3.org/Graphics/SVG/1.1/DTD/svg11.dtd">
<!-- Generated by graphviz version 2.49.2 (20211018.0330)
 -->
<!-- Title: tolower Pages: 1 -->
<svg width="324pt" height="158pt"
 viewBox="0.00 0.00 324.00 158.00" xmlns="http://www.w3.org/2000/svg" xmlns:xlink="http://www.w3.org/1999/xlink">
<g id="graph0" class="graph" transform="scale(1 1) rotate(0) translate(4 154)">
<title>tolower</title>
<polygon fill="white" stroke="transparent" points="-4,4 -4,-154 320,-154 320,4 -4,4"/>
<!-- Node1 -->
<g id="node1" class="node">
<title>Node1</title>
<g id="a_node1"><a xlink:title="Convert a string to lower case.">
<polygon fill="#bfbfbf" stroke="black" points="268,-56.5 268,-75.5 316,-75.5 316,-56.5 268,-56.5"/>
<text text-anchor="middle" x="292" y="-63.5" font-family="Helvetica,sans-Serif" font-size="10.00">tolower</text>
</a>
</g>
</g>
<!-- Node2 -->
<g id="node2" class="node">
<title>Node2</title>
<g id="a_node2"><a xlink:href="../../da/dc8/profile__functions_8f.html#a5bfa30ed89583073252fb965b7cf69e0" target="_top" xlink:title=" ">
<polygon fill="white" stroke="black" points="190,-112.5 190,-131.5 228,-131.5 228,-112.5 190,-112.5"/>
<text text-anchor="middle" x="209" y="-119.5" font-family="Helvetica,sans-Serif" font-size="10.00">pcurr</text>
</a>
</g>
</g>
<!-- Node1&#45;&gt;Node2 -->
<g id="edge1" class="edge">
<title>Node1&#45;&gt;Node2</title>
<path fill="none" stroke="midnightblue" d="M268.57,-81.51C254.27,-91.39 236.21,-103.88 223.95,-112.36"/>
<polygon fill="midnightblue" stroke="midnightblue" points="270.66,-84.32 276.89,-75.75 266.67,-78.56 270.66,-84.32"/>
</g>
<!-- Node3 -->
<g id="node3" class="node">
<title>Node3</title>
<g id="a_node3"><a xlink:href="../../da/dc8/profile__functions_8f.html#a437348e2a0ee2ababaeca2205a78b85c" target="_top" xlink:title=" ">
<polygon fill="white" stroke="black" points="190,-56.5 190,-75.5 228,-75.5 228,-56.5 190,-56.5"/>
<text text-anchor="middle" x="209" y="-63.5" font-family="Helvetica,sans-Serif" font-size="10.00">piota</text>
</a>
</g>
</g>
<!-- Node1&#45;&gt;Node3 -->
<g id="edge3" class="edge">
<title>Node1&#45;&gt;Node3</title>
<path fill="none" stroke="midnightblue" d="M257.46,-66C247.46,-66 236.86,-66 228.23,-66"/>
<polygon fill="midnightblue" stroke="midnightblue" points="257.57,-69.5 267.57,-66 257.57,-62.5 257.57,-69.5"/>
</g>
<!-- Node6 -->
<g id="node6" class="node">
<title>Node6</title>
<g id="a_node6"><a xlink:href="../../da/dc8/profile__functions_8f.html#aba5b7c2601ef5c209acc084c9a42ff6d" target="_top" xlink:title=" ">
<polygon fill="white" stroke="black" points="186,-0.5 186,-19.5 232,-19.5 232,-0.5 186,-0.5"/>
<text text-anchor="middle" x="209" y="-7.5" font-family="Helvetica,sans-Serif" font-size="10.00">pmass</text>
</a>
</g>
</g>
<!-- Node1&#45;&gt;Node6 -->
<g id="edge9" class="edge">
<title>Node1&#45;&gt;Node6</title>
<path fill="none" stroke="midnightblue" d="M268.57,-50.49C254.27,-40.61 236.21,-28.12 223.95,-19.64"/>
<polygon fill="midnightblue" stroke="midnightblue" points="266.67,-53.44 276.89,-56.25 270.66,-47.68 266.67,-53.44"/>
</g>
<!-- Node2&#45;&gt;Node2 -->
<g id="edge2" class="edge">
<title>Node2&#45;&gt;Node2</title>
<path fill="none" stroke="midnightblue" d="M224.1,-141.77C222.91,-146.5 217.88,-150 209,-150 194.43,-150 190.21,-140.57 196.36,-131.76"/>
<polygon fill="midnightblue" stroke="midnightblue" points="227.43,-140.63 221.64,-131.76 220.63,-142.3 227.43,-140.63"/>
</g>
<!-- Node3&#45;&gt;Node3 -->
<g id="edge4" class="edge">
<title>Node3&#45;&gt;Node3</title>
<path fill="none" stroke="midnightblue" d="M224.1,-85.77C222.91,-90.5 217.88,-94 209,-94 194.43,-94 190.21,-84.57 196.36,-75.76"/>
<polygon fill="midnightblue" stroke="midnightblue" points="227.43,-84.63 221.64,-75.76 220.63,-86.3 227.43,-84.63"/>
</g>
<!-- Node4 -->
<g id="node4" class="node">
<title>Node4</title>
<g id="a_node4"><a xlink:href="../../d5/d26/magnetic__fluxes_8f90.html#ad5e5642d688664c85a181c2d1fd6497f" target="_top" xlink:title="Compute the radial derivative of the enclosed poloidal magnetic flux.">
<polygon fill="white" stroke="black" points="80,-56.5 80,-75.5 150,-75.5 150,-56.5 80,-56.5"/>
<text text-anchor="middle" x="115" y="-63.5" font-family="Helvetica,sans-Serif" font-size="10.00">polflux_deriv</text>
</a>
</g>
</g>
<!-- Node3&#45;&gt;Node4 -->
<g id="edge5" class="edge">
<title>Node3&#45;&gt;Node4</title>
<path fill="none" stroke="midnightblue" d="M179.54,-66C170.24,-66 159.82,-66 150.15,-66"/>
<polygon fill="midnightblue" stroke="midnightblue" points="179.82,-69.5 189.82,-66 179.82,-62.5 179.82,-69.5"/>
</g>
<!-- Node4&#45;&gt;Node4 -->
<g id="edge8" class="edge">
<title>Node4&#45;&gt;Node4</title>
<path fill="none" stroke="midnightblue" d="M132.04,-85.4C130.9,-90.31 125.22,-94 115,-94 98.65,-94 93.92,-84.57 100.82,-75.76"/>
<polygon fill="midnightblue" stroke="midnightblue" points="135.38,-84.35 129.18,-75.76 128.66,-86.34 135.38,-84.35"/>
</g>
<!-- Node5 -->
<g id="node5" class="node">
<title>Node5</title>
<g id="a_node5"><a xlink:href="../../d5/d26/magnetic__fluxes_8f90.html#a9d78c3bac80a4d14cc82a93bc79e7dcd" target="_top" xlink:title="Compute the enclosed poloidal magnetic flux.">
<polygon fill="white" stroke="black" points="0,-56.5 0,-75.5 44,-75.5 44,-56.5 0,-56.5"/>
<text text-anchor="middle" x="22" y="-63.5" font-family="Helvetica,sans-Serif" font-size="10.00">polflux</text>
</a>
</g>
</g>
<!-- Node4&#45;&gt;Node5 -->
<g id="edge6" class="edge">
<title>Node4&#45;&gt;Node5</title>
<path fill="none" stroke="midnightblue" d="M69.83,-66C60.86,-66 51.82,-66 44.11,-66"/>
<polygon fill="midnightblue" stroke="midnightblue" points="69.86,-69.5 79.86,-66 69.86,-62.5 69.86,-69.5"/>
</g>
<!-- Node5&#45;&gt;Node5 -->
<g id="edge7" class="edge">
<title>Node5&#45;&gt;Node5</title>
<path fill="none" stroke="midnightblue" d="M39.04,-85.4C37.9,-90.31 32.22,-94 22,-94 5.65,-94 0.92,-84.57 7.82,-75.76"/>
<polygon fill="midnightblue" stroke="midnightblue" points="42.38,-84.35 36.18,-75.76 35.66,-86.34 42.38,-84.35"/>
</g>
<!-- Node6&#45;&gt;Node6 -->
<g id="edge10" class="edge">
<title>Node6&#45;&gt;Node6</title>
<path fill="none" stroke="midnightblue" d="M224.1,-29.77C222.91,-34.5 217.88,-38 209,-38 194.43,-38 190.21,-28.57 196.36,-19.76"/>
<polygon fill="midnightblue" stroke="midnightblue" points="227.43,-28.63 221.64,-19.76 220.63,-30.3 227.43,-28.63"/>
</g>
</g>
</svg>
