<?xml version="1.0" encoding="UTF-8" standalone="no"?>
<!DOCTYPE svg PUBLIC "-//W3C//DTD SVG 1.1//EN"
 "http://www.w3.org/Graphics/SVG/1.1/DTD/svg11.dtd">
<!-- Generated by graphviz version 8.1.0 (20230707.0739)
 -->
<!-- Title: tolower Pages: 1 -->
<svg width="321pt" height="155pt"
 viewBox="0.00 0.00 321.00 155.25" xmlns="http://www.w3.org/2000/svg" xmlns:xlink="http://www.w3.org/1999/xlink">

<svg id="main" version="1.1" xmlns="http://www.w3.org/2000/svg" xmlns:xlink="http://www.w3.org/1999/xlink" xml:space="preserve" onload="init(evt)">
<style type="text/css"><![CDATA[
.node, .edge {opacity: 0.7;}
.node.selected, .edge.selected {opacity: 1;}
.edge:hover path { stroke: red; }
.edge:hover polygon { stroke: red; fill: red; }
]]></style>
<script type="application/ecmascript" xlink:href="../../svg.min.js"/>
<svg id="graph" class="graph">
<g id="graph0" class="graph" transform="scale(1 1) rotate(0) translate(4 151.25)">
<title>tolower</title>
<!-- Node1 -->
<g id="Node000001" class="node">
<title>Node1</title>
<g id="a_Node000001"><a xlink:title="Convert a string to lower case.">
<polygon fill="#999999" stroke="#666666" points="313,-74.25 265.5,-74.25 265.5,-55 313,-55 313,-74.25"/>
<text text-anchor="middle" x="289.25" y="-60.75" font-family="Helvetica,sans-Serif" font-size="10.00">tolower</text>
</a>
</g>
</g>
<!-- Node2 -->
<g id="Node000002" class="node">
<title>Node2</title>
<g id="a_Node000002"><a xlink:href="../../da/dc8/profile__functions_8f.html#a5bfa30ed89583073252fb965b7cf69e0" target="_top" xlink:title=" ">
<polygon fill="white" stroke="#666666" points="225.75,-129.25 188,-129.25 188,-110 225.75,-110 225.75,-129.25"/>
<text text-anchor="middle" x="206.88" y="-115.75" font-family="Helvetica,sans-Serif" font-size="10.00">pcurr</text>
</a>
</g>
</g>
<!-- Node1&#45;&gt;Node2 -->
<g id="edge1_Node000001_Node000002" class="edge">
<title>Node1&#45;&gt;Node2</title>
<g id="a_edge1_Node000001_Node000002"><a xlink:title=" ">
<path fill="none" stroke="#63b8ff" d="M264.66,-80.77C251.02,-90.1 234.28,-101.56 222.52,-109.6"/>
<polygon fill="#63b8ff" stroke="#63b8ff" points="266.23,-83.25 272.51,-74.71 262.28,-77.47 266.23,-83.25"/>
</a>
</g>
</g>
<!-- Node3 -->
<g id="Node000003" class="node">
<title>Node3</title>
<g id="a_Node000003"><a xlink:href="../../da/dc8/profile__functions_8f.html#a437348e2a0ee2ababaeca2205a78b85c" target="_top" xlink:title=" ">
<polygon fill="white" stroke="#666666" points="225.38,-74.25 188.38,-74.25 188.38,-55 225.38,-55 225.38,-74.25"/>
<text text-anchor="middle" x="206.88" y="-60.75" font-family="Helvetica,sans-Serif" font-size="10.00">piota</text>
</a>
</g>
</g>
<!-- Node1&#45;&gt;Node3 -->
<g id="edge3_Node000001_Node000003" class="edge">
<title>Node1&#45;&gt;Node3</title>
<g id="a_edge3_Node000001_Node000003"><a xlink:title=" ">
<path fill="none" stroke="#63b8ff" d="M254.26,-64.62C244.44,-64.62 234.12,-64.62 225.71,-64.62"/>
<polygon fill="#63b8ff" stroke="#63b8ff" points="254,-68.13 264,-64.62 254,-61.13 254,-68.13"/>
</a>
</g>
</g>
<!-- Node6 -->
<g id="Node000006" class="node">
<title>Node6</title>
<g id="a_Node000006"><a xlink:href="../../da/dc8/profile__functions_8f.html#aba5b7c2601ef5c209acc084c9a42ff6d" target="_top" xlink:title=" ">
<polygon fill="white" stroke="#666666" points="229.5,-19.25 184.25,-19.25 184.25,0 229.5,0 229.5,-19.25"/>
<text text-anchor="middle" x="206.88" y="-5.75" font-family="Helvetica,sans-Serif" font-size="10.00">pmass</text>
</a>
</g>
</g>
<!-- Node1&#45;&gt;Node6 -->
<g id="edge9_Node000001_Node000006" class="edge">
<title>Node1&#45;&gt;Node6</title>
<g id="a_edge9_Node000001_Node000006"><a xlink:title=" ">
<path fill="none" stroke="#63b8ff" d="M264.66,-48.48C251.02,-39.15 234.28,-27.69 222.52,-19.65"/>
<polygon fill="#63b8ff" stroke="#63b8ff" points="262.28,-51.78 272.51,-54.54 266.23,-46 262.28,-51.78"/>
</a>
</g>
</g>
<!-- Node2&#45;&gt;Node2 -->
<g id="edge2_Node000002_Node000002" class="edge">
<title>Node2&#45;&gt;Node2</title>
<g id="a_edge2_Node000002_Node000002"><a xlink:title=" ">
<path fill="none" stroke="#63b8ff" d="M221.65,-140.32C219.94,-144.37 215.02,-147.25 206.88,-147.25 192.4,-147.25 188.1,-138.15 193.98,-129.54"/>
<polygon fill="#63b8ff" stroke="#63b8ff" points="224.93,-139.79 219.77,-130.54 218.04,-140.99 224.93,-139.79"/>
</a>
</g>
</g>
<!-- Node3&#45;&gt;Node3 -->
<g id="edge4_Node000003_Node000003" class="edge">
<title>Node3&#45;&gt;Node3</title>
<g id="a_edge4_Node000003_Node000003"><a xlink:title=" ">
<path fill="none" stroke="#63b8ff" d="M221.65,-85.32C219.94,-89.37 215.02,-92.25 206.88,-92.25 192.4,-92.25 188.1,-83.15 193.98,-74.54"/>
<polygon fill="#63b8ff" stroke="#63b8ff" points="224.93,-84.79 219.77,-75.54 218.04,-85.99 224.93,-84.79"/>
</a>
</g>
</g>
<!-- Node4 -->
<g id="Node000004" class="node">
<title>Node4</title>
<g id="a_Node000004"><a xlink:href="../../d5/d26/magnetic__fluxes_8f90.html#ad5e5642d688664c85a181c2d1fd6497f" target="_top" xlink:title="Compute the radial derivative of the enclosed poloidal magnetic flux.">
<polygon fill="white" stroke="#666666" points="148.25,-74.25 79,-74.25 79,-55 148.25,-55 148.25,-74.25"/>
<text text-anchor="middle" x="113.62" y="-60.75" font-family="Helvetica,sans-Serif" font-size="10.00">polflux_deriv</text>
</a>
</g>
</g>
<!-- Node3&#45;&gt;Node4 -->
<g id="edge5_Node000003_Node000004" class="edge">
<title>Node3&#45;&gt;Node4</title>
<g id="a_edge5_Node000003_Node000004"><a xlink:title=" ">
<path fill="none" stroke="#63b8ff" d="M177.37,-64.62C168.2,-64.62 157.94,-64.62 148.42,-64.62"/>
<polygon fill="#63b8ff" stroke="#63b8ff" points="177.28,-68.13 187.28,-64.62 177.28,-61.13 177.28,-68.13"/>
</a>
</g>
</g>
<!-- Node4&#45;&gt;Node4 -->
<g id="edge8_Node000004_Node000004" class="edge">
<title>Node4&#45;&gt;Node4</title>
<g id="a_edge8_Node000004_Node000004"><a xlink:title=" ">
<path fill="none" stroke="#63b8ff" d="M130.14,-85.32C128.24,-89.37 122.73,-92.25 113.62,-92.25 97.43,-92.25 92.62,-83.15 99.2,-74.54"/>
<polygon fill="#63b8ff" stroke="#63b8ff" points="133.39,-84.69 128.05,-75.54 126.52,-86.02 133.39,-84.69"/>
</a>
</g>
</g>
<!-- Node5 -->
<g id="Node000005" class="node">
<title>Node5</title>
<g id="a_Node000005"><a xlink:href="../../d5/d26/magnetic__fluxes_8f90.html#a9d78c3bac80a4d14cc82a93bc79e7dcd" target="_top" xlink:title="Compute the enclosed poloidal magnetic flux.">
<polygon fill="white" stroke="#666666" points="43,-74.25 0,-74.25 0,-55 43,-55 43,-74.25"/>
<text text-anchor="middle" x="21.5" y="-60.75" font-family="Helvetica,sans-Serif" font-size="10.00">polflux</text>
</a>
</g>
</g>
<!-- Node4&#45;&gt;Node5 -->
<g id="edge6_Node000004_Node000005" class="edge">
<title>Node4&#45;&gt;Node5</title>
<g id="a_edge6_Node000004_Node000005"><a xlink:title=" ">
<path fill="none" stroke="#63b8ff" d="M67.79,-64.62C59.22,-64.62 50.64,-64.62 43.28,-64.62"/>
<polygon fill="#63b8ff" stroke="#63b8ff" points="67.55,-68.13 77.55,-64.62 67.55,-61.13 67.55,-68.13"/>
</a>
</g>
</g>
<!-- Node5&#45;&gt;Node5 -->
<g id="edge7_Node000005_Node000005" class="edge">
<title>Node5&#45;&gt;Node5</title>
<g id="a_edge7_Node000005_Node000005"><a xlink:title=" ">
<path fill="none" stroke="#63b8ff" d="M38.02,-85.32C36.12,-89.37 30.61,-92.25 21.5,-92.25 5.31,-92.25 0.5,-83.15 7.08,-74.54"/>
<polygon fill="#63b8ff" stroke="#63b8ff" points="41.27,-84.69 35.92,-75.54 34.4,-86.02 41.27,-84.69"/>
</a>
</g>
</g>
<!-- Node6&#45;&gt;Node6 -->
<g id="edge10_Node000006_Node000006" class="edge">
<title>Node6&#45;&gt;Node6</title>
<g id="a_edge10_Node000006_Node000006"><a xlink:title=" ">
<path fill="none" stroke="#63b8ff" d="M221.65,-30.32C219.94,-34.37 215.02,-37.25 206.88,-37.25 192.4,-37.25 188.1,-28.15 193.98,-19.54"/>
<polygon fill="#63b8ff" stroke="#63b8ff" points="224.93,-29.79 219.77,-20.54 218.04,-30.99 224.93,-29.79"/>
</a>
</g>
</g>
</g>
</svg>
</svg>

<style type='text/css'>
<![CDATA[
[data-mouse-over-selected='false'] { opacity: 0.7; }
[data-mouse-over-selected='true']  { opacity: 1.0; }
]]>
</style>
<script type="application/ecmascript"><![CDATA[
document.addEventListener('DOMContentLoaded', (event) => {
  highlightEdges();
  highlightAdjacentNodes();
});
]]></script>
</svg>
