<?xml version="1.0" encoding="UTF-8" standalone="no"?>
<!DOCTYPE svg PUBLIC "-//W3C//DTD SVG 1.1//EN"
 "http://www.w3.org/Graphics/SVG/1.1/DTD/svg11.dtd">
<!-- Generated by graphviz version 7.1.0 (20230121.1956)
 -->
<!-- Title: tolower Pages: 1 -->
<svg width="324pt" height="155pt"
 viewBox="0.00 0.00 324.00 155.00" xmlns="http://www.w3.org/2000/svg" xmlns:xlink="http://www.w3.org/1999/xlink">
<g id="graph0" class="graph" transform="scale(1 1) rotate(0) translate(4 151)">
<title>tolower</title>
<!-- Node1 -->
<g id="node1" class="node">
<title>Node1</title>
<g id="a_node1"><a xlink:title="Convert a string to lower case.">
<polygon fill="#999999" stroke="#666666" points="316,-74 268,-74 268,-55 316,-55 316,-74"/>
<text text-anchor="middle" x="292" y="-62" font-family="Helvetica,sans-Serif" font-size="10.00">tolower</text>
</a>
</g>
</g>
<!-- Node2 -->
<g id="node2" class="node">
<title>Node2</title>
<g id="a_node2"><a xlink:href="../../da/dc8/profile__functions_8f.html#a5bfa30ed89583073252fb965b7cf69e0" target="_top" xlink:title=" ">
<polygon fill="white" stroke="#666666" points="228,-129 190,-129 190,-110 228,-110 228,-129"/>
<text text-anchor="middle" x="209" y="-117" font-family="Helvetica,sans-Serif" font-size="10.00">pcurr</text>
</a>
</g>
</g>
<!-- Node1&#45;&gt;Node2 -->
<g id="edge1" class="edge">
<title>Node1&#45;&gt;Node2</title>
<path fill="none" stroke="#63b8ff" d="M267.15,-80.7C253.36,-90.06 236.46,-101.53 224.63,-109.57"/>
<polygon fill="#63b8ff" stroke="#63b8ff" points="268.96,-83.7 275.27,-75.18 265.03,-77.91 268.96,-83.7"/>
</g>
<!-- Node3 -->
<g id="node3" class="node">
<title>Node3</title>
<g id="a_node3"><a xlink:href="../../da/dc8/profile__functions_8f.html#a437348e2a0ee2ababaeca2205a78b85c" target="_top" xlink:title=" ">
<polygon fill="white" stroke="#666666" points="228,-74 190,-74 190,-55 228,-55 228,-74"/>
<text text-anchor="middle" x="209" y="-62" font-family="Helvetica,sans-Serif" font-size="10.00">piota</text>
</a>
</g>
</g>
<!-- Node1&#45;&gt;Node3 -->
<g id="edge3" class="edge">
<title>Node1&#45;&gt;Node3</title>
<path fill="none" stroke="#63b8ff" d="M256.28,-64.5C246.73,-64.5 236.74,-64.5 228.49,-64.5"/>
<polygon fill="#63b8ff" stroke="#63b8ff" points="256.06,-68 266.06,-64.5 256.06,-61 256.06,-68"/>
</g>
<!-- Node6 -->
<g id="node6" class="node">
<title>Node6</title>
<g id="a_node6"><a xlink:href="../../da/dc8/profile__functions_8f.html#aba5b7c2601ef5c209acc084c9a42ff6d" target="_top" xlink:title=" ">
<polygon fill="white" stroke="#666666" points="232,-19 186,-19 186,0 232,0 232,-19"/>
<text text-anchor="middle" x="209" y="-7" font-family="Helvetica,sans-Serif" font-size="10.00">pmass</text>
</a>
</g>
</g>
<!-- Node1&#45;&gt;Node6 -->
<g id="edge9" class="edge">
<title>Node1&#45;&gt;Node6</title>
<path fill="none" stroke="#63b8ff" d="M267.15,-48.3C253.36,-38.94 236.46,-27.47 224.63,-19.43"/>
<polygon fill="#63b8ff" stroke="#63b8ff" points="265.03,-51.09 275.27,-53.82 268.96,-45.3 265.03,-51.09"/>
</g>
<!-- Node2&#45;&gt;Node2 -->
<g id="edge2" class="edge">
<title>Node2&#45;&gt;Node2</title>
<path fill="none" stroke="#63b8ff" d="M223.57,-140.76C221.61,-144.44 216.75,-147 209,-147 194.41,-147 190.08,-137.94 196.01,-129.37"/>
<polygon fill="#63b8ff" stroke="#63b8ff" points="227.04,-140.29 222.2,-130.87 220.1,-141.25 227.04,-140.29"/>
</g>
<!-- Node3&#45;&gt;Node3 -->
<g id="edge4" class="edge">
<title>Node3&#45;&gt;Node3</title>
<path fill="none" stroke="#63b8ff" d="M223.57,-85.76C221.61,-89.44 216.75,-92 209,-92 194.41,-92 190.08,-82.94 196.01,-74.37"/>
<polygon fill="#63b8ff" stroke="#63b8ff" points="227.04,-85.29 222.2,-75.87 220.1,-86.25 227.04,-85.29"/>
</g>
<!-- Node4 -->
<g id="node4" class="node">
<title>Node4</title>
<g id="a_node4"><a xlink:href="../../d5/d26/magnetic__fluxes_8f90.html#ad5e5642d688664c85a181c2d1fd6497f" target="_top" xlink:title="Compute the radial derivative of the enclosed poloidal magnetic flux.">
<polygon fill="white" stroke="#666666" points="150,-74 80,-74 80,-55 150,-55 150,-74"/>
<text text-anchor="middle" x="115" y="-62" font-family="Helvetica,sans-Serif" font-size="10.00">polflux_deriv</text>
</a>
</g>
</g>
<!-- Node3&#45;&gt;Node4 -->
<g id="edge5" class="edge">
<title>Node3&#45;&gt;Node4</title>
<path fill="none" stroke="#63b8ff" d="M178.32,-64.5C169.34,-64.5 159.4,-64.5 150.15,-64.5"/>
<polygon fill="#63b8ff" stroke="#63b8ff" points="178.31,-68 188.31,-64.5 178.31,-61 178.31,-68"/>
</g>
<!-- Node4&#45;&gt;Node4 -->
<g id="edge8" class="edge">
<title>Node4&#45;&gt;Node4</title>
<path fill="none" stroke="#63b8ff" d="M131.51,-85.43C129.44,-89.29 123.94,-92 115,-92 98.65,-92 93.8,-82.94 100.44,-74.37"/>
<polygon fill="#63b8ff" stroke="#63b8ff" points="135,-85.1 129.82,-75.86 128.11,-86.31 135,-85.1"/>
</g>
<!-- Node5 -->
<g id="node5" class="node">
<title>Node5</title>
<g id="a_node5"><a xlink:href="../../d5/d26/magnetic__fluxes_8f90.html#a9d78c3bac80a4d14cc82a93bc79e7dcd" target="_top" xlink:title="Compute the enclosed poloidal magnetic flux.">
<polygon fill="white" stroke="#666666" points="44,-74 0,-74 0,-55 44,-55 44,-74"/>
<text text-anchor="middle" x="22" y="-62" font-family="Helvetica,sans-Serif" font-size="10.00">polflux</text>
</a>
</g>
</g>
<!-- Node4&#45;&gt;Node5 -->
<g id="edge6" class="edge">
<title>Node4&#45;&gt;Node5</title>
<path fill="none" stroke="#63b8ff" d="M68.25,-64.5C59.86,-64.5 51.48,-64.5 44.25,-64.5"/>
<polygon fill="#63b8ff" stroke="#63b8ff" points="68.08,-68 78.08,-64.5 68.08,-61 68.08,-68"/>
</g>
<!-- Node5&#45;&gt;Node5 -->
<g id="edge7" class="edge">
<title>Node5&#45;&gt;Node5</title>
<path fill="none" stroke="#63b8ff" d="M38.51,-85.43C36.44,-89.29 30.94,-92 22,-92 5.65,-92 0.8,-82.94 7.44,-74.37"/>
<polygon fill="#63b8ff" stroke="#63b8ff" points="42,-85.1 36.82,-75.86 35.11,-86.31 42,-85.1"/>
</g>
<!-- Node6&#45;&gt;Node6 -->
<g id="edge10" class="edge">
<title>Node6&#45;&gt;Node6</title>
<path fill="none" stroke="#63b8ff" d="M223.57,-30.76C221.61,-34.44 216.75,-37 209,-37 194.41,-37 190.08,-27.94 196.01,-19.37"/>
<polygon fill="#63b8ff" stroke="#63b8ff" points="227.04,-30.29 222.2,-20.87 220.1,-31.25 227.04,-30.29"/>
</g>
</g>
</svg>
