<?xml version="1.0" encoding="UTF-8" standalone="no"?>
<!DOCTYPE svg PUBLIC "-//W3C//DTD SVG 1.1//EN"
 "http://www.w3.org/Graphics/SVG/1.1/DTD/svg11.dtd">
<!-- Generated by graphviz version 2.47.1 (20210421.1823)
 -->
<!-- Title: tolower Pages: 1 -->
<svg width="324pt" height="104pt"
 viewBox="0.00 0.00 324.00 104.00" xmlns="http://www.w3.org/2000/svg" xmlns:xlink="http://www.w3.org/1999/xlink">
<g id="graph0" class="graph" transform="scale(1 1) rotate(0) translate(4 100)">
<title>tolower</title>
<polygon fill="white" stroke="transparent" points="-4,4 -4,-100 320,-100 320,4 -4,4"/>
<!-- Node1 -->
<g id="node1" class="node">
<title>Node1</title>
<g id="a_node1"><a xlink:title="Convert a string to lower case.">
<polygon fill="#bfbfbf" stroke="black" points="268,-38.5 268,-57.5 316,-57.5 316,-38.5 268,-38.5"/>
<text text-anchor="middle" x="292" y="-45.5" font-family="Helvetica,sans-Serif" font-size="10.00">tolower</text>
</a>
</g>
</g>
<!-- Node2 -->
<g id="node2" class="node">
<title>Node2</title>
<g id="a_node2"><a xlink:href="../../da/dc8/profile__functions_8f.html#a5bfa30ed89583073252fb965b7cf69e0" target="_top" xlink:title=" ">
<polygon fill="white" stroke="black" points="190,-76.5 190,-95.5 228,-95.5 228,-76.5 190,-76.5"/>
<text text-anchor="middle" x="209" y="-83.5" font-family="Helvetica,sans-Serif" font-size="10.00">pcurr</text>
</a>
</g>
</g>
<!-- Node1&#45;&gt;Node2 -->
<g id="edge1" class="edge">
<title>Node1&#45;&gt;Node2</title>
<path fill="none" stroke="midnightblue" d="M261.23,-61.97C250.16,-67.16 237.95,-72.89 228.22,-77.45"/>
<polygon fill="midnightblue" stroke="midnightblue" points="262.99,-65 270.56,-57.59 260.02,-58.67 262.99,-65"/>
</g>
<!-- Node3 -->
<g id="node3" class="node">
<title>Node3</title>
<g id="a_node3"><a xlink:href="../../da/dc8/profile__functions_8f.html#a437348e2a0ee2ababaeca2205a78b85c" target="_top" xlink:title=" ">
<polygon fill="white" stroke="black" points="190,-38.5 190,-57.5 228,-57.5 228,-38.5 190,-38.5"/>
<text text-anchor="middle" x="209" y="-45.5" font-family="Helvetica,sans-Serif" font-size="10.00">piota</text>
</a>
</g>
</g>
<!-- Node1&#45;&gt;Node3 -->
<g id="edge2" class="edge">
<title>Node1&#45;&gt;Node3</title>
<path fill="none" stroke="midnightblue" d="M257.46,-48C247.46,-48 236.86,-48 228.23,-48"/>
<polygon fill="midnightblue" stroke="midnightblue" points="257.57,-51.5 267.57,-48 257.57,-44.5 257.57,-51.5"/>
</g>
<!-- Node6 -->
<g id="node6" class="node">
<title>Node6</title>
<g id="a_node6"><a xlink:href="../../da/dc8/profile__functions_8f.html#aba5b7c2601ef5c209acc084c9a42ff6d" target="_top" xlink:title=" ">
<polygon fill="white" stroke="black" points="186,-0.5 186,-19.5 232,-19.5 232,-0.5 186,-0.5"/>
<text text-anchor="middle" x="209" y="-7.5" font-family="Helvetica,sans-Serif" font-size="10.00">pmass</text>
</a>
</g>
</g>
<!-- Node1&#45;&gt;Node6 -->
<g id="edge5" class="edge">
<title>Node1&#45;&gt;Node6</title>
<path fill="none" stroke="midnightblue" d="M261.47,-34.15C251.16,-29.31 239.83,-24 230.43,-19.59"/>
<polygon fill="midnightblue" stroke="midnightblue" points="260.02,-37.33 270.56,-38.41 262.99,-31 260.02,-37.33"/>
</g>
<!-- Node4 -->
<g id="node4" class="node">
<title>Node4</title>
<g id="a_node4"><a xlink:href="../../d5/d26/magnetic__fluxes_8f90.html#ad5e5642d688664c85a181c2d1fd6497f" target="_top" xlink:title="Compute the radial derivative of the enclosed poloidal magnetic flux.">
<polygon fill="white" stroke="black" points="80,-38.5 80,-57.5 150,-57.5 150,-38.5 80,-38.5"/>
<text text-anchor="middle" x="115" y="-45.5" font-family="Helvetica,sans-Serif" font-size="10.00">polflux_deriv</text>
</a>
</g>
</g>
<!-- Node3&#45;&gt;Node4 -->
<g id="edge3" class="edge">
<title>Node3&#45;&gt;Node4</title>
<path fill="none" stroke="midnightblue" d="M179.54,-48C170.24,-48 159.82,-48 150.15,-48"/>
<polygon fill="midnightblue" stroke="midnightblue" points="179.82,-51.5 189.82,-48 179.82,-44.5 179.82,-51.5"/>
</g>
<!-- Node5 -->
<g id="node5" class="node">
<title>Node5</title>
<g id="a_node5"><a xlink:href="../../d5/d26/magnetic__fluxes_8f90.html#a9d78c3bac80a4d14cc82a93bc79e7dcd" target="_top" xlink:title="Compute the enclosed poloidal magnetic flux.">
<polygon fill="white" stroke="black" points="0,-38.5 0,-57.5 44,-57.5 44,-38.5 0,-38.5"/>
<text text-anchor="middle" x="22" y="-45.5" font-family="Helvetica,sans-Serif" font-size="10.00">polflux</text>
</a>
</g>
</g>
<!-- Node4&#45;&gt;Node5 -->
<g id="edge4" class="edge">
<title>Node4&#45;&gt;Node5</title>
<path fill="none" stroke="midnightblue" d="M69.83,-48C60.86,-48 51.82,-48 44.11,-48"/>
<polygon fill="midnightblue" stroke="midnightblue" points="69.86,-51.5 79.86,-48 69.86,-44.5 69.86,-51.5"/>
</g>
</g>
</svg>
