<?xml version="1.0" encoding="UTF-8" standalone="no"?>
<!DOCTYPE svg PUBLIC "-//W3C//DTD SVG 1.1//EN"
 "http://www.w3.org/Graphics/SVG/1.1/DTD/svg11.dtd">
<!-- Generated by graphviz version 8.0.1 (20230327.1645)
 -->
<!-- Title: functions::two_power_gs Pages: 1 -->
<svg width="276pt" height="45pt"
 viewBox="0.00 0.00 276.00 45.00" xmlns="http://www.w3.org/2000/svg" xmlns:xlink="http://www.w3.org/1999/xlink">
<g id="graph0" class="graph" transform="scale(1 1) rotate(0) translate(4 41)">
<title>functions::two_power_gs</title>
<!-- Node1 -->
<g id="node1" class="node">
<title>Node1</title>
<g id="a_node1"><a xlink:title="Profile function for the two_power_gs profile. .">
<polygon fill="#999999" stroke="#666666" points="124,-19 0,-19 0,0 124,0 124,-19"/>
<text text-anchor="middle" x="62" y="-7" font-family="Helvetica,sans-Serif" font-size="10.00">functions::two_power_gs</text>
</a>
</g>
</g>
<!-- Node1&#45;&gt;Node1 -->
<g id="edge3" class="edge">
<title>Node1&#45;&gt;Node1</title>
<path fill="none" stroke="#63b8ff" d="M38.2,-19.37C27.35,-27.94 35.28,-37 62,-37 77.86,-37 87.11,-33.8 89.72,-29.42"/>
<polygon fill="#63b8ff" stroke="#63b8ff" points="92.7,-28.41 85.8,-20.37 86.18,-30.96 92.7,-28.41"/>
</g>
<!-- Node2 -->
<g id="node2" class="node">
<title>Node2</title>
<g id="a_node2"><a xlink:href="../../df/d36/namespacefunctions.html#a518699207ca1e12189357365cbd4cecc" target="_top" xlink:title="Profile function for the two_power profile. .">
<polygon fill="white" stroke="#666666" points="268,-19 160,-19 160,0 268,0 268,-19"/>
<text text-anchor="middle" x="214" y="-7" font-family="Helvetica,sans-Serif" font-size="10.00">functions::two_power</text>
</a>
</g>
</g>
<!-- Node1&#45;&gt;Node2 -->
<g id="edge1" class="edge">
<title>Node1&#45;&gt;Node2</title>
<path fill="none" stroke="#63b8ff" d="M124.44,-9.5C132.45,-9.5 140.68,-9.5 148.73,-9.5"/>
<polygon fill="#63b8ff" stroke="#63b8ff" points="148.57,-13 158.57,-9.5 148.57,-6 148.57,-13"/>
</g>
<!-- Node2&#45;&gt;Node2 -->
<g id="edge2" class="edge">
<title>Node2&#45;&gt;Node2</title>
<path fill="none" stroke="#63b8ff" d="M190.2,-19.37C179.35,-27.94 187.28,-37 214,-37 229.86,-37 239.11,-33.8 241.72,-29.42"/>
<polygon fill="#63b8ff" stroke="#63b8ff" points="244.7,-28.41 237.8,-20.37 238.18,-30.96 244.7,-28.41"/>
</g>
</g>
</svg>
