<?xml version="1.0" encoding="UTF-8" standalone="no"?>
<!DOCTYPE svg PUBLIC "-//W3C//DTD SVG 1.1//EN"
 "http://www.w3.org/Graphics/SVG/1.1/DTD/svg11.dtd">
<!-- Generated by graphviz version 12.0.0 (20240704.0754)
 -->
<!-- Title: functions::two_power_gs Pages: 1 -->
<svg width="284pt" height="45pt"
 viewBox="0.00 0.00 283.75 45.25" xmlns="http://www.w3.org/2000/svg" xmlns:xlink="http://www.w3.org/1999/xlink">
<g id="graph0" class="graph" transform="scale(1 1) rotate(0) translate(4 41.25)">
<title>functions::two_power_gs</title>
<!-- Node1 -->
<g id="Node000001" class="node">
<title>Node1</title>
<g id="a_Node000001"><a xlink:title="Profile function for the two_power_gs profile. .">
<polygon fill="#999999" stroke="#666666" points="275.75,-19.25 152.5,-19.25 152.5,0 275.75,0 275.75,-19.25"/>
<text text-anchor="middle" x="214.12" y="-5.75" font-family="Helvetica,sans-Serif" font-size="10.00">functions::two_power_gs</text>
</a>
</g>
</g>
<!-- Node1&#45;&gt;Node1 -->
<g id="edge3_Node000001_Node000001" class="edge">
<title>Node1&#45;&gt;Node1</title>
<g id="a_edge3_Node000001_Node000001"><a xlink:title=" ">
<path fill="none" stroke="#63b8ff" d="M242.08,-30.32C238.85,-34.37 229.54,-37.25 214.12,-37.25 186.73,-37.25 178.59,-28.15 189.72,-19.54"/>
<polygon fill="#63b8ff" stroke="#63b8ff" points="245.45,-29.38 239,-20.98 238.8,-31.57 245.45,-29.38"/>
</a>
</g>
</g>
<!-- Node2 -->
<g id="Node000002" class="node">
<title>Node2</title>
<g id="a_Node000002"><a xlink:href="../../df/d36/namespacefunctions.html#ac8a7a9050ac08bc732ab08c620621024" target="_top" xlink:title="Main test function.">
<polygon fill="white" stroke="#666666" points="116.5,-19.25 0,-19.25 0,0 116.5,0 116.5,-19.25"/>
<text text-anchor="middle" x="58.25" y="-5.75" font-family="Helvetica,sans-Serif" font-size="10.00">functions::function_test</text>
</a>
</g>
</g>
<!-- Node1&#45;&gt;Node2 -->
<g id="edge1_Node000001_Node000002" class="edge">
<title>Node1&#45;&gt;Node2</title>
<g id="a_edge1_Node000001_Node000002"><a xlink:title=" ">
<path fill="none" stroke="#63b8ff" d="M140.88,-9.62C132.74,-9.62 124.53,-9.62 116.62,-9.62"/>
<polygon fill="#63b8ff" stroke="#63b8ff" points="140.8,-13.13 150.8,-9.63 140.8,-6.13 140.8,-13.13"/>
</a>
</g>
</g>
<!-- Node2&#45;&gt;Node2 -->
<g id="edge2_Node000002_Node000002" class="edge">
<title>Node2&#45;&gt;Node2</title>
<g id="a_edge2_Node000002_Node000002"><a xlink:title=" ">
<path fill="none" stroke="#63b8ff" d="M86.2,-30.32C82.98,-34.37 73.66,-37.25 58.25,-37.25 30.85,-37.25 22.72,-28.15 33.85,-19.54"/>
<polygon fill="#63b8ff" stroke="#63b8ff" points="89.58,-29.38 83.13,-20.98 82.93,-31.57 89.58,-29.38"/>
</a>
</g>
</g>
</g>
</svg>
