<?xml version="1.0" encoding="UTF-8" standalone="no"?>
<!DOCTYPE svg PUBLIC "-//W3C//DTD SVG 1.1//EN"
 "http://www.w3.org/Graphics/SVG/1.1/DTD/svg11.dtd">
<!-- Generated by graphviz version 9.0.0 (20230911.1827)
 -->
<!-- Title: functions::two_power Pages: 1 -->
<svg width="427pt" height="73pt"
 viewBox="0.00 0.00 427.25 73.25" xmlns="http://www.w3.org/2000/svg" xmlns:xlink="http://www.w3.org/1999/xlink">
<g id="graph0" class="graph" transform="scale(1 1) rotate(0) translate(4 69.25)">
<title>functions::two_power</title>
<!-- Node1 -->
<g id="Node000001" class="node">
<title>Node1</title>
<g id="a_Node000001"><a xlink:title="Profile function for the two_power profile. .">
<polygon fill="#999999" stroke="#666666" points="419.25,-47.25 311.75,-47.25 311.75,-28 419.25,-28 419.25,-47.25"/>
<text text-anchor="middle" x="365.5" y="-33.75" font-family="Helvetica,sans-Serif" font-size="10.00">functions::two_power</text>
</a>
</g>
</g>
<!-- Node1&#45;&gt;Node1 -->
<g id="edge3_Node000001_Node000001" class="edge">
<title>Node1&#45;&gt;Node1</title>
<g id="a_edge3_Node000001_Node000001"><a xlink:title=" ">
<path fill="none" stroke="#63b8ff" d="M392.64,-58.32C389.52,-62.37 380.47,-65.25 365.5,-65.25 338.89,-65.25 330.99,-56.15 341.8,-47.54"/>
<polygon fill="#63b8ff" stroke="#63b8ff" points="396.04,-57.44 389.66,-48.98 389.37,-59.57 396.04,-57.44"/>
</a>
</g>
</g>
<!-- Node2 -->
<g id="Node000002" class="node">
<title>Node2</title>
<g id="a_Node000002"><a xlink:href="../../df/d36/namespacefunctions.html#ac8a7a9050ac08bc732ab08c620621024" target="_top" xlink:title="Main test function.">
<polygon fill="white" stroke="#666666" points="116.5,-47.25 0,-47.25 0,-28 116.5,-28 116.5,-47.25"/>
<text text-anchor="middle" x="58.25" y="-33.75" font-family="Helvetica,sans-Serif" font-size="10.00">functions::function_test</text>
</a>
</g>
</g>
<!-- Node1&#45;&gt;Node2 -->
<g id="edge1_Node000001_Node000002" class="edge">
<title>Node1&#45;&gt;Node2</title>
<g id="a_edge1_Node000001_Node000002"><a xlink:title=" ">
<path fill="none" stroke="#63b8ff" d="M300.08,-44.93C291.9,-45.63 283.63,-46.23 275.75,-46.62 221.04,-49.39 207.21,-49.26 152.5,-46.62 140.97,-46.07 128.66,-45.13 116.89,-44.06"/>
<polygon fill="#63b8ff" stroke="#63b8ff" points="300.39,-48.42 310.03,-44.02 299.75,-41.44 300.39,-48.42"/>
</a>
</g>
</g>
<!-- Node3 -->
<g id="Node000003" class="node">
<title>Node3</title>
<g id="a_Node000003"><a xlink:href="../../df/d36/namespacefunctions.html#abc11e343e0f1425203ffbbcaaf684593" target="_top" xlink:title="Profile function for the two_power_gs profile. .">
<polygon fill="white" stroke="#666666" points="275.75,-19.25 152.5,-19.25 152.5,0 275.75,0 275.75,-19.25"/>
<text text-anchor="middle" x="214.12" y="-5.75" font-family="Helvetica,sans-Serif" font-size="10.00">functions::two_power_gs</text>
</a>
</g>
</g>
<!-- Node1&#45;&gt;Node3 -->
<g id="edge4_Node000001_Node000003" class="edge">
<title>Node1&#45;&gt;Node3</title>
<g id="a_edge4_Node000001_Node000003"><a xlink:title=" ">
<path fill="none" stroke="#63b8ff" d="M300.27,-25.59C289.86,-23.63 279.18,-21.63 269.05,-19.73"/>
<polygon fill="#63b8ff" stroke="#63b8ff" points="299.45,-28.99 309.93,-27.4 300.74,-22.11 299.45,-28.99"/>
</a>
</g>
</g>
<!-- Node2&#45;&gt;Node2 -->
<g id="edge2_Node000002_Node000002" class="edge">
<title>Node2&#45;&gt;Node2</title>
<g id="a_edge2_Node000002_Node000002"><a xlink:title=" ">
<path fill="none" stroke="#63b8ff" d="M86.2,-58.32C82.98,-62.37 73.66,-65.25 58.25,-65.25 30.85,-65.25 22.72,-56.15 33.85,-47.54"/>
<polygon fill="#63b8ff" stroke="#63b8ff" points="89.58,-57.38 83.13,-48.98 82.93,-59.57 89.58,-57.38"/>
</a>
</g>
</g>
<!-- Node3&#45;&gt;Node2 -->
<g id="edge5_Node000003_Node000002" class="edge">
<title>Node3&#45;&gt;Node2</title>
<g id="a_edge5_Node000003_Node000002"><a xlink:title=" ">
<path fill="none" stroke="#63b8ff" d="M146.28,-21.79C135.75,-23.7 124.96,-25.67 114.72,-27.53"/>
<polygon fill="#63b8ff" stroke="#63b8ff" points="146.87,-25.24 156.08,-20 145.62,-18.35 146.87,-25.24"/>
</a>
</g>
</g>
<!-- Node3&#45;&gt;Node3 -->
<g id="edge6_Node000003_Node000003" class="edge">
<title>Node3&#45;&gt;Node3</title>
<g id="a_edge6_Node000003_Node000003"><a xlink:title=" ">
<path fill="none" stroke="#63b8ff" d="M241.27,-30.32C238.14,-34.37 229.09,-37.25 214.12,-37.25 187.52,-37.25 179.62,-28.15 190.43,-19.54"/>
<polygon fill="#63b8ff" stroke="#63b8ff" points="244.66,-29.44 238.28,-20.98 237.99,-31.57 244.66,-29.44"/>
</a>
</g>
</g>
</g>
</svg>
