<?xml version="1.0" encoding="UTF-8" standalone="no"?>
<!DOCTYPE svg PUBLIC "-//W3C//DTD SVG 1.1//EN"
 "http://www.w3.org/Graphics/SVG/1.1/DTD/svg11.dtd">
<!-- Generated by graphviz version 2.49.2 (20211018.0330)
 -->
<!-- Title: functions::two_power_gs Pages: 1 -->
<svg width="285pt" height="46pt"
 viewBox="0.00 0.00 285.00 46.00" xmlns="http://www.w3.org/2000/svg" xmlns:xlink="http://www.w3.org/1999/xlink">
<g id="graph0" class="graph" transform="scale(1 1) rotate(0) translate(4 42)">
<title>functions::two_power_gs</title>
<polygon fill="white" stroke="transparent" points="-4,4 -4,-42 281,-42 281,4 -4,4"/>
<!-- Node1 -->
<g id="node1" class="node">
<title>Node1</title>
<g id="a_node1"><a xlink:title="Profile function for the two_power_gs profile. .">
<polygon fill="#bfbfbf" stroke="black" points="153,-0.5 153,-19.5 277,-19.5 277,-0.5 153,-0.5"/>
<text text-anchor="middle" x="215" y="-7.5" font-family="Helvetica,sans-Serif" font-size="10.00">functions::two_power_gs</text>
</a>
</g>
</g>
<!-- Node1&#45;&gt;Node1 -->
<g id="edge3" class="edge">
<title>Node1&#45;&gt;Node1</title>
<path fill="none" stroke="midnightblue" d="M244.12,-28.65C242.9,-33.94 233.2,-38 215,-38 187.27,-38 179.26,-28.57 190.96,-19.76"/>
<polygon fill="midnightblue" stroke="midnightblue" points="247.04,-26.71 239.04,-19.76 240.96,-30.18 247.04,-26.71"/>
</g>
<!-- Node2 -->
<g id="node2" class="node">
<title>Node2</title>
<g id="a_node2"><a xlink:href="../../df/d36/namespacefunctions.html#ac8a7a9050ac08bc732ab08c620621024" target="_top" xlink:title="Main test function.">
<polygon fill="white" stroke="black" points="0,-0.5 0,-19.5 117,-19.5 117,-0.5 0,-0.5"/>
<text text-anchor="middle" x="58.5" y="-7.5" font-family="Helvetica,sans-Serif" font-size="10.00">functions::function_test</text>
</a>
</g>
</g>
<!-- Node1&#45;&gt;Node2 -->
<g id="edge1" class="edge">
<title>Node1&#45;&gt;Node2</title>
<path fill="none" stroke="midnightblue" d="M142.87,-10C134.24,-10 125.5,-10 117.1,-10"/>
<polygon fill="midnightblue" stroke="midnightblue" points="142.94,-13.5 152.94,-10 142.94,-6.5 142.94,-13.5"/>
</g>
<!-- Node2&#45;&gt;Node2 -->
<g id="edge2" class="edge">
<title>Node2&#45;&gt;Node2</title>
<path fill="none" stroke="midnightblue" d="M87.62,-28.65C86.4,-33.94 76.7,-38 58.5,-38 30.77,-38 22.76,-28.57 34.46,-19.76"/>
<polygon fill="midnightblue" stroke="midnightblue" points="90.54,-26.71 82.54,-19.76 84.46,-30.18 90.54,-26.71"/>
</g>
</g>
</svg>
