<?xml version="1.0" encoding="UTF-8" standalone="no"?>
<!DOCTYPE svg PUBLIC "-//W3C//DTD SVG 1.1//EN"
 "http://www.w3.org/Graphics/SVG/1.1/DTD/svg11.dtd">
<!-- Generated by graphviz version 7.1.0 (20230121.1956)
 -->
<!-- Title: functions::two_power Pages: 1 -->
<svg width="429pt" height="73pt"
 viewBox="0.00 0.00 429.00 73.00" xmlns="http://www.w3.org/2000/svg" xmlns:xlink="http://www.w3.org/1999/xlink">
<g id="graph0" class="graph" transform="scale(1 1) rotate(0) translate(4 69)">
<title>functions::two_power</title>
<!-- Node1 -->
<g id="node1" class="node">
<title>Node1</title>
<g id="a_node1"><a xlink:title="Profile function for the two_power profile. .">
<polygon fill="#999999" stroke="#666666" points="421,-47 313,-47 313,-28 421,-28 421,-47"/>
<text text-anchor="middle" x="367" y="-35" font-family="Helvetica,sans-Serif" font-size="10.00">functions::two_power</text>
</a>
</g>
</g>
<!-- Node1&#45;&gt;Node1 -->
<g id="edge3" class="edge">
<title>Node1&#45;&gt;Node1</title>
<path fill="none" stroke="#63b8ff" d="M393.98,-58.43C390.61,-62.29 381.61,-65 367,-65 340.28,-65 332.35,-55.94 343.2,-47.37"/>
<polygon fill="#63b8ff" stroke="#63b8ff" points="397.34,-57.46 391.21,-48.82 390.62,-59.4 397.34,-57.46"/>
</g>
<!-- Node2 -->
<g id="node2" class="node">
<title>Node2</title>
<g id="a_node2"><a xlink:href="../../df/d36/namespacefunctions.html#ac8a7a9050ac08bc732ab08c620621024" target="_top" xlink:title="Main test function.">
<polygon fill="white" stroke="#666666" points="117,-47 0,-47 0,-28 117,-28 117,-47"/>
<text text-anchor="middle" x="58.5" y="-35" font-family="Helvetica,sans-Serif" font-size="10.00">functions::function_test</text>
</a>
</g>
</g>
<!-- Node1&#45;&gt;Node2 -->
<g id="edge1" class="edge">
<title>Node1&#45;&gt;Node2</title>
<path fill="none" stroke="#63b8ff" d="M301.68,-44.78C293.38,-45.49 285,-46.1 277,-46.5 221.96,-49.28 208.05,-49.14 153,-46.5 141.43,-45.94 129.09,-45.01 117.29,-43.94"/>
<polygon fill="#63b8ff" stroke="#63b8ff" points="301.74,-48.29 311.38,-43.89 301.1,-41.32 301.74,-48.29"/>
</g>
<!-- Node3 -->
<g id="node3" class="node">
<title>Node3</title>
<g id="a_node3"><a xlink:href="../../df/d36/namespacefunctions.html#abc11e343e0f1425203ffbbcaaf684593" target="_top" xlink:title="Profile function for the two_power_gs profile. .">
<polygon fill="white" stroke="#666666" points="277,-19 153,-19 153,0 277,0 277,-19"/>
<text text-anchor="middle" x="215" y="-7" font-family="Helvetica,sans-Serif" font-size="10.00">functions::two_power_gs</text>
</a>
</g>
</g>
<!-- Node1&#45;&gt;Node3 -->
<g id="edge4" class="edge">
<title>Node1&#45;&gt;Node3</title>
<path fill="none" stroke="#63b8ff" d="M301.63,-25.48C290.88,-23.48 279.83,-21.41 269.39,-19.47"/>
<polygon fill="#63b8ff" stroke="#63b8ff" points="300.73,-28.88 311.21,-27.27 302.02,-22 300.73,-28.88"/>
</g>
<!-- Node2&#45;&gt;Node2 -->
<g id="edge2" class="edge">
<title>Node2&#45;&gt;Node2</title>
<path fill="none" stroke="#63b8ff" d="M86.56,-58.1C83.33,-62.13 73.97,-65 58.5,-65 30.99,-65 22.82,-55.94 34,-47.37"/>
<polygon fill="#63b8ff" stroke="#63b8ff" points="89.95,-57.19 83.48,-48.8 83.31,-59.4 89.95,-57.19"/>
</g>
<!-- Node3&#45;&gt;Node2 -->
<g id="edge5" class="edge">
<title>Node3&#45;&gt;Node2</title>
<path fill="none" stroke="#63b8ff" d="M148.05,-21.45C136.87,-23.48 125.36,-25.56 114.49,-27.53"/>
<polygon fill="#63b8ff" stroke="#63b8ff" points="148.39,-24.95 157.6,-19.72 147.14,-18.06 148.39,-24.95"/>
</g>
<!-- Node3&#45;&gt;Node3 -->
<g id="edge6" class="edge">
<title>Node3&#45;&gt;Node3</title>
<path fill="none" stroke="#63b8ff" d="M241.98,-30.43C238.61,-34.29 229.61,-37 215,-37 188.28,-37 180.35,-27.94 191.2,-19.37"/>
<polygon fill="#63b8ff" stroke="#63b8ff" points="245.34,-29.46 239.21,-20.82 238.62,-31.4 245.34,-29.46"/>
</g>
</g>
</svg>
