<?xml version="1.0" encoding="UTF-8" standalone="no"?>
<!DOCTYPE svg PUBLIC "-//W3C//DTD SVG 1.1//EN"
 "http://www.w3.org/Graphics/SVG/1.1/DTD/svg11.dtd">
<!-- Generated by graphviz version 12.2.1 (20241206.2353)
 -->
<!-- Title: functions::function_test Pages: 1 -->
<svg width="427pt" height="73pt"
 viewBox="0.00 0.00 427.25 73.25" xmlns="http://www.w3.org/2000/svg" xmlns:xlink="http://www.w3.org/1999/xlink">
<g id="graph0" class="graph" transform="scale(1 1) rotate(0) translate(4 69.25)">
<title>functions::function_test</title>
<!-- Node1 -->
<g id="Node000001" class="node">
<title>Node1</title>
<g id="a_Node000001"><a xlink:title="Main test function.">
<polygon fill="#999999" stroke="#666666" points="116.5,-47.25 0,-47.25 0,-28 116.5,-28 116.5,-47.25"/>
<text text-anchor="middle" x="58.25" y="-33.75" font-family="Helvetica,sans-Serif" font-size="10.00">functions::function_test</text>
</a>
</g>
</g>
<!-- Node1&#45;&gt;Node1 -->
<g id="edge1_Node000001_Node000001" class="edge">
<title>Node1&#45;&gt;Node1</title>
<g id="a_edge1_Node000001_Node000001"><a xlink:title=" ">
<path fill="none" stroke="#63b8ff" d="M33.85,-47.54C22.72,-56.15 30.85,-65.25 58.25,-65.25 73.66,-65.25 82.98,-62.37 86.2,-58.32"/>
<polygon fill="#63b8ff" stroke="#63b8ff" points="89.58,-57.38 83.13,-48.98 82.93,-59.57 89.58,-57.38"/>
</a>
</g>
</g>
<!-- Node2 -->
<g id="Node000002" class="node">
<title>Node2</title>
<g id="a_Node000002"><a xlink:href="../../df/d36/namespacefunctions.html#a518699207ca1e12189357365cbd4cecc" target="_top" xlink:title="Profile function for the two_power profile. .">
<polygon fill="white" stroke="#666666" points="419.25,-47.25 311.75,-47.25 311.75,-28 419.25,-28 419.25,-47.25"/>
<text text-anchor="middle" x="365.5" y="-33.75" font-family="Helvetica,sans-Serif" font-size="10.00">functions::two_power</text>
</a>
</g>
</g>
<!-- Node1&#45;&gt;Node2 -->
<g id="edge2_Node000001_Node000002" class="edge">
<title>Node1&#45;&gt;Node2</title>
<g id="a_edge2_Node000001_Node000002"><a xlink:title=" ">
<path fill="none" stroke="#63b8ff" d="M116.89,-44.06C128.66,-45.13 140.97,-46.07 152.5,-46.62 207.21,-49.26 221.04,-49.39 275.75,-46.62 283.63,-46.23 291.9,-45.63 300.08,-44.93"/>
<polygon fill="#63b8ff" stroke="#63b8ff" points="300.39,-48.42 310.03,-44.02 299.75,-41.44 300.39,-48.42"/>
</a>
</g>
</g>
<!-- Node3 -->
<g id="Node000003" class="node">
<title>Node3</title>
<g id="a_Node000003"><a xlink:href="../../df/d36/namespacefunctions.html#abc11e343e0f1425203ffbbcaaf684593" target="_top" xlink:title="Profile function for the two_power_gs profile. .">
<polygon fill="white" stroke="#666666" points="275.75,-19.25 152.5,-19.25 152.5,0 275.75,0 275.75,-19.25"/>
<text text-anchor="middle" x="214.12" y="-5.75" font-family="Helvetica,sans-Serif" font-size="10.00">functions::two_power_gs</text>
</a>
</g>
</g>
<!-- Node1&#45;&gt;Node3 -->
<g id="edge4_Node000001_Node000003" class="edge">
<title>Node1&#45;&gt;Node3</title>
<g id="a_edge4_Node000001_Node000003"><a xlink:title=" ">
<path fill="none" stroke="#63b8ff" d="M114.8,-27.52C125.04,-25.65 135.83,-23.69 146.37,-21.77"/>
<polygon fill="#63b8ff" stroke="#63b8ff" points="146.95,-25.22 156.17,-19.99 145.7,-18.34 146.95,-25.22"/>
</a>
</g>
</g>
<!-- Node2&#45;&gt;Node2 -->
<g id="edge3_Node000002_Node000002" class="edge">
<title>Node2&#45;&gt;Node2</title>
<g id="a_edge3_Node000002_Node000002"><a xlink:title=" ">
<path fill="none" stroke="#63b8ff" d="M341.8,-47.54C330.99,-56.15 338.89,-65.25 365.5,-65.25 380.47,-65.25 389.52,-62.37 392.64,-58.32"/>
<polygon fill="#63b8ff" stroke="#63b8ff" points="396.04,-57.44 389.66,-48.98 389.37,-59.57 396.04,-57.44"/>
</a>
</g>
</g>
<!-- Node3&#45;&gt;Node2 -->
<g id="edge5_Node000003_Node000002" class="edge">
<title>Node3&#45;&gt;Node2</title>
<g id="a_edge5_Node000003_Node000002"><a xlink:title=" ">
<path fill="none" stroke="#63b8ff" d="M269.05,-19.73C279.24,-21.64 289.99,-23.66 300.45,-25.62"/>
<polygon fill="#63b8ff" stroke="#63b8ff" points="299.69,-29.04 310.16,-27.44 300.98,-22.16 299.69,-29.04"/>
</a>
</g>
</g>
<!-- Node3&#45;&gt;Node3 -->
<g id="edge6_Node000003_Node000003" class="edge">
<title>Node3&#45;&gt;Node3</title>
<g id="a_edge6_Node000003_Node000003"><a xlink:title=" ">
<path fill="none" stroke="#63b8ff" d="M190.43,-19.54C179.62,-28.15 187.52,-37.25 214.12,-37.25 229.09,-37.25 238.14,-34.37 241.27,-30.32"/>
<polygon fill="#63b8ff" stroke="#63b8ff" points="244.66,-29.44 238.28,-20.98 237.99,-31.57 244.66,-29.44"/>
</a>
</g>
</g>
</g>
</svg>
