<?xml version="1.0" encoding="UTF-8" standalone="no"?>
<!DOCTYPE svg PUBLIC "-//W3C//DTD SVG 1.1//EN"
 "http://www.w3.org/Graphics/SVG/1.1/DTD/svg11.dtd">
<!-- Generated by graphviz version 8.1.0 (20230707.0739)
 -->
<!-- Title: functions::two_power Pages: 1 -->
<svg width="427pt" height="73pt"
 viewBox="0.00 0.00 427.25 73.25" xmlns="http://www.w3.org/2000/svg" xmlns:xlink="http://www.w3.org/1999/xlink">
<g id="graph0" class="graph" transform="scale(1 1) rotate(0) translate(4 69.25)">
<title>functions::two_power</title>
<!-- Node1 -->
<g id="Node000001" class="node">
<title>Node1</title>
<g id="a_Node000001"><a xlink:title="Profile function for the two_power profile. .">
<polygon fill="#999999" stroke="#666666" points="419.25,-47.25 311.75,-47.25 311.75,-28 419.25,-28 419.25,-47.25"/>
<text text-anchor="middle" x="365.5" y="-33.75" font-family="Helvetica,sans-Serif" font-size="10.00">functions::two_power</text>
</a>
</g>
</g>
<!-- Node1&#45;&gt;Node1 -->
<g id="edge3_Node000001_Node000001" class="edge">
<title>Node1&#45;&gt;Node1</title>
<g id="a_edge3_Node000001_Node000001"><a xlink:title=" ">
<path fill="none" stroke="#63b8ff" d="M393.11,-57.63C390.5,-62.04 381.3,-65.25 365.5,-65.25 338.89,-65.25 330.99,-56.15 341.8,-47.54"/>
<polygon fill="#63b8ff" stroke="#63b8ff" points="396.08,-56.6 389.2,-48.54 389.55,-59.13 396.08,-56.6"/>
</a>
</g>
</g>
<!-- Node2 -->
<g id="Node000002" class="node">
<title>Node2</title>
<g id="a_Node000002"><a xlink:href="../../df/d36/namespacefunctions.html#ac8a7a9050ac08bc732ab08c620621024" target="_top" xlink:title="Main test function.">
<polygon fill="white" stroke="#666666" points="116.5,-47.25 0,-47.25 0,-28 116.5,-28 116.5,-47.25"/>
<text text-anchor="middle" x="58.25" y="-33.75" font-family="Helvetica,sans-Serif" font-size="10.00">functions::function_test</text>
</a>
</g>
</g>
<!-- Node1&#45;&gt;Node2 -->
<g id="edge1_Node000001_Node000002" class="edge">
<title>Node1&#45;&gt;Node2</title>
<g id="a_edge1_Node000001_Node000002"><a xlink:title=" ">
<path fill="none" stroke="#63b8ff" d="M300.64,-44.88C292.28,-45.6 283.82,-46.22 275.75,-46.62 221.04,-49.39 207.21,-49.26 152.5,-46.62 140.97,-46.07 128.66,-45.13 116.89,-44.06"/>
<polygon fill="#63b8ff" stroke="#63b8ff" points="300.9,-48.28 310.54,-43.88 300.26,-41.31 300.9,-48.28"/>
</a>
</g>
</g>
<!-- Node3 -->
<g id="Node000003" class="node">
<title>Node3</title>
<g id="a_Node000003"><a xlink:href="../../df/d36/namespacefunctions.html#abc11e343e0f1425203ffbbcaaf684593" target="_top" xlink:title="Profile function for the two_power_gs profile. .">
<polygon fill="white" stroke="#666666" points="275.75,-19.25 152.5,-19.25 152.5,0 275.75,0 275.75,-19.25"/>
<text text-anchor="middle" x="214.12" y="-5.75" font-family="Helvetica,sans-Serif" font-size="10.00">functions::two_power_gs</text>
</a>
</g>
</g>
<!-- Node1&#45;&gt;Node3 -->
<g id="edge4_Node000001_Node000003" class="edge">
<title>Node1&#45;&gt;Node3</title>
<g id="a_edge4_Node000001_Node000003"><a xlink:title=" ">
<path fill="none" stroke="#63b8ff" d="M300.93,-25.71C290.32,-23.72 279.39,-21.67 269.05,-19.73"/>
<polygon fill="#63b8ff" stroke="#63b8ff" points="299.94,-29.27 310.42,-27.67 301.23,-22.39 299.94,-29.27"/>
</a>
</g>
</g>
<!-- Node2&#45;&gt;Node2 -->
<g id="edge2_Node000002_Node000002" class="edge">
<title>Node2&#45;&gt;Node2</title>
<g id="a_edge2_Node000002_Node000002"><a xlink:title=" ">
<path fill="none" stroke="#63b8ff" d="M86.68,-57.63C84,-62.04 74.52,-65.25 58.25,-65.25 30.85,-65.25 22.72,-56.15 33.85,-47.54"/>
<polygon fill="#63b8ff" stroke="#63b8ff" points="89.61,-56.53 82.65,-48.54 83.11,-59.12 89.61,-56.53"/>
</a>
</g>
</g>
<!-- Node3&#45;&gt;Node2 -->
<g id="edge5_Node000003_Node000002" class="edge">
<title>Node3&#45;&gt;Node2</title>
<g id="a_edge5_Node000003_Node000002"><a xlink:title=" ">
<path fill="none" stroke="#63b8ff" d="M146.95,-21.67C136.21,-23.62 125.18,-25.63 114.72,-27.53"/>
<polygon fill="#63b8ff" stroke="#63b8ff" points="147.36,-24.97 156.57,-19.73 146.11,-18.08 147.36,-24.97"/>
</a>
</g>
</g>
<!-- Node3&#45;&gt;Node3 -->
<g id="edge6_Node000003_Node000003" class="edge">
<title>Node3&#45;&gt;Node3</title>
<g id="a_edge6_Node000003_Node000003"><a xlink:title=" ">
<path fill="none" stroke="#63b8ff" d="M241.73,-29.63C239.13,-34.04 229.92,-37.25 214.12,-37.25 187.52,-37.25 179.62,-28.15 190.43,-19.54"/>
<polygon fill="#63b8ff" stroke="#63b8ff" points="244.7,-28.6 237.82,-20.54 238.17,-31.13 244.7,-28.6"/>
</a>
</g>
</g>
</g>
</svg>
