<?xml version="1.0" encoding="UTF-8" standalone="no"?>
<!DOCTYPE svg PUBLIC "-//W3C//DTD SVG 1.1//EN"
 "http://www.w3.org/Graphics/SVG/1.1/DTD/svg11.dtd">
<!-- Generated by graphviz version 2.48.0 (20210719.0153)
 -->
<!-- Title: functions::function_test Pages: 1 -->
<svg width="429pt" height="47pt"
 viewBox="0.00 0.00 429.00 47.00" xmlns="http://www.w3.org/2000/svg" xmlns:xlink="http://www.w3.org/1999/xlink">
<g id="graph0" class="graph" transform="scale(1 1) rotate(0) translate(4 43)">
<title>functions::function_test</title>
<polygon fill="white" stroke="transparent" points="-4,4 -4,-43 425,-43 425,4 -4,4"/>
<!-- Node1 -->
<g id="node1" class="node">
<title>Node1</title>
<g id="a_node1"><a xlink:title="Main test function.">
<polygon fill="#bfbfbf" stroke="black" points="0,-19.5 0,-38.5 117,-38.5 117,-19.5 0,-19.5"/>
<text text-anchor="middle" x="58.5" y="-26.5" font-family="Helvetica,sans-Serif" font-size="10.00">functions::function_test</text>
</a>
</g>
</g>
<!-- Node2 -->
<g id="node2" class="node">
<title>Node2</title>
<g id="a_node2"><a xlink:href="../../df/d36/namespacefunctions.html#a518699207ca1e12189357365cbd4cecc" target="_top" xlink:title="Profile function for the two_power profile. .">
<polygon fill="white" stroke="black" points="313,-19.5 313,-38.5 421,-38.5 421,-19.5 313,-19.5"/>
<text text-anchor="middle" x="367" y="-26.5" font-family="Helvetica,sans-Serif" font-size="10.00">functions::two_power</text>
</a>
</g>
</g>
<!-- Node1&#45;&gt;Node2 -->
<g id="edge1" class="edge">
<title>Node1&#45;&gt;Node2</title>
<path fill="none" stroke="midnightblue" d="M117.15,-29C170.01,-29 248.15,-29 302.72,-29"/>
<polygon fill="midnightblue" stroke="midnightblue" points="302.96,-32.5 312.96,-29 302.96,-25.5 302.96,-32.5"/>
</g>
<!-- Node3 -->
<g id="node3" class="node">
<title>Node3</title>
<g id="a_node3"><a xlink:href="../../df/d36/namespacefunctions.html#abc11e343e0f1425203ffbbcaaf684593" target="_top" xlink:title="Profile function for the two_power_gs profile. .">
<polygon fill="white" stroke="black" points="153,-0.5 153,-19.5 277,-19.5 277,-0.5 153,-0.5"/>
<text text-anchor="middle" x="215" y="-7.5" font-family="Helvetica,sans-Serif" font-size="10.00">functions::two_power_gs</text>
</a>
</g>
</g>
<!-- Node1&#45;&gt;Node3 -->
<g id="edge2" class="edge">
<title>Node1&#45;&gt;Node3</title>
<path fill="none" stroke="midnightblue" d="M117.03,-21.93C125.42,-20.89 134.14,-19.82 142.75,-18.76"/>
<polygon fill="midnightblue" stroke="midnightblue" points="143.3,-22.22 152.8,-17.53 142.45,-15.27 143.3,-22.22"/>
</g>
<!-- Node3&#45;&gt;Node2 -->
<g id="edge3" class="edge">
<title>Node3&#45;&gt;Node2</title>
<path fill="none" stroke="midnightblue" d="M277.01,-17.73C285.43,-18.79 294.09,-19.89 302.55,-20.96"/>
<polygon fill="midnightblue" stroke="midnightblue" points="302.39,-24.47 312.75,-22.25 303.27,-17.53 302.39,-24.47"/>
</g>
</g>
</svg>
