<?xml version="1.0" encoding="UTF-8" standalone="no"?>
<!DOCTYPE svg PUBLIC "-//W3C//DTD SVG 1.1//EN"
 "http://www.w3.org/Graphics/SVG/1.1/DTD/svg11.dtd">
<!-- Generated by graphviz version 8.0.1 (20230327.1645)
 -->
<!-- Title: functions::two_power_gs Pages: 1 -->
<svg width="285pt" height="45pt"
 viewBox="0.00 0.00 285.00 45.00" xmlns="http://www.w3.org/2000/svg" xmlns:xlink="http://www.w3.org/1999/xlink">
<g id="graph0" class="graph" transform="scale(1 1) rotate(0) translate(4 41)">
<title>functions::two_power_gs</title>
<!-- Node1 -->
<g id="node1" class="node">
<title>Node1</title>
<g id="a_node1"><a xlink:title="Profile function for the two_power_gs profile. .">
<polygon fill="#999999" stroke="#666666" points="277,-19 153,-19 153,0 277,0 277,-19"/>
<text text-anchor="middle" x="215" y="-7" font-family="Helvetica,sans-Serif" font-size="10.00">functions::two_power_gs</text>
</a>
</g>
</g>
<!-- Node1&#45;&gt;Node1 -->
<g id="edge3" class="edge">
<title>Node1&#45;&gt;Node1</title>
<path fill="none" stroke="#63b8ff" d="M243.54,-29.42C240.85,-33.8 231.33,-37 215,-37 187.49,-37 179.32,-27.94 190.5,-19.37"/>
<polygon fill="#63b8ff" stroke="#63b8ff" points="246.48,-28.34 239.5,-20.37 239.99,-30.95 246.48,-28.34"/>
</g>
<!-- Node2 -->
<g id="node2" class="node">
<title>Node2</title>
<g id="a_node2"><a xlink:href="../../df/d36/namespacefunctions.html#ac8a7a9050ac08bc732ab08c620621024" target="_top" xlink:title="Main test function.">
<polygon fill="white" stroke="#666666" points="117,-19 0,-19 0,0 117,0 117,-19"/>
<text text-anchor="middle" x="58.5" y="-7" font-family="Helvetica,sans-Serif" font-size="10.00">functions::function_test</text>
</a>
</g>
</g>
<!-- Node1&#45;&gt;Node2 -->
<g id="edge1" class="edge">
<title>Node1&#45;&gt;Node2</title>
<path fill="none" stroke="#63b8ff" d="M142.11,-9.5C133.81,-9.5 125.43,-9.5 117.35,-9.5"/>
<polygon fill="#63b8ff" stroke="#63b8ff" points="141.94,-13 151.94,-9.5 141.94,-6 141.94,-13"/>
</g>
<!-- Node2&#45;&gt;Node2 -->
<g id="edge2" class="edge">
<title>Node2&#45;&gt;Node2</title>
<path fill="none" stroke="#63b8ff" d="M87.04,-29.42C84.35,-33.8 74.83,-37 58.5,-37 30.99,-37 22.82,-27.94 34,-19.37"/>
<polygon fill="#63b8ff" stroke="#63b8ff" points="89.98,-28.34 83,-20.37 83.49,-30.95 89.98,-28.34"/>
</g>
</g>
</svg>
