<?xml version="1.0" encoding="UTF-8" standalone="no"?>
<!DOCTYPE svg PUBLIC "-//W3C//DTD SVG 1.1//EN"
 "http://www.w3.org/Graphics/SVG/1.1/DTD/svg11.dtd">
<!-- Generated by graphviz version 8.1.0 (20230707.0739)
 -->
<!-- Title: functions::function_test Pages: 1 -->
<svg width="427pt" height="73pt"
 viewBox="0.00 0.00 427.25 73.25" xmlns="http://www.w3.org/2000/svg" xmlns:xlink="http://www.w3.org/1999/xlink">
<g id="graph0" class="graph" transform="scale(1 1) rotate(0) translate(4 69.25)">
<title>functions::function_test</title>
<!-- Node1 -->
<g id="Node000001" class="node">
<title>Node1</title>
<g id="a_Node000001"><a xlink:title="Main test function.">
<polygon fill="#999999" stroke="#666666" points="116.5,-47.25 0,-47.25 0,-28 116.5,-28 116.5,-47.25"/>
<text text-anchor="middle" x="58.25" y="-33.75" font-family="Helvetica,sans-Serif" font-size="10.00">functions::function_test</text>
</a>
</g>
</g>
<!-- Node1&#45;&gt;Node1 -->
<g id="edge1_Node000001_Node000001" class="edge">
<title>Node1&#45;&gt;Node1</title>
<g id="a_edge1_Node000001_Node000001"><a xlink:title=" ">
<path fill="none" stroke="#63b8ff" d="M33.85,-47.54C22.72,-56.15 30.85,-65.25 58.25,-65.25 74.52,-65.25 84,-62.04 86.68,-57.63"/>
<polygon fill="#63b8ff" stroke="#63b8ff" points="89.61,-56.53 82.65,-48.54 83.11,-59.12 89.61,-56.53"/>
</a>
</g>
</g>
<!-- Node2 -->
<g id="Node000002" class="node">
<title>Node2</title>
<g id="a_Node000002"><a xlink:href="../../df/d36/namespacefunctions.html#a518699207ca1e12189357365cbd4cecc" target="_top" xlink:title="Profile function for the two_power profile. .">
<polygon fill="white" stroke="#666666" points="419.25,-47.25 311.75,-47.25 311.75,-28 419.25,-28 419.25,-47.25"/>
<text text-anchor="middle" x="365.5" y="-33.75" font-family="Helvetica,sans-Serif" font-size="10.00">functions::two_power</text>
</a>
</g>
</g>
<!-- Node1&#45;&gt;Node2 -->
<g id="edge2_Node000001_Node000002" class="edge">
<title>Node1&#45;&gt;Node2</title>
<g id="a_edge2_Node000001_Node000002"><a xlink:title=" ">
<path fill="none" stroke="#63b8ff" d="M116.89,-44.06C128.66,-45.13 140.97,-46.07 152.5,-46.62 207.21,-49.26 221.04,-49.39 275.75,-46.62 283.82,-46.22 292.28,-45.6 300.64,-44.88"/>
<polygon fill="#63b8ff" stroke="#63b8ff" points="300.9,-48.28 310.54,-43.88 300.26,-41.31 300.9,-48.28"/>
</a>
</g>
</g>
<!-- Node3 -->
<g id="Node000003" class="node">
<title>Node3</title>
<g id="a_Node000003"><a xlink:href="../../df/d36/namespacefunctions.html#abc11e343e0f1425203ffbbcaaf684593" target="_top" xlink:title="Profile function for the two_power_gs profile. .">
<polygon fill="white" stroke="#666666" points="275.75,-19.25 152.5,-19.25 152.5,0 275.75,0 275.75,-19.25"/>
<text text-anchor="middle" x="214.12" y="-5.75" font-family="Helvetica,sans-Serif" font-size="10.00">functions::two_power_gs</text>
</a>
</g>
</g>
<!-- Node1&#45;&gt;Node3 -->
<g id="edge4_Node000001_Node000003" class="edge">
<title>Node1&#45;&gt;Node3</title>
<g id="a_edge4_Node000001_Node000003"><a xlink:title=" ">
<path fill="none" stroke="#63b8ff" d="M114.8,-27.52C125.26,-25.61 136.29,-23.61 147.04,-21.65"/>
<polygon fill="#63b8ff" stroke="#63b8ff" points="147.44,-24.95 156.65,-19.72 146.19,-18.07 147.44,-24.95"/>
</a>
</g>
</g>
<!-- Node2&#45;&gt;Node2 -->
<g id="edge3_Node000002_Node000002" class="edge">
<title>Node2&#45;&gt;Node2</title>
<g id="a_edge3_Node000002_Node000002"><a xlink:title=" ">
<path fill="none" stroke="#63b8ff" d="M341.8,-47.54C330.99,-56.15 338.89,-65.25 365.5,-65.25 381.3,-65.25 390.5,-62.04 393.11,-57.63"/>
<polygon fill="#63b8ff" stroke="#63b8ff" points="396.08,-56.6 389.2,-48.54 389.55,-59.13 396.08,-56.6"/>
</a>
</g>
</g>
<!-- Node3&#45;&gt;Node2 -->
<g id="edge5_Node000003_Node000002" class="edge">
<title>Node3&#45;&gt;Node2</title>
<g id="a_edge5_Node000003_Node000002"><a xlink:title=" ">
<path fill="none" stroke="#63b8ff" d="M269.05,-19.73C279.46,-21.68 290.44,-23.74 301.12,-25.74"/>
<polygon fill="#63b8ff" stroke="#63b8ff" points="300.18,-29.32 310.65,-27.72 301.47,-22.44 300.18,-29.32"/>
</a>
</g>
</g>
<!-- Node3&#45;&gt;Node3 -->
<g id="edge6_Node000003_Node000003" class="edge">
<title>Node3&#45;&gt;Node3</title>
<g id="a_edge6_Node000003_Node000003"><a xlink:title=" ">
<path fill="none" stroke="#63b8ff" d="M190.43,-19.54C179.62,-28.15 187.52,-37.25 214.12,-37.25 229.92,-37.25 239.13,-34.04 241.73,-29.63"/>
<polygon fill="#63b8ff" stroke="#63b8ff" points="244.7,-28.6 237.82,-20.54 238.17,-31.13 244.7,-28.6"/>
</a>
</g>
</g>
</g>
</svg>
