<?xml version="1.0" encoding="UTF-8" standalone="no"?>
<!DOCTYPE svg PUBLIC "-//W3C//DTD SVG 1.1//EN"
 "http://www.w3.org/Graphics/SVG/1.1/DTD/svg11.dtd">
<!-- Generated by graphviz version 7.1.0 (20230121.1956)
 -->
<!-- Title: functions::two_power_gs Pages: 1 -->
<svg width="276pt" height="45pt"
 viewBox="0.00 0.00 276.00 45.00" xmlns="http://www.w3.org/2000/svg" xmlns:xlink="http://www.w3.org/1999/xlink">
<g id="graph0" class="graph" transform="scale(1 1) rotate(0) translate(4 41)">
<title>functions::two_power_gs</title>
<!-- Node1 -->
<g id="node1" class="node">
<title>Node1</title>
<g id="a_node1"><a xlink:title="Profile function for the two_power_gs profile. .">
<polygon fill="#999999" stroke="#666666" points="124,-19 0,-19 0,0 124,0 124,-19"/>
<text text-anchor="middle" x="62" y="-7" font-family="Helvetica,sans-Serif" font-size="10.00">functions::two_power_gs</text>
</a>
</g>
</g>
<!-- Node1&#45;&gt;Node1 -->
<g id="edge3" class="edge">
<title>Node1&#45;&gt;Node1</title>
<path fill="none" stroke="#63b8ff" d="M38.2,-19.37C27.35,-27.94 35.28,-37 62,-37 76.61,-37 85.61,-34.29 88.98,-30.43"/>
<polygon fill="#63b8ff" stroke="#63b8ff" points="92.34,-29.46 86.21,-20.82 85.62,-31.4 92.34,-29.46"/>
</g>
<!-- Node2 -->
<g id="node2" class="node">
<title>Node2</title>
<g id="a_node2"><a xlink:href="../../df/d36/namespacefunctions.html#a518699207ca1e12189357365cbd4cecc" target="_top" xlink:title="Profile function for the two_power profile. .">
<polygon fill="white" stroke="#666666" points="268,-19 160,-19 160,0 268,0 268,-19"/>
<text text-anchor="middle" x="214" y="-7" font-family="Helvetica,sans-Serif" font-size="10.00">functions::two_power</text>
</a>
</g>
</g>
<!-- Node1&#45;&gt;Node2 -->
<g id="edge1" class="edge">
<title>Node1&#45;&gt;Node2</title>
<path fill="none" stroke="#63b8ff" d="M124.44,-9.5C132.27,-9.5 140.3,-9.5 148.18,-9.5"/>
<polygon fill="#63b8ff" stroke="#63b8ff" points="148.06,-13 158.06,-9.5 148.06,-6 148.06,-13"/>
</g>
<!-- Node2&#45;&gt;Node2 -->
<g id="edge2" class="edge">
<title>Node2&#45;&gt;Node2</title>
<path fill="none" stroke="#63b8ff" d="M190.2,-19.37C179.35,-27.94 187.28,-37 214,-37 228.61,-37 237.61,-34.29 240.98,-30.43"/>
<polygon fill="#63b8ff" stroke="#63b8ff" points="244.34,-29.46 238.21,-20.82 237.62,-31.4 244.34,-29.46"/>
</g>
</g>
</svg>
