<?xml version="1.0" encoding="UTF-8" standalone="no"?>
<!DOCTYPE svg PUBLIC "-//W3C//DTD SVG 1.1//EN"
 "http://www.w3.org/Graphics/SVG/1.1/DTD/svg11.dtd">
<!-- Generated by graphviz version 2.49.2 (20211018.0330)
 -->
<!-- Title: functions::two_power_gs Pages: 1 -->
<svg width="276pt" height="46pt"
 viewBox="0.00 0.00 276.00 46.00" xmlns="http://www.w3.org/2000/svg" xmlns:xlink="http://www.w3.org/1999/xlink">
<g id="graph0" class="graph" transform="scale(1 1) rotate(0) translate(4 42)">
<title>functions::two_power_gs</title>
<polygon fill="white" stroke="transparent" points="-4,4 -4,-42 272,-42 272,4 -4,4"/>
<!-- Node1 -->
<g id="node1" class="node">
<title>Node1</title>
<g id="a_node1"><a xlink:title="Profile function for the two_power_gs profile. .">
<polygon fill="#bfbfbf" stroke="black" points="0,-0.5 0,-19.5 124,-19.5 124,-0.5 0,-0.5"/>
<text text-anchor="middle" x="62" y="-7.5" font-family="Helvetica,sans-Serif" font-size="10.00">functions::two_power_gs</text>
</a>
</g>
</g>
<!-- Node1&#45;&gt;Node1 -->
<g id="edge3" class="edge">
<title>Node1&#45;&gt;Node1</title>
<path fill="none" stroke="midnightblue" d="M38.57,-19.76C27.18,-28.57 34.98,-38 62,-38 79.73,-38 89.19,-33.94 90.37,-28.65"/>
<polygon fill="midnightblue" stroke="midnightblue" points="93.34,-26.8 85.43,-19.76 87.23,-30.2 93.34,-26.8"/>
</g>
<!-- Node2 -->
<g id="node2" class="node">
<title>Node2</title>
<g id="a_node2"><a xlink:href="../../df/d36/namespacefunctions.html#a518699207ca1e12189357365cbd4cecc" target="_top" xlink:title="Profile function for the two_power profile. .">
<polygon fill="white" stroke="black" points="160,-0.5 160,-19.5 268,-19.5 268,-0.5 160,-0.5"/>
<text text-anchor="middle" x="214" y="-7.5" font-family="Helvetica,sans-Serif" font-size="10.00">functions::two_power</text>
</a>
</g>
</g>
<!-- Node1&#45;&gt;Node2 -->
<g id="edge1" class="edge">
<title>Node1&#45;&gt;Node2</title>
<path fill="none" stroke="midnightblue" d="M124.01,-10C132.43,-10 141.09,-10 149.55,-10"/>
<polygon fill="midnightblue" stroke="midnightblue" points="149.75,-13.5 159.75,-10 149.75,-6.5 149.75,-13.5"/>
</g>
<!-- Node2&#45;&gt;Node2 -->
<g id="edge2" class="edge">
<title>Node2&#45;&gt;Node2</title>
<path fill="none" stroke="midnightblue" d="M190.57,-19.76C179.18,-28.57 186.98,-38 214,-38 231.73,-38 241.19,-33.94 242.37,-28.65"/>
<polygon fill="midnightblue" stroke="midnightblue" points="245.34,-26.8 237.43,-19.76 239.23,-30.2 245.34,-26.8"/>
</g>
</g>
</svg>
