<?xml version="1.0" encoding="UTF-8" standalone="no"?>
<!DOCTYPE svg PUBLIC "-//W3C//DTD SVG 1.1//EN"
 "http://www.w3.org/Graphics/SVG/1.1/DTD/svg11.dtd">
<!-- Generated by graphviz version 8.0.1 (20230327.1645)
 -->
<!-- Title: functions::function_test Pages: 1 -->
<svg width="429pt" height="73pt"
 viewBox="0.00 0.00 429.00 73.00" xmlns="http://www.w3.org/2000/svg" xmlns:xlink="http://www.w3.org/1999/xlink">
<g id="graph0" class="graph" transform="scale(1 1) rotate(0) translate(4 69)">
<title>functions::function_test</title>
<!-- Node1 -->
<g id="node1" class="node">
<title>Node1</title>
<g id="a_node1"><a xlink:title="Main test function.">
<polygon fill="#999999" stroke="#666666" points="117,-47 0,-47 0,-28 117,-28 117,-47"/>
<text text-anchor="middle" x="58.5" y="-35" font-family="Helvetica,sans-Serif" font-size="10.00">functions::function_test</text>
</a>
</g>
</g>
<!-- Node1&#45;&gt;Node1 -->
<g id="edge1" class="edge">
<title>Node1&#45;&gt;Node1</title>
<path fill="none" stroke="#63b8ff" d="M34,-47.37C22.82,-55.94 30.99,-65 58.5,-65 74.83,-65 84.35,-61.8 87.04,-57.42"/>
<polygon fill="#63b8ff" stroke="#63b8ff" points="89.98,-56.34 83,-48.37 83.49,-58.95 89.98,-56.34"/>
</g>
<!-- Node2 -->
<g id="node2" class="node">
<title>Node2</title>
<g id="a_node2"><a xlink:href="../../df/d36/namespacefunctions.html#a518699207ca1e12189357365cbd4cecc" target="_top" xlink:title="Profile function for the two_power profile. .">
<polygon fill="white" stroke="#666666" points="421,-47 313,-47 313,-28 421,-28 421,-47"/>
<text text-anchor="middle" x="367" y="-35" font-family="Helvetica,sans-Serif" font-size="10.00">functions::two_power</text>
</a>
</g>
</g>
<!-- Node1&#45;&gt;Node2 -->
<g id="edge2" class="edge">
<title>Node1&#45;&gt;Node2</title>
<path fill="none" stroke="#63b8ff" d="M117.29,-43.94C129.09,-45.01 141.43,-45.94 153,-46.5 208.05,-49.14 221.96,-49.28 277,-46.5 285.09,-46.09 293.57,-45.48 301.96,-44.76"/>
<polygon fill="#63b8ff" stroke="#63b8ff" points="302.25,-48.15 311.89,-43.76 301.61,-41.18 302.25,-48.15"/>
</g>
<!-- Node3 -->
<g id="node3" class="node">
<title>Node3</title>
<g id="a_node3"><a xlink:href="../../df/d36/namespacefunctions.html#abc11e343e0f1425203ffbbcaaf684593" target="_top" xlink:title="Profile function for the two_power_gs profile. .">
<polygon fill="white" stroke="#666666" points="277,-19 153,-19 153,0 277,0 277,-19"/>
<text text-anchor="middle" x="215" y="-7" font-family="Helvetica,sans-Serif" font-size="10.00">functions::two_power_gs</text>
</a>
</g>
</g>
<!-- Node1&#45;&gt;Node3 -->
<g id="edge4" class="edge">
<title>Node1&#45;&gt;Node3</title>
<path fill="none" stroke="#63b8ff" d="M114.41,-27.55C125.38,-25.56 137.02,-23.45 148.32,-21.4"/>
<polygon fill="#63b8ff" stroke="#63b8ff" points="148.8,-24.69 158.01,-19.47 147.55,-17.81 148.8,-24.69"/>
</g>
<!-- Node2&#45;&gt;Node2 -->
<g id="edge3" class="edge">
<title>Node2&#45;&gt;Node2</title>
<path fill="none" stroke="#63b8ff" d="M343.2,-47.37C332.35,-55.94 340.28,-65 367,-65 382.86,-65 392.11,-61.8 394.72,-57.42"/>
<polygon fill="#63b8ff" stroke="#63b8ff" points="397.7,-56.41 390.8,-48.37 391.18,-58.96 397.7,-56.41"/>
</g>
<!-- Node3&#45;&gt;Node2 -->
<g id="edge5" class="edge">
<title>Node3&#45;&gt;Node2</title>
<path fill="none" stroke="#63b8ff" d="M269.31,-19.45C279.85,-21.42 291.03,-23.51 301.89,-25.53"/>
<polygon fill="#63b8ff" stroke="#63b8ff" points="301.14,-29.14 311.61,-27.53 302.42,-22.26 301.14,-29.14"/>
</g>
<!-- Node3&#45;&gt;Node3 -->
<g id="edge6" class="edge">
<title>Node3&#45;&gt;Node3</title>
<path fill="none" stroke="#63b8ff" d="M191.2,-19.37C180.35,-27.94 188.28,-37 215,-37 230.86,-37 240.11,-33.8 242.72,-29.42"/>
<polygon fill="#63b8ff" stroke="#63b8ff" points="245.7,-28.41 238.8,-20.37 239.18,-30.96 245.7,-28.41"/>
</g>
</g>
</svg>
