<?xml version="1.0" encoding="UTF-8" standalone="no"?>
<!DOCTYPE svg PUBLIC "-//W3C//DTD SVG 1.1//EN"
 "http://www.w3.org/Graphics/SVG/1.1/DTD/svg11.dtd">
<!-- Generated by graphviz version 2.49.2 (20211018.0330)
 -->
<!-- Title: functions::function_test Pages: 1 -->
<svg width="429pt" height="74pt"
 viewBox="0.00 0.00 429.00 74.00" xmlns="http://www.w3.org/2000/svg" xmlns:xlink="http://www.w3.org/1999/xlink">
<g id="graph0" class="graph" transform="scale(1 1) rotate(0) translate(4 70)">
<title>functions::function_test</title>
<polygon fill="white" stroke="transparent" points="-4,4 -4,-70 425,-70 425,4 -4,4"/>
<!-- Node1 -->
<g id="node1" class="node">
<title>Node1</title>
<g id="a_node1"><a xlink:title="Main test function.">
<polygon fill="#bfbfbf" stroke="black" points="0,-28.5 0,-47.5 117,-47.5 117,-28.5 0,-28.5"/>
<text text-anchor="middle" x="58.5" y="-35.5" font-family="Helvetica,sans-Serif" font-size="10.00">functions::function_test</text>
</a>
</g>
</g>
<!-- Node1&#45;&gt;Node1 -->
<g id="edge1" class="edge">
<title>Node1&#45;&gt;Node1</title>
<path fill="none" stroke="midnightblue" d="M34.46,-47.76C22.76,-56.57 30.77,-66 58.5,-66 76.7,-66 86.4,-61.94 87.62,-56.65"/>
<polygon fill="midnightblue" stroke="midnightblue" points="90.54,-54.71 82.54,-47.76 84.46,-58.18 90.54,-54.71"/>
</g>
<!-- Node2 -->
<g id="node2" class="node">
<title>Node2</title>
<g id="a_node2"><a xlink:href="../../df/d36/namespacefunctions.html#a518699207ca1e12189357365cbd4cecc" target="_top" xlink:title="Profile function for the two_power profile. .">
<polygon fill="white" stroke="black" points="313,-28.5 313,-47.5 421,-47.5 421,-28.5 313,-28.5"/>
<text text-anchor="middle" x="367" y="-35.5" font-family="Helvetica,sans-Serif" font-size="10.00">functions::two_power</text>
</a>
</g>
</g>
<!-- Node1&#45;&gt;Node2 -->
<g id="edge2" class="edge">
<title>Node1&#45;&gt;Node2</title>
<path fill="none" stroke="midnightblue" d="M117.29,-44.44C129.09,-45.51 141.43,-46.44 153,-47 208.05,-49.64 221.96,-49.78 277,-47 285.36,-46.58 294.15,-45.94 302.81,-45.18"/>
<polygon fill="midnightblue" stroke="midnightblue" points="303.25,-48.66 312.89,-44.26 302.61,-41.69 303.25,-48.66"/>
</g>
<!-- Node3 -->
<g id="node3" class="node">
<title>Node3</title>
<g id="a_node3"><a xlink:href="../../df/d36/namespacefunctions.html#abc11e343e0f1425203ffbbcaaf684593" target="_top" xlink:title="Profile function for the two_power_gs profile. .">
<polygon fill="white" stroke="black" points="153,-0.5 153,-19.5 277,-19.5 277,-0.5 153,-0.5"/>
<text text-anchor="middle" x="215" y="-7.5" font-family="Helvetica,sans-Serif" font-size="10.00">functions::two_power_gs</text>
</a>
</g>
</g>
<!-- Node1&#45;&gt;Node3 -->
<g id="edge4" class="edge">
<title>Node1&#45;&gt;Node3</title>
<path fill="none" stroke="midnightblue" d="M112.24,-28.44C124.92,-26.14 138.58,-23.67 151.65,-21.3"/>
<polygon fill="midnightblue" stroke="midnightblue" points="152.28,-24.74 161.5,-19.51 151.04,-17.85 152.28,-24.74"/>
</g>
<!-- Node2&#45;&gt;Node2 -->
<g id="edge3" class="edge">
<title>Node2&#45;&gt;Node2</title>
<path fill="none" stroke="midnightblue" d="M343.57,-47.76C332.18,-56.57 339.98,-66 367,-66 384.73,-66 394.19,-61.94 395.37,-56.65"/>
<polygon fill="midnightblue" stroke="midnightblue" points="398.34,-54.8 390.43,-47.76 392.23,-58.2 398.34,-54.8"/>
</g>
<!-- Node3&#45;&gt;Node2 -->
<g id="edge5" class="edge">
<title>Node3&#45;&gt;Node2</title>
<path fill="none" stroke="midnightblue" d="M267.2,-19.56C279.39,-21.83 292.51,-24.28 305.09,-26.63"/>
<polygon fill="midnightblue" stroke="midnightblue" points="304.56,-30.09 315.03,-28.49 305.84,-23.21 304.56,-30.09"/>
</g>
<!-- Node3&#45;&gt;Node3 -->
<g id="edge6" class="edge">
<title>Node3&#45;&gt;Node3</title>
<path fill="none" stroke="midnightblue" d="M191.57,-19.76C180.18,-28.57 187.98,-38 215,-38 232.73,-38 242.19,-33.94 243.37,-28.65"/>
<polygon fill="midnightblue" stroke="midnightblue" points="246.34,-26.8 238.43,-19.76 240.23,-30.2 246.34,-26.8"/>
</g>
</g>
</svg>
