<?xml version="1.0" encoding="UTF-8" standalone="no"?>
<!DOCTYPE svg PUBLIC "-//W3C//DTD SVG 1.1//EN"
 "http://www.w3.org/Graphics/SVG/1.1/DTD/svg11.dtd">
<!-- Generated by graphviz version 2.49.3 (20211027.1501)
 -->
<!-- Title: interp Pages: 1 -->
<svg width="214pt" height="84pt"
 viewBox="0.00 0.00 214.00 84.00" xmlns="http://www.w3.org/2000/svg" xmlns:xlink="http://www.w3.org/1999/xlink">
<g id="graph0" class="graph" transform="scale(1 1) rotate(0) translate(4 80)">
<title>interp</title>
<polygon fill="white" stroke="transparent" points="-4,4 -4,-80 210,-80 210,4 -4,4"/>
<!-- Node1 -->
<g id="node1" class="node">
<title>Node1</title>
<g id="a_node1"><a xlink:title="Interpolate , &#160;and &#160;on full grid.">
<polygon fill="#bfbfbf" stroke="black" points="0,-28.5 0,-47.5 41,-47.5 41,-28.5 0,-28.5"/>
<text text-anchor="middle" x="20.5" y="-35.5" font-family="Helvetica,sans-Serif" font-size="10.00">interp</text>
</a>
</g>
</g>
<!-- Node2 -->
<g id="node2" class="node">
<title>Node2</title>
<g id="a_node2"><a xlink:href="../../d8/dfd/namespacedbgout.html#a0752528f123b592bc57f687438b75d9b" target="_top" xlink:title=" ">
<polygon fill="white" stroke="black" points="77,-56.5 77,-75.5 206,-75.5 206,-56.5 77,-56.5"/>
<text text-anchor="middle" x="141.5" y="-63.5" font-family="Helvetica,sans-Serif" font-size="10.00">dbgout::open_dbg_context</text>
</a>
</g>
</g>
<!-- Node1&#45;&gt;Node2 -->
<g id="edge1" class="edge">
<title>Node1&#45;&gt;Node2</title>
<path fill="none" stroke="midnightblue" d="M41.15,-42.62C54.5,-45.77 72.82,-50.07 90.08,-54.14"/>
<polygon fill="midnightblue" stroke="midnightblue" points="89.55,-57.61 100.08,-56.49 91.15,-50.79 89.55,-57.61"/>
</g>
<!-- Node3 -->
<g id="node3" class="node">
<title>Node3</title>
<g id="a_node3"><a xlink:href="../../d8/dfd/namespacedbgout.html#a0537172e9da0db08b9d29ab8880f0559" target="_top" xlink:title=" ">
<polygon fill="white" stroke="black" points="89,-0.5 89,-19.5 194,-19.5 194,-0.5 89,-0.5"/>
<text text-anchor="middle" x="141.5" y="-7.5" font-family="Helvetica,sans-Serif" font-size="10.00">dbgout::should_write</text>
</a>
</g>
</g>
<!-- Node1&#45;&gt;Node3 -->
<g id="edge2" class="edge">
<title>Node1&#45;&gt;Node3</title>
<path fill="none" stroke="midnightblue" d="M41.15,-33.38C54.5,-30.23 72.82,-25.93 90.08,-21.86"/>
<polygon fill="midnightblue" stroke="midnightblue" points="91.15,-25.21 100.08,-19.51 89.55,-18.39 91.15,-25.21"/>
</g>
<!-- Node3&#45;&gt;Node3 -->
<g id="edge3" class="edge">
<title>Node3&#45;&gt;Node3</title>
<path fill="none" stroke="midnightblue" d="M123,-19.76C114.01,-28.57 120.17,-38 141.5,-38 155.16,-38 162.6,-34.13 163.82,-29.03"/>
<polygon fill="midnightblue" stroke="midnightblue" points="167.05,-27.67 160,-19.76 160.57,-30.34 167.05,-27.67"/>
</g>
</g>
</svg>
