<?xml version="1.0" encoding="UTF-8" standalone="no"?>
<!DOCTYPE svg PUBLIC "-//W3C//DTD SVG 1.1//EN"
 "http://www.w3.org/Graphics/SVG/1.1/DTD/svg11.dtd">
<!-- Generated by graphviz version 2.47.1 (20210421.1823)
 -->
<!-- Title: read_indata Pages: 1 -->
<svg width="246pt" height="127pt"
 viewBox="0.00 0.00 246.00 127.00" xmlns="http://www.w3.org/2000/svg" xmlns:xlink="http://www.w3.org/1999/xlink">
<g id="graph0" class="graph" transform="scale(1 1) rotate(0) translate(4 123)">
<title>read_indata</title>
<polygon fill="white" stroke="transparent" points="-4,4 -4,-123 242,-123 242,4 -4,4"/>
<!-- Node1 -->
<g id="node1" class="node">
<title>Node1</title>
<g id="a_node1"><a xlink:title="Read the INDATA namelist from a given input file.">
<polygon fill="#bfbfbf" stroke="black" points="0,-50 0,-69 67,-69 67,-50 0,-50"/>
<text text-anchor="middle" x="33.5" y="-57" font-family="Helvetica,sans-Serif" font-size="10.00">read_indata</text>
</a>
</g>
</g>
<!-- Node2 -->
<g id="node2" class="node">
<title>Node2</title>
<g id="a_node2"><a xlink:href="../../d8/dbf/namespacevmec__input.html#a02b29863a947531e6c4e8d7c66c5a5e0" target="_top" xlink:title=" ">
<polygon fill="white" stroke="black" points="109.5,-88.5 109.5,-118.5 231.5,-118.5 231.5,-88.5 109.5,-88.5"/>
<text text-anchor="start" x="117.5" y="-106.5" font-family="Helvetica,sans-Serif" font-size="10.00">vmec_input::read_indata</text>
<text text-anchor="middle" x="170.5" y="-95.5" font-family="Helvetica,sans-Serif" font-size="10.00">_namelist</text>
</a>
</g>
</g>
<!-- Node1&#45;&gt;Node2 -->
<g id="edge1" class="edge">
<title>Node1&#45;&gt;Node2</title>
<path fill="none" stroke="midnightblue" d="M63.79,-69.05C78.31,-73.78 96.35,-79.66 113.39,-85.21"/>
<polygon fill="midnightblue" stroke="midnightblue" points="112.68,-88.66 123.28,-88.43 114.85,-82.01 112.68,-88.66"/>
</g>
<!-- Node3 -->
<g id="node3" class="node">
<title>Node3</title>
<g id="a_node3"><a xlink:href="../../d0/d29/namespacesafe__open__mod.html#aab207f9769415b0cccd91260a8382eeb" target="_top" xlink:title=" ">
<polygon fill="white" stroke="black" points="103,-50 103,-69 238,-69 238,-50 103,-50"/>
<text text-anchor="middle" x="170.5" y="-57" font-family="Helvetica,sans-Serif" font-size="10.00">safe_open_mod::safe_open</text>
</a>
</g>
</g>
<!-- Node1&#45;&gt;Node3 -->
<g id="edge2" class="edge">
<title>Node1&#45;&gt;Node3</title>
<path fill="none" stroke="midnightblue" d="M67.18,-59.5C75.06,-59.5 83.81,-59.5 92.79,-59.5"/>
<polygon fill="midnightblue" stroke="midnightblue" points="92.98,-63 102.98,-59.5 92.98,-56 92.98,-63"/>
</g>
<!-- Node4 -->
<g id="node4" class="node">
<title>Node4</title>
<g id="a_node4"><a xlink:href="../../d2/d04/namespacevacmod0.html#a4be777018e003400355a27b190d7d39a" target="_top" xlink:title=" ">
<polygon fill="white" stroke="black" points="117,-0.5 117,-30.5 224,-30.5 224,-0.5 117,-0.5"/>
<text text-anchor="start" x="125" y="-18.5" font-family="Helvetica,sans-Serif" font-size="10.00">vacmod0::set_nestor</text>
<text text-anchor="middle" x="170.5" y="-7.5" font-family="Helvetica,sans-Serif" font-size="10.00">_sizes</text>
</a>
</g>
</g>
<!-- Node1&#45;&gt;Node4 -->
<g id="edge3" class="edge">
<title>Node1&#45;&gt;Node4</title>
<path fill="none" stroke="midnightblue" d="M63.79,-49.95C78.31,-45.22 96.35,-39.34 113.39,-33.79"/>
<polygon fill="midnightblue" stroke="midnightblue" points="114.85,-36.99 123.28,-30.57 112.68,-30.34 114.85,-36.99"/>
</g>
</g>
</svg>
