<?xml version="1.0" encoding="UTF-8" standalone="no"?>
<!DOCTYPE svg PUBLIC "-//W3C//DTD SVG 1.1//EN"
 "http://www.w3.org/Graphics/SVG/1.1/DTD/svg11.dtd">
<!-- Generated by graphviz version 8.0.5 (20230430.1635)
 -->
<!-- Title: read_indata Pages: 1 -->
<svg width="245pt" height="125pt"
 viewBox="0.00 0.00 244.75 124.50" xmlns="http://www.w3.org/2000/svg" xmlns:xlink="http://www.w3.org/1999/xlink">
<g id="graph0" class="graph" transform="scale(1 1) rotate(0) translate(4 120.5)">
<title>read_indata</title>
<!-- Node1 -->
<g id="Node000001" class="node">
<title>Node1</title>
<g id="a_Node000001"><a xlink:title="Read the INDATA namelist from a given input file.">
<polygon fill="#999999" stroke="#666666" points="66.25,-67.88 0,-67.88 0,-48.62 66.25,-48.62 66.25,-67.88"/>
<text text-anchor="middle" x="33.12" y="-54.38" font-family="Helvetica,sans-Serif" font-size="10.00">read_indata</text>
</a>
</g>
</g>
<!-- Node2 -->
<g id="Node000002" class="node">
<title>Node2</title>
<g id="a_Node000002"><a xlink:href="../../d8/dbf/namespacevmec__input.html#a02b29863a947531e6c4e8d7c66c5a5e0" target="_top" xlink:title=" ">
<polygon fill="white" stroke="#666666" points="230,-116.5 109,-116.5 109,-86 230,-86 230,-116.5"/>
<text text-anchor="start" x="117" y="-103" font-family="Helvetica,sans-Serif" font-size="10.00">vmec_input::read_indata</text>
<text text-anchor="middle" x="169.5" y="-91.75" font-family="Helvetica,sans-Serif" font-size="10.00">_namelist</text>
</a>
</g>
</g>
<!-- Node1&#45;&gt;Node2 -->
<g id="edge1_Node000001_Node000002" class="edge">
<title>Node1&#45;&gt;Node2</title>
<g id="a_edge1_Node000001_Node000002"><a xlink:title=" ">
<path fill="none" stroke="#63b8ff" d="M65.63,-68.33C78.61,-72.49 94.1,-77.44 109.07,-82.23"/>
<polygon fill="#63b8ff" stroke="#63b8ff" points="107.72,-85.8 118.31,-85.51 109.85,-79.13 107.72,-85.8"/>
</a>
</g>
</g>
<!-- Node3 -->
<g id="Node000003" class="node">
<title>Node3</title>
<g id="a_Node000003"><a xlink:href="../../d0/d29/namespacesafe__open__mod.html#aab207f9769415b0cccd91260a8382eeb" target="_top" xlink:title=" ">
<polygon fill="white" stroke="#666666" points="236.75,-67.88 102.25,-67.88 102.25,-48.62 236.75,-48.62 236.75,-67.88"/>
<text text-anchor="middle" x="169.5" y="-54.38" font-family="Helvetica,sans-Serif" font-size="10.00">safe_open_mod::safe_open</text>
</a>
</g>
</g>
<!-- Node1&#45;&gt;Node3 -->
<g id="edge2_Node000001_Node000003" class="edge">
<title>Node1&#45;&gt;Node3</title>
<g id="a_edge2_Node000001_Node000003"><a xlink:title=" ">
<path fill="none" stroke="#63b8ff" d="M66.65,-58.25C74.14,-58.25 82.41,-58.25 90.91,-58.25"/>
<polygon fill="#63b8ff" stroke="#63b8ff" points="90.75,-61.75 100.75,-58.25 90.75,-54.75 90.75,-61.75"/>
</a>
</g>
</g>
<!-- Node4 -->
<g id="Node000004" class="node">
<title>Node4</title>
<g id="a_Node000004"><a xlink:href="../../d2/d04/namespacevacmod0.html#a4be777018e003400355a27b190d7d39a" target="_top" xlink:title=" ">
<polygon fill="white" stroke="#666666" points="222.5,-30.5 116.5,-30.5 116.5,0 222.5,0 222.5,-30.5"/>
<text text-anchor="start" x="124.5" y="-17" font-family="Helvetica,sans-Serif" font-size="10.00">vacmod0::set_nestor</text>
<text text-anchor="middle" x="169.5" y="-5.75" font-family="Helvetica,sans-Serif" font-size="10.00">_sizes</text>
</a>
</g>
</g>
<!-- Node1&#45;&gt;Node4 -->
<g id="edge3_Node000001_Node000004" class="edge">
<title>Node1&#45;&gt;Node4</title>
<g id="a_edge3_Node000001_Node000004"><a xlink:title=" ">
<path fill="none" stroke="#63b8ff" d="M65.63,-48.17C78.61,-44.01 94.1,-39.06 109.07,-34.27"/>
<polygon fill="#63b8ff" stroke="#63b8ff" points="109.85,-37.37 118.31,-30.99 107.72,-30.7 109.85,-37.37"/>
</a>
</g>
</g>
</g>
</svg>
