<?xml version="1.0" encoding="UTF-8" standalone="no"?>
<!DOCTYPE svg PUBLIC "-//W3C//DTD SVG 1.1//EN"
 "http://www.w3.org/Graphics/SVG/1.1/DTD/svg11.dtd">
<!-- Generated by graphviz version 7.1.0 (20230121.1956)
 -->
<!-- Title: free_mem_ns Pages: 1 -->
<svg width="460pt" height="46pt"
 viewBox="0.00 0.00 460.00 46.00" xmlns="http://www.w3.org/2000/svg" xmlns:xlink="http://www.w3.org/1999/xlink">
<g id="graph0" class="graph" transform="scale(1 1) rotate(0) translate(4 42)">
<title>free_mem_ns</title>
<!-- Node1 -->
<g id="node1" class="node">
<title>Node1</title>
<g id="a_node1"><a xlink:title="Free memory depending on the number of flux surfaces ns.">
<polygon fill="#999999" stroke="#666666" points="452,-19 376,-19 376,0 452,0 452,-19"/>
<text text-anchor="middle" x="414" y="-7" font-family="Helvetica,sans-Serif" font-size="10.00">free_mem_ns</text>
</a>
</g>
</g>
<!-- Node2 -->
<g id="node2" class="node">
<title>Node2</title>
<g id="a_node2"><a xlink:href="../../d7/df2/allocate__ns_8f90.html#aeb3e662fed5b934054b3febb084ed659" target="_top" xlink:title="allocate arrays depending on the number of flux surfaces ns">
<polygon fill="white" stroke="#666666" points="340,-38 274,-38 274,-19 340,-19 340,-38"/>
<text text-anchor="middle" x="307" y="-26" font-family="Helvetica,sans-Serif" font-size="10.00">allocate_ns</text>
</a>
</g>
</g>
<!-- Node1&#45;&gt;Node2 -->
<g id="edge1" class="edge">
<title>Node1&#45;&gt;Node2</title>
<path fill="none" stroke="#63b8ff" d="M364.62,-18.26C356.38,-19.75 348.01,-21.26 340.32,-22.65"/>
<polygon fill="#63b8ff" stroke="#63b8ff" points="364.98,-21.75 374.2,-16.52 363.73,-14.86 364.98,-21.75"/>
</g>
<!-- Node4 -->
<g id="node4" class="node">
<title>Node4</title>
<g id="a_node4"><a xlink:href="../../db/d61/vmec_8f90.html#a6d38ab7be2f9d818da4541e1d352ea23" target="_top" xlink:title="Main driver for VMEC.">
<polygon fill="white" stroke="#666666" points="122,-19 81,-19 81,0 122,0 122,-19"/>
<text text-anchor="middle" x="101.5" y="-7" font-family="Helvetica,sans-Serif" font-size="10.00">vmec</text>
</a>
</g>
</g>
<!-- Node1&#45;&gt;Node4 -->
<g id="edge5" class="edge">
<title>Node1&#45;&gt;Node4</title>
<path fill="none" stroke="#63b8ff" d="M364.07,-9.5C294.65,-9.5 170.66,-9.5 122.44,-9.5"/>
<polygon fill="#63b8ff" stroke="#63b8ff" points="364.03,-13 374.03,-9.5 364.03,-6 364.03,-13"/>
</g>
<!-- Node3 -->
<g id="node3" class="node">
<title>Node3</title>
<g id="a_node3"><a xlink:href="../../d9/da6/initialize__radial_8f90.html#a187faea543d3a42bc748511f04b5b7d5" target="_top" xlink:title="Allocates memory for radial arrays and initializes radial profiles.">
<polygon fill="white" stroke="#666666" points="238,-38 158,-38 158,-19 238,-19 238,-38"/>
<text text-anchor="middle" x="198" y="-26" font-family="Helvetica,sans-Serif" font-size="10.00">initialize_radial</text>
</a>
</g>
</g>
<!-- Node2&#45;&gt;Node3 -->
<g id="edge2" class="edge">
<title>Node2&#45;&gt;Node3</title>
<path fill="none" stroke="#63b8ff" d="M262.33,-28.5C254.43,-28.5 246.23,-28.5 238.46,-28.5"/>
<polygon fill="#63b8ff" stroke="#63b8ff" points="262.09,-32 272.09,-28.5 262.09,-25 262.09,-32"/>
</g>
<!-- Node3&#45;&gt;Node4 -->
<g id="edge3" class="edge">
<title>Node3&#45;&gt;Node4</title>
<path fill="none" stroke="#63b8ff" d="M146.51,-18.35C137.96,-16.63 129.55,-14.94 122.4,-13.5"/>
<polygon fill="#63b8ff" stroke="#63b8ff" points="145.77,-21.77 156.26,-20.31 147.15,-14.91 145.77,-21.77"/>
</g>
<!-- Node5 -->
<g id="node5" class="node">
<title>Node5</title>
<g id="a_node5"><a xlink:href="../../db/d61/vmec_8f90.html#ace5bdf043bb85c8f0a9fc582bdb55725" target="_top" xlink:title="Main program of VMEC.">
<polygon fill="white" stroke="#666666" points="45,-19 0,-19 0,0 45,0 45,-19"/>
<text text-anchor="middle" x="22.5" y="-7" font-family="Helvetica,sans-Serif" font-size="10.00">xvmec</text>
</a>
</g>
</g>
<!-- Node4&#45;&gt;Node5 -->
<g id="edge4" class="edge">
<title>Node4&#45;&gt;Node5</title>
<path fill="none" stroke="#63b8ff" d="M69.39,-9.5C61.36,-9.5 52.89,-9.5 45.43,-9.5"/>
<polygon fill="#63b8ff" stroke="#63b8ff" points="69.16,-13 79.16,-9.5 69.16,-6 69.16,-13"/>
</g>
</g>
</svg>
