<?xml version="1.0" encoding="UTF-8" standalone="no"?>
<!DOCTYPE svg PUBLIC "-//W3C//DTD SVG 1.1//EN"
 "http://www.w3.org/Graphics/SVG/1.1/DTD/svg11.dtd">
<!-- Generated by graphviz version 12.0.0 (20240704.0754)
 -->
<!-- Title: free_mem_ns Pages: 1 -->
<svg width="456pt" height="46pt"
 viewBox="0.00 0.00 456.25 46.25" xmlns="http://www.w3.org/2000/svg" xmlns:xlink="http://www.w3.org/1999/xlink">

<svg id="main" version="1.1" xmlns="http://www.w3.org/2000/svg" xmlns:xlink="http://www.w3.org/1999/xlink" xml:space="preserve">

<style type="text/css"><![CDATA[
.node, .edge {opacity: 0.7;}
.node.selected, .edge.selected {opacity: 1;}
.edge:hover path { stroke: red; }
.edge:hover polygon { stroke: red; fill: red; }
]]></style>
<script type="application/ecmascript" xlink:href="../../svg.min.js"/>
<svg id="graph" class="graph">
<g id="graph0" class="graph" transform="scale(1 1) rotate(0) translate(4 42.25)">
<title>free_mem_ns</title>
<!-- Node1 -->
<g id="Node000001" class="node">
<title>Node1</title>
<g id="a_Node000001"><a xlink:title="Free memory depending on the number of flux surfaces ns.">
<polygon fill="#999999" stroke="#666666" points="448.25,-19.25 373,-19.25 373,0 448.25,0 448.25,-19.25"/>
<text text-anchor="middle" x="410.62" y="-5.75" font-family="Helvetica,sans-Serif" font-size="10.00">free_mem_ns</text>
</a>
</g>
</g>
<!-- Node2 -->
<g id="Node000002" class="node">
<title>Node2</title>
<g id="a_Node000002"><a xlink:href="../../d7/df2/allocate__ns_8f90.html#aeb3e662fed5b934054b3febb084ed659" target="_top" xlink:title="allocate arrays depending on the number of flux surfaces ns">
<polygon fill="white" stroke="#666666" points="337,-38.25 271.5,-38.25 271.5,-19 337,-19 337,-38.25"/>
<text text-anchor="middle" x="304.25" y="-24.75" font-family="Helvetica,sans-Serif" font-size="10.00">allocate_ns</text>
</a>
</g>
</g>
<!-- Node1&#45;&gt;Node2 -->
<g id="edge1_Node000001_Node000002" class="edge">
<title>Node1&#45;&gt;Node2</title>
<g id="a_edge1_Node000001_Node000002"><a xlink:title=" ">
<path fill="none" stroke="#63b8ff" d="M361.25,-18.43C353.15,-19.9 344.93,-21.4 337.38,-22.78"/>
<polygon fill="#63b8ff" stroke="#63b8ff" points="361.83,-21.88 371.04,-16.65 360.58,-15 361.83,-21.88"/>
</a>
</g>
</g>
<!-- Node4 -->
<g id="Node000004" class="node">
<title>Node4</title>
<g id="a_Node000004"><a xlink:href="../../db/d61/vmec_8f90.html#a6d38ab7be2f9d818da4541e1d352ea23" target="_top" xlink:title="Main driver for VMEC.">
<polygon fill="white" stroke="#666666" points="120.5,-19.25 80.5,-19.25 80.5,0 120.5,0 120.5,-19.25"/>
<text text-anchor="middle" x="100.5" y="-5.75" font-family="Helvetica,sans-Serif" font-size="10.00">vmec</text>
</a>
</g>
</g>
<!-- Node1&#45;&gt;Node4 -->
<g id="edge5_Node000001_Node000004" class="edge">
<title>Node1&#45;&gt;Node4</title>
<g id="a_edge5_Node000001_Node000004"><a xlink:title=" ">
<path fill="none" stroke="#63b8ff" d="M361.37,-9.62C292.38,-9.62 168.65,-9.62 120.97,-9.62"/>
<polygon fill="#63b8ff" stroke="#63b8ff" points="361.25,-13.13 371.25,-9.63 361.25,-6.13 361.25,-13.13"/>
</a>
</g>
</g>
<!-- Node3 -->
<g id="Node000003" class="node">
<title>Node3</title>
<g id="a_Node000003"><a xlink:href="../../d9/da6/initialize__radial_8f90.html#a187faea543d3a42bc748511f04b5b7d5" target="_top" xlink:title="Allocates memory for radial arrays and initializes radial profiles.">
<polygon fill="white" stroke="#666666" points="235.5,-38.25 156.5,-38.25 156.5,-19 235.5,-19 235.5,-38.25"/>
<text text-anchor="middle" x="196" y="-24.75" font-family="Helvetica,sans-Serif" font-size="10.00">initialize_radial</text>
</a>
</g>
</g>
<!-- Node2&#45;&gt;Node3 -->
<g id="edge2_Node000002_Node000003" class="edge">
<title>Node2&#45;&gt;Node3</title>
<g id="a_edge2_Node000002_Node000003"><a xlink:title=" ">
<path fill="none" stroke="#63b8ff" d="M259.76,-28.62C251.82,-28.62 243.59,-28.62 235.8,-28.62"/>
<polygon fill="#63b8ff" stroke="#63b8ff" points="259.57,-32.13 269.57,-28.63 259.57,-25.13 259.57,-32.13"/>
</a>
</g>
</g>
<!-- Node3&#45;&gt;Node4 -->
<g id="edge3_Node000003_Node000004" class="edge">
<title>Node3&#45;&gt;Node4</title>
<g id="a_edge3_Node000003_Node000004"><a xlink:title=" ">
<path fill="none" stroke="#63b8ff" d="M144.95,-18.46C136.42,-16.72 128.03,-15.02 120.94,-13.58"/>
<polygon fill="#63b8ff" stroke="#63b8ff" points="144.18,-21.87 154.68,-20.43 145.57,-15.01 144.18,-21.87"/>
</a>
</g>
</g>
<!-- Node5 -->
<g id="Node000005" class="node">
<title>Node5</title>
<g id="a_Node000005"><a xlink:href="../../db/d61/vmec_8f90.html#ace5bdf043bb85c8f0a9fc582bdb55725" target="_top" xlink:title="Main program of VMEC.">
<polygon fill="white" stroke="#666666" points="44.5,-19.25 0,-19.25 0,0 44.5,0 44.5,-19.25"/>
<text text-anchor="middle" x="22.25" y="-5.75" font-family="Helvetica,sans-Serif" font-size="10.00">xvmec</text>
</a>
</g>
</g>
<!-- Node4&#45;&gt;Node5 -->
<g id="edge4_Node000004_Node000005" class="edge">
<title>Node4&#45;&gt;Node5</title>
<g id="a_edge4_Node000004_Node000005"><a xlink:title=" ">
<path fill="none" stroke="#63b8ff" d="M68.97,-9.62C60.92,-9.62 52.39,-9.62 44.91,-9.62"/>
<polygon fill="#63b8ff" stroke="#63b8ff" points="68.75,-13.13 78.75,-9.63 68.75,-6.13 68.75,-13.13"/>
</a>
</g>
</g>
</g>
</svg>
</svg>

<style type='text/css'>
<![CDATA[
[data-mouse-over-selected='false'] { opacity: 0.7; }
[data-mouse-over-selected='true']  { opacity: 1.0; }
]]>
</style>
<script type="application/ecmascript"><![CDATA[
document.addEventListener('DOMContentLoaded', (event) => {
  highlightEdges();
  highlightAdjacentNodes();
});
]]></script>
</svg>
