<?xml version="1.0" encoding="UTF-8" standalone="no"?>
<!DOCTYPE svg PUBLIC "-//W3C//DTD SVG 1.1//EN"
 "http://www.w3.org/Graphics/SVG/1.1/DTD/svg11.dtd">
<!-- Generated by graphviz version 8.0.1 (20230327.1645)
 -->
<!-- Title: restart_iter Pages: 1 -->
<svg width="511pt" height="113pt"
 viewBox="0.00 0.00 511.00 113.34" xmlns="http://www.w3.org/2000/svg" xmlns:xlink="http://www.w3.org/1999/xlink">
<g id="graph0" class="graph" transform="scale(1 1) rotate(0) translate(4 109.34)">
<title>restart_iter</title>
<!-- Node1 -->
<g id="node1" class="node">
<title>Node1</title>
<g id="a_node1"><a xlink:title="Save current or restore previous good state vector and reduce time step.">
<polygon fill="#999999" stroke="#666666" points="503,-75 440,-75 440,-56 503,-56 503,-75"/>
<text text-anchor="middle" x="471.5" y="-63" font-family="Helvetica,sans-Serif" font-size="10.00">restart_iter</text>
</a>
</g>
</g>
<!-- Node2 -->
<g id="node2" class="node">
<title>Node2</title>
<g id="a_node2"><a xlink:href="../../d7/d46/eqsolve_8f90.html#ab740b09d1b651e2ab8a60c5d552df0c2" target="_top" xlink:title="Iteratively evolve the Fourier coefficients that specify the equilibrium.">
<polygon fill="white" stroke="#666666" points="223,-95 173,-95 173,-76 223,-76 223,-95"/>
<text text-anchor="middle" x="198" y="-83" font-family="Helvetica,sans-Serif" font-size="10.00">eqsolve</text>
</a>
</g>
</g>
<!-- Node1&#45;&gt;Node2 -->
<g id="edge1" class="edge">
<title>Node1&#45;&gt;Node2</title>
<path fill="none" stroke="#63b8ff" d="M435.24,-79.05C396.1,-92.51 330.93,-110.24 274,-103.5 256.85,-101.47 237.94,-96.92 223.4,-92.9"/>
<polygon fill="#63b8ff" stroke="#63b8ff" points="436.3,-82.03 444.56,-75.39 433.96,-75.43 436.3,-82.03"/>
</g>
<!-- Node5 -->
<g id="node5" class="node">
<title>Node5</title>
<g id="a_node5"><a xlink:href="../../d3/d4f/funct3d_8f90.html#a800bacc22176e16323899df87b55c547" target="_top" xlink:title="Evaluate the three&#45;dimensional MHD energy functional. Think of this as the &quot;forward model&quot; that tells...">
<polygon fill="white" stroke="#666666" points="404,-75 355,-75 355,-56 404,-56 404,-75"/>
<text text-anchor="middle" x="379.5" y="-63" font-family="Helvetica,sans-Serif" font-size="10.00">funct3d</text>
</a>
</g>
</g>
<!-- Node1&#45;&gt;Node5 -->
<g id="edge4" class="edge">
<title>Node1&#45;&gt;Node5</title>
<path fill="none" stroke="#63b8ff" d="M428.74,-65.5C420.4,-65.5 411.91,-65.5 404.42,-65.5"/>
<polygon fill="#63b8ff" stroke="#63b8ff" points="428.53,-69 438.53,-65.5 428.53,-62 428.53,-69"/>
</g>
<!-- Node8 -->
<g id="node8" class="node">
<title>Node8</title>
<g id="a_node8"><a xlink:href="../../d9/da6/initialize__radial_8f90.html#a187faea543d3a42bc748511f04b5b7d5" target="_top" xlink:title="Allocates memory for radial arrays and initializes radial profiles.">
<polygon fill="white" stroke="#666666" points="238,-19 158,-19 158,0 238,0 238,-19"/>
<text text-anchor="middle" x="198" y="-7" font-family="Helvetica,sans-Serif" font-size="10.00">initialize_radial</text>
</a>
</g>
</g>
<!-- Node1&#45;&gt;Node8 -->
<g id="edge9" class="edge">
<title>Node1&#45;&gt;Node8</title>
<path fill="none" stroke="#63b8ff" d="M429.48,-53.3C421.08,-50.93 412.28,-48.56 404,-46.5 346.96,-32.33 279.74,-21.24 238.24,-15.03"/>
<polygon fill="#63b8ff" stroke="#63b8ff" points="428.25,-56.87 438.83,-56.25 430.18,-50.14 428.25,-56.87"/>
</g>
<!-- Node3 -->
<g id="node3" class="node">
<title>Node3</title>
<g id="a_node3"><a xlink:href="../../db/d61/vmec_8f90.html#a6d38ab7be2f9d818da4541e1d352ea23" target="_top" xlink:title="Main driver for VMEC.">
<polygon fill="white" stroke="#666666" points="122,-57 81,-57 81,-38 122,-38 122,-57"/>
<text text-anchor="middle" x="101.5" y="-45" font-family="Helvetica,sans-Serif" font-size="10.00">vmec</text>
</a>
</g>
</g>
<!-- Node2&#45;&gt;Node3 -->
<g id="edge2" class="edge">
<title>Node2&#45;&gt;Node3</title>
<path fill="none" stroke="#63b8ff" d="M162.67,-71.69C149.1,-66.24 133.99,-60.16 122.3,-55.46"/>
<polygon fill="#63b8ff" stroke="#63b8ff" points="161.08,-75.23 171.66,-75.71 163.69,-68.74 161.08,-75.23"/>
</g>
<!-- Node4 -->
<g id="node4" class="node">
<title>Node4</title>
<g id="a_node4"><a xlink:href="../../db/d61/vmec_8f90.html#ace5bdf043bb85c8f0a9fc582bdb55725" target="_top" xlink:title="Main program of VMEC.">
<polygon fill="white" stroke="#666666" points="45,-57 0,-57 0,-38 45,-38 45,-57"/>
<text text-anchor="middle" x="22.5" y="-45" font-family="Helvetica,sans-Serif" font-size="10.00">xvmec</text>
</a>
</g>
</g>
<!-- Node3&#45;&gt;Node4 -->
<g id="edge3" class="edge">
<title>Node3&#45;&gt;Node4</title>
<path fill="none" stroke="#63b8ff" d="M69.67,-47.5C61.56,-47.5 52.97,-47.5 45.43,-47.5"/>
<polygon fill="#63b8ff" stroke="#63b8ff" points="69.67,-51 79.67,-47.5 69.67,-44 69.67,-51"/>
</g>
<!-- Node6 -->
<g id="node6" class="node">
<title>Node6</title>
<g id="a_node6"><a xlink:href="../../de/da9/evolve_8f90.html#a8103e838be03904e03551e04f6b396e4" target="_top" xlink:title="Take a single time step in Fourier space to evolve the Fourier coefficients describing the equilibriu...">
<polygon fill="white" stroke="#666666" points="319,-94 274,-94 274,-75 319,-75 319,-94"/>
<text text-anchor="middle" x="296.5" y="-82" font-family="Helvetica,sans-Serif" font-size="10.00">evolve</text>
</a>
</g>
</g>
<!-- Node5&#45;&gt;Node6 -->
<g id="edge5" class="edge">
<title>Node5&#45;&gt;Node6</title>
<path fill="none" stroke="#63b8ff" d="M343.95,-73.6C335.58,-75.57 326.85,-77.61 319.26,-79.4"/>
<polygon fill="#63b8ff" stroke="#63b8ff" points="344.7,-76.79 353.64,-71.1 343.1,-69.97 344.7,-76.79"/>
</g>
<!-- Node7 -->
<g id="node7" class="node">
<title>Node7</title>
<g id="a_node7"><a xlink:href="../../d0/d71/fileout_8f90.html#a7228e984aaf2c38bd772e3d846fab7af" target="_top" xlink:title="Write the output files.">
<polygon fill="white" stroke="#666666" points="317.5,-57 275.5,-57 275.5,-38 317.5,-38 317.5,-57"/>
<text text-anchor="middle" x="296.5" y="-45" font-family="Helvetica,sans-Serif" font-size="10.00">fileout</text>
</a>
</g>
</g>
<!-- Node5&#45;&gt;Node7 -->
<g id="edge7" class="edge">
<title>Node5&#45;&gt;Node7</title>
<path fill="none" stroke="#63b8ff" d="M344.08,-57.85C335.16,-55.87 325.85,-53.8 317.91,-52.03"/>
<polygon fill="#63b8ff" stroke="#63b8ff" points="343.11,-61.44 353.64,-60.2 344.63,-54.61 343.11,-61.44"/>
</g>
<!-- Node6&#45;&gt;Node2 -->
<g id="edge6" class="edge">
<title>Node6&#45;&gt;Node2</title>
<path fill="none" stroke="#63b8ff" d="M262.75,-84.84C249.79,-84.97 235.16,-85.13 223.18,-85.25"/>
<polygon fill="#63b8ff" stroke="#63b8ff" points="262.64,-88.33 272.6,-84.73 262.57,-81.33 262.64,-88.33"/>
</g>
<!-- Node7&#45;&gt;Node3 -->
<g id="edge8" class="edge">
<title>Node7&#45;&gt;Node3</title>
<path fill="none" stroke="#63b8ff" d="M264.22,-47.5C224.12,-47.5 155.76,-47.5 122.23,-47.5"/>
<polygon fill="#63b8ff" stroke="#63b8ff" points="264.21,-51 274.21,-47.5 264.21,-44 264.21,-51"/>
</g>
<!-- Node8&#45;&gt;Node3 -->
<g id="edge10" class="edge">
<title>Node8&#45;&gt;Node3</title>
<path fill="none" stroke="#63b8ff" d="M162.27,-23.47C148.84,-28.87 133.96,-34.85 122.4,-39.5"/>
<polygon fill="#63b8ff" stroke="#63b8ff" points="163.2,-26.46 171.17,-19.48 160.59,-19.97 163.2,-26.46"/>
</g>
</g>
</svg>
