<?xml version="1.0" encoding="UTF-8" standalone="no"?>
<!DOCTYPE svg PUBLIC "-//W3C//DTD SVG 1.1//EN"
 "http://www.w3.org/Graphics/SVG/1.1/DTD/svg11.dtd">
<!-- Generated by graphviz version 8.1.0 (20230707.0739)
 -->
<!-- Title: restart_iter Pages: 1 -->
<svg width="507pt" height="113pt"
 viewBox="0.00 0.00 506.75 113.46" xmlns="http://www.w3.org/2000/svg" xmlns:xlink="http://www.w3.org/1999/xlink">
<g id="graph0" class="graph" transform="scale(1 1) rotate(0) translate(4 109.46)">
<title>restart_iter</title>
<!-- Node1 -->
<g id="Node000001" class="node">
<title>Node1</title>
<g id="a_Node000001"><a xlink:title="Save current or restore previous good state vector and reduce time step.">
<polygon fill="#999999" stroke="#666666" points="498.75,-75.25 436.25,-75.25 436.25,-56 498.75,-56 498.75,-75.25"/>
<text text-anchor="middle" x="467.5" y="-61.75" font-family="Helvetica,sans-Serif" font-size="10.00">restart_iter</text>
</a>
</g>
</g>
<!-- Node2 -->
<g id="Node000002" class="node">
<title>Node2</title>
<g id="a_Node000002"><a xlink:href="../../d7/d46/eqsolve_8f90.html#ab740b09d1b651e2ab8a60c5d552df0c2" target="_top" xlink:title="Iteratively evolve the Fourier coefficients that specify the equilibrium.">
<polygon fill="white" stroke="#666666" points="220.88,-95.25 171.12,-95.25 171.12,-76 220.88,-76 220.88,-95.25"/>
<text text-anchor="middle" x="196" y="-81.75" font-family="Helvetica,sans-Serif" font-size="10.00">eqsolve</text>
</a>
</g>
</g>
<!-- Node1&#45;&gt;Node2 -->
<g id="edge1_Node000001_Node000002" class="edge">
<title>Node1&#45;&gt;Node2</title>
<g id="a_edge1_Node000001_Node000002"><a xlink:title=" ">
<path fill="none" stroke="#63b8ff" d="M430.86,-79.39C391.96,-92.82 327.69,-110.32 271.5,-103.62 254.46,-101.6 235.67,-97.04 221.23,-93.02"/>
<polygon fill="#63b8ff" stroke="#63b8ff" points="431.89,-82.39 440.14,-75.74 429.54,-75.79 431.89,-82.39"/>
</a>
</g>
</g>
<!-- Node5 -->
<g id="Node000005" class="node">
<title>Node5</title>
<g id="a_Node000005"><a xlink:href="../../d3/d4f/funct3d_8f90.html#a800bacc22176e16323899df87b55c547" target="_top" xlink:title="Evaluate the three&#45;dimensional MHD energy functional. Think of this as the &quot;forward model&quot; that tells...">
<polygon fill="white" stroke="#666666" points="400.25,-75.25 352,-75.25 352,-56 400.25,-56 400.25,-75.25"/>
<text text-anchor="middle" x="376.12" y="-61.75" font-family="Helvetica,sans-Serif" font-size="10.00">funct3d</text>
</a>
</g>
</g>
<!-- Node1&#45;&gt;Node5 -->
<g id="edge4_Node000001_Node000005" class="edge">
<title>Node1&#45;&gt;Node5</title>
<g id="a_edge4_Node000001_Node000005"><a xlink:title=" ">
<path fill="none" stroke="#63b8ff" d="M425.16,-65.62C416.78,-65.62 408.24,-65.62 400.73,-65.62"/>
<polygon fill="#63b8ff" stroke="#63b8ff" points="424.99,-69.13 434.99,-65.62 424.99,-62.13 424.99,-69.13"/>
</a>
</g>
</g>
<!-- Node8 -->
<g id="Node000008" class="node">
<title>Node8</title>
<g id="a_Node000008"><a xlink:href="../../d9/da6/initialize__radial_8f90.html#a187faea543d3a42bc748511f04b5b7d5" target="_top" xlink:title="Allocates memory for radial arrays and initializes radial profiles.">
<polygon fill="white" stroke="#666666" points="235.5,-19.25 156.5,-19.25 156.5,0 235.5,0 235.5,-19.25"/>
<text text-anchor="middle" x="196" y="-5.75" font-family="Helvetica,sans-Serif" font-size="10.00">initialize_radial</text>
</a>
</g>
</g>
<!-- Node1&#45;&gt;Node8 -->
<g id="edge9_Node000001_Node000008" class="edge">
<title>Node1&#45;&gt;Node8</title>
<g id="a_edge9_Node000001_Node000008"><a xlink:title=" ">
<path fill="none" stroke="#63b8ff" d="M425.63,-53.43C417.26,-51.06 408.49,-48.69 400.25,-46.62 343.71,-32.49 277.05,-21.39 235.91,-15.17"/>
<polygon fill="#63b8ff" stroke="#63b8ff" points="424.37,-56.99 434.94,-56.39 426.3,-50.26 424.37,-56.99"/>
</a>
</g>
</g>
<!-- Node3 -->
<g id="Node000003" class="node">
<title>Node3</title>
<g id="a_Node000003"><a xlink:href="../../db/d61/vmec_8f90.html#a6d38ab7be2f9d818da4541e1d352ea23" target="_top" xlink:title="Main driver for VMEC.">
<polygon fill="white" stroke="#666666" points="120.5,-57.25 80.5,-57.25 80.5,-38 120.5,-38 120.5,-57.25"/>
<text text-anchor="middle" x="100.5" y="-43.75" font-family="Helvetica,sans-Serif" font-size="10.00">vmec</text>
</a>
</g>
</g>
<!-- Node2&#45;&gt;Node3 -->
<g id="edge2_Node000002_Node000003" class="edge">
<title>Node2&#45;&gt;Node3</title>
<g id="a_edge2_Node000002_Node000003"><a xlink:title=" ">
<path fill="none" stroke="#63b8ff" d="M160.96,-71.79C147.43,-66.29 132.37,-60.17 120.79,-55.46"/>
<polygon fill="#63b8ff" stroke="#63b8ff" points="159.34,-75.32 169.92,-75.84 161.98,-68.83 159.34,-75.32"/>
</a>
</g>
</g>
<!-- Node4 -->
<g id="Node000004" class="node">
<title>Node4</title>
<g id="a_Node000004"><a xlink:href="../../db/d61/vmec_8f90.html#ace5bdf043bb85c8f0a9fc582bdb55725" target="_top" xlink:title="Main program of VMEC.">
<polygon fill="white" stroke="#666666" points="44.5,-57.25 0,-57.25 0,-38 44.5,-38 44.5,-57.25"/>
<text text-anchor="middle" x="22.25" y="-43.75" font-family="Helvetica,sans-Serif" font-size="10.00">xvmec</text>
</a>
</g>
</g>
<!-- Node3&#45;&gt;Node4 -->
<g id="edge3_Node000003_Node000004" class="edge">
<title>Node3&#45;&gt;Node4</title>
<g id="a_edge3_Node000003_Node000004"><a xlink:title=" ">
<path fill="none" stroke="#63b8ff" d="M69.53,-47.62C61.31,-47.62 52.56,-47.62 44.91,-47.62"/>
<polygon fill="#63b8ff" stroke="#63b8ff" points="69.26,-51.13 79.26,-47.62 69.26,-44.13 69.26,-51.13"/>
</a>
</g>
</g>
<!-- Node6 -->
<g id="Node000006" class="node">
<title>Node6</title>
<g id="a_Node000006"><a xlink:href="../../de/da9/evolve_8f90.html#a8103e838be03904e03551e04f6b396e4" target="_top" xlink:title="Take a single time step in Fourier space to evolve the Fourier coefficients describing the equilibriu...">
<polygon fill="white" stroke="#666666" points="316,-94.25 271.5,-94.25 271.5,-75 316,-75 316,-94.25"/>
<text text-anchor="middle" x="293.75" y="-80.75" font-family="Helvetica,sans-Serif" font-size="10.00">evolve</text>
</a>
</g>
</g>
<!-- Node5&#45;&gt;Node6 -->
<g id="edge5_Node000005_Node000006" class="edge">
<title>Node5&#45;&gt;Node6</title>
<g id="a_edge5_Node000005_Node000006"><a xlink:title=" ">
<path fill="none" stroke="#63b8ff" d="M341.43,-73.59C332.93,-75.6 324.02,-77.71 316.29,-79.53"/>
<polygon fill="#63b8ff" stroke="#63b8ff" points="341.95,-76.83 350.88,-71.12 340.34,-70.02 341.95,-76.83"/>
</a>
</g>
</g>
<!-- Node7 -->
<g id="Node000007" class="node">
<title>Node7</title>
<g id="a_Node000007"><a xlink:href="../../d0/d71/fileout_8f90.html#a7228e984aaf2c38bd772e3d846fab7af" target="_top" xlink:title="Write the output files.">
<polygon fill="white" stroke="#666666" points="314.5,-57.25 273,-57.25 273,-38 314.5,-38 314.5,-57.25"/>
<text text-anchor="middle" x="293.75" y="-43.75" font-family="Helvetica,sans-Serif" font-size="10.00">fileout</text>
</a>
</g>
</g>
<!-- Node5&#45;&gt;Node7 -->
<g id="edge7_Node000005_Node000007" class="edge">
<title>Node5&#45;&gt;Node7</title>
<g id="a_edge7_Node000005_Node000007"><a xlink:title=" ">
<path fill="none" stroke="#63b8ff" d="M341.28,-58.05C332.32,-56.04 322.93,-53.94 314.94,-52.15"/>
<polygon fill="#63b8ff" stroke="#63b8ff" points="340.35,-61.65 350.88,-60.42 341.88,-54.82 340.35,-61.65"/>
</a>
</g>
</g>
<!-- Node6&#45;&gt;Node2 -->
<g id="edge6_Node000006_Node000002" class="edge">
<title>Node6&#45;&gt;Node2</title>
<g id="a_edge6_Node000006_Node000002"><a xlink:title=" ">
<path fill="none" stroke="#63b8ff" d="M260.34,-84.96C247.58,-85.1 233.18,-85.25 221.34,-85.37"/>
<polygon fill="#63b8ff" stroke="#63b8ff" points="260.06,-88.46 270.02,-84.85 259.99,-81.46 260.06,-88.46"/>
</a>
</g>
</g>
<!-- Node7&#45;&gt;Node3 -->
<g id="edge8_Node000007_Node000003" class="edge">
<title>Node7&#45;&gt;Node3</title>
<g id="a_edge8_Node000007_Node000003"><a xlink:title=" ">
<path fill="none" stroke="#63b8ff" d="M261.72,-47.62C221.86,-47.62 153.88,-47.62 120.77,-47.62"/>
<polygon fill="#63b8ff" stroke="#63b8ff" points="261.64,-51.13 271.64,-47.62 261.64,-44.13 261.64,-51.13"/>
</a>
</g>
</g>
<!-- Node8&#45;&gt;Node3 -->
<g id="edge10_Node000008_Node000003" class="edge">
<title>Node8&#45;&gt;Node3</title>
<g id="a_edge10_Node000008_Node000003"><a xlink:title=" ">
<path fill="none" stroke="#63b8ff" d="M160.56,-23.62C147.18,-29.06 132.34,-35.09 120.89,-39.74"/>
<polygon fill="#63b8ff" stroke="#63b8ff" points="161.49,-26.62 169.43,-19.61 158.85,-20.13 161.49,-26.62"/>
</a>
</g>
</g>
</g>
</svg>
