<?xml version="1.0" encoding="UTF-8" standalone="no"?>
<!DOCTYPE svg PUBLIC "-//W3C//DTD SVG 1.1//EN"
 "http://www.w3.org/Graphics/SVG/1.1/DTD/svg11.dtd">
<!-- Generated by graphviz version 7.1.0 (20230121.1956)
 -->
<!-- Title: restart_iter Pages: 1 -->
<svg width="511pt" height="113pt"
 viewBox="0.00 0.00 511.00 113.34" xmlns="http://www.w3.org/2000/svg" xmlns:xlink="http://www.w3.org/1999/xlink">
<g id="graph0" class="graph" transform="scale(1 1) rotate(0) translate(4 109.34)">
<title>restart_iter</title>
<!-- Node1 -->
<g id="node1" class="node">
<title>Node1</title>
<g id="a_node1"><a xlink:title="Save current or restore previous good state vector and reduce time step.">
<polygon fill="#999999" stroke="#666666" points="503,-75 440,-75 440,-56 503,-56 503,-75"/>
<text text-anchor="middle" x="471.5" y="-63" font-family="Helvetica,sans-Serif" font-size="10.00">restart_iter</text>
</a>
</g>
</g>
<!-- Node2 -->
<g id="node2" class="node">
<title>Node2</title>
<g id="a_node2"><a xlink:href="../../d7/d46/eqsolve_8f90.html#ab740b09d1b651e2ab8a60c5d552df0c2" target="_top" xlink:title="Iteratively evolve the Fourier coefficients that specify the equilibrium.">
<polygon fill="white" stroke="#666666" points="223,-95 173,-95 173,-76 223,-76 223,-95"/>
<text text-anchor="middle" x="198" y="-83" font-family="Helvetica,sans-Serif" font-size="10.00">eqsolve</text>
</a>
</g>
</g>
<!-- Node1&#45;&gt;Node2 -->
<g id="edge1" class="edge">
<title>Node1&#45;&gt;Node2</title>
<path fill="none" stroke="#63b8ff" d="M434.74,-79.22C395.54,-92.66 330.69,-110.21 274,-103.5 256.85,-101.47 237.94,-96.92 223.4,-92.9"/>
<polygon fill="#63b8ff" stroke="#63b8ff" points="435.87,-82.53 444.13,-75.89 433.54,-75.93 435.87,-82.53"/>
</g>
<!-- Node5 -->
<g id="node5" class="node">
<title>Node5</title>
<g id="a_node5"><a xlink:href="../../d3/d4f/funct3d_8f90.html#a800bacc22176e16323899df87b55c547" target="_top" xlink:title="Evaluate the three&#45;dimensional MHD energy functional. Think of this as the &quot;forward model&quot; that tells...">
<polygon fill="white" stroke="#666666" points="404,-75 355,-75 355,-56 404,-56 404,-75"/>
<text text-anchor="middle" x="379.5" y="-63" font-family="Helvetica,sans-Serif" font-size="10.00">funct3d</text>
</a>
</g>
</g>
<!-- Node1&#45;&gt;Node5 -->
<g id="edge4" class="edge">
<title>Node1&#45;&gt;Node5</title>
<path fill="none" stroke="#63b8ff" d="M428.18,-65.5C420.02,-65.5 411.74,-65.5 404.42,-65.5"/>
<polygon fill="#63b8ff" stroke="#63b8ff" points="428.01,-69 438.01,-65.5 428.01,-62 428.01,-69"/>
</g>
<!-- Node8 -->
<g id="node8" class="node">
<title>Node8</title>
<g id="a_node8"><a xlink:href="../../d9/da6/initialize__radial_8f90.html#a187faea543d3a42bc748511f04b5b7d5" target="_top" xlink:title="Allocates memory for radial arrays and initializes radial profiles.">
<polygon fill="white" stroke="#666666" points="238,-19 158,-19 158,0 238,0 238,-19"/>
<text text-anchor="middle" x="198" y="-7" font-family="Helvetica,sans-Serif" font-size="10.00">initialize_radial</text>
</a>
</g>
</g>
<!-- Node1&#45;&gt;Node8 -->
<g id="edge9" class="edge">
<title>Node1&#45;&gt;Node8</title>
<path fill="none" stroke="#63b8ff" d="M428.92,-53.14C420.69,-50.83 412.09,-48.51 404,-46.5 346.96,-32.33 279.74,-21.24 238.24,-15.03"/>
<polygon fill="#63b8ff" stroke="#63b8ff" points="427.8,-56.46 438.37,-55.84 429.72,-49.73 427.8,-56.46"/>
</g>
<!-- Node3 -->
<g id="node3" class="node">
<title>Node3</title>
<g id="a_node3"><a xlink:href="../../db/d61/vmec_8f90.html#a6d38ab7be2f9d818da4541e1d352ea23" target="_top" xlink:title="Main driver for VMEC.">
<polygon fill="white" stroke="#666666" points="122,-57 81,-57 81,-38 122,-38 122,-57"/>
<text text-anchor="middle" x="101.5" y="-45" font-family="Helvetica,sans-Serif" font-size="10.00">vmec</text>
</a>
</g>
</g>
<!-- Node2&#45;&gt;Node3 -->
<g id="edge2" class="edge">
<title>Node2&#45;&gt;Node3</title>
<path fill="none" stroke="#63b8ff" d="M162.27,-71.53C148.8,-66.12 133.87,-60.11 122.3,-55.46"/>
<polygon fill="#63b8ff" stroke="#63b8ff" points="160.68,-74.67 171.26,-75.15 163.29,-68.17 160.68,-74.67"/>
</g>
<!-- Node4 -->
<g id="node4" class="node">
<title>Node4</title>
<g id="a_node4"><a xlink:href="../../db/d61/vmec_8f90.html#ace5bdf043bb85c8f0a9fc582bdb55725" target="_top" xlink:title="Main program of VMEC.">
<polygon fill="white" stroke="#666666" points="45,-57 0,-57 0,-38 45,-38 45,-57"/>
<text text-anchor="middle" x="22.5" y="-45" font-family="Helvetica,sans-Serif" font-size="10.00">xvmec</text>
</a>
</g>
</g>
<!-- Node3&#45;&gt;Node4 -->
<g id="edge3" class="edge">
<title>Node3&#45;&gt;Node4</title>
<path fill="none" stroke="#63b8ff" d="M69.39,-47.5C61.36,-47.5 52.89,-47.5 45.43,-47.5"/>
<polygon fill="#63b8ff" stroke="#63b8ff" points="69.16,-51 79.16,-47.5 69.16,-44 69.16,-51"/>
</g>
<!-- Node6 -->
<g id="node6" class="node">
<title>Node6</title>
<g id="a_node6"><a xlink:href="../../de/da9/evolve_8f90.html#a8103e838be03904e03551e04f6b396e4" target="_top" xlink:title="Take a single time step in Fourier space to evolve the Fourier coefficients describing the equilibriu...">
<polygon fill="white" stroke="#666666" points="319,-94 274,-94 274,-75 319,-75 319,-94"/>
<text text-anchor="middle" x="296.5" y="-82" font-family="Helvetica,sans-Serif" font-size="10.00">evolve</text>
</a>
</g>
</g>
<!-- Node5&#45;&gt;Node6 -->
<g id="edge5" class="edge">
<title>Node5&#45;&gt;Node6</title>
<path fill="none" stroke="#63b8ff" d="M343.67,-73.67C335.38,-75.61 326.77,-77.63 319.26,-79.4"/>
<polygon fill="#63b8ff" stroke="#63b8ff" points="344.23,-77.13 353.16,-71.44 342.63,-70.32 344.23,-77.13"/>
</g>
<!-- Node7 -->
<g id="node7" class="node">
<title>Node7</title>
<g id="a_node7"><a xlink:href="../../d0/d71/fileout_8f90.html#a7228e984aaf2c38bd772e3d846fab7af" target="_top" xlink:title="Write the output files.">
<polygon fill="white" stroke="#666666" points="317.5,-57 275.5,-57 275.5,-38 317.5,-38 317.5,-57"/>
<text text-anchor="middle" x="296.5" y="-45" font-family="Helvetica,sans-Serif" font-size="10.00">fileout</text>
</a>
</g>
</g>
<!-- Node5&#45;&gt;Node7 -->
<g id="edge7" class="edge">
<title>Node5&#45;&gt;Node7</title>
<path fill="none" stroke="#63b8ff" d="M343.49,-57.72C334.75,-55.78 325.67,-53.76 317.91,-52.03"/>
<polygon fill="#63b8ff" stroke="#63b8ff" points="342.64,-61.12 353.16,-59.87 344.16,-54.28 342.64,-61.12"/>
</g>
<!-- Node6&#45;&gt;Node2 -->
<g id="edge6" class="edge">
<title>Node6&#45;&gt;Node2</title>
<path fill="none" stroke="#63b8ff" d="M262.36,-84.84C249.49,-84.98 235.03,-85.13 223.18,-85.25"/>
<polygon fill="#63b8ff" stroke="#63b8ff" points="262.13,-88.35 272.09,-84.74 262.05,-81.35 262.13,-88.35"/>
</g>
<!-- Node7&#45;&gt;Node3 -->
<g id="edge8" class="edge">
<title>Node7&#45;&gt;Node3</title>
<path fill="none" stroke="#63b8ff" d="M263.7,-47.5C223.53,-47.5 155.62,-47.5 122.23,-47.5"/>
<polygon fill="#63b8ff" stroke="#63b8ff" points="263.7,-51 273.7,-47.5 263.7,-44 263.7,-51"/>
</g>
<!-- Node8&#45;&gt;Node3 -->
<g id="edge10" class="edge">
<title>Node8&#45;&gt;Node3</title>
<path fill="none" stroke="#63b8ff" d="M161.87,-23.63C148.55,-28.98 133.84,-34.9 122.4,-39.5"/>
<polygon fill="#63b8ff" stroke="#63b8ff" points="162.79,-27.03 170.77,-20.05 160.18,-20.53 162.79,-27.03"/>
</g>
</g>
</svg>
