<?xml version="1.0" encoding="UTF-8" standalone="no"?>
<!DOCTYPE svg PUBLIC "-//W3C//DTD SVG 1.1//EN"
 "http://www.w3.org/Graphics/SVG/1.1/DTD/svg11.dtd">
<!-- Generated by graphviz version 2.47.1 (20210421.1823)
 -->
<!-- Title: restart_iter Pages: 1 -->
<svg width="430pt" height="115pt"
 viewBox="0.00 0.00 430.00 115.00" xmlns="http://www.w3.org/2000/svg" xmlns:xlink="http://www.w3.org/1999/xlink">
<g id="graph0" class="graph" transform="scale(1 1) rotate(0) translate(4 111)">
<title>restart_iter</title>
<polygon fill="white" stroke="transparent" points="-4,4 -4,-111 426,-111 426,4 -4,4"/>
<!-- Node1 -->
<g id="node1" class="node">
<title>Node1</title>
<g id="a_node1"><a xlink:title="Save current or restore previous good state vector and reduce time step.">
<polygon fill="#bfbfbf" stroke="black" points="359,-57.5 359,-76.5 422,-76.5 422,-57.5 359,-57.5"/>
<text text-anchor="middle" x="390.5" y="-64.5" font-family="Helvetica,sans-Serif" font-size="10.00">restart_iter</text>
</a>
</g>
</g>
<!-- Node2 -->
<g id="node2" class="node">
<title>Node2</title>
<g id="a_node2"><a xlink:href="../../d7/d46/eqsolve_8f90.html#ab740b09d1b651e2ab8a60c5d552df0c2" target="_top" xlink:title="Iteratively evolve the Fourier coefficients that specify the equilibrium.">
<polygon fill="white" stroke="black" points="92,-76.5 92,-95.5 142,-95.5 142,-76.5 92,-76.5"/>
<text text-anchor="middle" x="117" y="-83.5" font-family="Helvetica,sans-Serif" font-size="10.00">eqsolve</text>
</a>
</g>
</g>
<!-- Node1&#45;&gt;Node2 -->
<g id="edge1" class="edge">
<title>Node1&#45;&gt;Node2</title>
<path fill="none" stroke="midnightblue" d="M356.01,-80.06C317.08,-93.7 250.76,-112.2 193,-105 175.67,-102.84 156.6,-97.97 142.03,-93.71"/>
<polygon fill="midnightblue" stroke="midnightblue" points="357.55,-83.23 365.77,-76.54 355.17,-76.64 357.55,-83.23"/>
</g>
<!-- Node4 -->
<g id="node4" class="node">
<title>Node4</title>
<g id="a_node4"><a xlink:href="../../d3/d4f/funct3d_8f90.html#a800bacc22176e16323899df87b55c547" target="_top" xlink:title="Evaluate the three&#45;dimensional MHD energy functional.">
<polygon fill="white" stroke="black" points="274,-57.5 274,-76.5 323,-76.5 323,-57.5 274,-57.5"/>
<text text-anchor="middle" x="298.5" y="-64.5" font-family="Helvetica,sans-Serif" font-size="10.00">funct3d</text>
</a>
</g>
</g>
<!-- Node1&#45;&gt;Node4 -->
<g id="edge3" class="edge">
<title>Node1&#45;&gt;Node4</title>
<path fill="none" stroke="midnightblue" d="M348.73,-67C340.01,-67 331.08,-67 323.27,-67"/>
<polygon fill="midnightblue" stroke="midnightblue" points="348.78,-70.5 358.78,-67 348.78,-63.5 348.78,-70.5"/>
</g>
<!-- Node7 -->
<g id="node7" class="node">
<title>Node7</title>
<g id="a_node7"><a xlink:href="../../d9/da6/initialize__radial_8f90.html#a187faea543d3a42bc748511f04b5b7d5" target="_top" xlink:title="Allocates memory for radial arrays and initializes radial profiles.">
<polygon fill="white" stroke="black" points="77,-0.5 77,-19.5 157,-19.5 157,-0.5 77,-0.5"/>
<text text-anchor="middle" x="117" y="-7.5" font-family="Helvetica,sans-Serif" font-size="10.00">initialize_radial</text>
</a>
</g>
</g>
<!-- Node1&#45;&gt;Node7 -->
<g id="edge8" class="edge">
<title>Node1&#45;&gt;Node7</title>
<path fill="none" stroke="midnightblue" d="M349.02,-55.03C340.45,-52.61 331.45,-50.15 323,-48 285.48,-38.46 276.02,-36.25 238,-29 211.06,-23.86 180.54,-19.04 157.02,-15.54"/>
<polygon fill="midnightblue" stroke="midnightblue" points="348.23,-58.44 358.81,-57.83 350.16,-51.71 348.23,-58.44"/>
</g>
<!-- Node3 -->
<g id="node3" class="node">
<title>Node3</title>
<g id="a_node3"><a xlink:href="../../db/d61/vmec_8f90.html#a6d38ab7be2f9d818da4541e1d352ea23" target="_top" xlink:title="Main driver for VMEC.">
<polygon fill="white" stroke="black" points="0,-38.5 0,-57.5 41,-57.5 41,-38.5 0,-38.5"/>
<text text-anchor="middle" x="20.5" y="-45.5" font-family="Helvetica,sans-Serif" font-size="10.00">vmec</text>
</a>
</g>
</g>
<!-- Node2&#45;&gt;Node3 -->
<g id="edge2" class="edge">
<title>Node2&#45;&gt;Node3</title>
<path fill="none" stroke="midnightblue" d="M82.87,-72.68C68.96,-67.08 53.24,-60.76 41.2,-55.92"/>
<polygon fill="midnightblue" stroke="midnightblue" points="81.57,-75.93 92.15,-76.41 84.18,-69.43 81.57,-75.93"/>
</g>
<!-- Node5 -->
<g id="node5" class="node">
<title>Node5</title>
<g id="a_node5"><a xlink:href="../../de/da9/evolve_8f90.html#a8103e838be03904e03551e04f6b396e4" target="_top" xlink:title="Take a single time step in Fourier space to evolve the Fourier coefficients describing the equilibriu...">
<polygon fill="white" stroke="black" points="193,-76.5 193,-95.5 238,-95.5 238,-76.5 193,-76.5"/>
<text text-anchor="middle" x="215.5" y="-83.5" font-family="Helvetica,sans-Serif" font-size="10.00">evolve</text>
</a>
</g>
</g>
<!-- Node4&#45;&gt;Node5 -->
<g id="edge4" class="edge">
<title>Node4&#45;&gt;Node5</title>
<path fill="none" stroke="midnightblue" d="M263.8,-74.91C255.16,-76.93 246.11,-79.05 238.26,-80.9"/>
<polygon fill="midnightblue" stroke="midnightblue" points="264.7,-78.29 273.64,-72.6 263.1,-71.47 264.7,-78.29"/>
</g>
<!-- Node6 -->
<g id="node6" class="node">
<title>Node6</title>
<g id="a_node6"><a xlink:href="../../d0/d71/fileout_8f90.html#a7228e984aaf2c38bd772e3d846fab7af" target="_top" xlink:title="Write the output files.">
<polygon fill="white" stroke="black" points="194.5,-38.5 194.5,-57.5 236.5,-57.5 236.5,-38.5 194.5,-38.5"/>
<text text-anchor="middle" x="215.5" y="-45.5" font-family="Helvetica,sans-Serif" font-size="10.00">fileout</text>
</a>
</g>
</g>
<!-- Node4&#45;&gt;Node6 -->
<g id="edge6" class="edge">
<title>Node4&#45;&gt;Node6</title>
<path fill="none" stroke="midnightblue" d="M263.88,-59.11C254.62,-56.94 244.87,-54.66 236.64,-52.72"/>
<polygon fill="midnightblue" stroke="midnightblue" points="263.1,-62.53 273.64,-61.4 264.7,-55.71 263.1,-62.53"/>
</g>
<!-- Node5&#45;&gt;Node2 -->
<g id="edge5" class="edge">
<title>Node5&#45;&gt;Node2</title>
<path fill="none" stroke="midnightblue" d="M182.53,-86C169.38,-86 154.4,-86 142.18,-86"/>
<polygon fill="midnightblue" stroke="midnightblue" points="182.6,-89.5 192.6,-86 182.6,-82.5 182.6,-89.5"/>
</g>
<!-- Node6&#45;&gt;Node3 -->
<g id="edge7" class="edge">
<title>Node6&#45;&gt;Node3</title>
<path fill="none" stroke="midnightblue" d="M183.99,-48C144,-48 74.98,-48 41.23,-48"/>
<polygon fill="midnightblue" stroke="midnightblue" points="184.21,-51.5 194.21,-48 184.21,-44.5 184.21,-51.5"/>
</g>
<!-- Node7&#45;&gt;Node3 -->
<g id="edge9" class="edge">
<title>Node7&#45;&gt;Node3</title>
<path fill="none" stroke="midnightblue" d="M82.87,-23.32C68.96,-28.92 53.24,-35.24 41.2,-40.08"/>
<polygon fill="midnightblue" stroke="midnightblue" points="84.18,-26.57 92.15,-19.59 81.57,-20.07 84.18,-26.57"/>
</g>
</g>
</svg>
