<?xml version="1.0" encoding="UTF-8" standalone="no"?>
<!DOCTYPE svg PUBLIC "-//W3C//DTD SVG 1.1//EN"
 "http://www.w3.org/Graphics/SVG/1.1/DTD/svg11.dtd">
<!-- Generated by graphviz version 2.48.0 (20210719.0153)
 -->
<!-- Title: free_mem_nunv Pages: 1 -->
<svg width="444pt" height="47pt"
 viewBox="0.00 0.00 444.00 47.00" xmlns="http://www.w3.org/2000/svg" xmlns:xlink="http://www.w3.org/1999/xlink">
<g id="graph0" class="graph" transform="scale(1 1) rotate(0) translate(4 43)">
<title>free_mem_nunv</title>
<polygon fill="white" stroke="transparent" points="-4,4 -4,-43 440,-43 440,4 -4,4"/>
<!-- Node1 -->
<g id="node1" class="node">
<title>Node1</title>
<g id="a_node1"><a xlink:title="Free arrays depending on the number of Fourier coefficients nunv.">
<polygon fill="#bfbfbf" stroke="black" points="350,-0.5 350,-19.5 436,-19.5 436,-0.5 350,-0.5"/>
<text text-anchor="middle" x="393" y="-7.5" font-family="Helvetica,sans-Serif" font-size="10.00">free_mem_nunv</text>
</a>
</g>
</g>
<!-- Node2 -->
<g id="node2" class="node">
<title>Node2</title>
<g id="a_node2"><a xlink:href="../../d7/d8c/allocate__nunv_8f90.html#a1fb4098498daa9bd7a8487120397c1a7" target="_top" xlink:title="allocate arrays depending on the number of Fourier coefficients nunv">
<polygon fill="white" stroke="black" points="237,-19.5 237,-38.5 314,-38.5 314,-19.5 237,-19.5"/>
<text text-anchor="middle" x="275.5" y="-26.5" font-family="Helvetica,sans-Serif" font-size="10.00">allocate_nunv</text>
</a>
</g>
</g>
<!-- Node1&#45;&gt;Node2 -->
<g id="edge1" class="edge">
<title>Node1&#45;&gt;Node2</title>
<path fill="none" stroke="midnightblue" d="M339.9,-18.57C331.2,-20 322.33,-21.46 314.09,-22.82"/>
<polygon fill="midnightblue" stroke="midnightblue" points="340.68,-21.99 349.98,-16.91 339.54,-15.08 340.68,-21.99"/>
</g>
<!-- Node4 -->
<g id="node4" class="node">
<title>Node4</title>
<g id="a_node4"><a xlink:href="../../db/d61/vmec_8f90.html#a6d38ab7be2f9d818da4541e1d352ea23" target="_top" xlink:title="Main driver for VMEC.">
<polygon fill="white" stroke="black" points="81,-0.5 81,-19.5 122,-19.5 122,-0.5 81,-0.5"/>
<text text-anchor="middle" x="101.5" y="-7.5" font-family="Helvetica,sans-Serif" font-size="10.00">vmec</text>
</a>
</g>
</g>
<!-- Node1&#45;&gt;Node4 -->
<g id="edge5" class="edge">
<title>Node1&#45;&gt;Node4</title>
<path fill="none" stroke="midnightblue" d="M339.82,-10C274.61,-10 166.2,-10 122.08,-10"/>
<polygon fill="midnightblue" stroke="midnightblue" points="339.9,-13.5 349.9,-10 339.9,-6.5 339.9,-13.5"/>
</g>
<!-- Node3 -->
<g id="node3" class="node">
<title>Node3</title>
<g id="a_node3"><a xlink:href="../../d8/da3/readin_8f90.html#a60f2bfd8fc6f7c3e027a8f91ef0c7b25" target="_top" xlink:title="Read the input file.">
<polygon fill="white" stroke="black" points="158,-19.5 158,-38.5 201,-38.5 201,-19.5 158,-19.5"/>
<text text-anchor="middle" x="179.5" y="-26.5" font-family="Helvetica,sans-Serif" font-size="10.00">readin</text>
</a>
</g>
</g>
<!-- Node2&#45;&gt;Node3 -->
<g id="edge2" class="edge">
<title>Node2&#45;&gt;Node3</title>
<path fill="none" stroke="midnightblue" d="M226.71,-29C217.72,-29 208.77,-29 201.17,-29"/>
<polygon fill="midnightblue" stroke="midnightblue" points="226.81,-32.5 236.81,-29 226.81,-25.5 226.81,-32.5"/>
</g>
<!-- Node3&#45;&gt;Node4 -->
<g id="edge3" class="edge">
<title>Node3&#45;&gt;Node4</title>
<path fill="none" stroke="midnightblue" d="M147.91,-21.35C139.24,-19.19 130.04,-16.88 122.2,-14.92"/>
<polygon fill="midnightblue" stroke="midnightblue" points="147.18,-24.78 157.73,-23.81 148.88,-17.99 147.18,-24.78"/>
</g>
<!-- Node5 -->
<g id="node5" class="node">
<title>Node5</title>
<g id="a_node5"><a xlink:href="../../db/d61/vmec_8f90.html#ace5bdf043bb85c8f0a9fc582bdb55725" target="_top" xlink:title="Main program of VMEC.">
<polygon fill="white" stroke="black" points="0,-0.5 0,-19.5 45,-19.5 45,-0.5 0,-0.5"/>
<text text-anchor="middle" x="22.5" y="-7.5" font-family="Helvetica,sans-Serif" font-size="10.00">xvmec</text>
</a>
</g>
</g>
<!-- Node4&#45;&gt;Node5 -->
<g id="edge4" class="edge">
<title>Node4&#45;&gt;Node5</title>
<path fill="none" stroke="midnightblue" d="M70.42,-10C61.99,-10 52.99,-10 45.16,-10"/>
<polygon fill="midnightblue" stroke="midnightblue" points="70.67,-13.5 80.67,-10 70.67,-6.5 70.67,-13.5"/>
</g>
</g>
</svg>
