<?xml version="1.0" encoding="UTF-8" standalone="no"?>
<!DOCTYPE svg PUBLIC "-//W3C//DTD SVG 1.1//EN"
 "http://www.w3.org/Graphics/SVG/1.1/DTD/svg11.dtd">
<!-- Generated by graphviz version 7.1.0 (20230121.1956)
 -->
<!-- Title: free_mem_nunv Pages: 1 -->
<svg width="444pt" height="46pt"
 viewBox="0.00 0.00 444.00 46.00" xmlns="http://www.w3.org/2000/svg" xmlns:xlink="http://www.w3.org/1999/xlink">
<g id="graph0" class="graph" transform="scale(1 1) rotate(0) translate(4 42)">
<title>free_mem_nunv</title>
<!-- Node1 -->
<g id="node1" class="node">
<title>Node1</title>
<g id="a_node1"><a xlink:title="Free arrays depending on the number of Fourier coefficients nunv.">
<polygon fill="#999999" stroke="#666666" points="436,-19 350,-19 350,0 436,0 436,-19"/>
<text text-anchor="middle" x="393" y="-7" font-family="Helvetica,sans-Serif" font-size="10.00">free_mem_nunv</text>
</a>
</g>
</g>
<!-- Node2 -->
<g id="node2" class="node">
<title>Node2</title>
<g id="a_node2"><a xlink:href="../../d7/d8c/allocate__nunv_8f90.html#a1fb4098498daa9bd7a8487120397c1a7" target="_top" xlink:title="allocate arrays depending on the number of Fourier coefficients nunv">
<polygon fill="white" stroke="#666666" points="314,-38 237,-38 237,-19 314,-19 314,-38"/>
<text text-anchor="middle" x="275.5" y="-26" font-family="Helvetica,sans-Serif" font-size="10.00">allocate_nunv</text>
</a>
</g>
</g>
<!-- Node1&#45;&gt;Node2 -->
<g id="edge1" class="edge">
<title>Node1&#45;&gt;Node2</title>
<path fill="none" stroke="#63b8ff" d="M338.3,-18.33C330.18,-19.67 321.95,-21.02 314.26,-22.29"/>
<polygon fill="#63b8ff" stroke="#63b8ff" points="338.86,-21.79 348.15,-16.71 337.72,-14.88 338.86,-21.79"/>
</g>
<!-- Node4 -->
<g id="node4" class="node">
<title>Node4</title>
<g id="a_node4"><a xlink:href="../../db/d61/vmec_8f90.html#a6d38ab7be2f9d818da4541e1d352ea23" target="_top" xlink:title="Main driver for VMEC.">
<polygon fill="white" stroke="#666666" points="122,-19 81,-19 81,0 122,0 122,-19"/>
<text text-anchor="middle" x="101.5" y="-7" font-family="Helvetica,sans-Serif" font-size="10.00">vmec</text>
</a>
</g>
</g>
<!-- Node1&#45;&gt;Node4 -->
<g id="edge5" class="edge">
<title>Node1&#45;&gt;Node4</title>
<path fill="none" stroke="#63b8ff" d="M338.32,-9.5C273.1,-9.5 166.34,-9.5 122.38,-9.5"/>
<polygon fill="#63b8ff" stroke="#63b8ff" points="338.08,-13 348.08,-9.5 338.08,-6 338.08,-13"/>
</g>
<!-- Node3 -->
<g id="node3" class="node">
<title>Node3</title>
<g id="a_node3"><a xlink:href="../../d8/da3/readin_8f90.html#a60f2bfd8fc6f7c3e027a8f91ef0c7b25" target="_top" xlink:title="Read the input file.">
<polygon fill="white" stroke="#666666" points="201,-38 158,-38 158,-19 201,-19 201,-38"/>
<text text-anchor="middle" x="179.5" y="-26" font-family="Helvetica,sans-Serif" font-size="10.00">readin</text>
</a>
</g>
</g>
<!-- Node2&#45;&gt;Node3 -->
<g id="edge2" class="edge">
<title>Node2&#45;&gt;Node3</title>
<path fill="none" stroke="#63b8ff" d="M225.12,-28.5C216.73,-28.5 208.43,-28.5 201.31,-28.5"/>
<polygon fill="#63b8ff" stroke="#63b8ff" points="225.02,-32 235.02,-28.5 225.02,-25 225.02,-32"/>
</g>
<!-- Node3&#45;&gt;Node4 -->
<g id="edge3" class="edge">
<title>Node3&#45;&gt;Node4</title>
<path fill="none" stroke="#63b8ff" d="M146.59,-20.52C138.41,-18.48 129.84,-16.33 122.46,-14.49"/>
<polygon fill="#63b8ff" stroke="#63b8ff" points="145.71,-23.91 156.26,-22.94 147.41,-17.12 145.71,-23.91"/>
</g>
<!-- Node5 -->
<g id="node5" class="node">
<title>Node5</title>
<g id="a_node5"><a xlink:href="../../db/d61/vmec_8f90.html#ace5bdf043bb85c8f0a9fc582bdb55725" target="_top" xlink:title="Main program of VMEC.">
<polygon fill="white" stroke="#666666" points="45,-19 0,-19 0,0 45,0 45,-19"/>
<text text-anchor="middle" x="22.5" y="-7" font-family="Helvetica,sans-Serif" font-size="10.00">xvmec</text>
</a>
</g>
</g>
<!-- Node4&#45;&gt;Node5 -->
<g id="edge4" class="edge">
<title>Node4&#45;&gt;Node5</title>
<path fill="none" stroke="#63b8ff" d="M69.39,-9.5C61.36,-9.5 52.89,-9.5 45.43,-9.5"/>
<polygon fill="#63b8ff" stroke="#63b8ff" points="69.16,-13 79.16,-9.5 69.16,-6 69.16,-13"/>
</g>
</g>
</svg>
