<?xml version="1.0" encoding="UTF-8" standalone="no"?>
<!DOCTYPE svg PUBLIC "-//W3C//DTD SVG 1.1//EN"
 "http://www.w3.org/Graphics/SVG/1.1/DTD/svg11.dtd">
<!-- Generated by graphviz version 2.49.3 (20211027.1501)
 -->
<!-- Title: tomnspa Pages: 1 -->
<svg width="227pt" height="84pt"
 viewBox="0.00 0.00 227.00 84.00" xmlns="http://www.w3.org/2000/svg" xmlns:xlink="http://www.w3.org/1999/xlink">
<g id="graph0" class="graph" transform="scale(1 1) rotate(0) translate(4 80)">
<title>tomnspa</title>
<polygon fill="white" stroke="transparent" points="-4,4 -4,-80 223,-80 223,4 -4,4"/>
<!-- Node1 -->
<g id="node1" class="node">
<title>Node1</title>
<g id="a_node1"><a xlink:title="Fourier&#45;transform anti&#45;symmetric forces from real space to Fourier space.">
<polygon fill="#bfbfbf" stroke="black" points="0,-28.5 0,-47.5 54,-47.5 54,-28.5 0,-28.5"/>
<text text-anchor="middle" x="27" y="-35.5" font-family="Helvetica,sans-Serif" font-size="10.00">tomnspa</text>
</a>
</g>
</g>
<!-- Node2 -->
<g id="node2" class="node">
<title>Node2</title>
<g id="a_node2"><a xlink:href="../../d8/dfd/namespacedbgout.html#a0752528f123b592bc57f687438b75d9b" target="_top" xlink:title=" ">
<polygon fill="white" stroke="black" points="90,-56.5 90,-75.5 219,-75.5 219,-56.5 90,-56.5"/>
<text text-anchor="middle" x="154.5" y="-63.5" font-family="Helvetica,sans-Serif" font-size="10.00">dbgout::open_dbg_context</text>
</a>
</g>
</g>
<!-- Node1&#45;&gt;Node2 -->
<g id="edge1" class="edge">
<title>Node1&#45;&gt;Node2</title>
<path fill="none" stroke="midnightblue" d="M54,-43.8C67.56,-46.83 84.65,-50.64 100.82,-54.25"/>
<polygon fill="midnightblue" stroke="midnightblue" points="100.21,-57.7 110.73,-56.46 101.73,-50.86 100.21,-57.7"/>
</g>
<!-- Node3 -->
<g id="node3" class="node">
<title>Node3</title>
<g id="a_node3"><a xlink:href="../../d8/dfd/namespacedbgout.html#a0537172e9da0db08b9d29ab8880f0559" target="_top" xlink:title=" ">
<polygon fill="white" stroke="black" points="102,-0.5 102,-19.5 207,-19.5 207,-0.5 102,-0.5"/>
<text text-anchor="middle" x="154.5" y="-7.5" font-family="Helvetica,sans-Serif" font-size="10.00">dbgout::should_write</text>
</a>
</g>
</g>
<!-- Node1&#45;&gt;Node3 -->
<g id="edge2" class="edge">
<title>Node1&#45;&gt;Node3</title>
<path fill="none" stroke="midnightblue" d="M54,-32.2C67.56,-29.17 84.65,-25.36 100.82,-21.75"/>
<polygon fill="midnightblue" stroke="midnightblue" points="101.73,-25.14 110.73,-19.54 100.21,-18.3 101.73,-25.14"/>
</g>
<!-- Node3&#45;&gt;Node3 -->
<g id="edge3" class="edge">
<title>Node3&#45;&gt;Node3</title>
<path fill="none" stroke="midnightblue" d="M135.08,-19.76C125.63,-28.57 132.11,-38 154.5,-38 168.85,-38 176.66,-34.13 177.94,-29.03"/>
<polygon fill="midnightblue" stroke="midnightblue" points="181.11,-27.54 173.92,-19.76 174.68,-30.32 181.11,-27.54"/>
</g>
</g>
</svg>
