<?xml version="1.0" encoding="UTF-8" standalone="no"?>
<!DOCTYPE svg PUBLIC "-//W3C//DTD SVG 1.1//EN"
 "http://www.w3.org/Graphics/SVG/1.1/DTD/svg11.dtd">
<!-- Generated by graphviz version 8.0.1 (20230327.1645)
 -->
<!-- Title: tomnsps Pages: 1 -->
<svg width="472pt" height="65pt"
 viewBox="0.00 0.00 472.00 65.00" xmlns="http://www.w3.org/2000/svg" xmlns:xlink="http://www.w3.org/1999/xlink">
<g id="graph0" class="graph" transform="scale(1 1) rotate(0) translate(4 61)">
<title>tomnsps</title>
<!-- Node1 -->
<g id="node1" class="node">
<title>Node1</title>
<g id="a_node1"><a xlink:title="Fourier&#45;transform symmetric forces from real space to Fourier space.">
<polygon fill="#999999" stroke="#666666" points="464,-38 410,-38 410,-19 464,-19 464,-38"/>
<text text-anchor="middle" x="437" y="-26" font-family="Helvetica,sans-Serif" font-size="10.00">tomnsps</text>
</a>
</g>
</g>
<!-- Node2 -->
<g id="node2" class="node">
<title>Node2</title>
<g id="a_node2"><a xlink:href="../../d3/d4f/funct3d_8f90.html#a800bacc22176e16323899df87b55c547" target="_top" xlink:title="Evaluate the three&#45;dimensional MHD energy functional. Think of this as the &quot;forward model&quot; that tells...">
<polygon fill="white" stroke="#666666" points="374,-38 325,-38 325,-19 374,-19 374,-38"/>
<text text-anchor="middle" x="349.5" y="-26" font-family="Helvetica,sans-Serif" font-size="10.00">funct3d</text>
</a>
</g>
</g>
<!-- Node1&#45;&gt;Node2 -->
<g id="edge1" class="edge">
<title>Node1&#45;&gt;Node2</title>
<path fill="none" stroke="#63b8ff" d="M399.16,-28.5C390.78,-28.5 382.09,-28.5 374.42,-28.5"/>
<polygon fill="#63b8ff" stroke="#63b8ff" points="398.88,-32 408.88,-28.5 398.88,-25 398.88,-32"/>
</g>
<!-- Node3 -->
<g id="node3" class="node">
<title>Node3</title>
<g id="a_node3"><a xlink:href="../../de/da9/evolve_8f90.html#a8103e838be03904e03551e04f6b396e4" target="_top" xlink:title="Take a single time step in Fourier space to evolve the Fourier coefficients describing the equilibriu...">
<polygon fill="white" stroke="#666666" points="289,-57 244,-57 244,-38 289,-38 289,-57"/>
<text text-anchor="middle" x="266.5" y="-45" font-family="Helvetica,sans-Serif" font-size="10.00">evolve</text>
</a>
</g>
</g>
<!-- Node2&#45;&gt;Node3 -->
<g id="edge2" class="edge">
<title>Node2&#45;&gt;Node3</title>
<path fill="none" stroke="#63b8ff" d="M313.95,-36.6C305.58,-38.57 296.85,-40.61 289.26,-42.4"/>
<polygon fill="#63b8ff" stroke="#63b8ff" points="314.7,-39.79 323.64,-34.1 313.1,-32.97 314.7,-39.79"/>
</g>
<!-- Node7 -->
<g id="node7" class="node">
<title>Node7</title>
<g id="a_node7"><a xlink:href="../../d0/d71/fileout_8f90.html#a7228e984aaf2c38bd772e3d846fab7af" target="_top" xlink:title="Write the output files.">
<polygon fill="white" stroke="#666666" points="204,-19 162,-19 162,0 204,0 204,-19"/>
<text text-anchor="middle" x="183" y="-7" font-family="Helvetica,sans-Serif" font-size="10.00">fileout</text>
</a>
</g>
</g>
<!-- Node2&#45;&gt;Node7 -->
<g id="edge6" class="edge">
<title>Node2&#45;&gt;Node7</title>
<path fill="none" stroke="#63b8ff" d="M313.98,-24.51C280.77,-20.68 231.68,-15.01 204.32,-11.85"/>
<polygon fill="#63b8ff" stroke="#63b8ff" points="313.24,-28.07 323.58,-25.74 314.05,-21.11 313.24,-28.07"/>
</g>
<!-- Node4 -->
<g id="node4" class="node">
<title>Node4</title>
<g id="a_node4"><a xlink:href="../../d7/d46/eqsolve_8f90.html#ab740b09d1b651e2ab8a60c5d552df0c2" target="_top" xlink:title="Iteratively evolve the Fourier coefficients that specify the equilibrium.">
<polygon fill="white" stroke="#666666" points="208,-56 158,-56 158,-37 208,-37 208,-56"/>
<text text-anchor="middle" x="183" y="-44" font-family="Helvetica,sans-Serif" font-size="10.00">eqsolve</text>
</a>
</g>
</g>
<!-- Node3&#45;&gt;Node4 -->
<g id="edge3" class="edge">
<title>Node3&#45;&gt;Node4</title>
<path fill="none" stroke="#63b8ff" d="M232.67,-47.1C224.6,-47 216.09,-46.89 208.49,-46.8"/>
<polygon fill="#63b8ff" stroke="#63b8ff" points="232.62,-50.61 242.66,-47.23 232.7,-43.61 232.62,-50.61"/>
</g>
<!-- Node5 -->
<g id="node5" class="node">
<title>Node5</title>
<g id="a_node5"><a xlink:href="../../db/d61/vmec_8f90.html#a6d38ab7be2f9d818da4541e1d352ea23" target="_top" xlink:title="Main driver for VMEC.">
<polygon fill="white" stroke="#666666" points="122,-37 81,-37 81,-18 122,-18 122,-37"/>
<text text-anchor="middle" x="101.5" y="-25" font-family="Helvetica,sans-Serif" font-size="10.00">vmec</text>
</a>
</g>
</g>
<!-- Node4&#45;&gt;Node5 -->
<g id="edge4" class="edge">
<title>Node4&#45;&gt;Node5</title>
<path fill="none" stroke="#63b8ff" d="M147.22,-38.19C138.72,-36.16 129.9,-34.05 122.37,-32.25"/>
<polygon fill="#63b8ff" stroke="#63b8ff" points="146.18,-41.78 156.72,-40.7 147.8,-34.97 146.18,-41.78"/>
</g>
<!-- Node6 -->
<g id="node6" class="node">
<title>Node6</title>
<g id="a_node6"><a xlink:href="../../db/d61/vmec_8f90.html#ace5bdf043bb85c8f0a9fc582bdb55725" target="_top" xlink:title="Main program of VMEC.">
<polygon fill="white" stroke="#666666" points="45,-37 0,-37 0,-18 45,-18 45,-37"/>
<text text-anchor="middle" x="22.5" y="-25" font-family="Helvetica,sans-Serif" font-size="10.00">xvmec</text>
</a>
</g>
</g>
<!-- Node5&#45;&gt;Node6 -->
<g id="edge5" class="edge">
<title>Node5&#45;&gt;Node6</title>
<path fill="none" stroke="#63b8ff" d="M69.67,-27.5C61.56,-27.5 52.97,-27.5 45.43,-27.5"/>
<polygon fill="#63b8ff" stroke="#63b8ff" points="69.67,-31 79.67,-27.5 69.67,-24 69.67,-31"/>
</g>
<!-- Node7&#45;&gt;Node5 -->
<g id="edge7" class="edge">
<title>Node7&#45;&gt;Node5</title>
<path fill="none" stroke="#63b8ff" d="M151.07,-16.5C141.42,-18.69 131.03,-21.04 122.35,-23"/>
<polygon fill="#63b8ff" stroke="#63b8ff" points="151.55,-19.76 160.53,-14.14 150,-12.93 151.55,-19.76"/>
</g>
</g>
</svg>
