<?xml version="1.0" encoding="UTF-8" standalone="no"?>
<!DOCTYPE svg PUBLIC "-//W3C//DTD SVG 1.1//EN"
 "http://www.w3.org/Graphics/SVG/1.1/DTD/svg11.dtd">
<!-- Generated by graphviz version 7.1.0 (20230121.1956)
 -->
<!-- Title: tomnsps Pages: 1 -->
<svg width="227pt" height="45pt"
 viewBox="0.00 0.00 227.00 45.00" xmlns="http://www.w3.org/2000/svg" xmlns:xlink="http://www.w3.org/1999/xlink">
<g id="graph0" class="graph" transform="scale(1 1) rotate(0) translate(4 41)">
<title>tomnsps</title>
<!-- Node1 -->
<g id="node1" class="node">
<title>Node1</title>
<g id="a_node1"><a xlink:title="Fourier&#45;transform symmetric forces from real space to Fourier space.">
<polygon fill="#999999" stroke="#666666" points="54,-19 0,-19 0,0 54,0 54,-19"/>
<text text-anchor="middle" x="27" y="-7" font-family="Helvetica,sans-Serif" font-size="10.00">tomnsps</text>
</a>
</g>
</g>
<!-- Node2 -->
<g id="node2" class="node">
<title>Node2</title>
<g id="a_node2"><a xlink:href="../../d8/dfd/namespacedbgout.html#acdd1612a38e44b6469dc03d9d1c6ceed" target="_top" xlink:title="check if any output is desired for the current iteration check if the given context should be openend...">
<polygon fill="white" stroke="#666666" points="219,-19 90,-19 90,0 219,0 219,-19"/>
<text text-anchor="middle" x="154.5" y="-7" font-family="Helvetica,sans-Serif" font-size="10.00">dbgout::open_dbg_context</text>
</a>
</g>
</g>
<!-- Node1&#45;&gt;Node2 -->
<g id="edge1" class="edge">
<title>Node1&#45;&gt;Node2</title>
<path fill="none" stroke="#63b8ff" d="M54.31,-9.5C61.56,-9.5 69.79,-9.5 78.35,-9.5"/>
<polygon fill="#63b8ff" stroke="#63b8ff" points="78.22,-13 88.22,-9.5 78.22,-6 78.22,-13"/>
</g>
<!-- Node2&#45;&gt;Node2 -->
<g id="edge2" class="edge">
<title>Node2&#45;&gt;Node2</title>
<path fill="none" stroke="#63b8ff" d="M134.54,-19.37C125.43,-27.94 132.09,-37 154.5,-37 166.76,-37 174.3,-34.29 177.13,-30.43"/>
<polygon fill="#63b8ff" stroke="#63b8ff" points="180.56,-29.74 174.82,-20.84 173.76,-31.38 180.56,-29.74"/>
</g>
</g>
</svg>
