<?xml version="1.0" encoding="UTF-8" standalone="no"?>
<!DOCTYPE svg PUBLIC "-//W3C//DTD SVG 1.1//EN"
 "http://www.w3.org/Graphics/SVG/1.1/DTD/svg11.dtd">
<!-- Generated by graphviz version 8.1.0 (20230707.0739)
 -->
<!-- Title: spline_akima Pages: 1 -->
<svg width="347pt" height="192pt"
 viewBox="0.00 0.00 346.50 192.25" xmlns="http://www.w3.org/2000/svg" xmlns:xlink="http://www.w3.org/1999/xlink">
<g id="graph0" class="graph" transform="scale(1 1) rotate(0) translate(4 188.25)">
<title>spline_akima</title>
<!-- Node1 -->
<g id="Node000001" class="node">
<title>Node1</title>
<g id="a_Node000001"><a xlink:title=" ">
<polygon fill="#999999" stroke="#666666" points="338.5,-101.25 265.5,-101.25 265.5,-82 338.5,-82 338.5,-101.25"/>
<text text-anchor="middle" x="302" y="-87.75" font-family="Helvetica,sans-Serif" font-size="10.00">spline_akima</text>
</a>
</g>
</g>
<!-- Node2 -->
<g id="Node000002" class="node">
<title>Node2</title>
<g id="a_Node000002"><a xlink:href="../../de/de4/explore__spline__akima_8f90.html#aa529a8c0eaf48498b392e8907fe391af" target="_top" xlink:title=" ">
<polygon fill="white" stroke="#666666" points="225,-184.25 188.75,-184.25 188.75,-165 225,-165 225,-184.25"/>
<text text-anchor="middle" x="206.88" y="-170.75" font-family="Helvetica,sans-Serif" font-size="10.00">hello</text>
</a>
</g>
</g>
<!-- Node1&#45;&gt;Node2 -->
<g id="edge1_Node000001_Node000002" class="edge">
<title>Node1&#45;&gt;Node2</title>
<g id="a_edge1_Node000001_Node000002"><a xlink:title=" ">
<path fill="none" stroke="#63b8ff" d="M282.41,-108.93C268.1,-122.16 247.74,-140.76 229.5,-156.62 226.4,-159.32 223.01,-162.18 219.85,-164.81"/>
<polygon fill="#63b8ff" stroke="#63b8ff" points="284.52,-111.83 289.47,-102.46 279.76,-106.69 284.52,-111.83"/>
</a>
</g>
</g>
<!-- Node3 -->
<g id="Node000003" class="node">
<title>Node3</title>
<g id="a_Node000003"><a xlink:href="../../da/dc8/profile__functions_8f.html#a5bfa30ed89583073252fb965b7cf69e0" target="_top" xlink:title=" ">
<polygon fill="white" stroke="#666666" points="225.75,-129.25 188,-129.25 188,-110 225.75,-110 225.75,-129.25"/>
<text text-anchor="middle" x="206.88" y="-115.75" font-family="Helvetica,sans-Serif" font-size="10.00">pcurr</text>
</a>
</g>
</g>
<!-- Node1&#45;&gt;Node3 -->
<g id="edge2_Node000001_Node000003" class="edge">
<title>Node1&#45;&gt;Node3</title>
<g id="a_edge2_Node000001_Node000003"><a xlink:title=" ">
<path fill="none" stroke="#63b8ff" d="M257.02,-104.85C246.07,-108.14 234.92,-111.49 226.02,-114.17"/>
<polygon fill="#63b8ff" stroke="#63b8ff" points="257.81,-107.96 266.38,-101.73 255.8,-101.26 257.81,-107.96"/>
</a>
</g>
</g>
<!-- Node4 -->
<g id="Node000004" class="node">
<title>Node4</title>
<g id="a_Node000004"><a xlink:href="../../da/dc8/profile__functions_8f.html#a437348e2a0ee2ababaeca2205a78b85c" target="_top" xlink:title=" ">
<polygon fill="white" stroke="#666666" points="225.38,-74.25 188.38,-74.25 188.38,-55 225.38,-55 225.38,-74.25"/>
<text text-anchor="middle" x="206.88" y="-60.75" font-family="Helvetica,sans-Serif" font-size="10.00">piota</text>
</a>
</g>
</g>
<!-- Node1&#45;&gt;Node4 -->
<g id="edge4_Node000001_Node000004" class="edge">
<title>Node1&#45;&gt;Node4</title>
<g id="a_edge4_Node000001_Node000004"><a xlink:title=" ">
<path fill="none" stroke="#63b8ff" d="M255.81,-78.52C245.18,-75.44 234.46,-72.33 225.86,-69.84"/>
<polygon fill="#63b8ff" stroke="#63b8ff" points="254.74,-82.15 265.32,-81.57 256.69,-75.42 254.74,-82.15"/>
</a>
</g>
</g>
<!-- Node7 -->
<g id="Node000007" class="node">
<title>Node7</title>
<g id="a_Node000007"><a xlink:href="../../da/dc8/profile__functions_8f.html#aba5b7c2601ef5c209acc084c9a42ff6d" target="_top" xlink:title=" ">
<polygon fill="white" stroke="#666666" points="229.5,-19.25 184.25,-19.25 184.25,0 229.5,0 229.5,-19.25"/>
<text text-anchor="middle" x="206.88" y="-5.75" font-family="Helvetica,sans-Serif" font-size="10.00">pmass</text>
</a>
</g>
</g>
<!-- Node1&#45;&gt;Node7 -->
<g id="edge10_Node000001_Node000007" class="edge">
<title>Node1&#45;&gt;Node7</title>
<g id="a_edge10_Node000001_Node000007"><a xlink:title=" ">
<path fill="none" stroke="#63b8ff" d="M281.36,-74.33C262.45,-57.68 234.5,-33.07 219.1,-19.51"/>
<polygon fill="#63b8ff" stroke="#63b8ff" points="278.76,-76.59 288.58,-80.57 283.39,-71.33 278.76,-76.59"/>
</a>
</g>
</g>
<!-- Node3&#45;&gt;Node3 -->
<g id="edge3_Node000003_Node000003" class="edge">
<title>Node3&#45;&gt;Node3</title>
<g id="a_edge3_Node000003_Node000003"><a xlink:title=" ">
<path fill="none" stroke="#63b8ff" d="M223.6,-140.32C221.67,-144.37 216.1,-147.25 206.88,-147.25 190.48,-147.25 185.62,-138.15 192.28,-129.54"/>
<polygon fill="#63b8ff" stroke="#63b8ff" points="226.84,-139.67 221.47,-130.54 219.97,-141.03 226.84,-139.67"/>
</a>
</g>
</g>
<!-- Node4&#45;&gt;Node4 -->
<g id="edge5_Node000004_Node000004" class="edge">
<title>Node4&#45;&gt;Node4</title>
<g id="a_edge5_Node000004_Node000004"><a xlink:title=" ">
<path fill="none" stroke="#63b8ff" d="M223.6,-85.32C221.67,-89.37 216.1,-92.25 206.88,-92.25 190.48,-92.25 185.62,-83.15 192.28,-74.54"/>
<polygon fill="#63b8ff" stroke="#63b8ff" points="226.84,-84.67 221.47,-75.54 219.97,-86.03 226.84,-84.67"/>
</a>
</g>
</g>
<!-- Node5 -->
<g id="Node000005" class="node">
<title>Node5</title>
<g id="a_Node000005"><a xlink:href="../../d5/d26/magnetic__fluxes_8f90.html#ad5e5642d688664c85a181c2d1fd6497f" target="_top" xlink:title="Compute the radial derivative of the enclosed poloidal magnetic flux.">
<polygon fill="white" stroke="#666666" points="148.25,-74.25 79,-74.25 79,-55 148.25,-55 148.25,-74.25"/>
<text text-anchor="middle" x="113.62" y="-60.75" font-family="Helvetica,sans-Serif" font-size="10.00">polflux_deriv</text>
</a>
</g>
</g>
<!-- Node4&#45;&gt;Node5 -->
<g id="edge6_Node000004_Node000005" class="edge">
<title>Node4&#45;&gt;Node5</title>
<g id="a_edge6_Node000004_Node000005"><a xlink:title=" ">
<path fill="none" stroke="#63b8ff" d="M177.37,-64.62C168.2,-64.62 157.94,-64.62 148.42,-64.62"/>
<polygon fill="#63b8ff" stroke="#63b8ff" points="177.28,-68.13 187.28,-64.62 177.28,-61.13 177.28,-68.13"/>
</a>
</g>
</g>
<!-- Node5&#45;&gt;Node5 -->
<g id="edge9_Node000005_Node000005" class="edge">
<title>Node5&#45;&gt;Node5</title>
<g id="a_edge9_Node000005_Node000005"><a xlink:title=" ">
<path fill="none" stroke="#63b8ff" d="M130.14,-85.32C128.24,-89.37 122.73,-92.25 113.62,-92.25 97.43,-92.25 92.62,-83.15 99.2,-74.54"/>
<polygon fill="#63b8ff" stroke="#63b8ff" points="133.39,-84.69 128.05,-75.54 126.52,-86.02 133.39,-84.69"/>
</a>
</g>
</g>
<!-- Node6 -->
<g id="Node000006" class="node">
<title>Node6</title>
<g id="a_Node000006"><a xlink:href="../../d5/d26/magnetic__fluxes_8f90.html#a9d78c3bac80a4d14cc82a93bc79e7dcd" target="_top" xlink:title="Compute the enclosed poloidal magnetic flux.">
<polygon fill="white" stroke="#666666" points="43,-74.25 0,-74.25 0,-55 43,-55 43,-74.25"/>
<text text-anchor="middle" x="21.5" y="-60.75" font-family="Helvetica,sans-Serif" font-size="10.00">polflux</text>
</a>
</g>
</g>
<!-- Node5&#45;&gt;Node6 -->
<g id="edge7_Node000005_Node000006" class="edge">
<title>Node5&#45;&gt;Node6</title>
<g id="a_edge7_Node000005_Node000006"><a xlink:title=" ">
<path fill="none" stroke="#63b8ff" d="M67.79,-64.62C59.22,-64.62 50.64,-64.62 43.28,-64.62"/>
<polygon fill="#63b8ff" stroke="#63b8ff" points="67.55,-68.13 77.55,-64.62 67.55,-61.13 67.55,-68.13"/>
</a>
</g>
</g>
<!-- Node6&#45;&gt;Node6 -->
<g id="edge8_Node000006_Node000006" class="edge">
<title>Node6&#45;&gt;Node6</title>
<g id="a_edge8_Node000006_Node000006"><a xlink:title=" ">
<path fill="none" stroke="#63b8ff" d="M38.02,-85.32C36.12,-89.37 30.61,-92.25 21.5,-92.25 5.31,-92.25 0.5,-83.15 7.08,-74.54"/>
<polygon fill="#63b8ff" stroke="#63b8ff" points="41.27,-84.69 35.92,-75.54 34.4,-86.02 41.27,-84.69"/>
</a>
</g>
</g>
<!-- Node7&#45;&gt;Node7 -->
<g id="edge11_Node000007_Node000007" class="edge">
<title>Node7&#45;&gt;Node7</title>
<g id="a_edge11_Node000007_Node000007"><a xlink:title=" ">
<path fill="none" stroke="#63b8ff" d="M223.6,-30.32C221.67,-34.37 216.1,-37.25 206.88,-37.25 190.48,-37.25 185.62,-28.15 192.28,-19.54"/>
<polygon fill="#63b8ff" stroke="#63b8ff" points="226.84,-29.67 221.47,-20.54 219.97,-31.03 226.84,-29.67"/>
</a>
</g>
</g>
</g>
</svg>
