<?xml version="1.0" encoding="UTF-8" standalone="no"?>
<!DOCTYPE svg PUBLIC "-//W3C//DTD SVG 1.1//EN"
 "http://www.w3.org/Graphics/SVG/1.1/DTD/svg11.dtd">
<!-- Generated by graphviz version 8.0.1 (20230327.1645)
 -->
<!-- Title: spline_akima Pages: 1 -->
<svg width="350pt" height="192pt"
 viewBox="0.00 0.00 350.00 192.00" xmlns="http://www.w3.org/2000/svg" xmlns:xlink="http://www.w3.org/1999/xlink">
<g id="graph0" class="graph" transform="scale(1 1) rotate(0) translate(4 188)">
<title>spline_akima</title>
<!-- Node1 -->
<g id="node1" class="node">
<title>Node1</title>
<g id="a_node1"><a xlink:title=" ">
<polygon fill="#999999" stroke="#666666" points="342,-101 268,-101 268,-82 342,-82 342,-101"/>
<text text-anchor="middle" x="305" y="-89" font-family="Helvetica,sans-Serif" font-size="10.00">spline_akima</text>
</a>
</g>
</g>
<!-- Node2 -->
<g id="node2" class="node">
<title>Node2</title>
<g id="a_node2"><a xlink:href="../../de/de4/explore__spline__akima_8f90.html#aa529a8c0eaf48498b392e8907fe391af" target="_top" xlink:title=" ">
<polygon fill="white" stroke="#666666" points="227.5,-184 190.5,-184 190.5,-165 227.5,-165 227.5,-184"/>
<text text-anchor="middle" x="209" y="-172" font-family="Helvetica,sans-Serif" font-size="10.00">hello</text>
</a>
</g>
</g>
<!-- Node1&#45;&gt;Node2 -->
<g id="edge1" class="edge">
<title>Node1&#45;&gt;Node2</title>
<path fill="none" stroke="#63b8ff" d="M285.71,-108.46C271.29,-121.73 250.58,-140.53 232,-156.5 228.86,-159.2 225.41,-162.07 222.19,-164.7"/>
<polygon fill="#63b8ff" stroke="#63b8ff" points="287.43,-111.71 292.41,-102.36 282.69,-106.56 287.43,-111.71"/>
</g>
<!-- Node3 -->
<g id="node3" class="node">
<title>Node3</title>
<g id="a_node3"><a xlink:href="../../da/dc8/profile__functions_8f.html#a5bfa30ed89583073252fb965b7cf69e0" target="_top" xlink:title=" ">
<polygon fill="white" stroke="#666666" points="228,-129 190,-129 190,-110 228,-110 228,-129"/>
<text text-anchor="middle" x="209" y="-117" font-family="Helvetica,sans-Serif" font-size="10.00">pcurr</text>
</a>
</g>
</g>
<!-- Node1&#45;&gt;Node3 -->
<g id="edge2" class="edge">
<title>Node1&#45;&gt;Node3</title>
<path fill="none" stroke="#63b8ff" d="M260.35,-104.5C249.04,-107.87 237.46,-111.32 228.27,-114.06"/>
<polygon fill="#63b8ff" stroke="#63b8ff" points="261.01,-107.66 269.59,-101.45 259.01,-100.95 261.01,-107.66"/>
</g>
<!-- Node4 -->
<g id="node4" class="node">
<title>Node4</title>
<g id="a_node4"><a xlink:href="../../da/dc8/profile__functions_8f.html#a437348e2a0ee2ababaeca2205a78b85c" target="_top" xlink:title=" ">
<polygon fill="white" stroke="#666666" points="228,-74 190,-74 190,-55 228,-55 228,-74"/>
<text text-anchor="middle" x="209" y="-62" font-family="Helvetica,sans-Serif" font-size="10.00">piota</text>
</a>
</g>
</g>
<!-- Node1&#45;&gt;Node4 -->
<g id="edge4" class="edge">
<title>Node1&#45;&gt;Node4</title>
<path fill="none" stroke="#63b8ff" d="M258.96,-78.56C248.09,-75.44 237.08,-72.28 228.26,-69.75"/>
<polygon fill="#63b8ff" stroke="#63b8ff" points="257.69,-82.13 268.26,-81.52 259.62,-75.4 257.69,-82.13"/>
</g>
<!-- Node7 -->
<g id="node7" class="node">
<title>Node7</title>
<g id="a_node7"><a xlink:href="../../da/dc8/profile__functions_8f.html#aba5b7c2601ef5c209acc084c9a42ff6d" target="_top" xlink:title=" ">
<polygon fill="white" stroke="#666666" points="232,-19 186,-19 186,0 232,0 232,-19"/>
<text text-anchor="middle" x="209" y="-7" font-family="Helvetica,sans-Serif" font-size="10.00">pmass</text>
</a>
</g>
</g>
<!-- Node1&#45;&gt;Node7 -->
<g id="edge10" class="edge">
<title>Node1&#45;&gt;Node7</title>
<path fill="none" stroke="#63b8ff" d="M284.59,-74.57C265.53,-57.94 237.12,-33.16 221.43,-19.47"/>
<polygon fill="#63b8ff" stroke="#63b8ff" points="282.01,-77.84 291.85,-81.77 286.61,-72.56 282.01,-77.84"/>
</g>
<!-- Node3&#45;&gt;Node3 -->
<g id="edge3" class="edge">
<title>Node3&#45;&gt;Node3</title>
<path fill="none" stroke="#63b8ff" d="M225.86,-140.1C223.91,-144.13 218.29,-147 209,-147 192.48,-147 187.57,-137.94 194.28,-129.37"/>
<polygon fill="#63b8ff" stroke="#63b8ff" points="229.1,-139.49 223.72,-130.37 222.24,-140.86 229.1,-139.49"/>
</g>
<!-- Node4&#45;&gt;Node4 -->
<g id="edge5" class="edge">
<title>Node4&#45;&gt;Node4</title>
<path fill="none" stroke="#63b8ff" d="M225.86,-85.1C223.91,-89.13 218.29,-92 209,-92 192.48,-92 187.57,-82.94 194.28,-74.37"/>
<polygon fill="#63b8ff" stroke="#63b8ff" points="229.1,-84.49 223.72,-75.37 222.24,-85.86 229.1,-84.49"/>
</g>
<!-- Node5 -->
<g id="node5" class="node">
<title>Node5</title>
<g id="a_node5"><a xlink:href="../../d5/d26/magnetic__fluxes_8f90.html#ad5e5642d688664c85a181c2d1fd6497f" target="_top" xlink:title="Compute the radial derivative of the enclosed poloidal magnetic flux.">
<polygon fill="white" stroke="#666666" points="150,-74 80,-74 80,-55 150,-55 150,-74"/>
<text text-anchor="middle" x="115" y="-62" font-family="Helvetica,sans-Serif" font-size="10.00">polflux_deriv</text>
</a>
</g>
</g>
<!-- Node4&#45;&gt;Node5 -->
<g id="edge6" class="edge">
<title>Node4&#45;&gt;Node5</title>
<path fill="none" stroke="#63b8ff" d="M178.93,-64.5C169.79,-64.5 159.61,-64.5 150.15,-64.5"/>
<polygon fill="#63b8ff" stroke="#63b8ff" points="178.82,-68 188.82,-64.5 178.82,-61 178.82,-68"/>
</g>
<!-- Node5&#45;&gt;Node5 -->
<g id="edge9" class="edge">
<title>Node5&#45;&gt;Node5</title>
<path fill="none" stroke="#63b8ff" d="M131.68,-85.1C129.75,-89.13 124.2,-92 115,-92 98.65,-92 93.8,-82.94 100.44,-74.37"/>
<polygon fill="#63b8ff" stroke="#63b8ff" points="134.93,-84.5 129.56,-75.37 128.06,-85.86 134.93,-84.5"/>
</g>
<!-- Node6 -->
<g id="node6" class="node">
<title>Node6</title>
<g id="a_node6"><a xlink:href="../../d5/d26/magnetic__fluxes_8f90.html#a9d78c3bac80a4d14cc82a93bc79e7dcd" target="_top" xlink:title="Compute the enclosed poloidal magnetic flux.">
<polygon fill="white" stroke="#666666" points="44,-74 0,-74 0,-55 44,-55 44,-74"/>
<text text-anchor="middle" x="22" y="-62" font-family="Helvetica,sans-Serif" font-size="10.00">polflux</text>
</a>
</g>
</g>
<!-- Node5&#45;&gt;Node6 -->
<g id="edge7" class="edge">
<title>Node5&#45;&gt;Node6</title>
<path fill="none" stroke="#63b8ff" d="M68.83,-64.5C60.24,-64.5 51.64,-64.5 44.25,-64.5"/>
<polygon fill="#63b8ff" stroke="#63b8ff" points="68.6,-68 78.6,-64.5 68.6,-61 68.6,-68"/>
</g>
<!-- Node6&#45;&gt;Node6 -->
<g id="edge8" class="edge">
<title>Node6&#45;&gt;Node6</title>
<path fill="none" stroke="#63b8ff" d="M38.68,-85.1C36.75,-89.13 31.2,-92 22,-92 5.65,-92 0.8,-82.94 7.44,-74.37"/>
<polygon fill="#63b8ff" stroke="#63b8ff" points="41.93,-84.5 36.56,-75.37 35.06,-85.86 41.93,-84.5"/>
</g>
<!-- Node7&#45;&gt;Node7 -->
<g id="edge11" class="edge">
<title>Node7&#45;&gt;Node7</title>
<path fill="none" stroke="#63b8ff" d="M225.86,-30.1C223.91,-34.13 218.29,-37 209,-37 192.48,-37 187.57,-27.94 194.28,-19.37"/>
<polygon fill="#63b8ff" stroke="#63b8ff" points="229.1,-29.49 223.72,-20.37 222.24,-30.86 229.1,-29.49"/>
</g>
</g>
</svg>
