<?xml version="1.0" encoding="UTF-8" standalone="no"?>
<!DOCTYPE svg PUBLIC "-//W3C//DTD SVG 1.1//EN"
 "http://www.w3.org/Graphics/SVG/1.1/DTD/svg11.dtd">
<!-- Generated by graphviz version 7.1.0 (20230121.1956)
 -->
<!-- Title: spline_akima Pages: 1 -->
<svg width="350pt" height="192pt"
 viewBox="0.00 0.00 350.00 192.00" xmlns="http://www.w3.org/2000/svg" xmlns:xlink="http://www.w3.org/1999/xlink">
<g id="graph0" class="graph" transform="scale(1 1) rotate(0) translate(4 188)">
<title>spline_akima</title>
<!-- Node1 -->
<g id="node1" class="node">
<title>Node1</title>
<g id="a_node1"><a xlink:title=" ">
<polygon fill="#999999" stroke="#666666" points="342,-101 268,-101 268,-82 342,-82 342,-101"/>
<text text-anchor="middle" x="305" y="-89" font-family="Helvetica,sans-Serif" font-size="10.00">spline_akima</text>
</a>
</g>
</g>
<!-- Node2 -->
<g id="node2" class="node">
<title>Node2</title>
<g id="a_node2"><a xlink:href="../../de/de4/explore__spline__akima_8f90.html#aa529a8c0eaf48498b392e8907fe391af" target="_top" xlink:title=" ">
<polygon fill="white" stroke="#666666" points="227.5,-184 190.5,-184 190.5,-165 227.5,-165 227.5,-184"/>
<text text-anchor="middle" x="209" y="-172" font-family="Helvetica,sans-Serif" font-size="10.00">hello</text>
</a>
</g>
</g>
<!-- Node1&#45;&gt;Node2 -->
<g id="edge1" class="edge">
<title>Node1&#45;&gt;Node2</title>
<path fill="none" stroke="#63b8ff" d="M285.3,-108.84C270.9,-122.08 250.4,-140.68 232,-156.5 228.86,-159.2 225.41,-162.07 222.19,-164.7"/>
<polygon fill="#63b8ff" stroke="#63b8ff" points="287.32,-111.73 292.3,-102.38 282.57,-106.59 287.32,-111.73"/>
</g>
<!-- Node3 -->
<g id="node3" class="node">
<title>Node3</title>
<g id="a_node3"><a xlink:href="../../da/dc8/profile__functions_8f.html#a5bfa30ed89583073252fb965b7cf69e0" target="_top" xlink:title=" ">
<polygon fill="white" stroke="#666666" points="228,-129 190,-129 190,-110 228,-110 228,-129"/>
<text text-anchor="middle" x="209" y="-117" font-family="Helvetica,sans-Serif" font-size="10.00">pcurr</text>
</a>
</g>
</g>
<!-- Node1&#45;&gt;Node3 -->
<g id="edge2" class="edge">
<title>Node1&#45;&gt;Node3</title>
<path fill="none" stroke="#63b8ff" d="M259.66,-104.71C248.56,-108.01 237.27,-111.38 228.27,-114.06"/>
<polygon fill="#63b8ff" stroke="#63b8ff" points="260.56,-108.09 269.14,-101.88 258.56,-101.38 260.56,-108.09"/>
</g>
<!-- Node4 -->
<g id="node4" class="node">
<title>Node4</title>
<g id="a_node4"><a xlink:href="../../da/dc8/profile__functions_8f.html#a437348e2a0ee2ababaeca2205a78b85c" target="_top" xlink:title=" ">
<polygon fill="white" stroke="#666666" points="228,-74 190,-74 190,-55 228,-55 228,-74"/>
<text text-anchor="middle" x="209" y="-62" font-family="Helvetica,sans-Serif" font-size="10.00">piota</text>
</a>
</g>
</g>
<!-- Node1&#45;&gt;Node4 -->
<g id="edge4" class="edge">
<title>Node1&#45;&gt;Node4</title>
<path fill="none" stroke="#63b8ff" d="M258.29,-78.37C247.64,-75.31 236.9,-72.23 228.26,-69.75"/>
<polygon fill="#63b8ff" stroke="#63b8ff" points="257.23,-81.71 267.81,-81.11 259.17,-74.98 257.23,-81.71"/>
</g>
<!-- Node7 -->
<g id="node7" class="node">
<title>Node7</title>
<g id="a_node7"><a xlink:href="../../da/dc8/profile__functions_8f.html#aba5b7c2601ef5c209acc084c9a42ff6d" target="_top" xlink:title=" ">
<polygon fill="white" stroke="#666666" points="232,-19 186,-19 186,0 232,0 232,-19"/>
<text text-anchor="middle" x="209" y="-7" font-family="Helvetica,sans-Serif" font-size="10.00">pmass</text>
</a>
</g>
</g>
<!-- Node1&#45;&gt;Node7 -->
<g id="edge10" class="edge">
<title>Node1&#45;&gt;Node7</title>
<path fill="none" stroke="#63b8ff" d="M284.33,-74.34C265.28,-57.72 237.05,-33.09 221.43,-19.47"/>
<polygon fill="#63b8ff" stroke="#63b8ff" points="281.87,-76.84 291.71,-80.78 286.47,-71.57 281.87,-76.84"/>
</g>
<!-- Node3&#45;&gt;Node3 -->
<g id="edge3" class="edge">
<title>Node3&#45;&gt;Node3</title>
<path fill="none" stroke="#63b8ff" d="M225.68,-140.43C223.6,-144.29 218.04,-147 209,-147 192.48,-147 187.57,-137.94 194.28,-129.37"/>
<polygon fill="#63b8ff" stroke="#63b8ff" points="229.18,-140.09 223.98,-130.86 222.29,-141.32 229.18,-140.09"/>
</g>
<!-- Node4&#45;&gt;Node4 -->
<g id="edge5" class="edge">
<title>Node4&#45;&gt;Node4</title>
<path fill="none" stroke="#63b8ff" d="M225.68,-85.43C223.6,-89.29 218.04,-92 209,-92 192.48,-92 187.57,-82.94 194.28,-74.37"/>
<polygon fill="#63b8ff" stroke="#63b8ff" points="229.18,-85.09 223.98,-75.86 222.29,-86.32 229.18,-85.09"/>
</g>
<!-- Node5 -->
<g id="node5" class="node">
<title>Node5</title>
<g id="a_node5"><a xlink:href="../../d5/d26/magnetic__fluxes_8f90.html#ad5e5642d688664c85a181c2d1fd6497f" target="_top" xlink:title="Compute the radial derivative of the enclosed poloidal magnetic flux.">
<polygon fill="white" stroke="#666666" points="150,-74 80,-74 80,-55 150,-55 150,-74"/>
<text text-anchor="middle" x="115" y="-62" font-family="Helvetica,sans-Serif" font-size="10.00">polflux_deriv</text>
</a>
</g>
</g>
<!-- Node4&#45;&gt;Node5 -->
<g id="edge6" class="edge">
<title>Node4&#45;&gt;Node5</title>
<path fill="none" stroke="#63b8ff" d="M178.32,-64.5C169.34,-64.5 159.4,-64.5 150.15,-64.5"/>
<polygon fill="#63b8ff" stroke="#63b8ff" points="178.31,-68 188.31,-64.5 178.31,-61 178.31,-68"/>
</g>
<!-- Node5&#45;&gt;Node5 -->
<g id="edge9" class="edge">
<title>Node5&#45;&gt;Node5</title>
<path fill="none" stroke="#63b8ff" d="M131.51,-85.43C129.44,-89.29 123.94,-92 115,-92 98.65,-92 93.8,-82.94 100.44,-74.37"/>
<polygon fill="#63b8ff" stroke="#63b8ff" points="135,-85.1 129.82,-75.86 128.11,-86.31 135,-85.1"/>
</g>
<!-- Node6 -->
<g id="node6" class="node">
<title>Node6</title>
<g id="a_node6"><a xlink:href="../../d5/d26/magnetic__fluxes_8f90.html#a9d78c3bac80a4d14cc82a93bc79e7dcd" target="_top" xlink:title="Compute the enclosed poloidal magnetic flux.">
<polygon fill="white" stroke="#666666" points="44,-74 0,-74 0,-55 44,-55 44,-74"/>
<text text-anchor="middle" x="22" y="-62" font-family="Helvetica,sans-Serif" font-size="10.00">polflux</text>
</a>
</g>
</g>
<!-- Node5&#45;&gt;Node6 -->
<g id="edge7" class="edge">
<title>Node5&#45;&gt;Node6</title>
<path fill="none" stroke="#63b8ff" d="M68.25,-64.5C59.86,-64.5 51.48,-64.5 44.25,-64.5"/>
<polygon fill="#63b8ff" stroke="#63b8ff" points="68.08,-68 78.08,-64.5 68.08,-61 68.08,-68"/>
</g>
<!-- Node6&#45;&gt;Node6 -->
<g id="edge8" class="edge">
<title>Node6&#45;&gt;Node6</title>
<path fill="none" stroke="#63b8ff" d="M38.51,-85.43C36.44,-89.29 30.94,-92 22,-92 5.65,-92 0.8,-82.94 7.44,-74.37"/>
<polygon fill="#63b8ff" stroke="#63b8ff" points="42,-85.1 36.82,-75.86 35.11,-86.31 42,-85.1"/>
</g>
<!-- Node7&#45;&gt;Node7 -->
<g id="edge11" class="edge">
<title>Node7&#45;&gt;Node7</title>
<path fill="none" stroke="#63b8ff" d="M225.68,-30.43C223.6,-34.29 218.04,-37 209,-37 192.48,-37 187.57,-27.94 194.28,-19.37"/>
<polygon fill="#63b8ff" stroke="#63b8ff" points="229.18,-30.09 223.98,-20.86 222.29,-31.32 229.18,-30.09"/>
</g>
</g>
</svg>
