<?xml version="1.0" encoding="UTF-8" standalone="no"?>
<!DOCTYPE svg PUBLIC "-//W3C//DTD SVG 1.1//EN"
 "http://www.w3.org/Graphics/SVG/1.1/DTD/svg11.dtd">
<!-- Generated by graphviz version 2.49.3 (20211027.1501)
 -->
<!-- Title: scalfor Pages: 1 -->
<svg width="219pt" height="122pt"
 viewBox="0.00 0.00 219.00 122.00" xmlns="http://www.w3.org/2000/svg" xmlns:xlink="http://www.w3.org/1999/xlink">
<g id="graph0" class="graph" transform="scale(1 1) rotate(0) translate(4 118)">
<title>scalfor</title>
<polygon fill="white" stroke="transparent" points="-4,4 -4,-118 215,-118 215,4 -4,4"/>
<!-- Node1 -->
<g id="node1" class="node">
<title>Node1</title>
<g id="a_node1"><a xlink:title="Build forces from different contributions.">
<polygon fill="#bfbfbf" stroke="black" points="0,-38.5 0,-57.5 46,-57.5 46,-38.5 0,-38.5"/>
<text text-anchor="middle" x="23" y="-45.5" font-family="Helvetica,sans-Serif" font-size="10.00">scalfor</text>
</a>
</g>
</g>
<!-- Node2 -->
<g id="node2" class="node">
<title>Node2</title>
<g id="a_node2"><a xlink:href="../../d8/dfd/namespacedbgout.html#a0752528f123b592bc57f687438b75d9b" target="_top" xlink:title=" ">
<polygon fill="white" stroke="black" points="82,-94.5 82,-113.5 211,-113.5 211,-94.5 82,-94.5"/>
<text text-anchor="middle" x="146.5" y="-101.5" font-family="Helvetica,sans-Serif" font-size="10.00">dbgout::open_dbg_context</text>
</a>
</g>
</g>
<!-- Node1&#45;&gt;Node2 -->
<g id="edge1" class="edge">
<title>Node1&#45;&gt;Node2</title>
<path fill="none" stroke="midnightblue" d="M36.77,-57.62C48.14,-65.82 65.49,-77.44 82,-85 86.97,-87.28 92.28,-89.36 97.64,-91.25"/>
<polygon fill="midnightblue" stroke="midnightblue" points="96.67,-94.61 107.26,-94.43 98.86,-87.97 96.67,-94.61"/>
</g>
<!-- Node3 -->
<g id="node3" class="node">
<title>Node3</title>
<g id="a_node3"><a xlink:href="../../d8/dfd/namespacedbgout.html#a0537172e9da0db08b9d29ab8880f0559" target="_top" xlink:title=" ">
<polygon fill="white" stroke="black" points="94,-38.5 94,-57.5 199,-57.5 199,-38.5 94,-38.5"/>
<text text-anchor="middle" x="146.5" y="-45.5" font-family="Helvetica,sans-Serif" font-size="10.00">dbgout::should_write</text>
</a>
</g>
</g>
<!-- Node1&#45;&gt;Node3 -->
<g id="edge2" class="edge">
<title>Node1&#45;&gt;Node3</title>
<path fill="none" stroke="midnightblue" d="M46,-48C56.68,-48 70.11,-48 83.61,-48"/>
<polygon fill="midnightblue" stroke="midnightblue" points="83.9,-51.5 93.9,-48 83.9,-44.5 83.9,-51.5"/>
</g>
<!-- Node4 -->
<g id="node4" class="node">
<title>Node4</title>
<g id="a_node4"><a xlink:href="../../db/d40/tridslv_8f90.html#abf5399c0154abe7424c54d7fa9eb69db" target="_top" xlink:title="Solve a tridiagonal system of equations.">
<polygon fill="white" stroke="black" points="125,-0.5 125,-19.5 168,-19.5 168,-0.5 125,-0.5"/>
<text text-anchor="middle" x="146.5" y="-7.5" font-family="Helvetica,sans-Serif" font-size="10.00">tridslv</text>
</a>
</g>
</g>
<!-- Node1&#45;&gt;Node4 -->
<g id="edge4" class="edge">
<title>Node1&#45;&gt;Node4</title>
<path fill="none" stroke="midnightblue" d="M46.27,-40.56C57.04,-36.99 70.17,-32.71 82,-29 92.82,-25.61 104.71,-22.02 115.26,-18.88"/>
<polygon fill="midnightblue" stroke="midnightblue" points="116.28,-22.22 124.87,-16.03 114.29,-15.51 116.28,-22.22"/>
</g>
<!-- Node3&#45;&gt;Node3 -->
<g id="edge3" class="edge">
<title>Node3&#45;&gt;Node3</title>
<path fill="none" stroke="midnightblue" d="M127.7,-57.76C118.55,-66.57 124.82,-76 146.5,-76 160.39,-76 167.96,-72.13 169.19,-67.03"/>
<polygon fill="midnightblue" stroke="midnightblue" points="172.4,-65.62 165.3,-57.76 165.94,-68.33 172.4,-65.62"/>
</g>
</g>
</svg>
