<?xml version="1.0" encoding="UTF-8" standalone="no"?>
<!DOCTYPE svg PUBLIC "-//W3C//DTD SVG 1.1//EN"
 "http://www.w3.org/Graphics/SVG/1.1/DTD/svg11.dtd">
<!-- Generated by graphviz version 7.1.0 (20230121.1956)
 -->
<!-- Title: scalfor Pages: 1 -->
<svg width="219pt" height="82pt"
 viewBox="0.00 0.00 219.00 82.00" xmlns="http://www.w3.org/2000/svg" xmlns:xlink="http://www.w3.org/1999/xlink">
<g id="graph0" class="graph" transform="scale(1 1) rotate(0) translate(4 78)">
<title>scalfor</title>
<!-- Node1 -->
<g id="node1" class="node">
<title>Node1</title>
<g id="a_node1"><a xlink:title="Build forces from different contributions.">
<polygon fill="#999999" stroke="#666666" points="46,-37 0,-37 0,-18 46,-18 46,-37"/>
<text text-anchor="middle" x="23" y="-25" font-family="Helvetica,sans-Serif" font-size="10.00">scalfor</text>
</a>
</g>
</g>
<!-- Node2 -->
<g id="node2" class="node">
<title>Node2</title>
<g id="a_node2"><a xlink:href="../../d8/dfd/namespacedbgout.html#acdd1612a38e44b6469dc03d9d1c6ceed" target="_top" xlink:title="check if any output is desired for the current iteration check if the given context should be openend...">
<polygon fill="white" stroke="#666666" points="211,-56 82,-56 82,-37 211,-37 211,-56"/>
<text text-anchor="middle" x="146.5" y="-44" font-family="Helvetica,sans-Serif" font-size="10.00">dbgout::open_dbg_context</text>
</a>
</g>
</g>
<!-- Node1&#45;&gt;Node2 -->
<g id="edge1" class="edge">
<title>Node1&#45;&gt;Node2</title>
<path fill="none" stroke="#63b8ff" d="M46.28,-30.98C53.41,-32.1 61.74,-33.4 70.49,-34.77"/>
<polygon fill="#63b8ff" stroke="#63b8ff" points="69.82,-38.21 80.24,-36.29 70.9,-31.29 69.82,-38.21"/>
</g>
<!-- Node3 -->
<g id="node3" class="node">
<title>Node3</title>
<g id="a_node3"><a xlink:href="../../db/d40/tridslv_8f90.html#abf5399c0154abe7424c54d7fa9eb69db" target="_top" xlink:title="Solve a tridiagonal system of equations.">
<polygon fill="white" stroke="#666666" points="168,-19 125,-19 125,0 168,0 168,-19"/>
<text text-anchor="middle" x="146.5" y="-7" font-family="Helvetica,sans-Serif" font-size="10.00">tridslv</text>
</a>
</g>
</g>
<!-- Node1&#45;&gt;Node3 -->
<g id="edge3" class="edge">
<title>Node1&#45;&gt;Node3</title>
<path fill="none" stroke="#63b8ff" d="M46.28,-24.2C65.04,-21.42 92.11,-17.41 113.24,-14.28"/>
<polygon fill="#63b8ff" stroke="#63b8ff" points="113.7,-17.75 123.08,-12.82 112.67,-10.83 113.7,-17.75"/>
</g>
<!-- Node2&#45;&gt;Node2 -->
<g id="edge2" class="edge">
<title>Node2&#45;&gt;Node2</title>
<path fill="none" stroke="#63b8ff" d="M127.17,-56.37C118.35,-64.94 124.79,-74 146.5,-74 158.37,-74 165.68,-71.29 168.42,-67.43"/>
<polygon fill="#63b8ff" stroke="#63b8ff" points="171.86,-66.78 166.18,-57.84 165.05,-68.38 171.86,-66.78"/>
</g>
</g>
</svg>
