<?xml version="1.0" encoding="UTF-8" standalone="no"?>
<!DOCTYPE svg PUBLIC "-//W3C//DTD SVG 1.1//EN"
 "http://www.w3.org/Graphics/SVG/1.1/DTD/svg11.dtd">
<!-- Generated by graphviz version 8.0.1 (20230327.1645)
 -->
<!-- Title: scalfor Pages: 1 -->
<svg width="219pt" height="82pt"
 viewBox="0.00 0.00 219.00 82.00" xmlns="http://www.w3.org/2000/svg" xmlns:xlink="http://www.w3.org/1999/xlink">
<g id="graph0" class="graph" transform="scale(1 1) rotate(0) translate(4 78)">
<title>scalfor</title>
<!-- Node1 -->
<g id="node1" class="node">
<title>Node1</title>
<g id="a_node1"><a xlink:title="Build forces from different contributions.">
<polygon fill="#999999" stroke="#666666" points="46,-37 0,-37 0,-18 46,-18 46,-37"/>
<text text-anchor="middle" x="23" y="-25" font-family="Helvetica,sans-Serif" font-size="10.00">scalfor</text>
</a>
</g>
</g>
<!-- Node2 -->
<g id="node2" class="node">
<title>Node2</title>
<g id="a_node2"><a xlink:href="../../d8/dfd/namespacedbgout.html#acdd1612a38e44b6469dc03d9d1c6ceed" target="_top" xlink:title="check if any output is desired for the current iteration check if the given context should be openend...">
<polygon fill="white" stroke="#666666" points="211,-56 82,-56 82,-37 211,-37 211,-56"/>
<text text-anchor="middle" x="146.5" y="-44" font-family="Helvetica,sans-Serif" font-size="10.00">dbgout::open_dbg_context</text>
</a>
</g>
</g>
<!-- Node1&#45;&gt;Node2 -->
<g id="edge1" class="edge">
<title>Node1&#45;&gt;Node2</title>
<path fill="none" stroke="#63b8ff" d="M46.28,-30.98C53.57,-32.12 62.11,-33.46 71.08,-34.86"/>
<polygon fill="#63b8ff" stroke="#63b8ff" points="70.32,-38.44 80.74,-36.53 71.4,-31.53 70.32,-38.44"/>
</g>
<!-- Node3 -->
<g id="node3" class="node">
<title>Node3</title>
<g id="a_node3"><a xlink:href="../../db/d40/tridslv_8f90.html#abf5399c0154abe7424c54d7fa9eb69db" target="_top" xlink:title="Solve a tridiagonal system of equations.">
<polygon fill="white" stroke="#666666" points="168,-19 125,-19 125,0 168,0 168,-19"/>
<text text-anchor="middle" x="146.5" y="-7" font-family="Helvetica,sans-Serif" font-size="10.00">tridslv</text>
</a>
</g>
</g>
<!-- Node1&#45;&gt;Node3 -->
<g id="edge3" class="edge">
<title>Node1&#45;&gt;Node3</title>
<path fill="none" stroke="#63b8ff" d="M46.28,-24.2C65.22,-21.39 92.61,-17.34 113.82,-14.19"/>
<polygon fill="#63b8ff" stroke="#63b8ff" points="114.2,-17.53 123.57,-12.6 113.17,-10.6 114.2,-17.53"/>
</g>
<!-- Node2&#45;&gt;Node2 -->
<g id="edge2" class="edge">
<title>Node2&#45;&gt;Node2</title>
<path fill="none" stroke="#63b8ff" d="M127.17,-56.37C118.35,-64.94 124.79,-74 146.5,-74 159.05,-74 166.5,-70.97 168.85,-66.76"/>
<polygon fill="#63b8ff" stroke="#63b8ff" points="171.98,-66 165.83,-57.37 165.26,-67.95 171.98,-66"/>
</g>
</g>
</svg>
