<?xml version="1.0" encoding="UTF-8" standalone="no"?>
<!DOCTYPE svg PUBLIC "-//W3C//DTD SVG 1.1//EN"
 "http://www.w3.org/Graphics/SVG/1.1/DTD/svg11.dtd">
<!-- Generated by graphviz version 2.49.3 (20211215.1918)
 -->
<!-- Title: line_segment::line_seg_int Pages: 1 -->
<svg width="232pt" height="114pt"
 viewBox="0.00 0.00 232.00 113.50" xmlns="http://www.w3.org/2000/svg" xmlns:xlink="http://www.w3.org/1999/xlink">
<g id="graph0" class="graph" transform="scale(1 1) rotate(0) translate(4 109.5)">
<title>line_segment::line_seg_int</title>
<polygon fill="white" stroke="transparent" points="-4,4 -4,-109.5 228,-109.5 228,4 -4,4"/>
<!-- Node1 -->
<g id="node1" class="node">
<title>Node1</title>
<g id="a_node1"><a xlink:title=" ">
<polygon fill="#bfbfbf" stroke="black" points="130,-26 130,-56 224,-56 224,-26 130,-26"/>
<text text-anchor="start" x="138" y="-44" font-family="Helvetica,sans-Serif" font-size="10.00">line_segment::line</text>
<text text-anchor="middle" x="177" y="-33" font-family="Helvetica,sans-Serif" font-size="10.00">_seg_int</text>
</a>
</g>
</g>
<!-- Node2 -->
<g id="node2" class="node">
<title>Node2</title>
<g id="a_node2"><a xlink:href="../../d2/dcb/namespaceline__segment.html#ad646e194dc6269ad6d052e6a7689b7c8" target="_top" xlink:title=" ">
<polygon fill="white" stroke="black" points="0,-57 0,-87 94,-87 94,-57 0,-57"/>
<text text-anchor="start" x="8" y="-75" font-family="Helvetica,sans-Serif" font-size="10.00">line_segment::line</text>
<text text-anchor="middle" x="47" y="-64" font-family="Helvetica,sans-Serif" font-size="10.00">_seg_test</text>
</a>
</g>
</g>
<!-- Node1&#45;&gt;Node2 -->
<g id="edge1" class="edge">
<title>Node1&#45;&gt;Node2</title>
<path fill="none" stroke="midnightblue" d="M119.84,-54.6C111.25,-56.68 102.48,-58.81 94.14,-60.82"/>
<polygon fill="midnightblue" stroke="midnightblue" points="120.89,-57.95 129.79,-52.19 119.25,-51.14 120.89,-57.95"/>
</g>
<!-- Node3 -->
<g id="node3" class="node">
<title>Node3</title>
<g id="a_node3"><a xlink:href="../../da/dc8/profile__functions_8f.html#a5bfa30ed89583073252fb965b7cf69e0" target="_top" xlink:title=" ">
<polygon fill="white" stroke="black" points="28,-0.5 28,-19.5 66,-19.5 66,-0.5 28,-0.5"/>
<text text-anchor="middle" x="47" y="-7.5" font-family="Helvetica,sans-Serif" font-size="10.00">pcurr</text>
</a>
</g>
</g>
<!-- Node1&#45;&gt;Node3 -->
<g id="edge3" class="edge">
<title>Node1&#45;&gt;Node3</title>
<path fill="none" stroke="midnightblue" d="M120.07,-27.45C100.65,-22.75 80.23,-17.81 66.1,-14.38"/>
<polygon fill="midnightblue" stroke="midnightblue" points="119.25,-30.86 129.79,-29.81 120.89,-24.05 119.25,-30.86"/>
</g>
<!-- Node2&#45;&gt;Node2 -->
<g id="edge2" class="edge">
<title>Node2&#45;&gt;Node2</title>
<path fill="none" stroke="midnightblue" d="M70.1,-97.46C67.23,-102.18 59.53,-105.5 47,-105.5 26.43,-105.5 18.88,-96.56 24.34,-87.16"/>
<polygon fill="midnightblue" stroke="midnightblue" points="73.58,-97 69.66,-87.16 66.59,-97.3 73.58,-97"/>
</g>
<!-- Node3&#45;&gt;Node3 -->
<g id="edge4" class="edge">
<title>Node3&#45;&gt;Node3</title>
<path fill="none" stroke="midnightblue" d="M71.37,-27.73C71.16,-33.46 63.04,-38 47,-38 23.13,-38 16.79,-27.93 27.98,-18.89"/>
<polygon fill="midnightblue" stroke="midnightblue" points="74.19,-25.63 66.02,-18.89 68.2,-29.26 74.19,-25.63"/>
</g>
</g>
</svg>
