<?xml version="1.0" encoding="UTF-8" standalone="no"?>
<!DOCTYPE svg PUBLIC "-//W3C//DTD SVG 1.1//EN"
 "http://www.w3.org/Graphics/SVG/1.1/DTD/svg11.dtd">
<!-- Generated by graphviz version 2.49.2 (20211018.0330)
 -->
<!-- Title: line_segment::line_seg Pages: 1 -->
<svg width="439pt" height="226pt"
 viewBox="0.00 0.00 439.00 225.50" xmlns="http://www.w3.org/2000/svg" xmlns:xlink="http://www.w3.org/1999/xlink">
<g id="graph0" class="graph" transform="scale(1 1) rotate(0) translate(4 221.5)">
<title>line_segment::line_seg</title>
<polygon fill="white" stroke="transparent" points="-4,4 -4,-221.5 435,-221.5 435,4 -4,4"/>
<!-- Node1 -->
<g id="node1" class="node">
<title>Node1</title>
<g id="a_node1"><a xlink:title=" ">
<polygon fill="#bfbfbf" stroke="black" points="316,-84.5 316,-103.5 431,-103.5 431,-84.5 316,-84.5"/>
<text text-anchor="middle" x="373.5" y="-91.5" font-family="Helvetica,sans-Serif" font-size="10.00">line_segment::line_seg</text>
</a>
</g>
</g>
<!-- Node2 -->
<g id="node2" class="node">
<title>Node2</title>
<g id="a_node2"><a xlink:href="../../d2/dcb/namespaceline__segment.html#ad646e194dc6269ad6d052e6a7689b7c8" target="_top" xlink:title=" ">
<polygon fill="white" stroke="black" points="186,-169 186,-199 280,-199 280,-169 186,-169"/>
<text text-anchor="start" x="194" y="-187" font-family="Helvetica,sans-Serif" font-size="10.00">line_segment::line</text>
<text text-anchor="middle" x="233" y="-176" font-family="Helvetica,sans-Serif" font-size="10.00">_seg_test</text>
</a>
</g>
</g>
<!-- Node1&#45;&gt;Node2 -->
<g id="edge1" class="edge">
<title>Node1&#45;&gt;Node2</title>
<path fill="none" stroke="midnightblue" d="M351.7,-109.65C333.25,-123.28 305.37,-143.26 280,-159 274.59,-162.35 268.7,-165.74 263,-168.9"/>
<polygon fill="midnightblue" stroke="midnightblue" points="354.01,-112.29 359.94,-103.52 349.83,-106.68 354.01,-112.29"/>
</g>
<!-- Node3 -->
<g id="node3" class="node">
<title>Node3</title>
<g id="a_node3"><a xlink:href="../../da/dc8/profile__functions_8f.html#a5bfa30ed89583073252fb965b7cf69e0" target="_top" xlink:title=" ">
<polygon fill="white" stroke="black" points="214,-112.5 214,-131.5 252,-131.5 252,-112.5 214,-112.5"/>
<text text-anchor="middle" x="233" y="-119.5" font-family="Helvetica,sans-Serif" font-size="10.00">pcurr</text>
</a>
</g>
</g>
<!-- Node1&#45;&gt;Node3 -->
<g id="edge3" class="edge">
<title>Node1&#45;&gt;Node3</title>
<path fill="none" stroke="midnightblue" d="M315.34,-105.55C292.76,-110.12 268.4,-115.05 252.28,-118.3"/>
<polygon fill="midnightblue" stroke="midnightblue" points="316.12,-108.97 325.22,-103.56 314.73,-102.11 316.12,-108.97"/>
</g>
<!-- Node4 -->
<g id="node4" class="node">
<title>Node4</title>
<g id="a_node4"><a xlink:href="../../da/dc8/profile__functions_8f.html#a437348e2a0ee2ababaeca2205a78b85c" target="_top" xlink:title=" ">
<polygon fill="white" stroke="black" points="214,-56.5 214,-75.5 252,-75.5 252,-56.5 214,-56.5"/>
<text text-anchor="middle" x="233" y="-63.5" font-family="Helvetica,sans-Serif" font-size="10.00">piota</text>
</a>
</g>
</g>
<!-- Node1&#45;&gt;Node4 -->
<g id="edge5" class="edge">
<title>Node1&#45;&gt;Node4</title>
<path fill="none" stroke="midnightblue" d="M315.34,-82.45C292.76,-77.88 268.4,-72.95 252.28,-69.7"/>
<polygon fill="midnightblue" stroke="midnightblue" points="314.73,-85.89 325.22,-84.44 316.12,-79.03 314.73,-85.89"/>
</g>
<!-- Node7 -->
<g id="node7" class="node">
<title>Node7</title>
<g id="a_node7"><a xlink:href="../../da/dc8/profile__functions_8f.html#aba5b7c2601ef5c209acc084c9a42ff6d" target="_top" xlink:title=" ">
<polygon fill="white" stroke="black" points="210,-0.5 210,-19.5 256,-19.5 256,-0.5 210,-0.5"/>
<text text-anchor="middle" x="233" y="-7.5" font-family="Helvetica,sans-Serif" font-size="10.00">pmass</text>
</a>
</g>
</g>
<!-- Node1&#45;&gt;Node7 -->
<g id="edge11" class="edge">
<title>Node1&#45;&gt;Node7</title>
<path fill="none" stroke="midnightblue" d="M347.7,-78.96C319.29,-61.73 273.59,-34.01 249.7,-19.52"/>
<polygon fill="midnightblue" stroke="midnightblue" points="346.25,-82.17 356.61,-84.36 349.88,-76.19 346.25,-82.17"/>
</g>
<!-- Node2&#45;&gt;Node2 -->
<g id="edge2" class="edge">
<title>Node2&#45;&gt;Node2</title>
<path fill="none" stroke="midnightblue" d="M253.97,-209.46C251.36,-214.18 244.38,-217.5 233,-217.5 214.33,-217.5 207.48,-208.56 212.44,-199.16"/>
<polygon fill="midnightblue" stroke="midnightblue" points="257.45,-209.01 253.56,-199.16 250.46,-209.29 257.45,-209.01"/>
</g>
<!-- Node3&#45;&gt;Node3 -->
<g id="edge4" class="edge">
<title>Node3&#45;&gt;Node3</title>
<path fill="none" stroke="midnightblue" d="M254.95,-141.03C253.75,-146.13 246.44,-150 233,-150 212.03,-150 205.96,-140.57 214.81,-131.76"/>
<polygon fill="midnightblue" stroke="midnightblue" points="258.19,-139.71 251.19,-131.76 251.7,-142.34 258.19,-139.71"/>
</g>
<!-- Node4&#45;&gt;Node4 -->
<g id="edge6" class="edge">
<title>Node4&#45;&gt;Node4</title>
<path fill="none" stroke="midnightblue" d="M254.95,-85.03C253.75,-90.13 246.44,-94 233,-94 212.03,-94 205.96,-84.57 214.81,-75.76"/>
<polygon fill="midnightblue" stroke="midnightblue" points="258.19,-83.71 251.19,-75.76 251.7,-86.34 258.19,-83.71"/>
</g>
<!-- Node5 -->
<g id="node5" class="node">
<title>Node5</title>
<g id="a_node5"><a xlink:href="../../d5/d26/magnetic__fluxes_8f90.html#ad5e5642d688664c85a181c2d1fd6497f" target="_top" xlink:title="Compute the radial derivative of the enclosed poloidal magnetic flux.">
<polygon fill="white" stroke="black" points="80,-56.5 80,-75.5 150,-75.5 150,-56.5 80,-56.5"/>
<text text-anchor="middle" x="115" y="-63.5" font-family="Helvetica,sans-Serif" font-size="10.00">polflux_deriv</text>
</a>
</g>
</g>
<!-- Node4&#45;&gt;Node5 -->
<g id="edge7" class="edge">
<title>Node4&#45;&gt;Node5</title>
<path fill="none" stroke="midnightblue" d="M203.5,-66C187.44,-66 167.26,-66 150.33,-66"/>
<polygon fill="midnightblue" stroke="midnightblue" points="203.88,-69.5 213.88,-66 203.87,-62.5 203.88,-69.5"/>
</g>
<!-- Node5&#45;&gt;Node5 -->
<g id="edge10" class="edge">
<title>Node5&#45;&gt;Node5</title>
<path fill="none" stroke="midnightblue" d="M132.04,-85.4C130.9,-90.31 125.22,-94 115,-94 98.65,-94 93.92,-84.57 100.82,-75.76"/>
<polygon fill="midnightblue" stroke="midnightblue" points="135.38,-84.35 129.18,-75.76 128.66,-86.34 135.38,-84.35"/>
</g>
<!-- Node6 -->
<g id="node6" class="node">
<title>Node6</title>
<g id="a_node6"><a xlink:href="../../d5/d26/magnetic__fluxes_8f90.html#a9d78c3bac80a4d14cc82a93bc79e7dcd" target="_top" xlink:title="Compute the enclosed poloidal magnetic flux.">
<polygon fill="white" stroke="black" points="0,-56.5 0,-75.5 44,-75.5 44,-56.5 0,-56.5"/>
<text text-anchor="middle" x="22" y="-63.5" font-family="Helvetica,sans-Serif" font-size="10.00">polflux</text>
</a>
</g>
</g>
<!-- Node5&#45;&gt;Node6 -->
<g id="edge8" class="edge">
<title>Node5&#45;&gt;Node6</title>
<path fill="none" stroke="midnightblue" d="M69.83,-66C60.86,-66 51.82,-66 44.11,-66"/>
<polygon fill="midnightblue" stroke="midnightblue" points="69.86,-69.5 79.86,-66 69.86,-62.5 69.86,-69.5"/>
</g>
<!-- Node6&#45;&gt;Node6 -->
<g id="edge9" class="edge">
<title>Node6&#45;&gt;Node6</title>
<path fill="none" stroke="midnightblue" d="M39.04,-85.4C37.9,-90.31 32.22,-94 22,-94 5.65,-94 0.92,-84.57 7.82,-75.76"/>
<polygon fill="midnightblue" stroke="midnightblue" points="42.38,-84.35 36.18,-75.76 35.66,-86.34 42.38,-84.35"/>
</g>
<!-- Node7&#45;&gt;Node7 -->
<g id="edge12" class="edge">
<title>Node7&#45;&gt;Node7</title>
<path fill="none" stroke="midnightblue" d="M254.95,-29.03C253.75,-34.13 246.44,-38 233,-38 212.03,-38 205.96,-28.57 214.81,-19.76"/>
<polygon fill="midnightblue" stroke="midnightblue" points="258.19,-27.71 251.19,-19.76 251.7,-30.34 258.19,-27.71"/>
</g>
</g>
</svg>
