<?xml version="1.0" encoding="UTF-8" standalone="no"?>
<!DOCTYPE svg PUBLIC "-//W3C//DTD SVG 1.1//EN"
 "http://www.w3.org/Graphics/SVG/1.1/DTD/svg11.dtd">
<!-- Generated by graphviz version 8.0.1 (20230327.1645)
 -->
<!-- Title: line_segment::line_seg Pages: 1 -->
<svg width="439pt" height="222pt"
 viewBox="0.00 0.00 439.00 221.50" xmlns="http://www.w3.org/2000/svg" xmlns:xlink="http://www.w3.org/1999/xlink">
<g id="graph0" class="graph" transform="scale(1 1) rotate(0) translate(4 217.5)">
<title>line_segment::line_seg</title>
<!-- Node1 -->
<g id="node1" class="node">
<title>Node1</title>
<g id="a_node1"><a xlink:title=" ">
<polygon fill="#999999" stroke="#666666" points="431,-101 316,-101 316,-82 431,-82 431,-101"/>
<text text-anchor="middle" x="373.5" y="-89" font-family="Helvetica,sans-Serif" font-size="10.00">line_segment::line_seg</text>
</a>
</g>
</g>
<!-- Node2 -->
<g id="node2" class="node">
<title>Node2</title>
<g id="a_node2"><a xlink:href="../../d2/dcb/namespaceline__segment.html#ad646e194dc6269ad6d052e6a7689b7c8" target="_top" xlink:title=" ">
<polygon fill="white" stroke="#666666" points="280,-195.5 186,-195.5 186,-165.5 280,-165.5 280,-195.5"/>
<text text-anchor="start" x="194" y="-183.5" font-family="Helvetica,sans-Serif" font-size="10.00">line_segment::line</text>
<text text-anchor="middle" x="233" y="-172.5" font-family="Helvetica,sans-Serif" font-size="10.00">_seg_test</text>
</a>
</g>
</g>
<!-- Node1&#45;&gt;Node2 -->
<g id="edge1" class="edge">
<title>Node1&#45;&gt;Node2</title>
<path fill="none" stroke="#63b8ff" d="M350.95,-107.87C332.54,-121.54 305.13,-141.21 280,-156.5 275.23,-159.4 270.07,-162.31 264.99,-165.04"/>
<polygon fill="#63b8ff" stroke="#63b8ff" points="352.79,-110.11 358.69,-101.31 348.59,-104.51 352.79,-110.11"/>
</g>
<!-- Node3 -->
<g id="node3" class="node">
<title>Node3</title>
<g id="a_node3"><a xlink:href="../../da/dc8/profile__functions_8f.html#a5bfa30ed89583073252fb965b7cf69e0" target="_top" xlink:title=" ">
<polygon fill="white" stroke="#666666" points="252,-129 214,-129 214,-110 252,-110 252,-129"/>
<text text-anchor="middle" x="233" y="-117" font-family="Helvetica,sans-Serif" font-size="10.00">pcurr</text>
</a>
</g>
</g>
<!-- Node1&#45;&gt;Node3 -->
<g id="edge3" class="edge">
<title>Node1&#45;&gt;Node3</title>
<path fill="none" stroke="#63b8ff" d="M312.74,-103.58C290.97,-107.98 267.93,-112.64 252.43,-115.77"/>
<polygon fill="#63b8ff" stroke="#63b8ff" points="313.17,-106.86 322.28,-101.45 311.78,-100 313.17,-106.86"/>
</g>
<!-- Node4 -->
<g id="node4" class="node">
<title>Node4</title>
<g id="a_node4"><a xlink:href="../../da/dc8/profile__functions_8f.html#a437348e2a0ee2ababaeca2205a78b85c" target="_top" xlink:title=" ">
<polygon fill="white" stroke="#666666" points="252,-74 214,-74 214,-55 252,-55 252,-74"/>
<text text-anchor="middle" x="233" y="-62" font-family="Helvetica,sans-Serif" font-size="10.00">piota</text>
</a>
</g>
</g>
<!-- Node1&#45;&gt;Node4 -->
<g id="edge5" class="edge">
<title>Node1&#45;&gt;Node4</title>
<path fill="none" stroke="#63b8ff" d="M310.67,-79.45C289.42,-75.3 267.23,-70.98 252.22,-68.05"/>
<polygon fill="#63b8ff" stroke="#63b8ff" points="309.84,-83.04 320.32,-81.52 311.18,-76.17 309.84,-83.04"/>
</g>
<!-- Node7 -->
<g id="node7" class="node">
<title>Node7</title>
<g id="a_node7"><a xlink:href="../../da/dc8/profile__functions_8f.html#aba5b7c2601ef5c209acc084c9a42ff6d" target="_top" xlink:title=" ">
<polygon fill="white" stroke="#666666" points="256,-19 210,-19 210,0 256,0 256,-19"/>
<text text-anchor="middle" x="233" y="-7" font-family="Helvetica,sans-Serif" font-size="10.00">pmass</text>
</a>
</g>
</g>
<!-- Node1&#45;&gt;Node7 -->
<g id="edge11" class="edge">
<title>Node1&#45;&gt;Node7</title>
<path fill="none" stroke="#63b8ff" d="M346.59,-76.16C318.54,-59.55 274.61,-33.54 250.77,-19.43"/>
<polygon fill="#63b8ff" stroke="#63b8ff" points="344.41,-79.53 354.79,-81.61 347.97,-73.5 344.41,-79.53"/>
</g>
<!-- Node2&#45;&gt;Node2 -->
<g id="edge2" class="edge">
<title>Node2&#45;&gt;Node2</title>
<path fill="none" stroke="#63b8ff" d="M253.42,-206.44C250.47,-210.63 243.66,-213.5 233,-213.5 214.56,-213.5 207.65,-204.91 212.26,-195.78"/>
<polygon fill="#63b8ff" stroke="#63b8ff" points="256.94,-206.88 253.74,-196.78 249.94,-206.67 256.94,-206.88"/>
</g>
<!-- Node3&#45;&gt;Node3 -->
<g id="edge4" class="edge">
<title>Node3&#45;&gt;Node3</title>
<path fill="none" stroke="#63b8ff" d="M254.35,-139.76C252.11,-143.97 244.99,-147 233,-147 212.26,-147 206.1,-137.94 214.53,-129.37"/>
<polygon fill="#63b8ff" stroke="#63b8ff" points="257.52,-139.07 251.47,-130.37 250.77,-140.94 257.52,-139.07"/>
</g>
<!-- Node4&#45;&gt;Node4 -->
<g id="edge6" class="edge">
<title>Node4&#45;&gt;Node4</title>
<path fill="none" stroke="#63b8ff" d="M254.35,-84.76C252.11,-88.97 244.99,-92 233,-92 212.26,-92 206.1,-82.94 214.53,-74.37"/>
<polygon fill="#63b8ff" stroke="#63b8ff" points="257.52,-84.07 251.47,-75.37 250.77,-85.94 257.52,-84.07"/>
</g>
<!-- Node5 -->
<g id="node5" class="node">
<title>Node5</title>
<g id="a_node5"><a xlink:href="../../d5/d26/magnetic__fluxes_8f90.html#ad5e5642d688664c85a181c2d1fd6497f" target="_top" xlink:title="Compute the radial derivative of the enclosed poloidal magnetic flux.">
<polygon fill="white" stroke="#666666" points="150,-74 80,-74 80,-55 150,-55 150,-74"/>
<text text-anchor="middle" x="115" y="-62" font-family="Helvetica,sans-Serif" font-size="10.00">polflux_deriv</text>
</a>
</g>
</g>
<!-- Node4&#45;&gt;Node5 -->
<g id="edge7" class="edge">
<title>Node4&#45;&gt;Node5</title>
<path fill="none" stroke="#63b8ff" d="M202.77,-64.5C186.78,-64.5 166.89,-64.5 150.18,-64.5"/>
<polygon fill="#63b8ff" stroke="#63b8ff" points="202.62,-68 212.62,-64.5 202.62,-61 202.62,-68"/>
</g>
<!-- Node5&#45;&gt;Node5 -->
<g id="edge10" class="edge">
<title>Node5&#45;&gt;Node5</title>
<path fill="none" stroke="#63b8ff" d="M131.68,-85.1C129.75,-89.13 124.2,-92 115,-92 98.65,-92 93.8,-82.94 100.44,-74.37"/>
<polygon fill="#63b8ff" stroke="#63b8ff" points="134.93,-84.5 129.56,-75.37 128.06,-85.86 134.93,-84.5"/>
</g>
<!-- Node6 -->
<g id="node6" class="node">
<title>Node6</title>
<g id="a_node6"><a xlink:href="../../d5/d26/magnetic__fluxes_8f90.html#a9d78c3bac80a4d14cc82a93bc79e7dcd" target="_top" xlink:title="Compute the enclosed poloidal magnetic flux.">
<polygon fill="white" stroke="#666666" points="44,-74 0,-74 0,-55 44,-55 44,-74"/>
<text text-anchor="middle" x="22" y="-62" font-family="Helvetica,sans-Serif" font-size="10.00">polflux</text>
</a>
</g>
</g>
<!-- Node5&#45;&gt;Node6 -->
<g id="edge8" class="edge">
<title>Node5&#45;&gt;Node6</title>
<path fill="none" stroke="#63b8ff" d="M68.83,-64.5C60.24,-64.5 51.64,-64.5 44.25,-64.5"/>
<polygon fill="#63b8ff" stroke="#63b8ff" points="68.6,-68 78.6,-64.5 68.6,-61 68.6,-68"/>
</g>
<!-- Node6&#45;&gt;Node6 -->
<g id="edge9" class="edge">
<title>Node6&#45;&gt;Node6</title>
<path fill="none" stroke="#63b8ff" d="M38.68,-85.1C36.75,-89.13 31.2,-92 22,-92 5.65,-92 0.8,-82.94 7.44,-74.37"/>
<polygon fill="#63b8ff" stroke="#63b8ff" points="41.93,-84.5 36.56,-75.37 35.06,-85.86 41.93,-84.5"/>
</g>
<!-- Node7&#45;&gt;Node7 -->
<g id="edge12" class="edge">
<title>Node7&#45;&gt;Node7</title>
<path fill="none" stroke="#63b8ff" d="M254.35,-29.76C252.11,-33.97 244.99,-37 233,-37 212.26,-37 206.1,-27.94 214.53,-19.37"/>
<polygon fill="#63b8ff" stroke="#63b8ff" points="257.52,-29.07 251.47,-20.37 250.77,-30.94 257.52,-29.07"/>
</g>
</g>
</svg>
