<?xml version="1.0" encoding="UTF-8" standalone="no"?>
<!DOCTYPE svg PUBLIC "-//W3C//DTD SVG 1.1//EN"
 "http://www.w3.org/Graphics/SVG/1.1/DTD/svg11.dtd">
<!-- Generated by graphviz version 7.1.0 (20230121.1956)
 -->
<!-- Title: line_segment::line_seg Pages: 1 -->
<svg width="439pt" height="222pt"
 viewBox="0.00 0.00 439.00 221.50" xmlns="http://www.w3.org/2000/svg" xmlns:xlink="http://www.w3.org/1999/xlink">
<g id="graph0" class="graph" transform="scale(1 1) rotate(0) translate(4 217.5)">
<title>line_segment::line_seg</title>
<!-- Node1 -->
<g id="node1" class="node">
<title>Node1</title>
<g id="a_node1"><a xlink:title=" ">
<polygon fill="#999999" stroke="#666666" points="431,-101 316,-101 316,-82 431,-82 431,-101"/>
<text text-anchor="middle" x="373.5" y="-89" font-family="Helvetica,sans-Serif" font-size="10.00">line_segment::line_seg</text>
</a>
</g>
</g>
<!-- Node2 -->
<g id="node2" class="node">
<title>Node2</title>
<g id="a_node2"><a xlink:href="../../d2/dcb/namespaceline__segment.html#ad646e194dc6269ad6d052e6a7689b7c8" target="_top" xlink:title=" ">
<polygon fill="white" stroke="#666666" points="280,-195.5 186,-195.5 186,-165.5 280,-165.5 280,-195.5"/>
<text text-anchor="start" x="194" y="-183.5" font-family="Helvetica,sans-Serif" font-size="10.00">line_segment::line</text>
<text text-anchor="middle" x="233" y="-172.5" font-family="Helvetica,sans-Serif" font-size="10.00">_seg_test</text>
</a>
</g>
</g>
<!-- Node1&#45;&gt;Node2 -->
<g id="edge1" class="edge">
<title>Node1&#45;&gt;Node2</title>
<path fill="none" stroke="#63b8ff" d="M350.69,-108.05C332.29,-121.72 305.01,-141.28 280,-156.5 275.23,-159.4 270.07,-162.31 264.99,-165.04"/>
<polygon fill="#63b8ff" stroke="#63b8ff" points="352.57,-111.02 358.48,-102.22 348.38,-105.41 352.57,-111.02"/>
</g>
<!-- Node3 -->
<g id="node3" class="node">
<title>Node3</title>
<g id="a_node3"><a xlink:href="../../da/dc8/profile__functions_8f.html#a5bfa30ed89583073252fb965b7cf69e0" target="_top" xlink:title=" ">
<polygon fill="white" stroke="#666666" points="252,-129 214,-129 214,-110 252,-110 252,-129"/>
<text text-anchor="middle" x="233" y="-117" font-family="Helvetica,sans-Serif" font-size="10.00">pcurr</text>
</a>
</g>
</g>
<!-- Node1&#45;&gt;Node3 -->
<g id="edge3" class="edge">
<title>Node1&#45;&gt;Node3</title>
<path fill="none" stroke="#63b8ff" d="M312.14,-103.7C290.55,-108.07 267.78,-112.67 252.43,-115.77"/>
<polygon fill="#63b8ff" stroke="#63b8ff" points="312.69,-107.16 321.8,-101.75 311.3,-100.3 312.69,-107.16"/>
</g>
<!-- Node4 -->
<g id="node4" class="node">
<title>Node4</title>
<g id="a_node4"><a xlink:href="../../da/dc8/profile__functions_8f.html#a437348e2a0ee2ababaeca2205a78b85c" target="_top" xlink:title=" ">
<polygon fill="white" stroke="#666666" points="252,-74 214,-74 214,-55 252,-55 252,-74"/>
<text text-anchor="middle" x="233" y="-62" font-family="Helvetica,sans-Serif" font-size="10.00">piota</text>
</a>
</g>
</g>
<!-- Node1&#45;&gt;Node4 -->
<g id="edge5" class="edge">
<title>Node1&#45;&gt;Node4</title>
<path fill="none" stroke="#63b8ff" d="M310.09,-79.33C289.02,-75.23 267.09,-70.95 252.22,-68.05"/>
<polygon fill="#63b8ff" stroke="#63b8ff" points="309.35,-82.76 319.84,-81.23 310.69,-75.88 309.35,-82.76"/>
</g>
<!-- Node7 -->
<g id="node7" class="node">
<title>Node7</title>
<g id="a_node7"><a xlink:href="../../da/dc8/profile__functions_8f.html#aba5b7c2601ef5c209acc084c9a42ff6d" target="_top" xlink:title=" ">
<polygon fill="white" stroke="#666666" points="256,-19 210,-19 210,0 256,0 256,-19"/>
<text text-anchor="middle" x="233" y="-7" font-family="Helvetica,sans-Serif" font-size="10.00">pmass</text>
</a>
</g>
</g>
<!-- Node1&#45;&gt;Node7 -->
<g id="edge11" class="edge">
<title>Node1&#45;&gt;Node7</title>
<path fill="none" stroke="#63b8ff" d="M346.22,-75.94C318.15,-59.32 274.51,-33.48 250.77,-19.43"/>
<polygon fill="#63b8ff" stroke="#63b8ff" points="344.1,-78.75 354.49,-80.84 347.67,-72.73 344.1,-78.75"/>
</g>
<!-- Node2&#45;&gt;Node2 -->
<g id="edge2" class="edge">
<title>Node2&#45;&gt;Node2</title>
<path fill="none" stroke="#63b8ff" d="M252.91,-207.11C249.72,-210.93 243.08,-213.5 233,-213.5 214.56,-213.5 207.65,-204.91 212.26,-195.78"/>
<polygon fill="#63b8ff" stroke="#63b8ff" points="256.39,-207.51 253.63,-197.28 249.41,-207 256.39,-207.51"/>
</g>
<!-- Node3&#45;&gt;Node3 -->
<g id="edge4" class="edge">
<title>Node3&#45;&gt;Node3</title>
<path fill="none" stroke="#63b8ff" d="M253.94,-140.43C251.32,-144.29 244.34,-147 233,-147 212.26,-147 206.1,-137.94 214.53,-129.37"/>
<polygon fill="#63b8ff" stroke="#63b8ff" points="257.4,-139.84 251.8,-130.85 250.57,-141.37 257.4,-139.84"/>
</g>
<!-- Node4&#45;&gt;Node4 -->
<g id="edge6" class="edge">
<title>Node4&#45;&gt;Node4</title>
<path fill="none" stroke="#63b8ff" d="M253.94,-85.43C251.32,-89.29 244.34,-92 233,-92 212.26,-92 206.1,-82.94 214.53,-74.37"/>
<polygon fill="#63b8ff" stroke="#63b8ff" points="257.4,-84.84 251.8,-75.85 250.57,-86.37 257.4,-84.84"/>
</g>
<!-- Node5 -->
<g id="node5" class="node">
<title>Node5</title>
<g id="a_node5"><a xlink:href="../../d5/d26/magnetic__fluxes_8f90.html#ad5e5642d688664c85a181c2d1fd6497f" target="_top" xlink:title="Compute the radial derivative of the enclosed poloidal magnetic flux.">
<polygon fill="white" stroke="#666666" points="150,-74 80,-74 80,-55 150,-55 150,-74"/>
<text text-anchor="middle" x="115" y="-62" font-family="Helvetica,sans-Serif" font-size="10.00">polflux_deriv</text>
</a>
</g>
</g>
<!-- Node4&#45;&gt;Node5 -->
<g id="edge7" class="edge">
<title>Node4&#45;&gt;Node5</title>
<path fill="none" stroke="#63b8ff" d="M202.3,-64.5C186.39,-64.5 166.72,-64.5 150.18,-64.5"/>
<polygon fill="#63b8ff" stroke="#63b8ff" points="202.11,-68 212.11,-64.5 202.11,-61 202.11,-68"/>
</g>
<!-- Node5&#45;&gt;Node5 -->
<g id="edge10" class="edge">
<title>Node5&#45;&gt;Node5</title>
<path fill="none" stroke="#63b8ff" d="M131.51,-85.43C129.44,-89.29 123.94,-92 115,-92 98.65,-92 93.8,-82.94 100.44,-74.37"/>
<polygon fill="#63b8ff" stroke="#63b8ff" points="135,-85.1 129.82,-75.86 128.11,-86.31 135,-85.1"/>
</g>
<!-- Node6 -->
<g id="node6" class="node">
<title>Node6</title>
<g id="a_node6"><a xlink:href="../../d5/d26/magnetic__fluxes_8f90.html#a9d78c3bac80a4d14cc82a93bc79e7dcd" target="_top" xlink:title="Compute the enclosed poloidal magnetic flux.">
<polygon fill="white" stroke="#666666" points="44,-74 0,-74 0,-55 44,-55 44,-74"/>
<text text-anchor="middle" x="22" y="-62" font-family="Helvetica,sans-Serif" font-size="10.00">polflux</text>
</a>
</g>
</g>
<!-- Node5&#45;&gt;Node6 -->
<g id="edge8" class="edge">
<title>Node5&#45;&gt;Node6</title>
<path fill="none" stroke="#63b8ff" d="M68.25,-64.5C59.86,-64.5 51.48,-64.5 44.25,-64.5"/>
<polygon fill="#63b8ff" stroke="#63b8ff" points="68.08,-68 78.08,-64.5 68.08,-61 68.08,-68"/>
</g>
<!-- Node6&#45;&gt;Node6 -->
<g id="edge9" class="edge">
<title>Node6&#45;&gt;Node6</title>
<path fill="none" stroke="#63b8ff" d="M38.51,-85.43C36.44,-89.29 30.94,-92 22,-92 5.65,-92 0.8,-82.94 7.44,-74.37"/>
<polygon fill="#63b8ff" stroke="#63b8ff" points="42,-85.1 36.82,-75.86 35.11,-86.31 42,-85.1"/>
</g>
<!-- Node7&#45;&gt;Node7 -->
<g id="edge12" class="edge">
<title>Node7&#45;&gt;Node7</title>
<path fill="none" stroke="#63b8ff" d="M253.94,-30.43C251.32,-34.29 244.34,-37 233,-37 212.26,-37 206.1,-27.94 214.53,-19.37"/>
<polygon fill="#63b8ff" stroke="#63b8ff" points="257.4,-29.84 251.8,-20.85 250.57,-31.37 257.4,-29.84"/>
</g>
</g>
</svg>
