<?xml version="1.0" encoding="UTF-8" standalone="no"?>
<!DOCTYPE svg PUBLIC "-//W3C//DTD SVG 1.1//EN"
 "http://www.w3.org/Graphics/SVG/1.1/DTD/svg11.dtd">
<!-- Generated by graphviz version 2.49.3 (20211027.1501)
 -->
<!-- Title: line_segment::line_seg_test Pages: 1 -->
<svg width="253pt" height="79pt"
 viewBox="0.00 0.00 253.00 79.00" xmlns="http://www.w3.org/2000/svg" xmlns:xlink="http://www.w3.org/1999/xlink">
<g id="graph0" class="graph" transform="scale(1 1) rotate(0) translate(4 75)">
<title>line_segment::line_seg_test</title>
<polygon fill="white" stroke="transparent" points="-4,4 -4,-75 249,-75 249,4 -4,4"/>
<!-- Node1 -->
<g id="node1" class="node">
<title>Node1</title>
<g id="a_node1"><a xlink:title=" ">
<polygon fill="#bfbfbf" stroke="black" points="0,-22.5 0,-52.5 94,-52.5 94,-22.5 0,-22.5"/>
<text text-anchor="start" x="8" y="-40.5" font-family="Helvetica,sans-Serif" font-size="10.00">line_segment::line</text>
<text text-anchor="middle" x="47" y="-29.5" font-family="Helvetica,sans-Serif" font-size="10.00">_seg_test</text>
</a>
</g>
</g>
<!-- Node1&#45;&gt;Node1 -->
<g id="edge3" class="edge">
<title>Node1&#45;&gt;Node1</title>
<path fill="none" stroke="midnightblue" d="M22.6,-52.66C16.72,-62.06 24.85,-71 47,-71 60.5,-71 68.79,-67.68 71.88,-62.96"/>
<polygon fill="midnightblue" stroke="midnightblue" points="75.36,-62.49 71.4,-52.66 68.37,-62.81 75.36,-62.49"/>
</g>
<!-- Node2 -->
<g id="node2" class="node">
<title>Node2</title>
<g id="a_node2"><a xlink:href="../../d2/dcb/namespaceline__segment.html#aa63bfde0ff39e19622f7f5fe150e8b59" target="_top" xlink:title=" ">
<polygon fill="white" stroke="black" points="130,-50 130,-69 245,-69 245,-50 130,-50"/>
<text text-anchor="middle" x="187.5" y="-57" font-family="Helvetica,sans-Serif" font-size="10.00">line_segment::line_seg</text>
</a>
</g>
</g>
<!-- Node1&#45;&gt;Node2 -->
<g id="edge1" class="edge">
<title>Node1&#45;&gt;Node2</title>
<path fill="none" stroke="midnightblue" d="M94.12,-44.83C102.38,-46.14 111.13,-47.53 119.83,-48.91"/>
<polygon fill="midnightblue" stroke="midnightblue" points="119.56,-52.41 129.98,-50.52 120.66,-45.5 119.56,-52.41"/>
</g>
<!-- Node3 -->
<g id="node3" class="node">
<title>Node3</title>
<g id="a_node3"><a xlink:href="../../d2/dcb/namespaceline__segment.html#a5686dda904eede25b04410ebada585d3" target="_top" xlink:title=" ">
<polygon fill="white" stroke="black" points="140.5,-0.5 140.5,-30.5 234.5,-30.5 234.5,-0.5 140.5,-0.5"/>
<text text-anchor="start" x="148.5" y="-18.5" font-family="Helvetica,sans-Serif" font-size="10.00">line_segment::line</text>
<text text-anchor="middle" x="187.5" y="-7.5" font-family="Helvetica,sans-Serif" font-size="10.00">_seg_int</text>
</a>
</g>
</g>
<!-- Node1&#45;&gt;Node3 -->
<g id="edge2" class="edge">
<title>Node1&#45;&gt;Node3</title>
<path fill="none" stroke="midnightblue" d="M94.12,-30.17C105.68,-28.34 118.21,-26.35 130.2,-24.44"/>
<polygon fill="midnightblue" stroke="midnightblue" points="130.78,-27.89 140.11,-22.87 129.69,-20.98 130.78,-27.89"/>
</g>
</g>
</svg>
