<?xml version="1.0" encoding="UTF-8" standalone="no"?>
<!DOCTYPE svg PUBLIC "-//W3C//DTD SVG 1.1//EN"
 "http://www.w3.org/Graphics/SVG/1.1/DTD/svg11.dtd">
<!-- Generated by graphviz version 8.0.5 (20230430.1635)
 -->
<!-- Title: line_segment::line_seg Pages: 1 -->
<svg width="436pt" height="222pt"
 viewBox="0.00 0.00 435.75 221.88" xmlns="http://www.w3.org/2000/svg" xmlns:xlink="http://www.w3.org/1999/xlink">

<svg id="main" version="1.1" xmlns="http://www.w3.org/2000/svg" xmlns:xlink="http://www.w3.org/1999/xlink" xml:space="preserve" onload="init(evt)">
<style type="text/css"><![CDATA[
.node, .edge {opacity: 0.7;}
.node.selected, .edge.selected {opacity: 1;}
.edge:hover path { stroke: red; }
.edge:hover polygon { stroke: red; fill: red; }
]]></style>
<script type="application/ecmascript" xlink:href="../../svg.min.js"/>
<svg id="graph" class="graph">
<g id="graph0" class="graph" transform="scale(1 1) rotate(0) translate(4 217.88)">
<title>line_segment::line_seg</title>
<!-- Node1 -->
<g id="Node000001" class="node">
<title>Node1</title>
<g id="a_Node000001"><a xlink:title=" ">
<polygon fill="#999999" stroke="#666666" points="427.75,-101.25 313.5,-101.25 313.5,-82 427.75,-82 427.75,-101.25"/>
<text text-anchor="middle" x="370.62" y="-87.75" font-family="Helvetica,sans-Serif" font-size="10.00">line_segment::line_seg</text>
</a>
</g>
</g>
<!-- Node2 -->
<g id="Node000002" class="node">
<title>Node2</title>
<g id="a_Node000002"><a xlink:href="../../d2/dcb/namespaceline__segment.html#ad646e194dc6269ad6d052e6a7689b7c8" target="_top" xlink:title=" ">
<polygon fill="white" stroke="#666666" points="277.5,-195.88 184.25,-195.88 184.25,-165.38 277.5,-165.38 277.5,-195.88"/>
<text text-anchor="start" x="192.25" y="-182.38" font-family="Helvetica,sans-Serif" font-size="10.00">line_segment::line</text>
<text text-anchor="middle" x="230.88" y="-171.12" font-family="Helvetica,sans-Serif" font-size="10.00">_seg_test</text>
</a>
</g>
</g>
<!-- Node1&#45;&gt;Node2 -->
<g id="edge1_Node000001_Node000002" class="edge">
<title>Node1&#45;&gt;Node2</title>
<g id="a_edge1_Node000001_Node000002"><a xlink:title=" ">
<path fill="none" stroke="#63b8ff" d="M347.84,-108.21C329.51,-121.87 302.38,-141.39 277.5,-156.62 272.92,-159.43 267.98,-162.24 263.1,-164.89"/>
<polygon fill="#63b8ff" stroke="#63b8ff" points="349.67,-110.46 355.57,-101.66 345.47,-104.86 349.67,-110.46"/>
</a>
</g>
</g>
<!-- Node3 -->
<g id="Node000003" class="node">
<title>Node3</title>
<g id="a_Node000003"><a xlink:href="../../da/dc8/profile__functions_8f.html#a5bfa30ed89583073252fb965b7cf69e0" target="_top" xlink:title=" ">
<polygon fill="white" stroke="#666666" points="249.75,-129.25 212,-129.25 212,-110 249.75,-110 249.75,-129.25"/>
<text text-anchor="middle" x="230.88" y="-115.75" font-family="Helvetica,sans-Serif" font-size="10.00">pcurr</text>
</a>
</g>
</g>
<!-- Node1&#45;&gt;Node3 -->
<g id="edge3_Node000001_Node000003" class="edge">
<title>Node1&#45;&gt;Node3</title>
<g id="a_edge3_Node000001_Node000003"><a xlink:title=" ">
<path fill="none" stroke="#63b8ff" d="M309.16,-103.92C287.71,-108.28 265.16,-112.86 249.99,-115.94"/>
<polygon fill="#63b8ff" stroke="#63b8ff" points="309.79,-107.16 318.89,-101.73 308.4,-100.3 309.79,-107.16"/>
</a>
</g>
</g>
<!-- Node4 -->
<g id="Node000004" class="node">
<title>Node4</title>
<g id="a_Node000004"><a xlink:href="../../da/dc8/profile__functions_8f.html#a437348e2a0ee2ababaeca2205a78b85c" target="_top" xlink:title=" ">
<polygon fill="white" stroke="#666666" points="249.38,-74.25 212.38,-74.25 212.38,-55 249.38,-55 249.38,-74.25"/>
<text text-anchor="middle" x="230.88" y="-60.75" font-family="Helvetica,sans-Serif" font-size="10.00">piota</text>
</a>
</g>
</g>
<!-- Node1&#45;&gt;Node4 -->
<g id="edge5_Node000001_Node000004" class="edge">
<title>Node1&#45;&gt;Node4</title>
<g id="a_edge5_Node000001_Node000004"><a xlink:title=" ">
<path fill="none" stroke="#63b8ff" d="M307.7,-79.49C286.49,-75.33 264.39,-71 249.56,-68.09"/>
<polygon fill="#63b8ff" stroke="#63b8ff" points="306.85,-83.08 317.33,-81.57 308.19,-76.21 306.85,-83.08"/>
</a>
</g>
</g>
<!-- Node7 -->
<g id="Node000007" class="node">
<title>Node7</title>
<g id="a_Node000007"><a xlink:href="../../da/dc8/profile__functions_8f.html#aba5b7c2601ef5c209acc084c9a42ff6d" target="_top" xlink:title=" ">
<polygon fill="white" stroke="#666666" points="253.5,-19.25 208.25,-19.25 208.25,0 253.5,0 253.5,-19.25"/>
<text text-anchor="middle" x="230.88" y="-5.75" font-family="Helvetica,sans-Serif" font-size="10.00">pmass</text>
</a>
</g>
</g>
<!-- Node1&#45;&gt;Node7 -->
<g id="edge11_Node000001_Node000007" class="edge">
<title>Node1&#45;&gt;Node7</title>
<g id="a_edge11_Node000001_Node000007"><a xlink:title=" ">
<path fill="none" stroke="#63b8ff" d="M343.56,-76.11C315.61,-59.47 272.09,-33.56 248.47,-19.51"/>
<polygon fill="#63b8ff" stroke="#63b8ff" points="341.35,-79.46 351.73,-81.57 344.93,-73.45 341.35,-79.46"/>
</a>
</g>
</g>
<!-- Node2&#45;&gt;Node2 -->
<g id="edge2_Node000002_Node000002" class="edge">
<title>Node2&#45;&gt;Node2</title>
<g id="a_edge2_Node000002_Node000002"><a xlink:title=" ">
<path fill="none" stroke="#63b8ff" d="M250.81,-207.25C247.69,-211.2 241.05,-213.88 230.88,-213.88 212.78,-213.88 205.86,-205.43 210.1,-196.36"/>
<polygon fill="#63b8ff" stroke="#63b8ff" points="254.37,-207.6 251.65,-197.36 247.39,-207.06 254.37,-207.6"/>
</a>
</g>
</g>
<!-- Node3&#45;&gt;Node3 -->
<g id="edge4_Node000003_Node000003" class="edge">
<title>Node3&#45;&gt;Node3</title>
<g id="a_edge4_Node000003_Node000003"><a xlink:title=" ">
<path fill="none" stroke="#63b8ff" d="M252.09,-139.98C249.86,-144.21 242.79,-147.25 230.88,-147.25 210.26,-147.25 204.15,-138.15 212.52,-129.54"/>
<polygon fill="#63b8ff" stroke="#63b8ff" points="255.25,-139.26 249.23,-130.54 248.5,-141.11 255.25,-139.26"/>
</a>
</g>
</g>
<!-- Node4&#45;&gt;Node4 -->
<g id="edge6_Node000004_Node000004" class="edge">
<title>Node4&#45;&gt;Node4</title>
<g id="a_edge6_Node000004_Node000004"><a xlink:title=" ">
<path fill="none" stroke="#63b8ff" d="M252.09,-84.98C249.86,-89.21 242.79,-92.25 230.88,-92.25 210.26,-92.25 204.15,-83.15 212.52,-74.54"/>
<polygon fill="#63b8ff" stroke="#63b8ff" points="255.25,-84.26 249.23,-75.54 248.5,-86.11 255.25,-84.26"/>
</a>
</g>
</g>
<!-- Node5 -->
<g id="Node000005" class="node">
<title>Node5</title>
<g id="a_Node000005"><a xlink:href="../../d5/d26/magnetic__fluxes_8f90.html#ad5e5642d688664c85a181c2d1fd6497f" target="_top" xlink:title="Compute the radial derivative of the enclosed poloidal magnetic flux.">
<polygon fill="white" stroke="#666666" points="148.25,-74.25 79,-74.25 79,-55 148.25,-55 148.25,-74.25"/>
<text text-anchor="middle" x="113.62" y="-60.75" font-family="Helvetica,sans-Serif" font-size="10.00">polflux_deriv</text>
</a>
</g>
</g>
<!-- Node4&#45;&gt;Node5 -->
<g id="edge7_Node000004_Node000005" class="edge">
<title>Node4&#45;&gt;Node5</title>
<g id="a_edge7_Node000004_Node000005"><a xlink:title=" ">
<path fill="none" stroke="#63b8ff" d="M201.55,-64.62C185.54,-64.62 165.42,-64.62 148.57,-64.62"/>
<polygon fill="#63b8ff" stroke="#63b8ff" points="201.37,-68.13 211.37,-64.62 201.37,-61.13 201.37,-68.13"/>
</a>
</g>
</g>
<!-- Node5&#45;&gt;Node5 -->
<g id="edge10_Node000005_Node000005" class="edge">
<title>Node5&#45;&gt;Node5</title>
<g id="a_edge10_Node000005_Node000005"><a xlink:title=" ">
<path fill="none" stroke="#63b8ff" d="M130.14,-85.32C128.24,-89.37 122.73,-92.25 113.62,-92.25 97.43,-92.25 92.62,-83.15 99.2,-74.54"/>
<polygon fill="#63b8ff" stroke="#63b8ff" points="133.39,-84.69 128.05,-75.54 126.52,-86.02 133.39,-84.69"/>
</a>
</g>
</g>
<!-- Node6 -->
<g id="Node000006" class="node">
<title>Node6</title>
<g id="a_Node000006"><a xlink:href="../../d5/d26/magnetic__fluxes_8f90.html#a9d78c3bac80a4d14cc82a93bc79e7dcd" target="_top" xlink:title="Compute the enclosed poloidal magnetic flux.">
<polygon fill="white" stroke="#666666" points="43,-74.25 0,-74.25 0,-55 43,-55 43,-74.25"/>
<text text-anchor="middle" x="21.5" y="-60.75" font-family="Helvetica,sans-Serif" font-size="10.00">polflux</text>
</a>
</g>
</g>
<!-- Node5&#45;&gt;Node6 -->
<g id="edge8_Node000005_Node000006" class="edge">
<title>Node5&#45;&gt;Node6</title>
<g id="a_edge8_Node000005_Node000006"><a xlink:title=" ">
<path fill="none" stroke="#63b8ff" d="M67.79,-64.62C59.22,-64.62 50.64,-64.62 43.28,-64.62"/>
<polygon fill="#63b8ff" stroke="#63b8ff" points="67.55,-68.13 77.55,-64.62 67.55,-61.13 67.55,-68.13"/>
</a>
</g>
</g>
<!-- Node6&#45;&gt;Node6 -->
<g id="edge9_Node000006_Node000006" class="edge">
<title>Node6&#45;&gt;Node6</title>
<g id="a_edge9_Node000006_Node000006"><a xlink:title=" ">
<path fill="none" stroke="#63b8ff" d="M38.02,-85.32C36.12,-89.37 30.61,-92.25 21.5,-92.25 5.31,-92.25 0.5,-83.15 7.08,-74.54"/>
<polygon fill="#63b8ff" stroke="#63b8ff" points="41.27,-84.69 35.92,-75.54 34.4,-86.02 41.27,-84.69"/>
</a>
</g>
</g>
<!-- Node7&#45;&gt;Node7 -->
<g id="edge12_Node000007_Node000007" class="edge">
<title>Node7&#45;&gt;Node7</title>
<g id="a_edge12_Node000007_Node000007"><a xlink:title=" ">
<path fill="none" stroke="#63b8ff" d="M252.09,-29.98C249.86,-34.21 242.79,-37.25 230.88,-37.25 210.26,-37.25 204.15,-28.15 212.52,-19.54"/>
<polygon fill="#63b8ff" stroke="#63b8ff" points="255.25,-29.26 249.23,-20.54 248.5,-31.11 255.25,-29.26"/>
</a>
</g>
</g>
</g>
</svg>
</svg>

<style type='text/css'>
<![CDATA[
[data-mouse-over-selected='false'] { opacity: 0.7; }
[data-mouse-over-selected='true']  { opacity: 1.0; }
]]>
</style>
<script type="application/ecmascript"><![CDATA[
document.addEventListener('DOMContentLoaded', (event) => {
  highlightEdges();
  highlightAdjacentNodes();
});
]]></script>
</svg>
