<?xml version="1.0" encoding="UTF-8" standalone="no"?>
<!DOCTYPE svg PUBLIC "-//W3C//DTD SVG 1.1//EN"
 "http://www.w3.org/Graphics/SVG/1.1/DTD/svg11.dtd">
<!-- Generated by graphviz version 8.0.1 (20230327.1645)
 -->
<!-- Title: line_segment::line_seg_int Pages: 1 -->
<svg width="232pt" height="112pt"
 viewBox="0.00 0.00 232.00 111.50" xmlns="http://www.w3.org/2000/svg" xmlns:xlink="http://www.w3.org/1999/xlink">
<g id="graph0" class="graph" transform="scale(1 1) rotate(0) translate(4 107.5)">
<title>line_segment::line_seg_int</title>
<!-- Node1 -->
<g id="node1" class="node">
<title>Node1</title>
<g id="a_node1"><a xlink:title=" ">
<polygon fill="#999999" stroke="#666666" points="224,-54.5 130,-54.5 130,-24.5 224,-24.5 224,-54.5"/>
<text text-anchor="start" x="138" y="-42.5" font-family="Helvetica,sans-Serif" font-size="10.00">line_segment::line</text>
<text text-anchor="middle" x="177" y="-31.5" font-family="Helvetica,sans-Serif" font-size="10.00">_seg_int</text>
</a>
</g>
</g>
<!-- Node2 -->
<g id="node2" class="node">
<title>Node2</title>
<g id="a_node2"><a xlink:href="../../d2/dcb/namespaceline__segment.html#ad646e194dc6269ad6d052e6a7689b7c8" target="_top" xlink:title=" ">
<polygon fill="white" stroke="#666666" points="94,-85.5 0,-85.5 0,-55.5 94,-55.5 94,-85.5"/>
<text text-anchor="start" x="8" y="-73.5" font-family="Helvetica,sans-Serif" font-size="10.00">line_segment::line</text>
<text text-anchor="middle" x="47" y="-62.5" font-family="Helvetica,sans-Serif" font-size="10.00">_seg_test</text>
</a>
</g>
</g>
<!-- Node1&#45;&gt;Node2 -->
<g id="edge1" class="edge">
<title>Node1&#45;&gt;Node2</title>
<path fill="none" stroke="#63b8ff" d="M119.28,-53.24C110.87,-55.27 102.3,-57.35 94.14,-59.32"/>
<polygon fill="#63b8ff" stroke="#63b8ff" points="119.89,-56.45 128.79,-50.69 118.25,-49.64 119.89,-56.45"/>
</g>
<!-- Node3 -->
<g id="node3" class="node">
<title>Node3</title>
<g id="a_node3"><a xlink:href="../../da/dc8/profile__functions_8f.html#a5bfa30ed89583073252fb965b7cf69e0" target="_top" xlink:title=" ">
<polygon fill="white" stroke="#666666" points="66,-19 28,-19 28,0 66,0 66,-19"/>
<text text-anchor="middle" x="47" y="-7" font-family="Helvetica,sans-Serif" font-size="10.00">pcurr</text>
</a>
</g>
</g>
<!-- Node1&#45;&gt;Node3 -->
<g id="edge3" class="edge">
<title>Node1&#45;&gt;Node3</title>
<path fill="none" stroke="#63b8ff" d="M119.34,-26.22C100.29,-21.76 80.36,-17.08 66.42,-13.82"/>
<polygon fill="#63b8ff" stroke="#63b8ff" points="118.25,-29.79 128.79,-28.67 119.85,-22.98 118.25,-29.79"/>
</g>
<!-- Node2&#45;&gt;Node2 -->
<g id="edge2" class="edge">
<title>Node2&#45;&gt;Node2</title>
<path fill="none" stroke="#63b8ff" d="M69.5,-96.44C66.24,-100.63 58.74,-103.5 47,-103.5 26.69,-103.5 19.07,-94.91 24.15,-85.78"/>
<polygon fill="#63b8ff" stroke="#63b8ff" points="73.02,-96.89 69.85,-86.78 66.02,-96.65 73.02,-96.89"/>
</g>
<!-- Node3&#45;&gt;Node3 -->
<g id="edge4" class="edge">
<title>Node3&#45;&gt;Node3</title>
<path fill="none" stroke="#63b8ff" d="M71.17,-28.23C69.81,-33.22 61.76,-37 47,-37 23.39,-37 16.93,-27.32 27.63,-18.51"/>
<polygon fill="#63b8ff" stroke="#63b8ff" points="73.94,-26.93 66.37,-19.51 67.66,-30.03 73.94,-26.93"/>
</g>
</g>
</svg>
