<?xml version="1.0" encoding="UTF-8" standalone="no"?>
<!DOCTYPE svg PUBLIC "-//W3C//DTD SVG 1.1//EN"
 "http://www.w3.org/Graphics/SVG/1.1/DTD/svg11.dtd">
<!-- Generated by graphviz version 2.48.0 (20210719.0153)
 -->
<!-- Title: line_segment::line_seg Pages: 1 -->
<svg width="439pt" height="154pt"
 viewBox="0.00 0.00 439.00 153.50" xmlns="http://www.w3.org/2000/svg" xmlns:xlink="http://www.w3.org/1999/xlink">
<g id="graph0" class="graph" transform="scale(1 1) rotate(0) translate(4 149.5)">
<title>line_segment::line_seg</title>
<polygon fill="white" stroke="transparent" points="-4,4 -4,-149.5 435,-149.5 435,4 -4,4"/>
<!-- Node1 -->
<g id="node1" class="node">
<title>Node1</title>
<g id="a_node1"><a xlink:title=" ">
<polygon fill="#bfbfbf" stroke="black" points="316,-57.5 316,-76.5 431,-76.5 431,-57.5 316,-57.5"/>
<text text-anchor="middle" x="373.5" y="-64.5" font-family="Helvetica,sans-Serif" font-size="10.00">line_segment::line_seg</text>
</a>
</g>
</g>
<!-- Node2 -->
<g id="node2" class="node">
<title>Node2</title>
<g id="a_node2"><a xlink:href="../../d2/dcb/namespaceline__segment.html#ad646e194dc6269ad6d052e6a7689b7c8" target="_top" xlink:title=" ">
<polygon fill="white" stroke="black" points="186,-115 186,-145 280,-145 280,-115 186,-115"/>
<text text-anchor="start" x="194" y="-133" font-family="Helvetica,sans-Serif" font-size="10.00">line_segment::line</text>
<text text-anchor="middle" x="233" y="-122" font-family="Helvetica,sans-Serif" font-size="10.00">_seg_test</text>
</a>
</g>
</g>
<!-- Node1&#45;&gt;Node2 -->
<g id="edge1" class="edge">
<title>Node1&#45;&gt;Node2</title>
<path fill="none" stroke="midnightblue" d="M342.19,-80.79C320.01,-90.88 289.93,-104.56 267.12,-114.93"/>
<polygon fill="midnightblue" stroke="midnightblue" points="343.81,-83.89 351.46,-76.57 340.91,-77.52 343.81,-83.89"/>
</g>
<!-- Node3 -->
<g id="node3" class="node">
<title>Node3</title>
<g id="a_node3"><a xlink:href="../../da/dc8/profile__functions_8f.html#a5bfa30ed89583073252fb965b7cf69e0" target="_top" xlink:title=" ">
<polygon fill="white" stroke="black" points="214,-76.5 214,-95.5 252,-95.5 252,-76.5 214,-76.5"/>
<text text-anchor="middle" x="233" y="-83.5" font-family="Helvetica,sans-Serif" font-size="10.00">pcurr</text>
</a>
</g>
</g>
<!-- Node1&#45;&gt;Node3 -->
<g id="edge2" class="edge">
<title>Node1&#45;&gt;Node3</title>
<path fill="none" stroke="midnightblue" d="M305.83,-76.15C286.13,-78.85 266.15,-81.59 252.28,-83.49"/>
<polygon fill="midnightblue" stroke="midnightblue" points="306.34,-79.61 315.77,-74.78 305.38,-72.67 306.34,-79.61"/>
</g>
<!-- Node4 -->
<g id="node4" class="node">
<title>Node4</title>
<g id="a_node4"><a xlink:href="../../da/dc8/profile__functions_8f.html#a437348e2a0ee2ababaeca2205a78b85c" target="_top" xlink:title=" ">
<polygon fill="white" stroke="black" points="214,-38.5 214,-57.5 252,-57.5 252,-38.5 214,-38.5"/>
<text text-anchor="middle" x="233" y="-45.5" font-family="Helvetica,sans-Serif" font-size="10.00">piota</text>
</a>
</g>
</g>
<!-- Node1&#45;&gt;Node4 -->
<g id="edge3" class="edge">
<title>Node1&#45;&gt;Node4</title>
<path fill="none" stroke="midnightblue" d="M305.83,-57.85C286.13,-55.15 266.15,-52.41 252.28,-50.51"/>
<polygon fill="midnightblue" stroke="midnightblue" points="305.38,-61.33 315.77,-59.22 306.34,-54.39 305.38,-61.33"/>
</g>
<!-- Node7 -->
<g id="node7" class="node">
<title>Node7</title>
<g id="a_node7"><a xlink:href="../../da/dc8/profile__functions_8f.html#aba5b7c2601ef5c209acc084c9a42ff6d" target="_top" xlink:title=" ">
<polygon fill="white" stroke="black" points="210,-0.5 210,-19.5 256,-19.5 256,-0.5 210,-0.5"/>
<text text-anchor="middle" x="233" y="-7.5" font-family="Helvetica,sans-Serif" font-size="10.00">pmass</text>
</a>
</g>
</g>
<!-- Node1&#45;&gt;Node7 -->
<g id="edge6" class="edge">
<title>Node1&#45;&gt;Node7</title>
<path fill="none" stroke="midnightblue" d="M339.97,-53.61C314.23,-43.02 278.97,-28.51 256.34,-19.19"/>
<polygon fill="midnightblue" stroke="midnightblue" points="338.74,-56.89 349.32,-57.46 341.4,-50.42 338.74,-56.89"/>
</g>
<!-- Node5 -->
<g id="node5" class="node">
<title>Node5</title>
<g id="a_node5"><a xlink:href="../../d5/d26/magnetic__fluxes_8f90.html#ad5e5642d688664c85a181c2d1fd6497f" target="_top" xlink:title="Compute the radial derivative of the enclosed poloidal magnetic flux.">
<polygon fill="white" stroke="black" points="80,-38.5 80,-57.5 150,-57.5 150,-38.5 80,-38.5"/>
<text text-anchor="middle" x="115" y="-45.5" font-family="Helvetica,sans-Serif" font-size="10.00">polflux_deriv</text>
</a>
</g>
</g>
<!-- Node4&#45;&gt;Node5 -->
<g id="edge4" class="edge">
<title>Node4&#45;&gt;Node5</title>
<path fill="none" stroke="midnightblue" d="M203.5,-48C187.44,-48 167.26,-48 150.33,-48"/>
<polygon fill="midnightblue" stroke="midnightblue" points="203.88,-51.5 213.88,-48 203.87,-44.5 203.88,-51.5"/>
</g>
<!-- Node6 -->
<g id="node6" class="node">
<title>Node6</title>
<g id="a_node6"><a xlink:href="../../d5/d26/magnetic__fluxes_8f90.html#a9d78c3bac80a4d14cc82a93bc79e7dcd" target="_top" xlink:title="Compute the enclosed poloidal magnetic flux.">
<polygon fill="white" stroke="black" points="0,-38.5 0,-57.5 44,-57.5 44,-38.5 0,-38.5"/>
<text text-anchor="middle" x="22" y="-45.5" font-family="Helvetica,sans-Serif" font-size="10.00">polflux</text>
</a>
</g>
</g>
<!-- Node5&#45;&gt;Node6 -->
<g id="edge5" class="edge">
<title>Node5&#45;&gt;Node6</title>
<path fill="none" stroke="midnightblue" d="M69.83,-48C60.86,-48 51.82,-48 44.11,-48"/>
<polygon fill="midnightblue" stroke="midnightblue" points="69.86,-51.5 79.86,-48 69.86,-44.5 69.86,-51.5"/>
</g>
</g>
</svg>
