<?xml version="1.0" encoding="UTF-8" standalone="no"?>
<!DOCTYPE svg PUBLIC "-//W3C//DTD SVG 1.1//EN"
 "http://www.w3.org/Graphics/SVG/1.1/DTD/svg11.dtd">
<!-- Generated by graphviz version 12.0.0 (20240704.0754)
 -->
<!-- Title: line_segment::line_seg_int Pages: 1 -->
<svg width="231pt" height="112pt"
 viewBox="0.00 0.00 230.50 111.88" xmlns="http://www.w3.org/2000/svg" xmlns:xlink="http://www.w3.org/1999/xlink">

<svg id="main" version="1.1" xmlns="http://www.w3.org/2000/svg" xmlns:xlink="http://www.w3.org/1999/xlink" xml:space="preserve">

<style type="text/css"><![CDATA[
.node, .edge {opacity: 0.7;}
.node.selected, .edge.selected {opacity: 1;}
.edge:hover path { stroke: red; }
.edge:hover polygon { stroke: red; fill: red; }
]]></style>
<script type="application/ecmascript" xlink:href="../../svg.min.js"/>
<svg id="graph" class="graph">
<g id="graph0" class="graph" transform="scale(1 1) rotate(0) translate(4 107.88)">
<title>line_segment::line_seg_int</title>
<!-- Node1 -->
<g id="Node000001" class="node">
<title>Node1</title>
<g id="a_Node000001"><a xlink:title=" ">
<polygon fill="#999999" stroke="#666666" points="222.5,-54.88 129.25,-54.88 129.25,-24.38 222.5,-24.38 222.5,-54.88"/>
<text text-anchor="start" x="137.25" y="-41.38" font-family="Helvetica,sans-Serif" font-size="10.00">line_segment::line</text>
<text text-anchor="middle" x="175.88" y="-30.12" font-family="Helvetica,sans-Serif" font-size="10.00">_seg_int</text>
</a>
</g>
</g>
<!-- Node2 -->
<g id="Node000002" class="node">
<title>Node2</title>
<g id="a_Node000002"><a xlink:href="../../d2/dcb/namespaceline__segment.html#ad646e194dc6269ad6d052e6a7689b7c8" target="_top" xlink:title=" ">
<polygon fill="white" stroke="#666666" points="93.25,-85.88 0,-85.88 0,-55.38 93.25,-55.38 93.25,-85.88"/>
<text text-anchor="start" x="8" y="-72.38" font-family="Helvetica,sans-Serif" font-size="10.00">line_segment::line</text>
<text text-anchor="middle" x="46.62" y="-61.12" font-family="Helvetica,sans-Serif" font-size="10.00">_seg_test</text>
</a>
</g>
</g>
<!-- Node1&#45;&gt;Node2 -->
<g id="edge1_Node000001_Node000002" class="edge">
<title>Node1&#45;&gt;Node2</title>
<g id="a_edge1_Node000001_Node000002"><a xlink:title=" ">
<path fill="none" stroke="#63b8ff" d="M117.93,-53.5C109.75,-55.49 101.42,-57.52 93.5,-59.45"/>
<polygon fill="#63b8ff" stroke="#63b8ff" points="118.58,-56.94 127.46,-51.17 116.92,-50.14 118.58,-56.94"/>
</a>
</g>
</g>
<!-- Node3 -->
<g id="Node000003" class="node">
<title>Node3</title>
<g id="a_Node000003"><a xlink:href="../../da/dc8/profile__functions_8f.html#a5bfa30ed89583073252fb965b7cf69e0" target="_top" xlink:title=" ">
<polygon fill="white" stroke="#666666" points="65.5,-19.25 27.75,-19.25 27.75,0 65.5,0 65.5,-19.25"/>
<text text-anchor="middle" x="46.62" y="-5.75" font-family="Helvetica,sans-Serif" font-size="10.00">pcurr</text>
</a>
</g>
</g>
<!-- Node1&#45;&gt;Node3 -->
<g id="edge3_Node000001_Node000003" class="edge">
<title>Node1&#45;&gt;Node3</title>
<g id="a_edge3_Node000001_Node000003"><a xlink:title=" ">
<path fill="none" stroke="#63b8ff" d="M117.76,-26.16C99.06,-21.75 79.6,-17.16 65.94,-13.94"/>
<polygon fill="#63b8ff" stroke="#63b8ff" points="116.93,-29.56 127.46,-28.45 118.53,-22.75 116.93,-29.56"/>
</a>
</g>
</g>
<!-- Node2&#45;&gt;Node2 -->
<g id="edge2_Node000002_Node000002" class="edge">
<title>Node2&#45;&gt;Node2</title>
<g id="a_edge2_Node000002_Node000002"><a xlink:title=" ">
<path fill="none" stroke="#63b8ff" d="M68.3,-97.58C64.76,-101.35 57.53,-103.88 46.62,-103.88 26.68,-103.88 19.05,-95.43 23.72,-86.36"/>
<polygon fill="#63b8ff" stroke="#63b8ff" points="71.75,-98.19 69.36,-87.87 64.8,-97.43 71.75,-98.19"/>
</a>
</g>
</g>
<!-- Node3&#45;&gt;Node3 -->
<g id="edge4_Node000003_Node000003" class="edge">
<title>Node3&#45;&gt;Node3</title>
<g id="a_edge4_Node000003_Node000003"><a xlink:title=" ">
<path fill="none" stroke="#63b8ff" d="M70.4,-29.19C68.49,-33.82 60.56,-37.25 46.62,-37.25 23.15,-37.25 16.73,-27.53 27.37,-18.68"/>
<polygon fill="#63b8ff" stroke="#63b8ff" points="73.65,-27.87 66.48,-20.07 67.22,-30.64 73.65,-27.87"/>
</a>
</g>
</g>
</g>
</svg>
</svg>

<style type='text/css'>
<![CDATA[
[data-mouse-over-selected='false'] { opacity: 0.7; }
[data-mouse-over-selected='true']  { opacity: 1.0; }
]]>
</style>
<script type="application/ecmascript"><![CDATA[
document.addEventListener('DOMContentLoaded', (event) => {
  highlightEdges();
  highlightAdjacentNodes();
});
]]></script>
</svg>
