<?xml version="1.0" encoding="UTF-8" standalone="no"?>
<!DOCTYPE svg PUBLIC "-//W3C//DTD SVG 1.1//EN"
 "http://www.w3.org/Graphics/SVG/1.1/DTD/svg11.dtd">
<!-- Generated by graphviz version 8.0.1 (20230327.1645)
 -->
<!-- Title: line_segment::line_seg_test Pages: 1 -->
<svg width="253pt" height="77pt"
 viewBox="0.00 0.00 253.00 77.00" xmlns="http://www.w3.org/2000/svg" xmlns:xlink="http://www.w3.org/1999/xlink">
<g id="graph0" class="graph" transform="scale(1 1) rotate(0) translate(4 73)">
<title>line_segment::line_seg_test</title>
<!-- Node1 -->
<g id="node1" class="node">
<title>Node1</title>
<g id="a_node1"><a xlink:title=" ">
<polygon fill="#999999" stroke="#666666" points="94,-51 0,-51 0,-21 94,-21 94,-51"/>
<text text-anchor="start" x="8" y="-39" font-family="Helvetica,sans-Serif" font-size="10.00">line_segment::line</text>
<text text-anchor="middle" x="47" y="-28" font-family="Helvetica,sans-Serif" font-size="10.00">_seg_test</text>
</a>
</g>
</g>
<!-- Node1&#45;&gt;Node1 -->
<g id="edge3" class="edge">
<title>Node1&#45;&gt;Node1</title>
<path fill="none" stroke="#63b8ff" d="M22.3,-51.28C16.81,-60.41 25.05,-69 47,-69 59.69,-69 67.8,-66.13 71.32,-61.94"/>
<polygon fill="#63b8ff" stroke="#63b8ff" points="74.84,-62.39 71.7,-52.28 67.84,-62.14 74.84,-62.39"/>
</g>
<!-- Node2 -->
<g id="node2" class="node">
<title>Node2</title>
<g id="a_node2"><a xlink:href="../../d2/dcb/namespaceline__segment.html#aa63bfde0ff39e19622f7f5fe150e8b59" target="_top" xlink:title=" ">
<polygon fill="white" stroke="#666666" points="245,-67.5 130,-67.5 130,-48.5 245,-48.5 245,-67.5"/>
<text text-anchor="middle" x="187.5" y="-55.5" font-family="Helvetica,sans-Serif" font-size="10.00">line_segment::line_seg</text>
</a>
</g>
</g>
<!-- Node1&#45;&gt;Node2 -->
<g id="edge1" class="edge">
<title>Node1&#45;&gt;Node2</title>
<path fill="none" stroke="#63b8ff" d="M94.12,-43.33C102.2,-44.61 110.75,-45.97 119.26,-47.32"/>
<polygon fill="#63b8ff" stroke="#63b8ff" points="118.56,-50.91 128.98,-49.02 119.66,-44 118.56,-50.91"/>
</g>
<!-- Node3 -->
<g id="node3" class="node">
<title>Node3</title>
<g id="a_node3"><a xlink:href="../../d2/dcb/namespaceline__segment.html#a5686dda904eede25b04410ebada585d3" target="_top" xlink:title=" ">
<polygon fill="white" stroke="#666666" points="234.5,-30 140.5,-30 140.5,0 234.5,0 234.5,-30"/>
<text text-anchor="start" x="148.5" y="-18" font-family="Helvetica,sans-Serif" font-size="10.00">line_segment::line</text>
<text text-anchor="middle" x="187.5" y="-7" font-family="Helvetica,sans-Serif" font-size="10.00">_seg_int</text>
</a>
</g>
</g>
<!-- Node1&#45;&gt;Node3 -->
<g id="edge2" class="edge">
<title>Node1&#45;&gt;Node3</title>
<path fill="none" stroke="#63b8ff" d="M94.12,-29.01C105.45,-27.29 117.7,-25.43 129.48,-23.65"/>
<polygon fill="#63b8ff" stroke="#63b8ff" points="129.75,-26.99 139.11,-22.03 128.7,-20.07 129.75,-26.99"/>
</g>
</g>
</svg>
