<?xml version="1.0" encoding="UTF-8" standalone="no"?>
<!DOCTYPE svg PUBLIC "-//W3C//DTD SVG 1.1//EN"
 "http://www.w3.org/Graphics/SVG/1.1/DTD/svg11.dtd">
<!-- Generated by graphviz version 2.48.0 (20210719.0153)
 -->
<!-- Title: line_segment::line_seg_int Pages: 1 -->
<svg width="232pt" height="78pt"
 viewBox="0.00 0.00 232.00 77.50" xmlns="http://www.w3.org/2000/svg" xmlns:xlink="http://www.w3.org/1999/xlink">
<g id="graph0" class="graph" transform="scale(1 1) rotate(0) translate(4 73.5)">
<title>line_segment::line_seg_int</title>
<polygon fill="white" stroke="transparent" points="-4,4 -4,-73.5 228,-73.5 228,4 -4,4"/>
<!-- Node1 -->
<g id="node1" class="node">
<title>Node1</title>
<g id="a_node1"><a xlink:title=" ">
<polygon fill="#bfbfbf" stroke="black" points="130,-17 130,-47 224,-47 224,-17 130,-17"/>
<text text-anchor="start" x="138" y="-35" font-family="Helvetica,sans-Serif" font-size="10.00">line_segment::line</text>
<text text-anchor="middle" x="177" y="-24" font-family="Helvetica,sans-Serif" font-size="10.00">_seg_int</text>
</a>
</g>
</g>
<!-- Node2 -->
<g id="node2" class="node">
<title>Node2</title>
<g id="a_node2"><a xlink:href="../../d2/dcb/namespaceline__segment.html#ad646e194dc6269ad6d052e6a7689b7c8" target="_top" xlink:title=" ">
<polygon fill="white" stroke="black" points="0,-39 0,-69 94,-69 94,-39 0,-39"/>
<text text-anchor="start" x="8" y="-57" font-family="Helvetica,sans-Serif" font-size="10.00">line_segment::line</text>
<text text-anchor="middle" x="47" y="-46" font-family="Helvetica,sans-Serif" font-size="10.00">_seg_test</text>
</a>
</g>
</g>
<!-- Node1&#45;&gt;Node2 -->
<g id="edge1" class="edge">
<title>Node1&#45;&gt;Node2</title>
<path fill="none" stroke="midnightblue" d="M119.84,-41.65C111.25,-43.13 102.48,-44.64 94.14,-46.07"/>
<polygon fill="midnightblue" stroke="midnightblue" points="120.53,-45.09 129.79,-39.94 119.34,-38.19 120.53,-45.09"/>
</g>
<!-- Node3 -->
<g id="node3" class="node">
<title>Node3</title>
<g id="a_node3"><a xlink:href="../../da/dc8/profile__functions_8f.html#a5bfa30ed89583073252fb965b7cf69e0" target="_top" xlink:title=" ">
<polygon fill="white" stroke="black" points="28,-0.5 28,-19.5 66,-19.5 66,-0.5 28,-0.5"/>
<text text-anchor="middle" x="47" y="-7.5" font-family="Helvetica,sans-Serif" font-size="10.00">pcurr</text>
</a>
</g>
</g>
<!-- Node1&#45;&gt;Node3 -->
<g id="edge2" class="edge">
<title>Node1&#45;&gt;Node3</title>
<path fill="none" stroke="midnightblue" d="M119.8,-22.34C100.47,-19.02 80.16,-15.53 66.1,-13.11"/>
<polygon fill="midnightblue" stroke="midnightblue" points="119.34,-25.81 129.79,-24.06 120.53,-18.91 119.34,-25.81"/>
</g>
</g>
</svg>
