<?xml version="1.0" encoding="UTF-8" standalone="no"?>
<!DOCTYPE svg PUBLIC "-//W3C//DTD SVG 1.1//EN"
 "http://www.w3.org/Graphics/SVG/1.1/DTD/svg11.dtd">
<!-- Generated by graphviz version 2.47.1 (20210421.1823)
 -->
<!-- Title: calc_fbal Pages: 1 -->
<svg width="475pt" height="66pt"
 viewBox="0.00 0.00 475.00 66.00" xmlns="http://www.w3.org/2000/svg" xmlns:xlink="http://www.w3.org/1999/xlink">
<g id="graph0" class="graph" transform="scale(1 1) rotate(0) translate(4 62)">
<title>calc_fbal</title>
<polygon fill="white" stroke="transparent" points="-4,4 -4,-62 471,-62 471,4 -4,4"/>
<!-- Node1 -->
<g id="node1" class="node">
<title>Node1</title>
<g id="a_node1"><a xlink:title="Compute flux&#45;surface averaged radial force balance .">
<polygon fill="#bfbfbf" stroke="black" points="411,-19.5 411,-38.5 467,-38.5 467,-19.5 411,-19.5"/>
<text text-anchor="middle" x="439" y="-26.5" font-family="Helvetica,sans-Serif" font-size="10.00">calc_fbal</text>
</a>
</g>
</g>
<!-- Node2 -->
<g id="node2" class="node">
<title>Node2</title>
<g id="a_node2"><a xlink:href="../../d7/d61/bcovar_8f90.html#a1e1624195f0c0c7daa9f49d83bae5ce8" target="_top" xlink:title="Compute the covariant components of the magnetic field , .">
<polygon fill="white" stroke="black" points="329,-38.5 329,-57.5 375,-57.5 375,-38.5 329,-38.5"/>
<text text-anchor="middle" x="352" y="-45.5" font-family="Helvetica,sans-Serif" font-size="10.00">bcovar</text>
</a>
</g>
</g>
<!-- Node1&#45;&gt;Node2 -->
<g id="edge1" class="edge">
<title>Node1&#45;&gt;Node2</title>
<path fill="none" stroke="midnightblue" d="M400.66,-37.35C391.97,-39.29 382.99,-41.3 375.2,-43.04"/>
<polygon fill="midnightblue" stroke="midnightblue" points="401.64,-40.71 410.64,-35.12 400.11,-33.88 401.64,-40.71"/>
</g>
<!-- Node8 -->
<g id="node8" class="node">
<title>Node8</title>
<g id="a_node8"><a xlink:href="../../d0/d22/eqfor_8f90.html#a4579124c405a906bf05b3d3a0da2d105" target="_top" xlink:title="Basis physics analysis and evaluaton of force balance. This is where most of the contents of the thre...">
<polygon fill="white" stroke="black" points="249.5,-0.5 249.5,-19.5 287.5,-19.5 287.5,-0.5 249.5,-0.5"/>
<text text-anchor="middle" x="268.5" y="-7.5" font-family="Helvetica,sans-Serif" font-size="10.00">eqfor</text>
</a>
</g>
</g>
<!-- Node1&#45;&gt;Node8 -->
<g id="edge8" class="edge">
<title>Node1&#45;&gt;Node8</title>
<path fill="none" stroke="midnightblue" d="M400.6,-24.78C365.52,-20.83 314.56,-15.08 287.68,-12.05"/>
<polygon fill="midnightblue" stroke="midnightblue" points="400.6,-28.3 410.93,-25.95 401.38,-21.35 400.6,-28.3"/>
</g>
<!-- Node3 -->
<g id="node3" class="node">
<title>Node3</title>
<g id="a_node3"><a xlink:href="../../d3/d4f/funct3d_8f90.html#a800bacc22176e16323899df87b55c547" target="_top" xlink:title="Evaluate the three&#45;dimensional MHD energy functional.">
<polygon fill="white" stroke="black" points="244,-38.5 244,-57.5 293,-57.5 293,-38.5 244,-38.5"/>
<text text-anchor="middle" x="268.5" y="-45.5" font-family="Helvetica,sans-Serif" font-size="10.00">funct3d</text>
</a>
</g>
</g>
<!-- Node2&#45;&gt;Node3 -->
<g id="edge2" class="edge">
<title>Node2&#45;&gt;Node3</title>
<path fill="none" stroke="midnightblue" d="M318.7,-48C310.18,-48 301.14,-48 293.17,-48"/>
<polygon fill="midnightblue" stroke="midnightblue" points="318.73,-51.5 328.73,-48 318.73,-44.5 318.73,-51.5"/>
</g>
<!-- Node4 -->
<g id="node4" class="node">
<title>Node4</title>
<g id="a_node4"><a xlink:href="../../de/da9/evolve_8f90.html#a8103e838be03904e03551e04f6b396e4" target="_top" xlink:title="Take a single time step in Fourier space to evolve the Fourier coefficients describing the equilibriu...">
<polygon fill="white" stroke="black" points="163,-38.5 163,-57.5 208,-57.5 208,-38.5 163,-38.5"/>
<text text-anchor="middle" x="185.5" y="-45.5" font-family="Helvetica,sans-Serif" font-size="10.00">evolve</text>
</a>
</g>
</g>
<!-- Node3&#45;&gt;Node4 -->
<g id="edge3" class="edge">
<title>Node3&#45;&gt;Node4</title>
<path fill="none" stroke="midnightblue" d="M233.51,-48C224.97,-48 216.02,-48 208.26,-48"/>
<polygon fill="midnightblue" stroke="midnightblue" points="233.64,-51.5 243.64,-48 233.64,-44.5 233.64,-51.5"/>
</g>
<!-- Node7 -->
<g id="node7" class="node">
<title>Node7</title>
<g id="a_node7"><a xlink:href="../../d0/d71/fileout_8f90.html#a7228e984aaf2c38bd772e3d846fab7af" target="_top" xlink:title="Write the output files.">
<polygon fill="white" stroke="black" points="164.5,-0.5 164.5,-19.5 206.5,-19.5 206.5,-0.5 164.5,-0.5"/>
<text text-anchor="middle" x="185.5" y="-7.5" font-family="Helvetica,sans-Serif" font-size="10.00">fileout</text>
</a>
</g>
</g>
<!-- Node3&#45;&gt;Node7 -->
<g id="edge6" class="edge">
<title>Node3&#45;&gt;Node7</title>
<path fill="none" stroke="midnightblue" d="M237.9,-34.11C227.51,-29.24 216.09,-23.88 206.65,-19.45"/>
<polygon fill="midnightblue" stroke="midnightblue" points="236.52,-37.33 247.06,-38.41 239.49,-31 236.52,-37.33"/>
</g>
<!-- Node5 -->
<g id="node5" class="node">
<title>Node5</title>
<g id="a_node5"><a xlink:href="../../d7/d46/eqsolve_8f90.html#ab740b09d1b651e2ab8a60c5d552df0c2" target="_top" xlink:title="Iteratively evolve the Fourier coefficients that specify the equilibrium.">
<polygon fill="white" stroke="black" points="77,-38.5 77,-57.5 127,-57.5 127,-38.5 77,-38.5"/>
<text text-anchor="middle" x="102" y="-45.5" font-family="Helvetica,sans-Serif" font-size="10.00">eqsolve</text>
</a>
</g>
</g>
<!-- Node4&#45;&gt;Node5 -->
<g id="edge4" class="edge">
<title>Node4&#45;&gt;Node5</title>
<path fill="none" stroke="midnightblue" d="M152.41,-48C144.02,-48 135.11,-48 127.2,-48"/>
<polygon fill="midnightblue" stroke="midnightblue" points="152.66,-51.5 162.66,-48 152.66,-44.5 152.66,-51.5"/>
</g>
<!-- Node6 -->
<g id="node6" class="node">
<title>Node6</title>
<g id="a_node6"><a xlink:href="../../db/d61/vmec_8f90.html#a476ef59cc25fe0996c0f5750d978df25" target="_top" xlink:title="Main program of VMEC.">
<polygon fill="white" stroke="black" points="0,-19.5 0,-38.5 41,-38.5 41,-19.5 0,-19.5"/>
<text text-anchor="middle" x="20.5" y="-26.5" font-family="Helvetica,sans-Serif" font-size="10.00">vmec</text>
</a>
</g>
</g>
<!-- Node5&#45;&gt;Node6 -->
<g id="edge5" class="edge">
<title>Node5&#45;&gt;Node6</title>
<path fill="none" stroke="midnightblue" d="M66.71,-39.8C57.96,-37.71 48.84,-35.53 41.11,-33.69"/>
<polygon fill="midnightblue" stroke="midnightblue" points="66.18,-43.28 76.72,-42.2 67.8,-36.47 66.18,-43.28"/>
</g>
<!-- Node7&#45;&gt;Node6 -->
<g id="edge7" class="edge">
<title>Node7&#45;&gt;Node6</title>
<path fill="none" stroke="midnightblue" d="M154.16,-13.54C121.08,-17.39 69.12,-23.45 41.05,-26.72"/>
<polygon fill="midnightblue" stroke="midnightblue" points="154.66,-17 164.19,-12.37 153.85,-10.05 154.66,-17"/>
</g>
<!-- Node8&#45;&gt;Node7 -->
<g id="edge9" class="edge">
<title>Node8&#45;&gt;Node7</title>
<path fill="none" stroke="midnightblue" d="M238.94,-10C228.22,-10 216.29,-10 206.51,-10"/>
<polygon fill="midnightblue" stroke="midnightblue" points="239.12,-13.5 249.12,-10 239.12,-6.5 239.12,-13.5"/>
</g>
</g>
</svg>
