<?xml version="1.0" encoding="UTF-8" standalone="no"?>
<!DOCTYPE svg PUBLIC "-//W3C//DTD SVG 1.1//EN"
 "http://www.w3.org/Graphics/SVG/1.1/DTD/svg11.dtd">
<!-- Generated by graphviz version 2.49.3 (20211027.1501)
 -->
<!-- Title: calc_fbal Pages: 1 -->
<svg width="229pt" height="84pt"
 viewBox="0.00 0.00 229.00 84.00" xmlns="http://www.w3.org/2000/svg" xmlns:xlink="http://www.w3.org/1999/xlink">
<g id="graph0" class="graph" transform="scale(1 1) rotate(0) translate(4 80)">
<title>calc_fbal</title>
<polygon fill="white" stroke="transparent" points="-4,4 -4,-80 225,-80 225,4 -4,4"/>
<!-- Node1 -->
<g id="node1" class="node">
<title>Node1</title>
<g id="a_node1"><a xlink:title="Compute flux&#45;surface averaged radial force balance .">
<polygon fill="#bfbfbf" stroke="black" points="0,-28.5 0,-47.5 56,-47.5 56,-28.5 0,-28.5"/>
<text text-anchor="middle" x="28" y="-35.5" font-family="Helvetica,sans-Serif" font-size="10.00">calc_fbal</text>
</a>
</g>
</g>
<!-- Node2 -->
<g id="node2" class="node">
<title>Node2</title>
<g id="a_node2"><a xlink:href="../../d8/dfd/namespacedbgout.html#a0752528f123b592bc57f687438b75d9b" target="_top" xlink:title=" ">
<polygon fill="white" stroke="black" points="92,-56.5 92,-75.5 221,-75.5 221,-56.5 92,-56.5"/>
<text text-anchor="middle" x="156.5" y="-63.5" font-family="Helvetica,sans-Serif" font-size="10.00">dbgout::open_dbg_context</text>
</a>
</g>
</g>
<!-- Node1&#45;&gt;Node2 -->
<g id="edge1" class="edge">
<title>Node1&#45;&gt;Node2</title>
<path fill="none" stroke="midnightblue" d="M56.14,-44.01C69.72,-47.01 86.66,-50.76 102.67,-54.31"/>
<polygon fill="midnightblue" stroke="midnightblue" points="101.96,-57.73 112.48,-56.48 103.48,-50.9 101.96,-57.73"/>
</g>
<!-- Node3 -->
<g id="node3" class="node">
<title>Node3</title>
<g id="a_node3"><a xlink:href="../../d8/dfd/namespacedbgout.html#a0537172e9da0db08b9d29ab8880f0559" target="_top" xlink:title=" ">
<polygon fill="white" stroke="black" points="104,-0.5 104,-19.5 209,-19.5 209,-0.5 104,-0.5"/>
<text text-anchor="middle" x="156.5" y="-7.5" font-family="Helvetica,sans-Serif" font-size="10.00">dbgout::should_write</text>
</a>
</g>
</g>
<!-- Node1&#45;&gt;Node3 -->
<g id="edge2" class="edge">
<title>Node1&#45;&gt;Node3</title>
<path fill="none" stroke="midnightblue" d="M56.14,-31.99C69.72,-28.99 86.66,-25.24 102.67,-21.69"/>
<polygon fill="midnightblue" stroke="midnightblue" points="103.48,-25.1 112.48,-19.52 101.96,-18.27 103.48,-25.1"/>
</g>
<!-- Node3&#45;&gt;Node3 -->
<g id="edge3" class="edge">
<title>Node3&#45;&gt;Node3</title>
<path fill="none" stroke="midnightblue" d="M136.77,-19.76C127.17,-28.57 133.75,-38 156.5,-38 171.07,-38 179.01,-34.13 180.31,-29.03"/>
<polygon fill="midnightblue" stroke="midnightblue" points="183.46,-27.5 176.23,-19.76 177.05,-30.32 183.46,-27.5"/>
</g>
</g>
</svg>
