<?xml version="1.0" encoding="UTF-8" standalone="no"?>
<!DOCTYPE svg PUBLIC "-//W3C//DTD SVG 1.1//EN"
 "http://www.w3.org/Graphics/SVG/1.1/DTD/svg11.dtd">
<!-- Generated by graphviz version 8.1.0 (20230707.0739)
 -->
<!-- Title: calc_fbal Pages: 1 -->
<svg width="551pt" height="65pt"
 viewBox="0.00 0.00 551.25 65.25" xmlns="http://www.w3.org/2000/svg" xmlns:xlink="http://www.w3.org/1999/xlink">
<g id="graph0" class="graph" transform="scale(1 1) rotate(0) translate(4 61.25)">
<title>calc_fbal</title>
<!-- Node1 -->
<g id="Node000001" class="node">
<title>Node1</title>
<g id="a_Node000001"><a xlink:title="Compute flux&#45;surface averaged radial force balance .">
<polygon fill="#999999" stroke="#666666" points="543.25,-38.25 488.25,-38.25 488.25,-19 543.25,-19 543.25,-38.25"/>
<text text-anchor="middle" x="515.75" y="-24.75" font-family="Helvetica,sans-Serif" font-size="10.00">calc_fbal</text>
</a>
</g>
</g>
<!-- Node2 -->
<g id="Node000002" class="node">
<title>Node2</title>
<g id="a_Node000002"><a xlink:href="../../d7/d61/bcovar_8f90.html#a1e1624195f0c0c7daa9f49d83bae5ce8" target="_top" xlink:title="Compute the covariant components of the magnetic field , .">
<polygon fill="white" stroke="#666666" points="452.25,-57.25 407,-57.25 407,-38 452.25,-38 452.25,-57.25"/>
<text text-anchor="middle" x="429.62" y="-43.75" font-family="Helvetica,sans-Serif" font-size="10.00">bcovar</text>
</a>
</g>
</g>
<!-- Node1&#45;&gt;Node2 -->
<g id="edge1_Node000001_Node000002" class="edge">
<title>Node1&#45;&gt;Node2</title>
<g id="a_edge1_Node000001_Node000002"><a xlink:title=" ">
<path fill="none" stroke="#63b8ff" d="M477.57,-37.02C469.03,-38.95 460.21,-40.94 452.56,-42.67"/>
<polygon fill="#63b8ff" stroke="#63b8ff" points="478.15,-40.25 487.13,-34.64 476.61,-33.43 478.15,-40.25"/>
</a>
</g>
</g>
<!-- Node9 -->
<g id="Node000009" class="node">
<title>Node9</title>
<g id="a_Node000009"><a xlink:href="../../d0/d22/eqfor_8f90.html#a4579124c405a906bf05b3d3a0da2d105" target="_top" xlink:title="Basis physics analysis and evaluaton of force balance. This is where most of the contents of the thre...">
<polygon fill="white" stroke="#666666" points="365.75,-19.25 328,-19.25 328,0 365.75,0 365.75,-19.25"/>
<text text-anchor="middle" x="346.88" y="-5.75" font-family="Helvetica,sans-Serif" font-size="10.00">eqfor</text>
</a>
</g>
</g>
<!-- Node1&#45;&gt;Node9 -->
<g id="edge9_Node000001_Node000009" class="edge">
<title>Node1&#45;&gt;Node9</title>
<g id="a_edge9_Node000001_Node000009"><a xlink:title=" ">
<path fill="none" stroke="#63b8ff" d="M477.26,-24.36C442.53,-20.4 392.39,-14.69 365.88,-11.67"/>
<polygon fill="#63b8ff" stroke="#63b8ff" points="476.61,-27.92 486.94,-25.57 477.4,-20.96 476.61,-27.92"/>
</a>
</g>
</g>
<!-- Node3 -->
<g id="Node000003" class="node">
<title>Node3</title>
<g id="a_Node000003"><a xlink:href="../../d3/d4f/funct3d_8f90.html#a800bacc22176e16323899df87b55c547" target="_top" xlink:title="Evaluate the three&#45;dimensional MHD energy functional. Think of this as the &quot;forward model&quot; that tells...">
<polygon fill="white" stroke="#666666" points="371,-57.25 322.75,-57.25 322.75,-38 371,-38 371,-57.25"/>
<text text-anchor="middle" x="346.88" y="-43.75" font-family="Helvetica,sans-Serif" font-size="10.00">funct3d</text>
</a>
</g>
</g>
<!-- Node2&#45;&gt;Node3 -->
<g id="edge2_Node000002_Node000003" class="edge">
<title>Node2&#45;&gt;Node3</title>
<g id="a_edge2_Node000002_Node000003"><a xlink:title=" ">
<path fill="none" stroke="#63b8ff" d="M395.78,-47.62C387.59,-47.62 378.96,-47.62 371.33,-47.62"/>
<polygon fill="#63b8ff" stroke="#63b8ff" points="395.56,-51.13 405.56,-47.62 395.56,-44.13 395.56,-51.13"/>
</a>
</g>
</g>
<!-- Node4 -->
<g id="Node000004" class="node">
<title>Node4</title>
<g id="a_Node000004"><a xlink:href="../../de/da9/evolve_8f90.html#a8103e838be03904e03551e04f6b396e4" target="_top" xlink:title="Take a single time step in Fourier space to evolve the Fourier coefficients describing the equilibriu...">
<polygon fill="white" stroke="#666666" points="286.75,-57.25 242.25,-57.25 242.25,-38 286.75,-38 286.75,-57.25"/>
<text text-anchor="middle" x="264.5" y="-43.75" font-family="Helvetica,sans-Serif" font-size="10.00">evolve</text>
</a>
</g>
</g>
<!-- Node3&#45;&gt;Node4 -->
<g id="edge3_Node000003_Node000004" class="edge">
<title>Node3&#45;&gt;Node4</title>
<g id="a_edge3_Node000003_Node000004"><a xlink:title=" ">
<path fill="none" stroke="#63b8ff" d="M311.9,-47.62C303.48,-47.62 294.68,-47.62 287.04,-47.62"/>
<polygon fill="#63b8ff" stroke="#63b8ff" points="311.63,-51.13 321.63,-47.62 311.63,-44.13 311.63,-51.13"/>
</a>
</g>
</g>
<!-- Node8 -->
<g id="Node000008" class="node">
<title>Node8</title>
<g id="a_Node000008"><a xlink:href="../../d0/d71/fileout_8f90.html#a7228e984aaf2c38bd772e3d846fab7af" target="_top" xlink:title="Write the output files.">
<polygon fill="white" stroke="#666666" points="285.25,-19.25 243.75,-19.25 243.75,0 285.25,0 285.25,-19.25"/>
<text text-anchor="middle" x="264.5" y="-5.75" font-family="Helvetica,sans-Serif" font-size="10.00">fileout</text>
</a>
</g>
</g>
<!-- Node3&#45;&gt;Node8 -->
<g id="edge7_Node000003_Node000008" class="edge">
<title>Node3&#45;&gt;Node8</title>
<g id="a_edge7_Node000003_Node000008"><a xlink:title=" ">
<path fill="none" stroke="#63b8ff" d="M314.91,-32.99C305.09,-28.34 294.5,-23.33 285.65,-19.15"/>
<polygon fill="#63b8ff" stroke="#63b8ff" points="313.22,-36.53 323.76,-37.64 316.21,-30.2 313.22,-36.53"/>
</a>
</g>
</g>
<!-- Node5 -->
<g id="Node000005" class="node">
<title>Node5</title>
<g id="a_Node000005"><a xlink:href="../../d7/d46/eqsolve_8f90.html#ab740b09d1b651e2ab8a60c5d552df0c2" target="_top" xlink:title="Iteratively evolve the Fourier coefficients that specify the equilibrium.">
<polygon fill="white" stroke="#666666" points="206.25,-57.25 156.5,-57.25 156.5,-38 206.25,-38 206.25,-57.25"/>
<text text-anchor="middle" x="181.38" y="-43.75" font-family="Helvetica,sans-Serif" font-size="10.00">eqsolve</text>
</a>
</g>
</g>
<!-- Node4&#45;&gt;Node5 -->
<g id="edge4_Node000004_Node000005" class="edge">
<title>Node4&#45;&gt;Node5</title>
<g id="a_edge4_Node000004_Node000005"><a xlink:title=" ">
<path fill="none" stroke="#63b8ff" d="M231,-47.62C222.81,-47.62 214.16,-47.62 206.46,-47.62"/>
<polygon fill="#63b8ff" stroke="#63b8ff" points="230.76,-51.13 240.76,-47.62 230.76,-44.13 230.76,-51.13"/>
</a>
</g>
</g>
<!-- Node6 -->
<g id="Node000006" class="node">
<title>Node6</title>
<g id="a_Node000006"><a xlink:href="../../db/d61/vmec_8f90.html#a6d38ab7be2f9d818da4541e1d352ea23" target="_top" xlink:title="Main driver for VMEC.">
<polygon fill="white" stroke="#666666" points="120.5,-38.25 80.5,-38.25 80.5,-19 120.5,-19 120.5,-38.25"/>
<text text-anchor="middle" x="100.5" y="-24.75" font-family="Helvetica,sans-Serif" font-size="10.00">vmec</text>
</a>
</g>
</g>
<!-- Node5&#45;&gt;Node6 -->
<g id="edge5_Node000005_Node000006" class="edge">
<title>Node5&#45;&gt;Node6</title>
<g id="a_edge5_Node000005_Node000006"><a xlink:title=" ">
<path fill="none" stroke="#63b8ff" d="M145.79,-39.29C137.28,-37.24 128.46,-35.12 120.96,-33.31"/>
<polygon fill="#63b8ff" stroke="#63b8ff" points="144.74,-42.88 155.28,-41.82 146.38,-36.08 144.74,-42.88"/>
</a>
</g>
</g>
<!-- Node7 -->
<g id="Node000007" class="node">
<title>Node7</title>
<g id="a_Node000007"><a xlink:href="../../db/d61/vmec_8f90.html#ace5bdf043bb85c8f0a9fc582bdb55725" target="_top" xlink:title="Main program of VMEC.">
<polygon fill="white" stroke="#666666" points="44.5,-38.25 0,-38.25 0,-19 44.5,-19 44.5,-38.25"/>
<text text-anchor="middle" x="22.25" y="-24.75" font-family="Helvetica,sans-Serif" font-size="10.00">xvmec</text>
</a>
</g>
</g>
<!-- Node6&#45;&gt;Node7 -->
<g id="edge6_Node000006_Node000007" class="edge">
<title>Node6&#45;&gt;Node7</title>
<g id="a_edge6_Node000006_Node000007"><a xlink:title=" ">
<path fill="none" stroke="#63b8ff" d="M69.53,-28.62C61.31,-28.62 52.56,-28.62 44.91,-28.62"/>
<polygon fill="#63b8ff" stroke="#63b8ff" points="69.26,-32.13 79.26,-28.62 69.26,-25.13 69.26,-32.13"/>
</a>
</g>
</g>
<!-- Node8&#45;&gt;Node6 -->
<g id="edge8_Node000008_Node000006" class="edge">
<title>Node8&#45;&gt;Node6</title>
<g id="a_edge8_Node000008_Node000006"><a xlink:title=" ">
<path fill="none" stroke="#63b8ff" d="M232.49,-13.26C199.58,-17.12 148.58,-23.1 120.93,-26.35"/>
<polygon fill="#63b8ff" stroke="#63b8ff" points="232.79,-16.63 242.31,-11.99 231.97,-9.68 232.79,-16.63"/>
</a>
</g>
</g>
<!-- Node9&#45;&gt;Node8 -->
<g id="edge10_Node000009_Node000008" class="edge">
<title>Node9&#45;&gt;Node8</title>
<g id="a_edge10_Node000009_Node000008"><a xlink:title=" ">
<path fill="none" stroke="#63b8ff" d="M316.95,-9.62C306.58,-9.62 295.11,-9.62 285.64,-9.62"/>
<polygon fill="#63b8ff" stroke="#63b8ff" points="316.64,-13.13 326.64,-9.62 316.64,-6.13 316.64,-13.13"/>
</a>
</g>
</g>
</g>
</svg>
