<?xml version="1.0" encoding="UTF-8" standalone="no"?>
<!DOCTYPE svg PUBLIC "-//W3C//DTD SVG 1.1//EN"
 "http://www.w3.org/Graphics/SVG/1.1/DTD/svg11.dtd">
<!-- Generated by graphviz version 8.0.1 (20230327.1645)
 -->
<!-- Title: calc_fbal Pages: 1 -->
<svg width="556pt" height="65pt"
 viewBox="0.00 0.00 556.00 65.00" xmlns="http://www.w3.org/2000/svg" xmlns:xlink="http://www.w3.org/1999/xlink">
<g id="graph0" class="graph" transform="scale(1 1) rotate(0) translate(4 61)">
<title>calc_fbal</title>
<!-- Node1 -->
<g id="node1" class="node">
<title>Node1</title>
<g id="a_node1"><a xlink:title="Compute flux&#45;surface averaged radial force balance .">
<polygon fill="#999999" stroke="#666666" points="548,-38 492,-38 492,-19 548,-19 548,-38"/>
<text text-anchor="middle" x="520" y="-26" font-family="Helvetica,sans-Serif" font-size="10.00">calc_fbal</text>
</a>
</g>
</g>
<!-- Node2 -->
<g id="node2" class="node">
<title>Node2</title>
<g id="a_node2"><a xlink:href="../../d7/d61/bcovar_8f90.html#a1e1624195f0c0c7daa9f49d83bae5ce8" target="_top" xlink:title="Compute the covariant components of the magnetic field , .">
<polygon fill="white" stroke="#666666" points="456,-57 410,-57 410,-38 456,-38 456,-57"/>
<text text-anchor="middle" x="433" y="-45" font-family="Helvetica,sans-Serif" font-size="10.00">bcovar</text>
</a>
</g>
</g>
<!-- Node1&#45;&gt;Node2 -->
<g id="edge1" class="edge">
<title>Node1&#45;&gt;Node2</title>
<path fill="none" stroke="#63b8ff" d="M480.91,-37.02C472.56,-38.88 463.98,-40.8 456.48,-42.47"/>
<polygon fill="#63b8ff" stroke="#63b8ff" points="481.64,-40.21 490.64,-34.62 480.11,-33.38 481.64,-40.21"/>
</g>
<!-- Node9 -->
<g id="node9" class="node">
<title>Node9</title>
<g id="a_node9"><a xlink:href="../../d0/d22/eqfor_8f90.html#a4579124c405a906bf05b3d3a0da2d105" target="_top" xlink:title="Basis physics analysis and evaluaton of force balance. This is where most of the contents of the thre...">
<polygon fill="white" stroke="#666666" points="368.5,-19 330.5,-19 330.5,0 368.5,0 368.5,-19"/>
<text text-anchor="middle" x="349.5" y="-7" font-family="Helvetica,sans-Serif" font-size="10.00">eqfor</text>
</a>
</g>
</g>
<!-- Node1&#45;&gt;Node9 -->
<g id="edge9" class="edge">
<title>Node1&#45;&gt;Node9</title>
<path fill="none" stroke="#63b8ff" d="M480.75,-24.19C445.67,-20.23 395.24,-14.54 368.59,-11.54"/>
<polygon fill="#63b8ff" stroke="#63b8ff" points="480.22,-27.76 490.55,-25.41 481.01,-20.81 480.22,-27.76"/>
</g>
<!-- Node3 -->
<g id="node3" class="node">
<title>Node3</title>
<g id="a_node3"><a xlink:href="../../d3/d4f/funct3d_8f90.html#a800bacc22176e16323899df87b55c547" target="_top" xlink:title="Evaluate the three&#45;dimensional MHD energy functional. Think of this as the &quot;forward model&quot; that tells...">
<polygon fill="white" stroke="#666666" points="374,-57 325,-57 325,-38 374,-38 374,-57"/>
<text text-anchor="middle" x="349.5" y="-45" font-family="Helvetica,sans-Serif" font-size="10.00">funct3d</text>
</a>
</g>
</g>
<!-- Node2&#45;&gt;Node3 -->
<g id="edge2" class="edge">
<title>Node2&#45;&gt;Node3</title>
<path fill="none" stroke="#63b8ff" d="M398.95,-47.5C390.75,-47.5 382.12,-47.5 374.46,-47.5"/>
<polygon fill="#63b8ff" stroke="#63b8ff" points="398.73,-51 408.73,-47.5 398.73,-44 398.73,-51"/>
</g>
<!-- Node4 -->
<g id="node4" class="node">
<title>Node4</title>
<g id="a_node4"><a xlink:href="../../de/da9/evolve_8f90.html#a8103e838be03904e03551e04f6b396e4" target="_top" xlink:title="Take a single time step in Fourier space to evolve the Fourier coefficients describing the equilibriu...">
<polygon fill="white" stroke="#666666" points="289,-57 244,-57 244,-38 289,-38 289,-57"/>
<text text-anchor="middle" x="266.5" y="-45" font-family="Helvetica,sans-Serif" font-size="10.00">evolve</text>
</a>
</g>
</g>
<!-- Node3&#45;&gt;Node4 -->
<g id="edge3" class="edge">
<title>Node3&#45;&gt;Node4</title>
<path fill="none" stroke="#63b8ff" d="M313.67,-47.5C305.38,-47.5 296.77,-47.5 289.26,-47.5"/>
<polygon fill="#63b8ff" stroke="#63b8ff" points="313.64,-51 323.64,-47.5 313.64,-44 313.64,-51"/>
</g>
<!-- Node8 -->
<g id="node8" class="node">
<title>Node8</title>
<g id="a_node8"><a xlink:href="../../d0/d71/fileout_8f90.html#a7228e984aaf2c38bd772e3d846fab7af" target="_top" xlink:title="Write the output files.">
<polygon fill="white" stroke="#666666" points="287.5,-19 245.5,-19 245.5,0 287.5,0 287.5,-19"/>
<text text-anchor="middle" x="266.5" y="-7" font-family="Helvetica,sans-Serif" font-size="10.00">fileout</text>
</a>
</g>
</g>
<!-- Node3&#45;&gt;Node8 -->
<g id="edge7" class="edge">
<title>Node3&#45;&gt;Node8</title>
<path fill="none" stroke="#63b8ff" d="M317.3,-32.86C307.4,-28.22 296.72,-23.21 287.8,-19.02"/>
<polygon fill="#63b8ff" stroke="#63b8ff" points="315.68,-36.44 326.22,-37.52 318.65,-30.1 315.68,-36.44"/>
</g>
<!-- Node5 -->
<g id="node5" class="node">
<title>Node5</title>
<g id="a_node5"><a xlink:href="../../d7/d46/eqsolve_8f90.html#ab740b09d1b651e2ab8a60c5d552df0c2" target="_top" xlink:title="Iteratively evolve the Fourier coefficients that specify the equilibrium.">
<polygon fill="white" stroke="#666666" points="208,-57 158,-57 158,-38 208,-38 208,-57"/>
<text text-anchor="middle" x="183" y="-45" font-family="Helvetica,sans-Serif" font-size="10.00">eqsolve</text>
</a>
</g>
</g>
<!-- Node4&#45;&gt;Node5 -->
<g id="edge4" class="edge">
<title>Node4&#45;&gt;Node5</title>
<path fill="none" stroke="#63b8ff" d="M232.67,-47.5C224.6,-47.5 216.09,-47.5 208.49,-47.5"/>
<polygon fill="#63b8ff" stroke="#63b8ff" points="232.66,-51 242.66,-47.5 232.66,-44 232.66,-51"/>
</g>
<!-- Node6 -->
<g id="node6" class="node">
<title>Node6</title>
<g id="a_node6"><a xlink:href="../../db/d61/vmec_8f90.html#a6d38ab7be2f9d818da4541e1d352ea23" target="_top" xlink:title="Main driver for VMEC.">
<polygon fill="white" stroke="#666666" points="122,-38 81,-38 81,-19 122,-19 122,-38"/>
<text text-anchor="middle" x="101.5" y="-26" font-family="Helvetica,sans-Serif" font-size="10.00">vmec</text>
</a>
</g>
</g>
<!-- Node5&#45;&gt;Node6 -->
<g id="edge5" class="edge">
<title>Node5&#45;&gt;Node6</title>
<path fill="none" stroke="#63b8ff" d="M147.22,-39.19C138.72,-37.16 129.9,-35.05 122.37,-33.25"/>
<polygon fill="#63b8ff" stroke="#63b8ff" points="146.18,-42.78 156.72,-41.7 147.8,-35.97 146.18,-42.78"/>
</g>
<!-- Node7 -->
<g id="node7" class="node">
<title>Node7</title>
<g id="a_node7"><a xlink:href="../../db/d61/vmec_8f90.html#ace5bdf043bb85c8f0a9fc582bdb55725" target="_top" xlink:title="Main program of VMEC.">
<polygon fill="white" stroke="#666666" points="45,-38 0,-38 0,-19 45,-19 45,-38"/>
<text text-anchor="middle" x="22.5" y="-26" font-family="Helvetica,sans-Serif" font-size="10.00">xvmec</text>
</a>
</g>
</g>
<!-- Node6&#45;&gt;Node7 -->
<g id="edge6" class="edge">
<title>Node6&#45;&gt;Node7</title>
<path fill="none" stroke="#63b8ff" d="M69.67,-28.5C61.56,-28.5 52.97,-28.5 45.43,-28.5"/>
<polygon fill="#63b8ff" stroke="#63b8ff" points="69.67,-32 79.67,-28.5 69.67,-25 69.67,-32"/>
</g>
<!-- Node8&#45;&gt;Node6 -->
<g id="edge8" class="edge">
<title>Node8&#45;&gt;Node6</title>
<path fill="none" stroke="#63b8ff" d="M234.33,-13.13C201.32,-16.98 150.19,-22.94 122.3,-26.19"/>
<polygon fill="#63b8ff" stroke="#63b8ff" points="234.66,-16.5 244.19,-11.87 233.85,-9.55 234.66,-16.5"/>
</g>
<!-- Node9&#45;&gt;Node8 -->
<g id="edge10" class="edge">
<title>Node9&#45;&gt;Node8</title>
<path fill="none" stroke="#63b8ff" d="M319.35,-9.5C308.9,-9.5 297.34,-9.5 287.8,-9.5"/>
<polygon fill="#63b8ff" stroke="#63b8ff" points="319.12,-13 329.12,-9.5 319.12,-6 319.12,-13"/>
</g>
</g>
</svg>
