<?xml version="1.0" encoding="UTF-8" standalone="no"?>
<!DOCTYPE svg PUBLIC "-//W3C//DTD SVG 1.1//EN"
 "http://www.w3.org/Graphics/SVG/1.1/DTD/svg11.dtd">
<!-- Generated by graphviz version 7.1.0 (20230121.1956)
 -->
<!-- Title: bextern Pages: 1 -->
<svg width="221pt" height="119pt"
 viewBox="0.00 0.00 221.00 119.00" xmlns="http://www.w3.org/2000/svg" xmlns:xlink="http://www.w3.org/1999/xlink">
<g id="graph0" class="graph" transform="scale(1 1) rotate(0) translate(4 115)">
<title>bextern</title>
<!-- Node1 -->
<g id="node1" class="node">
<title>Node1</title>
<g id="a_node1"><a xlink:title="Compute the total magnetic field due to external coils and the net toroidal plasma current.">
<polygon fill="#999999" stroke="#666666" points="48,-74 0,-74 0,-55 48,-55 48,-74"/>
<text text-anchor="middle" x="24" y="-62" font-family="Helvetica,sans-Serif" font-size="10.00">bextern</text>
</a>
</g>
</g>
<!-- Node2 -->
<g id="node2" class="node">
<title>Node2</title>
<g id="a_node2"><a xlink:href="../../d6/dc7/becoil_8f90.html#a449b054fb88bdb4cdf73ef8939654bfb" target="_top" xlink:title="Compute the cylindrical components of the magnetic field due to external coils. by bi&#45;linear interpol...">
<polygon fill="white" stroke="#666666" points="169.5,-111 127.5,-111 127.5,-92 169.5,-92 169.5,-111"/>
<text text-anchor="middle" x="148.5" y="-99" font-family="Helvetica,sans-Serif" font-size="10.00">becoil</text>
</a>
</g>
</g>
<!-- Node1&#45;&gt;Node2 -->
<g id="edge1" class="edge">
<title>Node1&#45;&gt;Node2</title>
<path fill="none" stroke="#63b8ff" d="M48.48,-72.27C59.27,-75.79 72.26,-79.95 84,-83.5 94.44,-86.66 105.89,-89.96 116.16,-92.85"/>
<polygon fill="#63b8ff" stroke="#63b8ff" points="115.11,-96.19 125.68,-95.52 117,-89.45 115.11,-96.19"/>
</g>
<!-- Node3 -->
<g id="node3" class="node">
<title>Node3</title>
<g id="a_node3"><a xlink:href="../../d9/dda/belicu_8f90.html#a53e6f162ca96069b8d93e131069ddf5d" target="_top" xlink:title="Magnetic field due to net toroidal current modeled by a filament along the magnetic axis.">
<polygon fill="white" stroke="#666666" points="169.5,-74 127.5,-74 127.5,-55 169.5,-55 169.5,-74"/>
<text text-anchor="middle" x="148.5" y="-62" font-family="Helvetica,sans-Serif" font-size="10.00">belicu</text>
</a>
</g>
</g>
<!-- Node1&#45;&gt;Node3 -->
<g id="edge2" class="edge">
<title>Node1&#45;&gt;Node3</title>
<path fill="none" stroke="#63b8ff" d="M48.33,-64.5C67.45,-64.5 94.7,-64.5 115.8,-64.5"/>
<polygon fill="#63b8ff" stroke="#63b8ff" points="115.59,-68 125.59,-64.5 115.59,-61 115.59,-68"/>
</g>
<!-- Node4 -->
<g id="node4" class="node">
<title>Node4</title>
<g id="a_node4"><a xlink:href="../../d8/dfd/namespacedbgout.html#acdd1612a38e44b6469dc03d9d1c6ceed" target="_top" xlink:title="check if any output is desired for the current iteration check if the given context should be openend...">
<polygon fill="white" stroke="#666666" points="213,-19 84,-19 84,0 213,0 213,-19"/>
<text text-anchor="middle" x="148.5" y="-7" font-family="Helvetica,sans-Serif" font-size="10.00">dbgout::open_dbg_context</text>
</a>
</g>
</g>
<!-- Node1&#45;&gt;Node4 -->
<g id="edge3" class="edge">
<title>Node1&#45;&gt;Node4</title>
<path fill="none" stroke="#63b8ff" d="M47.18,-54.54C66.18,-46.01 93.77,-33.62 115.21,-24"/>
<polygon fill="#63b8ff" stroke="#63b8ff" points="116.41,-27.29 124.1,-20.01 113.54,-20.91 116.41,-27.29"/>
</g>
<!-- Node4&#45;&gt;Node4 -->
<g id="edge4" class="edge">
<title>Node4&#45;&gt;Node4</title>
<path fill="none" stroke="#63b8ff" d="M129.01,-19.37C120.12,-27.94 126.62,-37 148.5,-37 160.47,-37 167.83,-34.29 170.6,-30.43"/>
<polygon fill="#63b8ff" stroke="#63b8ff" points="174.04,-29.77 168.34,-20.84 167.23,-31.38 174.04,-29.77"/>
</g>
</g>
</svg>
