<?xml version="1.0" encoding="UTF-8" standalone="no"?>
<!DOCTYPE svg PUBLIC "-//W3C//DTD SVG 1.1//EN"
 "http://www.w3.org/Graphics/SVG/1.1/DTD/svg11.dtd">
<!-- Generated by graphviz version 2.50.0 (20220203.2022)
 -->
<!-- Title: bextern Pages: 1 -->
<svg width="221pt" height="122pt"
 viewBox="0.00 0.00 221.00 122.00" xmlns="http://www.w3.org/2000/svg" xmlns:xlink="http://www.w3.org/1999/xlink">
<g id="graph0" class="graph" transform="scale(1 1) rotate(0) translate(4 118)">
<title>bextern</title>
<polygon fill="white" stroke="transparent" points="-4,4 -4,-118 217,-118 217,4 -4,4"/>
<!-- Node1 -->
<g id="node1" class="node">
<title>Node1</title>
<g id="a_node1"><a xlink:title="Compute the total magnetic field due to external coils and the net toroidal plasma current.">
<polygon fill="#bfbfbf" stroke="black" points="0,-56.5 0,-75.5 48,-75.5 48,-56.5 0,-56.5"/>
<text text-anchor="middle" x="24" y="-63.5" font-family="Helvetica,sans-Serif" font-size="10.00">bextern</text>
</a>
</g>
</g>
<!-- Node2 -->
<g id="node2" class="node">
<title>Node2</title>
<g id="a_node2"><a xlink:href="../../d6/dc7/becoil_8f90.html#a449b054fb88bdb4cdf73ef8939654bfb" target="_top" xlink:title="Compute the cylindrical components of the magnetic field due to external coils. by bi&#45;linear interpol...">
<polygon fill="white" stroke="black" points="127.5,-94.5 127.5,-113.5 169.5,-113.5 169.5,-94.5 127.5,-94.5"/>
<text text-anchor="middle" x="148.5" y="-101.5" font-family="Helvetica,sans-Serif" font-size="10.00">becoil</text>
</a>
</g>
</g>
<!-- Node1&#45;&gt;Node2 -->
<g id="edge1" class="edge">
<title>Node1&#45;&gt;Node2</title>
<path fill="none" stroke="midnightblue" d="M48.22,-73.6C59.08,-77.12 72.18,-81.33 84,-85 94.99,-88.41 107.09,-92.06 117.75,-95.24"/>
<polygon fill="midnightblue" stroke="midnightblue" points="116.87,-98.63 127.45,-98.12 118.86,-91.92 116.87,-98.63"/>
</g>
<!-- Node3 -->
<g id="node3" class="node">
<title>Node3</title>
<g id="a_node3"><a xlink:href="../../d9/dda/belicu_8f90.html#a53e6f162ca96069b8d93e131069ddf5d" target="_top" xlink:title="Magnetic field due to net toroidal current modeled by a filament along the magnetic axis.">
<polygon fill="white" stroke="black" points="127.5,-56.5 127.5,-75.5 169.5,-75.5 169.5,-56.5 127.5,-56.5"/>
<text text-anchor="middle" x="148.5" y="-63.5" font-family="Helvetica,sans-Serif" font-size="10.00">belicu</text>
</a>
</g>
</g>
<!-- Node1&#45;&gt;Node3 -->
<g id="edge2" class="edge">
<title>Node1&#45;&gt;Node3</title>
<path fill="none" stroke="midnightblue" d="M48.04,-66C67.61,-66 95.83,-66 117.22,-66"/>
<polygon fill="midnightblue" stroke="midnightblue" points="117.4,-69.5 127.4,-66 117.4,-62.5 117.4,-69.5"/>
</g>
<!-- Node4 -->
<g id="node4" class="node">
<title>Node4</title>
<g id="a_node4"><a xlink:href="../../d8/dfd/namespacedbgout.html#acdd1612a38e44b6469dc03d9d1c6ceed" target="_top" xlink:title="check if any output is desired for the current iteration check if the given context should be openend...">
<polygon fill="white" stroke="black" points="84,-0.5 84,-19.5 213,-19.5 213,-0.5 84,-0.5"/>
<text text-anchor="middle" x="148.5" y="-7.5" font-family="Helvetica,sans-Serif" font-size="10.00">dbgout::open_dbg_context</text>
</a>
</g>
</g>
<!-- Node1&#45;&gt;Node4 -->
<g id="edge3" class="edge">
<title>Node1&#45;&gt;Node4</title>
<path fill="none" stroke="midnightblue" d="M46.06,-56.37C65.72,-47.38 95.28,-33.87 117.43,-23.75"/>
<polygon fill="midnightblue" stroke="midnightblue" points="119.08,-26.84 126.72,-19.5 116.17,-20.48 119.08,-26.84"/>
</g>
<!-- Node4&#45;&gt;Node4 -->
<g id="edge4" class="edge">
<title>Node4&#45;&gt;Node4</title>
<path fill="none" stroke="midnightblue" d="M129.39,-19.76C120.09,-28.57 126.46,-38 148.5,-38 162.62,-38 170.31,-34.13 171.57,-29.03"/>
<polygon fill="midnightblue" stroke="midnightblue" points="174.75,-27.58 167.61,-19.76 168.31,-30.33 174.75,-27.58"/>
</g>
</g>
</svg>
