<?xml version="1.0" encoding="UTF-8" standalone="no"?>
<!DOCTYPE svg PUBLIC "-//W3C//DTD SVG 1.1//EN"
 "http://www.w3.org/Graphics/SVG/1.1/DTD/svg11.dtd">
<!-- Generated by graphviz version 12.0.0 (20240704.0754)
 -->
<!-- Title: bextern Pages: 1 -->
<svg width="220pt" height="119pt"
 viewBox="0.00 0.00 220.00 119.25" xmlns="http://www.w3.org/2000/svg" xmlns:xlink="http://www.w3.org/1999/xlink">
<g id="graph0" class="graph" transform="scale(1 1) rotate(0) translate(4 115.25)">
<title>bextern</title>
<!-- Node1 -->
<g id="Node000001" class="node">
<title>Node1</title>
<g id="a_Node000001"><a xlink:title="Compute the total magnetic field due to external coils and the net toroidal plasma current.">
<polygon fill="#999999" stroke="#666666" points="47.5,-74.25 0,-74.25 0,-55 47.5,-55 47.5,-74.25"/>
<text text-anchor="middle" x="23.75" y="-60.75" font-family="Helvetica,sans-Serif" font-size="10.00">bextern</text>
</a>
</g>
</g>
<!-- Node2 -->
<g id="Node000002" class="node">
<title>Node2</title>
<g id="a_Node000002"><a xlink:href="../../d6/dc7/becoil_8f90.html#a449b054fb88bdb4cdf73ef8939654bfb" target="_top" xlink:title="Compute the cylindrical components of the magnetic field due to external coils. by bi&#45;linear interpol...">
<polygon fill="white" stroke="#666666" points="168.5,-111.25 127,-111.25 127,-92 168.5,-92 168.5,-111.25"/>
<text text-anchor="middle" x="147.75" y="-97.75" font-family="Helvetica,sans-Serif" font-size="10.00">becoil</text>
</a>
</g>
</g>
<!-- Node1&#45;&gt;Node2 -->
<g id="edge1_Node000001_Node000002" class="edge">
<title>Node1&#45;&gt;Node2</title>
<g id="a_edge1_Node000001_Node000002"><a xlink:title=" ">
<path fill="none" stroke="#63b8ff" d="M47.85,-72.31C58.65,-75.84 71.7,-80.04 83.5,-83.62 93.98,-86.81 105.48,-90.13 115.77,-93.05"/>
<polygon fill="#63b8ff" stroke="#63b8ff" points="114.72,-96.39 125.3,-95.72 116.62,-89.65 114.72,-96.39"/>
</a>
</g>
</g>
<!-- Node3 -->
<g id="Node000003" class="node">
<title>Node3</title>
<g id="a_Node000003"><a xlink:href="../../d9/dda/belicu_8f90.html#a53e6f162ca96069b8d93e131069ddf5d" target="_top" xlink:title="Magnetic field due to net toroidal current modeled by a filament along the magnetic axis.">
<polygon fill="white" stroke="#666666" points="168.5,-74.25 127,-74.25 127,-55 168.5,-55 168.5,-74.25"/>
<text text-anchor="middle" x="147.75" y="-60.75" font-family="Helvetica,sans-Serif" font-size="10.00">belicu</text>
</a>
</g>
</g>
<!-- Node1&#45;&gt;Node3 -->
<g id="edge2_Node000001_Node000003" class="edge">
<title>Node1&#45;&gt;Node3</title>
<g id="a_edge2_Node000001_Node000003"><a xlink:title=" ">
<path fill="none" stroke="#63b8ff" d="M47.98,-64.62C67.15,-64.62 94.5,-64.62 115.57,-64.62"/>
<polygon fill="#63b8ff" stroke="#63b8ff" points="115.32,-68.13 125.32,-64.63 115.32,-61.13 115.32,-68.13"/>
</a>
</g>
</g>
<!-- Node4 -->
<g id="Node000004" class="node">
<title>Node4</title>
<g id="a_Node000004"><a xlink:href="../../d8/dfd/namespacedbgout.html#acdd1612a38e44b6469dc03d9d1c6ceed" target="_top" xlink:title="check if any output is desired for the current iteration check if the given context should be openend...">
<polygon fill="white" stroke="#666666" points="212,-19.25 83.5,-19.25 83.5,0 212,0 212,-19.25"/>
<text text-anchor="middle" x="147.75" y="-5.75" font-family="Helvetica,sans-Serif" font-size="10.00">dbgout::open_dbg_context</text>
</a>
</g>
</g>
<!-- Node1&#45;&gt;Node4 -->
<g id="edge3_Node000001_Node000004" class="edge">
<title>Node1&#45;&gt;Node4</title>
<g id="a_edge3_Node000001_Node000004"><a xlink:title=" ">
<path fill="none" stroke="#63b8ff" d="M47.13,-54.54C65.87,-46.09 92.88,-33.91 114.05,-24.37"/>
<polygon fill="#63b8ff" stroke="#63b8ff" points="115.46,-27.57 123.14,-20.27 112.58,-21.19 115.46,-27.57"/>
</a>
</g>
</g>
<!-- Node4&#45;&gt;Node4 -->
<g id="edge4_Node000004_Node000004" class="edge">
<title>Node4&#45;&gt;Node4</title>
<g id="a_edge4_Node000004_Node000004"><a xlink:title=" ">
<path fill="none" stroke="#63b8ff" d="M128.34,-19.54C119.48,-28.15 125.95,-37.25 147.75,-37.25 159.67,-37.25 167.01,-34.53 169.76,-30.65"/>
<polygon fill="#63b8ff" stroke="#63b8ff" points="173.19,-29.95 167.51,-21.01 166.37,-31.55 173.19,-29.95"/>
</a>
</g>
</g>
</g>
</svg>
