<?xml version="1.0" encoding="UTF-8" standalone="no"?>
<!DOCTYPE svg PUBLIC "-//W3C//DTD SVG 1.1//EN"
 "http://www.w3.org/Graphics/SVG/1.1/DTD/svg11.dtd">
<!-- Generated by graphviz version 2.49.3 (20211027.1501)
 -->
<!-- Title: residue_mhd Pages: 1 -->
<svg width="356pt" height="161pt"
 viewBox="0.00 0.00 356.00 161.00" xmlns="http://www.w3.org/2000/svg" xmlns:xlink="http://www.w3.org/1999/xlink">
<g id="graph0" class="graph" transform="scale(1 1) rotate(0) translate(4 157)">
<title>residue_mhd</title>
<polygon fill="white" stroke="transparent" points="-4,4 -4,-157 352,-157 352,4 -4,4"/>
<!-- Node1 -->
<g id="node1" class="node">
<title>Node1</title>
<g id="a_node1"><a xlink:title="Compute invariant residuals.">
<polygon fill="#bfbfbf" stroke="black" points="0,-76.5 0,-95.5 72,-95.5 72,-76.5 0,-76.5"/>
<text text-anchor="middle" x="36" y="-83.5" font-family="Helvetica,sans-Serif" font-size="10.00">residue_mhd</text>
</a>
</g>
</g>
<!-- Node2 -->
<g id="node2" class="node">
<title>Node2</title>
<g id="a_node2"><a xlink:href="../../db/d5a/residue_8f90.html#a29cc4a06a22a55dc9b1bf7252ebcc9ed" target="_top" xlink:title="Compute internal gr , gz required for &#160;constraint.">
<polygon fill="white" stroke="black" points="108,-133.5 108,-152.5 183,-152.5 183,-133.5 108,-133.5"/>
<text text-anchor="middle" x="145.5" y="-140.5" font-family="Helvetica,sans-Serif" font-size="10.00">constrain_m1</text>
</a>
</g>
</g>
<!-- Node1&#45;&gt;Node2 -->
<g id="edge1" class="edge">
<title>Node1&#45;&gt;Node2</title>
<path fill="none" stroke="midnightblue" d="M54.77,-95.58C69.11,-103.3 89.82,-114.41 108,-124 110.91,-125.53 113.95,-127.13 116.98,-128.72"/>
<polygon fill="midnightblue" stroke="midnightblue" points="115.42,-131.85 125.91,-133.38 118.66,-125.65 115.42,-131.85"/>
</g>
<!-- Node3 -->
<g id="node3" class="node">
<title>Node3</title>
<g id="a_node3"><a xlink:href="../../d3/d3a/getfsq_8f90.html#a7b636db95ff23aaea849bd65fba7aa2e" target="_top" xlink:title="Compute total force residual on flux surfaces.">
<polygon fill="white" stroke="black" points="123.5,-95.5 123.5,-114.5 167.5,-114.5 167.5,-95.5 123.5,-95.5"/>
<text text-anchor="middle" x="145.5" y="-102.5" font-family="Helvetica,sans-Serif" font-size="10.00">getfsq</text>
</a>
</g>
</g>
<!-- Node1&#45;&gt;Node3 -->
<g id="edge2" class="edge">
<title>Node1&#45;&gt;Node3</title>
<path fill="none" stroke="midnightblue" d="M72.2,-92.22C85.4,-94.55 100.31,-97.19 113.14,-99.46"/>
<polygon fill="midnightblue" stroke="midnightblue" points="112.89,-102.97 123.35,-101.26 114.11,-96.07 112.89,-102.97"/>
</g>
<!-- Node4 -->
<g id="node4" class="node">
<title>Node4</title>
<g id="a_node4"><a xlink:href="../../db/d5a/residue_8f90.html#aaf8d684a58b8bf9dfdecfdb925960780" target="_top" xlink:title="Compute internal gr , gz required for &#160;constraint.">
<polygon fill="white" stroke="black" points="116,-57.5 116,-76.5 175,-76.5 175,-57.5 116,-57.5"/>
<text text-anchor="middle" x="145.5" y="-64.5" font-family="Helvetica,sans-Serif" font-size="10.00">scale_m1</text>
</a>
</g>
</g>
<!-- Node1&#45;&gt;Node4 -->
<g id="edge3" class="edge">
<title>Node1&#45;&gt;Node4</title>
<path fill="none" stroke="midnightblue" d="M72.2,-79.78C82.87,-77.89 94.66,-75.81 105.56,-73.88"/>
<polygon fill="midnightblue" stroke="midnightblue" points="106.44,-77.28 115.68,-72.09 105.22,-70.39 106.44,-77.28"/>
</g>
<!-- Node5 -->
<g id="node5" class="node">
<title>Node5</title>
<g id="a_node5"><a xlink:href="../../d8/d86/scalfor_8f90.html#a2ef9c34d20ddf30cb7b15fe35066b8ca" target="_top" xlink:title="Build forces from different contributions.">
<polygon fill="white" stroke="black" points="122.5,-19.5 122.5,-38.5 168.5,-38.5 168.5,-19.5 122.5,-19.5"/>
<text text-anchor="middle" x="145.5" y="-26.5" font-family="Helvetica,sans-Serif" font-size="10.00">scalfor</text>
</a>
</g>
</g>
<!-- Node1&#45;&gt;Node5 -->
<g id="edge4" class="edge">
<title>Node1&#45;&gt;Node5</title>
<path fill="none" stroke="midnightblue" d="M54.77,-76.42C69.11,-68.7 89.82,-57.59 108,-48 110.91,-46.47 113.95,-44.87 116.98,-43.28"/>
<polygon fill="midnightblue" stroke="midnightblue" points="118.66,-46.35 125.91,-38.62 115.42,-40.15 118.66,-46.35"/>
</g>
<!-- Node6 -->
<g id="node6" class="node">
<title>Node6</title>
<g id="a_node6"><a xlink:href="../../d8/dfd/namespacedbgout.html#af9a9deb4fdfe84878a6e319b15221492" target="_top" xlink:title=" ">
<polygon fill="white" stroke="black" points="219,-38.5 219,-57.5 348,-57.5 348,-38.5 219,-38.5"/>
<text text-anchor="middle" x="283.5" y="-45.5" font-family="Helvetica,sans-Serif" font-size="10.00">dbgout::open_dbg_context</text>
</a>
</g>
</g>
<!-- Node5&#45;&gt;Node6 -->
<g id="edge5" class="edge">
<title>Node5&#45;&gt;Node6</title>
<path fill="none" stroke="midnightblue" d="M168.65,-32.09C179.84,-33.66 194.14,-35.66 208.79,-37.7"/>
<polygon fill="midnightblue" stroke="midnightblue" points="208.56,-41.2 218.95,-39.12 209.53,-34.27 208.56,-41.2"/>
</g>
<!-- Node7 -->
<g id="node7" class="node">
<title>Node7</title>
<g id="a_node7"><a xlink:href="../../db/d40/tridslv_8f90.html#abf5399c0154abe7424c54d7fa9eb69db" target="_top" xlink:title="Solve a tridiagonal system of equations.">
<polygon fill="white" stroke="black" points="262,-0.5 262,-19.5 305,-19.5 305,-0.5 262,-0.5"/>
<text text-anchor="middle" x="283.5" y="-7.5" font-family="Helvetica,sans-Serif" font-size="10.00">tridslv</text>
</a>
</g>
</g>
<!-- Node5&#45;&gt;Node7 -->
<g id="edge7" class="edge">
<title>Node5&#45;&gt;Node7</title>
<path fill="none" stroke="midnightblue" d="M168.65,-25.91C191.18,-22.76 226.26,-17.86 251.53,-14.33"/>
<polygon fill="midnightblue" stroke="midnightblue" points="252.28,-17.76 261.7,-12.91 251.31,-10.82 252.28,-17.76"/>
</g>
<!-- Node6&#45;&gt;Node6 -->
<g id="edge6" class="edge">
<title>Node6&#45;&gt;Node6</title>
<path fill="none" stroke="midnightblue" d="M262.23,-57.76C251.88,-66.57 258.97,-76 283.5,-76 299.21,-76 307.77,-72.13 309.17,-67.03"/>
<polygon fill="midnightblue" stroke="midnightblue" points="312.22,-65.29 304.77,-57.76 305.89,-68.29 312.22,-65.29"/>
</g>
</g>
</svg>
