<?xml version="1.0" encoding="UTF-8" standalone="no"?>
<!DOCTYPE svg PUBLIC "-//W3C//DTD SVG 1.1//EN"
 "http://www.w3.org/Graphics/SVG/1.1/DTD/svg11.dtd">
<!-- Generated by graphviz version 2.49.3 (20211027.1501)
 -->
<!-- Title: residue_mhd Pages: 1 -->
<svg width="270pt" height="142pt"
 viewBox="0.00 0.00 270.00 142.00" xmlns="http://www.w3.org/2000/svg" xmlns:xlink="http://www.w3.org/1999/xlink">
<g id="graph0" class="graph" transform="scale(1 1) rotate(0) translate(4 138)">
<title>residue_mhd</title>
<polygon fill="white" stroke="transparent" points="-4,4 -4,-138 266,-138 266,4 -4,4"/>
<!-- Node1 -->
<g id="node1" class="node">
<title>Node1</title>
<g id="a_node1"><a xlink:title="Compute invariant residuals.">
<polygon fill="#bfbfbf" stroke="black" points="0,-57.5 0,-76.5 72,-76.5 72,-57.5 0,-57.5"/>
<text text-anchor="middle" x="36" y="-64.5" font-family="Helvetica,sans-Serif" font-size="10.00">residue_mhd</text>
</a>
</g>
</g>
<!-- Node2 -->
<g id="node2" class="node">
<title>Node2</title>
<g id="a_node2"><a xlink:href="../../db/d5a/residue_8f90.html#a29cc4a06a22a55dc9b1bf7252ebcc9ed" target="_top" xlink:title="Compute internal gr , gz required for &#160;constraint.">
<polygon fill="white" stroke="black" points="108,-114.5 108,-133.5 183,-133.5 183,-114.5 108,-114.5"/>
<text text-anchor="middle" x="145.5" y="-121.5" font-family="Helvetica,sans-Serif" font-size="10.00">constrain_m1</text>
</a>
</g>
</g>
<!-- Node1&#45;&gt;Node2 -->
<g id="edge1" class="edge">
<title>Node1&#45;&gt;Node2</title>
<path fill="none" stroke="midnightblue" d="M54.77,-76.58C69.11,-84.3 89.82,-95.41 108,-105 110.91,-106.53 113.95,-108.13 116.98,-109.72"/>
<polygon fill="midnightblue" stroke="midnightblue" points="115.42,-112.85 125.91,-114.38 118.66,-106.65 115.42,-112.85"/>
</g>
<!-- Node3 -->
<g id="node3" class="node">
<title>Node3</title>
<g id="a_node3"><a xlink:href="../../d3/d3a/getfsq_8f90.html#a7b636db95ff23aaea849bd65fba7aa2e" target="_top" xlink:title="Compute total force residual on flux surfaces.">
<polygon fill="white" stroke="black" points="123.5,-76.5 123.5,-95.5 167.5,-95.5 167.5,-76.5 123.5,-76.5"/>
<text text-anchor="middle" x="145.5" y="-83.5" font-family="Helvetica,sans-Serif" font-size="10.00">getfsq</text>
</a>
</g>
</g>
<!-- Node1&#45;&gt;Node3 -->
<g id="edge2" class="edge">
<title>Node1&#45;&gt;Node3</title>
<path fill="none" stroke="midnightblue" d="M72.2,-73.22C85.4,-75.55 100.31,-78.19 113.14,-80.46"/>
<polygon fill="midnightblue" stroke="midnightblue" points="112.89,-83.97 123.35,-82.26 114.11,-77.07 112.89,-83.97"/>
</g>
<!-- Node4 -->
<g id="node4" class="node">
<title>Node4</title>
<g id="a_node4"><a xlink:href="../../db/d5a/residue_8f90.html#aaf8d684a58b8bf9dfdecfdb925960780" target="_top" xlink:title="Compute internal gr , gz required for &#160;constraint.">
<polygon fill="white" stroke="black" points="116,-38.5 116,-57.5 175,-57.5 175,-38.5 116,-38.5"/>
<text text-anchor="middle" x="145.5" y="-45.5" font-family="Helvetica,sans-Serif" font-size="10.00">scale_m1</text>
</a>
</g>
</g>
<!-- Node1&#45;&gt;Node4 -->
<g id="edge3" class="edge">
<title>Node1&#45;&gt;Node4</title>
<path fill="none" stroke="midnightblue" d="M72.2,-60.78C82.87,-58.89 94.66,-56.81 105.56,-54.88"/>
<polygon fill="midnightblue" stroke="midnightblue" points="106.44,-58.28 115.68,-53.09 105.22,-51.39 106.44,-58.28"/>
</g>
<!-- Node5 -->
<g id="node5" class="node">
<title>Node5</title>
<g id="a_node5"><a xlink:href="../../d8/d86/scalfor_8f90.html#a20fb7039b82d05e64d01a2e50431ba5e" target="_top" xlink:title="Build forces from different contributions.">
<polygon fill="white" stroke="black" points="122.5,-0.5 122.5,-19.5 168.5,-19.5 168.5,-0.5 122.5,-0.5"/>
<text text-anchor="middle" x="145.5" y="-7.5" font-family="Helvetica,sans-Serif" font-size="10.00">scalfor</text>
</a>
</g>
</g>
<!-- Node1&#45;&gt;Node5 -->
<g id="edge4" class="edge">
<title>Node1&#45;&gt;Node5</title>
<path fill="none" stroke="midnightblue" d="M54.77,-57.42C69.11,-49.7 89.82,-38.59 108,-29 110.91,-27.47 113.95,-25.87 116.98,-24.28"/>
<polygon fill="midnightblue" stroke="midnightblue" points="118.66,-27.35 125.91,-19.62 115.42,-21.15 118.66,-27.35"/>
</g>
<!-- Node6 -->
<g id="node6" class="node">
<title>Node6</title>
<g id="a_node6"><a xlink:href="../../db/d40/tridslv_8f90.html#abf5399c0154abe7424c54d7fa9eb69db" target="_top" xlink:title="Solve a tridiagonal system of equations.">
<polygon fill="white" stroke="black" points="219,-0.5 219,-19.5 262,-19.5 262,-0.5 219,-0.5"/>
<text text-anchor="middle" x="240.5" y="-7.5" font-family="Helvetica,sans-Serif" font-size="10.00">tridslv</text>
</a>
</g>
</g>
<!-- Node5&#45;&gt;Node6 -->
<g id="edge5" class="edge">
<title>Node5&#45;&gt;Node6</title>
<path fill="none" stroke="midnightblue" d="M168.54,-10C180.58,-10 195.67,-10 208.84,-10"/>
<polygon fill="midnightblue" stroke="midnightblue" points="208.89,-13.5 218.89,-10 208.89,-6.5 208.89,-13.5"/>
</g>
</g>
</svg>
