<?xml version="1.0" encoding="UTF-8" standalone="no"?>
<!DOCTYPE svg PUBLIC "-//W3C//DTD SVG 1.1//EN"
 "http://www.w3.org/Graphics/SVG/1.1/DTD/svg11.dtd">
<!-- Generated by graphviz version 2.49.3 (20211027.1501)
 -->
<!-- Title: residue_mhd Pages: 1 -->
<svg width="356pt" height="180pt"
 viewBox="0.00 0.00 356.00 180.00" xmlns="http://www.w3.org/2000/svg" xmlns:xlink="http://www.w3.org/1999/xlink">
<g id="graph0" class="graph" transform="scale(1 1) rotate(0) translate(4 176)">
<title>residue_mhd</title>
<polygon fill="white" stroke="transparent" points="-4,4 -4,-176 352,-176 352,4 -4,4"/>
<!-- Node1 -->
<g id="node1" class="node">
<title>Node1</title>
<g id="a_node1"><a xlink:title="Compute invariant residuals.">
<polygon fill="#bfbfbf" stroke="black" points="0,-95.5 0,-114.5 72,-114.5 72,-95.5 0,-95.5"/>
<text text-anchor="middle" x="36" y="-102.5" font-family="Helvetica,sans-Serif" font-size="10.00">residue_mhd</text>
</a>
</g>
</g>
<!-- Node2 -->
<g id="node2" class="node">
<title>Node2</title>
<g id="a_node2"><a xlink:href="../../db/d5a/residue_8f90.html#a29cc4a06a22a55dc9b1bf7252ebcc9ed" target="_top" xlink:title="Compute internal gr , gz required for &#160;constraint.">
<polygon fill="white" stroke="black" points="108,-152.5 108,-171.5 183,-171.5 183,-152.5 108,-152.5"/>
<text text-anchor="middle" x="145.5" y="-159.5" font-family="Helvetica,sans-Serif" font-size="10.00">constrain_m1</text>
</a>
</g>
</g>
<!-- Node1&#45;&gt;Node2 -->
<g id="edge1" class="edge">
<title>Node1&#45;&gt;Node2</title>
<path fill="none" stroke="midnightblue" d="M54.77,-114.58C69.11,-122.3 89.82,-133.41 108,-143 110.91,-144.53 113.95,-146.13 116.98,-147.72"/>
<polygon fill="midnightblue" stroke="midnightblue" points="115.42,-150.85 125.91,-152.38 118.66,-144.65 115.42,-150.85"/>
</g>
<!-- Node3 -->
<g id="node3" class="node">
<title>Node3</title>
<g id="a_node3"><a xlink:href="../../d3/d3a/getfsq_8f90.html#a7b636db95ff23aaea849bd65fba7aa2e" target="_top" xlink:title="Compute total force residual on flux surfaces.">
<polygon fill="white" stroke="black" points="123.5,-114.5 123.5,-133.5 167.5,-133.5 167.5,-114.5 123.5,-114.5"/>
<text text-anchor="middle" x="145.5" y="-121.5" font-family="Helvetica,sans-Serif" font-size="10.00">getfsq</text>
</a>
</g>
</g>
<!-- Node1&#45;&gt;Node3 -->
<g id="edge2" class="edge">
<title>Node1&#45;&gt;Node3</title>
<path fill="none" stroke="midnightblue" d="M72.2,-111.22C85.4,-113.55 100.31,-116.19 113.14,-118.46"/>
<polygon fill="midnightblue" stroke="midnightblue" points="112.89,-121.97 123.35,-120.26 114.11,-115.07 112.89,-121.97"/>
</g>
<!-- Node4 -->
<g id="node4" class="node">
<title>Node4</title>
<g id="a_node4"><a xlink:href="../../db/d5a/residue_8f90.html#aaf8d684a58b8bf9dfdecfdb925960780" target="_top" xlink:title="Compute internal gr , gz required for &#160;constraint.">
<polygon fill="white" stroke="black" points="116,-76.5 116,-95.5 175,-95.5 175,-76.5 116,-76.5"/>
<text text-anchor="middle" x="145.5" y="-83.5" font-family="Helvetica,sans-Serif" font-size="10.00">scale_m1</text>
</a>
</g>
</g>
<!-- Node1&#45;&gt;Node4 -->
<g id="edge3" class="edge">
<title>Node1&#45;&gt;Node4</title>
<path fill="none" stroke="midnightblue" d="M72.2,-98.78C82.87,-96.89 94.66,-94.81 105.56,-92.88"/>
<polygon fill="midnightblue" stroke="midnightblue" points="106.44,-96.28 115.68,-91.09 105.22,-89.39 106.44,-96.28"/>
</g>
<!-- Node5 -->
<g id="node5" class="node">
<title>Node5</title>
<g id="a_node5"><a xlink:href="../../d8/d86/scalfor_8f90.html#a20fb7039b82d05e64d01a2e50431ba5e" target="_top" xlink:title="Build forces from different contributions.">
<polygon fill="white" stroke="black" points="122.5,-38.5 122.5,-57.5 168.5,-57.5 168.5,-38.5 122.5,-38.5"/>
<text text-anchor="middle" x="145.5" y="-45.5" font-family="Helvetica,sans-Serif" font-size="10.00">scalfor</text>
</a>
</g>
</g>
<!-- Node1&#45;&gt;Node5 -->
<g id="edge4" class="edge">
<title>Node1&#45;&gt;Node5</title>
<path fill="none" stroke="midnightblue" d="M54.77,-95.42C69.11,-87.7 89.82,-76.59 108,-67 110.91,-65.47 113.95,-63.87 116.98,-62.28"/>
<polygon fill="midnightblue" stroke="midnightblue" points="118.66,-65.35 125.91,-57.62 115.42,-59.15 118.66,-65.35"/>
</g>
<!-- Node6 -->
<g id="node6" class="node">
<title>Node6</title>
<g id="a_node6"><a xlink:href="../../d8/dfd/namespacedbgout.html#a0752528f123b592bc57f687438b75d9b" target="_top" xlink:title=" ">
<polygon fill="white" stroke="black" points="219,-94.5 219,-113.5 348,-113.5 348,-94.5 219,-94.5"/>
<text text-anchor="middle" x="283.5" y="-101.5" font-family="Helvetica,sans-Serif" font-size="10.00">dbgout::open_dbg_context</text>
</a>
</g>
</g>
<!-- Node5&#45;&gt;Node6 -->
<g id="edge5" class="edge">
<title>Node5&#45;&gt;Node6</title>
<path fill="none" stroke="midnightblue" d="M164.71,-57.51C184.34,-67.73 213.52,-82.8 219,-85 224.61,-87.25 230.59,-89.38 236.56,-91.33"/>
<polygon fill="midnightblue" stroke="midnightblue" points="235.92,-94.8 246.51,-94.47 238.02,-88.13 235.92,-94.8"/>
</g>
<!-- Node7 -->
<g id="node7" class="node">
<title>Node7</title>
<g id="a_node7"><a xlink:href="../../d8/dfd/namespacedbgout.html#a0537172e9da0db08b9d29ab8880f0559" target="_top" xlink:title=" ">
<polygon fill="white" stroke="black" points="231,-38.5 231,-57.5 336,-57.5 336,-38.5 231,-38.5"/>
<text text-anchor="middle" x="283.5" y="-45.5" font-family="Helvetica,sans-Serif" font-size="10.00">dbgout::should_write</text>
</a>
</g>
</g>
<!-- Node5&#45;&gt;Node7 -->
<g id="edge6" class="edge">
<title>Node5&#45;&gt;Node7</title>
<path fill="none" stroke="midnightblue" d="M168.65,-48C182.88,-48 202.12,-48 220.72,-48"/>
<polygon fill="midnightblue" stroke="midnightblue" points="220.96,-51.5 230.96,-48 220.96,-44.5 220.96,-51.5"/>
</g>
<!-- Node8 -->
<g id="node8" class="node">
<title>Node8</title>
<g id="a_node8"><a xlink:href="../../db/d40/tridslv_8f90.html#abf5399c0154abe7424c54d7fa9eb69db" target="_top" xlink:title="Solve a tridiagonal system of equations.">
<polygon fill="white" stroke="black" points="262,-0.5 262,-19.5 305,-19.5 305,-0.5 262,-0.5"/>
<text text-anchor="middle" x="283.5" y="-7.5" font-family="Helvetica,sans-Serif" font-size="10.00">tridslv</text>
</a>
</g>
</g>
<!-- Node5&#45;&gt;Node8 -->
<g id="edge8" class="edge">
<title>Node5&#45;&gt;Node8</title>
<path fill="none" stroke="midnightblue" d="M168.65,-41.81C191.28,-35.49 226.58,-25.63 251.87,-18.56"/>
<polygon fill="midnightblue" stroke="midnightblue" points="253.01,-21.88 261.7,-15.81 251.12,-15.13 253.01,-21.88"/>
</g>
<!-- Node7&#45;&gt;Node7 -->
<g id="edge7" class="edge">
<title>Node7&#45;&gt;Node7</title>
<path fill="none" stroke="midnightblue" d="M262.23,-57.76C251.88,-66.57 258.97,-76 283.5,-76 299.21,-76 307.77,-72.13 309.17,-67.03"/>
<polygon fill="midnightblue" stroke="midnightblue" points="312.22,-65.29 304.77,-57.76 305.89,-68.29 312.22,-65.29"/>
</g>
</g>
</svg>
