<?xml version="1.0" encoding="UTF-8" standalone="no"?>
<!DOCTYPE svg PUBLIC "-//W3C//DTD SVG 1.1//EN"
 "http://www.w3.org/Graphics/SVG/1.1/DTD/svg11.dtd">
<!-- Generated by graphviz version 8.0.5 (20230430.1635)
 -->
<!-- Title: residue_mhd Pages: 1 -->
<svg width="355pt" height="156pt"
 viewBox="0.00 0.00 354.50 156.25" xmlns="http://www.w3.org/2000/svg" xmlns:xlink="http://www.w3.org/1999/xlink">
<g id="graph0" class="graph" transform="scale(1 1) rotate(0) translate(4 152.25)">
<title>residue_mhd</title>
<!-- Node1 -->
<g id="Node000001" class="node">
<title>Node1</title>
<g id="a_Node000001"><a xlink:title="Compute invariant residuals.">
<polygon fill="#999999" stroke="#666666" points="71.5,-92.25 0,-92.25 0,-73 71.5,-73 71.5,-92.25"/>
<text text-anchor="middle" x="35.75" y="-78.75" font-family="Helvetica,sans-Serif" font-size="10.00">residue_mhd</text>
</a>
</g>
</g>
<!-- Node2 -->
<g id="Node000002" class="node">
<title>Node2</title>
<g id="a_Node000002"><a xlink:href="../../db/d5a/residue_8f90.html#a29cc4a06a22a55dc9b1bf7252ebcc9ed" target="_top" xlink:title="Compute internal gr , gz required for &#160;constraint.">
<polygon fill="white" stroke="#666666" points="182,-148.25 107.5,-148.25 107.5,-129 182,-129 182,-148.25"/>
<text text-anchor="middle" x="144.75" y="-134.75" font-family="Helvetica,sans-Serif" font-size="10.00">constrain_m1</text>
</a>
</g>
</g>
<!-- Node1&#45;&gt;Node2 -->
<g id="edge1_Node000001_Node000002" class="edge">
<title>Node1&#45;&gt;Node2</title>
<g id="a_edge1_Node000001_Node000002"><a xlink:title=" ">
<path fill="none" stroke="#63b8ff" d="M54.99,-92.63C69.23,-100.39 89.54,-111.35 107.5,-120.62 109.5,-121.66 111.57,-122.71 113.65,-123.77"/>
<polygon fill="#63b8ff" stroke="#63b8ff" points="111.86,-127.29 122.37,-128.65 115,-121.03 111.86,-127.29"/>
</a>
</g>
</g>
<!-- Node3 -->
<g id="Node000003" class="node">
<title>Node3</title>
<g id="a_Node000003"><a xlink:href="../../d3/d3a/getfsq_8f90.html#a7b636db95ff23aaea849bd65fba7aa2e" target="_top" xlink:title="Compute total force residual on flux surfaces.">
<polygon fill="white" stroke="#666666" points="166.25,-111.25 123.25,-111.25 123.25,-92 166.25,-92 166.25,-111.25"/>
<text text-anchor="middle" x="144.75" y="-97.75" font-family="Helvetica,sans-Serif" font-size="10.00">getfsq</text>
</a>
</g>
</g>
<!-- Node1&#45;&gt;Node3 -->
<g id="edge2_Node000001_Node000003" class="edge">
<title>Node1&#45;&gt;Node3</title>
<g id="a_edge2_Node000001_Node000003"><a xlink:title=" ">
<path fill="none" stroke="#63b8ff" d="M71.79,-88.85C84.89,-91.17 99.68,-93.8 112.43,-96.06"/>
<polygon fill="#63b8ff" stroke="#63b8ff" points="111.55,-99.64 122.01,-97.94 112.78,-92.75 111.55,-99.64"/>
</a>
</g>
</g>
<!-- Node4 -->
<g id="Node000004" class="node">
<title>Node4</title>
<g id="a_Node000004"><a xlink:href="../../db/d5a/residue_8f90.html#aaf8d684a58b8bf9dfdecfdb925960780" target="_top" xlink:title="Compute internal gr , gz required for &#160;constraint.">
<polygon fill="white" stroke="#666666" points="173.75,-74.25 115.75,-74.25 115.75,-55 173.75,-55 173.75,-74.25"/>
<text text-anchor="middle" x="144.75" y="-60.75" font-family="Helvetica,sans-Serif" font-size="10.00">scale_m1</text>
</a>
</g>
</g>
<!-- Node1&#45;&gt;Node4 -->
<g id="edge3_Node000001_Node000004" class="edge">
<title>Node1&#45;&gt;Node4</title>
<g id="a_edge3_Node000001_Node000004"><a xlink:title=" ">
<path fill="none" stroke="#63b8ff" d="M71.79,-76.73C82.28,-74.97 93.86,-73.02 104.6,-71.21"/>
<polygon fill="#63b8ff" stroke="#63b8ff" points="105.13,-74.5 114.41,-69.39 103.97,-67.6 105.13,-74.5"/>
</a>
</g>
</g>
<!-- Node5 -->
<g id="Node000005" class="node">
<title>Node5</title>
<g id="a_Node000005"><a xlink:href="../../d8/d86/scalfor_8f90.html#a2ef9c34d20ddf30cb7b15fe35066b8ca" target="_top" xlink:title="Build forces from different contributions.">
<polygon fill="white" stroke="#666666" points="167.38,-37.25 122.12,-37.25 122.12,-18 167.38,-18 167.38,-37.25"/>
<text text-anchor="middle" x="144.75" y="-23.75" font-family="Helvetica,sans-Serif" font-size="10.00">scalfor</text>
</a>
</g>
</g>
<!-- Node1&#45;&gt;Node5 -->
<g id="edge4_Node000001_Node000005" class="edge">
<title>Node1&#45;&gt;Node5</title>
<g id="a_edge4_Node000001_Node000005"><a xlink:title=" ">
<path fill="none" stroke="#63b8ff" d="M55.61,-72.62C69.83,-65.12 89.84,-54.63 107.5,-45.62 109.51,-44.6 111.58,-43.55 113.67,-42.5"/>
<polygon fill="#63b8ff" stroke="#63b8ff" points="115.01,-45.24 122.39,-37.64 111.88,-38.98 115.01,-45.24"/>
</a>
</g>
</g>
<!-- Node6 -->
<g id="Node000006" class="node">
<title>Node6</title>
<g id="a_Node000006"><a xlink:href="../../d8/dfd/namespacedbgout.html#acdd1612a38e44b6469dc03d9d1c6ceed" target="_top" xlink:title="check if any output is desired for the current iteration check if the given context should be openend...">
<polygon fill="white" stroke="#666666" points="346.5,-56.25 218,-56.25 218,-37 346.5,-37 346.5,-56.25"/>
<text text-anchor="middle" x="282.25" y="-42.75" font-family="Helvetica,sans-Serif" font-size="10.00">dbgout::open_dbg_context</text>
</a>
</g>
</g>
<!-- Node5&#45;&gt;Node6 -->
<g id="edge5_Node000005_Node000006" class="edge">
<title>Node5&#45;&gt;Node6</title>
<g id="a_edge5_Node000005_Node000006"><a xlink:title=" ">
<path fill="none" stroke="#63b8ff" d="M167.82,-30.72C178.8,-32.26 192.79,-34.22 207.15,-36.23"/>
<polygon fill="#63b8ff" stroke="#63b8ff" points="206.25,-39.78 216.64,-37.71 207.22,-32.85 206.25,-39.78"/>
</a>
</g>
</g>
<!-- Node7 -->
<g id="Node000007" class="node">
<title>Node7</title>
<g id="a_Node000007"><a xlink:href="../../db/d40/tridslv_8f90.html#abf5399c0154abe7424c54d7fa9eb69db" target="_top" xlink:title="Solve a tridiagonal system of equations.">
<polygon fill="white" stroke="#666666" points="303.38,-19.25 261.12,-19.25 261.12,0 303.38,0 303.38,-19.25"/>
<text text-anchor="middle" x="282.25" y="-5.75" font-family="Helvetica,sans-Serif" font-size="10.00">tridslv</text>
</a>
</g>
</g>
<!-- Node5&#45;&gt;Node7 -->
<g id="edge7_Node000005_Node000007" class="edge">
<title>Node5&#45;&gt;Node7</title>
<g id="a_edge7_Node000005_Node000007"><a xlink:title=" ">
<path fill="none" stroke="#63b8ff" d="M167.82,-24.69C190.19,-21.72 225,-17.1 250.16,-13.76"/>
<polygon fill="#63b8ff" stroke="#63b8ff" points="250.51,-17.11 259.96,-12.32 249.59,-10.17 250.51,-17.11"/>
</a>
</g>
</g>
<!-- Node6&#45;&gt;Node6 -->
<g id="edge6_Node000006_Node000006" class="edge">
<title>Node6&#45;&gt;Node6</title>
<g id="a_edge6_Node000006_Node000006"><a xlink:title=" ">
<path fill="none" stroke="#63b8ff" d="M260.72,-56.54C250.9,-65.15 258.08,-74.25 282.25,-74.25 296.22,-74.25 304.52,-71.21 307.13,-66.98"/>
<polygon fill="#63b8ff" stroke="#63b8ff" points="310.17,-65.99 303.78,-57.54 303.5,-68.13 310.17,-65.99"/>
</a>
</g>
</g>
</g>
</svg>
