<?xml version="1.0" encoding="UTF-8" standalone="no"?>
<!DOCTYPE svg PUBLIC "-//W3C//DTD SVG 1.1//EN"
 "http://www.w3.org/Graphics/SVG/1.1/DTD/svg11.dtd">
<!-- Generated by graphviz version 8.0.1 (20230327.1645)
 -->
<!-- Title: residue_mhd Pages: 1 -->
<svg width="356pt" height="156pt"
 viewBox="0.00 0.00 356.00 156.00" xmlns="http://www.w3.org/2000/svg" xmlns:xlink="http://www.w3.org/1999/xlink">
<g id="graph0" class="graph" transform="scale(1 1) rotate(0) translate(4 152)">
<title>residue_mhd</title>
<!-- Node1 -->
<g id="node1" class="node">
<title>Node1</title>
<g id="a_node1"><a xlink:title="Compute invariant residuals.">
<polygon fill="#999999" stroke="#666666" points="72,-92 0,-92 0,-73 72,-73 72,-92"/>
<text text-anchor="middle" x="36" y="-80" font-family="Helvetica,sans-Serif" font-size="10.00">residue_mhd</text>
</a>
</g>
</g>
<!-- Node2 -->
<g id="node2" class="node">
<title>Node2</title>
<g id="a_node2"><a xlink:href="../../db/d5a/residue_8f90.html#a29cc4a06a22a55dc9b1bf7252ebcc9ed" target="_top" xlink:title="Compute internal gr , gz required for &#160;constraint.">
<polygon fill="white" stroke="#666666" points="183,-148 108,-148 108,-129 183,-129 183,-148"/>
<text text-anchor="middle" x="145.5" y="-136" font-family="Helvetica,sans-Serif" font-size="10.00">constrain_m1</text>
</a>
</g>
</g>
<!-- Node1&#45;&gt;Node2 -->
<g id="edge1" class="edge">
<title>Node1&#45;&gt;Node2</title>
<path fill="none" stroke="#63b8ff" d="M55.01,-92.35C69.31,-100.12 89.85,-111.17 108,-120.5 110.01,-121.53 112.09,-122.59 114.19,-123.65"/>
<polygon fill="#63b8ff" stroke="#63b8ff" points="112.47,-127.2 122.98,-128.53 115.59,-120.93 112.47,-127.2"/>
</g>
<!-- Node3 -->
<g id="node3" class="node">
<title>Node3</title>
<g id="a_node3"><a xlink:href="../../d3/d3a/getfsq_8f90.html#a7b636db95ff23aaea849bd65fba7aa2e" target="_top" xlink:title="Compute total force residual on flux surfaces.">
<polygon fill="white" stroke="#666666" points="167.5,-111 123.5,-111 123.5,-92 167.5,-92 167.5,-111"/>
<text text-anchor="middle" x="145.5" y="-99" font-family="Helvetica,sans-Serif" font-size="10.00">getfsq</text>
</a>
</g>
</g>
<!-- Node1&#45;&gt;Node3 -->
<g id="edge2" class="edge">
<title>Node1&#45;&gt;Node3</title>
<path fill="none" stroke="#63b8ff" d="M72.5,-88.77C85.46,-91.06 100.03,-93.64 112.65,-95.87"/>
<polygon fill="#63b8ff" stroke="#63b8ff" points="111.7,-99.43 122.15,-97.73 112.91,-92.54 111.7,-99.43"/>
</g>
<!-- Node4 -->
<g id="node4" class="node">
<title>Node4</title>
<g id="a_node4"><a xlink:href="../../db/d5a/residue_8f90.html#aaf8d684a58b8bf9dfdecfdb925960780" target="_top" xlink:title="Compute internal gr , gz required for &#160;constraint.">
<polygon fill="white" stroke="#666666" points="175,-74 116,-74 116,-55 175,-55 175,-74"/>
<text text-anchor="middle" x="145.5" y="-62" font-family="Helvetica,sans-Serif" font-size="10.00">scale_m1</text>
</a>
</g>
</g>
<!-- Node1&#45;&gt;Node4 -->
<g id="edge3" class="edge">
<title>Node1&#45;&gt;Node4</title>
<path fill="none" stroke="#63b8ff" d="M72.5,-76.56C82.94,-74.81 94.42,-72.89 105.09,-71.1"/>
<polygon fill="#63b8ff" stroke="#63b8ff" points="105.55,-74.4 114.83,-69.3 104.39,-67.5 105.55,-74.4"/>
</g>
<!-- Node5 -->
<g id="node5" class="node">
<title>Node5</title>
<g id="a_node5"><a xlink:href="../../d8/d86/scalfor_8f90.html#a2ef9c34d20ddf30cb7b15fe35066b8ca" target="_top" xlink:title="Build forces from different contributions.">
<polygon fill="white" stroke="#666666" points="168.5,-37 122.5,-37 122.5,-18 168.5,-18 168.5,-37"/>
<text text-anchor="middle" x="145.5" y="-25" font-family="Helvetica,sans-Serif" font-size="10.00">scalfor</text>
</a>
</g>
</g>
<!-- Node1&#45;&gt;Node5 -->
<g id="edge4" class="edge">
<title>Node1&#45;&gt;Node5</title>
<path fill="none" stroke="#63b8ff" d="M56.22,-72.67C72.7,-64.23 96.7,-51.96 115.52,-42.33"/>
<polygon fill="#63b8ff" stroke="#63b8ff" points="116.78,-45.1 124.09,-37.43 113.59,-38.87 116.78,-45.1"/>
</g>
<!-- Node6 -->
<g id="node6" class="node">
<title>Node6</title>
<g id="a_node6"><a xlink:href="../../d8/dfd/namespacedbgout.html#acdd1612a38e44b6469dc03d9d1c6ceed" target="_top" xlink:title="check if any output is desired for the current iteration check if the given context should be openend...">
<polygon fill="white" stroke="#666666" points="348,-56 219,-56 219,-37 348,-37 348,-56"/>
<text text-anchor="middle" x="283.5" y="-44" font-family="Helvetica,sans-Serif" font-size="10.00">dbgout::open_dbg_context</text>
</a>
</g>
</g>
<!-- Node5&#45;&gt;Node6 -->
<g id="edge5" class="edge">
<title>Node5&#45;&gt;Node6</title>
<path fill="none" stroke="#63b8ff" d="M168.96,-30.64C179.84,-32.16 193.6,-34.08 207.76,-36.06"/>
<polygon fill="#63b8ff" stroke="#63b8ff" points="207.23,-39.66 217.62,-37.58 208.2,-32.72 207.23,-39.66"/>
</g>
<!-- Node7 -->
<g id="node7" class="node">
<title>Node7</title>
<g id="a_node7"><a xlink:href="../../db/d40/tridslv_8f90.html#abf5399c0154abe7424c54d7fa9eb69db" target="_top" xlink:title="Solve a tridiagonal system of equations.">
<polygon fill="white" stroke="#666666" points="305,-19 262,-19 262,0 305,0 305,-19"/>
<text text-anchor="middle" x="283.5" y="-7" font-family="Helvetica,sans-Serif" font-size="10.00">tridslv</text>
</a>
</g>
</g>
<!-- Node5&#45;&gt;Node7 -->
<g id="edge7" class="edge">
<title>Node5&#45;&gt;Node7</title>
<path fill="none" stroke="#63b8ff" d="M168.96,-24.53C191.33,-21.57 225.88,-16.99 251,-13.67"/>
<polygon fill="#63b8ff" stroke="#63b8ff" points="251.34,-17.02 260.79,-12.24 250.42,-10.08 251.34,-17.02"/>
</g>
<!-- Node6&#45;&gt;Node6 -->
<g id="edge6" class="edge">
<title>Node6&#45;&gt;Node6</title>
<path fill="none" stroke="#63b8ff" d="M261.9,-56.37C252.04,-64.94 259.24,-74 283.5,-74 297.52,-74 305.85,-70.97 308.47,-66.76"/>
<polygon fill="#63b8ff" stroke="#63b8ff" points="311.52,-65.8 305.1,-57.37 304.86,-67.96 311.52,-65.8"/>
</g>
</g>
</svg>
