<?xml version="1.0" encoding="UTF-8" standalone="no"?>
<!DOCTYPE svg PUBLIC "-//W3C//DTD SVG 1.1//EN"
 "http://www.w3.org/Graphics/SVG/1.1/DTD/svg11.dtd">
<!-- Generated by graphviz version 7.1.0 (20230121.1956)
 -->
<!-- Title: residue_mhd Pages: 1 -->
<svg width="356pt" height="156pt"
 viewBox="0.00 0.00 356.00 156.00" xmlns="http://www.w3.org/2000/svg" xmlns:xlink="http://www.w3.org/1999/xlink">
<g id="graph0" class="graph" transform="scale(1 1) rotate(0) translate(4 152)">
<title>residue_mhd</title>
<!-- Node1 -->
<g id="node1" class="node">
<title>Node1</title>
<g id="a_node1"><a xlink:title="Compute invariant residuals.">
<polygon fill="#999999" stroke="#666666" points="72,-92 0,-92 0,-73 72,-73 72,-92"/>
<text text-anchor="middle" x="36" y="-80" font-family="Helvetica,sans-Serif" font-size="10.00">residue_mhd</text>
</a>
</g>
</g>
<!-- Node2 -->
<g id="node2" class="node">
<title>Node2</title>
<g id="a_node2"><a xlink:href="../../db/d5a/residue_8f90.html#a29cc4a06a22a55dc9b1bf7252ebcc9ed" target="_top" xlink:title="Compute internal gr , gz required for &#160;constraint.">
<polygon fill="white" stroke="#666666" points="183,-148 108,-148 108,-129 183,-129 183,-148"/>
<text text-anchor="middle" x="145.5" y="-136" font-family="Helvetica,sans-Serif" font-size="10.00">constrain_m1</text>
</a>
</g>
</g>
<!-- Node1&#45;&gt;Node2 -->
<g id="edge1" class="edge">
<title>Node1&#45;&gt;Node2</title>
<path fill="none" stroke="#63b8ff" d="M55.01,-92.35C69.31,-100.12 89.85,-111.17 108,-120.5 109.85,-121.45 111.76,-122.42 113.69,-123.4"/>
<polygon fill="#63b8ff" stroke="#63b8ff" points="112.11,-126.52 122.62,-127.85 115.24,-120.26 112.11,-126.52"/>
</g>
<!-- Node3 -->
<g id="node3" class="node">
<title>Node3</title>
<g id="a_node3"><a xlink:href="../../d3/d3a/getfsq_8f90.html#a7b636db95ff23aaea849bd65fba7aa2e" target="_top" xlink:title="Compute total force residual on flux surfaces.">
<polygon fill="white" stroke="#666666" points="167.5,-111 123.5,-111 123.5,-92 167.5,-92 167.5,-111"/>
<text text-anchor="middle" x="145.5" y="-99" font-family="Helvetica,sans-Serif" font-size="10.00">getfsq</text>
</a>
</g>
</g>
<!-- Node1&#45;&gt;Node3 -->
<g id="edge2" class="edge">
<title>Node1&#45;&gt;Node3</title>
<path fill="none" stroke="#63b8ff" d="M72.5,-88.77C85.2,-91.02 99.44,-93.54 111.88,-95.73"/>
<polygon fill="#63b8ff" stroke="#63b8ff" points="111.21,-99.17 121.66,-97.46 112.42,-92.28 111.21,-99.17"/>
</g>
<!-- Node4 -->
<g id="node4" class="node">
<title>Node4</title>
<g id="a_node4"><a xlink:href="../../db/d5a/residue_8f90.html#aaf8d684a58b8bf9dfdecfdb925960780" target="_top" xlink:title="Compute internal gr , gz required for &#160;constraint.">
<polygon fill="white" stroke="#666666" points="175,-74 116,-74 116,-55 175,-55 175,-74"/>
<text text-anchor="middle" x="145.5" y="-62" font-family="Helvetica,sans-Serif" font-size="10.00">scale_m1</text>
</a>
</g>
</g>
<!-- Node1&#45;&gt;Node4 -->
<g id="edge3" class="edge">
<title>Node1&#45;&gt;Node4</title>
<path fill="none" stroke="#63b8ff" d="M72.5,-76.56C82.83,-74.83 94.18,-72.93 104.75,-71.16"/>
<polygon fill="#63b8ff" stroke="#63b8ff" points="105.06,-74.65 114.34,-69.55 103.9,-67.75 105.06,-74.65"/>
</g>
<!-- Node5 -->
<g id="node5" class="node">
<title>Node5</title>
<g id="a_node5"><a xlink:href="../../d8/d86/scalfor_8f90.html#a2ef9c34d20ddf30cb7b15fe35066b8ca" target="_top" xlink:title="Build forces from different contributions.">
<polygon fill="white" stroke="#666666" points="168.5,-37 122.5,-37 122.5,-18 168.5,-18 168.5,-37"/>
<text text-anchor="middle" x="145.5" y="-25" font-family="Helvetica,sans-Serif" font-size="10.00">scalfor</text>
</a>
</g>
</g>
<!-- Node1&#45;&gt;Node5 -->
<g id="edge4" class="edge">
<title>Node1&#45;&gt;Node5</title>
<path fill="none" stroke="#63b8ff" d="M56.22,-72.67C72.55,-64.31 96.26,-52.18 114.99,-42.6"/>
<polygon fill="#63b8ff" stroke="#63b8ff" points="116.43,-45.79 123.74,-38.12 113.24,-39.56 116.43,-45.79"/>
</g>
<!-- Node6 -->
<g id="node6" class="node">
<title>Node6</title>
<g id="a_node6"><a xlink:href="../../d8/dfd/namespacedbgout.html#acdd1612a38e44b6469dc03d9d1c6ceed" target="_top" xlink:title="check if any output is desired for the current iteration check if the given context should be openend...">
<polygon fill="white" stroke="#666666" points="348,-56 219,-56 219,-37 348,-37 348,-56"/>
<text text-anchor="middle" x="283.5" y="-44" font-family="Helvetica,sans-Serif" font-size="10.00">dbgout::open_dbg_context</text>
</a>
</g>
</g>
<!-- Node5&#45;&gt;Node6 -->
<g id="edge5" class="edge">
<title>Node5&#45;&gt;Node6</title>
<path fill="none" stroke="#63b8ff" d="M168.96,-30.64C179.73,-32.14 193.33,-34.04 207.34,-36"/>
<polygon fill="#63b8ff" stroke="#63b8ff" points="206.73,-39.45 217.12,-37.37 207.7,-32.52 206.73,-39.45"/>
</g>
<!-- Node7 -->
<g id="node7" class="node">
<title>Node7</title>
<g id="a_node7"><a xlink:href="../../db/d40/tridslv_8f90.html#abf5399c0154abe7424c54d7fa9eb69db" target="_top" xlink:title="Solve a tridiagonal system of equations.">
<polygon fill="white" stroke="#666666" points="305,-19 262,-19 262,0 305,0 305,-19"/>
<text text-anchor="middle" x="283.5" y="-7" font-family="Helvetica,sans-Serif" font-size="10.00">tridslv</text>
</a>
</g>
</g>
<!-- Node5&#45;&gt;Node7 -->
<g id="edge7" class="edge">
<title>Node5&#45;&gt;Node7</title>
<path fill="none" stroke="#63b8ff" d="M168.96,-24.53C191.23,-21.58 225.57,-17.03 250.66,-13.71"/>
<polygon fill="#63b8ff" stroke="#63b8ff" points="250.84,-17.22 260.29,-12.44 249.92,-10.28 250.84,-17.22"/>
</g>
<!-- Node6&#45;&gt;Node6 -->
<g id="edge6" class="edge">
<title>Node6&#45;&gt;Node6</title>
<path fill="none" stroke="#63b8ff" d="M261.9,-56.37C252.04,-64.94 259.24,-74 283.5,-74 296.77,-74 304.93,-71.29 307.99,-67.43"/>
<polygon fill="#63b8ff" stroke="#63b8ff" points="311.4,-66.62 305.49,-57.83 304.63,-68.39 311.4,-66.62"/>
</g>
</g>
</svg>
