<?xml version="1.0" encoding="UTF-8" standalone="no"?>
<!DOCTYPE svg PUBLIC "-//W3C//DTD SVG 1.1//EN"
 "http://www.w3.org/Graphics/SVG/1.1/DTD/svg11.dtd">
<!-- Generated by graphviz version 2.47.1 (20210421.1823)
 -->
<!-- Title: open_output_files Pages: 1 -->
<svg width="342pt" height="28pt"
 viewBox="0.00 0.00 342.00 28.00" xmlns="http://www.w3.org/2000/svg" xmlns:xlink="http://www.w3.org/1999/xlink">
<g id="graph0" class="graph" transform="scale(1 1) rotate(0) translate(4 24)">
<title>open_output_files</title>
<polygon fill="white" stroke="transparent" points="-4,4 -4,-24 338,-24 338,4 -4,4"/>
<!-- Node1 -->
<g id="node1" class="node">
<title>Node1</title>
<g id="a_node1"><a xlink:title="Open output files.">
<polygon fill="#bfbfbf" stroke="black" points="242,-0.5 242,-19.5 334,-19.5 334,-0.5 242,-0.5"/>
<text text-anchor="middle" x="288" y="-7.5" font-family="Helvetica,sans-Serif" font-size="10.00">open_output_files</text>
</a>
</g>
</g>
<!-- Node2 -->
<g id="node2" class="node">
<title>Node2</title>
<g id="a_node2"><a xlink:href="../../d0/d4c/heading_8f90.html#aacf288f9cc770199b74d2e6fcc374450" target="_top" xlink:title="Open output files and print banner message at the top.">
<polygon fill="white" stroke="black" points="156,-0.5 156,-19.5 206,-19.5 206,-0.5 156,-0.5"/>
<text text-anchor="middle" x="181" y="-7.5" font-family="Helvetica,sans-Serif" font-size="10.00">heading</text>
</a>
</g>
</g>
<!-- Node1&#45;&gt;Node2 -->
<g id="edge1" class="edge">
<title>Node1&#45;&gt;Node2</title>
<path fill="none" stroke="midnightblue" d="M231.76,-10C222.81,-10 213.97,-10 206.27,-10"/>
<polygon fill="midnightblue" stroke="midnightblue" points="231.86,-13.5 241.86,-10 231.86,-6.5 231.86,-13.5"/>
</g>
<!-- Node3 -->
<g id="node3" class="node">
<title>Node3</title>
<g id="a_node3"><a xlink:href="../../d8/da3/readin_8f90.html#a60f2bfd8fc6f7c3e027a8f91ef0c7b25" target="_top" xlink:title="Read the input file.">
<polygon fill="white" stroke="black" points="77,-0.5 77,-19.5 120,-19.5 120,-0.5 77,-0.5"/>
<text text-anchor="middle" x="98.5" y="-7.5" font-family="Helvetica,sans-Serif" font-size="10.00">readin</text>
</a>
</g>
</g>
<!-- Node2&#45;&gt;Node3 -->
<g id="edge2" class="edge">
<title>Node2&#45;&gt;Node3</title>
<path fill="none" stroke="midnightblue" d="M145.56,-10C136.89,-10 127.85,-10 120.1,-10"/>
<polygon fill="midnightblue" stroke="midnightblue" points="145.85,-13.5 155.85,-10 145.85,-6.5 145.85,-13.5"/>
</g>
<!-- Node4 -->
<g id="node4" class="node">
<title>Node4</title>
<g id="a_node4"><a xlink:href="../../db/d61/vmec_8f90.html#a6d38ab7be2f9d818da4541e1d352ea23" target="_top" xlink:title="Main driver for VMEC.">
<polygon fill="white" stroke="black" points="0,-0.5 0,-19.5 41,-19.5 41,-0.5 0,-0.5"/>
<text text-anchor="middle" x="20.5" y="-7.5" font-family="Helvetica,sans-Serif" font-size="10.00">vmec</text>
</a>
</g>
</g>
<!-- Node3&#45;&gt;Node4 -->
<g id="edge3" class="edge">
<title>Node3&#45;&gt;Node4</title>
<path fill="none" stroke="midnightblue" d="M66.63,-10C58.04,-10 48.95,-10 41.2,-10"/>
<polygon fill="midnightblue" stroke="midnightblue" points="66.73,-13.5 76.73,-10 66.73,-6.5 66.73,-13.5"/>
</g>
</g>
</svg>
