<?xml version="1.0" encoding="UTF-8" standalone="no"?>
<!DOCTYPE svg PUBLIC "-//W3C//DTD SVG 1.1//EN"
 "http://www.w3.org/Graphics/SVG/1.1/DTD/svg11.dtd">
<!-- Generated by graphviz version 2.49.3 (20211215.1918)
 -->
<!-- Title: spline_akima Pages: 1 -->
<svg width="350pt" height="158pt"
 viewBox="0.00 0.00 350.00 158.00" xmlns="http://www.w3.org/2000/svg" xmlns:xlink="http://www.w3.org/1999/xlink">
<g id="graph0" class="graph" transform="scale(1 1) rotate(0) translate(4 154)">
<title>spline_akima</title>
<polygon fill="white" stroke="transparent" points="-4,4 -4,-154 346,-154 346,4 -4,4"/>
<!-- Node1 -->
<g id="node1" class="node">
<title>Node1</title>
<g id="a_node1"><a xlink:title=" ">
<polygon fill="#bfbfbf" stroke="black" points="268,-56.5 268,-75.5 342,-75.5 342,-56.5 268,-56.5"/>
<text text-anchor="middle" x="305" y="-63.5" font-family="Helvetica,sans-Serif" font-size="10.00">spline_akima</text>
</a>
</g>
</g>
<!-- Node2 -->
<g id="node2" class="node">
<title>Node2</title>
<g id="a_node2"><a xlink:href="../../da/dc8/profile__functions_8f.html#a5bfa30ed89583073252fb965b7cf69e0" target="_top" xlink:title=" ">
<polygon fill="white" stroke="black" points="190,-112.5 190,-131.5 228,-131.5 228,-112.5 190,-112.5"/>
<text text-anchor="middle" x="209" y="-119.5" font-family="Helvetica,sans-Serif" font-size="10.00">pcurr</text>
</a>
</g>
</g>
<!-- Node1&#45;&gt;Node2 -->
<g id="edge1" class="edge">
<title>Node1&#45;&gt;Node2</title>
<path fill="none" stroke="midnightblue" d="M278.9,-80.95C262.17,-90.92 240.68,-103.72 226.19,-112.36"/>
<polygon fill="midnightblue" stroke="midnightblue" points="280.83,-83.88 287.63,-75.75 277.24,-77.87 280.83,-83.88"/>
</g>
<!-- Node3 -->
<g id="node3" class="node">
<title>Node3</title>
<g id="a_node3"><a xlink:href="../../da/dc8/profile__functions_8f.html#a437348e2a0ee2ababaeca2205a78b85c" target="_top" xlink:title=" ">
<polygon fill="white" stroke="black" points="190,-56.5 190,-75.5 228,-75.5 228,-56.5 190,-56.5"/>
<text text-anchor="middle" x="209" y="-63.5" font-family="Helvetica,sans-Serif" font-size="10.00">piota</text>
</a>
</g>
</g>
<!-- Node1&#45;&gt;Node3 -->
<g id="edge3" class="edge">
<title>Node1&#45;&gt;Node3</title>
<path fill="none" stroke="midnightblue" d="M257.91,-66C247.38,-66 236.78,-66 228.24,-66"/>
<polygon fill="midnightblue" stroke="midnightblue" points="257.93,-69.5 267.93,-66 257.93,-62.5 257.93,-69.5"/>
</g>
<!-- Node6 -->
<g id="node6" class="node">
<title>Node6</title>
<g id="a_node6"><a xlink:href="../../da/dc8/profile__functions_8f.html#aba5b7c2601ef5c209acc084c9a42ff6d" target="_top" xlink:title=" ">
<polygon fill="white" stroke="black" points="186,-0.5 186,-19.5 232,-19.5 232,-0.5 186,-0.5"/>
<text text-anchor="middle" x="209" y="-7.5" font-family="Helvetica,sans-Serif" font-size="10.00">pmass</text>
</a>
</g>
</g>
<!-- Node1&#45;&gt;Node6 -->
<g id="edge9" class="edge">
<title>Node1&#45;&gt;Node6</title>
<path fill="none" stroke="midnightblue" d="M278.9,-51.05C262.17,-41.08 240.68,-28.28 226.19,-19.64"/>
<polygon fill="midnightblue" stroke="midnightblue" points="277.24,-54.13 287.63,-56.25 280.83,-48.12 277.24,-54.13"/>
</g>
<!-- Node2&#45;&gt;Node2 -->
<g id="edge2" class="edge">
<title>Node2&#45;&gt;Node2</title>
<path fill="none" stroke="midnightblue" d="M226.41,-141.4C225.24,-146.31 219.44,-150 209,-150 192.29,-150 187.46,-140.57 194.51,-131.76"/>
<polygon fill="midnightblue" stroke="midnightblue" points="229.73,-140.31 223.49,-131.76 223.03,-142.34 229.73,-140.31"/>
</g>
<!-- Node3&#45;&gt;Node3 -->
<g id="edge4" class="edge">
<title>Node3&#45;&gt;Node3</title>
<path fill="none" stroke="midnightblue" d="M226.41,-85.4C225.24,-90.31 219.44,-94 209,-94 192.29,-94 187.46,-84.57 194.51,-75.76"/>
<polygon fill="midnightblue" stroke="midnightblue" points="229.73,-84.31 223.49,-75.76 223.03,-86.34 229.73,-84.31"/>
</g>
<!-- Node4 -->
<g id="node4" class="node">
<title>Node4</title>
<g id="a_node4"><a xlink:href="../../d5/d26/magnetic__fluxes_8f90.html#ad5e5642d688664c85a181c2d1fd6497f" target="_top" xlink:title="Compute the radial derivative of the enclosed poloidal magnetic flux.">
<polygon fill="white" stroke="black" points="80,-56.5 80,-75.5 150,-75.5 150,-56.5 80,-56.5"/>
<text text-anchor="middle" x="115" y="-63.5" font-family="Helvetica,sans-Serif" font-size="10.00">polflux_deriv</text>
</a>
</g>
</g>
<!-- Node3&#45;&gt;Node4 -->
<g id="edge5" class="edge">
<title>Node3&#45;&gt;Node4</title>
<path fill="none" stroke="midnightblue" d="M179.54,-66C170.24,-66 159.82,-66 150.15,-66"/>
<polygon fill="midnightblue" stroke="midnightblue" points="179.82,-69.5 189.82,-66 179.82,-62.5 179.82,-69.5"/>
</g>
<!-- Node4&#45;&gt;Node4 -->
<g id="edge8" class="edge">
<title>Node4&#45;&gt;Node4</title>
<path fill="none" stroke="midnightblue" d="M132.04,-85.4C130.9,-90.31 125.22,-94 115,-94 98.65,-94 93.92,-84.57 100.82,-75.76"/>
<polygon fill="midnightblue" stroke="midnightblue" points="135.38,-84.35 129.18,-75.76 128.66,-86.34 135.38,-84.35"/>
</g>
<!-- Node5 -->
<g id="node5" class="node">
<title>Node5</title>
<g id="a_node5"><a xlink:href="../../d5/d26/magnetic__fluxes_8f90.html#a9d78c3bac80a4d14cc82a93bc79e7dcd" target="_top" xlink:title="Compute the enclosed poloidal magnetic flux.">
<polygon fill="white" stroke="black" points="0,-56.5 0,-75.5 44,-75.5 44,-56.5 0,-56.5"/>
<text text-anchor="middle" x="22" y="-63.5" font-family="Helvetica,sans-Serif" font-size="10.00">polflux</text>
</a>
</g>
</g>
<!-- Node4&#45;&gt;Node5 -->
<g id="edge6" class="edge">
<title>Node4&#45;&gt;Node5</title>
<path fill="none" stroke="midnightblue" d="M69.83,-66C60.86,-66 51.82,-66 44.11,-66"/>
<polygon fill="midnightblue" stroke="midnightblue" points="69.86,-69.5 79.86,-66 69.86,-62.5 69.86,-69.5"/>
</g>
<!-- Node5&#45;&gt;Node5 -->
<g id="edge7" class="edge">
<title>Node5&#45;&gt;Node5</title>
<path fill="none" stroke="midnightblue" d="M39.04,-85.4C37.9,-90.31 32.22,-94 22,-94 5.65,-94 0.92,-84.57 7.82,-75.76"/>
<polygon fill="midnightblue" stroke="midnightblue" points="42.38,-84.35 36.18,-75.76 35.66,-86.34 42.38,-84.35"/>
</g>
<!-- Node6&#45;&gt;Node6 -->
<g id="edge10" class="edge">
<title>Node6&#45;&gt;Node6</title>
<path fill="none" stroke="midnightblue" d="M226.41,-29.4C225.24,-34.31 219.44,-38 209,-38 192.29,-38 187.46,-28.57 194.51,-19.76"/>
<polygon fill="midnightblue" stroke="midnightblue" points="229.73,-28.31 223.49,-19.76 223.03,-30.34 229.73,-28.31"/>
</g>
</g>
</svg>
